solid 
 facet normal  1.340038e-17  0.000000e+00 -1.000000e+00
   outer loop
     vertex -3.051156e-02 -1.587302e-02 -3.686073e-02
     vertex  4.873017e-01 -6.666667e-01 -3.686073e-02
     vertex -3.051156e-02 -6.666667e-01 -3.686073e-02
   endloop
 endfacet
 facet normal -0.000000e+00 -1.066220e-17 -1.000000e+00
   outer loop
     vertex  4.873017e-01 -1.587302e-02 -3.686073e-02
     vertex  4.873017e-01 -6.666667e-01 -3.686073e-02
     vertex -3.051156e-02 -1.587302e-02 -3.686073e-02
   endloop
 endfacet
 facet normal  0.000000e+00  0.000000e+00 -1.000000e+00
   outer loop
     vertex  4.873017e-01 -1.587302e-02 -3.686073e-02
     vertex -3.051156e-02 -1.587302e-02 -3.686073e-02
     vertex -3.051156e-02  0.000000e+00 -3.686073e-02
   endloop
 endfacet
 facet normal  0.000000e+00  0.000000e+00 -1.000000e+00
   outer loop
     vertex  4.873017e-01 -1.587302e-02 -3.686073e-02
     vertex -3.051156e-02  0.000000e+00 -3.686073e-02
     vertex  4.873017e-01  0.000000e+00 -3.686073e-02
   endloop
 endfacet
 facet normal  1.000000e+00  0.000000e+00  0.000000e+00
   outer loop
     vertex  4.873017e-01 -1.587302e-02 -3.686073e-02
     vertex  4.873017e-01  0.000000e+00 -3.686073e-02
     vertex  4.873017e-01  0.000000e+00  2.675486e-01
   endloop
 endfacet
 facet normal  1.000000e+00 -0.000000e+00  0.000000e+00
   outer loop
     vertex  4.873017e-01 -6.666667e-01  2.675486e-01
     vertex  4.873017e-01 -1.587302e-02 -3.686073e-02
     vertex  4.873017e-01  0.000000e+00  2.675486e-01
   endloop
 endfacet
 facet normal  1.000000e+00 -0.000000e+00  0.000000e+00
   outer loop
     vertex  4.873017e-01 -6.666667e-01 -3.686073e-02
     vertex  4.873017e-01 -1.587302e-02 -3.686073e-02
     vertex  4.873017e-01 -6.666667e-01  2.675486e-01
   endloop
 endfacet
 facet normal -0.000000e+00 -1.000000e+00  0.000000e+00
   outer loop
     vertex  2.813051e-01 -6.666667e-01  4.400353e-01
     vertex -3.051156e-02 -6.666667e-01  4.400353e-01
     vertex -3.051156e-02 -6.666667e-01 -3.686073e-02
   endloop
 endfacet
 facet normal  2.896797e-08 -1.000000e+00  4.927576e-08
   outer loop
     vertex  4.873017e-01 -6.666667e-01  2.675486e-01
     vertex -3.051156e-02 -6.666667e-01 -3.686073e-02
     vertex  4.873017e-01 -6.666667e-01 -3.686073e-02
   endloop
 endfacet
 facet normal  9.410986e-08 -1.000000e+00 -6.153337e-08
   outer loop
     vertex  4.873017e-01 -6.666667e-01  2.675486e-01
     vertex  2.813051e-01 -6.666667e-01  4.400353e-01
     vertex -3.051156e-02 -6.666667e-01 -3.686073e-02
   endloop
 endfacet
 facet normal  1.456335e-07 -1.000000e+00  0.000000e+00
   outer loop
     vertex  2.813051e-01 -6.666667e-01  5.867725e-01
     vertex  2.813051e-01 -6.666667e-01  4.400353e-01
     vertex  4.873017e-01 -6.666667e-01  2.675486e-01
   endloop
 endfacet
 facet normal -1.194524e-07 -1.000000e+00  4.927576e-08
   outer loop
     vertex  7.977074e-01 -6.666667e-01  2.675486e-01
     vertex  7.977074e-01 -6.666667e-01 -3.686073e-02
     vertex  9.232804e-01 -6.666667e-01 -3.686073e-02
   endloop
 endfacet
 facet normal  0.000000e+00 -1.000000e+00 -9.397792e-08
   outer loop
     vertex  9.232804e-01 -6.666667e-01  5.867725e-01
     vertex  4.873017e-01 -6.666667e-01  2.675486e-01
     vertex  7.977074e-01 -6.666667e-01  2.675486e-01
   endloop
 endfacet
 facet normal -0.000000e+00 -1.000000e+00 -9.397792e-08
   outer loop
     vertex  9.232804e-01 -6.666667e-01  5.867725e-01
     vertex  2.813051e-01 -6.666667e-01  5.867725e-01
     vertex  4.873017e-01 -6.666667e-01  2.675486e-01
   endloop
 endfacet
 facet normal -2.389047e-07 -1.000000e+00 -0.000000e+00
   outer loop
     vertex  9.232804e-01 -6.666667e-01  5.867725e-01
     vertex  7.977074e-01 -6.666667e-01  2.675486e-01
     vertex  9.232804e-01 -6.666667e-01 -3.686073e-02
   endloop
 endfacet
 facet normal -1.000000e+00  0.000000e+00  0.000000e+00
   outer loop
     vertex -3.051156e-02 -1.587302e-02 -3.686073e-02
     vertex -3.051156e-02 -6.666667e-01  4.400353e-01
     vertex -3.051156e-02 -1.587302e-02  4.400353e-01
   endloop
 endfacet
 facet normal -1.000000e+00  0.000000e+00  0.000000e+00
   outer loop
     vertex -3.051156e-02 -1.587302e-02 -3.686073e-02
     vertex -3.051156e-02 -6.666667e-01 -3.686073e-02
     vertex -3.051156e-02 -6.666667e-01  4.400353e-01
   endloop
 endfacet
 facet normal  0.000000e+00  1.000000e+00  0.000000e+00
   outer loop
     vertex  2.813051e-01  0.000000e+00  4.400353e-01
     vertex -3.051156e-02  0.000000e+00 -3.686073e-02
     vertex -3.051156e-02  0.000000e+00  4.400353e-01
   endloop
 endfacet
 facet normal  0.000000e+00  1.000000e+00  0.000000e+00
   outer loop
     vertex  4.873017e-01  0.000000e+00  2.675486e-01
     vertex  4.873017e-01  0.000000e+00 -3.686073e-02
     vertex -3.051156e-02  0.000000e+00 -3.686073e-02
   endloop
 endfacet
 facet normal  0.000000e+00  1.000000e+00  0.000000e+00
   outer loop
     vertex  4.873017e-01  0.000000e+00  2.675486e-01
     vertex -3.051156e-02  0.000000e+00 -3.686073e-02
     vertex  2.813051e-01  0.000000e+00  4.400353e-01
   endloop
 endfacet
 facet normal  0.000000e+00  1.000000e+00  0.000000e+00
   outer loop
     vertex  2.813051e-01  0.000000e+00  5.867725e-01
     vertex  4.873017e-01  0.000000e+00  2.675486e-01
     vertex  2.813051e-01  0.000000e+00  4.400353e-01
   endloop
 endfacet
 facet normal  0.000000e+00  1.000000e+00  0.000000e+00
   outer loop
     vertex  7.977074e-01  0.000000e+00  2.675486e-01
     vertex  9.232804e-01  0.000000e+00 -3.686073e-02
     vertex  7.977074e-01  0.000000e+00 -3.686073e-02
   endloop
 endfacet
 facet normal  0.000000e+00  1.000000e+00  0.000000e+00
   outer loop
     vertex  9.232804e-01  0.000000e+00  5.867725e-01
     vertex  7.977074e-01  0.000000e+00  2.675486e-01
     vertex  4.873017e-01  0.000000e+00  2.675486e-01
   endloop
 endfacet
 facet normal  0.000000e+00  1.000000e+00  0.000000e+00
   outer loop
     vertex  9.232804e-01  0.000000e+00  5.867725e-01
     vertex  4.873017e-01  0.000000e+00  2.675486e-01
     vertex  2.813051e-01  0.000000e+00  5.867725e-01
   endloop
 endfacet
 facet normal  0.000000e+00  1.000000e+00  0.000000e+00
   outer loop
     vertex  9.232804e-01  0.000000e+00  5.867725e-01
     vertex  9.232804e-01  0.000000e+00 -3.686073e-02
     vertex  7.977074e-01  0.000000e+00  2.675486e-01
   endloop
 endfacet
 facet normal -1.000000e+00  0.000000e+00  0.000000e+00
   outer loop
     vertex -3.051156e-02 -1.587302e-02 -3.686073e-02
     vertex -3.051156e-02 -1.587302e-02  4.400353e-01
     vertex -3.051156e-02  0.000000e+00  4.400353e-01
   endloop
 endfacet
 facet normal -1.000000e+00  0.000000e+00  0.000000e+00
   outer loop
     vertex -3.051156e-02 -1.587302e-02 -3.686073e-02
     vertex -3.051156e-02  0.000000e+00  4.400353e-01
     vertex -3.051156e-02  0.000000e+00 -3.686073e-02
   endloop
 endfacet
 facet normal  0.000000e+00  0.000000e+00 -1.000000e+00
   outer loop
     vertex  4.873017e-01 -6.666667e-01  2.675486e-01
     vertex  7.977074e-01  0.000000e+00  2.675486e-01
     vertex  7.977074e-01 -6.666667e-01  2.675486e-01
   endloop
 endfacet
 facet normal  0.000000e+00  0.000000e+00 -1.000000e+00
   outer loop
     vertex  4.873017e-01 -6.666667e-01  2.675486e-01
     vertex  4.873017e-01  0.000000e+00  2.675486e-01
     vertex  7.977074e-01  0.000000e+00  2.675486e-01
   endloop
 endfacet
 facet normal -0.000000e+00  0.000000e+00  1.000000e+00
   outer loop
     vertex -3.051156e-02 -1.587302e-02  4.400353e-01
     vertex  2.813051e-01 -6.666667e-01  4.400353e-01
     vertex  2.813051e-01 -1.587302e-02  4.400353e-01
   endloop
 endfacet
 facet normal  0.000000e+00  0.000000e+00  1.000000e+00
   outer loop
     vertex -3.051156e-02 -1.587302e-02  4.400353e-01
     vertex -3.051156e-02 -6.666667e-01  4.400353e-01
     vertex  2.813051e-01 -6.666667e-01  4.400353e-01
   endloop
 endfacet
 facet normal -1.000000e+00  0.000000e+00  0.000000e+00
   outer loop
     vertex  2.813051e-01 -1.587302e-02  4.400353e-01
     vertex  2.813051e-01 -6.666667e-01  5.867725e-01
     vertex  2.813051e-01 -1.587302e-02  5.867725e-01
   endloop
 endfacet
 facet normal -1.000000e+00  0.000000e+00  0.000000e+00
   outer loop
     vertex  2.813051e-01 -1.587302e-02  4.400353e-01
     vertex  2.813051e-01 -6.666667e-01  4.400353e-01
     vertex  2.813051e-01 -6.666667e-01  5.867725e-01
   endloop
 endfacet
 facet normal -0.000000e+00  0.000000e+00  1.000000e+00
   outer loop
     vertex  2.813051e-01 -1.587302e-02  5.867725e-01
     vertex  9.232804e-01 -6.666667e-01  5.867725e-01
     vertex  9.232804e-01 -1.587302e-02  5.867725e-01
   endloop
 endfacet
 facet normal  0.000000e+00  0.000000e+00  1.000000e+00
   outer loop
     vertex  2.813051e-01 -1.587302e-02  5.867725e-01
     vertex  2.813051e-01 -6.666667e-01  5.867725e-01
     vertex  9.232804e-01 -6.666667e-01  5.867725e-01
   endloop
 endfacet
 facet normal  1.000000e+00  0.000000e+00  0.000000e+00
   outer loop
     vertex  9.232804e-01 -1.587302e-02  5.867725e-01
     vertex  9.232804e-01 -6.666667e-01 -3.686073e-02
     vertex  9.232804e-01 -1.587302e-02 -3.686073e-02
   endloop
 endfacet
 facet normal  1.000000e+00  0.000000e+00  0.000000e+00
   outer loop
     vertex  9.232804e-01 -1.587302e-02  5.867725e-01
     vertex  9.232804e-01 -6.666667e-01  5.867725e-01
     vertex  9.232804e-01 -6.666667e-01 -3.686073e-02
   endloop
 endfacet
 facet normal -0.000000e+00  0.000000e+00 -1.000000e+00
   outer loop
     vertex  9.232804e-01 -1.587302e-02 -3.686073e-02
     vertex  7.977074e-01 -6.666667e-01 -3.686073e-02
     vertex  7.977074e-01 -1.587302e-02 -3.686073e-02
   endloop
 endfacet
 facet normal  0.000000e+00 -0.000000e+00 -1.000000e+00
   outer loop
     vertex  9.232804e-01 -1.587302e-02 -3.686073e-02
     vertex  9.232804e-01 -6.666667e-01 -3.686073e-02
     vertex  7.977074e-01 -6.666667e-01 -3.686073e-02
   endloop
 endfacet
 facet normal -1.000000e+00  0.000000e+00 -0.000000e+00
   outer loop
     vertex  7.977074e-01  0.000000e+00  2.675486e-01
     vertex  7.977074e-01  0.000000e+00 -3.686073e-02
     vertex  7.977074e-01 -1.587302e-02 -3.686073e-02
   endloop
 endfacet
 facet normal -1.000000e+00  0.000000e+00 -0.000000e+00
   outer loop
     vertex  7.977074e-01 -6.666667e-01  2.675486e-01
     vertex  7.977074e-01 -1.587302e-02 -3.686073e-02
     vertex  7.977074e-01 -6.666667e-01 -3.686073e-02
   endloop
 endfacet
 facet normal -1.000000e+00  0.000000e+00  0.000000e+00
   outer loop
     vertex  7.977074e-01 -6.666667e-01  2.675486e-01
     vertex  7.977074e-01  0.000000e+00  2.675486e-01
     vertex  7.977074e-01 -1.587302e-02 -3.686073e-02
   endloop
 endfacet
 facet normal  0.000000e+00  0.000000e+00  1.000000e+00
   outer loop
     vertex -3.051156e-02 -1.587302e-02  4.400353e-01
     vertex  2.813051e-01 -1.587302e-02  4.400353e-01
     vertex  2.813051e-01  0.000000e+00  4.400353e-01
   endloop
 endfacet
 facet normal  0.000000e+00  0.000000e+00  1.000000e+00
   outer loop
     vertex -3.051156e-02 -1.587302e-02  4.400353e-01
     vertex  2.813051e-01  0.000000e+00  4.400353e-01
     vertex -3.051156e-02  0.000000e+00  4.400353e-01
   endloop
 endfacet
 facet normal -1.000000e+00  0.000000e+00  0.000000e+00
   outer loop
     vertex  2.813051e-01 -1.587302e-02  4.400353e-01
     vertex  2.813051e-01 -1.587302e-02  5.867725e-01
     vertex  2.813051e-01  0.000000e+00  5.867725e-01
   endloop
 endfacet
 facet normal -1.000000e+00  0.000000e+00  0.000000e+00
   outer loop
     vertex  2.813051e-01 -1.587302e-02  4.400353e-01
     vertex  2.813051e-01  0.000000e+00  5.867725e-01
     vertex  2.813051e-01  0.000000e+00  4.400353e-01
   endloop
 endfacet
 facet normal  0.000000e+00  0.000000e+00  1.000000e+00
   outer loop
     vertex  2.813051e-01 -1.587302e-02  5.867725e-01
     vertex  9.232804e-01 -1.587302e-02  5.867725e-01
     vertex  9.232804e-01  0.000000e+00  5.867725e-01
   endloop
 endfacet
 facet normal  0.000000e+00  0.000000e+00  1.000000e+00
   outer loop
     vertex  2.813051e-01 -1.587302e-02  5.867725e-01
     vertex  9.232804e-01  0.000000e+00  5.867725e-01
     vertex  2.813051e-01  0.000000e+00  5.867725e-01
   endloop
 endfacet
 facet normal  1.000000e+00  0.000000e+00  0.000000e+00
   outer loop
     vertex  9.232804e-01 -1.587302e-02  5.867725e-01
     vertex  9.232804e-01 -1.587302e-02 -3.686073e-02
     vertex  9.232804e-01  0.000000e+00 -3.686073e-02
   endloop
 endfacet
 facet normal  1.000000e+00 -0.000000e+00  0.000000e+00
   outer loop
     vertex  9.232804e-01 -1.587302e-02  5.867725e-01
     vertex  9.232804e-01  0.000000e+00 -3.686073e-02
     vertex  9.232804e-01  0.000000e+00  5.867725e-01
   endloop
 endfacet
 facet normal  0.000000e+00  0.000000e+00 -1.000000e+00
   outer loop
     vertex  9.232804e-01 -1.587302e-02 -3.686073e-02
     vertex  7.977074e-01 -1.587302e-02 -3.686073e-02
     vertex  7.977074e-01  0.000000e+00 -3.686073e-02
   endloop
 endfacet
 facet normal  0.000000e+00  0.000000e+00 -1.000000e+00
   outer loop
     vertex  9.232804e-01 -1.587302e-02 -3.686073e-02
     vertex  7.977074e-01  0.000000e+00 -3.686073e-02
     vertex  9.232804e-01  0.000000e+00 -3.686073e-02
   endloop
 endfacet
endsolid
