solid 
 facet normal -9.987165e-01 -5.064902e-02  0.000000e+00
   outer loop
     vertex -1.050426e+00 -1.290164e-01 -1.587302e-02
     vertex -1.052381e+00 -9.047610e-02  6.000000e-08
     vertex -1.052381e+00 -9.047610e-02 -1.587302e-02
   endloop
 endfacet
 facet normal -9.987165e-01 -5.064902e-02  0.000000e+00
   outer loop
     vertex -1.050426e+00 -1.290164e-01 -1.587302e-02
     vertex -1.050426e+00 -1.290164e-01  6.000000e-08
     vertex -1.052381e+00 -9.047610e-02  6.000000e-08
   endloop
 endfacet
 facet normal -9.884683e-01 -1.514276e-01  0.000000e+00
   outer loop
     vertex -1.044583e+00 -1.671613e-01 -1.587302e-02
     vertex -1.044583e+00 -1.671613e-01  6.000000e-08
     vertex -1.050426e+00 -1.290164e-01  6.000000e-08
   endloop
 endfacet
 facet normal -9.884683e-01 -1.514276e-01  0.000000e+00
   outer loop
     vertex -1.044583e+00 -1.671613e-01 -1.587302e-02
     vertex -1.050426e+00 -1.290164e-01  6.000000e-08
     vertex -1.050426e+00 -1.290164e-01 -1.587302e-02
   endloop
 endfacet
 facet normal -9.680772e-01 -2.506524e-01  0.000000e+00
   outer loop
     vertex -1.034910e+00 -2.045192e-01 -1.587302e-02
     vertex -1.034910e+00 -2.045192e-01  6.000000e-08
     vertex -1.044583e+00 -1.671613e-01  6.000000e-08
   endloop
 endfacet
 facet normal -9.680772e-01 -2.506524e-01  0.000000e+00
   outer loop
     vertex -1.034910e+00 -2.045192e-01 -1.587302e-02
     vertex -1.044583e+00 -1.671613e-01  6.000000e-08
     vertex -1.044583e+00 -1.671613e-01 -1.587302e-02
   endloop
 endfacet
 facet normal -9.377522e-01 -3.473051e-01  0.000000e+00
   outer loop
     vertex -1.021508e+00 -2.407069e-01 -1.587302e-02
     vertex -1.021508e+00 -2.407069e-01  6.000000e-08
     vertex -1.034910e+00 -2.045192e-01  6.000000e-08
   endloop
 endfacet
 facet normal -9.377522e-01 -3.473051e-01  0.000000e+00
   outer loop
     vertex -1.021508e+00 -2.407069e-01 -1.587302e-02
     vertex -1.034910e+00 -2.045192e-01  6.000000e-08
     vertex -1.034910e+00 -2.045192e-01 -1.587302e-02
   endloop
 endfacet
 facet normal -8.978046e-01 -4.403941e-01  0.000000e+00
   outer loop
     vertex -1.004513e+00 -2.753530e-01 -1.587302e-02
     vertex -1.004513e+00 -2.753530e-01  6.000000e-08
     vertex -1.021508e+00 -2.407069e-01  6.000000e-08
   endloop
 endfacet
 facet normal -8.978046e-01 -4.403941e-01  0.000000e+00
   outer loop
     vertex -1.004513e+00 -2.753530e-01 -1.587302e-02
     vertex -1.021508e+00 -2.407069e-01  6.000000e-08
     vertex -1.021508e+00 -2.407069e-01 -1.587302e-02
   endloop
 endfacet
 facet normal -8.486443e-01 -5.289639e-01  0.000000e+00
   outer loop
     vertex -9.841003e-01 -3.081021e-01 -1.587302e-02
     vertex -9.841003e-01 -3.081021e-01  6.000000e-08
     vertex -1.004513e+00 -2.753530e-01  6.000000e-08
   endloop
 endfacet
 facet normal -8.486443e-01 -5.289639e-01  0.000000e+00
   outer loop
     vertex -9.841003e-01 -3.081021e-01 -1.587302e-02
     vertex -1.004513e+00 -2.753530e-01  6.000000e-08
     vertex -1.004513e+00 -2.753530e-01 -1.587302e-02
   endloop
 endfacet
 facet normal -7.907758e-01 -6.121059e-01  0.000000e+00
   outer loop
     vertex -9.604792e-01 -3.386180e-01 -1.587302e-02
     vertex -9.604792e-01 -3.386180e-01  6.000000e-08
     vertex -9.841003e-01 -3.081021e-01  6.000000e-08
   endloop
 endfacet
 facet normal -7.907758e-01 -6.121059e-01  0.000000e+00
   outer loop
     vertex -9.604792e-01 -3.386180e-01 -1.587302e-02
     vertex -9.841003e-01 -3.081021e-01  6.000000e-08
     vertex -9.841003e-01 -3.081021e-01 -1.587302e-02
   endloop
 endfacet
 facet normal -7.247928e-01 -6.889669e-01  0.000000e+00
   outer loop
     vertex -9.338921e-01 -3.665877e-01 -1.587302e-02
     vertex -9.338921e-01 -3.665877e-01  6.000000e-08
     vertex -9.604792e-01 -3.386180e-01  6.000000e-08
   endloop
 endfacet
 facet normal -7.247928e-01 -6.889669e-01  0.000000e+00
   outer loop
     vertex -9.338921e-01 -3.665877e-01 -1.587302e-02
     vertex -9.604792e-01 -3.386180e-01  6.000000e-08
     vertex -9.604792e-01 -3.386180e-01 -1.587302e-02
   endloop
 endfacet
 facet normal -6.513725e-01 -7.587581e-01  0.000000e+00
   outer loop
     vertex -9.046117e-01 -3.917240e-01 -1.587302e-02
     vertex -9.338921e-01 -3.665877e-01  6.000000e-08
     vertex -9.338921e-01 -3.665877e-01 -1.587302e-02
   endloop
 endfacet
 facet normal -6.513725e-01 -7.587581e-01  0.000000e+00
   outer loop
     vertex -9.046117e-01 -3.917240e-01 -1.587302e-02
     vertex -9.046117e-01 -3.917240e-01  6.000000e-08
     vertex -9.338921e-01 -3.665877e-01  6.000000e-08
   endloop
 endfacet
 facet normal -5.712683e-01 -8.207634e-01  0.000000e+00
   outer loop
     vertex -8.729386e-01 -4.137692e-01 -1.587302e-02
     vertex -9.046117e-01 -3.917240e-01  6.000000e-08
     vertex -9.046117e-01 -3.917240e-01 -1.587302e-02
   endloop
 endfacet
 facet normal -5.712683e-01 -8.207634e-01  0.000000e+00
   outer loop
     vertex -8.729386e-01 -4.137692e-01 -1.587302e-02
     vertex -8.729386e-01 -4.137692e-01  6.000000e-08
     vertex -9.046117e-01 -3.917240e-01  6.000000e-08
   endloop
 endfacet
 facet normal -4.853020e-01 -8.743466e-01  0.000000e+00
   outer loop
     vertex -8.391977e-01 -4.324969e-01 -1.587302e-02
     vertex -8.391977e-01 -4.324969e-01  6.000000e-08
     vertex -8.729386e-01 -4.137692e-01  6.000000e-08
   endloop
 endfacet
 facet normal -4.853020e-01 -8.743466e-01  0.000000e+00
   outer loop
     vertex -8.391977e-01 -4.324969e-01 -1.587302e-02
     vertex -8.729386e-01 -4.137692e-01  6.000000e-08
     vertex -8.729386e-01 -4.137692e-01 -1.587302e-02
   endloop
 endfacet
 facet normal -3.943559e-01 -9.189578e-01  0.000000e+00
   outer loop
     vertex -8.037353e-01 -4.477150e-01 -1.587302e-02
     vertex -8.037353e-01 -4.477150e-01  6.000000e-08
     vertex -8.391977e-01 -4.324969e-01  6.000000e-08
   endloop
 endfacet
 facet normal -3.943559e-01 -9.189578e-01  0.000000e+00
   outer loop
     vertex -8.037353e-01 -4.477150e-01 -1.587302e-02
     vertex -8.391977e-01 -4.324969e-01  6.000000e-08
     vertex -8.391977e-01 -4.324969e-01 -1.587302e-02
   endloop
 endfacet
 facet normal -2.993632e-01 -9.541392e-01  0.000000e+00
   outer loop
     vertex -7.669152e-01 -4.592674e-01 -1.587302e-02
     vertex -7.669152e-01 -4.592674e-01  6.000000e-08
     vertex -8.037353e-01 -4.477150e-01  6.000000e-08
   endloop
 endfacet
 facet normal -2.993632e-01 -9.541392e-01  0.000000e+00
   outer loop
     vertex -7.669152e-01 -4.592674e-01 -1.587302e-02
     vertex -8.037353e-01 -4.477150e-01  6.000000e-08
     vertex -8.037353e-01 -4.477150e-01 -1.587302e-02
   endloop
 endfacet
 facet normal -2.012985e-01 -9.795299e-01  0.000000e+00
   outer loop
     vertex -7.291153e-01 -4.670355e-01 -1.587302e-02
     vertex -7.291153e-01 -4.670355e-01  6.000000e-08
     vertex -7.669152e-01 -4.592674e-01  6.000000e-08
   endloop
 endfacet
 facet normal -2.012985e-01 -9.795299e-01  0.000000e+00
   outer loop
     vertex -7.291153e-01 -4.670355e-01 -1.587302e-02
     vertex -7.669152e-01 -4.592674e-01  6.000000e-08
     vertex -7.669152e-01 -4.592674e-01 -1.587302e-02
   endloop
 endfacet
 facet normal -1.011683e-01 -9.948693e-01  0.000000e+00
   outer loop
     vertex -6.907234e-01 -4.709396e-01 -1.587302e-02
     vertex -6.907234e-01 -4.709396e-01  6.000000e-08
     vertex -7.291153e-01 -4.670355e-01  6.000000e-08
   endloop
 endfacet
 facet normal -1.011683e-01 -9.948693e-01  0.000000e+00
   outer loop
     vertex -6.907234e-01 -4.709396e-01 -1.587302e-02
     vertex -7.291153e-01 -4.670355e-01  6.000000e-08
     vertex -7.291153e-01 -4.670355e-01 -1.587302e-02
   endloop
 endfacet
 facet normal -1.438491e-15 -1.000000e+00  0.000000e+00
   outer loop
     vertex -6.521336e-01 -4.709396e-01 -1.587302e-02
     vertex -6.521336e-01 -4.709396e-01  6.000000e-08
     vertex -6.907234e-01 -4.709396e-01  6.000000e-08
   endloop
 endfacet
 facet normal -1.438491e-15 -1.000000e+00  0.000000e+00
   outer loop
     vertex -6.521336e-01 -4.709396e-01 -1.587302e-02
     vertex -6.907234e-01 -4.709396e-01  6.000000e-08
     vertex -6.907234e-01 -4.709396e-01 -1.587302e-02
   endloop
 endfacet
 facet normal  1.011683e-01 -9.948693e-01  0.000000e+00
   outer loop
     vertex -6.137417e-01 -4.670355e-01 -1.587302e-02
     vertex -6.137417e-01 -4.670355e-01  6.000000e-08
     vertex -6.521336e-01 -4.709396e-01  6.000000e-08
   endloop
 endfacet
 facet normal  1.011683e-01 -9.948693e-01  0.000000e+00
   outer loop
     vertex -6.137417e-01 -4.670355e-01 -1.587302e-02
     vertex -6.521336e-01 -4.709396e-01  6.000000e-08
     vertex -6.521336e-01 -4.709396e-01 -1.587302e-02
   endloop
 endfacet
 facet normal  2.012985e-01 -9.795299e-01  0.000000e+00
   outer loop
     vertex -5.759418e-01 -4.592674e-01 -1.587302e-02
     vertex -5.759418e-01 -4.592674e-01  6.000000e-08
     vertex -6.137417e-01 -4.670355e-01  6.000000e-08
   endloop
 endfacet
 facet normal  2.012985e-01 -9.795299e-01  0.000000e+00
   outer loop
     vertex -5.759418e-01 -4.592674e-01 -1.587302e-02
     vertex -6.137417e-01 -4.670355e-01  6.000000e-08
     vertex -6.137417e-01 -4.670355e-01 -1.587302e-02
   endloop
 endfacet
 facet normal  2.993632e-01 -9.541392e-01  0.000000e+00
   outer loop
     vertex -5.391217e-01 -4.477150e-01 -1.587302e-02
     vertex -5.391217e-01 -4.477150e-01  6.000000e-08
     vertex -5.759418e-01 -4.592674e-01  6.000000e-08
   endloop
 endfacet
 facet normal  2.993632e-01 -9.541392e-01  0.000000e+00
   outer loop
     vertex -5.391217e-01 -4.477150e-01 -1.587302e-02
     vertex -5.759418e-01 -4.592674e-01  6.000000e-08
     vertex -5.759418e-01 -4.592674e-01 -1.587302e-02
   endloop
 endfacet
 facet normal  3.943559e-01 -9.189578e-01  0.000000e+00
   outer loop
     vertex -5.036593e-01 -4.324969e-01 -1.587302e-02
     vertex -5.036593e-01 -4.324969e-01  6.000000e-08
     vertex -5.391217e-01 -4.477150e-01  6.000000e-08
   endloop
 endfacet
 facet normal  3.943559e-01 -9.189578e-01  0.000000e+00
   outer loop
     vertex -5.036593e-01 -4.324969e-01 -1.587302e-02
     vertex -5.391217e-01 -4.477150e-01  6.000000e-08
     vertex -5.391217e-01 -4.477150e-01 -1.587302e-02
   endloop
 endfacet
 facet normal  4.853020e-01 -8.743466e-01  0.000000e+00
   outer loop
     vertex -4.699184e-01 -4.137692e-01 -1.587302e-02
     vertex -4.699184e-01 -4.137692e-01  6.000000e-08
     vertex -5.036593e-01 -4.324969e-01  6.000000e-08
   endloop
 endfacet
 facet normal  4.853020e-01 -8.743466e-01  0.000000e+00
   outer loop
     vertex -4.699184e-01 -4.137692e-01 -1.587302e-02
     vertex -5.036593e-01 -4.324969e-01  6.000000e-08
     vertex -5.036593e-01 -4.324969e-01 -1.587302e-02
   endloop
 endfacet
 facet normal  5.712683e-01 -8.207634e-01  0.000000e+00
   outer loop
     vertex -4.382453e-01 -3.917240e-01 -1.587302e-02
     vertex -4.382453e-01 -3.917240e-01  6.000000e-08
     vertex -4.699184e-01 -4.137692e-01  6.000000e-08
   endloop
 endfacet
 facet normal  5.712683e-01 -8.207634e-01  0.000000e+00
   outer loop
     vertex -4.382453e-01 -3.917240e-01 -1.587302e-02
     vertex -4.699184e-01 -4.137692e-01  6.000000e-08
     vertex -4.699184e-01 -4.137692e-01 -1.587302e-02
   endloop
 endfacet
 facet normal  6.513725e-01 -7.587581e-01  0.000000e+00
   outer loop
     vertex -4.089649e-01 -3.665877e-01 -1.587302e-02
     vertex -4.089649e-01 -3.665877e-01  6.000000e-08
     vertex -4.382453e-01 -3.917240e-01  6.000000e-08
   endloop
 endfacet
 facet normal  6.513725e-01 -7.587581e-01  0.000000e+00
   outer loop
     vertex -4.089649e-01 -3.665877e-01 -1.587302e-02
     vertex -4.382453e-01 -3.917240e-01  6.000000e-08
     vertex -4.382453e-01 -3.917240e-01 -1.587302e-02
   endloop
 endfacet
 facet normal  7.247928e-01 -6.889669e-01  0.000000e+00
   outer loop
     vertex -3.823778e-01 -3.386180e-01 -1.587302e-02
     vertex -3.823778e-01 -3.386180e-01  6.000000e-08
     vertex -4.089649e-01 -3.665877e-01  6.000000e-08
   endloop
 endfacet
 facet normal  7.247928e-01 -6.889669e-01  0.000000e+00
   outer loop
     vertex -3.823778e-01 -3.386180e-01 -1.587302e-02
     vertex -4.089649e-01 -3.665877e-01  6.000000e-08
     vertex -4.089649e-01 -3.665877e-01 -1.587302e-02
   endloop
 endfacet
 facet normal  7.907758e-01 -6.121059e-01  0.000000e+00
   outer loop
     vertex -3.587567e-01 -3.081021e-01 -1.587302e-02
     vertex -3.587567e-01 -3.081021e-01  6.000000e-08
     vertex -3.823778e-01 -3.386180e-01  6.000000e-08
   endloop
 endfacet
 facet normal  7.907758e-01 -6.121059e-01  0.000000e+00
   outer loop
     vertex -3.587567e-01 -3.081021e-01 -1.587302e-02
     vertex -3.823778e-01 -3.386180e-01  6.000000e-08
     vertex -3.823778e-01 -3.386180e-01 -1.587302e-02
   endloop
 endfacet
 facet normal  8.486443e-01 -5.289639e-01  0.000000e+00
   outer loop
     vertex -3.383441e-01 -2.753530e-01 -1.587302e-02
     vertex -3.383441e-01 -2.753530e-01  6.000000e-08
     vertex -3.587567e-01 -3.081021e-01  6.000000e-08
   endloop
 endfacet
 facet normal  8.486443e-01 -5.289639e-01  0.000000e+00
   outer loop
     vertex -3.383441e-01 -2.753530e-01 -1.587302e-02
     vertex -3.587567e-01 -3.081021e-01  6.000000e-08
     vertex -3.587567e-01 -3.081021e-01 -1.587302e-02
   endloop
 endfacet
 facet normal  8.978046e-01 -4.403941e-01  0.000000e+00
   outer loop
     vertex -3.213493e-01 -2.407069e-01 -1.587302e-02
     vertex -3.213493e-01 -2.407069e-01  6.000000e-08
     vertex -3.383441e-01 -2.753530e-01  6.000000e-08
   endloop
 endfacet
 facet normal  8.978046e-01 -4.403941e-01  0.000000e+00
   outer loop
     vertex -3.213493e-01 -2.407069e-01 -1.587302e-02
     vertex -3.383441e-01 -2.753530e-01  6.000000e-08
     vertex -3.383441e-01 -2.753530e-01 -1.587302e-02
   endloop
 endfacet
 facet normal  9.377522e-01 -3.473051e-01  0.000000e+00
   outer loop
     vertex -3.079469e-01 -2.045192e-01 -1.587302e-02
     vertex -3.079469e-01 -2.045192e-01  6.000000e-08
     vertex -3.213493e-01 -2.407069e-01  6.000000e-08
   endloop
 endfacet
 facet normal  9.377522e-01 -3.473051e-01  0.000000e+00
   outer loop
     vertex -3.079469e-01 -2.045192e-01 -1.587302e-02
     vertex -3.213493e-01 -2.407069e-01  6.000000e-08
     vertex -3.213493e-01 -2.407069e-01 -1.587302e-02
   endloop
 endfacet
 facet normal  9.680772e-01 -2.506524e-01  0.000000e+00
   outer loop
     vertex -2.982743e-01 -1.671613e-01 -1.587302e-02
     vertex -2.982743e-01 -1.671613e-01  6.000000e-08
     vertex -3.079469e-01 -2.045192e-01  6.000000e-08
   endloop
 endfacet
 facet normal  9.680772e-01 -2.506524e-01  0.000000e+00
   outer loop
     vertex -2.982743e-01 -1.671613e-01 -1.587302e-02
     vertex -3.079469e-01 -2.045192e-01  6.000000e-08
     vertex -3.079469e-01 -2.045192e-01 -1.587302e-02
   endloop
 endfacet
 facet normal  9.884683e-01 -1.514276e-01  0.000000e+00
   outer loop
     vertex -2.924307e-01 -1.290164e-01 -1.587302e-02
     vertex -2.924307e-01 -1.290164e-01  6.000000e-08
     vertex -2.982743e-01 -1.671613e-01  6.000000e-08
   endloop
 endfacet
 facet normal  9.884683e-01 -1.514276e-01  0.000000e+00
   outer loop
     vertex -2.924307e-01 -1.290164e-01 -1.587302e-02
     vertex -2.982743e-01 -1.671613e-01  6.000000e-08
     vertex -2.982743e-01 -1.671613e-01 -1.587302e-02
   endloop
 endfacet
 facet normal  9.987165e-01 -5.064902e-02  0.000000e+00
   outer loop
     vertex -2.904761e-01 -9.047610e-02 -1.587302e-02
     vertex -2.904761e-01 -9.047610e-02  6.000000e-08
     vertex -2.924307e-01 -1.290164e-01  6.000000e-08
   endloop
 endfacet
 facet normal  9.987165e-01 -5.064902e-02  0.000000e+00
   outer loop
     vertex -2.904761e-01 -9.047610e-02 -1.587302e-02
     vertex -2.924307e-01 -1.290164e-01  6.000000e-08
     vertex -2.924307e-01 -1.290164e-01 -1.587302e-02
   endloop
 endfacet
 facet normal -1.000000e+00  0.000000e+00  0.000000e+00
   outer loop
     vertex -1.052381e+00 -9.047610e-02 -1.587302e-02
     vertex -1.052381e+00  5.190477e-01  6.000000e-08
     vertex -1.052381e+00  5.190477e-01 -1.587302e-02
   endloop
 endfacet
 facet normal -1.000000e+00  0.000000e+00  0.000000e+00
   outer loop
     vertex -1.052381e+00 -9.047610e-02 -1.587302e-02
     vertex -1.052381e+00 -9.047610e-02  6.000000e-08
     vertex -1.052381e+00  5.190477e-01  6.000000e-08
   endloop
 endfacet
 facet normal  1.000000e+00  9.107298e-17  0.000000e+00
   outer loop
     vertex -2.904761e-01  5.190477e-01 -1.587302e-02
     vertex -2.904761e-01 -9.047610e-02  6.000000e-08
     vertex -2.904761e-01 -9.047610e-02 -1.587302e-02
   endloop
 endfacet
 facet normal  1.000000e+00  9.107298e-17 -0.000000e+00
   outer loop
     vertex -2.904761e-01  5.190477e-01 -1.587302e-02
     vertex -2.904761e-01  5.190477e-01  6.000000e-08
     vertex -2.904761e-01 -9.047610e-02  6.000000e-08
   endloop
 endfacet
 facet normal -9.987165e-01 -5.064902e-02  0.000000e+00
   outer loop
     vertex -1.050426e+00 -1.290164e-01 -1.587302e-02
     vertex -1.052381e+00 -9.047610e-02 -1.587302e-02
     vertex -1.052381e+00 -9.047610e-02 -3.174603e-02
   endloop
 endfacet
 facet normal -9.987165e-01 -5.064902e-02 -0.000000e+00
   outer loop
     vertex -1.050426e+00 -1.290164e-01 -1.587302e-02
     vertex -1.052381e+00 -9.047610e-02 -3.174603e-02
     vertex -1.050426e+00 -1.290164e-01 -3.174603e-02
   endloop
 endfacet
 facet normal -9.884683e-01 -1.514276e-01 -0.000000e+00
   outer loop
     vertex -1.044583e+00 -1.671613e-01 -1.587302e-02
     vertex -1.050426e+00 -1.290164e-01 -3.174603e-02
     vertex -1.044583e+00 -1.671613e-01 -3.174603e-02
   endloop
 endfacet
 facet normal -9.884683e-01 -1.514276e-01  0.000000e+00
   outer loop
     vertex -1.044583e+00 -1.671613e-01 -1.587302e-02
     vertex -1.050426e+00 -1.290164e-01 -1.587302e-02
     vertex -1.050426e+00 -1.290164e-01 -3.174603e-02
   endloop
 endfacet
 facet normal -9.680772e-01 -2.506524e-01 -0.000000e+00
   outer loop
     vertex -1.034910e+00 -2.045192e-01 -1.587302e-02
     vertex -1.044583e+00 -1.671613e-01 -3.174603e-02
     vertex -1.034910e+00 -2.045192e-01 -3.174603e-02
   endloop
 endfacet
 facet normal -9.680772e-01 -2.506524e-01  0.000000e+00
   outer loop
     vertex -1.034910e+00 -2.045192e-01 -1.587302e-02
     vertex -1.044583e+00 -1.671613e-01 -1.587302e-02
     vertex -1.044583e+00 -1.671613e-01 -3.174603e-02
   endloop
 endfacet
 facet normal -9.377522e-01 -3.473051e-01 -0.000000e+00
   outer loop
     vertex -1.021508e+00 -2.407069e-01 -1.587302e-02
     vertex -1.034910e+00 -2.045192e-01 -3.174603e-02
     vertex -1.021508e+00 -2.407069e-01 -3.174603e-02
   endloop
 endfacet
 facet normal -9.377522e-01 -3.473051e-01  0.000000e+00
   outer loop
     vertex -1.021508e+00 -2.407069e-01 -1.587302e-02
     vertex -1.034910e+00 -2.045192e-01 -1.587302e-02
     vertex -1.034910e+00 -2.045192e-01 -3.174603e-02
   endloop
 endfacet
 facet normal -8.978046e-01 -4.403941e-01 -0.000000e+00
   outer loop
     vertex -1.004513e+00 -2.753530e-01 -1.587302e-02
     vertex -1.021508e+00 -2.407069e-01 -3.174603e-02
     vertex -1.004513e+00 -2.753530e-01 -3.174603e-02
   endloop
 endfacet
 facet normal -8.978046e-01 -4.403941e-01  0.000000e+00
   outer loop
     vertex -1.004513e+00 -2.753530e-01 -1.587302e-02
     vertex -1.021508e+00 -2.407069e-01 -1.587302e-02
     vertex -1.021508e+00 -2.407069e-01 -3.174603e-02
   endloop
 endfacet
 facet normal -8.486443e-01 -5.289639e-01 -0.000000e+00
   outer loop
     vertex -9.841003e-01 -3.081021e-01 -1.587302e-02
     vertex -1.004513e+00 -2.753530e-01 -3.174603e-02
     vertex -9.841003e-01 -3.081021e-01 -3.174603e-02
   endloop
 endfacet
 facet normal -8.486443e-01 -5.289639e-01  0.000000e+00
   outer loop
     vertex -9.841003e-01 -3.081021e-01 -1.587302e-02
     vertex -1.004513e+00 -2.753530e-01 -1.587302e-02
     vertex -1.004513e+00 -2.753530e-01 -3.174603e-02
   endloop
 endfacet
 facet normal -7.907758e-01 -6.121059e-01 -0.000000e+00
   outer loop
     vertex -9.604792e-01 -3.386180e-01 -1.587302e-02
     vertex -9.841003e-01 -3.081021e-01 -3.174603e-02
     vertex -9.604792e-01 -3.386180e-01 -3.174603e-02
   endloop
 endfacet
 facet normal -7.907758e-01 -6.121059e-01  0.000000e+00
   outer loop
     vertex -9.604792e-01 -3.386180e-01 -1.587302e-02
     vertex -9.841003e-01 -3.081021e-01 -1.587302e-02
     vertex -9.841003e-01 -3.081021e-01 -3.174603e-02
   endloop
 endfacet
 facet normal -7.247928e-01 -6.889669e-01 -0.000000e+00
   outer loop
     vertex -9.338921e-01 -3.665877e-01 -1.587302e-02
     vertex -9.604792e-01 -3.386180e-01 -3.174603e-02
     vertex -9.338921e-01 -3.665877e-01 -3.174603e-02
   endloop
 endfacet
 facet normal -7.247928e-01 -6.889669e-01  0.000000e+00
   outer loop
     vertex -9.338921e-01 -3.665877e-01 -1.587302e-02
     vertex -9.604792e-01 -3.386180e-01 -1.587302e-02
     vertex -9.604792e-01 -3.386180e-01 -3.174603e-02
   endloop
 endfacet
 facet normal -6.513725e-01 -7.587581e-01  0.000000e+00
   outer loop
     vertex -9.046117e-01 -3.917240e-01 -1.587302e-02
     vertex -9.338921e-01 -3.665877e-01 -1.587302e-02
     vertex -9.338921e-01 -3.665877e-01 -3.174603e-02
   endloop
 endfacet
 facet normal -6.513725e-01 -7.587581e-01 -0.000000e+00
   outer loop
     vertex -9.046117e-01 -3.917240e-01 -1.587302e-02
     vertex -9.338921e-01 -3.665877e-01 -3.174603e-02
     vertex -9.046117e-01 -3.917240e-01 -3.174603e-02
   endloop
 endfacet
 facet normal -5.712683e-01 -8.207634e-01  0.000000e+00
   outer loop
     vertex -8.729386e-01 -4.137692e-01 -1.587302e-02
     vertex -9.046117e-01 -3.917240e-01 -1.587302e-02
     vertex -9.046117e-01 -3.917240e-01 -3.174603e-02
   endloop
 endfacet
 facet normal -5.712683e-01 -8.207634e-01 -0.000000e+00
   outer loop
     vertex -8.729386e-01 -4.137692e-01 -1.587302e-02
     vertex -9.046117e-01 -3.917240e-01 -3.174603e-02
     vertex -8.729386e-01 -4.137692e-01 -3.174603e-02
   endloop
 endfacet
 facet normal -4.853020e-01 -8.743466e-01 -0.000000e+00
   outer loop
     vertex -8.391977e-01 -4.324969e-01 -1.587302e-02
     vertex -8.729386e-01 -4.137692e-01 -3.174603e-02
     vertex -8.391977e-01 -4.324969e-01 -3.174603e-02
   endloop
 endfacet
 facet normal -4.853020e-01 -8.743466e-01  0.000000e+00
   outer loop
     vertex -8.391977e-01 -4.324969e-01 -1.587302e-02
     vertex -8.729386e-01 -4.137692e-01 -1.587302e-02
     vertex -8.729386e-01 -4.137692e-01 -3.174603e-02
   endloop
 endfacet
 facet normal -3.943559e-01 -9.189578e-01 -0.000000e+00
   outer loop
     vertex -8.037353e-01 -4.477150e-01 -1.587302e-02
     vertex -8.391977e-01 -4.324969e-01 -3.174603e-02
     vertex -8.037353e-01 -4.477150e-01 -3.174603e-02
   endloop
 endfacet
 facet normal -3.943559e-01 -9.189578e-01  0.000000e+00
   outer loop
     vertex -8.037353e-01 -4.477150e-01 -1.587302e-02
     vertex -8.391977e-01 -4.324969e-01 -1.587302e-02
     vertex -8.391977e-01 -4.324969e-01 -3.174603e-02
   endloop
 endfacet
 facet normal -2.993632e-01 -9.541392e-01 -0.000000e+00
   outer loop
     vertex -7.669152e-01 -4.592674e-01 -1.587302e-02
     vertex -8.037353e-01 -4.477150e-01 -3.174603e-02
     vertex -7.669152e-01 -4.592674e-01 -3.174603e-02
   endloop
 endfacet
 facet normal -2.993632e-01 -9.541392e-01  0.000000e+00
   outer loop
     vertex -7.669152e-01 -4.592674e-01 -1.587302e-02
     vertex -8.037353e-01 -4.477150e-01 -1.587302e-02
     vertex -8.037353e-01 -4.477150e-01 -3.174603e-02
   endloop
 endfacet
 facet normal -2.012985e-01 -9.795299e-01 -0.000000e+00
   outer loop
     vertex -7.291153e-01 -4.670355e-01 -1.587302e-02
     vertex -7.669152e-01 -4.592674e-01 -3.174603e-02
     vertex -7.291153e-01 -4.670355e-01 -3.174603e-02
   endloop
 endfacet
 facet normal -2.012985e-01 -9.795299e-01  0.000000e+00
   outer loop
     vertex -7.291153e-01 -4.670355e-01 -1.587302e-02
     vertex -7.669152e-01 -4.592674e-01 -1.587302e-02
     vertex -7.669152e-01 -4.592674e-01 -3.174603e-02
   endloop
 endfacet
 facet normal -1.011683e-01 -9.948693e-01 -0.000000e+00
   outer loop
     vertex -6.907234e-01 -4.709396e-01 -1.587302e-02
     vertex -7.291153e-01 -4.670355e-01 -3.174603e-02
     vertex -6.907234e-01 -4.709396e-01 -3.174603e-02
   endloop
 endfacet
 facet normal -1.011683e-01 -9.948693e-01  0.000000e+00
   outer loop
     vertex -6.907234e-01 -4.709396e-01 -1.587302e-02
     vertex -7.291153e-01 -4.670355e-01 -1.587302e-02
     vertex -7.291153e-01 -4.670355e-01 -3.174603e-02
   endloop
 endfacet
 facet normal -1.438491e-15 -1.000000e+00 -0.000000e+00
   outer loop
     vertex -6.521336e-01 -4.709396e-01 -1.587302e-02
     vertex -6.907234e-01 -4.709396e-01 -3.174603e-02
     vertex -6.521336e-01 -4.709396e-01 -3.174603e-02
   endloop
 endfacet
 facet normal -1.438491e-15 -1.000000e+00  0.000000e+00
   outer loop
     vertex -6.521336e-01 -4.709396e-01 -1.587302e-02
     vertex -6.907234e-01 -4.709396e-01 -1.587302e-02
     vertex -6.907234e-01 -4.709396e-01 -3.174603e-02
   endloop
 endfacet
 facet normal  1.011683e-01 -9.948693e-01  0.000000e+00
   outer loop
     vertex -6.137417e-01 -4.670355e-01 -1.587302e-02
     vertex -6.521336e-01 -4.709396e-01 -3.174603e-02
     vertex -6.137417e-01 -4.670355e-01 -3.174603e-02
   endloop
 endfacet
 facet normal  1.011683e-01 -9.948693e-01  0.000000e+00
   outer loop
     vertex -6.137417e-01 -4.670355e-01 -1.587302e-02
     vertex -6.521336e-01 -4.709396e-01 -1.587302e-02
     vertex -6.521336e-01 -4.709396e-01 -3.174603e-02
   endloop
 endfacet
 facet normal  2.012985e-01 -9.795299e-01  0.000000e+00
   outer loop
     vertex -5.759418e-01 -4.592674e-01 -1.587302e-02
     vertex -6.137417e-01 -4.670355e-01 -3.174603e-02
     vertex -5.759418e-01 -4.592674e-01 -3.174603e-02
   endloop
 endfacet
 facet normal  2.012985e-01 -9.795299e-01  0.000000e+00
   outer loop
     vertex -5.759418e-01 -4.592674e-01 -1.587302e-02
     vertex -6.137417e-01 -4.670355e-01 -1.587302e-02
     vertex -6.137417e-01 -4.670355e-01 -3.174603e-02
   endloop
 endfacet
 facet normal  2.993632e-01 -9.541392e-01  0.000000e+00
   outer loop
     vertex -5.391217e-01 -4.477150e-01 -1.587302e-02
     vertex -5.759418e-01 -4.592674e-01 -3.174603e-02
     vertex -5.391217e-01 -4.477150e-01 -3.174603e-02
   endloop
 endfacet
 facet normal  2.993632e-01 -9.541392e-01  0.000000e+00
   outer loop
     vertex -5.391217e-01 -4.477150e-01 -1.587302e-02
     vertex -5.759418e-01 -4.592674e-01 -1.587302e-02
     vertex -5.759418e-01 -4.592674e-01 -3.174603e-02
   endloop
 endfacet
 facet normal  3.943559e-01 -9.189578e-01  0.000000e+00
   outer loop
     vertex -5.036593e-01 -4.324969e-01 -1.587302e-02
     vertex -5.391217e-01 -4.477150e-01 -3.174603e-02
     vertex -5.036593e-01 -4.324969e-01 -3.174603e-02
   endloop
 endfacet
 facet normal  3.943559e-01 -9.189578e-01  0.000000e+00
   outer loop
     vertex -5.036593e-01 -4.324969e-01 -1.587302e-02
     vertex -5.391217e-01 -4.477150e-01 -1.587302e-02
     vertex -5.391217e-01 -4.477150e-01 -3.174603e-02
   endloop
 endfacet
 facet normal  4.853020e-01 -8.743466e-01  0.000000e+00
   outer loop
     vertex -4.699184e-01 -4.137692e-01 -1.587302e-02
     vertex -5.036593e-01 -4.324969e-01 -3.174603e-02
     vertex -4.699184e-01 -4.137692e-01 -3.174603e-02
   endloop
 endfacet
 facet normal  4.853020e-01 -8.743466e-01  0.000000e+00
   outer loop
     vertex -4.699184e-01 -4.137692e-01 -1.587302e-02
     vertex -5.036593e-01 -4.324969e-01 -1.587302e-02
     vertex -5.036593e-01 -4.324969e-01 -3.174603e-02
   endloop
 endfacet
 facet normal  5.712683e-01 -8.207634e-01  0.000000e+00
   outer loop
     vertex -4.382453e-01 -3.917240e-01 -1.587302e-02
     vertex -4.699184e-01 -4.137692e-01 -3.174603e-02
     vertex -4.382453e-01 -3.917240e-01 -3.174603e-02
   endloop
 endfacet
 facet normal  5.712683e-01 -8.207634e-01  0.000000e+00
   outer loop
     vertex -4.382453e-01 -3.917240e-01 -1.587302e-02
     vertex -4.699184e-01 -4.137692e-01 -1.587302e-02
     vertex -4.699184e-01 -4.137692e-01 -3.174603e-02
   endloop
 endfacet
 facet normal  6.513725e-01 -7.587581e-01  0.000000e+00
   outer loop
     vertex -4.089649e-01 -3.665877e-01 -1.587302e-02
     vertex -4.382453e-01 -3.917240e-01 -3.174603e-02
     vertex -4.089649e-01 -3.665877e-01 -3.174603e-02
   endloop
 endfacet
 facet normal  6.513725e-01 -7.587581e-01  0.000000e+00
   outer loop
     vertex -4.089649e-01 -3.665877e-01 -1.587302e-02
     vertex -4.382453e-01 -3.917240e-01 -1.587302e-02
     vertex -4.382453e-01 -3.917240e-01 -3.174603e-02
   endloop
 endfacet
 facet normal  7.247928e-01 -6.889669e-01  0.000000e+00
   outer loop
     vertex -3.823778e-01 -3.386180e-01 -1.587302e-02
     vertex -4.089649e-01 -3.665877e-01 -3.174603e-02
     vertex -3.823778e-01 -3.386180e-01 -3.174603e-02
   endloop
 endfacet
 facet normal  7.247928e-01 -6.889669e-01  0.000000e+00
   outer loop
     vertex -3.823778e-01 -3.386180e-01 -1.587302e-02
     vertex -4.089649e-01 -3.665877e-01 -1.587302e-02
     vertex -4.089649e-01 -3.665877e-01 -3.174603e-02
   endloop
 endfacet
 facet normal  7.907758e-01 -6.121059e-01  0.000000e+00
   outer loop
     vertex -3.587567e-01 -3.081021e-01 -1.587302e-02
     vertex -3.823778e-01 -3.386180e-01 -3.174603e-02
     vertex -3.587567e-01 -3.081021e-01 -3.174603e-02
   endloop
 endfacet
 facet normal  7.907758e-01 -6.121059e-01  0.000000e+00
   outer loop
     vertex -3.587567e-01 -3.081021e-01 -1.587302e-02
     vertex -3.823778e-01 -3.386180e-01 -1.587302e-02
     vertex -3.823778e-01 -3.386180e-01 -3.174603e-02
   endloop
 endfacet
 facet normal  8.486443e-01 -5.289639e-01  0.000000e+00
   outer loop
     vertex -3.383441e-01 -2.753530e-01 -1.587302e-02
     vertex -3.587567e-01 -3.081021e-01 -3.174603e-02
     vertex -3.383441e-01 -2.753530e-01 -3.174603e-02
   endloop
 endfacet
 facet normal  8.486443e-01 -5.289639e-01  0.000000e+00
   outer loop
     vertex -3.383441e-01 -2.753530e-01 -1.587302e-02
     vertex -3.587567e-01 -3.081021e-01 -1.587302e-02
     vertex -3.587567e-01 -3.081021e-01 -3.174603e-02
   endloop
 endfacet
 facet normal  8.978046e-01 -4.403941e-01  0.000000e+00
   outer loop
     vertex -3.213493e-01 -2.407069e-01 -1.587302e-02
     vertex -3.383441e-01 -2.753530e-01 -3.174603e-02
     vertex -3.213493e-01 -2.407069e-01 -3.174603e-02
   endloop
 endfacet
 facet normal  8.978046e-01 -4.403941e-01  0.000000e+00
   outer loop
     vertex -3.213493e-01 -2.407069e-01 -1.587302e-02
     vertex -3.383441e-01 -2.753530e-01 -1.587302e-02
     vertex -3.383441e-01 -2.753530e-01 -3.174603e-02
   endloop
 endfacet
 facet normal  9.377522e-01 -3.473051e-01  0.000000e+00
   outer loop
     vertex -3.079469e-01 -2.045192e-01 -1.587302e-02
     vertex -3.213493e-01 -2.407069e-01 -3.174603e-02
     vertex -3.079469e-01 -2.045192e-01 -3.174603e-02
   endloop
 endfacet
 facet normal  9.377522e-01 -3.473051e-01  0.000000e+00
   outer loop
     vertex -3.079469e-01 -2.045192e-01 -1.587302e-02
     vertex -3.213493e-01 -2.407069e-01 -1.587302e-02
     vertex -3.213493e-01 -2.407069e-01 -3.174603e-02
   endloop
 endfacet
 facet normal  9.680772e-01 -2.506524e-01  0.000000e+00
   outer loop
     vertex -2.982743e-01 -1.671613e-01 -1.587302e-02
     vertex -3.079469e-01 -2.045192e-01 -3.174603e-02
     vertex -2.982743e-01 -1.671613e-01 -3.174603e-02
   endloop
 endfacet
 facet normal  9.680772e-01 -2.506524e-01  0.000000e+00
   outer loop
     vertex -2.982743e-01 -1.671613e-01 -1.587302e-02
     vertex -3.079469e-01 -2.045192e-01 -1.587302e-02
     vertex -3.079469e-01 -2.045192e-01 -3.174603e-02
   endloop
 endfacet
 facet normal  9.884683e-01 -1.514276e-01  0.000000e+00
   outer loop
     vertex -2.924307e-01 -1.290164e-01 -1.587302e-02
     vertex -2.982743e-01 -1.671613e-01 -3.174603e-02
     vertex -2.924307e-01 -1.290164e-01 -3.174603e-02
   endloop
 endfacet
 facet normal  9.884683e-01 -1.514276e-01  0.000000e+00
   outer loop
     vertex -2.924307e-01 -1.290164e-01 -1.587302e-02
     vertex -2.982743e-01 -1.671613e-01 -1.587302e-02
     vertex -2.982743e-01 -1.671613e-01 -3.174603e-02
   endloop
 endfacet
 facet normal  9.987165e-01 -5.064902e-02  0.000000e+00
   outer loop
     vertex -2.904761e-01 -9.047610e-02 -1.587302e-02
     vertex -2.924307e-01 -1.290164e-01 -3.174603e-02
     vertex -2.904761e-01 -9.047610e-02 -3.174603e-02
   endloop
 endfacet
 facet normal  9.987165e-01 -5.064902e-02  0.000000e+00
   outer loop
     vertex -2.904761e-01 -9.047610e-02 -1.587302e-02
     vertex -2.924307e-01 -1.290164e-01 -1.587302e-02
     vertex -2.924307e-01 -1.290164e-01 -3.174603e-02
   endloop
 endfacet
 facet normal  0.000000e+00  0.000000e+00  1.000000e+00
   outer loop
     vertex -1.052381e+00 -9.047610e-02  6.000000e-08
     vertex -1.050426e+00 -1.290164e-01  6.000000e-08
     vertex -1.044583e+00 -1.671613e-01  6.000000e-08
   endloop
 endfacet
 facet normal  0.000000e+00  0.000000e+00  1.000000e+00
   outer loop
     vertex -1.052381e+00 -9.047610e-02  6.000000e-08
     vertex -1.044583e+00 -1.671613e-01  6.000000e-08
     vertex -1.034910e+00 -2.045192e-01  6.000000e-08
   endloop
 endfacet
 facet normal  0.000000e+00  0.000000e+00  1.000000e+00
   outer loop
     vertex -1.052381e+00 -9.047610e-02  6.000000e-08
     vertex -1.034910e+00 -2.045192e-01  6.000000e-08
     vertex -1.021508e+00 -2.407069e-01  6.000000e-08
   endloop
 endfacet
 facet normal  0.000000e+00  0.000000e+00  1.000000e+00
   outer loop
     vertex -1.052381e+00 -9.047610e-02  6.000000e-08
     vertex -1.021508e+00 -2.407069e-01  6.000000e-08
     vertex -1.004513e+00 -2.753530e-01  6.000000e-08
   endloop
 endfacet
 facet normal  0.000000e+00  0.000000e+00  1.000000e+00
   outer loop
     vertex -1.052381e+00 -9.047610e-02  6.000000e-08
     vertex -1.004513e+00 -2.753530e-01  6.000000e-08
     vertex -9.841003e-01 -3.081021e-01  6.000000e-08
   endloop
 endfacet
 facet normal  0.000000e+00  0.000000e+00  1.000000e+00
   outer loop
     vertex -1.052381e+00 -9.047610e-02  6.000000e-08
     vertex -9.841003e-01 -3.081021e-01  6.000000e-08
     vertex -9.604792e-01 -3.386180e-01  6.000000e-08
   endloop
 endfacet
 facet normal  0.000000e+00  0.000000e+00  1.000000e+00
   outer loop
     vertex -1.052381e+00 -9.047610e-02  6.000000e-08
     vertex -9.604792e-01 -3.386180e-01  6.000000e-08
     vertex -9.338921e-01 -3.665877e-01  6.000000e-08
   endloop
 endfacet
 facet normal  0.000000e+00  0.000000e+00  1.000000e+00
   outer loop
     vertex -1.052381e+00 -9.047610e-02  6.000000e-08
     vertex -9.338921e-01 -3.665877e-01  6.000000e-08
     vertex -9.046117e-01 -3.917240e-01  6.000000e-08
   endloop
 endfacet
 facet normal  0.000000e+00  0.000000e+00  1.000000e+00
   outer loop
     vertex -5.391217e-01 -4.477150e-01  6.000000e-08
     vertex -6.137417e-01 -4.670355e-01  6.000000e-08
     vertex -5.759418e-01 -4.592674e-01  6.000000e-08
   endloop
 endfacet
 facet normal  0.000000e+00  0.000000e+00  1.000000e+00
   outer loop
     vertex -3.823778e-01 -3.386180e-01  6.000000e-08
     vertex -5.391217e-01 -4.477150e-01  6.000000e-08
     vertex -5.036593e-01 -4.324969e-01  6.000000e-08
   endloop
 endfacet
 facet normal  0.000000e+00  0.000000e+00  1.000000e+00
   outer loop
     vertex -3.823778e-01 -3.386180e-01  6.000000e-08
     vertex -5.036593e-01 -4.324969e-01  6.000000e-08
     vertex -4.699184e-01 -4.137692e-01  6.000000e-08
   endloop
 endfacet
 facet normal  0.000000e+00  0.000000e+00  1.000000e+00
   outer loop
     vertex -3.823778e-01 -3.386180e-01  6.000000e-08
     vertex -4.699184e-01 -4.137692e-01  6.000000e-08
     vertex -4.382453e-01 -3.917240e-01  6.000000e-08
   endloop
 endfacet
 facet normal  0.000000e+00  0.000000e+00  1.000000e+00
   outer loop
     vertex -3.823778e-01 -3.386180e-01  6.000000e-08
     vertex -4.382453e-01 -3.917240e-01  6.000000e-08
     vertex -4.089649e-01 -3.665877e-01  6.000000e-08
   endloop
 endfacet
 facet normal  0.000000e+00  0.000000e+00  1.000000e+00
   outer loop
     vertex -3.383441e-01 -2.753530e-01  6.000000e-08
     vertex -3.823778e-01 -3.386180e-01  6.000000e-08
     vertex -3.587567e-01 -3.081021e-01  6.000000e-08
   endloop
 endfacet
 facet normal  0.000000e+00  0.000000e+00  1.000000e+00
   outer loop
     vertex -2.982743e-01 -1.671613e-01  6.000000e-08
     vertex -3.213493e-01 -2.407069e-01  6.000000e-08
     vertex -3.079469e-01 -2.045192e-01  6.000000e-08
   endloop
 endfacet
 facet normal  0.000000e+00  0.000000e+00  1.000000e+00
   outer loop
     vertex -2.904761e-01 -9.047610e-02  6.000000e-08
     vertex -5.391217e-01 -4.477150e-01  6.000000e-08
     vertex -3.823778e-01 -3.386180e-01  6.000000e-08
   endloop
 endfacet
 facet normal  0.000000e+00  0.000000e+00  1.000000e+00
   outer loop
     vertex -2.904761e-01 -9.047610e-02  6.000000e-08
     vertex -9.046117e-01 -3.917240e-01  6.000000e-08
     vertex -8.729386e-01 -4.137692e-01  6.000000e-08
   endloop
 endfacet
 facet normal  0.000000e+00  0.000000e+00  1.000000e+00
   outer loop
     vertex -2.904761e-01 -9.047610e-02  6.000000e-08
     vertex -8.729386e-01 -4.137692e-01  6.000000e-08
     vertex -8.391977e-01 -4.324969e-01  6.000000e-08
   endloop
 endfacet
 facet normal  0.000000e+00  0.000000e+00  1.000000e+00
   outer loop
     vertex -2.904761e-01 -9.047610e-02  6.000000e-08
     vertex -8.391977e-01 -4.324969e-01  6.000000e-08
     vertex -8.037353e-01 -4.477150e-01  6.000000e-08
   endloop
 endfacet
 facet normal  0.000000e+00  0.000000e+00  1.000000e+00
   outer loop
     vertex -2.904761e-01 -9.047610e-02  6.000000e-08
     vertex -8.037353e-01 -4.477150e-01  6.000000e-08
     vertex -7.669152e-01 -4.592674e-01  6.000000e-08
   endloop
 endfacet
 facet normal  0.000000e+00  0.000000e+00  1.000000e+00
   outer loop
     vertex -2.904761e-01 -9.047610e-02  6.000000e-08
     vertex -7.669152e-01 -4.592674e-01  6.000000e-08
     vertex -7.291153e-01 -4.670355e-01  6.000000e-08
   endloop
 endfacet
 facet normal  0.000000e+00  0.000000e+00  1.000000e+00
   outer loop
     vertex -2.904761e-01 -9.047610e-02  6.000000e-08
     vertex -7.291153e-01 -4.670355e-01  6.000000e-08
     vertex -6.907234e-01 -4.709396e-01  6.000000e-08
   endloop
 endfacet
 facet normal  0.000000e+00  0.000000e+00  1.000000e+00
   outer loop
     vertex -2.904761e-01 -9.047610e-02  6.000000e-08
     vertex -6.907234e-01 -4.709396e-01  6.000000e-08
     vertex -6.521336e-01 -4.709396e-01  6.000000e-08
   endloop
 endfacet
 facet normal  0.000000e+00  0.000000e+00  1.000000e+00
   outer loop
     vertex -2.904761e-01 -9.047610e-02  6.000000e-08
     vertex -6.521336e-01 -4.709396e-01  6.000000e-08
     vertex -6.137417e-01 -4.670355e-01  6.000000e-08
   endloop
 endfacet
 facet normal  0.000000e+00  0.000000e+00  1.000000e+00
   outer loop
     vertex -2.904761e-01 -9.047610e-02  6.000000e-08
     vertex -3.823778e-01 -3.386180e-01  6.000000e-08
     vertex -3.383441e-01 -2.753530e-01  6.000000e-08
   endloop
 endfacet
 facet normal  0.000000e+00  0.000000e+00  1.000000e+00
   outer loop
     vertex -2.904761e-01 -9.047610e-02  6.000000e-08
     vertex -3.213493e-01 -2.407069e-01  6.000000e-08
     vertex -2.982743e-01 -1.671613e-01  6.000000e-08
   endloop
 endfacet
 facet normal  0.000000e+00  0.000000e+00  1.000000e+00
   outer loop
     vertex -2.904761e-01 -9.047610e-02  6.000000e-08
     vertex -3.383441e-01 -2.753530e-01  6.000000e-08
     vertex -3.213493e-01 -2.407069e-01  6.000000e-08
   endloop
 endfacet
 facet normal  0.000000e+00  0.000000e+00  1.000000e+00
   outer loop
     vertex -2.904761e-01 -9.047610e-02  6.000000e-08
     vertex -2.982743e-01 -1.671613e-01  6.000000e-08
     vertex -2.924307e-01 -1.290164e-01  6.000000e-08
   endloop
 endfacet
 facet normal  0.000000e+00  0.000000e+00  1.000000e+00
   outer loop
     vertex -2.904761e-01 -9.047610e-02  6.000000e-08
     vertex -6.137417e-01 -4.670355e-01  6.000000e-08
     vertex -5.391217e-01 -4.477150e-01  6.000000e-08
   endloop
 endfacet
 facet normal  0.000000e+00  0.000000e+00  1.000000e+00
   outer loop
     vertex -2.904761e-01 -9.047610e-02  6.000000e-08
     vertex -1.052381e+00 -9.047610e-02  6.000000e-08
     vertex -9.046117e-01 -3.917240e-01  6.000000e-08
   endloop
 endfacet
 facet normal  0.000000e+00  0.000000e+00  1.000000e+00
   outer loop
     vertex -9.841003e-01  7.366737e-01  6.000000e-08
     vertex -1.004513e+00  7.039247e-01  6.000000e-08
     vertex -1.021508e+00  6.692785e-01  6.000000e-08
   endloop
 endfacet
 facet normal  0.000000e+00  0.000000e+00  1.000000e+00
   outer loop
     vertex -9.841003e-01  7.366737e-01  6.000000e-08
     vertex -1.021508e+00  6.692785e-01  6.000000e-08
     vertex -1.034910e+00  6.330908e-01  6.000000e-08
   endloop
 endfacet
 facet normal  0.000000e+00  0.000000e+00  1.000000e+00
   outer loop
     vertex -9.046117e-01  8.202956e-01  6.000000e-08
     vertex -9.338921e-01  7.951593e-01  6.000000e-08
     vertex -9.604792e-01  7.671896e-01  6.000000e-08
   endloop
 endfacet
 facet normal  0.000000e+00  0.000000e+00  1.000000e+00
   outer loop
     vertex -9.046117e-01  8.202956e-01  6.000000e-08
     vertex -9.604792e-01  7.671896e-01  6.000000e-08
     vertex -9.841003e-01  7.366737e-01  6.000000e-08
   endloop
 endfacet
 facet normal  0.000000e+00  0.000000e+00  1.000000e+00
   outer loop
     vertex -7.291153e-01  8.956071e-01  6.000000e-08
     vertex -7.669152e-01  8.878390e-01  6.000000e-08
     vertex -8.037353e-01  8.762866e-01  6.000000e-08
   endloop
 endfacet
 facet normal  0.000000e+00  0.000000e+00  1.000000e+00
   outer loop
     vertex -2.904761e-01  5.190477e-01  6.000000e-08
     vertex -1.052381e+00 -9.047610e-02  6.000000e-08
     vertex -2.904761e-01 -9.047610e-02  6.000000e-08
   endloop
 endfacet
 facet normal  0.000000e+00  0.000000e+00  1.000000e+00
   outer loop
     vertex -2.904761e-01  5.190477e-01  6.000000e-08
     vertex -1.052381e+00  5.190477e-01  6.000000e-08
     vertex -1.052381e+00 -9.047610e-02  6.000000e-08
   endloop
 endfacet
 facet normal  0.000000e+00  0.000000e+00  1.000000e+00
   outer loop
     vertex -2.924307e-01  5.575880e-01  6.000000e-08
     vertex -1.052381e+00  5.190477e-01  6.000000e-08
     vertex -2.904761e-01  5.190477e-01  6.000000e-08
   endloop
 endfacet
 facet normal  0.000000e+00  0.000000e+00  1.000000e+00
   outer loop
     vertex -6.137417e-01  8.956071e-01  6.000000e-08
     vertex -6.521336e-01  8.995111e-01  6.000000e-08
     vertex -6.907234e-01  8.995111e-01  6.000000e-08
   endloop
 endfacet
 facet normal  0.000000e+00  0.000000e+00  1.000000e+00
   outer loop
     vertex -3.079469e-01  6.330908e-01  6.000000e-08
     vertex -2.924307e-01  5.575880e-01  6.000000e-08
     vertex -2.982743e-01  5.957329e-01  6.000000e-08
   endloop
 endfacet
 facet normal  0.000000e+00  0.000000e+00  1.000000e+00
   outer loop
     vertex -5.391217e-01  8.762866e-01  6.000000e-08
     vertex -5.759418e-01  8.878390e-01  6.000000e-08
     vertex -6.137417e-01  8.956071e-01  6.000000e-08
   endloop
 endfacet
 facet normal  0.000000e+00  0.000000e+00  1.000000e+00
   outer loop
     vertex -5.036593e-01  8.610685e-01  6.000000e-08
     vertex -5.391217e-01  8.762866e-01  6.000000e-08
     vertex -6.137417e-01  8.956071e-01  6.000000e-08
   endloop
 endfacet
 facet normal  0.000000e+00  0.000000e+00  1.000000e+00
   outer loop
     vertex -4.089649e-01  7.951593e-01  6.000000e-08
     vertex -3.079469e-01  6.330908e-01  6.000000e-08
     vertex -3.213494e-01  6.692785e-01  6.000000e-08
   endloop
 endfacet
 facet normal  0.000000e+00  0.000000e+00  1.000000e+00
   outer loop
     vertex -4.089649e-01  7.951593e-01  6.000000e-08
     vertex -3.213494e-01  6.692785e-01  6.000000e-08
     vertex -3.383441e-01  7.039247e-01  6.000000e-08
   endloop
 endfacet
 facet normal  0.000000e+00  0.000000e+00  1.000000e+00
   outer loop
     vertex -4.089649e-01  7.951593e-01  6.000000e-08
     vertex -3.383441e-01  7.039247e-01  6.000000e-08
     vertex -3.587567e-01  7.366737e-01  6.000000e-08
   endloop
 endfacet
 facet normal  0.000000e+00  0.000000e+00  1.000000e+00
   outer loop
     vertex -4.089649e-01  7.951593e-01  6.000000e-08
     vertex -3.587567e-01  7.366737e-01  6.000000e-08
     vertex -3.823778e-01  7.671896e-01  6.000000e-08
   endloop
 endfacet
 facet normal  0.000000e+00  0.000000e+00  1.000000e+00
   outer loop
     vertex -4.089649e-01  7.951593e-01  6.000000e-08
     vertex -9.841003e-01  7.366737e-01  6.000000e-08
     vertex -1.034910e+00  6.330908e-01  6.000000e-08
   endloop
 endfacet
 facet normal  0.000000e+00  0.000000e+00  1.000000e+00
   outer loop
     vertex -4.089649e-01  7.951593e-01  6.000000e-08
     vertex -4.382453e-01  8.202956e-01  6.000000e-08
     vertex -4.699184e-01  8.423408e-01  6.000000e-08
   endloop
 endfacet
 facet normal  0.000000e+00  0.000000e+00  1.000000e+00
   outer loop
     vertex -4.089649e-01  7.951593e-01  6.000000e-08
     vertex -4.699184e-01  8.423408e-01  6.000000e-08
     vertex -5.036593e-01  8.610685e-01  6.000000e-08
   endloop
 endfacet
 facet normal  0.000000e+00  0.000000e+00  1.000000e+00
   outer loop
     vertex -4.089649e-01  7.951593e-01  6.000000e-08
     vertex -9.046117e-01  8.202956e-01  6.000000e-08
     vertex -9.841003e-01  7.366737e-01  6.000000e-08
   endloop
 endfacet
 facet normal  0.000000e+00  0.000000e+00  1.000000e+00
   outer loop
     vertex -4.089649e-01  7.951593e-01  6.000000e-08
     vertex -6.907234e-01  8.995111e-01  6.000000e-08
     vertex -7.291153e-01  8.956071e-01  6.000000e-08
   endloop
 endfacet
 facet normal  0.000000e+00  0.000000e+00  1.000000e+00
   outer loop
     vertex -4.089649e-01  7.951593e-01  6.000000e-08
     vertex -8.037353e-01  8.762866e-01  6.000000e-08
     vertex -8.391977e-01  8.610685e-01  6.000000e-08
   endloop
 endfacet
 facet normal  0.000000e+00  0.000000e+00  1.000000e+00
   outer loop
     vertex -4.089649e-01  7.951593e-01  6.000000e-08
     vertex -7.291153e-01  8.956071e-01  6.000000e-08
     vertex -8.037353e-01  8.762866e-01  6.000000e-08
   endloop
 endfacet
 facet normal  0.000000e+00  0.000000e+00  1.000000e+00
   outer loop
     vertex -4.089649e-01  7.951593e-01  6.000000e-08
     vertex -8.391977e-01  8.610685e-01  6.000000e-08
     vertex -8.729386e-01  8.423408e-01  6.000000e-08
   endloop
 endfacet
 facet normal  0.000000e+00  0.000000e+00  1.000000e+00
   outer loop
     vertex -4.089649e-01  7.951593e-01  6.000000e-08
     vertex -8.729386e-01  8.423408e-01  6.000000e-08
     vertex -9.046117e-01  8.202956e-01  6.000000e-08
   endloop
 endfacet
 facet normal  0.000000e+00  0.000000e+00  1.000000e+00
   outer loop
     vertex -4.089649e-01  7.951593e-01  6.000000e-08
     vertex -6.137417e-01  8.956071e-01  6.000000e-08
     vertex -6.907234e-01  8.995111e-01  6.000000e-08
   endloop
 endfacet
 facet normal  0.000000e+00  0.000000e+00  1.000000e+00
   outer loop
     vertex -4.089649e-01  7.951593e-01  6.000000e-08
     vertex -2.924307e-01  5.575880e-01  6.000000e-08
     vertex -3.079469e-01  6.330908e-01  6.000000e-08
   endloop
 endfacet
 facet normal  0.000000e+00  0.000000e+00  1.000000e+00
   outer loop
     vertex -4.089649e-01  7.951593e-01  6.000000e-08
     vertex -1.034910e+00  6.330908e-01  6.000000e-08
     vertex -1.044583e+00  5.957329e-01  6.000000e-08
   endloop
 endfacet
 facet normal  0.000000e+00  0.000000e+00  1.000000e+00
   outer loop
     vertex -4.089649e-01  7.951593e-01  6.000000e-08
     vertex -1.044583e+00  5.957329e-01  6.000000e-08
     vertex -1.050426e+00  5.575880e-01  6.000000e-08
   endloop
 endfacet
 facet normal  0.000000e+00  0.000000e+00  1.000000e+00
   outer loop
     vertex -4.089649e-01  7.951593e-01  6.000000e-08
     vertex -1.050426e+00  5.575880e-01  6.000000e-08
     vertex -1.052381e+00  5.190477e-01  6.000000e-08
   endloop
 endfacet
 facet normal  0.000000e+00  0.000000e+00  1.000000e+00
   outer loop
     vertex -4.089649e-01  7.951593e-01  6.000000e-08
     vertex -1.052381e+00  5.190477e-01  6.000000e-08
     vertex -2.924307e-01  5.575880e-01  6.000000e-08
   endloop
 endfacet
 facet normal  0.000000e+00  0.000000e+00  1.000000e+00
   outer loop
     vertex -4.089649e-01  7.951593e-01  6.000000e-08
     vertex -5.036593e-01  8.610685e-01  6.000000e-08
     vertex -6.137417e-01  8.956071e-01  6.000000e-08
   endloop
 endfacet
 facet normal  9.987165e-01  5.064917e-02  0.000000e+00
   outer loop
     vertex -2.924307e-01  5.575880e-01 -1.587302e-02
     vertex -2.904761e-01  5.190477e-01  6.000000e-08
     vertex -2.904761e-01  5.190477e-01 -1.587302e-02
   endloop
 endfacet
 facet normal  9.987165e-01  5.064917e-02 -0.000000e+00
   outer loop
     vertex -2.924307e-01  5.575880e-01 -1.587302e-02
     vertex -2.924307e-01  5.575880e-01  6.000000e-08
     vertex -2.904761e-01  5.190477e-01  6.000000e-08
   endloop
 endfacet
 facet normal  9.884683e-01  1.514278e-01 -0.000000e+00
   outer loop
     vertex -2.982743e-01  5.957329e-01 -1.587302e-02
     vertex -2.982743e-01  5.957329e-01  6.000000e-08
     vertex -2.924307e-01  5.575880e-01  6.000000e-08
   endloop
 endfacet
 facet normal  9.884683e-01  1.514278e-01  0.000000e+00
   outer loop
     vertex -2.982743e-01  5.957329e-01 -1.587302e-02
     vertex -2.924307e-01  5.575880e-01  6.000000e-08
     vertex -2.924307e-01  5.575880e-01 -1.587302e-02
   endloop
 endfacet
 facet normal  9.680771e-01  2.506525e-01 -0.000000e+00
   outer loop
     vertex -3.079469e-01  6.330908e-01 -1.587302e-02
     vertex -3.079469e-01  6.330908e-01  6.000000e-08
     vertex -2.982743e-01  5.957329e-01  6.000000e-08
   endloop
 endfacet
 facet normal  9.680771e-01  2.506525e-01  0.000000e+00
   outer loop
     vertex -3.079469e-01  6.330908e-01 -1.587302e-02
     vertex -2.982743e-01  5.957329e-01  6.000000e-08
     vertex -2.982743e-01  5.957329e-01 -1.587302e-02
   endloop
 endfacet
 facet normal  9.377521e-01  3.473053e-01 -0.000000e+00
   outer loop
     vertex -3.213494e-01  6.692785e-01 -1.587302e-02
     vertex -3.213494e-01  6.692785e-01  6.000000e-08
     vertex -3.079469e-01  6.330908e-01  6.000000e-08
   endloop
 endfacet
 facet normal  9.377521e-01  3.473053e-01  0.000000e+00
   outer loop
     vertex -3.213494e-01  6.692785e-01 -1.587302e-02
     vertex -3.079469e-01  6.330908e-01  6.000000e-08
     vertex -3.079469e-01  6.330908e-01 -1.587302e-02
   endloop
 endfacet
 facet normal  8.978045e-01  4.403942e-01 -0.000000e+00
   outer loop
     vertex -3.383441e-01  7.039247e-01 -1.587302e-02
     vertex -3.383441e-01  7.039247e-01  6.000000e-08
     vertex -3.213494e-01  6.692785e-01  6.000000e-08
   endloop
 endfacet
 facet normal  8.978045e-01  4.403942e-01  0.000000e+00
   outer loop
     vertex -3.383441e-01  7.039247e-01 -1.587302e-02
     vertex -3.213494e-01  6.692785e-01  6.000000e-08
     vertex -3.213494e-01  6.692785e-01 -1.587302e-02
   endloop
 endfacet
 facet normal  8.486443e-01  5.289640e-01 -0.000000e+00
   outer loop
     vertex -3.587567e-01  7.366737e-01 -1.587302e-02
     vertex -3.587567e-01  7.366737e-01  6.000000e-08
     vertex -3.383441e-01  7.039247e-01  6.000000e-08
   endloop
 endfacet
 facet normal  8.486443e-01  5.289640e-01  0.000000e+00
   outer loop
     vertex -3.587567e-01  7.366737e-01 -1.587302e-02
     vertex -3.383441e-01  7.039247e-01  6.000000e-08
     vertex -3.383441e-01  7.039247e-01 -1.587302e-02
   endloop
 endfacet
 facet normal  7.907757e-01  6.121060e-01 -0.000000e+00
   outer loop
     vertex -3.823778e-01  7.671896e-01 -1.587302e-02
     vertex -3.823778e-01  7.671896e-01  6.000000e-08
     vertex -3.587567e-01  7.366737e-01  6.000000e-08
   endloop
 endfacet
 facet normal  7.907757e-01  6.121060e-01  0.000000e+00
   outer loop
     vertex -3.823778e-01  7.671896e-01 -1.587302e-02
     vertex -3.587567e-01  7.366737e-01  6.000000e-08
     vertex -3.587567e-01  7.366737e-01 -1.587302e-02
   endloop
 endfacet
 facet normal  7.247928e-01  6.889669e-01 -0.000000e+00
   outer loop
     vertex -4.089649e-01  7.951593e-01 -1.587302e-02
     vertex -4.089649e-01  7.951593e-01  6.000000e-08
     vertex -3.823778e-01  7.671896e-01  6.000000e-08
   endloop
 endfacet
 facet normal  7.247928e-01  6.889669e-01  0.000000e+00
   outer loop
     vertex -4.089649e-01  7.951593e-01 -1.587302e-02
     vertex -3.823778e-01  7.671896e-01  6.000000e-08
     vertex -3.823778e-01  7.671896e-01 -1.587302e-02
   endloop
 endfacet
 facet normal  6.513725e-01  7.587581e-01  0.000000e+00
   outer loop
     vertex -4.382453e-01  8.202956e-01 -1.587302e-02
     vertex -4.089649e-01  7.951593e-01  6.000000e-08
     vertex -4.089649e-01  7.951593e-01 -1.587302e-02
   endloop
 endfacet
 facet normal  6.513725e-01  7.587581e-01 -0.000000e+00
   outer loop
     vertex -4.382453e-01  8.202956e-01 -1.587302e-02
     vertex -4.382453e-01  8.202956e-01  6.000000e-08
     vertex -4.089649e-01  7.951593e-01  6.000000e-08
   endloop
 endfacet
 facet normal  5.712682e-01  8.207634e-01  0.000000e+00
   outer loop
     vertex -4.699184e-01  8.423408e-01 -1.587302e-02
     vertex -4.382453e-01  8.202956e-01  6.000000e-08
     vertex -4.382453e-01  8.202956e-01 -1.587302e-02
   endloop
 endfacet
 facet normal  5.712682e-01  8.207634e-01 -0.000000e+00
   outer loop
     vertex -4.699184e-01  8.423408e-01 -1.587302e-02
     vertex -4.699184e-01  8.423408e-01  6.000000e-08
     vertex -4.382453e-01  8.202956e-01  6.000000e-08
   endloop
 endfacet
 facet normal  4.853020e-01  8.743466e-01 -0.000000e+00
   outer loop
     vertex -5.036593e-01  8.610685e-01 -1.587302e-02
     vertex -5.036593e-01  8.610685e-01  6.000000e-08
     vertex -4.699184e-01  8.423408e-01  6.000000e-08
   endloop
 endfacet
 facet normal  4.853020e-01  8.743466e-01  0.000000e+00
   outer loop
     vertex -5.036593e-01  8.610685e-01 -1.587302e-02
     vertex -4.699184e-01  8.423408e-01  6.000000e-08
     vertex -4.699184e-01  8.423408e-01 -1.587302e-02
   endloop
 endfacet
 facet normal  3.943559e-01  9.189578e-01 -0.000000e+00
   outer loop
     vertex -5.391217e-01  8.762866e-01 -1.587302e-02
     vertex -5.391217e-01  8.762866e-01  6.000000e-08
     vertex -5.036593e-01  8.610685e-01  6.000000e-08
   endloop
 endfacet
 facet normal  3.943559e-01  9.189578e-01  0.000000e+00
   outer loop
     vertex -5.391217e-01  8.762866e-01 -1.587302e-02
     vertex -5.036593e-01  8.610685e-01  6.000000e-08
     vertex -5.036593e-01  8.610685e-01 -1.587302e-02
   endloop
 endfacet
 facet normal  2.993631e-01  9.541393e-01 -0.000000e+00
   outer loop
     vertex -5.759418e-01  8.878390e-01 -1.587302e-02
     vertex -5.759418e-01  8.878390e-01  6.000000e-08
     vertex -5.391217e-01  8.762866e-01  6.000000e-08
   endloop
 endfacet
 facet normal  2.993631e-01  9.541393e-01  0.000000e+00
   outer loop
     vertex -5.759418e-01  8.878390e-01 -1.587302e-02
     vertex -5.391217e-01  8.762866e-01  6.000000e-08
     vertex -5.391217e-01  8.762866e-01 -1.587302e-02
   endloop
 endfacet
 facet normal  2.012985e-01  9.795299e-01 -0.000000e+00
   outer loop
     vertex -6.137417e-01  8.956071e-01 -1.587302e-02
     vertex -6.137417e-01  8.956071e-01  6.000000e-08
     vertex -5.759418e-01  8.878390e-01  6.000000e-08
   endloop
 endfacet
 facet normal  2.012985e-01  9.795299e-01  0.000000e+00
   outer loop
     vertex -6.137417e-01  8.956071e-01 -1.587302e-02
     vertex -5.759418e-01  8.878390e-01  6.000000e-08
     vertex -5.759418e-01  8.878390e-01 -1.587302e-02
   endloop
 endfacet
 facet normal  1.011683e-01  9.948693e-01 -0.000000e+00
   outer loop
     vertex -6.521336e-01  8.995111e-01 -1.587302e-02
     vertex -6.521336e-01  8.995111e-01  6.000000e-08
     vertex -6.137417e-01  8.956071e-01  6.000000e-08
   endloop
 endfacet
 facet normal  1.011683e-01  9.948693e-01  0.000000e+00
   outer loop
     vertex -6.521336e-01  8.995111e-01 -1.587302e-02
     vertex -6.137417e-01  8.956071e-01  6.000000e-08
     vertex -6.137417e-01  8.956071e-01 -1.587302e-02
   endloop
 endfacet
 facet normal  0.000000e+00  1.000000e+00  0.000000e+00
   outer loop
     vertex -6.907234e-01  8.995111e-01 -1.587302e-02
     vertex -6.907234e-01  8.995111e-01  6.000000e-08
     vertex -6.521336e-01  8.995111e-01  6.000000e-08
   endloop
 endfacet
 facet normal  0.000000e+00  1.000000e+00  0.000000e+00
   outer loop
     vertex -6.907234e-01  8.995111e-01 -1.587302e-02
     vertex -6.521336e-01  8.995111e-01  6.000000e-08
     vertex -6.521336e-01  8.995111e-01 -1.587302e-02
   endloop
 endfacet
 facet normal -1.011683e-01  9.948693e-01  0.000000e+00
   outer loop
     vertex -7.291153e-01  8.956071e-01 -1.587302e-02
     vertex -7.291153e-01  8.956071e-01  6.000000e-08
     vertex -6.907234e-01  8.995111e-01  6.000000e-08
   endloop
 endfacet
 facet normal -1.011683e-01  9.948693e-01  0.000000e+00
   outer loop
     vertex -7.291153e-01  8.956071e-01 -1.587302e-02
     vertex -6.907234e-01  8.995111e-01  6.000000e-08
     vertex -6.907234e-01  8.995111e-01 -1.587302e-02
   endloop
 endfacet
 facet normal -2.012985e-01  9.795299e-01  0.000000e+00
   outer loop
     vertex -7.669152e-01  8.878390e-01 -1.587302e-02
     vertex -7.669152e-01  8.878390e-01  6.000000e-08
     vertex -7.291153e-01  8.956071e-01  6.000000e-08
   endloop
 endfacet
 facet normal -2.012985e-01  9.795299e-01  0.000000e+00
   outer loop
     vertex -7.669152e-01  8.878390e-01 -1.587302e-02
     vertex -7.291153e-01  8.956071e-01  6.000000e-08
     vertex -7.291153e-01  8.956071e-01 -1.587302e-02
   endloop
 endfacet
 facet normal -2.993631e-01  9.541393e-01  0.000000e+00
   outer loop
     vertex -8.037353e-01  8.762866e-01 -1.587302e-02
     vertex -8.037353e-01  8.762866e-01  6.000000e-08
     vertex -7.669152e-01  8.878390e-01  6.000000e-08
   endloop
 endfacet
 facet normal -2.993631e-01  9.541393e-01  0.000000e+00
   outer loop
     vertex -8.037353e-01  8.762866e-01 -1.587302e-02
     vertex -7.669152e-01  8.878390e-01  6.000000e-08
     vertex -7.669152e-01  8.878390e-01 -1.587302e-02
   endloop
 endfacet
 facet normal -3.943559e-01  9.189578e-01  0.000000e+00
   outer loop
     vertex -8.391977e-01  8.610685e-01 -1.587302e-02
     vertex -8.391977e-01  8.610685e-01  6.000000e-08
     vertex -8.037353e-01  8.762866e-01  6.000000e-08
   endloop
 endfacet
 facet normal -3.943559e-01  9.189578e-01  0.000000e+00
   outer loop
     vertex -8.391977e-01  8.610685e-01 -1.587302e-02
     vertex -8.037353e-01  8.762866e-01  6.000000e-08
     vertex -8.037353e-01  8.762866e-01 -1.587302e-02
   endloop
 endfacet
 facet normal -4.853020e-01  8.743466e-01  0.000000e+00
   outer loop
     vertex -8.729386e-01  8.423408e-01 -1.587302e-02
     vertex -8.729386e-01  8.423408e-01  6.000000e-08
     vertex -8.391977e-01  8.610685e-01  6.000000e-08
   endloop
 endfacet
 facet normal -4.853020e-01  8.743466e-01  0.000000e+00
   outer loop
     vertex -8.729386e-01  8.423408e-01 -1.587302e-02
     vertex -8.391977e-01  8.610685e-01  6.000000e-08
     vertex -8.391977e-01  8.610685e-01 -1.587302e-02
   endloop
 endfacet
 facet normal -5.712682e-01  8.207634e-01  0.000000e+00
   outer loop
     vertex -9.046117e-01  8.202956e-01 -1.587302e-02
     vertex -9.046117e-01  8.202956e-01  6.000000e-08
     vertex -8.729386e-01  8.423408e-01  6.000000e-08
   endloop
 endfacet
 facet normal -5.712682e-01  8.207634e-01  0.000000e+00
   outer loop
     vertex -9.046117e-01  8.202956e-01 -1.587302e-02
     vertex -8.729386e-01  8.423408e-01  6.000000e-08
     vertex -8.729386e-01  8.423408e-01 -1.587302e-02
   endloop
 endfacet
 facet normal -6.513725e-01  7.587581e-01  0.000000e+00
   outer loop
     vertex -9.338921e-01  7.951593e-01 -1.587302e-02
     vertex -9.338921e-01  7.951593e-01  6.000000e-08
     vertex -9.046117e-01  8.202956e-01  6.000000e-08
   endloop
 endfacet
 facet normal -6.513725e-01  7.587581e-01  0.000000e+00
   outer loop
     vertex -9.338921e-01  7.951593e-01 -1.587302e-02
     vertex -9.046117e-01  8.202956e-01  6.000000e-08
     vertex -9.046117e-01  8.202956e-01 -1.587302e-02
   endloop
 endfacet
 facet normal -7.247928e-01  6.889669e-01  0.000000e+00
   outer loop
     vertex -9.604792e-01  7.671896e-01 -1.587302e-02
     vertex -9.604792e-01  7.671896e-01  6.000000e-08
     vertex -9.338921e-01  7.951593e-01  6.000000e-08
   endloop
 endfacet
 facet normal -7.247928e-01  6.889669e-01  0.000000e+00
   outer loop
     vertex -9.604792e-01  7.671896e-01 -1.587302e-02
     vertex -9.338921e-01  7.951593e-01  6.000000e-08
     vertex -9.338921e-01  7.951593e-01 -1.587302e-02
   endloop
 endfacet
 facet normal -7.907757e-01  6.121060e-01  0.000000e+00
   outer loop
     vertex -9.841003e-01  7.366737e-01 -1.587302e-02
     vertex -9.841003e-01  7.366737e-01  6.000000e-08
     vertex -9.604792e-01  7.671896e-01  6.000000e-08
   endloop
 endfacet
 facet normal -7.907757e-01  6.121060e-01  0.000000e+00
   outer loop
     vertex -9.841003e-01  7.366737e-01 -1.587302e-02
     vertex -9.604792e-01  7.671896e-01  6.000000e-08
     vertex -9.604792e-01  7.671896e-01 -1.587302e-02
   endloop
 endfacet
 facet normal -8.486443e-01  5.289640e-01  0.000000e+00
   outer loop
     vertex -1.004513e+00  7.039247e-01 -1.587302e-02
     vertex -1.004513e+00  7.039247e-01  6.000000e-08
     vertex -9.841003e-01  7.366737e-01  6.000000e-08
   endloop
 endfacet
 facet normal -8.486443e-01  5.289640e-01  0.000000e+00
   outer loop
     vertex -1.004513e+00  7.039247e-01 -1.587302e-02
     vertex -9.841003e-01  7.366737e-01  6.000000e-08
     vertex -9.841003e-01  7.366737e-01 -1.587302e-02
   endloop
 endfacet
 facet normal -8.978045e-01  4.403942e-01  0.000000e+00
   outer loop
     vertex -1.021508e+00  6.692785e-01 -1.587302e-02
     vertex -1.021508e+00  6.692785e-01  6.000000e-08
     vertex -1.004513e+00  7.039247e-01  6.000000e-08
   endloop
 endfacet
 facet normal -8.978045e-01  4.403942e-01  0.000000e+00
   outer loop
     vertex -1.021508e+00  6.692785e-01 -1.587302e-02
     vertex -1.004513e+00  7.039247e-01  6.000000e-08
     vertex -1.004513e+00  7.039247e-01 -1.587302e-02
   endloop
 endfacet
 facet normal -9.377521e-01  3.473053e-01  0.000000e+00
   outer loop
     vertex -1.034910e+00  6.330908e-01 -1.587302e-02
     vertex -1.034910e+00  6.330908e-01  6.000000e-08
     vertex -1.021508e+00  6.692785e-01  6.000000e-08
   endloop
 endfacet
 facet normal -9.377521e-01  3.473053e-01  0.000000e+00
   outer loop
     vertex -1.034910e+00  6.330908e-01 -1.587302e-02
     vertex -1.021508e+00  6.692785e-01  6.000000e-08
     vertex -1.021508e+00  6.692785e-01 -1.587302e-02
   endloop
 endfacet
 facet normal -9.680771e-01  2.506525e-01  0.000000e+00
   outer loop
     vertex -1.044583e+00  5.957329e-01 -1.587302e-02
     vertex -1.044583e+00  5.957329e-01  6.000000e-08
     vertex -1.034910e+00  6.330908e-01  6.000000e-08
   endloop
 endfacet
 facet normal -9.680771e-01  2.506525e-01  0.000000e+00
   outer loop
     vertex -1.044583e+00  5.957329e-01 -1.587302e-02
     vertex -1.034910e+00  6.330908e-01  6.000000e-08
     vertex -1.034910e+00  6.330908e-01 -1.587302e-02
   endloop
 endfacet
 facet normal -9.884683e-01  1.514278e-01  0.000000e+00
   outer loop
     vertex -1.050426e+00  5.575880e-01 -1.587302e-02
     vertex -1.050426e+00  5.575880e-01  6.000000e-08
     vertex -1.044583e+00  5.957329e-01  6.000000e-08
   endloop
 endfacet
 facet normal -9.884683e-01  1.514278e-01  0.000000e+00
   outer loop
     vertex -1.050426e+00  5.575880e-01 -1.587302e-02
     vertex -1.044583e+00  5.957329e-01  6.000000e-08
     vertex -1.044583e+00  5.957329e-01 -1.587302e-02
   endloop
 endfacet
 facet normal -9.987165e-01  5.064917e-02  0.000000e+00
   outer loop
     vertex -1.052381e+00  5.190477e-01 -1.587302e-02
     vertex -1.052381e+00  5.190477e-01  6.000000e-08
     vertex -1.050426e+00  5.575880e-01  6.000000e-08
   endloop
 endfacet
 facet normal -9.987165e-01  5.064917e-02  0.000000e+00
   outer loop
     vertex -1.052381e+00  5.190477e-01 -1.587302e-02
     vertex -1.050426e+00  5.575880e-01  6.000000e-08
     vertex -1.050426e+00  5.575880e-01 -1.587302e-02
   endloop
 endfacet
 facet normal -1.000000e+00  0.000000e+00  0.000000e+00
   outer loop
     vertex -1.052381e+00 -9.047610e-02 -1.587302e-02
     vertex -1.052381e+00  5.190477e-01 -1.587302e-02
     vertex -1.052381e+00  5.190477e-01 -3.174603e-02
   endloop
 endfacet
 facet normal -1.000000e+00  0.000000e+00  0.000000e+00
   outer loop
     vertex -1.052381e+00 -9.047610e-02 -1.587302e-02
     vertex -1.052381e+00  5.190477e-01 -3.174603e-02
     vertex -1.052381e+00 -9.047610e-02 -3.174603e-02
   endloop
 endfacet
 facet normal  1.000000e+00  9.107298e-17  0.000000e+00
   outer loop
     vertex -2.904761e-01  5.190477e-01 -1.587302e-02
     vertex -2.904761e-01 -9.047610e-02 -1.587302e-02
     vertex -2.904761e-01 -9.047610e-02 -3.174603e-02
   endloop
 endfacet
 facet normal  1.000000e+00  9.107298e-17  0.000000e+00
   outer loop
     vertex -2.904761e-01  5.190477e-01 -1.587302e-02
     vertex -2.904761e-01 -9.047610e-02 -3.174603e-02
     vertex -2.904761e-01  5.190477e-01 -3.174603e-02
   endloop
 endfacet
 facet normal  0.000000e+00  0.000000e+00 -1.000000e+00
   outer loop
     vertex -1.052381e+00 -9.047610e-02 -3.174603e-02
     vertex -1.044583e+00 -1.671613e-01 -3.174603e-02
     vertex -1.050426e+00 -1.290164e-01 -3.174603e-02
   endloop
 endfacet
 facet normal  0.000000e+00  0.000000e+00 -1.000000e+00
   outer loop
     vertex -1.052381e+00 -9.047610e-02 -3.174603e-02
     vertex -1.034910e+00 -2.045192e-01 -3.174603e-02
     vertex -1.044583e+00 -1.671613e-01 -3.174603e-02
   endloop
 endfacet
 facet normal  0.000000e+00  0.000000e+00 -1.000000e+00
   outer loop
     vertex -1.052381e+00 -9.047610e-02 -3.174603e-02
     vertex -1.021508e+00 -2.407069e-01 -3.174603e-02
     vertex -1.034910e+00 -2.045192e-01 -3.174603e-02
   endloop
 endfacet
 facet normal  0.000000e+00  0.000000e+00 -1.000000e+00
   outer loop
     vertex -1.052381e+00 -9.047610e-02 -3.174603e-02
     vertex -1.004513e+00 -2.753530e-01 -3.174603e-02
     vertex -1.021508e+00 -2.407069e-01 -3.174603e-02
   endloop
 endfacet
 facet normal  0.000000e+00  0.000000e+00 -1.000000e+00
   outer loop
     vertex -1.052381e+00 -9.047610e-02 -3.174603e-02
     vertex -9.841003e-01 -3.081021e-01 -3.174603e-02
     vertex -1.004513e+00 -2.753530e-01 -3.174603e-02
   endloop
 endfacet
 facet normal  0.000000e+00  0.000000e+00 -1.000000e+00
   outer loop
     vertex -1.052381e+00 -9.047610e-02 -3.174603e-02
     vertex -9.604792e-01 -3.386180e-01 -3.174603e-02
     vertex -9.841003e-01 -3.081021e-01 -3.174603e-02
   endloop
 endfacet
 facet normal  0.000000e+00  0.000000e+00 -1.000000e+00
   outer loop
     vertex -1.052381e+00 -9.047610e-02 -3.174603e-02
     vertex -9.338921e-01 -3.665877e-01 -3.174603e-02
     vertex -9.604792e-01 -3.386180e-01 -3.174603e-02
   endloop
 endfacet
 facet normal  0.000000e+00  0.000000e+00 -1.000000e+00
   outer loop
     vertex -1.052381e+00 -9.047610e-02 -3.174603e-02
     vertex -9.046117e-01 -3.917240e-01 -3.174603e-02
     vertex -9.338921e-01 -3.665877e-01 -3.174603e-02
   endloop
 endfacet
 facet normal  0.000000e+00  0.000000e+00 -1.000000e+00
   outer loop
     vertex -5.391217e-01 -4.477150e-01 -3.174603e-02
     vertex -5.759418e-01 -4.592674e-01 -3.174603e-02
     vertex -6.137417e-01 -4.670355e-01 -3.174603e-02
   endloop
 endfacet
 facet normal  0.000000e+00  0.000000e+00 -1.000000e+00
   outer loop
     vertex -3.823778e-01 -3.386180e-01 -3.174603e-02
     vertex -5.036593e-01 -4.324969e-01 -3.174603e-02
     vertex -5.391217e-01 -4.477150e-01 -3.174603e-02
   endloop
 endfacet
 facet normal  0.000000e+00  0.000000e+00 -1.000000e+00
   outer loop
     vertex -3.823778e-01 -3.386180e-01 -3.174603e-02
     vertex -4.699184e-01 -4.137692e-01 -3.174603e-02
     vertex -5.036593e-01 -4.324969e-01 -3.174603e-02
   endloop
 endfacet
 facet normal  0.000000e+00  0.000000e+00 -1.000000e+00
   outer loop
     vertex -3.823778e-01 -3.386180e-01 -3.174603e-02
     vertex -4.382453e-01 -3.917240e-01 -3.174603e-02
     vertex -4.699184e-01 -4.137692e-01 -3.174603e-02
   endloop
 endfacet
 facet normal  0.000000e+00  0.000000e+00 -1.000000e+00
   outer loop
     vertex -3.823778e-01 -3.386180e-01 -3.174603e-02
     vertex -4.089649e-01 -3.665877e-01 -3.174603e-02
     vertex -4.382453e-01 -3.917240e-01 -3.174603e-02
   endloop
 endfacet
 facet normal  0.000000e+00  0.000000e+00 -1.000000e+00
   outer loop
     vertex -3.383441e-01 -2.753530e-01 -3.174603e-02
     vertex -3.587567e-01 -3.081021e-01 -3.174603e-02
     vertex -3.823778e-01 -3.386180e-01 -3.174603e-02
   endloop
 endfacet
 facet normal  0.000000e+00  0.000000e+00 -1.000000e+00
   outer loop
     vertex -2.982743e-01 -1.671613e-01 -3.174603e-02
     vertex -3.079469e-01 -2.045192e-01 -3.174603e-02
     vertex -3.213493e-01 -2.407069e-01 -3.174603e-02
   endloop
 endfacet
 facet normal  0.000000e+00  0.000000e+00 -1.000000e+00
   outer loop
     vertex -2.904761e-01 -9.047610e-02 -3.174603e-02
     vertex -3.823778e-01 -3.386180e-01 -3.174603e-02
     vertex -5.391217e-01 -4.477150e-01 -3.174603e-02
   endloop
 endfacet
 facet normal  0.000000e+00  0.000000e+00 -1.000000e+00
   outer loop
     vertex -2.904761e-01 -9.047610e-02 -3.174603e-02
     vertex -8.729386e-01 -4.137692e-01 -3.174603e-02
     vertex -9.046117e-01 -3.917240e-01 -3.174603e-02
   endloop
 endfacet
 facet normal  0.000000e+00  0.000000e+00 -1.000000e+00
   outer loop
     vertex -2.904761e-01 -9.047610e-02 -3.174603e-02
     vertex -8.391977e-01 -4.324969e-01 -3.174603e-02
     vertex -8.729386e-01 -4.137692e-01 -3.174603e-02
   endloop
 endfacet
 facet normal  0.000000e+00  0.000000e+00 -1.000000e+00
   outer loop
     vertex -2.904761e-01 -9.047610e-02 -3.174603e-02
     vertex -8.037353e-01 -4.477150e-01 -3.174603e-02
     vertex -8.391977e-01 -4.324969e-01 -3.174603e-02
   endloop
 endfacet
 facet normal  0.000000e+00  0.000000e+00 -1.000000e+00
   outer loop
     vertex -2.904761e-01 -9.047610e-02 -3.174603e-02
     vertex -7.669152e-01 -4.592674e-01 -3.174603e-02
     vertex -8.037353e-01 -4.477150e-01 -3.174603e-02
   endloop
 endfacet
 facet normal  0.000000e+00  0.000000e+00 -1.000000e+00
   outer loop
     vertex -2.904761e-01 -9.047610e-02 -3.174603e-02
     vertex -7.291153e-01 -4.670355e-01 -3.174603e-02
     vertex -7.669152e-01 -4.592674e-01 -3.174603e-02
   endloop
 endfacet
 facet normal  0.000000e+00  0.000000e+00 -1.000000e+00
   outer loop
     vertex -2.904761e-01 -9.047610e-02 -3.174603e-02
     vertex -6.907234e-01 -4.709396e-01 -3.174603e-02
     vertex -7.291153e-01 -4.670355e-01 -3.174603e-02
   endloop
 endfacet
 facet normal  0.000000e+00  0.000000e+00 -1.000000e+00
   outer loop
     vertex -2.904761e-01 -9.047610e-02 -3.174603e-02
     vertex -6.521336e-01 -4.709396e-01 -3.174603e-02
     vertex -6.907234e-01 -4.709396e-01 -3.174603e-02
   endloop
 endfacet
 facet normal  0.000000e+00  0.000000e+00 -1.000000e+00
   outer loop
     vertex -2.904761e-01 -9.047610e-02 -3.174603e-02
     vertex -6.137417e-01 -4.670355e-01 -3.174603e-02
     vertex -6.521336e-01 -4.709396e-01 -3.174603e-02
   endloop
 endfacet
 facet normal  0.000000e+00  0.000000e+00 -1.000000e+00
   outer loop
     vertex -2.904761e-01 -9.047610e-02 -3.174603e-02
     vertex -3.383441e-01 -2.753530e-01 -3.174603e-02
     vertex -3.823778e-01 -3.386180e-01 -3.174603e-02
   endloop
 endfacet
 facet normal  0.000000e+00  0.000000e+00 -1.000000e+00
   outer loop
     vertex -2.904761e-01 -9.047610e-02 -3.174603e-02
     vertex -2.982743e-01 -1.671613e-01 -3.174603e-02
     vertex -3.213493e-01 -2.407069e-01 -3.174603e-02
   endloop
 endfacet
 facet normal  0.000000e+00  0.000000e+00 -1.000000e+00
   outer loop
     vertex -2.904761e-01 -9.047610e-02 -3.174603e-02
     vertex -3.213493e-01 -2.407069e-01 -3.174603e-02
     vertex -3.383441e-01 -2.753530e-01 -3.174603e-02
   endloop
 endfacet
 facet normal  0.000000e+00  0.000000e+00 -1.000000e+00
   outer loop
     vertex -2.904761e-01 -9.047610e-02 -3.174603e-02
     vertex -2.924307e-01 -1.290164e-01 -3.174603e-02
     vertex -2.982743e-01 -1.671613e-01 -3.174603e-02
   endloop
 endfacet
 facet normal  0.000000e+00  0.000000e+00 -1.000000e+00
   outer loop
     vertex -2.904761e-01 -9.047610e-02 -3.174603e-02
     vertex -5.391217e-01 -4.477150e-01 -3.174603e-02
     vertex -6.137417e-01 -4.670355e-01 -3.174603e-02
   endloop
 endfacet
 facet normal -0.000000e+00  0.000000e+00 -1.000000e+00
   outer loop
     vertex -2.904761e-01 -9.047610e-02 -3.174603e-02
     vertex -9.046117e-01 -3.917240e-01 -3.174603e-02
     vertex -1.052381e+00 -9.047610e-02 -3.174603e-02
   endloop
 endfacet
 facet normal  0.000000e+00  0.000000e+00 -1.000000e+00
   outer loop
     vertex -9.841003e-01  7.366737e-01 -3.174603e-02
     vertex -1.021508e+00  6.692785e-01 -3.174603e-02
     vertex -1.004513e+00  7.039247e-01 -3.174603e-02
   endloop
 endfacet
 facet normal  0.000000e+00  0.000000e+00 -1.000000e+00
   outer loop
     vertex -9.841003e-01  7.366737e-01 -3.174603e-02
     vertex -1.034910e+00  6.330908e-01 -3.174603e-02
     vertex -1.021508e+00  6.692785e-01 -3.174603e-02
   endloop
 endfacet
 facet normal  0.000000e+00  0.000000e+00 -1.000000e+00
   outer loop
     vertex -9.046117e-01  8.202956e-01 -3.174603e-02
     vertex -9.604792e-01  7.671896e-01 -3.174603e-02
     vertex -9.338921e-01  7.951593e-01 -3.174603e-02
   endloop
 endfacet
 facet normal  0.000000e+00  0.000000e+00 -1.000000e+00
   outer loop
     vertex -9.046117e-01  8.202956e-01 -3.174603e-02
     vertex -9.841003e-01  7.366737e-01 -3.174603e-02
     vertex -9.604792e-01  7.671896e-01 -3.174603e-02
   endloop
 endfacet
 facet normal  0.000000e+00  0.000000e+00 -1.000000e+00
   outer loop
     vertex -7.291153e-01  8.956071e-01 -3.174603e-02
     vertex -8.037353e-01  8.762866e-01 -3.174603e-02
     vertex -7.669152e-01  8.878390e-01 -3.174603e-02
   endloop
 endfacet
 facet normal  0.000000e+00 -0.000000e+00 -1.000000e+00
   outer loop
     vertex -2.904761e-01  5.190477e-01 -3.174603e-02
     vertex -2.904761e-01 -9.047610e-02 -3.174603e-02
     vertex -1.052381e+00 -9.047610e-02 -3.174603e-02
   endloop
 endfacet
 facet normal -0.000000e+00  0.000000e+00 -1.000000e+00
   outer loop
     vertex -2.904761e-01  5.190477e-01 -3.174603e-02
     vertex -1.052381e+00 -9.047610e-02 -3.174603e-02
     vertex -1.052381e+00  5.190477e-01 -3.174603e-02
   endloop
 endfacet
 facet normal  0.000000e+00 -0.000000e+00 -1.000000e+00
   outer loop
     vertex -2.924307e-01  5.575880e-01 -3.174603e-02
     vertex -2.904761e-01  5.190477e-01 -3.174603e-02
     vertex -1.052381e+00  5.190477e-01 -3.174603e-02
   endloop
 endfacet
 facet normal  0.000000e+00  0.000000e+00 -1.000000e+00
   outer loop
     vertex -6.137417e-01  8.956071e-01 -3.174603e-02
     vertex -6.907234e-01  8.995111e-01 -3.174603e-02
     vertex -6.521336e-01  8.995111e-01 -3.174603e-02
   endloop
 endfacet
 facet normal  0.000000e+00  0.000000e+00 -1.000000e+00
   outer loop
     vertex -3.079469e-01  6.330908e-01 -3.174603e-02
     vertex -2.982743e-01  5.957329e-01 -3.174603e-02
     vertex -2.924307e-01  5.575880e-01 -3.174603e-02
   endloop
 endfacet
 facet normal  0.000000e+00  0.000000e+00 -1.000000e+00
   outer loop
     vertex -5.391217e-01  8.762866e-01 -3.174603e-02
     vertex -6.137417e-01  8.956071e-01 -3.174603e-02
     vertex -5.759418e-01  8.878390e-01 -3.174603e-02
   endloop
 endfacet
 facet normal  0.000000e+00  0.000000e+00 -1.000000e+00
   outer loop
     vertex -5.036593e-01  8.610685e-01 -3.174603e-02
     vertex -6.137417e-01  8.956071e-01 -3.174603e-02
     vertex -5.391217e-01  8.762866e-01 -3.174603e-02
   endloop
 endfacet
 facet normal  0.000000e+00  0.000000e+00 -1.000000e+00
   outer loop
     vertex -4.089649e-01  7.951593e-01 -3.174603e-02
     vertex -3.213494e-01  6.692785e-01 -3.174603e-02
     vertex -3.079469e-01  6.330908e-01 -3.174603e-02
   endloop
 endfacet
 facet normal  0.000000e+00  0.000000e+00 -1.000000e+00
   outer loop
     vertex -4.089649e-01  7.951593e-01 -3.174603e-02
     vertex -3.383441e-01  7.039247e-01 -3.174603e-02
     vertex -3.213494e-01  6.692785e-01 -3.174603e-02
   endloop
 endfacet
 facet normal  0.000000e+00  0.000000e+00 -1.000000e+00
   outer loop
     vertex -4.089649e-01  7.951593e-01 -3.174603e-02
     vertex -3.587567e-01  7.366737e-01 -3.174603e-02
     vertex -3.383441e-01  7.039247e-01 -3.174603e-02
   endloop
 endfacet
 facet normal  0.000000e+00  0.000000e+00 -1.000000e+00
   outer loop
     vertex -4.089649e-01  7.951593e-01 -3.174603e-02
     vertex -3.823778e-01  7.671896e-01 -3.174603e-02
     vertex -3.587567e-01  7.366737e-01 -3.174603e-02
   endloop
 endfacet
 facet normal  0.000000e+00  0.000000e+00 -1.000000e+00
   outer loop
     vertex -4.089649e-01  7.951593e-01 -3.174603e-02
     vertex -1.034910e+00  6.330908e-01 -3.174603e-02
     vertex -9.841003e-01  7.366737e-01 -3.174603e-02
   endloop
 endfacet
 facet normal  0.000000e+00  0.000000e+00 -1.000000e+00
   outer loop
     vertex -4.089649e-01  7.951593e-01 -3.174603e-02
     vertex -4.699184e-01  8.423408e-01 -3.174603e-02
     vertex -4.382453e-01  8.202956e-01 -3.174603e-02
   endloop
 endfacet
 facet normal  0.000000e+00  0.000000e+00 -1.000000e+00
   outer loop
     vertex -4.089649e-01  7.951593e-01 -3.174603e-02
     vertex -5.036593e-01  8.610685e-01 -3.174603e-02
     vertex -4.699184e-01  8.423408e-01 -3.174603e-02
   endloop
 endfacet
 facet normal -0.000000e+00  0.000000e+00 -1.000000e+00
   outer loop
     vertex -4.089649e-01  7.951593e-01 -3.174603e-02
     vertex -9.841003e-01  7.366737e-01 -3.174603e-02
     vertex -9.046117e-01  8.202956e-01 -3.174603e-02
   endloop
 endfacet
 facet normal  0.000000e+00  0.000000e+00 -1.000000e+00
   outer loop
     vertex -4.089649e-01  7.951593e-01 -3.174603e-02
     vertex -7.291153e-01  8.956071e-01 -3.174603e-02
     vertex -6.907234e-01  8.995111e-01 -3.174603e-02
   endloop
 endfacet
 facet normal  0.000000e+00  0.000000e+00 -1.000000e+00
   outer loop
     vertex -4.089649e-01  7.951593e-01 -3.174603e-02
     vertex -8.391977e-01  8.610685e-01 -3.174603e-02
     vertex -8.037353e-01  8.762866e-01 -3.174603e-02
   endloop
 endfacet
 facet normal  0.000000e+00  0.000000e+00 -1.000000e+00
   outer loop
     vertex -4.089649e-01  7.951593e-01 -3.174603e-02
     vertex -8.037353e-01  8.762866e-01 -3.174603e-02
     vertex -7.291153e-01  8.956071e-01 -3.174603e-02
   endloop
 endfacet
 facet normal  0.000000e+00  0.000000e+00 -1.000000e+00
   outer loop
     vertex -4.089649e-01  7.951593e-01 -3.174603e-02
     vertex -8.729386e-01  8.423408e-01 -3.174603e-02
     vertex -8.391977e-01  8.610685e-01 -3.174603e-02
   endloop
 endfacet
 facet normal  0.000000e+00  0.000000e+00 -1.000000e+00
   outer loop
     vertex -4.089649e-01  7.951593e-01 -3.174603e-02
     vertex -9.046117e-01  8.202956e-01 -3.174603e-02
     vertex -8.729386e-01  8.423408e-01 -3.174603e-02
   endloop
 endfacet
 facet normal  0.000000e+00  0.000000e+00 -1.000000e+00
   outer loop
     vertex -4.089649e-01  7.951593e-01 -3.174603e-02
     vertex -6.907234e-01  8.995111e-01 -3.174603e-02
     vertex -6.137417e-01  8.956071e-01 -3.174603e-02
   endloop
 endfacet
 facet normal  0.000000e+00  0.000000e+00 -1.000000e+00
   outer loop
     vertex -4.089649e-01  7.951593e-01 -3.174603e-02
     vertex -3.079469e-01  6.330908e-01 -3.174603e-02
     vertex -2.924307e-01  5.575880e-01 -3.174603e-02
   endloop
 endfacet
 facet normal  0.000000e+00  0.000000e+00 -1.000000e+00
   outer loop
     vertex -4.089649e-01  7.951593e-01 -3.174603e-02
     vertex -1.044583e+00  5.957329e-01 -3.174603e-02
     vertex -1.034910e+00  6.330908e-01 -3.174603e-02
   endloop
 endfacet
 facet normal  0.000000e+00  0.000000e+00 -1.000000e+00
   outer loop
     vertex -4.089649e-01  7.951593e-01 -3.174603e-02
     vertex -1.050426e+00  5.575880e-01 -3.174603e-02
     vertex -1.044583e+00  5.957329e-01 -3.174603e-02
   endloop
 endfacet
 facet normal  0.000000e+00  0.000000e+00 -1.000000e+00
   outer loop
     vertex -4.089649e-01  7.951593e-01 -3.174603e-02
     vertex -1.052381e+00  5.190477e-01 -3.174603e-02
     vertex -1.050426e+00  5.575880e-01 -3.174603e-02
   endloop
 endfacet
 facet normal  0.000000e+00 -0.000000e+00 -1.000000e+00
   outer loop
     vertex -4.089649e-01  7.951593e-01 -3.174603e-02
     vertex -2.924307e-01  5.575880e-01 -3.174603e-02
     vertex -1.052381e+00  5.190477e-01 -3.174603e-02
   endloop
 endfacet
 facet normal  0.000000e+00  0.000000e+00 -1.000000e+00
   outer loop
     vertex -4.089649e-01  7.951593e-01 -3.174603e-02
     vertex -6.137417e-01  8.956071e-01 -3.174603e-02
     vertex -5.036593e-01  8.610685e-01 -3.174603e-02
   endloop
 endfacet
 facet normal  9.987165e-01  5.064917e-02  0.000000e+00
   outer loop
     vertex -2.924307e-01  5.575880e-01 -1.587302e-02
     vertex -2.904761e-01  5.190477e-01 -1.587302e-02
     vertex -2.904761e-01  5.190477e-01 -3.174603e-02
   endloop
 endfacet
 facet normal  9.987165e-01  5.064917e-02  0.000000e+00
   outer loop
     vertex -2.924307e-01  5.575880e-01 -1.587302e-02
     vertex -2.904761e-01  5.190477e-01 -3.174603e-02
     vertex -2.924307e-01  5.575880e-01 -3.174603e-02
   endloop
 endfacet
 facet normal  9.884683e-01  1.514278e-01  0.000000e+00
   outer loop
     vertex -2.982743e-01  5.957329e-01 -1.587302e-02
     vertex -2.924307e-01  5.575880e-01 -3.174603e-02
     vertex -2.982743e-01  5.957329e-01 -3.174603e-02
   endloop
 endfacet
 facet normal  9.884683e-01  1.514278e-01  0.000000e+00
   outer loop
     vertex -2.982743e-01  5.957329e-01 -1.587302e-02
     vertex -2.924307e-01  5.575880e-01 -1.587302e-02
     vertex -2.924307e-01  5.575880e-01 -3.174603e-02
   endloop
 endfacet
 facet normal  9.680771e-01  2.506525e-01  0.000000e+00
   outer loop
     vertex -3.079469e-01  6.330908e-01 -1.587302e-02
     vertex -2.982743e-01  5.957329e-01 -3.174603e-02
     vertex -3.079469e-01  6.330908e-01 -3.174603e-02
   endloop
 endfacet
 facet normal  9.680771e-01  2.506525e-01  0.000000e+00
   outer loop
     vertex -3.079469e-01  6.330908e-01 -1.587302e-02
     vertex -2.982743e-01  5.957329e-01 -1.587302e-02
     vertex -2.982743e-01  5.957329e-01 -3.174603e-02
   endloop
 endfacet
 facet normal  9.377521e-01  3.473053e-01  0.000000e+00
   outer loop
     vertex -3.213494e-01  6.692785e-01 -1.587302e-02
     vertex -3.079469e-01  6.330908e-01 -3.174603e-02
     vertex -3.213494e-01  6.692785e-01 -3.174603e-02
   endloop
 endfacet
 facet normal  9.377521e-01  3.473053e-01  0.000000e+00
   outer loop
     vertex -3.213494e-01  6.692785e-01 -1.587302e-02
     vertex -3.079469e-01  6.330908e-01 -1.587302e-02
     vertex -3.079469e-01  6.330908e-01 -3.174603e-02
   endloop
 endfacet
 facet normal  8.978045e-01  4.403942e-01  0.000000e+00
   outer loop
     vertex -3.383441e-01  7.039247e-01 -1.587302e-02
     vertex -3.213494e-01  6.692785e-01 -3.174603e-02
     vertex -3.383441e-01  7.039247e-01 -3.174603e-02
   endloop
 endfacet
 facet normal  8.978045e-01  4.403942e-01  0.000000e+00
   outer loop
     vertex -3.383441e-01  7.039247e-01 -1.587302e-02
     vertex -3.213494e-01  6.692785e-01 -1.587302e-02
     vertex -3.213494e-01  6.692785e-01 -3.174603e-02
   endloop
 endfacet
 facet normal  8.486443e-01  5.289640e-01  0.000000e+00
   outer loop
     vertex -3.587567e-01  7.366737e-01 -1.587302e-02
     vertex -3.383441e-01  7.039247e-01 -3.174603e-02
     vertex -3.587567e-01  7.366737e-01 -3.174603e-02
   endloop
 endfacet
 facet normal  8.486443e-01  5.289640e-01  0.000000e+00
   outer loop
     vertex -3.587567e-01  7.366737e-01 -1.587302e-02
     vertex -3.383441e-01  7.039247e-01 -1.587302e-02
     vertex -3.383441e-01  7.039247e-01 -3.174603e-02
   endloop
 endfacet
 facet normal  7.907757e-01  6.121060e-01  0.000000e+00
   outer loop
     vertex -3.823778e-01  7.671896e-01 -1.587302e-02
     vertex -3.587567e-01  7.366737e-01 -3.174603e-02
     vertex -3.823778e-01  7.671896e-01 -3.174603e-02
   endloop
 endfacet
 facet normal  7.907757e-01  6.121060e-01  0.000000e+00
   outer loop
     vertex -3.823778e-01  7.671896e-01 -1.587302e-02
     vertex -3.587567e-01  7.366737e-01 -1.587302e-02
     vertex -3.587567e-01  7.366737e-01 -3.174603e-02
   endloop
 endfacet
 facet normal  7.247928e-01  6.889669e-01  0.000000e+00
   outer loop
     vertex -4.089649e-01  7.951593e-01 -1.587302e-02
     vertex -3.823778e-01  7.671896e-01 -3.174603e-02
     vertex -4.089649e-01  7.951593e-01 -3.174603e-02
   endloop
 endfacet
 facet normal  7.247928e-01  6.889669e-01  0.000000e+00
   outer loop
     vertex -4.089649e-01  7.951593e-01 -1.587302e-02
     vertex -3.823778e-01  7.671896e-01 -1.587302e-02
     vertex -3.823778e-01  7.671896e-01 -3.174603e-02
   endloop
 endfacet
 facet normal  6.513725e-01  7.587581e-01  0.000000e+00
   outer loop
     vertex -4.382453e-01  8.202956e-01 -1.587302e-02
     vertex -4.089649e-01  7.951593e-01 -1.587302e-02
     vertex -4.089649e-01  7.951593e-01 -3.174603e-02
   endloop
 endfacet
 facet normal  6.513725e-01  7.587581e-01  0.000000e+00
   outer loop
     vertex -4.382453e-01  8.202956e-01 -1.587302e-02
     vertex -4.089649e-01  7.951593e-01 -3.174603e-02
     vertex -4.382453e-01  8.202956e-01 -3.174603e-02
   endloop
 endfacet
 facet normal  5.712682e-01  8.207634e-01  0.000000e+00
   outer loop
     vertex -4.699184e-01  8.423408e-01 -1.587302e-02
     vertex -4.382453e-01  8.202956e-01 -1.587302e-02
     vertex -4.382453e-01  8.202956e-01 -3.174603e-02
   endloop
 endfacet
 facet normal  5.712682e-01  8.207634e-01  0.000000e+00
   outer loop
     vertex -4.699184e-01  8.423408e-01 -1.587302e-02
     vertex -4.382453e-01  8.202956e-01 -3.174603e-02
     vertex -4.699184e-01  8.423408e-01 -3.174603e-02
   endloop
 endfacet
 facet normal  4.853020e-01  8.743466e-01  0.000000e+00
   outer loop
     vertex -5.036593e-01  8.610685e-01 -1.587302e-02
     vertex -4.699184e-01  8.423408e-01 -3.174603e-02
     vertex -5.036593e-01  8.610685e-01 -3.174603e-02
   endloop
 endfacet
 facet normal  4.853020e-01  8.743466e-01  0.000000e+00
   outer loop
     vertex -5.036593e-01  8.610685e-01 -1.587302e-02
     vertex -4.699184e-01  8.423408e-01 -1.587302e-02
     vertex -4.699184e-01  8.423408e-01 -3.174603e-02
   endloop
 endfacet
 facet normal  3.943559e-01  9.189578e-01  0.000000e+00
   outer loop
     vertex -5.391217e-01  8.762866e-01 -1.587302e-02
     vertex -5.036593e-01  8.610685e-01 -3.174603e-02
     vertex -5.391217e-01  8.762866e-01 -3.174603e-02
   endloop
 endfacet
 facet normal  3.943559e-01  9.189578e-01  0.000000e+00
   outer loop
     vertex -5.391217e-01  8.762866e-01 -1.587302e-02
     vertex -5.036593e-01  8.610685e-01 -1.587302e-02
     vertex -5.036593e-01  8.610685e-01 -3.174603e-02
   endloop
 endfacet
 facet normal  2.993631e-01  9.541393e-01  0.000000e+00
   outer loop
     vertex -5.759418e-01  8.878390e-01 -1.587302e-02
     vertex -5.391217e-01  8.762866e-01 -3.174603e-02
     vertex -5.759418e-01  8.878390e-01 -3.174603e-02
   endloop
 endfacet
 facet normal  2.993631e-01  9.541393e-01  0.000000e+00
   outer loop
     vertex -5.759418e-01  8.878390e-01 -1.587302e-02
     vertex -5.391217e-01  8.762866e-01 -1.587302e-02
     vertex -5.391217e-01  8.762866e-01 -3.174603e-02
   endloop
 endfacet
 facet normal  2.012985e-01  9.795299e-01  0.000000e+00
   outer loop
     vertex -6.137417e-01  8.956071e-01 -1.587302e-02
     vertex -5.759418e-01  8.878390e-01 -3.174603e-02
     vertex -6.137417e-01  8.956071e-01 -3.174603e-02
   endloop
 endfacet
 facet normal  2.012985e-01  9.795299e-01  0.000000e+00
   outer loop
     vertex -6.137417e-01  8.956071e-01 -1.587302e-02
     vertex -5.759418e-01  8.878390e-01 -1.587302e-02
     vertex -5.759418e-01  8.878390e-01 -3.174603e-02
   endloop
 endfacet
 facet normal  1.011683e-01  9.948693e-01  0.000000e+00
   outer loop
     vertex -6.521336e-01  8.995111e-01 -1.587302e-02
     vertex -6.137417e-01  8.956071e-01 -3.174603e-02
     vertex -6.521336e-01  8.995111e-01 -3.174603e-02
   endloop
 endfacet
 facet normal  1.011683e-01  9.948693e-01  0.000000e+00
   outer loop
     vertex -6.521336e-01  8.995111e-01 -1.587302e-02
     vertex -6.137417e-01  8.956071e-01 -1.587302e-02
     vertex -6.137417e-01  8.956071e-01 -3.174603e-02
   endloop
 endfacet
 facet normal  0.000000e+00  1.000000e+00  0.000000e+00
   outer loop
     vertex -6.907234e-01  8.995111e-01 -1.587302e-02
     vertex -6.521336e-01  8.995111e-01 -3.174603e-02
     vertex -6.907234e-01  8.995111e-01 -3.174603e-02
   endloop
 endfacet
 facet normal -0.000000e+00  1.000000e+00  0.000000e+00
   outer loop
     vertex -6.907234e-01  8.995111e-01 -1.587302e-02
     vertex -6.521336e-01  8.995111e-01 -1.587302e-02
     vertex -6.521336e-01  8.995111e-01 -3.174603e-02
   endloop
 endfacet
 facet normal -1.011683e-01  9.948693e-01  0.000000e+00
   outer loop
     vertex -7.291153e-01  8.956071e-01 -1.587302e-02
     vertex -6.907234e-01  8.995111e-01 -3.174603e-02
     vertex -7.291153e-01  8.956071e-01 -3.174603e-02
   endloop
 endfacet
 facet normal -1.011683e-01  9.948693e-01  0.000000e+00
   outer loop
     vertex -7.291153e-01  8.956071e-01 -1.587302e-02
     vertex -6.907234e-01  8.995111e-01 -1.587302e-02
     vertex -6.907234e-01  8.995111e-01 -3.174603e-02
   endloop
 endfacet
 facet normal -2.012985e-01  9.795299e-01  0.000000e+00
   outer loop
     vertex -7.669152e-01  8.878390e-01 -1.587302e-02
     vertex -7.291153e-01  8.956071e-01 -3.174603e-02
     vertex -7.669152e-01  8.878390e-01 -3.174603e-02
   endloop
 endfacet
 facet normal -2.012985e-01  9.795299e-01  0.000000e+00
   outer loop
     vertex -7.669152e-01  8.878390e-01 -1.587302e-02
     vertex -7.291153e-01  8.956071e-01 -1.587302e-02
     vertex -7.291153e-01  8.956071e-01 -3.174603e-02
   endloop
 endfacet
 facet normal -2.993631e-01  9.541393e-01  0.000000e+00
   outer loop
     vertex -8.037353e-01  8.762866e-01 -1.587302e-02
     vertex -7.669152e-01  8.878390e-01 -3.174603e-02
     vertex -8.037353e-01  8.762866e-01 -3.174603e-02
   endloop
 endfacet
 facet normal -2.993631e-01  9.541393e-01  0.000000e+00
   outer loop
     vertex -8.037353e-01  8.762866e-01 -1.587302e-02
     vertex -7.669152e-01  8.878390e-01 -1.587302e-02
     vertex -7.669152e-01  8.878390e-01 -3.174603e-02
   endloop
 endfacet
 facet normal -3.943559e-01  9.189578e-01  0.000000e+00
   outer loop
     vertex -8.391977e-01  8.610685e-01 -1.587302e-02
     vertex -8.037353e-01  8.762866e-01 -3.174603e-02
     vertex -8.391977e-01  8.610685e-01 -3.174603e-02
   endloop
 endfacet
 facet normal -3.943559e-01  9.189578e-01  0.000000e+00
   outer loop
     vertex -8.391977e-01  8.610685e-01 -1.587302e-02
     vertex -8.037353e-01  8.762866e-01 -1.587302e-02
     vertex -8.037353e-01  8.762866e-01 -3.174603e-02
   endloop
 endfacet
 facet normal -4.853020e-01  8.743466e-01  0.000000e+00
   outer loop
     vertex -8.729386e-01  8.423408e-01 -1.587302e-02
     vertex -8.391977e-01  8.610685e-01 -3.174603e-02
     vertex -8.729386e-01  8.423408e-01 -3.174603e-02
   endloop
 endfacet
 facet normal -4.853020e-01  8.743466e-01  0.000000e+00
   outer loop
     vertex -8.729386e-01  8.423408e-01 -1.587302e-02
     vertex -8.391977e-01  8.610685e-01 -1.587302e-02
     vertex -8.391977e-01  8.610685e-01 -3.174603e-02
   endloop
 endfacet
 facet normal -5.712682e-01  8.207634e-01  0.000000e+00
   outer loop
     vertex -9.046117e-01  8.202956e-01 -1.587302e-02
     vertex -8.729386e-01  8.423408e-01 -3.174603e-02
     vertex -9.046117e-01  8.202956e-01 -3.174603e-02
   endloop
 endfacet
 facet normal -5.712682e-01  8.207634e-01  0.000000e+00
   outer loop
     vertex -9.046117e-01  8.202956e-01 -1.587302e-02
     vertex -8.729386e-01  8.423408e-01 -1.587302e-02
     vertex -8.729386e-01  8.423408e-01 -3.174603e-02
   endloop
 endfacet
 facet normal -6.513725e-01  7.587581e-01  0.000000e+00
   outer loop
     vertex -9.338921e-01  7.951593e-01 -1.587302e-02
     vertex -9.046117e-01  8.202956e-01 -3.174603e-02
     vertex -9.338921e-01  7.951593e-01 -3.174603e-02
   endloop
 endfacet
 facet normal -6.513725e-01  7.587581e-01  0.000000e+00
   outer loop
     vertex -9.338921e-01  7.951593e-01 -1.587302e-02
     vertex -9.046117e-01  8.202956e-01 -1.587302e-02
     vertex -9.046117e-01  8.202956e-01 -3.174603e-02
   endloop
 endfacet
 facet normal -7.247928e-01  6.889669e-01  0.000000e+00
   outer loop
     vertex -9.604792e-01  7.671896e-01 -1.587302e-02
     vertex -9.338921e-01  7.951593e-01 -3.174603e-02
     vertex -9.604792e-01  7.671896e-01 -3.174603e-02
   endloop
 endfacet
 facet normal -7.247928e-01  6.889669e-01  0.000000e+00
   outer loop
     vertex -9.604792e-01  7.671896e-01 -1.587302e-02
     vertex -9.338921e-01  7.951593e-01 -1.587302e-02
     vertex -9.338921e-01  7.951593e-01 -3.174603e-02
   endloop
 endfacet
 facet normal -7.907757e-01  6.121060e-01  0.000000e+00
   outer loop
     vertex -9.841003e-01  7.366737e-01 -1.587302e-02
     vertex -9.604792e-01  7.671896e-01 -3.174603e-02
     vertex -9.841003e-01  7.366737e-01 -3.174603e-02
   endloop
 endfacet
 facet normal -7.907757e-01  6.121060e-01  0.000000e+00
   outer loop
     vertex -9.841003e-01  7.366737e-01 -1.587302e-02
     vertex -9.604792e-01  7.671896e-01 -1.587302e-02
     vertex -9.604792e-01  7.671896e-01 -3.174603e-02
   endloop
 endfacet
 facet normal -8.486443e-01  5.289640e-01  0.000000e+00
   outer loop
     vertex -1.004513e+00  7.039247e-01 -1.587302e-02
     vertex -9.841003e-01  7.366737e-01 -3.174603e-02
     vertex -1.004513e+00  7.039247e-01 -3.174603e-02
   endloop
 endfacet
 facet normal -8.486443e-01  5.289640e-01  0.000000e+00
   outer loop
     vertex -1.004513e+00  7.039247e-01 -1.587302e-02
     vertex -9.841003e-01  7.366737e-01 -1.587302e-02
     vertex -9.841003e-01  7.366737e-01 -3.174603e-02
   endloop
 endfacet
 facet normal -8.978045e-01  4.403942e-01  0.000000e+00
   outer loop
     vertex -1.021508e+00  6.692785e-01 -1.587302e-02
     vertex -1.004513e+00  7.039247e-01 -3.174603e-02
     vertex -1.021508e+00  6.692785e-01 -3.174603e-02
   endloop
 endfacet
 facet normal -8.978045e-01  4.403942e-01  0.000000e+00
   outer loop
     vertex -1.021508e+00  6.692785e-01 -1.587302e-02
     vertex -1.004513e+00  7.039247e-01 -1.587302e-02
     vertex -1.004513e+00  7.039247e-01 -3.174603e-02
   endloop
 endfacet
 facet normal -9.377521e-01  3.473053e-01  0.000000e+00
   outer loop
     vertex -1.034910e+00  6.330908e-01 -1.587302e-02
     vertex -1.021508e+00  6.692785e-01 -3.174603e-02
     vertex -1.034910e+00  6.330908e-01 -3.174603e-02
   endloop
 endfacet
 facet normal -9.377521e-01  3.473053e-01  0.000000e+00
   outer loop
     vertex -1.034910e+00  6.330908e-01 -1.587302e-02
     vertex -1.021508e+00  6.692785e-01 -1.587302e-02
     vertex -1.021508e+00  6.692785e-01 -3.174603e-02
   endloop
 endfacet
 facet normal -9.680771e-01  2.506525e-01  0.000000e+00
   outer loop
     vertex -1.044583e+00  5.957329e-01 -1.587302e-02
     vertex -1.034910e+00  6.330908e-01 -3.174603e-02
     vertex -1.044583e+00  5.957329e-01 -3.174603e-02
   endloop
 endfacet
 facet normal -9.680771e-01  2.506525e-01  0.000000e+00
   outer loop
     vertex -1.044583e+00  5.957329e-01 -1.587302e-02
     vertex -1.034910e+00  6.330908e-01 -1.587302e-02
     vertex -1.034910e+00  6.330908e-01 -3.174603e-02
   endloop
 endfacet
 facet normal -9.884683e-01  1.514278e-01  0.000000e+00
   outer loop
     vertex -1.050426e+00  5.575880e-01 -1.587302e-02
     vertex -1.044583e+00  5.957329e-01 -3.174603e-02
     vertex -1.050426e+00  5.575880e-01 -3.174603e-02
   endloop
 endfacet
 facet normal -9.987165e-01  5.064917e-02  0.000000e+00
   outer loop
     vertex -1.050426e+00  5.575880e-01 -1.587302e-02
     vertex -1.050426e+00  5.575880e-01 -3.174603e-02
     vertex -1.052381e+00  5.190477e-01 -3.174603e-02
   endloop
 endfacet
 facet normal -9.884683e-01  1.514278e-01  0.000000e+00
   outer loop
     vertex -1.050426e+00  5.575880e-01 -1.587302e-02
     vertex -1.044583e+00  5.957329e-01 -1.587302e-02
     vertex -1.044583e+00  5.957329e-01 -3.174603e-02
   endloop
 endfacet
 facet normal -9.987165e-01  5.064917e-02  0.000000e+00
   outer loop
     vertex -1.052381e+00  5.190477e-01 -1.587302e-02
     vertex -1.050426e+00  5.575880e-01 -1.587302e-02
     vertex -1.052381e+00  5.190477e-01 -3.174603e-02
   endloop
 endfacet
endsolid
