solid 
 facet normal -0.000000e+00  0.000000e+00 -1.000000e+00
   outer loop
     vertex -6.878316e-03 -1.587302e-02 -2.910060e-02
     vertex -4.920638e-02 -3.174609e-02 -2.910060e-02
     vertex -4.920638e-02 -1.587302e-02 -2.910060e-02
   endloop
 endfacet
 facet normal  0.000000e+00 -0.000000e+00 -1.000000e+00
   outer loop
     vertex -6.878316e-03 -1.587302e-02 -2.910060e-02
     vertex -6.878316e-03 -3.174609e-02 -2.910060e-02
     vertex -4.920638e-02 -3.174609e-02 -2.910060e-02
   endloop
 endfacet
 facet normal -1.000000e+00  0.000000e+00  0.000000e+00
   outer loop
     vertex -4.920638e-02 -1.587302e-02 -2.910060e-02
     vertex -4.920638e-02 -3.174609e-02  6.904762e-01
     vertex -4.920638e-02 -1.587302e-02  6.904762e-01
   endloop
 endfacet
 facet normal -1.000000e+00  0.000000e+00  0.000000e+00
   outer loop
     vertex -4.920638e-02 -1.587302e-02 -2.910060e-02
     vertex -4.920638e-02 -3.174609e-02 -2.910060e-02
     vertex -4.920638e-02 -3.174609e-02  6.904762e-01
   endloop
 endfacet
 facet normal -1.000000e+00  0.000000e+00  0.000000e+00
   outer loop
     vertex -6.878316e-03 -1.587302e-02 -1.137567e-01
     vertex -6.878316e-03 -3.174609e-02 -2.910060e-02
     vertex -6.878316e-03 -1.587302e-02 -2.910060e-02
   endloop
 endfacet
 facet normal -1.000000e+00  0.000000e+00  0.000000e+00
   outer loop
     vertex -6.878316e-03 -1.587302e-02 -1.137567e-01
     vertex -6.878316e-03 -3.174609e-02 -1.137567e-01
     vertex -6.878316e-03 -3.174609e-02 -2.910060e-02
   endloop
 endfacet
 facet normal  0.000000e+00  0.000000e+00 -1.000000e+00
   outer loop
     vertex -6.878316e-03 -1.587302e-02 -2.910060e-02
     vertex -4.920638e-02 -1.587302e-02 -2.910060e-02
     vertex -4.920638e-02  0.000000e+00 -2.910060e-02
   endloop
 endfacet
 facet normal  0.000000e+00  0.000000e+00 -1.000000e+00
   outer loop
     vertex -6.878316e-03 -1.587302e-02 -2.910060e-02
     vertex -4.920638e-02  0.000000e+00 -2.910060e-02
     vertex -6.878316e-03  0.000000e+00 -2.910060e-02
   endloop
 endfacet
 facet normal  0.000000e+00 -1.000000e+00 -0.000000e+00
   outer loop
     vertex -6.878316e-03 -3.174609e-02  6.904762e-01
     vertex -4.920638e-02 -3.174609e-02 -2.910060e-02
     vertex -6.878316e-03 -3.174609e-02 -2.910060e-02
   endloop
 endfacet
 facet normal -0.000000e+00 -1.000000e+00  0.000000e+00
   outer loop
     vertex -6.878316e-03 -3.174609e-02  6.904762e-01
     vertex -4.920638e-02 -3.174609e-02  6.904762e-01
     vertex -4.920638e-02 -3.174609e-02 -2.910060e-02
   endloop
 endfacet
 facet normal -0.000000e+00 -1.000000e+00  0.000000e+00
   outer loop
     vertex  8.396826e-01 -3.174609e-02 -2.910060e-02
     vertex -6.878316e-03 -3.174609e-02 -2.910060e-02
     vertex -6.878316e-03 -3.174609e-02 -1.137567e-01
   endloop
 endfacet
 facet normal  0.000000e+00 -1.000000e+00 -0.000000e+00
   outer loop
     vertex  8.396826e-01 -3.174609e-02 -2.910060e-02
     vertex -6.878316e-03 -3.174609e-02 -1.137567e-01
     vertex  8.396826e-01 -3.174609e-02 -1.137567e-01
   endloop
 endfacet
 facet normal -0.000000e+00 -1.000000e+00  0.000000e+00
   outer loop
     vertex  8.396826e-01 -3.174609e-02  6.904762e-01
     vertex -6.878316e-03 -3.174609e-02  6.904762e-01
     vertex -6.878316e-03 -3.174609e-02 -2.910060e-02
   endloop
 endfacet
 facet normal  0.000000e+00 -1.000000e+00 -0.000000e+00
   outer loop
     vertex  8.396826e-01 -3.174609e-02  6.904762e-01
     vertex -6.878316e-03 -3.174609e-02 -2.910060e-02
     vertex  8.396826e-01 -3.174609e-02 -2.910060e-02
   endloop
 endfacet
 facet normal  0.000000e+00 -1.000000e+00 -0.000000e+00
   outer loop
     vertex  8.820106e-01 -3.174609e-02  6.904762e-01
     vertex  8.396826e-01 -3.174609e-02 -2.910060e-02
     vertex  8.820106e-01 -3.174609e-02 -2.910060e-02
   endloop
 endfacet
 facet normal -0.000000e+00 -1.000000e+00  0.000000e+00
   outer loop
     vertex  8.820106e-01 -3.174609e-02  6.904762e-01
     vertex  8.396826e-01 -3.174609e-02  6.904762e-01
     vertex  8.396826e-01 -3.174609e-02 -2.910060e-02
   endloop
 endfacet
 facet normal -0.000000e+00 -1.000000e+00  0.000000e+00
   outer loop
     vertex  8.396826e-01 -3.174609e-02  7.751322e-01
     vertex -6.878316e-03 -3.174609e-02  7.751322e-01
     vertex -6.878316e-03 -3.174609e-02  6.904762e-01
   endloop
 endfacet
 facet normal  0.000000e+00 -1.000000e+00 -0.000000e+00
   outer loop
     vertex  8.396826e-01 -3.174609e-02  7.751322e-01
     vertex -6.878316e-03 -3.174609e-02  6.904762e-01
     vertex  8.396826e-01 -3.174609e-02  6.904762e-01
   endloop
 endfacet
 facet normal -0.000000e+00  0.000000e+00  1.000000e+00
   outer loop
     vertex -4.920638e-02 -1.587302e-02  6.904762e-01
     vertex -6.878316e-03 -3.174609e-02  6.904762e-01
     vertex -6.878316e-03 -1.587302e-02  6.904762e-01
   endloop
 endfacet
 facet normal  0.000000e+00  0.000000e+00  1.000000e+00
   outer loop
     vertex -4.920638e-02 -1.587302e-02  6.904762e-01
     vertex -4.920638e-02 -3.174609e-02  6.904762e-01
     vertex -6.878316e-03 -3.174609e-02  6.904762e-01
   endloop
 endfacet
 facet normal -1.000000e+00  0.000000e+00  0.000000e+00
   outer loop
     vertex -4.920638e-02 -1.587302e-02 -2.910060e-02
     vertex -4.920638e-02 -1.587302e-02  6.904762e-01
     vertex -4.920638e-02  0.000000e+00  6.904762e-01
   endloop
 endfacet
 facet normal -1.000000e+00  0.000000e+00  0.000000e+00
   outer loop
     vertex -4.920638e-02 -1.587302e-02 -2.910060e-02
     vertex -4.920638e-02  0.000000e+00  6.904762e-01
     vertex -4.920638e-02  0.000000e+00 -2.910060e-02
   endloop
 endfacet
 facet normal -0.000000e+00  0.000000e+00 -1.000000e+00
   outer loop
     vertex  8.396826e-01 -1.587302e-02 -1.137567e-01
     vertex -6.878316e-03 -3.174609e-02 -1.137567e-01
     vertex -6.878316e-03 -1.587302e-02 -1.137567e-01
   endloop
 endfacet
 facet normal  0.000000e+00 -0.000000e+00 -1.000000e+00
   outer loop
     vertex  8.396826e-01 -1.587302e-02 -1.137567e-01
     vertex  8.396826e-01 -3.174609e-02 -1.137567e-01
     vertex -6.878316e-03 -3.174609e-02 -1.137567e-01
   endloop
 endfacet
 facet normal -1.000000e+00  0.000000e+00  0.000000e+00
   outer loop
     vertex -6.878316e-03 -1.587302e-02 -1.137567e-01
     vertex -6.878316e-03 -1.587302e-02 -2.910060e-02
     vertex -6.878316e-03  0.000000e+00 -2.910060e-02
   endloop
 endfacet
 facet normal -1.000000e+00  0.000000e+00  0.000000e+00
   outer loop
     vertex -6.878316e-03 -1.587302e-02 -1.137567e-01
     vertex -6.878316e-03  0.000000e+00 -2.910060e-02
     vertex -6.878316e-03  0.000000e+00 -1.137567e-01
   endloop
 endfacet
 facet normal  0.000000e+00  1.000000e+00  0.000000e+00
   outer loop
     vertex -6.878316e-03 -3.469447e-18  6.904762e-01
     vertex -6.878316e-03 -3.469447e-18 -2.910060e-02
     vertex -4.920638e-02 -3.469447e-18 -2.910060e-02
   endloop
 endfacet
 facet normal  0.000000e+00  1.000000e+00  0.000000e+00
   outer loop
     vertex -6.878316e-03 -3.469447e-18  6.904762e-01
     vertex -4.920638e-02 -3.469447e-18 -2.910060e-02
     vertex -4.920638e-02 -3.469447e-18  6.904762e-01
   endloop
 endfacet
 facet normal  0.000000e+00  1.000000e+00  0.000000e+00
   outer loop
     vertex  8.396826e-01 -3.469447e-18 -2.910060e-02
     vertex -6.878316e-03 -3.469447e-18 -1.137567e-01
     vertex -6.878316e-03 -3.469447e-18 -2.910060e-02
   endloop
 endfacet
 facet normal  0.000000e+00  1.000000e+00  0.000000e+00
   outer loop
     vertex  8.396826e-01 -3.469447e-18 -2.910060e-02
     vertex  8.396826e-01 -3.469447e-18 -1.137567e-01
     vertex -6.878316e-03 -3.469447e-18 -1.137567e-01
   endloop
 endfacet
 facet normal  0.000000e+00  1.000000e+00  0.000000e+00
   outer loop
     vertex  8.396826e-01 -3.469447e-18  6.904762e-01
     vertex -6.878316e-03 -3.469447e-18 -2.910060e-02
     vertex -6.878316e-03 -3.469447e-18  6.904762e-01
   endloop
 endfacet
 facet normal  0.000000e+00  1.000000e+00  0.000000e+00
   outer loop
     vertex  8.396826e-01 -3.469447e-18  6.904762e-01
     vertex  8.396826e-01 -3.469447e-18 -2.910060e-02
     vertex -6.878316e-03 -3.469447e-18 -2.910060e-02
   endloop
 endfacet
 facet normal  0.000000e+00  1.000000e+00  0.000000e+00
   outer loop
     vertex  8.820106e-01 -3.469447e-18  6.904762e-01
     vertex  8.820106e-01 -3.469447e-18 -2.910060e-02
     vertex  8.396826e-01 -3.469447e-18 -2.910060e-02
   endloop
 endfacet
 facet normal  0.000000e+00  1.000000e+00  0.000000e+00
   outer loop
     vertex  8.820106e-01 -3.469447e-18  6.904762e-01
     vertex  8.396826e-01 -3.469447e-18 -2.910060e-02
     vertex  8.396826e-01 -3.469447e-18  6.904762e-01
   endloop
 endfacet
 facet normal  0.000000e+00  1.000000e+00  0.000000e+00
   outer loop
     vertex  8.396826e-01 -3.469447e-18  7.751322e-01
     vertex -6.878316e-03 -3.469447e-18  6.904762e-01
     vertex -6.878316e-03 -3.469447e-18  7.751322e-01
   endloop
 endfacet
 facet normal  0.000000e+00  1.000000e+00  0.000000e+00
   outer loop
     vertex  8.396826e-01 -3.469447e-18  7.751322e-01
     vertex  8.396826e-01 -3.469447e-18  6.904762e-01
     vertex -6.878316e-03 -3.469447e-18  6.904762e-01
   endloop
 endfacet
 facet normal  1.000000e+00  0.000000e+00  0.000000e+00
   outer loop
     vertex  8.396826e-01 -1.587302e-02 -2.910060e-02
     vertex  8.396826e-01 -3.174609e-02 -1.137567e-01
     vertex  8.396826e-01 -1.587302e-02 -1.137567e-01
   endloop
 endfacet
 facet normal  1.000000e+00  0.000000e+00  0.000000e+00
   outer loop
     vertex  8.396826e-01 -1.587302e-02 -2.910060e-02
     vertex  8.396826e-01 -3.174609e-02 -2.910060e-02
     vertex  8.396826e-01 -3.174609e-02 -1.137567e-01
   endloop
 endfacet
 facet normal -0.000000e+00  0.000000e+00 -1.000000e+00
   outer loop
     vertex  8.820106e-01 -1.587302e-02 -2.910060e-02
     vertex  8.396826e-01 -3.174609e-02 -2.910060e-02
     vertex  8.396826e-01 -1.587302e-02 -2.910060e-02
   endloop
 endfacet
 facet normal  0.000000e+00 -0.000000e+00 -1.000000e+00
   outer loop
     vertex  8.820106e-01 -1.587302e-02 -2.910060e-02
     vertex  8.820106e-01 -3.174609e-02 -2.910060e-02
     vertex  8.396826e-01 -3.174609e-02 -2.910060e-02
   endloop
 endfacet
 facet normal  1.000000e+00  0.000000e+00  0.000000e+00
   outer loop
     vertex  8.820106e-01 -1.587302e-02  6.904762e-01
     vertex  8.820106e-01 -3.174609e-02 -2.910060e-02
     vertex  8.820106e-01 -1.587302e-02 -2.910060e-02
   endloop
 endfacet
 facet normal  1.000000e+00  0.000000e+00  0.000000e+00
   outer loop
     vertex  8.820106e-01 -1.587302e-02  6.904762e-01
     vertex  8.820106e-01 -3.174609e-02  6.904762e-01
     vertex  8.820106e-01 -3.174609e-02 -2.910060e-02
   endloop
 endfacet
 facet normal -0.000000e+00  0.000000e+00  1.000000e+00
   outer loop
     vertex  8.396826e-01 -1.587302e-02  6.904762e-01
     vertex  8.820106e-01 -3.174609e-02  6.904762e-01
     vertex  8.820106e-01 -1.587302e-02  6.904762e-01
   endloop
 endfacet
 facet normal  0.000000e+00  0.000000e+00  1.000000e+00
   outer loop
     vertex  8.396826e-01 -1.587302e-02  6.904762e-01
     vertex  8.396826e-01 -3.174609e-02  6.904762e-01
     vertex  8.820106e-01 -3.174609e-02  6.904762e-01
   endloop
 endfacet
 facet normal  1.000000e+00  0.000000e+00  0.000000e+00
   outer loop
     vertex  8.396826e-01 -1.587302e-02  7.751322e-01
     vertex  8.396826e-01 -3.174609e-02  6.904762e-01
     vertex  8.396826e-01 -1.587302e-02  6.904762e-01
   endloop
 endfacet
 facet normal  1.000000e+00  0.000000e+00  0.000000e+00
   outer loop
     vertex  8.396826e-01 -1.587302e-02  7.751322e-01
     vertex  8.396826e-01 -3.174609e-02  7.751322e-01
     vertex  8.396826e-01 -3.174609e-02  6.904762e-01
   endloop
 endfacet
 facet normal -0.000000e+00  0.000000e+00  1.000000e+00
   outer loop
     vertex -6.878316e-03 -1.587302e-02  7.751322e-01
     vertex  8.396826e-01 -3.174609e-02  7.751322e-01
     vertex  8.396826e-01 -1.587302e-02  7.751322e-01
   endloop
 endfacet
 facet normal  0.000000e+00  0.000000e+00  1.000000e+00
   outer loop
     vertex -6.878316e-03 -1.587302e-02  7.751322e-01
     vertex -6.878316e-03 -3.174609e-02  7.751322e-01
     vertex  8.396826e-01 -3.174609e-02  7.751322e-01
   endloop
 endfacet
 facet normal -1.000000e+00  0.000000e+00  0.000000e+00
   outer loop
     vertex -6.878316e-03 -1.587302e-02  6.904762e-01
     vertex -6.878316e-03 -3.174609e-02  7.751322e-01
     vertex -6.878316e-03 -1.587302e-02  7.751322e-01
   endloop
 endfacet
 facet normal -1.000000e+00  0.000000e+00  0.000000e+00
   outer loop
     vertex -6.878316e-03 -1.587302e-02  6.904762e-01
     vertex -6.878316e-03 -3.174609e-02  6.904762e-01
     vertex -6.878316e-03 -3.174609e-02  7.751322e-01
   endloop
 endfacet
 facet normal  0.000000e+00  0.000000e+00  1.000000e+00
   outer loop
     vertex -4.920638e-02 -1.587302e-02  6.904762e-01
     vertex -6.878316e-03 -1.587302e-02  6.904762e-01
     vertex -6.878316e-03  0.000000e+00  6.904762e-01
   endloop
 endfacet
 facet normal  0.000000e+00  0.000000e+00  1.000000e+00
   outer loop
     vertex -4.920638e-02 -1.587302e-02  6.904762e-01
     vertex -6.878316e-03  0.000000e+00  6.904762e-01
     vertex -4.920638e-02  0.000000e+00  6.904762e-01
   endloop
 endfacet
 facet normal  0.000000e+00  0.000000e+00 -1.000000e+00
   outer loop
     vertex  8.396826e-01 -1.587302e-02 -1.137567e-01
     vertex -6.878316e-03 -1.587302e-02 -1.137567e-01
     vertex -6.878316e-03  0.000000e+00 -1.137567e-01
   endloop
 endfacet
 facet normal  0.000000e+00  0.000000e+00 -1.000000e+00
   outer loop
     vertex  8.396826e-01 -1.587302e-02 -1.137567e-01
     vertex -6.878316e-03  0.000000e+00 -1.137567e-01
     vertex  8.396826e-01  0.000000e+00 -1.137567e-01
   endloop
 endfacet
 facet normal  1.000000e+00  0.000000e+00  0.000000e+00
   outer loop
     vertex  8.396826e-01 -1.587302e-02 -2.910060e-02
     vertex  8.396826e-01 -1.587302e-02 -1.137567e-01
     vertex  8.396826e-01  0.000000e+00 -1.137567e-01
   endloop
 endfacet
 facet normal  1.000000e+00 -0.000000e+00  0.000000e+00
   outer loop
     vertex  8.396826e-01 -1.587302e-02 -2.910060e-02
     vertex  8.396826e-01  0.000000e+00 -1.137567e-01
     vertex  8.396826e-01  0.000000e+00 -2.910060e-02
   endloop
 endfacet
 facet normal  0.000000e+00  0.000000e+00 -1.000000e+00
   outer loop
     vertex  8.820106e-01 -1.587302e-02 -2.910060e-02
     vertex  8.396826e-01 -1.587302e-02 -2.910060e-02
     vertex  8.396826e-01  0.000000e+00 -2.910060e-02
   endloop
 endfacet
 facet normal  0.000000e+00  0.000000e+00 -1.000000e+00
   outer loop
     vertex  8.820106e-01 -1.587302e-02 -2.910060e-02
     vertex  8.396826e-01  0.000000e+00 -2.910060e-02
     vertex  8.820106e-01  0.000000e+00 -2.910060e-02
   endloop
 endfacet
 facet normal  1.000000e+00  0.000000e+00  0.000000e+00
   outer loop
     vertex  8.820106e-01 -1.587302e-02  6.904762e-01
     vertex  8.820106e-01 -1.587302e-02 -2.910060e-02
     vertex  8.820106e-01  0.000000e+00 -2.910060e-02
   endloop
 endfacet
 facet normal  1.000000e+00 -0.000000e+00  0.000000e+00
   outer loop
     vertex  8.820106e-01 -1.587302e-02  6.904762e-01
     vertex  8.820106e-01  0.000000e+00 -2.910060e-02
     vertex  8.820106e-01  0.000000e+00  6.904762e-01
   endloop
 endfacet
 facet normal  0.000000e+00  0.000000e+00  1.000000e+00
   outer loop
     vertex  8.396826e-01 -1.587302e-02  6.904762e-01
     vertex  8.820106e-01 -1.587302e-02  6.904762e-01
     vertex  8.820106e-01  0.000000e+00  6.904762e-01
   endloop
 endfacet
 facet normal  0.000000e+00  0.000000e+00  1.000000e+00
   outer loop
     vertex  8.396826e-01 -1.587302e-02  6.904762e-01
     vertex  8.820106e-01  0.000000e+00  6.904762e-01
     vertex  8.396826e-01  0.000000e+00  6.904762e-01
   endloop
 endfacet
 facet normal  1.000000e+00  0.000000e+00  0.000000e+00
   outer loop
     vertex  8.396826e-01 -1.587302e-02  7.751322e-01
     vertex  8.396826e-01 -1.587302e-02  6.904762e-01
     vertex  8.396826e-01  0.000000e+00  6.904762e-01
   endloop
 endfacet
 facet normal  1.000000e+00 -0.000000e+00  0.000000e+00
   outer loop
     vertex  8.396826e-01 -1.587302e-02  7.751322e-01
     vertex  8.396826e-01  0.000000e+00  6.904762e-01
     vertex  8.396826e-01  0.000000e+00  7.751322e-01
   endloop
 endfacet
 facet normal  0.000000e+00  0.000000e+00  1.000000e+00
   outer loop
     vertex -6.878316e-03 -1.587302e-02  7.751322e-01
     vertex  8.396826e-01 -1.587302e-02  7.751322e-01
     vertex  8.396826e-01  0.000000e+00  7.751322e-01
   endloop
 endfacet
 facet normal  0.000000e+00  0.000000e+00  1.000000e+00
   outer loop
     vertex -6.878316e-03 -1.587302e-02  7.751322e-01
     vertex  8.396826e-01  0.000000e+00  7.751322e-01
     vertex -6.878316e-03  0.000000e+00  7.751322e-01
   endloop
 endfacet
 facet normal -1.000000e+00  0.000000e+00  0.000000e+00
   outer loop
     vertex -6.878316e-03 -1.587302e-02  6.904762e-01
     vertex -6.878316e-03 -1.587302e-02  7.751322e-01
     vertex -6.878316e-03  0.000000e+00  7.751322e-01
   endloop
 endfacet
 facet normal -1.000000e+00  0.000000e+00  0.000000e+00
   outer loop
     vertex -6.878316e-03 -1.587302e-02  6.904762e-01
     vertex -6.878316e-03  0.000000e+00  7.751322e-01
     vertex -6.878316e-03  0.000000e+00  6.904762e-01
   endloop
 endfacet
endsolid
