solid 
 facet normal  1.961163e-01  0.000000e+00 -9.805806e-01
   outer loop
     vertex -9.123457e-01 -1.587302e-02 -2.530864e-01
     vertex -1.004056e+00 -3.174609e-02 -2.714286e-01
     vertex -1.004056e+00 -1.587302e-02 -2.714286e-01
   endloop
 endfacet
 facet normal  1.961163e-01  0.000000e+00 -9.805806e-01
   outer loop
     vertex -9.123457e-01 -1.587302e-02 -2.530864e-01
     vertex -9.123457e-01 -3.174609e-02 -2.530864e-01
     vertex -1.004056e+00 -3.174609e-02 -2.714286e-01
   endloop
 endfacet
 facet normal -1.000000e+00  0.000000e+00  0.000000e+00
   outer loop
     vertex -1.004056e+00 -1.587302e-02 -2.714286e-01
     vertex -1.004056e+00 -3.174609e-02  5.356261e-01
     vertex -1.004056e+00 -1.587302e-02  5.356261e-01
   endloop
 endfacet
 facet normal -1.000000e+00  0.000000e+00  0.000000e+00
   outer loop
     vertex -1.004056e+00 -1.587302e-02 -2.714286e-01
     vertex -1.004056e+00 -3.174609e-02 -2.714286e-01
     vertex -1.004056e+00 -3.174609e-02  5.356261e-01
   endloop
 endfacet
 facet normal  9.997167e-01  0.000000e+00 -2.380276e-02
   outer loop
     vertex -8.940036e-01 -1.587302e-02  5.172840e-01
     vertex -9.123457e-01 -3.174609e-02 -2.530864e-01
     vertex -9.123457e-01 -1.587302e-02 -2.530864e-01
   endloop
 endfacet
 facet normal  9.997167e-01  0.000000e+00 -2.380276e-02
   outer loop
     vertex -8.940036e-01 -1.587302e-02  5.172840e-01
     vertex -8.940036e-01 -3.174609e-02  5.172840e-01
     vertex -9.123457e-01 -3.174609e-02 -2.530864e-01
   endloop
 endfacet
 facet normal  1.961163e-01  0.000000e+00 -9.805806e-01
   outer loop
     vertex -9.123457e-01 -1.587302e-02 -2.530864e-01
     vertex -1.004056e+00 -1.587302e-02 -2.714286e-01
     vertex -1.004056e+00  0.000000e+00 -2.714286e-01
   endloop
 endfacet
 facet normal  1.961163e-01  0.000000e+00 -9.805806e-01
   outer loop
     vertex -9.123457e-01 -1.587302e-02 -2.530864e-01
     vertex -1.004056e+00  0.000000e+00 -2.714286e-01
     vertex -9.123457e-01  0.000000e+00 -2.530864e-01
   endloop
 endfacet
 facet normal  0.000000e+00 -1.000000e+00  0.000000e+00
   outer loop
     vertex -1.004056e+00 -3.174609e-02  5.356261e-01
     vertex -1.004056e+00 -3.174609e-02 -2.714286e-01
     vertex -9.123457e-01 -3.174609e-02 -2.530864e-01
   endloop
 endfacet
 facet normal -0.000000e+00 -1.000000e+00  0.000000e+00
   outer loop
     vertex -8.940036e-01 -3.174609e-02  5.172840e-01
     vertex -1.004056e+00 -3.174609e-02  5.356261e-01
     vertex -9.123457e-01 -3.174609e-02 -2.530864e-01
   endloop
 endfacet
 facet normal -0.000000e+00 -1.000000e+00 -0.000000e+00
   outer loop
     vertex -8.940036e-01 -3.174609e-02  5.356261e-01
     vertex -1.004056e+00 -3.174609e-02  5.356261e-01
     vertex -8.940036e-01 -3.174609e-02  5.172840e-01
   endloop
 endfacet
 facet normal  0.000000e+00 -1.000000e+00 -0.000000e+00
   outer loop
     vertex -1.603174e-01 -3.174609e-02  5.356261e-01
     vertex -8.940036e-01 -3.174609e-02  5.172840e-01
     vertex -1.603174e-01 -3.174609e-02  5.172840e-01
   endloop
 endfacet
 facet normal -0.000000e+00 -1.000000e+00  0.000000e+00
   outer loop
     vertex -1.603174e-01 -3.174609e-02  5.356261e-01
     vertex -8.940036e-01 -3.174609e-02  5.356261e-01
     vertex -8.940036e-01 -3.174609e-02  5.172840e-01
   endloop
 endfacet
 facet normal -0.000000e+00  0.000000e+00  1.000000e+00
   outer loop
     vertex -1.004056e+00 -1.587302e-02  5.356261e-01
     vertex -8.940036e-01 -3.174609e-02  5.356261e-01
     vertex -8.940036e-01 -1.587302e-02  5.356261e-01
   endloop
 endfacet
 facet normal  0.000000e+00  0.000000e+00  1.000000e+00
   outer loop
     vertex -1.004056e+00 -1.587302e-02  5.356261e-01
     vertex -1.004056e+00 -3.174609e-02  5.356261e-01
     vertex -8.940036e-01 -3.174609e-02  5.356261e-01
   endloop
 endfacet
 facet normal -1.000000e+00  0.000000e+00  0.000000e+00
   outer loop
     vertex -1.004056e+00 -1.587302e-02 -2.714286e-01
     vertex -1.004056e+00 -1.587302e-02  5.356261e-01
     vertex -1.004056e+00  0.000000e+00  5.356261e-01
   endloop
 endfacet
 facet normal -1.000000e+00  0.000000e+00  0.000000e+00
   outer loop
     vertex -1.004056e+00 -1.587302e-02 -2.714286e-01
     vertex -1.004056e+00  0.000000e+00  5.356261e-01
     vertex -1.004056e+00  0.000000e+00 -2.714286e-01
   endloop
 endfacet
 facet normal -0.000000e+00  0.000000e+00 -1.000000e+00
   outer loop
     vertex -1.603174e-01 -1.587302e-02  5.172840e-01
     vertex -8.940036e-01 -3.174609e-02  5.172840e-01
     vertex -8.940036e-01 -1.587302e-02  5.172840e-01
   endloop
 endfacet
 facet normal  0.000000e+00 -0.000000e+00 -1.000000e+00
   outer loop
     vertex -1.603174e-01 -1.587302e-02  5.172840e-01
     vertex -1.603174e-01 -3.174609e-02  5.172840e-01
     vertex -8.940036e-01 -3.174609e-02  5.172840e-01
   endloop
 endfacet
 facet normal  9.997167e-01  0.000000e+00 -2.380276e-02
   outer loop
     vertex -8.940036e-01 -1.587302e-02  5.172840e-01
     vertex -9.123457e-01 -1.587302e-02 -2.530864e-01
     vertex -9.123457e-01  0.000000e+00 -2.530864e-01
   endloop
 endfacet
 facet normal  9.997167e-01  0.000000e+00 -2.380276e-02
   outer loop
     vertex -8.940036e-01 -1.587302e-02  5.172840e-01
     vertex -9.123457e-01  0.000000e+00 -2.530864e-01
     vertex -8.940036e-01  0.000000e+00  5.172840e-01
   endloop
 endfacet
 facet normal  0.000000e+00  1.000000e+00  0.000000e+00
   outer loop
     vertex -1.004056e+00 -3.469447e-18  5.356261e-01
     vertex -9.123457e-01 -3.469447e-18 -2.530864e-01
     vertex -1.004056e+00 -3.469447e-18 -2.714286e-01
   endloop
 endfacet
 facet normal  0.000000e+00  1.000000e+00  0.000000e+00
   outer loop
     vertex -8.940036e-01 -3.469447e-18  5.172840e-01
     vertex -9.123457e-01 -3.469447e-18 -2.530864e-01
     vertex -1.004056e+00 -3.469447e-18  5.356261e-01
   endloop
 endfacet
 facet normal  0.000000e+00  1.000000e+00  0.000000e+00
   outer loop
     vertex -8.940036e-01 -3.469447e-18  5.356261e-01
     vertex -8.940036e-01 -3.469447e-18  5.172840e-01
     vertex -1.004056e+00 -3.469447e-18  5.356261e-01
   endloop
 endfacet
 facet normal  0.000000e+00  1.000000e+00  0.000000e+00
   outer loop
     vertex -1.603174e-01 -3.469447e-18  5.356261e-01
     vertex -1.603174e-01 -3.469447e-18  5.172840e-01
     vertex -8.940036e-01 -3.469447e-18  5.172840e-01
   endloop
 endfacet
 facet normal  0.000000e+00  1.000000e+00  0.000000e+00
   outer loop
     vertex -1.603174e-01 -3.469447e-18  5.356261e-01
     vertex -8.940036e-01 -3.469447e-18  5.172840e-01
     vertex -8.940036e-01 -3.469447e-18  5.356261e-01
   endloop
 endfacet
 facet normal  1.000000e+00  0.000000e+00  0.000000e+00
   outer loop
     vertex -1.603174e-01 -1.587302e-02  5.356261e-01
     vertex -1.603174e-01 -3.174609e-02  5.172840e-01
     vertex -1.603174e-01 -1.587302e-02  5.172840e-01
   endloop
 endfacet
 facet normal  1.000000e+00  0.000000e+00  0.000000e+00
   outer loop
     vertex -1.603174e-01 -1.587302e-02  5.356261e-01
     vertex -1.603174e-01 -3.174609e-02  5.356261e-01
     vertex -1.603174e-01 -3.174609e-02  5.172840e-01
   endloop
 endfacet
 facet normal -0.000000e+00  0.000000e+00  1.000000e+00
   outer loop
     vertex -8.940036e-01 -1.587302e-02  5.356261e-01
     vertex -1.603174e-01 -3.174609e-02  5.356261e-01
     vertex -1.603174e-01 -1.587302e-02  5.356261e-01
   endloop
 endfacet
 facet normal  0.000000e+00  0.000000e+00  1.000000e+00
   outer loop
     vertex -8.940036e-01 -1.587302e-02  5.356261e-01
     vertex -8.940036e-01 -3.174609e-02  5.356261e-01
     vertex -1.603174e-01 -3.174609e-02  5.356261e-01
   endloop
 endfacet
 facet normal  0.000000e+00  0.000000e+00  1.000000e+00
   outer loop
     vertex -1.004056e+00 -1.587302e-02  5.356261e-01
     vertex -8.940036e-01 -1.587302e-02  5.356261e-01
     vertex -8.940036e-01  0.000000e+00  5.356261e-01
   endloop
 endfacet
 facet normal  0.000000e+00  0.000000e+00  1.000000e+00
   outer loop
     vertex -1.004056e+00 -1.587302e-02  5.356261e-01
     vertex -8.940036e-01  0.000000e+00  5.356261e-01
     vertex -1.004056e+00  0.000000e+00  5.356261e-01
   endloop
 endfacet
 facet normal  0.000000e+00  0.000000e+00 -1.000000e+00
   outer loop
     vertex -1.603174e-01 -1.587302e-02  5.172840e-01
     vertex -8.940036e-01 -1.587302e-02  5.172840e-01
     vertex -8.940036e-01  0.000000e+00  5.172840e-01
   endloop
 endfacet
 facet normal  0.000000e+00  0.000000e+00 -1.000000e+00
   outer loop
     vertex -1.603174e-01 -1.587302e-02  5.172840e-01
     vertex -8.940036e-01  0.000000e+00  5.172840e-01
     vertex -1.603174e-01  0.000000e+00  5.172840e-01
   endloop
 endfacet
 facet normal  1.000000e+00  0.000000e+00  0.000000e+00
   outer loop
     vertex -1.603174e-01 -1.587302e-02  5.356261e-01
     vertex -1.603174e-01 -1.587302e-02  5.172840e-01
     vertex -1.603174e-01  0.000000e+00  5.172840e-01
   endloop
 endfacet
 facet normal  1.000000e+00 -0.000000e+00  0.000000e+00
   outer loop
     vertex -1.603174e-01 -1.587302e-02  5.356261e-01
     vertex -1.603174e-01  0.000000e+00  5.172840e-01
     vertex -1.603174e-01  0.000000e+00  5.356261e-01
   endloop
 endfacet
 facet normal  0.000000e+00  0.000000e+00  1.000000e+00
   outer loop
     vertex -8.940036e-01 -1.587302e-02  5.356261e-01
     vertex -1.603174e-01 -1.587302e-02  5.356261e-01
     vertex -1.603174e-01  0.000000e+00  5.356261e-01
   endloop
 endfacet
 facet normal  0.000000e+00  0.000000e+00  1.000000e+00
   outer loop
     vertex -8.940036e-01 -1.587302e-02  5.356261e-01
     vertex -1.603174e-01  0.000000e+00  5.356261e-01
     vertex -8.940036e-01  0.000000e+00  5.356261e-01
   endloop
 endfacet
endsolid
