solid 
 facet normal -9.908302e-01  0.000000e+00 -1.351132e-01
   outer loop
     vertex  2.380952e-02 -1.587302e-02 -3.804232e-01
     vertex -2.063492e-02 -1.015873e+00 -5.449730e-02
     vertex -2.063492e-02 -1.587302e-02 -5.449730e-02
   endloop
 endfacet
 facet normal -9.908302e-01 -0.000000e+00 -1.351132e-01
   outer loop
     vertex  2.380952e-02 -1.587302e-02 -3.804232e-01
     vertex  2.380952e-02 -1.015873e+00 -3.804232e-01
     vertex -2.063492e-02 -1.015873e+00 -5.449730e-02
   endloop
 endfacet
 facet normal -0.000000e+00  0.000000e+00  1.000000e+00
   outer loop
     vertex -2.063492e-02 -1.587302e-02 -5.449730e-02
     vertex  3.052910e-01 -1.015873e+00 -5.449730e-02
     vertex  3.052910e-01 -1.587302e-02 -5.449730e-02
   endloop
 endfacet
 facet normal  0.000000e+00  0.000000e+00  1.000000e+00
   outer loop
     vertex -2.063492e-02 -1.587302e-02 -5.449730e-02
     vertex -2.063492e-02 -1.015873e+00 -5.449730e-02
     vertex  3.052910e-01 -1.015873e+00 -5.449730e-02
   endloop
 endfacet
 facet normal -1.000000e+00  0.000000e+00  0.000000e+00
   outer loop
     vertex  2.380952e-02 -1.587302e-02 -7.063492e-01
     vertex  2.380952e-02 -1.015873e+00 -3.804232e-01
     vertex  2.380952e-02 -1.587302e-02 -3.804232e-01
   endloop
 endfacet
 facet normal -1.000000e+00  0.000000e+00  0.000000e+00
   outer loop
     vertex  2.380952e-02 -1.587302e-02 -7.063492e-01
     vertex  2.380952e-02 -1.015873e+00 -7.063492e-01
     vertex  2.380952e-02 -1.015873e+00 -3.804232e-01
   endloop
 endfacet
 facet normal -9.908302e-01  0.000000e+00 -1.351132e-01
   outer loop
     vertex  2.380952e-02 -1.587302e-02 -3.804232e-01
     vertex -2.063492e-02 -1.587302e-02 -5.449730e-02
     vertex -2.063492e-02  0.000000e+00 -5.449730e-02
   endloop
 endfacet
 facet normal -9.908302e-01  0.000000e+00 -1.351132e-01
   outer loop
     vertex  2.380952e-02 -1.587302e-02 -3.804232e-01
     vertex -2.063492e-02  0.000000e+00 -5.449730e-02
     vertex  2.380952e-02  0.000000e+00 -3.804232e-01
   endloop
 endfacet
 facet normal  0.000000e+00 -1.000000e+00  0.000000e+00
   outer loop
     vertex  6.312169e-01 -1.015873e+00 -7.063492e-01
     vertex  2.380952e-02 -1.015873e+00 -3.804232e-01
     vertex  2.380952e-02 -1.015873e+00 -7.063492e-01
   endloop
 endfacet
 facet normal -0.000000e+00 -1.000000e+00  0.000000e+00
   outer loop
     vertex  3.052910e-01 -1.015873e+00 -5.449730e-02
     vertex -2.063492e-02 -1.015873e+00 -5.449730e-02
     vertex  2.380952e-02 -1.015873e+00 -3.804232e-01
   endloop
 endfacet
 facet normal  0.000000e+00 -1.000000e+00 -0.000000e+00
   outer loop
     vertex  6.312169e-01 -1.015873e+00 -3.656084e-01
     vertex  2.380952e-02 -1.015873e+00 -3.804232e-01
     vertex  6.312169e-01 -1.015873e+00 -7.063492e-01
   endloop
 endfacet
 facet normal -0.000000e+00 -1.000000e+00  0.000000e+00
   outer loop
     vertex  6.312169e-01 -1.015873e+00 -3.656084e-01
     vertex  3.052910e-01 -1.015873e+00 -5.449730e-02
     vertex  2.380952e-02 -1.015873e+00 -3.804232e-01
   endloop
 endfacet
 facet normal  6.904757e-01  0.000000e+00  7.233556e-01
   outer loop
     vertex  3.052910e-01 -1.587302e-02 -5.449730e-02
     vertex  6.312169e-01 -1.015873e+00 -3.656084e-01
     vertex  6.312169e-01 -1.587302e-02 -3.656084e-01
   endloop
 endfacet
 facet normal  6.904757e-01  0.000000e+00  7.233556e-01
   outer loop
     vertex  3.052910e-01 -1.587302e-02 -5.449730e-02
     vertex  3.052910e-01 -1.015873e+00 -5.449730e-02
     vertex  6.312169e-01 -1.015873e+00 -3.656084e-01
   endloop
 endfacet
 facet normal  0.000000e+00  0.000000e+00  1.000000e+00
   outer loop
     vertex -2.063492e-02 -1.587302e-02 -5.449730e-02
     vertex  3.052910e-01 -1.587302e-02 -5.449730e-02
     vertex  3.052910e-01  0.000000e+00 -5.449730e-02
   endloop
 endfacet
 facet normal  0.000000e+00  0.000000e+00  1.000000e+00
   outer loop
     vertex -2.063492e-02 -1.587302e-02 -5.449730e-02
     vertex  3.052910e-01  0.000000e+00 -5.449730e-02
     vertex -2.063492e-02  0.000000e+00 -5.449730e-02
   endloop
 endfacet
 facet normal -0.000000e+00  0.000000e+00 -1.000000e+00
   outer loop
     vertex  6.312169e-01 -1.587302e-02 -7.063492e-01
     vertex  2.380952e-02 -1.015873e+00 -7.063492e-01
     vertex  2.380952e-02 -1.587302e-02 -7.063492e-01
   endloop
 endfacet
 facet normal  0.000000e+00 -0.000000e+00 -1.000000e+00
   outer loop
     vertex  6.312169e-01 -1.587302e-02 -7.063492e-01
     vertex  6.312169e-01 -1.015873e+00 -7.063492e-01
     vertex  2.380952e-02 -1.015873e+00 -7.063492e-01
   endloop
 endfacet
 facet normal -1.000000e+00  0.000000e+00  0.000000e+00
   outer loop
     vertex  2.380952e-02 -1.587302e-02 -7.063492e-01
     vertex  2.380952e-02 -1.587302e-02 -3.804232e-01
     vertex  2.380952e-02  0.000000e+00 -3.804232e-01
   endloop
 endfacet
 facet normal -1.000000e+00  0.000000e+00  0.000000e+00
   outer loop
     vertex  2.380952e-02 -1.587302e-02 -7.063492e-01
     vertex  2.380952e-02  0.000000e+00 -3.804232e-01
     vertex  2.380952e-02  0.000000e+00 -7.063492e-01
   endloop
 endfacet
 facet normal  0.000000e+00  1.000000e+00  0.000000e+00
   outer loop
     vertex  6.312169e-01  6.591949e-17 -7.063492e-01
     vertex  2.380952e-02  6.591949e-17 -7.063492e-01
     vertex  2.380952e-02  6.591949e-17 -3.804232e-01
   endloop
 endfacet
 facet normal  0.000000e+00  1.000000e+00  0.000000e+00
   outer loop
     vertex  3.052910e-01  6.591949e-17 -5.449730e-02
     vertex  2.380952e-02  6.591949e-17 -3.804232e-01
     vertex -2.063492e-02  6.591949e-17 -5.449730e-02
   endloop
 endfacet
 facet normal  0.000000e+00  1.000000e+00  0.000000e+00
   outer loop
     vertex  6.312169e-01  6.591949e-17 -3.656084e-01
     vertex  6.312169e-01  6.591949e-17 -7.063492e-01
     vertex  2.380952e-02  6.591949e-17 -3.804232e-01
   endloop
 endfacet
 facet normal  0.000000e+00  1.000000e+00  0.000000e+00
   outer loop
     vertex  6.312169e-01  6.591949e-17 -3.656084e-01
     vertex  2.380952e-02  6.591949e-17 -3.804232e-01
     vertex  3.052910e-01  6.591949e-17 -5.449730e-02
   endloop
 endfacet
 facet normal  1.000000e+00  0.000000e+00  0.000000e+00
   outer loop
     vertex  6.312169e-01 -1.587302e-02 -3.656084e-01
     vertex  6.312169e-01 -1.015873e+00 -7.063492e-01
     vertex  6.312169e-01 -1.587302e-02 -7.063492e-01
   endloop
 endfacet
 facet normal  1.000000e+00  0.000000e+00  0.000000e+00
   outer loop
     vertex  6.312169e-01 -1.587302e-02 -3.656084e-01
     vertex  6.312169e-01 -1.015873e+00 -3.656084e-01
     vertex  6.312169e-01 -1.015873e+00 -7.063492e-01
   endloop
 endfacet
 facet normal  6.904757e-01  0.000000e+00  7.233556e-01
   outer loop
     vertex  3.052910e-01 -1.587302e-02 -5.449730e-02
     vertex  6.312169e-01 -1.587302e-02 -3.656084e-01
     vertex  6.312169e-01  0.000000e+00 -3.656084e-01
   endloop
 endfacet
 facet normal  6.904757e-01 -0.000000e+00  7.233556e-01
   outer loop
     vertex  3.052910e-01 -1.587302e-02 -5.449730e-02
     vertex  6.312169e-01  0.000000e+00 -3.656084e-01
     vertex  3.052910e-01  0.000000e+00 -5.449730e-02
   endloop
 endfacet
 facet normal  0.000000e+00  0.000000e+00 -1.000000e+00
   outer loop
     vertex  6.312169e-01 -1.587302e-02 -7.063492e-01
     vertex  2.380952e-02 -1.587302e-02 -7.063492e-01
     vertex  2.380952e-02  0.000000e+00 -7.063492e-01
   endloop
 endfacet
 facet normal  0.000000e+00  0.000000e+00 -1.000000e+00
   outer loop
     vertex  6.312169e-01 -1.587302e-02 -7.063492e-01
     vertex  2.380952e-02  0.000000e+00 -7.063492e-01
     vertex  6.312169e-01  0.000000e+00 -7.063492e-01
   endloop
 endfacet
 facet normal  1.000000e+00  0.000000e+00  0.000000e+00
   outer loop
     vertex  6.312169e-01 -1.587302e-02 -3.656084e-01
     vertex  6.312169e-01 -1.587302e-02 -7.063492e-01
     vertex  6.312169e-01  0.000000e+00 -7.063492e-01
   endloop
 endfacet
 facet normal  1.000000e+00 -0.000000e+00  0.000000e+00
   outer loop
     vertex  6.312169e-01 -1.587302e-02 -3.656084e-01
     vertex  6.312169e-01  0.000000e+00 -7.063492e-01
     vertex  6.312169e-01  0.000000e+00 -3.656084e-01
   endloop
 endfacet
endsolid
