solid 
 facet normal -1.000000e+00  0.000000e+00  0.000000e+00
   outer loop
     vertex -1.825397e-01 -1.587335e-03 -1.587302e-02
     vertex -1.825397e-01  8.306876e-02  9.841270e-01
     vertex -1.825397e-01  8.306876e-02 -1.587302e-02
   endloop
 endfacet
 facet normal -1.000000e+00  0.000000e+00  0.000000e+00
   outer loop
     vertex -1.825397e-01 -1.587335e-03 -1.587302e-02
     vertex -1.825397e-01 -1.587335e-03  9.841270e-01
     vertex -1.825397e-01  8.306876e-02  9.841270e-01
   endloop
 endfacet
 facet normal -4.524984e-01  8.917652e-01  0.000000e+00
   outer loop
     vertex -1.354688e-01  1.382284e-01 -1.587302e-02
     vertex -1.190476e-01  1.465608e-01  9.841270e-01
     vertex -1.190476e-01  1.465608e-01 -1.587302e-02
   endloop
 endfacet
 facet normal -4.524984e-01  8.917652e-01  0.000000e+00
   outer loop
     vertex -1.354688e-01  1.382284e-01 -1.587302e-02
     vertex -1.354688e-01  1.382284e-01  9.841270e-01
     vertex -1.190476e-01  1.465608e-01  9.841270e-01
   endloop
 endfacet
 facet normal -5.871079e-01  8.095087e-01  0.000000e+00
   outer loop
     vertex -1.503753e-01  1.274173e-01 -1.587302e-02
     vertex -1.503753e-01  1.274173e-01  9.841270e-01
     vertex -1.354688e-01  1.382284e-01  9.841270e-01
   endloop
 endfacet
 facet normal -5.871079e-01  8.095087e-01  0.000000e+00
   outer loop
     vertex -1.503753e-01  1.274173e-01 -1.587302e-02
     vertex -1.354688e-01  1.382284e-01  9.841270e-01
     vertex -1.354688e-01  1.382284e-01 -1.587302e-02
   endloop
 endfacet
 facet normal -7.071067e-01  7.071069e-01  0.000000e+00
   outer loop
     vertex -1.633961e-01  1.143964e-01 -1.587302e-02
     vertex -1.633961e-01  1.143964e-01  9.841270e-01
     vertex -1.503753e-01  1.274173e-01  9.841270e-01
   endloop
 endfacet
 facet normal -7.071067e-01  7.071069e-01  0.000000e+00
   outer loop
     vertex -1.633961e-01  1.143964e-01 -1.587302e-02
     vertex -1.503753e-01  1.274173e-01  9.841270e-01
     vertex -1.503753e-01  1.274173e-01 -1.587302e-02
   endloop
 endfacet
 facet normal -8.095086e-01  5.871081e-01  0.000000e+00
   outer loop
     vertex -1.742073e-01  9.948994e-02 -1.587302e-02
     vertex -1.742073e-01  9.948994e-02  9.841270e-01
     vertex -1.633961e-01  1.143964e-01  9.841270e-01
   endloop
 endfacet
 facet normal -8.095086e-01  5.871081e-01  0.000000e+00
   outer loop
     vertex -1.742073e-01  9.948994e-02 -1.587302e-02
     vertex -1.633961e-01  1.143964e-01  9.841270e-01
     vertex -1.633961e-01  1.143964e-01 -1.587302e-02
   endloop
 endfacet
 facet normal -8.917651e-01  4.524986e-01  0.000000e+00
   outer loop
     vertex -1.825397e-01  8.306876e-02 -1.587302e-02
     vertex -1.825397e-01  8.306876e-02  9.841270e-01
     vertex -1.742073e-01  9.948994e-02  9.841270e-01
   endloop
 endfacet
 facet normal -8.917651e-01  4.524986e-01  0.000000e+00
   outer loop
     vertex -1.825397e-01  8.306876e-02 -1.587302e-02
     vertex -1.742073e-01  9.948994e-02  9.841270e-01
     vertex -1.742073e-01  9.948994e-02 -1.587302e-02
   endloop
 endfacet
 facet normal -9.932667e-01  1.158498e-01  0.000000e+00
   outer loop
     vertex -1.833663e-01 -8.674546e-03 -1.587302e-02
     vertex -1.825397e-01 -1.587335e-03  9.841270e-01
     vertex -1.825397e-01 -1.587335e-03 -1.587302e-02
   endloop
 endfacet
 facet normal -9.932667e-01  1.158498e-01  0.000000e+00
   outer loop
     vertex -1.833663e-01 -8.674546e-03 -1.587302e-02
     vertex -1.833663e-01 -8.674546e-03  9.841270e-01
     vertex -1.825397e-01 -1.587335e-03  9.841270e-01
   endloop
 endfacet
 facet normal -9.940363e-01 -1.090494e-01  0.000000e+00
   outer loop
     vertex -1.825882e-01 -1.576725e-02 -1.587302e-02
     vertex -1.825882e-01 -1.576725e-02  9.841270e-01
     vertex -1.833663e-01 -8.674546e-03  9.841270e-01
   endloop
 endfacet
 facet normal -9.940363e-01 -1.090494e-01  0.000000e+00
   outer loop
     vertex -1.825882e-01 -1.576725e-02 -1.587302e-02
     vertex -1.833663e-01 -8.674546e-03  9.841270e-01
     vertex -1.833663e-01 -8.674546e-03 -1.587302e-02
   endloop
 endfacet
 facet normal -9.445273e-01 -3.284328e-01  0.000000e+00
   outer loop
     vertex -1.802448e-01 -2.250669e-02 -1.587302e-02
     vertex -1.802448e-01 -2.250669e-02  9.841270e-01
     vertex -1.825882e-01 -1.576725e-02  9.841270e-01
   endloop
 endfacet
 facet normal -9.445273e-01 -3.284328e-01  0.000000e+00
   outer loop
     vertex -1.802448e-01 -2.250669e-02 -1.587302e-02
     vertex -1.825882e-01 -1.576725e-02  9.841270e-01
     vertex -1.825882e-01 -1.576725e-02 -1.587302e-02
   endloop
 endfacet
 facet normal -8.472439e-01 -5.312040e-01  0.000000e+00
   outer loop
     vertex -1.764545e-01 -2.855199e-02 -1.587302e-02
     vertex -1.764545e-01 -2.855199e-02  9.841270e-01
     vertex -1.802448e-01 -2.250669e-02  9.841270e-01
   endloop
 endfacet
 facet normal -8.472439e-01 -5.312040e-01  0.000000e+00
   outer loop
     vertex -1.764545e-01 -2.855199e-02 -1.587302e-02
     vertex -1.802448e-01 -2.250669e-02  9.841270e-01
     vertex -1.802448e-01 -2.250669e-02 -1.587302e-02
   endloop
 endfacet
 facet normal -7.071067e-01 -7.071068e-01  0.000000e+00
   outer loop
     vertex -1.714091e-01 -3.359738e-02 -1.587302e-02
     vertex -1.714091e-01 -3.359738e-02  9.841270e-01
     vertex -1.764545e-01 -2.855199e-02  9.841270e-01
   endloop
 endfacet
 facet normal -7.071067e-01 -7.071068e-01  0.000000e+00
   outer loop
     vertex -1.714091e-01 -3.359738e-02 -1.587302e-02
     vertex -1.764545e-01 -2.855199e-02  9.841270e-01
     vertex -1.764545e-01 -2.855199e-02 -1.587302e-02
   endloop
 endfacet
 facet normal -5.312039e-01 -8.472440e-01  0.000000e+00
   outer loop
     vertex -1.653638e-01 -3.738766e-02 -1.587302e-02
     vertex -1.653638e-01 -3.738766e-02  9.841270e-01
     vertex -1.714091e-01 -3.359738e-02  9.841270e-01
   endloop
 endfacet
 facet normal -5.312039e-01 -8.472440e-01  0.000000e+00
   outer loop
     vertex -1.653638e-01 -3.738766e-02 -1.587302e-02
     vertex -1.714091e-01 -3.359738e-02  9.841270e-01
     vertex -1.714091e-01 -3.359738e-02 -1.587302e-02
   endloop
 endfacet
 facet normal -3.284327e-01 -9.445274e-01  0.000000e+00
   outer loop
     vertex -1.586244e-01 -3.973111e-02 -1.587302e-02
     vertex -1.586244e-01 -3.973111e-02  9.841270e-01
     vertex -1.653638e-01 -3.738766e-02  9.841270e-01
   endloop
 endfacet
 facet normal -3.284327e-01 -9.445274e-01  0.000000e+00
   outer loop
     vertex -1.586244e-01 -3.973111e-02 -1.587302e-02
     vertex -1.653638e-01 -3.738766e-02  9.841270e-01
     vertex -1.653638e-01 -3.738766e-02 -1.587302e-02
   endloop
 endfacet
 facet normal -1.090493e-01 -9.940363e-01  0.000000e+00
   outer loop
     vertex -1.515317e-01 -4.050920e-02 -1.587302e-02
     vertex -1.515317e-01 -4.050920e-02  9.841270e-01
     vertex -1.586244e-01 -3.973111e-02  9.841270e-01
   endloop
 endfacet
 facet normal -1.090493e-01 -9.940363e-01  0.000000e+00
   outer loop
     vertex -1.515317e-01 -4.050920e-02 -1.587302e-02
     vertex -1.586244e-01 -3.973111e-02  9.841270e-01
     vertex -1.586244e-01 -3.973111e-02 -1.587302e-02
   endloop
 endfacet
 facet normal  1.158499e-01 -9.932667e-01  0.000000e+00
   outer loop
     vertex -1.444445e-01 -3.968258e-02 -1.587302e-02
     vertex -1.444445e-01 -3.968258e-02  9.841270e-01
     vertex -1.515317e-01 -4.050920e-02  9.841270e-01
   endloop
 endfacet
 facet normal  1.158499e-01 -9.932667e-01  0.000000e+00
   outer loop
     vertex -1.444445e-01 -3.968258e-02 -1.587302e-02
     vertex -1.515317e-01 -4.050920e-02  9.841270e-01
     vertex -1.515317e-01 -4.050920e-02 -1.587302e-02
   endloop
 endfacet
 facet normal -1.000000e+00  0.000000e+00  0.000000e+00
   outer loop
     vertex -1.825397e-01 -1.587335e-03 -1.587302e-02
     vertex -1.825397e-01  8.306876e-02 -1.587302e-02
     vertex -1.825397e-01  8.306876e-02 -3.174603e-02
   endloop
 endfacet
 facet normal -1.000000e+00  0.000000e+00  0.000000e+00
   outer loop
     vertex -1.825397e-01 -1.587335e-03 -1.587302e-02
     vertex -1.825397e-01  8.306876e-02 -3.174603e-02
     vertex -1.825397e-01 -1.587335e-03 -3.174603e-02
   endloop
 endfacet
 facet normal  0.000000e+00  0.000000e+00  1.000000e+00
   outer loop
     vertex -1.656085e-01 -5.820140e-03  9.841270e-01
     vertex -1.825397e-01 -1.587335e-03  9.841270e-01
     vertex -1.833663e-01 -8.674546e-03  9.841270e-01
   endloop
 endfacet
 facet normal  0.000000e+00  0.000000e+00  1.000000e+00
   outer loop
     vertex -1.656085e-01 -5.820140e-03  9.841270e-01
     vertex -1.833663e-01 -8.674546e-03  9.841270e-01
     vertex -1.825882e-01 -1.576725e-02  9.841270e-01
   endloop
 endfacet
 facet normal  0.000000e+00  0.000000e+00  1.000000e+00
   outer loop
     vertex -1.656085e-01 -5.820140e-03  9.841270e-01
     vertex -1.825882e-01 -1.576725e-02  9.841270e-01
     vertex -1.802448e-01 -2.250669e-02  9.841270e-01
   endloop
 endfacet
 facet normal  0.000000e+00  0.000000e+00  1.000000e+00
   outer loop
     vertex -1.656085e-01 -5.820140e-03  9.841270e-01
     vertex -1.802448e-01 -2.250669e-02  9.841270e-01
     vertex -1.764545e-01 -2.855199e-02  9.841270e-01
   endloop
 endfacet
 facet normal  0.000000e+00  0.000000e+00  1.000000e+00
   outer loop
     vertex -1.656085e-01 -5.820140e-03  9.841270e-01
     vertex -1.764545e-01 -2.855199e-02  9.841270e-01
     vertex -1.714091e-01 -3.359738e-02  9.841270e-01
   endloop
 endfacet
 facet normal  0.000000e+00  0.000000e+00  1.000000e+00
   outer loop
     vertex -1.656085e-01 -5.820140e-03  9.841270e-01
     vertex -1.714091e-01 -3.359738e-02  9.841270e-01
     vertex -1.653638e-01 -3.738766e-02  9.841270e-01
   endloop
 endfacet
 facet normal  0.000000e+00  0.000000e+00  1.000000e+00
   outer loop
     vertex -1.656085e-01 -5.820140e-03  9.841270e-01
     vertex -1.653638e-01 -3.738766e-02  9.841270e-01
     vertex -1.586244e-01 -3.973111e-02  9.841270e-01
   endloop
 endfacet
 facet normal  0.000000e+00  0.000000e+00  1.000000e+00
   outer loop
     vertex -1.656085e-01 -5.820140e-03  9.841270e-01
     vertex -1.586244e-01 -3.973111e-02  9.841270e-01
     vertex -1.515317e-01 -4.050920e-02  9.841270e-01
   endloop
 endfacet
 facet normal  0.000000e+00  0.000000e+00  1.000000e+00
   outer loop
     vertex -1.656085e-01 -5.820140e-03  9.841270e-01
     vertex -1.515317e-01 -4.050920e-02  9.841270e-01
     vertex -1.444445e-01 -3.968258e-02  9.841270e-01
   endloop
 endfacet
 facet normal  0.000000e+00  0.000000e+00  1.000000e+00
   outer loop
     vertex -1.656085e-01  2.804229e-02  9.841270e-01
     vertex -1.825397e-01 -1.587335e-03  9.841270e-01
     vertex -1.656085e-01 -5.820140e-03  9.841270e-01
   endloop
 endfacet
 facet normal  0.000000e+00  0.000000e+00  1.000000e+00
   outer loop
     vertex -1.825397e-01  8.306876e-02  9.841270e-01
     vertex -1.825397e-01 -1.587335e-03  9.841270e-01
     vertex -1.656085e-01  2.804229e-02  9.841270e-01
   endloop
 endfacet
 facet normal  0.000000e+00  0.000000e+00  1.000000e+00
   outer loop
     vertex -1.322753e-02 -5.820140e-03  9.841270e-01
     vertex -3.439155e-02 -3.968258e-02  9.841270e-01
     vertex -2.730434e-02 -4.050920e-02  9.841270e-01
   endloop
 endfacet
 facet normal  0.000000e+00  0.000000e+00  1.000000e+00
   outer loop
     vertex -1.322753e-02 -5.820140e-03  9.841270e-01
     vertex -2.730434e-02 -4.050920e-02  9.841270e-01
     vertex -2.021164e-02 -3.973110e-02  9.841270e-01
   endloop
 endfacet
 facet normal  0.000000e+00  0.000000e+00  1.000000e+00
   outer loop
     vertex -1.322753e-02 -5.820140e-03  9.841270e-01
     vertex -2.021164e-02 -3.973110e-02  9.841270e-01
     vertex -1.347220e-02 -3.738765e-02  9.841270e-01
   endloop
 endfacet
 facet normal  0.000000e+00  0.000000e+00  1.000000e+00
   outer loop
     vertex -1.322753e-02 -5.820140e-03  9.841270e-01
     vertex -1.347220e-02 -3.738765e-02  9.841270e-01
     vertex -7.426901e-03 -3.359737e-02  9.841270e-01
   endloop
 endfacet
 facet normal  0.000000e+00  0.000000e+00  1.000000e+00
   outer loop
     vertex -1.322753e-02 -5.820140e-03  9.841270e-01
     vertex -7.426901e-03 -3.359737e-02  9.841270e-01
     vertex -2.381516e-03 -2.855199e-02  9.841270e-01
   endloop
 endfacet
 facet normal  0.000000e+00  0.000000e+00  1.000000e+00
   outer loop
     vertex -1.322753e-02 -5.820140e-03  9.841270e-01
     vertex -2.381516e-03 -2.855199e-02  9.841270e-01
     vertex  1.408758e-03 -2.250669e-02  9.841270e-01
   endloop
 endfacet
 facet normal  0.000000e+00  0.000000e+00  1.000000e+00
   outer loop
     vertex -1.317461e-01  1.126984e-01  9.841270e-01
     vertex -1.503753e-01  1.274173e-01  9.841270e-01
     vertex -1.633961e-01  1.143964e-01  9.841270e-01
   endloop
 endfacet
 facet normal  0.000000e+00  0.000000e+00  1.000000e+00
   outer loop
     vertex -1.317461e-01  1.126984e-01  9.841270e-01
     vertex -1.633961e-01  1.143964e-01  9.841270e-01
     vertex -1.742073e-01  9.948994e-02  9.841270e-01
   endloop
 endfacet
 facet normal  0.000000e+00  0.000000e+00  1.000000e+00
   outer loop
     vertex -1.317461e-01  1.126984e-01  9.841270e-01
     vertex -1.742073e-01  9.948994e-02  9.841270e-01
     vertex -1.825397e-01  8.306876e-02  9.841270e-01
   endloop
 endfacet
 facet normal  0.000000e+00  0.000000e+00  1.000000e+00
   outer loop
     vertex -1.317461e-01  1.126984e-01  9.841270e-01
     vertex -1.825397e-01  8.306876e-02  9.841270e-01
     vertex -1.656085e-01  2.804229e-02  9.841270e-01
   endloop
 endfacet
 facet normal  0.000000e+00  0.000000e+00  1.000000e+00
   outer loop
     vertex  3.752208e-03 -1.576725e-02  9.841270e-01
     vertex -1.322753e-02 -5.820140e-03  9.841270e-01
     vertex  1.408758e-03 -2.250669e-02  9.841270e-01
   endloop
 endfacet
 facet normal  0.000000e+00  0.000000e+00  1.000000e+00
   outer loop
     vertex  4.530302e-03 -8.674545e-03  9.841270e-01
     vertex -1.322753e-02 -5.820140e-03  9.841270e-01
     vertex  3.752208e-03 -1.576725e-02  9.841270e-01
   endloop
 endfacet
 facet normal  0.000000e+00  0.000000e+00  1.000000e+00
   outer loop
     vertex  3.703684e-03 -1.587335e-03  9.841270e-01
     vertex -1.322753e-02 -5.820140e-03  9.841270e-01
     vertex  4.530302e-03 -8.674545e-03  9.841270e-01
   endloop
 endfacet
 facet normal  0.000000e+00  0.000000e+00  1.000000e+00
   outer loop
     vertex -1.354688e-01  1.382284e-01  9.841270e-01
     vertex -1.503753e-01  1.274173e-01  9.841270e-01
     vertex -1.317461e-01  1.126984e-01  9.841270e-01
   endloop
 endfacet
 facet normal  0.000000e+00  0.000000e+00  1.000000e+00
   outer loop
     vertex -1.190476e-01  1.465608e-01  9.841270e-01
     vertex -1.354688e-01  1.382284e-01  9.841270e-01
     vertex -1.317461e-01  1.126984e-01  9.841270e-01
   endloop
 endfacet
 facet normal  0.000000e+00  0.000000e+00  1.000000e+00
   outer loop
     vertex  3.703684e-03  3.650790e-02  9.841270e-01
     vertex -1.322753e-02 -5.820140e-03  9.841270e-01
     vertex  3.703684e-03 -1.587335e-03  9.841270e-01
   endloop
 endfacet
 facet normal  0.000000e+00  0.000000e+00  1.000000e+00
   outer loop
     vertex -1.322753e-02  6.096410e-02  9.841270e-01
     vertex -1.322753e-02 -5.820140e-03  9.841270e-01
     vertex  3.703684e-03  3.650790e-02  9.841270e-01
   endloop
 endfacet
 facet normal  0.000000e+00  0.000000e+00  1.000000e+00
   outer loop
     vertex -7.248679e-02  1.465608e-01  9.841270e-01
     vertex -1.317461e-01  1.126984e-01  9.841270e-01
     vertex -4.904357e-02  1.126984e-01  9.841270e-01
   endloop
 endfacet
 facet normal  0.000000e+00  0.000000e+00  1.000000e+00
   outer loop
     vertex -7.248679e-02  1.465608e-01  9.841270e-01
     vertex -1.190476e-01  1.465608e-01  9.841270e-01
     vertex -1.317461e-01  1.126984e-01  9.841270e-01
   endloop
 endfacet
 facet normal  0.000000e+00  0.000000e+00  1.000000e+00
   outer loop
     vertex -1.322753e-02 -5.820140e-03  9.841270e-01
     vertex -1.656085e-01 -5.820140e-03  9.841270e-01
     vertex -1.444445e-01 -3.968258e-02  9.841270e-01
   endloop
 endfacet
 facet normal  0.000000e+00  0.000000e+00  1.000000e+00
   outer loop
     vertex -1.322753e-02 -5.820140e-03  9.841270e-01
     vertex -1.444445e-01 -3.968258e-02  9.841270e-01
     vertex -3.439155e-02 -3.968258e-02  9.841270e-01
   endloop
 endfacet
 facet normal  0.000000e+00  1.000000e+00  0.000000e+00
   outer loop
     vertex -1.190476e-01  1.465608e-01 -1.587302e-02
     vertex -7.248679e-02  1.465608e-01  9.841270e-01
     vertex -7.248679e-02  1.465608e-01 -1.587302e-02
   endloop
 endfacet
 facet normal  0.000000e+00  1.000000e+00  0.000000e+00
   outer loop
     vertex -1.190476e-01  1.465608e-01 -1.587302e-02
     vertex -1.190476e-01  1.465608e-01  9.841270e-01
     vertex -7.248679e-02  1.465608e-01  9.841270e-01
   endloop
 endfacet
 facet normal -4.524984e-01  8.917652e-01  0.000000e+00
   outer loop
     vertex -1.354688e-01  1.382284e-01 -1.587302e-02
     vertex -1.190476e-01  1.465608e-01 -1.587302e-02
     vertex -1.190476e-01  1.465608e-01 -3.174603e-02
   endloop
 endfacet
 facet normal -4.524984e-01  8.917652e-01  0.000000e+00
   outer loop
     vertex -1.354688e-01  1.382284e-01 -1.587302e-02
     vertex -1.190476e-01  1.465608e-01 -3.174603e-02
     vertex -1.354688e-01  1.382284e-01 -3.174603e-02
   endloop
 endfacet
 facet normal -5.871079e-01  8.095087e-01  0.000000e+00
   outer loop
     vertex -1.503753e-01  1.274173e-01 -1.587302e-02
     vertex -1.354688e-01  1.382284e-01 -3.174603e-02
     vertex -1.503753e-01  1.274173e-01 -3.174603e-02
   endloop
 endfacet
 facet normal -5.871079e-01  8.095087e-01  0.000000e+00
   outer loop
     vertex -1.503753e-01  1.274173e-01 -1.587302e-02
     vertex -1.354688e-01  1.382284e-01 -1.587302e-02
     vertex -1.354688e-01  1.382284e-01 -3.174603e-02
   endloop
 endfacet
 facet normal -7.071067e-01  7.071069e-01  0.000000e+00
   outer loop
     vertex -1.633961e-01  1.143964e-01 -1.587302e-02
     vertex -1.503753e-01  1.274173e-01 -3.174603e-02
     vertex -1.633961e-01  1.143964e-01 -3.174603e-02
   endloop
 endfacet
 facet normal -7.071067e-01  7.071069e-01  0.000000e+00
   outer loop
     vertex -1.633961e-01  1.143964e-01 -1.587302e-02
     vertex -1.503753e-01  1.274173e-01 -1.587302e-02
     vertex -1.503753e-01  1.274173e-01 -3.174603e-02
   endloop
 endfacet
 facet normal -8.095086e-01  5.871081e-01  0.000000e+00
   outer loop
     vertex -1.742073e-01  9.948994e-02 -1.587302e-02
     vertex -1.633961e-01  1.143964e-01 -3.174603e-02
     vertex -1.742073e-01  9.948994e-02 -3.174603e-02
   endloop
 endfacet
 facet normal -8.095086e-01  5.871081e-01  0.000000e+00
   outer loop
     vertex -1.742073e-01  9.948994e-02 -1.587302e-02
     vertex -1.633961e-01  1.143964e-01 -1.587302e-02
     vertex -1.633961e-01  1.143964e-01 -3.174603e-02
   endloop
 endfacet
 facet normal -8.917651e-01  4.524986e-01  0.000000e+00
   outer loop
     vertex -1.825397e-01  8.306876e-02 -1.587302e-02
     vertex -1.742073e-01  9.948994e-02 -3.174603e-02
     vertex -1.825397e-01  8.306876e-02 -3.174603e-02
   endloop
 endfacet
 facet normal -8.917651e-01  4.524986e-01  0.000000e+00
   outer loop
     vertex -1.825397e-01  8.306876e-02 -1.587302e-02
     vertex -1.742073e-01  9.948994e-02 -1.587302e-02
     vertex -1.742073e-01  9.948994e-02 -3.174603e-02
   endloop
 endfacet
 facet normal  0.000000e+00 -1.000000e+00  0.000000e+00
   outer loop
     vertex -3.439155e-02 -3.968258e-02 -1.587302e-02
     vertex -1.444445e-01 -3.968258e-02  9.841270e-01
     vertex -1.444445e-01 -3.968258e-02 -1.587302e-02
   endloop
 endfacet
 facet normal  0.000000e+00 -1.000000e+00  0.000000e+00
   outer loop
     vertex -3.439155e-02 -3.968258e-02 -1.587302e-02
     vertex -3.439155e-02 -3.968258e-02  9.841270e-01
     vertex -1.444445e-01 -3.968258e-02  9.841270e-01
   endloop
 endfacet
 facet normal -9.932667e-01  1.158498e-01  0.000000e+00
   outer loop
     vertex -1.833663e-01 -8.674546e-03 -1.587302e-02
     vertex -1.825397e-01 -1.587335e-03 -1.587302e-02
     vertex -1.825397e-01 -1.587335e-03 -3.174603e-02
   endloop
 endfacet
 facet normal -9.932667e-01  1.158498e-01  0.000000e+00
   outer loop
     vertex -1.833663e-01 -8.674546e-03 -1.587302e-02
     vertex -1.825397e-01 -1.587335e-03 -3.174603e-02
     vertex -1.833663e-01 -8.674546e-03 -3.174603e-02
   endloop
 endfacet
 facet normal -9.940363e-01 -1.090494e-01 -0.000000e+00
   outer loop
     vertex -1.825882e-01 -1.576725e-02 -1.587302e-02
     vertex -1.833663e-01 -8.674546e-03 -3.174603e-02
     vertex -1.825882e-01 -1.576725e-02 -3.174603e-02
   endloop
 endfacet
 facet normal -9.940363e-01 -1.090494e-01  0.000000e+00
   outer loop
     vertex -1.825882e-01 -1.576725e-02 -1.587302e-02
     vertex -1.833663e-01 -8.674546e-03 -1.587302e-02
     vertex -1.833663e-01 -8.674546e-03 -3.174603e-02
   endloop
 endfacet
 facet normal -9.445273e-01 -3.284328e-01 -0.000000e+00
   outer loop
     vertex -1.802448e-01 -2.250669e-02 -1.587302e-02
     vertex -1.825882e-01 -1.576725e-02 -3.174603e-02
     vertex -1.802448e-01 -2.250669e-02 -3.174603e-02
   endloop
 endfacet
 facet normal -9.445273e-01 -3.284328e-01  0.000000e+00
   outer loop
     vertex -1.802448e-01 -2.250669e-02 -1.587302e-02
     vertex -1.825882e-01 -1.576725e-02 -1.587302e-02
     vertex -1.825882e-01 -1.576725e-02 -3.174603e-02
   endloop
 endfacet
 facet normal -8.472439e-01 -5.312040e-01 -0.000000e+00
   outer loop
     vertex -1.764545e-01 -2.855199e-02 -1.587302e-02
     vertex -1.802448e-01 -2.250669e-02 -3.174603e-02
     vertex -1.764545e-01 -2.855199e-02 -3.174603e-02
   endloop
 endfacet
 facet normal -8.472439e-01 -5.312040e-01  0.000000e+00
   outer loop
     vertex -1.764545e-01 -2.855199e-02 -1.587302e-02
     vertex -1.802448e-01 -2.250669e-02 -1.587302e-02
     vertex -1.802448e-01 -2.250669e-02 -3.174603e-02
   endloop
 endfacet
 facet normal -7.071067e-01 -7.071068e-01 -0.000000e+00
   outer loop
     vertex -1.714091e-01 -3.359738e-02 -1.587302e-02
     vertex -1.764545e-01 -2.855199e-02 -3.174603e-02
     vertex -1.714091e-01 -3.359738e-02 -3.174603e-02
   endloop
 endfacet
 facet normal -7.071067e-01 -7.071068e-01  0.000000e+00
   outer loop
     vertex -1.714091e-01 -3.359738e-02 -1.587302e-02
     vertex -1.764545e-01 -2.855199e-02 -1.587302e-02
     vertex -1.764545e-01 -2.855199e-02 -3.174603e-02
   endloop
 endfacet
 facet normal -5.312039e-01 -8.472440e-01 -0.000000e+00
   outer loop
     vertex -1.653638e-01 -3.738766e-02 -1.587302e-02
     vertex -1.714091e-01 -3.359738e-02 -3.174603e-02
     vertex -1.653638e-01 -3.738766e-02 -3.174603e-02
   endloop
 endfacet
 facet normal -5.312039e-01 -8.472440e-01  0.000000e+00
   outer loop
     vertex -1.653638e-01 -3.738766e-02 -1.587302e-02
     vertex -1.714091e-01 -3.359738e-02 -1.587302e-02
     vertex -1.714091e-01 -3.359738e-02 -3.174603e-02
   endloop
 endfacet
 facet normal -3.284327e-01 -9.445274e-01 -0.000000e+00
   outer loop
     vertex -1.586244e-01 -3.973111e-02 -1.587302e-02
     vertex -1.653638e-01 -3.738766e-02 -3.174603e-02
     vertex -1.586244e-01 -3.973111e-02 -3.174603e-02
   endloop
 endfacet
 facet normal -3.284327e-01 -9.445274e-01  0.000000e+00
   outer loop
     vertex -1.586244e-01 -3.973111e-02 -1.587302e-02
     vertex -1.653638e-01 -3.738766e-02 -1.587302e-02
     vertex -1.653638e-01 -3.738766e-02 -3.174603e-02
   endloop
 endfacet
 facet normal -1.090493e-01 -9.940363e-01 -0.000000e+00
   outer loop
     vertex -1.515317e-01 -4.050920e-02 -1.587302e-02
     vertex -1.586244e-01 -3.973111e-02 -3.174603e-02
     vertex -1.515317e-01 -4.050920e-02 -3.174603e-02
   endloop
 endfacet
 facet normal -1.090493e-01 -9.940363e-01  0.000000e+00
   outer loop
     vertex -1.515317e-01 -4.050920e-02 -1.587302e-02
     vertex -1.586244e-01 -3.973111e-02 -1.587302e-02
     vertex -1.586244e-01 -3.973111e-02 -3.174603e-02
   endloop
 endfacet
 facet normal  1.158499e-01 -9.932667e-01  0.000000e+00
   outer loop
     vertex -1.444445e-01 -3.968258e-02 -1.587302e-02
     vertex -1.515317e-01 -4.050920e-02 -3.174603e-02
     vertex -1.444445e-01 -3.968258e-02 -3.174603e-02
   endloop
 endfacet
 facet normal  1.158499e-01 -9.932667e-01  0.000000e+00
   outer loop
     vertex -1.444445e-01 -3.968258e-02 -1.587302e-02
     vertex -1.515317e-01 -4.050920e-02 -1.587302e-02
     vertex -1.515317e-01 -4.050920e-02 -3.174603e-02
   endloop
 endfacet
 facet normal -0.000000e+00  0.000000e+00 -1.000000e+00
   outer loop
     vertex -1.656085e-01 -5.820140e-03 -3.174603e-02
     vertex -1.833663e-01 -8.674546e-03 -3.174603e-02
     vertex -1.825397e-01 -1.587335e-03 -3.174603e-02
   endloop
 endfacet
 facet normal  0.000000e+00  0.000000e+00 -1.000000e+00
   outer loop
     vertex -1.656085e-01 -5.820140e-03 -3.174603e-02
     vertex -1.825882e-01 -1.576725e-02 -3.174603e-02
     vertex -1.833663e-01 -8.674546e-03 -3.174603e-02
   endloop
 endfacet
 facet normal  0.000000e+00  0.000000e+00 -1.000000e+00
   outer loop
     vertex -1.656085e-01 -5.820140e-03 -3.174603e-02
     vertex -1.802448e-01 -2.250669e-02 -3.174603e-02
     vertex -1.825882e-01 -1.576725e-02 -3.174603e-02
   endloop
 endfacet
 facet normal  0.000000e+00  0.000000e+00 -1.000000e+00
   outer loop
     vertex -1.656085e-01 -5.820140e-03 -3.174603e-02
     vertex -1.764545e-01 -2.855199e-02 -3.174603e-02
     vertex -1.802448e-01 -2.250669e-02 -3.174603e-02
   endloop
 endfacet
 facet normal  0.000000e+00  0.000000e+00 -1.000000e+00
   outer loop
     vertex -1.656085e-01 -5.820140e-03 -3.174603e-02
     vertex -1.714091e-01 -3.359738e-02 -3.174603e-02
     vertex -1.764545e-01 -2.855199e-02 -3.174603e-02
   endloop
 endfacet
 facet normal  0.000000e+00 -0.000000e+00 -1.000000e+00
   outer loop
     vertex -1.656085e-01 -5.820140e-03 -3.174603e-02
     vertex -1.653638e-01 -3.738766e-02 -3.174603e-02
     vertex -1.714091e-01 -3.359738e-02 -3.174603e-02
   endloop
 endfacet
 facet normal  0.000000e+00  0.000000e+00 -1.000000e+00
   outer loop
     vertex -1.656085e-01 -5.820140e-03 -3.174603e-02
     vertex -1.586244e-01 -3.973111e-02 -3.174603e-02
     vertex -1.653638e-01 -3.738766e-02 -3.174603e-02
   endloop
 endfacet
 facet normal  0.000000e+00  0.000000e+00 -1.000000e+00
   outer loop
     vertex -1.656085e-01 -5.820140e-03 -3.174603e-02
     vertex -1.515317e-01 -4.050920e-02 -3.174603e-02
     vertex -1.586244e-01 -3.973111e-02 -3.174603e-02
   endloop
 endfacet
 facet normal  0.000000e+00  0.000000e+00 -1.000000e+00
   outer loop
     vertex -1.656085e-01 -5.820140e-03 -3.174603e-02
     vertex -1.444445e-01 -3.968258e-02 -3.174603e-02
     vertex -1.515317e-01 -4.050920e-02 -3.174603e-02
   endloop
 endfacet
 facet normal  0.000000e+00 -0.000000e+00 -1.000000e+00
   outer loop
     vertex -1.656085e-01  2.804229e-02 -3.174603e-02
     vertex -1.656085e-01 -5.820140e-03 -3.174603e-02
     vertex -1.825397e-01 -1.587335e-03 -3.174603e-02
   endloop
 endfacet
 facet normal  0.000000e+00  0.000000e+00 -1.000000e+00
   outer loop
     vertex -1.825397e-01  8.306876e-02 -3.174603e-02
     vertex -1.656085e-01  2.804229e-02 -3.174603e-02
     vertex -1.825397e-01 -1.587335e-03 -3.174603e-02
   endloop
 endfacet
 facet normal  0.000000e+00  0.000000e+00 -1.000000e+00
   outer loop
     vertex -1.322753e-02 -5.820140e-03 -3.174603e-02
     vertex -2.730434e-02 -4.050920e-02 -3.174603e-02
     vertex -3.439155e-02 -3.968258e-02 -3.174603e-02
   endloop
 endfacet
 facet normal  0.000000e+00  0.000000e+00 -1.000000e+00
   outer loop
     vertex -1.322753e-02 -5.820140e-03 -3.174603e-02
     vertex -2.021164e-02 -3.973110e-02 -3.174603e-02
     vertex -2.730434e-02 -4.050920e-02 -3.174603e-02
   endloop
 endfacet
 facet normal  0.000000e+00  0.000000e+00 -1.000000e+00
   outer loop
     vertex -1.322753e-02 -5.820140e-03 -3.174603e-02
     vertex -1.347220e-02 -3.738765e-02 -3.174603e-02
     vertex -2.021164e-02 -3.973110e-02 -3.174603e-02
   endloop
 endfacet
 facet normal  0.000000e+00 -0.000000e+00 -1.000000e+00
   outer loop
     vertex -1.322753e-02 -5.820140e-03 -3.174603e-02
     vertex -7.426901e-03 -3.359737e-02 -3.174603e-02
     vertex -1.347220e-02 -3.738765e-02 -3.174603e-02
   endloop
 endfacet
 facet normal  0.000000e+00  0.000000e+00 -1.000000e+00
   outer loop
     vertex -1.322753e-02 -5.820140e-03 -3.174603e-02
     vertex -2.381516e-03 -2.855199e-02 -3.174603e-02
     vertex -7.426901e-03 -3.359737e-02 -3.174603e-02
   endloop
 endfacet
 facet normal  0.000000e+00  0.000000e+00 -1.000000e+00
   outer loop
     vertex -1.322753e-02 -5.820140e-03 -3.174603e-02
     vertex  1.408758e-03 -2.250669e-02 -3.174603e-02
     vertex -2.381516e-03 -2.855199e-02 -3.174603e-02
   endloop
 endfacet
 facet normal  0.000000e+00  0.000000e+00 -1.000000e+00
   outer loop
     vertex -1.317461e-01  1.126984e-01 -3.174603e-02
     vertex -1.633961e-01  1.143964e-01 -3.174603e-02
     vertex -1.503753e-01  1.274173e-01 -3.174603e-02
   endloop
 endfacet
 facet normal -0.000000e+00  0.000000e+00 -1.000000e+00
   outer loop
     vertex -1.317461e-01  1.126984e-01 -3.174603e-02
     vertex -1.742073e-01  9.948994e-02 -3.174603e-02
     vertex -1.633961e-01  1.143964e-01 -3.174603e-02
   endloop
 endfacet
 facet normal  0.000000e+00  0.000000e+00 -1.000000e+00
   outer loop
     vertex -1.317461e-01  1.126984e-01 -3.174603e-02
     vertex -1.825397e-01  8.306876e-02 -3.174603e-02
     vertex -1.742073e-01  9.948994e-02 -3.174603e-02
   endloop
 endfacet
 facet normal  0.000000e+00  0.000000e+00 -1.000000e+00
   outer loop
     vertex -1.317461e-01  1.126984e-01 -3.174603e-02
     vertex -1.656085e-01  2.804229e-02 -3.174603e-02
     vertex -1.825397e-01  8.306876e-02 -3.174603e-02
   endloop
 endfacet
 facet normal -0.000000e+00  0.000000e+00 -1.000000e+00
   outer loop
     vertex  3.752208e-03 -1.576725e-02 -3.174603e-02
     vertex  1.408758e-03 -2.250669e-02 -3.174603e-02
     vertex -1.322753e-02 -5.820140e-03 -3.174603e-02
   endloop
 endfacet
 facet normal -0.000000e+00  0.000000e+00 -1.000000e+00
   outer loop
     vertex  4.530302e-03 -8.674545e-03 -3.174603e-02
     vertex  3.752208e-03 -1.576725e-02 -3.174603e-02
     vertex -1.322753e-02 -5.820140e-03 -3.174603e-02
   endloop
 endfacet
 facet normal  0.000000e+00 -0.000000e+00 -1.000000e+00
   outer loop
     vertex  3.703684e-03 -1.587335e-03 -3.174603e-02
     vertex  4.530302e-03 -8.674545e-03 -3.174603e-02
     vertex -1.322753e-02 -5.820140e-03 -3.174603e-02
   endloop
 endfacet
 facet normal  0.000000e+00 -0.000000e+00 -1.000000e+00
   outer loop
     vertex -1.354688e-01  1.382284e-01 -3.174603e-02
     vertex -1.317461e-01  1.126984e-01 -3.174603e-02
     vertex -1.503753e-01  1.274173e-01 -3.174603e-02
   endloop
 endfacet
 facet normal  0.000000e+00  0.000000e+00 -1.000000e+00
   outer loop
     vertex -1.190476e-01  1.465608e-01 -3.174603e-02
     vertex -1.317461e-01  1.126984e-01 -3.174603e-02
     vertex -1.354688e-01  1.382284e-01 -3.174603e-02
   endloop
 endfacet
 facet normal  0.000000e+00 -0.000000e+00 -1.000000e+00
   outer loop
     vertex  3.703684e-03  3.650790e-02 -3.174603e-02
     vertex  3.703684e-03 -1.587335e-03 -3.174603e-02
     vertex -1.322753e-02 -5.820140e-03 -3.174603e-02
   endloop
 endfacet
 facet normal  0.000000e+00  0.000000e+00 -1.000000e+00
   outer loop
     vertex -1.322753e-02  6.096410e-02 -3.174603e-02
     vertex  3.703684e-03  3.650790e-02 -3.174603e-02
     vertex -1.322753e-02 -5.820140e-03 -3.174603e-02
   endloop
 endfacet
 facet normal  0.000000e+00 -0.000000e+00 -1.000000e+00
   outer loop
     vertex -7.248679e-02  1.465608e-01 -3.174603e-02
     vertex -4.904357e-02  1.126984e-01 -3.174603e-02
     vertex -1.317461e-01  1.126984e-01 -3.174603e-02
   endloop
 endfacet
 facet normal -0.000000e+00  0.000000e+00 -1.000000e+00
   outer loop
     vertex -7.248679e-02  1.465608e-01 -3.174603e-02
     vertex -1.317461e-01  1.126984e-01 -3.174603e-02
     vertex -1.190476e-01  1.465608e-01 -3.174603e-02
   endloop
 endfacet
 facet normal -0.000000e+00  0.000000e+00 -1.000000e+00
   outer loop
     vertex -1.322753e-02 -5.820140e-03 -3.174603e-02
     vertex -1.444445e-01 -3.968258e-02 -3.174603e-02
     vertex -1.656085e-01 -5.820140e-03 -3.174603e-02
   endloop
 endfacet
 facet normal  0.000000e+00  0.000000e+00 -1.000000e+00
   outer loop
     vertex -1.322753e-02 -5.820140e-03 -3.174603e-02
     vertex -3.439155e-02 -3.968258e-02 -3.174603e-02
     vertex -1.444445e-01 -3.968258e-02 -3.174603e-02
   endloop
 endfacet
 facet normal  8.221922e-01  5.692099e-01  0.000000e+00
   outer loop
     vertex -7.248679e-02  1.465608e-01 -1.587302e-02
     vertex -4.904357e-02  1.126984e-01  9.841270e-01
     vertex -4.904357e-02  1.126984e-01 -1.587302e-02
   endloop
 endfacet
 facet normal  8.221922e-01  5.692099e-01 -0.000000e+00
   outer loop
     vertex -7.248679e-02  1.465608e-01 -1.587302e-02
     vertex -7.248679e-02  1.465608e-01  9.841270e-01
     vertex -4.904357e-02  1.126984e-01  9.841270e-01
   endloop
 endfacet
 facet normal -1.678038e-16 -1.000000e+00  0.000000e+00
   outer loop
     vertex -1.317461e-01  1.126984e-01 -1.587302e-02
     vertex -4.904357e-02  1.126984e-01 -1.587302e-02
     vertex -4.904357e-02  1.126984e-01  9.841270e-01
   endloop
 endfacet
 facet normal -1.678038e-16 -1.000000e+00  0.000000e+00
   outer loop
     vertex -1.317461e-01  1.126984e-01 -1.587302e-02
     vertex -4.904357e-02  1.126984e-01  9.841270e-01
     vertex -1.317461e-01  1.126984e-01  9.841270e-01
   endloop
 endfacet
 facet normal  9.284767e-01 -3.713907e-01  0.000000e+00
   outer loop
     vertex -1.656085e-01  2.804229e-02 -1.587302e-02
     vertex -1.317461e-01  1.126984e-01 -1.587302e-02
     vertex -1.317461e-01  1.126984e-01  9.841270e-01
   endloop
 endfacet
 facet normal  9.284767e-01 -3.713907e-01  0.000000e+00
   outer loop
     vertex -1.656085e-01  2.804229e-02 -1.587302e-02
     vertex -1.317461e-01  1.126984e-01  9.841270e-01
     vertex -1.656085e-01  2.804229e-02  9.841270e-01
   endloop
 endfacet
 facet normal  1.000000e+00  0.000000e+00  0.000000e+00
   outer loop
     vertex -1.656085e-01 -5.820140e-03 -1.587302e-02
     vertex -1.656085e-01  2.804229e-02 -1.587302e-02
     vertex -1.656085e-01  2.804229e-02  9.841270e-01
   endloop
 endfacet
 facet normal  1.000000e+00  0.000000e+00  0.000000e+00
   outer loop
     vertex -1.656085e-01 -5.820140e-03 -1.587302e-02
     vertex -1.656085e-01  2.804229e-02  9.841270e-01
     vertex -1.656085e-01 -5.820140e-03  9.841270e-01
   endloop
 endfacet
 facet normal  0.000000e+00  1.000000e+00  0.000000e+00
   outer loop
     vertex -1.322753e-02 -5.820140e-03 -1.587302e-02
     vertex -1.656085e-01 -5.820140e-03 -1.587302e-02
     vertex -1.656085e-01 -5.820140e-03  9.841270e-01
   endloop
 endfacet
 facet normal  0.000000e+00  1.000000e+00 -0.000000e+00
   outer loop
     vertex -1.322753e-02 -5.820140e-03 -1.587302e-02
     vertex -1.656085e-01 -5.820140e-03  9.841270e-01
     vertex -1.322753e-02 -5.820140e-03  9.841270e-01
   endloop
 endfacet
 facet normal -1.000000e+00 -5.195008e-17  0.000000e+00
   outer loop
     vertex -1.322753e-02  6.096410e-02 -1.587302e-02
     vertex -1.322753e-02 -5.820140e-03 -1.587302e-02
     vertex -1.322753e-02 -5.820140e-03  9.841270e-01
   endloop
 endfacet
 facet normal -1.000000e+00 -5.195008e-17  0.000000e+00
   outer loop
     vertex -1.322753e-02  6.096410e-02 -1.587302e-02
     vertex -1.322753e-02 -5.820140e-03  9.841270e-01
     vertex -1.322753e-02  6.096410e-02  9.841270e-01
   endloop
 endfacet
 facet normal  8.221922e-01  5.692099e-01  0.000000e+00
   outer loop
     vertex -1.322753e-02  6.096410e-02 -1.587302e-02
     vertex  3.703684e-03  3.650790e-02  9.841270e-01
     vertex  3.703684e-03  3.650790e-02 -1.587302e-02
   endloop
 endfacet
 facet normal  8.221922e-01  5.692099e-01 -0.000000e+00
   outer loop
     vertex -1.322753e-02  6.096410e-02 -1.587302e-02
     vertex -1.322753e-02  6.096410e-02  9.841270e-01
     vertex  3.703684e-03  3.650790e-02  9.841270e-01
   endloop
 endfacet
 facet normal  1.000000e+00  9.107298e-17  0.000000e+00
   outer loop
     vertex  3.703684e-03  3.650790e-02 -1.587302e-02
     vertex  3.703684e-03 -1.587335e-03  9.841270e-01
     vertex  3.703684e-03 -1.587335e-03 -1.587302e-02
   endloop
 endfacet
 facet normal  1.000000e+00  9.107298e-17 -0.000000e+00
   outer loop
     vertex  3.703684e-03  3.650790e-02 -1.587302e-02
     vertex  3.703684e-03  3.650790e-02  9.841270e-01
     vertex  3.703684e-03 -1.587335e-03  9.841270e-01
   endloop
 endfacet
 facet normal -1.158496e-01 -9.932668e-01  0.000000e+00
   outer loop
     vertex -2.730434e-02 -4.050920e-02 -1.587302e-02
     vertex -3.439155e-02 -3.968258e-02  9.841270e-01
     vertex -3.439155e-02 -3.968258e-02 -1.587302e-02
   endloop
 endfacet
 facet normal -1.158496e-01 -9.932668e-01  0.000000e+00
   outer loop
     vertex -2.730434e-02 -4.050920e-02 -1.587302e-02
     vertex -2.730434e-02 -4.050920e-02  9.841270e-01
     vertex -3.439155e-02 -3.968258e-02  9.841270e-01
   endloop
 endfacet
 facet normal  1.090495e-01 -9.940363e-01  0.000000e+00
   outer loop
     vertex -2.021164e-02 -3.973110e-02 -1.587302e-02
     vertex -2.021164e-02 -3.973110e-02  9.841270e-01
     vertex -2.730434e-02 -4.050920e-02  9.841270e-01
   endloop
 endfacet
 facet normal  1.090495e-01 -9.940363e-01  0.000000e+00
   outer loop
     vertex -2.021164e-02 -3.973110e-02 -1.587302e-02
     vertex -2.730434e-02 -4.050920e-02  9.841270e-01
     vertex -2.730434e-02 -4.050920e-02 -1.587302e-02
   endloop
 endfacet
 facet normal  3.284329e-01 -9.445273e-01  0.000000e+00
   outer loop
     vertex -1.347220e-02 -3.738765e-02 -1.587302e-02
     vertex -1.347220e-02 -3.738765e-02  9.841270e-01
     vertex -2.021164e-02 -3.973110e-02  9.841270e-01
   endloop
 endfacet
 facet normal  3.284329e-01 -9.445273e-01  0.000000e+00
   outer loop
     vertex -1.347220e-02 -3.738765e-02 -1.587302e-02
     vertex -2.021164e-02 -3.973110e-02  9.841270e-01
     vertex -2.021164e-02 -3.973110e-02 -1.587302e-02
   endloop
 endfacet
 facet normal  5.312041e-01 -8.472439e-01  0.000000e+00
   outer loop
     vertex -7.426901e-03 -3.359737e-02 -1.587302e-02
     vertex -7.426901e-03 -3.359737e-02  9.841270e-01
     vertex -1.347220e-02 -3.738765e-02  9.841270e-01
   endloop
 endfacet
 facet normal  5.312041e-01 -8.472439e-01  0.000000e+00
   outer loop
     vertex -7.426901e-03 -3.359737e-02 -1.587302e-02
     vertex -1.347220e-02 -3.738765e-02  9.841270e-01
     vertex -1.347220e-02 -3.738765e-02 -1.587302e-02
   endloop
 endfacet
 facet normal  7.071069e-01 -7.071067e-01  0.000000e+00
   outer loop
     vertex -2.381516e-03 -2.855199e-02 -1.587302e-02
     vertex -2.381516e-03 -2.855199e-02  9.841270e-01
     vertex -7.426901e-03 -3.359737e-02  9.841270e-01
   endloop
 endfacet
 facet normal  7.071069e-01 -7.071067e-01  0.000000e+00
   outer loop
     vertex -2.381516e-03 -2.855199e-02 -1.587302e-02
     vertex -7.426901e-03 -3.359737e-02  9.841270e-01
     vertex -7.426901e-03 -3.359737e-02 -1.587302e-02
   endloop
 endfacet
 facet normal  8.472440e-01 -5.312039e-01  0.000000e+00
   outer loop
     vertex  1.408758e-03 -2.250669e-02 -1.587302e-02
     vertex  1.408758e-03 -2.250669e-02  9.841270e-01
     vertex -2.381516e-03 -2.855199e-02  9.841270e-01
   endloop
 endfacet
 facet normal  8.472440e-01 -5.312039e-01  0.000000e+00
   outer loop
     vertex  1.408758e-03 -2.250669e-02 -1.587302e-02
     vertex -2.381516e-03 -2.855199e-02  9.841270e-01
     vertex -2.381516e-03 -2.855199e-02 -1.587302e-02
   endloop
 endfacet
 facet normal  9.445274e-01 -3.284327e-01  0.000000e+00
   outer loop
     vertex  3.752208e-03 -1.576725e-02 -1.587302e-02
     vertex  3.752208e-03 -1.576725e-02  9.841270e-01
     vertex  1.408758e-03 -2.250669e-02  9.841270e-01
   endloop
 endfacet
 facet normal  9.445274e-01 -3.284327e-01  0.000000e+00
   outer loop
     vertex  3.752208e-03 -1.576725e-02 -1.587302e-02
     vertex  1.408758e-03 -2.250669e-02  9.841270e-01
     vertex  1.408758e-03 -2.250669e-02 -1.587302e-02
   endloop
 endfacet
 facet normal  9.940363e-01 -1.090492e-01  0.000000e+00
   outer loop
     vertex  4.530302e-03 -8.674545e-03 -1.587302e-02
     vertex  4.530302e-03 -8.674545e-03  9.841270e-01
     vertex  3.752208e-03 -1.576725e-02  9.841270e-01
   endloop
 endfacet
 facet normal  9.940363e-01 -1.090492e-01  0.000000e+00
   outer loop
     vertex  4.530302e-03 -8.674545e-03 -1.587302e-02
     vertex  3.752208e-03 -1.576725e-02  9.841270e-01
     vertex  3.752208e-03 -1.576725e-02 -1.587302e-02
   endloop
 endfacet
 facet normal  9.932667e-01  1.158499e-01 -0.000000e+00
   outer loop
     vertex  3.703684e-03 -1.587335e-03 -1.587302e-02
     vertex  3.703684e-03 -1.587335e-03  9.841270e-01
     vertex  4.530302e-03 -8.674545e-03  9.841270e-01
   endloop
 endfacet
 facet normal  9.932667e-01  1.158499e-01  0.000000e+00
   outer loop
     vertex  3.703684e-03 -1.587335e-03 -1.587302e-02
     vertex  4.530302e-03 -8.674545e-03  9.841270e-01
     vertex  4.530302e-03 -8.674545e-03 -1.587302e-02
   endloop
 endfacet
 facet normal -0.000000e+00  1.000000e+00  0.000000e+00
   outer loop
     vertex -1.190476e-01  1.465608e-01 -1.587302e-02
     vertex -7.248679e-02  1.465608e-01 -1.587302e-02
     vertex -7.248679e-02  1.465608e-01 -3.174603e-02
   endloop
 endfacet
 facet normal  0.000000e+00  1.000000e+00  0.000000e+00
   outer loop
     vertex -1.190476e-01  1.465608e-01 -1.587302e-02
     vertex -7.248679e-02  1.465608e-01 -3.174603e-02
     vertex -1.190476e-01  1.465608e-01 -3.174603e-02
   endloop
 endfacet
 facet normal -0.000000e+00 -1.000000e+00  0.000000e+00
   outer loop
     vertex -3.439155e-02 -3.968258e-02 -1.587302e-02
     vertex -1.444445e-01 -3.968258e-02 -1.587302e-02
     vertex -1.444445e-01 -3.968258e-02 -3.174603e-02
   endloop
 endfacet
 facet normal  0.000000e+00 -1.000000e+00 -0.000000e+00
   outer loop
     vertex -3.439155e-02 -3.968258e-02 -1.587302e-02
     vertex -1.444445e-01 -3.968258e-02 -3.174603e-02
     vertex -3.439155e-02 -3.968258e-02 -3.174603e-02
   endloop
 endfacet
 facet normal  8.221922e-01  5.692099e-01  0.000000e+00
   outer loop
     vertex -7.248679e-02  1.465608e-01 -1.587302e-02
     vertex -4.904357e-02  1.126984e-01 -1.587302e-02
     vertex -4.904357e-02  1.126984e-01 -3.174603e-02
   endloop
 endfacet
 facet normal  8.221922e-01  5.692099e-01  0.000000e+00
   outer loop
     vertex -7.248679e-02  1.465608e-01 -1.587302e-02
     vertex -4.904357e-02  1.126984e-01 -3.174603e-02
     vertex -7.248679e-02  1.465608e-01 -3.174603e-02
   endloop
 endfacet
 facet normal -1.678038e-16 -1.000000e+00  0.000000e+00
   outer loop
     vertex -1.317461e-01  1.126984e-01 -1.587302e-02
     vertex -4.904357e-02  1.126984e-01 -3.174603e-02
     vertex -4.904357e-02  1.126984e-01 -1.587302e-02
   endloop
 endfacet
 facet normal -1.678038e-16 -1.000000e+00 -0.000000e+00
   outer loop
     vertex -1.317461e-01  1.126984e-01 -1.587302e-02
     vertex -1.317461e-01  1.126984e-01 -3.174603e-02
     vertex -4.904357e-02  1.126984e-01 -3.174603e-02
   endloop
 endfacet
 facet normal  9.284767e-01 -3.713907e-01  0.000000e+00
   outer loop
     vertex -1.656085e-01  2.804229e-02 -1.587302e-02
     vertex -1.317461e-01  1.126984e-01 -3.174603e-02
     vertex -1.317461e-01  1.126984e-01 -1.587302e-02
   endloop
 endfacet
 facet normal  9.284767e-01 -3.713907e-01  0.000000e+00
   outer loop
     vertex -1.656085e-01  2.804229e-02 -1.587302e-02
     vertex -1.656085e-01  2.804229e-02 -3.174603e-02
     vertex -1.317461e-01  1.126984e-01 -3.174603e-02
   endloop
 endfacet
 facet normal  1.000000e+00 -0.000000e+00  0.000000e+00
   outer loop
     vertex -1.656085e-01 -5.820140e-03 -1.587302e-02
     vertex -1.656085e-01  2.804229e-02 -3.174603e-02
     vertex -1.656085e-01  2.804229e-02 -1.587302e-02
   endloop
 endfacet
 facet normal  1.000000e+00  0.000000e+00  0.000000e+00
   outer loop
     vertex -1.656085e-01 -5.820140e-03 -1.587302e-02
     vertex -1.656085e-01 -5.820140e-03 -3.174603e-02
     vertex -1.656085e-01  2.804229e-02 -3.174603e-02
   endloop
 endfacet
 facet normal  0.000000e+00  1.000000e+00  0.000000e+00
   outer loop
     vertex -1.322753e-02 -5.820140e-03 -1.587302e-02
     vertex -1.656085e-01 -5.820140e-03 -3.174603e-02
     vertex -1.656085e-01 -5.820140e-03 -1.587302e-02
   endloop
 endfacet
 facet normal  0.000000e+00  1.000000e+00  0.000000e+00
   outer loop
     vertex -1.322753e-02 -5.820140e-03 -1.587302e-02
     vertex -1.322753e-02 -5.820140e-03 -3.174603e-02
     vertex -1.656085e-01 -5.820140e-03 -3.174603e-02
   endloop
 endfacet
 facet normal -1.000000e+00 -5.195008e-17  0.000000e+00
   outer loop
     vertex -1.322753e-02  6.096410e-02 -1.587302e-02
     vertex -1.322753e-02 -5.820140e-03 -3.174603e-02
     vertex -1.322753e-02 -5.820140e-03 -1.587302e-02
   endloop
 endfacet
 facet normal -1.000000e+00 -5.195008e-17 -0.000000e+00
   outer loop
     vertex -1.322753e-02  6.096410e-02 -1.587302e-02
     vertex -1.322753e-02  6.096410e-02 -3.174603e-02
     vertex -1.322753e-02 -5.820140e-03 -3.174603e-02
   endloop
 endfacet
 facet normal  8.221922e-01  5.692099e-01  0.000000e+00
   outer loop
     vertex -1.322753e-02  6.096410e-02 -1.587302e-02
     vertex  3.703684e-03  3.650790e-02 -1.587302e-02
     vertex  3.703684e-03  3.650790e-02 -3.174603e-02
   endloop
 endfacet
 facet normal  8.221922e-01  5.692099e-01  0.000000e+00
   outer loop
     vertex -1.322753e-02  6.096410e-02 -1.587302e-02
     vertex  3.703684e-03  3.650790e-02 -3.174603e-02
     vertex -1.322753e-02  6.096410e-02 -3.174603e-02
   endloop
 endfacet
 facet normal  1.000000e+00  9.107298e-17  0.000000e+00
   outer loop
     vertex  3.703684e-03  3.650790e-02 -1.587302e-02
     vertex  3.703684e-03 -1.587335e-03 -1.587302e-02
     vertex  3.703684e-03 -1.587335e-03 -3.174603e-02
   endloop
 endfacet
 facet normal  1.000000e+00  9.107298e-17  0.000000e+00
   outer loop
     vertex  3.703684e-03  3.650790e-02 -1.587302e-02
     vertex  3.703684e-03 -1.587335e-03 -3.174603e-02
     vertex  3.703684e-03  3.650790e-02 -3.174603e-02
   endloop
 endfacet
 facet normal -1.158496e-01 -9.932668e-01  0.000000e+00
   outer loop
     vertex -2.730434e-02 -4.050920e-02 -1.587302e-02
     vertex -3.439155e-02 -3.968258e-02 -1.587302e-02
     vertex -3.439155e-02 -3.968258e-02 -3.174603e-02
   endloop
 endfacet
 facet normal -1.158496e-01 -9.932668e-01 -0.000000e+00
   outer loop
     vertex -2.730434e-02 -4.050920e-02 -1.587302e-02
     vertex -3.439155e-02 -3.968258e-02 -3.174603e-02
     vertex -2.730434e-02 -4.050920e-02 -3.174603e-02
   endloop
 endfacet
 facet normal  1.090495e-01 -9.940363e-01  0.000000e+00
   outer loop
     vertex -2.021164e-02 -3.973110e-02 -1.587302e-02
     vertex -2.730434e-02 -4.050920e-02 -3.174603e-02
     vertex -2.021164e-02 -3.973110e-02 -3.174603e-02
   endloop
 endfacet
 facet normal  1.090495e-01 -9.940363e-01  0.000000e+00
   outer loop
     vertex -2.021164e-02 -3.973110e-02 -1.587302e-02
     vertex -2.730434e-02 -4.050920e-02 -1.587302e-02
     vertex -2.730434e-02 -4.050920e-02 -3.174603e-02
   endloop
 endfacet
 facet normal  3.284329e-01 -9.445273e-01  0.000000e+00
   outer loop
     vertex -1.347220e-02 -3.738765e-02 -1.587302e-02
     vertex -2.021164e-02 -3.973110e-02 -3.174603e-02
     vertex -1.347220e-02 -3.738765e-02 -3.174603e-02
   endloop
 endfacet
 facet normal  3.284329e-01 -9.445273e-01  0.000000e+00
   outer loop
     vertex -1.347220e-02 -3.738765e-02 -1.587302e-02
     vertex -2.021164e-02 -3.973110e-02 -1.587302e-02
     vertex -2.021164e-02 -3.973110e-02 -3.174603e-02
   endloop
 endfacet
 facet normal  5.312041e-01 -8.472439e-01  0.000000e+00
   outer loop
     vertex -7.426901e-03 -3.359737e-02 -1.587302e-02
     vertex -1.347220e-02 -3.738765e-02 -3.174603e-02
     vertex -7.426901e-03 -3.359737e-02 -3.174603e-02
   endloop
 endfacet
 facet normal  5.312041e-01 -8.472439e-01  0.000000e+00
   outer loop
     vertex -7.426901e-03 -3.359737e-02 -1.587302e-02
     vertex -1.347220e-02 -3.738765e-02 -1.587302e-02
     vertex -1.347220e-02 -3.738765e-02 -3.174603e-02
   endloop
 endfacet
 facet normal  7.071069e-01 -7.071067e-01  0.000000e+00
   outer loop
     vertex -2.381516e-03 -2.855199e-02 -1.587302e-02
     vertex -7.426901e-03 -3.359737e-02 -3.174603e-02
     vertex -2.381516e-03 -2.855199e-02 -3.174603e-02
   endloop
 endfacet
 facet normal  7.071069e-01 -7.071067e-01  0.000000e+00
   outer loop
     vertex -2.381516e-03 -2.855199e-02 -1.587302e-02
     vertex -7.426901e-03 -3.359737e-02 -1.587302e-02
     vertex -7.426901e-03 -3.359737e-02 -3.174603e-02
   endloop
 endfacet
 facet normal  8.472440e-01 -5.312039e-01  0.000000e+00
   outer loop
     vertex  1.408758e-03 -2.250669e-02 -1.587302e-02
     vertex -2.381516e-03 -2.855199e-02 -3.174603e-02
     vertex  1.408758e-03 -2.250669e-02 -3.174603e-02
   endloop
 endfacet
 facet normal  8.472440e-01 -5.312039e-01  0.000000e+00
   outer loop
     vertex  1.408758e-03 -2.250669e-02 -1.587302e-02
     vertex -2.381516e-03 -2.855199e-02 -1.587302e-02
     vertex -2.381516e-03 -2.855199e-02 -3.174603e-02
   endloop
 endfacet
 facet normal  9.445274e-01 -3.284327e-01  0.000000e+00
   outer loop
     vertex  3.752208e-03 -1.576725e-02 -1.587302e-02
     vertex  1.408758e-03 -2.250669e-02 -3.174603e-02
     vertex  3.752208e-03 -1.576725e-02 -3.174603e-02
   endloop
 endfacet
 facet normal  9.445274e-01 -3.284327e-01  0.000000e+00
   outer loop
     vertex  3.752208e-03 -1.576725e-02 -1.587302e-02
     vertex  1.408758e-03 -2.250669e-02 -1.587302e-02
     vertex  1.408758e-03 -2.250669e-02 -3.174603e-02
   endloop
 endfacet
 facet normal  9.940363e-01 -1.090492e-01  0.000000e+00
   outer loop
     vertex  4.530302e-03 -8.674545e-03 -1.587302e-02
     vertex  3.752208e-03 -1.576725e-02 -3.174603e-02
     vertex  4.530302e-03 -8.674545e-03 -3.174603e-02
   endloop
 endfacet
 facet normal  9.940363e-01 -1.090492e-01  0.000000e+00
   outer loop
     vertex  4.530302e-03 -8.674545e-03 -1.587302e-02
     vertex  3.752208e-03 -1.576725e-02 -1.587302e-02
     vertex  3.752208e-03 -1.576725e-02 -3.174603e-02
   endloop
 endfacet
 facet normal  9.932667e-01  1.158499e-01  0.000000e+00
   outer loop
     vertex  3.703684e-03 -1.587335e-03 -1.587302e-02
     vertex  4.530302e-03 -8.674545e-03 -3.174603e-02
     vertex  3.703684e-03 -1.587335e-03 -3.174603e-02
   endloop
 endfacet
 facet normal  9.932667e-01  1.158499e-01  0.000000e+00
   outer loop
     vertex  3.703684e-03 -1.587335e-03 -1.587302e-02
     vertex  4.530302e-03 -8.674545e-03 -1.587302e-02
     vertex  4.530302e-03 -8.674545e-03 -3.174603e-02
   endloop
 endfacet
endsolid
