solid 
 facet normal -1.000000e+00  0.000000e+00  0.000000e+00
   outer loop
     vertex -7.777782e-02 -1.587302e-02 -4.862434e-01
     vertex -7.777782e-02 -1.015873e+00 -4.354497e-01
     vertex -7.777782e-02 -1.587302e-02 -4.354497e-01
   endloop
 endfacet
 facet normal -1.000000e+00  0.000000e+00  0.000000e+00
   outer loop
     vertex -7.777782e-02 -1.587302e-02 -4.862434e-01
     vertex -7.777782e-02 -1.015873e+00 -4.862434e-01
     vertex -7.777782e-02 -1.015873e+00 -4.354497e-01
   endloop
 endfacet
 facet normal -0.000000e+00  0.000000e+00  1.000000e+00
   outer loop
     vertex -7.777782e-02 -1.587302e-02 -4.354497e-01
     vertex  1.846561e-01 -1.015873e+00 -4.354497e-01
     vertex  1.846561e-01 -1.587302e-02 -4.354497e-01
   endloop
 endfacet
 facet normal  0.000000e+00  0.000000e+00  1.000000e+00
   outer loop
     vertex -7.777782e-02 -1.587302e-02 -4.354497e-01
     vertex -7.777782e-02 -1.015873e+00 -4.354497e-01
     vertex  1.846561e-01 -1.015873e+00 -4.354497e-01
   endloop
 endfacet
 facet normal -0.000000e+00  0.000000e+00 -1.000000e+00
   outer loop
     vertex  1.111108e-02 -1.587302e-02 -4.862434e-01
     vertex -7.777782e-02 -1.015873e+00 -4.862434e-01
     vertex -7.777782e-02 -1.587302e-02 -4.862434e-01
   endloop
 endfacet
 facet normal  0.000000e+00 -0.000000e+00 -1.000000e+00
   outer loop
     vertex  1.111108e-02 -1.587302e-02 -4.862434e-01
     vertex  1.111108e-02 -1.015873e+00 -4.862434e-01
     vertex -7.777782e-02 -1.015873e+00 -4.862434e-01
   endloop
 endfacet
 facet normal -1.000000e+00  0.000000e+00  0.000000e+00
   outer loop
     vertex -7.777782e-02 -1.587302e-02 -4.862434e-01
     vertex -7.777782e-02 -1.587302e-02 -4.354497e-01
     vertex -7.777782e-02  0.000000e+00 -4.354497e-01
   endloop
 endfacet
 facet normal -1.000000e+00  0.000000e+00  0.000000e+00
   outer loop
     vertex -7.777782e-02 -1.587302e-02 -4.862434e-01
     vertex -7.777782e-02  0.000000e+00 -4.354497e-01
     vertex -7.777782e-02  0.000000e+00 -4.862434e-01
   endloop
 endfacet
 facet normal -0.000000e+00 -1.000000e+00  0.000000e+00
   outer loop
     vertex  1.234105e-02 -1.015873e+00 -4.761136e-01
     vertex -7.777782e-02 -1.015873e+00 -4.354497e-01
     vertex -7.777782e-02 -1.015873e+00 -4.862434e-01
   endloop
 endfacet
 facet normal  0.000000e+00 -1.000000e+00  0.000000e+00
   outer loop
     vertex  1.234105e-02 -1.015873e+00 -4.761136e-01
     vertex -7.777782e-02 -1.015873e+00 -4.862434e-01
     vertex  1.111108e-02 -1.015873e+00 -4.862434e-01
   endloop
 endfacet
 facet normal -0.000000e+00 -1.000000e+00  0.000000e+00
   outer loop
     vertex  1.595950e-02 -1.015873e+00 -4.665725e-01
     vertex -7.777782e-02 -1.015873e+00 -4.354497e-01
     vertex  1.234105e-02 -1.015873e+00 -4.761136e-01
   endloop
 endfacet
 facet normal -0.000000e+00 -1.000000e+00  0.000000e+00
   outer loop
     vertex  2.175612e-02 -1.015873e+00 -4.581747e-01
     vertex -7.777782e-02 -1.015873e+00 -4.354497e-01
     vertex  1.595950e-02 -1.015873e+00 -4.665725e-01
   endloop
 endfacet
 facet normal -0.000000e+00 -1.000000e+00  0.000000e+00
   outer loop
     vertex  2.939405e-02 -1.015873e+00 -4.514081e-01
     vertex -7.777782e-02 -1.015873e+00 -4.354497e-01
     vertex  2.175612e-02 -1.015873e+00 -4.581747e-01
   endloop
 endfacet
 facet normal -0.000000e+00 -1.000000e+00  0.000000e+00
   outer loop
     vertex  3.842939e-02 -1.015873e+00 -4.466659e-01
     vertex -7.777782e-02 -1.015873e+00 -4.354497e-01
     vertex  2.939405e-02 -1.015873e+00 -4.514081e-01
   endloop
 endfacet
 facet normal  0.000000e+00 -1.000000e+00  0.000000e+00
   outer loop
     vertex  1.846561e-01 -1.015873e+00 -4.862434e-01
     vertex  9.453720e-02 -1.015873e+00 -4.761136e-01
     vertex  9.576717e-02 -1.015873e+00 -4.862434e-01
   endloop
 endfacet
 facet normal  0.000000e+00 -1.000000e+00  0.000000e+00
   outer loop
     vertex  1.846561e-01 -1.015873e+00 -4.354497e-01
     vertex  6.844886e-02 -1.015873e+00 -4.466659e-01
     vertex  7.748420e-02 -1.015873e+00 -4.514081e-01
   endloop
 endfacet
 facet normal  0.000000e+00 -1.000000e+00  0.000000e+00
   outer loop
     vertex  1.846561e-01 -1.015873e+00 -4.354497e-01
     vertex  7.748420e-02 -1.015873e+00 -4.514081e-01
     vertex  8.512213e-02 -1.015873e+00 -4.581747e-01
   endloop
 endfacet
 facet normal  0.000000e+00 -1.000000e+00  0.000000e+00
   outer loop
     vertex  1.846561e-01 -1.015873e+00 -4.354497e-01
     vertex  8.512213e-02 -1.015873e+00 -4.581747e-01
     vertex  9.091875e-02 -1.015873e+00 -4.665725e-01
   endloop
 endfacet
 facet normal  0.000000e+00 -1.000000e+00  0.000000e+00
   outer loop
     vertex  1.846561e-01 -1.015873e+00 -4.354497e-01
     vertex  9.091875e-02 -1.015873e+00 -4.665725e-01
     vertex  9.453720e-02 -1.015873e+00 -4.761136e-01
   endloop
 endfacet
 facet normal  0.000000e+00 -1.000000e+00 -0.000000e+00
   outer loop
     vertex  1.846561e-01 -1.015873e+00 -4.354497e-01
     vertex  9.453720e-02 -1.015873e+00 -4.761136e-01
     vertex  1.846561e-01 -1.015873e+00 -4.862434e-01
   endloop
 endfacet
 facet normal -0.000000e+00 -1.000000e+00  0.000000e+00
   outer loop
     vertex  1.846561e-01 -1.015873e+00 -4.354497e-01
     vertex -7.777782e-02 -1.015873e+00 -4.354497e-01
     vertex  4.833704e-02 -1.015873e+00 -4.442239e-01
   endloop
 endfacet
 facet normal -0.000000e+00 -1.000000e+00  0.000000e+00
   outer loop
     vertex  4.833704e-02 -1.015873e+00 -4.442239e-01
     vertex -7.777782e-02 -1.015873e+00 -4.354497e-01
     vertex  3.842939e-02 -1.015873e+00 -4.466659e-01
   endloop
 endfacet
 facet normal  0.000000e+00 -1.000000e+00  0.000000e+00
   outer loop
     vertex  1.846561e-01 -1.015873e+00 -4.354497e-01
     vertex  4.833704e-02 -1.015873e+00 -4.442239e-01
     vertex  5.854121e-02 -1.015873e+00 -4.442239e-01
   endloop
 endfacet
 facet normal  0.000000e+00 -1.000000e+00  0.000000e+00
   outer loop
     vertex  1.846561e-01 -1.015873e+00 -4.354497e-01
     vertex  5.854121e-02 -1.015873e+00 -4.442239e-01
     vertex  6.844886e-02 -1.015873e+00 -4.466659e-01
   endloop
 endfacet
 facet normal  1.000000e+00  0.000000e+00  0.000000e+00
   outer loop
     vertex  1.846561e-01 -1.587302e-02 -4.354497e-01
     vertex  1.846561e-01 -1.015873e+00 -4.862434e-01
     vertex  1.846561e-01 -1.587302e-02 -4.862434e-01
   endloop
 endfacet
 facet normal  1.000000e+00  0.000000e+00  0.000000e+00
   outer loop
     vertex  1.846561e-01 -1.587302e-02 -4.354497e-01
     vertex  1.846561e-01 -1.015873e+00 -4.354497e-01
     vertex  1.846561e-01 -1.015873e+00 -4.862434e-01
   endloop
 endfacet
 facet normal  0.000000e+00  0.000000e+00  1.000000e+00
   outer loop
     vertex -7.777782e-02 -1.587302e-02 -4.354497e-01
     vertex  1.846561e-01 -1.587302e-02 -4.354497e-01
     vertex  1.846561e-01  0.000000e+00 -4.354497e-01
   endloop
 endfacet
 facet normal  0.000000e+00  0.000000e+00  1.000000e+00
   outer loop
     vertex -7.777782e-02 -1.587302e-02 -4.354497e-01
     vertex  1.846561e-01  0.000000e+00 -4.354497e-01
     vertex -7.777782e-02  0.000000e+00 -4.354497e-01
   endloop
 endfacet
 facet normal  9.927089e-01  0.000000e+00 -1.205364e-01
   outer loop
     vertex  1.234105e-02 -1.587302e-02 -4.761136e-01
     vertex  1.111108e-02 -1.015873e+00 -4.862434e-01
     vertex  1.111108e-02 -1.587302e-02 -4.862434e-01
   endloop
 endfacet
 facet normal  9.927089e-01  0.000000e+00 -1.205364e-01
   outer loop
     vertex  1.234105e-02 -1.587302e-02 -4.761136e-01
     vertex  1.234105e-02 -1.015873e+00 -4.761136e-01
     vertex  1.111108e-02 -1.015873e+00 -4.862434e-01
   endloop
 endfacet
 facet normal  9.350163e-01  0.000000e+00 -3.546047e-01
   outer loop
     vertex  1.595950e-02 -1.587302e-02 -4.665725e-01
     vertex  1.595950e-02 -1.015873e+00 -4.665725e-01
     vertex  1.234105e-02 -1.015873e+00 -4.761136e-01
   endloop
 endfacet
 facet normal  9.350163e-01  0.000000e+00 -3.546047e-01
   outer loop
     vertex  1.595950e-02 -1.587302e-02 -4.665725e-01
     vertex  1.234105e-02 -1.015873e+00 -4.761136e-01
     vertex  1.234105e-02 -1.587302e-02 -4.761136e-01
   endloop
 endfacet
 facet normal  8.229840e-01  0.000000e+00 -5.680646e-01
   outer loop
     vertex  2.175612e-02 -1.587302e-02 -4.581747e-01
     vertex  2.175612e-02 -1.015873e+00 -4.581747e-01
     vertex  1.595950e-02 -1.015873e+00 -4.665725e-01
   endloop
 endfacet
 facet normal  8.229840e-01  0.000000e+00 -5.680646e-01
   outer loop
     vertex  2.175612e-02 -1.587302e-02 -4.581747e-01
     vertex  1.595950e-02 -1.015873e+00 -4.665725e-01
     vertex  1.595950e-02 -1.587302e-02 -4.665725e-01
   endloop
 endfacet
 facet normal  6.631228e-01  0.000000e+00 -7.485107e-01
   outer loop
     vertex  2.939405e-02 -1.587302e-02 -4.514081e-01
     vertex  2.939405e-02 -1.015873e+00 -4.514081e-01
     vertex  2.175612e-02 -1.015873e+00 -4.581747e-01
   endloop
 endfacet
 facet normal  6.631228e-01  0.000000e+00 -7.485107e-01
   outer loop
     vertex  2.939405e-02 -1.587302e-02 -4.514081e-01
     vertex  2.175612e-02 -1.015873e+00 -4.581747e-01
     vertex  2.175612e-02 -1.587302e-02 -4.581747e-01
   endloop
 endfacet
 facet normal  4.647233e-01  0.000000e+00 -8.854560e-01
   outer loop
     vertex  3.842939e-02 -1.587302e-02 -4.466659e-01
     vertex  3.842939e-02 -1.015873e+00 -4.466659e-01
     vertex  2.939405e-02 -1.015873e+00 -4.514081e-01
   endloop
 endfacet
 facet normal  4.647233e-01  0.000000e+00 -8.854560e-01
   outer loop
     vertex  3.842939e-02 -1.587302e-02 -4.466659e-01
     vertex  2.939405e-02 -1.015873e+00 -4.514081e-01
     vertex  2.939405e-02 -1.587302e-02 -4.514081e-01
   endloop
 endfacet
 facet normal  2.393157e-01  0.000000e+00 -9.709418e-01
   outer loop
     vertex  4.833704e-02 -1.587302e-02 -4.442239e-01
     vertex  4.833704e-02 -1.015873e+00 -4.442239e-01
     vertex  3.842939e-02 -1.015873e+00 -4.466659e-01
   endloop
 endfacet
 facet normal  2.393157e-01  0.000000e+00 -9.709418e-01
   outer loop
     vertex  4.833704e-02 -1.587302e-02 -4.442239e-01
     vertex  3.842939e-02 -1.015873e+00 -4.466659e-01
     vertex  3.842939e-02 -1.587302e-02 -4.466659e-01
   endloop
 endfacet
 facet normal  0.000000e+00 -0.000000e+00 -1.000000e+00
   outer loop
     vertex  5.854121e-02 -1.587302e-02 -4.442239e-01
     vertex  5.854121e-02 -1.015873e+00 -4.442239e-01
     vertex  4.833704e-02 -1.015873e+00 -4.442239e-01
   endloop
 endfacet
 facet normal -0.000000e+00  0.000000e+00 -1.000000e+00
   outer loop
     vertex  5.854121e-02 -1.587302e-02 -4.442239e-01
     vertex  4.833704e-02 -1.015873e+00 -4.442239e-01
     vertex  4.833704e-02 -1.587302e-02 -4.442239e-01
   endloop
 endfacet
 facet normal -2.393157e-01 -0.000000e+00 -9.709418e-01
   outer loop
     vertex  6.844886e-02 -1.587302e-02 -4.466659e-01
     vertex  6.844886e-02 -1.015873e+00 -4.466659e-01
     vertex  5.854121e-02 -1.015873e+00 -4.442239e-01
   endloop
 endfacet
 facet normal -2.393157e-01  0.000000e+00 -9.709418e-01
   outer loop
     vertex  6.844886e-02 -1.587302e-02 -4.466659e-01
     vertex  5.854121e-02 -1.015873e+00 -4.442239e-01
     vertex  5.854121e-02 -1.587302e-02 -4.442239e-01
   endloop
 endfacet
 facet normal -4.647233e-01 -0.000000e+00 -8.854560e-01
   outer loop
     vertex  7.748420e-02 -1.587302e-02 -4.514081e-01
     vertex  7.748420e-02 -1.015873e+00 -4.514081e-01
     vertex  6.844886e-02 -1.015873e+00 -4.466659e-01
   endloop
 endfacet
 facet normal -4.647233e-01  0.000000e+00 -8.854560e-01
   outer loop
     vertex  7.748420e-02 -1.587302e-02 -4.514081e-01
     vertex  6.844886e-02 -1.015873e+00 -4.466659e-01
     vertex  6.844886e-02 -1.587302e-02 -4.466659e-01
   endloop
 endfacet
 facet normal -6.631228e-01 -0.000000e+00 -7.485107e-01
   outer loop
     vertex  8.512213e-02 -1.587302e-02 -4.581747e-01
     vertex  8.512213e-02 -1.015873e+00 -4.581747e-01
     vertex  7.748420e-02 -1.015873e+00 -4.514081e-01
   endloop
 endfacet
 facet normal -6.631228e-01  0.000000e+00 -7.485107e-01
   outer loop
     vertex  8.512213e-02 -1.587302e-02 -4.581747e-01
     vertex  7.748420e-02 -1.015873e+00 -4.514081e-01
     vertex  7.748420e-02 -1.587302e-02 -4.514081e-01
   endloop
 endfacet
 facet normal -8.229840e-01 -0.000000e+00 -5.680646e-01
   outer loop
     vertex  9.091875e-02 -1.587302e-02 -4.665725e-01
     vertex  9.091875e-02 -1.015873e+00 -4.665725e-01
     vertex  8.512213e-02 -1.015873e+00 -4.581747e-01
   endloop
 endfacet
 facet normal -8.229840e-01  0.000000e+00 -5.680646e-01
   outer loop
     vertex  9.091875e-02 -1.587302e-02 -4.665725e-01
     vertex  8.512213e-02 -1.015873e+00 -4.581747e-01
     vertex  8.512213e-02 -1.587302e-02 -4.581747e-01
   endloop
 endfacet
 facet normal -9.350163e-01 -0.000000e+00 -3.546047e-01
   outer loop
     vertex  9.453720e-02 -1.587302e-02 -4.761136e-01
     vertex  9.453720e-02 -1.015873e+00 -4.761136e-01
     vertex  9.091875e-02 -1.015873e+00 -4.665725e-01
   endloop
 endfacet
 facet normal -9.350163e-01  0.000000e+00 -3.546047e-01
   outer loop
     vertex  9.453720e-02 -1.587302e-02 -4.761136e-01
     vertex  9.091875e-02 -1.015873e+00 -4.665725e-01
     vertex  9.091875e-02 -1.587302e-02 -4.665725e-01
   endloop
 endfacet
 facet normal -9.927089e-01 -0.000000e+00 -1.205364e-01
   outer loop
     vertex  9.576717e-02 -1.587302e-02 -4.862434e-01
     vertex  9.576717e-02 -1.015873e+00 -4.862434e-01
     vertex  9.453720e-02 -1.015873e+00 -4.761136e-01
   endloop
 endfacet
 facet normal -9.927089e-01  0.000000e+00 -1.205364e-01
   outer loop
     vertex  9.576717e-02 -1.587302e-02 -4.862434e-01
     vertex  9.453720e-02 -1.015873e+00 -4.761136e-01
     vertex  9.453720e-02 -1.587302e-02 -4.761136e-01
   endloop
 endfacet
 facet normal  0.000000e+00  0.000000e+00 -1.000000e+00
   outer loop
     vertex  1.111108e-02 -1.587302e-02 -4.862434e-01
     vertex -7.777782e-02 -1.587302e-02 -4.862434e-01
     vertex -7.777782e-02  0.000000e+00 -4.862434e-01
   endloop
 endfacet
 facet normal  0.000000e+00  0.000000e+00 -1.000000e+00
   outer loop
     vertex  1.111108e-02 -1.587302e-02 -4.862434e-01
     vertex -7.777782e-02  0.000000e+00 -4.862434e-01
     vertex  1.111108e-02  0.000000e+00 -4.862434e-01
   endloop
 endfacet
 facet normal  0.000000e+00  1.000000e+00  0.000000e+00
   outer loop
     vertex  1.234105e-02  6.591949e-17 -4.761136e-01
     vertex -7.777782e-02  6.591949e-17 -4.862434e-01
     vertex -7.777782e-02  6.591949e-17 -4.354497e-01
   endloop
 endfacet
 facet normal  0.000000e+00  1.000000e+00  0.000000e+00
   outer loop
     vertex  1.234105e-02  6.591949e-17 -4.761136e-01
     vertex  1.111108e-02  6.591949e-17 -4.862434e-01
     vertex -7.777782e-02  6.591949e-17 -4.862434e-01
   endloop
 endfacet
 facet normal  0.000000e+00  1.000000e+00  0.000000e+00
   outer loop
     vertex  1.595950e-02  6.591949e-17 -4.665725e-01
     vertex  1.234105e-02  6.591949e-17 -4.761136e-01
     vertex -7.777782e-02  6.591949e-17 -4.354497e-01
   endloop
 endfacet
 facet normal  0.000000e+00  1.000000e+00  0.000000e+00
   outer loop
     vertex  2.175612e-02  6.591949e-17 -4.581747e-01
     vertex  1.595950e-02  6.591949e-17 -4.665725e-01
     vertex -7.777782e-02  6.591949e-17 -4.354497e-01
   endloop
 endfacet
 facet normal  0.000000e+00  1.000000e+00  0.000000e+00
   outer loop
     vertex  2.939405e-02  6.591949e-17 -4.514081e-01
     vertex  2.175612e-02  6.591949e-17 -4.581747e-01
     vertex -7.777782e-02  6.591949e-17 -4.354497e-01
   endloop
 endfacet
 facet normal  0.000000e+00  1.000000e+00  0.000000e+00
   outer loop
     vertex  3.842939e-02  6.591949e-17 -4.466659e-01
     vertex  2.939405e-02  6.591949e-17 -4.514081e-01
     vertex -7.777782e-02  6.591949e-17 -4.354497e-01
   endloop
 endfacet
 facet normal  0.000000e+00  1.000000e+00  0.000000e+00
   outer loop
     vertex  1.846561e-01  6.591949e-17 -4.862434e-01
     vertex  9.576717e-02  6.591949e-17 -4.862434e-01
     vertex  9.453720e-02  6.591949e-17 -4.761136e-01
   endloop
 endfacet
 facet normal  0.000000e+00  1.000000e+00  0.000000e+00
   outer loop
     vertex  1.846561e-01  6.591949e-17 -4.354497e-01
     vertex  7.748420e-02  6.591949e-17 -4.514081e-01
     vertex  6.844886e-02  6.591949e-17 -4.466659e-01
   endloop
 endfacet
 facet normal  0.000000e+00  1.000000e+00  0.000000e+00
   outer loop
     vertex  1.846561e-01  6.591949e-17 -4.354497e-01
     vertex  8.512213e-02  6.591949e-17 -4.581747e-01
     vertex  7.748420e-02  6.591949e-17 -4.514081e-01
   endloop
 endfacet
 facet normal  0.000000e+00  1.000000e+00  0.000000e+00
   outer loop
     vertex  1.846561e-01  6.591949e-17 -4.354497e-01
     vertex  9.091875e-02  6.591949e-17 -4.665725e-01
     vertex  8.512213e-02  6.591949e-17 -4.581747e-01
   endloop
 endfacet
 facet normal  0.000000e+00  1.000000e+00  0.000000e+00
   outer loop
     vertex  1.846561e-01  6.591949e-17 -4.354497e-01
     vertex  9.453720e-02  6.591949e-17 -4.761136e-01
     vertex  9.091875e-02  6.591949e-17 -4.665725e-01
   endloop
 endfacet
 facet normal  0.000000e+00  1.000000e+00  0.000000e+00
   outer loop
     vertex  1.846561e-01  6.591949e-17 -4.354497e-01
     vertex  1.846561e-01  6.591949e-17 -4.862434e-01
     vertex  9.453720e-02  6.591949e-17 -4.761136e-01
   endloop
 endfacet
 facet normal  0.000000e+00  1.000000e+00  0.000000e+00
   outer loop
     vertex  1.846561e-01  6.591949e-17 -4.354497e-01
     vertex  4.833704e-02  6.591949e-17 -4.442239e-01
     vertex -7.777782e-02  6.591949e-17 -4.354497e-01
   endloop
 endfacet
 facet normal  0.000000e+00  1.000000e+00  0.000000e+00
   outer loop
     vertex  4.833704e-02  6.591949e-17 -4.442239e-01
     vertex  3.842939e-02  6.591949e-17 -4.466659e-01
     vertex -7.777782e-02  6.591949e-17 -4.354497e-01
   endloop
 endfacet
 facet normal  0.000000e+00  1.000000e+00  0.000000e+00
   outer loop
     vertex  1.846561e-01  6.591949e-17 -4.354497e-01
     vertex  5.854121e-02  6.591949e-17 -4.442239e-01
     vertex  4.833704e-02  6.591949e-17 -4.442239e-01
   endloop
 endfacet
 facet normal  0.000000e+00  1.000000e+00  0.000000e+00
   outer loop
     vertex  1.846561e-01  6.591949e-17 -4.354497e-01
     vertex  6.844886e-02  6.591949e-17 -4.466659e-01
     vertex  5.854121e-02  6.591949e-17 -4.442239e-01
   endloop
 endfacet
 facet normal -0.000000e+00  0.000000e+00 -1.000000e+00
   outer loop
     vertex  1.846561e-01 -1.587302e-02 -4.862434e-01
     vertex  9.576717e-02 -1.015873e+00 -4.862434e-01
     vertex  9.576717e-02 -1.587302e-02 -4.862434e-01
   endloop
 endfacet
 facet normal  0.000000e+00 -0.000000e+00 -1.000000e+00
   outer loop
     vertex  1.846561e-01 -1.587302e-02 -4.862434e-01
     vertex  1.846561e-01 -1.015873e+00 -4.862434e-01
     vertex  9.576717e-02 -1.015873e+00 -4.862434e-01
   endloop
 endfacet
 facet normal  1.000000e+00  0.000000e+00  0.000000e+00
   outer loop
     vertex  1.846561e-01 -1.587302e-02 -4.354497e-01
     vertex  1.846561e-01 -1.587302e-02 -4.862434e-01
     vertex  1.846561e-01  0.000000e+00 -4.862434e-01
   endloop
 endfacet
 facet normal  1.000000e+00 -0.000000e+00  0.000000e+00
   outer loop
     vertex  1.846561e-01 -1.587302e-02 -4.354497e-01
     vertex  1.846561e-01  0.000000e+00 -4.862434e-01
     vertex  1.846561e-01  0.000000e+00 -4.354497e-01
   endloop
 endfacet
 facet normal  9.927089e-01  0.000000e+00 -1.205364e-01
   outer loop
     vertex  1.234105e-02 -1.587302e-02 -4.761136e-01
     vertex  1.111108e-02 -1.587302e-02 -4.862434e-01
     vertex  1.111108e-02  0.000000e+00 -4.862434e-01
   endloop
 endfacet
 facet normal  9.927089e-01  0.000000e+00 -1.205364e-01
   outer loop
     vertex  1.234105e-02 -1.587302e-02 -4.761136e-01
     vertex  1.111108e-02  0.000000e+00 -4.862434e-01
     vertex  1.234105e-02  0.000000e+00 -4.761136e-01
   endloop
 endfacet
 facet normal  9.350163e-01  0.000000e+00 -3.546047e-01
   outer loop
     vertex  1.595950e-02 -1.587302e-02 -4.665725e-01
     vertex  1.234105e-02  0.000000e+00 -4.761136e-01
     vertex  1.595950e-02  0.000000e+00 -4.665725e-01
   endloop
 endfacet
 facet normal  9.350163e-01  0.000000e+00 -3.546047e-01
   outer loop
     vertex  1.595950e-02 -1.587302e-02 -4.665725e-01
     vertex  1.234105e-02 -1.587302e-02 -4.761136e-01
     vertex  1.234105e-02  0.000000e+00 -4.761136e-01
   endloop
 endfacet
 facet normal  8.229840e-01  0.000000e+00 -5.680646e-01
   outer loop
     vertex  2.175612e-02 -1.587302e-02 -4.581747e-01
     vertex  1.595950e-02  0.000000e+00 -4.665725e-01
     vertex  2.175612e-02  0.000000e+00 -4.581747e-01
   endloop
 endfacet
 facet normal  8.229840e-01  0.000000e+00 -5.680646e-01
   outer loop
     vertex  2.175612e-02 -1.587302e-02 -4.581747e-01
     vertex  1.595950e-02 -1.587302e-02 -4.665725e-01
     vertex  1.595950e-02  0.000000e+00 -4.665725e-01
   endloop
 endfacet
 facet normal  6.631228e-01  0.000000e+00 -7.485107e-01
   outer loop
     vertex  2.939405e-02 -1.587302e-02 -4.514081e-01
     vertex  2.175612e-02  0.000000e+00 -4.581747e-01
     vertex  2.939405e-02  0.000000e+00 -4.514081e-01
   endloop
 endfacet
 facet normal  6.631228e-01  0.000000e+00 -7.485107e-01
   outer loop
     vertex  2.939405e-02 -1.587302e-02 -4.514081e-01
     vertex  2.175612e-02 -1.587302e-02 -4.581747e-01
     vertex  2.175612e-02  0.000000e+00 -4.581747e-01
   endloop
 endfacet
 facet normal  4.647233e-01  0.000000e+00 -8.854560e-01
   outer loop
     vertex  3.842939e-02 -1.587302e-02 -4.466659e-01
     vertex  2.939405e-02  0.000000e+00 -4.514081e-01
     vertex  3.842939e-02  0.000000e+00 -4.466659e-01
   endloop
 endfacet
 facet normal  4.647233e-01  0.000000e+00 -8.854560e-01
   outer loop
     vertex  3.842939e-02 -1.587302e-02 -4.466659e-01
     vertex  2.939405e-02 -1.587302e-02 -4.514081e-01
     vertex  2.939405e-02  0.000000e+00 -4.514081e-01
   endloop
 endfacet
 facet normal  2.393157e-01  0.000000e+00 -9.709418e-01
   outer loop
     vertex  4.833704e-02 -1.587302e-02 -4.442239e-01
     vertex  3.842939e-02  0.000000e+00 -4.466659e-01
     vertex  4.833704e-02  0.000000e+00 -4.442239e-01
   endloop
 endfacet
 facet normal  2.393157e-01  0.000000e+00 -9.709418e-01
   outer loop
     vertex  4.833704e-02 -1.587302e-02 -4.442239e-01
     vertex  3.842939e-02 -1.587302e-02 -4.466659e-01
     vertex  3.842939e-02  0.000000e+00 -4.466659e-01
   endloop
 endfacet
 facet normal  0.000000e+00  0.000000e+00 -1.000000e+00
   outer loop
     vertex  5.854121e-02 -1.587302e-02 -4.442239e-01
     vertex  4.833704e-02  0.000000e+00 -4.442239e-01
     vertex  5.854121e-02  0.000000e+00 -4.442239e-01
   endloop
 endfacet
 facet normal  0.000000e+00  0.000000e+00 -1.000000e+00
   outer loop
     vertex  5.854121e-02 -1.587302e-02 -4.442239e-01
     vertex  4.833704e-02 -1.587302e-02 -4.442239e-01
     vertex  4.833704e-02  0.000000e+00 -4.442239e-01
   endloop
 endfacet
 facet normal -2.393157e-01  0.000000e+00 -9.709418e-01
   outer loop
     vertex  6.844886e-02 -1.587302e-02 -4.466659e-01
     vertex  5.854121e-02  0.000000e+00 -4.442239e-01
     vertex  6.844886e-02  0.000000e+00 -4.466659e-01
   endloop
 endfacet
 facet normal -2.393157e-01  0.000000e+00 -9.709418e-01
   outer loop
     vertex  6.844886e-02 -1.587302e-02 -4.466659e-01
     vertex  5.854121e-02 -1.587302e-02 -4.442239e-01
     vertex  5.854121e-02  0.000000e+00 -4.442239e-01
   endloop
 endfacet
 facet normal -4.647233e-01  0.000000e+00 -8.854560e-01
   outer loop
     vertex  7.748420e-02 -1.587302e-02 -4.514081e-01
     vertex  6.844886e-02  0.000000e+00 -4.466659e-01
     vertex  7.748420e-02  0.000000e+00 -4.514081e-01
   endloop
 endfacet
 facet normal -4.647233e-01  0.000000e+00 -8.854560e-01
   outer loop
     vertex  7.748420e-02 -1.587302e-02 -4.514081e-01
     vertex  6.844886e-02 -1.587302e-02 -4.466659e-01
     vertex  6.844886e-02  0.000000e+00 -4.466659e-01
   endloop
 endfacet
 facet normal -6.631228e-01  0.000000e+00 -7.485107e-01
   outer loop
     vertex  8.512213e-02 -1.587302e-02 -4.581747e-01
     vertex  7.748420e-02  0.000000e+00 -4.514081e-01
     vertex  8.512213e-02  0.000000e+00 -4.581747e-01
   endloop
 endfacet
 facet normal -6.631228e-01  0.000000e+00 -7.485107e-01
   outer loop
     vertex  8.512213e-02 -1.587302e-02 -4.581747e-01
     vertex  7.748420e-02 -1.587302e-02 -4.514081e-01
     vertex  7.748420e-02  0.000000e+00 -4.514081e-01
   endloop
 endfacet
 facet normal -8.229840e-01  0.000000e+00 -5.680646e-01
   outer loop
     vertex  9.091875e-02 -1.587302e-02 -4.665725e-01
     vertex  8.512213e-02  0.000000e+00 -4.581747e-01
     vertex  9.091875e-02  0.000000e+00 -4.665725e-01
   endloop
 endfacet
 facet normal -8.229840e-01  0.000000e+00 -5.680646e-01
   outer loop
     vertex  9.091875e-02 -1.587302e-02 -4.665725e-01
     vertex  8.512213e-02 -1.587302e-02 -4.581747e-01
     vertex  8.512213e-02  0.000000e+00 -4.581747e-01
   endloop
 endfacet
 facet normal -9.350163e-01  0.000000e+00 -3.546047e-01
   outer loop
     vertex  9.453720e-02 -1.587302e-02 -4.761136e-01
     vertex  9.091875e-02  0.000000e+00 -4.665725e-01
     vertex  9.453720e-02  0.000000e+00 -4.761136e-01
   endloop
 endfacet
 facet normal -9.350163e-01  0.000000e+00 -3.546047e-01
   outer loop
     vertex  9.453720e-02 -1.587302e-02 -4.761136e-01
     vertex  9.091875e-02 -1.587302e-02 -4.665725e-01
     vertex  9.091875e-02  0.000000e+00 -4.665725e-01
   endloop
 endfacet
 facet normal -9.927089e-01  0.000000e+00 -1.205364e-01
   outer loop
     vertex  9.576717e-02 -1.587302e-02 -4.862434e-01
     vertex  9.453720e-02  0.000000e+00 -4.761136e-01
     vertex  9.576717e-02  0.000000e+00 -4.862434e-01
   endloop
 endfacet
 facet normal -9.927089e-01  0.000000e+00 -1.205364e-01
   outer loop
     vertex  9.576717e-02 -1.587302e-02 -4.862434e-01
     vertex  9.453720e-02 -1.587302e-02 -4.761136e-01
     vertex  9.453720e-02  0.000000e+00 -4.761136e-01
   endloop
 endfacet
 facet normal  0.000000e+00  0.000000e+00 -1.000000e+00
   outer loop
     vertex  1.846561e-01 -1.587302e-02 -4.862434e-01
     vertex  9.576717e-02 -1.587302e-02 -4.862434e-01
     vertex  9.576717e-02  0.000000e+00 -4.862434e-01
   endloop
 endfacet
 facet normal  0.000000e+00  0.000000e+00 -1.000000e+00
   outer loop
     vertex  1.846561e-01 -1.587302e-02 -4.862434e-01
     vertex  9.576717e-02  0.000000e+00 -4.862434e-01
     vertex  1.846561e-01  0.000000e+00 -4.862434e-01
   endloop
 endfacet
endsolid
