solid 
 facet normal -7.295372e-01  6.839411e-01  0.000000e+00
   outer loop
     vertex -1.771500e-01 -3.910411e-01 -1.587302e-02
     vertex -7.624338e-01 -1.015344e+00 -1.587302e-02
     vertex -7.624338e-01 -1.015344e+00  4.444445e-01
   endloop
 endfacet
 facet normal -7.295372e-01  6.839411e-01  0.000000e+00
   outer loop
     vertex -1.771500e-01 -3.910411e-01 -1.587302e-02
     vertex -7.624338e-01 -1.015344e+00  4.444445e-01
     vertex -1.771500e-01 -3.910411e-01  4.444445e-01
   endloop
 endfacet
 facet normal  6.178216e-01 -7.863183e-01  0.000000e+00
   outer loop
     vertex -7.624338e-01 -1.015344e+00 -1.587302e-02
     vertex -1.994709e-01 -5.730158e-01 -1.587302e-02
     vertex -1.994709e-01 -5.730158e-01  4.444445e-01
   endloop
 endfacet
 facet normal  6.178216e-01 -7.863183e-01  0.000000e+00
   outer loop
     vertex -7.624338e-01 -1.015344e+00 -1.587302e-02
     vertex -1.994709e-01 -5.730158e-01  4.444445e-01
     vertex -7.624338e-01 -1.015344e+00  4.444445e-01
   endloop
 endfacet
 facet normal -3.417430e-01 -9.397934e-01  0.000000e+00
   outer loop
     vertex -1.771500e-01 -3.910411e-01 -1.587302e-02
     vertex -5.613756e-01 -2.513227e-01  4.444445e-01
     vertex -5.613756e-01 -2.513227e-01 -1.587302e-02
   endloop
 endfacet
 facet normal -3.417430e-01 -9.397934e-01  0.000000e+00
   outer loop
     vertex -1.771500e-01 -3.910411e-01 -1.587302e-02
     vertex -1.771500e-01 -3.910411e-01  4.444445e-01
     vertex -5.613756e-01 -2.513227e-01  4.444445e-01
   endloop
 endfacet
 facet normal -7.295372e-01  6.839411e-01  0.000000e+00
   outer loop
     vertex -1.771500e-01 -3.910411e-01 -1.587302e-02
     vertex -7.624338e-01 -1.015344e+00 -3.174603e-02
     vertex -7.624338e-01 -1.015344e+00 -1.587302e-02
   endloop
 endfacet
 facet normal -7.295372e-01  6.839411e-01  0.000000e+00
   outer loop
     vertex -1.771500e-01 -3.910411e-01 -1.587302e-02
     vertex -1.771500e-01 -3.910411e-01 -3.174603e-02
     vertex -7.624338e-01 -1.015344e+00 -3.174603e-02
   endloop
 endfacet
 facet normal  0.000000e+00  0.000000e+00  1.000000e+00
   outer loop
     vertex -1.771500e-01 -3.910411e-01  4.444445e-01
     vertex -7.624338e-01 -1.015344e+00  4.444445e-01
     vertex -1.994709e-01 -5.730158e-01  4.444445e-01
   endloop
 endfacet
 facet normal  0.000000e+00  0.000000e+00  1.000000e+00
   outer loop
     vertex -1.640301e-01 -3.958120e-01  4.444445e-01
     vertex -1.771500e-01 -3.910411e-01  4.444445e-01
     vertex -1.994709e-01 -5.730158e-01  4.444445e-01
   endloop
 endfacet
 facet normal  9.805807e-01 -1.961162e-01  0.000000e+00
   outer loop
     vertex -1.994709e-01 -5.730158e-01 -1.587302e-02
     vertex -1.640301e-01 -3.958120e-01 -1.587302e-02
     vertex -1.640301e-01 -3.958120e-01  4.444445e-01
   endloop
 endfacet
 facet normal  9.805807e-01 -1.961162e-01  0.000000e+00
   outer loop
     vertex -1.994709e-01 -5.730158e-01 -1.587302e-02
     vertex -1.640301e-01 -3.958120e-01  4.444445e-01
     vertex -1.994709e-01 -5.730158e-01  4.444445e-01
   endloop
 endfacet
 facet normal  6.178216e-01 -7.863183e-01  0.000000e+00
   outer loop
     vertex -7.624338e-01 -1.015344e+00 -1.587302e-02
     vertex -1.994709e-01 -5.730158e-01 -3.174603e-02
     vertex -1.994709e-01 -5.730158e-01 -1.587302e-02
   endloop
 endfacet
 facet normal  6.178216e-01 -7.863183e-01  0.000000e+00
   outer loop
     vertex -7.624338e-01 -1.015344e+00 -1.587302e-02
     vertex -7.624338e-01 -1.015344e+00 -3.174603e-02
     vertex -1.994709e-01 -5.730158e-01 -3.174603e-02
   endloop
 endfacet
 facet normal  7.669648e-02  9.970545e-01  0.000000e+00
   outer loop
     vertex -5.613756e-01 -2.513227e-01 -1.587302e-02
     vertex -3.862423e-02 -2.915343e-01  4.444445e-01
     vertex -3.862423e-02 -2.915343e-01 -1.587302e-02
   endloop
 endfacet
 facet normal  7.669648e-02  9.970545e-01 -0.000000e+00
   outer loop
     vertex -5.613756e-01 -2.513227e-01 -1.587302e-02
     vertex -5.613756e-01 -2.513227e-01  4.444445e-01
     vertex -3.862423e-02 -2.915343e-01  4.444445e-01
   endloop
 endfacet
 facet normal -3.417430e-01 -9.397934e-01  0.000000e+00
   outer loop
     vertex -1.771500e-01 -3.910411e-01 -1.587302e-02
     vertex -5.613756e-01 -2.513227e-01 -1.587302e-02
     vertex -5.613756e-01 -2.513227e-01 -3.174603e-02
   endloop
 endfacet
 facet normal -3.417430e-01 -9.397934e-01 -0.000000e+00
   outer loop
     vertex -1.771500e-01 -3.910411e-01 -1.587302e-02
     vertex -5.613756e-01 -2.513227e-01 -3.174603e-02
     vertex -1.771500e-01 -3.910411e-01 -3.174603e-02
   endloop
 endfacet
 facet normal  0.000000e+00  0.000000e+00  1.000000e+00
   outer loop
     vertex -1.592592e-01 -3.719576e-01  4.444445e-01
     vertex -5.613756e-01 -2.513227e-01  4.444445e-01
     vertex -1.771500e-01 -3.910411e-01  4.444445e-01
   endloop
 endfacet
 facet normal  0.000000e+00  0.000000e+00  1.000000e+00
   outer loop
     vertex -1.190476e-01 -4.121692e-01  4.444445e-01
     vertex -1.592592e-01 -3.719576e-01  4.444445e-01
     vertex -1.640301e-01 -3.958120e-01  4.444445e-01
   endloop
 endfacet
 facet normal  0.000000e+00  0.000000e+00  1.000000e+00
   outer loop
     vertex -3.862423e-02 -2.915343e-01  4.444445e-01
     vertex -1.592592e-01 -3.719576e-01  4.444445e-01
     vertex -1.190476e-01 -4.121692e-01  4.444445e-01
   endloop
 endfacet
 facet normal  0.000000e+00  0.000000e+00  1.000000e+00
   outer loop
     vertex -3.862423e-02 -2.915343e-01  4.444445e-01
     vertex -5.613756e-01 -2.513227e-01  4.444445e-01
     vertex -1.592592e-01 -3.719576e-01  4.444445e-01
   endloop
 endfacet
 facet normal  0.000000e+00  0.000000e+00 -1.000000e+00
   outer loop
     vertex -1.771500e-01 -3.910411e-01 -3.174603e-02
     vertex -1.994709e-01 -5.730158e-01 -3.174603e-02
     vertex -7.624338e-01 -1.015344e+00 -3.174603e-02
   endloop
 endfacet
 facet normal -0.000000e+00  0.000000e+00 -1.000000e+00
   outer loop
     vertex -1.640301e-01 -3.958120e-01 -3.174603e-02
     vertex -1.994709e-01 -5.730158e-01 -3.174603e-02
     vertex -1.771500e-01 -3.910411e-01 -3.174603e-02
   endloop
 endfacet
 facet normal  0.000000e+00  0.000000e+00  1.000000e+00
   outer loop
     vertex -1.592592e-01 -3.719576e-01  4.444445e-01
     vertex -1.771500e-01 -3.910411e-01  4.444445e-01
     vertex -1.640301e-01 -3.958120e-01  4.444445e-01
   endloop
 endfacet
 facet normal -3.417430e-01 -9.397934e-01  0.000000e+00
   outer loop
     vertex -1.190476e-01 -4.121692e-01 -1.587302e-02
     vertex -1.640301e-01 -3.958120e-01  4.444445e-01
     vertex -1.640301e-01 -3.958120e-01 -1.587302e-02
   endloop
 endfacet
 facet normal -3.417430e-01 -9.397934e-01  0.000000e+00
   outer loop
     vertex -1.190476e-01 -4.121692e-01 -1.587302e-02
     vertex -1.190476e-01 -4.121692e-01  4.444445e-01
     vertex -1.640301e-01 -3.958120e-01  4.444445e-01
   endloop
 endfacet
 facet normal  9.805807e-01 -1.961162e-01  0.000000e+00
   outer loop
     vertex -1.994709e-01 -5.730158e-01 -1.587302e-02
     vertex -1.640301e-01 -3.958120e-01 -3.174603e-02
     vertex -1.640301e-01 -3.958120e-01 -1.587302e-02
   endloop
 endfacet
 facet normal  9.805807e-01 -1.961162e-01  0.000000e+00
   outer loop
     vertex -1.994709e-01 -5.730158e-01 -1.587302e-02
     vertex -1.994709e-01 -5.730158e-01 -3.174603e-02
     vertex -1.640301e-01 -3.958120e-01 -3.174603e-02
   endloop
 endfacet
 facet normal  8.320501e-01 -5.547006e-01  0.000000e+00
   outer loop
     vertex -3.862423e-02 -2.915343e-01 -1.587302e-02
     vertex -1.190476e-01 -4.121692e-01  4.444445e-01
     vertex -1.190476e-01 -4.121692e-01 -1.587302e-02
   endloop
 endfacet
 facet normal  8.320501e-01 -5.547006e-01  0.000000e+00
   outer loop
     vertex -3.862423e-02 -2.915343e-01 -1.587302e-02
     vertex -3.862423e-02 -2.915343e-01  4.444445e-01
     vertex -1.190476e-01 -4.121692e-01  4.444445e-01
   endloop
 endfacet
 facet normal  7.669648e-02  9.970545e-01  0.000000e+00
   outer loop
     vertex -5.613756e-01 -2.513227e-01 -1.587302e-02
     vertex -3.862423e-02 -2.915343e-01 -1.587302e-02
     vertex -3.862423e-02 -2.915343e-01 -3.174603e-02
   endloop
 endfacet
 facet normal  7.669648e-02  9.970545e-01  0.000000e+00
   outer loop
     vertex -5.613756e-01 -2.513227e-01 -1.587302e-02
     vertex -3.862423e-02 -2.915343e-01 -3.174603e-02
     vertex -5.613756e-01 -2.513227e-01 -3.174603e-02
   endloop
 endfacet
 facet normal -0.000000e+00  0.000000e+00 -1.000000e+00
   outer loop
     vertex -1.592592e-01 -3.719576e-01 -3.174603e-02
     vertex -1.771500e-01 -3.910411e-01 -3.174603e-02
     vertex -5.613756e-01 -2.513227e-01 -3.174603e-02
   endloop
 endfacet
 facet normal  0.000000e+00  0.000000e+00 -1.000000e+00
   outer loop
     vertex -1.190476e-01 -4.121692e-01 -3.174603e-02
     vertex -1.640301e-01 -3.958120e-01 -3.174603e-02
     vertex -1.592592e-01 -3.719576e-01 -3.174603e-02
   endloop
 endfacet
 facet normal  0.000000e+00  0.000000e+00 -1.000000e+00
   outer loop
     vertex -3.862423e-02 -2.915343e-01 -3.174603e-02
     vertex -1.190476e-01 -4.121692e-01 -3.174603e-02
     vertex -1.592592e-01 -3.719576e-01 -3.174603e-02
   endloop
 endfacet
 facet normal -0.000000e+00  0.000000e+00 -1.000000e+00
   outer loop
     vertex -3.862423e-02 -2.915343e-01 -3.174603e-02
     vertex -1.592592e-01 -3.719576e-01 -3.174603e-02
     vertex -5.613756e-01 -2.513227e-01 -3.174603e-02
   endloop
 endfacet
 facet normal  0.000000e+00  0.000000e+00 -1.000000e+00
   outer loop
     vertex -1.592592e-01 -3.719576e-01 -3.174603e-02
     vertex -1.640301e-01 -3.958120e-01 -3.174603e-02
     vertex -1.771500e-01 -3.910411e-01 -3.174603e-02
   endloop
 endfacet
 facet normal -3.417430e-01 -9.397934e-01  0.000000e+00
   outer loop
     vertex -1.190476e-01 -4.121692e-01 -1.587302e-02
     vertex -1.640301e-01 -3.958120e-01 -1.587302e-02
     vertex -1.640301e-01 -3.958120e-01 -3.174603e-02
   endloop
 endfacet
 facet normal -3.417430e-01 -9.397934e-01 -0.000000e+00
   outer loop
     vertex -1.190476e-01 -4.121692e-01 -1.587302e-02
     vertex -1.640301e-01 -3.958120e-01 -3.174603e-02
     vertex -1.190476e-01 -4.121692e-01 -3.174603e-02
   endloop
 endfacet
 facet normal  8.320501e-01 -5.547006e-01  0.000000e+00
   outer loop
     vertex -3.862423e-02 -2.915343e-01 -1.587302e-02
     vertex -1.190476e-01 -4.121692e-01 -1.587302e-02
     vertex -1.190476e-01 -4.121692e-01 -3.174603e-02
   endloop
 endfacet
 facet normal  8.320501e-01 -5.547006e-01  0.000000e+00
   outer loop
     vertex -3.862423e-02 -2.915343e-01 -1.587302e-02
     vertex -1.190476e-01 -4.121692e-01 -3.174603e-02
     vertex -3.862423e-02 -2.915343e-01 -3.174603e-02
   endloop
 endfacet
 facet normal -8.087361e-01  5.881717e-01  0.000000e+00
   outer loop
     vertex  1.349207e-01 -5.455026e-01 -1.587302e-02
     vertex -1.190476e-01 -8.947090e-01 -1.587302e-02
     vertex -1.190476e-01 -8.947090e-01  4.444445e-01
   endloop
 endfacet
 facet normal -8.087361e-01  5.881717e-01  0.000000e+00
   outer loop
     vertex  1.349207e-01 -5.455026e-01 -1.587302e-02
     vertex -1.190476e-01 -8.947090e-01  4.444445e-01
     vertex  1.349207e-01 -5.455026e-01  4.444445e-01
   endloop
 endfacet
 facet normal  5.812381e-01 -8.137335e-01  0.000000e+00
   outer loop
     vertex -1.190476e-01 -8.947090e-01 -1.587302e-02
     vertex  1.624340e-01 -6.936508e-01 -1.587302e-02
     vertex  1.624340e-01 -6.936508e-01  4.444445e-01
   endloop
 endfacet
 facet normal  5.812381e-01 -8.137335e-01  0.000000e+00
   outer loop
     vertex -1.190476e-01 -8.947090e-01 -1.587302e-02
     vertex  1.624340e-01 -6.936508e-01  4.444445e-01
     vertex -1.190476e-01 -8.947090e-01  4.444445e-01
   endloop
 endfacet
 facet normal -7.071069e-01 -7.071066e-01  0.000000e+00
   outer loop
     vertex  1.349207e-01 -5.455026e-01 -1.587302e-02
     vertex  8.201069e-02 -4.925925e-01  4.444445e-01
     vertex  8.201069e-02 -4.925925e-01 -1.587302e-02
   endloop
 endfacet
 facet normal -7.071069e-01 -7.071066e-01  0.000000e+00
   outer loop
     vertex  1.349207e-01 -5.455026e-01 -1.587302e-02
     vertex  1.349207e-01 -5.455026e-01  4.444445e-01
     vertex  8.201069e-02 -4.925925e-01  4.444445e-01
   endloop
 endfacet
 facet normal -8.087361e-01  5.881717e-01  0.000000e+00
   outer loop
     vertex  1.349207e-01 -5.455026e-01 -1.587302e-02
     vertex -1.190476e-01 -8.947090e-01 -3.174603e-02
     vertex -1.190476e-01 -8.947090e-01 -1.587302e-02
   endloop
 endfacet
 facet normal -8.087361e-01  5.881717e-01  0.000000e+00
   outer loop
     vertex  1.349207e-01 -5.455026e-01 -1.587302e-02
     vertex  1.349207e-01 -5.455026e-01 -3.174603e-02
     vertex -1.190476e-01 -8.947090e-01 -3.174603e-02
   endloop
 endfacet
 facet normal  0.000000e+00  0.000000e+00  1.000000e+00
   outer loop
     vertex  1.349207e-01 -5.455026e-01  4.444445e-01
     vertex -1.190476e-01 -8.947090e-01  4.444445e-01
     vertex  1.624340e-01 -6.936508e-01  4.444445e-01
   endloop
 endfacet
 facet normal  0.000000e+00  0.000000e+00  1.000000e+00
   outer loop
     vertex  1.349207e-01 -5.455026e-01  4.444445e-01
     vertex  1.624340e-01 -6.936508e-01  4.444445e-01
     vertex  1.796675e-01 -5.902494e-01  4.444445e-01
   endloop
 endfacet
 facet normal  9.863939e-01 -1.643990e-01  0.000000e+00
   outer loop
     vertex  1.624340e-01 -6.936508e-01 -1.587302e-02
     vertex  1.796675e-01 -5.902494e-01 -1.587302e-02
     vertex  1.796675e-01 -5.902494e-01  4.444445e-01
   endloop
 endfacet
 facet normal  9.863939e-01 -1.643990e-01  0.000000e+00
   outer loop
     vertex  1.624340e-01 -6.936508e-01 -1.587302e-02
     vertex  1.796675e-01 -5.902494e-01  4.444445e-01
     vertex  1.624340e-01 -6.936508e-01  4.444445e-01
   endloop
 endfacet
 facet normal  5.812381e-01 -8.137335e-01  0.000000e+00
   outer loop
     vertex -1.190476e-01 -8.947090e-01 -1.587302e-02
     vertex  1.624340e-01 -6.936508e-01 -3.174603e-02
     vertex  1.624340e-01 -6.936508e-01 -1.587302e-02
   endloop
 endfacet
 facet normal  5.812381e-01 -8.137335e-01  0.000000e+00
   outer loop
     vertex -1.190476e-01 -8.947090e-01 -1.587302e-02
     vertex -1.190476e-01 -8.947090e-01 -3.174603e-02
     vertex  1.624340e-01 -6.936508e-01 -3.174603e-02
   endloop
 endfacet
 facet normal -1.643990e-01  9.863939e-01  0.000000e+00
   outer loop
     vertex  8.201069e-02 -4.925925e-01 -1.587302e-02
     vertex  1.860063e-01 -4.752599e-01  4.444445e-01
     vertex  1.860063e-01 -4.752599e-01 -1.587302e-02
   endloop
 endfacet
 facet normal -1.643990e-01  9.863939e-01  0.000000e+00
   outer loop
     vertex  8.201069e-02 -4.925925e-01 -1.587302e-02
     vertex  8.201069e-02 -4.925925e-01  4.444445e-01
     vertex  1.860063e-01 -4.752599e-01  4.444445e-01
   endloop
 endfacet
 facet normal -7.071069e-01 -7.071066e-01  0.000000e+00
   outer loop
     vertex  1.349207e-01 -5.455026e-01 -1.587302e-02
     vertex  8.201069e-02 -4.925925e-01 -1.587302e-02
     vertex  8.201069e-02 -4.925925e-01 -3.174603e-02
   endloop
 endfacet
 facet normal -7.071069e-01 -7.071066e-01 -0.000000e+00
   outer loop
     vertex  1.349207e-01 -5.455026e-01 -1.587302e-02
     vertex  8.201069e-02 -4.925925e-01 -3.174603e-02
     vertex  1.349207e-01 -5.455026e-01 -3.174603e-02
   endloop
 endfacet
 facet normal  0.000000e+00  0.000000e+00  1.000000e+00
   outer loop
     vertex  1.860063e-01 -4.752599e-01  4.444445e-01
     vertex  8.201069e-02 -4.925925e-01  4.444445e-01
     vertex  1.349207e-01 -5.455026e-01  4.444445e-01
   endloop
 endfacet
 facet normal  0.000000e+00 -0.000000e+00 -1.000000e+00
   outer loop
     vertex  1.349207e-01 -5.455026e-01 -3.174603e-02
     vertex  1.624340e-01 -6.936508e-01 -3.174603e-02
     vertex -1.190476e-01 -8.947090e-01 -3.174603e-02
   endloop
 endfacet
 facet normal  0.000000e+00  0.000000e+00 -1.000000e+00
   outer loop
     vertex  1.349207e-01 -5.455026e-01 -3.174603e-02
     vertex  1.796675e-01 -5.902494e-01 -3.174603e-02
     vertex  1.624340e-01 -6.936508e-01 -3.174603e-02
   endloop
 endfacet
 facet normal  0.000000e+00  0.000000e+00  1.000000e+00
   outer loop
     vertex  1.860063e-01 -4.752599e-01  4.444445e-01
     vertex  1.349207e-01 -5.455026e-01  4.444445e-01
     vertex  1.796675e-01 -5.902494e-01  4.444445e-01
   endloop
 endfacet
 facet normal  0.000000e+00  0.000000e+00  1.000000e+00
   outer loop
     vertex  1.991989e-01 -4.730611e-01  4.444445e-01
     vertex  1.860063e-01 -4.752599e-01  4.444445e-01
     vertex  1.796675e-01 -5.902494e-01  4.444445e-01
   endloop
 endfacet
 facet normal -7.071069e-01 -7.071066e-01  0.000000e+00
   outer loop
     vertex  3.634921e-01 -7.740741e-01 -1.587302e-02
     vertex  1.796675e-01 -5.902494e-01  4.444445e-01
     vertex  1.796675e-01 -5.902494e-01 -1.587302e-02
   endloop
 endfacet
 facet normal -7.071069e-01 -7.071066e-01  0.000000e+00
   outer loop
     vertex  3.634921e-01 -7.740741e-01 -1.587302e-02
     vertex  3.634921e-01 -7.740741e-01  4.444445e-01
     vertex  1.796675e-01 -5.902494e-01  4.444445e-01
   endloop
 endfacet
 facet normal  9.863939e-01 -1.643990e-01  0.000000e+00
   outer loop
     vertex  1.624340e-01 -6.936508e-01 -1.587302e-02
     vertex  1.796675e-01 -5.902494e-01 -3.174603e-02
     vertex  1.796675e-01 -5.902494e-01 -1.587302e-02
   endloop
 endfacet
 facet normal  9.863939e-01 -1.643990e-01  0.000000e+00
   outer loop
     vertex  1.624340e-01 -6.936508e-01 -1.587302e-02
     vertex  1.624340e-01 -6.936508e-01 -3.174603e-02
     vertex  1.796675e-01 -5.902494e-01 -3.174603e-02
   endloop
 endfacet
 facet normal -8.087361e-01  5.881717e-01  0.000000e+00
   outer loop
     vertex  2.026456e-01 -4.523809e-01 -1.587302e-02
     vertex  1.860063e-01 -4.752599e-01 -1.587302e-02
     vertex  1.860063e-01 -4.752599e-01  4.444445e-01
   endloop
 endfacet
 facet normal -8.087361e-01  5.881717e-01  0.000000e+00
   outer loop
     vertex  2.026456e-01 -4.523809e-01 -1.587302e-02
     vertex  1.860063e-01 -4.752599e-01  4.444445e-01
     vertex  2.026456e-01 -4.523809e-01  4.444445e-01
   endloop
 endfacet
 facet normal -1.643990e-01  9.863939e-01  0.000000e+00
   outer loop
     vertex  8.201069e-02 -4.925925e-01 -1.587302e-02
     vertex  1.860063e-01 -4.752599e-01 -1.587302e-02
     vertex  1.860063e-01 -4.752599e-01 -3.174603e-02
   endloop
 endfacet
 facet normal -1.643990e-01  9.863939e-01  0.000000e+00
   outer loop
     vertex  8.201069e-02 -4.925925e-01 -1.587302e-02
     vertex  1.860063e-01 -4.752599e-01 -3.174603e-02
     vertex  8.201069e-02 -4.925925e-01 -3.174603e-02
   endloop
 endfacet
 facet normal  0.000000e+00  0.000000e+00 -1.000000e+00
   outer loop
     vertex  1.860063e-01 -4.752599e-01 -3.174603e-02
     vertex  1.349207e-01 -5.455026e-01 -3.174603e-02
     vertex  8.201069e-02 -4.925925e-01 -3.174603e-02
   endloop
 endfacet
 facet normal  0.000000e+00  0.000000e+00 -1.000000e+00
   outer loop
     vertex  1.860063e-01 -4.752599e-01 -3.174603e-02
     vertex  1.796675e-01 -5.902494e-01 -3.174603e-02
     vertex  1.349207e-01 -5.455026e-01 -3.174603e-02
   endloop
 endfacet
 facet normal  0.000000e+00  0.000000e+00 -1.000000e+00
   outer loop
     vertex  1.991989e-01 -4.730611e-01 -3.174603e-02
     vertex  1.796675e-01 -5.902494e-01 -3.174603e-02
     vertex  1.860063e-01 -4.752599e-01 -3.174603e-02
   endloop
 endfacet
 facet normal  0.000000e+00  0.000000e+00  1.000000e+00
   outer loop
     vertex  2.026456e-01 -4.523809e-01  4.444445e-01
     vertex  1.860063e-01 -4.752599e-01  4.444445e-01
     vertex  1.991989e-01 -4.730611e-01  4.444445e-01
   endloop
 endfacet
 facet normal  0.000000e+00  0.000000e+00  1.000000e+00
   outer loop
     vertex  1.991989e-01 -4.730611e-01  4.444445e-01
     vertex  1.796675e-01 -5.902494e-01  4.444445e-01
     vertex  3.634921e-01 -7.740741e-01  4.444445e-01
   endloop
 endfacet
 facet normal  0.000000e+00  0.000000e+00  1.000000e+00
   outer loop
     vertex  5.645503e-01 -4.121692e-01  4.444445e-01
     vertex  1.991989e-01 -4.730611e-01  4.444445e-01
     vertex  3.634921e-01 -7.740741e-01  4.444445e-01
   endloop
 endfacet
 facet normal  8.741573e-01 -4.856429e-01  0.000000e+00
   outer loop
     vertex  5.645503e-01 -4.121692e-01 -1.587302e-02
     vertex  3.634921e-01 -7.740741e-01  4.444445e-01
     vertex  3.634921e-01 -7.740741e-01 -1.587302e-02
   endloop
 endfacet
 facet normal  8.741573e-01 -4.856429e-01  0.000000e+00
   outer loop
     vertex  5.645503e-01 -4.121692e-01 -1.587302e-02
     vertex  5.645503e-01 -4.121692e-01  4.444445e-01
     vertex  3.634921e-01 -7.740741e-01  4.444445e-01
   endloop
 endfacet
 facet normal -7.071069e-01 -7.071066e-01  0.000000e+00
   outer loop
     vertex  3.634921e-01 -7.740741e-01 -1.587302e-02
     vertex  1.796675e-01 -5.902494e-01 -1.587302e-02
     vertex  1.796675e-01 -5.902494e-01 -3.174603e-02
   endloop
 endfacet
 facet normal -7.071069e-01 -7.071066e-01 -0.000000e+00
   outer loop
     vertex  3.634921e-01 -7.740741e-01 -1.587302e-02
     vertex  1.796675e-01 -5.902494e-01 -3.174603e-02
     vertex  3.634921e-01 -7.740741e-01 -3.174603e-02
   endloop
 endfacet
 facet normal  9.863939e-01 -1.643990e-01  0.000000e+00
   outer loop
     vertex  1.991989e-01 -4.730611e-01 -1.587302e-02
     vertex  2.026456e-01 -4.523809e-01 -1.587302e-02
     vertex  2.026456e-01 -4.523809e-01  4.444445e-01
   endloop
 endfacet
 facet normal  9.863939e-01 -1.643990e-01  0.000000e+00
   outer loop
     vertex  1.991989e-01 -4.730611e-01 -1.587302e-02
     vertex  2.026456e-01 -4.523809e-01  4.444445e-01
     vertex  1.991989e-01 -4.730611e-01  4.444445e-01
   endloop
 endfacet
 facet normal -8.087361e-01  5.881717e-01  0.000000e+00
   outer loop
     vertex  2.026456e-01 -4.523809e-01 -1.587302e-02
     vertex  1.860063e-01 -4.752599e-01 -3.174603e-02
     vertex  1.860063e-01 -4.752599e-01 -1.587302e-02
   endloop
 endfacet
 facet normal -8.087361e-01  5.881717e-01  0.000000e+00
   outer loop
     vertex  2.026456e-01 -4.523809e-01 -1.587302e-02
     vertex  2.026456e-01 -4.523809e-01 -3.174603e-02
     vertex  1.860063e-01 -4.752599e-01 -3.174603e-02
   endloop
 endfacet
 facet normal  0.000000e+00  0.000000e+00 -1.000000e+00
   outer loop
     vertex  2.026456e-01 -4.523809e-01 -3.174603e-02
     vertex  1.991989e-01 -4.730611e-01 -3.174603e-02
     vertex  1.860063e-01 -4.752599e-01 -3.174603e-02
   endloop
 endfacet
 facet normal  0.000000e+00 -0.000000e+00 -1.000000e+00
   outer loop
     vertex  1.991989e-01 -4.730611e-01 -3.174603e-02
     vertex  3.634921e-01 -7.740741e-01 -3.174603e-02
     vertex  1.796675e-01 -5.902494e-01 -3.174603e-02
   endloop
 endfacet
 facet normal  0.000000e+00  0.000000e+00 -1.000000e+00
   outer loop
     vertex  5.645503e-01 -4.121692e-01 -3.174603e-02
     vertex  3.634921e-01 -7.740741e-01 -3.174603e-02
     vertex  1.991989e-01 -4.730611e-01 -3.174603e-02
   endloop
 endfacet
 facet normal -1.643990e-01  9.863939e-01  0.000000e+00
   outer loop
     vertex  1.991989e-01 -4.730611e-01 -1.587302e-02
     vertex  5.645503e-01 -4.121692e-01  4.444445e-01
     vertex  5.645503e-01 -4.121692e-01 -1.587302e-02
   endloop
 endfacet
 facet normal -1.643990e-01  9.863939e-01  0.000000e+00
   outer loop
     vertex  1.991989e-01 -4.730611e-01 -1.587302e-02
     vertex  1.991989e-01 -4.730611e-01  4.444445e-01
     vertex  5.645503e-01 -4.121692e-01  4.444445e-01
   endloop
 endfacet
 facet normal  8.741573e-01 -4.856429e-01  0.000000e+00
   outer loop
     vertex  5.645503e-01 -4.121692e-01 -1.587302e-02
     vertex  3.634921e-01 -7.740741e-01 -1.587302e-02
     vertex  3.634921e-01 -7.740741e-01 -3.174603e-02
   endloop
 endfacet
 facet normal  8.741573e-01 -4.856429e-01  0.000000e+00
   outer loop
     vertex  5.645503e-01 -4.121692e-01 -1.587302e-02
     vertex  3.634921e-01 -7.740741e-01 -3.174603e-02
     vertex  5.645503e-01 -4.121692e-01 -3.174603e-02
   endloop
 endfacet
 facet normal  9.863939e-01 -1.643990e-01  0.000000e+00
   outer loop
     vertex  1.991989e-01 -4.730611e-01 -1.587302e-02
     vertex  2.026456e-01 -4.523809e-01 -3.174603e-02
     vertex  2.026456e-01 -4.523809e-01 -1.587302e-02
   endloop
 endfacet
 facet normal  9.863939e-01 -1.643990e-01  0.000000e+00
   outer loop
     vertex  1.991989e-01 -4.730611e-01 -1.587302e-02
     vertex  1.991989e-01 -4.730611e-01 -3.174603e-02
     vertex  2.026456e-01 -4.523809e-01 -3.174603e-02
   endloop
 endfacet
 facet normal -1.643990e-01  9.863939e-01  0.000000e+00
   outer loop
     vertex  1.991989e-01 -4.730611e-01 -1.587302e-02
     vertex  5.645503e-01 -4.121692e-01 -1.587302e-02
     vertex  5.645503e-01 -4.121692e-01 -3.174603e-02
   endloop
 endfacet
 facet normal -1.643990e-01  9.863939e-01  0.000000e+00
   outer loop
     vertex  1.991989e-01 -4.730611e-01 -1.587302e-02
     vertex  5.645503e-01 -4.121692e-01 -3.174603e-02
     vertex  1.991989e-01 -4.730611e-01 -3.174603e-02
   endloop
 endfacet
 facet normal -4.740998e-01  8.804711e-01  0.000000e+00
   outer loop
     vertex -8.830687e-01  3.518519e-01 -1.587302e-02
     vertex -4.293600e-01  5.961566e-01  4.444445e-01
     vertex -4.293600e-01  5.961566e-01 -1.587302e-02
   endloop
 endfacet
 facet normal -4.740998e-01  8.804711e-01  0.000000e+00
   outer loop
     vertex -8.830687e-01  3.518519e-01 -1.587302e-02
     vertex -8.830687e-01  3.518519e-01  4.444445e-01
     vertex -4.293600e-01  5.961566e-01  4.444445e-01
   endloop
 endfacet
 facet normal -8.320503e-01 -5.547002e-01  0.000000e+00
   outer loop
     vertex -4.293600e-01  5.961566e-01 -1.587302e-02
     vertex -6.417989e-01  9.148148e-01  4.444445e-01
     vertex -6.417989e-01  9.148148e-01 -1.587302e-02
   endloop
 endfacet
 facet normal -8.320503e-01 -5.547002e-01  0.000000e+00
   outer loop
     vertex -4.293600e-01  5.961566e-01 -1.587302e-02
     vertex -4.293600e-01  5.961566e-01  4.444445e-01
     vertex -6.417989e-01  9.148148e-01  4.444445e-01
   endloop
 endfacet
 facet normal -8.944272e-01 -4.472136e-01  0.000000e+00
   outer loop
     vertex -6.820105e-01 -5.026452e-02 -1.587302e-02
     vertex -8.830687e-01  3.518519e-01  4.444445e-01
     vertex -8.830687e-01  3.518519e-01 -1.587302e-02
   endloop
 endfacet
 facet normal -8.944272e-01 -4.472136e-01  0.000000e+00
   outer loop
     vertex -6.820105e-01 -5.026452e-02 -1.587302e-02
     vertex -6.820105e-01 -5.026452e-02  4.444445e-01
     vertex -8.830687e-01  3.518519e-01  4.444445e-01
   endloop
 endfacet
 facet normal -4.740998e-01  8.804711e-01  0.000000e+00
   outer loop
     vertex -8.830687e-01  3.518519e-01 -1.587302e-02
     vertex -4.293600e-01  5.961566e-01 -1.587302e-02
     vertex -4.293600e-01  5.961566e-01 -3.174603e-02
   endloop
 endfacet
 facet normal -4.740998e-01  8.804711e-01  0.000000e+00
   outer loop
     vertex -8.830687e-01  3.518519e-01 -1.587302e-02
     vertex -4.293600e-01  5.961566e-01 -3.174603e-02
     vertex -8.830687e-01  3.518519e-01 -3.174603e-02
   endloop
 endfacet
 facet normal  0.000000e+00  0.000000e+00  1.000000e+00
   outer loop
     vertex -3.991424e-01  5.508302e-01  4.444445e-01
     vertex -8.830687e-01  3.518519e-01  4.444445e-01
     vertex -6.820105e-01 -5.026452e-02  4.444445e-01
   endloop
 endfacet
 facet normal  0.000000e+00  0.000000e+00  1.000000e+00
   outer loop
     vertex -4.293600e-01  5.961566e-01  4.444445e-01
     vertex -8.830687e-01  3.518519e-01  4.444445e-01
     vertex -3.991424e-01  5.508302e-01  4.444445e-01
   endloop
 endfacet
 facet normal  5.872199e-02  9.982744e-01  0.000000e+00
   outer loop
     vertex -6.417989e-01  9.148148e-01 -1.587302e-02
     vertex  4.179905e-02  8.746032e-01  4.444445e-01
     vertex  4.179905e-02  8.746032e-01 -1.587302e-02
   endloop
 endfacet
 facet normal  5.872199e-02  9.982744e-01 -0.000000e+00
   outer loop
     vertex -6.417989e-01  9.148148e-01 -1.587302e-02
     vertex -6.417989e-01  9.148148e-01  4.444445e-01
     vertex  4.179905e-02  8.746032e-01  4.444445e-01
   endloop
 endfacet
 facet normal -8.320503e-01 -5.547002e-01  0.000000e+00
   outer loop
     vertex -4.293600e-01  5.961566e-01 -1.587302e-02
     vertex -6.417989e-01  9.148148e-01 -1.587302e-02
     vertex -6.417989e-01  9.148148e-01 -3.174603e-02
   endloop
 endfacet
 facet normal -8.320503e-01 -5.547002e-01 -0.000000e+00
   outer loop
     vertex -4.293600e-01  5.961566e-01 -1.587302e-02
     vertex -6.417989e-01  9.148148e-01 -3.174603e-02
     vertex -4.293600e-01  5.961566e-01 -3.174603e-02
   endloop
 endfacet
 facet normal  0.000000e+00  0.000000e+00  1.000000e+00
   outer loop
     vertex -3.603174e-01  6.333334e-01  4.444445e-01
     vertex -6.417989e-01  9.148148e-01  4.444445e-01
     vertex -4.293600e-01  5.961566e-01  4.444445e-01
   endloop
 endfacet
 facet normal  0.000000e+00  0.000000e+00  1.000000e+00
   outer loop
     vertex -3.603174e-01  6.333334e-01  4.444445e-01
     vertex -3.991424e-01  5.508302e-01  4.444445e-01
     vertex -2.396825e-01  3.116403e-01  4.444445e-01
   endloop
 endfacet
 facet normal  0.000000e+00  0.000000e+00  1.000000e+00
   outer loop
     vertex  1.587406e-03  7.941799e-01  4.444445e-01
     vertex -6.417989e-01  9.148148e-01  4.444445e-01
     vertex -3.603174e-01  6.333334e-01  4.444445e-01
   endloop
 endfacet
 facet normal  0.000000e+00  0.000000e+00  1.000000e+00
   outer loop
     vertex  1.587406e-03  7.941799e-01  4.444445e-01
     vertex -3.603174e-01  6.333334e-01  4.444445e-01
     vertex -2.396825e-01  3.116403e-01  4.444445e-01
   endloop
 endfacet
 facet normal  0.000000e+00  0.000000e+00  1.000000e+00
   outer loop
     vertex  4.179905e-02  8.746032e-01  4.444445e-01
     vertex -6.417989e-01  9.148148e-01  4.444445e-01
     vertex  1.587406e-03  7.941799e-01  4.444445e-01
   endloop
 endfacet
 facet normal  9.048187e-01 -4.257970e-01  0.000000e+00
   outer loop
     vertex -3.991424e-01  5.508302e-01 -1.587302e-02
     vertex -6.820105e-01 -5.026452e-02  4.444445e-01
     vertex -6.820105e-01 -5.026452e-02 -1.587302e-02
   endloop
 endfacet
 facet normal  9.048187e-01 -4.257970e-01  0.000000e+00
   outer loop
     vertex -3.991424e-01  5.508302e-01 -1.587302e-02
     vertex -3.991424e-01  5.508302e-01  4.444445e-01
     vertex -6.820105e-01 -5.026452e-02  4.444445e-01
   endloop
 endfacet
 facet normal -8.944272e-01 -4.472136e-01  0.000000e+00
   outer loop
     vertex -6.820105e-01 -5.026452e-02 -1.587302e-02
     vertex -8.830687e-01  3.518519e-01 -1.587302e-02
     vertex -8.830687e-01  3.518519e-01 -3.174603e-02
   endloop
 endfacet
 facet normal -8.944272e-01 -4.472136e-01 -0.000000e+00
   outer loop
     vertex -6.820105e-01 -5.026452e-02 -1.587302e-02
     vertex -8.830687e-01  3.518519e-01 -3.174603e-02
     vertex -6.820105e-01 -5.026452e-02 -3.174603e-02
   endloop
 endfacet
 facet normal  0.000000e+00  0.000000e+00 -1.000000e+00
   outer loop
     vertex -3.991424e-01  5.508302e-01 -3.174603e-02
     vertex -6.820105e-01 -5.026452e-02 -3.174603e-02
     vertex -8.830687e-01  3.518519e-01 -3.174603e-02
   endloop
 endfacet
 facet normal  0.000000e+00 -0.000000e+00 -1.000000e+00
   outer loop
     vertex -4.293600e-01  5.961566e-01 -3.174603e-02
     vertex -3.991424e-01  5.508302e-01 -3.174603e-02
     vertex -8.830687e-01  3.518519e-01 -3.174603e-02
   endloop
 endfacet
 facet normal  0.000000e+00  0.000000e+00  1.000000e+00
   outer loop
     vertex -3.603174e-01  6.333334e-01  4.444445e-01
     vertex -4.293600e-01  5.961566e-01  4.444445e-01
     vertex -3.991424e-01  5.508302e-01  4.444445e-01
   endloop
 endfacet
 facet normal  8.944272e-01 -4.472135e-01  0.000000e+00
   outer loop
     vertex  4.179905e-02  8.746032e-01 -1.587302e-02
     vertex  1.587406e-03  7.941799e-01  4.444445e-01
     vertex  1.587406e-03  7.941799e-01 -1.587302e-02
   endloop
 endfacet
 facet normal  8.944272e-01 -4.472135e-01  0.000000e+00
   outer loop
     vertex  4.179905e-02  8.746032e-01 -1.587302e-02
     vertex  4.179905e-02  8.746032e-01  4.444445e-01
     vertex  1.587406e-03  7.941799e-01  4.444445e-01
   endloop
 endfacet
 facet normal  5.872199e-02  9.982744e-01  0.000000e+00
   outer loop
     vertex -6.417989e-01  9.148148e-01 -1.587302e-02
     vertex  4.179905e-02  8.746032e-01 -1.587302e-02
     vertex  4.179905e-02  8.746032e-01 -3.174603e-02
   endloop
 endfacet
 facet normal  5.872199e-02  9.982744e-01  0.000000e+00
   outer loop
     vertex -6.417989e-01  9.148148e-01 -1.587302e-02
     vertex  4.179905e-02  8.746032e-01 -3.174603e-02
     vertex -6.417989e-01  9.148148e-01 -3.174603e-02
   endloop
 endfacet
 facet normal -0.000000e+00  0.000000e+00 -1.000000e+00
   outer loop
     vertex -3.603174e-01  6.333334e-01 -3.174603e-02
     vertex -4.293600e-01  5.961566e-01 -3.174603e-02
     vertex -6.417989e-01  9.148148e-01 -3.174603e-02
   endloop
 endfacet
 facet normal  0.000000e+00 -0.000000e+00 -1.000000e+00
   outer loop
     vertex -3.603174e-01  6.333334e-01 -3.174603e-02
     vertex -2.396825e-01  3.116403e-01 -3.174603e-02
     vertex -3.991424e-01  5.508302e-01 -3.174603e-02
   endloop
 endfacet
 facet normal -0.000000e+00  0.000000e+00 -1.000000e+00
   outer loop
     vertex  1.587406e-03  7.941799e-01 -3.174603e-02
     vertex -3.603174e-01  6.333334e-01 -3.174603e-02
     vertex -6.417989e-01  9.148148e-01 -3.174603e-02
   endloop
 endfacet
 facet normal  0.000000e+00  0.000000e+00 -1.000000e+00
   outer loop
     vertex  1.587406e-03  7.941799e-01 -3.174603e-02
     vertex -2.396825e-01  3.116403e-01 -3.174603e-02
     vertex -3.603174e-01  6.333334e-01 -3.174603e-02
   endloop
 endfacet
 facet normal -0.000000e+00  0.000000e+00 -1.000000e+00
   outer loop
     vertex  4.179905e-02  8.746032e-01 -3.174603e-02
     vertex  1.587406e-03  7.941799e-01 -3.174603e-02
     vertex -6.417989e-01  9.148148e-01 -3.174603e-02
   endloop
 endfacet
 facet normal  8.944271e-01 -4.472137e-01  0.000000e+00
   outer loop
     vertex  1.587406e-03  7.941799e-01 -1.587302e-02
     vertex -2.396825e-01  3.116403e-01  4.444445e-01
     vertex -2.396825e-01  3.116403e-01 -1.587302e-02
   endloop
 endfacet
 facet normal  8.944271e-01 -4.472137e-01  0.000000e+00
   outer loop
     vertex  1.587406e-03  7.941799e-01 -1.587302e-02
     vertex  1.587406e-03  7.941799e-01  4.444445e-01
     vertex -2.396825e-01  3.116403e-01  4.444445e-01
   endloop
 endfacet
 facet normal -8.320503e-01 -5.547002e-01  0.000000e+00
   outer loop
     vertex -2.396825e-01  3.116403e-01 -1.587302e-02
     vertex -3.991424e-01  5.508302e-01  4.444445e-01
     vertex -3.991424e-01  5.508302e-01 -1.587302e-02
   endloop
 endfacet
 facet normal -8.320503e-01 -5.547002e-01  0.000000e+00
   outer loop
     vertex -2.396825e-01  3.116403e-01 -1.587302e-02
     vertex -2.396825e-01  3.116403e-01  4.444445e-01
     vertex -3.991424e-01  5.508302e-01  4.444445e-01
   endloop
 endfacet
 facet normal  9.048187e-01 -4.257970e-01  0.000000e+00
   outer loop
     vertex -3.991424e-01  5.508302e-01 -1.587302e-02
     vertex -6.820105e-01 -5.026452e-02 -1.587302e-02
     vertex -6.820105e-01 -5.026452e-02 -3.174603e-02
   endloop
 endfacet
 facet normal  9.048187e-01 -4.257970e-01  0.000000e+00
   outer loop
     vertex -3.991424e-01  5.508302e-01 -1.587302e-02
     vertex -6.820105e-01 -5.026452e-02 -3.174603e-02
     vertex -3.991424e-01  5.508302e-01 -3.174603e-02
   endloop
 endfacet
 facet normal  0.000000e+00  0.000000e+00 -1.000000e+00
   outer loop
     vertex -3.603174e-01  6.333334e-01 -3.174603e-02
     vertex -3.991424e-01  5.508302e-01 -3.174603e-02
     vertex -4.293600e-01  5.961566e-01 -3.174603e-02
   endloop
 endfacet
 facet normal  8.944272e-01 -4.472135e-01  0.000000e+00
   outer loop
     vertex  4.179905e-02  8.746032e-01 -1.587302e-02
     vertex  1.587406e-03  7.941799e-01 -1.587302e-02
     vertex  1.587406e-03  7.941799e-01 -3.174603e-02
   endloop
 endfacet
 facet normal  8.944272e-01 -4.472135e-01  0.000000e+00
   outer loop
     vertex  4.179905e-02  8.746032e-01 -1.587302e-02
     vertex  1.587406e-03  7.941799e-01 -3.174603e-02
     vertex  4.179905e-02  8.746032e-01 -3.174603e-02
   endloop
 endfacet
 facet normal  8.944271e-01 -4.472137e-01  0.000000e+00
   outer loop
     vertex  1.587406e-03  7.941799e-01 -1.587302e-02
     vertex -2.396825e-01  3.116403e-01 -1.587302e-02
     vertex -2.396825e-01  3.116403e-01 -3.174603e-02
   endloop
 endfacet
 facet normal  8.944271e-01 -4.472137e-01  0.000000e+00
   outer loop
     vertex  1.587406e-03  7.941799e-01 -1.587302e-02
     vertex -2.396825e-01  3.116403e-01 -3.174603e-02
     vertex  1.587406e-03  7.941799e-01 -3.174603e-02
   endloop
 endfacet
 facet normal -8.320503e-01 -5.547002e-01  0.000000e+00
   outer loop
     vertex -2.396825e-01  3.116403e-01 -1.587302e-02
     vertex -3.991424e-01  5.508302e-01 -1.587302e-02
     vertex -3.991424e-01  5.508302e-01 -3.174603e-02
   endloop
 endfacet
 facet normal -8.320503e-01 -5.547002e-01 -0.000000e+00
   outer loop
     vertex -2.396825e-01  3.116403e-01 -1.587302e-02
     vertex -3.991424e-01  5.508302e-01 -3.174603e-02
     vertex -2.396825e-01  3.116403e-01 -3.174603e-02
   endloop
 endfacet
 facet normal -9.486833e-01 -3.162278e-01  0.000000e+00
   outer loop
     vertex  1.222223e-01  4.322752e-01 -1.587302e-02
     vertex  1.587406e-03  7.941799e-01  4.444445e-01
     vertex  1.587406e-03  7.941799e-01 -1.587302e-02
   endloop
 endfacet
 facet normal -9.486833e-01 -3.162278e-01  0.000000e+00
   outer loop
     vertex  1.222223e-01  4.322752e-01 -1.587302e-02
     vertex  1.222223e-01  4.322752e-01  4.444445e-01
     vertex  1.587406e-03  7.941799e-01  4.444445e-01
   endloop
 endfacet
 facet normal -6.237835e-02  9.980526e-01  0.000000e+00
   outer loop
     vertex  1.587406e-03  7.941799e-01 -1.587302e-02
     vertex  6.449736e-01  8.343916e-01  4.444445e-01
     vertex  6.449736e-01  8.343916e-01 -1.587302e-02
   endloop
 endfacet
 facet normal -6.237835e-02  9.980526e-01  0.000000e+00
   outer loop
     vertex  1.587406e-03  7.941799e-01 -1.587302e-02
     vertex  1.587406e-03  7.941799e-01  4.444445e-01
     vertex  6.449736e-01  8.343916e-01  4.444445e-01
   endloop
 endfacet
 facet normal  6.097108e-01 -7.926240e-01  0.000000e+00
   outer loop
     vertex  6.449736e-01  8.343916e-01 -1.587302e-02
     vertex  1.222223e-01  4.322752e-01  4.444445e-01
     vertex  1.222223e-01  4.322752e-01 -1.587302e-02
   endloop
 endfacet
 facet normal  6.097108e-01 -7.926240e-01  0.000000e+00
   outer loop
     vertex  6.449736e-01  8.343916e-01 -1.587302e-02
     vertex  6.449736e-01  8.343916e-01  4.444445e-01
     vertex  1.222223e-01  4.322752e-01  4.444445e-01
   endloop
 endfacet
 facet normal -9.486833e-01 -3.162278e-01  0.000000e+00
   outer loop
     vertex  1.222223e-01  4.322752e-01 -1.587302e-02
     vertex  1.587406e-03  7.941799e-01 -1.587302e-02
     vertex  1.587406e-03  7.941799e-01 -3.174603e-02
   endloop
 endfacet
 facet normal -9.486833e-01 -3.162278e-01 -0.000000e+00
   outer loop
     vertex  1.222223e-01  4.322752e-01 -1.587302e-02
     vertex  1.587406e-03  7.941799e-01 -3.174603e-02
     vertex  1.222223e-01  4.322752e-01 -3.174603e-02
   endloop
 endfacet
 facet normal  0.000000e+00  0.000000e+00  1.000000e+00
   outer loop
     vertex  6.449736e-01  8.343916e-01  4.444445e-01
     vertex  1.587406e-03  7.941799e-01  4.444445e-01
     vertex  1.222223e-01  4.322752e-01  4.444445e-01
   endloop
 endfacet
 facet normal -6.237835e-02  9.980526e-01  0.000000e+00
   outer loop
     vertex  1.587406e-03  7.941799e-01 -1.587302e-02
     vertex  6.449736e-01  8.343916e-01 -1.587302e-02
     vertex  6.449736e-01  8.343916e-01 -3.174603e-02
   endloop
 endfacet
 facet normal -6.237835e-02  9.980526e-01  0.000000e+00
   outer loop
     vertex  1.587406e-03  7.941799e-01 -1.587302e-02
     vertex  6.449736e-01  8.343916e-01 -3.174603e-02
     vertex  1.587406e-03  7.941799e-01 -3.174603e-02
   endloop
 endfacet
 facet normal  6.097108e-01 -7.926240e-01  0.000000e+00
   outer loop
     vertex  6.449736e-01  8.343916e-01 -1.587302e-02
     vertex  1.222223e-01  4.322752e-01 -1.587302e-02
     vertex  1.222223e-01  4.322752e-01 -3.174603e-02
   endloop
 endfacet
 facet normal  6.097108e-01 -7.926240e-01  0.000000e+00
   outer loop
     vertex  6.449736e-01  8.343916e-01 -1.587302e-02
     vertex  1.222223e-01  4.322752e-01 -3.174603e-02
     vertex  6.449736e-01  8.343916e-01 -3.174603e-02
   endloop
 endfacet
 facet normal  0.000000e+00  0.000000e+00 -1.000000e+00
   outer loop
     vertex  6.449736e-01  8.343916e-01 -3.174603e-02
     vertex  1.222223e-01  4.322752e-01 -3.174603e-02
     vertex  1.587406e-03  7.941799e-01 -3.174603e-02
   endloop
 endfacet
endsolid
