solid 
 facet normal  0.000000e+00 -1.000000e+00  0.000000e+00
   outer loop
     vertex  2.749559e-01 -3.051156e-02 -1.587302e-02
     vertex -3.686073e-02 -3.051156e-02  6.349207e-01
     vertex -3.686073e-02 -3.051156e-02 -1.587302e-02
   endloop
 endfacet
 facet normal  0.000000e+00 -1.000000e+00  0.000000e+00
   outer loop
     vertex  2.749559e-01 -3.051156e-02 -1.587302e-02
     vertex  2.749559e-01 -3.051156e-02  6.349207e-01
     vertex -3.686073e-02 -3.051156e-02  6.349207e-01
   endloop
 endfacet
 facet normal -1.000000e+00  0.000000e+00  0.000000e+00
   outer loop
     vertex -3.686073e-02 -3.051156e-02 -1.587302e-02
     vertex -3.686073e-02  9.232804e-01  6.349207e-01
     vertex -3.686073e-02  9.232804e-01 -1.587302e-02
   endloop
 endfacet
 facet normal -1.000000e+00  0.000000e+00  0.000000e+00
   outer loop
     vertex -3.686073e-02 -3.051156e-02 -1.587302e-02
     vertex -3.686073e-02 -3.051156e-02  6.349207e-01
     vertex -3.686073e-02  9.232804e-01  6.349207e-01
   endloop
 endfacet
 facet normal  0.000000e+00 -1.000000e+00  0.000000e+00
   outer loop
     vertex  5.867725e-01 -3.051156e-02 -1.587302e-02
     vertex  2.749559e-01 -3.051156e-02  6.349207e-01
     vertex  2.749559e-01 -3.051156e-02 -1.587302e-02
   endloop
 endfacet
 facet normal  0.000000e+00 -1.000000e+00  0.000000e+00
   outer loop
     vertex  5.867725e-01 -3.051156e-02 -1.587302e-02
     vertex  5.867725e-01 -3.051156e-02  6.349207e-01
     vertex  2.749559e-01 -3.051156e-02  6.349207e-01
   endloop
 endfacet
 facet normal -0.000000e+00 -1.000000e+00  0.000000e+00
   outer loop
     vertex  2.749559e-01 -3.051156e-02 -1.587302e-02
     vertex -3.686073e-02 -3.051156e-02 -1.587302e-02
     vertex -3.686073e-02 -3.051156e-02 -3.174603e-02
   endloop
 endfacet
 facet normal  0.000000e+00 -1.000000e+00 -0.000000e+00
   outer loop
     vertex  2.749559e-01 -3.051156e-02 -1.587302e-02
     vertex -3.686073e-02 -3.051156e-02 -3.174603e-02
     vertex  2.749559e-01 -3.051156e-02 -3.174603e-02
   endloop
 endfacet
 facet normal  0.000000e+00  0.000000e+00  1.000000e+00
   outer loop
     vertex  4.968255e-01  4.587302e-01  6.349207e-01
     vertex -3.686073e-02  9.232804e-01  6.349207e-01
     vertex -3.686073e-02 -3.051156e-02  6.349207e-01
   endloop
 endfacet
 facet normal  0.000000e+00  0.000000e+00  1.000000e+00
   outer loop
     vertex  4.968255e-01  4.587302e-01  6.349207e-01
     vertex -3.686073e-02 -3.051156e-02  6.349207e-01
     vertex  2.749559e-01 -3.051156e-02  6.349207e-01
   endloop
 endfacet
 facet normal  0.000000e+00  0.000000e+00  1.000000e+00
   outer loop
     vertex  4.968255e-01  4.587302e-01  6.349207e-01
     vertex  2.749559e-01 -3.051156e-02  6.349207e-01
     vertex  5.867725e-01 -3.051156e-02  6.349207e-01
   endloop
 endfacet
 facet normal  0.000000e+00  0.000000e+00  1.000000e+00
   outer loop
     vertex  5.867725e-01  4.587302e-01  6.349207e-01
     vertex  4.968255e-01  4.587302e-01  6.349207e-01
     vertex  5.867725e-01 -3.051156e-02  6.349207e-01
   endloop
 endfacet
 facet normal  0.000000e+00  0.000000e+00  1.000000e+00
   outer loop
     vertex  4.968255e-01  7.691359e-01  6.349207e-01
     vertex -3.686073e-02  9.232804e-01  6.349207e-01
     vertex  4.968255e-01  4.587302e-01  6.349207e-01
   endloop
 endfacet
 facet normal  0.000000e+00  0.000000e+00  1.000000e+00
   outer loop
     vertex  5.867725e-01  9.232804e-01  6.349207e-01
     vertex  4.968255e-01  7.691359e-01  6.349207e-01
     vertex  5.867725e-01  7.691359e-01  6.349207e-01
   endloop
 endfacet
 facet normal  0.000000e+00  0.000000e+00  1.000000e+00
   outer loop
     vertex  5.867725e-01  9.232804e-01  6.349207e-01
     vertex -3.686073e-02  9.232804e-01  6.349207e-01
     vertex  4.968255e-01  7.691359e-01  6.349207e-01
   endloop
 endfacet
 facet normal  0.000000e+00  1.000000e+00  0.000000e+00
   outer loop
     vertex -3.686073e-02  9.232804e-01 -1.587302e-02
     vertex  5.867725e-01  9.232804e-01  6.349207e-01
     vertex  5.867725e-01  9.232804e-01 -1.587302e-02
   endloop
 endfacet
 facet normal  0.000000e+00  1.000000e+00  0.000000e+00
   outer loop
     vertex -3.686073e-02  9.232804e-01 -1.587302e-02
     vertex -3.686073e-02  9.232804e-01  6.349207e-01
     vertex  5.867725e-01  9.232804e-01  6.349207e-01
   endloop
 endfacet
 facet normal -1.000000e+00  0.000000e+00  0.000000e+00
   outer loop
     vertex -3.686073e-02 -3.051156e-02 -1.587302e-02
     vertex -3.686073e-02  9.232804e-01 -1.587302e-02
     vertex -3.686073e-02  9.232804e-01 -3.174603e-02
   endloop
 endfacet
 facet normal -1.000000e+00  0.000000e+00  0.000000e+00
   outer loop
     vertex -3.686073e-02 -3.051156e-02 -1.587302e-02
     vertex -3.686073e-02  9.232804e-01 -3.174603e-02
     vertex -3.686073e-02 -3.051156e-02 -3.174603e-02
   endloop
 endfacet
 facet normal  1.000000e+00  0.000000e+00  0.000000e+00
   outer loop
     vertex  5.867725e-01 -3.051156e-02 -1.587302e-02
     vertex  5.867725e-01  4.587302e-01  6.349207e-01
     vertex  5.867725e-01 -3.051156e-02  6.349207e-01
   endloop
 endfacet
 facet normal  1.000000e+00  0.000000e+00  0.000000e+00
   outer loop
     vertex  5.867725e-01  9.232804e-01 -1.587302e-02
     vertex  5.867725e-01  7.691359e-01  6.349207e-01
     vertex  5.867725e-01  4.587302e-01  6.349207e-01
   endloop
 endfacet
 facet normal  1.000000e+00  0.000000e+00 -0.000000e+00
   outer loop
     vertex  5.867725e-01  9.232804e-01 -1.587302e-02
     vertex  5.867725e-01  9.232804e-01  6.349207e-01
     vertex  5.867725e-01  7.691359e-01  6.349207e-01
   endloop
 endfacet
 facet normal  1.000000e+00  0.000000e+00  0.000000e+00
   outer loop
     vertex  5.867725e-01  9.232804e-01 -1.587302e-02
     vertex  5.867725e-01  4.587302e-01  6.349207e-01
     vertex  5.867725e-01 -3.051156e-02 -1.587302e-02
   endloop
 endfacet
 facet normal -0.000000e+00 -1.000000e+00  0.000000e+00
   outer loop
     vertex  5.867725e-01 -3.051156e-02 -1.587302e-02
     vertex  2.749559e-01 -3.051156e-02 -1.587302e-02
     vertex  2.749559e-01 -3.051156e-02 -3.174603e-02
   endloop
 endfacet
 facet normal  0.000000e+00 -1.000000e+00 -0.000000e+00
   outer loop
     vertex  5.867725e-01 -3.051156e-02 -1.587302e-02
     vertex  2.749559e-01 -3.051156e-02 -3.174603e-02
     vertex  5.867725e-01 -3.051156e-02 -3.174603e-02
   endloop
 endfacet
 facet normal  0.000000e+00  0.000000e+00 -1.000000e+00
   outer loop
     vertex -3.686073e-02  9.232804e-01 -3.174603e-02
     vertex  2.749559e-01 -3.051156e-02 -3.174603e-02
     vertex -3.686073e-02 -3.051156e-02 -3.174603e-02
   endloop
 endfacet
 facet normal  0.000000e+00 -0.000000e+00 -1.000000e+00
   outer loop
     vertex  5.867725e-01  9.232804e-01 -3.174603e-02
     vertex  5.867725e-01 -3.051156e-02 -3.174603e-02
     vertex  2.749559e-01 -3.051156e-02 -3.174603e-02
   endloop
 endfacet
 facet normal -0.000000e+00  0.000000e+00 -1.000000e+00
   outer loop
     vertex  5.867725e-01  9.232804e-01 -3.174603e-02
     vertex  2.749559e-01 -3.051156e-02 -3.174603e-02
     vertex -3.686073e-02  9.232804e-01 -3.174603e-02
   endloop
 endfacet
 facet normal  0.000000e+00  1.000000e+00  0.000000e+00
   outer loop
     vertex  5.867725e-01  7.691359e-01  6.349207e-01
     vertex  8.072311e-01  7.691359e-01  6.507937e-01
     vertex  8.072311e-01  7.691359e-01  6.349207e-01
   endloop
 endfacet
 facet normal  0.000000e+00  1.000000e+00  0.000000e+00
   outer loop
     vertex  4.968255e-01  7.691359e-01  6.507937e-01
     vertex  5.867725e-01  7.691359e-01  6.349207e-01
     vertex  4.968255e-01  7.691359e-01  6.349207e-01
   endloop
 endfacet
 facet normal -0.000000e+00  1.000000e+00  0.000000e+00
   outer loop
     vertex  4.968255e-01  7.691359e-01  6.507937e-01
     vertex  8.072311e-01  7.691359e-01  6.507937e-01
     vertex  5.867725e-01  7.691359e-01  6.349207e-01
   endloop
 endfacet
 facet normal -1.000000e+00  0.000000e+00  0.000000e+00
   outer loop
     vertex  4.968255e-01  4.587302e-01  6.507937e-01
     vertex  4.968255e-01  7.691359e-01  6.507937e-01
     vertex  4.968255e-01  7.691359e-01  6.349207e-01
   endloop
 endfacet
 facet normal -1.000000e+00  0.000000e+00  0.000000e+00
   outer loop
     vertex  4.968255e-01  4.587302e-01  6.507937e-01
     vertex  4.968255e-01  7.691359e-01  6.349207e-01
     vertex  4.968255e-01  4.587302e-01  6.349207e-01
   endloop
 endfacet
 facet normal  0.000000e+00 -1.000000e+00  0.000000e+00
   outer loop
     vertex  5.867725e-01  4.587302e-01  6.349207e-01
     vertex  4.968255e-01  4.587302e-01  6.507937e-01
     vertex  4.968255e-01  4.587302e-01  6.349207e-01
   endloop
 endfacet
 facet normal  0.000000e+00 -1.000000e+00 -0.000000e+00
   outer loop
     vertex  8.072311e-01  4.587302e-01  6.507937e-01
     vertex  5.867725e-01  4.587302e-01  6.349207e-01
     vertex  8.072311e-01  4.587302e-01  6.349207e-01
   endloop
 endfacet
 facet normal -0.000000e+00 -1.000000e+00  0.000000e+00
   outer loop
     vertex  8.072311e-01  4.587302e-01  6.507937e-01
     vertex  4.968255e-01  4.587302e-01  6.507937e-01
     vertex  5.867725e-01  4.587302e-01  6.349207e-01
   endloop
 endfacet
 facet normal -0.000000e+00  1.000000e+00  0.000000e+00
   outer loop
     vertex -3.686073e-02  9.232804e-01 -1.587302e-02
     vertex  5.867725e-01  9.232804e-01 -1.587302e-02
     vertex  5.867725e-01  9.232804e-01 -3.174603e-02
   endloop
 endfacet
 facet normal  0.000000e+00  1.000000e+00  0.000000e+00
   outer loop
     vertex -3.686073e-02  9.232804e-01 -1.587302e-02
     vertex  5.867725e-01  9.232804e-01 -3.174603e-02
     vertex -3.686073e-02  9.232804e-01 -3.174603e-02
   endloop
 endfacet
 facet normal  1.000000e+00  0.000000e+00  0.000000e+00
   outer loop
     vertex  5.867725e-01  9.232804e-01 -1.587302e-02
     vertex  5.867725e-01 -3.051156e-02 -1.587302e-02
     vertex  5.867725e-01 -3.051156e-02 -3.174603e-02
   endloop
 endfacet
 facet normal  1.000000e+00  0.000000e+00  0.000000e+00
   outer loop
     vertex  5.867725e-01  9.232804e-01 -1.587302e-02
     vertex  5.867725e-01 -3.051156e-02 -3.174603e-02
     vertex  5.867725e-01  9.232804e-01 -3.174603e-02
   endloop
 endfacet
 facet normal -0.000000e+00  0.000000e+00 -1.000000e+00
   outer loop
     vertex  8.072311e-01  7.691359e-01  6.349207e-01
     vertex  5.867725e-01  4.587302e-01  6.349207e-01
     vertex  5.867725e-01  7.691359e-01  6.349207e-01
   endloop
 endfacet
 facet normal  0.000000e+00 -0.000000e+00 -1.000000e+00
   outer loop
     vertex  8.072311e-01  7.691359e-01  6.349207e-01
     vertex  8.072311e-01  4.587302e-01  6.349207e-01
     vertex  5.867725e-01  4.587302e-01  6.349207e-01
   endloop
 endfacet
 facet normal  1.000000e+00  0.000000e+00  0.000000e+00
   outer loop
     vertex  8.072311e-01  7.691359e-01  6.507937e-01
     vertex  8.072311e-01  4.587302e-01  6.507937e-01
     vertex  8.072311e-01  4.587302e-01  6.349207e-01
   endloop
 endfacet
 facet normal  1.000000e+00  0.000000e+00  0.000000e+00
   outer loop
     vertex  8.072311e-01  7.691359e-01  6.507937e-01
     vertex  8.072311e-01  4.587302e-01  6.349207e-01
     vertex  8.072311e-01  7.691359e-01  6.349207e-01
   endloop
 endfacet
 facet normal  0.000000e+00  1.000000e+00  0.000000e+00
   outer loop
     vertex  4.968255e-01  7.691359e-01  6.507937e-01
     vertex  8.072311e-01  7.691359e-01  9.523810e-01
     vertex  8.072311e-01  7.691359e-01  6.507937e-01
   endloop
 endfacet
 facet normal  0.000000e+00  1.000000e+00  0.000000e+00
   outer loop
     vertex  4.968255e-01  7.691359e-01  6.507937e-01
     vertex  4.968255e-01  7.691359e-01  9.523810e-01
     vertex  8.072311e-01  7.691359e-01  9.523810e-01
   endloop
 endfacet
 facet normal -1.000000e+00  0.000000e+00  0.000000e+00
   outer loop
     vertex  4.968255e-01  4.587302e-01  6.507937e-01
     vertex  4.968255e-01  7.691359e-01  9.523810e-01
     vertex  4.968255e-01  7.691359e-01  6.507937e-01
   endloop
 endfacet
 facet normal -1.000000e+00  0.000000e+00  0.000000e+00
   outer loop
     vertex  4.968255e-01  4.587302e-01  6.507937e-01
     vertex  4.968255e-01  4.587302e-01  9.523810e-01
     vertex  4.968255e-01  7.691359e-01  9.523810e-01
   endloop
 endfacet
 facet normal  0.000000e+00 -1.000000e+00  0.000000e+00
   outer loop
     vertex  8.072311e-01  4.587302e-01  6.507937e-01
     vertex  4.968255e-01  4.587302e-01  9.523810e-01
     vertex  4.968255e-01  4.587302e-01  6.507937e-01
   endloop
 endfacet
 facet normal  0.000000e+00 -1.000000e+00  0.000000e+00
   outer loop
     vertex  8.072311e-01  4.587302e-01  6.507937e-01
     vertex  8.072311e-01  4.587302e-01  9.523810e-01
     vertex  4.968255e-01  4.587302e-01  9.523810e-01
   endloop
 endfacet
 facet normal  1.000000e+00  0.000000e+00  0.000000e+00
   outer loop
     vertex  8.072311e-01  7.691359e-01  6.507937e-01
     vertex  8.072311e-01  4.587302e-01  9.523810e-01
     vertex  8.072311e-01  4.587302e-01  6.507937e-01
   endloop
 endfacet
 facet normal  1.000000e+00  0.000000e+00 -0.000000e+00
   outer loop
     vertex  8.072311e-01  7.691359e-01  6.507937e-01
     vertex  8.072311e-01  7.691359e-01  9.523810e-01
     vertex  8.072311e-01  4.587302e-01  9.523810e-01
   endloop
 endfacet
 facet normal  0.000000e+00  0.000000e+00  1.000000e+00
   outer loop
     vertex  8.072311e-01  7.691359e-01  9.523810e-01
     vertex  4.968255e-01  7.691359e-01  9.523810e-01
     vertex  4.968255e-01  4.587302e-01  9.523810e-01
   endloop
 endfacet
 facet normal  0.000000e+00  0.000000e+00  1.000000e+00
   outer loop
     vertex  8.072311e-01  7.691359e-01  9.523810e-01
     vertex  4.968255e-01  4.587302e-01  9.523810e-01
     vertex  8.072311e-01  4.587302e-01  9.523810e-01
   endloop
 endfacet
endsolid
