solid 
 facet normal -6.000000e-01  0.000000e+00 -8.000000e-01
   outer loop
     vertex -4.682540e-01 -1.587302e-02  4.460317e-01
     vertex -7.730159e-01 -8.888889e-01  6.746032e-01
     vertex -7.730159e-01 -1.587302e-02  6.746032e-01
   endloop
 endfacet
 facet normal -6.000000e-01 -0.000000e+00 -8.000000e-01
   outer loop
     vertex -4.682540e-01 -1.587302e-02  4.460317e-01
     vertex -4.682540e-01 -8.888889e-01  4.460317e-01
     vertex -7.730159e-01 -8.888889e-01  6.746032e-01
   endloop
 endfacet
 facet normal -7.071066e-01  0.000000e+00  7.071069e-01
   outer loop
     vertex -7.730159e-01 -1.587302e-02  6.746032e-01
     vertex -6.206349e-01 -8.888889e-01  8.269841e-01
     vertex -6.206349e-01 -1.587302e-02  8.269841e-01
   endloop
 endfacet
 facet normal -7.071066e-01  0.000000e+00  7.071069e-01
   outer loop
     vertex -7.730159e-01 -1.587302e-02  6.746032e-01
     vertex -7.730159e-01 -8.888889e-01  6.746032e-01
     vertex -6.206349e-01 -8.888889e-01  8.269841e-01
   endloop
 endfacet
 facet normal -8.725060e-01  0.000000e+00  4.886034e-01
   outer loop
     vertex -7.349207e-01 -1.587302e-02 -3.015882e-02
     vertex -4.682540e-01 -8.888889e-01  4.460317e-01
     vertex -4.682540e-01 -1.587302e-02  4.460317e-01
   endloop
 endfacet
 facet normal -8.725060e-01  0.000000e+00  4.886034e-01
   outer loop
     vertex -7.349207e-01 -1.587302e-02 -3.015882e-02
     vertex -7.349207e-01 -8.888889e-01 -3.015882e-02
     vertex -4.682540e-01 -8.888889e-01  4.460317e-01
   endloop
 endfacet
 facet normal -6.000000e-01  0.000000e+00 -8.000000e-01
   outer loop
     vertex -4.682540e-01 -1.587302e-02  4.460317e-01
     vertex -7.730159e-01 -1.587302e-02  6.746032e-01
     vertex -7.730159e-01  0.000000e+00  6.746032e-01
   endloop
 endfacet
 facet normal -6.000000e-01  0.000000e+00 -8.000000e-01
   outer loop
     vertex -4.682540e-01 -1.587302e-02  4.460317e-01
     vertex -7.730159e-01  0.000000e+00  6.746032e-01
     vertex -4.682540e-01  0.000000e+00  4.460317e-01
   endloop
 endfacet
 facet normal  0.000000e+00 -1.000000e+00 -0.000000e+00
   outer loop
     vertex -4.682540e-01 -8.888889e-01  4.460317e-01
     vertex -7.349207e-01 -8.888889e-01 -3.015882e-02
     vertex -4.920632e-02 -8.888889e-01 -1.111120e-02
   endloop
 endfacet
 facet normal -0.000000e+00 -1.000000e+00  0.000000e+00
   outer loop
     vertex -4.492064e-01 -8.888889e-01  5.603175e-01
     vertex -7.730159e-01 -8.888889e-01  6.746032e-01
     vertex -4.682540e-01 -8.888889e-01  4.460317e-01
   endloop
 endfacet
 facet normal  0.000000e+00 -1.000000e+00 -0.000000e+00
   outer loop
     vertex -4.492064e-01 -8.888889e-01  5.603175e-01
     vertex -4.682540e-01 -8.888889e-01  4.460317e-01
     vertex -4.920632e-02 -8.888889e-01 -1.111120e-02
   endloop
 endfacet
 facet normal  0.000000e+00 -1.000000e+00 -0.000000e+00
   outer loop
     vertex -6.206349e-01 -8.888889e-01  8.269841e-01
     vertex -7.730159e-01 -8.888889e-01  6.746032e-01
     vertex -4.492064e-01 -8.888889e-01  5.603175e-01
   endloop
 endfacet
 facet normal  0.000000e+00 -1.000000e+00 -0.000000e+00
   outer loop
     vertex -5.786113e-01 -8.888889e-01  8.515338e-01
     vertex -6.206349e-01 -8.888889e-01  8.269841e-01
     vertex -4.492064e-01 -8.888889e-01  5.603175e-01
   endloop
 endfacet
 facet normal  0.000000e+00 -1.000000e+00 -0.000000e+00
   outer loop
     vertex -5.348380e-01 -8.888889e-01  8.728075e-01
     vertex -5.786113e-01 -8.888889e-01  8.515338e-01
     vertex -4.492064e-01 -8.888889e-01  5.603175e-01
   endloop
 endfacet
 facet normal  0.000000e+00 -1.000000e+00 -0.000000e+00
   outer loop
     vertex -4.895700e-01 -8.888889e-01  8.906815e-01
     vertex -5.348380e-01 -8.888889e-01  8.728075e-01
     vertex -4.492064e-01 -8.888889e-01  5.603175e-01
   endloop
 endfacet
 facet normal  0.000000e+00 -1.000000e+00  0.000000e+00
   outer loop
     vertex -4.430709e-01 -8.888889e-01  9.050517e-01
     vertex -4.895700e-01 -8.888889e-01  8.906815e-01
     vertex -4.492064e-01 -8.888889e-01  5.603175e-01
   endloop
 endfacet
 facet normal  0.000000e+00 -1.000000e+00  0.000000e+00
   outer loop
     vertex -3.956114e-01 -8.888889e-01  9.158344e-01
     vertex -4.430709e-01 -8.888889e-01  9.050517e-01
     vertex -4.492064e-01 -8.888889e-01  5.603175e-01
   endloop
 endfacet
 facet normal  0.000000e+00 -1.000000e+00  0.000000e+00
   outer loop
     vertex -3.474679e-01 -8.888889e-01  9.229668e-01
     vertex -3.956114e-01 -8.888889e-01  9.158344e-01
     vertex -4.492064e-01 -8.888889e-01  5.603175e-01
   endloop
 endfacet
 facet normal  0.000000e+00 -1.000000e+00  0.000000e+00
   outer loop
     vertex -2.989206e-01 -8.888889e-01  9.264073e-01
     vertex -3.474679e-01 -8.888889e-01  9.229668e-01
     vertex -4.492064e-01 -8.888889e-01  5.603175e-01
   endloop
 endfacet
 facet normal -0.000000e+00 -1.000000e+00  0.000000e+00
   outer loop
     vertex -2.502524e-01 -8.888889e-01  9.261360e-01
     vertex -2.989206e-01 -8.888889e-01  9.264073e-01
     vertex -4.492064e-01 -8.888889e-01  5.603175e-01
   endloop
 endfacet
 facet normal -0.000000e+00 -1.000000e+00  0.000000e+00
   outer loop
     vertex -2.017465e-01 -8.888889e-01  9.221544e-01
     vertex -2.502524e-01 -8.888889e-01  9.261360e-01
     vertex -4.492064e-01 -8.888889e-01  5.603175e-01
   endloop
 endfacet
 facet normal -0.000000e+00 -1.000000e+00  0.000000e+00
   outer loop
     vertex -1.536855e-01 -8.888889e-01  9.144857e-01
     vertex -2.017465e-01 -8.888889e-01  9.221544e-01
     vertex -4.492064e-01 -8.888889e-01  5.603175e-01
   endloop
 endfacet
 facet normal -0.000000e+00 -1.000000e+00  0.000000e+00
   outer loop
     vertex -1.063492e-01 -8.888889e-01  9.031746e-01
     vertex -1.536855e-01 -8.888889e-01  9.144857e-01
     vertex -4.492064e-01 -8.888889e-01  5.603175e-01
   endloop
 endfacet
 facet normal  2.324094e-01  0.000000e+00  9.726180e-01
   outer loop
     vertex -1.536855e-01 -1.587302e-02  9.144857e-01
     vertex -1.063492e-01 -8.888889e-01  9.031746e-01
     vertex -1.063492e-01 -1.587302e-02  9.031746e-01
   endloop
 endfacet
 facet normal  2.324094e-01  0.000000e+00  9.726180e-01
   outer loop
     vertex -1.536855e-01 -1.587302e-02  9.144857e-01
     vertex -1.536855e-01 -8.888889e-01  9.144857e-01
     vertex -1.063492e-01 -8.888889e-01  9.031746e-01
   endloop
 endfacet
 facet normal  1.575683e-01  0.000000e+00  9.875081e-01
   outer loop
     vertex -2.017465e-01 -1.587302e-02  9.221544e-01
     vertex -2.017465e-01 -8.888889e-01  9.221544e-01
     vertex -1.536855e-01 -8.888889e-01  9.144857e-01
   endloop
 endfacet
 facet normal  1.575683e-01  0.000000e+00  9.875081e-01
   outer loop
     vertex -2.017465e-01 -1.587302e-02  9.221544e-01
     vertex -1.536855e-01 -8.888889e-01  9.144857e-01
     vertex -1.536855e-01 -1.587302e-02  9.144857e-01
   endloop
 endfacet
 facet normal  8.180965e-02  0.000000e+00  9.966480e-01
   outer loop
     vertex -2.502524e-01 -1.587302e-02  9.261360e-01
     vertex -2.502524e-01 -8.888889e-01  9.261360e-01
     vertex -2.017465e-01 -8.888889e-01  9.221544e-01
   endloop
 endfacet
 facet normal  8.180965e-02  0.000000e+00  9.966480e-01
   outer loop
     vertex -2.502524e-01 -1.587302e-02  9.261360e-01
     vertex -2.017465e-01 -8.888889e-01  9.221544e-01
     vertex -2.017465e-01 -1.587302e-02  9.221544e-01
   endloop
 endfacet
 facet normal  5.574646e-03  0.000000e+00  9.999845e-01
   outer loop
     vertex -2.989206e-01 -1.587302e-02  9.264073e-01
     vertex -2.989206e-01 -8.888889e-01  9.264073e-01
     vertex -2.502524e-01 -8.888889e-01  9.261360e-01
   endloop
 endfacet
 facet normal  5.574646e-03  0.000000e+00  9.999845e-01
   outer loop
     vertex -2.989206e-01 -1.587302e-02  9.264073e-01
     vertex -2.502524e-01 -8.888889e-01  9.261360e-01
     vertex -2.502524e-01 -1.587302e-02  9.261360e-01
   endloop
 endfacet
 facet normal -7.069282e-02  0.000000e+00  9.974981e-01
   outer loop
     vertex -3.474679e-01 -1.587302e-02  9.229668e-01
     vertex -3.474679e-01 -8.888889e-01  9.229668e-01
     vertex -2.989206e-01 -8.888889e-01  9.264073e-01
   endloop
 endfacet
 facet normal -7.069282e-02  0.000000e+00  9.974981e-01
   outer loop
     vertex -3.474679e-01 -1.587302e-02  9.229668e-01
     vertex -2.989206e-01 -8.888889e-01  9.264073e-01
     vertex -2.989206e-01 -1.587302e-02  9.264073e-01
   endloop
 endfacet
 facet normal -1.465486e-01  0.000000e+00  9.892035e-01
   outer loop
     vertex -3.956114e-01 -1.587302e-02  9.158344e-01
     vertex -3.956114e-01 -8.888889e-01  9.158344e-01
     vertex -3.474679e-01 -8.888889e-01  9.229668e-01
   endloop
 endfacet
 facet normal -1.465486e-01  0.000000e+00  9.892035e-01
   outer loop
     vertex -3.956114e-01 -1.587302e-02  9.158344e-01
     vertex -3.474679e-01 -8.888889e-01  9.229668e-01
     vertex -3.474679e-01 -1.587302e-02  9.229668e-01
   endloop
 endfacet
 facet normal -2.215511e-01  0.000000e+00  9.751488e-01
   outer loop
     vertex -4.430709e-01 -1.587302e-02  9.050517e-01
     vertex -4.430709e-01 -8.888889e-01  9.050517e-01
     vertex -3.956114e-01 -8.888889e-01  9.158344e-01
   endloop
 endfacet
 facet normal -2.215511e-01  0.000000e+00  9.751488e-01
   outer loop
     vertex -4.430709e-01 -1.587302e-02  9.050517e-01
     vertex -3.956114e-01 -8.888889e-01  9.158344e-01
     vertex -3.956114e-01 -1.587302e-02  9.158344e-01
   endloop
 endfacet
 facet normal -2.952635e-01  0.000000e+00  9.554158e-01
   outer loop
     vertex -4.895700e-01 -1.587302e-02  8.906815e-01
     vertex -4.895700e-01 -8.888889e-01  8.906815e-01
     vertex -4.430709e-01 -8.888889e-01  9.050517e-01
   endloop
 endfacet
 facet normal -2.952635e-01  0.000000e+00  9.554158e-01
   outer loop
     vertex -4.895700e-01 -1.587302e-02  8.906815e-01
     vertex -4.430709e-01 -8.888889e-01  9.050517e-01
     vertex -4.430709e-01 -1.587302e-02  9.050517e-01
   endloop
 endfacet
 facet normal -3.672567e-01  0.000000e+00  9.301196e-01
   outer loop
     vertex -5.348380e-01 -1.587302e-02  8.728075e-01
     vertex -5.348380e-01 -8.888889e-01  8.728075e-01
     vertex -4.895700e-01 -8.888889e-01  8.906815e-01
   endloop
 endfacet
 facet normal -3.672567e-01  0.000000e+00  9.301196e-01
   outer loop
     vertex -5.348380e-01 -1.587302e-02  8.728075e-01
     vertex -4.895700e-01 -8.888889e-01  8.906815e-01
     vertex -4.895700e-01 -1.587302e-02  8.906815e-01
   endloop
 endfacet
 facet normal -4.371113e-01  0.000000e+00  8.994074e-01
   outer loop
     vertex -5.786113e-01 -1.587302e-02  8.515338e-01
     vertex -5.786113e-01 -8.888889e-01  8.515338e-01
     vertex -5.348380e-01 -8.888889e-01  8.728075e-01
   endloop
 endfacet
 facet normal -4.371113e-01  0.000000e+00  8.994074e-01
   outer loop
     vertex -5.786113e-01 -1.587302e-02  8.515338e-01
     vertex -5.348380e-01 -8.888889e-01  8.728075e-01
     vertex -5.348380e-01 -1.587302e-02  8.728075e-01
   endloop
 endfacet
 facet normal -5.044207e-01  0.000000e+00  8.634581e-01
   outer loop
     vertex -6.206349e-01 -1.587302e-02  8.269841e-01
     vertex -6.206349e-01 -8.888889e-01  8.269841e-01
     vertex -5.786113e-01 -8.888889e-01  8.515338e-01
   endloop
 endfacet
 facet normal -5.044207e-01  0.000000e+00  8.634581e-01
   outer loop
     vertex -6.206349e-01 -1.587302e-02  8.269841e-01
     vertex -5.786113e-01 -8.888889e-01  8.515338e-01
     vertex -5.786113e-01 -1.587302e-02  8.515338e-01
   endloop
 endfacet
 facet normal -7.071066e-01  0.000000e+00  7.071069e-01
   outer loop
     vertex -7.730159e-01 -1.587302e-02  6.746032e-01
     vertex -6.206349e-01 -1.587302e-02  8.269841e-01
     vertex -6.206349e-01  0.000000e+00  8.269841e-01
   endloop
 endfacet
 facet normal -7.071066e-01  0.000000e+00  7.071069e-01
   outer loop
     vertex -7.730159e-01 -1.587302e-02  6.746032e-01
     vertex -6.206349e-01  0.000000e+00  8.269841e-01
     vertex -7.730159e-01  0.000000e+00  6.746032e-01
   endloop
 endfacet
 facet normal  2.776706e-02  0.000000e+00 -9.996144e-01
   outer loop
     vertex -4.920632e-02 -1.587302e-02 -1.111120e-02
     vertex -7.349207e-01 -8.888889e-01 -3.015882e-02
     vertex -7.349207e-01 -1.587302e-02 -3.015882e-02
   endloop
 endfacet
 facet normal  2.776706e-02  0.000000e+00 -9.996144e-01
   outer loop
     vertex -4.920632e-02 -1.587302e-02 -1.111120e-02
     vertex -4.920632e-02 -8.888889e-01 -1.111120e-02
     vertex -7.349207e-01 -8.888889e-01 -3.015882e-02
   endloop
 endfacet
 facet normal -8.725060e-01  0.000000e+00  4.886034e-01
   outer loop
     vertex -7.349207e-01 -1.587302e-02 -3.015882e-02
     vertex -4.682540e-01 -1.587302e-02  4.460317e-01
     vertex -4.682540e-01  0.000000e+00  4.460317e-01
   endloop
 endfacet
 facet normal -8.725060e-01  0.000000e+00  4.886034e-01
   outer loop
     vertex -7.349207e-01 -1.587302e-02 -3.015882e-02
     vertex -4.682540e-01  0.000000e+00  4.460317e-01
     vertex -7.349207e-01  0.000000e+00 -3.015882e-02
   endloop
 endfacet
 facet normal  0.000000e+00  1.000000e+00  0.000000e+00
   outer loop
     vertex -4.682540e-01 -4.510281e-17  4.460317e-01
     vertex -4.920632e-02 -4.510281e-17 -1.111120e-02
     vertex -7.349207e-01 -4.510281e-17 -3.015882e-02
   endloop
 endfacet
 facet normal  0.000000e+00  1.000000e+00  0.000000e+00
   outer loop
     vertex -4.492064e-01 -4.510281e-17  5.603175e-01
     vertex -4.682540e-01 -4.510281e-17  4.460317e-01
     vertex -7.730159e-01 -4.510281e-17  6.746032e-01
   endloop
 endfacet
 facet normal  0.000000e+00  1.000000e+00  0.000000e+00
   outer loop
     vertex -4.492064e-01 -4.510281e-17  5.603175e-01
     vertex -4.920632e-02 -4.510281e-17 -1.111120e-02
     vertex -4.682540e-01 -4.510281e-17  4.460317e-01
   endloop
 endfacet
 facet normal  0.000000e+00  1.000000e+00  0.000000e+00
   outer loop
     vertex -6.206349e-01 -4.510281e-17  8.269841e-01
     vertex -4.492064e-01 -4.510281e-17  5.603175e-01
     vertex -7.730159e-01 -4.510281e-17  6.746032e-01
   endloop
 endfacet
 facet normal  0.000000e+00  1.000000e+00  0.000000e+00
   outer loop
     vertex -5.786113e-01 -4.510281e-17  8.515338e-01
     vertex -4.492064e-01 -4.510281e-17  5.603175e-01
     vertex -6.206349e-01 -4.510281e-17  8.269841e-01
   endloop
 endfacet
 facet normal  0.000000e+00  1.000000e+00  0.000000e+00
   outer loop
     vertex -5.348380e-01 -4.510281e-17  8.728075e-01
     vertex -4.492064e-01 -4.510281e-17  5.603175e-01
     vertex -5.786113e-01 -4.510281e-17  8.515338e-01
   endloop
 endfacet
 facet normal  0.000000e+00  1.000000e+00  0.000000e+00
   outer loop
     vertex -4.895700e-01 -4.510281e-17  8.906815e-01
     vertex -4.492064e-01 -4.510281e-17  5.603175e-01
     vertex -5.348380e-01 -4.510281e-17  8.728075e-01
   endloop
 endfacet
 facet normal  0.000000e+00  1.000000e+00  0.000000e+00
   outer loop
     vertex -4.430709e-01 -4.510281e-17  9.050517e-01
     vertex -4.492064e-01 -4.510281e-17  5.603175e-01
     vertex -4.895700e-01 -4.510281e-17  8.906815e-01
   endloop
 endfacet
 facet normal  0.000000e+00  1.000000e+00  0.000000e+00
   outer loop
     vertex -3.956114e-01 -4.510281e-17  9.158344e-01
     vertex -4.492064e-01 -4.510281e-17  5.603175e-01
     vertex -4.430709e-01 -4.510281e-17  9.050517e-01
   endloop
 endfacet
 facet normal  0.000000e+00  1.000000e+00  0.000000e+00
   outer loop
     vertex -3.474679e-01 -4.510281e-17  9.229668e-01
     vertex -4.492064e-01 -4.510281e-17  5.603175e-01
     vertex -3.956114e-01 -4.510281e-17  9.158344e-01
   endloop
 endfacet
 facet normal  0.000000e+00  1.000000e+00  0.000000e+00
   outer loop
     vertex -2.989206e-01 -4.510281e-17  9.264073e-01
     vertex -4.492064e-01 -4.510281e-17  5.603175e-01
     vertex -3.474679e-01 -4.510281e-17  9.229668e-01
   endloop
 endfacet
 facet normal  0.000000e+00  1.000000e+00  0.000000e+00
   outer loop
     vertex -2.502524e-01 -4.510281e-17  9.261360e-01
     vertex -4.492064e-01 -4.510281e-17  5.603175e-01
     vertex -2.989206e-01 -4.510281e-17  9.264073e-01
   endloop
 endfacet
 facet normal  0.000000e+00  1.000000e+00  0.000000e+00
   outer loop
     vertex -2.017465e-01 -4.510281e-17  9.221544e-01
     vertex -4.492064e-01 -4.510281e-17  5.603175e-01
     vertex -2.502524e-01 -4.510281e-17  9.261360e-01
   endloop
 endfacet
 facet normal  0.000000e+00  1.000000e+00  0.000000e+00
   outer loop
     vertex -1.536855e-01 -4.510281e-17  9.144857e-01
     vertex -4.492064e-01 -4.510281e-17  5.603175e-01
     vertex -2.017465e-01 -4.510281e-17  9.221544e-01
   endloop
 endfacet
 facet normal  0.000000e+00  1.000000e+00  0.000000e+00
   outer loop
     vertex -1.063492e-01 -4.510281e-17  9.031746e-01
     vertex -4.492064e-01 -4.510281e-17  5.603175e-01
     vertex -1.536855e-01 -4.510281e-17  9.144857e-01
   endloop
 endfacet
 facet normal  8.192319e-01  0.000000e+00  5.734623e-01
   outer loop
     vertex -4.492064e-01 -1.587302e-02  5.603175e-01
     vertex -4.920632e-02 -8.888889e-01 -1.111120e-02
     vertex -4.920632e-02 -1.587302e-02 -1.111120e-02
   endloop
 endfacet
 facet normal  8.192319e-01  0.000000e+00  5.734623e-01
   outer loop
     vertex -4.492064e-01 -1.587302e-02  5.603175e-01
     vertex -4.492064e-01 -8.888889e-01  5.603175e-01
     vertex -4.920632e-02 -8.888889e-01 -1.111120e-02
   endloop
 endfacet
 facet normal  7.071067e-01  0.000000e+00 -7.071068e-01
   outer loop
     vertex -1.063492e-01 -1.587302e-02  9.031746e-01
     vertex -4.492064e-01 -8.888889e-01  5.603175e-01
     vertex -4.492064e-01 -1.587302e-02  5.603175e-01
   endloop
 endfacet
 facet normal  7.071067e-01  0.000000e+00 -7.071068e-01
   outer loop
     vertex -1.063492e-01 -1.587302e-02  9.031746e-01
     vertex -1.063492e-01 -8.888889e-01  9.031746e-01
     vertex -4.492064e-01 -8.888889e-01  5.603175e-01
   endloop
 endfacet
 facet normal  2.324094e-01  0.000000e+00  9.726180e-01
   outer loop
     vertex -1.536855e-01 -1.587302e-02  9.144857e-01
     vertex -1.063492e-01 -1.587302e-02  9.031746e-01
     vertex -1.063492e-01  0.000000e+00  9.031746e-01
   endloop
 endfacet
 facet normal  2.324094e-01 -0.000000e+00  9.726180e-01
   outer loop
     vertex -1.536855e-01 -1.587302e-02  9.144857e-01
     vertex -1.063492e-01  0.000000e+00  9.031746e-01
     vertex -1.536855e-01  0.000000e+00  9.144857e-01
   endloop
 endfacet
 facet normal  1.575683e-01 -0.000000e+00  9.875081e-01
   outer loop
     vertex -2.017465e-01 -1.587302e-02  9.221544e-01
     vertex -1.536855e-01  0.000000e+00  9.144857e-01
     vertex -2.017465e-01  0.000000e+00  9.221544e-01
   endloop
 endfacet
 facet normal  1.575683e-01  0.000000e+00  9.875081e-01
   outer loop
     vertex -2.017465e-01 -1.587302e-02  9.221544e-01
     vertex -1.536855e-01 -1.587302e-02  9.144857e-01
     vertex -1.536855e-01  0.000000e+00  9.144857e-01
   endloop
 endfacet
 facet normal  8.180965e-02 -0.000000e+00  9.966480e-01
   outer loop
     vertex -2.502524e-01 -1.587302e-02  9.261360e-01
     vertex -2.017465e-01  0.000000e+00  9.221544e-01
     vertex -2.502524e-01  0.000000e+00  9.261360e-01
   endloop
 endfacet
 facet normal  8.180965e-02  0.000000e+00  9.966480e-01
   outer loop
     vertex -2.502524e-01 -1.587302e-02  9.261360e-01
     vertex -2.017465e-01 -1.587302e-02  9.221544e-01
     vertex -2.017465e-01  0.000000e+00  9.221544e-01
   endloop
 endfacet
 facet normal  5.574646e-03 -0.000000e+00  9.999845e-01
   outer loop
     vertex -2.989206e-01 -1.587302e-02  9.264073e-01
     vertex -2.502524e-01  0.000000e+00  9.261360e-01
     vertex -2.989206e-01  0.000000e+00  9.264073e-01
   endloop
 endfacet
 facet normal  5.574646e-03  0.000000e+00  9.999845e-01
   outer loop
     vertex -2.989206e-01 -1.587302e-02  9.264073e-01
     vertex -2.502524e-01 -1.587302e-02  9.261360e-01
     vertex -2.502524e-01  0.000000e+00  9.261360e-01
   endloop
 endfacet
 facet normal -7.069282e-02  0.000000e+00  9.974981e-01
   outer loop
     vertex -3.474679e-01 -1.587302e-02  9.229668e-01
     vertex -2.989206e-01  0.000000e+00  9.264073e-01
     vertex -3.474679e-01  0.000000e+00  9.229668e-01
   endloop
 endfacet
 facet normal -7.069282e-02  0.000000e+00  9.974981e-01
   outer loop
     vertex -3.474679e-01 -1.587302e-02  9.229668e-01
     vertex -2.989206e-01 -1.587302e-02  9.264073e-01
     vertex -2.989206e-01  0.000000e+00  9.264073e-01
   endloop
 endfacet
 facet normal -1.465486e-01  0.000000e+00  9.892035e-01
   outer loop
     vertex -3.956114e-01 -1.587302e-02  9.158344e-01
     vertex -3.474679e-01  0.000000e+00  9.229668e-01
     vertex -3.956114e-01  0.000000e+00  9.158344e-01
   endloop
 endfacet
 facet normal -1.465486e-01  0.000000e+00  9.892035e-01
   outer loop
     vertex -3.956114e-01 -1.587302e-02  9.158344e-01
     vertex -3.474679e-01 -1.587302e-02  9.229668e-01
     vertex -3.474679e-01  0.000000e+00  9.229668e-01
   endloop
 endfacet
 facet normal -2.215511e-01  0.000000e+00  9.751488e-01
   outer loop
     vertex -4.430709e-01 -1.587302e-02  9.050517e-01
     vertex -3.956114e-01  0.000000e+00  9.158344e-01
     vertex -4.430709e-01  0.000000e+00  9.050517e-01
   endloop
 endfacet
 facet normal -2.215511e-01  0.000000e+00  9.751488e-01
   outer loop
     vertex -4.430709e-01 -1.587302e-02  9.050517e-01
     vertex -3.956114e-01 -1.587302e-02  9.158344e-01
     vertex -3.956114e-01  0.000000e+00  9.158344e-01
   endloop
 endfacet
 facet normal -2.952635e-01  0.000000e+00  9.554158e-01
   outer loop
     vertex -4.895700e-01 -1.587302e-02  8.906815e-01
     vertex -4.430709e-01  0.000000e+00  9.050517e-01
     vertex -4.895700e-01  0.000000e+00  8.906815e-01
   endloop
 endfacet
 facet normal -2.952635e-01  0.000000e+00  9.554158e-01
   outer loop
     vertex -4.895700e-01 -1.587302e-02  8.906815e-01
     vertex -4.430709e-01 -1.587302e-02  9.050517e-01
     vertex -4.430709e-01  0.000000e+00  9.050517e-01
   endloop
 endfacet
 facet normal -3.672567e-01  0.000000e+00  9.301196e-01
   outer loop
     vertex -5.348380e-01 -1.587302e-02  8.728075e-01
     vertex -4.895700e-01  0.000000e+00  8.906815e-01
     vertex -5.348380e-01  0.000000e+00  8.728075e-01
   endloop
 endfacet
 facet normal -3.672567e-01  0.000000e+00  9.301196e-01
   outer loop
     vertex -5.348380e-01 -1.587302e-02  8.728075e-01
     vertex -4.895700e-01 -1.587302e-02  8.906815e-01
     vertex -4.895700e-01  0.000000e+00  8.906815e-01
   endloop
 endfacet
 facet normal -4.371113e-01  0.000000e+00  8.994074e-01
   outer loop
     vertex -5.786113e-01 -1.587302e-02  8.515338e-01
     vertex -5.348380e-01  0.000000e+00  8.728075e-01
     vertex -5.786113e-01  0.000000e+00  8.515338e-01
   endloop
 endfacet
 facet normal -4.371113e-01  0.000000e+00  8.994074e-01
   outer loop
     vertex -5.786113e-01 -1.587302e-02  8.515338e-01
     vertex -5.348380e-01 -1.587302e-02  8.728075e-01
     vertex -5.348380e-01  0.000000e+00  8.728075e-01
   endloop
 endfacet
 facet normal -5.044207e-01  0.000000e+00  8.634581e-01
   outer loop
     vertex -6.206349e-01 -1.587302e-02  8.269841e-01
     vertex -5.786113e-01  0.000000e+00  8.515338e-01
     vertex -6.206349e-01  0.000000e+00  8.269841e-01
   endloop
 endfacet
 facet normal -5.044207e-01  0.000000e+00  8.634581e-01
   outer loop
     vertex -6.206349e-01 -1.587302e-02  8.269841e-01
     vertex -5.786113e-01 -1.587302e-02  8.515338e-01
     vertex -5.786113e-01  0.000000e+00  8.515338e-01
   endloop
 endfacet
 facet normal  2.776706e-02  0.000000e+00 -9.996144e-01
   outer loop
     vertex -4.920632e-02 -1.587302e-02 -1.111120e-02
     vertex -7.349207e-01 -1.587302e-02 -3.015882e-02
     vertex -7.349207e-01  0.000000e+00 -3.015882e-02
   endloop
 endfacet
 facet normal  2.776706e-02  0.000000e+00 -9.996144e-01
   outer loop
     vertex -4.920632e-02 -1.587302e-02 -1.111120e-02
     vertex -7.349207e-01  0.000000e+00 -3.015882e-02
     vertex -4.920632e-02  0.000000e+00 -1.111120e-02
   endloop
 endfacet
 facet normal  8.192319e-01  0.000000e+00  5.734623e-01
   outer loop
     vertex -4.492064e-01 -1.587302e-02  5.603175e-01
     vertex -4.920632e-02 -1.587302e-02 -1.111120e-02
     vertex -4.920632e-02  0.000000e+00 -1.111120e-02
   endloop
 endfacet
 facet normal  8.192319e-01 -0.000000e+00  5.734623e-01
   outer loop
     vertex -4.492064e-01 -1.587302e-02  5.603175e-01
     vertex -4.920632e-02  0.000000e+00 -1.111120e-02
     vertex -4.492064e-01  0.000000e+00  5.603175e-01
   endloop
 endfacet
 facet normal  7.071067e-01  0.000000e+00 -7.071068e-01
   outer loop
     vertex -1.063492e-01 -1.587302e-02  9.031746e-01
     vertex -4.492064e-01 -1.587302e-02  5.603175e-01
     vertex -4.492064e-01  0.000000e+00  5.603175e-01
   endloop
 endfacet
 facet normal  7.071067e-01  0.000000e+00 -7.071068e-01
   outer loop
     vertex -1.063492e-01 -1.587302e-02  9.031746e-01
     vertex -4.492064e-01  0.000000e+00  5.603175e-01
     vertex -1.063492e-01  0.000000e+00  9.031746e-01
   endloop
 endfacet
endsolid
