solid 
 facet normal -0.000000e+00  0.000000e+00 -1.000000e+00
   outer loop
     vertex  7.539683e-01 -1.587302e-02 -1.043915e+00
     vertex -8.544973e-01 -5.714286e-01 -1.043915e+00
     vertex -8.544973e-01 -1.587302e-02 -1.043915e+00
   endloop
 endfacet
 facet normal  0.000000e+00 -0.000000e+00 -1.000000e+00
   outer loop
     vertex  7.539683e-01 -1.587302e-02 -1.043915e+00
     vertex  7.539683e-01 -5.714286e-01 -1.043915e+00
     vertex -8.544973e-01 -5.714286e-01 -1.043915e+00
   endloop
 endfacet
 facet normal -1.000000e+00  0.000000e+00  0.000000e+00
   outer loop
     vertex -8.544973e-01 -1.587302e-02 -1.043915e+00
     vertex -8.544973e-01 -5.714286e-01  8.862434e-01
     vertex -8.544973e-01 -1.587302e-02  8.862434e-01
   endloop
 endfacet
 facet normal -1.000000e+00  0.000000e+00  0.000000e+00
   outer loop
     vertex -8.544973e-01 -1.587302e-02 -1.043915e+00
     vertex -8.544973e-01 -5.714286e-01 -1.043915e+00
     vertex -8.544973e-01 -5.714286e-01  8.862434e-01
   endloop
 endfacet
 facet normal  1.000000e+00  0.000000e+00  0.000000e+00
   outer loop
     vertex  7.539683e-01 -1.587302e-02  8.862434e-01
     vertex  7.539683e-01 -5.714286e-01 -1.043915e+00
     vertex  7.539683e-01 -1.587302e-02 -1.043915e+00
   endloop
 endfacet
 facet normal  1.000000e+00  0.000000e+00  0.000000e+00
   outer loop
     vertex  7.539683e-01 -1.587302e-02  8.862434e-01
     vertex  7.539683e-01 -5.714286e-01  8.862434e-01
     vertex  7.539683e-01 -5.714286e-01 -1.043915e+00
   endloop
 endfacet
 facet normal  0.000000e+00  0.000000e+00 -1.000000e+00
   outer loop
     vertex  7.539683e-01 -1.587302e-02 -1.043915e+00
     vertex -8.544973e-01 -1.587302e-02 -1.043915e+00
     vertex -8.544973e-01  0.000000e+00 -1.043915e+00
   endloop
 endfacet
 facet normal  0.000000e+00  0.000000e+00 -1.000000e+00
   outer loop
     vertex  7.539683e-01 -1.587302e-02 -1.043915e+00
     vertex -8.544973e-01  0.000000e+00 -1.043915e+00
     vertex  7.539683e-01  0.000000e+00 -1.043915e+00
   endloop
 endfacet
 facet normal -0.000000e+00 -1.000000e+00  0.000000e+00
   outer loop
     vertex -8.037146e-01 -5.714286e-01  8.406374e-01
     vertex -8.544973e-01 -5.714286e-01  8.862434e-01
     vertex -8.544973e-01 -5.714286e-01 -1.043915e+00
   endloop
 endfacet
 facet normal -0.000000e+00 -1.000000e+00  0.000000e+00
   outer loop
     vertex -7.503507e-01 -5.714286e-01  7.980807e-01
     vertex -8.037146e-01 -5.714286e-01  8.406374e-01
     vertex -8.544973e-01 -5.714286e-01 -1.043915e+00
   endloop
 endfacet
 facet normal -0.000000e+00 -1.000000e+00  0.000000e+00
   outer loop
     vertex -6.945884e-01 -5.714286e-01  7.587189e-01
     vertex -7.503507e-01 -5.714286e-01  7.980807e-01
     vertex -8.544973e-01 -5.714286e-01 -1.043915e+00
   endloop
 endfacet
 facet normal -0.000000e+00 -1.000000e+00  0.000000e+00
   outer loop
     vertex -6.366186e-01 -5.714286e-01  7.226871e-01
     vertex -6.945884e-01 -5.714286e-01  7.587189e-01
     vertex -8.544973e-01 -5.714286e-01 -1.043915e+00
   endloop
 endfacet
 facet normal -0.000000e+00 -1.000000e+00  0.000000e+00
   outer loop
     vertex -5.766401e-01 -5.714286e-01  6.901085e-01
     vertex -6.366186e-01 -5.714286e-01  7.226871e-01
     vertex -8.544973e-01 -5.714286e-01 -1.043915e+00
   endloop
 endfacet
 facet normal -0.000000e+00 -1.000000e+00  0.000000e+00
   outer loop
     vertex -5.148583e-01 -5.714286e-01  6.610948e-01
     vertex -5.766401e-01 -5.714286e-01  6.901085e-01
     vertex -8.544973e-01 -5.714286e-01 -1.043915e+00
   endloop
 endfacet
 facet normal -0.000000e+00 -1.000000e+00  0.000000e+00
   outer loop
     vertex -4.514849e-01 -5.714286e-01  6.357454e-01
     vertex -5.148583e-01 -5.714286e-01  6.610948e-01
     vertex -8.544973e-01 -5.714286e-01 -1.043915e+00
   endloop
 endfacet
 facet normal -0.000000e+00 -1.000000e+00  0.000000e+00
   outer loop
     vertex -3.867369e-01 -5.714286e-01  6.141472e-01
     vertex -4.514849e-01 -5.714286e-01  6.357454e-01
     vertex -8.544973e-01 -5.714286e-01 -1.043915e+00
   endloop
 endfacet
 facet normal -0.000000e+00 -1.000000e+00  0.000000e+00
   outer loop
     vertex -3.208362e-01 -5.714286e-01  5.963741e-01
     vertex -3.867369e-01 -5.714286e-01  6.141472e-01
     vertex -8.544973e-01 -5.714286e-01 -1.043915e+00
   endloop
 endfacet
 facet normal -0.000000e+00 -1.000000e+00  0.000000e+00
   outer loop
     vertex -2.540085e-01 -5.714286e-01  5.824871e-01
     vertex -3.208362e-01 -5.714286e-01  5.963741e-01
     vertex -8.544973e-01 -5.714286e-01 -1.043915e+00
   endloop
 endfacet
 facet normal -0.000000e+00 -1.000000e+00  0.000000e+00
   outer loop
     vertex -1.864829e-01 -5.714286e-01  5.725336e-01
     vertex -2.540085e-01 -5.714286e-01  5.824871e-01
     vertex -8.544973e-01 -5.714286e-01 -1.043915e+00
   endloop
 endfacet
 facet normal -0.000000e+00 -1.000000e+00  0.000000e+00
   outer loop
     vertex -1.184906e-01 -5.714286e-01  5.665479e-01
     vertex -1.864829e-01 -5.714286e-01  5.725336e-01
     vertex -8.544973e-01 -5.714286e-01 -1.043915e+00
   endloop
 endfacet
 facet normal  0.000000e+00 -1.000000e+00 -0.000000e+00
   outer loop
     vertex -5.026451e-02 -5.714286e-01  5.645503e-01
     vertex -8.544973e-01 -5.714286e-01 -1.043915e+00
     vertex  7.539683e-01 -5.714286e-01 -1.043915e+00
   endloop
 endfacet
 facet normal -0.000000e+00 -1.000000e+00  0.000000e+00
   outer loop
     vertex -5.026451e-02 -5.714286e-01  5.645503e-01
     vertex -1.184906e-01 -5.714286e-01  5.665479e-01
     vertex -8.544973e-01 -5.714286e-01 -1.043915e+00
   endloop
 endfacet
 facet normal  0.000000e+00 -1.000000e+00 -0.000000e+00
   outer loop
     vertex  1.796155e-02 -5.714286e-01  5.665479e-01
     vertex -5.026451e-02 -5.714286e-01  5.645503e-01
     vertex  7.539683e-01 -5.714286e-01 -1.043915e+00
   endloop
 endfacet
 facet normal  0.000000e+00 -1.000000e+00 -0.000000e+00
   outer loop
     vertex  8.595387e-02 -5.714286e-01  5.725336e-01
     vertex  1.796155e-02 -5.714286e-01  5.665479e-01
     vertex  7.539683e-01 -5.714286e-01 -1.043915e+00
   endloop
 endfacet
 facet normal  0.000000e+00 -1.000000e+00 -0.000000e+00
   outer loop
     vertex  1.534795e-01 -5.714286e-01  5.824871e-01
     vertex  8.595387e-02 -5.714286e-01  5.725336e-01
     vertex  7.539683e-01 -5.714286e-01 -1.043915e+00
   endloop
 endfacet
 facet normal  0.000000e+00 -1.000000e+00 -0.000000e+00
   outer loop
     vertex  2.203072e-01 -5.714286e-01  5.963741e-01
     vertex  1.534795e-01 -5.714286e-01  5.824871e-01
     vertex  7.539683e-01 -5.714286e-01 -1.043915e+00
   endloop
 endfacet
 facet normal  0.000000e+00 -1.000000e+00 -0.000000e+00
   outer loop
     vertex  2.862079e-01 -5.714286e-01  6.141472e-01
     vertex  2.203072e-01 -5.714286e-01  5.963741e-01
     vertex  7.539683e-01 -5.714286e-01 -1.043915e+00
   endloop
 endfacet
 facet normal  0.000000e+00 -1.000000e+00 -0.000000e+00
   outer loop
     vertex  3.509559e-01 -5.714286e-01  6.357454e-01
     vertex  2.862079e-01 -5.714286e-01  6.141472e-01
     vertex  7.539683e-01 -5.714286e-01 -1.043915e+00
   endloop
 endfacet
 facet normal  0.000000e+00 -1.000000e+00 -0.000000e+00
   outer loop
     vertex  4.143293e-01 -5.714286e-01  6.610948e-01
     vertex  3.509559e-01 -5.714286e-01  6.357454e-01
     vertex  7.539683e-01 -5.714286e-01 -1.043915e+00
   endloop
 endfacet
 facet normal  0.000000e+00 -1.000000e+00 -0.000000e+00
   outer loop
     vertex  4.761111e-01 -5.714286e-01  6.901085e-01
     vertex  4.143293e-01 -5.714286e-01  6.610948e-01
     vertex  7.539683e-01 -5.714286e-01 -1.043915e+00
   endloop
 endfacet
 facet normal  0.000000e+00 -1.000000e+00 -0.000000e+00
   outer loop
     vertex  5.360896e-01 -5.714286e-01  7.226871e-01
     vertex  4.761111e-01 -5.714286e-01  6.901085e-01
     vertex  7.539683e-01 -5.714286e-01 -1.043915e+00
   endloop
 endfacet
 facet normal  0.000000e+00 -1.000000e+00 -0.000000e+00
   outer loop
     vertex  5.940593e-01 -5.714286e-01  7.587189e-01
     vertex  5.360896e-01 -5.714286e-01  7.226871e-01
     vertex  7.539683e-01 -5.714286e-01 -1.043915e+00
   endloop
 endfacet
 facet normal  0.000000e+00 -1.000000e+00 -0.000000e+00
   outer loop
     vertex  6.498217e-01 -5.714286e-01  7.980807e-01
     vertex  5.940593e-01 -5.714286e-01  7.587189e-01
     vertex  7.539683e-01 -5.714286e-01 -1.043915e+00
   endloop
 endfacet
 facet normal  0.000000e+00 -1.000000e+00 -0.000000e+00
   outer loop
     vertex  7.031856e-01 -5.714286e-01  8.406374e-01
     vertex  6.498217e-01 -5.714286e-01  7.980807e-01
     vertex  7.539683e-01 -5.714286e-01 -1.043915e+00
   endloop
 endfacet
 facet normal  0.000000e+00 -1.000000e+00 -0.000000e+00
   outer loop
     vertex  7.539683e-01 -5.714286e-01  8.862434e-01
     vertex  7.031856e-01 -5.714286e-01  8.406374e-01
     vertex  7.539683e-01 -5.714286e-01 -1.043915e+00
   endloop
 endfacet
 facet normal -6.681674e-01  0.000000e+00  7.440110e-01
   outer loop
     vertex  7.031856e-01 -1.587302e-02  8.406374e-01
     vertex  7.539683e-01 -5.714286e-01  8.862434e-01
     vertex  7.539683e-01 -1.587302e-02  8.862434e-01
   endloop
 endfacet
 facet normal -6.681674e-01  0.000000e+00  7.440110e-01
   outer loop
     vertex  7.031856e-01 -1.587302e-02  8.406374e-01
     vertex  7.031856e-01 -5.714286e-01  8.406374e-01
     vertex  7.539683e-01 -5.714286e-01  8.862434e-01
   endloop
 endfacet
 facet normal -6.234938e-01  0.000000e+00  7.818283e-01
   outer loop
     vertex  6.498217e-01 -1.587302e-02  7.980807e-01
     vertex  6.498217e-01 -5.714286e-01  7.980807e-01
     vertex  7.031856e-01 -5.714286e-01  8.406374e-01
   endloop
 endfacet
 facet normal -6.234938e-01  0.000000e+00  7.818283e-01
   outer loop
     vertex  6.498217e-01 -1.587302e-02  7.980807e-01
     vertex  7.031856e-01 -5.714286e-01  8.406374e-01
     vertex  7.031856e-01 -1.587302e-02  8.406374e-01
   endloop
 endfacet
 facet normal -5.766841e-01  0.000000e+00  8.169672e-01
   outer loop
     vertex  5.940593e-01 -1.587302e-02  7.587189e-01
     vertex  5.940593e-01 -5.714286e-01  7.587189e-01
     vertex  6.498217e-01 -5.714286e-01  7.980807e-01
   endloop
 endfacet
 facet normal -5.766841e-01  0.000000e+00  8.169672e-01
   outer loop
     vertex  5.940593e-01 -1.587302e-02  7.587189e-01
     vertex  6.498217e-01 -5.714286e-01  7.980807e-01
     vertex  6.498217e-01 -1.587302e-02  7.980807e-01
   endloop
 endfacet
 facet normal -5.278988e-01  0.000000e+00  8.493073e-01
   outer loop
     vertex  5.360896e-01 -1.587302e-02  7.226871e-01
     vertex  5.360896e-01 -5.714286e-01  7.226871e-01
     vertex  5.940593e-01 -5.714286e-01  7.587189e-01
   endloop
 endfacet
 facet normal -5.278988e-01  0.000000e+00  8.493073e-01
   outer loop
     vertex  5.360896e-01 -1.587302e-02  7.226871e-01
     vertex  5.940593e-01 -5.714286e-01  7.587189e-01
     vertex  5.940593e-01 -1.587302e-02  7.587189e-01
   endloop
 endfacet
 facet normal -4.773049e-01  0.000000e+00  8.787377e-01
   outer loop
     vertex  4.761111e-01 -1.587302e-02  6.901085e-01
     vertex  4.761111e-01 -5.714286e-01  6.901085e-01
     vertex  5.360896e-01 -5.714286e-01  7.226871e-01
   endloop
 endfacet
 facet normal -4.773049e-01  0.000000e+00  8.787377e-01
   outer loop
     vertex  4.761111e-01 -1.587302e-02  6.901085e-01
     vertex  5.360896e-01 -5.714286e-01  7.226871e-01
     vertex  5.360896e-01 -1.587302e-02  7.226871e-01
   endloop
 endfacet
 facet normal -4.250759e-01  0.000000e+00  9.051577e-01
   outer loop
     vertex  4.143293e-01 -1.587302e-02  6.610948e-01
     vertex  4.143293e-01 -5.714286e-01  6.610948e-01
     vertex  4.761111e-01 -5.714286e-01  6.901085e-01
   endloop
 endfacet
 facet normal -4.250759e-01  0.000000e+00  9.051577e-01
   outer loop
     vertex  4.143293e-01 -1.587302e-02  6.610948e-01
     vertex  4.761111e-01 -5.714286e-01  6.901085e-01
     vertex  4.761111e-01 -1.587302e-02  6.901085e-01
   endloop
 endfacet
 facet normal -3.713906e-01  0.000000e+00  9.284767e-01
   outer loop
     vertex  3.509559e-01 -1.587302e-02  6.357454e-01
     vertex  3.509559e-01 -5.714286e-01  6.357454e-01
     vertex  4.143293e-01 -5.714286e-01  6.610948e-01
   endloop
 endfacet
 facet normal -3.713906e-01  0.000000e+00  9.284767e-01
   outer loop
     vertex  3.509559e-01 -1.587302e-02  6.357454e-01
     vertex  4.143293e-01 -5.714286e-01  6.610948e-01
     vertex  4.143293e-01 -1.587302e-02  6.610948e-01
   endloop
 endfacet
 facet normal -3.164330e-01  0.000000e+00  9.486149e-01
   outer loop
     vertex  2.862079e-01 -1.587302e-02  6.141472e-01
     vertex  2.862079e-01 -5.714286e-01  6.141472e-01
     vertex  3.509559e-01 -5.714286e-01  6.357454e-01
   endloop
 endfacet
 facet normal -3.164330e-01  0.000000e+00  9.486149e-01
   outer loop
     vertex  2.862079e-01 -1.587302e-02  6.141472e-01
     vertex  3.509559e-01 -5.714286e-01  6.357454e-01
     vertex  3.509559e-01 -1.587302e-02  6.357454e-01
   endloop
 endfacet
 facet normal -2.603913e-01  0.000000e+00  9.655032e-01
   outer loop
     vertex  2.203072e-01 -1.587302e-02  5.963741e-01
     vertex  2.203072e-01 -5.714286e-01  5.963741e-01
     vertex  2.862079e-01 -5.714286e-01  6.141472e-01
   endloop
 endfacet
 facet normal -2.603913e-01  0.000000e+00  9.655032e-01
   outer loop
     vertex  2.203072e-01 -1.587302e-02  5.963741e-01
     vertex  2.862079e-01 -5.714286e-01  6.141472e-01
     vertex  2.862079e-01 -1.587302e-02  6.141472e-01
   endloop
 endfacet
 facet normal -2.034575e-01  0.000000e+00  9.790838e-01
   outer loop
     vertex  1.534795e-01 -1.587302e-02  5.824871e-01
     vertex  1.534795e-01 -5.714286e-01  5.824871e-01
     vertex  2.203072e-01 -5.714286e-01  5.963741e-01
   endloop
 endfacet
 facet normal -2.034575e-01  0.000000e+00  9.790838e-01
   outer loop
     vertex  1.534795e-01 -1.587302e-02  5.824871e-01
     vertex  2.203072e-01 -5.714286e-01  5.963741e-01
     vertex  2.203072e-01 -1.587302e-02  5.963741e-01
   endloop
 endfacet
 facet normal -1.458267e-01  0.000000e+00  9.893101e-01
   outer loop
     vertex  8.595387e-02 -1.587302e-02  5.725336e-01
     vertex  1.534795e-01 -5.714286e-01  5.824871e-01
     vertex  1.534795e-01 -1.587302e-02  5.824871e-01
   endloop
 endfacet
 facet normal -1.458267e-01  0.000000e+00  9.893101e-01
   outer loop
     vertex  8.595387e-02 -1.587302e-02  5.725336e-01
     vertex  8.595387e-02 -5.714286e-01  5.725336e-01
     vertex  1.534795e-01 -5.714286e-01  5.824871e-01
   endloop
 endfacet
 facet normal -8.769635e-02  0.000000e+00  9.961473e-01
   outer loop
     vertex  1.796155e-02 -1.587302e-02  5.665479e-01
     vertex  8.595387e-02 -5.714286e-01  5.725336e-01
     vertex  8.595387e-02 -1.587302e-02  5.725336e-01
   endloop
 endfacet
 facet normal -8.769635e-02  0.000000e+00  9.961473e-01
   outer loop
     vertex  1.796155e-02 -1.587302e-02  5.665479e-01
     vertex  1.796155e-02 -5.714286e-01  5.665479e-01
     vertex  8.595387e-02 -5.714286e-01  5.725336e-01
   endloop
 endfacet
 facet normal -2.926554e-02  0.000000e+00  9.995717e-01
   outer loop
     vertex -5.026451e-02 -1.587302e-02  5.645503e-01
     vertex  1.796155e-02 -5.714286e-01  5.665479e-01
     vertex  1.796155e-02 -1.587302e-02  5.665479e-01
   endloop
 endfacet
 facet normal -2.926554e-02  0.000000e+00  9.995717e-01
   outer loop
     vertex -5.026451e-02 -1.587302e-02  5.645503e-01
     vertex -5.026451e-02 -5.714286e-01  5.645503e-01
     vertex  1.796155e-02 -5.714286e-01  5.665479e-01
   endloop
 endfacet
 facet normal  2.926554e-02  0.000000e+00  9.995717e-01
   outer loop
     vertex -1.184906e-01 -1.587302e-02  5.665479e-01
     vertex -1.184906e-01 -5.714286e-01  5.665479e-01
     vertex -5.026451e-02 -5.714286e-01  5.645503e-01
   endloop
 endfacet
 facet normal  2.926554e-02  0.000000e+00  9.995717e-01
   outer loop
     vertex -1.184906e-01 -1.587302e-02  5.665479e-01
     vertex -5.026451e-02 -5.714286e-01  5.645503e-01
     vertex -5.026451e-02 -1.587302e-02  5.645503e-01
   endloop
 endfacet
 facet normal  8.769635e-02  0.000000e+00  9.961473e-01
   outer loop
     vertex -1.864829e-01 -1.587302e-02  5.725336e-01
     vertex -1.184906e-01 -5.714286e-01  5.665479e-01
     vertex -1.184906e-01 -1.587302e-02  5.665479e-01
   endloop
 endfacet
 facet normal  8.769635e-02  0.000000e+00  9.961473e-01
   outer loop
     vertex -1.864829e-01 -1.587302e-02  5.725336e-01
     vertex -1.864829e-01 -5.714286e-01  5.725336e-01
     vertex -1.184906e-01 -5.714286e-01  5.665479e-01
   endloop
 endfacet
 facet normal  1.458267e-01  0.000000e+00  9.893101e-01
   outer loop
     vertex -2.540085e-01 -1.587302e-02  5.824871e-01
     vertex -2.540085e-01 -5.714286e-01  5.824871e-01
     vertex -1.864829e-01 -5.714286e-01  5.725336e-01
   endloop
 endfacet
 facet normal  1.458267e-01  0.000000e+00  9.893101e-01
   outer loop
     vertex -2.540085e-01 -1.587302e-02  5.824871e-01
     vertex -1.864829e-01 -5.714286e-01  5.725336e-01
     vertex -1.864829e-01 -1.587302e-02  5.725336e-01
   endloop
 endfacet
 facet normal  2.034575e-01  0.000000e+00  9.790838e-01
   outer loop
     vertex -3.208362e-01 -1.587302e-02  5.963741e-01
     vertex -3.208362e-01 -5.714286e-01  5.963741e-01
     vertex -2.540085e-01 -5.714286e-01  5.824871e-01
   endloop
 endfacet
 facet normal  2.603913e-01  0.000000e+00  9.655032e-01
   outer loop
     vertex -3.208362e-01 -1.587302e-02  5.963741e-01
     vertex -3.867369e-01 -5.714286e-01  6.141472e-01
     vertex -3.208362e-01 -5.714286e-01  5.963741e-01
   endloop
 endfacet
 facet normal  2.034575e-01  0.000000e+00  9.790838e-01
   outer loop
     vertex -3.208362e-01 -1.587302e-02  5.963741e-01
     vertex -2.540085e-01 -5.714286e-01  5.824871e-01
     vertex -2.540085e-01 -1.587302e-02  5.824871e-01
   endloop
 endfacet
 facet normal  2.603913e-01  0.000000e+00  9.655032e-01
   outer loop
     vertex -3.867369e-01 -1.587302e-02  6.141472e-01
     vertex -3.867369e-01 -5.714286e-01  6.141472e-01
     vertex -3.208362e-01 -1.587302e-02  5.963741e-01
   endloop
 endfacet
 facet normal  3.164330e-01  0.000000e+00  9.486149e-01
   outer loop
     vertex -4.514849e-01 -1.587302e-02  6.357454e-01
     vertex -4.514849e-01 -5.714286e-01  6.357454e-01
     vertex -3.867369e-01 -5.714286e-01  6.141472e-01
   endloop
 endfacet
 facet normal  3.164330e-01  0.000000e+00  9.486149e-01
   outer loop
     vertex -4.514849e-01 -1.587302e-02  6.357454e-01
     vertex -3.867369e-01 -5.714286e-01  6.141472e-01
     vertex -3.867369e-01 -1.587302e-02  6.141472e-01
   endloop
 endfacet
 facet normal  3.713906e-01  0.000000e+00  9.284767e-01
   outer loop
     vertex -5.148583e-01 -1.587302e-02  6.610948e-01
     vertex -5.148583e-01 -5.714286e-01  6.610948e-01
     vertex -4.514849e-01 -5.714286e-01  6.357454e-01
   endloop
 endfacet
 facet normal  3.713906e-01  0.000000e+00  9.284767e-01
   outer loop
     vertex -5.148583e-01 -1.587302e-02  6.610948e-01
     vertex -4.514849e-01 -5.714286e-01  6.357454e-01
     vertex -4.514849e-01 -1.587302e-02  6.357454e-01
   endloop
 endfacet
 facet normal  4.250759e-01  0.000000e+00  9.051577e-01
   outer loop
     vertex -5.766401e-01 -1.587302e-02  6.901085e-01
     vertex -5.766401e-01 -5.714286e-01  6.901085e-01
     vertex -5.148583e-01 -5.714286e-01  6.610948e-01
   endloop
 endfacet
 facet normal  4.250759e-01  0.000000e+00  9.051577e-01
   outer loop
     vertex -5.766401e-01 -1.587302e-02  6.901085e-01
     vertex -5.148583e-01 -5.714286e-01  6.610948e-01
     vertex -5.148583e-01 -1.587302e-02  6.610948e-01
   endloop
 endfacet
 facet normal  4.773049e-01  0.000000e+00  8.787377e-01
   outer loop
     vertex -6.366186e-01 -1.587302e-02  7.226871e-01
     vertex -6.366186e-01 -5.714286e-01  7.226871e-01
     vertex -5.766401e-01 -5.714286e-01  6.901085e-01
   endloop
 endfacet
 facet normal  4.773049e-01  0.000000e+00  8.787377e-01
   outer loop
     vertex -6.366186e-01 -1.587302e-02  7.226871e-01
     vertex -5.766401e-01 -5.714286e-01  6.901085e-01
     vertex -5.766401e-01 -1.587302e-02  6.901085e-01
   endloop
 endfacet
 facet normal  5.278988e-01  0.000000e+00  8.493073e-01
   outer loop
     vertex -6.945884e-01 -1.587302e-02  7.587189e-01
     vertex -6.945884e-01 -5.714286e-01  7.587189e-01
     vertex -6.366186e-01 -5.714286e-01  7.226871e-01
   endloop
 endfacet
 facet normal  5.278988e-01  0.000000e+00  8.493073e-01
   outer loop
     vertex -6.945884e-01 -1.587302e-02  7.587189e-01
     vertex -6.366186e-01 -5.714286e-01  7.226871e-01
     vertex -6.366186e-01 -1.587302e-02  7.226871e-01
   endloop
 endfacet
 facet normal  5.766841e-01  0.000000e+00  8.169672e-01
   outer loop
     vertex -7.503507e-01 -1.587302e-02  7.980807e-01
     vertex -7.503507e-01 -5.714286e-01  7.980807e-01
     vertex -6.945884e-01 -5.714286e-01  7.587189e-01
   endloop
 endfacet
 facet normal  5.766841e-01  0.000000e+00  8.169672e-01
   outer loop
     vertex -7.503507e-01 -1.587302e-02  7.980807e-01
     vertex -6.945884e-01 -5.714286e-01  7.587189e-01
     vertex -6.945884e-01 -1.587302e-02  7.587189e-01
   endloop
 endfacet
 facet normal  6.234938e-01  0.000000e+00  7.818283e-01
   outer loop
     vertex -8.037146e-01 -1.587302e-02  8.406374e-01
     vertex -8.037146e-01 -5.714286e-01  8.406374e-01
     vertex -7.503507e-01 -5.714286e-01  7.980807e-01
   endloop
 endfacet
 facet normal  6.234938e-01  0.000000e+00  7.818283e-01
   outer loop
     vertex -8.037146e-01 -1.587302e-02  8.406374e-01
     vertex -7.503507e-01 -5.714286e-01  7.980807e-01
     vertex -7.503507e-01 -1.587302e-02  7.980807e-01
   endloop
 endfacet
 facet normal  6.681674e-01  0.000000e+00  7.440110e-01
   outer loop
     vertex -8.544973e-01 -1.587302e-02  8.862434e-01
     vertex -8.544973e-01 -5.714286e-01  8.862434e-01
     vertex -8.037146e-01 -5.714286e-01  8.406374e-01
   endloop
 endfacet
 facet normal  6.681674e-01  0.000000e+00  7.440110e-01
   outer loop
     vertex -8.544973e-01 -1.587302e-02  8.862434e-01
     vertex -8.037146e-01 -5.714286e-01  8.406374e-01
     vertex -8.037146e-01 -1.587302e-02  8.406374e-01
   endloop
 endfacet
 facet normal -1.000000e+00  0.000000e+00  0.000000e+00
   outer loop
     vertex -8.544973e-01 -1.587302e-02 -1.043915e+00
     vertex -8.544973e-01 -1.587302e-02  8.862434e-01
     vertex -8.544973e-01  0.000000e+00  8.862434e-01
   endloop
 endfacet
 facet normal -1.000000e+00  0.000000e+00  0.000000e+00
   outer loop
     vertex -8.544973e-01 -1.587302e-02 -1.043915e+00
     vertex -8.544973e-01  0.000000e+00  8.862434e-01
     vertex -8.544973e-01  0.000000e+00 -1.043915e+00
   endloop
 endfacet
 facet normal  1.000000e+00  0.000000e+00  0.000000e+00
   outer loop
     vertex  7.539683e-01 -1.587302e-02  8.862434e-01
     vertex  7.539683e-01 -1.587302e-02 -1.043915e+00
     vertex  7.539683e-01  0.000000e+00 -1.043915e+00
   endloop
 endfacet
 facet normal  1.000000e+00 -0.000000e+00  0.000000e+00
   outer loop
     vertex  7.539683e-01 -1.587302e-02  8.862434e-01
     vertex  7.539683e-01  0.000000e+00 -1.043915e+00
     vertex  7.539683e-01  0.000000e+00  8.862434e-01
   endloop
 endfacet
 facet normal  0.000000e+00  1.000000e+00  0.000000e+00
   outer loop
     vertex -8.037146e-01 -4.510281e-17  8.406374e-01
     vertex -8.544973e-01 -4.510281e-17 -1.043915e+00
     vertex -8.544973e-01 -4.510281e-17  8.862434e-01
   endloop
 endfacet
 facet normal  0.000000e+00  1.000000e+00  0.000000e+00
   outer loop
     vertex -7.503507e-01 -4.510281e-17  7.980807e-01
     vertex -8.544973e-01 -4.510281e-17 -1.043915e+00
     vertex -8.037146e-01 -4.510281e-17  8.406374e-01
   endloop
 endfacet
 facet normal  0.000000e+00  1.000000e+00  0.000000e+00
   outer loop
     vertex -6.945884e-01 -4.510281e-17  7.587189e-01
     vertex -8.544973e-01 -4.510281e-17 -1.043915e+00
     vertex -7.503507e-01 -4.510281e-17  7.980807e-01
   endloop
 endfacet
 facet normal  0.000000e+00  1.000000e+00  0.000000e+00
   outer loop
     vertex -6.366186e-01 -4.510281e-17  7.226871e-01
     vertex -8.544973e-01 -4.510281e-17 -1.043915e+00
     vertex -6.945884e-01 -4.510281e-17  7.587189e-01
   endloop
 endfacet
 facet normal  0.000000e+00  1.000000e+00  0.000000e+00
   outer loop
     vertex -5.766401e-01 -4.510281e-17  6.901085e-01
     vertex -8.544973e-01 -4.510281e-17 -1.043915e+00
     vertex -6.366186e-01 -4.510281e-17  7.226871e-01
   endloop
 endfacet
 facet normal  0.000000e+00  1.000000e+00  0.000000e+00
   outer loop
     vertex -5.148583e-01 -4.510281e-17  6.610948e-01
     vertex -8.544973e-01 -4.510281e-17 -1.043915e+00
     vertex -5.766401e-01 -4.510281e-17  6.901085e-01
   endloop
 endfacet
 facet normal  0.000000e+00  1.000000e+00  0.000000e+00
   outer loop
     vertex -4.514849e-01 -4.510281e-17  6.357454e-01
     vertex -8.544973e-01 -4.510281e-17 -1.043915e+00
     vertex -5.148583e-01 -4.510281e-17  6.610948e-01
   endloop
 endfacet
 facet normal  0.000000e+00  1.000000e+00  0.000000e+00
   outer loop
     vertex -3.867369e-01 -4.510281e-17  6.141472e-01
     vertex -8.544973e-01 -4.510281e-17 -1.043915e+00
     vertex -4.514849e-01 -4.510281e-17  6.357454e-01
   endloop
 endfacet
 facet normal  0.000000e+00  1.000000e+00  0.000000e+00
   outer loop
     vertex -3.208362e-01 -4.510281e-17  5.963741e-01
     vertex -8.544973e-01 -4.510281e-17 -1.043915e+00
     vertex -3.867369e-01 -4.510281e-17  6.141472e-01
   endloop
 endfacet
 facet normal  0.000000e+00  1.000000e+00  0.000000e+00
   outer loop
     vertex -2.540085e-01 -4.510281e-17  5.824871e-01
     vertex -8.544973e-01 -4.510281e-17 -1.043915e+00
     vertex -3.208362e-01 -4.510281e-17  5.963741e-01
   endloop
 endfacet
 facet normal  0.000000e+00  1.000000e+00  0.000000e+00
   outer loop
     vertex -1.864829e-01 -4.510281e-17  5.725336e-01
     vertex -8.544973e-01 -4.510281e-17 -1.043915e+00
     vertex -2.540085e-01 -4.510281e-17  5.824871e-01
   endloop
 endfacet
 facet normal  0.000000e+00  1.000000e+00  0.000000e+00
   outer loop
     vertex -1.184906e-01 -4.510281e-17  5.665479e-01
     vertex -8.544973e-01 -4.510281e-17 -1.043915e+00
     vertex -1.864829e-01 -4.510281e-17  5.725336e-01
   endloop
 endfacet
 facet normal  0.000000e+00  1.000000e+00  0.000000e+00
   outer loop
     vertex -5.026451e-02 -4.510281e-17  5.645503e-01
     vertex  7.539683e-01 -4.510281e-17 -1.043915e+00
     vertex -8.544973e-01 -4.510281e-17 -1.043915e+00
   endloop
 endfacet
 facet normal  0.000000e+00  1.000000e+00  0.000000e+00
   outer loop
     vertex -5.026451e-02 -4.510281e-17  5.645503e-01
     vertex -8.544973e-01 -4.510281e-17 -1.043915e+00
     vertex -1.184906e-01 -4.510281e-17  5.665479e-01
   endloop
 endfacet
 facet normal  0.000000e+00  1.000000e+00  0.000000e+00
   outer loop
     vertex  1.796155e-02 -4.510281e-17  5.665479e-01
     vertex  7.539683e-01 -4.510281e-17 -1.043915e+00
     vertex -5.026451e-02 -4.510281e-17  5.645503e-01
   endloop
 endfacet
 facet normal  0.000000e+00  1.000000e+00  0.000000e+00
   outer loop
     vertex  8.595387e-02 -4.510281e-17  5.725336e-01
     vertex  7.539683e-01 -4.510281e-17 -1.043915e+00
     vertex  1.796155e-02 -4.510281e-17  5.665479e-01
   endloop
 endfacet
 facet normal  0.000000e+00  1.000000e+00  0.000000e+00
   outer loop
     vertex  1.534795e-01 -4.510281e-17  5.824871e-01
     vertex  7.539683e-01 -4.510281e-17 -1.043915e+00
     vertex  8.595387e-02 -4.510281e-17  5.725336e-01
   endloop
 endfacet
 facet normal  0.000000e+00  1.000000e+00  0.000000e+00
   outer loop
     vertex  2.203072e-01 -4.510281e-17  5.963741e-01
     vertex  7.539683e-01 -4.510281e-17 -1.043915e+00
     vertex  1.534795e-01 -4.510281e-17  5.824871e-01
   endloop
 endfacet
 facet normal  0.000000e+00  1.000000e+00  0.000000e+00
   outer loop
     vertex  2.862079e-01 -4.510281e-17  6.141472e-01
     vertex  7.539683e-01 -4.510281e-17 -1.043915e+00
     vertex  2.203072e-01 -4.510281e-17  5.963741e-01
   endloop
 endfacet
 facet normal  0.000000e+00  1.000000e+00  0.000000e+00
   outer loop
     vertex  3.509559e-01 -4.510281e-17  6.357454e-01
     vertex  7.539683e-01 -4.510281e-17 -1.043915e+00
     vertex  2.862079e-01 -4.510281e-17  6.141472e-01
   endloop
 endfacet
 facet normal  0.000000e+00  1.000000e+00  0.000000e+00
   outer loop
     vertex  4.143293e-01 -4.510281e-17  6.610948e-01
     vertex  7.539683e-01 -4.510281e-17 -1.043915e+00
     vertex  3.509559e-01 -4.510281e-17  6.357454e-01
   endloop
 endfacet
 facet normal  0.000000e+00  1.000000e+00  0.000000e+00
   outer loop
     vertex  4.761111e-01 -4.510281e-17  6.901085e-01
     vertex  7.539683e-01 -4.510281e-17 -1.043915e+00
     vertex  4.143293e-01 -4.510281e-17  6.610948e-01
   endloop
 endfacet
 facet normal  0.000000e+00  1.000000e+00  0.000000e+00
   outer loop
     vertex  5.360896e-01 -4.510281e-17  7.226871e-01
     vertex  7.539683e-01 -4.510281e-17 -1.043915e+00
     vertex  4.761111e-01 -4.510281e-17  6.901085e-01
   endloop
 endfacet
 facet normal  0.000000e+00  1.000000e+00  0.000000e+00
   outer loop
     vertex  5.940593e-01 -4.510281e-17  7.587189e-01
     vertex  7.539683e-01 -4.510281e-17 -1.043915e+00
     vertex  5.360896e-01 -4.510281e-17  7.226871e-01
   endloop
 endfacet
 facet normal  0.000000e+00  1.000000e+00  0.000000e+00
   outer loop
     vertex  6.498217e-01 -4.510281e-17  7.980807e-01
     vertex  7.539683e-01 -4.510281e-17 -1.043915e+00
     vertex  5.940593e-01 -4.510281e-17  7.587189e-01
   endloop
 endfacet
 facet normal  0.000000e+00  1.000000e+00  0.000000e+00
   outer loop
     vertex  7.031856e-01 -4.510281e-17  8.406374e-01
     vertex  7.539683e-01 -4.510281e-17 -1.043915e+00
     vertex  6.498217e-01 -4.510281e-17  7.980807e-01
   endloop
 endfacet
 facet normal  0.000000e+00  1.000000e+00  0.000000e+00
   outer loop
     vertex  7.539683e-01 -4.510281e-17  8.862434e-01
     vertex  7.539683e-01 -4.510281e-17 -1.043915e+00
     vertex  7.031856e-01 -4.510281e-17  8.406374e-01
   endloop
 endfacet
 facet normal -6.681674e-01  0.000000e+00  7.440110e-01
   outer loop
     vertex  7.031856e-01 -1.587302e-02  8.406374e-01
     vertex  7.539683e-01 -1.587302e-02  8.862434e-01
     vertex  7.539683e-01  0.000000e+00  8.862434e-01
   endloop
 endfacet
 facet normal -6.681674e-01  0.000000e+00  7.440110e-01
   outer loop
     vertex  7.031856e-01 -1.587302e-02  8.406374e-01
     vertex  7.539683e-01  0.000000e+00  8.862434e-01
     vertex  7.031856e-01  0.000000e+00  8.406374e-01
   endloop
 endfacet
 facet normal -6.234938e-01  0.000000e+00  7.818283e-01
   outer loop
     vertex  6.498217e-01 -1.587302e-02  7.980807e-01
     vertex  7.031856e-01  0.000000e+00  8.406374e-01
     vertex  6.498217e-01  0.000000e+00  7.980807e-01
   endloop
 endfacet
 facet normal -6.234938e-01  0.000000e+00  7.818283e-01
   outer loop
     vertex  6.498217e-01 -1.587302e-02  7.980807e-01
     vertex  7.031856e-01 -1.587302e-02  8.406374e-01
     vertex  7.031856e-01  0.000000e+00  8.406374e-01
   endloop
 endfacet
 facet normal -5.766841e-01  0.000000e+00  8.169672e-01
   outer loop
     vertex  5.940593e-01 -1.587302e-02  7.587189e-01
     vertex  6.498217e-01  0.000000e+00  7.980807e-01
     vertex  5.940593e-01  0.000000e+00  7.587189e-01
   endloop
 endfacet
 facet normal -5.766841e-01  0.000000e+00  8.169672e-01
   outer loop
     vertex  5.940593e-01 -1.587302e-02  7.587189e-01
     vertex  6.498217e-01 -1.587302e-02  7.980807e-01
     vertex  6.498217e-01  0.000000e+00  7.980807e-01
   endloop
 endfacet
 facet normal -5.278988e-01  0.000000e+00  8.493073e-01
   outer loop
     vertex  5.360896e-01 -1.587302e-02  7.226871e-01
     vertex  5.940593e-01  0.000000e+00  7.587189e-01
     vertex  5.360896e-01  0.000000e+00  7.226871e-01
   endloop
 endfacet
 facet normal -5.278988e-01  0.000000e+00  8.493073e-01
   outer loop
     vertex  5.360896e-01 -1.587302e-02  7.226871e-01
     vertex  5.940593e-01 -1.587302e-02  7.587189e-01
     vertex  5.940593e-01  0.000000e+00  7.587189e-01
   endloop
 endfacet
 facet normal -4.773049e-01  0.000000e+00  8.787377e-01
   outer loop
     vertex  4.761111e-01 -1.587302e-02  6.901085e-01
     vertex  5.360896e-01  0.000000e+00  7.226871e-01
     vertex  4.761111e-01  0.000000e+00  6.901085e-01
   endloop
 endfacet
 facet normal -4.773049e-01  0.000000e+00  8.787377e-01
   outer loop
     vertex  4.761111e-01 -1.587302e-02  6.901085e-01
     vertex  5.360896e-01 -1.587302e-02  7.226871e-01
     vertex  5.360896e-01  0.000000e+00  7.226871e-01
   endloop
 endfacet
 facet normal -4.250759e-01  0.000000e+00  9.051577e-01
   outer loop
     vertex  4.143293e-01 -1.587302e-02  6.610948e-01
     vertex  4.761111e-01  0.000000e+00  6.901085e-01
     vertex  4.143293e-01  0.000000e+00  6.610948e-01
   endloop
 endfacet
 facet normal -4.250759e-01  0.000000e+00  9.051577e-01
   outer loop
     vertex  4.143293e-01 -1.587302e-02  6.610948e-01
     vertex  4.761111e-01 -1.587302e-02  6.901085e-01
     vertex  4.761111e-01  0.000000e+00  6.901085e-01
   endloop
 endfacet
 facet normal -3.713906e-01  0.000000e+00  9.284767e-01
   outer loop
     vertex  3.509559e-01 -1.587302e-02  6.357454e-01
     vertex  4.143293e-01  0.000000e+00  6.610948e-01
     vertex  3.509559e-01  0.000000e+00  6.357454e-01
   endloop
 endfacet
 facet normal -3.713906e-01  0.000000e+00  9.284767e-01
   outer loop
     vertex  3.509559e-01 -1.587302e-02  6.357454e-01
     vertex  4.143293e-01 -1.587302e-02  6.610948e-01
     vertex  4.143293e-01  0.000000e+00  6.610948e-01
   endloop
 endfacet
 facet normal -3.164330e-01  0.000000e+00  9.486149e-01
   outer loop
     vertex  2.862079e-01 -1.587302e-02  6.141472e-01
     vertex  3.509559e-01  0.000000e+00  6.357454e-01
     vertex  2.862079e-01  0.000000e+00  6.141472e-01
   endloop
 endfacet
 facet normal -3.164330e-01  0.000000e+00  9.486149e-01
   outer loop
     vertex  2.862079e-01 -1.587302e-02  6.141472e-01
     vertex  3.509559e-01 -1.587302e-02  6.357454e-01
     vertex  3.509559e-01  0.000000e+00  6.357454e-01
   endloop
 endfacet
 facet normal -2.603913e-01  0.000000e+00  9.655032e-01
   outer loop
     vertex  2.203072e-01 -1.587302e-02  5.963741e-01
     vertex  2.862079e-01  0.000000e+00  6.141472e-01
     vertex  2.203072e-01  0.000000e+00  5.963741e-01
   endloop
 endfacet
 facet normal -2.603913e-01  0.000000e+00  9.655032e-01
   outer loop
     vertex  2.203072e-01 -1.587302e-02  5.963741e-01
     vertex  2.862079e-01 -1.587302e-02  6.141472e-01
     vertex  2.862079e-01  0.000000e+00  6.141472e-01
   endloop
 endfacet
 facet normal -2.034575e-01  0.000000e+00  9.790838e-01
   outer loop
     vertex  1.534795e-01 -1.587302e-02  5.824871e-01
     vertex  2.203072e-01  0.000000e+00  5.963741e-01
     vertex  1.534795e-01  0.000000e+00  5.824871e-01
   endloop
 endfacet
 facet normal -2.034575e-01  0.000000e+00  9.790838e-01
   outer loop
     vertex  1.534795e-01 -1.587302e-02  5.824871e-01
     vertex  2.203072e-01 -1.587302e-02  5.963741e-01
     vertex  2.203072e-01  0.000000e+00  5.963741e-01
   endloop
 endfacet
 facet normal -1.458267e-01  0.000000e+00  9.893101e-01
   outer loop
     vertex  8.595387e-02 -1.587302e-02  5.725336e-01
     vertex  1.534795e-01 -1.587302e-02  5.824871e-01
     vertex  1.534795e-01  0.000000e+00  5.824871e-01
   endloop
 endfacet
 facet normal -1.458267e-01  0.000000e+00  9.893101e-01
   outer loop
     vertex  8.595387e-02 -1.587302e-02  5.725336e-01
     vertex  1.534795e-01  0.000000e+00  5.824871e-01
     vertex  8.595387e-02  0.000000e+00  5.725336e-01
   endloop
 endfacet
 facet normal -8.769635e-02  0.000000e+00  9.961473e-01
   outer loop
     vertex  1.796155e-02 -1.587302e-02  5.665479e-01
     vertex  8.595387e-02 -1.587302e-02  5.725336e-01
     vertex  8.595387e-02  0.000000e+00  5.725336e-01
   endloop
 endfacet
 facet normal -8.769635e-02  0.000000e+00  9.961473e-01
   outer loop
     vertex  1.796155e-02 -1.587302e-02  5.665479e-01
     vertex  8.595387e-02  0.000000e+00  5.725336e-01
     vertex  1.796155e-02  0.000000e+00  5.665479e-01
   endloop
 endfacet
 facet normal -2.926554e-02  0.000000e+00  9.995717e-01
   outer loop
     vertex -5.026451e-02 -1.587302e-02  5.645503e-01
     vertex  1.796155e-02 -1.587302e-02  5.665479e-01
     vertex  1.796155e-02  0.000000e+00  5.665479e-01
   endloop
 endfacet
 facet normal -2.926554e-02  0.000000e+00  9.995717e-01
   outer loop
     vertex -5.026451e-02 -1.587302e-02  5.645503e-01
     vertex  1.796155e-02  0.000000e+00  5.665479e-01
     vertex -5.026451e-02  0.000000e+00  5.645503e-01
   endloop
 endfacet
 facet normal  2.926554e-02 -0.000000e+00  9.995717e-01
   outer loop
     vertex -1.184906e-01 -1.587302e-02  5.665479e-01
     vertex -5.026451e-02  0.000000e+00  5.645503e-01
     vertex -1.184906e-01  0.000000e+00  5.665479e-01
   endloop
 endfacet
 facet normal  2.926554e-02  0.000000e+00  9.995717e-01
   outer loop
     vertex -1.184906e-01 -1.587302e-02  5.665479e-01
     vertex -5.026451e-02 -1.587302e-02  5.645503e-01
     vertex -5.026451e-02  0.000000e+00  5.645503e-01
   endloop
 endfacet
 facet normal  8.769635e-02  0.000000e+00  9.961473e-01
   outer loop
     vertex -1.864829e-01 -1.587302e-02  5.725336e-01
     vertex -1.184906e-01 -1.587302e-02  5.665479e-01
     vertex -1.184906e-01  0.000000e+00  5.665479e-01
   endloop
 endfacet
 facet normal  8.769635e-02 -0.000000e+00  9.961473e-01
   outer loop
     vertex -1.864829e-01 -1.587302e-02  5.725336e-01
     vertex -1.184906e-01  0.000000e+00  5.665479e-01
     vertex -1.864829e-01  0.000000e+00  5.725336e-01
   endloop
 endfacet
 facet normal  1.458267e-01 -0.000000e+00  9.893101e-01
   outer loop
     vertex -2.540085e-01 -1.587302e-02  5.824871e-01
     vertex -1.864829e-01  0.000000e+00  5.725336e-01
     vertex -2.540085e-01  0.000000e+00  5.824871e-01
   endloop
 endfacet
 facet normal  1.458267e-01  0.000000e+00  9.893101e-01
   outer loop
     vertex -2.540085e-01 -1.587302e-02  5.824871e-01
     vertex -1.864829e-01 -1.587302e-02  5.725336e-01
     vertex -1.864829e-01  0.000000e+00  5.725336e-01
   endloop
 endfacet
 facet normal  2.034575e-01 -0.000000e+00  9.790838e-01
   outer loop
     vertex -3.208362e-01 -1.587302e-02  5.963741e-01
     vertex -2.540085e-01  0.000000e+00  5.824871e-01
     vertex -3.208362e-01  0.000000e+00  5.963741e-01
   endloop
 endfacet
 facet normal  2.034575e-01  0.000000e+00  9.790838e-01
   outer loop
     vertex -3.208362e-01 -1.587302e-02  5.963741e-01
     vertex -2.540085e-01 -1.587302e-02  5.824871e-01
     vertex -2.540085e-01  0.000000e+00  5.824871e-01
   endloop
 endfacet
 facet normal  2.603913e-01 -0.000000e+00  9.655032e-01
   outer loop
     vertex -3.867369e-01 -1.587302e-02  6.141472e-01
     vertex -3.208362e-01  0.000000e+00  5.963741e-01
     vertex -3.867369e-01  0.000000e+00  6.141472e-01
   endloop
 endfacet
 facet normal  2.603913e-01  0.000000e+00  9.655032e-01
   outer loop
     vertex -3.867369e-01 -1.587302e-02  6.141472e-01
     vertex -3.208362e-01 -1.587302e-02  5.963741e-01
     vertex -3.208362e-01  0.000000e+00  5.963741e-01
   endloop
 endfacet
 facet normal  3.164330e-01 -0.000000e+00  9.486149e-01
   outer loop
     vertex -4.514849e-01 -1.587302e-02  6.357454e-01
     vertex -3.867369e-01  0.000000e+00  6.141472e-01
     vertex -4.514849e-01  0.000000e+00  6.357454e-01
   endloop
 endfacet
 facet normal  3.164330e-01  0.000000e+00  9.486149e-01
   outer loop
     vertex -4.514849e-01 -1.587302e-02  6.357454e-01
     vertex -3.867369e-01 -1.587302e-02  6.141472e-01
     vertex -3.867369e-01  0.000000e+00  6.141472e-01
   endloop
 endfacet
 facet normal  3.713906e-01 -0.000000e+00  9.284767e-01
   outer loop
     vertex -5.148583e-01 -1.587302e-02  6.610948e-01
     vertex -4.514849e-01  0.000000e+00  6.357454e-01
     vertex -5.148583e-01  0.000000e+00  6.610948e-01
   endloop
 endfacet
 facet normal  3.713906e-01  0.000000e+00  9.284767e-01
   outer loop
     vertex -5.148583e-01 -1.587302e-02  6.610948e-01
     vertex -4.514849e-01 -1.587302e-02  6.357454e-01
     vertex -4.514849e-01  0.000000e+00  6.357454e-01
   endloop
 endfacet
 facet normal  4.250759e-01 -0.000000e+00  9.051577e-01
   outer loop
     vertex -5.766401e-01 -1.587302e-02  6.901085e-01
     vertex -5.148583e-01  0.000000e+00  6.610948e-01
     vertex -5.766401e-01  0.000000e+00  6.901085e-01
   endloop
 endfacet
 facet normal  4.250759e-01  0.000000e+00  9.051577e-01
   outer loop
     vertex -5.766401e-01 -1.587302e-02  6.901085e-01
     vertex -5.148583e-01 -1.587302e-02  6.610948e-01
     vertex -5.148583e-01  0.000000e+00  6.610948e-01
   endloop
 endfacet
 facet normal  4.773049e-01 -0.000000e+00  8.787377e-01
   outer loop
     vertex -6.366186e-01 -1.587302e-02  7.226871e-01
     vertex -5.766401e-01  0.000000e+00  6.901085e-01
     vertex -6.366186e-01  0.000000e+00  7.226871e-01
   endloop
 endfacet
 facet normal  4.773049e-01  0.000000e+00  8.787377e-01
   outer loop
     vertex -6.366186e-01 -1.587302e-02  7.226871e-01
     vertex -5.766401e-01 -1.587302e-02  6.901085e-01
     vertex -5.766401e-01  0.000000e+00  6.901085e-01
   endloop
 endfacet
 facet normal  5.278988e-01 -0.000000e+00  8.493073e-01
   outer loop
     vertex -6.945884e-01 -1.587302e-02  7.587189e-01
     vertex -6.366186e-01  0.000000e+00  7.226871e-01
     vertex -6.945884e-01  0.000000e+00  7.587189e-01
   endloop
 endfacet
 facet normal  5.278988e-01  0.000000e+00  8.493073e-01
   outer loop
     vertex -6.945884e-01 -1.587302e-02  7.587189e-01
     vertex -6.366186e-01 -1.587302e-02  7.226871e-01
     vertex -6.366186e-01  0.000000e+00  7.226871e-01
   endloop
 endfacet
 facet normal  5.766841e-01 -0.000000e+00  8.169672e-01
   outer loop
     vertex -7.503507e-01 -1.587302e-02  7.980807e-01
     vertex -6.945884e-01  0.000000e+00  7.587189e-01
     vertex -7.503507e-01  0.000000e+00  7.980807e-01
   endloop
 endfacet
 facet normal  5.766841e-01  0.000000e+00  8.169672e-01
   outer loop
     vertex -7.503507e-01 -1.587302e-02  7.980807e-01
     vertex -6.945884e-01 -1.587302e-02  7.587189e-01
     vertex -6.945884e-01  0.000000e+00  7.587189e-01
   endloop
 endfacet
 facet normal  6.234938e-01 -0.000000e+00  7.818283e-01
   outer loop
     vertex -8.037146e-01 -1.587302e-02  8.406374e-01
     vertex -7.503507e-01  0.000000e+00  7.980807e-01
     vertex -8.037146e-01  0.000000e+00  8.406374e-01
   endloop
 endfacet
 facet normal  6.234938e-01  0.000000e+00  7.818283e-01
   outer loop
     vertex -8.037146e-01 -1.587302e-02  8.406374e-01
     vertex -7.503507e-01 -1.587302e-02  7.980807e-01
     vertex -7.503507e-01  0.000000e+00  7.980807e-01
   endloop
 endfacet
 facet normal  6.681674e-01 -0.000000e+00  7.440110e-01
   outer loop
     vertex -8.544973e-01 -1.587302e-02  8.862434e-01
     vertex -8.037146e-01  0.000000e+00  8.406374e-01
     vertex -8.544973e-01  0.000000e+00  8.862434e-01
   endloop
 endfacet
 facet normal  6.681674e-01  0.000000e+00  7.440110e-01
   outer loop
     vertex -8.544973e-01 -1.587302e-02  8.862434e-01
     vertex -8.037146e-01 -1.587302e-02  8.406374e-01
     vertex -8.037146e-01  0.000000e+00  8.406374e-01
   endloop
 endfacet
endsolid
