solid 
 facet normal  0.000000e+00 -8.944273e-01  4.472133e-01
   outer loop
     vertex -1.587302e-02 -3.544973e-02  9.259264e-02
     vertex  9.841270e-01 -2.627866e-02  1.109348e-01
     vertex -1.587302e-02 -2.627866e-02  1.109348e-01
   endloop
 endfacet
 facet normal  0.000000e+00 -8.944273e-01  4.472133e-01
   outer loop
     vertex -1.587302e-02 -3.544973e-02  9.259264e-02
     vertex  9.841270e-01 -3.544973e-02  9.259264e-02
     vertex  9.841270e-01 -2.627866e-02  1.109348e-01
   endloop
 endfacet
 facet normal  0.000000e+00  9.486833e-01  3.162278e-01
   outer loop
     vertex -1.587302e-02 -2.627866e-02  1.109348e-01
     vertex  9.841270e-01  1.234576e-03  2.839511e-02
     vertex -1.587302e-02  1.234576e-03  2.839511e-02
   endloop
 endfacet
 facet normal -0.000000e+00  9.486833e-01  3.162278e-01
   outer loop
     vertex -1.587302e-02 -2.627866e-02  1.109348e-01
     vertex  9.841270e-01 -2.627866e-02  1.109348e-01
     vertex  9.841270e-01  1.234576e-03  2.839511e-02
   endloop
 endfacet
 facet normal  0.000000e+00 -1.000000e+00  0.000000e+00
   outer loop
     vertex -1.587302e-02 -3.544973e-02 -2.375661e-01
     vertex  9.841270e-01 -3.544973e-02  9.259264e-02
     vertex -1.587302e-02 -3.544973e-02  9.259264e-02
   endloop
 endfacet
 facet normal  0.000000e+00 -1.000000e+00  0.000000e+00
   outer loop
     vertex -1.587302e-02 -3.544973e-02 -2.375661e-01
     vertex  9.841270e-01 -3.544973e-02 -2.375661e-01
     vertex  9.841270e-01 -3.544973e-02  9.259264e-02
   endloop
 endfacet
 facet normal  0.000000e+00 -8.944273e-01  4.472133e-01
   outer loop
     vertex -1.587302e-02 -3.544973e-02  9.259264e-02
     vertex -1.587302e-02 -2.627866e-02  1.109348e-01
     vertex -3.174603e-02 -2.627866e-02  1.109348e-01
   endloop
 endfacet
 facet normal  0.000000e+00 -8.944273e-01  4.472133e-01
   outer loop
     vertex -1.587302e-02 -3.544973e-02  9.259264e-02
     vertex -3.174603e-02 -2.627866e-02  1.109348e-01
     vertex -3.174603e-02 -3.544973e-02  9.259264e-02
   endloop
 endfacet
 facet normal  1.000000e+00  0.000000e+00  0.000000e+00
   outer loop
     vertex  9.841270e-01  1.234576e-03  2.839511e-02
     vertex  9.841270e-01 -3.544973e-02 -2.375661e-01
     vertex  9.841270e-01  7.460319e-02 -6.331566e-02
   endloop
 endfacet
 facet normal  1.000000e+00  0.000000e+00  0.000000e+00
   outer loop
     vertex  9.841270e-01  1.112875e-01 -8.165781e-02
     vertex  9.841270e-01  7.460319e-02 -6.331566e-02
     vertex  9.841270e-01 -3.544973e-02 -2.375661e-01
   endloop
 endfacet
 facet normal  1.000000e+00  0.000000e+00  0.000000e+00
   outer loop
     vertex  9.841270e-01  1.296296e-01 -9.082890e-02
     vertex  9.841270e-01  1.112875e-01 -8.165781e-02
     vertex  9.841270e-01 -3.544973e-02 -2.375661e-01
   endloop
 endfacet
 facet normal  1.000000e+00  0.000000e+00  0.000000e+00
   outer loop
     vertex  9.841270e-01  4.708995e-02  8.818842e-04
     vertex  9.841270e-01  1.234576e-03  2.839511e-02
     vertex  9.841270e-01  7.460319e-02 -6.331566e-02
   endloop
 endfacet
 facet normal  1.000000e+00  0.000000e+00  0.000000e+00
   outer loop
     vertex  9.841270e-01  1.479718e-01 -9.999996e-02
     vertex  9.841270e-01  1.296296e-01 -9.082890e-02
     vertex  9.841270e-01 -3.544973e-02 -2.375661e-01
   endloop
 endfacet
 facet normal  1.000000e+00  0.000000e+00  0.000000e+00
   outer loop
     vertex  9.841270e-01 -3.544973e-02  9.259264e-02
     vertex  9.841270e-01 -3.544973e-02 -2.375661e-01
     vertex  9.841270e-01  1.234576e-03  2.839511e-02
   endloop
 endfacet
 facet normal  1.000000e+00  0.000000e+00  0.000000e+00
   outer loop
     vertex  9.841270e-01  7.150646e-02 -1.376802e-02
     vertex  9.841270e-01  4.708995e-02  8.818842e-04
     vertex  9.841270e-01  7.460319e-02 -6.331566e-02
   endloop
 endfacet
 facet normal  1.000000e+00  0.000000e+00  0.000000e+00
   outer loop
     vertex  9.841270e-01  2.488537e-01 -1.863915e-01
     vertex  9.841270e-01  1.479718e-01 -9.999996e-02
     vertex  9.841270e-01 -3.544973e-02 -2.375661e-01
   endloop
 endfacet
 facet normal  1.000000e+00  0.000000e+00  0.000000e+00
   outer loop
     vertex  9.841270e-01 -2.627866e-02  1.109348e-01
     vertex  9.841270e-01 -3.544973e-02  9.259264e-02
     vertex  9.841270e-01  1.234576e-03  2.839511e-02
   endloop
 endfacet
 facet normal  1.000000e+00  0.000000e+00  0.000000e+00
   outer loop
     vertex  9.841270e-01  2.488537e-01 -1.183421e-01
     vertex  9.841270e-01  1.610044e-01 -8.696738e-02
     vertex  9.841270e-01  1.479718e-01 -9.999996e-02
   endloop
 endfacet
 facet normal  1.000000e+00  0.000000e+00  0.000000e+00
   outer loop
     vertex  9.841270e-01  2.488537e-01 -1.183421e-01
     vertex  9.841270e-01  1.479718e-01 -9.999996e-02
     vertex  9.841270e-01  2.488537e-01 -1.863915e-01
   endloop
 endfacet
 facet normal  0.000000e+00  5.144958e-01  8.574929e-01
   outer loop
     vertex -1.587302e-02  1.234576e-03  2.839511e-02
     vertex  9.841270e-01  4.708995e-02  8.818842e-04
     vertex -1.587302e-02  4.708995e-02  8.818842e-04
   endloop
 endfacet
 facet normal -0.000000e+00  5.144958e-01  8.574929e-01
   outer loop
     vertex -1.587302e-02  1.234576e-03  2.839511e-02
     vertex  9.841270e-01  1.234576e-03  2.839511e-02
     vertex  9.841270e-01  4.708995e-02  8.818842e-04
   endloop
 endfacet
 facet normal  0.000000e+00  9.486833e-01  3.162278e-01
   outer loop
     vertex -1.587302e-02 -2.627866e-02  1.109348e-01
     vertex -1.587302e-02  1.234576e-03  2.839511e-02
     vertex -3.174603e-02  1.234576e-03  2.839511e-02
   endloop
 endfacet
 facet normal  0.000000e+00  9.486833e-01  3.162278e-01
   outer loop
     vertex -1.587302e-02 -2.627866e-02  1.109348e-01
     vertex -3.174603e-02  1.234576e-03  2.839511e-02
     vertex -3.174603e-02 -2.627866e-02  1.109348e-01
   endloop
 endfacet
 facet normal  0.000000e+00  1.771530e-01 -9.841833e-01
   outer loop
     vertex -1.587302e-02  2.488537e-01 -1.863915e-01
     vertex  9.841270e-01 -3.544973e-02 -2.375661e-01
     vertex -1.587302e-02 -3.544973e-02 -2.375661e-01
   endloop
 endfacet
 facet normal  0.000000e+00  1.771530e-01 -9.841833e-01
   outer loop
     vertex -1.587302e-02  2.488537e-01 -1.863915e-01
     vertex  9.841270e-01  2.488537e-01 -1.863915e-01
     vertex  9.841270e-01 -3.544973e-02 -2.375661e-01
   endloop
 endfacet
 facet normal  0.000000e+00 -1.000000e+00  0.000000e+00
   outer loop
     vertex -1.587302e-02 -3.544973e-02 -2.375661e-01
     vertex -1.587302e-02 -3.544973e-02  9.259264e-02
     vertex -3.174603e-02 -3.544973e-02  9.259264e-02
   endloop
 endfacet
 facet normal  0.000000e+00 -1.000000e+00  0.000000e+00
   outer loop
     vertex -1.587302e-02 -3.544973e-02 -2.375661e-01
     vertex -3.174603e-02 -3.544973e-02  9.259264e-02
     vertex -3.174603e-02 -3.544973e-02 -2.375661e-01
   endloop
 endfacet
 facet normal -1.000000e+00  0.000000e+00 -0.000000e+00
   outer loop
     vertex -3.174603e-02  1.234576e-03  2.839511e-02
     vertex -3.174603e-02  7.460319e-02 -6.331566e-02
     vertex -3.174603e-02 -3.544973e-02 -2.375661e-01
   endloop
 endfacet
 facet normal -1.000000e+00 -0.000000e+00  0.000000e+00
   outer loop
     vertex -3.174603e-02  1.112875e-01 -8.165781e-02
     vertex -3.174603e-02 -3.544973e-02 -2.375661e-01
     vertex -3.174603e-02  7.460319e-02 -6.331566e-02
   endloop
 endfacet
 facet normal -1.000000e+00 -0.000000e+00  0.000000e+00
   outer loop
     vertex -3.174603e-02  1.296296e-01 -9.082890e-02
     vertex -3.174603e-02 -3.544973e-02 -2.375661e-01
     vertex -3.174603e-02  1.112875e-01 -8.165781e-02
   endloop
 endfacet
 facet normal -1.000000e+00 -0.000000e+00 -0.000000e+00
   outer loop
     vertex -3.174603e-02  4.708995e-02  8.818842e-04
     vertex -3.174603e-02  7.460319e-02 -6.331566e-02
     vertex -3.174603e-02  1.234576e-03  2.839511e-02
   endloop
 endfacet
 facet normal -1.000000e+00 -0.000000e+00  0.000000e+00
   outer loop
     vertex -3.174603e-02  1.479718e-01 -9.999996e-02
     vertex -3.174603e-02 -3.544973e-02 -2.375661e-01
     vertex -3.174603e-02  1.296296e-01 -9.082890e-02
   endloop
 endfacet
 facet normal -1.000000e+00  0.000000e+00  0.000000e+00
   outer loop
     vertex -3.174603e-02 -3.544973e-02  9.259264e-02
     vertex -3.174603e-02  1.234576e-03  2.839511e-02
     vertex -3.174603e-02 -3.544973e-02 -2.375661e-01
   endloop
 endfacet
 facet normal -1.000000e+00 -0.000000e+00 -0.000000e+00
   outer loop
     vertex -3.174603e-02  7.150646e-02 -1.376802e-02
     vertex -3.174603e-02  7.460319e-02 -6.331566e-02
     vertex -3.174603e-02  4.708995e-02  8.818842e-04
   endloop
 endfacet
 facet normal -1.000000e+00 -0.000000e+00  0.000000e+00
   outer loop
     vertex -3.174603e-02  2.488537e-01 -1.863915e-01
     vertex -3.174603e-02 -3.544973e-02 -2.375661e-01
     vertex -3.174603e-02  1.479718e-01 -9.999996e-02
   endloop
 endfacet
 facet normal -1.000000e+00  0.000000e+00 -0.000000e+00
   outer loop
     vertex -3.174603e-02 -2.627866e-02  1.109348e-01
     vertex -3.174603e-02  1.234576e-03  2.839511e-02
     vertex -3.174603e-02 -3.544973e-02  9.259264e-02
   endloop
 endfacet
 facet normal -1.000000e+00  0.000000e+00  0.000000e+00
   outer loop
     vertex -3.174603e-02  2.488537e-01 -1.183421e-01
     vertex -3.174603e-02  1.479718e-01 -9.999996e-02
     vertex -3.174603e-02  1.610044e-01 -8.696738e-02
   endloop
 endfacet
 facet normal -1.000000e+00 -0.000000e+00 -0.000000e+00
   outer loop
     vertex -3.174603e-02  2.488537e-01 -1.183421e-01
     vertex -3.174603e-02  2.488537e-01 -1.863915e-01
     vertex -3.174603e-02  1.479718e-01 -9.999996e-02
   endloop
 endfacet
 facet normal  1.000000e+00  0.000000e+00  0.000000e+00
   outer loop
     vertex  9.841270e-01  7.022929e-02  6.666716e-03
     vertex  9.841270e-01  4.708995e-02  8.818842e-04
     vertex  9.841270e-01  7.150646e-02 -1.376802e-02
   endloop
 endfacet
 facet normal  1.000000e+00  0.000000e+00  0.000000e+00
   outer loop
     vertex  9.841270e-01  1.204586e-01 -7.248674e-02
     vertex  9.841270e-01  7.460319e-02 -6.331566e-02
     vertex  9.841270e-01  1.112875e-01 -8.165781e-02
   endloop
 endfacet
 facet normal  1.000000e+00  0.000000e+00  0.000000e+00
   outer loop
     vertex  9.841270e-01  1.204586e-01 -7.248674e-02
     vertex  9.841270e-01  1.112875e-01 -8.165781e-02
     vertex  9.841270e-01  1.296296e-01 -9.082890e-02
   endloop
 endfacet
 facet normal  1.000000e+00  0.000000e+00  0.000000e+00
   outer loop
     vertex  9.841270e-01  9.294534e-02 -2.663134e-02
     vertex  9.841270e-01  7.150646e-02 -1.376802e-02
     vertex  9.841270e-01  7.460319e-02 -6.331566e-02
   endloop
 endfacet
 facet normal  1.000000e+00  0.000000e+00  0.000000e+00
   outer loop
     vertex  9.841270e-01  9.294534e-02 -2.663134e-02
     vertex  9.841270e-01  7.460319e-02 -6.331566e-02
     vertex  9.841270e-01  1.204586e-01 -7.248674e-02
   endloop
 endfacet
 facet normal  1.000000e+00  0.000000e+00  0.000000e+00
   outer loop
     vertex  9.841270e-01  1.610044e-01 -8.696738e-02
     vertex  9.841270e-01  1.296296e-01 -9.082890e-02
     vertex  9.841270e-01  1.479718e-01 -9.999996e-02
   endloop
 endfacet
 facet normal  1.000000e+00  0.000000e+00  0.000000e+00
   outer loop
     vertex  9.841270e-01  1.610044e-01 -8.696738e-02
     vertex  9.841270e-01  1.204586e-01 -7.248674e-02
     vertex  9.841270e-01  1.296296e-01 -9.082890e-02
   endloop
 endfacet
 facet normal  0.000000e+00  3.363363e-01  9.417419e-01
   outer loop
     vertex -1.587302e-02  1.610044e-01 -8.696738e-02
     vertex  9.841270e-01  2.488537e-01 -1.183421e-01
     vertex -1.587302e-02  2.488537e-01 -1.183421e-01
   endloop
 endfacet
 facet normal -0.000000e+00  3.363363e-01  9.417419e-01
   outer loop
     vertex -1.587302e-02  1.610044e-01 -8.696738e-02
     vertex  9.841270e-01  1.610044e-01 -8.696738e-02
     vertex  9.841270e-01  2.488537e-01 -1.183421e-01
   endloop
 endfacet
 facet normal  1.000000e+00  0.000000e+00  0.000000e+00
   outer loop
     vertex  9.841270e-01  3.222223e-01 -1.366843e-01
     vertex  9.841270e-01  2.488537e-01 -1.183421e-01
     vertex  9.841270e-01  2.488537e-01 -1.863915e-01
   endloop
 endfacet
 facet normal  1.000000e+00  0.000000e+00  0.000000e+00
   outer loop
     vertex  9.841270e-01  3.650206e-01 -1.427983e-01
     vertex  9.841270e-01  3.222223e-01 -1.366843e-01
     vertex  9.841270e-01  2.488537e-01 -1.863915e-01
   endloop
 endfacet
 facet normal  1.000000e+00  0.000000e+00  0.000000e+00
   outer loop
     vertex  9.841270e-01  4.231041e-01 -1.550264e-01
     vertex  9.841270e-01  3.650206e-01 -1.427983e-01
     vertex  9.841270e-01  2.488537e-01 -1.863915e-01
   endloop
 endfacet
 facet normal  0.000000e+00 -2.425354e-01  9.701425e-01
   outer loop
     vertex -1.587302e-02  4.708995e-02  8.818842e-04
     vertex  9.841270e-01  7.022929e-02  6.666716e-03
     vertex -1.587302e-02  7.022929e-02  6.666716e-03
   endloop
 endfacet
 facet normal  0.000000e+00 -2.425354e-01  9.701425e-01
   outer loop
     vertex -1.587302e-02  4.708995e-02  8.818842e-04
     vertex  9.841270e-01  4.708995e-02  8.818842e-04
     vertex  9.841270e-01  7.022929e-02  6.666716e-03
   endloop
 endfacet
 facet normal  0.000000e+00  5.144958e-01  8.574929e-01
   outer loop
     vertex -1.587302e-02  1.234576e-03  2.839511e-02
     vertex -1.587302e-02  4.708995e-02  8.818842e-04
     vertex -3.174603e-02  4.708995e-02  8.818842e-04
   endloop
 endfacet
 facet normal  0.000000e+00  5.144958e-01  8.574929e-01
   outer loop
     vertex -1.587302e-02  1.234576e-03  2.839511e-02
     vertex -3.174603e-02  4.708995e-02  8.818842e-04
     vertex -3.174603e-02  1.234576e-03  2.839511e-02
   endloop
 endfacet
 facet normal  0.000000e+00 -1.000000e+00  0.000000e+00
   outer loop
     vertex -1.587302e-02  2.488537e-01 -2.008818e-01
     vertex  9.841270e-01  2.488537e-01 -1.863915e-01
     vertex -1.587302e-02  2.488537e-01 -1.863915e-01
   endloop
 endfacet
 facet normal  0.000000e+00 -1.000000e+00  0.000000e+00
   outer loop
     vertex -1.587302e-02  2.488537e-01 -2.008818e-01
     vertex  9.841270e-01  2.488537e-01 -2.008818e-01
     vertex  9.841270e-01  2.488537e-01 -1.863915e-01
   endloop
 endfacet
 facet normal  0.000000e+00  1.771530e-01 -9.841833e-01
   outer loop
     vertex -1.587302e-02  2.488537e-01 -1.863915e-01
     vertex -1.587302e-02 -3.544973e-02 -2.375661e-01
     vertex -3.174603e-02 -3.544973e-02 -2.375661e-01
   endloop
 endfacet
 facet normal  0.000000e+00  1.771530e-01 -9.841833e-01
   outer loop
     vertex -1.587302e-02  2.488537e-01 -1.863915e-01
     vertex -3.174603e-02 -3.544973e-02 -2.375661e-01
     vertex -3.174603e-02  2.488537e-01 -1.863915e-01
   endloop
 endfacet
 facet normal -1.000000e+00  0.000000e+00 -0.000000e+00
   outer loop
     vertex -3.174603e-02  7.022929e-02  6.666716e-03
     vertex -3.174603e-02  7.150646e-02 -1.376802e-02
     vertex -3.174603e-02  4.708995e-02  8.818842e-04
   endloop
 endfacet
 facet normal -1.000000e+00 -0.000000e+00  0.000000e+00
   outer loop
     vertex -3.174603e-02  1.204586e-01 -7.248674e-02
     vertex -3.174603e-02  1.112875e-01 -8.165781e-02
     vertex -3.174603e-02  7.460319e-02 -6.331566e-02
   endloop
 endfacet
 facet normal -1.000000e+00  0.000000e+00 -0.000000e+00
   outer loop
     vertex -3.174603e-02  1.204586e-01 -7.248674e-02
     vertex -3.174603e-02  1.296296e-01 -9.082890e-02
     vertex -3.174603e-02  1.112875e-01 -8.165781e-02
   endloop
 endfacet
 facet normal -1.000000e+00 -0.000000e+00  0.000000e+00
   outer loop
     vertex -3.174603e-02  9.294534e-02 -2.663134e-02
     vertex -3.174603e-02  7.460319e-02 -6.331566e-02
     vertex -3.174603e-02  7.150646e-02 -1.376802e-02
   endloop
 endfacet
 facet normal -1.000000e+00  0.000000e+00 -0.000000e+00
   outer loop
     vertex -3.174603e-02  9.294534e-02 -2.663134e-02
     vertex -3.174603e-02  1.204586e-01 -7.248674e-02
     vertex -3.174603e-02  7.460319e-02 -6.331566e-02
   endloop
 endfacet
 facet normal -1.000000e+00  0.000000e+00  0.000000e+00
   outer loop
     vertex -3.174603e-02  1.610044e-01 -8.696738e-02
     vertex -3.174603e-02  1.479718e-01 -9.999996e-02
     vertex -3.174603e-02  1.296296e-01 -9.082890e-02
   endloop
 endfacet
 facet normal -1.000000e+00 -0.000000e+00  0.000000e+00
   outer loop
     vertex -3.174603e-02  1.610044e-01 -8.696738e-02
     vertex -3.174603e-02  1.296296e-01 -9.082890e-02
     vertex -3.174603e-02  1.204586e-01 -7.248674e-02
   endloop
 endfacet
 facet normal  0.000000e+00  3.363363e-01  9.417419e-01
   outer loop
     vertex -1.587302e-02  1.610044e-01 -8.696738e-02
     vertex -1.587302e-02  2.488537e-01 -1.183421e-01
     vertex -3.174603e-02  2.488537e-01 -1.183421e-01
   endloop
 endfacet
 facet normal  0.000000e+00  3.363363e-01  9.417419e-01
   outer loop
     vertex -1.587302e-02  1.610044e-01 -8.696738e-02
     vertex -3.174603e-02  2.488537e-01 -1.183421e-01
     vertex -3.174603e-02  1.610044e-01 -8.696738e-02
   endloop
 endfacet
 facet normal -1.000000e+00 -0.000000e+00  0.000000e+00
   outer loop
     vertex -3.174603e-02  3.222223e-01 -1.366843e-01
     vertex -3.174603e-02  2.488537e-01 -1.863915e-01
     vertex -3.174603e-02  2.488537e-01 -1.183421e-01
   endloop
 endfacet
 facet normal -1.000000e+00 -0.000000e+00  0.000000e+00
   outer loop
     vertex -3.174603e-02  3.650206e-01 -1.427983e-01
     vertex -3.174603e-02  2.488537e-01 -1.863915e-01
     vertex -3.174603e-02  3.222223e-01 -1.366843e-01
   endloop
 endfacet
 facet normal -1.000000e+00 -0.000000e+00  0.000000e+00
   outer loop
     vertex -3.174603e-02  4.231041e-01 -1.550264e-01
     vertex -3.174603e-02  2.488537e-01 -1.863915e-01
     vertex -3.174603e-02  3.650206e-01 -1.427983e-01
   endloop
 endfacet
 facet normal  1.000000e+00  0.000000e+00  0.000000e+00
   outer loop
     vertex  9.841270e-01  8.377427e-02  1.005296e-02
     vertex  9.841270e-01  7.150646e-02 -1.376802e-02
     vertex  9.841270e-01  9.294534e-02 -2.663134e-02
   endloop
 endfacet
 facet normal  1.000000e+00  0.000000e+00  0.000000e+00
   outer loop
     vertex  9.841270e-01  8.377427e-02  1.005296e-02
     vertex  9.841270e-01  7.022929e-02  6.666716e-03
     vertex  9.841270e-01  7.150646e-02 -1.376802e-02
   endloop
 endfacet
 facet normal  1.000000e+00  0.000000e+00  0.000000e+00
   outer loop
     vertex  9.841270e-01  1.112875e-01 -1.746027e-02
     vertex  9.841270e-01  8.377427e-02  1.005296e-02
     vertex  9.841270e-01  9.294534e-02 -2.663134e-02
   endloop
 endfacet
 facet normal  1.000000e+00  0.000000e+00  0.000000e+00
   outer loop
     vertex  9.841270e-01  1.112875e-01 -1.746027e-02
     vertex  9.841270e-01  9.294534e-02 -2.663134e-02
     vertex  9.841270e-01  1.204586e-01 -7.248674e-02
   endloop
 endfacet
 facet normal  1.000000e+00  0.000000e+00  0.000000e+00
   outer loop
     vertex  9.841270e-01  6.543212e-02  8.342156e-02
     vertex  9.841270e-01  7.022929e-02  6.666716e-03
     vertex  9.841270e-01  8.377427e-02  1.005296e-02
   endloop
 endfacet
 facet normal  1.000000e+00  0.000000e+00  0.000000e+00
   outer loop
     vertex  9.841270e-01  6.543212e-02  8.342156e-02
     vertex  9.841270e-01  8.377427e-02  1.005296e-02
     vertex  9.841270e-01  1.112875e-01 -1.746027e-02
   endloop
 endfacet
 facet normal  1.000000e+00  0.000000e+00  0.000000e+00
   outer loop
     vertex  9.841270e-01  2.029983e-01 -4.497349e-02
     vertex  9.841270e-01  1.204586e-01 -7.248674e-02
     vertex  9.841270e-01  1.610044e-01 -8.696738e-02
   endloop
 endfacet
 facet normal  1.000000e+00  0.000000e+00  0.000000e+00
   outer loop
     vertex  9.841270e-01  2.029983e-01 -4.497349e-02
     vertex  9.841270e-01  1.112875e-01 -1.746027e-02
     vertex  9.841270e-01  1.204586e-01 -7.248674e-02
   endloop
 endfacet
 facet normal  1.000000e+00  0.000000e+00  0.000000e+00
   outer loop
     vertex  9.841270e-01  2.213404e-01 -3.580242e-02
     vertex  9.841270e-01  6.543212e-02  8.342156e-02
     vertex  9.841270e-01  1.112875e-01 -1.746027e-02
   endloop
 endfacet
 facet normal  1.000000e+00  0.000000e+00  0.000000e+00
   outer loop
     vertex  9.841270e-01  2.213404e-01 -3.580242e-02
     vertex  9.841270e-01  1.112875e-01 -1.746027e-02
     vertex  9.841270e-01  2.029983e-01 -4.497349e-02
   endloop
 endfacet
 facet normal  1.000000e+00  0.000000e+00  0.000000e+00
   outer loop
     vertex  9.841270e-01  3.038801e-01  3.756618e-02
     vertex  9.841270e-01  2.213404e-01 -3.580242e-02
     vertex  9.841270e-01  3.130512e-01  1.922403e-02
   endloop
 endfacet
 facet normal  1.000000e+00  0.000000e+00  0.000000e+00
   outer loop
     vertex  9.841270e-01  3.038801e-01  3.756618e-02
     vertex  9.841270e-01  6.543212e-02  8.342156e-02
     vertex  9.841270e-01  2.213404e-01 -3.580242e-02
   endloop
 endfacet
 facet normal  0.000000e+00  2.060105e-01  9.785498e-01
   outer loop
     vertex -1.587302e-02  2.488537e-01 -1.183421e-01
     vertex  9.841270e-01  3.650206e-01 -1.427983e-01
     vertex -1.587302e-02  3.650206e-01 -1.427983e-01
   endloop
 endfacet
 facet normal -0.000000e+00  2.060105e-01  9.785498e-01
   outer loop
     vertex -1.587302e-02  2.488537e-01 -1.183421e-01
     vertex  9.841270e-01  2.488537e-01 -1.183421e-01
     vertex  9.841270e-01  3.650206e-01 -1.427983e-01
   endloop
 endfacet
 facet normal  0.000000e+00  7.071069e-01 -7.071067e-01
   outer loop
     vertex -1.587302e-02  2.029983e-01 -4.497349e-02
     vertex  9.841270e-01  1.610044e-01 -8.696738e-02
     vertex -1.587302e-02  1.610044e-01 -8.696738e-02
   endloop
 endfacet
 facet normal  0.000000e+00  7.071069e-01 -7.071067e-01
   outer loop
     vertex -1.587302e-02  2.029983e-01 -4.497349e-02
     vertex  9.841270e-01  2.029983e-01 -4.497349e-02
     vertex  9.841270e-01  1.610044e-01 -8.696738e-02
   endloop
 endfacet
 facet normal  1.000000e+00  0.000000e+00  0.000000e+00
   outer loop
     vertex  9.841270e-01  3.650206e-01 -1.427983e-01
     vertex  9.841270e-01  2.488537e-01 -1.183421e-01
     vertex  9.841270e-01  3.222223e-01 -1.366843e-01
   endloop
 endfacet
 facet normal  1.000000e+00  0.000000e+00  0.000000e+00
   outer loop
     vertex  9.841270e-01  3.650206e-01 -1.427983e-01
     vertex  9.841270e-01  4.231041e-01 -1.550264e-01
     vertex  9.841270e-01  3.864198e-01 -1.458553e-01
   endloop
 endfacet
 facet normal  1.000000e+00  0.000000e+00  0.000000e+00
   outer loop
     vertex  9.841270e-01  3.313933e-01 -2.467372e-01
     vertex  9.841270e-01  2.488537e-01 -1.863915e-01
     vertex  9.841270e-01  2.488537e-01 -2.008818e-01
   endloop
 endfacet
 facet normal  1.000000e+00  0.000000e+00  0.000000e+00
   outer loop
     vertex  9.841270e-01  3.772487e-01 -2.192240e-01
     vertex  9.841270e-01  2.488537e-01 -1.863915e-01
     vertex  9.841270e-01  3.313933e-01 -2.467372e-01
   endloop
 endfacet
 facet normal  1.000000e+00  0.000000e+00  0.000000e+00
   outer loop
     vertex  9.841270e-01  3.955908e-01 -2.008818e-01
     vertex  9.841270e-01  2.488537e-01 -1.863915e-01
     vertex  9.841270e-01  3.772487e-01 -2.192240e-01
   endloop
 endfacet
 facet normal  1.000000e+00  0.000000e+00  0.000000e+00
   outer loop
     vertex  9.841270e-01  4.231041e-01 -1.550264e-01
     vertex  9.841270e-01  2.488537e-01 -1.863915e-01
     vertex  9.841270e-01  3.955908e-01 -2.008818e-01
   endloop
 endfacet
 facet normal  0.000000e+00 -9.980526e-01 -6.237828e-02
   outer loop
     vertex -1.587302e-02  7.022929e-02  6.666716e-03
     vertex  9.841270e-01  6.543212e-02  8.342156e-02
     vertex -1.587302e-02  6.543212e-02  8.342156e-02
   endloop
 endfacet
 facet normal  0.000000e+00 -9.980526e-01 -6.237828e-02
   outer loop
     vertex -1.587302e-02  7.022929e-02  6.666716e-03
     vertex  9.841270e-01  7.022929e-02  6.666716e-03
     vertex  9.841270e-01  6.543212e-02  8.342156e-02
   endloop
 endfacet
 facet normal  0.000000e+00 -2.425354e-01  9.701425e-01
   outer loop
     vertex -1.587302e-02  4.708995e-02  8.818842e-04
     vertex -1.587302e-02  7.022929e-02  6.666716e-03
     vertex -3.174603e-02  7.022929e-02  6.666716e-03
   endloop
 endfacet
 facet normal  0.000000e+00 -2.425354e-01  9.701425e-01
   outer loop
     vertex -1.587302e-02  4.708995e-02  8.818842e-04
     vertex -3.174603e-02  7.022929e-02  6.666716e-03
     vertex -3.174603e-02  4.708995e-02  8.818842e-04
   endloop
 endfacet
 facet normal  0.000000e+00 -4.856431e-01 -8.741572e-01
   outer loop
     vertex -1.587302e-02  3.313933e-01 -2.467372e-01
     vertex  9.841270e-01  2.488537e-01 -2.008818e-01
     vertex -1.587302e-02  2.488537e-01 -2.008818e-01
   endloop
 endfacet
 facet normal  0.000000e+00 -4.856431e-01 -8.741572e-01
   outer loop
     vertex -1.587302e-02  3.313933e-01 -2.467372e-01
     vertex  9.841270e-01  3.313933e-01 -2.467372e-01
     vertex  9.841270e-01  2.488537e-01 -2.008818e-01
   endloop
 endfacet
 facet normal  0.000000e+00 -1.000000e+00  0.000000e+00
   outer loop
     vertex -1.587302e-02  2.488537e-01 -2.008818e-01
     vertex -1.587302e-02  2.488537e-01 -1.863915e-01
     vertex -3.174603e-02  2.488537e-01 -1.863915e-01
   endloop
 endfacet
 facet normal  0.000000e+00 -1.000000e+00  0.000000e+00
   outer loop
     vertex -1.587302e-02  2.488537e-01 -2.008818e-01
     vertex -3.174603e-02  2.488537e-01 -1.863915e-01
     vertex -3.174603e-02  2.488537e-01 -2.008818e-01
   endloop
 endfacet
 facet normal -1.000000e+00  0.000000e+00 -0.000000e+00
   outer loop
     vertex -3.174603e-02  8.377427e-02  1.005296e-02
     vertex -3.174603e-02  9.294534e-02 -2.663134e-02
     vertex -3.174603e-02  7.150646e-02 -1.376802e-02
   endloop
 endfacet
 facet normal -1.000000e+00  0.000000e+00  0.000000e+00
   outer loop
     vertex -3.174603e-02  8.377427e-02  1.005296e-02
     vertex -3.174603e-02  7.150646e-02 -1.376802e-02
     vertex -3.174603e-02  7.022929e-02  6.666716e-03
   endloop
 endfacet
 facet normal -1.000000e+00 -0.000000e+00  0.000000e+00
   outer loop
     vertex -3.174603e-02  1.112875e-01 -1.746027e-02
     vertex -3.174603e-02  9.294534e-02 -2.663134e-02
     vertex -3.174603e-02  8.377427e-02  1.005296e-02
   endloop
 endfacet
 facet normal -1.000000e+00  0.000000e+00 -0.000000e+00
   outer loop
     vertex -3.174603e-02  1.112875e-01 -1.746027e-02
     vertex -3.174603e-02  1.204586e-01 -7.248674e-02
     vertex -3.174603e-02  9.294534e-02 -2.663134e-02
   endloop
 endfacet
 facet normal -1.000000e+00  0.000000e+00  0.000000e+00
   outer loop
     vertex -3.174603e-02  6.543212e-02  8.342156e-02
     vertex -3.174603e-02  8.377427e-02  1.005296e-02
     vertex -3.174603e-02  7.022929e-02  6.666716e-03
   endloop
 endfacet
 facet normal -1.000000e+00  0.000000e+00  0.000000e+00
   outer loop
     vertex -3.174603e-02  6.543212e-02  8.342156e-02
     vertex -3.174603e-02  1.112875e-01 -1.746027e-02
     vertex -3.174603e-02  8.377427e-02  1.005296e-02
   endloop
 endfacet
 facet normal -1.000000e+00  0.000000e+00  0.000000e+00
   outer loop
     vertex -3.174603e-02  2.029983e-01 -4.497349e-02
     vertex -3.174603e-02  1.610044e-01 -8.696738e-02
     vertex -3.174603e-02  1.204586e-01 -7.248674e-02
   endloop
 endfacet
 facet normal -1.000000e+00 -0.000000e+00  0.000000e+00
   outer loop
     vertex -3.174603e-02  2.029983e-01 -4.497349e-02
     vertex -3.174603e-02  1.204586e-01 -7.248674e-02
     vertex -3.174603e-02  1.112875e-01 -1.746027e-02
   endloop
 endfacet
 facet normal -1.000000e+00  0.000000e+00  0.000000e+00
   outer loop
     vertex -3.174603e-02  2.213404e-01 -3.580242e-02
     vertex -3.174603e-02  1.112875e-01 -1.746027e-02
     vertex -3.174603e-02  6.543212e-02  8.342156e-02
   endloop
 endfacet
 facet normal -1.000000e+00 -0.000000e+00  0.000000e+00
   outer loop
     vertex -3.174603e-02  2.213404e-01 -3.580242e-02
     vertex -3.174603e-02  2.029983e-01 -4.497349e-02
     vertex -3.174603e-02  1.112875e-01 -1.746027e-02
   endloop
 endfacet
 facet normal -1.000000e+00  0.000000e+00 -0.000000e+00
   outer loop
     vertex -3.174603e-02  3.038801e-01  3.756618e-02
     vertex -3.174603e-02  3.130512e-01  1.922403e-02
     vertex -3.174603e-02  2.213404e-01 -3.580242e-02
   endloop
 endfacet
 facet normal -1.000000e+00 -0.000000e+00  0.000000e+00
   outer loop
     vertex -3.174603e-02  3.038801e-01  3.756618e-02
     vertex -3.174603e-02  2.213404e-01 -3.580242e-02
     vertex -3.174603e-02  6.543212e-02  8.342156e-02
   endloop
 endfacet
 facet normal  0.000000e+00  2.060105e-01  9.785498e-01
   outer loop
     vertex -1.587302e-02  2.488537e-01 -1.183421e-01
     vertex -1.587302e-02  3.650206e-01 -1.427983e-01
     vertex -3.174603e-02  3.650206e-01 -1.427983e-01
   endloop
 endfacet
 facet normal  0.000000e+00  2.060105e-01  9.785498e-01
   outer loop
     vertex -1.587302e-02  2.488537e-01 -1.183421e-01
     vertex -3.174603e-02  3.650206e-01 -1.427983e-01
     vertex -3.174603e-02  2.488537e-01 -1.183421e-01
   endloop
 endfacet
 facet normal  0.000000e+00  7.071069e-01 -7.071067e-01
   outer loop
     vertex -1.587302e-02  2.029983e-01 -4.497349e-02
     vertex -1.587302e-02  1.610044e-01 -8.696738e-02
     vertex -3.174603e-02  1.610044e-01 -8.696738e-02
   endloop
 endfacet
 facet normal  0.000000e+00  7.071069e-01 -7.071067e-01
   outer loop
     vertex -1.587302e-02  2.029983e-01 -4.497349e-02
     vertex -3.174603e-02  1.610044e-01 -8.696738e-02
     vertex -3.174603e-02  2.029983e-01 -4.497349e-02
   endloop
 endfacet
 facet normal -1.000000e+00  0.000000e+00  0.000000e+00
   outer loop
     vertex -3.174603e-02  3.650206e-01 -1.427983e-01
     vertex -3.174603e-02  3.222223e-01 -1.366843e-01
     vertex -3.174603e-02  2.488537e-01 -1.183421e-01
   endloop
 endfacet
 facet normal -1.000000e+00  0.000000e+00  0.000000e+00
   outer loop
     vertex -3.174603e-02  3.650206e-01 -1.427983e-01
     vertex -3.174603e-02  3.864198e-01 -1.458553e-01
     vertex -3.174603e-02  4.231041e-01 -1.550264e-01
   endloop
 endfacet
 facet normal -1.000000e+00  0.000000e+00  0.000000e+00
   outer loop
     vertex -3.174603e-02  3.313933e-01 -2.467372e-01
     vertex -3.174603e-02  2.488537e-01 -2.008818e-01
     vertex -3.174603e-02  2.488537e-01 -1.863915e-01
   endloop
 endfacet
 facet normal -1.000000e+00 -0.000000e+00  0.000000e+00
   outer loop
     vertex -3.174603e-02  3.772487e-01 -2.192240e-01
     vertex -3.174603e-02  3.313933e-01 -2.467372e-01
     vertex -3.174603e-02  2.488537e-01 -1.863915e-01
   endloop
 endfacet
 facet normal -1.000000e+00 -0.000000e+00  0.000000e+00
   outer loop
     vertex -3.174603e-02  3.955908e-01 -2.008818e-01
     vertex -3.174603e-02  3.772487e-01 -2.192240e-01
     vertex -3.174603e-02  2.488537e-01 -1.863915e-01
   endloop
 endfacet
 facet normal -1.000000e+00  0.000000e+00  0.000000e+00
   outer loop
     vertex -3.174603e-02  4.231041e-01 -1.550264e-01
     vertex -3.174603e-02  3.955908e-01 -2.008818e-01
     vertex -3.174603e-02  2.488537e-01 -1.863915e-01
   endloop
 endfacet
 facet normal  0.000000e+00  1.888474e-01  9.820065e-01
   outer loop
     vertex -1.587302e-02  6.543212e-02  8.342156e-02
     vertex  9.841270e-01  3.038801e-01  3.756618e-02
     vertex -1.587302e-02  3.038801e-01  3.756618e-02
   endloop
 endfacet
 facet normal -0.000000e+00  1.888474e-01  9.820065e-01
   outer loop
     vertex -1.587302e-02  6.543212e-02  8.342156e-02
     vertex  9.841270e-01  6.543212e-02  8.342156e-02
     vertex  9.841270e-01  3.038801e-01  3.756618e-02
   endloop
 endfacet
 facet normal  0.000000e+00  8.944273e-01  4.472133e-01
   outer loop
     vertex -1.587302e-02  3.038801e-01  3.756618e-02
     vertex  9.841270e-01  3.130512e-01  1.922403e-02
     vertex -1.587302e-02  3.130512e-01  1.922403e-02
   endloop
 endfacet
 facet normal -0.000000e+00  8.944273e-01  4.472133e-01
   outer loop
     vertex -1.587302e-02  3.038801e-01  3.756618e-02
     vertex  9.841270e-01  3.038801e-01  3.756618e-02
     vertex  9.841270e-01  3.130512e-01  1.922403e-02
   endloop
 endfacet
 facet normal  0.000000e+00  5.144958e-01 -8.574929e-01
   outer loop
     vertex -1.587302e-02  3.130512e-01  1.922403e-02
     vertex  9.841270e-01  2.213404e-01 -3.580242e-02
     vertex -1.587302e-02  2.213404e-01 -3.580242e-02
   endloop
 endfacet
 facet normal  0.000000e+00  5.144958e-01 -8.574929e-01
   outer loop
     vertex -1.587302e-02  3.130512e-01  1.922403e-02
     vertex  9.841270e-01  3.130512e-01  1.922403e-02
     vertex  9.841270e-01  2.213404e-01 -3.580242e-02
   endloop
 endfacet
 facet normal  0.000000e+00  4.472136e-01 -8.944272e-01
   outer loop
     vertex -1.587302e-02  2.213404e-01 -3.580242e-02
     vertex  9.841270e-01  2.029983e-01 -4.497349e-02
     vertex -1.587302e-02  2.029983e-01 -4.497349e-02
   endloop
 endfacet
 facet normal  0.000000e+00  4.472136e-01 -8.944272e-01
   outer loop
     vertex -1.587302e-02  2.213404e-01 -3.580242e-02
     vertex  9.841270e-01  2.213404e-01 -3.580242e-02
     vertex  9.841270e-01  2.029983e-01 -4.497349e-02
   endloop
 endfacet
 facet normal  0.000000e+00  1.414213e-01  9.899495e-01
   outer loop
     vertex -1.587302e-02  3.650206e-01 -1.427983e-01
     vertex  9.841270e-01  3.864198e-01 -1.458553e-01
     vertex -1.587302e-02  3.864198e-01 -1.458553e-01
   endloop
 endfacet
 facet normal -0.000000e+00  1.414213e-01  9.899495e-01
   outer loop
     vertex -1.587302e-02  3.650206e-01 -1.427983e-01
     vertex  9.841270e-01  3.650206e-01 -1.427983e-01
     vertex  9.841270e-01  3.864198e-01 -1.458553e-01
   endloop
 endfacet
 facet normal  0.000000e+00  2.425356e-01  9.701425e-01
   outer loop
     vertex -1.587302e-02  3.864198e-01 -1.458553e-01
     vertex  9.841270e-01  4.231041e-01 -1.550264e-01
     vertex -1.587302e-02  4.231041e-01 -1.550264e-01
   endloop
 endfacet
 facet normal -0.000000e+00  2.425356e-01  9.701425e-01
   outer loop
     vertex -1.587302e-02  3.864198e-01 -1.458553e-01
     vertex  9.841270e-01  3.864198e-01 -1.458553e-01
     vertex  9.841270e-01  4.231041e-01 -1.550264e-01
   endloop
 endfacet
 facet normal  0.000000e+00  8.574926e-01 -5.144963e-01
   outer loop
     vertex -1.587302e-02  4.231041e-01 -1.550264e-01
     vertex  9.841270e-01  3.955908e-01 -2.008818e-01
     vertex -1.587302e-02  3.955908e-01 -2.008818e-01
   endloop
 endfacet
 facet normal  0.000000e+00  8.574926e-01 -5.144963e-01
   outer loop
     vertex -1.587302e-02  4.231041e-01 -1.550264e-01
     vertex  9.841270e-01  4.231041e-01 -1.550264e-01
     vertex  9.841270e-01  3.955908e-01 -2.008818e-01
   endloop
 endfacet
 facet normal  0.000000e+00  7.071074e-01 -7.071062e-01
   outer loop
     vertex -1.587302e-02  3.955908e-01 -2.008818e-01
     vertex  9.841270e-01  3.772487e-01 -2.192240e-01
     vertex -1.587302e-02  3.772487e-01 -2.192240e-01
   endloop
 endfacet
 facet normal  0.000000e+00  7.071074e-01 -7.071062e-01
   outer loop
     vertex -1.587302e-02  3.955908e-01 -2.008818e-01
     vertex  9.841270e-01  3.955908e-01 -2.008818e-01
     vertex  9.841270e-01  3.772487e-01 -2.192240e-01
   endloop
 endfacet
 facet normal  0.000000e+00  5.144959e-01 -8.574928e-01
   outer loop
     vertex -1.587302e-02  3.772487e-01 -2.192240e-01
     vertex  9.841270e-01  3.313933e-01 -2.467372e-01
     vertex -1.587302e-02  3.313933e-01 -2.467372e-01
   endloop
 endfacet
 facet normal  0.000000e+00  5.144959e-01 -8.574928e-01
   outer loop
     vertex -1.587302e-02  3.772487e-01 -2.192240e-01
     vertex  9.841270e-01  3.772487e-01 -2.192240e-01
     vertex  9.841270e-01  3.313933e-01 -2.467372e-01
   endloop
 endfacet
 facet normal  0.000000e+00 -9.980526e-01 -6.237828e-02
   outer loop
     vertex -1.587302e-02  7.022929e-02  6.666716e-03
     vertex -1.587302e-02  6.543212e-02  8.342156e-02
     vertex -3.174603e-02  6.543212e-02  8.342156e-02
   endloop
 endfacet
 facet normal -0.000000e+00 -9.980526e-01 -6.237828e-02
   outer loop
     vertex -1.587302e-02  7.022929e-02  6.666716e-03
     vertex -3.174603e-02  6.543212e-02  8.342156e-02
     vertex -3.174603e-02  7.022929e-02  6.666716e-03
   endloop
 endfacet
 facet normal  0.000000e+00 -4.856431e-01 -8.741572e-01
   outer loop
     vertex -1.587302e-02  3.313933e-01 -2.467372e-01
     vertex -1.587302e-02  2.488537e-01 -2.008818e-01
     vertex -3.174603e-02  2.488537e-01 -2.008818e-01
   endloop
 endfacet
 facet normal -0.000000e+00 -4.856431e-01 -8.741572e-01
   outer loop
     vertex -1.587302e-02  3.313933e-01 -2.467372e-01
     vertex -3.174603e-02  2.488537e-01 -2.008818e-01
     vertex -3.174603e-02  3.313933e-01 -2.467372e-01
   endloop
 endfacet
 facet normal  0.000000e+00  1.888474e-01  9.820065e-01
   outer loop
     vertex -1.587302e-02  6.543212e-02  8.342156e-02
     vertex -1.587302e-02  3.038801e-01  3.756618e-02
     vertex -3.174603e-02  3.038801e-01  3.756618e-02
   endloop
 endfacet
 facet normal  0.000000e+00  1.888474e-01  9.820065e-01
   outer loop
     vertex -1.587302e-02  6.543212e-02  8.342156e-02
     vertex -3.174603e-02  3.038801e-01  3.756618e-02
     vertex -3.174603e-02  6.543212e-02  8.342156e-02
   endloop
 endfacet
 facet normal  0.000000e+00  8.944273e-01  4.472133e-01
   outer loop
     vertex -1.587302e-02  3.038801e-01  3.756618e-02
     vertex -1.587302e-02  3.130512e-01  1.922403e-02
     vertex -3.174603e-02  3.130512e-01  1.922403e-02
   endloop
 endfacet
 facet normal  0.000000e+00  8.944273e-01  4.472133e-01
   outer loop
     vertex -1.587302e-02  3.038801e-01  3.756618e-02
     vertex -3.174603e-02  3.130512e-01  1.922403e-02
     vertex -3.174603e-02  3.038801e-01  3.756618e-02
   endloop
 endfacet
 facet normal  0.000000e+00  5.144958e-01 -8.574929e-01
   outer loop
     vertex -1.587302e-02  3.130512e-01  1.922403e-02
     vertex -1.587302e-02  2.213404e-01 -3.580242e-02
     vertex -3.174603e-02  2.213404e-01 -3.580242e-02
   endloop
 endfacet
 facet normal  0.000000e+00  5.144958e-01 -8.574929e-01
   outer loop
     vertex -1.587302e-02  3.130512e-01  1.922403e-02
     vertex -3.174603e-02  2.213404e-01 -3.580242e-02
     vertex -3.174603e-02  3.130512e-01  1.922403e-02
   endloop
 endfacet
 facet normal  0.000000e+00  4.472136e-01 -8.944272e-01
   outer loop
     vertex -1.587302e-02  2.213404e-01 -3.580242e-02
     vertex -1.587302e-02  2.029983e-01 -4.497349e-02
     vertex -3.174603e-02  2.029983e-01 -4.497349e-02
   endloop
 endfacet
 facet normal  0.000000e+00  4.472136e-01 -8.944272e-01
   outer loop
     vertex -1.587302e-02  2.213404e-01 -3.580242e-02
     vertex -3.174603e-02  2.029983e-01 -4.497349e-02
     vertex -3.174603e-02  2.213404e-01 -3.580242e-02
   endloop
 endfacet
 facet normal  0.000000e+00  1.414213e-01  9.899495e-01
   outer loop
     vertex -1.587302e-02  3.650206e-01 -1.427983e-01
     vertex -1.587302e-02  3.864198e-01 -1.458553e-01
     vertex -3.174603e-02  3.864198e-01 -1.458553e-01
   endloop
 endfacet
 facet normal  0.000000e+00  1.414213e-01  9.899495e-01
   outer loop
     vertex -1.587302e-02  3.650206e-01 -1.427983e-01
     vertex -3.174603e-02  3.864198e-01 -1.458553e-01
     vertex -3.174603e-02  3.650206e-01 -1.427983e-01
   endloop
 endfacet
 facet normal  0.000000e+00  2.425356e-01  9.701425e-01
   outer loop
     vertex -1.587302e-02  3.864198e-01 -1.458553e-01
     vertex -1.587302e-02  4.231041e-01 -1.550264e-01
     vertex -3.174603e-02  4.231041e-01 -1.550264e-01
   endloop
 endfacet
 facet normal  0.000000e+00  2.425356e-01  9.701425e-01
   outer loop
     vertex -1.587302e-02  3.864198e-01 -1.458553e-01
     vertex -3.174603e-02  4.231041e-01 -1.550264e-01
     vertex -3.174603e-02  3.864198e-01 -1.458553e-01
   endloop
 endfacet
 facet normal  0.000000e+00  8.574926e-01 -5.144963e-01
   outer loop
     vertex -1.587302e-02  4.231041e-01 -1.550264e-01
     vertex -1.587302e-02  3.955908e-01 -2.008818e-01
     vertex -3.174603e-02  3.955908e-01 -2.008818e-01
   endloop
 endfacet
 facet normal  0.000000e+00  8.574926e-01 -5.144963e-01
   outer loop
     vertex -1.587302e-02  4.231041e-01 -1.550264e-01
     vertex -3.174603e-02  3.955908e-01 -2.008818e-01
     vertex -3.174603e-02  4.231041e-01 -1.550264e-01
   endloop
 endfacet
 facet normal  0.000000e+00  7.071074e-01 -7.071062e-01
   outer loop
     vertex -1.587302e-02  3.955908e-01 -2.008818e-01
     vertex -1.587302e-02  3.772487e-01 -2.192240e-01
     vertex -3.174603e-02  3.772487e-01 -2.192240e-01
   endloop
 endfacet
 facet normal  0.000000e+00  7.071074e-01 -7.071062e-01
   outer loop
     vertex -1.587302e-02  3.955908e-01 -2.008818e-01
     vertex -3.174603e-02  3.772487e-01 -2.192240e-01
     vertex -3.174603e-02  3.955908e-01 -2.008818e-01
   endloop
 endfacet
 facet normal  0.000000e+00  5.144959e-01 -8.574928e-01
   outer loop
     vertex -1.587302e-02  3.772487e-01 -2.192240e-01
     vertex -1.587302e-02  3.313933e-01 -2.467372e-01
     vertex -3.174603e-02  3.313933e-01 -2.467372e-01
   endloop
 endfacet
 facet normal  0.000000e+00  5.144959e-01 -8.574928e-01
   outer loop
     vertex -1.587302e-02  3.772487e-01 -2.192240e-01
     vertex -3.174603e-02  3.313933e-01 -2.467372e-01
     vertex -3.174603e-02  3.772487e-01 -2.192240e-01
   endloop
 endfacet
 facet normal  0.000000e+00 -7.071074e-01 -7.071062e-01
   outer loop
     vertex -1.587302e-02  4.047619e-01  1.109348e-01
     vertex -1.587302e-02  4.139330e-01  1.017637e-01
     vertex  9.841270e-01  4.139330e-01  1.017637e-01
   endloop
 endfacet
 facet normal  0.000000e+00 -7.071074e-01 -7.071062e-01
   outer loop
     vertex -1.587302e-02  4.047619e-01  1.109348e-01
     vertex  9.841270e-01  4.139330e-01  1.017637e-01
     vertex  9.841270e-01  4.047619e-01  1.109348e-01
   endloop
 endfacet
 facet normal  0.000000e+00  8.320502e-01  5.547004e-01
   outer loop
     vertex -1.587302e-02  4.139330e-01  1.017637e-01
     vertex -1.587302e-02  3.955908e-01  1.292769e-01
     vertex  9.841270e-01  3.955908e-01  1.292769e-01
   endloop
 endfacet
 facet normal -0.000000e+00  8.320502e-01  5.547004e-01
   outer loop
     vertex -1.587302e-02  4.139330e-01  1.017637e-01
     vertex  9.841270e-01  3.955908e-01  1.292769e-01
     vertex  9.841270e-01  4.139330e-01  1.017637e-01
   endloop
 endfacet
 facet normal  0.000000e+00 -8.944268e-01 -4.472145e-01
   outer loop
     vertex -1.587302e-02  3.955908e-01  1.292769e-01
     vertex -1.587302e-02  4.047619e-01  1.109348e-01
     vertex  9.841270e-01  4.047619e-01  1.109348e-01
   endloop
 endfacet
 facet normal  0.000000e+00 -8.944268e-01 -4.472145e-01
   outer loop
     vertex -1.587302e-02  3.955908e-01  1.292769e-01
     vertex  9.841270e-01  4.047619e-01  1.109348e-01
     vertex  9.841270e-01  3.955908e-01  1.292769e-01
   endloop
 endfacet
 facet normal  0.000000e+00 -7.071074e-01 -7.071062e-01
   outer loop
     vertex -1.587302e-02  4.047619e-01  1.109348e-01
     vertex -3.174603e-02  4.139330e-01  1.017637e-01
     vertex -1.587302e-02  4.139330e-01  1.017637e-01
   endloop
 endfacet
 facet normal -0.000000e+00 -7.071074e-01 -7.071062e-01
   outer loop
     vertex -1.587302e-02  4.047619e-01  1.109348e-01
     vertex -3.174603e-02  4.047619e-01  1.109348e-01
     vertex -3.174603e-02  4.139330e-01  1.017637e-01
   endloop
 endfacet
 facet normal  1.000000e+00  0.000000e+00  0.000000e+00
   outer loop
     vertex  9.841270e-01  4.139330e-01  1.017637e-01
     vertex  9.841270e-01  3.955908e-01  1.292769e-01
     vertex  9.841270e-01  4.047619e-01  1.109348e-01
   endloop
 endfacet
 facet normal  0.000000e+00  8.320502e-01  5.547004e-01
   outer loop
     vertex -1.587302e-02  4.139330e-01  1.017637e-01
     vertex -3.174603e-02  3.955908e-01  1.292769e-01
     vertex -1.587302e-02  3.955908e-01  1.292769e-01
   endloop
 endfacet
 facet normal  0.000000e+00  8.320502e-01  5.547004e-01
   outer loop
     vertex -1.587302e-02  4.139330e-01  1.017637e-01
     vertex -3.174603e-02  4.139330e-01  1.017637e-01
     vertex -3.174603e-02  3.955908e-01  1.292769e-01
   endloop
 endfacet
 facet normal  0.000000e+00 -8.944268e-01 -4.472145e-01
   outer loop
     vertex -1.587302e-02  3.955908e-01  1.292769e-01
     vertex -3.174603e-02  4.047619e-01  1.109348e-01
     vertex -1.587302e-02  4.047619e-01  1.109348e-01
   endloop
 endfacet
 facet normal -0.000000e+00 -8.944268e-01 -4.472145e-01
   outer loop
     vertex -1.587302e-02  3.955908e-01  1.292769e-01
     vertex -3.174603e-02  3.955908e-01  1.292769e-01
     vertex -3.174603e-02  4.047619e-01  1.109348e-01
   endloop
 endfacet
 facet normal -1.000000e+00  0.000000e+00  0.000000e+00
   outer loop
     vertex -3.174603e-02  4.139330e-01  1.017637e-01
     vertex -3.174603e-02  4.047619e-01  1.109348e-01
     vertex -3.174603e-02  3.955908e-01  1.292769e-01
   endloop
 endfacet
endsolid
