solid 
 facet normal -1.000000e+00  0.000000e+00  0.000000e+00
   outer loop
     vertex -9.190477e-01 -1.587302e-02 -4.761994e-03
     vertex -9.190477e-01 -8.571429e-01  8.954144e-01
     vertex -9.190477e-01 -1.587302e-02  8.954144e-01
   endloop
 endfacet
 facet normal -1.000000e+00  0.000000e+00  0.000000e+00
   outer loop
     vertex -9.190477e-01 -1.587302e-02 -4.761994e-03
     vertex -9.190477e-01 -8.571429e-01 -4.761994e-03
     vertex -9.190477e-01 -8.571429e-01  8.954144e-01
   endloop
 endfacet
 facet normal -0.000000e+00  0.000000e+00  1.000000e+00
   outer loop
     vertex -9.190477e-01 -1.587302e-02  8.954144e-01
     vertex -3.257495e-01 -8.571429e-01  8.954144e-01
     vertex -3.257495e-01 -1.587302e-02  8.954144e-01
   endloop
 endfacet
 facet normal  0.000000e+00  0.000000e+00  1.000000e+00
   outer loop
     vertex -9.190477e-01 -1.587302e-02  8.954144e-01
     vertex -9.190477e-01 -8.571429e-01  8.954144e-01
     vertex -3.257495e-01 -8.571429e-01  8.954144e-01
   endloop
 endfacet
 facet normal -0.000000e+00  0.000000e+00 -1.000000e+00
   outer loop
     vertex -1.887119e-02 -1.587302e-02 -4.761994e-03
     vertex -9.190477e-01 -8.571429e-01 -4.761994e-03
     vertex -9.190477e-01 -1.587302e-02 -4.761994e-03
   endloop
 endfacet
 facet normal  0.000000e+00 -0.000000e+00 -1.000000e+00
   outer loop
     vertex -1.887119e-02 -1.587302e-02 -4.761994e-03
     vertex -1.887119e-02 -8.571429e-01 -4.761994e-03
     vertex -9.190477e-01 -8.571429e-01 -4.761994e-03
   endloop
 endfacet
 facet normal -1.000000e+00  0.000000e+00  0.000000e+00
   outer loop
     vertex -9.190477e-01 -1.587302e-02 -4.761994e-03
     vertex -9.190477e-01 -1.587302e-02  8.954144e-01
     vertex -9.190477e-01  0.000000e+00  8.954144e-01
   endloop
 endfacet
 facet normal -1.000000e+00  0.000000e+00  0.000000e+00
   outer loop
     vertex -9.190477e-01 -1.587302e-02 -4.761994e-03
     vertex -9.190477e-01  0.000000e+00  8.954144e-01
     vertex -9.190477e-01  0.000000e+00 -4.761994e-03
   endloop
 endfacet
 facet normal  0.000000e+00 -1.000000e+00 -0.000000e+00
   outer loop
     vertex -1.887119e-02 -8.571429e-01  3.021163e-01
     vertex -9.190477e-01 -8.571429e-01 -4.761994e-03
     vertex -1.887119e-02 -8.571429e-01 -4.761994e-03
   endloop
 endfacet
 facet normal -0.000000e+00 -1.000000e+00  0.000000e+00
   outer loop
     vertex -3.257495e-01 -8.571429e-01  8.954144e-01
     vertex -9.190477e-01 -8.571429e-01  8.954144e-01
     vertex -9.190477e-01 -8.571429e-01 -4.761994e-03
   endloop
 endfacet
 facet normal  0.000000e+00 -1.000000e+00 -0.000000e+00
   outer loop
     vertex -3.257495e-01 -8.571429e-01  8.954144e-01
     vertex -9.190477e-01 -8.571429e-01 -4.761994e-03
     vertex -1.887119e-02 -8.571429e-01  3.021163e-01
   endloop
 endfacet
 facet normal  8.882176e-01  0.000000e+00  4.594229e-01
   outer loop
     vertex -3.257495e-01 -1.587302e-02  8.954144e-01
     vertex -1.887119e-02 -8.571429e-01  3.021163e-01
     vertex -1.887119e-02 -1.587302e-02  3.021163e-01
   endloop
 endfacet
 facet normal  8.882176e-01  0.000000e+00  4.594229e-01
   outer loop
     vertex -3.257495e-01 -1.587302e-02  8.954144e-01
     vertex -3.257495e-01 -8.571429e-01  8.954144e-01
     vertex -1.887119e-02 -8.571429e-01  3.021163e-01
   endloop
 endfacet
 facet normal  0.000000e+00  0.000000e+00  1.000000e+00
   outer loop
     vertex -9.190477e-01 -1.587302e-02  8.954144e-01
     vertex -3.257495e-01 -1.587302e-02  8.954144e-01
     vertex -3.257495e-01  0.000000e+00  8.954144e-01
   endloop
 endfacet
 facet normal  0.000000e+00  0.000000e+00  1.000000e+00
   outer loop
     vertex -9.190477e-01 -1.587302e-02  8.954144e-01
     vertex -3.257495e-01  0.000000e+00  8.954144e-01
     vertex -9.190477e-01  0.000000e+00  8.954144e-01
   endloop
 endfacet
 facet normal  1.000000e+00  0.000000e+00  0.000000e+00
   outer loop
     vertex -1.887119e-02 -1.587302e-02  3.021163e-01
     vertex -1.887119e-02 -8.571429e-01 -4.761994e-03
     vertex -1.887119e-02 -1.587302e-02 -4.761994e-03
   endloop
 endfacet
 facet normal  1.000000e+00  0.000000e+00  0.000000e+00
   outer loop
     vertex -1.887119e-02 -1.587302e-02  3.021163e-01
     vertex -1.887119e-02 -8.571429e-01  3.021163e-01
     vertex -1.887119e-02 -8.571429e-01 -4.761994e-03
   endloop
 endfacet
 facet normal  0.000000e+00  0.000000e+00 -1.000000e+00
   outer loop
     vertex -1.887119e-02 -1.587302e-02 -4.761994e-03
     vertex -9.190477e-01 -1.587302e-02 -4.761994e-03
     vertex -9.190477e-01  0.000000e+00 -4.761994e-03
   endloop
 endfacet
 facet normal  0.000000e+00  0.000000e+00 -1.000000e+00
   outer loop
     vertex -1.887119e-02 -1.587302e-02 -4.761994e-03
     vertex -9.190477e-01  0.000000e+00 -4.761994e-03
     vertex -1.887119e-02  0.000000e+00 -4.761994e-03
   endloop
 endfacet
 facet normal  0.000000e+00  1.000000e+00  0.000000e+00
   outer loop
     vertex -1.887119e-02 -4.510281e-17  3.021163e-01
     vertex -1.887119e-02 -4.510281e-17 -4.761994e-03
     vertex -9.190477e-01 -4.510281e-17 -4.761994e-03
   endloop
 endfacet
 facet normal  0.000000e+00  1.000000e+00  0.000000e+00
   outer loop
     vertex -3.257495e-01 -4.510281e-17  8.954144e-01
     vertex -9.190477e-01 -4.510281e-17 -4.761994e-03
     vertex -9.190477e-01 -4.510281e-17  8.954144e-01
   endloop
 endfacet
 facet normal  0.000000e+00  1.000000e+00  0.000000e+00
   outer loop
     vertex -3.257495e-01 -4.510281e-17  8.954144e-01
     vertex -1.887119e-02 -4.510281e-17  3.021163e-01
     vertex -9.190477e-01 -4.510281e-17 -4.761994e-03
   endloop
 endfacet
 facet normal  8.882176e-01  0.000000e+00  4.594229e-01
   outer loop
     vertex -3.257495e-01 -1.587302e-02  8.954144e-01
     vertex -1.887119e-02 -1.587302e-02  3.021163e-01
     vertex -1.887119e-02  0.000000e+00  3.021163e-01
   endloop
 endfacet
 facet normal  8.882176e-01 -0.000000e+00  4.594229e-01
   outer loop
     vertex -3.257495e-01 -1.587302e-02  8.954144e-01
     vertex -1.887119e-02  0.000000e+00  3.021163e-01
     vertex -3.257495e-01  0.000000e+00  8.954144e-01
   endloop
 endfacet
 facet normal  1.000000e+00  0.000000e+00  0.000000e+00
   outer loop
     vertex -1.887119e-02 -1.587302e-02  3.021163e-01
     vertex -1.887119e-02 -1.587302e-02 -4.761994e-03
     vertex -1.887119e-02  0.000000e+00 -4.761994e-03
   endloop
 endfacet
 facet normal  1.000000e+00 -0.000000e+00  0.000000e+00
   outer loop
     vertex -1.887119e-02 -1.587302e-02  3.021163e-01
     vertex -1.887119e-02  0.000000e+00 -4.761994e-03
     vertex -1.887119e-02  0.000000e+00  3.021163e-01
   endloop
 endfacet
endsolid
