solid 
 facet normal -0.000000e+00  0.000000e+00 -1.000000e+00
   outer loop
     vertex  9.179894e-01 -1.587302e-02 -1.675478e-02
     vertex -2.310413e-02 -1.904762e-01 -1.675478e-02
     vertex -2.310413e-02 -1.587302e-02 -1.675478e-02
   endloop
 endfacet
 facet normal  0.000000e+00 -0.000000e+00 -1.000000e+00
   outer loop
     vertex  9.179894e-01 -1.587302e-02 -1.675478e-02
     vertex  9.179894e-01 -1.904762e-01 -1.675478e-02
     vertex -2.310413e-02 -1.904762e-01 -1.675478e-02
   endloop
 endfacet
 facet normal -1.000000e+00 -1.113492e-15  0.000000e+00
   outer loop
     vertex -2.310413e-02 -1.873604e-01  2.857143e-01
     vertex -2.310413e-02 -1.904762e-01  2.857143e-01
     vertex -2.310413e-02 -1.904762e-01  3.402117e-01
   endloop
 endfacet
 facet normal -1.000000e+00 -2.360650e-14 -1.286011e-15
   outer loop
     vertex -2.310413e-02 -1.855968e-01  2.857143e-01
     vertex -2.310413e-02 -1.873604e-01  2.857143e-01
     vertex -2.310413e-02 -1.904762e-01  3.402117e-01
   endloop
 endfacet
 facet normal -1.000000e+00  0.000000e+00  8.276136e-16
   outer loop
     vertex -2.310413e-02 -1.587302e-02  3.402117e-01
     vertex -2.310413e-02 -1.855968e-01  2.857143e-01
     vertex -2.310413e-02 -1.904762e-01  3.402117e-01
   endloop
 endfacet
 facet normal -1.000000e+00  2.657425e-16  0.000000e+00
   outer loop
     vertex -2.310413e-02 -1.855968e-01  9.523814e-02
     vertex -2.310413e-02 -1.855968e-01  2.857143e-01
     vertex -2.310413e-02 -1.587302e-02  3.402117e-01
   endloop
 endfacet
 facet normal -1.000000e+00 -2.360650e-14  6.257921e-16
   outer loop
     vertex -2.310413e-02 -1.904762e-01 -1.675478e-02
     vertex -2.310413e-02 -1.873604e-01  9.523814e-02
     vertex -2.310413e-02 -1.855968e-01  9.523814e-02
   endloop
 endfacet
 facet normal -1.000000e+00 -1.113492e-15  0.000000e+00
   outer loop
     vertex -2.310413e-02 -1.904762e-01 -1.675478e-02
     vertex -2.310413e-02 -1.904762e-01  9.523814e-02
     vertex -2.310413e-02 -1.873604e-01  9.523814e-02
   endloop
 endfacet
 facet normal -1.000000e+00 -0.000000e+00 -4.027291e-16
   outer loop
     vertex -2.310413e-02 -1.587302e-02 -1.675478e-02
     vertex -2.310413e-02 -1.904762e-01 -1.675478e-02
     vertex -2.310413e-02 -1.855968e-01  9.523814e-02
   endloop
 endfacet
 facet normal -1.000000e+00  2.657425e-16  0.000000e+00
   outer loop
     vertex -2.310413e-02 -1.587302e-02 -1.675478e-02
     vertex -2.310413e-02 -1.855968e-01  9.523814e-02
     vertex -2.310413e-02 -1.587302e-02  3.402117e-01
   endloop
 endfacet
 facet normal  1.000000e+00  0.000000e+00  0.000000e+00
   outer loop
     vertex  9.179894e-01 -1.587302e-02  3.402117e-01
     vertex  9.179894e-01 -1.904762e-01 -1.675478e-02
     vertex  9.179894e-01 -1.587302e-02 -1.675478e-02
   endloop
 endfacet
 facet normal  1.000000e+00  0.000000e+00  0.000000e+00
   outer loop
     vertex  9.179894e-01 -1.587302e-02  3.402117e-01
     vertex  9.179894e-01 -1.904762e-01  3.402117e-01
     vertex  9.179894e-01 -1.904762e-01 -1.675478e-02
   endloop
 endfacet
 facet normal  0.000000e+00  0.000000e+00 -1.000000e+00
   outer loop
     vertex  9.179894e-01 -1.587302e-02 -1.675478e-02
     vertex -2.310413e-02 -1.587302e-02 -1.675478e-02
     vertex -2.310413e-02  0.000000e+00 -1.675478e-02
   endloop
 endfacet
 facet normal  0.000000e+00  0.000000e+00 -1.000000e+00
   outer loop
     vertex  9.179894e-01 -1.587302e-02 -1.675478e-02
     vertex -2.310413e-02  0.000000e+00 -1.675478e-02
     vertex  9.179894e-01  0.000000e+00 -1.675478e-02
   endloop
 endfacet
 facet normal -0.000000e+00 -1.000000e+00  0.000000e+00
   outer loop
     vertex  9.031747e-01 -1.904762e-01  9.523814e-02
     vertex -2.310413e-02 -1.904762e-01  9.523814e-02
     vertex -2.310413e-02 -1.904762e-01 -1.675478e-02
   endloop
 endfacet
 facet normal  0.000000e+00 -1.000000e+00 -0.000000e+00
   outer loop
     vertex  9.031747e-01 -1.904762e-01  9.523814e-02
     vertex -2.310413e-02 -1.904762e-01 -1.675478e-02
     vertex  9.179894e-01 -1.904762e-01 -1.675478e-02
   endloop
 endfacet
 facet normal  0.000000e+00 -1.000000e+00  0.000000e+00
   outer loop
     vertex  9.031747e-01 -1.904762e-01  2.857143e-01
     vertex -2.310413e-02 -1.904762e-01  3.402117e-01
     vertex -2.310413e-02 -1.904762e-01  2.857143e-01
   endloop
 endfacet
 facet normal  0.000000e+00 -1.000000e+00  0.000000e+00
   outer loop
     vertex  9.179894e-01 -1.904762e-01  3.402117e-01
     vertex  9.031747e-01 -1.904762e-01  2.857143e-01
     vertex  9.031747e-01 -1.904762e-01  9.523814e-02
   endloop
 endfacet
 facet normal -0.000000e+00 -1.000000e+00  0.000000e+00
   outer loop
     vertex  9.179894e-01 -1.904762e-01  3.402117e-01
     vertex -2.310413e-02 -1.904762e-01  3.402117e-01
     vertex  9.031747e-01 -1.904762e-01  2.857143e-01
   endloop
 endfacet
 facet normal  0.000000e+00 -1.000000e+00  0.000000e+00
   outer loop
     vertex  9.179894e-01 -1.904762e-01 -1.675478e-02
     vertex  9.179894e-01 -1.904762e-01  3.402117e-01
     vertex  9.031747e-01 -1.904762e-01  9.523814e-02
   endloop
 endfacet
 facet normal -1.000000e+00  0.000000e+00  0.000000e+00
   outer loop
     vertex -2.310413e-02 -1.587302e-02 -1.675478e-02
     vertex -2.310413e-02 -1.587302e-02  3.402117e-01
     vertex -2.310413e-02  0.000000e+00  3.402117e-01
   endloop
 endfacet
 facet normal -1.000000e+00  0.000000e+00  0.000000e+00
   outer loop
     vertex -2.310413e-02 -1.587302e-02 -1.675478e-02
     vertex -2.310413e-02  0.000000e+00  3.402117e-01
     vertex -2.310413e-02  0.000000e+00 -1.675478e-02
   endloop
 endfacet
 facet normal  0.000000e+00  0.000000e+00 -1.000000e+00
   outer loop
     vertex -3.015869e-02 -1.920635e-01  9.523814e-02
     vertex -8.730154e-02 -3.444445e-01  9.523814e-02
     vertex -8.730154e-02 -2.111111e-01  9.523814e-02
   endloop
 endfacet
 facet normal  0.000000e+00  0.000000e+00 -1.000000e+00
   outer loop
     vertex -2.310413e-02 -1.904762e-01  9.523814e-02
     vertex -8.730154e-02 -3.444445e-01  9.523814e-02
     vertex -3.015869e-02 -1.920635e-01  9.523814e-02
   endloop
 endfacet
 facet normal  0.000000e+00 -0.000000e+00 -1.000000e+00
   outer loop
     vertex -2.310413e-02 -1.873604e-01  9.523814e-02
     vertex -2.310413e-02 -1.904762e-01  9.523814e-02
     vertex -3.015869e-02 -1.920635e-01  9.523814e-02
   endloop
 endfacet
 facet normal  0.000000e+00  0.000000e+00 -1.000000e+00
   outer loop
     vertex  9.031747e-01 -3.444445e-01  9.523814e-02
     vertex -8.730154e-02 -3.444445e-01  9.523814e-02
     vertex -2.310413e-02 -1.904762e-01  9.523814e-02
   endloop
 endfacet
 facet normal -0.000000e+00 -0.000000e+00 -1.000000e+00
   outer loop
     vertex  9.031747e-01 -1.904762e-01  9.523814e-02
     vertex  9.031747e-01 -3.444445e-01  9.523814e-02
     vertex -2.310413e-02 -1.904762e-01  9.523814e-02
   endloop
 endfacet
 facet normal  0.000000e+00 -0.000000e+00 -1.000000e+00
   outer loop
     vertex -2.310413e-02 -1.855968e-01  9.523814e-02
     vertex -2.310413e-02 -1.873604e-01  9.523814e-02
     vertex -3.015869e-02 -1.920635e-01  9.523814e-02
   endloop
 endfacet
 facet normal -6.757246e-01  7.371542e-01  0.000000e+00
   outer loop
     vertex -3.015869e-02 -1.920635e-01  2.857143e-01
     vertex -2.310413e-02 -1.855968e-01  2.857143e-01
     vertex -2.310413e-02 -1.855968e-01  9.523814e-02
   endloop
 endfacet
 facet normal -6.757246e-01  7.371542e-01  0.000000e+00
   outer loop
     vertex -3.015869e-02 -1.920635e-01  2.857143e-01
     vertex -2.310413e-02 -1.855968e-01  9.523814e-02
     vertex -3.015869e-02 -1.920635e-01  9.523814e-02
   endloop
 endfacet
 facet normal  0.000000e+00  0.000000e+00  1.000000e+00
   outer loop
     vertex -2.310413e-02 -1.855968e-01  2.857143e-01
     vertex -3.015869e-02 -1.920635e-01  2.857143e-01
     vertex -2.310413e-02 -1.873604e-01  2.857143e-01
   endloop
 endfacet
 facet normal  0.000000e+00  0.000000e+00  1.000000e+00
   outer loop
     vertex -3.015869e-02 -1.920635e-01  2.857143e-01
     vertex -8.730154e-02 -2.111111e-01  2.857143e-01
     vertex -8.730154e-02 -3.444445e-01  2.857143e-01
   endloop
 endfacet
 facet normal  0.000000e+00  0.000000e+00  1.000000e+00
   outer loop
     vertex -2.310413e-02 -1.904762e-01  2.857143e-01
     vertex -3.015869e-02 -1.920635e-01  2.857143e-01
     vertex -8.730154e-02 -3.444445e-01  2.857143e-01
   endloop
 endfacet
 facet normal  0.000000e+00  0.000000e+00  1.000000e+00
   outer loop
     vertex -2.310413e-02 -1.873604e-01  2.857143e-01
     vertex -3.015869e-02 -1.920635e-01  2.857143e-01
     vertex -2.310413e-02 -1.904762e-01  2.857143e-01
   endloop
 endfacet
 facet normal  0.000000e+00  0.000000e+00  1.000000e+00
   outer loop
     vertex  9.031747e-01 -3.444445e-01  2.857143e-01
     vertex -2.310413e-02 -1.904762e-01  2.857143e-01
     vertex -8.730154e-02 -3.444445e-01  2.857143e-01
   endloop
 endfacet
 facet normal  0.000000e+00  0.000000e+00  1.000000e+00
   outer loop
     vertex  9.031747e-01 -1.904762e-01  2.857143e-01
     vertex -2.310413e-02 -1.904762e-01  2.857143e-01
     vertex  9.031747e-01 -3.444445e-01  2.857143e-01
   endloop
 endfacet
 facet normal -0.000000e+00  0.000000e+00  1.000000e+00
   outer loop
     vertex -2.310413e-02 -1.587302e-02  3.402117e-01
     vertex  9.179894e-01 -1.904762e-01  3.402117e-01
     vertex  9.179894e-01 -1.587302e-02  3.402117e-01
   endloop
 endfacet
 facet normal  0.000000e+00  0.000000e+00  1.000000e+00
   outer loop
     vertex -2.310413e-02 -1.587302e-02  3.402117e-01
     vertex -2.310413e-02 -1.904762e-01  3.402117e-01
     vertex  9.179894e-01 -1.904762e-01  3.402117e-01
   endloop
 endfacet
 facet normal  1.000000e+00  0.000000e+00  0.000000e+00
   outer loop
     vertex  9.179894e-01 -1.587302e-02  3.402117e-01
     vertex  9.179894e-01 -1.587302e-02 -1.675478e-02
     vertex  9.179894e-01  0.000000e+00 -1.675478e-02
   endloop
 endfacet
 facet normal  1.000000e+00 -0.000000e+00  0.000000e+00
   outer loop
     vertex  9.179894e-01 -1.587302e-02  3.402117e-01
     vertex  9.179894e-01  0.000000e+00 -1.675478e-02
     vertex  9.179894e-01  0.000000e+00  3.402117e-01
   endloop
 endfacet
 facet normal  0.000000e+00  1.000000e+00  0.000000e+00
   outer loop
     vertex  2.052632e-01  0.000000e+00  9.523814e-02
     vertex -2.310413e-02  0.000000e+00 -1.675478e-02
     vertex  1.793651e-01  0.000000e+00  9.523814e-02
   endloop
 endfacet
 facet normal  0.000000e+00  1.000000e+00  0.000000e+00
   outer loop
     vertex -2.310413e-02  0.000000e+00  3.402117e-01
     vertex  1.793651e-01  0.000000e+00  9.523814e-02
     vertex -2.310413e-02  0.000000e+00 -1.675478e-02
   endloop
 endfacet
 facet normal  0.000000e+00  1.000000e+00  0.000000e+00
   outer loop
     vertex  1.793651e-01  0.000000e+00  2.857143e-01
     vertex  1.793651e-01  0.000000e+00  9.523814e-02
     vertex -2.310413e-02  0.000000e+00  3.402117e-01
   endloop
 endfacet
 facet normal  0.000000e+00  1.000000e+00  0.000000e+00
   outer loop
     vertex  2.052632e-01  0.000000e+00  2.857143e-01
     vertex  1.793651e-01  0.000000e+00  2.857143e-01
     vertex -2.310413e-02  0.000000e+00  3.402117e-01
   endloop
 endfacet
 facet normal  0.000000e+00  1.000000e+00  0.000000e+00
   outer loop
     vertex  9.179894e-01  0.000000e+00 -1.675478e-02
     vertex -2.310413e-02  0.000000e+00 -1.675478e-02
     vertex  2.052632e-01  0.000000e+00  9.523814e-02
   endloop
 endfacet
 facet normal  0.000000e+00  1.000000e+00  0.000000e+00
   outer loop
     vertex  9.179894e-01  0.000000e+00  3.402117e-01
     vertex  2.052632e-01  0.000000e+00  9.523814e-02
     vertex  2.052632e-01  0.000000e+00  2.857143e-01
   endloop
 endfacet
 facet normal  0.000000e+00  1.000000e+00  0.000000e+00
   outer loop
     vertex  9.179894e-01  0.000000e+00  3.402117e-01
     vertex  9.179894e-01  0.000000e+00 -1.675478e-02
     vertex  2.052632e-01  0.000000e+00  9.523814e-02
   endloop
 endfacet
 facet normal  0.000000e+00  1.000000e+00  0.000000e+00
   outer loop
     vertex  9.179894e-01  0.000000e+00  3.402117e-01
     vertex  2.052632e-01  0.000000e+00  2.857143e-01
     vertex -2.310413e-02  0.000000e+00  3.402117e-01
   endloop
 endfacet
 facet normal  1.000000e+00  0.000000e+00  0.000000e+00
   outer loop
     vertex  9.031747e-01 -1.904762e-01  2.857143e-01
     vertex  9.031747e-01 -3.444445e-01  2.857143e-01
     vertex  9.031747e-01 -3.444445e-01  9.523814e-02
   endloop
 endfacet
 facet normal  1.000000e+00  0.000000e+00  0.000000e+00
   outer loop
     vertex  9.031747e-01 -1.904762e-01  2.857143e-01
     vertex  9.031747e-01 -3.444445e-01  9.523814e-02
     vertex  9.031747e-01 -1.904762e-01  9.523814e-02
   endloop
 endfacet
 facet normal  0.000000e+00  0.000000e+00  1.000000e+00
   outer loop
     vertex -2.310413e-02 -1.587302e-02  3.402117e-01
     vertex  9.179894e-01 -1.587302e-02  3.402117e-01
     vertex  9.179894e-01  0.000000e+00  3.402117e-01
   endloop
 endfacet
 facet normal  0.000000e+00  0.000000e+00  1.000000e+00
   outer loop
     vertex -2.310413e-02 -1.587302e-02  3.402117e-01
     vertex  9.179894e-01  0.000000e+00  3.402117e-01
     vertex -2.310413e-02  0.000000e+00  3.402117e-01
   endloop
 endfacet
 facet normal -1.000000e+00  0.000000e+00  0.000000e+00
   outer loop
     vertex -8.730154e-02 -3.444445e-01  2.857143e-01
     vertex -8.730154e-02 -2.111111e-01  2.857143e-01
     vertex -8.730154e-02 -2.111111e-01  9.523814e-02
   endloop
 endfacet
 facet normal -1.000000e+00  0.000000e+00  0.000000e+00
   outer loop
     vertex -8.730154e-02 -3.444445e-01  2.857143e-01
     vertex -8.730154e-02 -2.111111e-01  9.523814e-02
     vertex -8.730154e-02 -3.444445e-01  9.523814e-02
   endloop
 endfacet
 facet normal -3.162280e-01  9.486832e-01  0.000000e+00
   outer loop
     vertex -8.730154e-02 -2.111111e-01  2.857143e-01
     vertex -3.015869e-02 -1.920635e-01  2.857143e-01
     vertex -3.015869e-02 -1.920635e-01  9.523814e-02
   endloop
 endfacet
 facet normal -3.162280e-01  9.486832e-01  0.000000e+00
   outer loop
     vertex -8.730154e-02 -2.111111e-01  2.857143e-01
     vertex -3.015869e-02 -1.920635e-01  9.523814e-02
     vertex -8.730154e-02 -2.111111e-01  9.523814e-02
   endloop
 endfacet
 facet normal -0.000000e+00 -1.000000e+00  0.000000e+00
   outer loop
     vertex  9.031747e-01 -3.444445e-01  2.857143e-01
     vertex -8.730154e-02 -3.444445e-01  2.857143e-01
     vertex -8.730154e-02 -3.444445e-01  9.523814e-02
   endloop
 endfacet
 facet normal  0.000000e+00 -1.000000e+00 -0.000000e+00
   outer loop
     vertex  9.031747e-01 -3.444445e-01  2.857143e-01
     vertex -8.730154e-02 -3.444445e-01  9.523814e-02
     vertex  9.031747e-01 -3.444445e-01  9.523814e-02
   endloop
 endfacet
 facet normal  0.000000e+00  0.000000e+00  1.000000e+00
   outer loop
     vertex  4.269842e-01  2.269842e-01  2.857143e-01
     vertex  1.793651e-01  0.000000e+00  2.857143e-01
     vertex  2.052632e-01  0.000000e+00  2.857143e-01
   endloop
 endfacet
 facet normal  0.000000e+00  0.000000e+00  1.000000e+00
   outer loop
     vertex  4.269842e-01  2.269842e-01  2.857143e-01
     vertex  2.052632e-01  0.000000e+00  2.857143e-01
     vertex  4.460319e-01  2.079366e-01  2.857143e-01
   endloop
 endfacet
 facet normal -6.757246e-01  7.371542e-01  0.000000e+00
   outer loop
     vertex  1.793651e-01  0.000000e+00  2.857143e-01
     vertex  4.269842e-01  2.269842e-01  2.857143e-01
     vertex  4.269842e-01  2.269842e-01  9.523814e-02
   endloop
 endfacet
 facet normal -6.757246e-01  7.371542e-01  0.000000e+00
   outer loop
     vertex  1.793651e-01  0.000000e+00  2.857143e-01
     vertex  4.269842e-01  2.269842e-01  9.523814e-02
     vertex  1.793651e-01  0.000000e+00  9.523814e-02
   endloop
 endfacet
 facet normal  0.000000e+00  0.000000e+00 -1.000000e+00
   outer loop
     vertex  4.269842e-01  2.269842e-01  9.523814e-02
     vertex  2.052632e-01  0.000000e+00  9.523814e-02
     vertex  1.793651e-01  0.000000e+00  9.523814e-02
   endloop
 endfacet
 facet normal  0.000000e+00 -0.000000e+00 -1.000000e+00
   outer loop
     vertex  4.269842e-01  2.269842e-01  9.523814e-02
     vertex  4.460319e-01  2.079366e-01  9.523814e-02
     vertex  2.052632e-01  0.000000e+00  9.523814e-02
   endloop
 endfacet
 facet normal  6.536198e-01 -7.568230e-01  0.000000e+00
   outer loop
     vertex  4.460319e-01  2.079366e-01  2.857143e-01
     vertex  2.052632e-01  0.000000e+00  2.857143e-01
     vertex  2.052632e-01  0.000000e+00  9.523814e-02
   endloop
 endfacet
 facet normal  6.536198e-01 -7.568230e-01  0.000000e+00
   outer loop
     vertex  4.460319e-01  2.079366e-01  2.857143e-01
     vertex  2.052632e-01  0.000000e+00  9.523814e-02
     vertex  4.460319e-01  2.079366e-01  9.523814e-02
   endloop
 endfacet
 facet normal  7.071068e-01  7.071068e-01  0.000000e+00
   outer loop
     vertex  4.269842e-01  2.269842e-01  2.857143e-01
     vertex  4.460319e-01  2.079366e-01  2.857143e-01
     vertex  4.460319e-01  2.079366e-01  9.523814e-02
   endloop
 endfacet
 facet normal  7.071068e-01  7.071068e-01  0.000000e+00
   outer loop
     vertex  4.269842e-01  2.269842e-01  2.857143e-01
     vertex  4.460319e-01  2.079366e-01  9.523814e-02
     vertex  4.269842e-01  2.269842e-01  9.523814e-02
   endloop
 endfacet
endsolid
