solid 
 facet normal  4.312210e-17  0.000000e+00 -1.000000e+00
   outer loop
     vertex  2.857143e-01 -2.968255e-01  3.571428e-01
     vertex -1.001587e+00 -8.571429e-01  3.571428e-01
     vertex -1.001587e+00 -1.587302e-02  3.571428e-01
   endloop
 endfacet
 facet normal  0.000000e+00  9.907090e-17 -1.000000e+00
   outer loop
     vertex  9.666667e-01 -8.571429e-01  3.571428e-01
     vertex  2.857143e-01 -2.968255e-01  3.571428e-01
     vertex  3.015873e-01 -2.968255e-01  3.571428e-01
   endloop
 endfacet
 facet normal  0.000000e+00  9.907090e-17 -1.000000e+00
   outer loop
     vertex  9.666667e-01 -8.571429e-01  3.571428e-01
     vertex -1.001587e+00 -8.571429e-01  3.571428e-01
     vertex  2.857143e-01 -2.968255e-01  3.571428e-01
   endloop
 endfacet
 facet normal -0.000000e+00 -1.975820e-16 -1.000000e+00
   outer loop
     vertex  2.857143e-01 -1.587302e-02  3.571428e-01
     vertex  2.857143e-01 -2.968255e-01  3.571428e-01
     vertex -1.001587e+00 -1.587302e-02  3.571428e-01
   endloop
 endfacet
 facet normal  0.000000e+00  9.907090e-17 -1.000000e+00
   outer loop
     vertex  6.349207e-01 -2.968255e-01  3.571428e-01
     vertex  9.666667e-01 -8.571429e-01  3.571428e-01
     vertex  3.015873e-01 -2.968255e-01  3.571428e-01
   endloop
 endfacet
 facet normal -0.000000e+00 -1.975820e-16 -1.000000e+00
   outer loop
     vertex  9.666667e-01 -1.587302e-02  3.571428e-01
     vertex  6.349207e-01 -2.968255e-01  3.571428e-01
     vertex  6.349207e-01 -1.587302e-02  3.571428e-01
   endloop
 endfacet
 facet normal -1.673303e-16 -0.000000e+00 -1.000000e+00
   outer loop
     vertex  9.666667e-01 -1.587302e-02  3.571428e-01
     vertex  9.666667e-01 -8.571429e-01  3.571428e-01
     vertex  6.349207e-01 -2.968255e-01  3.571428e-01
   endloop
 endfacet
 facet normal  0.000000e+00  0.000000e+00 -1.000000e+00
   outer loop
     vertex  2.857143e-01 -1.587302e-02  3.571428e-01
     vertex -1.001587e+00 -1.587302e-02  3.571428e-01
     vertex -1.001587e+00  0.000000e+00  3.571428e-01
   endloop
 endfacet
 facet normal  0.000000e+00  0.000000e+00 -1.000000e+00
   outer loop
     vertex  2.857143e-01 -1.587302e-02  3.571428e-01
     vertex -1.001587e+00  0.000000e+00  3.571428e-01
     vertex  2.857143e-01  0.000000e+00  3.571428e-01
   endloop
 endfacet
 facet normal -1.000000e+00  1.975820e-16  0.000000e+00
   outer loop
     vertex  2.857143e-01 -1.587302e-02  3.571428e-01
     vertex  2.857143e-01 -2.968255e-01  5.555560e-02
     vertex  2.857143e-01 -2.968255e-01  3.571428e-01
   endloop
 endfacet
 facet normal -1.000000e+00  0.000000e+00  1.840633e-16
   outer loop
     vertex  2.857143e-01  0.000000e+00  3.571428e-01
     vertex  2.857143e-01 -2.968255e-01  5.555560e-02
     vertex  2.857143e-01 -1.587302e-02  3.571428e-01
   endloop
 endfacet
 facet normal -1.000000e+00  0.000000e+00  1.840633e-16
   outer loop
     vertex  2.857143e-01  4.269841e-01  5.555560e-02
     vertex  2.857143e-01 -2.968255e-01  5.555560e-02
     vertex  2.857143e-01  0.000000e+00  3.571428e-01
   endloop
 endfacet
 facet normal -1.000000e+00 -1.975820e-16  0.000000e+00
   outer loop
     vertex  2.857143e-01 -1.587302e-02  8.650793e-01
     vertex  2.857143e-01 -2.968255e-01  8.650793e-01
     vertex  2.857143e-01 -2.968255e-01  1.007937e+00
   endloop
 endfacet
 facet normal -1.000000e+00  0.000000e+00  3.885777e-16
   outer loop
     vertex  2.857143e-01  0.000000e+00  8.650793e-01
     vertex  2.857143e-01 -1.587302e-02  8.650793e-01
     vertex  2.857143e-01 -2.968255e-01  1.007937e+00
   endloop
 endfacet
 facet normal -1.000000e+00  2.031368e-16 -2.185751e-16
   outer loop
     vertex  2.857143e-01  4.269841e-01  1.007937e+00
     vertex  2.857143e-01  0.000000e+00  3.571428e-01
     vertex  2.857143e-01  0.000000e+00  8.650793e-01
   endloop
 endfacet
 facet normal -1.000000e+00 -1.300075e-16 -0.000000e+00
   outer loop
     vertex  2.857143e-01  4.269841e-01  1.007937e+00
     vertex  2.857143e-01  4.269841e-01  5.555560e-02
     vertex  2.857143e-01  0.000000e+00  3.571428e-01
   endloop
 endfacet
 facet normal -1.000000e+00  0.000000e+00  3.885777e-16
   outer loop
     vertex  2.857143e-01  4.269841e-01  1.007937e+00
     vertex  2.857143e-01  0.000000e+00  8.650793e-01
     vertex  2.857143e-01 -2.968255e-01  1.007937e+00
   endloop
 endfacet
 facet normal  0.000000e+00 -1.000000e+00  0.000000e+00
   outer loop
     vertex  3.015873e-01 -2.968255e-01  5.555560e-02
     vertex  3.015873e-01 -2.968255e-01  3.571428e-01
     vertex  2.857143e-01 -2.968255e-01  3.571428e-01
   endloop
 endfacet
 facet normal  0.000000e+00 -1.000000e+00  0.000000e+00
   outer loop
     vertex  3.015873e-01 -2.968255e-01  5.555560e-02
     vertex  2.857143e-01 -2.968255e-01  3.571428e-01
     vertex  2.857143e-01 -2.968255e-01  5.555560e-02
   endloop
 endfacet
 facet normal  0.000000e+00 -1.000000e+00  0.000000e+00
   outer loop
     vertex  3.015873e-01 -2.968255e-01  5.555560e-02
     vertex  6.349207e-01 -2.968255e-01  3.571428e-01
     vertex  3.015873e-01 -2.968255e-01  3.571428e-01
   endloop
 endfacet
 facet normal  0.000000e+00 -1.000000e+00  0.000000e+00
   outer loop
     vertex  3.015873e-01 -2.968255e-01  5.555560e-02
     vertex  6.349207e-01 -2.968255e-01  5.555560e-02
     vertex  6.349207e-01 -2.968255e-01  3.571428e-01
   endloop
 endfacet
 facet normal  1.000000e+00  0.000000e+00  0.000000e+00
   outer loop
     vertex  6.349207e-01 -1.587302e-02  3.571428e-01
     vertex  6.349207e-01 -2.968255e-01  3.571428e-01
     vertex  6.349207e-01 -2.968255e-01  5.555560e-02
   endloop
 endfacet
 facet normal  1.000000e+00  0.000000e+00  0.000000e+00
   outer loop
     vertex  6.349207e-01  0.000000e+00  3.571428e-01
     vertex  6.349207e-01 -1.587302e-02  3.571428e-01
     vertex  6.349207e-01 -2.968255e-01  5.555560e-02
   endloop
 endfacet
 facet normal  1.000000e+00  0.000000e+00  0.000000e+00
   outer loop
     vertex  6.349207e-01  4.269841e-01  5.555560e-02
     vertex  6.349207e-01  0.000000e+00  3.571428e-01
     vertex  6.349207e-01 -2.968255e-01  5.555560e-02
   endloop
 endfacet
 facet normal  1.000000e+00  0.000000e+00  0.000000e+00
   outer loop
     vertex  6.349207e-01 -1.587302e-02  8.650793e-01
     vertex  6.349207e-01 -2.968255e-01  1.007937e+00
     vertex  6.349207e-01 -2.968255e-01  8.650793e-01
   endloop
 endfacet
 facet normal  1.000000e+00  0.000000e+00  0.000000e+00
   outer loop
     vertex  6.349207e-01  0.000000e+00  8.650793e-01
     vertex  6.349207e-01 -2.968255e-01  1.007937e+00
     vertex  6.349207e-01 -1.587302e-02  8.650793e-01
   endloop
 endfacet
 facet normal  1.000000e+00  0.000000e+00  0.000000e+00
   outer loop
     vertex  6.349207e-01  4.269841e-01  1.007937e+00
     vertex  6.349207e-01  0.000000e+00  8.650793e-01
     vertex  6.349207e-01  0.000000e+00  3.571428e-01
   endloop
 endfacet
 facet normal  1.000000e+00  0.000000e+00  0.000000e+00
   outer loop
     vertex  6.349207e-01  4.269841e-01  1.007937e+00
     vertex  6.349207e-01  0.000000e+00  3.571428e-01
     vertex  6.349207e-01  4.269841e-01  5.555560e-02
   endloop
 endfacet
 facet normal  1.000000e+00  0.000000e+00  0.000000e+00
   outer loop
     vertex  6.349207e-01  4.269841e-01  1.007937e+00
     vertex  6.349207e-01 -2.968255e-01  1.007937e+00
     vertex  6.349207e-01  0.000000e+00  8.650793e-01
   endloop
 endfacet
 facet normal  0.000000e+00  0.000000e+00 -1.000000e+00
   outer loop
     vertex  9.666667e-01 -1.587302e-02  3.571428e-01
     vertex  6.349207e-01 -1.587302e-02  3.571428e-01
     vertex  6.349207e-01  0.000000e+00  3.571428e-01
   endloop
 endfacet
 facet normal  0.000000e+00  0.000000e+00 -1.000000e+00
   outer loop
     vertex  9.666667e-01 -1.587302e-02  3.571428e-01
     vertex  6.349207e-01  0.000000e+00  3.571428e-01
     vertex  9.666667e-01  0.000000e+00  3.571428e-01
   endloop
 endfacet
 facet normal  1.000000e+00  0.000000e+00  0.000000e+00
   outer loop
     vertex  9.666667e-01 -1.587302e-02  8.650793e-01
     vertex  9.666667e-01 -8.571429e-01  3.571428e-01
     vertex  9.666667e-01 -1.587302e-02  3.571428e-01
   endloop
 endfacet
 facet normal  1.000000e+00  0.000000e+00  0.000000e+00
   outer loop
     vertex  9.666667e-01 -1.587302e-02  8.650793e-01
     vertex  9.666667e-01 -8.571429e-01  8.650793e-01
     vertex  9.666667e-01 -8.571429e-01  3.571428e-01
   endloop
 endfacet
 facet normal  0.000000e+00 -1.000000e+00 -0.000000e+00
   outer loop
     vertex  9.666667e-01 -8.571429e-01  8.650793e-01
     vertex -1.001587e+00 -8.571429e-01  3.571428e-01
     vertex  9.666667e-01 -8.571429e-01  3.571428e-01
   endloop
 endfacet
 facet normal -0.000000e+00 -1.000000e+00  0.000000e+00
   outer loop
     vertex  9.666667e-01 -8.571429e-01  8.650793e-01
     vertex -1.001587e+00 -8.571429e-01  8.650793e-01
     vertex -1.001587e+00 -8.571429e-01  3.571428e-01
   endloop
 endfacet
 facet normal -1.000000e+00  0.000000e+00  0.000000e+00
   outer loop
     vertex -1.001587e+00 -1.587302e-02  3.571428e-01
     vertex -1.001587e+00 -8.571429e-01  8.650793e-01
     vertex -1.001587e+00 -1.587302e-02  8.650793e-01
   endloop
 endfacet
 facet normal -1.000000e+00  0.000000e+00  0.000000e+00
   outer loop
     vertex -1.001587e+00 -1.587302e-02  3.571428e-01
     vertex -1.001587e+00 -8.571429e-01  3.571428e-01
     vertex -1.001587e+00 -8.571429e-01  8.650793e-01
   endloop
 endfacet
 facet normal  0.000000e+00  1.000000e+00  0.000000e+00
   outer loop
     vertex  2.857143e-01  0.000000e+00  8.650793e-01
     vertex -1.001587e+00  0.000000e+00  3.571428e-01
     vertex -1.001587e+00  0.000000e+00  8.650793e-01
   endloop
 endfacet
 facet normal  0.000000e+00  1.000000e+00  0.000000e+00
   outer loop
     vertex  2.857143e-01  0.000000e+00  8.650793e-01
     vertex  2.857143e-01  0.000000e+00  3.571428e-01
     vertex -1.001587e+00  0.000000e+00  3.571428e-01
   endloop
 endfacet
 facet normal -1.000000e+00  0.000000e+00  0.000000e+00
   outer loop
     vertex -1.001587e+00 -1.587302e-02  3.571428e-01
     vertex -1.001587e+00 -1.587302e-02  8.650793e-01
     vertex -1.001587e+00  0.000000e+00  8.650793e-01
   endloop
 endfacet
 facet normal -1.000000e+00  0.000000e+00  0.000000e+00
   outer loop
     vertex -1.001587e+00 -1.587302e-02  3.571428e-01
     vertex -1.001587e+00  0.000000e+00  8.650793e-01
     vertex -1.001587e+00  0.000000e+00  3.571428e-01
   endloop
 endfacet
 facet normal  0.000000e+00  0.000000e+00  1.000000e+00
   outer loop
     vertex -1.001587e+00 -1.587302e-02  8.650793e-01
     vertex  2.857143e-01 -1.587302e-02  8.650793e-01
     vertex  2.857143e-01  0.000000e+00  8.650793e-01
   endloop
 endfacet
 facet normal  0.000000e+00  0.000000e+00  1.000000e+00
   outer loop
     vertex -1.001587e+00 -1.587302e-02  8.650793e-01
     vertex  2.857143e-01  0.000000e+00  8.650793e-01
     vertex -1.001587e+00  0.000000e+00  8.650793e-01
   endloop
 endfacet
 facet normal -0.000000e+00  0.000000e+00  1.000000e+00
   outer loop
     vertex  6.349207e-01 -2.968255e-01  8.650793e-01
     vertex  9.666667e-01 -8.571429e-01  8.650793e-01
     vertex  9.666667e-01 -1.587302e-02  8.650793e-01
   endloop
 endfacet
 facet normal -0.000000e+00  0.000000e+00  1.000000e+00
   outer loop
     vertex  6.349207e-01 -1.587302e-02  8.650793e-01
     vertex  6.349207e-01 -2.968255e-01  8.650793e-01
     vertex  9.666667e-01 -1.587302e-02  8.650793e-01
   endloop
 endfacet
 facet normal -0.000000e+00  0.000000e+00  1.000000e+00
   outer loop
     vertex  3.015873e-01 -2.968255e-01  8.650793e-01
     vertex  9.666667e-01 -8.571429e-01  8.650793e-01
     vertex  6.349207e-01 -2.968255e-01  8.650793e-01
   endloop
 endfacet
 facet normal -0.000000e+00  0.000000e+00  1.000000e+00
   outer loop
     vertex  2.857143e-01 -2.968255e-01  8.650793e-01
     vertex  9.666667e-01 -8.571429e-01  8.650793e-01
     vertex  3.015873e-01 -2.968255e-01  8.650793e-01
   endloop
 endfacet
 facet normal  0.000000e+00  0.000000e+00  1.000000e+00
   outer loop
     vertex -1.001587e+00 -8.571429e-01  8.650793e-01
     vertex  9.666667e-01 -8.571429e-01  8.650793e-01
     vertex  2.857143e-01 -2.968255e-01  8.650793e-01
   endloop
 endfacet
 facet normal -0.000000e+00  0.000000e+00  1.000000e+00
   outer loop
     vertex -1.001587e+00 -1.587302e-02  8.650793e-01
     vertex  2.857143e-01 -2.968255e-01  8.650793e-01
     vertex  2.857143e-01 -1.587302e-02  8.650793e-01
   endloop
 endfacet
 facet normal  0.000000e+00  0.000000e+00  1.000000e+00
   outer loop
     vertex -1.001587e+00 -1.587302e-02  8.650793e-01
     vertex -1.001587e+00 -8.571429e-01  8.650793e-01
     vertex  2.857143e-01 -2.968255e-01  8.650793e-01
   endloop
 endfacet
 facet normal  0.000000e+00 -1.000000e+00  0.000000e+00
   outer loop
     vertex  3.015873e-01 -2.968255e-01  8.650793e-01
     vertex  3.015873e-01 -2.968255e-01  1.007937e+00
     vertex  2.857143e-01 -2.968255e-01  1.007937e+00
   endloop
 endfacet
 facet normal  0.000000e+00 -1.000000e+00  0.000000e+00
   outer loop
     vertex  3.015873e-01 -2.968255e-01  8.650793e-01
     vertex  2.857143e-01 -2.968255e-01  1.007937e+00
     vertex  2.857143e-01 -2.968255e-01  8.650793e-01
   endloop
 endfacet
 facet normal  0.000000e+00 -0.000000e+00  1.000000e+00
   outer loop
     vertex  3.015873e-01 -2.968255e-01  1.007937e+00
     vertex  3.015873e-01  4.269841e-01  1.007937e+00
     vertex  2.857143e-01  4.269841e-01  1.007937e+00
   endloop
 endfacet
 facet normal  0.000000e+00  0.000000e+00  1.000000e+00
   outer loop
     vertex  3.015873e-01 -2.968255e-01  1.007937e+00
     vertex  2.857143e-01  4.269841e-01  1.007937e+00
     vertex  2.857143e-01 -2.968255e-01  1.007937e+00
   endloop
 endfacet
 facet normal  0.000000e+00  1.000000e+00  0.000000e+00
   outer loop
     vertex  3.015873e-01  4.269841e-01  1.007937e+00
     vertex  3.015873e-01  4.269841e-01  5.555560e-02
     vertex  2.857143e-01  4.269841e-01  5.555560e-02
   endloop
 endfacet
 facet normal  0.000000e+00  1.000000e+00  0.000000e+00
   outer loop
     vertex  3.015873e-01  4.269841e-01  1.007937e+00
     vertex  2.857143e-01  4.269841e-01  5.555560e-02
     vertex  2.857143e-01  4.269841e-01  1.007937e+00
   endloop
 endfacet
 facet normal  0.000000e+00 -0.000000e+00 -1.000000e+00
   outer loop
     vertex  3.015873e-01  4.269841e-01  5.555560e-02
     vertex  3.015873e-01 -2.968255e-01  5.555560e-02
     vertex  2.857143e-01 -2.968255e-01  5.555560e-02
   endloop
 endfacet
 facet normal -0.000000e+00  0.000000e+00 -1.000000e+00
   outer loop
     vertex  3.015873e-01  4.269841e-01  5.555560e-02
     vertex  2.857143e-01 -2.968255e-01  5.555560e-02
     vertex  2.857143e-01  4.269841e-01  5.555560e-02
   endloop
 endfacet
 facet normal  0.000000e+00  0.000000e+00 -1.000000e+00
   outer loop
     vertex  3.015873e-01  4.269841e-01  5.555560e-02
     vertex  6.349207e-01 -2.968255e-01  5.555560e-02
     vertex  3.015873e-01 -2.968255e-01  5.555560e-02
   endloop
 endfacet
 facet normal  0.000000e+00  0.000000e+00 -1.000000e+00
   outer loop
     vertex  3.015873e-01  4.269841e-01  5.555560e-02
     vertex  6.349207e-01  4.269841e-01  5.555560e-02
     vertex  6.349207e-01 -2.968255e-01  5.555560e-02
   endloop
 endfacet
 facet normal  0.000000e+00  1.000000e+00  0.000000e+00
   outer loop
     vertex  9.666667e-01  0.000000e+00  8.650793e-01
     vertex  6.349207e-01  0.000000e+00  3.571428e-01
     vertex  6.349207e-01  0.000000e+00  8.650793e-01
   endloop
 endfacet
 facet normal  0.000000e+00  1.000000e+00  0.000000e+00
   outer loop
     vertex  9.666667e-01  0.000000e+00  8.650793e-01
     vertex  9.666667e-01  0.000000e+00  3.571428e-01
     vertex  6.349207e-01  0.000000e+00  3.571428e-01
   endloop
 endfacet
 facet normal  0.000000e+00  0.000000e+00  1.000000e+00
   outer loop
     vertex  6.349207e-01 -1.587302e-02  8.650793e-01
     vertex  9.666667e-01 -1.587302e-02  8.650793e-01
     vertex  9.666667e-01  0.000000e+00  8.650793e-01
   endloop
 endfacet
 facet normal  0.000000e+00  0.000000e+00  1.000000e+00
   outer loop
     vertex  6.349207e-01 -1.587302e-02  8.650793e-01
     vertex  9.666667e-01  0.000000e+00  8.650793e-01
     vertex  6.349207e-01  0.000000e+00  8.650793e-01
   endloop
 endfacet
 facet normal  0.000000e+00 -1.000000e+00  0.000000e+00
   outer loop
     vertex  3.015873e-01 -2.968255e-01  8.650793e-01
     vertex  6.349207e-01 -2.968255e-01  1.007937e+00
     vertex  3.015873e-01 -2.968255e-01  1.007937e+00
   endloop
 endfacet
 facet normal  0.000000e+00 -1.000000e+00  0.000000e+00
   outer loop
     vertex  3.015873e-01 -2.968255e-01  8.650793e-01
     vertex  6.349207e-01 -2.968255e-01  8.650793e-01
     vertex  6.349207e-01 -2.968255e-01  1.007937e+00
   endloop
 endfacet
 facet normal  0.000000e+00  0.000000e+00  1.000000e+00
   outer loop
     vertex  3.015873e-01 -2.968255e-01  1.007937e+00
     vertex  6.349207e-01  4.269841e-01  1.007937e+00
     vertex  3.015873e-01  4.269841e-01  1.007937e+00
   endloop
 endfacet
 facet normal  0.000000e+00  0.000000e+00  1.000000e+00
   outer loop
     vertex  3.015873e-01 -2.968255e-01  1.007937e+00
     vertex  6.349207e-01 -2.968255e-01  1.007937e+00
     vertex  6.349207e-01  4.269841e-01  1.007937e+00
   endloop
 endfacet
 facet normal  0.000000e+00  1.000000e+00  0.000000e+00
   outer loop
     vertex  3.015873e-01  4.269841e-01  1.007937e+00
     vertex  6.349207e-01  4.269841e-01  5.555560e-02
     vertex  3.015873e-01  4.269841e-01  5.555560e-02
   endloop
 endfacet
 facet normal -0.000000e+00  1.000000e+00  0.000000e+00
   outer loop
     vertex  3.015873e-01  4.269841e-01  1.007937e+00
     vertex  6.349207e-01  4.269841e-01  1.007937e+00
     vertex  6.349207e-01  4.269841e-01  5.555560e-02
   endloop
 endfacet
 facet normal  1.000000e+00  0.000000e+00  0.000000e+00
   outer loop
     vertex  9.666667e-01 -1.587302e-02  8.650793e-01
     vertex  9.666667e-01 -1.587302e-02  3.571428e-01
     vertex  9.666667e-01  0.000000e+00  3.571428e-01
   endloop
 endfacet
 facet normal  1.000000e+00 -0.000000e+00  0.000000e+00
   outer loop
     vertex  9.666667e-01 -1.587302e-02  8.650793e-01
     vertex  9.666667e-01  0.000000e+00  3.571428e-01
     vertex  9.666667e-01  0.000000e+00  8.650793e-01
   endloop
 endfacet
endsolid
