solid 
 facet normal  5.547001e-02  0.000000e+00 -9.984604e-01
   outer loop
     vertex -5.098765e-01 -1.587302e-02  2.128748e-01
     vertex -9.924162e-01 -2.857143e-01  1.860670e-01
     vertex -9.924162e-01 -1.587302e-02  1.860670e-01
   endloop
 endfacet
 facet normal  5.547001e-02  0.000000e+00 -9.984604e-01
   outer loop
     vertex -5.098765e-01 -1.587302e-02  2.128748e-01
     vertex -5.098765e-01 -2.857143e-01  2.128748e-01
     vertex -9.924162e-01 -2.857143e-01  1.860670e-01
   endloop
 endfacet
 facet normal -9.979691e-01  0.000000e+00  6.370021e-02
   outer loop
     vertex -9.924162e-01 -1.587302e-02  1.860670e-01
     vertex -9.522045e-01 -2.857143e-01  8.160494e-01
     vertex -9.522045e-01 -1.587302e-02  8.160494e-01
   endloop
 endfacet
 facet normal -9.979691e-01  0.000000e+00  6.370021e-02
   outer loop
     vertex -9.924162e-01 -1.587302e-02  1.860670e-01
     vertex -9.924162e-01 -2.857143e-01  1.860670e-01
     vertex -9.522045e-01 -2.857143e-01  8.160494e-01
   endloop
 endfacet
 facet normal  1.000000e+00  0.000000e+00  0.000000e+00
   outer loop
     vertex -5.098765e-01 -1.587302e-02  4.273369e-01
     vertex -5.098765e-01 -2.857143e-01  2.128748e-01
     vertex -5.098765e-01 -1.587302e-02  2.128748e-01
   endloop
 endfacet
 facet normal  1.000000e+00  0.000000e+00  0.000000e+00
   outer loop
     vertex -5.098765e-01 -1.587302e-02  4.273369e-01
     vertex -5.098765e-01 -2.857143e-01  4.273369e-01
     vertex -5.098765e-01 -2.857143e-01  2.128748e-01
   endloop
 endfacet
 facet normal  5.547001e-02  0.000000e+00 -9.984604e-01
   outer loop
     vertex -5.098765e-01 -1.587302e-02  2.128748e-01
     vertex -9.924162e-01 -1.587302e-02  1.860670e-01
     vertex -9.924162e-01  0.000000e+00  1.860670e-01
   endloop
 endfacet
 facet normal  5.547001e-02  0.000000e+00 -9.984604e-01
   outer loop
     vertex -5.098765e-01 -1.587302e-02  2.128748e-01
     vertex -9.924162e-01  0.000000e+00  1.860670e-01
     vertex -5.098765e-01  0.000000e+00  2.128748e-01
   endloop
 endfacet
 facet normal  0.000000e+00 -1.000000e+00 -0.000000e+00
   outer loop
     vertex -7.109347e-01 -2.857143e-01  4.273369e-01
     vertex -9.924162e-01 -2.857143e-01  1.860670e-01
     vertex -5.098765e-01 -2.857143e-01  2.128748e-01
   endloop
 endfacet
 facet normal  0.000000e+00 -1.000000e+00 -0.000000e+00
   outer loop
     vertex -7.377425e-01 -2.857143e-01  4.675485e-01
     vertex -9.924162e-01 -2.857143e-01  1.860670e-01
     vertex -7.109347e-01 -2.857143e-01  4.273369e-01
   endloop
 endfacet
 facet normal  0.000000e+00 -1.000000e+00 -0.000000e+00
   outer loop
     vertex -9.522045e-01 -2.857143e-01  8.160494e-01
     vertex -9.924162e-01 -2.857143e-01  1.860670e-01
     vertex -7.377425e-01 -2.857143e-01  4.675485e-01
   endloop
 endfacet
 facet normal -0.000000e+00 -1.000000e+00 -0.000000e+00
   outer loop
     vertex -5.098765e-01 -2.857143e-01  4.273369e-01
     vertex -7.109347e-01 -2.857143e-01  4.273369e-01
     vertex -5.098765e-01 -2.857143e-01  2.128748e-01
   endloop
 endfacet
 facet normal  0.000000e+00 -1.000000e+00 -0.000000e+00
   outer loop
     vertex -6.841270e-01 -2.857143e-01  6.417990e-01
     vertex -7.377425e-01 -2.857143e-01  4.675485e-01
     vertex -6.171076e-01 -2.857143e-01  4.943563e-01
   endloop
 endfacet
 facet normal  0.000000e+00 -1.000000e+00  0.000000e+00
   outer loop
     vertex -7.645503e-01 -2.857143e-01  7.356261e-01
     vertex -7.377425e-01 -2.857143e-01  4.675485e-01
     vertex -6.841270e-01 -2.857143e-01  6.417990e-01
   endloop
 endfacet
 facet normal -0.000000e+00 -1.000000e+00 -0.000000e+00
   outer loop
     vertex -7.645503e-01 -2.857143e-01  7.356261e-01
     vertex -9.522045e-01 -2.857143e-01  8.160494e-01
     vertex -7.377425e-01 -2.857143e-01  4.675485e-01
   endloop
 endfacet
 facet normal -0.000000e+00 -1.000000e+00 -0.000000e+00
   outer loop
     vertex -6.171076e-01 -2.857143e-01  6.149912e-01
     vertex -6.841270e-01 -2.857143e-01  6.417990e-01
     vertex -6.171076e-01 -2.857143e-01  4.943563e-01
   endloop
 endfacet
 facet normal -0.000000e+00 -1.000000e+00  0.000000e+00
   outer loop
     vertex -7.779541e-01 -2.857143e-01  8.562611e-01
     vertex -8.985891e-01 -2.857143e-01  8.830688e-01
     vertex -9.522045e-01 -2.857143e-01  8.160494e-01
   endloop
 endfacet
 facet normal  0.000000e+00 -1.000000e+00 -0.000000e+00
   outer loop
     vertex -7.779541e-01 -2.857143e-01  8.562611e-01
     vertex -9.522045e-01 -2.857143e-01  8.160494e-01
     vertex -7.645503e-01 -2.857143e-01  7.356261e-01
   endloop
 endfacet
 facet normal -7.808692e-01  0.000000e+00  6.246945e-01
   outer loop
     vertex -9.522045e-01 -1.587302e-02  8.160494e-01
     vertex -8.985891e-01 -2.857143e-01  8.830688e-01
     vertex -8.985891e-01 -1.587302e-02  8.830688e-01
   endloop
 endfacet
 facet normal -7.808692e-01  0.000000e+00  6.246945e-01
   outer loop
     vertex -9.522045e-01 -1.587302e-02  8.160494e-01
     vertex -9.522045e-01 -2.857143e-01  8.160494e-01
     vertex -8.985891e-01 -2.857143e-01  8.830688e-01
   endloop
 endfacet
 facet normal -9.979691e-01  0.000000e+00  6.370021e-02
   outer loop
     vertex -9.924162e-01 -1.587302e-02  1.860670e-01
     vertex -9.522045e-01 -1.587302e-02  8.160494e-01
     vertex -9.522045e-01  0.000000e+00  8.160494e-01
   endloop
 endfacet
 facet normal -9.979691e-01  0.000000e+00  6.370021e-02
   outer loop
     vertex -9.924162e-01 -1.587302e-02  1.860670e-01
     vertex -9.522045e-01  0.000000e+00  8.160494e-01
     vertex -9.924162e-01  0.000000e+00  1.860670e-01
   endloop
 endfacet
 facet normal -0.000000e+00  0.000000e+00  1.000000e+00
   outer loop
     vertex -7.109347e-01 -1.587302e-02  4.273369e-01
     vertex -5.098765e-01 -2.857143e-01  4.273369e-01
     vertex -5.098765e-01 -1.587302e-02  4.273369e-01
   endloop
 endfacet
 facet normal  0.000000e+00  0.000000e+00  1.000000e+00
   outer loop
     vertex -7.109347e-01 -1.587302e-02  4.273369e-01
     vertex -7.109347e-01 -2.857143e-01  4.273369e-01
     vertex -5.098765e-01 -2.857143e-01  4.273369e-01
   endloop
 endfacet
 facet normal  1.000000e+00  0.000000e+00  0.000000e+00
   outer loop
     vertex -5.098765e-01 -1.587302e-02  4.273369e-01
     vertex -5.098765e-01 -1.587302e-02  2.128748e-01
     vertex -5.098765e-01  0.000000e+00  2.128748e-01
   endloop
 endfacet
 facet normal  1.000000e+00 -0.000000e+00  0.000000e+00
   outer loop
     vertex -5.098765e-01 -1.587302e-02  4.273369e-01
     vertex -5.098765e-01  0.000000e+00  2.128748e-01
     vertex -5.098765e-01  0.000000e+00  4.273369e-01
   endloop
 endfacet
 facet normal  0.000000e+00  1.000000e+00  0.000000e+00
   outer loop
     vertex -7.109347e-01  1.040834e-17  4.273369e-01
     vertex -5.098765e-01  1.040834e-17  2.128748e-01
     vertex -9.924162e-01  1.040834e-17  1.860670e-01
   endloop
 endfacet
 facet normal  0.000000e+00  1.000000e+00  0.000000e+00
   outer loop
     vertex -7.377425e-01  1.040834e-17  4.675485e-01
     vertex -7.109347e-01  1.040834e-17  4.273369e-01
     vertex -9.924162e-01  1.040834e-17  1.860670e-01
   endloop
 endfacet
 facet normal  0.000000e+00  1.000000e+00  0.000000e+00
   outer loop
     vertex -9.522045e-01  1.040834e-17  8.160494e-01
     vertex -7.377425e-01  1.040834e-17  4.675485e-01
     vertex -9.924162e-01  1.040834e-17  1.860670e-01
   endloop
 endfacet
 facet normal  0.000000e+00  1.000000e+00  0.000000e+00
   outer loop
     vertex -5.098765e-01  1.040834e-17  4.273369e-01
     vertex -5.098765e-01  1.040834e-17  2.128748e-01
     vertex -7.109347e-01  1.040834e-17  4.273369e-01
   endloop
 endfacet
 facet normal  0.000000e+00  1.000000e+00  0.000000e+00
   outer loop
     vertex -6.841270e-01  1.040834e-17  6.417990e-01
     vertex -6.171076e-01  1.040834e-17  4.943563e-01
     vertex -7.377425e-01  1.040834e-17  4.675485e-01
   endloop
 endfacet
 facet normal  0.000000e+00  1.000000e+00  0.000000e+00
   outer loop
     vertex -7.645503e-01  1.040834e-17  7.356261e-01
     vertex -6.841270e-01  1.040834e-17  6.417990e-01
     vertex -7.377425e-01  1.040834e-17  4.675485e-01
   endloop
 endfacet
 facet normal  0.000000e+00  1.000000e+00  0.000000e+00
   outer loop
     vertex -7.645503e-01  1.040834e-17  7.356261e-01
     vertex -7.377425e-01  1.040834e-17  4.675485e-01
     vertex -9.522045e-01  1.040834e-17  8.160494e-01
   endloop
 endfacet
 facet normal  0.000000e+00  1.000000e+00  0.000000e+00
   outer loop
     vertex -6.171076e-01  1.040834e-17  6.149912e-01
     vertex -6.171076e-01  1.040834e-17  4.943563e-01
     vertex -6.841270e-01  1.040834e-17  6.417990e-01
   endloop
 endfacet
 facet normal  0.000000e+00  1.000000e+00  0.000000e+00
   outer loop
     vertex -7.779541e-01  1.040834e-17  8.562611e-01
     vertex -9.522045e-01  1.040834e-17  8.160494e-01
     vertex -8.985891e-01  1.040834e-17  8.830688e-01
   endloop
 endfacet
 facet normal  0.000000e+00  1.000000e+00  0.000000e+00
   outer loop
     vertex -7.779541e-01  1.040834e-17  8.562611e-01
     vertex -7.645503e-01  1.040834e-17  7.356261e-01
     vertex -9.522045e-01  1.040834e-17  8.160494e-01
   endloop
 endfacet
 facet normal  8.320499e-01  0.000000e+00  5.547008e-01
   outer loop
     vertex -7.377425e-01 -1.587302e-02  4.675485e-01
     vertex -7.109347e-01 -2.857143e-01  4.273369e-01
     vertex -7.109347e-01 -1.587302e-02  4.273369e-01
   endloop
 endfacet
 facet normal  8.320499e-01  0.000000e+00  5.547008e-01
   outer loop
     vertex -7.377425e-01 -1.587302e-02  4.675485e-01
     vertex -7.377425e-01 -2.857143e-01  4.675485e-01
     vertex -7.109347e-01 -2.857143e-01  4.273369e-01
   endloop
 endfacet
 facet normal  2.169307e-01  0.000000e+00 -9.761870e-01
   outer loop
     vertex -6.171076e-01 -1.587302e-02  4.943563e-01
     vertex -7.377425e-01 -2.857143e-01  4.675485e-01
     vertex -7.377425e-01 -1.587302e-02  4.675485e-01
   endloop
 endfacet
 facet normal  2.169307e-01  0.000000e+00 -9.761870e-01
   outer loop
     vertex -6.171076e-01 -1.587302e-02  4.943563e-01
     vertex -6.171076e-01 -2.857143e-01  4.943563e-01
     vertex -7.377425e-01 -2.857143e-01  4.675485e-01
   endloop
 endfacet
 facet normal  1.000000e+00  0.000000e+00  0.000000e+00
   outer loop
     vertex -6.171076e-01 -1.587302e-02  6.149912e-01
     vertex -6.171076e-01 -2.857143e-01  4.943563e-01
     vertex -6.171076e-01 -1.587302e-02  4.943563e-01
   endloop
 endfacet
 facet normal  1.000000e+00  0.000000e+00  0.000000e+00
   outer loop
     vertex -6.171076e-01 -1.587302e-02  6.149912e-01
     vertex -6.171076e-01 -2.857143e-01  6.149912e-01
     vertex -6.171076e-01 -2.857143e-01  4.943563e-01
   endloop
 endfacet
 facet normal  3.713910e-01  0.000000e+00  9.284766e-01
   outer loop
     vertex -6.841270e-01 -1.587302e-02  6.417990e-01
     vertex -6.171076e-01 -2.857143e-01  6.149912e-01
     vertex -6.171076e-01 -1.587302e-02  6.149912e-01
   endloop
 endfacet
 facet normal  3.713910e-01  0.000000e+00  9.284766e-01
   outer loop
     vertex -6.841270e-01 -1.587302e-02  6.417990e-01
     vertex -6.841270e-01 -2.857143e-01  6.417990e-01
     vertex -6.171076e-01 -2.857143e-01  6.149912e-01
   endloop
 endfacet
 facet normal  7.592564e-01  0.000000e+00  6.507916e-01
   outer loop
     vertex -7.645503e-01 -1.587302e-02  7.356261e-01
     vertex -6.841270e-01 -2.857143e-01  6.417990e-01
     vertex -6.841270e-01 -1.587302e-02  6.417990e-01
   endloop
 endfacet
 facet normal  7.592564e-01  0.000000e+00  6.507916e-01
   outer loop
     vertex -7.645503e-01 -1.587302e-02  7.356261e-01
     vertex -7.645503e-01 -2.857143e-01  7.356261e-01
     vertex -6.841270e-01 -2.857143e-01  6.417990e-01
   endloop
 endfacet
 facet normal  9.938838e-01  0.000000e+00  1.104311e-01
   outer loop
     vertex -7.779541e-01 -1.587302e-02  8.562611e-01
     vertex -7.645503e-01 -2.857143e-01  7.356261e-01
     vertex -7.645503e-01 -1.587302e-02  7.356261e-01
   endloop
 endfacet
 facet normal  9.938838e-01  0.000000e+00  1.104311e-01
   outer loop
     vertex -7.779541e-01 -1.587302e-02  8.562611e-01
     vertex -7.779541e-01 -2.857143e-01  8.562611e-01
     vertex -7.645503e-01 -2.857143e-01  7.356261e-01
   endloop
 endfacet
 facet normal  2.169301e-01  0.000000e+00  9.761871e-01
   outer loop
     vertex -8.985891e-01 -1.587302e-02  8.830688e-01
     vertex -7.779541e-01 -2.857143e-01  8.562611e-01
     vertex -7.779541e-01 -1.587302e-02  8.562611e-01
   endloop
 endfacet
 facet normal  2.169301e-01  0.000000e+00  9.761871e-01
   outer loop
     vertex -8.985891e-01 -1.587302e-02  8.830688e-01
     vertex -8.985891e-01 -2.857143e-01  8.830688e-01
     vertex -7.779541e-01 -2.857143e-01  8.562611e-01
   endloop
 endfacet
 facet normal -7.808692e-01  0.000000e+00  6.246945e-01
   outer loop
     vertex -9.522045e-01 -1.587302e-02  8.160494e-01
     vertex -8.985891e-01 -1.587302e-02  8.830688e-01
     vertex -8.985891e-01  0.000000e+00  8.830688e-01
   endloop
 endfacet
 facet normal -7.808692e-01  0.000000e+00  6.246945e-01
   outer loop
     vertex -9.522045e-01 -1.587302e-02  8.160494e-01
     vertex -8.985891e-01  0.000000e+00  8.830688e-01
     vertex -9.522045e-01  0.000000e+00  8.160494e-01
   endloop
 endfacet
 facet normal  0.000000e+00  0.000000e+00  1.000000e+00
   outer loop
     vertex -7.109347e-01 -1.587302e-02  4.273369e-01
     vertex -5.098765e-01 -1.587302e-02  4.273369e-01
     vertex -5.098765e-01  0.000000e+00  4.273369e-01
   endloop
 endfacet
 facet normal  0.000000e+00  0.000000e+00  1.000000e+00
   outer loop
     vertex -7.109347e-01 -1.587302e-02  4.273369e-01
     vertex -5.098765e-01  0.000000e+00  4.273369e-01
     vertex -7.109347e-01  0.000000e+00  4.273369e-01
   endloop
 endfacet
 facet normal  8.320499e-01  0.000000e+00  5.547008e-01
   outer loop
     vertex -7.377425e-01 -1.587302e-02  4.675485e-01
     vertex -7.109347e-01 -1.587302e-02  4.273369e-01
     vertex -7.109347e-01  0.000000e+00  4.273369e-01
   endloop
 endfacet
 facet normal  8.320499e-01 -0.000000e+00  5.547008e-01
   outer loop
     vertex -7.377425e-01 -1.587302e-02  4.675485e-01
     vertex -7.109347e-01  0.000000e+00  4.273369e-01
     vertex -7.377425e-01  0.000000e+00  4.675485e-01
   endloop
 endfacet
 facet normal  2.169307e-01  0.000000e+00 -9.761870e-01
   outer loop
     vertex -6.171076e-01 -1.587302e-02  4.943563e-01
     vertex -7.377425e-01 -1.587302e-02  4.675485e-01
     vertex -7.377425e-01  0.000000e+00  4.675485e-01
   endloop
 endfacet
 facet normal  2.169307e-01  0.000000e+00 -9.761870e-01
   outer loop
     vertex -6.171076e-01 -1.587302e-02  4.943563e-01
     vertex -7.377425e-01  0.000000e+00  4.675485e-01
     vertex -6.171076e-01  0.000000e+00  4.943563e-01
   endloop
 endfacet
 facet normal  1.000000e+00  0.000000e+00  0.000000e+00
   outer loop
     vertex -6.171076e-01 -1.587302e-02  6.149912e-01
     vertex -6.171076e-01 -1.587302e-02  4.943563e-01
     vertex -6.171076e-01  0.000000e+00  4.943563e-01
   endloop
 endfacet
 facet normal  1.000000e+00 -0.000000e+00  0.000000e+00
   outer loop
     vertex -6.171076e-01 -1.587302e-02  6.149912e-01
     vertex -6.171076e-01  0.000000e+00  4.943563e-01
     vertex -6.171076e-01  0.000000e+00  6.149912e-01
   endloop
 endfacet
 facet normal  3.713910e-01  0.000000e+00  9.284766e-01
   outer loop
     vertex -6.841270e-01 -1.587302e-02  6.417990e-01
     vertex -6.171076e-01 -1.587302e-02  6.149912e-01
     vertex -6.171076e-01  0.000000e+00  6.149912e-01
   endloop
 endfacet
 facet normal  3.713910e-01 -0.000000e+00  9.284766e-01
   outer loop
     vertex -6.841270e-01 -1.587302e-02  6.417990e-01
     vertex -6.171076e-01  0.000000e+00  6.149912e-01
     vertex -6.841270e-01  0.000000e+00  6.417990e-01
   endloop
 endfacet
 facet normal  7.592564e-01  0.000000e+00  6.507916e-01
   outer loop
     vertex -7.645503e-01 -1.587302e-02  7.356261e-01
     vertex -6.841270e-01 -1.587302e-02  6.417990e-01
     vertex -6.841270e-01  0.000000e+00  6.417990e-01
   endloop
 endfacet
 facet normal  7.592564e-01 -0.000000e+00  6.507916e-01
   outer loop
     vertex -7.645503e-01 -1.587302e-02  7.356261e-01
     vertex -6.841270e-01  0.000000e+00  6.417990e-01
     vertex -7.645503e-01  0.000000e+00  7.356261e-01
   endloop
 endfacet
 facet normal  9.938838e-01  0.000000e+00  1.104311e-01
   outer loop
     vertex -7.779541e-01 -1.587302e-02  8.562611e-01
     vertex -7.645503e-01 -1.587302e-02  7.356261e-01
     vertex -7.645503e-01  0.000000e+00  7.356261e-01
   endloop
 endfacet
 facet normal  9.938838e-01 -0.000000e+00  1.104311e-01
   outer loop
     vertex -7.779541e-01 -1.587302e-02  8.562611e-01
     vertex -7.645503e-01  0.000000e+00  7.356261e-01
     vertex -7.779541e-01  0.000000e+00  8.562611e-01
   endloop
 endfacet
 facet normal  2.169301e-01  0.000000e+00  9.761871e-01
   outer loop
     vertex -8.985891e-01 -1.587302e-02  8.830688e-01
     vertex -7.779541e-01 -1.587302e-02  8.562611e-01
     vertex -7.779541e-01  0.000000e+00  8.562611e-01
   endloop
 endfacet
 facet normal  2.169301e-01 -0.000000e+00  9.761871e-01
   outer loop
     vertex -8.985891e-01 -1.587302e-02  8.830688e-01
     vertex -7.779541e-01  0.000000e+00  8.562611e-01
     vertex -8.985891e-01  0.000000e+00  8.830688e-01
   endloop
 endfacet
endsolid
