solid 
 facet normal  0.000000e+00  0.000000e+00 -1.000000e+00
   outer loop
     vertex -1.587302e-02  2.611993e-01 -9.541443e-02
     vertex  9.841270e-01 -3.313933e-01 -9.541443e-02
     vertex -1.587302e-02 -3.313933e-01 -9.541443e-02
   endloop
 endfacet
 facet normal  0.000000e+00  0.000000e+00 -1.000000e+00
   outer loop
     vertex -1.587302e-02  2.611993e-01 -9.541443e-02
     vertex  9.841270e-01  2.611993e-01 -9.541443e-02
     vertex  9.841270e-01 -3.313933e-01 -9.541443e-02
   endloop
 endfacet
 facet normal  0.000000e+00 -1.000000e+00  0.000000e+00
   outer loop
     vertex -1.587302e-02 -3.313933e-01 -9.541443e-02
     vertex  9.841270e-01 -3.313933e-01  8.236336e-02
     vertex -1.587302e-02 -3.313933e-01  8.236336e-02
   endloop
 endfacet
 facet normal  0.000000e+00 -1.000000e+00  0.000000e+00
   outer loop
     vertex -1.587302e-02 -3.313933e-01 -9.541443e-02
     vertex  9.841270e-01 -3.313933e-01 -9.541443e-02
     vertex  9.841270e-01 -3.313933e-01  8.236336e-02
   endloop
 endfacet
 facet normal  0.000000e+00  1.000000e+00  0.000000e+00
   outer loop
     vertex -1.587302e-02  2.611993e-01  8.236336e-02
     vertex  9.841270e-01  2.611993e-01 -9.541443e-02
     vertex -1.587302e-02  2.611993e-01 -9.541443e-02
   endloop
 endfacet
 facet normal -0.000000e+00  1.000000e+00  0.000000e+00
   outer loop
     vertex -1.587302e-02  2.611993e-01  8.236336e-02
     vertex  9.841270e-01  2.611993e-01  8.236336e-02
     vertex  9.841270e-01  2.611993e-01 -9.541443e-02
   endloop
 endfacet
 facet normal  0.000000e+00 -0.000000e+00 -1.000000e+00
   outer loop
     vertex -1.587302e-02  2.611993e-01 -9.541443e-02
     vertex -1.587302e-02 -3.313933e-01 -9.541443e-02
     vertex -3.174603e-02 -3.313933e-01 -9.541443e-02
   endloop
 endfacet
 facet normal -0.000000e+00  0.000000e+00 -1.000000e+00
   outer loop
     vertex -1.587302e-02  2.611993e-01 -9.541443e-02
     vertex -3.174603e-02 -3.313933e-01 -9.541443e-02
     vertex -3.174603e-02  2.611993e-01 -9.541443e-02
   endloop
 endfacet
 facet normal  1.000000e+00  0.000000e+00  0.000000e+00
   outer loop
     vertex  9.841270e-01 -2.128748e-01  6.261028e-02
     vertex  9.841270e-01 -3.313933e-01  8.236336e-02
     vertex  9.841270e-01 -3.313933e-01 -9.541443e-02
   endloop
 endfacet
 facet normal  1.000000e+00  0.000000e+00  0.000000e+00
   outer loop
     vertex  9.841270e-01 -2.128748e-01  8.236336e-02
     vertex  9.841270e-01 -3.313933e-01  8.236336e-02
     vertex  9.841270e-01 -2.128748e-01  6.261028e-02
   endloop
 endfacet
 facet normal  1.000000e+00  0.000000e+00  0.000000e+00
   outer loop
     vertex  9.841270e-01 -6.472660e-02  6.261028e-02
     vertex  9.841270e-01 -2.128748e-01  6.261028e-02
     vertex  9.841270e-01 -3.313933e-01 -9.541443e-02
   endloop
 endfacet
 facet normal  1.000000e+00  0.000000e+00  0.000000e+00
   outer loop
     vertex  9.841270e-01 -5.467322e-03  8.236336e-02
     vertex  9.841270e-01 -6.472660e-02  8.236336e-02
     vertex  9.841270e-01 -6.472660e-02  6.261028e-02
   endloop
 endfacet
 facet normal  1.000000e+00  0.000000e+00  0.000000e+00
   outer loop
     vertex  9.841270e-01 -5.467322e-03  8.236336e-02
     vertex  9.841270e-01 -6.472660e-02  6.261028e-02
     vertex  9.841270e-01 -5.467322e-03  6.261028e-02
   endloop
 endfacet
 facet normal  1.000000e+00  0.000000e+00  0.000000e+00
   outer loop
     vertex  9.841270e-01  2.611993e-01 -9.541443e-02
     vertex  9.841270e-01 -5.467322e-03  6.261028e-02
     vertex  9.841270e-01 -6.472660e-02  6.261028e-02
   endloop
 endfacet
 facet normal  1.000000e+00  0.000000e+00  0.000000e+00
   outer loop
     vertex  9.841270e-01  2.611993e-01 -9.541443e-02
     vertex  9.841270e-01 -6.472660e-02  6.261028e-02
     vertex  9.841270e-01 -3.313933e-01 -9.541443e-02
   endloop
 endfacet
 facet normal  1.000000e+00  0.000000e+00  0.000000e+00
   outer loop
     vertex  9.841270e-01  1.426808e-01  6.261028e-02
     vertex  9.841270e-01 -5.467322e-03  6.261028e-02
     vertex  9.841270e-01  2.611993e-01 -9.541443e-02
   endloop
 endfacet
 facet normal  1.000000e+00  0.000000e+00  0.000000e+00
   outer loop
     vertex  9.841270e-01  2.611993e-01  8.236336e-02
     vertex  9.841270e-01  1.426808e-01  8.236336e-02
     vertex  9.841270e-01  1.426808e-01  6.261028e-02
   endloop
 endfacet
 facet normal  1.000000e+00  0.000000e+00  0.000000e+00
   outer loop
     vertex  9.841270e-01  2.611993e-01  8.236336e-02
     vertex  9.841270e-01  1.426808e-01  6.261028e-02
     vertex  9.841270e-01  2.611993e-01 -9.541443e-02
   endloop
 endfacet
 facet normal  0.000000e+00  0.000000e+00  1.000000e+00
   outer loop
     vertex -1.587302e-02 -3.313933e-01  8.236336e-02
     vertex  9.841270e-01 -2.128748e-01  8.236336e-02
     vertex -1.587302e-02 -2.128748e-01  8.236336e-02
   endloop
 endfacet
 facet normal  0.000000e+00  0.000000e+00  1.000000e+00
   outer loop
     vertex -1.587302e-02 -3.313933e-01  8.236336e-02
     vertex  9.841270e-01 -3.313933e-01  8.236336e-02
     vertex  9.841270e-01 -2.128748e-01  8.236336e-02
   endloop
 endfacet
 facet normal  0.000000e+00 -1.000000e+00  0.000000e+00
   outer loop
     vertex -1.587302e-02 -3.313933e-01 -9.541443e-02
     vertex -1.587302e-02 -3.313933e-01  8.236336e-02
     vertex -3.174603e-02 -3.313933e-01  8.236336e-02
   endloop
 endfacet
 facet normal  0.000000e+00 -1.000000e+00  0.000000e+00
   outer loop
     vertex -1.587302e-02 -3.313933e-01 -9.541443e-02
     vertex -3.174603e-02 -3.313933e-01  8.236336e-02
     vertex -3.174603e-02 -3.313933e-01 -9.541443e-02
   endloop
 endfacet
 facet normal  0.000000e+00  0.000000e+00  1.000000e+00
   outer loop
     vertex -1.587302e-02  1.426808e-01  8.236336e-02
     vertex  9.841270e-01  2.611993e-01  8.236336e-02
     vertex -1.587302e-02  2.611993e-01  8.236336e-02
   endloop
 endfacet
 facet normal  0.000000e+00  0.000000e+00  1.000000e+00
   outer loop
     vertex -1.587302e-02  1.426808e-01  8.236336e-02
     vertex  9.841270e-01  1.426808e-01  8.236336e-02
     vertex  9.841270e-01  2.611993e-01  8.236336e-02
   endloop
 endfacet
 facet normal  0.000000e+00  1.000000e+00  0.000000e+00
   outer loop
     vertex -1.587302e-02  2.611993e-01  8.236336e-02
     vertex -1.587302e-02  2.611993e-01 -9.541443e-02
     vertex -3.174603e-02  2.611993e-01 -9.541443e-02
   endloop
 endfacet
 facet normal  0.000000e+00  1.000000e+00  0.000000e+00
   outer loop
     vertex -1.587302e-02  2.611993e-01  8.236336e-02
     vertex -3.174603e-02  2.611993e-01 -9.541443e-02
     vertex -3.174603e-02  2.611993e-01  8.236336e-02
   endloop
 endfacet
 facet normal -1.000000e+00 -0.000000e+00  0.000000e+00
   outer loop
     vertex -3.174603e-02 -2.128748e-01  6.261028e-02
     vertex -3.174603e-02 -3.313933e-01 -9.541443e-02
     vertex -3.174603e-02 -3.313933e-01  8.236336e-02
   endloop
 endfacet
 facet normal -1.000000e+00 -0.000000e+00 -0.000000e+00
   outer loop
     vertex -3.174603e-02 -2.128748e-01  8.236336e-02
     vertex -3.174603e-02 -2.128748e-01  6.261028e-02
     vertex -3.174603e-02 -3.313933e-01  8.236336e-02
   endloop
 endfacet
 facet normal -1.000000e+00 -0.000000e+00  0.000000e+00
   outer loop
     vertex -3.174603e-02 -6.472660e-02  6.261028e-02
     vertex -3.174603e-02 -3.313933e-01 -9.541443e-02
     vertex -3.174603e-02 -2.128748e-01  6.261028e-02
   endloop
 endfacet
 facet normal -1.000000e+00 -0.000000e+00  0.000000e+00
   outer loop
     vertex -3.174603e-02 -5.467322e-03  8.236336e-02
     vertex -3.174603e-02 -6.472660e-02  6.261028e-02
     vertex -3.174603e-02 -6.472660e-02  8.236336e-02
   endloop
 endfacet
 facet normal -1.000000e+00  0.000000e+00 -0.000000e+00
   outer loop
     vertex -3.174603e-02 -5.467322e-03  8.236336e-02
     vertex -3.174603e-02 -5.467322e-03  6.261028e-02
     vertex -3.174603e-02 -6.472660e-02  6.261028e-02
   endloop
 endfacet
 facet normal -1.000000e+00  0.000000e+00  0.000000e+00
   outer loop
     vertex -3.174603e-02  2.611993e-01 -9.541443e-02
     vertex -3.174603e-02 -6.472660e-02  6.261028e-02
     vertex -3.174603e-02 -5.467322e-03  6.261028e-02
   endloop
 endfacet
 facet normal -1.000000e+00  0.000000e+00  0.000000e+00
   outer loop
     vertex -3.174603e-02  2.611993e-01 -9.541443e-02
     vertex -3.174603e-02 -3.313933e-01 -9.541443e-02
     vertex -3.174603e-02 -6.472660e-02  6.261028e-02
   endloop
 endfacet
 facet normal -1.000000e+00 -0.000000e+00 -0.000000e+00
   outer loop
     vertex -3.174603e-02  1.426808e-01  6.261028e-02
     vertex -3.174603e-02  2.611993e-01 -9.541443e-02
     vertex -3.174603e-02 -5.467322e-03  6.261028e-02
   endloop
 endfacet
 facet normal -1.000000e+00 -0.000000e+00  0.000000e+00
   outer loop
     vertex -3.174603e-02  2.611993e-01  8.236336e-02
     vertex -3.174603e-02  1.426808e-01  6.261028e-02
     vertex -3.174603e-02  1.426808e-01  8.236336e-02
   endloop
 endfacet
 facet normal -1.000000e+00  0.000000e+00 -0.000000e+00
   outer loop
     vertex -3.174603e-02  2.611993e-01  8.236336e-02
     vertex -3.174603e-02  2.611993e-01 -9.541443e-02
     vertex -3.174603e-02  1.426808e-01  6.261028e-02
   endloop
 endfacet
 facet normal  0.000000e+00 -1.000000e+00  0.000000e+00
   outer loop
     vertex -1.587302e-02  1.426808e-01  6.261028e-02
     vertex  9.841270e-01  1.426808e-01  8.236336e-02
     vertex -1.587302e-02  1.426808e-01  8.236336e-02
   endloop
 endfacet
 facet normal  0.000000e+00 -1.000000e+00  0.000000e+00
   outer loop
     vertex -1.587302e-02  1.426808e-01  6.261028e-02
     vertex  9.841270e-01  1.426808e-01  6.261028e-02
     vertex  9.841270e-01  1.426808e-01  8.236336e-02
   endloop
 endfacet
 facet normal  0.000000e+00  0.000000e+00  1.000000e+00
   outer loop
     vertex -1.587302e-02 -5.467322e-03  6.261028e-02
     vertex  9.841270e-01  1.426808e-01  6.261028e-02
     vertex -1.587302e-02  1.426808e-01  6.261028e-02
   endloop
 endfacet
 facet normal  0.000000e+00  0.000000e+00  1.000000e+00
   outer loop
     vertex -1.587302e-02 -5.467322e-03  6.261028e-02
     vertex  9.841270e-01 -5.467322e-03  6.261028e-02
     vertex  9.841270e-01  1.426808e-01  6.261028e-02
   endloop
 endfacet
 facet normal  0.000000e+00  1.000000e+00  0.000000e+00
   outer loop
     vertex -1.587302e-02 -5.467322e-03  8.236336e-02
     vertex  9.841270e-01 -5.467322e-03  6.261028e-02
     vertex -1.587302e-02 -5.467322e-03  6.261028e-02
   endloop
 endfacet
 facet normal -0.000000e+00  1.000000e+00  0.000000e+00
   outer loop
     vertex -1.587302e-02 -5.467322e-03  8.236336e-02
     vertex  9.841270e-01 -5.467322e-03  8.236336e-02
     vertex  9.841270e-01 -5.467322e-03  6.261028e-02
   endloop
 endfacet
 facet normal  0.000000e+00  0.000000e+00  1.000000e+00
   outer loop
     vertex -1.587302e-02 -6.472660e-02  8.236336e-02
     vertex  9.841270e-01 -5.467322e-03  8.236336e-02
     vertex -1.587302e-02 -5.467322e-03  8.236336e-02
   endloop
 endfacet
 facet normal  0.000000e+00  0.000000e+00  1.000000e+00
   outer loop
     vertex -1.587302e-02 -6.472660e-02  8.236336e-02
     vertex  9.841270e-01 -6.472660e-02  8.236336e-02
     vertex  9.841270e-01 -5.467322e-03  8.236336e-02
   endloop
 endfacet
 facet normal  0.000000e+00 -1.000000e+00  0.000000e+00
   outer loop
     vertex -1.587302e-02 -6.472660e-02  6.261028e-02
     vertex  9.841270e-01 -6.472660e-02  8.236336e-02
     vertex -1.587302e-02 -6.472660e-02  8.236336e-02
   endloop
 endfacet
 facet normal  0.000000e+00 -1.000000e+00  0.000000e+00
   outer loop
     vertex -1.587302e-02 -6.472660e-02  6.261028e-02
     vertex  9.841270e-01 -6.472660e-02  6.261028e-02
     vertex  9.841270e-01 -6.472660e-02  8.236336e-02
   endloop
 endfacet
 facet normal  0.000000e+00  0.000000e+00  1.000000e+00
   outer loop
     vertex -1.587302e-02 -2.128748e-01  6.261028e-02
     vertex  9.841270e-01 -6.472660e-02  6.261028e-02
     vertex -1.587302e-02 -6.472660e-02  6.261028e-02
   endloop
 endfacet
 facet normal  0.000000e+00  0.000000e+00  1.000000e+00
   outer loop
     vertex -1.587302e-02 -2.128748e-01  6.261028e-02
     vertex  9.841270e-01 -2.128748e-01  6.261028e-02
     vertex  9.841270e-01 -6.472660e-02  6.261028e-02
   endloop
 endfacet
 facet normal  0.000000e+00  1.000000e+00  0.000000e+00
   outer loop
     vertex -1.587302e-02 -2.128748e-01  8.236336e-02
     vertex  9.841270e-01 -2.128748e-01  6.261028e-02
     vertex -1.587302e-02 -2.128748e-01  6.261028e-02
   endloop
 endfacet
 facet normal -0.000000e+00  1.000000e+00  0.000000e+00
   outer loop
     vertex -1.587302e-02 -2.128748e-01  8.236336e-02
     vertex  9.841270e-01 -2.128748e-01  8.236336e-02
     vertex  9.841270e-01 -2.128748e-01  6.261028e-02
   endloop
 endfacet
 facet normal  0.000000e+00 -0.000000e+00  1.000000e+00
   outer loop
     vertex -1.587302e-02 -3.313933e-01  8.236336e-02
     vertex -1.587302e-02 -2.128748e-01  8.236336e-02
     vertex -3.174603e-02 -2.128748e-01  8.236336e-02
   endloop
 endfacet
 facet normal  0.000000e+00  0.000000e+00  1.000000e+00
   outer loop
     vertex -1.587302e-02 -3.313933e-01  8.236336e-02
     vertex -3.174603e-02 -2.128748e-01  8.236336e-02
     vertex -3.174603e-02 -3.313933e-01  8.236336e-02
   endloop
 endfacet
 facet normal  0.000000e+00 -0.000000e+00  1.000000e+00
   outer loop
     vertex -1.587302e-02  1.426808e-01  8.236336e-02
     vertex -1.587302e-02  2.611993e-01  8.236336e-02
     vertex -3.174603e-02  2.611993e-01  8.236336e-02
   endloop
 endfacet
 facet normal  0.000000e+00  0.000000e+00  1.000000e+00
   outer loop
     vertex -1.587302e-02  1.426808e-01  8.236336e-02
     vertex -3.174603e-02  2.611993e-01  8.236336e-02
     vertex -3.174603e-02  1.426808e-01  8.236336e-02
   endloop
 endfacet
 facet normal  0.000000e+00 -1.000000e+00  0.000000e+00
   outer loop
     vertex -1.587302e-02  1.426808e-01  6.261028e-02
     vertex -1.587302e-02  1.426808e-01  8.236336e-02
     vertex -3.174603e-02  1.426808e-01  8.236336e-02
   endloop
 endfacet
 facet normal  0.000000e+00 -1.000000e+00  0.000000e+00
   outer loop
     vertex -1.587302e-02  1.426808e-01  6.261028e-02
     vertex -3.174603e-02  1.426808e-01  8.236336e-02
     vertex -3.174603e-02  1.426808e-01  6.261028e-02
   endloop
 endfacet
 facet normal  0.000000e+00 -0.000000e+00  1.000000e+00
   outer loop
     vertex -1.587302e-02 -5.467322e-03  6.261028e-02
     vertex -1.587302e-02  1.426808e-01  6.261028e-02
     vertex -3.174603e-02  1.426808e-01  6.261028e-02
   endloop
 endfacet
 facet normal  0.000000e+00  0.000000e+00  1.000000e+00
   outer loop
     vertex -1.587302e-02 -5.467322e-03  6.261028e-02
     vertex -3.174603e-02  1.426808e-01  6.261028e-02
     vertex -3.174603e-02 -5.467322e-03  6.261028e-02
   endloop
 endfacet
 facet normal  0.000000e+00  1.000000e+00  0.000000e+00
   outer loop
     vertex -1.587302e-02 -5.467322e-03  8.236336e-02
     vertex -1.587302e-02 -5.467322e-03  6.261028e-02
     vertex -3.174603e-02 -5.467322e-03  6.261028e-02
   endloop
 endfacet
 facet normal  0.000000e+00  1.000000e+00  0.000000e+00
   outer loop
     vertex -1.587302e-02 -5.467322e-03  8.236336e-02
     vertex -3.174603e-02 -5.467322e-03  6.261028e-02
     vertex -3.174603e-02 -5.467322e-03  8.236336e-02
   endloop
 endfacet
 facet normal  0.000000e+00 -0.000000e+00  1.000000e+00
   outer loop
     vertex -1.587302e-02 -6.472660e-02  8.236336e-02
     vertex -1.587302e-02 -5.467322e-03  8.236336e-02
     vertex -3.174603e-02 -5.467322e-03  8.236336e-02
   endloop
 endfacet
 facet normal  0.000000e+00  0.000000e+00  1.000000e+00
   outer loop
     vertex -1.587302e-02 -6.472660e-02  8.236336e-02
     vertex -3.174603e-02 -5.467322e-03  8.236336e-02
     vertex -3.174603e-02 -6.472660e-02  8.236336e-02
   endloop
 endfacet
 facet normal  0.000000e+00 -1.000000e+00  0.000000e+00
   outer loop
     vertex -1.587302e-02 -6.472660e-02  6.261028e-02
     vertex -1.587302e-02 -6.472660e-02  8.236336e-02
     vertex -3.174603e-02 -6.472660e-02  8.236336e-02
   endloop
 endfacet
 facet normal  0.000000e+00 -1.000000e+00  0.000000e+00
   outer loop
     vertex -1.587302e-02 -6.472660e-02  6.261028e-02
     vertex -3.174603e-02 -6.472660e-02  8.236336e-02
     vertex -3.174603e-02 -6.472660e-02  6.261028e-02
   endloop
 endfacet
 facet normal  0.000000e+00 -0.000000e+00  1.000000e+00
   outer loop
     vertex -1.587302e-02 -2.128748e-01  6.261028e-02
     vertex -1.587302e-02 -6.472660e-02  6.261028e-02
     vertex -3.174603e-02 -6.472660e-02  6.261028e-02
   endloop
 endfacet
 facet normal  0.000000e+00  0.000000e+00  1.000000e+00
   outer loop
     vertex -1.587302e-02 -2.128748e-01  6.261028e-02
     vertex -3.174603e-02 -6.472660e-02  6.261028e-02
     vertex -3.174603e-02 -2.128748e-01  6.261028e-02
   endloop
 endfacet
 facet normal  0.000000e+00  1.000000e+00  0.000000e+00
   outer loop
     vertex -1.587302e-02 -2.128748e-01  8.236336e-02
     vertex -1.587302e-02 -2.128748e-01  6.261028e-02
     vertex -3.174603e-02 -2.128748e-01  6.261028e-02
   endloop
 endfacet
 facet normal  0.000000e+00  1.000000e+00  0.000000e+00
   outer loop
     vertex -1.587302e-02 -2.128748e-01  8.236336e-02
     vertex -3.174603e-02 -2.128748e-01  6.261028e-02
     vertex -3.174603e-02 -2.128748e-01  8.236336e-02
   endloop
 endfacet
endsolid
