solid 
 facet normal -6.936417e-01  0.000000e+00 -7.203202e-01
   outer loop
     vertex  2.345676e-02 -1.587302e-02 -2.063489e-02
     vertex -1.463848e-02 -1.015873e+00  1.604941e-02
     vertex -1.463848e-02 -1.587302e-02  1.604941e-02
   endloop
 endfacet
 facet normal -6.936417e-01 -0.000000e+00 -7.203202e-01
   outer loop
     vertex  2.345676e-02 -1.587302e-02 -2.063489e-02
     vertex  2.345676e-02 -1.015873e+00 -2.063489e-02
     vertex -1.463848e-02 -1.015873e+00  1.604941e-02
   endloop
 endfacet
 facet normal -0.000000e+00  0.000000e+00  1.000000e+00
   outer loop
     vertex -1.463848e-02 -1.587302e-02  1.604941e-02
     vertex  6.719574e-02 -1.015873e+00  1.604941e-02
     vertex  6.719574e-02 -1.587302e-02  1.604941e-02
   endloop
 endfacet
 facet normal  0.000000e+00  0.000000e+00  1.000000e+00
   outer loop
     vertex -1.463848e-02 -1.587302e-02  1.604941e-02
     vertex -1.463848e-02 -1.015873e+00  1.604941e-02
     vertex  6.719574e-02 -1.015873e+00  1.604941e-02
   endloop
 endfacet
 facet normal -0.000000e+00  0.000000e+00 -1.000000e+00
   outer loop
     vertex  6.719574e-02 -1.587302e-02 -2.063489e-02
     vertex  2.345676e-02 -1.015873e+00 -2.063489e-02
     vertex  2.345676e-02 -1.587302e-02 -2.063489e-02
   endloop
 endfacet
 facet normal  0.000000e+00 -0.000000e+00 -1.000000e+00
   outer loop
     vertex  6.719574e-02 -1.587302e-02 -2.063489e-02
     vertex  6.719574e-02 -1.015873e+00 -2.063489e-02
     vertex  2.345676e-02 -1.015873e+00 -2.063489e-02
   endloop
 endfacet
 facet normal -6.936417e-01  0.000000e+00 -7.203202e-01
   outer loop
     vertex  2.345676e-02 -1.587302e-02 -2.063489e-02
     vertex -1.463848e-02 -1.587302e-02  1.604941e-02
     vertex -1.463848e-02  0.000000e+00  1.604941e-02
   endloop
 endfacet
 facet normal -6.936417e-01  0.000000e+00 -7.203202e-01
   outer loop
     vertex  2.345676e-02 -1.587302e-02 -2.063489e-02
     vertex -1.463848e-02  0.000000e+00  1.604941e-02
     vertex  2.345676e-02  0.000000e+00 -2.063489e-02
   endloop
 endfacet
 facet normal -0.000000e+00 -1.000000e+00  0.000000e+00
   outer loop
     vertex  6.719574e-02 -1.015873e+00  1.604941e-02
     vertex -1.463848e-02 -1.015873e+00  1.604941e-02
     vertex  2.345676e-02 -1.015873e+00 -2.063489e-02
   endloop
 endfacet
 facet normal  0.000000e+00 -1.000000e+00 -0.000000e+00
   outer loop
     vertex  6.719574e-02 -1.015873e+00  1.604941e-02
     vertex  2.345676e-02 -1.015873e+00 -2.063489e-02
     vertex  6.719574e-02 -1.015873e+00 -2.063489e-02
   endloop
 endfacet
 facet normal  1.000000e+00  0.000000e+00  0.000000e+00
   outer loop
     vertex  6.719574e-02 -1.587302e-02  1.604941e-02
     vertex  6.719574e-02 -1.015873e+00 -2.063489e-02
     vertex  6.719574e-02 -1.587302e-02 -2.063489e-02
   endloop
 endfacet
 facet normal  1.000000e+00  0.000000e+00  0.000000e+00
   outer loop
     vertex  6.719574e-02 -1.587302e-02  1.604941e-02
     vertex  6.719574e-02 -1.015873e+00  1.604941e-02
     vertex  6.719574e-02 -1.015873e+00 -2.063489e-02
   endloop
 endfacet
 facet normal  0.000000e+00  0.000000e+00  1.000000e+00
   outer loop
     vertex -1.463848e-02 -1.587302e-02  1.604941e-02
     vertex  6.719574e-02 -1.587302e-02  1.604941e-02
     vertex  6.719574e-02  0.000000e+00  1.604941e-02
   endloop
 endfacet
 facet normal  0.000000e+00  0.000000e+00  1.000000e+00
   outer loop
     vertex -1.463848e-02 -1.587302e-02  1.604941e-02
     vertex  6.719574e-02  0.000000e+00  1.604941e-02
     vertex -1.463848e-02  0.000000e+00  1.604941e-02
   endloop
 endfacet
 facet normal  0.000000e+00  0.000000e+00 -1.000000e+00
   outer loop
     vertex  6.719574e-02 -1.587302e-02 -2.063489e-02
     vertex  2.345676e-02 -1.587302e-02 -2.063489e-02
     vertex  2.345676e-02  0.000000e+00 -2.063489e-02
   endloop
 endfacet
 facet normal  0.000000e+00  0.000000e+00 -1.000000e+00
   outer loop
     vertex  6.719574e-02 -1.587302e-02 -2.063489e-02
     vertex  2.345676e-02  0.000000e+00 -2.063489e-02
     vertex  6.719574e-02  0.000000e+00 -2.063489e-02
   endloop
 endfacet
 facet normal  0.000000e+00  1.000000e+00  0.000000e+00
   outer loop
     vertex  6.719574e-02  6.591949e-17  1.604941e-02
     vertex  2.345676e-02  6.591949e-17 -2.063489e-02
     vertex -1.463848e-02  6.591949e-17  1.604941e-02
   endloop
 endfacet
 facet normal  0.000000e+00  1.000000e+00  0.000000e+00
   outer loop
     vertex  6.719574e-02  6.591949e-17  1.604941e-02
     vertex  6.719574e-02  6.591949e-17 -2.063489e-02
     vertex  2.345676e-02  6.591949e-17 -2.063489e-02
   endloop
 endfacet
 facet normal  1.000000e+00  0.000000e+00  0.000000e+00
   outer loop
     vertex  6.719574e-02 -1.587302e-02  1.604941e-02
     vertex  6.719574e-02 -1.587302e-02 -2.063489e-02
     vertex  6.719574e-02  0.000000e+00 -2.063489e-02
   endloop
 endfacet
 facet normal  1.000000e+00 -0.000000e+00  0.000000e+00
   outer loop
     vertex  6.719574e-02 -1.587302e-02  1.604941e-02
     vertex  6.719574e-02  0.000000e+00 -2.063489e-02
     vertex  6.719574e-02  0.000000e+00  1.604941e-02
   endloop
 endfacet
endsolid
