solid 
 facet normal -9.089034e-01 -4.170068e-01  0.000000e+00
   outer loop
     vertex -4.878066e-01  4.356620e-01 -1.587302e-02
     vertex -5.059965e-01  4.753087e-01  6.349212e-02
     vertex -5.059965e-01  4.753087e-01 -1.587302e-02
   endloop
 endfacet
 facet normal -9.089034e-01 -4.170068e-01  0.000000e+00
   outer loop
     vertex -4.878066e-01  4.356620e-01 -1.587302e-02
     vertex -4.878066e-01  4.356620e-01  6.349212e-02
     vertex -5.059965e-01  4.753087e-01  6.349212e-02
   endloop
 endfacet
 facet normal -8.673955e-01 -4.976194e-01  0.000000e+00
   outer loop
     vertex -4.661003e-01  3.978260e-01 -1.587302e-02
     vertex -4.661003e-01  3.978260e-01  6.349212e-02
     vertex -4.878066e-01  4.356620e-01  6.349212e-02
   endloop
 endfacet
 facet normal -8.673955e-01 -4.976194e-01  0.000000e+00
   outer loop
     vertex -4.661003e-01  3.978260e-01 -1.587302e-02
     vertex -4.878066e-01  4.356620e-01  6.349212e-02
     vertex -4.878066e-01  4.356620e-01 -1.587302e-02
   endloop
 endfacet
 facet normal -8.187565e-01 -5.741410e-01  0.000000e+00
   outer loop
     vertex -4.410561e-01  3.621116e-01 -1.587302e-02
     vertex -4.410561e-01  3.621116e-01  6.349212e-02
     vertex -4.661003e-01  3.978260e-01  6.349212e-02
   endloop
 endfacet
 facet normal -8.187565e-01 -5.741410e-01  0.000000e+00
   outer loop
     vertex -4.410561e-01  3.621116e-01 -1.587302e-02
     vertex -4.661003e-01  3.978260e-01  6.349212e-02
     vertex -4.661003e-01  3.978260e-01 -1.587302e-02
   endloop
 endfacet
 facet normal -7.633862e-01 -6.459423e-01  0.000000e+00
   outer loop
     vertex -4.128799e-01  3.288125e-01 -1.587302e-02
     vertex -4.128799e-01  3.288125e-01  6.349212e-02
     vertex -4.410561e-01  3.621116e-01  6.349212e-02
   endloop
 endfacet
 facet normal -7.633862e-01 -6.459423e-01  0.000000e+00
   outer loop
     vertex -4.128799e-01  3.288125e-01 -1.587302e-02
     vertex -4.410561e-01  3.621116e-01  6.349212e-02
     vertex -4.410561e-01  3.621116e-01 -1.587302e-02
   endloop
 endfacet
 facet normal -7.017399e-01 -7.124332e-01  0.000000e+00
   outer loop
     vertex -3.818034e-01  2.982024e-01 -1.587302e-02
     vertex -3.818034e-01  2.982024e-01  6.349212e-02
     vertex -4.128799e-01  3.288125e-01  6.349212e-02
   endloop
 endfacet
 facet normal -7.017399e-01 -7.124332e-01  0.000000e+00
   outer loop
     vertex -3.818034e-01  2.982024e-01 -1.587302e-02
     vertex -4.128799e-01  3.288125e-01  6.349212e-02
     vertex -4.128799e-01  3.288125e-01 -1.587302e-02
   endloop
 endfacet
 facet normal -6.343244e-01 -7.730670e-01  0.000000e+00
   outer loop
     vertex -3.480820e-01  2.705330e-01 -1.587302e-02
     vertex -3.480820e-01  2.705330e-01  6.349212e-02
     vertex -3.818034e-01  2.982024e-01  6.349212e-02
   endloop
 endfacet
 facet normal -6.343244e-01 -7.730670e-01  0.000000e+00
   outer loop
     vertex -3.480820e-01  2.705330e-01 -1.587302e-02
     vertex -3.818034e-01  2.982024e-01  6.349212e-02
     vertex -3.818034e-01  2.982024e-01 -1.587302e-02
   endloop
 endfacet
 facet normal -5.616939e-01 -8.273451e-01  0.000000e+00
   outer loop
     vertex -3.119929e-01  2.460318e-01 -1.587302e-02
     vertex -3.119929e-01  2.460318e-01  6.349212e-02
     vertex -3.480820e-01  2.705330e-01  6.349212e-02
   endloop
 endfacet
 facet normal -5.616939e-01 -8.273451e-01  0.000000e+00
   outer loop
     vertex -3.119929e-01  2.460318e-01 -1.587302e-02
     vertex -3.480820e-01  2.705330e-01  6.349212e-02
     vertex -3.480820e-01  2.705330e-01 -1.587302e-02
   endloop
 endfacet
 facet normal -1.000000e+00  0.000000e+00  0.000000e+00
   outer loop
     vertex -5.059965e-01  4.753087e-01 -1.587302e-02
     vertex -5.059965e-01  8.985891e-01  6.349212e-02
     vertex -5.059965e-01  8.985891e-01 -1.587302e-02
   endloop
 endfacet
 facet normal -1.000000e+00  0.000000e+00  0.000000e+00
   outer loop
     vertex -5.059965e-01  4.753087e-01 -1.587302e-02
     vertex -5.059965e-01  4.753087e-01  6.349212e-02
     vertex -5.059965e-01  8.985891e-01  6.349212e-02
   endloop
 endfacet
 facet normal -5.214501e-01 -8.532818e-01  0.000000e+00
   outer loop
     vertex  5.467385e-03  5.202818e-02 -1.587302e-02
     vertex -3.119929e-01  2.460318e-01  6.349212e-02
     vertex -3.119929e-01  2.460318e-01 -1.587302e-02
   endloop
 endfacet
 facet normal -5.214501e-01 -8.532818e-01  0.000000e+00
   outer loop
     vertex  5.467385e-03  5.202818e-02 -1.587302e-02
     vertex  5.467385e-03  5.202818e-02  6.349212e-02
     vertex -3.119929e-01  2.460318e-01  6.349212e-02
   endloop
 endfacet
 facet normal -9.089034e-01 -4.170068e-01  0.000000e+00
   outer loop
     vertex -4.878066e-01  4.356620e-01 -1.587302e-02
     vertex -5.059965e-01  4.753087e-01 -1.587302e-02
     vertex -5.059965e-01  4.753087e-01 -3.174603e-02
   endloop
 endfacet
 facet normal -9.089034e-01 -4.170068e-01 -0.000000e+00
   outer loop
     vertex -4.878066e-01  4.356620e-01 -1.587302e-02
     vertex -5.059965e-01  4.753087e-01 -3.174603e-02
     vertex -4.878066e-01  4.356620e-01 -3.174603e-02
   endloop
 endfacet
 facet normal -8.673955e-01 -4.976194e-01 -0.000000e+00
   outer loop
     vertex -4.661003e-01  3.978260e-01 -1.587302e-02
     vertex -4.878066e-01  4.356620e-01 -3.174603e-02
     vertex -4.661003e-01  3.978260e-01 -3.174603e-02
   endloop
 endfacet
 facet normal -8.673955e-01 -4.976194e-01  0.000000e+00
   outer loop
     vertex -4.661003e-01  3.978260e-01 -1.587302e-02
     vertex -4.878066e-01  4.356620e-01 -1.587302e-02
     vertex -4.878066e-01  4.356620e-01 -3.174603e-02
   endloop
 endfacet
 facet normal -8.187565e-01 -5.741410e-01 -0.000000e+00
   outer loop
     vertex -4.410561e-01  3.621116e-01 -1.587302e-02
     vertex -4.661003e-01  3.978260e-01 -3.174603e-02
     vertex -4.410561e-01  3.621116e-01 -3.174603e-02
   endloop
 endfacet
 facet normal -8.187565e-01 -5.741410e-01  0.000000e+00
   outer loop
     vertex -4.410561e-01  3.621116e-01 -1.587302e-02
     vertex -4.661003e-01  3.978260e-01 -1.587302e-02
     vertex -4.661003e-01  3.978260e-01 -3.174603e-02
   endloop
 endfacet
 facet normal -7.633862e-01 -6.459423e-01 -0.000000e+00
   outer loop
     vertex -4.128799e-01  3.288125e-01 -1.587302e-02
     vertex -4.410561e-01  3.621116e-01 -3.174603e-02
     vertex -4.128799e-01  3.288125e-01 -3.174603e-02
   endloop
 endfacet
 facet normal -7.633862e-01 -6.459423e-01  0.000000e+00
   outer loop
     vertex -4.128799e-01  3.288125e-01 -1.587302e-02
     vertex -4.410561e-01  3.621116e-01 -1.587302e-02
     vertex -4.410561e-01  3.621116e-01 -3.174603e-02
   endloop
 endfacet
 facet normal -7.017399e-01 -7.124332e-01 -0.000000e+00
   outer loop
     vertex -3.818034e-01  2.982024e-01 -1.587302e-02
     vertex -4.128799e-01  3.288125e-01 -3.174603e-02
     vertex -3.818034e-01  2.982024e-01 -3.174603e-02
   endloop
 endfacet
 facet normal -7.017399e-01 -7.124332e-01  0.000000e+00
   outer loop
     vertex -3.818034e-01  2.982024e-01 -1.587302e-02
     vertex -4.128799e-01  3.288125e-01 -1.587302e-02
     vertex -4.128799e-01  3.288125e-01 -3.174603e-02
   endloop
 endfacet
 facet normal -6.343244e-01 -7.730670e-01 -0.000000e+00
   outer loop
     vertex -3.480820e-01  2.705330e-01 -1.587302e-02
     vertex -3.818034e-01  2.982024e-01 -3.174603e-02
     vertex -3.480820e-01  2.705330e-01 -3.174603e-02
   endloop
 endfacet
 facet normal -6.343244e-01 -7.730670e-01  0.000000e+00
   outer loop
     vertex -3.480820e-01  2.705330e-01 -1.587302e-02
     vertex -3.818034e-01  2.982024e-01 -1.587302e-02
     vertex -3.818034e-01  2.982024e-01 -3.174603e-02
   endloop
 endfacet
 facet normal -5.616939e-01 -8.273451e-01 -0.000000e+00
   outer loop
     vertex -3.119929e-01  2.460318e-01 -1.587302e-02
     vertex -3.480820e-01  2.705330e-01 -3.174603e-02
     vertex -3.119929e-01  2.460318e-01 -3.174603e-02
   endloop
 endfacet
 facet normal -5.616939e-01 -8.273451e-01  0.000000e+00
   outer loop
     vertex -3.119929e-01  2.460318e-01 -1.587302e-02
     vertex -3.480820e-01  2.705330e-01 -1.587302e-02
     vertex -3.480820e-01  2.705330e-01 -3.174603e-02
   endloop
 endfacet
 facet normal  0.000000e+00  0.000000e+00  1.000000e+00
   outer loop
     vertex  2.103693e-01  1.541214e-01  6.349212e-02
     vertex  1.461622e-01  9.285323e-02  6.349212e-02
     vertex  1.699675e-01  1.106547e-01  6.349212e-02
   endloop
 endfacet
 facet normal  0.000000e+00  0.000000e+00  1.000000e+00
   outer loop
     vertex  2.103693e-01  1.541214e-01  6.349212e-02
     vertex  1.699675e-01  1.106547e-01  6.349212e-02
     vertex  1.914728e-01  1.311756e-01  6.349212e-02
   endloop
 endfacet
 facet normal  0.000000e+00  0.000000e+00  1.000000e+00
   outer loop
     vertex  2.263857e-01  1.791625e-01  6.349212e-02
     vertex  1.461622e-01  9.285323e-02  6.349212e-02
     vertex  2.103693e-01  1.541214e-01  6.349212e-02
   endloop
 endfacet
 facet normal  0.000000e+00  0.000000e+00  1.000000e+00
   outer loop
     vertex  2.489032e-01  2.340681e-01  6.349212e-02
     vertex  2.263857e-01  1.791625e-01  6.349212e-02
     vertex  2.392921e-01  2.059396e-01  6.349212e-02
   endloop
 endfacet
 facet normal  0.000000e+00  0.000000e+00  1.000000e+00
   outer loop
     vertex  2.550810e-01  2.631442e-01  6.349212e-02
     vertex  2.263857e-01  1.791625e-01  6.349212e-02
     vertex  2.489032e-01  2.340681e-01  6.349212e-02
   endloop
 endfacet
 facet normal  0.000000e+00  0.000000e+00  1.000000e+00
   outer loop
     vertex  2.523810e-01  3.518519e-01  6.349212e-02
     vertex -3.818034e-01  2.982024e-01  6.349212e-02
     vertex -3.480820e-01  2.705330e-01  6.349212e-02
   endloop
 endfacet
 facet normal  0.000000e+00  0.000000e+00  1.000000e+00
   outer loop
     vertex  2.523810e-01  3.518519e-01  6.349212e-02
     vertex -3.480820e-01  2.705330e-01  6.349212e-02
     vertex -3.119929e-01  2.460318e-01  6.349212e-02
   endloop
 endfacet
 facet normal  0.000000e+00  0.000000e+00  1.000000e+00
   outer loop
     vertex  2.523810e-01  3.518519e-01  6.349212e-02
     vertex -3.119929e-01  2.460318e-01  6.349212e-02
     vertex  5.467385e-03  5.202818e-02  6.349212e-02
   endloop
 endfacet
 facet normal  0.000000e+00  0.000000e+00  1.000000e+00
   outer loop
     vertex  2.523810e-01  3.518519e-01  6.349212e-02
     vertex  5.467385e-03  5.202818e-02  6.349212e-02
     vertex  3.516555e-02  5.329492e-02  6.349212e-02
   endloop
 endfacet
 facet normal  0.000000e+00  0.000000e+00  1.000000e+00
   outer loop
     vertex  2.523810e-01  3.518519e-01  6.349212e-02
     vertex  3.516555e-02  5.329492e-02  6.349212e-02
     vertex  6.449901e-02  5.810461e-02  6.349212e-02
   endloop
 endfacet
 facet normal  0.000000e+00  0.000000e+00  1.000000e+00
   outer loop
     vertex  2.523810e-01  3.518519e-01  6.349212e-02
     vertex  6.449901e-02  5.810461e-02  6.349212e-02
     vertex  9.304665e-02  6.638821e-02  6.349212e-02
   endloop
 endfacet
 facet normal  0.000000e+00  0.000000e+00  1.000000e+00
   outer loop
     vertex  2.523810e-01  3.518519e-01  6.349212e-02
     vertex  9.304665e-02  6.638821e-02  6.349212e-02
     vertex  1.203986e-01  7.802678e-02  6.349212e-02
   endloop
 endfacet
 facet normal  0.000000e+00  0.000000e+00  1.000000e+00
   outer loop
     vertex  2.523810e-01  3.518519e-01  6.349212e-02
     vertex  1.203986e-01  7.802678e-02  6.349212e-02
     vertex  1.461622e-01  9.285323e-02  6.349212e-02
   endloop
 endfacet
 facet normal  0.000000e+00  0.000000e+00  1.000000e+00
   outer loop
     vertex  2.523810e-01  3.518519e-01  6.349212e-02
     vertex  2.550810e-01  2.631442e-01  6.349212e-02
     vertex  2.577368e-01  2.927505e-01  6.349212e-02
   endloop
 endfacet
 facet normal  0.000000e+00  0.000000e+00  1.000000e+00
   outer loop
     vertex  2.523810e-01  3.518519e-01  6.349212e-02
     vertex  2.577368e-01  2.927505e-01  6.349212e-02
     vertex  2.568324e-01  3.224619e-01  6.349212e-02
   endloop
 endfacet
 facet normal  0.000000e+00  0.000000e+00  1.000000e+00
   outer loop
     vertex  2.523810e-01  3.518519e-01  6.349212e-02
     vertex  1.461622e-01  9.285323e-02  6.349212e-02
     vertex  2.263857e-01  1.791625e-01  6.349212e-02
   endloop
 endfacet
 facet normal  0.000000e+00  0.000000e+00  1.000000e+00
   outer loop
     vertex  2.523810e-01  3.518519e-01  6.349212e-02
     vertex  2.263857e-01  1.791625e-01  6.349212e-02
     vertex  2.550810e-01  2.631442e-01  6.349212e-02
   endloop
 endfacet
 facet normal  0.000000e+00  0.000000e+00  1.000000e+00
   outer loop
     vertex  2.523810e-01  8.985891e-01  6.349212e-02
     vertex -5.059965e-01  4.753087e-01  6.349212e-02
     vertex -4.878066e-01  4.356620e-01  6.349212e-02
   endloop
 endfacet
 facet normal  0.000000e+00  0.000000e+00  1.000000e+00
   outer loop
     vertex  2.523810e-01  8.985891e-01  6.349212e-02
     vertex -4.878066e-01  4.356620e-01  6.349212e-02
     vertex -4.661003e-01  3.978260e-01  6.349212e-02
   endloop
 endfacet
 facet normal  0.000000e+00  0.000000e+00  1.000000e+00
   outer loop
     vertex  2.523810e-01  8.985891e-01  6.349212e-02
     vertex -4.661003e-01  3.978260e-01  6.349212e-02
     vertex -4.410561e-01  3.621116e-01  6.349212e-02
   endloop
 endfacet
 facet normal  0.000000e+00  0.000000e+00  1.000000e+00
   outer loop
     vertex  2.523810e-01  8.985891e-01  6.349212e-02
     vertex -4.410561e-01  3.621116e-01  6.349212e-02
     vertex -4.128799e-01  3.288125e-01  6.349212e-02
   endloop
 endfacet
 facet normal  0.000000e+00  0.000000e+00  1.000000e+00
   outer loop
     vertex  2.523810e-01  8.985891e-01  6.349212e-02
     vertex -4.128799e-01  3.288125e-01  6.349212e-02
     vertex -3.818034e-01  2.982024e-01  6.349212e-02
   endloop
 endfacet
 facet normal  0.000000e+00  0.000000e+00  1.000000e+00
   outer loop
     vertex  2.523810e-01  8.985891e-01  6.349212e-02
     vertex -5.059965e-01  8.985891e-01  6.349212e-02
     vertex -5.059965e-01  4.753087e-01  6.349212e-02
   endloop
 endfacet
 facet normal  0.000000e+00  0.000000e+00  1.000000e+00
   outer loop
     vertex  2.523810e-01  8.985891e-01  6.349212e-02
     vertex -3.818034e-01  2.982024e-01  6.349212e-02
     vertex  2.523810e-01  3.518519e-01  6.349212e-02
   endloop
 endfacet
 facet normal  0.000000e+00  1.000000e+00  0.000000e+00
   outer loop
     vertex -5.059965e-01  8.985891e-01 -1.587302e-02
     vertex  2.523810e-01  8.985891e-01  6.349212e-02
     vertex  2.523810e-01  8.985891e-01 -1.587302e-02
   endloop
 endfacet
 facet normal  0.000000e+00  1.000000e+00  0.000000e+00
   outer loop
     vertex -5.059965e-01  8.985891e-01 -1.587302e-02
     vertex -5.059965e-01  8.985891e-01  6.349212e-02
     vertex  2.523810e-01  8.985891e-01  6.349212e-02
   endloop
 endfacet
 facet normal -1.000000e+00  0.000000e+00  0.000000e+00
   outer loop
     vertex -5.059965e-01  4.753087e-01 -1.587302e-02
     vertex -5.059965e-01  8.985891e-01 -1.587302e-02
     vertex -5.059965e-01  8.985891e-01 -3.174603e-02
   endloop
 endfacet
 facet normal -1.000000e+00  0.000000e+00  0.000000e+00
   outer loop
     vertex -5.059965e-01  4.753087e-01 -1.587302e-02
     vertex -5.059965e-01  8.985891e-01 -3.174603e-02
     vertex -5.059965e-01  4.753087e-01 -3.174603e-02
   endloop
 endfacet
 facet normal  4.261498e-02 -9.990916e-01  0.000000e+00
   outer loop
     vertex  3.516555e-02  5.329492e-02 -1.587302e-02
     vertex  5.467385e-03  5.202818e-02  6.349212e-02
     vertex  5.467385e-03  5.202818e-02 -1.587302e-02
   endloop
 endfacet
 facet normal  4.261498e-02 -9.990916e-01  0.000000e+00
   outer loop
     vertex  3.516555e-02  5.329492e-02 -1.587302e-02
     vertex  3.516555e-02  5.329492e-02  6.349212e-02
     vertex  5.467385e-03  5.202818e-02  6.349212e-02
   endloop
 endfacet
 facet normal  1.618054e-01 -9.868227e-01  0.000000e+00
   outer loop
     vertex  6.449901e-02  5.810461e-02 -1.587302e-02
     vertex  6.449901e-02  5.810461e-02  6.349212e-02
     vertex  3.516555e-02  5.329492e-02  6.349212e-02
   endloop
 endfacet
 facet normal  1.618054e-01 -9.868227e-01  0.000000e+00
   outer loop
     vertex  6.449901e-02  5.810461e-02 -1.587302e-02
     vertex  3.516555e-02  5.329492e-02  6.349212e-02
     vertex  3.516555e-02  5.329492e-02 -1.587302e-02
   endloop
 endfacet
 facet normal  2.786728e-01 -9.603861e-01  0.000000e+00
   outer loop
     vertex  9.304665e-02  6.638821e-02 -1.587302e-02
     vertex  9.304665e-02  6.638821e-02  6.349212e-02
     vertex  6.449901e-02  5.810461e-02  6.349212e-02
   endloop
 endfacet
 facet normal  2.786728e-01 -9.603861e-01  0.000000e+00
   outer loop
     vertex  9.304665e-02  6.638821e-02 -1.587302e-02
     vertex  6.449901e-02  5.810461e-02  6.349212e-02
     vertex  6.449901e-02  5.810461e-02 -1.587302e-02
   endloop
 endfacet
 facet normal  3.915394e-01 -9.201614e-01  0.000000e+00
   outer loop
     vertex  1.203986e-01  7.802678e-02 -1.587302e-02
     vertex  1.203986e-01  7.802678e-02  6.349212e-02
     vertex  9.304665e-02  6.638821e-02  6.349212e-02
   endloop
 endfacet
 facet normal  3.915394e-01 -9.201614e-01  0.000000e+00
   outer loop
     vertex  1.203986e-01  7.802678e-02 -1.587302e-02
     vertex  9.304665e-02  6.638821e-02  6.349212e-02
     vertex  9.304665e-02  6.638821e-02 -1.587302e-02
   endloop
 endfacet
 facet normal  4.987846e-01 -8.667260e-01  0.000000e+00
   outer loop
     vertex  1.461622e-01  9.285323e-02 -1.587302e-02
     vertex  1.461622e-01  9.285323e-02  6.349212e-02
     vertex  1.203986e-01  7.802678e-02  6.349212e-02
   endloop
 endfacet
 facet normal  4.987846e-01 -8.667260e-01  0.000000e+00
   outer loop
     vertex  1.461622e-01  9.285323e-02 -1.587302e-02
     vertex  1.203986e-01  7.802678e-02  6.349212e-02
     vertex  1.203986e-01  7.802678e-02 -1.587302e-02
   endloop
 endfacet
 facet normal  5.988689e-01 -8.008471e-01  0.000000e+00
   outer loop
     vertex  1.699675e-01  1.106547e-01 -1.587302e-02
     vertex  1.699675e-01  1.106547e-01  6.349212e-02
     vertex  1.461622e-01  9.285323e-02  6.349212e-02
   endloop
 endfacet
 facet normal  5.988689e-01 -8.008471e-01  0.000000e+00
   outer loop
     vertex  1.699675e-01  1.106547e-01 -1.587302e-02
     vertex  1.461622e-01  9.285323e-02  6.349212e-02
     vertex  1.461622e-01  9.285323e-02 -1.587302e-02
   endloop
 endfacet
 facet normal  6.903553e-01 -7.234705e-01  0.000000e+00
   outer loop
     vertex  1.914728e-01  1.311756e-01 -1.587302e-02
     vertex  1.914728e-01  1.311756e-01  6.349212e-02
     vertex  1.699675e-01  1.106547e-01  6.349212e-02
   endloop
 endfacet
 facet normal  6.903553e-01 -7.234705e-01  0.000000e+00
   outer loop
     vertex  1.914728e-01  1.311756e-01 -1.587302e-02
     vertex  1.699675e-01  1.106547e-01  6.349212e-02
     vertex  1.699675e-01  1.106547e-01 -1.587302e-02
   endloop
 endfacet
 facet normal  7.719303e-01 -6.357072e-01  0.000000e+00
   outer loop
     vertex  2.103693e-01  1.541214e-01 -1.587302e-02
     vertex  2.103693e-01  1.541214e-01  6.349212e-02
     vertex  1.914728e-01  1.311756e-01  6.349212e-02
   endloop
 endfacet
 facet normal  7.719303e-01 -6.357072e-01  0.000000e+00
   outer loop
     vertex  2.103693e-01  1.541214e-01 -1.587302e-02
     vertex  1.914728e-01  1.311756e-01  6.349212e-02
     vertex  1.914728e-01  1.311756e-01 -1.587302e-02
   endloop
 endfacet
 facet normal  8.424228e-01 -5.388171e-01  0.000000e+00
   outer loop
     vertex  2.263857e-01  1.791625e-01 -1.587302e-02
     vertex  2.263857e-01  1.791625e-01  6.349212e-02
     vertex  2.103693e-01  1.541214e-01  6.349212e-02
   endloop
 endfacet
 facet normal  8.424228e-01 -5.388171e-01  0.000000e+00
   outer loop
     vertex  2.263857e-01  1.791625e-01 -1.587302e-02
     vertex  2.103693e-01  1.541214e-01  6.349212e-02
     vertex  2.103693e-01  1.541214e-01 -1.587302e-02
   endloop
 endfacet
 facet normal  9.008207e-01 -4.341913e-01  0.000000e+00
   outer loop
     vertex  2.392921e-01  2.059396e-01 -1.587302e-02
     vertex  2.392921e-01  2.059396e-01  6.349212e-02
     vertex  2.263857e-01  1.791625e-01  6.349212e-02
   endloop
 endfacet
 facet normal  9.008207e-01 -4.341913e-01  0.000000e+00
   outer loop
     vertex  2.392921e-01  2.059396e-01 -1.587302e-02
     vertex  2.263857e-01  1.791625e-01  6.349212e-02
     vertex  2.263857e-01  1.791625e-01 -1.587302e-02
   endloop
 endfacet
 facet normal  9.462857e-01 -3.233318e-01  0.000000e+00
   outer loop
     vertex  2.489032e-01  2.340681e-01 -1.587302e-02
     vertex  2.489032e-01  2.340681e-01  6.349212e-02
     vertex  2.392921e-01  2.059396e-01  6.349212e-02
   endloop
 endfacet
 facet normal  9.462857e-01 -3.233318e-01  0.000000e+00
   outer loop
     vertex  2.489032e-01  2.340681e-01 -1.587302e-02
     vertex  2.392921e-01  2.059396e-01  6.349212e-02
     vertex  2.392921e-01  2.059396e-01 -1.587302e-02
   endloop
 endfacet
 facet normal  9.781649e-01 -2.078303e-01  0.000000e+00
   outer loop
     vertex  2.550810e-01  2.631442e-01 -1.587302e-02
     vertex  2.550810e-01  2.631442e-01  6.349212e-02
     vertex  2.489032e-01  2.340681e-01  6.349212e-02
   endloop
 endfacet
 facet normal  9.781649e-01 -2.078303e-01  0.000000e+00
   outer loop
     vertex  2.550810e-01  2.631442e-01 -1.587302e-02
     vertex  2.489032e-01  2.340681e-01  6.349212e-02
     vertex  2.489032e-01  2.340681e-01 -1.587302e-02
   endloop
 endfacet
 facet normal  9.960007e-01 -8.934496e-02  0.000000e+00
   outer loop
     vertex  2.577368e-01  2.927505e-01 -1.587302e-02
     vertex  2.577368e-01  2.927505e-01  6.349212e-02
     vertex  2.550810e-01  2.631442e-01  6.349212e-02
   endloop
 endfacet
 facet normal  9.960007e-01 -8.934496e-02  0.000000e+00
   outer loop
     vertex  2.577368e-01  2.927505e-01 -1.587302e-02
     vertex  2.550810e-01  2.631442e-01  6.349212e-02
     vertex  2.550810e-01  2.631442e-01 -1.587302e-02
   endloop
 endfacet
 facet normal  9.995371e-01  3.042307e-02 -0.000000e+00
   outer loop
     vertex  2.568324e-01  3.224619e-01 -1.587302e-02
     vertex  2.568324e-01  3.224619e-01  6.349212e-02
     vertex  2.577368e-01  2.927505e-01  6.349212e-02
   endloop
 endfacet
 facet normal  9.995371e-01  3.042307e-02  0.000000e+00
   outer loop
     vertex  2.568324e-01  3.224619e-01 -1.587302e-02
     vertex  2.577368e-01  2.927505e-01  6.349212e-02
     vertex  2.577368e-01  2.927505e-01 -1.587302e-02
   endloop
 endfacet
 facet normal  9.887232e-01  1.497543e-01 -0.000000e+00
   outer loop
     vertex  2.523810e-01  3.518519e-01 -1.587302e-02
     vertex  2.523810e-01  3.518519e-01  6.349212e-02
     vertex  2.568324e-01  3.224619e-01  6.349212e-02
   endloop
 endfacet
 facet normal  9.887232e-01  1.497543e-01  0.000000e+00
   outer loop
     vertex  2.523810e-01  3.518519e-01 -1.587302e-02
     vertex  2.568324e-01  3.224619e-01  6.349212e-02
     vertex  2.568324e-01  3.224619e-01 -1.587302e-02
   endloop
 endfacet
 facet normal -5.214501e-01 -8.532818e-01  0.000000e+00
   outer loop
     vertex  5.467385e-03  5.202818e-02 -1.587302e-02
     vertex -3.119929e-01  2.460318e-01 -1.587302e-02
     vertex -3.119929e-01  2.460318e-01 -3.174603e-02
   endloop
 endfacet
 facet normal -5.214501e-01 -8.532818e-01 -0.000000e+00
   outer loop
     vertex  5.467385e-03  5.202818e-02 -1.587302e-02
     vertex -3.119929e-01  2.460318e-01 -3.174603e-02
     vertex  5.467385e-03  5.202818e-02 -3.174603e-02
   endloop
 endfacet
 facet normal  0.000000e+00  0.000000e+00 -1.000000e+00
   outer loop
     vertex  2.103693e-01  1.541214e-01 -3.174603e-02
     vertex  1.699675e-01  1.106547e-01 -3.174603e-02
     vertex  1.461622e-01  9.285323e-02 -3.174603e-02
   endloop
 endfacet
 facet normal  0.000000e+00  0.000000e+00 -1.000000e+00
   outer loop
     vertex  2.103693e-01  1.541214e-01 -3.174603e-02
     vertex  1.914728e-01  1.311756e-01 -3.174603e-02
     vertex  1.699675e-01  1.106547e-01 -3.174603e-02
   endloop
 endfacet
 facet normal  0.000000e+00  0.000000e+00 -1.000000e+00
   outer loop
     vertex  2.263857e-01  1.791625e-01 -3.174603e-02
     vertex  2.103693e-01  1.541214e-01 -3.174603e-02
     vertex  1.461622e-01  9.285323e-02 -3.174603e-02
   endloop
 endfacet
 facet normal  0.000000e+00  0.000000e+00 -1.000000e+00
   outer loop
     vertex  2.489032e-01  2.340681e-01 -3.174603e-02
     vertex  2.392921e-01  2.059396e-01 -3.174603e-02
     vertex  2.263857e-01  1.791625e-01 -3.174603e-02
   endloop
 endfacet
 facet normal  0.000000e+00  0.000000e+00 -1.000000e+00
   outer loop
     vertex  2.550810e-01  2.631442e-01 -3.174603e-02
     vertex  2.489032e-01  2.340681e-01 -3.174603e-02
     vertex  2.263857e-01  1.791625e-01 -3.174603e-02
   endloop
 endfacet
 facet normal  0.000000e+00  0.000000e+00 -1.000000e+00
   outer loop
     vertex  2.523810e-01  3.518519e-01 -3.174603e-02
     vertex -3.480820e-01  2.705330e-01 -3.174603e-02
     vertex -3.818034e-01  2.982024e-01 -3.174603e-02
   endloop
 endfacet
 facet normal  0.000000e+00  0.000000e+00 -1.000000e+00
   outer loop
     vertex  2.523810e-01  3.518519e-01 -3.174603e-02
     vertex -3.119929e-01  2.460318e-01 -3.174603e-02
     vertex -3.480820e-01  2.705330e-01 -3.174603e-02
   endloop
 endfacet
 facet normal  0.000000e+00  0.000000e+00 -1.000000e+00
   outer loop
     vertex  2.523810e-01  3.518519e-01 -3.174603e-02
     vertex  5.467385e-03  5.202818e-02 -3.174603e-02
     vertex -3.119929e-01  2.460318e-01 -3.174603e-02
   endloop
 endfacet
 facet normal  0.000000e+00  0.000000e+00 -1.000000e+00
   outer loop
     vertex  2.523810e-01  3.518519e-01 -3.174603e-02
     vertex  3.516555e-02  5.329492e-02 -3.174603e-02
     vertex  5.467385e-03  5.202818e-02 -3.174603e-02
   endloop
 endfacet
 facet normal  0.000000e+00  0.000000e+00 -1.000000e+00
   outer loop
     vertex  2.523810e-01  3.518519e-01 -3.174603e-02
     vertex  6.449901e-02  5.810461e-02 -3.174603e-02
     vertex  3.516555e-02  5.329492e-02 -3.174603e-02
   endloop
 endfacet
 facet normal  0.000000e+00  0.000000e+00 -1.000000e+00
   outer loop
     vertex  2.523810e-01  3.518519e-01 -3.174603e-02
     vertex  9.304665e-02  6.638821e-02 -3.174603e-02
     vertex  6.449901e-02  5.810461e-02 -3.174603e-02
   endloop
 endfacet
 facet normal  0.000000e+00  0.000000e+00 -1.000000e+00
   outer loop
     vertex  2.523810e-01  3.518519e-01 -3.174603e-02
     vertex  1.203986e-01  7.802678e-02 -3.174603e-02
     vertex  9.304665e-02  6.638821e-02 -3.174603e-02
   endloop
 endfacet
 facet normal  0.000000e+00  0.000000e+00 -1.000000e+00
   outer loop
     vertex  2.523810e-01  3.518519e-01 -3.174603e-02
     vertex  1.461622e-01  9.285323e-02 -3.174603e-02
     vertex  1.203986e-01  7.802678e-02 -3.174603e-02
   endloop
 endfacet
 facet normal  0.000000e+00  0.000000e+00 -1.000000e+00
   outer loop
     vertex  2.523810e-01  3.518519e-01 -3.174603e-02
     vertex  2.577368e-01  2.927505e-01 -3.174603e-02
     vertex  2.550810e-01  2.631442e-01 -3.174603e-02
   endloop
 endfacet
 facet normal  0.000000e+00  0.000000e+00 -1.000000e+00
   outer loop
     vertex  2.523810e-01  3.518519e-01 -3.174603e-02
     vertex  2.568324e-01  3.224619e-01 -3.174603e-02
     vertex  2.577368e-01  2.927505e-01 -3.174603e-02
   endloop
 endfacet
 facet normal  0.000000e+00  0.000000e+00 -1.000000e+00
   outer loop
     vertex  2.523810e-01  3.518519e-01 -3.174603e-02
     vertex  2.263857e-01  1.791625e-01 -3.174603e-02
     vertex  1.461622e-01  9.285323e-02 -3.174603e-02
   endloop
 endfacet
 facet normal  0.000000e+00 -0.000000e+00 -1.000000e+00
   outer loop
     vertex  2.523810e-01  3.518519e-01 -3.174603e-02
     vertex  2.550810e-01  2.631442e-01 -3.174603e-02
     vertex  2.263857e-01  1.791625e-01 -3.174603e-02
   endloop
 endfacet
 facet normal  0.000000e+00  0.000000e+00 -1.000000e+00
   outer loop
     vertex  2.523810e-01  8.985891e-01 -3.174603e-02
     vertex -4.878066e-01  4.356620e-01 -3.174603e-02
     vertex -5.059965e-01  4.753087e-01 -3.174603e-02
   endloop
 endfacet
 facet normal  0.000000e+00  0.000000e+00 -1.000000e+00
   outer loop
     vertex  2.523810e-01  8.985891e-01 -3.174603e-02
     vertex -4.661003e-01  3.978260e-01 -3.174603e-02
     vertex -4.878066e-01  4.356620e-01 -3.174603e-02
   endloop
 endfacet
 facet normal  0.000000e+00  0.000000e+00 -1.000000e+00
   outer loop
     vertex  2.523810e-01  8.985891e-01 -3.174603e-02
     vertex -4.410561e-01  3.621116e-01 -3.174603e-02
     vertex -4.661003e-01  3.978260e-01 -3.174603e-02
   endloop
 endfacet
 facet normal  0.000000e+00  0.000000e+00 -1.000000e+00
   outer loop
     vertex  2.523810e-01  8.985891e-01 -3.174603e-02
     vertex -4.128799e-01  3.288125e-01 -3.174603e-02
     vertex -4.410561e-01  3.621116e-01 -3.174603e-02
   endloop
 endfacet
 facet normal  0.000000e+00  0.000000e+00 -1.000000e+00
   outer loop
     vertex  2.523810e-01  8.985891e-01 -3.174603e-02
     vertex -3.818034e-01  2.982024e-01 -3.174603e-02
     vertex -4.128799e-01  3.288125e-01 -3.174603e-02
   endloop
 endfacet
 facet normal -0.000000e+00  0.000000e+00 -1.000000e+00
   outer loop
     vertex  2.523810e-01  8.985891e-01 -3.174603e-02
     vertex -5.059965e-01  4.753087e-01 -3.174603e-02
     vertex -5.059965e-01  8.985891e-01 -3.174603e-02
   endloop
 endfacet
 facet normal  0.000000e+00 -0.000000e+00 -1.000000e+00
   outer loop
     vertex  2.523810e-01  8.985891e-01 -3.174603e-02
     vertex  2.523810e-01  3.518519e-01 -3.174603e-02
     vertex -3.818034e-01  2.982024e-01 -3.174603e-02
   endloop
 endfacet
 facet normal  1.000000e+00  0.000000e+00  0.000000e+00
   outer loop
     vertex  2.523810e-01  8.985891e-01 -1.587302e-02
     vertex  2.523810e-01  3.518519e-01  6.349212e-02
     vertex  2.523810e-01  3.518519e-01 -1.587302e-02
   endloop
 endfacet
 facet normal  1.000000e+00  0.000000e+00 -0.000000e+00
   outer loop
     vertex  2.523810e-01  8.985891e-01 -1.587302e-02
     vertex  2.523810e-01  8.985891e-01  6.349212e-02
     vertex  2.523810e-01  3.518519e-01  6.349212e-02
   endloop
 endfacet
 facet normal -0.000000e+00  1.000000e+00  0.000000e+00
   outer loop
     vertex -5.059965e-01  8.985891e-01 -1.587302e-02
     vertex  2.523810e-01  8.985891e-01 -1.587302e-02
     vertex  2.523810e-01  8.985891e-01 -3.174603e-02
   endloop
 endfacet
 facet normal  0.000000e+00  1.000000e+00  0.000000e+00
   outer loop
     vertex -5.059965e-01  8.985891e-01 -1.587302e-02
     vertex  2.523810e-01  8.985891e-01 -3.174603e-02
     vertex -5.059965e-01  8.985891e-01 -3.174603e-02
   endloop
 endfacet
 facet normal  4.261498e-02 -9.990916e-01  0.000000e+00
   outer loop
     vertex  3.516555e-02  5.329492e-02 -1.587302e-02
     vertex  5.467385e-03  5.202818e-02 -1.587302e-02
     vertex  5.467385e-03  5.202818e-02 -3.174603e-02
   endloop
 endfacet
 facet normal  4.261498e-02 -9.990916e-01  0.000000e+00
   outer loop
     vertex  3.516555e-02  5.329492e-02 -1.587302e-02
     vertex  5.467385e-03  5.202818e-02 -3.174603e-02
     vertex  3.516555e-02  5.329492e-02 -3.174603e-02
   endloop
 endfacet
 facet normal  1.618054e-01 -9.868227e-01  0.000000e+00
   outer loop
     vertex  6.449901e-02  5.810461e-02 -1.587302e-02
     vertex  3.516555e-02  5.329492e-02 -3.174603e-02
     vertex  6.449901e-02  5.810461e-02 -3.174603e-02
   endloop
 endfacet
 facet normal  1.618054e-01 -9.868227e-01  0.000000e+00
   outer loop
     vertex  6.449901e-02  5.810461e-02 -1.587302e-02
     vertex  3.516555e-02  5.329492e-02 -1.587302e-02
     vertex  3.516555e-02  5.329492e-02 -3.174603e-02
   endloop
 endfacet
 facet normal  2.786728e-01 -9.603861e-01  0.000000e+00
   outer loop
     vertex  9.304665e-02  6.638821e-02 -1.587302e-02
     vertex  6.449901e-02  5.810461e-02 -3.174603e-02
     vertex  9.304665e-02  6.638821e-02 -3.174603e-02
   endloop
 endfacet
 facet normal  2.786728e-01 -9.603861e-01  0.000000e+00
   outer loop
     vertex  9.304665e-02  6.638821e-02 -1.587302e-02
     vertex  6.449901e-02  5.810461e-02 -1.587302e-02
     vertex  6.449901e-02  5.810461e-02 -3.174603e-02
   endloop
 endfacet
 facet normal  3.915394e-01 -9.201614e-01  0.000000e+00
   outer loop
     vertex  1.203986e-01  7.802678e-02 -1.587302e-02
     vertex  9.304665e-02  6.638821e-02 -3.174603e-02
     vertex  1.203986e-01  7.802678e-02 -3.174603e-02
   endloop
 endfacet
 facet normal  3.915394e-01 -9.201614e-01  0.000000e+00
   outer loop
     vertex  1.203986e-01  7.802678e-02 -1.587302e-02
     vertex  9.304665e-02  6.638821e-02 -1.587302e-02
     vertex  9.304665e-02  6.638821e-02 -3.174603e-02
   endloop
 endfacet
 facet normal  4.987846e-01 -8.667260e-01  0.000000e+00
   outer loop
     vertex  1.461622e-01  9.285323e-02 -1.587302e-02
     vertex  1.203986e-01  7.802678e-02 -3.174603e-02
     vertex  1.461622e-01  9.285323e-02 -3.174603e-02
   endloop
 endfacet
 facet normal  4.987846e-01 -8.667260e-01  0.000000e+00
   outer loop
     vertex  1.461622e-01  9.285323e-02 -1.587302e-02
     vertex  1.203986e-01  7.802678e-02 -1.587302e-02
     vertex  1.203986e-01  7.802678e-02 -3.174603e-02
   endloop
 endfacet
 facet normal  5.988689e-01 -8.008471e-01  0.000000e+00
   outer loop
     vertex  1.699675e-01  1.106547e-01 -1.587302e-02
     vertex  1.461622e-01  9.285323e-02 -3.174603e-02
     vertex  1.699675e-01  1.106547e-01 -3.174603e-02
   endloop
 endfacet
 facet normal  5.988689e-01 -8.008471e-01  0.000000e+00
   outer loop
     vertex  1.699675e-01  1.106547e-01 -1.587302e-02
     vertex  1.461622e-01  9.285323e-02 -1.587302e-02
     vertex  1.461622e-01  9.285323e-02 -3.174603e-02
   endloop
 endfacet
 facet normal  6.903553e-01 -7.234705e-01  0.000000e+00
   outer loop
     vertex  1.914728e-01  1.311756e-01 -1.587302e-02
     vertex  1.699675e-01  1.106547e-01 -3.174603e-02
     vertex  1.914728e-01  1.311756e-01 -3.174603e-02
   endloop
 endfacet
 facet normal  6.903553e-01 -7.234705e-01  0.000000e+00
   outer loop
     vertex  1.914728e-01  1.311756e-01 -1.587302e-02
     vertex  1.699675e-01  1.106547e-01 -1.587302e-02
     vertex  1.699675e-01  1.106547e-01 -3.174603e-02
   endloop
 endfacet
 facet normal  7.719303e-01 -6.357072e-01  0.000000e+00
   outer loop
     vertex  2.103693e-01  1.541214e-01 -1.587302e-02
     vertex  1.914728e-01  1.311756e-01 -3.174603e-02
     vertex  2.103693e-01  1.541214e-01 -3.174603e-02
   endloop
 endfacet
 facet normal  7.719303e-01 -6.357072e-01  0.000000e+00
   outer loop
     vertex  2.103693e-01  1.541214e-01 -1.587302e-02
     vertex  1.914728e-01  1.311756e-01 -1.587302e-02
     vertex  1.914728e-01  1.311756e-01 -3.174603e-02
   endloop
 endfacet
 facet normal  8.424228e-01 -5.388171e-01  0.000000e+00
   outer loop
     vertex  2.263857e-01  1.791625e-01 -1.587302e-02
     vertex  2.103693e-01  1.541214e-01 -3.174603e-02
     vertex  2.263857e-01  1.791625e-01 -3.174603e-02
   endloop
 endfacet
 facet normal  8.424228e-01 -5.388171e-01  0.000000e+00
   outer loop
     vertex  2.263857e-01  1.791625e-01 -1.587302e-02
     vertex  2.103693e-01  1.541214e-01 -1.587302e-02
     vertex  2.103693e-01  1.541214e-01 -3.174603e-02
   endloop
 endfacet
 facet normal  9.008207e-01 -4.341913e-01  0.000000e+00
   outer loop
     vertex  2.392921e-01  2.059396e-01 -1.587302e-02
     vertex  2.263857e-01  1.791625e-01 -3.174603e-02
     vertex  2.392921e-01  2.059396e-01 -3.174603e-02
   endloop
 endfacet
 facet normal  9.008207e-01 -4.341913e-01  0.000000e+00
   outer loop
     vertex  2.392921e-01  2.059396e-01 -1.587302e-02
     vertex  2.263857e-01  1.791625e-01 -1.587302e-02
     vertex  2.263857e-01  1.791625e-01 -3.174603e-02
   endloop
 endfacet
 facet normal  9.462857e-01 -3.233318e-01  0.000000e+00
   outer loop
     vertex  2.489032e-01  2.340681e-01 -1.587302e-02
     vertex  2.392921e-01  2.059396e-01 -3.174603e-02
     vertex  2.489032e-01  2.340681e-01 -3.174603e-02
   endloop
 endfacet
 facet normal  9.462857e-01 -3.233318e-01  0.000000e+00
   outer loop
     vertex  2.489032e-01  2.340681e-01 -1.587302e-02
     vertex  2.392921e-01  2.059396e-01 -1.587302e-02
     vertex  2.392921e-01  2.059396e-01 -3.174603e-02
   endloop
 endfacet
 facet normal  9.781649e-01 -2.078303e-01  0.000000e+00
   outer loop
     vertex  2.550810e-01  2.631442e-01 -1.587302e-02
     vertex  2.489032e-01  2.340681e-01 -3.174603e-02
     vertex  2.550810e-01  2.631442e-01 -3.174603e-02
   endloop
 endfacet
 facet normal  9.781649e-01 -2.078303e-01  0.000000e+00
   outer loop
     vertex  2.550810e-01  2.631442e-01 -1.587302e-02
     vertex  2.489032e-01  2.340681e-01 -1.587302e-02
     vertex  2.489032e-01  2.340681e-01 -3.174603e-02
   endloop
 endfacet
 facet normal  9.960007e-01 -8.934496e-02  0.000000e+00
   outer loop
     vertex  2.577368e-01  2.927505e-01 -1.587302e-02
     vertex  2.550810e-01  2.631442e-01 -3.174603e-02
     vertex  2.577368e-01  2.927505e-01 -3.174603e-02
   endloop
 endfacet
 facet normal  9.960007e-01 -8.934496e-02  0.000000e+00
   outer loop
     vertex  2.577368e-01  2.927505e-01 -1.587302e-02
     vertex  2.550810e-01  2.631442e-01 -1.587302e-02
     vertex  2.550810e-01  2.631442e-01 -3.174603e-02
   endloop
 endfacet
 facet normal  9.995371e-01  3.042307e-02  0.000000e+00
   outer loop
     vertex  2.568324e-01  3.224619e-01 -1.587302e-02
     vertex  2.577368e-01  2.927505e-01 -3.174603e-02
     vertex  2.568324e-01  3.224619e-01 -3.174603e-02
   endloop
 endfacet
 facet normal  9.995371e-01  3.042307e-02  0.000000e+00
   outer loop
     vertex  2.568324e-01  3.224619e-01 -1.587302e-02
     vertex  2.577368e-01  2.927505e-01 -1.587302e-02
     vertex  2.577368e-01  2.927505e-01 -3.174603e-02
   endloop
 endfacet
 facet normal  9.887232e-01  1.497543e-01  0.000000e+00
   outer loop
     vertex  2.523810e-01  3.518519e-01 -1.587302e-02
     vertex  2.568324e-01  3.224619e-01 -3.174603e-02
     vertex  2.523810e-01  3.518519e-01 -3.174603e-02
   endloop
 endfacet
 facet normal  9.887232e-01  1.497543e-01  0.000000e+00
   outer loop
     vertex  2.523810e-01  3.518519e-01 -1.587302e-02
     vertex  2.568324e-01  3.224619e-01 -1.587302e-02
     vertex  2.568324e-01  3.224619e-01 -3.174603e-02
   endloop
 endfacet
 facet normal  1.000000e+00  0.000000e+00  0.000000e+00
   outer loop
     vertex  2.523810e-01  8.985891e-01 -1.587302e-02
     vertex  2.523810e-01  3.518519e-01 -1.587302e-02
     vertex  2.523810e-01  3.518519e-01 -3.174603e-02
   endloop
 endfacet
 facet normal  1.000000e+00  0.000000e+00  0.000000e+00
   outer loop
     vertex  2.523810e-01  8.985891e-01 -1.587302e-02
     vertex  2.523810e-01  3.518519e-01 -3.174603e-02
     vertex  2.523810e-01  8.985891e-01 -3.174603e-02
   endloop
 endfacet
endsolid
