solid 
 facet normal -0.000000e+00  0.000000e+00 -1.000000e+00
   outer loop
     vertex -4.121693e-01 -1.587302e-02 -3.846562e-01
     vertex -4.820106e-01 -3.174609e-02 -3.846562e-01
     vertex -4.820106e-01 -1.587302e-02 -3.846562e-01
   endloop
 endfacet
 facet normal  0.000000e+00 -0.000000e+00 -1.000000e+00
   outer loop
     vertex -4.121693e-01 -1.587302e-02 -3.846562e-01
     vertex -4.121693e-01 -3.174609e-02 -3.846562e-01
     vertex -4.820106e-01 -3.174609e-02 -3.846562e-01
   endloop
 endfacet
 facet normal -1.000000e+00  0.000000e+00  0.000000e+00
   outer loop
     vertex -4.820106e-01 -1.587302e-02 -3.846562e-01
     vertex -4.820106e-01 -3.174609e-02  8.724867e-01
     vertex -4.820106e-01 -1.587302e-02  8.724867e-01
   endloop
 endfacet
 facet normal -1.000000e+00  0.000000e+00  0.000000e+00
   outer loop
     vertex -4.820106e-01 -1.587302e-02 -3.846562e-01
     vertex -4.820106e-01 -3.174609e-02 -3.846562e-01
     vertex -4.820106e-01 -3.174609e-02  8.724867e-01
   endloop
 endfacet
 facet normal -1.000000e+00  0.000000e+00  0.000000e+00
   outer loop
     vertex -4.121693e-01 -1.587302e-02 -4.079366e-01
     vertex -4.121693e-01 -3.174609e-02 -3.846562e-01
     vertex -4.121693e-01 -1.587302e-02 -3.846562e-01
   endloop
 endfacet
 facet normal -1.000000e+00  0.000000e+00  0.000000e+00
   outer loop
     vertex -4.121693e-01 -1.587302e-02 -4.079366e-01
     vertex -4.121693e-01 -3.174609e-02 -4.079366e-01
     vertex -4.121693e-01 -3.174609e-02 -3.846562e-01
   endloop
 endfacet
 facet normal  0.000000e+00  0.000000e+00 -1.000000e+00
   outer loop
     vertex -4.121693e-01 -1.587302e-02 -3.846562e-01
     vertex -4.820106e-01 -1.587302e-02 -3.846562e-01
     vertex -4.820106e-01  0.000000e+00 -3.846562e-01
   endloop
 endfacet
 facet normal  0.000000e+00  0.000000e+00 -1.000000e+00
   outer loop
     vertex -4.121693e-01 -1.587302e-02 -3.846562e-01
     vertex -4.820106e-01  0.000000e+00 -3.846562e-01
     vertex -4.121693e-01  0.000000e+00 -3.846562e-01
   endloop
 endfacet
 facet normal  0.000000e+00 -1.000000e+00 -0.000000e+00
   outer loop
     vertex -4.121693e-01 -3.174609e-02  8.724867e-01
     vertex -4.820106e-01 -3.174609e-02 -3.846562e-01
     vertex -4.121693e-01 -3.174609e-02 -3.846562e-01
   endloop
 endfacet
 facet normal -0.000000e+00 -1.000000e+00  0.000000e+00
   outer loop
     vertex -4.121693e-01 -3.174609e-02  8.724867e-01
     vertex -4.820106e-01 -3.174609e-02  8.724867e-01
     vertex -4.820106e-01 -3.174609e-02 -3.846562e-01
   endloop
 endfacet
 facet normal  0.000000e+00 -1.000000e+00 -0.000000e+00
   outer loop
     vertex -3.656085e-01 -3.174609e-02  8.724867e-01
     vertex -4.121693e-01 -3.174609e-02 -3.846562e-01
     vertex -3.656085e-01 -3.174609e-02 -3.846562e-01
   endloop
 endfacet
 facet normal -0.000000e+00 -1.000000e+00  0.000000e+00
   outer loop
     vertex -3.656085e-01 -3.174609e-02  8.724867e-01
     vertex -4.121693e-01 -3.174609e-02  8.724867e-01
     vertex -4.121693e-01 -3.174609e-02 -3.846562e-01
   endloop
 endfacet
 facet normal  0.000000e+00 -1.000000e+00 -0.000000e+00
   outer loop
     vertex -3.423281e-01 -3.174609e-02  8.724867e-01
     vertex -3.656085e-01 -3.174609e-02 -3.846562e-01
     vertex -3.423281e-01 -3.174609e-02 -3.846562e-01
   endloop
 endfacet
 facet normal -0.000000e+00 -1.000000e+00  0.000000e+00
   outer loop
     vertex -3.423281e-01 -3.174609e-02  8.724867e-01
     vertex -3.656085e-01 -3.174609e-02  8.724867e-01
     vertex -3.656085e-01 -3.174609e-02 -3.846562e-01
   endloop
 endfacet
 facet normal  0.000000e+00 -1.000000e+00 -0.000000e+00
   outer loop
     vertex  3.015874e-02 -3.174609e-02  8.724867e-01
     vertex -3.423281e-01 -3.174609e-02 -3.846562e-01
     vertex  3.015874e-02 -3.174609e-02 -3.846562e-01
   endloop
 endfacet
 facet normal -0.000000e+00 -1.000000e+00  0.000000e+00
   outer loop
     vertex  3.015874e-02 -3.174609e-02  8.724867e-01
     vertex -3.423281e-01 -3.174609e-02  8.724867e-01
     vertex -3.423281e-01 -3.174609e-02 -3.846562e-01
   endloop
 endfacet
 facet normal  0.000000e+00 -1.000000e+00 -0.000000e+00
   outer loop
     vertex  5.343917e-02 -3.174609e-02  8.724867e-01
     vertex  3.015874e-02 -3.174609e-02 -3.846562e-01
     vertex  5.343917e-02 -3.174609e-02 -3.846562e-01
   endloop
 endfacet
 facet normal -0.000000e+00 -1.000000e+00  0.000000e+00
   outer loop
     vertex  5.343917e-02 -3.174609e-02  8.724867e-01
     vertex  3.015874e-02 -3.174609e-02  8.724867e-01
     vertex  3.015874e-02 -3.174609e-02 -3.846562e-01
   endloop
 endfacet
 facet normal  0.000000e+00 -1.000000e+00 -0.000000e+00
   outer loop
     vertex  1.000000e-01 -3.174609e-02  8.724867e-01
     vertex  5.343917e-02 -3.174609e-02 -3.846562e-01
     vertex  1.000000e-01 -3.174609e-02 -3.846562e-01
   endloop
 endfacet
 facet normal -0.000000e+00 -1.000000e+00  0.000000e+00
   outer loop
     vertex  1.000000e-01 -3.174609e-02  8.724867e-01
     vertex  5.343917e-02 -3.174609e-02  8.724867e-01
     vertex  5.343917e-02 -3.174609e-02 -3.846562e-01
   endloop
 endfacet
 facet normal  0.000000e+00 -1.000000e+00 -0.000000e+00
   outer loop
     vertex  1.698413e-01 -3.174609e-02  8.724867e-01
     vertex  1.000000e-01 -3.174609e-02 -3.846562e-01
     vertex  1.698413e-01 -3.174609e-02 -3.846562e-01
   endloop
 endfacet
 facet normal -0.000000e+00 -1.000000e+00  0.000000e+00
   outer loop
     vertex  1.698413e-01 -3.174609e-02  8.724867e-01
     vertex  1.000000e-01 -3.174609e-02  8.724867e-01
     vertex  1.000000e-01 -3.174609e-02 -3.846562e-01
   endloop
 endfacet
 facet normal -0.000000e+00  0.000000e+00  1.000000e+00
   outer loop
     vertex -4.820106e-01 -1.587302e-02  8.724867e-01
     vertex -4.121693e-01 -3.174609e-02  8.724867e-01
     vertex -4.121693e-01 -1.587302e-02  8.724867e-01
   endloop
 endfacet
 facet normal  0.000000e+00  0.000000e+00  1.000000e+00
   outer loop
     vertex -4.820106e-01 -1.587302e-02  8.724867e-01
     vertex -4.820106e-01 -3.174609e-02  8.724867e-01
     vertex -4.121693e-01 -3.174609e-02  8.724867e-01
   endloop
 endfacet
 facet normal -1.000000e+00  0.000000e+00  0.000000e+00
   outer loop
     vertex -4.820106e-01 -1.587302e-02 -3.846562e-01
     vertex -4.820106e-01 -1.587302e-02  8.724867e-01
     vertex -4.820106e-01  0.000000e+00  8.724867e-01
   endloop
 endfacet
 facet normal -1.000000e+00  0.000000e+00  0.000000e+00
   outer loop
     vertex -4.820106e-01 -1.587302e-02 -3.846562e-01
     vertex -4.820106e-01  0.000000e+00  8.724867e-01
     vertex -4.820106e-01  0.000000e+00 -3.846562e-01
   endloop
 endfacet
 facet normal -0.000000e+00  0.000000e+00 -1.000000e+00
   outer loop
     vertex -3.656085e-01 -1.587302e-02 -4.079366e-01
     vertex -4.121693e-01 -3.174609e-02 -4.079366e-01
     vertex -4.121693e-01 -1.587302e-02 -4.079366e-01
   endloop
 endfacet
 facet normal  0.000000e+00 -0.000000e+00 -1.000000e+00
   outer loop
     vertex -3.656085e-01 -1.587302e-02 -4.079366e-01
     vertex -3.656085e-01 -3.174609e-02 -4.079366e-01
     vertex -4.121693e-01 -3.174609e-02 -4.079366e-01
   endloop
 endfacet
 facet normal -1.000000e+00  0.000000e+00  0.000000e+00
   outer loop
     vertex -4.121693e-01 -1.587302e-02 -4.079366e-01
     vertex -4.121693e-01 -1.587302e-02 -3.846562e-01
     vertex -4.121693e-01  0.000000e+00 -3.846562e-01
   endloop
 endfacet
 facet normal -1.000000e+00  0.000000e+00  0.000000e+00
   outer loop
     vertex -4.121693e-01 -1.587302e-02 -4.079366e-01
     vertex -4.121693e-01  0.000000e+00 -3.846562e-01
     vertex -4.121693e-01  0.000000e+00 -4.079366e-01
   endloop
 endfacet
 facet normal  0.000000e+00 -1.000000e+00 -0.000000e+00
   outer loop
     vertex -3.656085e-01 -3.174609e-02 -3.846562e-01
     vertex -4.121693e-01 -3.174609e-02 -4.079366e-01
     vertex -3.656085e-01 -3.174609e-02 -4.079366e-01
   endloop
 endfacet
 facet normal -0.000000e+00 -1.000000e+00  0.000000e+00
   outer loop
     vertex -3.656085e-01 -3.174609e-02 -3.846562e-01
     vertex -4.121693e-01 -3.174609e-02 -3.846562e-01
     vertex -4.121693e-01 -3.174609e-02 -4.079366e-01
   endloop
 endfacet
 facet normal  0.000000e+00  1.000000e+00  0.000000e+00
   outer loop
     vertex -4.121693e-01 -3.469447e-18  8.724867e-01
     vertex -4.121693e-01 -3.469447e-18 -3.846562e-01
     vertex -4.820106e-01 -3.469447e-18 -3.846562e-01
   endloop
 endfacet
 facet normal  0.000000e+00  1.000000e+00  0.000000e+00
   outer loop
     vertex -4.121693e-01 -3.469447e-18  8.724867e-01
     vertex -4.820106e-01 -3.469447e-18 -3.846562e-01
     vertex -4.820106e-01 -3.469447e-18  8.724867e-01
   endloop
 endfacet
 facet normal  0.000000e+00  1.000000e+00  0.000000e+00
   outer loop
     vertex -3.656085e-01 -3.469447e-18  8.724867e-01
     vertex -3.656085e-01 -3.469447e-18 -3.846562e-01
     vertex -4.121693e-01 -3.469447e-18 -3.846562e-01
   endloop
 endfacet
 facet normal  0.000000e+00  1.000000e+00  0.000000e+00
   outer loop
     vertex -3.656085e-01 -3.469447e-18  8.724867e-01
     vertex -4.121693e-01 -3.469447e-18 -3.846562e-01
     vertex -4.121693e-01 -3.469447e-18  8.724867e-01
   endloop
 endfacet
 facet normal  0.000000e+00  1.000000e+00  0.000000e+00
   outer loop
     vertex -3.423281e-01 -3.469447e-18  8.724867e-01
     vertex -3.423281e-01 -3.469447e-18 -3.846562e-01
     vertex -3.656085e-01 -3.469447e-18 -3.846562e-01
   endloop
 endfacet
 facet normal  0.000000e+00  1.000000e+00  0.000000e+00
   outer loop
     vertex -3.423281e-01 -3.469447e-18  8.724867e-01
     vertex -3.656085e-01 -3.469447e-18 -3.846562e-01
     vertex -3.656085e-01 -3.469447e-18  8.724867e-01
   endloop
 endfacet
 facet normal  0.000000e+00  1.000000e+00  0.000000e+00
   outer loop
     vertex  3.015874e-02 -3.469447e-18  8.724867e-01
     vertex  3.015874e-02 -3.469447e-18 -3.846562e-01
     vertex -3.423281e-01 -3.469447e-18 -3.846562e-01
   endloop
 endfacet
 facet normal  0.000000e+00  1.000000e+00  0.000000e+00
   outer loop
     vertex  3.015874e-02 -3.469447e-18  8.724867e-01
     vertex -3.423281e-01 -3.469447e-18 -3.846562e-01
     vertex -3.423281e-01 -3.469447e-18  8.724867e-01
   endloop
 endfacet
 facet normal  0.000000e+00  1.000000e+00  0.000000e+00
   outer loop
     vertex  5.343917e-02 -3.469447e-18  8.724867e-01
     vertex  5.343917e-02 -3.469447e-18 -3.846562e-01
     vertex  3.015874e-02 -3.469447e-18 -3.846562e-01
   endloop
 endfacet
 facet normal  0.000000e+00  1.000000e+00  0.000000e+00
   outer loop
     vertex  5.343917e-02 -3.469447e-18  8.724867e-01
     vertex  3.015874e-02 -3.469447e-18 -3.846562e-01
     vertex  3.015874e-02 -3.469447e-18  8.724867e-01
   endloop
 endfacet
 facet normal  0.000000e+00  1.000000e+00  0.000000e+00
   outer loop
     vertex  1.000000e-01 -3.469447e-18  8.724867e-01
     vertex  1.000000e-01 -3.469447e-18 -3.846562e-01
     vertex  5.343917e-02 -3.469447e-18 -3.846562e-01
   endloop
 endfacet
 facet normal  0.000000e+00  1.000000e+00  0.000000e+00
   outer loop
     vertex  1.000000e-01 -3.469447e-18  8.724867e-01
     vertex  5.343917e-02 -3.469447e-18 -3.846562e-01
     vertex  5.343917e-02 -3.469447e-18  8.724867e-01
   endloop
 endfacet
 facet normal  0.000000e+00  1.000000e+00  0.000000e+00
   outer loop
     vertex  1.698413e-01 -3.469447e-18  8.724867e-01
     vertex  1.698413e-01 -3.469447e-18 -3.846562e-01
     vertex  1.000000e-01 -3.469447e-18 -3.846562e-01
   endloop
 endfacet
 facet normal  0.000000e+00  1.000000e+00  0.000000e+00
   outer loop
     vertex  1.698413e-01 -3.469447e-18  8.724867e-01
     vertex  1.000000e-01 -3.469447e-18 -3.846562e-01
     vertex  1.000000e-01 -3.469447e-18  8.724867e-01
   endloop
 endfacet
 facet normal -0.000000e+00  0.000000e+00 -1.000000e+00
   outer loop
     vertex -3.423281e-01 -1.587302e-02 -3.846562e-01
     vertex -3.656085e-01 -3.174609e-02 -3.846562e-01
     vertex -3.656085e-01 -1.587302e-02 -3.846562e-01
   endloop
 endfacet
 facet normal  0.000000e+00 -0.000000e+00 -1.000000e+00
   outer loop
     vertex -3.423281e-01 -1.587302e-02 -3.846562e-01
     vertex -3.423281e-01 -3.174609e-02 -3.846562e-01
     vertex -3.656085e-01 -3.174609e-02 -3.846562e-01
   endloop
 endfacet
 facet normal -0.000000e+00  0.000000e+00 -1.000000e+00
   outer loop
     vertex  3.015874e-02 -1.587302e-02 -3.846562e-01
     vertex -3.423281e-01 -3.174609e-02 -3.846562e-01
     vertex -3.423281e-01 -1.587302e-02 -3.846562e-01
   endloop
 endfacet
 facet normal  0.000000e+00 -0.000000e+00 -1.000000e+00
   outer loop
     vertex  3.015874e-02 -1.587302e-02 -3.846562e-01
     vertex  3.015874e-02 -3.174609e-02 -3.846562e-01
     vertex -3.423281e-01 -3.174609e-02 -3.846562e-01
   endloop
 endfacet
 facet normal -0.000000e+00  0.000000e+00 -1.000000e+00
   outer loop
     vertex  5.343917e-02 -1.587302e-02 -3.846562e-01
     vertex  3.015874e-02 -3.174609e-02 -3.846562e-01
     vertex  3.015874e-02 -1.587302e-02 -3.846562e-01
   endloop
 endfacet
 facet normal  0.000000e+00 -0.000000e+00 -1.000000e+00
   outer loop
     vertex  5.343917e-02 -1.587302e-02 -3.846562e-01
     vertex  5.343917e-02 -3.174609e-02 -3.846562e-01
     vertex  3.015874e-02 -3.174609e-02 -3.846562e-01
   endloop
 endfacet
 facet normal  0.000000e+00 -1.000000e+00 -0.000000e+00
   outer loop
     vertex  1.000000e-01 -3.174609e-02 -3.846562e-01
     vertex  5.343917e-02 -3.174609e-02 -4.079366e-01
     vertex  1.000000e-01 -3.174609e-02 -4.079366e-01
   endloop
 endfacet
 facet normal -0.000000e+00 -1.000000e+00  0.000000e+00
   outer loop
     vertex  1.000000e-01 -3.174609e-02 -3.846562e-01
     vertex  5.343917e-02 -3.174609e-02 -3.846562e-01
     vertex  5.343917e-02 -3.174609e-02 -4.079366e-01
   endloop
 endfacet
 facet normal -0.000000e+00  0.000000e+00 -1.000000e+00
   outer loop
     vertex  1.698413e-01 -1.587302e-02 -3.846562e-01
     vertex  1.000000e-01 -3.174609e-02 -3.846562e-01
     vertex  1.000000e-01 -1.587302e-02 -3.846562e-01
   endloop
 endfacet
 facet normal  0.000000e+00 -0.000000e+00 -1.000000e+00
   outer loop
     vertex  1.698413e-01 -1.587302e-02 -3.846562e-01
     vertex  1.698413e-01 -3.174609e-02 -3.846562e-01
     vertex  1.000000e-01 -3.174609e-02 -3.846562e-01
   endloop
 endfacet
 facet normal  1.000000e+00  0.000000e+00  0.000000e+00
   outer loop
     vertex  1.698413e-01 -1.587302e-02  8.724867e-01
     vertex  1.698413e-01 -3.174609e-02 -3.846562e-01
     vertex  1.698413e-01 -1.587302e-02 -3.846562e-01
   endloop
 endfacet
 facet normal  1.000000e+00  0.000000e+00  0.000000e+00
   outer loop
     vertex  1.698413e-01 -1.587302e-02  8.724867e-01
     vertex  1.698413e-01 -3.174609e-02  8.724867e-01
     vertex  1.698413e-01 -3.174609e-02 -3.846562e-01
   endloop
 endfacet
 facet normal -0.000000e+00  0.000000e+00  1.000000e+00
   outer loop
     vertex  1.000000e-01 -1.587302e-02  8.724867e-01
     vertex  1.698413e-01 -3.174609e-02  8.724867e-01
     vertex  1.698413e-01 -1.587302e-02  8.724867e-01
   endloop
 endfacet
 facet normal  0.000000e+00  0.000000e+00  1.000000e+00
   outer loop
     vertex  1.000000e-01 -1.587302e-02  8.724867e-01
     vertex  1.000000e-01 -3.174609e-02  8.724867e-01
     vertex  1.698413e-01 -3.174609e-02  8.724867e-01
   endloop
 endfacet
 facet normal  0.000000e+00 -1.000000e+00 -0.000000e+00
   outer loop
     vertex  1.000000e-01 -3.174609e-02  8.957671e-01
     vertex  5.343917e-02 -3.174609e-02  8.724867e-01
     vertex  1.000000e-01 -3.174609e-02  8.724867e-01
   endloop
 endfacet
 facet normal -0.000000e+00 -1.000000e+00  0.000000e+00
   outer loop
     vertex  1.000000e-01 -3.174609e-02  8.957671e-01
     vertex  5.343917e-02 -3.174609e-02  8.957671e-01
     vertex  5.343917e-02 -3.174609e-02  8.724867e-01
   endloop
 endfacet
 facet normal -0.000000e+00  0.000000e+00  1.000000e+00
   outer loop
     vertex  3.015874e-02 -1.587302e-02  8.724867e-01
     vertex  5.343917e-02 -3.174609e-02  8.724867e-01
     vertex  5.343917e-02 -1.587302e-02  8.724867e-01
   endloop
 endfacet
 facet normal  0.000000e+00  0.000000e+00  1.000000e+00
   outer loop
     vertex  3.015874e-02 -1.587302e-02  8.724867e-01
     vertex  3.015874e-02 -3.174609e-02  8.724867e-01
     vertex  5.343917e-02 -3.174609e-02  8.724867e-01
   endloop
 endfacet
 facet normal -0.000000e+00  0.000000e+00  1.000000e+00
   outer loop
     vertex -3.423281e-01 -1.587302e-02  8.724867e-01
     vertex  3.015874e-02 -3.174609e-02  8.724867e-01
     vertex  3.015874e-02 -1.587302e-02  8.724867e-01
   endloop
 endfacet
 facet normal  0.000000e+00  0.000000e+00  1.000000e+00
   outer loop
     vertex -3.423281e-01 -1.587302e-02  8.724867e-01
     vertex -3.423281e-01 -3.174609e-02  8.724867e-01
     vertex  3.015874e-02 -3.174609e-02  8.724867e-01
   endloop
 endfacet
 facet normal -0.000000e+00  0.000000e+00  1.000000e+00
   outer loop
     vertex -3.656085e-01 -1.587302e-02  8.724867e-01
     vertex -3.423281e-01 -3.174609e-02  8.724867e-01
     vertex -3.423281e-01 -1.587302e-02  8.724867e-01
   endloop
 endfacet
 facet normal  0.000000e+00  0.000000e+00  1.000000e+00
   outer loop
     vertex -3.656085e-01 -1.587302e-02  8.724867e-01
     vertex -3.656085e-01 -3.174609e-02  8.724867e-01
     vertex -3.423281e-01 -3.174609e-02  8.724867e-01
   endloop
 endfacet
 facet normal  0.000000e+00 -1.000000e+00 -0.000000e+00
   outer loop
     vertex -3.656085e-01 -3.174609e-02  8.957671e-01
     vertex -4.121693e-01 -3.174609e-02  8.724867e-01
     vertex -3.656085e-01 -3.174609e-02  8.724867e-01
   endloop
 endfacet
 facet normal -0.000000e+00 -1.000000e+00  0.000000e+00
   outer loop
     vertex -3.656085e-01 -3.174609e-02  8.957671e-01
     vertex -4.121693e-01 -3.174609e-02  8.957671e-01
     vertex -4.121693e-01 -3.174609e-02  8.724867e-01
   endloop
 endfacet
 facet normal -1.000000e+00  0.000000e+00  0.000000e+00
   outer loop
     vertex -4.121693e-01 -1.587302e-02  8.724867e-01
     vertex -4.121693e-01 -3.174609e-02  8.957671e-01
     vertex -4.121693e-01 -1.587302e-02  8.957671e-01
   endloop
 endfacet
 facet normal -1.000000e+00  0.000000e+00  0.000000e+00
   outer loop
     vertex -4.121693e-01 -1.587302e-02  8.724867e-01
     vertex -4.121693e-01 -3.174609e-02  8.724867e-01
     vertex -4.121693e-01 -3.174609e-02  8.957671e-01
   endloop
 endfacet
 facet normal  0.000000e+00  0.000000e+00  1.000000e+00
   outer loop
     vertex -4.820106e-01 -1.587302e-02  8.724867e-01
     vertex -4.121693e-01 -1.587302e-02  8.724867e-01
     vertex -4.121693e-01  0.000000e+00  8.724867e-01
   endloop
 endfacet
 facet normal  0.000000e+00  0.000000e+00  1.000000e+00
   outer loop
     vertex -4.820106e-01 -1.587302e-02  8.724867e-01
     vertex -4.121693e-01  0.000000e+00  8.724867e-01
     vertex -4.820106e-01  0.000000e+00  8.724867e-01
   endloop
 endfacet
 facet normal  1.000000e+00  0.000000e+00  0.000000e+00
   outer loop
     vertex -3.656085e-01 -1.587302e-02 -3.846562e-01
     vertex -3.656085e-01 -3.174609e-02 -4.079366e-01
     vertex -3.656085e-01 -1.587302e-02 -4.079366e-01
   endloop
 endfacet
 facet normal  1.000000e+00  0.000000e+00  0.000000e+00
   outer loop
     vertex -3.656085e-01 -1.587302e-02 -3.846562e-01
     vertex -3.656085e-01 -3.174609e-02 -3.846562e-01
     vertex -3.656085e-01 -3.174609e-02 -4.079366e-01
   endloop
 endfacet
 facet normal  0.000000e+00  0.000000e+00 -1.000000e+00
   outer loop
     vertex -3.656085e-01 -1.587302e-02 -4.079366e-01
     vertex -4.121693e-01 -1.587302e-02 -4.079366e-01
     vertex -4.121693e-01  0.000000e+00 -4.079366e-01
   endloop
 endfacet
 facet normal  0.000000e+00  0.000000e+00 -1.000000e+00
   outer loop
     vertex -3.656085e-01 -1.587302e-02 -4.079366e-01
     vertex -4.121693e-01  0.000000e+00 -4.079366e-01
     vertex -3.656085e-01  0.000000e+00 -4.079366e-01
   endloop
 endfacet
 facet normal  0.000000e+00  1.000000e+00  0.000000e+00
   outer loop
     vertex -3.656085e-01 -3.469447e-18 -3.846562e-01
     vertex -3.656085e-01 -3.469447e-18 -4.079366e-01
     vertex -4.121693e-01 -3.469447e-18 -4.079366e-01
   endloop
 endfacet
 facet normal  0.000000e+00  1.000000e+00  0.000000e+00
   outer loop
     vertex -3.656085e-01 -3.469447e-18 -3.846562e-01
     vertex -4.121693e-01 -3.469447e-18 -4.079366e-01
     vertex -4.121693e-01 -3.469447e-18 -3.846562e-01
   endloop
 endfacet
 facet normal  0.000000e+00  0.000000e+00 -1.000000e+00
   outer loop
     vertex -3.423281e-01 -1.587302e-02 -3.846562e-01
     vertex -3.656085e-01 -1.587302e-02 -3.846562e-01
     vertex -3.656085e-01  0.000000e+00 -3.846562e-01
   endloop
 endfacet
 facet normal  0.000000e+00  0.000000e+00 -1.000000e+00
   outer loop
     vertex -3.423281e-01 -1.587302e-02 -3.846562e-01
     vertex -3.656085e-01  0.000000e+00 -3.846562e-01
     vertex -3.423281e-01  0.000000e+00 -3.846562e-01
   endloop
 endfacet
 facet normal  0.000000e+00  0.000000e+00 -1.000000e+00
   outer loop
     vertex  3.015874e-02 -1.587302e-02 -3.846562e-01
     vertex -3.423281e-01 -1.587302e-02 -3.846562e-01
     vertex -3.423281e-01  0.000000e+00 -3.846562e-01
   endloop
 endfacet
 facet normal  0.000000e+00  0.000000e+00 -1.000000e+00
   outer loop
     vertex  3.015874e-02 -1.587302e-02 -3.846562e-01
     vertex -3.423281e-01  0.000000e+00 -3.846562e-01
     vertex  3.015874e-02  0.000000e+00 -3.846562e-01
   endloop
 endfacet
 facet normal  0.000000e+00  0.000000e+00 -1.000000e+00
   outer loop
     vertex  5.343917e-02 -1.587302e-02 -3.846562e-01
     vertex  3.015874e-02 -1.587302e-02 -3.846562e-01
     vertex  3.015874e-02  0.000000e+00 -3.846562e-01
   endloop
 endfacet
 facet normal  0.000000e+00  0.000000e+00 -1.000000e+00
   outer loop
     vertex  5.343917e-02 -1.587302e-02 -3.846562e-01
     vertex  3.015874e-02  0.000000e+00 -3.846562e-01
     vertex  5.343917e-02  0.000000e+00 -3.846562e-01
   endloop
 endfacet
 facet normal  0.000000e+00  1.000000e+00  0.000000e+00
   outer loop
     vertex  1.000000e-01 -3.469447e-18 -3.846562e-01
     vertex  1.000000e-01 -3.469447e-18 -4.079366e-01
     vertex  5.343917e-02 -3.469447e-18 -4.079366e-01
   endloop
 endfacet
 facet normal  0.000000e+00  1.000000e+00  0.000000e+00
   outer loop
     vertex  1.000000e-01 -3.469447e-18 -3.846562e-01
     vertex  5.343917e-02 -3.469447e-18 -4.079366e-01
     vertex  5.343917e-02 -3.469447e-18 -3.846562e-01
   endloop
 endfacet
 facet normal  0.000000e+00  0.000000e+00 -1.000000e+00
   outer loop
     vertex  1.698413e-01 -1.587302e-02 -3.846562e-01
     vertex  1.000000e-01 -1.587302e-02 -3.846562e-01
     vertex  1.000000e-01  0.000000e+00 -3.846562e-01
   endloop
 endfacet
 facet normal  0.000000e+00  0.000000e+00 -1.000000e+00
   outer loop
     vertex  1.698413e-01 -1.587302e-02 -3.846562e-01
     vertex  1.000000e-01  0.000000e+00 -3.846562e-01
     vertex  1.698413e-01  0.000000e+00 -3.846562e-01
   endloop
 endfacet
 facet normal  1.000000e+00  0.000000e+00  0.000000e+00
   outer loop
     vertex  1.698413e-01 -1.587302e-02  8.724867e-01
     vertex  1.698413e-01 -1.587302e-02 -3.846562e-01
     vertex  1.698413e-01  0.000000e+00 -3.846562e-01
   endloop
 endfacet
 facet normal  1.000000e+00 -0.000000e+00  0.000000e+00
   outer loop
     vertex  1.698413e-01 -1.587302e-02  8.724867e-01
     vertex  1.698413e-01  0.000000e+00 -3.846562e-01
     vertex  1.698413e-01  0.000000e+00  8.724867e-01
   endloop
 endfacet
 facet normal  0.000000e+00  0.000000e+00  1.000000e+00
   outer loop
     vertex  1.000000e-01 -1.587302e-02  8.724867e-01
     vertex  1.698413e-01 -1.587302e-02  8.724867e-01
     vertex  1.698413e-01  0.000000e+00  8.724867e-01
   endloop
 endfacet
 facet normal  0.000000e+00  0.000000e+00  1.000000e+00
   outer loop
     vertex  1.000000e-01 -1.587302e-02  8.724867e-01
     vertex  1.698413e-01  0.000000e+00  8.724867e-01
     vertex  1.000000e-01  0.000000e+00  8.724867e-01
   endloop
 endfacet
 facet normal  0.000000e+00  1.000000e+00  0.000000e+00
   outer loop
     vertex  1.000000e-01 -3.469447e-18  8.957671e-01
     vertex  1.000000e-01 -3.469447e-18  8.724867e-01
     vertex  5.343917e-02 -3.469447e-18  8.724867e-01
   endloop
 endfacet
 facet normal  0.000000e+00  1.000000e+00  0.000000e+00
   outer loop
     vertex  1.000000e-01 -3.469447e-18  8.957671e-01
     vertex  5.343917e-02 -3.469447e-18  8.724867e-01
     vertex  5.343917e-02 -3.469447e-18  8.957671e-01
   endloop
 endfacet
 facet normal  0.000000e+00  0.000000e+00  1.000000e+00
   outer loop
     vertex  3.015874e-02 -1.587302e-02  8.724867e-01
     vertex  5.343917e-02 -1.587302e-02  8.724867e-01
     vertex  5.343917e-02  0.000000e+00  8.724867e-01
   endloop
 endfacet
 facet normal  0.000000e+00  0.000000e+00  1.000000e+00
   outer loop
     vertex  3.015874e-02 -1.587302e-02  8.724867e-01
     vertex  5.343917e-02  0.000000e+00  8.724867e-01
     vertex  3.015874e-02  0.000000e+00  8.724867e-01
   endloop
 endfacet
 facet normal  0.000000e+00  0.000000e+00  1.000000e+00
   outer loop
     vertex -3.423281e-01 -1.587302e-02  8.724867e-01
     vertex  3.015874e-02 -1.587302e-02  8.724867e-01
     vertex  3.015874e-02  0.000000e+00  8.724867e-01
   endloop
 endfacet
 facet normal  0.000000e+00  0.000000e+00  1.000000e+00
   outer loop
     vertex -3.423281e-01 -1.587302e-02  8.724867e-01
     vertex  3.015874e-02  0.000000e+00  8.724867e-01
     vertex -3.423281e-01  0.000000e+00  8.724867e-01
   endloop
 endfacet
 facet normal  0.000000e+00  0.000000e+00  1.000000e+00
   outer loop
     vertex -3.656085e-01 -1.587302e-02  8.724867e-01
     vertex -3.423281e-01 -1.587302e-02  8.724867e-01
     vertex -3.423281e-01  0.000000e+00  8.724867e-01
   endloop
 endfacet
 facet normal  0.000000e+00  0.000000e+00  1.000000e+00
   outer loop
     vertex -3.656085e-01 -1.587302e-02  8.724867e-01
     vertex -3.423281e-01  0.000000e+00  8.724867e-01
     vertex -3.656085e-01  0.000000e+00  8.724867e-01
   endloop
 endfacet
 facet normal  0.000000e+00  1.000000e+00  0.000000e+00
   outer loop
     vertex -3.656085e-01 -3.469447e-18  8.957671e-01
     vertex -3.656085e-01 -3.469447e-18  8.724867e-01
     vertex -4.121693e-01 -3.469447e-18  8.724867e-01
   endloop
 endfacet
 facet normal  0.000000e+00  1.000000e+00  0.000000e+00
   outer loop
     vertex -3.656085e-01 -3.469447e-18  8.957671e-01
     vertex -4.121693e-01 -3.469447e-18  8.724867e-01
     vertex -4.121693e-01 -3.469447e-18  8.957671e-01
   endloop
 endfacet
 facet normal -1.000000e+00  0.000000e+00  0.000000e+00
   outer loop
     vertex  5.343917e-02 -1.587302e-02 -4.079366e-01
     vertex  5.343917e-02 -3.174609e-02 -3.846562e-01
     vertex  5.343917e-02 -1.587302e-02 -3.846562e-01
   endloop
 endfacet
 facet normal -1.000000e+00  0.000000e+00  0.000000e+00
   outer loop
     vertex  5.343917e-02 -1.587302e-02 -4.079366e-01
     vertex  5.343917e-02 -3.174609e-02 -4.079366e-01
     vertex  5.343917e-02 -3.174609e-02 -3.846562e-01
   endloop
 endfacet
 facet normal -0.000000e+00  0.000000e+00 -1.000000e+00
   outer loop
     vertex  1.000000e-01 -1.587302e-02 -4.079366e-01
     vertex  5.343917e-02 -3.174609e-02 -4.079366e-01
     vertex  5.343917e-02 -1.587302e-02 -4.079366e-01
   endloop
 endfacet
 facet normal  0.000000e+00 -0.000000e+00 -1.000000e+00
   outer loop
     vertex  1.000000e-01 -1.587302e-02 -4.079366e-01
     vertex  1.000000e-01 -3.174609e-02 -4.079366e-01
     vertex  5.343917e-02 -3.174609e-02 -4.079366e-01
   endloop
 endfacet
 facet normal  1.000000e+00  0.000000e+00  0.000000e+00
   outer loop
     vertex  1.000000e-01 -1.587302e-02 -3.846562e-01
     vertex  1.000000e-01 -3.174609e-02 -4.079366e-01
     vertex  1.000000e-01 -1.587302e-02 -4.079366e-01
   endloop
 endfacet
 facet normal  1.000000e+00  0.000000e+00  0.000000e+00
   outer loop
     vertex  1.000000e-01 -1.587302e-02 -3.846562e-01
     vertex  1.000000e-01 -3.174609e-02 -3.846562e-01
     vertex  1.000000e-01 -3.174609e-02 -4.079366e-01
   endloop
 endfacet
 facet normal  1.000000e+00  0.000000e+00  0.000000e+00
   outer loop
     vertex  1.000000e-01 -1.587302e-02  8.957671e-01
     vertex  1.000000e-01 -3.174609e-02  8.724867e-01
     vertex  1.000000e-01 -1.587302e-02  8.724867e-01
   endloop
 endfacet
 facet normal  1.000000e+00  0.000000e+00  0.000000e+00
   outer loop
     vertex  1.000000e-01 -1.587302e-02  8.957671e-01
     vertex  1.000000e-01 -3.174609e-02  8.957671e-01
     vertex  1.000000e-01 -3.174609e-02  8.724867e-01
   endloop
 endfacet
 facet normal -0.000000e+00  0.000000e+00  1.000000e+00
   outer loop
     vertex  5.343917e-02 -1.587302e-02  8.957671e-01
     vertex  1.000000e-01 -3.174609e-02  8.957671e-01
     vertex  1.000000e-01 -1.587302e-02  8.957671e-01
   endloop
 endfacet
 facet normal  0.000000e+00  0.000000e+00  1.000000e+00
   outer loop
     vertex  5.343917e-02 -1.587302e-02  8.957671e-01
     vertex  5.343917e-02 -3.174609e-02  8.957671e-01
     vertex  1.000000e-01 -3.174609e-02  8.957671e-01
   endloop
 endfacet
 facet normal -1.000000e+00  0.000000e+00  0.000000e+00
   outer loop
     vertex  5.343917e-02 -1.587302e-02  8.724867e-01
     vertex  5.343917e-02 -3.174609e-02  8.957671e-01
     vertex  5.343917e-02 -1.587302e-02  8.957671e-01
   endloop
 endfacet
 facet normal -1.000000e+00  0.000000e+00  0.000000e+00
   outer loop
     vertex  5.343917e-02 -1.587302e-02  8.724867e-01
     vertex  5.343917e-02 -3.174609e-02  8.724867e-01
     vertex  5.343917e-02 -3.174609e-02  8.957671e-01
   endloop
 endfacet
 facet normal  1.000000e+00  0.000000e+00  0.000000e+00
   outer loop
     vertex -3.656085e-01 -1.587302e-02  8.957671e-01
     vertex -3.656085e-01 -3.174609e-02  8.724867e-01
     vertex -3.656085e-01 -1.587302e-02  8.724867e-01
   endloop
 endfacet
 facet normal  1.000000e+00  0.000000e+00  0.000000e+00
   outer loop
     vertex -3.656085e-01 -1.587302e-02  8.957671e-01
     vertex -3.656085e-01 -3.174609e-02  8.957671e-01
     vertex -3.656085e-01 -3.174609e-02  8.724867e-01
   endloop
 endfacet
 facet normal -0.000000e+00  0.000000e+00  1.000000e+00
   outer loop
     vertex -4.121693e-01 -1.587302e-02  8.957671e-01
     vertex -3.656085e-01 -3.174609e-02  8.957671e-01
     vertex -3.656085e-01 -1.587302e-02  8.957671e-01
   endloop
 endfacet
 facet normal  0.000000e+00  0.000000e+00  1.000000e+00
   outer loop
     vertex -4.121693e-01 -1.587302e-02  8.957671e-01
     vertex -4.121693e-01 -3.174609e-02  8.957671e-01
     vertex -3.656085e-01 -3.174609e-02  8.957671e-01
   endloop
 endfacet
 facet normal -1.000000e+00  0.000000e+00  0.000000e+00
   outer loop
     vertex -4.121693e-01 -1.587302e-02  8.724867e-01
     vertex -4.121693e-01 -1.587302e-02  8.957671e-01
     vertex -4.121693e-01  0.000000e+00  8.957671e-01
   endloop
 endfacet
 facet normal -1.000000e+00  0.000000e+00  0.000000e+00
   outer loop
     vertex -4.121693e-01 -1.587302e-02  8.724867e-01
     vertex -4.121693e-01  0.000000e+00  8.957671e-01
     vertex -4.121693e-01  0.000000e+00  8.724867e-01
   endloop
 endfacet
 facet normal  1.000000e+00  0.000000e+00  0.000000e+00
   outer loop
     vertex -3.656085e-01 -1.587302e-02 -3.846562e-01
     vertex -3.656085e-01 -1.587302e-02 -4.079366e-01
     vertex -3.656085e-01  0.000000e+00 -4.079366e-01
   endloop
 endfacet
 facet normal  1.000000e+00 -0.000000e+00  0.000000e+00
   outer loop
     vertex -3.656085e-01 -1.587302e-02 -3.846562e-01
     vertex -3.656085e-01  0.000000e+00 -4.079366e-01
     vertex -3.656085e-01  0.000000e+00 -3.846562e-01
   endloop
 endfacet
 facet normal -1.000000e+00  0.000000e+00  0.000000e+00
   outer loop
     vertex  5.343917e-02 -1.587302e-02 -4.079366e-01
     vertex  5.343917e-02 -1.587302e-02 -3.846562e-01
     vertex  5.343917e-02  0.000000e+00 -3.846562e-01
   endloop
 endfacet
 facet normal -1.000000e+00  0.000000e+00  0.000000e+00
   outer loop
     vertex  5.343917e-02 -1.587302e-02 -4.079366e-01
     vertex  5.343917e-02  0.000000e+00 -3.846562e-01
     vertex  5.343917e-02  0.000000e+00 -4.079366e-01
   endloop
 endfacet
 facet normal  0.000000e+00  0.000000e+00 -1.000000e+00
   outer loop
     vertex  1.000000e-01 -1.587302e-02 -4.079366e-01
     vertex  5.343917e-02 -1.587302e-02 -4.079366e-01
     vertex  5.343917e-02  0.000000e+00 -4.079366e-01
   endloop
 endfacet
 facet normal  0.000000e+00  0.000000e+00 -1.000000e+00
   outer loop
     vertex  1.000000e-01 -1.587302e-02 -4.079366e-01
     vertex  5.343917e-02  0.000000e+00 -4.079366e-01
     vertex  1.000000e-01  0.000000e+00 -4.079366e-01
   endloop
 endfacet
 facet normal  1.000000e+00  0.000000e+00  0.000000e+00
   outer loop
     vertex  1.000000e-01 -1.587302e-02 -3.846562e-01
     vertex  1.000000e-01 -1.587302e-02 -4.079366e-01
     vertex  1.000000e-01  0.000000e+00 -4.079366e-01
   endloop
 endfacet
 facet normal  1.000000e+00 -0.000000e+00  0.000000e+00
   outer loop
     vertex  1.000000e-01 -1.587302e-02 -3.846562e-01
     vertex  1.000000e-01  0.000000e+00 -4.079366e-01
     vertex  1.000000e-01  0.000000e+00 -3.846562e-01
   endloop
 endfacet
 facet normal  1.000000e+00  0.000000e+00  0.000000e+00
   outer loop
     vertex  1.000000e-01 -1.587302e-02  8.957671e-01
     vertex  1.000000e-01 -1.587302e-02  8.724867e-01
     vertex  1.000000e-01  0.000000e+00  8.724867e-01
   endloop
 endfacet
 facet normal  1.000000e+00 -0.000000e+00  0.000000e+00
   outer loop
     vertex  1.000000e-01 -1.587302e-02  8.957671e-01
     vertex  1.000000e-01  0.000000e+00  8.724867e-01
     vertex  1.000000e-01  0.000000e+00  8.957671e-01
   endloop
 endfacet
 facet normal  0.000000e+00  0.000000e+00  1.000000e+00
   outer loop
     vertex  5.343917e-02 -1.587302e-02  8.957671e-01
     vertex  1.000000e-01 -1.587302e-02  8.957671e-01
     vertex  1.000000e-01  0.000000e+00  8.957671e-01
   endloop
 endfacet
 facet normal  0.000000e+00  0.000000e+00  1.000000e+00
   outer loop
     vertex  5.343917e-02 -1.587302e-02  8.957671e-01
     vertex  1.000000e-01  0.000000e+00  8.957671e-01
     vertex  5.343917e-02  0.000000e+00  8.957671e-01
   endloop
 endfacet
 facet normal -1.000000e+00  0.000000e+00  0.000000e+00
   outer loop
     vertex  5.343917e-02 -1.587302e-02  8.724867e-01
     vertex  5.343917e-02 -1.587302e-02  8.957671e-01
     vertex  5.343917e-02  0.000000e+00  8.957671e-01
   endloop
 endfacet
 facet normal -1.000000e+00  0.000000e+00  0.000000e+00
   outer loop
     vertex  5.343917e-02 -1.587302e-02  8.724867e-01
     vertex  5.343917e-02  0.000000e+00  8.957671e-01
     vertex  5.343917e-02  0.000000e+00  8.724867e-01
   endloop
 endfacet
 facet normal  1.000000e+00  0.000000e+00  0.000000e+00
   outer loop
     vertex -3.656085e-01 -1.587302e-02  8.957671e-01
     vertex -3.656085e-01 -1.587302e-02  8.724867e-01
     vertex -3.656085e-01  0.000000e+00  8.724867e-01
   endloop
 endfacet
 facet normal  1.000000e+00 -0.000000e+00  0.000000e+00
   outer loop
     vertex -3.656085e-01 -1.587302e-02  8.957671e-01
     vertex -3.656085e-01  0.000000e+00  8.724867e-01
     vertex -3.656085e-01  0.000000e+00  8.957671e-01
   endloop
 endfacet
 facet normal  0.000000e+00  0.000000e+00  1.000000e+00
   outer loop
     vertex -4.121693e-01 -1.587302e-02  8.957671e-01
     vertex -3.656085e-01 -1.587302e-02  8.957671e-01
     vertex -3.656085e-01  0.000000e+00  8.957671e-01
   endloop
 endfacet
 facet normal  0.000000e+00  0.000000e+00  1.000000e+00
   outer loop
     vertex -4.121693e-01 -1.587302e-02  8.957671e-01
     vertex -3.656085e-01  0.000000e+00  8.957671e-01
     vertex -4.121693e-01  0.000000e+00  8.957671e-01
   endloop
 endfacet
 facet normal -0.000000e+00  0.000000e+00 -1.000000e+00
   outer loop
     vertex  3.015874e-02 -1.587302e-02 -4.777779e-01
     vertex -3.423281e-01 -3.174609e-02 -4.777779e-01
     vertex -3.423281e-01 -1.587302e-02 -4.777779e-01
   endloop
 endfacet
 facet normal  0.000000e+00 -0.000000e+00 -1.000000e+00
   outer loop
     vertex  3.015874e-02 -1.587302e-02 -4.777779e-01
     vertex  3.015874e-02 -3.174609e-02 -4.777779e-01
     vertex -3.423281e-01 -3.174609e-02 -4.777779e-01
   endloop
 endfacet
 facet normal -1.000000e+00  0.000000e+00  0.000000e+00
   outer loop
     vertex -3.423281e-01 -1.587302e-02 -4.777779e-01
     vertex -3.423281e-01 -3.174609e-02 -4.312171e-01
     vertex -3.423281e-01 -1.587302e-02 -4.312171e-01
   endloop
 endfacet
 facet normal -1.000000e+00  0.000000e+00  0.000000e+00
   outer loop
     vertex -3.423281e-01 -1.587302e-02 -4.777779e-01
     vertex -3.423281e-01 -3.174609e-02 -4.777779e-01
     vertex -3.423281e-01 -3.174609e-02 -4.312171e-01
   endloop
 endfacet
 facet normal  1.000000e+00  0.000000e+00  0.000000e+00
   outer loop
     vertex  3.015874e-02 -1.587302e-02 -4.312171e-01
     vertex  3.015874e-02 -3.174609e-02 -4.777779e-01
     vertex  3.015874e-02 -1.587302e-02 -4.777779e-01
   endloop
 endfacet
 facet normal  1.000000e+00  0.000000e+00  0.000000e+00
   outer loop
     vertex  3.015874e-02 -1.587302e-02 -4.312171e-01
     vertex  3.015874e-02 -3.174609e-02 -4.312171e-01
     vertex  3.015874e-02 -3.174609e-02 -4.777779e-01
   endloop
 endfacet
 facet normal  0.000000e+00  0.000000e+00 -1.000000e+00
   outer loop
     vertex  3.015874e-02 -1.587302e-02 -4.777779e-01
     vertex -3.423281e-01 -1.587302e-02 -4.777779e-01
     vertex -3.423281e-01  0.000000e+00 -4.777779e-01
   endloop
 endfacet
 facet normal  0.000000e+00  0.000000e+00 -1.000000e+00
   outer loop
     vertex  3.015874e-02 -1.587302e-02 -4.777779e-01
     vertex -3.423281e-01  0.000000e+00 -4.777779e-01
     vertex  3.015874e-02  0.000000e+00 -4.777779e-01
   endloop
 endfacet
 facet normal  0.000000e+00 -1.000000e+00 -0.000000e+00
   outer loop
     vertex  3.015874e-02 -3.174609e-02 -4.312171e-01
     vertex -3.423281e-01 -3.174609e-02 -4.777779e-01
     vertex  3.015874e-02 -3.174609e-02 -4.777779e-01
   endloop
 endfacet
 facet normal -0.000000e+00 -1.000000e+00  0.000000e+00
   outer loop
     vertex  3.015874e-02 -3.174609e-02 -4.312171e-01
     vertex -3.423281e-01 -3.174609e-02 -4.312171e-01
     vertex -3.423281e-01 -3.174609e-02 -4.777779e-01
   endloop
 endfacet
 facet normal -0.000000e+00  0.000000e+00  1.000000e+00
   outer loop
     vertex -3.423281e-01 -1.587302e-02 -4.312171e-01
     vertex  3.015874e-02 -3.174609e-02 -4.312171e-01
     vertex  3.015874e-02 -1.587302e-02 -4.312171e-01
   endloop
 endfacet
 facet normal  0.000000e+00  0.000000e+00  1.000000e+00
   outer loop
     vertex -3.423281e-01 -1.587302e-02 -4.312171e-01
     vertex -3.423281e-01 -3.174609e-02 -4.312171e-01
     vertex  3.015874e-02 -3.174609e-02 -4.312171e-01
   endloop
 endfacet
 facet normal -1.000000e+00  0.000000e+00  0.000000e+00
   outer loop
     vertex -3.423281e-01 -1.587302e-02 -4.777779e-01
     vertex -3.423281e-01 -1.587302e-02 -4.312171e-01
     vertex -3.423281e-01  0.000000e+00 -4.312171e-01
   endloop
 endfacet
 facet normal -1.000000e+00  0.000000e+00  0.000000e+00
   outer loop
     vertex -3.423281e-01 -1.587302e-02 -4.777779e-01
     vertex -3.423281e-01  0.000000e+00 -4.312171e-01
     vertex -3.423281e-01  0.000000e+00 -4.777779e-01
   endloop
 endfacet
 facet normal  1.000000e+00  0.000000e+00  0.000000e+00
   outer loop
     vertex  3.015874e-02 -1.587302e-02 -4.312171e-01
     vertex  3.015874e-02 -1.587302e-02 -4.777779e-01
     vertex  3.015874e-02  0.000000e+00 -4.777779e-01
   endloop
 endfacet
 facet normal  1.000000e+00 -0.000000e+00  0.000000e+00
   outer loop
     vertex  3.015874e-02 -1.587302e-02 -4.312171e-01
     vertex  3.015874e-02  0.000000e+00 -4.777779e-01
     vertex  3.015874e-02  0.000000e+00 -4.312171e-01
   endloop
 endfacet
 facet normal  0.000000e+00  1.000000e+00  0.000000e+00
   outer loop
     vertex  3.015874e-02 -3.469447e-18 -4.312171e-01
     vertex  3.015874e-02 -3.469447e-18 -4.777779e-01
     vertex -3.423281e-01 -3.469447e-18 -4.777779e-01
   endloop
 endfacet
 facet normal  0.000000e+00  1.000000e+00  0.000000e+00
   outer loop
     vertex  3.015874e-02 -3.469447e-18 -4.312171e-01
     vertex -3.423281e-01 -3.469447e-18 -4.777779e-01
     vertex -3.423281e-01 -3.469447e-18 -4.312171e-01
   endloop
 endfacet
 facet normal  0.000000e+00  0.000000e+00  1.000000e+00
   outer loop
     vertex -3.423281e-01 -1.587302e-02 -4.312171e-01
     vertex  3.015874e-02 -1.587302e-02 -4.312171e-01
     vertex  3.015874e-02  0.000000e+00 -4.312171e-01
   endloop
 endfacet
 facet normal  0.000000e+00  0.000000e+00  1.000000e+00
   outer loop
     vertex -3.423281e-01 -1.587302e-02 -4.312171e-01
     vertex  3.015874e-02  0.000000e+00 -4.312171e-01
     vertex -3.423281e-01  0.000000e+00 -4.312171e-01
   endloop
 endfacet
 facet normal -0.000000e+00  0.000000e+00 -1.000000e+00
   outer loop
     vertex  3.015874e-02 -1.587302e-02  9.190475e-01
     vertex -3.423281e-01 -3.174609e-02  9.190475e-01
     vertex -3.423281e-01 -1.587302e-02  9.190475e-01
   endloop
 endfacet
 facet normal  0.000000e+00 -0.000000e+00 -1.000000e+00
   outer loop
     vertex  3.015874e-02 -1.587302e-02  9.190475e-01
     vertex  3.015874e-02 -3.174609e-02  9.190475e-01
     vertex -3.423281e-01 -3.174609e-02  9.190475e-01
   endloop
 endfacet
 facet normal -1.000000e+00  0.000000e+00  0.000000e+00
   outer loop
     vertex -3.423281e-01 -1.587302e-02  9.190475e-01
     vertex -3.423281e-01 -3.174609e-02  9.656084e-01
     vertex -3.423281e-01 -1.587302e-02  9.656084e-01
   endloop
 endfacet
 facet normal -1.000000e+00  0.000000e+00  0.000000e+00
   outer loop
     vertex -3.423281e-01 -1.587302e-02  9.190475e-01
     vertex -3.423281e-01 -3.174609e-02  9.190475e-01
     vertex -3.423281e-01 -3.174609e-02  9.656084e-01
   endloop
 endfacet
 facet normal  1.000000e+00  0.000000e+00  0.000000e+00
   outer loop
     vertex  3.015874e-02 -1.587302e-02  9.656084e-01
     vertex  3.015874e-02 -3.174609e-02  9.190475e-01
     vertex  3.015874e-02 -1.587302e-02  9.190475e-01
   endloop
 endfacet
 facet normal  1.000000e+00  0.000000e+00  0.000000e+00
   outer loop
     vertex  3.015874e-02 -1.587302e-02  9.656084e-01
     vertex  3.015874e-02 -3.174609e-02  9.656084e-01
     vertex  3.015874e-02 -3.174609e-02  9.190475e-01
   endloop
 endfacet
 facet normal  0.000000e+00  0.000000e+00 -1.000000e+00
   outer loop
     vertex  3.015874e-02 -1.587302e-02  9.190475e-01
     vertex -3.423281e-01 -1.587302e-02  9.190475e-01
     vertex -3.423281e-01  0.000000e+00  9.190475e-01
   endloop
 endfacet
 facet normal  0.000000e+00  0.000000e+00 -1.000000e+00
   outer loop
     vertex  3.015874e-02 -1.587302e-02  9.190475e-01
     vertex -3.423281e-01  0.000000e+00  9.190475e-01
     vertex  3.015874e-02  0.000000e+00  9.190475e-01
   endloop
 endfacet
 facet normal  0.000000e+00 -1.000000e+00 -0.000000e+00
   outer loop
     vertex  3.015874e-02 -3.174609e-02  9.656084e-01
     vertex -3.423281e-01 -3.174609e-02  9.190475e-01
     vertex  3.015874e-02 -3.174609e-02  9.190475e-01
   endloop
 endfacet
 facet normal -0.000000e+00 -1.000000e+00  0.000000e+00
   outer loop
     vertex  3.015874e-02 -3.174609e-02  9.656084e-01
     vertex -3.423281e-01 -3.174609e-02  9.656084e-01
     vertex -3.423281e-01 -3.174609e-02  9.190475e-01
   endloop
 endfacet
 facet normal -0.000000e+00  0.000000e+00  1.000000e+00
   outer loop
     vertex -3.423281e-01 -1.587302e-02  9.656084e-01
     vertex  3.015874e-02 -3.174609e-02  9.656084e-01
     vertex  3.015874e-02 -1.587302e-02  9.656084e-01
   endloop
 endfacet
 facet normal  0.000000e+00  0.000000e+00  1.000000e+00
   outer loop
     vertex -3.423281e-01 -1.587302e-02  9.656084e-01
     vertex -3.423281e-01 -3.174609e-02  9.656084e-01
     vertex  3.015874e-02 -3.174609e-02  9.656084e-01
   endloop
 endfacet
 facet normal -1.000000e+00  0.000000e+00  0.000000e+00
   outer loop
     vertex -3.423281e-01 -1.587302e-02  9.190475e-01
     vertex -3.423281e-01 -1.587302e-02  9.656084e-01
     vertex -3.423281e-01  0.000000e+00  9.656084e-01
   endloop
 endfacet
 facet normal -1.000000e+00  0.000000e+00  0.000000e+00
   outer loop
     vertex -3.423281e-01 -1.587302e-02  9.190475e-01
     vertex -3.423281e-01  0.000000e+00  9.656084e-01
     vertex -3.423281e-01  0.000000e+00  9.190475e-01
   endloop
 endfacet
 facet normal  1.000000e+00  0.000000e+00  0.000000e+00
   outer loop
     vertex  3.015874e-02 -1.587302e-02  9.656084e-01
     vertex  3.015874e-02 -1.587302e-02  9.190475e-01
     vertex  3.015874e-02  0.000000e+00  9.190475e-01
   endloop
 endfacet
 facet normal  1.000000e+00 -0.000000e+00  0.000000e+00
   outer loop
     vertex  3.015874e-02 -1.587302e-02  9.656084e-01
     vertex  3.015874e-02  0.000000e+00  9.190475e-01
     vertex  3.015874e-02  0.000000e+00  9.656084e-01
   endloop
 endfacet
 facet normal  0.000000e+00  1.000000e+00  0.000000e+00
   outer loop
     vertex  3.015874e-02 -3.469447e-18  9.656084e-01
     vertex  3.015874e-02 -3.469447e-18  9.190475e-01
     vertex -3.423281e-01 -3.469447e-18  9.190475e-01
   endloop
 endfacet
 facet normal  0.000000e+00  1.000000e+00  0.000000e+00
   outer loop
     vertex  3.015874e-02 -3.469447e-18  9.656084e-01
     vertex -3.423281e-01 -3.469447e-18  9.190475e-01
     vertex -3.423281e-01 -3.469447e-18  9.656084e-01
   endloop
 endfacet
 facet normal  0.000000e+00  0.000000e+00  1.000000e+00
   outer loop
     vertex -3.423281e-01 -1.587302e-02  9.656084e-01
     vertex  3.015874e-02 -1.587302e-02  9.656084e-01
     vertex  3.015874e-02  0.000000e+00  9.656084e-01
   endloop
 endfacet
 facet normal  0.000000e+00  0.000000e+00  1.000000e+00
   outer loop
     vertex -3.423281e-01 -1.587302e-02  9.656084e-01
     vertex  3.015874e-02  0.000000e+00  9.656084e-01
     vertex -3.423281e-01  0.000000e+00  9.656084e-01
   endloop
 endfacet
endsolid
