solid 
 facet normal -1.000000e+00  0.000000e+00  0.000000e+00
   outer loop
     vertex -1.030159e+00 -1.587302e-02 -4.285705e-02
     vertex -1.030159e+00 -3.174604e-01  4.650795e-01
     vertex -1.030159e+00 -1.587302e-02  4.650795e-01
   endloop
 endfacet
 facet normal -1.000000e+00  0.000000e+00  0.000000e+00
   outer loop
     vertex -1.030159e+00 -1.587302e-02 -4.285705e-02
     vertex -1.030159e+00 -3.174604e-01 -4.285705e-02
     vertex -1.030159e+00 -3.174604e-01  4.650795e-01
   endloop
 endfacet
 facet normal -1.165734e-16  0.000000e+00  1.000000e+00
   outer loop
     vertex -1.030159e+00 -1.587302e-02  4.650795e-01
     vertex -5.539683e-01 -3.174604e-01  4.650795e-01
     vertex -5.539683e-01 -1.587302e-02  4.650795e-01
   endloop
 endfacet
 facet normal -1.165734e-16  0.000000e+00  1.000000e+00
   outer loop
     vertex -1.030159e+00 -1.587302e-02  4.650795e-01
     vertex -1.030159e+00 -3.174604e-01  4.650795e-01
     vertex -5.539683e-01 -3.174604e-01  4.650795e-01
   endloop
 endfacet
 facet normal -4.371503e-17  0.000000e+00 -1.000000e+00
   outer loop
     vertex -5.539683e-01 -1.587302e-02 -4.285705e-02
     vertex -1.030159e+00 -3.174604e-01 -4.285705e-02
     vertex -1.030159e+00 -1.587302e-02 -4.285705e-02
   endloop
 endfacet
 facet normal -4.371503e-17 -0.000000e+00 -1.000000e+00
   outer loop
     vertex -5.539683e-01 -1.587302e-02 -4.285705e-02
     vertex -5.539683e-01 -3.174604e-01 -4.285705e-02
     vertex -1.030159e+00 -3.174604e-01 -4.285705e-02
   endloop
 endfacet
 facet normal -1.000000e+00  0.000000e+00  0.000000e+00
   outer loop
     vertex -1.030159e+00 -1.587302e-02 -4.285705e-02
     vertex -1.030159e+00 -1.587302e-02  4.650795e-01
     vertex -1.030159e+00  0.000000e+00  4.650795e-01
   endloop
 endfacet
 facet normal -1.000000e+00  0.000000e+00  0.000000e+00
   outer loop
     vertex -1.030159e+00 -1.587302e-02 -4.285705e-02
     vertex -1.030159e+00  0.000000e+00  4.650795e-01
     vertex -1.030159e+00  0.000000e+00 -4.285705e-02
   endloop
 endfacet
 facet normal  0.000000e+00 -1.000000e+00  0.000000e+00
   outer loop
     vertex -5.539683e-01 -3.174604e-01  4.650795e-01
     vertex -1.030159e+00 -3.174604e-01  4.650795e-01
     vertex -1.030159e+00 -3.174604e-01 -4.285705e-02
   endloop
 endfacet
 facet normal  0.000000e+00 -1.000000e+00 -0.000000e+00
   outer loop
     vertex -5.539683e-01 -3.174604e-01  4.650795e-01
     vertex -1.030159e+00 -3.174604e-01 -4.285705e-02
     vertex -5.539683e-01 -3.174604e-01 -4.285705e-02
   endloop
 endfacet
 facet normal  0.000000e+00 -1.000000e+00 -0.000000e+00
   outer loop
     vertex -5.109354e-01 -3.174604e-01  4.301619e-01
     vertex -5.539683e-01 -3.174604e-01 -4.285705e-02
     vertex -5.109354e-01 -3.174604e-01 -7.939419e-03
   endloop
 endfacet
 facet normal -0.000000e+00 -1.000000e+00  0.000000e+00
   outer loop
     vertex -5.109354e-01 -3.174604e-01  4.301619e-01
     vertex -5.539683e-01 -3.174604e-01  4.650795e-01
     vertex -5.539683e-01 -3.174604e-01 -4.285705e-02
   endloop
 endfacet
 facet normal  0.000000e+00 -1.000000e+00 -0.000000e+00
   outer loop
     vertex -4.655099e-01 -3.174604e-01  3.984192e-01
     vertex -5.109354e-01 -3.174604e-01 -7.939419e-03
     vertex -4.655099e-01 -3.174604e-01  2.380322e-02
   endloop
 endfacet
 facet normal -0.000000e+00 -1.000000e+00  0.000000e+00
   outer loop
     vertex -4.655099e-01 -3.174604e-01  3.984192e-01
     vertex -5.109354e-01 -3.174604e-01  4.301619e-01
     vertex -5.109354e-01 -3.174604e-01 -7.939419e-03
   endloop
 endfacet
 facet normal  0.000000e+00 -1.000000e+00 -0.000000e+00
   outer loop
     vertex -4.179256e-01 -3.174604e-01  3.700149e-01
     vertex -4.655099e-01 -3.174604e-01  2.380322e-02
     vertex -4.179256e-01 -3.174604e-01  5.220752e-02
   endloop
 endfacet
 facet normal -0.000000e+00 -1.000000e+00  0.000000e+00
   outer loop
     vertex -4.179256e-01 -3.174604e-01  3.700149e-01
     vertex -4.655099e-01 -3.174604e-01  3.984192e-01
     vertex -4.655099e-01 -3.174604e-01  2.380322e-02
   endloop
 endfacet
 facet normal  0.000000e+00 -1.000000e+00 -0.000000e+00
   outer loop
     vertex -3.684274e-01 -3.174604e-01  3.450952e-01
     vertex -4.179256e-01 -3.174604e-01  5.220752e-02
     vertex -3.684274e-01 -3.174604e-01  7.712728e-02
   endloop
 endfacet
 facet normal -0.000000e+00 -1.000000e+00  0.000000e+00
   outer loop
     vertex -3.684274e-01 -3.174604e-01  3.450952e-01
     vertex -4.179256e-01 -3.174604e-01  3.700149e-01
     vertex -4.179256e-01 -3.174604e-01  5.220752e-02
   endloop
 endfacet
 facet normal  0.000000e+00 -1.000000e+00 -0.000000e+00
   outer loop
     vertex -3.172699e-01 -3.174604e-01  3.237882e-01
     vertex -3.684274e-01 -3.174604e-01  7.712728e-02
     vertex -3.172699e-01 -3.174604e-01  9.843426e-02
   endloop
 endfacet
 facet normal -0.000000e+00 -1.000000e+00  0.000000e+00
   outer loop
     vertex -3.172699e-01 -3.174604e-01  3.237882e-01
     vertex -3.684274e-01 -3.174604e-01  3.450952e-01
     vertex -3.684274e-01 -3.174604e-01  7.712728e-02
   endloop
 endfacet
 facet normal  0.000000e+00 -1.000000e+00 -0.000000e+00
   outer loop
     vertex -2.647166e-01 -3.174604e-01  3.062036e-01
     vertex -3.172699e-01 -3.174604e-01  9.843426e-02
     vertex -2.647166e-01 -3.174604e-01  1.160188e-01
   endloop
 endfacet
 facet normal -0.000000e+00 -1.000000e+00  0.000000e+00
   outer loop
     vertex -2.647166e-01 -3.174604e-01  3.062036e-01
     vertex -3.172699e-01 -3.174604e-01  3.237882e-01
     vertex -3.172699e-01 -3.174604e-01  9.843426e-02
   endloop
 endfacet
 facet normal  0.000000e+00 -1.000000e+00 -0.000000e+00
   outer loop
     vertex -2.110378e-01 -3.174604e-01  2.924320e-01
     vertex -2.647166e-01 -3.174604e-01  1.160188e-01
     vertex -2.110378e-01 -3.174604e-01  1.297904e-01
   endloop
 endfacet
 facet normal -0.000000e+00 -1.000000e+00  0.000000e+00
   outer loop
     vertex -2.110378e-01 -3.174604e-01  2.924320e-01
     vertex -2.647166e-01 -3.174604e-01  3.062036e-01
     vertex -2.647166e-01 -3.174604e-01  1.160188e-01
   endloop
 endfacet
 facet normal  0.000000e+00 -1.000000e+00 -0.000000e+00
   outer loop
     vertex -1.565098e-01 -3.174604e-01  2.825442e-01
     vertex -2.110378e-01 -3.174604e-01  1.297904e-01
     vertex -1.565098e-01 -3.174604e-01  1.396782e-01
   endloop
 endfacet
 facet normal -0.000000e+00 -1.000000e+00  0.000000e+00
   outer loop
     vertex -1.565098e-01 -3.174604e-01  2.825442e-01
     vertex -2.110378e-01 -3.174604e-01  2.924320e-01
     vertex -2.110378e-01 -3.174604e-01  1.297904e-01
   endloop
 endfacet
 facet normal  0.000000e+00 -1.000000e+00 -0.000000e+00
   outer loop
     vertex -1.014133e-01 -3.174604e-01  2.765911e-01
     vertex -1.565098e-01 -3.174604e-01  1.396782e-01
     vertex -1.014133e-01 -3.174604e-01  1.456313e-01
   endloop
 endfacet
 facet normal -0.000000e+00 -1.000000e+00  0.000000e+00
   outer loop
     vertex -1.014133e-01 -3.174604e-01  2.765911e-01
     vertex -1.565098e-01 -3.174604e-01  2.825442e-01
     vertex -1.565098e-01 -3.174604e-01  1.396782e-01
   endloop
 endfacet
 facet normal  0.000000e+00 -1.000000e+00 -0.000000e+00
   outer loop
     vertex -4.603171e-02 -3.174604e-01  2.746033e-01
     vertex -1.014133e-01 -3.174604e-01  1.456313e-01
     vertex -4.603171e-02 -3.174604e-01  1.476191e-01
   endloop
 endfacet
 facet normal -0.000000e+00 -1.000000e+00  0.000000e+00
   outer loop
     vertex -4.603171e-02 -3.174604e-01  2.746033e-01
     vertex -1.014133e-01 -3.174604e-01  2.765911e-01
     vertex -1.014133e-01 -3.174604e-01  1.456313e-01
   endloop
 endfacet
 facet normal  0.000000e+00 -1.000000e+00 -0.000000e+00
   outer loop
     vertex  9.349856e-03 -3.174604e-01  2.765911e-01
     vertex -4.603171e-02 -3.174604e-01  1.476191e-01
     vertex  9.349856e-03 -3.174604e-01  1.456313e-01
   endloop
 endfacet
 facet normal  0.000000e+00 -1.000000e+00  0.000000e+00
   outer loop
     vertex  9.349856e-03 -3.174604e-01  2.765911e-01
     vertex -4.603171e-02 -3.174604e-01  2.746033e-01
     vertex -4.603171e-02 -3.174604e-01  1.476191e-01
   endloop
 endfacet
 facet normal  0.000000e+00 -1.000000e+00  0.000000e+00
   outer loop
     vertex  6.444641e-02 -3.174604e-01  2.825442e-01
     vertex  9.349856e-03 -3.174604e-01  2.765911e-01
     vertex  9.349856e-03 -3.174604e-01  1.456313e-01
   endloop
 endfacet
 facet normal  0.000000e+00 -1.000000e+00 -0.000000e+00
   outer loop
     vertex  6.444641e-02 -3.174604e-01  2.825442e-01
     vertex  9.349856e-03 -3.174604e-01  1.456313e-01
     vertex  6.444641e-02 -3.174604e-01  1.396782e-01
   endloop
 endfacet
 facet normal  0.000000e+00 -1.000000e+00  0.000000e+00
   outer loop
     vertex  1.189744e-01 -3.174604e-01  2.924320e-01
     vertex  6.444641e-02 -3.174604e-01  2.825442e-01
     vertex  6.444641e-02 -3.174604e-01  1.396782e-01
   endloop
 endfacet
 facet normal  0.000000e+00 -1.000000e+00 -0.000000e+00
   outer loop
     vertex  1.189744e-01 -3.174604e-01  2.924320e-01
     vertex  6.444641e-02 -3.174604e-01  1.396782e-01
     vertex  1.189744e-01 -3.174604e-01  1.297904e-01
   endloop
 endfacet
 facet normal  0.000000e+00 -1.000000e+00 -0.000000e+00
   outer loop
     vertex  1.726532e-01 -3.174604e-01  3.062036e-01
     vertex  1.189744e-01 -3.174604e-01  1.297904e-01
     vertex  1.726532e-01 -3.174604e-01  1.160188e-01
   endloop
 endfacet
 facet normal  0.000000e+00 -1.000000e+00  0.000000e+00
   outer loop
     vertex  1.726532e-01 -3.174604e-01  3.062036e-01
     vertex  1.726532e-01 -3.174604e-01  1.160188e-01
     vertex  2.252065e-01 -3.174604e-01  9.843426e-02
   endloop
 endfacet
 facet normal  0.000000e+00 -1.000000e+00  0.000000e+00
   outer loop
     vertex  1.726532e-01 -3.174604e-01  3.062036e-01
     vertex  1.189744e-01 -3.174604e-01  2.924320e-01
     vertex  1.189744e-01 -3.174604e-01  1.297904e-01
   endloop
 endfacet
 facet normal  0.000000e+00 -1.000000e+00  0.000000e+00
   outer loop
     vertex  2.252065e-01 -3.174604e-01  3.237882e-01
     vertex  1.726532e-01 -3.174604e-01  3.062036e-01
     vertex  2.252065e-01 -3.174604e-01  9.843426e-02
   endloop
 endfacet
 facet normal  0.000000e+00 -1.000000e+00  0.000000e+00
   outer loop
     vertex  2.763639e-01 -3.174604e-01  3.450952e-01
     vertex  2.252065e-01 -3.174604e-01  9.843426e-02
     vertex  2.763639e-01 -3.174604e-01  7.712728e-02
   endloop
 endfacet
 facet normal  0.000000e+00 -1.000000e+00 -0.000000e+00
   outer loop
     vertex  2.763639e-01 -3.174604e-01  3.450952e-01
     vertex  2.763639e-01 -3.174604e-01  7.712728e-02
     vertex  3.258622e-01 -3.174604e-01  5.220752e-02
   endloop
 endfacet
 facet normal  0.000000e+00 -1.000000e+00  0.000000e+00
   outer loop
     vertex  2.763639e-01 -3.174604e-01  3.450952e-01
     vertex  2.252065e-01 -3.174604e-01  3.237882e-01
     vertex  2.252065e-01 -3.174604e-01  9.843426e-02
   endloop
 endfacet
 facet normal  0.000000e+00 -1.000000e+00  0.000000e+00
   outer loop
     vertex  3.258622e-01 -3.174604e-01  3.700149e-01
     vertex  2.763639e-01 -3.174604e-01  3.450952e-01
     vertex  3.258622e-01 -3.174604e-01  5.220752e-02
   endloop
 endfacet
 facet normal  0.000000e+00 -1.000000e+00  0.000000e+00
   outer loop
     vertex  3.734465e-01 -3.174604e-01  3.984192e-01
     vertex  3.258622e-01 -3.174604e-01  5.220752e-02
     vertex  3.734465e-01 -3.174604e-01  2.380322e-02
   endloop
 endfacet
 facet normal  0.000000e+00 -1.000000e+00 -0.000000e+00
   outer loop
     vertex  3.734465e-01 -3.174604e-01  3.984192e-01
     vertex  3.734465e-01 -3.174604e-01  2.380322e-02
     vertex  4.188719e-01 -3.174604e-01 -7.939419e-03
   endloop
 endfacet
 facet normal  0.000000e+00 -1.000000e+00  0.000000e+00
   outer loop
     vertex  3.734465e-01 -3.174604e-01  3.984192e-01
     vertex  3.258622e-01 -3.174604e-01  3.700149e-01
     vertex  3.258622e-01 -3.174604e-01  5.220752e-02
   endloop
 endfacet
 facet normal  0.000000e+00 -1.000000e+00  0.000000e+00
   outer loop
     vertex  4.188719e-01 -3.174604e-01  4.301619e-01
     vertex  3.734465e-01 -3.174604e-01  3.984192e-01
     vertex  4.188719e-01 -3.174604e-01 -7.939419e-03
   endloop
 endfacet
 facet normal  0.000000e+00 -1.000000e+00 -0.000000e+00
   outer loop
     vertex  4.619048e-01 -3.174604e-01  4.650795e-01
     vertex  4.188719e-01 -3.174604e-01 -7.939419e-03
     vertex  4.619048e-01 -3.174604e-01 -4.285705e-02
   endloop
 endfacet
 facet normal  0.000000e+00 -1.000000e+00  0.000000e+00
   outer loop
     vertex  4.619048e-01 -3.174604e-01  4.650795e-01
     vertex  4.619048e-01 -3.174604e-01 -4.285705e-02
     vertex  9.380953e-01 -3.174604e-01 -4.285705e-02
   endloop
 endfacet
 facet normal  0.000000e+00 -1.000000e+00  0.000000e+00
   outer loop
     vertex  4.619048e-01 -3.174604e-01  4.650795e-01
     vertex  4.188719e-01 -3.174604e-01  4.301619e-01
     vertex  4.188719e-01 -3.174604e-01 -7.939419e-03
   endloop
 endfacet
 facet normal -0.000000e+00 -1.000000e+00 -0.000000e+00
   outer loop
     vertex  9.380953e-01 -3.174604e-01  4.650795e-01
     vertex  4.619048e-01 -3.174604e-01  4.650795e-01
     vertex  9.380953e-01 -3.174604e-01 -4.285705e-02
   endloop
 endfacet
 facet normal -6.300862e-01  0.000000e+00  7.765252e-01
   outer loop
     vertex  4.188719e-01 -1.587302e-02  4.301619e-01
     vertex  4.619048e-01 -3.174604e-01  4.650795e-01
     vertex  4.619048e-01 -1.587302e-02  4.650795e-01
   endloop
 endfacet
 facet normal -6.300862e-01  0.000000e+00  7.765252e-01
   outer loop
     vertex  4.188719e-01 -1.587302e-02  4.301619e-01
     vertex  4.188719e-01 -3.174604e-01  4.301619e-01
     vertex  4.619048e-01 -3.174604e-01  4.650795e-01
   endloop
 endfacet
 facet normal -5.727938e-01  0.000000e+00  8.196995e-01
   outer loop
     vertex  3.734465e-01 -1.587302e-02  3.984192e-01
     vertex  3.734465e-01 -3.174604e-01  3.984192e-01
     vertex  4.188719e-01 -3.174604e-01  4.301619e-01
   endloop
 endfacet
 facet normal -5.727938e-01  0.000000e+00  8.196995e-01
   outer loop
     vertex  3.734465e-01 -1.587302e-02  3.984192e-01
     vertex  4.188719e-01 -3.174604e-01  4.301619e-01
     vertex  4.188719e-01 -1.587302e-02  4.301619e-01
   endloop
 endfacet
 facet normal -5.125535e-01  0.000000e+00  8.586553e-01
   outer loop
     vertex  3.258622e-01 -1.587302e-02  3.700149e-01
     vertex  3.258622e-01 -3.174604e-01  3.700149e-01
     vertex  3.734465e-01 -3.174604e-01  3.984192e-01
   endloop
 endfacet
 facet normal -5.125535e-01  0.000000e+00  8.586553e-01
   outer loop
     vertex  3.258622e-01 -1.587302e-02  3.700149e-01
     vertex  3.734465e-01 -3.174604e-01  3.984192e-01
     vertex  3.734465e-01 -1.587302e-02  3.984192e-01
   endloop
 endfacet
 facet normal -4.496753e-01  0.000000e+00  8.931921e-01
   outer loop
     vertex  2.763639e-01 -1.587302e-02  3.450952e-01
     vertex  2.763639e-01 -3.174604e-01  3.450952e-01
     vertex  3.258622e-01 -3.174604e-01  3.700149e-01
   endloop
 endfacet
 facet normal -4.496753e-01  0.000000e+00  8.931921e-01
   outer loop
     vertex  2.763639e-01 -1.587302e-02  3.450952e-01
     vertex  3.258622e-01 -3.174604e-01  3.700149e-01
     vertex  3.258622e-01 -1.587302e-02  3.700149e-01
   endloop
 endfacet
 facet normal -3.844830e-01  0.000000e+00  9.231321e-01
   outer loop
     vertex  2.252065e-01 -1.587302e-02  3.237882e-01
     vertex  2.252065e-01 -3.174604e-01  3.237882e-01
     vertex  2.763639e-01 -3.174604e-01  3.450952e-01
   endloop
 endfacet
 facet normal -3.844830e-01  0.000000e+00  9.231321e-01
   outer loop
     vertex  2.252065e-01 -1.587302e-02  3.237882e-01
     vertex  2.763639e-01 -3.174604e-01  3.450952e-01
     vertex  2.763639e-01 -1.587302e-02  3.450952e-01
   endloop
 endfacet
 facet normal -3.173119e-01  0.000000e+00  9.483212e-01
   outer loop
     vertex  1.726532e-01 -1.587302e-02  3.062036e-01
     vertex  1.726532e-01 -3.174604e-01  3.062036e-01
     vertex  2.252065e-01 -3.174604e-01  3.237882e-01
   endloop
 endfacet
 facet normal -3.173119e-01  0.000000e+00  9.483212e-01
   outer loop
     vertex  1.726532e-01 -1.587302e-02  3.062036e-01
     vertex  2.252065e-01 -3.174604e-01  3.237882e-01
     vertex  2.252065e-01 -1.587302e-02  3.237882e-01
   endloop
 endfacet
 facet normal -2.485078e-01  0.000000e+00  9.686299e-01
   outer loop
     vertex  1.189744e-01 -1.587302e-02  2.924320e-01
     vertex  1.189744e-01 -3.174604e-01  2.924320e-01
     vertex  1.726532e-01 -3.174604e-01  3.062036e-01
   endloop
 endfacet
 facet normal -1.784248e-01  0.000000e+00  9.839536e-01
   outer loop
     vertex  1.189744e-01 -1.587302e-02  2.924320e-01
     vertex  6.444641e-02 -3.174604e-01  2.825442e-01
     vertex  1.189744e-01 -3.174604e-01  2.924320e-01
   endloop
 endfacet
 facet normal -2.485078e-01  0.000000e+00  9.686299e-01
   outer loop
     vertex  1.189744e-01 -1.587302e-02  2.924320e-01
     vertex  1.726532e-01 -3.174604e-01  3.062036e-01
     vertex  1.726532e-01 -1.587302e-02  3.062036e-01
   endloop
 endfacet
 facet normal -1.784248e-01  0.000000e+00  9.839536e-01
   outer loop
     vertex  6.444641e-02 -1.587302e-02  2.825442e-01
     vertex  6.444641e-02 -3.174604e-01  2.825442e-01
     vertex  1.189744e-01 -1.587302e-02  2.924320e-01
   endloop
 endfacet
 facet normal -1.074235e-01  0.000000e+00  9.942134e-01
   outer loop
     vertex  9.349856e-03 -1.587302e-02  2.765911e-01
     vertex  9.349856e-03 -3.174604e-01  2.765911e-01
     vertex  6.444641e-02 -3.174604e-01  2.825442e-01
   endloop
 endfacet
 facet normal -1.074235e-01  0.000000e+00  9.942134e-01
   outer loop
     vertex  9.349856e-03 -1.587302e-02  2.765911e-01
     vertex  6.444641e-02 -3.174604e-01  2.825442e-01
     vertex  6.444641e-02 -1.587302e-02  2.825442e-01
   endloop
 endfacet
 facet normal -3.586937e-02  0.000000e+00  9.993565e-01
   outer loop
     vertex -4.603171e-02 -1.587302e-02  2.746033e-01
     vertex -4.603171e-02 -3.174604e-01  2.746033e-01
     vertex  9.349856e-03 -3.174604e-01  2.765911e-01
   endloop
 endfacet
 facet normal -3.586937e-02  0.000000e+00  9.993565e-01
   outer loop
     vertex -4.603171e-02 -1.587302e-02  2.746033e-01
     vertex  9.349856e-03 -3.174604e-01  2.765911e-01
     vertex  9.349856e-03 -1.587302e-02  2.765911e-01
   endloop
 endfacet
 facet normal  3.586937e-02  0.000000e+00  9.993565e-01
   outer loop
     vertex -1.014133e-01 -1.587302e-02  2.765911e-01
     vertex -1.014133e-01 -3.174604e-01  2.765911e-01
     vertex -4.603171e-02 -3.174604e-01  2.746033e-01
   endloop
 endfacet
 facet normal  1.074235e-01  0.000000e+00  9.942134e-01
   outer loop
     vertex -1.014133e-01 -1.587302e-02  2.765911e-01
     vertex -1.565098e-01 -3.174604e-01  2.825442e-01
     vertex -1.014133e-01 -3.174604e-01  2.765911e-01
   endloop
 endfacet
 facet normal  3.586937e-02  0.000000e+00  9.993565e-01
   outer loop
     vertex -1.014133e-01 -1.587302e-02  2.765911e-01
     vertex -4.603171e-02 -3.174604e-01  2.746033e-01
     vertex -4.603171e-02 -1.587302e-02  2.746033e-01
   endloop
 endfacet
 facet normal  1.074235e-01  0.000000e+00  9.942134e-01
   outer loop
     vertex -1.565098e-01 -1.587302e-02  2.825442e-01
     vertex -1.565098e-01 -3.174604e-01  2.825442e-01
     vertex -1.014133e-01 -1.587302e-02  2.765911e-01
   endloop
 endfacet
 facet normal  1.784248e-01  0.000000e+00  9.839536e-01
   outer loop
     vertex -2.110378e-01 -1.587302e-02  2.924320e-01
     vertex -2.110378e-01 -3.174604e-01  2.924320e-01
     vertex -1.565098e-01 -3.174604e-01  2.825442e-01
   endloop
 endfacet
 facet normal  1.784248e-01  0.000000e+00  9.839536e-01
   outer loop
     vertex -2.110378e-01 -1.587302e-02  2.924320e-01
     vertex -1.565098e-01 -3.174604e-01  2.825442e-01
     vertex -1.565098e-01 -1.587302e-02  2.825442e-01
   endloop
 endfacet
 facet normal  2.485078e-01  0.000000e+00  9.686299e-01
   outer loop
     vertex -2.647166e-01 -1.587302e-02  3.062036e-01
     vertex -2.110378e-01 -3.174604e-01  2.924320e-01
     vertex -2.110378e-01 -1.587302e-02  2.924320e-01
   endloop
 endfacet
 facet normal  2.485078e-01  0.000000e+00  9.686299e-01
   outer loop
     vertex -2.647166e-01 -1.587302e-02  3.062036e-01
     vertex -2.647166e-01 -3.174604e-01  3.062036e-01
     vertex -2.110378e-01 -3.174604e-01  2.924320e-01
   endloop
 endfacet
 facet normal  3.173119e-01  0.000000e+00  9.483212e-01
   outer loop
     vertex -3.172699e-01 -1.587302e-02  3.237882e-01
     vertex -2.647166e-01 -3.174604e-01  3.062036e-01
     vertex -2.647166e-01 -1.587302e-02  3.062036e-01
   endloop
 endfacet
 facet normal  3.173119e-01  0.000000e+00  9.483212e-01
   outer loop
     vertex -3.172699e-01 -1.587302e-02  3.237882e-01
     vertex -3.172699e-01 -3.174604e-01  3.237882e-01
     vertex -2.647166e-01 -3.174604e-01  3.062036e-01
   endloop
 endfacet
 facet normal  3.844830e-01  0.000000e+00  9.231321e-01
   outer loop
     vertex -3.172699e-01 -1.587302e-02  3.237882e-01
     vertex -3.684274e-01 -3.174604e-01  3.450952e-01
     vertex -3.172699e-01 -3.174604e-01  3.237882e-01
   endloop
 endfacet
 facet normal  4.496753e-01  0.000000e+00  8.931921e-01
   outer loop
     vertex -3.684274e-01 -1.587302e-02  3.450952e-01
     vertex -4.179256e-01 -3.174604e-01  3.700149e-01
     vertex -3.684274e-01 -3.174604e-01  3.450952e-01
   endloop
 endfacet
 facet normal  3.844830e-01  0.000000e+00  9.231321e-01
   outer loop
     vertex -3.684274e-01 -1.587302e-02  3.450952e-01
     vertex -3.684274e-01 -3.174604e-01  3.450952e-01
     vertex -3.172699e-01 -1.587302e-02  3.237882e-01
   endloop
 endfacet
 facet normal  4.496753e-01  0.000000e+00  8.931921e-01
   outer loop
     vertex -4.179256e-01 -1.587302e-02  3.700149e-01
     vertex -4.179256e-01 -3.174604e-01  3.700149e-01
     vertex -3.684274e-01 -1.587302e-02  3.450952e-01
   endloop
 endfacet
 facet normal  5.125535e-01  0.000000e+00  8.586553e-01
   outer loop
     vertex -4.655099e-01 -1.587302e-02  3.984192e-01
     vertex -4.179256e-01 -3.174604e-01  3.700149e-01
     vertex -4.179256e-01 -1.587302e-02  3.700149e-01
   endloop
 endfacet
 facet normal  5.125535e-01  0.000000e+00  8.586553e-01
   outer loop
     vertex -4.655099e-01 -1.587302e-02  3.984192e-01
     vertex -4.655099e-01 -3.174604e-01  3.984192e-01
     vertex -4.179256e-01 -3.174604e-01  3.700149e-01
   endloop
 endfacet
 facet normal  5.727938e-01  0.000000e+00  8.196995e-01
   outer loop
     vertex -5.109354e-01 -1.587302e-02  4.301619e-01
     vertex -4.655099e-01 -3.174604e-01  3.984192e-01
     vertex -4.655099e-01 -1.587302e-02  3.984192e-01
   endloop
 endfacet
 facet normal  5.727938e-01  0.000000e+00  8.196995e-01
   outer loop
     vertex -5.109354e-01 -1.587302e-02  4.301619e-01
     vertex -5.109354e-01 -3.174604e-01  4.301619e-01
     vertex -4.655099e-01 -3.174604e-01  3.984192e-01
   endloop
 endfacet
 facet normal  6.300862e-01  0.000000e+00  7.765252e-01
   outer loop
     vertex -5.539683e-01 -1.587302e-02  4.650795e-01
     vertex -5.539683e-01 -3.174604e-01  4.650795e-01
     vertex -5.109354e-01 -3.174604e-01  4.301619e-01
   endloop
 endfacet
 facet normal  6.300862e-01  0.000000e+00  7.765252e-01
   outer loop
     vertex -5.539683e-01 -1.587302e-02  4.650795e-01
     vertex -5.109354e-01 -3.174604e-01  4.301619e-01
     vertex -5.109354e-01 -1.587302e-02  4.301619e-01
   endloop
 endfacet
 facet normal -1.165734e-16  0.000000e+00  1.000000e+00
   outer loop
     vertex -1.030159e+00 -1.587302e-02  4.650795e-01
     vertex -5.539683e-01 -1.587302e-02  4.650795e-01
     vertex -5.539683e-01  0.000000e+00  4.650795e-01
   endloop
 endfacet
 facet normal -1.165734e-16  0.000000e+00  1.000000e+00
   outer loop
     vertex -1.030159e+00 -1.587302e-02  4.650795e-01
     vertex -5.539683e-01  0.000000e+00  4.650795e-01
     vertex -1.030159e+00  0.000000e+00  4.650795e-01
   endloop
 endfacet
 facet normal  6.300862e-01  0.000000e+00 -7.765252e-01
   outer loop
     vertex -5.109354e-01 -1.587302e-02 -7.939419e-03
     vertex -5.539683e-01 -3.174604e-01 -4.285705e-02
     vertex -5.539683e-01 -1.587302e-02 -4.285705e-02
   endloop
 endfacet
 facet normal  6.300862e-01  0.000000e+00 -7.765252e-01
   outer loop
     vertex -5.109354e-01 -1.587302e-02 -7.939419e-03
     vertex -5.109354e-01 -3.174604e-01 -7.939419e-03
     vertex -5.539683e-01 -3.174604e-01 -4.285705e-02
   endloop
 endfacet
 facet normal  5.727938e-01  0.000000e+00 -8.196995e-01
   outer loop
     vertex -4.655099e-01 -1.587302e-02  2.380322e-02
     vertex -4.655099e-01 -3.174604e-01  2.380322e-02
     vertex -5.109354e-01 -3.174604e-01 -7.939419e-03
   endloop
 endfacet
 facet normal  5.727938e-01  0.000000e+00 -8.196995e-01
   outer loop
     vertex -4.655099e-01 -1.587302e-02  2.380322e-02
     vertex -5.109354e-01 -3.174604e-01 -7.939419e-03
     vertex -5.109354e-01 -1.587302e-02 -7.939419e-03
   endloop
 endfacet
 facet normal  5.125535e-01  0.000000e+00 -8.586553e-01
   outer loop
     vertex -4.179256e-01 -1.587302e-02  5.220752e-02
     vertex -4.179256e-01 -3.174604e-01  5.220752e-02
     vertex -4.655099e-01 -3.174604e-01  2.380322e-02
   endloop
 endfacet
 facet normal  5.125535e-01  0.000000e+00 -8.586553e-01
   outer loop
     vertex -4.179256e-01 -1.587302e-02  5.220752e-02
     vertex -4.655099e-01 -3.174604e-01  2.380322e-02
     vertex -4.655099e-01 -1.587302e-02  2.380322e-02
   endloop
 endfacet
 facet normal  4.496753e-01  0.000000e+00 -8.931921e-01
   outer loop
     vertex -3.684274e-01 -1.587302e-02  7.712728e-02
     vertex -3.684274e-01 -3.174604e-01  7.712728e-02
     vertex -4.179256e-01 -3.174604e-01  5.220752e-02
   endloop
 endfacet
 facet normal  4.496753e-01  0.000000e+00 -8.931921e-01
   outer loop
     vertex -3.684274e-01 -1.587302e-02  7.712728e-02
     vertex -4.179256e-01 -3.174604e-01  5.220752e-02
     vertex -4.179256e-01 -1.587302e-02  5.220752e-02
   endloop
 endfacet
 facet normal  3.844830e-01  0.000000e+00 -9.231321e-01
   outer loop
     vertex -3.172699e-01 -1.587302e-02  9.843426e-02
     vertex -3.172699e-01 -3.174604e-01  9.843426e-02
     vertex -3.684274e-01 -3.174604e-01  7.712728e-02
   endloop
 endfacet
 facet normal  3.844830e-01  0.000000e+00 -9.231321e-01
   outer loop
     vertex -3.172699e-01 -1.587302e-02  9.843426e-02
     vertex -3.684274e-01 -3.174604e-01  7.712728e-02
     vertex -3.684274e-01 -1.587302e-02  7.712728e-02
   endloop
 endfacet
 facet normal  3.173119e-01  0.000000e+00 -9.483212e-01
   outer loop
     vertex -2.647166e-01 -1.587302e-02  1.160188e-01
     vertex -2.647166e-01 -3.174604e-01  1.160188e-01
     vertex -3.172699e-01 -3.174604e-01  9.843426e-02
   endloop
 endfacet
 facet normal  3.173119e-01  0.000000e+00 -9.483212e-01
   outer loop
     vertex -2.647166e-01 -1.587302e-02  1.160188e-01
     vertex -3.172699e-01 -3.174604e-01  9.843426e-02
     vertex -3.172699e-01 -1.587302e-02  9.843426e-02
   endloop
 endfacet
 facet normal  2.485078e-01  0.000000e+00 -9.686299e-01
   outer loop
     vertex -2.110378e-01 -1.587302e-02  1.297904e-01
     vertex -2.110378e-01 -3.174604e-01  1.297904e-01
     vertex -2.647166e-01 -3.174604e-01  1.160188e-01
   endloop
 endfacet
 facet normal  2.485078e-01  0.000000e+00 -9.686299e-01
   outer loop
     vertex -2.110378e-01 -1.587302e-02  1.297904e-01
     vertex -2.647166e-01 -3.174604e-01  1.160188e-01
     vertex -2.647166e-01 -1.587302e-02  1.160188e-01
   endloop
 endfacet
 facet normal  1.784248e-01  0.000000e+00 -9.839536e-01
   outer loop
     vertex -1.565098e-01 -1.587302e-02  1.396782e-01
     vertex -1.565098e-01 -3.174604e-01  1.396782e-01
     vertex -2.110378e-01 -3.174604e-01  1.297904e-01
   endloop
 endfacet
 facet normal  1.784248e-01  0.000000e+00 -9.839536e-01
   outer loop
     vertex -1.565098e-01 -1.587302e-02  1.396782e-01
     vertex -2.110378e-01 -3.174604e-01  1.297904e-01
     vertex -2.110378e-01 -1.587302e-02  1.297904e-01
   endloop
 endfacet
 facet normal  1.074235e-01  0.000000e+00 -9.942134e-01
   outer loop
     vertex -1.014133e-01 -1.587302e-02  1.456313e-01
     vertex -1.014133e-01 -3.174604e-01  1.456313e-01
     vertex -1.565098e-01 -3.174604e-01  1.396782e-01
   endloop
 endfacet
 facet normal  1.074235e-01  0.000000e+00 -9.942134e-01
   outer loop
     vertex -1.014133e-01 -1.587302e-02  1.456313e-01
     vertex -1.565098e-01 -3.174604e-01  1.396782e-01
     vertex -1.565098e-01 -1.587302e-02  1.396782e-01
   endloop
 endfacet
 facet normal  3.586937e-02  0.000000e+00 -9.993565e-01
   outer loop
     vertex -4.603171e-02 -1.587302e-02  1.476191e-01
     vertex -4.603171e-02 -3.174604e-01  1.476191e-01
     vertex -1.014133e-01 -3.174604e-01  1.456313e-01
   endloop
 endfacet
 facet normal  3.586937e-02  0.000000e+00 -9.993565e-01
   outer loop
     vertex -4.603171e-02 -1.587302e-02  1.476191e-01
     vertex -1.014133e-01 -3.174604e-01  1.456313e-01
     vertex -1.014133e-01 -1.587302e-02  1.456313e-01
   endloop
 endfacet
 facet normal -3.586937e-02 -0.000000e+00 -9.993565e-01
   outer loop
     vertex  9.349856e-03 -1.587302e-02  1.456313e-01
     vertex  9.349856e-03 -3.174604e-01  1.456313e-01
     vertex -4.603171e-02 -3.174604e-01  1.476191e-01
   endloop
 endfacet
 facet normal -3.586937e-02  0.000000e+00 -9.993565e-01
   outer loop
     vertex  9.349856e-03 -1.587302e-02  1.456313e-01
     vertex -4.603171e-02 -3.174604e-01  1.476191e-01
     vertex -4.603171e-02 -1.587302e-02  1.476191e-01
   endloop
 endfacet
 facet normal -1.074235e-01 -0.000000e+00 -9.942134e-01
   outer loop
     vertex  6.444641e-02 -1.587302e-02  1.396782e-01
     vertex  6.444641e-02 -3.174604e-01  1.396782e-01
     vertex  9.349856e-03 -3.174604e-01  1.456313e-01
   endloop
 endfacet
 facet normal -1.784248e-01 -0.000000e+00 -9.839536e-01
   outer loop
     vertex  6.444641e-02 -1.587302e-02  1.396782e-01
     vertex  1.189744e-01 -3.174604e-01  1.297904e-01
     vertex  6.444641e-02 -3.174604e-01  1.396782e-01
   endloop
 endfacet
 facet normal -1.074235e-01  0.000000e+00 -9.942134e-01
   outer loop
     vertex  6.444641e-02 -1.587302e-02  1.396782e-01
     vertex  9.349856e-03 -3.174604e-01  1.456313e-01
     vertex  9.349856e-03 -1.587302e-02  1.456313e-01
   endloop
 endfacet
 facet normal -1.784248e-01 -0.000000e+00 -9.839536e-01
   outer loop
     vertex  1.189744e-01 -1.587302e-02  1.297904e-01
     vertex  1.189744e-01 -3.174604e-01  1.297904e-01
     vertex  6.444641e-02 -1.587302e-02  1.396782e-01
   endloop
 endfacet
 facet normal -2.485078e-01  0.000000e+00 -9.686299e-01
   outer loop
     vertex  1.726532e-01 -1.587302e-02  1.160188e-01
     vertex  1.189744e-01 -3.174604e-01  1.297904e-01
     vertex  1.189744e-01 -1.587302e-02  1.297904e-01
   endloop
 endfacet
 facet normal -2.485078e-01 -0.000000e+00 -9.686299e-01
   outer loop
     vertex  1.726532e-01 -1.587302e-02  1.160188e-01
     vertex  1.726532e-01 -3.174604e-01  1.160188e-01
     vertex  1.189744e-01 -3.174604e-01  1.297904e-01
   endloop
 endfacet
 facet normal -3.173119e-01  0.000000e+00 -9.483212e-01
   outer loop
     vertex  2.252065e-01 -1.587302e-02  9.843426e-02
     vertex  1.726532e-01 -3.174604e-01  1.160188e-01
     vertex  1.726532e-01 -1.587302e-02  1.160188e-01
   endloop
 endfacet
 facet normal -3.173119e-01 -0.000000e+00 -9.483212e-01
   outer loop
     vertex  2.252065e-01 -1.587302e-02  9.843426e-02
     vertex  2.252065e-01 -3.174604e-01  9.843426e-02
     vertex  1.726532e-01 -3.174604e-01  1.160188e-01
   endloop
 endfacet
 facet normal -3.844830e-01  0.000000e+00 -9.231321e-01
   outer loop
     vertex  2.763639e-01 -1.587302e-02  7.712728e-02
     vertex  2.252065e-01 -3.174604e-01  9.843426e-02
     vertex  2.252065e-01 -1.587302e-02  9.843426e-02
   endloop
 endfacet
 facet normal -3.844830e-01 -0.000000e+00 -9.231321e-01
   outer loop
     vertex  2.763639e-01 -1.587302e-02  7.712728e-02
     vertex  2.763639e-01 -3.174604e-01  7.712728e-02
     vertex  2.252065e-01 -3.174604e-01  9.843426e-02
   endloop
 endfacet
 facet normal -4.496753e-01  0.000000e+00 -8.931921e-01
   outer loop
     vertex  3.258622e-01 -1.587302e-02  5.220752e-02
     vertex  2.763639e-01 -3.174604e-01  7.712728e-02
     vertex  2.763639e-01 -1.587302e-02  7.712728e-02
   endloop
 endfacet
 facet normal -4.496753e-01 -0.000000e+00 -8.931921e-01
   outer loop
     vertex  3.258622e-01 -1.587302e-02  5.220752e-02
     vertex  3.258622e-01 -3.174604e-01  5.220752e-02
     vertex  2.763639e-01 -3.174604e-01  7.712728e-02
   endloop
 endfacet
 facet normal -5.125535e-01 -0.000000e+00 -8.586553e-01
   outer loop
     vertex  3.734465e-01 -1.587302e-02  2.380322e-02
     vertex  3.734465e-01 -3.174604e-01  2.380322e-02
     vertex  3.258622e-01 -3.174604e-01  5.220752e-02
   endloop
 endfacet
 facet normal -5.125535e-01  0.000000e+00 -8.586553e-01
   outer loop
     vertex  3.734465e-01 -1.587302e-02  2.380322e-02
     vertex  3.258622e-01 -3.174604e-01  5.220752e-02
     vertex  3.258622e-01 -1.587302e-02  5.220752e-02
   endloop
 endfacet
 facet normal -5.727938e-01  0.000000e+00 -8.196995e-01
   outer loop
     vertex  4.188719e-01 -1.587302e-02 -7.939419e-03
     vertex  3.734465e-01 -3.174604e-01  2.380322e-02
     vertex  3.734465e-01 -1.587302e-02  2.380322e-02
   endloop
 endfacet
 facet normal -5.727938e-01 -0.000000e+00 -8.196995e-01
   outer loop
     vertex  4.188719e-01 -1.587302e-02 -7.939419e-03
     vertex  4.188719e-01 -3.174604e-01 -7.939419e-03
     vertex  3.734465e-01 -3.174604e-01  2.380322e-02
   endloop
 endfacet
 facet normal -6.300862e-01 -0.000000e+00 -7.765252e-01
   outer loop
     vertex  4.188719e-01 -1.587302e-02 -7.939419e-03
     vertex  4.619048e-01 -3.174604e-01 -4.285705e-02
     vertex  4.188719e-01 -3.174604e-01 -7.939419e-03
   endloop
 endfacet
 facet normal -6.300862e-01 -0.000000e+00 -7.765252e-01
   outer loop
     vertex  4.619048e-01 -1.587302e-02 -4.285705e-02
     vertex  4.619048e-01 -3.174604e-01 -4.285705e-02
     vertex  4.188719e-01 -1.587302e-02 -7.939419e-03
   endloop
 endfacet
 facet normal -4.371503e-17  0.000000e+00 -1.000000e+00
   outer loop
     vertex -5.539683e-01 -1.587302e-02 -4.285705e-02
     vertex -1.030159e+00 -1.587302e-02 -4.285705e-02
     vertex -1.030159e+00  0.000000e+00 -4.285705e-02
   endloop
 endfacet
 facet normal -4.371503e-17  0.000000e+00 -1.000000e+00
   outer loop
     vertex -5.539683e-01 -1.587302e-02 -4.285705e-02
     vertex -1.030159e+00  0.000000e+00 -4.285705e-02
     vertex -5.539683e-01  0.000000e+00 -4.285705e-02
   endloop
 endfacet
 facet normal  0.000000e+00  1.000000e+00  0.000000e+00
   outer loop
     vertex -5.539683e-01  1.040834e-17  4.650795e-01
     vertex -1.030159e+00  1.040834e-17 -4.285705e-02
     vertex -1.030159e+00  1.040834e-17  4.650795e-01
   endloop
 endfacet
 facet normal  0.000000e+00  1.000000e+00  0.000000e+00
   outer loop
     vertex -5.539683e-01  1.040834e-17  4.650795e-01
     vertex -5.539683e-01  1.040834e-17 -4.285705e-02
     vertex -1.030159e+00  1.040834e-17 -4.285705e-02
   endloop
 endfacet
 facet normal  0.000000e+00  1.000000e+00  0.000000e+00
   outer loop
     vertex -5.109354e-01  1.040834e-17  4.301619e-01
     vertex -5.109354e-01  1.040834e-17 -7.939419e-03
     vertex -5.539683e-01  1.040834e-17 -4.285705e-02
   endloop
 endfacet
 facet normal  0.000000e+00  1.000000e+00  0.000000e+00
   outer loop
     vertex -5.109354e-01  1.040834e-17  4.301619e-01
     vertex -5.539683e-01  1.040834e-17 -4.285705e-02
     vertex -5.539683e-01  1.040834e-17  4.650795e-01
   endloop
 endfacet
 facet normal  0.000000e+00  1.000000e+00  0.000000e+00
   outer loop
     vertex -4.655099e-01  1.040834e-17  3.984192e-01
     vertex -4.655099e-01  1.040834e-17  2.380322e-02
     vertex -5.109354e-01  1.040834e-17 -7.939419e-03
   endloop
 endfacet
 facet normal  0.000000e+00  1.000000e+00  0.000000e+00
   outer loop
     vertex -4.655099e-01  1.040834e-17  3.984192e-01
     vertex -5.109354e-01  1.040834e-17 -7.939419e-03
     vertex -5.109354e-01  1.040834e-17  4.301619e-01
   endloop
 endfacet
 facet normal  0.000000e+00  1.000000e+00  0.000000e+00
   outer loop
     vertex -4.179256e-01  1.040834e-17  3.700149e-01
     vertex -4.179256e-01  1.040834e-17  5.220752e-02
     vertex -4.655099e-01  1.040834e-17  2.380322e-02
   endloop
 endfacet
 facet normal  0.000000e+00  1.000000e+00  0.000000e+00
   outer loop
     vertex -4.179256e-01  1.040834e-17  3.700149e-01
     vertex -4.655099e-01  1.040834e-17  2.380322e-02
     vertex -4.655099e-01  1.040834e-17  3.984192e-01
   endloop
 endfacet
 facet normal  0.000000e+00  1.000000e+00  0.000000e+00
   outer loop
     vertex -3.684274e-01  1.040834e-17  3.450952e-01
     vertex -3.684274e-01  1.040834e-17  7.712728e-02
     vertex -4.179256e-01  1.040834e-17  5.220752e-02
   endloop
 endfacet
 facet normal  0.000000e+00  1.000000e+00  0.000000e+00
   outer loop
     vertex -3.684274e-01  1.040834e-17  3.450952e-01
     vertex -4.179256e-01  1.040834e-17  5.220752e-02
     vertex -4.179256e-01  1.040834e-17  3.700149e-01
   endloop
 endfacet
 facet normal  0.000000e+00  1.000000e+00  0.000000e+00
   outer loop
     vertex -3.172699e-01  1.040834e-17  3.237882e-01
     vertex -3.172699e-01  1.040834e-17  9.843426e-02
     vertex -3.684274e-01  1.040834e-17  7.712728e-02
   endloop
 endfacet
 facet normal  0.000000e+00  1.000000e+00  0.000000e+00
   outer loop
     vertex -3.172699e-01  1.040834e-17  3.237882e-01
     vertex -3.684274e-01  1.040834e-17  7.712728e-02
     vertex -3.684274e-01  1.040834e-17  3.450952e-01
   endloop
 endfacet
 facet normal  0.000000e+00  1.000000e+00  0.000000e+00
   outer loop
     vertex -2.647166e-01  1.040834e-17  3.062036e-01
     vertex -2.647166e-01  1.040834e-17  1.160188e-01
     vertex -3.172699e-01  1.040834e-17  9.843426e-02
   endloop
 endfacet
 facet normal  0.000000e+00  1.000000e+00  0.000000e+00
   outer loop
     vertex -2.647166e-01  1.040834e-17  3.062036e-01
     vertex -3.172699e-01  1.040834e-17  9.843426e-02
     vertex -3.172699e-01  1.040834e-17  3.237882e-01
   endloop
 endfacet
 facet normal  0.000000e+00  1.000000e+00  0.000000e+00
   outer loop
     vertex -2.110378e-01  1.040834e-17  2.924320e-01
     vertex -2.110378e-01  1.040834e-17  1.297904e-01
     vertex -2.647166e-01  1.040834e-17  1.160188e-01
   endloop
 endfacet
 facet normal  0.000000e+00  1.000000e+00  0.000000e+00
   outer loop
     vertex -2.110378e-01  1.040834e-17  2.924320e-01
     vertex -2.647166e-01  1.040834e-17  1.160188e-01
     vertex -2.647166e-01  1.040834e-17  3.062036e-01
   endloop
 endfacet
 facet normal  0.000000e+00  1.000000e+00  0.000000e+00
   outer loop
     vertex -1.565098e-01  1.040834e-17  2.825442e-01
     vertex -1.565098e-01  1.040834e-17  1.396782e-01
     vertex -2.110378e-01  1.040834e-17  1.297904e-01
   endloop
 endfacet
 facet normal  0.000000e+00  1.000000e+00  0.000000e+00
   outer loop
     vertex -1.565098e-01  1.040834e-17  2.825442e-01
     vertex -2.110378e-01  1.040834e-17  1.297904e-01
     vertex -2.110378e-01  1.040834e-17  2.924320e-01
   endloop
 endfacet
 facet normal  0.000000e+00  1.000000e+00  0.000000e+00
   outer loop
     vertex -1.014133e-01  1.040834e-17  2.765911e-01
     vertex -1.014133e-01  1.040834e-17  1.456313e-01
     vertex -1.565098e-01  1.040834e-17  1.396782e-01
   endloop
 endfacet
 facet normal  0.000000e+00  1.000000e+00  0.000000e+00
   outer loop
     vertex -1.014133e-01  1.040834e-17  2.765911e-01
     vertex -1.565098e-01  1.040834e-17  1.396782e-01
     vertex -1.565098e-01  1.040834e-17  2.825442e-01
   endloop
 endfacet
 facet normal  0.000000e+00  1.000000e+00  0.000000e+00
   outer loop
     vertex -4.603171e-02  1.040834e-17  2.746033e-01
     vertex -4.603171e-02  1.040834e-17  1.476191e-01
     vertex -1.014133e-01  1.040834e-17  1.456313e-01
   endloop
 endfacet
 facet normal  0.000000e+00  1.000000e+00  0.000000e+00
   outer loop
     vertex -4.603171e-02  1.040834e-17  2.746033e-01
     vertex -1.014133e-01  1.040834e-17  1.456313e-01
     vertex -1.014133e-01  1.040834e-17  2.765911e-01
   endloop
 endfacet
 facet normal  0.000000e+00  1.000000e+00  0.000000e+00
   outer loop
     vertex  9.349856e-03  1.040834e-17  2.765911e-01
     vertex  9.349856e-03  1.040834e-17  1.456313e-01
     vertex -4.603171e-02  1.040834e-17  1.476191e-01
   endloop
 endfacet
 facet normal  0.000000e+00  1.000000e+00  0.000000e+00
   outer loop
     vertex  9.349856e-03  1.040834e-17  2.765911e-01
     vertex -4.603171e-02  1.040834e-17  1.476191e-01
     vertex -4.603171e-02  1.040834e-17  2.746033e-01
   endloop
 endfacet
 facet normal  0.000000e+00  1.000000e+00  0.000000e+00
   outer loop
     vertex  6.444641e-02  1.040834e-17  2.825442e-01
     vertex  9.349856e-03  1.040834e-17  1.456313e-01
     vertex  9.349856e-03  1.040834e-17  2.765911e-01
   endloop
 endfacet
 facet normal  0.000000e+00  1.000000e+00  0.000000e+00
   outer loop
     vertex  6.444641e-02  1.040834e-17  2.825442e-01
     vertex  6.444641e-02  1.040834e-17  1.396782e-01
     vertex  9.349856e-03  1.040834e-17  1.456313e-01
   endloop
 endfacet
 facet normal  0.000000e+00  1.000000e+00  0.000000e+00
   outer loop
     vertex  1.189744e-01  1.040834e-17  2.924320e-01
     vertex  6.444641e-02  1.040834e-17  1.396782e-01
     vertex  6.444641e-02  1.040834e-17  2.825442e-01
   endloop
 endfacet
 facet normal  0.000000e+00  1.000000e+00  0.000000e+00
   outer loop
     vertex  1.189744e-01  1.040834e-17  2.924320e-01
     vertex  1.189744e-01  1.040834e-17  1.297904e-01
     vertex  6.444641e-02  1.040834e-17  1.396782e-01
   endloop
 endfacet
 facet normal  0.000000e+00  1.000000e+00  0.000000e+00
   outer loop
     vertex  1.726532e-01  1.040834e-17  3.062036e-01
     vertex  1.726532e-01  1.040834e-17  1.160188e-01
     vertex  1.189744e-01  1.040834e-17  1.297904e-01
   endloop
 endfacet
 facet normal  0.000000e+00  1.000000e+00  0.000000e+00
   outer loop
     vertex  1.726532e-01  1.040834e-17  3.062036e-01
     vertex  2.252065e-01  1.040834e-17  9.843426e-02
     vertex  1.726532e-01  1.040834e-17  1.160188e-01
   endloop
 endfacet
 facet normal  0.000000e+00  1.000000e+00  0.000000e+00
   outer loop
     vertex  1.726532e-01  1.040834e-17  3.062036e-01
     vertex  1.189744e-01  1.040834e-17  1.297904e-01
     vertex  1.189744e-01  1.040834e-17  2.924320e-01
   endloop
 endfacet
 facet normal  0.000000e+00  1.000000e+00  0.000000e+00
   outer loop
     vertex  2.252065e-01  1.040834e-17  3.237882e-01
     vertex  2.252065e-01  1.040834e-17  9.843426e-02
     vertex  1.726532e-01  1.040834e-17  3.062036e-01
   endloop
 endfacet
 facet normal  0.000000e+00  1.000000e+00  0.000000e+00
   outer loop
     vertex  2.763639e-01  1.040834e-17  3.450952e-01
     vertex  2.763639e-01  1.040834e-17  7.712728e-02
     vertex  2.252065e-01  1.040834e-17  9.843426e-02
   endloop
 endfacet
 facet normal  0.000000e+00  1.000000e+00  0.000000e+00
   outer loop
     vertex  2.763639e-01  1.040834e-17  3.450952e-01
     vertex  3.258622e-01  1.040834e-17  5.220752e-02
     vertex  2.763639e-01  1.040834e-17  7.712728e-02
   endloop
 endfacet
 facet normal  0.000000e+00  1.000000e+00  0.000000e+00
   outer loop
     vertex  2.763639e-01  1.040834e-17  3.450952e-01
     vertex  2.252065e-01  1.040834e-17  9.843426e-02
     vertex  2.252065e-01  1.040834e-17  3.237882e-01
   endloop
 endfacet
 facet normal  0.000000e+00  1.000000e+00  0.000000e+00
   outer loop
     vertex  3.258622e-01  1.040834e-17  3.700149e-01
     vertex  3.258622e-01  1.040834e-17  5.220752e-02
     vertex  2.763639e-01  1.040834e-17  3.450952e-01
   endloop
 endfacet
 facet normal  0.000000e+00  1.000000e+00  0.000000e+00
   outer loop
     vertex  3.734465e-01  1.040834e-17  3.984192e-01
     vertex  3.734465e-01  1.040834e-17  2.380322e-02
     vertex  3.258622e-01  1.040834e-17  5.220752e-02
   endloop
 endfacet
 facet normal  0.000000e+00  1.000000e+00  0.000000e+00
   outer loop
     vertex  3.734465e-01  1.040834e-17  3.984192e-01
     vertex  4.188719e-01  1.040834e-17 -7.939419e-03
     vertex  3.734465e-01  1.040834e-17  2.380322e-02
   endloop
 endfacet
 facet normal  0.000000e+00  1.000000e+00  0.000000e+00
   outer loop
     vertex  3.734465e-01  1.040834e-17  3.984192e-01
     vertex  3.258622e-01  1.040834e-17  5.220752e-02
     vertex  3.258622e-01  1.040834e-17  3.700149e-01
   endloop
 endfacet
 facet normal  0.000000e+00  1.000000e+00  0.000000e+00
   outer loop
     vertex  4.188719e-01  1.040834e-17  4.301619e-01
     vertex  4.188719e-01  1.040834e-17 -7.939419e-03
     vertex  3.734465e-01  1.040834e-17  3.984192e-01
   endloop
 endfacet
 facet normal  0.000000e+00  1.000000e+00  0.000000e+00
   outer loop
     vertex  4.619048e-01  1.040834e-17  4.650795e-01
     vertex  4.619048e-01  1.040834e-17 -4.285705e-02
     vertex  4.188719e-01  1.040834e-17 -7.939419e-03
   endloop
 endfacet
 facet normal  0.000000e+00  1.000000e+00  0.000000e+00
   outer loop
     vertex  4.619048e-01  1.040834e-17  4.650795e-01
     vertex  9.380953e-01  1.040834e-17 -4.285705e-02
     vertex  4.619048e-01  1.040834e-17 -4.285705e-02
   endloop
 endfacet
 facet normal  0.000000e+00  1.000000e+00  0.000000e+00
   outer loop
     vertex  4.619048e-01  1.040834e-17  4.650795e-01
     vertex  4.188719e-01  1.040834e-17 -7.939419e-03
     vertex  4.188719e-01  1.040834e-17  4.301619e-01
   endloop
 endfacet
 facet normal  0.000000e+00  1.000000e+00  0.000000e+00
   outer loop
     vertex  9.380953e-01  1.040834e-17  4.650795e-01
     vertex  9.380953e-01  1.040834e-17 -4.285705e-02
     vertex  4.619048e-01  1.040834e-17  4.650795e-01
   endloop
 endfacet
 facet normal -7.285839e-17  0.000000e+00 -1.000000e+00
   outer loop
     vertex  9.380953e-01 -1.587302e-02 -4.285705e-02
     vertex  4.619048e-01 -3.174604e-01 -4.285705e-02
     vertex  4.619048e-01 -1.587302e-02 -4.285705e-02
   endloop
 endfacet
 facet normal -7.285839e-17 -0.000000e+00 -1.000000e+00
   outer loop
     vertex  9.380953e-01 -1.587302e-02 -4.285705e-02
     vertex  9.380953e-01 -3.174604e-01 -4.285705e-02
     vertex  4.619048e-01 -3.174604e-01 -4.285705e-02
   endloop
 endfacet
 facet normal  1.000000e+00  0.000000e+00  0.000000e+00
   outer loop
     vertex  9.380953e-01 -1.587302e-02  4.650795e-01
     vertex  9.380953e-01 -3.174604e-01 -4.285705e-02
     vertex  9.380953e-01 -1.587302e-02 -4.285705e-02
   endloop
 endfacet
 facet normal  1.000000e+00  0.000000e+00  0.000000e+00
   outer loop
     vertex  9.380953e-01 -1.587302e-02  4.650795e-01
     vertex  9.380953e-01 -3.174604e-01  4.650795e-01
     vertex  9.380953e-01 -3.174604e-01 -4.285705e-02
   endloop
 endfacet
 facet normal  1.165734e-16  0.000000e+00  1.000000e+00
   outer loop
     vertex  4.619048e-01 -1.587302e-02  4.650795e-01
     vertex  9.380953e-01 -3.174604e-01  4.650795e-01
     vertex  9.380953e-01 -1.587302e-02  4.650795e-01
   endloop
 endfacet
 facet normal  1.165734e-16  0.000000e+00  1.000000e+00
   outer loop
     vertex  4.619048e-01 -1.587302e-02  4.650795e-01
     vertex  4.619048e-01 -3.174604e-01  4.650795e-01
     vertex  9.380953e-01 -3.174604e-01  4.650795e-01
   endloop
 endfacet
 facet normal -6.300862e-01  0.000000e+00  7.765252e-01
   outer loop
     vertex  4.188719e-01 -1.587302e-02  4.301619e-01
     vertex  4.619048e-01 -1.587302e-02  4.650795e-01
     vertex  4.619048e-01  0.000000e+00  4.650795e-01
   endloop
 endfacet
 facet normal -6.300862e-01  0.000000e+00  7.765252e-01
   outer loop
     vertex  4.188719e-01 -1.587302e-02  4.301619e-01
     vertex  4.619048e-01  0.000000e+00  4.650795e-01
     vertex  4.188719e-01  0.000000e+00  4.301619e-01
   endloop
 endfacet
 facet normal -5.727938e-01  0.000000e+00  8.196995e-01
   outer loop
     vertex  3.734465e-01 -1.587302e-02  3.984192e-01
     vertex  4.188719e-01  0.000000e+00  4.301619e-01
     vertex  3.734465e-01  0.000000e+00  3.984192e-01
   endloop
 endfacet
 facet normal -5.727938e-01  0.000000e+00  8.196995e-01
   outer loop
     vertex  3.734465e-01 -1.587302e-02  3.984192e-01
     vertex  4.188719e-01 -1.587302e-02  4.301619e-01
     vertex  4.188719e-01  0.000000e+00  4.301619e-01
   endloop
 endfacet
 facet normal -5.125535e-01  0.000000e+00  8.586553e-01
   outer loop
     vertex  3.258622e-01 -1.587302e-02  3.700149e-01
     vertex  3.734465e-01  0.000000e+00  3.984192e-01
     vertex  3.258622e-01  0.000000e+00  3.700149e-01
   endloop
 endfacet
 facet normal -5.125535e-01  0.000000e+00  8.586553e-01
   outer loop
     vertex  3.258622e-01 -1.587302e-02  3.700149e-01
     vertex  3.734465e-01 -1.587302e-02  3.984192e-01
     vertex  3.734465e-01  0.000000e+00  3.984192e-01
   endloop
 endfacet
 facet normal -4.496753e-01  0.000000e+00  8.931921e-01
   outer loop
     vertex  2.763639e-01 -1.587302e-02  3.450952e-01
     vertex  3.258622e-01  0.000000e+00  3.700149e-01
     vertex  2.763639e-01  0.000000e+00  3.450952e-01
   endloop
 endfacet
 facet normal -4.496753e-01  0.000000e+00  8.931921e-01
   outer loop
     vertex  2.763639e-01 -1.587302e-02  3.450952e-01
     vertex  3.258622e-01 -1.587302e-02  3.700149e-01
     vertex  3.258622e-01  0.000000e+00  3.700149e-01
   endloop
 endfacet
 facet normal -3.844830e-01  0.000000e+00  9.231321e-01
   outer loop
     vertex  2.252065e-01 -1.587302e-02  3.237882e-01
     vertex  2.763639e-01  0.000000e+00  3.450952e-01
     vertex  2.252065e-01  0.000000e+00  3.237882e-01
   endloop
 endfacet
 facet normal -3.844830e-01  0.000000e+00  9.231321e-01
   outer loop
     vertex  2.252065e-01 -1.587302e-02  3.237882e-01
     vertex  2.763639e-01 -1.587302e-02  3.450952e-01
     vertex  2.763639e-01  0.000000e+00  3.450952e-01
   endloop
 endfacet
 facet normal -3.173119e-01  0.000000e+00  9.483212e-01
   outer loop
     vertex  1.726532e-01 -1.587302e-02  3.062036e-01
     vertex  2.252065e-01  0.000000e+00  3.237882e-01
     vertex  1.726532e-01  0.000000e+00  3.062036e-01
   endloop
 endfacet
 facet normal -3.173119e-01  0.000000e+00  9.483212e-01
   outer loop
     vertex  1.726532e-01 -1.587302e-02  3.062036e-01
     vertex  2.252065e-01 -1.587302e-02  3.237882e-01
     vertex  2.252065e-01  0.000000e+00  3.237882e-01
   endloop
 endfacet
 facet normal -2.485078e-01  0.000000e+00  9.686299e-01
   outer loop
     vertex  1.189744e-01 -1.587302e-02  2.924320e-01
     vertex  1.726532e-01  0.000000e+00  3.062036e-01
     vertex  1.189744e-01  0.000000e+00  2.924320e-01
   endloop
 endfacet
 facet normal -2.485078e-01  0.000000e+00  9.686299e-01
   outer loop
     vertex  1.189744e-01 -1.587302e-02  2.924320e-01
     vertex  1.726532e-01 -1.587302e-02  3.062036e-01
     vertex  1.726532e-01  0.000000e+00  3.062036e-01
   endloop
 endfacet
 facet normal -1.784248e-01  0.000000e+00  9.839536e-01
   outer loop
     vertex  6.444641e-02 -1.587302e-02  2.825442e-01
     vertex  1.189744e-01  0.000000e+00  2.924320e-01
     vertex  6.444641e-02  0.000000e+00  2.825442e-01
   endloop
 endfacet
 facet normal -1.784248e-01  0.000000e+00  9.839536e-01
   outer loop
     vertex  6.444641e-02 -1.587302e-02  2.825442e-01
     vertex  1.189744e-01 -1.587302e-02  2.924320e-01
     vertex  1.189744e-01  0.000000e+00  2.924320e-01
   endloop
 endfacet
 facet normal -1.074235e-01  0.000000e+00  9.942134e-01
   outer loop
     vertex  9.349856e-03 -1.587302e-02  2.765911e-01
     vertex  6.444641e-02  0.000000e+00  2.825442e-01
     vertex  9.349856e-03  0.000000e+00  2.765911e-01
   endloop
 endfacet
 facet normal -1.074235e-01  0.000000e+00  9.942134e-01
   outer loop
     vertex  9.349856e-03 -1.587302e-02  2.765911e-01
     vertex  6.444641e-02 -1.587302e-02  2.825442e-01
     vertex  6.444641e-02  0.000000e+00  2.825442e-01
   endloop
 endfacet
 facet normal -3.586937e-02  0.000000e+00  9.993565e-01
   outer loop
     vertex -4.603171e-02 -1.587302e-02  2.746033e-01
     vertex  9.349856e-03  0.000000e+00  2.765911e-01
     vertex -4.603171e-02  0.000000e+00  2.746033e-01
   endloop
 endfacet
 facet normal -3.586937e-02  0.000000e+00  9.993565e-01
   outer loop
     vertex -4.603171e-02 -1.587302e-02  2.746033e-01
     vertex  9.349856e-03 -1.587302e-02  2.765911e-01
     vertex  9.349856e-03  0.000000e+00  2.765911e-01
   endloop
 endfacet
 facet normal  3.586937e-02 -0.000000e+00  9.993565e-01
   outer loop
     vertex -1.014133e-01 -1.587302e-02  2.765911e-01
     vertex -4.603171e-02  0.000000e+00  2.746033e-01
     vertex -1.014133e-01  0.000000e+00  2.765911e-01
   endloop
 endfacet
 facet normal  3.586937e-02  0.000000e+00  9.993565e-01
   outer loop
     vertex -1.014133e-01 -1.587302e-02  2.765911e-01
     vertex -4.603171e-02 -1.587302e-02  2.746033e-01
     vertex -4.603171e-02  0.000000e+00  2.746033e-01
   endloop
 endfacet
 facet normal  1.074235e-01 -0.000000e+00  9.942134e-01
   outer loop
     vertex -1.565098e-01 -1.587302e-02  2.825442e-01
     vertex -1.014133e-01  0.000000e+00  2.765911e-01
     vertex -1.565098e-01  0.000000e+00  2.825442e-01
   endloop
 endfacet
 facet normal  1.074235e-01  0.000000e+00  9.942134e-01
   outer loop
     vertex -1.565098e-01 -1.587302e-02  2.825442e-01
     vertex -1.014133e-01 -1.587302e-02  2.765911e-01
     vertex -1.014133e-01  0.000000e+00  2.765911e-01
   endloop
 endfacet
 facet normal  1.784248e-01 -0.000000e+00  9.839536e-01
   outer loop
     vertex -2.110378e-01 -1.587302e-02  2.924320e-01
     vertex -1.565098e-01  0.000000e+00  2.825442e-01
     vertex -2.110378e-01  0.000000e+00  2.924320e-01
   endloop
 endfacet
 facet normal  1.784248e-01  0.000000e+00  9.839536e-01
   outer loop
     vertex -2.110378e-01 -1.587302e-02  2.924320e-01
     vertex -1.565098e-01 -1.587302e-02  2.825442e-01
     vertex -1.565098e-01  0.000000e+00  2.825442e-01
   endloop
 endfacet
 facet normal  2.485078e-01  0.000000e+00  9.686299e-01
   outer loop
     vertex -2.647166e-01 -1.587302e-02  3.062036e-01
     vertex -2.110378e-01 -1.587302e-02  2.924320e-01
     vertex -2.110378e-01  0.000000e+00  2.924320e-01
   endloop
 endfacet
 facet normal  2.485078e-01 -0.000000e+00  9.686299e-01
   outer loop
     vertex -2.647166e-01 -1.587302e-02  3.062036e-01
     vertex -2.110378e-01  0.000000e+00  2.924320e-01
     vertex -2.647166e-01  0.000000e+00  3.062036e-01
   endloop
 endfacet
 facet normal  3.173119e-01  0.000000e+00  9.483212e-01
   outer loop
     vertex -3.172699e-01 -1.587302e-02  3.237882e-01
     vertex -2.647166e-01 -1.587302e-02  3.062036e-01
     vertex -2.647166e-01  0.000000e+00  3.062036e-01
   endloop
 endfacet
 facet normal  3.173119e-01 -0.000000e+00  9.483212e-01
   outer loop
     vertex -3.172699e-01 -1.587302e-02  3.237882e-01
     vertex -2.647166e-01  0.000000e+00  3.062036e-01
     vertex -3.172699e-01  0.000000e+00  3.237882e-01
   endloop
 endfacet
 facet normal  3.844830e-01  0.000000e+00  9.231321e-01
   outer loop
     vertex -3.684274e-01 -1.587302e-02  3.450952e-01
     vertex -3.172699e-01 -1.587302e-02  3.237882e-01
     vertex -3.172699e-01  0.000000e+00  3.237882e-01
   endloop
 endfacet
 facet normal  3.844830e-01 -0.000000e+00  9.231321e-01
   outer loop
     vertex -3.684274e-01 -1.587302e-02  3.450952e-01
     vertex -3.172699e-01  0.000000e+00  3.237882e-01
     vertex -3.684274e-01  0.000000e+00  3.450952e-01
   endloop
 endfacet
 facet normal  4.496753e-01  0.000000e+00  8.931921e-01
   outer loop
     vertex -4.179256e-01 -1.587302e-02  3.700149e-01
     vertex -3.684274e-01 -1.587302e-02  3.450952e-01
     vertex -3.684274e-01  0.000000e+00  3.450952e-01
   endloop
 endfacet
 facet normal  4.496753e-01 -0.000000e+00  8.931921e-01
   outer loop
     vertex -4.179256e-01 -1.587302e-02  3.700149e-01
     vertex -3.684274e-01  0.000000e+00  3.450952e-01
     vertex -4.179256e-01  0.000000e+00  3.700149e-01
   endloop
 endfacet
 facet normal  5.125535e-01 -0.000000e+00  8.586553e-01
   outer loop
     vertex -4.655099e-01 -1.587302e-02  3.984192e-01
     vertex -4.179256e-01  0.000000e+00  3.700149e-01
     vertex -4.655099e-01  0.000000e+00  3.984192e-01
   endloop
 endfacet
 facet normal  5.125535e-01  0.000000e+00  8.586553e-01
   outer loop
     vertex -4.655099e-01 -1.587302e-02  3.984192e-01
     vertex -4.179256e-01 -1.587302e-02  3.700149e-01
     vertex -4.179256e-01  0.000000e+00  3.700149e-01
   endloop
 endfacet
 facet normal  5.727938e-01 -0.000000e+00  8.196995e-01
   outer loop
     vertex -5.109354e-01 -1.587302e-02  4.301619e-01
     vertex -4.655099e-01  0.000000e+00  3.984192e-01
     vertex -5.109354e-01  0.000000e+00  4.301619e-01
   endloop
 endfacet
 facet normal  5.727938e-01  0.000000e+00  8.196995e-01
   outer loop
     vertex -5.109354e-01 -1.587302e-02  4.301619e-01
     vertex -4.655099e-01 -1.587302e-02  3.984192e-01
     vertex -4.655099e-01  0.000000e+00  3.984192e-01
   endloop
 endfacet
 facet normal  6.300862e-01 -0.000000e+00  7.765252e-01
   outer loop
     vertex -5.539683e-01 -1.587302e-02  4.650795e-01
     vertex -5.109354e-01  0.000000e+00  4.301619e-01
     vertex -5.539683e-01  0.000000e+00  4.650795e-01
   endloop
 endfacet
 facet normal  6.300862e-01  0.000000e+00  7.765252e-01
   outer loop
     vertex -5.539683e-01 -1.587302e-02  4.650795e-01
     vertex -5.109354e-01 -1.587302e-02  4.301619e-01
     vertex -5.109354e-01  0.000000e+00  4.301619e-01
   endloop
 endfacet
 facet normal  6.300862e-01  0.000000e+00 -7.765252e-01
   outer loop
     vertex -5.109354e-01 -1.587302e-02 -7.939419e-03
     vertex -5.539683e-01 -1.587302e-02 -4.285705e-02
     vertex -5.539683e-01  0.000000e+00 -4.285705e-02
   endloop
 endfacet
 facet normal  6.300862e-01  0.000000e+00 -7.765252e-01
   outer loop
     vertex -5.109354e-01 -1.587302e-02 -7.939419e-03
     vertex -5.539683e-01  0.000000e+00 -4.285705e-02
     vertex -5.109354e-01  0.000000e+00 -7.939419e-03
   endloop
 endfacet
 facet normal  5.727938e-01  0.000000e+00 -8.196995e-01
   outer loop
     vertex -4.655099e-01 -1.587302e-02  2.380322e-02
     vertex -5.109354e-01  0.000000e+00 -7.939419e-03
     vertex -4.655099e-01  0.000000e+00  2.380322e-02
   endloop
 endfacet
 facet normal  5.727938e-01  0.000000e+00 -8.196995e-01
   outer loop
     vertex -4.655099e-01 -1.587302e-02  2.380322e-02
     vertex -5.109354e-01 -1.587302e-02 -7.939419e-03
     vertex -5.109354e-01  0.000000e+00 -7.939419e-03
   endloop
 endfacet
 facet normal  5.125535e-01  0.000000e+00 -8.586553e-01
   outer loop
     vertex -4.179256e-01 -1.587302e-02  5.220752e-02
     vertex -4.655099e-01  0.000000e+00  2.380322e-02
     vertex -4.179256e-01  0.000000e+00  5.220752e-02
   endloop
 endfacet
 facet normal  5.125535e-01  0.000000e+00 -8.586553e-01
   outer loop
     vertex -4.179256e-01 -1.587302e-02  5.220752e-02
     vertex -4.655099e-01 -1.587302e-02  2.380322e-02
     vertex -4.655099e-01  0.000000e+00  2.380322e-02
   endloop
 endfacet
 facet normal  4.496753e-01  0.000000e+00 -8.931921e-01
   outer loop
     vertex -3.684274e-01 -1.587302e-02  7.712728e-02
     vertex -4.179256e-01  0.000000e+00  5.220752e-02
     vertex -3.684274e-01  0.000000e+00  7.712728e-02
   endloop
 endfacet
 facet normal  4.496753e-01  0.000000e+00 -8.931921e-01
   outer loop
     vertex -3.684274e-01 -1.587302e-02  7.712728e-02
     vertex -4.179256e-01 -1.587302e-02  5.220752e-02
     vertex -4.179256e-01  0.000000e+00  5.220752e-02
   endloop
 endfacet
 facet normal  3.844830e-01  0.000000e+00 -9.231321e-01
   outer loop
     vertex -3.172699e-01 -1.587302e-02  9.843426e-02
     vertex -3.684274e-01  0.000000e+00  7.712728e-02
     vertex -3.172699e-01  0.000000e+00  9.843426e-02
   endloop
 endfacet
 facet normal  3.844830e-01  0.000000e+00 -9.231321e-01
   outer loop
     vertex -3.172699e-01 -1.587302e-02  9.843426e-02
     vertex -3.684274e-01 -1.587302e-02  7.712728e-02
     vertex -3.684274e-01  0.000000e+00  7.712728e-02
   endloop
 endfacet
 facet normal  3.173119e-01  0.000000e+00 -9.483212e-01
   outer loop
     vertex -2.647166e-01 -1.587302e-02  1.160188e-01
     vertex -3.172699e-01  0.000000e+00  9.843426e-02
     vertex -2.647166e-01  0.000000e+00  1.160188e-01
   endloop
 endfacet
 facet normal  3.173119e-01  0.000000e+00 -9.483212e-01
   outer loop
     vertex -2.647166e-01 -1.587302e-02  1.160188e-01
     vertex -3.172699e-01 -1.587302e-02  9.843426e-02
     vertex -3.172699e-01  0.000000e+00  9.843426e-02
   endloop
 endfacet
 facet normal  2.485078e-01  0.000000e+00 -9.686299e-01
   outer loop
     vertex -2.110378e-01 -1.587302e-02  1.297904e-01
     vertex -2.647166e-01  0.000000e+00  1.160188e-01
     vertex -2.110378e-01  0.000000e+00  1.297904e-01
   endloop
 endfacet
 facet normal  2.485078e-01  0.000000e+00 -9.686299e-01
   outer loop
     vertex -2.110378e-01 -1.587302e-02  1.297904e-01
     vertex -2.647166e-01 -1.587302e-02  1.160188e-01
     vertex -2.647166e-01  0.000000e+00  1.160188e-01
   endloop
 endfacet
 facet normal  1.784248e-01  0.000000e+00 -9.839536e-01
   outer loop
     vertex -1.565098e-01 -1.587302e-02  1.396782e-01
     vertex -2.110378e-01  0.000000e+00  1.297904e-01
     vertex -1.565098e-01  0.000000e+00  1.396782e-01
   endloop
 endfacet
 facet normal  1.784248e-01  0.000000e+00 -9.839536e-01
   outer loop
     vertex -1.565098e-01 -1.587302e-02  1.396782e-01
     vertex -2.110378e-01 -1.587302e-02  1.297904e-01
     vertex -2.110378e-01  0.000000e+00  1.297904e-01
   endloop
 endfacet
 facet normal  1.074235e-01  0.000000e+00 -9.942134e-01
   outer loop
     vertex -1.014133e-01 -1.587302e-02  1.456313e-01
     vertex -1.565098e-01  0.000000e+00  1.396782e-01
     vertex -1.014133e-01  0.000000e+00  1.456313e-01
   endloop
 endfacet
 facet normal  1.074235e-01  0.000000e+00 -9.942134e-01
   outer loop
     vertex -1.014133e-01 -1.587302e-02  1.456313e-01
     vertex -1.565098e-01 -1.587302e-02  1.396782e-01
     vertex -1.565098e-01  0.000000e+00  1.396782e-01
   endloop
 endfacet
 facet normal  3.586937e-02  0.000000e+00 -9.993565e-01
   outer loop
     vertex -4.603171e-02 -1.587302e-02  1.476191e-01
     vertex -1.014133e-01  0.000000e+00  1.456313e-01
     vertex -4.603171e-02  0.000000e+00  1.476191e-01
   endloop
 endfacet
 facet normal  3.586937e-02  0.000000e+00 -9.993565e-01
   outer loop
     vertex -4.603171e-02 -1.587302e-02  1.476191e-01
     vertex -1.014133e-01 -1.587302e-02  1.456313e-01
     vertex -1.014133e-01  0.000000e+00  1.456313e-01
   endloop
 endfacet
 facet normal -3.586937e-02  0.000000e+00 -9.993565e-01
   outer loop
     vertex  9.349856e-03 -1.587302e-02  1.456313e-01
     vertex -4.603171e-02  0.000000e+00  1.476191e-01
     vertex  9.349856e-03  0.000000e+00  1.456313e-01
   endloop
 endfacet
 facet normal -3.586937e-02  0.000000e+00 -9.993565e-01
   outer loop
     vertex  9.349856e-03 -1.587302e-02  1.456313e-01
     vertex -4.603171e-02 -1.587302e-02  1.476191e-01
     vertex -4.603171e-02  0.000000e+00  1.476191e-01
   endloop
 endfacet
 facet normal -1.074235e-01  0.000000e+00 -9.942134e-01
   outer loop
     vertex  6.444641e-02 -1.587302e-02  1.396782e-01
     vertex  9.349856e-03  0.000000e+00  1.456313e-01
     vertex  6.444641e-02  0.000000e+00  1.396782e-01
   endloop
 endfacet
 facet normal -1.074235e-01  0.000000e+00 -9.942134e-01
   outer loop
     vertex  6.444641e-02 -1.587302e-02  1.396782e-01
     vertex  9.349856e-03 -1.587302e-02  1.456313e-01
     vertex  9.349856e-03  0.000000e+00  1.456313e-01
   endloop
 endfacet
 facet normal -1.784248e-01  0.000000e+00 -9.839536e-01
   outer loop
     vertex  1.189744e-01 -1.587302e-02  1.297904e-01
     vertex  6.444641e-02  0.000000e+00  1.396782e-01
     vertex  1.189744e-01  0.000000e+00  1.297904e-01
   endloop
 endfacet
 facet normal -1.784248e-01  0.000000e+00 -9.839536e-01
   outer loop
     vertex  1.189744e-01 -1.587302e-02  1.297904e-01
     vertex  6.444641e-02 -1.587302e-02  1.396782e-01
     vertex  6.444641e-02  0.000000e+00  1.396782e-01
   endloop
 endfacet
 facet normal -2.485078e-01  0.000000e+00 -9.686299e-01
   outer loop
     vertex  1.726532e-01 -1.587302e-02  1.160188e-01
     vertex  1.189744e-01 -1.587302e-02  1.297904e-01
     vertex  1.189744e-01  0.000000e+00  1.297904e-01
   endloop
 endfacet
 facet normal -2.485078e-01  0.000000e+00 -9.686299e-01
   outer loop
     vertex  1.726532e-01 -1.587302e-02  1.160188e-01
     vertex  1.189744e-01  0.000000e+00  1.297904e-01
     vertex  1.726532e-01  0.000000e+00  1.160188e-01
   endloop
 endfacet
 facet normal -3.173119e-01  0.000000e+00 -9.483212e-01
   outer loop
     vertex  2.252065e-01 -1.587302e-02  9.843426e-02
     vertex  1.726532e-01 -1.587302e-02  1.160188e-01
     vertex  1.726532e-01  0.000000e+00  1.160188e-01
   endloop
 endfacet
 facet normal -3.173119e-01  0.000000e+00 -9.483212e-01
   outer loop
     vertex  2.252065e-01 -1.587302e-02  9.843426e-02
     vertex  1.726532e-01  0.000000e+00  1.160188e-01
     vertex  2.252065e-01  0.000000e+00  9.843426e-02
   endloop
 endfacet
 facet normal -3.844830e-01  0.000000e+00 -9.231321e-01
   outer loop
     vertex  2.763639e-01 -1.587302e-02  7.712728e-02
     vertex  2.252065e-01 -1.587302e-02  9.843426e-02
     vertex  2.252065e-01  0.000000e+00  9.843426e-02
   endloop
 endfacet
 facet normal -3.844830e-01  0.000000e+00 -9.231321e-01
   outer loop
     vertex  2.763639e-01 -1.587302e-02  7.712728e-02
     vertex  2.252065e-01  0.000000e+00  9.843426e-02
     vertex  2.763639e-01  0.000000e+00  7.712728e-02
   endloop
 endfacet
 facet normal -4.496753e-01  0.000000e+00 -8.931921e-01
   outer loop
     vertex  3.258622e-01 -1.587302e-02  5.220752e-02
     vertex  2.763639e-01 -1.587302e-02  7.712728e-02
     vertex  2.763639e-01  0.000000e+00  7.712728e-02
   endloop
 endfacet
 facet normal -4.496753e-01  0.000000e+00 -8.931921e-01
   outer loop
     vertex  3.258622e-01 -1.587302e-02  5.220752e-02
     vertex  2.763639e-01  0.000000e+00  7.712728e-02
     vertex  3.258622e-01  0.000000e+00  5.220752e-02
   endloop
 endfacet
 facet normal -5.125535e-01  0.000000e+00 -8.586553e-01
   outer loop
     vertex  3.734465e-01 -1.587302e-02  2.380322e-02
     vertex  3.258622e-01  0.000000e+00  5.220752e-02
     vertex  3.734465e-01  0.000000e+00  2.380322e-02
   endloop
 endfacet
 facet normal -5.125535e-01  0.000000e+00 -8.586553e-01
   outer loop
     vertex  3.734465e-01 -1.587302e-02  2.380322e-02
     vertex  3.258622e-01 -1.587302e-02  5.220752e-02
     vertex  3.258622e-01  0.000000e+00  5.220752e-02
   endloop
 endfacet
 facet normal -5.727938e-01  0.000000e+00 -8.196995e-01
   outer loop
     vertex  4.188719e-01 -1.587302e-02 -7.939419e-03
     vertex  3.734465e-01  0.000000e+00  2.380322e-02
     vertex  4.188719e-01  0.000000e+00 -7.939419e-03
   endloop
 endfacet
 facet normal -5.727938e-01  0.000000e+00 -8.196995e-01
   outer loop
     vertex  4.188719e-01 -1.587302e-02 -7.939419e-03
     vertex  3.734465e-01 -1.587302e-02  2.380322e-02
     vertex  3.734465e-01  0.000000e+00  2.380322e-02
   endloop
 endfacet
 facet normal -6.300862e-01  0.000000e+00 -7.765252e-01
   outer loop
     vertex  4.619048e-01 -1.587302e-02 -4.285705e-02
     vertex  4.188719e-01  0.000000e+00 -7.939419e-03
     vertex  4.619048e-01  0.000000e+00 -4.285705e-02
   endloop
 endfacet
 facet normal -6.300862e-01  0.000000e+00 -7.765252e-01
   outer loop
     vertex  4.619048e-01 -1.587302e-02 -4.285705e-02
     vertex  4.188719e-01 -1.587302e-02 -7.939419e-03
     vertex  4.188719e-01  0.000000e+00 -7.939419e-03
   endloop
 endfacet
 facet normal -7.285839e-17  0.000000e+00 -1.000000e+00
   outer loop
     vertex  9.380953e-01 -1.587302e-02 -4.285705e-02
     vertex  4.619048e-01 -1.587302e-02 -4.285705e-02
     vertex  4.619048e-01  0.000000e+00 -4.285705e-02
   endloop
 endfacet
 facet normal -7.285839e-17  0.000000e+00 -1.000000e+00
   outer loop
     vertex  9.380953e-01 -1.587302e-02 -4.285705e-02
     vertex  4.619048e-01  0.000000e+00 -4.285705e-02
     vertex  9.380953e-01  0.000000e+00 -4.285705e-02
   endloop
 endfacet
 facet normal  1.000000e+00  0.000000e+00  0.000000e+00
   outer loop
     vertex  9.380953e-01 -1.587302e-02  4.650795e-01
     vertex  9.380953e-01 -1.587302e-02 -4.285705e-02
     vertex  9.380953e-01  0.000000e+00 -4.285705e-02
   endloop
 endfacet
 facet normal  1.000000e+00 -0.000000e+00  0.000000e+00
   outer loop
     vertex  9.380953e-01 -1.587302e-02  4.650795e-01
     vertex  9.380953e-01  0.000000e+00 -4.285705e-02
     vertex  9.380953e-01  0.000000e+00  4.650795e-01
   endloop
 endfacet
 facet normal  1.165734e-16  0.000000e+00  1.000000e+00
   outer loop
     vertex  4.619048e-01 -1.587302e-02  4.650795e-01
     vertex  9.380953e-01 -1.587302e-02  4.650795e-01
     vertex  9.380953e-01  0.000000e+00  4.650795e-01
   endloop
 endfacet
 facet normal  1.165734e-16 -0.000000e+00  1.000000e+00
   outer loop
     vertex  4.619048e-01 -1.587302e-02  4.650795e-01
     vertex  9.380953e-01  0.000000e+00  4.650795e-01
     vertex  4.619048e-01  0.000000e+00  4.650795e-01
   endloop
 endfacet
endsolid
