solid 
 facet normal  0.000000e+00 -1.000000e+00  0.000000e+00
   outer loop
     vertex  9.179894e-01 -3.298052e-02 -1.587302e-02
     vertex -2.310413e-02 -3.298052e-02  3.174604e-01
     vertex -2.310413e-02 -3.298052e-02 -1.587302e-02
   endloop
 endfacet
 facet normal  0.000000e+00 -1.000000e+00  0.000000e+00
   outer loop
     vertex  9.179894e-01 -3.298052e-02 -1.587302e-02
     vertex  9.179894e-01 -3.298052e-02  3.174604e-01
     vertex -2.310413e-02 -3.298052e-02  3.174604e-01
   endloop
 endfacet
 facet normal -1.000000e+00 -2.920103e-17  0.000000e+00
   outer loop
     vertex -2.310413e-02  0.000000e+00  2.686068e-01
     vertex -2.310413e-02  3.564375e-01  3.174604e-01
     vertex -2.310413e-02  3.564375e-01  2.686068e-01
   endloop
 endfacet
 facet normal -1.000000e+00  0.000000e+00 -2.130517e-16
   outer loop
     vertex -2.310413e-02  0.000000e+00  2.686068e-01
     vertex -2.310413e-02 -3.298052e-02  3.174604e-01
     vertex -2.310413e-02  3.564375e-01  3.174604e-01
   endloop
 endfacet
 facet normal -1.000000e+00  0.000000e+00  0.000000e+00
   outer loop
     vertex -2.310413e-02  0.000000e+00  1.444445e-01
     vertex -2.310413e-02  3.564375e-01  1.444445e-01
     vertex -2.310413e-02  3.564375e-01 -1.587302e-02
   endloop
 endfacet
 facet normal -1.000000e+00  4.397647e-16  8.382852e-17
   outer loop
     vertex -2.310413e-02  0.000000e+00  1.444445e-01
     vertex -2.310413e-02 -3.298052e-02  3.174604e-01
     vertex -2.310413e-02  0.000000e+00  2.686068e-01
   endloop
 endfacet
 facet normal -1.000000e+00  0.000000e+00  0.000000e+00
   outer loop
     vertex -2.310413e-02 -3.298052e-02 -1.587302e-02
     vertex -2.310413e-02  0.000000e+00  1.444445e-01
     vertex -2.310413e-02  3.564375e-01 -1.587302e-02
   endloop
 endfacet
 facet normal -1.000000e+00  0.000000e+00  0.000000e+00
   outer loop
     vertex -2.310413e-02 -3.298052e-02 -1.587302e-02
     vertex -2.310413e-02 -3.298052e-02  3.174604e-01
     vertex -2.310413e-02  0.000000e+00  1.444445e-01
   endloop
 endfacet
 facet normal  1.000000e+00  0.000000e+00 -0.000000e+00
   outer loop
     vertex  9.179894e-01  0.000000e+00  1.444445e-01
     vertex  9.179894e-01  0.000000e+00  2.686068e-01
     vertex  9.179894e-01 -3.298052e-02  3.174604e-01
   endloop
 endfacet
 facet normal  1.000000e+00  0.000000e+00  0.000000e+00
   outer loop
     vertex  9.179894e-01 -3.298052e-02 -1.587302e-02
     vertex  9.179894e-01  0.000000e+00  1.444445e-01
     vertex  9.179894e-01 -3.298052e-02  3.174604e-01
   endloop
 endfacet
 facet normal  1.000000e+00  0.000000e+00  0.000000e+00
   outer loop
     vertex  9.179894e-01  3.564375e-01  3.174604e-01
     vertex  9.179894e-01 -3.298052e-02  3.174604e-01
     vertex  9.179894e-01  0.000000e+00  2.686068e-01
   endloop
 endfacet
 facet normal  1.000000e+00  0.000000e+00 -0.000000e+00
   outer loop
     vertex  9.179894e-01  3.564375e-01  2.686068e-01
     vertex  9.179894e-01  3.564375e-01  3.174604e-01
     vertex  9.179894e-01  0.000000e+00  2.686068e-01
   endloop
 endfacet
 facet normal  1.000000e+00  0.000000e+00 -0.000000e+00
   outer loop
     vertex  9.179894e-01  3.564375e-01 -1.587302e-02
     vertex  9.179894e-01  3.564375e-01  1.444445e-01
     vertex  9.179894e-01  0.000000e+00  1.444445e-01
   endloop
 endfacet
 facet normal  1.000000e+00  0.000000e+00  0.000000e+00
   outer loop
     vertex  9.179894e-01  3.564375e-01 -1.587302e-02
     vertex  9.179894e-01  0.000000e+00  1.444445e-01
     vertex  9.179894e-01 -3.298052e-02 -1.587302e-02
   endloop
 endfacet
 facet normal -0.000000e+00 -1.000000e+00  0.000000e+00
   outer loop
     vertex  9.179894e-01 -3.298052e-02 -1.587302e-02
     vertex -2.310413e-02 -3.298052e-02 -1.587302e-02
     vertex -2.310413e-02 -3.298052e-02 -3.174603e-02
   endloop
 endfacet
 facet normal  0.000000e+00 -1.000000e+00 -0.000000e+00
   outer loop
     vertex  9.179894e-01 -3.298052e-02 -1.587302e-02
     vertex -2.310413e-02 -3.298052e-02 -3.174603e-02
     vertex  9.179894e-01 -3.298052e-02 -3.174603e-02
   endloop
 endfacet
 facet normal  0.000000e+00  0.000000e+00  1.000000e+00
   outer loop
     vertex  9.179894e-01  3.564375e-01  3.174604e-01
     vertex -2.310413e-02 -3.298052e-02  3.174604e-01
     vertex  9.179894e-01 -3.298052e-02  3.174604e-01
   endloop
 endfacet
 facet normal  0.000000e+00  0.000000e+00  1.000000e+00
   outer loop
     vertex  9.179894e-01  3.564375e-01  3.174604e-01
     vertex -2.310413e-02  3.564375e-01  3.174604e-01
     vertex -2.310413e-02 -3.298052e-02  3.174604e-01
   endloop
 endfacet
 facet normal -1.000000e+00  0.000000e+00  0.000000e+00
   outer loop
     vertex -2.310413e-02 -3.298052e-02 -1.587302e-02
     vertex -2.310413e-02  3.564375e-01 -1.587302e-02
     vertex -2.310413e-02  3.564375e-01 -3.174603e-02
   endloop
 endfacet
 facet normal -1.000000e+00  0.000000e+00  0.000000e+00
   outer loop
     vertex -2.310413e-02 -3.298052e-02 -1.587302e-02
     vertex -2.310413e-02  3.564375e-01 -3.174603e-02
     vertex -2.310413e-02 -3.298052e-02 -3.174603e-02
   endloop
 endfacet
 facet normal  0.000000e+00  1.000000e+00  0.000000e+00
   outer loop
     vertex  6.555556e-01  3.564375e-01  2.686068e-01
     vertex  9.179894e-01  3.564375e-01  3.174604e-01
     vertex  9.179894e-01  3.564375e-01  2.686068e-01
   endloop
 endfacet
 facet normal -0.000000e+00  1.000000e+00  0.000000e+00
   outer loop
     vertex  6.555556e-01  3.564375e-01  1.444445e-01
     vertex  9.179894e-01  3.564375e-01  1.444445e-01
     vertex  9.179894e-01  3.564375e-01 -1.587302e-02
   endloop
 endfacet
 facet normal  0.000000e+00  1.000000e+00  0.000000e+00
   outer loop
     vertex  2.209877e-01  3.564375e-01  1.444445e-01
     vertex  6.555556e-01  3.564375e-01  2.686068e-01
     vertex  6.555556e-01  3.564375e-01  1.444445e-01
   endloop
 endfacet
 facet normal  0.000000e+00  1.000000e+00  0.000000e+00
   outer loop
     vertex  2.209877e-01  3.564375e-01  1.444445e-01
     vertex  2.209877e-01  3.564375e-01  2.686068e-01
     vertex  6.555556e-01  3.564375e-01  2.686068e-01
   endloop
 endfacet
 facet normal  0.000000e+00  1.000000e+00  0.000000e+00
   outer loop
     vertex -2.310413e-02  3.564375e-01  3.174604e-01
     vertex  6.555556e-01  3.564375e-01  2.686068e-01
     vertex  2.209877e-01  3.564375e-01  2.686068e-01
   endloop
 endfacet
 facet normal -0.000000e+00  1.000000e+00  0.000000e+00
   outer loop
     vertex -2.310413e-02  3.564375e-01  3.174604e-01
     vertex  9.179894e-01  3.564375e-01  3.174604e-01
     vertex  6.555556e-01  3.564375e-01  2.686068e-01
   endloop
 endfacet
 facet normal  0.000000e+00  1.000000e+00  0.000000e+00
   outer loop
     vertex -2.310413e-02  3.564375e-01  2.686068e-01
     vertex -2.310413e-02  3.564375e-01  3.174604e-01
     vertex  2.209877e-01  3.564375e-01  2.686068e-01
   endloop
 endfacet
 facet normal  0.000000e+00  1.000000e+00  0.000000e+00
   outer loop
     vertex -2.310413e-02  3.564375e-01 -1.587302e-02
     vertex -2.310413e-02  3.564375e-01  1.444445e-01
     vertex  2.209877e-01  3.564375e-01  1.444445e-01
   endloop
 endfacet
 facet normal  0.000000e+00  1.000000e+00  0.000000e+00
   outer loop
     vertex -2.310413e-02  3.564375e-01 -1.587302e-02
     vertex  6.555556e-01  3.564375e-01  1.444445e-01
     vertex  9.179894e-01  3.564375e-01 -1.587302e-02
   endloop
 endfacet
 facet normal  0.000000e+00  1.000000e+00  0.000000e+00
   outer loop
     vertex -2.310413e-02  3.564375e-01 -1.587302e-02
     vertex  2.209877e-01  3.564375e-01  1.444445e-01
     vertex  6.555556e-01  3.564375e-01  1.444445e-01
   endloop
 endfacet
 facet normal  0.000000e+00  0.000000e+00 -1.000000e+00
   outer loop
     vertex -2.310413e-02  0.000000e+00  2.686068e-01
     vertex  2.209877e-01  3.564375e-01  2.686068e-01
     vertex  2.209877e-01  0.000000e+00  2.686068e-01
   endloop
 endfacet
 facet normal  0.000000e+00  0.000000e+00 -1.000000e+00
   outer loop
     vertex -2.310413e-02  0.000000e+00  2.686068e-01
     vertex -2.310413e-02  3.564375e-01  2.686068e-01
     vertex  2.209877e-01  3.564375e-01  2.686068e-01
   endloop
 endfacet
 facet normal  0.000000e+00  1.000000e+00  0.000000e+00
   outer loop
     vertex  2.209877e-01  0.000000e+00  2.686068e-01
     vertex -2.310413e-02  0.000000e+00  1.444445e-01
     vertex -2.310413e-02  0.000000e+00  2.686068e-01
   endloop
 endfacet
 facet normal  0.000000e+00  1.000000e+00  0.000000e+00
   outer loop
     vertex  2.209877e-01  0.000000e+00  2.686068e-01
     vertex  2.209877e-01  0.000000e+00  1.444445e-01
     vertex -2.310413e-02  0.000000e+00  1.444445e-01
   endloop
 endfacet
 facet normal  0.000000e+00  0.000000e+00  1.000000e+00
   outer loop
     vertex  2.209877e-01  0.000000e+00  1.444445e-01
     vertex -2.310413e-02  3.564375e-01  1.444445e-01
     vertex -2.310413e-02  0.000000e+00  1.444445e-01
   endloop
 endfacet
 facet normal  0.000000e+00 -0.000000e+00  1.000000e+00
   outer loop
     vertex  2.209877e-01  0.000000e+00  1.444445e-01
     vertex  2.209877e-01  3.564375e-01  1.444445e-01
     vertex -2.310413e-02  3.564375e-01  1.444445e-01
   endloop
 endfacet
 facet normal  1.000000e+00  0.000000e+00  0.000000e+00
   outer loop
     vertex  9.179894e-01  3.564375e-01 -1.587302e-02
     vertex  9.179894e-01 -3.298052e-02 -1.587302e-02
     vertex  9.179894e-01 -3.298052e-02 -3.174603e-02
   endloop
 endfacet
 facet normal  1.000000e+00  0.000000e+00  0.000000e+00
   outer loop
     vertex  9.179894e-01  3.564375e-01 -1.587302e-02
     vertex  9.179894e-01 -3.298052e-02 -3.174603e-02
     vertex  9.179894e-01  3.564375e-01 -3.174603e-02
   endloop
 endfacet
 facet normal  0.000000e+00  0.000000e+00  1.000000e+00
   outer loop
     vertex  9.179894e-01  0.000000e+00  1.444445e-01
     vertex  6.555556e-01  3.564375e-01  1.444445e-01
     vertex  6.555556e-01  0.000000e+00  1.444445e-01
   endloop
 endfacet
 facet normal  0.000000e+00 -0.000000e+00  1.000000e+00
   outer loop
     vertex  9.179894e-01  0.000000e+00  1.444445e-01
     vertex  9.179894e-01  3.564375e-01  1.444445e-01
     vertex  6.555556e-01  3.564375e-01  1.444445e-01
   endloop
 endfacet
 facet normal  0.000000e+00  1.000000e+00  0.000000e+00
   outer loop
     vertex  9.179894e-01  0.000000e+00  2.686068e-01
     vertex  6.555556e-01  0.000000e+00  1.444445e-01
     vertex  6.555556e-01  0.000000e+00  2.686068e-01
   endloop
 endfacet
 facet normal  0.000000e+00  1.000000e+00  0.000000e+00
   outer loop
     vertex  9.179894e-01  0.000000e+00  2.686068e-01
     vertex  9.179894e-01  0.000000e+00  1.444445e-01
     vertex  6.555556e-01  0.000000e+00  1.444445e-01
   endloop
 endfacet
 facet normal  0.000000e+00  0.000000e+00 -1.000000e+00
   outer loop
     vertex  6.555556e-01  0.000000e+00  2.686068e-01
     vertex  9.179894e-01  3.564375e-01  2.686068e-01
     vertex  9.179894e-01  0.000000e+00  2.686068e-01
   endloop
 endfacet
 facet normal  0.000000e+00  0.000000e+00 -1.000000e+00
   outer loop
     vertex  6.555556e-01  0.000000e+00  2.686068e-01
     vertex  6.555556e-01  3.564375e-01  2.686068e-01
     vertex  9.179894e-01  3.564375e-01  2.686068e-01
   endloop
 endfacet
 facet normal  0.000000e+00 -0.000000e+00 -1.000000e+00
   outer loop
     vertex  9.179894e-01  3.564375e-01 -3.174603e-02
     vertex  9.179894e-01 -3.298052e-02 -3.174603e-02
     vertex -2.310413e-02 -3.298052e-02 -3.174603e-02
   endloop
 endfacet
 facet normal -0.000000e+00  0.000000e+00 -1.000000e+00
   outer loop
     vertex  9.179894e-01  3.564375e-01 -3.174603e-02
     vertex -2.310413e-02 -3.298052e-02 -3.174603e-02
     vertex -2.310413e-02  3.564375e-01 -3.174603e-02
   endloop
 endfacet
 facet normal -0.000000e+00  1.000000e+00  0.000000e+00
   outer loop
     vertex -2.310413e-02  3.564375e-01 -1.587302e-02
     vertex  9.179894e-01  3.564375e-01 -1.587302e-02
     vertex  9.179894e-01  3.564375e-01 -3.174603e-02
   endloop
 endfacet
 facet normal  0.000000e+00  1.000000e+00  0.000000e+00
   outer loop
     vertex -2.310413e-02  3.564375e-01 -1.587302e-02
     vertex  9.179894e-01  3.564375e-01 -3.174603e-02
     vertex -2.310413e-02  3.564375e-01 -3.174603e-02
   endloop
 endfacet
 facet normal -1.000000e+00  0.000000e+00  0.000000e+00
   outer loop
     vertex  2.209877e-01  0.000000e+00  2.686068e-01
     vertex  2.209877e-01  3.564375e-01  1.444445e-01
     vertex  2.209877e-01  0.000000e+00  1.444445e-01
   endloop
 endfacet
 facet normal -1.000000e+00  0.000000e+00  0.000000e+00
   outer loop
     vertex  2.209877e-01  0.000000e+00  2.686068e-01
     vertex  2.209877e-01  3.564375e-01  2.686068e-01
     vertex  2.209877e-01  3.564375e-01  1.444445e-01
   endloop
 endfacet
 facet normal  1.000000e+00  0.000000e+00  0.000000e+00
   outer loop
     vertex  6.555556e-01  0.000000e+00  1.444445e-01
     vertex  6.555556e-01  3.564375e-01  2.686068e-01
     vertex  6.555556e-01  0.000000e+00  2.686068e-01
   endloop
 endfacet
 facet normal  1.000000e+00  0.000000e+00  0.000000e+00
   outer loop
     vertex  6.555556e-01  0.000000e+00  1.444445e-01
     vertex  6.555556e-01  3.564375e-01  1.444445e-01
     vertex  6.555556e-01  3.564375e-01  2.686068e-01
   endloop
 endfacet
endsolid
