solid 
 facet normal -0.000000e+00  0.000000e+00 -1.000000e+00
   outer loop
     vertex  4.576719e-01 -1.587302e-02 -1.169312e-01
     vertex  1.746026e-02 -1.015873e+00 -1.169312e-01
     vertex  1.746026e-02 -1.587302e-02 -1.169312e-01
   endloop
 endfacet
 facet normal  0.000000e+00 -0.000000e+00 -1.000000e+00
   outer loop
     vertex  4.576719e-01 -1.587302e-02 -1.169312e-01
     vertex  4.576719e-01 -1.015873e+00 -1.169312e-01
     vertex  1.746026e-02 -1.015873e+00 -1.169312e-01
   endloop
 endfacet
 facet normal -1.000000e+00  0.000000e+00  0.000000e+00
   outer loop
     vertex  1.746026e-02 -1.587302e-02 -1.169312e-01
     vertex  1.746026e-02 -1.015873e+00 -5.767196e-02
     vertex  1.746026e-02 -1.587302e-02 -5.767196e-02
   endloop
 endfacet
 facet normal -1.000000e+00  0.000000e+00  0.000000e+00
   outer loop
     vertex  1.746026e-02 -1.587302e-02 -1.169312e-01
     vertex  1.746026e-02 -1.015873e+00 -1.169312e-01
     vertex  1.746026e-02 -1.015873e+00 -5.767196e-02
   endloop
 endfacet
 facet normal  7.071071e-01  0.000000e+00 -7.071065e-01
   outer loop
     vertex  4.746031e-01 -1.587302e-02 -1.000000e-01
     vertex  4.576719e-01 -1.015873e+00 -1.169312e-01
     vertex  4.576719e-01 -1.587302e-02 -1.169312e-01
   endloop
 endfacet
 facet normal  7.071071e-01  0.000000e+00 -7.071065e-01
   outer loop
     vertex  4.746031e-01 -1.587302e-02 -1.000000e-01
     vertex  4.746031e-01 -1.015873e+00 -1.000000e-01
     vertex  4.576719e-01 -1.015873e+00 -1.169312e-01
   endloop
 endfacet
 facet normal  0.000000e+00  0.000000e+00 -1.000000e+00
   outer loop
     vertex  4.576719e-01 -1.587302e-02 -1.169312e-01
     vertex  1.746026e-02 -1.587302e-02 -1.169312e-01
     vertex  1.746026e-02  0.000000e+00 -1.169312e-01
   endloop
 endfacet
 facet normal  0.000000e+00  0.000000e+00 -1.000000e+00
   outer loop
     vertex  4.576719e-01 -1.587302e-02 -1.169312e-01
     vertex  1.746026e-02  0.000000e+00 -1.169312e-01
     vertex  4.576719e-01  0.000000e+00 -1.169312e-01
   endloop
 endfacet
 facet normal  0.000000e+00 -1.000000e+00  0.000000e+00
   outer loop
     vertex  4.576719e-01 -1.015873e+00 -1.169312e-01
     vertex  1.746026e-02 -1.015873e+00 -5.767196e-02
     vertex  1.746026e-02 -1.015873e+00 -1.169312e-01
   endloop
 endfacet
 facet normal -0.000000e+00 -1.000000e+00  0.000000e+00
   outer loop
     vertex  4.746031e-01 -1.015873e+00 -1.000000e-01
     vertex  1.746026e-02 -1.015873e+00 -5.767196e-02
     vertex  4.576719e-01 -1.015873e+00 -1.169312e-01
   endloop
 endfacet
 facet normal  0.000000e+00 -1.000000e+00 -0.000000e+00
   outer loop
     vertex  5.423280e-01 -1.015873e+00 -8.306879e-02
     vertex  4.746031e-01 -1.015873e+00 -1.000000e-01
     vertex  5.423280e-01 -1.015873e+00 -1.000000e-01
   endloop
 endfacet
 facet normal  0.000000e+00 -1.000000e+00 -0.000000e+00
   outer loop
     vertex  5.169312e-01 -1.015873e+00 -5.767196e-02
     vertex  4.746031e-01 -1.015873e+00 -1.000000e-01
     vertex  5.423280e-01 -1.015873e+00 -8.306879e-02
   endloop
 endfacet
 facet normal  0.000000e+00 -1.000000e+00  0.000000e+00
   outer loop
     vertex  5.378823e-01 -1.015873e+00 -7.112754e-02
     vertex  5.423280e-01 -1.015873e+00 -8.306879e-02
     vertex  5.407480e-01 -1.015873e+00 -7.685885e-02
   endloop
 endfacet
 facet normal  0.000000e+00 -1.000000e+00  0.000000e+00
   outer loop
     vertex  5.338624e-01 -1.015873e+00 -6.613756e-02
     vertex  5.288724e-01 -1.015873e+00 -6.211762e-02
     vertex  5.231411e-01 -1.015873e+00 -5.925198e-02
   endloop
 endfacet
 facet normal  0.000000e+00 -1.000000e+00  0.000000e+00
   outer loop
     vertex  5.338624e-01 -1.015873e+00 -6.613756e-02
     vertex  5.231411e-01 -1.015873e+00 -5.925198e-02
     vertex  5.169312e-01 -1.015873e+00 -5.767196e-02
   endloop
 endfacet
 facet normal  0.000000e+00 -1.000000e+00  0.000000e+00
   outer loop
     vertex  5.338624e-01 -1.015873e+00 -6.613756e-02
     vertex  5.423280e-01 -1.015873e+00 -8.306879e-02
     vertex  5.378823e-01 -1.015873e+00 -7.112754e-02
   endloop
 endfacet
 facet normal -0.000000e+00 -1.000000e+00 -0.000000e+00
   outer loop
     vertex  5.338624e-01 -1.015873e+00 -6.613756e-02
     vertex  5.169312e-01 -1.015873e+00 -5.767196e-02
     vertex  5.423280e-01 -1.015873e+00 -8.306879e-02
   endloop
 endfacet
 facet normal  0.000000e+00 -1.000000e+00  0.000000e+00
   outer loop
     vertex  5.169312e-01 -1.015873e+00 -5.767196e-02
     vertex  1.746026e-02 -1.015873e+00 -5.767196e-02
     vertex  4.746031e-01 -1.015873e+00 -1.000000e-01
   endloop
 endfacet
 facet normal -2.778498e-17  0.000000e+00  1.000000e+00
   outer loop
     vertex  1.746026e-02 -1.587302e-02 -5.767196e-02
     vertex  5.169312e-01 -1.015873e+00 -5.767196e-02
     vertex  5.169312e-01 -1.587302e-02 -5.767196e-02
   endloop
 endfacet
 facet normal -2.778498e-17  0.000000e+00  1.000000e+00
   outer loop
     vertex  1.746026e-02 -1.587302e-02 -5.767196e-02
     vertex  1.746026e-02 -1.015873e+00 -5.767196e-02
     vertex  5.169312e-01 -1.015873e+00 -5.767196e-02
   endloop
 endfacet
 facet normal -1.000000e+00  0.000000e+00  0.000000e+00
   outer loop
     vertex  1.746026e-02 -1.587302e-02 -1.169312e-01
     vertex  1.746026e-02 -1.587302e-02 -5.767196e-02
     vertex  1.746026e-02  0.000000e+00 -5.767196e-02
   endloop
 endfacet
 facet normal -1.000000e+00  0.000000e+00  0.000000e+00
   outer loop
     vertex  1.746026e-02 -1.587302e-02 -1.169312e-01
     vertex  1.746026e-02  0.000000e+00 -5.767196e-02
     vertex  1.746026e-02  0.000000e+00 -1.169312e-01
   endloop
 endfacet
 facet normal -0.000000e+00  0.000000e+00 -1.000000e+00
   outer loop
     vertex  5.423280e-01 -1.587302e-02 -1.000000e-01
     vertex  4.746031e-01 -1.015873e+00 -1.000000e-01
     vertex  4.746031e-01 -1.587302e-02 -1.000000e-01
   endloop
 endfacet
 facet normal  0.000000e+00 -0.000000e+00 -1.000000e+00
   outer loop
     vertex  5.423280e-01 -1.587302e-02 -1.000000e-01
     vertex  5.423280e-01 -1.015873e+00 -1.000000e-01
     vertex  4.746031e-01 -1.015873e+00 -1.000000e-01
   endloop
 endfacet
 facet normal  7.071071e-01  0.000000e+00 -7.071065e-01
   outer loop
     vertex  4.746031e-01 -1.587302e-02 -1.000000e-01
     vertex  4.576719e-01 -1.587302e-02 -1.169312e-01
     vertex  4.576719e-01  0.000000e+00 -1.169312e-01
   endloop
 endfacet
 facet normal  7.071071e-01  0.000000e+00 -7.071065e-01
   outer loop
     vertex  4.746031e-01 -1.587302e-02 -1.000000e-01
     vertex  4.576719e-01  0.000000e+00 -1.169312e-01
     vertex  4.746031e-01  0.000000e+00 -1.000000e-01
   endloop
 endfacet
 facet normal  0.000000e+00  1.000000e+00  0.000000e+00
   outer loop
     vertex  4.576719e-01  6.591949e-17 -1.169312e-01
     vertex  1.746026e-02  6.591949e-17 -1.169312e-01
     vertex  1.746026e-02  6.591949e-17 -5.767196e-02
   endloop
 endfacet
 facet normal  0.000000e+00  1.000000e+00  0.000000e+00
   outer loop
     vertex  4.746031e-01  6.591949e-17 -1.000000e-01
     vertex  4.576719e-01  6.591949e-17 -1.169312e-01
     vertex  1.746026e-02  6.591949e-17 -5.767196e-02
   endloop
 endfacet
 facet normal  0.000000e+00  1.000000e+00  0.000000e+00
   outer loop
     vertex  5.423280e-01  6.591949e-17 -8.306879e-02
     vertex  5.423280e-01  6.591949e-17 -1.000000e-01
     vertex  4.746031e-01  6.591949e-17 -1.000000e-01
   endloop
 endfacet
 facet normal  0.000000e+00  1.000000e+00  0.000000e+00
   outer loop
     vertex  5.169312e-01  6.591949e-17 -5.767196e-02
     vertex  5.423280e-01  6.591949e-17 -8.306879e-02
     vertex  4.746031e-01  6.591949e-17 -1.000000e-01
   endloop
 endfacet
 facet normal  0.000000e+00  1.000000e+00  0.000000e+00
   outer loop
     vertex  5.378823e-01  6.591949e-17 -7.112754e-02
     vertex  5.407480e-01  6.591949e-17 -7.685885e-02
     vertex  5.423280e-01  6.591949e-17 -8.306879e-02
   endloop
 endfacet
 facet normal  0.000000e+00  1.000000e+00  0.000000e+00
   outer loop
     vertex  5.338624e-01  6.591949e-17 -6.613756e-02
     vertex  5.231411e-01  6.591949e-17 -5.925198e-02
     vertex  5.288724e-01  6.591949e-17 -6.211762e-02
   endloop
 endfacet
 facet normal  0.000000e+00  1.000000e+00  0.000000e+00
   outer loop
     vertex  5.338624e-01  6.591949e-17 -6.613756e-02
     vertex  5.169312e-01  6.591949e-17 -5.767196e-02
     vertex  5.231411e-01  6.591949e-17 -5.925198e-02
   endloop
 endfacet
 facet normal  0.000000e+00  1.000000e+00  0.000000e+00
   outer loop
     vertex  5.338624e-01  6.591949e-17 -6.613756e-02
     vertex  5.378823e-01  6.591949e-17 -7.112754e-02
     vertex  5.423280e-01  6.591949e-17 -8.306879e-02
   endloop
 endfacet
 facet normal  0.000000e+00  1.000000e+00  0.000000e+00
   outer loop
     vertex  5.338624e-01  6.591949e-17 -6.613756e-02
     vertex  5.423280e-01  6.591949e-17 -8.306879e-02
     vertex  5.169312e-01  6.591949e-17 -5.767196e-02
   endloop
 endfacet
 facet normal  0.000000e+00  1.000000e+00  0.000000e+00
   outer loop
     vertex  5.169312e-01  6.591949e-17 -5.767196e-02
     vertex  4.746031e-01  6.591949e-17 -1.000000e-01
     vertex  1.746026e-02  6.591949e-17 -5.767196e-02
   endloop
 endfacet
 facet normal  1.000000e+00  0.000000e+00  0.000000e+00
   outer loop
     vertex  5.423280e-01 -1.587302e-02 -8.306879e-02
     vertex  5.423280e-01 -1.015873e+00 -1.000000e-01
     vertex  5.423280e-01 -1.587302e-02 -1.000000e-01
   endloop
 endfacet
 facet normal  1.000000e+00  0.000000e+00  0.000000e+00
   outer loop
     vertex  5.423280e-01 -1.587302e-02 -8.306879e-02
     vertex  5.423280e-01 -1.015873e+00 -8.306879e-02
     vertex  5.423280e-01 -1.015873e+00 -1.000000e-01
   endloop
 endfacet
 facet normal  9.691233e-01  0.000000e+00  2.465766e-01
   outer loop
     vertex  5.407480e-01 -1.587302e-02 -7.685885e-02
     vertex  5.423280e-01 -1.015873e+00 -8.306879e-02
     vertex  5.423280e-01 -1.587302e-02 -8.306879e-02
   endloop
 endfacet
 facet normal  9.691233e-01  0.000000e+00  2.465766e-01
   outer loop
     vertex  5.407480e-01 -1.587302e-02 -7.685885e-02
     vertex  5.407480e-01 -1.015873e+00 -7.685885e-02
     vertex  5.423280e-01 -1.015873e+00 -8.306879e-02
   endloop
 endfacet
 facet normal  8.944275e-01  0.000000e+00  4.472130e-01
   outer loop
     vertex  5.378823e-01 -1.587302e-02 -7.112754e-02
     vertex  5.378823e-01 -1.015873e+00 -7.112754e-02
     vertex  5.407480e-01 -1.015873e+00 -7.685885e-02
   endloop
 endfacet
 facet normal  8.944275e-01  0.000000e+00  4.472130e-01
   outer loop
     vertex  5.378823e-01 -1.587302e-02 -7.112754e-02
     vertex  5.407480e-01 -1.015873e+00 -7.685885e-02
     vertex  5.407480e-01 -1.587302e-02 -7.685885e-02
   endloop
 endfacet
 facet normal  7.787361e-01  0.000000e+00  6.273517e-01
   outer loop
     vertex  5.338624e-01 -1.587302e-02 -6.613756e-02
     vertex  5.338624e-01 -1.015873e+00 -6.613756e-02
     vertex  5.378823e-01 -1.015873e+00 -7.112754e-02
   endloop
 endfacet
 facet normal  7.787361e-01  0.000000e+00  6.273517e-01
   outer loop
     vertex  5.338624e-01 -1.587302e-02 -6.613756e-02
     vertex  5.378823e-01 -1.015873e+00 -7.112754e-02
     vertex  5.378823e-01 -1.587302e-02 -7.112754e-02
   endloop
 endfacet
 facet normal  6.273517e-01  0.000000e+00  7.787361e-01
   outer loop
     vertex  5.288724e-01 -1.587302e-02 -6.211762e-02
     vertex  5.288724e-01 -1.015873e+00 -6.211762e-02
     vertex  5.338624e-01 -1.015873e+00 -6.613756e-02
   endloop
 endfacet
 facet normal  6.273517e-01  0.000000e+00  7.787361e-01
   outer loop
     vertex  5.288724e-01 -1.587302e-02 -6.211762e-02
     vertex  5.338624e-01 -1.015873e+00 -6.613756e-02
     vertex  5.338624e-01 -1.587302e-02 -6.613756e-02
   endloop
 endfacet
 facet normal  4.472130e-01  0.000000e+00  8.944275e-01
   outer loop
     vertex  5.231411e-01 -1.587302e-02 -5.925198e-02
     vertex  5.231411e-01 -1.015873e+00 -5.925198e-02
     vertex  5.288724e-01 -1.015873e+00 -6.211762e-02
   endloop
 endfacet
 facet normal  4.472130e-01  0.000000e+00  8.944275e-01
   outer loop
     vertex  5.231411e-01 -1.587302e-02 -5.925198e-02
     vertex  5.288724e-01 -1.015873e+00 -6.211762e-02
     vertex  5.288724e-01 -1.587302e-02 -6.211762e-02
   endloop
 endfacet
 facet normal  2.465766e-01  0.000000e+00  9.691233e-01
   outer loop
     vertex  5.169312e-01 -1.587302e-02 -5.767196e-02
     vertex  5.169312e-01 -1.015873e+00 -5.767196e-02
     vertex  5.231411e-01 -1.015873e+00 -5.925198e-02
   endloop
 endfacet
 facet normal  2.465766e-01  0.000000e+00  9.691233e-01
   outer loop
     vertex  5.169312e-01 -1.587302e-02 -5.767196e-02
     vertex  5.231411e-01 -1.015873e+00 -5.925198e-02
     vertex  5.231411e-01 -1.587302e-02 -5.925198e-02
   endloop
 endfacet
 facet normal -2.778498e-17  0.000000e+00  1.000000e+00
   outer loop
     vertex  1.746026e-02 -1.587302e-02 -5.767196e-02
     vertex  5.169312e-01 -1.587302e-02 -5.767196e-02
     vertex  5.169312e-01  0.000000e+00 -5.767196e-02
   endloop
 endfacet
 facet normal -2.778498e-17  0.000000e+00  1.000000e+00
   outer loop
     vertex  1.746026e-02 -1.587302e-02 -5.767196e-02
     vertex  5.169312e-01  0.000000e+00 -5.767196e-02
     vertex  1.746026e-02  0.000000e+00 -5.767196e-02
   endloop
 endfacet
 facet normal  0.000000e+00  0.000000e+00 -1.000000e+00
   outer loop
     vertex  5.423280e-01 -1.587302e-02 -1.000000e-01
     vertex  4.746031e-01 -1.587302e-02 -1.000000e-01
     vertex  4.746031e-01  0.000000e+00 -1.000000e-01
   endloop
 endfacet
 facet normal  0.000000e+00  0.000000e+00 -1.000000e+00
   outer loop
     vertex  5.423280e-01 -1.587302e-02 -1.000000e-01
     vertex  4.746031e-01  0.000000e+00 -1.000000e-01
     vertex  5.423280e-01  0.000000e+00 -1.000000e-01
   endloop
 endfacet
 facet normal  1.000000e+00  0.000000e+00  0.000000e+00
   outer loop
     vertex  5.423280e-01 -1.587302e-02 -8.306879e-02
     vertex  5.423280e-01 -1.587302e-02 -1.000000e-01
     vertex  5.423280e-01  0.000000e+00 -1.000000e-01
   endloop
 endfacet
 facet normal  1.000000e+00 -0.000000e+00  0.000000e+00
   outer loop
     vertex  5.423280e-01 -1.587302e-02 -8.306879e-02
     vertex  5.423280e-01  0.000000e+00 -1.000000e-01
     vertex  5.423280e-01  0.000000e+00 -8.306879e-02
   endloop
 endfacet
 facet normal  9.691233e-01  0.000000e+00  2.465766e-01
   outer loop
     vertex  5.407480e-01 -1.587302e-02 -7.685885e-02
     vertex  5.423280e-01 -1.587302e-02 -8.306879e-02
     vertex  5.423280e-01  0.000000e+00 -8.306879e-02
   endloop
 endfacet
 facet normal  9.691233e-01 -0.000000e+00  2.465766e-01
   outer loop
     vertex  5.407480e-01 -1.587302e-02 -7.685885e-02
     vertex  5.423280e-01  0.000000e+00 -8.306879e-02
     vertex  5.407480e-01  0.000000e+00 -7.685885e-02
   endloop
 endfacet
 facet normal  8.944275e-01 -0.000000e+00  4.472130e-01
   outer loop
     vertex  5.378823e-01 -1.587302e-02 -7.112754e-02
     vertex  5.407480e-01  0.000000e+00 -7.685885e-02
     vertex  5.378823e-01  0.000000e+00 -7.112754e-02
   endloop
 endfacet
 facet normal  8.944275e-01  0.000000e+00  4.472130e-01
   outer loop
     vertex  5.378823e-01 -1.587302e-02 -7.112754e-02
     vertex  5.407480e-01 -1.587302e-02 -7.685885e-02
     vertex  5.407480e-01  0.000000e+00 -7.685885e-02
   endloop
 endfacet
 facet normal  7.787361e-01 -0.000000e+00  6.273517e-01
   outer loop
     vertex  5.338624e-01 -1.587302e-02 -6.613756e-02
     vertex  5.378823e-01  0.000000e+00 -7.112754e-02
     vertex  5.338624e-01  0.000000e+00 -6.613756e-02
   endloop
 endfacet
 facet normal  7.787361e-01  0.000000e+00  6.273517e-01
   outer loop
     vertex  5.338624e-01 -1.587302e-02 -6.613756e-02
     vertex  5.378823e-01 -1.587302e-02 -7.112754e-02
     vertex  5.378823e-01  0.000000e+00 -7.112754e-02
   endloop
 endfacet
 facet normal  6.273517e-01 -0.000000e+00  7.787361e-01
   outer loop
     vertex  5.288724e-01 -1.587302e-02 -6.211762e-02
     vertex  5.338624e-01  0.000000e+00 -6.613756e-02
     vertex  5.288724e-01  0.000000e+00 -6.211762e-02
   endloop
 endfacet
 facet normal  6.273517e-01  0.000000e+00  7.787361e-01
   outer loop
     vertex  5.288724e-01 -1.587302e-02 -6.211762e-02
     vertex  5.338624e-01 -1.587302e-02 -6.613756e-02
     vertex  5.338624e-01  0.000000e+00 -6.613756e-02
   endloop
 endfacet
 facet normal  4.472130e-01 -0.000000e+00  8.944275e-01
   outer loop
     vertex  5.231411e-01 -1.587302e-02 -5.925198e-02
     vertex  5.288724e-01  0.000000e+00 -6.211762e-02
     vertex  5.231411e-01  0.000000e+00 -5.925198e-02
   endloop
 endfacet
 facet normal  4.472130e-01  0.000000e+00  8.944275e-01
   outer loop
     vertex  5.231411e-01 -1.587302e-02 -5.925198e-02
     vertex  5.288724e-01 -1.587302e-02 -6.211762e-02
     vertex  5.288724e-01  0.000000e+00 -6.211762e-02
   endloop
 endfacet
 facet normal  2.465766e-01 -0.000000e+00  9.691233e-01
   outer loop
     vertex  5.169312e-01 -1.587302e-02 -5.767196e-02
     vertex  5.231411e-01  0.000000e+00 -5.925198e-02
     vertex  5.169312e-01  0.000000e+00 -5.767196e-02
   endloop
 endfacet
 facet normal  2.465766e-01  0.000000e+00  9.691233e-01
   outer loop
     vertex  5.169312e-01 -1.587302e-02 -5.767196e-02
     vertex  5.231411e-01 -1.587302e-02 -5.925198e-02
     vertex  5.231411e-01  0.000000e+00 -5.925198e-02
   endloop
 endfacet
endsolid
