solid 
 facet normal  0.000000e+00 -1.000000e+00  0.000000e+00
   outer loop
     vertex -1.587302e-02 -2.326278e-01 -4.340388e-01
     vertex  9.841270e-01 -2.326278e-01 -1.236331e-01
     vertex -1.587302e-02 -2.326278e-01 -1.236331e-01
   endloop
 endfacet
 facet normal  0.000000e+00 -1.000000e+00  0.000000e+00
   outer loop
     vertex -1.587302e-02 -2.326278e-01 -4.340388e-01
     vertex  9.841270e-01 -2.326278e-01 -4.340388e-01
     vertex  9.841270e-01 -2.326278e-01 -1.236331e-01
   endloop
 endfacet
 facet normal  0.000000e+00  0.000000e+00  1.000000e+00
   outer loop
     vertex -1.587302e-02 -2.326278e-01 -1.236331e-01
     vertex  9.841270e-01 -1.056437e-01 -1.236331e-01
     vertex -1.587302e-02 -1.056437e-01 -1.236331e-01
   endloop
 endfacet
 facet normal  0.000000e+00  0.000000e+00  1.000000e+00
   outer loop
     vertex -1.587302e-02 -2.326278e-01 -1.236331e-01
     vertex  9.841270e-01 -2.326278e-01 -1.236331e-01
     vertex  9.841270e-01 -1.056437e-01 -1.236331e-01
   endloop
 endfacet
 facet normal  0.000000e+00  0.000000e+00 -1.000000e+00
   outer loop
     vertex -1.587302e-02  5.010582e-01 -4.340388e-01
     vertex  9.841270e-01 -2.326278e-01 -4.340388e-01
     vertex -1.587302e-02 -2.326278e-01 -4.340388e-01
   endloop
 endfacet
 facet normal  0.000000e+00  0.000000e+00 -1.000000e+00
   outer loop
     vertex -1.587302e-02  5.010582e-01 -4.340388e-01
     vertex  9.841270e-01  5.010582e-01 -4.340388e-01
     vertex  9.841270e-01 -2.326278e-01 -4.340388e-01
   endloop
 endfacet
 facet normal  0.000000e+00 -1.000000e+00  0.000000e+00
   outer loop
     vertex -1.587302e-02 -2.326278e-01 -4.340388e-01
     vertex -1.587302e-02 -2.326278e-01 -1.236331e-01
     vertex -3.174603e-02 -2.326278e-01 -1.236331e-01
   endloop
 endfacet
 facet normal  0.000000e+00 -1.000000e+00  0.000000e+00
   outer loop
     vertex -1.587302e-02 -2.326278e-01 -4.340388e-01
     vertex -3.174603e-02 -2.326278e-01 -1.236331e-01
     vertex -3.174603e-02 -2.326278e-01 -4.340388e-01
   endloop
 endfacet
 facet normal  1.000000e+00  0.000000e+00  0.000000e+00
   outer loop
     vertex  9.841270e-01 -2.326278e-01 -1.236331e-01
     vertex  9.841270e-01 -2.326278e-01 -4.340388e-01
     vertex  9.841270e-01 -6.331566e-02 -3.634920e-01
   endloop
 endfacet
 facet normal  1.000000e+00  0.000000e+00  0.000000e+00
   outer loop
     vertex  9.841270e-01 -1.056437e-01 -1.236331e-01
     vertex  9.841270e-01 -2.326278e-01 -1.236331e-01
     vertex  9.841270e-01 -6.331566e-02 -3.634920e-01
   endloop
 endfacet
 facet normal  1.000000e+00  0.000000e+00  0.000000e+00
   outer loop
     vertex  9.841270e-01  1.624339e-01 -3.634920e-01
     vertex  9.841270e-01 -6.331566e-02 -3.634920e-01
     vertex  9.841270e-01 -2.326278e-01 -4.340388e-01
   endloop
 endfacet
 facet normal  1.000000e+00  0.000000e+00  0.000000e+00
   outer loop
     vertex  9.841270e-01  5.010582e-01 -4.340388e-01
     vertex  9.841270e-01  1.624339e-01 -3.634920e-01
     vertex  9.841270e-01 -2.326278e-01 -4.340388e-01
   endloop
 endfacet
 facet normal  1.000000e+00  0.000000e+00  0.000000e+00
   outer loop
     vertex  9.841270e-01  2.047620e-01 -1.377424e-01
     vertex  9.841270e-01  1.624339e-01 -3.634920e-01
     vertex  9.841270e-01  5.010582e-01 -4.340388e-01
   endloop
 endfacet
 facet normal  1.000000e+00  0.000000e+00  0.000000e+00
   outer loop
     vertex  9.841270e-01  5.151675e-01 -1.377424e-01
     vertex  9.841270e-01  5.010582e-01 -4.340388e-01
     vertex  9.841270e-01  5.292769e-01 -4.058201e-01
   endloop
 endfacet
 facet normal  1.000000e+00  0.000000e+00  0.000000e+00
   outer loop
     vertex  9.841270e-01  5.151675e-01 -1.377424e-01
     vertex  9.841270e-01  2.047620e-01 -1.377424e-01
     vertex  9.841270e-01  5.010582e-01 -4.340388e-01
   endloop
 endfacet
 facet normal  0.000000e+00  9.847835e-01  1.737855e-01
   outer loop
     vertex -1.587302e-02 -1.056437e-01 -1.236331e-01
     vertex  9.841270e-01 -6.331566e-02 -3.634920e-01
     vertex -1.587302e-02 -6.331566e-02 -3.634920e-01
   endloop
 endfacet
 facet normal -0.000000e+00  9.847835e-01  1.737855e-01
   outer loop
     vertex -1.587302e-02 -1.056437e-01 -1.236331e-01
     vertex  9.841270e-01 -1.056437e-01 -1.236331e-01
     vertex  9.841270e-01 -6.331566e-02 -3.634920e-01
   endloop
 endfacet
 facet normal  0.000000e+00 -0.000000e+00  1.000000e+00
   outer loop
     vertex -1.587302e-02 -2.326278e-01 -1.236331e-01
     vertex -1.587302e-02 -1.056437e-01 -1.236331e-01
     vertex -3.174603e-02 -1.056437e-01 -1.236331e-01
   endloop
 endfacet
 facet normal  0.000000e+00  0.000000e+00  1.000000e+00
   outer loop
     vertex -1.587302e-02 -2.326278e-01 -1.236331e-01
     vertex -3.174603e-02 -1.056437e-01 -1.236331e-01
     vertex -3.174603e-02 -2.326278e-01 -1.236331e-01
   endloop
 endfacet
 facet normal  0.000000e+00  7.071072e-01 -7.071064e-01
   outer loop
     vertex -1.587302e-02  5.292769e-01 -4.058201e-01
     vertex  9.841270e-01  5.010582e-01 -4.340388e-01
     vertex -1.587302e-02  5.010582e-01 -4.340388e-01
   endloop
 endfacet
 facet normal  0.000000e+00  7.071072e-01 -7.071064e-01
   outer loop
     vertex -1.587302e-02  5.292769e-01 -4.058201e-01
     vertex  9.841270e-01  5.292769e-01 -4.058201e-01
     vertex  9.841270e-01  5.010582e-01 -4.340388e-01
   endloop
 endfacet
 facet normal  0.000000e+00 -0.000000e+00 -1.000000e+00
   outer loop
     vertex -1.587302e-02  5.010582e-01 -4.340388e-01
     vertex -1.587302e-02 -2.326278e-01 -4.340388e-01
     vertex -3.174603e-02 -2.326278e-01 -4.340388e-01
   endloop
 endfacet
 facet normal -0.000000e+00  0.000000e+00 -1.000000e+00
   outer loop
     vertex -1.587302e-02  5.010582e-01 -4.340388e-01
     vertex -3.174603e-02 -2.326278e-01 -4.340388e-01
     vertex -3.174603e-02  5.010582e-01 -4.340388e-01
   endloop
 endfacet
 facet normal -1.000000e+00  0.000000e+00  0.000000e+00
   outer loop
     vertex -3.174603e-02 -2.326278e-01 -1.236331e-01
     vertex -3.174603e-02 -6.331566e-02 -3.634920e-01
     vertex -3.174603e-02 -2.326278e-01 -4.340388e-01
   endloop
 endfacet
 facet normal -1.000000e+00 -0.000000e+00 -0.000000e+00
   outer loop
     vertex -3.174603e-02 -1.056437e-01 -1.236331e-01
     vertex -3.174603e-02 -6.331566e-02 -3.634920e-01
     vertex -3.174603e-02 -2.326278e-01 -1.236331e-01
   endloop
 endfacet
 facet normal -1.000000e+00 -0.000000e+00  0.000000e+00
   outer loop
     vertex -3.174603e-02  1.624339e-01 -3.634920e-01
     vertex -3.174603e-02 -2.326278e-01 -4.340388e-01
     vertex -3.174603e-02 -6.331566e-02 -3.634920e-01
   endloop
 endfacet
 facet normal -1.000000e+00  0.000000e+00  0.000000e+00
   outer loop
     vertex -3.174603e-02  5.010582e-01 -4.340388e-01
     vertex -3.174603e-02 -2.326278e-01 -4.340388e-01
     vertex -3.174603e-02  1.624339e-01 -3.634920e-01
   endloop
 endfacet
 facet normal -1.000000e+00  0.000000e+00 -0.000000e+00
   outer loop
     vertex -3.174603e-02  2.047620e-01 -1.377424e-01
     vertex -3.174603e-02  5.010582e-01 -4.340388e-01
     vertex -3.174603e-02  1.624339e-01 -3.634920e-01
   endloop
 endfacet
 facet normal -1.000000e+00  0.000000e+00 -0.000000e+00
   outer loop
     vertex -3.174603e-02  5.151675e-01 -1.377424e-01
     vertex -3.174603e-02  5.292769e-01 -4.058201e-01
     vertex -3.174603e-02  5.010582e-01 -4.340388e-01
   endloop
 endfacet
 facet normal -1.000000e+00 -0.000000e+00  0.000000e+00
   outer loop
     vertex -3.174603e-02  5.151675e-01 -1.377424e-01
     vertex -3.174603e-02  5.010582e-01 -4.340388e-01
     vertex -3.174603e-02  2.047620e-01 -1.377424e-01
   endloop
 endfacet
 facet normal  0.000000e+00  9.986178e-01  5.255892e-02
   outer loop
     vertex -1.587302e-02  5.151675e-01 -1.377424e-01
     vertex  9.841270e-01  5.292769e-01 -4.058201e-01
     vertex -1.587302e-02  5.292769e-01 -4.058201e-01
   endloop
 endfacet
 facet normal -0.000000e+00  9.986178e-01  5.255892e-02
   outer loop
     vertex -1.587302e-02  5.151675e-01 -1.377424e-01
     vertex  9.841270e-01  5.151675e-01 -1.377424e-01
     vertex  9.841270e-01  5.292769e-01 -4.058201e-01
   endloop
 endfacet
 facet normal  0.000000e+00  0.000000e+00  1.000000e+00
   outer loop
     vertex -1.587302e-02  2.047620e-01 -1.377424e-01
     vertex  9.841270e-01  5.151675e-01 -1.377424e-01
     vertex -1.587302e-02  5.151675e-01 -1.377424e-01
   endloop
 endfacet
 facet normal  0.000000e+00  0.000000e+00  1.000000e+00
   outer loop
     vertex -1.587302e-02  2.047620e-01 -1.377424e-01
     vertex  9.841270e-01  2.047620e-01 -1.377424e-01
     vertex  9.841270e-01  5.151675e-01 -1.377424e-01
   endloop
 endfacet
 facet normal  0.000000e+00 -9.828722e-01  1.842885e-01
   outer loop
     vertex -1.587302e-02  1.624339e-01 -3.634920e-01
     vertex  9.841270e-01  2.047620e-01 -1.377424e-01
     vertex -1.587302e-02  2.047620e-01 -1.377424e-01
   endloop
 endfacet
 facet normal  0.000000e+00 -9.828722e-01  1.842885e-01
   outer loop
     vertex -1.587302e-02  1.624339e-01 -3.634920e-01
     vertex  9.841270e-01  1.624339e-01 -3.634920e-01
     vertex  9.841270e-01  2.047620e-01 -1.377424e-01
   endloop
 endfacet
 facet normal  0.000000e+00  0.000000e+00  1.000000e+00
   outer loop
     vertex -1.587302e-02 -6.331566e-02 -3.634920e-01
     vertex  9.841270e-01  1.624339e-01 -3.634920e-01
     vertex -1.587302e-02  1.624339e-01 -3.634920e-01
   endloop
 endfacet
 facet normal  0.000000e+00  0.000000e+00  1.000000e+00
   outer loop
     vertex -1.587302e-02 -6.331566e-02 -3.634920e-01
     vertex  9.841270e-01 -6.331566e-02 -3.634920e-01
     vertex  9.841270e-01  1.624339e-01 -3.634920e-01
   endloop
 endfacet
 facet normal  0.000000e+00  9.847835e-01  1.737855e-01
   outer loop
     vertex -1.587302e-02 -1.056437e-01 -1.236331e-01
     vertex -1.587302e-02 -6.331566e-02 -3.634920e-01
     vertex -3.174603e-02 -6.331566e-02 -3.634920e-01
   endloop
 endfacet
 facet normal  0.000000e+00  9.847835e-01  1.737855e-01
   outer loop
     vertex -1.587302e-02 -1.056437e-01 -1.236331e-01
     vertex -3.174603e-02 -6.331566e-02 -3.634920e-01
     vertex -3.174603e-02 -1.056437e-01 -1.236331e-01
   endloop
 endfacet
 facet normal  0.000000e+00  7.071072e-01 -7.071064e-01
   outer loop
     vertex -1.587302e-02  5.292769e-01 -4.058201e-01
     vertex -1.587302e-02  5.010582e-01 -4.340388e-01
     vertex -3.174603e-02  5.010582e-01 -4.340388e-01
   endloop
 endfacet
 facet normal  0.000000e+00  7.071072e-01 -7.071064e-01
   outer loop
     vertex -1.587302e-02  5.292769e-01 -4.058201e-01
     vertex -3.174603e-02  5.010582e-01 -4.340388e-01
     vertex -3.174603e-02  5.292769e-01 -4.058201e-01
   endloop
 endfacet
 facet normal  0.000000e+00  9.986178e-01  5.255892e-02
   outer loop
     vertex -1.587302e-02  5.151675e-01 -1.377424e-01
     vertex -1.587302e-02  5.292769e-01 -4.058201e-01
     vertex -3.174603e-02  5.292769e-01 -4.058201e-01
   endloop
 endfacet
 facet normal  0.000000e+00  9.986178e-01  5.255892e-02
   outer loop
     vertex -1.587302e-02  5.151675e-01 -1.377424e-01
     vertex -3.174603e-02  5.292769e-01 -4.058201e-01
     vertex -3.174603e-02  5.151675e-01 -1.377424e-01
   endloop
 endfacet
 facet normal  0.000000e+00 -0.000000e+00  1.000000e+00
   outer loop
     vertex -1.587302e-02  2.047620e-01 -1.377424e-01
     vertex -1.587302e-02  5.151675e-01 -1.377424e-01
     vertex -3.174603e-02  5.151675e-01 -1.377424e-01
   endloop
 endfacet
 facet normal  0.000000e+00  0.000000e+00  1.000000e+00
   outer loop
     vertex -1.587302e-02  2.047620e-01 -1.377424e-01
     vertex -3.174603e-02  5.151675e-01 -1.377424e-01
     vertex -3.174603e-02  2.047620e-01 -1.377424e-01
   endloop
 endfacet
 facet normal  0.000000e+00 -9.828722e-01  1.842885e-01
   outer loop
     vertex -1.587302e-02  1.624339e-01 -3.634920e-01
     vertex -1.587302e-02  2.047620e-01 -1.377424e-01
     vertex -3.174603e-02  2.047620e-01 -1.377424e-01
   endloop
 endfacet
 facet normal  0.000000e+00 -9.828722e-01  1.842885e-01
   outer loop
     vertex -1.587302e-02  1.624339e-01 -3.634920e-01
     vertex -3.174603e-02  2.047620e-01 -1.377424e-01
     vertex -3.174603e-02  1.624339e-01 -3.634920e-01
   endloop
 endfacet
 facet normal  0.000000e+00 -0.000000e+00  1.000000e+00
   outer loop
     vertex -1.587302e-02 -6.331566e-02 -3.634920e-01
     vertex -1.587302e-02  1.624339e-01 -3.634920e-01
     vertex -3.174603e-02  1.624339e-01 -3.634920e-01
   endloop
 endfacet
 facet normal  0.000000e+00  0.000000e+00  1.000000e+00
   outer loop
     vertex -1.587302e-02 -6.331566e-02 -3.634920e-01
     vertex -3.174603e-02  1.624339e-01 -3.634920e-01
     vertex -3.174603e-02 -6.331566e-02 -3.634920e-01
   endloop
 endfacet
endsolid
