solid 
 facet normal  0.000000e+00 -1.000000e+00  0.000000e+00
   outer loop
     vertex  7.550265e-01 -7.671958e-02 -1.587302e-02
     vertex -3.509703e-02 -7.671958e-02  9.841270e-01
     vertex -3.509703e-02 -7.671958e-02 -1.587302e-02
   endloop
 endfacet
 facet normal  0.000000e+00 -1.000000e+00  0.000000e+00
   outer loop
     vertex  7.550265e-01 -7.671958e-02 -1.587302e-02
     vertex  7.550265e-01 -7.671958e-02  9.841270e-01
     vertex -3.509703e-02 -7.671958e-02  9.841270e-01
   endloop
 endfacet
 facet normal -1.000000e+00  0.000000e+00  0.000000e+00
   outer loop
     vertex -3.509703e-02 -7.671958e-02 -1.587302e-02
     vertex -3.509703e-02  9.109347e-01  9.841270e-01
     vertex -3.509703e-02  9.109347e-01 -1.587302e-02
   endloop
 endfacet
 facet normal -1.000000e+00  0.000000e+00  0.000000e+00
   outer loop
     vertex -3.509703e-02 -7.671958e-02 -1.587302e-02
     vertex -3.509703e-02 -7.671958e-02  9.841270e-01
     vertex -3.509703e-02  9.109347e-01  9.841270e-01
   endloop
 endfacet
 facet normal  1.000000e+00  0.000000e+00  0.000000e+00
   outer loop
     vertex  7.550265e-01  9.109347e-01 -1.587302e-02
     vertex  7.550265e-01 -7.671958e-02  9.841270e-01
     vertex  7.550265e-01 -7.671958e-02 -1.587302e-02
   endloop
 endfacet
 facet normal  1.000000e+00  0.000000e+00 -0.000000e+00
   outer loop
     vertex  7.550265e-01  9.109347e-01 -1.587302e-02
     vertex  7.550265e-01  9.109347e-01  9.841270e-01
     vertex  7.550265e-01 -7.671958e-02  9.841270e-01
   endloop
 endfacet
 facet normal -0.000000e+00 -1.000000e+00  0.000000e+00
   outer loop
     vertex  7.550265e-01 -7.671958e-02 -1.587302e-02
     vertex -3.509703e-02 -7.671958e-02 -1.587302e-02
     vertex -3.509703e-02 -7.671958e-02 -3.174603e-02
   endloop
 endfacet
 facet normal  0.000000e+00 -1.000000e+00 -0.000000e+00
   outer loop
     vertex  7.550265e-01 -7.671958e-02 -1.587302e-02
     vertex -3.509703e-02 -7.671958e-02 -3.174603e-02
     vertex  7.550265e-01 -7.671958e-02 -3.174603e-02
   endloop
 endfacet
 facet normal  0.000000e+00  0.000000e+00  1.000000e+00
   outer loop
     vertex  7.550265e-01  9.109347e-01  9.841270e-01
     vertex -3.509703e-02 -7.671958e-02  9.841270e-01
     vertex  7.550265e-01 -7.671958e-02  9.841270e-01
   endloop
 endfacet
 facet normal  0.000000e+00  0.000000e+00  1.000000e+00
   outer loop
     vertex  7.550265e-01  9.109347e-01  9.841270e-01
     vertex -3.509703e-02  9.109347e-01  9.841270e-01
     vertex -3.509703e-02 -7.671958e-02  9.841270e-01
   endloop
 endfacet
 facet normal  0.000000e+00  1.000000e+00  0.000000e+00
   outer loop
     vertex -3.509703e-02  9.109347e-01 -1.587302e-02
     vertex  7.550265e-01  9.109347e-01  9.841270e-01
     vertex  7.550265e-01  9.109347e-01 -1.587302e-02
   endloop
 endfacet
 facet normal  0.000000e+00  1.000000e+00  0.000000e+00
   outer loop
     vertex -3.509703e-02  9.109347e-01 -1.587302e-02
     vertex -3.509703e-02  9.109347e-01  9.841270e-01
     vertex  7.550265e-01  9.109347e-01  9.841270e-01
   endloop
 endfacet
 facet normal -1.000000e+00  0.000000e+00  0.000000e+00
   outer loop
     vertex -3.509703e-02 -7.671958e-02 -1.587302e-02
     vertex -3.509703e-02  9.109347e-01 -1.587302e-02
     vertex -3.509703e-02  9.109347e-01 -3.174603e-02
   endloop
 endfacet
 facet normal -1.000000e+00  0.000000e+00  0.000000e+00
   outer loop
     vertex -3.509703e-02 -7.671958e-02 -1.587302e-02
     vertex -3.509703e-02  9.109347e-01 -3.174603e-02
     vertex -3.509703e-02 -7.671958e-02 -3.174603e-02
   endloop
 endfacet
 facet normal  1.000000e+00  0.000000e+00  0.000000e+00
   outer loop
     vertex  7.550265e-01  9.109347e-01 -1.587302e-02
     vertex  7.550265e-01 -7.671958e-02 -1.587302e-02
     vertex  7.550265e-01 -7.671958e-02 -3.174603e-02
   endloop
 endfacet
 facet normal  1.000000e+00  0.000000e+00  0.000000e+00
   outer loop
     vertex  7.550265e-01  9.109347e-01 -1.587302e-02
     vertex  7.550265e-01 -7.671958e-02 -3.174603e-02
     vertex  7.550265e-01  9.109347e-01 -3.174603e-02
   endloop
 endfacet
 facet normal  0.000000e+00 -0.000000e+00 -1.000000e+00
   outer loop
     vertex  7.550265e-01  9.109347e-01 -3.174603e-02
     vertex  7.550265e-01 -7.671958e-02 -3.174603e-02
     vertex -3.509703e-02 -7.671958e-02 -3.174603e-02
   endloop
 endfacet
 facet normal -0.000000e+00  0.000000e+00 -1.000000e+00
   outer loop
     vertex  7.550265e-01  9.109347e-01 -3.174603e-02
     vertex -3.509703e-02 -7.671958e-02 -3.174603e-02
     vertex -3.509703e-02  9.109347e-01 -3.174603e-02
   endloop
 endfacet
 facet normal -0.000000e+00  1.000000e+00  0.000000e+00
   outer loop
     vertex -3.509703e-02  9.109347e-01 -1.587302e-02
     vertex  7.550265e-01  9.109347e-01 -1.587302e-02
     vertex  7.550265e-01  9.109347e-01 -3.174603e-02
   endloop
 endfacet
 facet normal  0.000000e+00  1.000000e+00  0.000000e+00
   outer loop
     vertex -3.509703e-02  9.109347e-01 -1.587302e-02
     vertex  7.550265e-01  9.109347e-01 -3.174603e-02
     vertex -3.509703e-02  9.109347e-01 -3.174603e-02
   endloop
 endfacet
 facet normal -9.973323e-01  0.000000e+00 -7.299531e-02
   outer loop
     vertex  5.339942e-01  0.000000e+00  5.292337e-01
     vertex  5.359789e-01  4.444444e-01  5.021165e-01
     vertex  5.359789e-01  0.000000e+00  5.021165e-01
   endloop
 endfacet
 facet normal -9.973323e-01  0.000000e+00 -7.299531e-02
   outer loop
     vertex  5.339942e-01  0.000000e+00  5.292337e-01
     vertex  5.339942e-01  4.444444e-01  5.292337e-01
     vertex  5.359789e-01  4.444444e-01  5.021165e-01
   endloop
 endfacet
 facet normal -9.760759e-01  0.000000e+00 -2.174302e-01
   outer loop
     vertex  5.280823e-01  0.000000e+00  5.557730e-01
     vertex  5.280823e-01  4.444444e-01  5.557730e-01
     vertex  5.339942e-01  4.444444e-01  5.292337e-01
   endloop
 endfacet
 facet normal -9.760759e-01  0.000000e+00 -2.174302e-01
   outer loop
     vertex  5.280823e-01  0.000000e+00  5.557730e-01
     vertex  5.339942e-01  4.444444e-01  5.292337e-01
     vertex  5.339942e-01  0.000000e+00  5.292337e-01
   endloop
 endfacet
 facet normal -9.340161e-01  0.000000e+00 -3.572309e-01
   outer loop
     vertex  5.183693e-01  0.000000e+00  5.811687e-01
     vertex  5.280823e-01  4.444444e-01  5.557730e-01
     vertex  5.280823e-01  0.000000e+00  5.557730e-01
   endloop
 endfacet
 facet normal -9.340161e-01  0.000000e+00 -3.572309e-01
   outer loop
     vertex  5.183693e-01  0.000000e+00  5.811687e-01
     vertex  5.183693e-01  4.444444e-01  5.811687e-01
     vertex  5.280823e-01  4.444444e-01  5.557730e-01
   endloop
 endfacet
 facet normal -8.720494e-01  0.000000e+00 -4.894178e-01
   outer loop
     vertex  5.050621e-01  0.000000e+00  6.048796e-01
     vertex  5.183693e-01  4.444444e-01  5.811687e-01
     vertex  5.183693e-01  0.000000e+00  5.811687e-01
   endloop
 endfacet
 facet normal -8.720494e-01  0.000000e+00 -4.894178e-01
   outer loop
     vertex  5.050621e-01  0.000000e+00  6.048796e-01
     vertex  5.050621e-01  4.444444e-01  6.048796e-01
     vertex  5.183693e-01  4.444444e-01  5.811687e-01
   endloop
 endfacet
 facet normal -7.914965e-01  0.000000e+00 -6.111737e-01
   outer loop
     vertex  4.884444e-01  0.000000e+00  6.264002e-01
     vertex  5.050621e-01  4.444444e-01  6.048796e-01
     vertex  5.050621e-01  0.000000e+00  6.048796e-01
   endloop
 endfacet
 facet normal -7.914965e-01  0.000000e+00 -6.111737e-01
   outer loop
     vertex  4.884444e-01  0.000000e+00  6.264002e-01
     vertex  4.884444e-01  4.444444e-01  6.264002e-01
     vertex  5.050621e-01  4.444444e-01  6.048796e-01
   endloop
 endfacet
 facet normal -6.940742e-01  0.000000e+00 -7.199035e-01
   outer loop
     vertex  4.688704e-01  0.000000e+00  6.452719e-01
     vertex  4.884444e-01  4.444444e-01  6.264002e-01
     vertex  4.884444e-01  0.000000e+00  6.264002e-01
   endloop
 endfacet
 facet normal -6.940742e-01  0.000000e+00 -7.199035e-01
   outer loop
     vertex  4.688704e-01  0.000000e+00  6.452719e-01
     vertex  4.688704e-01  4.444444e-01  6.452719e-01
     vertex  4.884444e-01  4.444444e-01  6.264002e-01
   endloop
 endfacet
 facet normal -5.818589e-01  0.000000e+00 -8.132897e-01
   outer loop
     vertex  4.467572e-01  0.000000e+00  6.610925e-01
     vertex  4.688704e-01  4.444444e-01  6.452719e-01
     vertex  4.688704e-01  0.000000e+00  6.452719e-01
   endloop
 endfacet
 facet normal -5.818589e-01  0.000000e+00 -8.132897e-01
   outer loop
     vertex  4.467572e-01  0.000000e+00  6.610925e-01
     vertex  4.467572e-01  4.444444e-01  6.610925e-01
     vertex  4.688704e-01  4.444444e-01  6.452719e-01
   endloop
 endfacet
 facet normal -4.572423e-01  0.000000e+00 -8.893421e-01
   outer loop
     vertex  4.225762e-01  0.000000e+00  6.735249e-01
     vertex  4.467572e-01  4.444444e-01  6.610925e-01
     vertex  4.467572e-01  0.000000e+00  6.610925e-01
   endloop
 endfacet
 facet normal -4.572423e-01  0.000000e+00 -8.893421e-01
   outer loop
     vertex  4.225762e-01  0.000000e+00  6.735249e-01
     vertex  4.225762e-01  4.444444e-01  6.735249e-01
     vertex  4.467572e-01  4.444444e-01  6.610925e-01
   endloop
 endfacet
 facet normal -3.228804e-01  0.000000e+00 -9.464398e-01
   outer loop
     vertex  4.225762e-01  0.000000e+00  6.735249e-01
     vertex  3.968427e-01  4.444444e-01  6.823039e-01
     vertex  4.225762e-01  4.444444e-01  6.735249e-01
   endloop
 endfacet
 facet normal -3.228804e-01  0.000000e+00 -9.464398e-01
   outer loop
     vertex  3.968427e-01  0.000000e+00  6.823039e-01
     vertex  3.968427e-01  4.444444e-01  6.823039e-01
     vertex  4.225762e-01  0.000000e+00  6.735249e-01
   endloop
 endfacet
 facet normal -1.816369e-01  0.000000e+00 -9.833657e-01
   outer loop
     vertex  3.968427e-01  0.000000e+00  6.823039e-01
     vertex  3.701052e-01  4.444444e-01  6.872426e-01
     vertex  3.968427e-01  4.444444e-01  6.823039e-01
   endloop
 endfacet
 facet normal -1.816369e-01  0.000000e+00 -9.833657e-01
   outer loop
     vertex  3.701052e-01  0.000000e+00  6.872426e-01
     vertex  3.701052e-01  4.444444e-01  6.872426e-01
     vertex  3.968427e-01  0.000000e+00  6.823039e-01
   endloop
 endfacet
 facet normal -3.652202e-02  0.000000e+00 -9.993328e-01
   outer loop
     vertex  3.429335e-01  0.000000e+00  6.882356e-01
     vertex  3.701052e-01  4.444444e-01  6.872426e-01
     vertex  3.701052e-01  0.000000e+00  6.872426e-01
   endloop
 endfacet
 facet normal -3.652202e-02  0.000000e+00 -9.993328e-01
   outer loop
     vertex  3.429335e-01  0.000000e+00  6.882356e-01
     vertex  3.429335e-01  4.444444e-01  6.882356e-01
     vertex  3.701052e-01  4.444444e-01  6.872426e-01
   endloop
 endfacet
 facet normal  1.093712e-01  0.000000e+00 -9.940010e-01
   outer loop
     vertex  3.429335e-01  0.000000e+00  6.882356e-01
     vertex  3.159069e-01  4.444444e-01  6.852618e-01
     vertex  3.429335e-01  4.444444e-01  6.882356e-01
   endloop
 endfacet
 facet normal  1.093712e-01  0.000000e+00 -9.940010e-01
   outer loop
     vertex  3.159069e-01  0.000000e+00  6.852618e-01
     vertex  3.159069e-01  4.444444e-01  6.852618e-01
     vertex  3.429335e-01  0.000000e+00  6.882356e-01
   endloop
 endfacet
 facet normal  2.529334e-01  0.000000e+00 -9.674837e-01
   outer loop
     vertex  2.896012e-01  0.000000e+00  6.783846e-01
     vertex  3.159069e-01  4.444444e-01  6.852618e-01
     vertex  3.159069e-01  0.000000e+00  6.852618e-01
   endloop
 endfacet
 facet normal  2.529334e-01  0.000000e+00 -9.674837e-01
   outer loop
     vertex  2.896012e-01  0.000000e+00  6.783846e-01
     vertex  2.896012e-01  4.444444e-01  6.783846e-01
     vertex  3.159069e-01  4.444444e-01  6.852618e-01
   endloop
 endfacet
 facet normal  3.911047e-01  0.000000e+00 -9.203462e-01
   outer loop
     vertex  2.645772e-01  0.000000e+00  6.677506e-01
     vertex  2.896012e-01  4.444444e-01  6.783846e-01
     vertex  2.896012e-01  0.000000e+00  6.783846e-01
   endloop
 endfacet
 facet normal  3.911047e-01  0.000000e+00 -9.203462e-01
   outer loop
     vertex  2.645772e-01  0.000000e+00  6.677506e-01
     vertex  2.645772e-01  4.444444e-01  6.677506e-01
     vertex  2.896012e-01  4.444444e-01  6.783846e-01
   endloop
 endfacet
 facet normal  5.209403e-01  0.000000e+00 -8.535931e-01
   outer loop
     vertex  2.413681e-01  0.000000e+00  6.535863e-01
     vertex  2.645772e-01  4.444444e-01  6.677506e-01
     vertex  2.645772e-01  0.000000e+00  6.677506e-01
   endloop
 endfacet
 facet normal  5.209403e-01  0.000000e+00 -8.535931e-01
   outer loop
     vertex  2.413681e-01  0.000000e+00  6.535863e-01
     vertex  2.413681e-01  4.444444e-01  6.535863e-01
     vertex  2.645772e-01  4.444444e-01  6.677506e-01
   endloop
 endfacet
 facet normal  6.396730e-01  0.000000e+00 -7.686471e-01
   outer loop
     vertex  2.204688e-01  0.000000e+00  6.361937e-01
     vertex  2.413681e-01  4.444444e-01  6.535863e-01
     vertex  2.413681e-01  0.000000e+00  6.535863e-01
   endloop
 endfacet
 facet normal  6.396730e-01  0.000000e+00 -7.686471e-01
   outer loop
     vertex  2.204688e-01  0.000000e+00  6.361937e-01
     vertex  2.204688e-01  4.444444e-01  6.361937e-01
     vertex  2.413681e-01  4.444444e-01  6.535863e-01
   endloop
 endfacet
 facet normal  7.447722e-01  0.000000e+00 -6.673188e-01
   outer loop
     vertex  2.204688e-01  0.000000e+00  6.361937e-01
     vertex  2.023245e-01  4.444444e-01  6.159435e-01
     vertex  2.204688e-01  4.444444e-01  6.361937e-01
   endloop
 endfacet
 facet normal  7.447722e-01  0.000000e+00 -6.673188e-01
   outer loop
     vertex  2.023245e-01  0.000000e+00  6.159435e-01
     vertex  2.023245e-01  4.444444e-01  6.159435e-01
     vertex  2.204688e-01  0.000000e+00  6.361937e-01
   endloop
 endfacet
 facet normal  8.339978e-01  0.000000e+00 -5.517677e-01
   outer loop
     vertex  1.873221e-01  0.000000e+00  5.932673e-01
     vertex  1.873221e-01  4.444444e-01  5.932673e-01
     vertex  2.023245e-01  4.444444e-01  6.159435e-01
   endloop
 endfacet
 facet normal  8.339978e-01  0.000000e+00 -5.517677e-01
   outer loop
     vertex  1.873221e-01  0.000000e+00  5.932673e-01
     vertex  2.023245e-01  4.444444e-01  6.159435e-01
     vertex  2.023245e-01  0.000000e+00  6.159435e-01
   endloop
 endfacet
 facet normal  9.054482e-01  0.000000e+00 -4.244567e-01
   outer loop
     vertex  1.757812e-01  0.000000e+00  5.686484e-01
     vertex  1.757812e-01  4.444444e-01  5.686484e-01
     vertex  1.873221e-01  4.444444e-01  5.932673e-01
   endloop
 endfacet
 facet normal  9.054482e-01  0.000000e+00 -4.244567e-01
   outer loop
     vertex  1.757812e-01  0.000000e+00  5.686484e-01
     vertex  1.873221e-01  4.444444e-01  5.932673e-01
     vertex  1.873221e-01  0.000000e+00  5.932673e-01
   endloop
 endfacet
 facet normal  9.576006e-01  0.000000e+00 -2.880991e-01
   outer loop
     vertex  1.679478e-01  0.000000e+00  5.426114e-01
     vertex  1.679478e-01  4.444444e-01  5.426114e-01
     vertex  1.757812e-01  4.444444e-01  5.686484e-01
   endloop
 endfacet
 facet normal  9.576006e-01  0.000000e+00 -2.880991e-01
   outer loop
     vertex  1.679478e-01  0.000000e+00  5.426114e-01
     vertex  1.757812e-01  4.444444e-01  5.686484e-01
     vertex  1.757812e-01  0.000000e+00  5.686484e-01
   endloop
 endfacet
 facet normal  9.893434e-01  0.000000e+00 -1.456012e-01
   outer loop
     vertex  1.639890e-01  0.000000e+00  5.157114e-01
     vertex  1.639890e-01  4.444444e-01  5.157114e-01
     vertex  1.679478e-01  4.444444e-01  5.426114e-01
   endloop
 endfacet
 facet normal  1.000000e+00  0.000000e+00 -2.041618e-15
   outer loop
     vertex  1.639890e-01  0.000000e+00  5.157114e-01
     vertex  1.639890e-01  4.444444e-01  4.885216e-01
     vertex  1.639890e-01  4.444444e-01  5.157114e-01
   endloop
 endfacet
 facet normal  9.893434e-01  0.000000e+00 -1.456012e-01
   outer loop
     vertex  1.639890e-01  0.000000e+00  5.157114e-01
     vertex  1.679478e-01  4.444444e-01  5.426114e-01
     vertex  1.679478e-01  0.000000e+00  5.426114e-01
   endloop
 endfacet
 facet normal  1.000000e+00  0.000000e+00 -2.041618e-15
   outer loop
     vertex  1.639890e-01  0.000000e+00  4.885216e-01
     vertex  1.639890e-01  4.444444e-01  4.885216e-01
     vertex  1.639890e-01  0.000000e+00  5.157114e-01
   endloop
 endfacet
 facet normal  9.893434e-01 -0.000000e+00  1.456012e-01
   outer loop
     vertex  1.679478e-01  0.000000e+00  4.616215e-01
     vertex  1.679478e-01  4.444444e-01  4.616215e-01
     vertex  1.639890e-01  4.444444e-01  4.885216e-01
   endloop
 endfacet
 facet normal  9.893434e-01  0.000000e+00  1.456012e-01
   outer loop
     vertex  1.679478e-01  0.000000e+00  4.616215e-01
     vertex  1.639890e-01  4.444444e-01  4.885216e-01
     vertex  1.639890e-01  0.000000e+00  4.885216e-01
   endloop
 endfacet
 facet normal  9.576006e-01 -0.000000e+00  2.880991e-01
   outer loop
     vertex  1.757812e-01  0.000000e+00  4.355846e-01
     vertex  1.757812e-01  4.444444e-01  4.355846e-01
     vertex  1.679478e-01  4.444444e-01  4.616215e-01
   endloop
 endfacet
 facet normal  9.576006e-01  0.000000e+00  2.880991e-01
   outer loop
     vertex  1.757812e-01  0.000000e+00  4.355846e-01
     vertex  1.679478e-01  4.444444e-01  4.616215e-01
     vertex  1.679478e-01  0.000000e+00  4.616215e-01
   endloop
 endfacet
 facet normal  9.054482e-01 -0.000000e+00  4.244567e-01
   outer loop
     vertex  1.873221e-01  0.000000e+00  4.109656e-01
     vertex  1.873221e-01  4.444444e-01  4.109656e-01
     vertex  1.757812e-01  4.444444e-01  4.355846e-01
   endloop
 endfacet
 facet normal  9.054482e-01  0.000000e+00  4.244567e-01
   outer loop
     vertex  1.873221e-01  0.000000e+00  4.109656e-01
     vertex  1.757812e-01  4.444444e-01  4.355846e-01
     vertex  1.757812e-01  0.000000e+00  4.355846e-01
   endloop
 endfacet
 facet normal  8.339978e-01 -0.000000e+00  5.517677e-01
   outer loop
     vertex  2.023245e-01  0.000000e+00  3.882894e-01
     vertex  2.023245e-01  4.444444e-01  3.882894e-01
     vertex  1.873221e-01  4.444444e-01  4.109656e-01
   endloop
 endfacet
 facet normal  8.339978e-01  0.000000e+00  5.517677e-01
   outer loop
     vertex  2.023245e-01  0.000000e+00  3.882894e-01
     vertex  1.873221e-01  4.444444e-01  4.109656e-01
     vertex  1.873221e-01  0.000000e+00  4.109656e-01
   endloop
 endfacet
 facet normal  7.447722e-01 -0.000000e+00  6.673188e-01
   outer loop
     vertex  2.204688e-01  0.000000e+00  3.680392e-01
     vertex  2.204688e-01  4.444444e-01  3.680392e-01
     vertex  2.023245e-01  4.444444e-01  3.882894e-01
   endloop
 endfacet
 facet normal  7.447722e-01  0.000000e+00  6.673188e-01
   outer loop
     vertex  2.204688e-01  0.000000e+00  3.680392e-01
     vertex  2.023245e-01  4.444444e-01  3.882894e-01
     vertex  2.023245e-01  0.000000e+00  3.882894e-01
   endloop
 endfacet
 facet normal  6.396730e-01  0.000000e+00  7.686471e-01
   outer loop
     vertex  2.413681e-01  0.000000e+00  3.506466e-01
     vertex  2.204688e-01  4.444444e-01  3.680392e-01
     vertex  2.204688e-01  0.000000e+00  3.680392e-01
   endloop
 endfacet
 facet normal  6.396730e-01 -0.000000e+00  7.686471e-01
   outer loop
     vertex  2.413681e-01  0.000000e+00  3.506466e-01
     vertex  2.413681e-01  4.444444e-01  3.506466e-01
     vertex  2.204688e-01  4.444444e-01  3.680392e-01
   endloop
 endfacet
 facet normal  5.209403e-01  0.000000e+00  8.535931e-01
   outer loop
     vertex  2.645772e-01  0.000000e+00  3.364824e-01
     vertex  2.413681e-01  4.444444e-01  3.506466e-01
     vertex  2.413681e-01  0.000000e+00  3.506466e-01
   endloop
 endfacet
 facet normal  5.209403e-01 -0.000000e+00  8.535931e-01
   outer loop
     vertex  2.645772e-01  0.000000e+00  3.364824e-01
     vertex  2.645772e-01  4.444444e-01  3.364824e-01
     vertex  2.413681e-01  4.444444e-01  3.506466e-01
   endloop
 endfacet
 facet normal  3.911047e-01  0.000000e+00  9.203462e-01
   outer loop
     vertex  2.896012e-01  0.000000e+00  3.258483e-01
     vertex  2.645772e-01  4.444444e-01  3.364824e-01
     vertex  2.645772e-01  0.000000e+00  3.364824e-01
   endloop
 endfacet
 facet normal  3.911047e-01 -0.000000e+00  9.203462e-01
   outer loop
     vertex  2.896012e-01  0.000000e+00  3.258483e-01
     vertex  2.896012e-01  4.444444e-01  3.258483e-01
     vertex  2.645772e-01  4.444444e-01  3.364824e-01
   endloop
 endfacet
 facet normal  2.529334e-01  0.000000e+00  9.674837e-01
   outer loop
     vertex  3.159069e-01  0.000000e+00  3.189711e-01
     vertex  2.896012e-01  4.444444e-01  3.258483e-01
     vertex  2.896012e-01  0.000000e+00  3.258483e-01
   endloop
 endfacet
 facet normal  2.529334e-01 -0.000000e+00  9.674837e-01
   outer loop
     vertex  3.159069e-01  0.000000e+00  3.189711e-01
     vertex  3.159069e-01  4.444444e-01  3.189711e-01
     vertex  2.896012e-01  4.444444e-01  3.258483e-01
   endloop
 endfacet
 facet normal  1.093712e-01  0.000000e+00  9.940010e-01
   outer loop
     vertex  3.429335e-01  0.000000e+00  3.159973e-01
     vertex  3.159069e-01  4.444444e-01  3.189711e-01
     vertex  3.159069e-01  0.000000e+00  3.189711e-01
   endloop
 endfacet
 facet normal  1.093712e-01 -0.000000e+00  9.940010e-01
   outer loop
     vertex  3.429335e-01  0.000000e+00  3.159973e-01
     vertex  3.429335e-01  4.444444e-01  3.159973e-01
     vertex  3.159069e-01  4.444444e-01  3.189711e-01
   endloop
 endfacet
 facet normal -3.652202e-02  0.000000e+00  9.993328e-01
   outer loop
     vertex  3.701052e-01  0.000000e+00  3.169903e-01
     vertex  3.429335e-01  4.444444e-01  3.159973e-01
     vertex  3.429335e-01  0.000000e+00  3.159973e-01
   endloop
 endfacet
 facet normal -3.652202e-02  0.000000e+00  9.993328e-01
   outer loop
     vertex  3.701052e-01  0.000000e+00  3.169903e-01
     vertex  3.701052e-01  4.444444e-01  3.169903e-01
     vertex  3.429335e-01  4.444444e-01  3.159973e-01
   endloop
 endfacet
 facet normal -1.816369e-01  0.000000e+00  9.833657e-01
   outer loop
     vertex  3.968427e-01  0.000000e+00  3.219290e-01
     vertex  3.701052e-01  4.444444e-01  3.169903e-01
     vertex  3.701052e-01  0.000000e+00  3.169903e-01
   endloop
 endfacet
 facet normal -1.816369e-01  0.000000e+00  9.833657e-01
   outer loop
     vertex  3.968427e-01  0.000000e+00  3.219290e-01
     vertex  3.968427e-01  4.444444e-01  3.219290e-01
     vertex  3.701052e-01  4.444444e-01  3.169903e-01
   endloop
 endfacet
 facet normal -3.228804e-01  0.000000e+00  9.464398e-01
   outer loop
     vertex  3.968427e-01  0.000000e+00  3.219290e-01
     vertex  4.225762e-01  4.444444e-01  3.307081e-01
     vertex  3.968427e-01  4.444444e-01  3.219290e-01
   endloop
 endfacet
 facet normal -3.228804e-01  0.000000e+00  9.464398e-01
   outer loop
     vertex  4.225762e-01  0.000000e+00  3.307081e-01
     vertex  4.225762e-01  4.444444e-01  3.307081e-01
     vertex  3.968427e-01  0.000000e+00  3.219290e-01
   endloop
 endfacet
 facet normal -4.572423e-01  0.000000e+00  8.893421e-01
   outer loop
     vertex  4.467572e-01  0.000000e+00  3.431404e-01
     vertex  4.225762e-01  4.444444e-01  3.307081e-01
     vertex  4.225762e-01  0.000000e+00  3.307081e-01
   endloop
 endfacet
 facet normal -4.572423e-01  0.000000e+00  8.893421e-01
   outer loop
     vertex  4.467572e-01  0.000000e+00  3.431404e-01
     vertex  4.467572e-01  4.444444e-01  3.431404e-01
     vertex  4.225762e-01  4.444444e-01  3.307081e-01
   endloop
 endfacet
 facet normal -5.818589e-01  0.000000e+00  8.132897e-01
   outer loop
     vertex  4.688704e-01  0.000000e+00  3.589610e-01
     vertex  4.467572e-01  4.444444e-01  3.431404e-01
     vertex  4.467572e-01  0.000000e+00  3.431404e-01
   endloop
 endfacet
 facet normal -5.818589e-01  0.000000e+00  8.132897e-01
   outer loop
     vertex  4.688704e-01  0.000000e+00  3.589610e-01
     vertex  4.688704e-01  4.444444e-01  3.589610e-01
     vertex  4.467572e-01  4.444444e-01  3.431404e-01
   endloop
 endfacet
 facet normal -6.940742e-01  0.000000e+00  7.199035e-01
   outer loop
     vertex  4.884444e-01  0.000000e+00  3.778327e-01
     vertex  4.688704e-01  4.444444e-01  3.589610e-01
     vertex  4.688704e-01  0.000000e+00  3.589610e-01
   endloop
 endfacet
 facet normal -6.940742e-01  0.000000e+00  7.199035e-01
   outer loop
     vertex  4.884444e-01  0.000000e+00  3.778327e-01
     vertex  4.884444e-01  4.444444e-01  3.778327e-01
     vertex  4.688704e-01  4.444444e-01  3.589610e-01
   endloop
 endfacet
 facet normal -7.914965e-01  0.000000e+00  6.111737e-01
   outer loop
     vertex  4.884444e-01  0.000000e+00  3.778327e-01
     vertex  5.050621e-01  4.444444e-01  3.993534e-01
     vertex  4.884444e-01  4.444444e-01  3.778327e-01
   endloop
 endfacet
 facet normal -7.914965e-01  0.000000e+00  6.111737e-01
   outer loop
     vertex  5.050621e-01  0.000000e+00  3.993534e-01
     vertex  5.050621e-01  4.444444e-01  3.993534e-01
     vertex  4.884444e-01  0.000000e+00  3.778327e-01
   endloop
 endfacet
 facet normal -8.720494e-01  0.000000e+00  4.894178e-01
   outer loop
     vertex  5.183693e-01  0.000000e+00  4.230642e-01
     vertex  5.050621e-01  4.444444e-01  3.993534e-01
     vertex  5.050621e-01  0.000000e+00  3.993534e-01
   endloop
 endfacet
 facet normal -8.720494e-01  0.000000e+00  4.894178e-01
   outer loop
     vertex  5.183693e-01  0.000000e+00  4.230642e-01
     vertex  5.183693e-01  4.444444e-01  4.230642e-01
     vertex  5.050621e-01  4.444444e-01  3.993534e-01
   endloop
 endfacet
 facet normal -9.340161e-01  0.000000e+00  3.572309e-01
   outer loop
     vertex  5.280823e-01  0.000000e+00  4.484599e-01
     vertex  5.183693e-01  4.444444e-01  4.230642e-01
     vertex  5.183693e-01  0.000000e+00  4.230642e-01
   endloop
 endfacet
 facet normal -9.340161e-01  0.000000e+00  3.572309e-01
   outer loop
     vertex  5.280823e-01  0.000000e+00  4.484599e-01
     vertex  5.280823e-01  4.444444e-01  4.484599e-01
     vertex  5.183693e-01  4.444444e-01  4.230642e-01
   endloop
 endfacet
 facet normal -9.760759e-01  0.000000e+00  2.174302e-01
   outer loop
     vertex  5.339942e-01  0.000000e+00  4.749992e-01
     vertex  5.280823e-01  4.444444e-01  4.484599e-01
     vertex  5.280823e-01  0.000000e+00  4.484599e-01
   endloop
 endfacet
 facet normal -9.760759e-01  0.000000e+00  2.174302e-01
   outer loop
     vertex  5.339942e-01  0.000000e+00  4.749992e-01
     vertex  5.339942e-01  4.444444e-01  4.749992e-01
     vertex  5.280823e-01  4.444444e-01  4.484599e-01
   endloop
 endfacet
 facet normal -9.973323e-01  0.000000e+00  7.299531e-02
   outer loop
     vertex  5.359789e-01  0.000000e+00  5.021165e-01
     vertex  5.339942e-01  4.444444e-01  4.749992e-01
     vertex  5.339942e-01  0.000000e+00  4.749992e-01
   endloop
 endfacet
 facet normal -9.973323e-01  0.000000e+00  7.299531e-02
   outer loop
     vertex  5.359789e-01  0.000000e+00  5.021165e-01
     vertex  5.359789e-01  4.444444e-01  5.021165e-01
     vertex  5.339942e-01  4.444444e-01  4.749992e-01
   endloop
 endfacet
 facet normal  0.000000e+00  1.000000e+00  0.000000e+00
   outer loop
     vertex  5.339942e-01  0.000000e+00  4.749992e-01
     vertex  5.280823e-01  0.000000e+00  4.484599e-01
     vertex  5.183693e-01  0.000000e+00  4.230642e-01
   endloop
 endfacet
 facet normal  0.000000e+00  1.000000e+00  0.000000e+00
   outer loop
     vertex  5.050621e-01  0.000000e+00  6.048796e-01
     vertex  5.183693e-01  0.000000e+00  5.811687e-01
     vertex  5.280823e-01  0.000000e+00  5.557730e-01
   endloop
 endfacet
 facet normal  0.000000e+00  1.000000e+00  0.000000e+00
   outer loop
     vertex  4.884444e-01  0.000000e+00  6.264002e-01
     vertex  5.339942e-01  0.000000e+00  5.292337e-01
     vertex  5.359789e-01  0.000000e+00  5.021165e-01
   endloop
 endfacet
 facet normal  0.000000e+00  1.000000e+00  0.000000e+00
   outer loop
     vertex  4.884444e-01  0.000000e+00  6.264002e-01
     vertex  5.280823e-01  0.000000e+00  5.557730e-01
     vertex  5.339942e-01  0.000000e+00  5.292337e-01
   endloop
 endfacet
 facet normal  0.000000e+00  1.000000e+00  0.000000e+00
   outer loop
     vertex  4.884444e-01  0.000000e+00  6.264002e-01
     vertex  4.467572e-01  0.000000e+00  6.610925e-01
     vertex  4.688704e-01  0.000000e+00  6.452719e-01
   endloop
 endfacet
 facet normal  0.000000e+00  1.000000e+00  0.000000e+00
   outer loop
     vertex  4.884444e-01  0.000000e+00  6.264002e-01
     vertex  4.225762e-01  0.000000e+00  6.735249e-01
     vertex  4.467572e-01  0.000000e+00  6.610925e-01
   endloop
 endfacet
 facet normal  0.000000e+00  1.000000e+00  0.000000e+00
   outer loop
     vertex  4.884444e-01  0.000000e+00  6.264002e-01
     vertex  5.339942e-01  0.000000e+00  4.749992e-01
     vertex  5.183693e-01  0.000000e+00  4.230642e-01
   endloop
 endfacet
 facet normal  0.000000e+00  1.000000e+00  0.000000e+00
   outer loop
     vertex  4.884444e-01  0.000000e+00  6.264002e-01
     vertex  3.968427e-01  0.000000e+00  6.823039e-01
     vertex  4.225762e-01  0.000000e+00  6.735249e-01
   endloop
 endfacet
 facet normal  0.000000e+00  1.000000e+00  0.000000e+00
   outer loop
     vertex  4.884444e-01  0.000000e+00  6.264002e-01
     vertex  3.701052e-01  0.000000e+00  6.872426e-01
     vertex  3.968427e-01  0.000000e+00  6.823039e-01
   endloop
 endfacet
 facet normal  0.000000e+00  1.000000e+00  0.000000e+00
   outer loop
     vertex  4.884444e-01  0.000000e+00  6.264002e-01
     vertex  3.429335e-01  0.000000e+00  6.882356e-01
     vertex  3.701052e-01  0.000000e+00  6.872426e-01
   endloop
 endfacet
 facet normal  0.000000e+00  1.000000e+00  0.000000e+00
   outer loop
     vertex  4.884444e-01  0.000000e+00  6.264002e-01
     vertex  3.159069e-01  0.000000e+00  6.852618e-01
     vertex  3.429335e-01  0.000000e+00  6.882356e-01
   endloop
 endfacet
 facet normal  0.000000e+00  1.000000e+00  0.000000e+00
   outer loop
     vertex  4.884444e-01  0.000000e+00  6.264002e-01
     vertex  2.896012e-01  0.000000e+00  6.783846e-01
     vertex  3.159069e-01  0.000000e+00  6.852618e-01
   endloop
 endfacet
 facet normal  0.000000e+00  1.000000e+00  0.000000e+00
   outer loop
     vertex  4.884444e-01  0.000000e+00  6.264002e-01
     vertex  2.645772e-01  0.000000e+00  6.677506e-01
     vertex  2.896012e-01  0.000000e+00  6.783846e-01
   endloop
 endfacet
 facet normal  0.000000e+00  1.000000e+00  0.000000e+00
   outer loop
     vertex  4.884444e-01  0.000000e+00  6.264002e-01
     vertex  2.413681e-01  0.000000e+00  6.535863e-01
     vertex  2.645772e-01  0.000000e+00  6.677506e-01
   endloop
 endfacet
 facet normal  0.000000e+00  1.000000e+00  0.000000e+00
   outer loop
     vertex  4.884444e-01  0.000000e+00  6.264002e-01
     vertex  2.204688e-01  0.000000e+00  6.361937e-01
     vertex  2.413681e-01  0.000000e+00  6.535863e-01
   endloop
 endfacet
 facet normal  0.000000e+00  1.000000e+00  0.000000e+00
   outer loop
     vertex  4.884444e-01  0.000000e+00  6.264002e-01
     vertex  2.023245e-01  0.000000e+00  6.159435e-01
     vertex  2.204688e-01  0.000000e+00  6.361937e-01
   endloop
 endfacet
 facet normal  0.000000e+00  1.000000e+00  0.000000e+00
   outer loop
     vertex  4.884444e-01  0.000000e+00  6.264002e-01
     vertex  1.873221e-01  0.000000e+00  5.932673e-01
     vertex  2.023245e-01  0.000000e+00  6.159435e-01
   endloop
 endfacet
 facet normal  0.000000e+00  1.000000e+00  0.000000e+00
   outer loop
     vertex  4.884444e-01  0.000000e+00  6.264002e-01
     vertex  1.757812e-01  0.000000e+00  5.686484e-01
     vertex  1.873221e-01  0.000000e+00  5.932673e-01
   endloop
 endfacet
 facet normal  0.000000e+00  1.000000e+00  0.000000e+00
   outer loop
     vertex  4.884444e-01  0.000000e+00  6.264002e-01
     vertex  1.679478e-01  0.000000e+00  5.426114e-01
     vertex  1.757812e-01  0.000000e+00  5.686484e-01
   endloop
 endfacet
 facet normal  0.000000e+00  1.000000e+00  0.000000e+00
   outer loop
     vertex  4.884444e-01  0.000000e+00  6.264002e-01
     vertex  1.639890e-01  0.000000e+00  5.157114e-01
     vertex  1.679478e-01  0.000000e+00  5.426114e-01
   endloop
 endfacet
 facet normal  0.000000e+00  1.000000e+00  0.000000e+00
   outer loop
     vertex  4.884444e-01  0.000000e+00  6.264002e-01
     vertex  5.050621e-01  0.000000e+00  6.048796e-01
     vertex  5.280823e-01  0.000000e+00  5.557730e-01
   endloop
 endfacet
 facet normal  0.000000e+00  1.000000e+00  0.000000e+00
   outer loop
     vertex  4.884444e-01  0.000000e+00  6.264002e-01
     vertex  1.639890e-01  0.000000e+00  4.885216e-01
     vertex  1.639890e-01  0.000000e+00  5.157114e-01
   endloop
 endfacet
 facet normal  0.000000e+00  1.000000e+00  0.000000e+00
   outer loop
     vertex  4.884444e-01  0.000000e+00  6.264002e-01
     vertex  1.679478e-01  0.000000e+00  4.616215e-01
     vertex  1.639890e-01  0.000000e+00  4.885216e-01
   endloop
 endfacet
 facet normal  0.000000e+00  1.000000e+00  0.000000e+00
   outer loop
     vertex  4.884444e-01  0.000000e+00  6.264002e-01
     vertex  1.757812e-01  0.000000e+00  4.355846e-01
     vertex  1.679478e-01  0.000000e+00  4.616215e-01
   endloop
 endfacet
 facet normal  0.000000e+00  1.000000e+00  0.000000e+00
   outer loop
     vertex  4.884444e-01  0.000000e+00  6.264002e-01
     vertex  1.873221e-01  0.000000e+00  4.109656e-01
     vertex  1.757812e-01  0.000000e+00  4.355846e-01
   endloop
 endfacet
 facet normal  0.000000e+00  1.000000e+00  0.000000e+00
   outer loop
     vertex  4.884444e-01  0.000000e+00  6.264002e-01
     vertex  2.023245e-01  0.000000e+00  3.882894e-01
     vertex  1.873221e-01  0.000000e+00  4.109656e-01
   endloop
 endfacet
 facet normal  0.000000e+00  1.000000e+00  0.000000e+00
   outer loop
     vertex  4.884444e-01  0.000000e+00  6.264002e-01
     vertex  2.204688e-01  0.000000e+00  3.680392e-01
     vertex  2.023245e-01  0.000000e+00  3.882894e-01
   endloop
 endfacet
 facet normal  0.000000e+00  1.000000e+00  0.000000e+00
   outer loop
     vertex  4.884444e-01  0.000000e+00  6.264002e-01
     vertex  2.413681e-01  0.000000e+00  3.506466e-01
     vertex  2.204688e-01  0.000000e+00  3.680392e-01
   endloop
 endfacet
 facet normal  0.000000e+00  1.000000e+00  0.000000e+00
   outer loop
     vertex  4.884444e-01  0.000000e+00  6.264002e-01
     vertex  2.645772e-01  0.000000e+00  3.364824e-01
     vertex  2.413681e-01  0.000000e+00  3.506466e-01
   endloop
 endfacet
 facet normal  0.000000e+00  1.000000e+00  0.000000e+00
   outer loop
     vertex  4.884444e-01  0.000000e+00  6.264002e-01
     vertex  2.896012e-01  0.000000e+00  3.258483e-01
     vertex  2.645772e-01  0.000000e+00  3.364824e-01
   endloop
 endfacet
 facet normal  0.000000e+00  1.000000e+00  0.000000e+00
   outer loop
     vertex  4.884444e-01  0.000000e+00  6.264002e-01
     vertex  3.159069e-01  0.000000e+00  3.189711e-01
     vertex  2.896012e-01  0.000000e+00  3.258483e-01
   endloop
 endfacet
 facet normal  0.000000e+00  1.000000e+00  0.000000e+00
   outer loop
     vertex  4.884444e-01  0.000000e+00  6.264002e-01
     vertex  3.429335e-01  0.000000e+00  3.159973e-01
     vertex  3.159069e-01  0.000000e+00  3.189711e-01
   endloop
 endfacet
 facet normal  0.000000e+00  1.000000e+00  0.000000e+00
   outer loop
     vertex  4.884444e-01  0.000000e+00  6.264002e-01
     vertex  3.701052e-01  0.000000e+00  3.169903e-01
     vertex  3.429335e-01  0.000000e+00  3.159973e-01
   endloop
 endfacet
 facet normal  0.000000e+00  1.000000e+00  0.000000e+00
   outer loop
     vertex  4.884444e-01  0.000000e+00  6.264002e-01
     vertex  3.968427e-01  0.000000e+00  3.219290e-01
     vertex  3.701052e-01  0.000000e+00  3.169903e-01
   endloop
 endfacet
 facet normal  0.000000e+00  1.000000e+00  0.000000e+00
   outer loop
     vertex  4.884444e-01  0.000000e+00  6.264002e-01
     vertex  4.225762e-01  0.000000e+00  3.307081e-01
     vertex  3.968427e-01  0.000000e+00  3.219290e-01
   endloop
 endfacet
 facet normal  0.000000e+00  1.000000e+00  0.000000e+00
   outer loop
     vertex  4.884444e-01  0.000000e+00  6.264002e-01
     vertex  4.467572e-01  0.000000e+00  3.431404e-01
     vertex  4.225762e-01  0.000000e+00  3.307081e-01
   endloop
 endfacet
 facet normal  0.000000e+00  1.000000e+00  0.000000e+00
   outer loop
     vertex  4.884444e-01  0.000000e+00  6.264002e-01
     vertex  4.688704e-01  0.000000e+00  3.589610e-01
     vertex  4.467572e-01  0.000000e+00  3.431404e-01
   endloop
 endfacet
 facet normal  0.000000e+00  1.000000e+00  0.000000e+00
   outer loop
     vertex  4.884444e-01  0.000000e+00  6.264002e-01
     vertex  4.884444e-01  0.000000e+00  3.778327e-01
     vertex  4.688704e-01  0.000000e+00  3.589610e-01
   endloop
 endfacet
 facet normal  0.000000e+00  1.000000e+00  0.000000e+00
   outer loop
     vertex  4.884444e-01  0.000000e+00  6.264002e-01
     vertex  5.050621e-01  0.000000e+00  3.993534e-01
     vertex  4.884444e-01  0.000000e+00  3.778327e-01
   endloop
 endfacet
 facet normal  0.000000e+00  1.000000e+00  0.000000e+00
   outer loop
     vertex  4.884444e-01  0.000000e+00  6.264002e-01
     vertex  5.183693e-01  0.000000e+00  4.230642e-01
     vertex  5.050621e-01  0.000000e+00  3.993534e-01
   endloop
 endfacet
 facet normal  0.000000e+00  1.000000e+00  0.000000e+00
   outer loop
     vertex  4.884444e-01  0.000000e+00  6.264002e-01
     vertex  5.359789e-01  0.000000e+00  5.021165e-01
     vertex  5.339942e-01  0.000000e+00  4.749992e-01
   endloop
 endfacet
 facet normal  0.000000e+00 -1.000000e+00  0.000000e+00
   outer loop
     vertex  5.339942e-01  4.444444e-01  4.749992e-01
     vertex  5.183693e-01  4.444444e-01  4.230642e-01
     vertex  5.280823e-01  4.444444e-01  4.484599e-01
   endloop
 endfacet
 facet normal  0.000000e+00 -1.000000e+00  0.000000e+00
   outer loop
     vertex  5.050621e-01  4.444444e-01  6.048796e-01
     vertex  5.280823e-01  4.444444e-01  5.557730e-01
     vertex  5.183693e-01  4.444444e-01  5.811687e-01
   endloop
 endfacet
 facet normal  0.000000e+00 -1.000000e+00  0.000000e+00
   outer loop
     vertex  4.884444e-01  4.444444e-01  6.264002e-01
     vertex  5.359789e-01  4.444444e-01  5.021165e-01
     vertex  5.339942e-01  4.444444e-01  5.292337e-01
   endloop
 endfacet
 facet normal  0.000000e+00 -1.000000e+00  0.000000e+00
   outer loop
     vertex  4.884444e-01  4.444444e-01  6.264002e-01
     vertex  5.339942e-01  4.444444e-01  5.292337e-01
     vertex  5.280823e-01  4.444444e-01  5.557730e-01
   endloop
 endfacet
 facet normal  0.000000e+00 -1.000000e+00  0.000000e+00
   outer loop
     vertex  4.884444e-01  4.444444e-01  6.264002e-01
     vertex  4.688704e-01  4.444444e-01  6.452719e-01
     vertex  4.467572e-01  4.444444e-01  6.610925e-01
   endloop
 endfacet
 facet normal  0.000000e+00 -1.000000e+00  0.000000e+00
   outer loop
     vertex  4.884444e-01  4.444444e-01  6.264002e-01
     vertex  4.467572e-01  4.444444e-01  6.610925e-01
     vertex  4.225762e-01  4.444444e-01  6.735249e-01
   endloop
 endfacet
 facet normal  0.000000e+00 -1.000000e+00  0.000000e+00
   outer loop
     vertex  4.884444e-01  4.444444e-01  6.264002e-01
     vertex  5.183693e-01  4.444444e-01  4.230642e-01
     vertex  5.339942e-01  4.444444e-01  4.749992e-01
   endloop
 endfacet
 facet normal  0.000000e+00 -1.000000e+00  0.000000e+00
   outer loop
     vertex  4.884444e-01  4.444444e-01  6.264002e-01
     vertex  4.225762e-01  4.444444e-01  6.735249e-01
     vertex  3.968427e-01  4.444444e-01  6.823039e-01
   endloop
 endfacet
 facet normal  0.000000e+00 -1.000000e+00  0.000000e+00
   outer loop
     vertex  4.884444e-01  4.444444e-01  6.264002e-01
     vertex  3.968427e-01  4.444444e-01  6.823039e-01
     vertex  3.701052e-01  4.444444e-01  6.872426e-01
   endloop
 endfacet
 facet normal  0.000000e+00 -1.000000e+00  0.000000e+00
   outer loop
     vertex  4.884444e-01  4.444444e-01  6.264002e-01
     vertex  3.701052e-01  4.444444e-01  6.872426e-01
     vertex  3.429335e-01  4.444444e-01  6.882356e-01
   endloop
 endfacet
 facet normal  0.000000e+00 -1.000000e+00  0.000000e+00
   outer loop
     vertex  4.884444e-01  4.444444e-01  6.264002e-01
     vertex  3.429335e-01  4.444444e-01  6.882356e-01
     vertex  3.159069e-01  4.444444e-01  6.852618e-01
   endloop
 endfacet
 facet normal  0.000000e+00 -1.000000e+00  0.000000e+00
   outer loop
     vertex  4.884444e-01  4.444444e-01  6.264002e-01
     vertex  3.159069e-01  4.444444e-01  6.852618e-01
     vertex  2.896012e-01  4.444444e-01  6.783846e-01
   endloop
 endfacet
 facet normal  0.000000e+00 -1.000000e+00  0.000000e+00
   outer loop
     vertex  4.884444e-01  4.444444e-01  6.264002e-01
     vertex  2.896012e-01  4.444444e-01  6.783846e-01
     vertex  2.645772e-01  4.444444e-01  6.677506e-01
   endloop
 endfacet
 facet normal  0.000000e+00 -1.000000e+00  0.000000e+00
   outer loop
     vertex  4.884444e-01  4.444444e-01  6.264002e-01
     vertex  2.645772e-01  4.444444e-01  6.677506e-01
     vertex  2.413681e-01  4.444444e-01  6.535863e-01
   endloop
 endfacet
 facet normal  0.000000e+00 -1.000000e+00  0.000000e+00
   outer loop
     vertex  4.884444e-01  4.444444e-01  6.264002e-01
     vertex  2.413681e-01  4.444444e-01  6.535863e-01
     vertex  2.204688e-01  4.444444e-01  6.361937e-01
   endloop
 endfacet
 facet normal -0.000000e+00 -1.000000e+00  0.000000e+00
   outer loop
     vertex  4.884444e-01  4.444444e-01  6.264002e-01
     vertex  2.204688e-01  4.444444e-01  6.361937e-01
     vertex  2.023245e-01  4.444444e-01  6.159435e-01
   endloop
 endfacet
 facet normal  0.000000e+00 -1.000000e+00  0.000000e+00
   outer loop
     vertex  4.884444e-01  4.444444e-01  6.264002e-01
     vertex  2.023245e-01  4.444444e-01  6.159435e-01
     vertex  1.873221e-01  4.444444e-01  5.932673e-01
   endloop
 endfacet
 facet normal  0.000000e+00 -1.000000e+00  0.000000e+00
   outer loop
     vertex  4.884444e-01  4.444444e-01  6.264002e-01
     vertex  1.873221e-01  4.444444e-01  5.932673e-01
     vertex  1.757812e-01  4.444444e-01  5.686484e-01
   endloop
 endfacet
 facet normal  0.000000e+00 -1.000000e+00  0.000000e+00
   outer loop
     vertex  4.884444e-01  4.444444e-01  6.264002e-01
     vertex  1.757812e-01  4.444444e-01  5.686484e-01
     vertex  1.679478e-01  4.444444e-01  5.426114e-01
   endloop
 endfacet
 facet normal  0.000000e+00 -1.000000e+00  0.000000e+00
   outer loop
     vertex  4.884444e-01  4.444444e-01  6.264002e-01
     vertex  1.679478e-01  4.444444e-01  5.426114e-01
     vertex  1.639890e-01  4.444444e-01  5.157114e-01
   endloop
 endfacet
 facet normal  0.000000e+00 -1.000000e+00  0.000000e+00
   outer loop
     vertex  4.884444e-01  4.444444e-01  6.264002e-01
     vertex  5.280823e-01  4.444444e-01  5.557730e-01
     vertex  5.050621e-01  4.444444e-01  6.048796e-01
   endloop
 endfacet
 facet normal  0.000000e+00 -1.000000e+00  0.000000e+00
   outer loop
     vertex  4.884444e-01  4.444444e-01  6.264002e-01
     vertex  1.639890e-01  4.444444e-01  5.157114e-01
     vertex  1.639890e-01  4.444444e-01  4.885216e-01
   endloop
 endfacet
 facet normal  0.000000e+00 -1.000000e+00  0.000000e+00
   outer loop
     vertex  4.884444e-01  4.444444e-01  6.264002e-01
     vertex  1.639890e-01  4.444444e-01  4.885216e-01
     vertex  1.679478e-01  4.444444e-01  4.616215e-01
   endloop
 endfacet
 facet normal  0.000000e+00 -1.000000e+00  0.000000e+00
   outer loop
     vertex  4.884444e-01  4.444444e-01  6.264002e-01
     vertex  1.679478e-01  4.444444e-01  4.616215e-01
     vertex  1.757812e-01  4.444444e-01  4.355846e-01
   endloop
 endfacet
 facet normal  0.000000e+00 -1.000000e+00  0.000000e+00
   outer loop
     vertex  4.884444e-01  4.444444e-01  6.264002e-01
     vertex  1.757812e-01  4.444444e-01  4.355846e-01
     vertex  1.873221e-01  4.444444e-01  4.109656e-01
   endloop
 endfacet
 facet normal  0.000000e+00 -1.000000e+00  0.000000e+00
   outer loop
     vertex  4.884444e-01  4.444444e-01  6.264002e-01
     vertex  1.873221e-01  4.444444e-01  4.109656e-01
     vertex  2.023245e-01  4.444444e-01  3.882894e-01
   endloop
 endfacet
 facet normal  0.000000e+00 -1.000000e+00  0.000000e+00
   outer loop
     vertex  4.884444e-01  4.444444e-01  6.264002e-01
     vertex  2.023245e-01  4.444444e-01  3.882894e-01
     vertex  2.204688e-01  4.444444e-01  3.680392e-01
   endloop
 endfacet
 facet normal  0.000000e+00 -1.000000e+00  0.000000e+00
   outer loop
     vertex  4.884444e-01  4.444444e-01  6.264002e-01
     vertex  2.204688e-01  4.444444e-01  3.680392e-01
     vertex  2.413681e-01  4.444444e-01  3.506466e-01
   endloop
 endfacet
 facet normal  0.000000e+00 -1.000000e+00  0.000000e+00
   outer loop
     vertex  4.884444e-01  4.444444e-01  6.264002e-01
     vertex  2.413681e-01  4.444444e-01  3.506466e-01
     vertex  2.645772e-01  4.444444e-01  3.364824e-01
   endloop
 endfacet
 facet normal  0.000000e+00 -1.000000e+00  0.000000e+00
   outer loop
     vertex  4.884444e-01  4.444444e-01  6.264002e-01
     vertex  2.645772e-01  4.444444e-01  3.364824e-01
     vertex  2.896012e-01  4.444444e-01  3.258483e-01
   endloop
 endfacet
 facet normal  0.000000e+00 -1.000000e+00  0.000000e+00
   outer loop
     vertex  4.884444e-01  4.444444e-01  6.264002e-01
     vertex  2.896012e-01  4.444444e-01  3.258483e-01
     vertex  3.159069e-01  4.444444e-01  3.189711e-01
   endloop
 endfacet
 facet normal  0.000000e+00 -1.000000e+00  0.000000e+00
   outer loop
     vertex  4.884444e-01  4.444444e-01  6.264002e-01
     vertex  3.159069e-01  4.444444e-01  3.189711e-01
     vertex  3.429335e-01  4.444444e-01  3.159973e-01
   endloop
 endfacet
 facet normal  0.000000e+00 -1.000000e+00  0.000000e+00
   outer loop
     vertex  4.884444e-01  4.444444e-01  6.264002e-01
     vertex  3.429335e-01  4.444444e-01  3.159973e-01
     vertex  3.701052e-01  4.444444e-01  3.169903e-01
   endloop
 endfacet
 facet normal  0.000000e+00 -1.000000e+00  0.000000e+00
   outer loop
     vertex  4.884444e-01  4.444444e-01  6.264002e-01
     vertex  3.701052e-01  4.444444e-01  3.169903e-01
     vertex  3.968427e-01  4.444444e-01  3.219290e-01
   endloop
 endfacet
 facet normal  0.000000e+00 -1.000000e+00  0.000000e+00
   outer loop
     vertex  4.884444e-01  4.444444e-01  6.264002e-01
     vertex  3.968427e-01  4.444444e-01  3.219290e-01
     vertex  4.225762e-01  4.444444e-01  3.307081e-01
   endloop
 endfacet
 facet normal  0.000000e+00 -1.000000e+00  0.000000e+00
   outer loop
     vertex  4.884444e-01  4.444444e-01  6.264002e-01
     vertex  4.225762e-01  4.444444e-01  3.307081e-01
     vertex  4.467572e-01  4.444444e-01  3.431404e-01
   endloop
 endfacet
 facet normal  0.000000e+00 -1.000000e+00  0.000000e+00
   outer loop
     vertex  4.884444e-01  4.444444e-01  6.264002e-01
     vertex  4.467572e-01  4.444444e-01  3.431404e-01
     vertex  4.688704e-01  4.444444e-01  3.589610e-01
   endloop
 endfacet
 facet normal  0.000000e+00 -1.000000e+00  0.000000e+00
   outer loop
     vertex  4.884444e-01  4.444444e-01  6.264002e-01
     vertex  4.688704e-01  4.444444e-01  3.589610e-01
     vertex  4.884444e-01  4.444444e-01  3.778327e-01
   endloop
 endfacet
 facet normal  0.000000e+00 -1.000000e+00 -0.000000e+00
   outer loop
     vertex  4.884444e-01  4.444444e-01  6.264002e-01
     vertex  4.884444e-01  4.444444e-01  3.778327e-01
     vertex  5.050621e-01  4.444444e-01  3.993534e-01
   endloop
 endfacet
 facet normal  0.000000e+00 -1.000000e+00  0.000000e+00
   outer loop
     vertex  4.884444e-01  4.444444e-01  6.264002e-01
     vertex  5.050621e-01  4.444444e-01  3.993534e-01
     vertex  5.183693e-01  4.444444e-01  4.230642e-01
   endloop
 endfacet
 facet normal  0.000000e+00 -1.000000e+00  0.000000e+00
   outer loop
     vertex  4.884444e-01  4.444444e-01  6.264002e-01
     vertex  5.339942e-01  4.444444e-01  4.749992e-01
     vertex  5.359789e-01  4.444444e-01  5.021165e-01
   endloop
 endfacet
endsolid
