solid 
 facet normal -1.000000e+00  0.000000e+00 -0.000000e+00
   outer loop
     vertex -4.356256e-02 -1.587302e-02  2.181658e-01
     vertex -4.356256e-02 -1.587302e-02 -1.940072e-03
     vertex -4.356256e-02 -1.015873e+00 -1.940072e-03
   endloop
 endfacet
 facet normal -1.000000e+00 -0.000000e+00  0.000000e+00
   outer loop
     vertex -4.356256e-02 -1.587302e-02  2.181658e-01
     vertex -4.356256e-02 -1.015873e+00 -1.940072e-03
     vertex -4.356256e-02 -1.015873e+00  2.181658e-01
   endloop
 endfacet
 facet normal  7.999999e-01  0.000000e+00 -6.000001e-01
   outer loop
     vertex -4.356256e-02 -1.587302e-02 -1.940072e-03
     vertex -1.604933e-02 -1.587302e-02  3.474423e-02
     vertex -1.604933e-02 -1.015873e+00  3.474423e-02
   endloop
 endfacet
 facet normal  7.999999e-01  0.000000e+00 -6.000001e-01
   outer loop
     vertex -4.356256e-02 -1.587302e-02 -1.940072e-03
     vertex -1.604933e-02 -1.015873e+00  3.474423e-02
     vertex -4.356256e-02 -1.015873e+00 -1.940072e-03
   endloop
 endfacet
 facet normal  0.000000e+00  0.000000e+00  1.000000e+00
   outer loop
     vertex  4.883599e-01 -1.587302e-02  2.181658e-01
     vertex -4.356256e-02 -1.587302e-02  2.181658e-01
     vertex -4.356256e-02 -1.015873e+00  2.181658e-01
   endloop
 endfacet
 facet normal  0.000000e+00  0.000000e+00  1.000000e+00
   outer loop
     vertex  4.883599e-01 -1.587302e-02  2.181658e-01
     vertex -4.356256e-02 -1.015873e+00  2.181658e-01
     vertex  4.883599e-01 -1.015873e+00  2.181658e-01
   endloop
 endfacet
 facet normal -1.000000e+00  0.000000e+00  0.000000e+00
   outer loop
     vertex -4.356256e-02 -1.587302e-02  2.181658e-01
     vertex -4.356256e-02  0.000000e+00 -1.940072e-03
     vertex -4.356256e-02 -1.587302e-02 -1.940072e-03
   endloop
 endfacet
 facet normal -1.000000e+00  0.000000e+00  0.000000e+00
   outer loop
     vertex -4.356256e-02 -1.587302e-02  2.181658e-01
     vertex -4.356256e-02  0.000000e+00  2.181658e-01
     vertex -4.356256e-02  0.000000e+00 -1.940072e-03
   endloop
 endfacet
 facet normal  0.000000e+00 -1.000000e+00  0.000000e+00
   outer loop
     vertex -4.356256e-02 -1.015873e+00  2.181658e-01
     vertex -4.356256e-02 -1.015873e+00 -1.940072e-03
     vertex -1.604933e-02 -1.015873e+00  3.474423e-02
   endloop
 endfacet
 facet normal -0.000000e+00 -1.000000e+00  0.000000e+00
   outer loop
     vertex  3.874781e-01 -1.015873e+00  1.631393e-01
     vertex -4.356256e-02 -1.015873e+00  2.181658e-01
     vertex -1.604933e-02 -1.015873e+00  3.474423e-02
   endloop
 endfacet
 facet normal  0.000000e+00 -1.000000e+00  0.000000e+00
   outer loop
     vertex  4.883599e-01 -1.015873e+00  2.181658e-01
     vertex  3.874781e-01 -1.015873e+00  1.631393e-01
     vertex  4.058202e-01 -1.015873e+00  1.447972e-01
   endloop
 endfacet
 facet normal -0.000000e+00 -1.000000e+00  0.000000e+00
   outer loop
     vertex  4.883599e-01 -1.015873e+00  2.181658e-01
     vertex -4.356256e-02 -1.015873e+00  2.181658e-01
     vertex  3.874781e-01 -1.015873e+00  1.631393e-01
   endloop
 endfacet
 facet normal  3.032037e-01  0.000000e+00 -9.529258e-01
   outer loop
     vertex -1.604933e-02 -1.587302e-02  3.474423e-02
     vertex  3.874781e-01 -1.587302e-02  1.631393e-01
     vertex  3.874781e-01 -1.015873e+00  1.631393e-01
   endloop
 endfacet
 facet normal  3.032037e-01  0.000000e+00 -9.529258e-01
   outer loop
     vertex -1.604933e-02 -1.587302e-02  3.474423e-02
     vertex  3.874781e-01 -1.015873e+00  1.631393e-01
     vertex -1.604933e-02 -1.015873e+00  3.474423e-02
   endloop
 endfacet
 facet normal  7.999999e-01  0.000000e+00 -6.000001e-01
   outer loop
     vertex -4.356256e-02 -1.587302e-02 -1.940072e-03
     vertex -1.604933e-02  0.000000e+00  3.474423e-02
     vertex -1.604933e-02 -1.587302e-02  3.474423e-02
   endloop
 endfacet
 facet normal  7.999999e-01  0.000000e+00 -6.000001e-01
   outer loop
     vertex -4.356256e-02 -1.587302e-02 -1.940072e-03
     vertex -4.356256e-02  0.000000e+00 -1.940072e-03
     vertex -1.604933e-02  0.000000e+00  3.474423e-02
   endloop
 endfacet
 facet normal  6.643638e-01  0.000000e+00 -7.474094e-01
   outer loop
     vertex  4.058202e-01 -1.587302e-02  1.447972e-01
     vertex  4.883599e-01 -1.587302e-02  2.181658e-01
     vertex  4.883599e-01 -1.015873e+00  2.181658e-01
   endloop
 endfacet
 facet normal  6.643638e-01  0.000000e+00 -7.474094e-01
   outer loop
     vertex  4.058202e-01 -1.587302e-02  1.447972e-01
     vertex  4.883599e-01 -1.015873e+00  2.181658e-01
     vertex  4.058202e-01 -1.015873e+00  1.447972e-01
   endloop
 endfacet
 facet normal  0.000000e+00  0.000000e+00  1.000000e+00
   outer loop
     vertex  4.883599e-01 -1.587302e-02  2.181658e-01
     vertex -4.356256e-02  0.000000e+00  2.181658e-01
     vertex -4.356256e-02 -1.587302e-02  2.181658e-01
   endloop
 endfacet
 facet normal  0.000000e+00 -0.000000e+00  1.000000e+00
   outer loop
     vertex  4.883599e-01 -1.587302e-02  2.181658e-01
     vertex  4.883599e-01  0.000000e+00  2.181658e-01
     vertex -4.356256e-02  0.000000e+00  2.181658e-01
   endloop
 endfacet
 facet normal  0.000000e+00  1.000000e+00  0.000000e+00
   outer loop
     vertex -4.356256e-02  6.591949e-17  2.181658e-01
     vertex -1.604933e-02  6.591949e-17  3.474423e-02
     vertex -4.356256e-02  6.591949e-17 -1.940072e-03
   endloop
 endfacet
 facet normal  0.000000e+00  1.000000e+00  0.000000e+00
   outer loop
     vertex  3.874781e-01  6.591949e-17  1.631393e-01
     vertex -1.604933e-02  6.591949e-17  3.474423e-02
     vertex -4.356256e-02  6.591949e-17  2.181658e-01
   endloop
 endfacet
 facet normal  0.000000e+00  1.000000e+00  0.000000e+00
   outer loop
     vertex  4.883599e-01  6.591949e-17  2.181658e-01
     vertex  4.058202e-01  6.591949e-17  1.447972e-01
     vertex  3.874781e-01  6.591949e-17  1.631393e-01
   endloop
 endfacet
 facet normal  0.000000e+00  1.000000e+00  0.000000e+00
   outer loop
     vertex  4.883599e-01  6.591949e-17  2.181658e-01
     vertex  3.874781e-01  6.591949e-17  1.631393e-01
     vertex -4.356256e-02  6.591949e-17  2.181658e-01
   endloop
 endfacet
 facet normal -7.071071e-01  0.000000e+00 -7.071065e-01
   outer loop
     vertex  3.874781e-01 -1.587302e-02  1.631393e-01
     vertex  4.058202e-01 -1.587302e-02  1.447972e-01
     vertex  4.058202e-01 -1.015873e+00  1.447972e-01
   endloop
 endfacet
 facet normal -7.071071e-01 -0.000000e+00 -7.071065e-01
   outer loop
     vertex  3.874781e-01 -1.587302e-02  1.631393e-01
     vertex  4.058202e-01 -1.015873e+00  1.447972e-01
     vertex  3.874781e-01 -1.015873e+00  1.631393e-01
   endloop
 endfacet
 facet normal  3.032037e-01  0.000000e+00 -9.529258e-01
   outer loop
     vertex -1.604933e-02 -1.587302e-02  3.474423e-02
     vertex  3.874781e-01  0.000000e+00  1.631393e-01
     vertex  3.874781e-01 -1.587302e-02  1.631393e-01
   endloop
 endfacet
 facet normal  3.032037e-01  0.000000e+00 -9.529258e-01
   outer loop
     vertex -1.604933e-02 -1.587302e-02  3.474423e-02
     vertex -1.604933e-02  0.000000e+00  3.474423e-02
     vertex  3.874781e-01  0.000000e+00  1.631393e-01
   endloop
 endfacet
 facet normal  6.643638e-01  0.000000e+00 -7.474094e-01
   outer loop
     vertex  4.058202e-01 -1.587302e-02  1.447972e-01
     vertex  4.883599e-01  0.000000e+00  2.181658e-01
     vertex  4.883599e-01 -1.587302e-02  2.181658e-01
   endloop
 endfacet
 facet normal  6.643638e-01  0.000000e+00 -7.474094e-01
   outer loop
     vertex  4.058202e-01 -1.587302e-02  1.447972e-01
     vertex  4.058202e-01  0.000000e+00  1.447972e-01
     vertex  4.883599e-01  0.000000e+00  2.181658e-01
   endloop
 endfacet
 facet normal -7.071071e-01  0.000000e+00 -7.071065e-01
   outer loop
     vertex  3.874781e-01 -1.587302e-02  1.631393e-01
     vertex  4.058202e-01  0.000000e+00  1.447972e-01
     vertex  4.058202e-01 -1.587302e-02  1.447972e-01
   endloop
 endfacet
 facet normal -7.071071e-01  0.000000e+00 -7.071065e-01
   outer loop
     vertex  3.874781e-01 -1.587302e-02  1.631393e-01
     vertex  3.874781e-01  0.000000e+00  1.631393e-01
     vertex  4.058202e-01  0.000000e+00  1.447972e-01
   endloop
 endfacet
endsolid
