solid 
 facet normal -0.000000e+00  0.000000e+00 -1.000000e+00
   outer loop
     vertex -7.730159e-01 -1.587302e-02  2.698404e-02
     vertex -1.001587e+00 -1.269842e-01  2.698404e-02
     vertex -1.001587e+00 -1.587302e-02  2.698404e-02
   endloop
 endfacet
 facet normal  0.000000e+00 -0.000000e+00 -1.000000e+00
   outer loop
     vertex -7.730159e-01 -1.587302e-02  2.698404e-02
     vertex -7.730159e-01 -1.269842e-01  2.698404e-02
     vertex -1.001587e+00 -1.269842e-01  2.698404e-02
   endloop
 endfacet
 facet normal -1.000000e+00  0.000000e+00  0.000000e+00
   outer loop
     vertex -1.001587e+00 -1.587302e-02  2.698404e-02
     vertex -1.001587e+00 -1.269842e-01  5.984127e-01
     vertex -1.001587e+00 -1.587302e-02  5.984127e-01
   endloop
 endfacet
 facet normal -1.000000e+00  0.000000e+00  0.000000e+00
   outer loop
     vertex -1.001587e+00 -1.587302e-02  2.698404e-02
     vertex -1.001587e+00 -1.269842e-01  2.698404e-02
     vertex -1.001587e+00 -1.269842e-01  5.984127e-01
   endloop
 endfacet
 facet normal  1.000000e+00  0.000000e+00  0.000000e+00
   outer loop
     vertex -7.730159e-01 -1.587302e-02  3.698412e-01
     vertex -7.730159e-01 -1.269842e-01  2.698404e-02
     vertex -7.730159e-01 -1.587302e-02  2.698404e-02
   endloop
 endfacet
 facet normal  1.000000e+00  0.000000e+00  0.000000e+00
   outer loop
     vertex -7.730159e-01 -1.587302e-02  3.698412e-01
     vertex -7.730159e-01 -1.269842e-01  3.698412e-01
     vertex -7.730159e-01 -1.269842e-01  2.698404e-02
   endloop
 endfacet
 facet normal  0.000000e+00  0.000000e+00 -1.000000e+00
   outer loop
     vertex -7.730159e-01 -1.587302e-02  2.698404e-02
     vertex -1.001587e+00 -1.587302e-02  2.698404e-02
     vertex -1.001587e+00  0.000000e+00  2.698404e-02
   endloop
 endfacet
 facet normal  0.000000e+00  0.000000e+00 -1.000000e+00
   outer loop
     vertex -7.730159e-01 -1.587302e-02  2.698404e-02
     vertex -1.001587e+00  0.000000e+00  2.698404e-02
     vertex -7.730159e-01  0.000000e+00  2.698404e-02
   endloop
 endfacet
 facet normal  0.000000e+00 -1.000000e+00 -0.000000e+00
   outer loop
     vertex -7.730159e-01 -1.269842e-01  3.698412e-01
     vertex -1.001587e+00 -1.269842e-01  2.698404e-02
     vertex -7.730159e-01 -1.269842e-01  2.698404e-02
   endloop
 endfacet
 facet normal  0.000000e+00 -1.000000e+00  0.000000e+00
   outer loop
     vertex -1.001587e+00 -1.269842e-01  5.984127e-01
     vertex -1.001587e+00 -1.269842e-01  2.698404e-02
     vertex -7.730159e-01 -1.269842e-01  3.698412e-01
   endloop
 endfacet
 facet normal  0.000000e+00 -1.000000e+00  0.000000e+00
   outer loop
     vertex -9.842924e-01 -1.269842e-01  6.850703e-01
     vertex -9.938513e-01 -1.269842e-01  6.647488e-01
     vertex -1.000012e+00 -1.269842e-01  6.431529e-01
   endloop
 endfacet
 facet normal  0.000000e+00 -1.000000e+00  0.000000e+00
   outer loop
     vertex -9.842924e-01 -1.269842e-01  6.850703e-01
     vertex -1.000012e+00 -1.269842e-01  6.431529e-01
     vertex -1.002613e+00 -1.269842e-01  6.208467e-01
   endloop
 endfacet
 facet normal  0.000000e+00 -1.000000e+00  0.000000e+00
   outer loop
     vertex -9.842924e-01 -1.269842e-01  6.850703e-01
     vertex -1.002613e+00 -1.269842e-01  6.208467e-01
     vertex -1.001587e+00 -1.269842e-01  5.984127e-01
   endloop
 endfacet
 facet normal  0.000000e+00 -1.000000e+00  0.000000e+00
   outer loop
     vertex -9.381248e-01 -1.269842e-01  7.333287e-01
     vertex -9.560604e-01 -1.269842e-01  7.198140e-01
     vertex -9.715848e-01 -1.269842e-01  7.035865e-01
   endloop
 endfacet
 facet normal  0.000000e+00 -1.000000e+00  0.000000e+00
   outer loop
     vertex -9.381248e-01 -1.269842e-01  7.333287e-01
     vertex -9.715848e-01 -1.269842e-01  7.035865e-01
     vertex -9.842924e-01 -1.269842e-01  6.850703e-01
   endloop
 endfacet
 facet normal  0.000000e+00 -1.000000e+00  0.000000e+00
   outer loop
     vertex -8.301588e-01 -1.269842e-01  7.507936e-01
     vertex -8.523177e-01 -1.269842e-01  7.544426e-01
     vertex -8.747751e-01 -1.269842e-01  7.544744e-01
   endloop
 endfacet
 facet normal  0.000000e+00 -1.000000e+00  0.000000e+00
   outer loop
     vertex -8.301588e-01 -1.269842e-01  7.507936e-01
     vertex -8.747751e-01 -1.269842e-01  7.544744e-01
     vertex -8.969444e-01 -1.269842e-01  7.508883e-01
   endloop
 endfacet
 facet normal -0.000000e+00 -1.000000e+00  0.000000e+00
   outer loop
     vertex -8.301588e-01 -1.269842e-01  7.507936e-01
     vertex -8.969444e-01 -1.269842e-01  7.508883e-01
     vertex -9.182464e-01 -1.269842e-01  7.437778e-01
   endloop
 endfacet
 facet normal  0.000000e+00 -1.000000e+00  0.000000e+00
   outer loop
     vertex -8.301588e-01 -1.269842e-01  7.507936e-01
     vertex -9.182464e-01 -1.269842e-01  7.437778e-01
     vertex -9.381248e-01 -1.269842e-01  7.333287e-01
   endloop
 endfacet
 facet normal  0.000000e+00 -1.000000e+00 -0.000000e+00
   outer loop
     vertex -8.301588e-01 -1.269842e-01  7.507936e-01
     vertex -1.001587e+00 -1.269842e-01  5.984127e-01
     vertex -7.730159e-01 -1.269842e-01  3.698412e-01
   endloop
 endfacet
 facet normal  0.000000e+00 -1.000000e+00  0.000000e+00
   outer loop
     vertex -8.301588e-01 -1.269842e-01  7.507936e-01
     vertex -9.842924e-01 -1.269842e-01  6.850703e-01
     vertex -1.001587e+00 -1.269842e-01  5.984127e-01
   endloop
 endfacet
 facet normal  0.000000e+00 -1.000000e+00  0.000000e+00
   outer loop
     vertex -8.301588e-01 -1.269842e-01  7.507936e-01
     vertex -9.381248e-01 -1.269842e-01  7.333287e-01
     vertex -9.842924e-01 -1.269842e-01  6.850703e-01
   endloop
 endfacet
 facet normal -0.000000e+00 -1.000000e+00  0.000000e+00
   outer loop
     vertex -5.551526e-01 -1.269842e-01  5.553040e-01
     vertex -5.646045e-01 -1.269842e-01  5.636777e-01
     vertex -7.730159e-01 -1.269842e-01  3.698412e-01
   endloop
 endfacet
 facet normal  0.000000e+00 -1.000000e+00 -0.000000e+00
   outer loop
     vertex -5.717779e-01 -1.269842e-01  5.740700e-01
     vertex -7.730159e-01 -1.269842e-01  3.698412e-01
     vertex -5.646045e-01 -1.269842e-01  5.636777e-01
   endloop
 endfacet
 facet normal -0.000000e+00 -1.000000e+00  0.000000e+00
   outer loop
     vertex -5.439714e-01 -1.269842e-01  5.494356e-01
     vertex -5.551526e-01 -1.269842e-01  5.553040e-01
     vertex -7.730159e-01 -1.269842e-01  3.698412e-01
   endloop
 endfacet
 facet normal  0.000000e+00 -1.000000e+00 -0.000000e+00
   outer loop
     vertex -5.762557e-01 -1.269842e-01  5.858771e-01
     vertex -7.730159e-01 -1.269842e-01  3.698412e-01
     vertex -5.717779e-01 -1.269842e-01  5.740700e-01
   endloop
 endfacet
 facet normal -0.000000e+00 -1.000000e+00  0.000000e+00
   outer loop
     vertex -5.762557e-01 -1.269842e-01  5.858771e-01
     vertex -8.301588e-01 -1.269842e-01  7.507936e-01
     vertex -7.730159e-01 -1.269842e-01  3.698412e-01
   endloop
 endfacet
 facet normal -0.000000e+00 -1.000000e+00  0.000000e+00
   outer loop
     vertex -5.317107e-01 -1.269842e-01  5.464136e-01
     vertex -5.439714e-01 -1.269842e-01  5.494356e-01
     vertex -7.730159e-01 -1.269842e-01  3.698412e-01
   endloop
 endfacet
 facet normal -0.000000e+00 -1.000000e+00 -0.000000e+00
   outer loop
     vertex -5.777778e-01 -1.269842e-01  5.984127e-01
     vertex -8.301588e-01 -1.269842e-01  7.507936e-01
     vertex -5.762557e-01 -1.269842e-01  5.858771e-01
   endloop
 endfacet
 facet normal -0.000000e+00 -1.000000e+00  0.000000e+00
   outer loop
     vertex -5.190830e-01 -1.269842e-01  5.464136e-01
     vertex -5.317107e-01 -1.269842e-01  5.464136e-01
     vertex -7.730159e-01 -1.269842e-01  3.698412e-01
   endloop
 endfacet
 facet normal -0.000000e+00 -1.000000e+00  0.000000e+00
   outer loop
     vertex -5.762557e-01 -1.269842e-01  6.109483e-01
     vertex -8.301588e-01 -1.269842e-01  7.507936e-01
     vertex -5.777778e-01 -1.269842e-01  5.984127e-01
   endloop
 endfacet
 facet normal -0.000000e+00 -1.000000e+00  0.000000e+00
   outer loop
     vertex -5.717779e-01 -1.269842e-01  6.227553e-01
     vertex -8.301588e-01 -1.269842e-01  7.507936e-01
     vertex -5.762557e-01 -1.269842e-01  6.109483e-01
   endloop
 endfacet
 facet normal -0.000000e+00 -1.000000e+00  0.000000e+00
   outer loop
     vertex -5.646045e-01 -1.269842e-01  6.331477e-01
     vertex -8.301588e-01 -1.269842e-01  7.507936e-01
     vertex -5.717779e-01 -1.269842e-01  6.227553e-01
   endloop
 endfacet
 facet normal -0.000000e+00 -1.000000e+00  0.000000e+00
   outer loop
     vertex -5.551526e-01 -1.269842e-01  6.415214e-01
     vertex -8.301588e-01 -1.269842e-01  7.507936e-01
     vertex -5.646045e-01 -1.269842e-01  6.331477e-01
   endloop
 endfacet
 facet normal  0.000000e+00 -1.000000e+00  0.000000e+00
   outer loop
     vertex -2.777777e-01 -1.269842e-01  3.698412e-01
     vertex -2.777777e-01 -1.269842e-01  2.698404e-02
     vertex -4.920632e-02 -1.269842e-01  2.698404e-02
   endloop
 endfacet
 facet normal  0.000000e+00 -1.000000e+00  0.000000e+00
   outer loop
     vertex -2.777777e-01 -1.269842e-01  3.698412e-01
     vertex -5.190830e-01 -1.269842e-01  5.464136e-01
     vertex -7.730159e-01 -1.269842e-01  3.698412e-01
   endloop
 endfacet
 facet normal  0.000000e+00 -1.000000e+00  0.000000e+00
   outer loop
     vertex -2.777777e-01 -1.269842e-01  3.698412e-01
     vertex -5.068223e-01 -1.269842e-01  5.494356e-01
     vertex -5.190830e-01 -1.269842e-01  5.464136e-01
   endloop
 endfacet
 facet normal  0.000000e+00 -1.000000e+00  0.000000e+00
   outer loop
     vertex -2.777777e-01 -1.269842e-01  3.698412e-01
     vertex -4.956410e-01 -1.269842e-01  5.553040e-01
     vertex -5.068223e-01 -1.269842e-01  5.494356e-01
   endloop
 endfacet
 facet normal  0.000000e+00 -1.000000e+00  0.000000e+00
   outer loop
     vertex -2.777777e-01 -1.269842e-01  3.698412e-01
     vertex -4.861891e-01 -1.269842e-01  5.636777e-01
     vertex -4.956410e-01 -1.269842e-01  5.553040e-01
   endloop
 endfacet
 facet normal  0.000000e+00 -1.000000e+00 -0.000000e+00
   outer loop
     vertex -4.790158e-01 -1.269842e-01  5.740700e-01
     vertex -4.861891e-01 -1.269842e-01  5.636777e-01
     vertex -2.777777e-01 -1.269842e-01  3.698412e-01
   endloop
 endfacet
 facet normal -0.000000e+00 -1.000000e+00  0.000000e+00
   outer loop
     vertex -5.439714e-01 -1.269842e-01  6.473897e-01
     vertex -8.301588e-01 -1.269842e-01  7.507936e-01
     vertex -5.551526e-01 -1.269842e-01  6.415214e-01
   endloop
 endfacet
 facet normal  0.000000e+00 -1.000000e+00 -0.000000e+00
   outer loop
     vertex -4.745380e-01 -1.269842e-01  5.858771e-01
     vertex -4.790158e-01 -1.269842e-01  5.740700e-01
     vertex -2.777777e-01 -1.269842e-01  3.698412e-01
   endloop
 endfacet
 facet normal -0.000000e+00 -1.000000e+00  0.000000e+00
   outer loop
     vertex -5.317107e-01 -1.269842e-01  6.504117e-01
     vertex -8.301588e-01 -1.269842e-01  7.507936e-01
     vertex -5.439714e-01 -1.269842e-01  6.473897e-01
   endloop
 endfacet
 facet normal  0.000000e+00 -1.000000e+00  0.000000e+00
   outer loop
     vertex -5.190830e-01 -1.269842e-01  6.504117e-01
     vertex -8.301588e-01 -1.269842e-01  7.507936e-01
     vertex -5.317107e-01 -1.269842e-01  6.504117e-01
   endloop
 endfacet
 facet normal  0.000000e+00 -1.000000e+00  0.000000e+00
   outer loop
     vertex -2.206349e-01 -1.269842e-01  7.507936e-01
     vertex -4.745380e-01 -1.269842e-01  5.858771e-01
     vertex -2.777777e-01 -1.269842e-01  3.698412e-01
   endloop
 endfacet
 facet normal  0.000000e+00 -1.000000e+00  0.000000e+00
   outer loop
     vertex -2.206349e-01 -1.269842e-01  7.507936e-01
     vertex -4.745380e-01 -1.269842e-01  6.109483e-01
     vertex -4.730159e-01 -1.269842e-01  5.984127e-01
   endloop
 endfacet
 facet normal  0.000000e+00 -1.000000e+00  0.000000e+00
   outer loop
     vertex -2.206349e-01 -1.269842e-01  7.507936e-01
     vertex -4.790158e-01 -1.269842e-01  6.227553e-01
     vertex -4.745380e-01 -1.269842e-01  6.109483e-01
   endloop
 endfacet
 facet normal -0.000000e+00 -1.000000e+00  0.000000e+00
   outer loop
     vertex -2.206349e-01 -1.269842e-01  7.507936e-01
     vertex -8.301588e-01 -1.269842e-01  7.507936e-01
     vertex -5.190830e-01 -1.269842e-01  6.504117e-01
   endloop
 endfacet
 facet normal  0.000000e+00 -1.000000e+00  0.000000e+00
   outer loop
     vertex -2.206349e-01 -1.269842e-01  7.507936e-01
     vertex -4.861891e-01 -1.269842e-01  6.331477e-01
     vertex -4.790158e-01 -1.269842e-01  6.227553e-01
   endloop
 endfacet
 facet normal  0.000000e+00 -1.000000e+00  0.000000e+00
   outer loop
     vertex -2.206349e-01 -1.269842e-01  7.507936e-01
     vertex -4.956410e-01 -1.269842e-01  6.415214e-01
     vertex -4.861891e-01 -1.269842e-01  6.331477e-01
   endloop
 endfacet
 facet normal  0.000000e+00 -1.000000e+00  0.000000e+00
   outer loop
     vertex -2.206349e-01 -1.269842e-01  7.507936e-01
     vertex -5.068223e-01 -1.269842e-01  6.473897e-01
     vertex -4.956410e-01 -1.269842e-01  6.415214e-01
   endloop
 endfacet
 facet normal  0.000000e+00 -1.000000e+00  0.000000e+00
   outer loop
     vertex -2.206349e-01 -1.269842e-01  7.507936e-01
     vertex -5.190830e-01 -1.269842e-01  6.504117e-01
     vertex -5.068223e-01 -1.269842e-01  6.473897e-01
   endloop
 endfacet
 facet normal  0.000000e+00 -1.000000e+00  0.000000e+00
   outer loop
     vertex -2.206349e-01 -1.269842e-01  7.507936e-01
     vertex -4.730159e-01 -1.269842e-01  5.984127e-01
     vertex -4.745380e-01 -1.269842e-01  5.858771e-01
   endloop
 endfacet
 facet normal  0.000000e+00 -1.000000e+00  0.000000e+00
   outer loop
     vertex -4.920632e-02 -1.269842e-01  5.984127e-01
     vertex -2.777777e-01 -1.269842e-01  3.698412e-01
     vertex -4.920632e-02 -1.269842e-01  2.698404e-02
   endloop
 endfacet
 facet normal -0.000000e+00 -1.000000e+00  0.000000e+00
   outer loop
     vertex -4.920632e-02 -1.269842e-01  5.984127e-01
     vertex -2.206349e-01 -1.269842e-01  7.507936e-01
     vertex -2.777777e-01 -1.269842e-01  3.698412e-01
   endloop
 endfacet
 facet normal  0.000000e+00 -1.000000e+00  0.000000e+00
   outer loop
     vertex -5.078177e-02 -1.269842e-01  6.431529e-01
     vertex -4.920632e-02 -1.269842e-01  5.984127e-01
     vertex -4.818045e-02 -1.269842e-01  6.208467e-01
   endloop
 endfacet
 facet normal  0.000000e+00 -1.000000e+00  0.000000e+00
   outer loop
     vertex -1.538493e-01 -1.269842e-01  7.508883e-01
     vertex -1.760185e-01 -1.269842e-01  7.544744e-01
     vertex -1.984759e-01 -1.269842e-01  7.544426e-01
   endloop
 endfacet
 facet normal  0.000000e+00 -1.000000e+00  0.000000e+00
   outer loop
     vertex -1.126688e-01 -1.269842e-01  7.333287e-01
     vertex -1.325473e-01 -1.269842e-01  7.437778e-01
     vertex -1.538493e-01 -1.269842e-01  7.508883e-01
   endloop
 endfacet
 facet normal  0.000000e+00 -1.000000e+00  0.000000e+00
   outer loop
     vertex -9.473322e-02 -1.269842e-01  7.198140e-01
     vertex -5.078177e-02 -1.269842e-01  6.431529e-01
     vertex -5.694235e-02 -1.269842e-01  6.647488e-01
   endloop
 endfacet
 facet normal  0.000000e+00 -1.000000e+00  0.000000e+00
   outer loop
     vertex -9.473322e-02 -1.269842e-01  7.198140e-01
     vertex -5.694235e-02 -1.269842e-01  6.647488e-01
     vertex -6.650127e-02 -1.269842e-01  6.850703e-01
   endloop
 endfacet
 facet normal  0.000000e+00 -1.000000e+00  0.000000e+00
   outer loop
     vertex -9.473322e-02 -1.269842e-01  7.198140e-01
     vertex -6.650127e-02 -1.269842e-01  6.850703e-01
     vertex -7.920887e-02 -1.269842e-01  7.035865e-01
   endloop
 endfacet
 facet normal  0.000000e+00 -1.000000e+00  0.000000e+00
   outer loop
     vertex -9.473322e-02 -1.269842e-01  7.198140e-01
     vertex -1.984759e-01 -1.269842e-01  7.544426e-01
     vertex -2.206349e-01 -1.269842e-01  7.507936e-01
   endloop
 endfacet
 facet normal -0.000000e+00 -1.000000e+00 -0.000000e+00
   outer loop
     vertex -9.473322e-02 -1.269842e-01  7.198140e-01
     vertex -2.206349e-01 -1.269842e-01  7.507936e-01
     vertex -4.920632e-02 -1.269842e-01  5.984127e-01
   endloop
 endfacet
 facet normal  0.000000e+00 -1.000000e+00  0.000000e+00
   outer loop
     vertex -9.473322e-02 -1.269842e-01  7.198140e-01
     vertex -1.538493e-01 -1.269842e-01  7.508883e-01
     vertex -1.984759e-01 -1.269842e-01  7.544426e-01
   endloop
 endfacet
 facet normal  0.000000e+00 -1.000000e+00  0.000000e+00
   outer loop
     vertex -9.473322e-02 -1.269842e-01  7.198140e-01
     vertex -4.920632e-02 -1.269842e-01  5.984127e-01
     vertex -5.078177e-02 -1.269842e-01  6.431529e-01
   endloop
 endfacet
 facet normal  0.000000e+00 -1.000000e+00  0.000000e+00
   outer loop
     vertex -9.473322e-02 -1.269842e-01  7.198140e-01
     vertex -1.126688e-01 -1.269842e-01  7.333287e-01
     vertex -1.538493e-01 -1.269842e-01  7.508883e-01
   endloop
 endfacet
 facet normal  1.624847e-01  0.000000e+00  9.867111e-01
   outer loop
     vertex -8.523177e-01 -1.587302e-02  7.544426e-01
     vertex -8.301588e-01 -1.269842e-01  7.507936e-01
     vertex -8.301588e-01 -1.587302e-02  7.507936e-01
   endloop
 endfacet
 facet normal  1.624847e-01  0.000000e+00  9.867111e-01
   outer loop
     vertex -8.523177e-01 -1.587302e-02  7.544426e-01
     vertex -8.523177e-01 -1.269842e-01  7.544426e-01
     vertex -8.301588e-01 -1.269842e-01  7.507936e-01
   endloop
 endfacet
 facet normal  1.417244e-03  0.000000e+00  9.999990e-01
   outer loop
     vertex -8.747751e-01 -1.587302e-02  7.544744e-01
     vertex -8.747751e-01 -1.269842e-01  7.544744e-01
     vertex -8.523177e-01 -1.269842e-01  7.544426e-01
   endloop
 endfacet
 facet normal  1.417244e-03  0.000000e+00  9.999990e-01
   outer loop
     vertex -8.747751e-01 -1.587302e-02  7.544744e-01
     vertex -8.523177e-01 -1.269842e-01  7.544426e-01
     vertex -8.523177e-01 -1.587302e-02  7.544426e-01
   endloop
 endfacet
 facet normal -1.596872e-01  0.000000e+00  9.871677e-01
   outer loop
     vertex -8.969444e-01 -1.587302e-02  7.508883e-01
     vertex -8.969444e-01 -1.269842e-01  7.508883e-01
     vertex -8.747751e-01 -1.269842e-01  7.544744e-01
   endloop
 endfacet
 facet normal -1.596872e-01  0.000000e+00  9.871677e-01
   outer loop
     vertex -8.969444e-01 -1.587302e-02  7.508883e-01
     vertex -8.747751e-01 -1.269842e-01  7.544744e-01
     vertex -8.747751e-01 -1.587302e-02  7.544744e-01
   endloop
 endfacet
 facet normal -3.166207e-01  0.000000e+00  9.485522e-01
   outer loop
     vertex -9.182464e-01 -1.587302e-02  7.437778e-01
     vertex -9.182464e-01 -1.269842e-01  7.437778e-01
     vertex -8.969444e-01 -1.269842e-01  7.508883e-01
   endloop
 endfacet
 facet normal -3.166207e-01  0.000000e+00  9.485522e-01
   outer loop
     vertex -9.182464e-01 -1.587302e-02  7.437778e-01
     vertex -8.969444e-01 -1.269842e-01  7.508883e-01
     vertex -8.969444e-01 -1.587302e-02  7.508883e-01
   endloop
 endfacet
 facet normal -4.652843e-01  0.000000e+00  8.851613e-01
   outer loop
     vertex -9.381248e-01 -1.587302e-02  7.333287e-01
     vertex -9.381248e-01 -1.269842e-01  7.333287e-01
     vertex -9.182464e-01 -1.269842e-01  7.437778e-01
   endloop
 endfacet
 facet normal -4.652843e-01  0.000000e+00  8.851613e-01
   outer loop
     vertex -9.381248e-01 -1.587302e-02  7.333287e-01
     vertex -9.182464e-01 -1.269842e-01  7.437778e-01
     vertex -9.182464e-01 -1.587302e-02  7.437778e-01
   endloop
 endfacet
 facet normal -6.017951e-01  0.000000e+00  7.986506e-01
   outer loop
     vertex -9.560604e-01 -1.587302e-02  7.198140e-01
     vertex -9.560604e-01 -1.269842e-01  7.198140e-01
     vertex -9.381248e-01 -1.269842e-01  7.333287e-01
   endloop
 endfacet
 facet normal -6.017951e-01  0.000000e+00  7.986506e-01
   outer loop
     vertex -9.560604e-01 -1.587302e-02  7.198140e-01
     vertex -9.381248e-01 -1.269842e-01  7.333287e-01
     vertex -9.381248e-01 -1.587302e-02  7.333287e-01
   endloop
 endfacet
 facet normal -7.225873e-01  0.000000e+00  6.912796e-01
   outer loop
     vertex -9.715848e-01 -1.587302e-02  7.035865e-01
     vertex -9.715848e-01 -1.269842e-01  7.035865e-01
     vertex -9.560604e-01 -1.269842e-01  7.198140e-01
   endloop
 endfacet
 facet normal -7.225873e-01  0.000000e+00  6.912796e-01
   outer loop
     vertex -9.715848e-01 -1.587302e-02  7.035865e-01
     vertex -9.560604e-01 -1.269842e-01  7.198140e-01
     vertex -9.560604e-01 -1.587302e-02  7.198140e-01
   endloop
 endfacet
 facet normal -8.245061e-01  0.000000e+00  5.658530e-01
   outer loop
     vertex -9.842924e-01 -1.587302e-02  6.850703e-01
     vertex -9.842924e-01 -1.269842e-01  6.850703e-01
     vertex -9.715848e-01 -1.269842e-01  7.035865e-01
   endloop
 endfacet
 facet normal -8.245061e-01  0.000000e+00  5.658530e-01
   outer loop
     vertex -9.842924e-01 -1.587302e-02  6.850703e-01
     vertex -9.715848e-01 -1.269842e-01  7.035865e-01
     vertex -9.715848e-01 -1.587302e-02  7.035865e-01
   endloop
 endfacet
 facet normal -9.048894e-01  0.000000e+00  4.256467e-01
   outer loop
     vertex -9.938513e-01 -1.587302e-02  6.647488e-01
     vertex -9.938513e-01 -1.269842e-01  6.647488e-01
     vertex -9.842924e-01 -1.269842e-01  6.850703e-01
   endloop
 endfacet
 facet normal -9.048894e-01  0.000000e+00  4.256467e-01
   outer loop
     vertex -9.938513e-01 -1.587302e-02  6.647488e-01
     vertex -9.842924e-01 -1.269842e-01  6.850703e-01
     vertex -9.842924e-01 -1.587302e-02  6.850703e-01
   endloop
 endfacet
 facet normal -9.616377e-01  0.000000e+00  2.743228e-01
   outer loop
     vertex -1.000012e+00 -1.587302e-02  6.431529e-01
     vertex -1.000012e+00 -1.269842e-01  6.431529e-01
     vertex -9.938513e-01 -1.269842e-01  6.647488e-01
   endloop
 endfacet
 facet normal -9.616377e-01  0.000000e+00  2.743228e-01
   outer loop
     vertex -1.000012e+00 -1.587302e-02  6.431529e-01
     vertex -9.938513e-01 -1.269842e-01  6.647488e-01
     vertex -9.938513e-01 -1.587302e-02  6.647488e-01
   endloop
 endfacet
 facet normal -9.932686e-01  0.000000e+00  1.158338e-01
   outer loop
     vertex -1.002613e+00 -1.587302e-02  6.208467e-01
     vertex -1.002613e+00 -1.269842e-01  6.208467e-01
     vertex -1.000012e+00 -1.269842e-01  6.431529e-01
   endloop
 endfacet
 facet normal -9.932686e-01  0.000000e+00  1.158338e-01
   outer loop
     vertex -1.002613e+00 -1.587302e-02  6.208467e-01
     vertex -1.000012e+00 -1.269842e-01  6.431529e-01
     vertex -1.000012e+00 -1.587302e-02  6.431529e-01
   endloop
 endfacet
 facet normal -9.989561e-01 -0.000000e+00 -4.568072e-02
   outer loop
     vertex -1.001587e+00 -1.587302e-02  5.984127e-01
     vertex -1.001587e+00 -1.269842e-01  5.984127e-01
     vertex -1.002613e+00 -1.269842e-01  6.208467e-01
   endloop
 endfacet
 facet normal -9.989561e-01  0.000000e+00 -4.568072e-02
   outer loop
     vertex -1.001587e+00 -1.587302e-02  5.984127e-01
     vertex -1.002613e+00 -1.269842e-01  6.208467e-01
     vertex -1.002613e+00 -1.587302e-02  6.208467e-01
   endloop
 endfacet
 facet normal -1.000000e+00  0.000000e+00  0.000000e+00
   outer loop
     vertex -1.001587e+00 -1.587302e-02  2.698404e-02
     vertex -1.001587e+00 -1.587302e-02  5.984127e-01
     vertex -1.001587e+00  0.000000e+00  5.984127e-01
   endloop
 endfacet
 facet normal -1.000000e+00  0.000000e+00  0.000000e+00
   outer loop
     vertex -1.001587e+00 -1.587302e-02  2.698404e-02
     vertex -1.001587e+00  0.000000e+00  5.984127e-01
     vertex -1.001587e+00  0.000000e+00  2.698404e-02
   endloop
 endfacet
 facet normal -0.000000e+00  0.000000e+00 -1.000000e+00
   outer loop
     vertex -2.777777e-01 -1.587302e-02  3.698412e-01
     vertex -7.730159e-01 -1.269842e-01  3.698412e-01
     vertex -7.730159e-01 -1.587302e-02  3.698412e-01
   endloop
 endfacet
 facet normal  0.000000e+00 -0.000000e+00 -1.000000e+00
   outer loop
     vertex -2.777777e-01 -1.587302e-02  3.698412e-01
     vertex -2.777777e-01 -1.269842e-01  3.698412e-01
     vertex -7.730159e-01 -1.269842e-01  3.698412e-01
   endloop
 endfacet
 facet normal  1.000000e+00  0.000000e+00  0.000000e+00
   outer loop
     vertex -7.730159e-01 -1.587302e-02  3.698412e-01
     vertex -7.730159e-01 -1.587302e-02  2.698404e-02
     vertex -7.730159e-01  0.000000e+00  2.698404e-02
   endloop
 endfacet
 facet normal  1.000000e+00 -0.000000e+00  0.000000e+00
   outer loop
     vertex -7.730159e-01 -1.587302e-02  3.698412e-01
     vertex -7.730159e-01  0.000000e+00  2.698404e-02
     vertex -7.730159e-01  0.000000e+00  3.698412e-01
   endloop
 endfacet
 facet normal  0.000000e+00  1.000000e+00  0.000000e+00
   outer loop
     vertex -7.730159e-01 -3.469447e-18  3.698412e-01
     vertex -7.730159e-01 -3.469447e-18  2.698404e-02
     vertex -1.001587e+00 -3.469447e-18  2.698404e-02
   endloop
 endfacet
 facet normal  0.000000e+00  1.000000e+00  0.000000e+00
   outer loop
     vertex -1.001587e+00 -3.469447e-18  5.984127e-01
     vertex -7.730159e-01 -3.469447e-18  3.698412e-01
     vertex -1.001587e+00 -3.469447e-18  2.698404e-02
   endloop
 endfacet
 facet normal  0.000000e+00  1.000000e+00  0.000000e+00
   outer loop
     vertex -9.842924e-01 -3.469447e-18  6.850703e-01
     vertex -1.000012e+00 -3.469447e-18  6.431529e-01
     vertex -9.938513e-01 -3.469447e-18  6.647488e-01
   endloop
 endfacet
 facet normal  0.000000e+00  1.000000e+00  0.000000e+00
   outer loop
     vertex -9.842924e-01 -3.469447e-18  6.850703e-01
     vertex -1.002613e+00 -3.469447e-18  6.208467e-01
     vertex -1.000012e+00 -3.469447e-18  6.431529e-01
   endloop
 endfacet
 facet normal  0.000000e+00  1.000000e+00  0.000000e+00
   outer loop
     vertex -9.842924e-01 -3.469447e-18  6.850703e-01
     vertex -1.001587e+00 -3.469447e-18  5.984127e-01
     vertex -1.002613e+00 -3.469447e-18  6.208467e-01
   endloop
 endfacet
 facet normal  0.000000e+00  1.000000e+00  0.000000e+00
   outer loop
     vertex -9.381248e-01 -3.469447e-18  7.333287e-01
     vertex -9.715848e-01 -3.469447e-18  7.035865e-01
     vertex -9.560604e-01 -3.469447e-18  7.198140e-01
   endloop
 endfacet
 facet normal  0.000000e+00  1.000000e+00  0.000000e+00
   outer loop
     vertex -9.381248e-01 -3.469447e-18  7.333287e-01
     vertex -9.842924e-01 -3.469447e-18  6.850703e-01
     vertex -9.715848e-01 -3.469447e-18  7.035865e-01
   endloop
 endfacet
 facet normal  0.000000e+00  1.000000e+00  0.000000e+00
   outer loop
     vertex -8.301588e-01 -3.469447e-18  7.507936e-01
     vertex -8.747751e-01 -3.469447e-18  7.544744e-01
     vertex -8.523177e-01 -3.469447e-18  7.544426e-01
   endloop
 endfacet
 facet normal  0.000000e+00  1.000000e+00  0.000000e+00
   outer loop
     vertex -8.301588e-01 -3.469447e-18  7.507936e-01
     vertex -8.969444e-01 -3.469447e-18  7.508883e-01
     vertex -8.747751e-01 -3.469447e-18  7.544744e-01
   endloop
 endfacet
 facet normal  0.000000e+00  1.000000e+00  0.000000e+00
   outer loop
     vertex -8.301588e-01 -3.469447e-18  7.507936e-01
     vertex -9.182464e-01 -3.469447e-18  7.437778e-01
     vertex -8.969444e-01 -3.469447e-18  7.508883e-01
   endloop
 endfacet
 facet normal  0.000000e+00  1.000000e+00  0.000000e+00
   outer loop
     vertex -8.301588e-01 -3.469447e-18  7.507936e-01
     vertex -9.381248e-01 -3.469447e-18  7.333287e-01
     vertex -9.182464e-01 -3.469447e-18  7.437778e-01
   endloop
 endfacet
 facet normal  0.000000e+00  1.000000e+00  0.000000e+00
   outer loop
     vertex -8.301588e-01 -3.469447e-18  7.507936e-01
     vertex -7.730159e-01 -3.469447e-18  3.698412e-01
     vertex -1.001587e+00 -3.469447e-18  5.984127e-01
   endloop
 endfacet
 facet normal  0.000000e+00  1.000000e+00  0.000000e+00
   outer loop
     vertex -8.301588e-01 -3.469447e-18  7.507936e-01
     vertex -1.001587e+00 -3.469447e-18  5.984127e-01
     vertex -9.842924e-01 -3.469447e-18  6.850703e-01
   endloop
 endfacet
 facet normal  0.000000e+00  1.000000e+00  0.000000e+00
   outer loop
     vertex -8.301588e-01 -3.469447e-18  7.507936e-01
     vertex -9.842924e-01 -3.469447e-18  6.850703e-01
     vertex -9.381248e-01 -3.469447e-18  7.333287e-01
   endloop
 endfacet
 facet normal  0.000000e+00  1.000000e+00  0.000000e+00
   outer loop
     vertex -5.551526e-01 -3.469447e-18  5.553040e-01
     vertex -7.730159e-01 -3.469447e-18  3.698412e-01
     vertex -5.646045e-01 -3.469447e-18  5.636777e-01
   endloop
 endfacet
 facet normal  0.000000e+00  1.000000e+00  0.000000e+00
   outer loop
     vertex -5.717779e-01 -3.469447e-18  5.740700e-01
     vertex -5.646045e-01 -3.469447e-18  5.636777e-01
     vertex -7.730159e-01 -3.469447e-18  3.698412e-01
   endloop
 endfacet
 facet normal  0.000000e+00  1.000000e+00  0.000000e+00
   outer loop
     vertex -5.439714e-01 -3.469447e-18  5.494356e-01
     vertex -7.730159e-01 -3.469447e-18  3.698412e-01
     vertex -5.551526e-01 -3.469447e-18  5.553040e-01
   endloop
 endfacet
 facet normal  0.000000e+00  1.000000e+00  0.000000e+00
   outer loop
     vertex -5.762557e-01 -3.469447e-18  5.858771e-01
     vertex -5.717779e-01 -3.469447e-18  5.740700e-01
     vertex -7.730159e-01 -3.469447e-18  3.698412e-01
   endloop
 endfacet
 facet normal  0.000000e+00  1.000000e+00  0.000000e+00
   outer loop
     vertex -5.762557e-01 -3.469447e-18  5.858771e-01
     vertex -7.730159e-01 -3.469447e-18  3.698412e-01
     vertex -8.301588e-01 -3.469447e-18  7.507936e-01
   endloop
 endfacet
 facet normal  0.000000e+00  1.000000e+00  0.000000e+00
   outer loop
     vertex -5.317107e-01 -3.469447e-18  5.464136e-01
     vertex -7.730159e-01 -3.469447e-18  3.698412e-01
     vertex -5.439714e-01 -3.469447e-18  5.494356e-01
   endloop
 endfacet
 facet normal  0.000000e+00  1.000000e+00  0.000000e+00
   outer loop
     vertex -5.777778e-01 -3.469447e-18  5.984127e-01
     vertex -5.762557e-01 -3.469447e-18  5.858771e-01
     vertex -8.301588e-01 -3.469447e-18  7.507936e-01
   endloop
 endfacet
 facet normal  0.000000e+00  1.000000e+00  0.000000e+00
   outer loop
     vertex -5.190830e-01 -3.469447e-18  5.464136e-01
     vertex -7.730159e-01 -3.469447e-18  3.698412e-01
     vertex -5.317107e-01 -3.469447e-18  5.464136e-01
   endloop
 endfacet
 facet normal  0.000000e+00  1.000000e+00  0.000000e+00
   outer loop
     vertex -5.762557e-01 -3.469447e-18  6.109483e-01
     vertex -5.777778e-01 -3.469447e-18  5.984127e-01
     vertex -8.301588e-01 -3.469447e-18  7.507936e-01
   endloop
 endfacet
 facet normal  0.000000e+00  1.000000e+00  0.000000e+00
   outer loop
     vertex -5.717779e-01 -3.469447e-18  6.227553e-01
     vertex -5.762557e-01 -3.469447e-18  6.109483e-01
     vertex -8.301588e-01 -3.469447e-18  7.507936e-01
   endloop
 endfacet
 facet normal  0.000000e+00  1.000000e+00  0.000000e+00
   outer loop
     vertex -5.646045e-01 -3.469447e-18  6.331477e-01
     vertex -5.717779e-01 -3.469447e-18  6.227553e-01
     vertex -8.301588e-01 -3.469447e-18  7.507936e-01
   endloop
 endfacet
 facet normal  0.000000e+00  1.000000e+00  0.000000e+00
   outer loop
     vertex -5.551526e-01 -3.469447e-18  6.415214e-01
     vertex -5.646045e-01 -3.469447e-18  6.331477e-01
     vertex -8.301588e-01 -3.469447e-18  7.507936e-01
   endloop
 endfacet
 facet normal  0.000000e+00  1.000000e+00  0.000000e+00
   outer loop
     vertex -2.777777e-01 -3.469447e-18  3.698412e-01
     vertex -4.920632e-02 -3.469447e-18  2.698404e-02
     vertex -2.777777e-01 -3.469447e-18  2.698404e-02
   endloop
 endfacet
 facet normal  0.000000e+00  1.000000e+00  0.000000e+00
   outer loop
     vertex -2.777777e-01 -3.469447e-18  3.698412e-01
     vertex -7.730159e-01 -3.469447e-18  3.698412e-01
     vertex -5.190830e-01 -3.469447e-18  5.464136e-01
   endloop
 endfacet
 facet normal  0.000000e+00  1.000000e+00  0.000000e+00
   outer loop
     vertex -2.777777e-01 -3.469447e-18  3.698412e-01
     vertex -5.190830e-01 -3.469447e-18  5.464136e-01
     vertex -5.068223e-01 -3.469447e-18  5.494356e-01
   endloop
 endfacet
 facet normal  0.000000e+00  1.000000e+00  0.000000e+00
   outer loop
     vertex -2.777777e-01 -3.469447e-18  3.698412e-01
     vertex -5.068223e-01 -3.469447e-18  5.494356e-01
     vertex -4.956410e-01 -3.469447e-18  5.553040e-01
   endloop
 endfacet
 facet normal  0.000000e+00  1.000000e+00  0.000000e+00
   outer loop
     vertex -2.777777e-01 -3.469447e-18  3.698412e-01
     vertex -4.956410e-01 -3.469447e-18  5.553040e-01
     vertex -4.861891e-01 -3.469447e-18  5.636777e-01
   endloop
 endfacet
 facet normal  0.000000e+00  1.000000e+00  0.000000e+00
   outer loop
     vertex -4.790158e-01 -3.469447e-18  5.740700e-01
     vertex -2.777777e-01 -3.469447e-18  3.698412e-01
     vertex -4.861891e-01 -3.469447e-18  5.636777e-01
   endloop
 endfacet
 facet normal  0.000000e+00  1.000000e+00  0.000000e+00
   outer loop
     vertex -5.439714e-01 -3.469447e-18  6.473897e-01
     vertex -5.551526e-01 -3.469447e-18  6.415214e-01
     vertex -8.301588e-01 -3.469447e-18  7.507936e-01
   endloop
 endfacet
 facet normal  0.000000e+00  1.000000e+00  0.000000e+00
   outer loop
     vertex -4.745380e-01 -3.469447e-18  5.858771e-01
     vertex -2.777777e-01 -3.469447e-18  3.698412e-01
     vertex -4.790158e-01 -3.469447e-18  5.740700e-01
   endloop
 endfacet
 facet normal  0.000000e+00  1.000000e+00  0.000000e+00
   outer loop
     vertex -5.317107e-01 -3.469447e-18  6.504117e-01
     vertex -5.439714e-01 -3.469447e-18  6.473897e-01
     vertex -8.301588e-01 -3.469447e-18  7.507936e-01
   endloop
 endfacet
 facet normal  0.000000e+00  1.000000e+00  0.000000e+00
   outer loop
     vertex -5.190830e-01 -3.469447e-18  6.504117e-01
     vertex -5.317107e-01 -3.469447e-18  6.504117e-01
     vertex -8.301588e-01 -3.469447e-18  7.507936e-01
   endloop
 endfacet
 facet normal  0.000000e+00  1.000000e+00  0.000000e+00
   outer loop
     vertex -2.206349e-01 -3.469447e-18  7.507936e-01
     vertex -2.777777e-01 -3.469447e-18  3.698412e-01
     vertex -4.745380e-01 -3.469447e-18  5.858771e-01
   endloop
 endfacet
 facet normal  0.000000e+00  1.000000e+00  0.000000e+00
   outer loop
     vertex -2.206349e-01 -3.469447e-18  7.507936e-01
     vertex -4.730159e-01 -3.469447e-18  5.984127e-01
     vertex -4.745380e-01 -3.469447e-18  6.109483e-01
   endloop
 endfacet
 facet normal  0.000000e+00  1.000000e+00  0.000000e+00
   outer loop
     vertex -2.206349e-01 -3.469447e-18  7.507936e-01
     vertex -4.745380e-01 -3.469447e-18  6.109483e-01
     vertex -4.790158e-01 -3.469447e-18  6.227553e-01
   endloop
 endfacet
 facet normal  0.000000e+00  1.000000e+00  0.000000e+00
   outer loop
     vertex -2.206349e-01 -3.469447e-18  7.507936e-01
     vertex -5.190830e-01 -3.469447e-18  6.504117e-01
     vertex -8.301588e-01 -3.469447e-18  7.507936e-01
   endloop
 endfacet
 facet normal  0.000000e+00  1.000000e+00  0.000000e+00
   outer loop
     vertex -2.206349e-01 -3.469447e-18  7.507936e-01
     vertex -4.790158e-01 -3.469447e-18  6.227553e-01
     vertex -4.861891e-01 -3.469447e-18  6.331477e-01
   endloop
 endfacet
 facet normal  0.000000e+00  1.000000e+00  0.000000e+00
   outer loop
     vertex -2.206349e-01 -3.469447e-18  7.507936e-01
     vertex -4.861891e-01 -3.469447e-18  6.331477e-01
     vertex -4.956410e-01 -3.469447e-18  6.415214e-01
   endloop
 endfacet
 facet normal  0.000000e+00  1.000000e+00  0.000000e+00
   outer loop
     vertex -2.206349e-01 -3.469447e-18  7.507936e-01
     vertex -4.956410e-01 -3.469447e-18  6.415214e-01
     vertex -5.068223e-01 -3.469447e-18  6.473897e-01
   endloop
 endfacet
 facet normal  0.000000e+00  1.000000e+00  0.000000e+00
   outer loop
     vertex -2.206349e-01 -3.469447e-18  7.507936e-01
     vertex -5.068223e-01 -3.469447e-18  6.473897e-01
     vertex -5.190830e-01 -3.469447e-18  6.504117e-01
   endloop
 endfacet
 facet normal  0.000000e+00  1.000000e+00  0.000000e+00
   outer loop
     vertex -2.206349e-01 -3.469447e-18  7.507936e-01
     vertex -4.745380e-01 -3.469447e-18  5.858771e-01
     vertex -4.730159e-01 -3.469447e-18  5.984127e-01
   endloop
 endfacet
 facet normal  0.000000e+00  1.000000e+00  0.000000e+00
   outer loop
     vertex -4.920632e-02 -3.469447e-18  5.984127e-01
     vertex -4.920632e-02 -3.469447e-18  2.698404e-02
     vertex -2.777777e-01 -3.469447e-18  3.698412e-01
   endloop
 endfacet
 facet normal  0.000000e+00  1.000000e+00  0.000000e+00
   outer loop
     vertex -4.920632e-02 -3.469447e-18  5.984127e-01
     vertex -2.777777e-01 -3.469447e-18  3.698412e-01
     vertex -2.206349e-01 -3.469447e-18  7.507936e-01
   endloop
 endfacet
 facet normal  0.000000e+00  1.000000e+00  0.000000e+00
   outer loop
     vertex -5.078177e-02 -3.469447e-18  6.431529e-01
     vertex -4.818045e-02 -3.469447e-18  6.208467e-01
     vertex -4.920632e-02 -3.469447e-18  5.984127e-01
   endloop
 endfacet
 facet normal  0.000000e+00  1.000000e+00  0.000000e+00
   outer loop
     vertex -1.538493e-01 -3.469447e-18  7.508883e-01
     vertex -1.984759e-01 -3.469447e-18  7.544426e-01
     vertex -1.760185e-01 -3.469447e-18  7.544744e-01
   endloop
 endfacet
 facet normal  0.000000e+00  1.000000e+00  0.000000e+00
   outer loop
     vertex -1.126688e-01 -3.469447e-18  7.333287e-01
     vertex -1.538493e-01 -3.469447e-18  7.508883e-01
     vertex -1.325473e-01 -3.469447e-18  7.437778e-01
   endloop
 endfacet
 facet normal  0.000000e+00  1.000000e+00  0.000000e+00
   outer loop
     vertex -9.473322e-02 -3.469447e-18  7.198140e-01
     vertex -5.694235e-02 -3.469447e-18  6.647488e-01
     vertex -5.078177e-02 -3.469447e-18  6.431529e-01
   endloop
 endfacet
 facet normal  0.000000e+00  1.000000e+00  0.000000e+00
   outer loop
     vertex -9.473322e-02 -3.469447e-18  7.198140e-01
     vertex -6.650127e-02 -3.469447e-18  6.850703e-01
     vertex -5.694235e-02 -3.469447e-18  6.647488e-01
   endloop
 endfacet
 facet normal  0.000000e+00  1.000000e+00  0.000000e+00
   outer loop
     vertex -9.473322e-02 -3.469447e-18  7.198140e-01
     vertex -7.920887e-02 -3.469447e-18  7.035865e-01
     vertex -6.650127e-02 -3.469447e-18  6.850703e-01
   endloop
 endfacet
 facet normal  0.000000e+00  1.000000e+00  0.000000e+00
   outer loop
     vertex -9.473322e-02 -3.469447e-18  7.198140e-01
     vertex -2.206349e-01 -3.469447e-18  7.507936e-01
     vertex -1.984759e-01 -3.469447e-18  7.544426e-01
   endloop
 endfacet
 facet normal  0.000000e+00  1.000000e+00  0.000000e+00
   outer loop
     vertex -9.473322e-02 -3.469447e-18  7.198140e-01
     vertex -4.920632e-02 -3.469447e-18  5.984127e-01
     vertex -2.206349e-01 -3.469447e-18  7.507936e-01
   endloop
 endfacet
 facet normal  0.000000e+00  1.000000e+00  0.000000e+00
   outer loop
     vertex -9.473322e-02 -3.469447e-18  7.198140e-01
     vertex -1.984759e-01 -3.469447e-18  7.544426e-01
     vertex -1.538493e-01 -3.469447e-18  7.508883e-01
   endloop
 endfacet
 facet normal  0.000000e+00  1.000000e+00  0.000000e+00
   outer loop
     vertex -9.473322e-02 -3.469447e-18  7.198140e-01
     vertex -5.078177e-02 -3.469447e-18  6.431529e-01
     vertex -4.920632e-02 -3.469447e-18  5.984127e-01
   endloop
 endfacet
 facet normal  0.000000e+00  1.000000e+00  0.000000e+00
   outer loop
     vertex -9.473322e-02 -3.469447e-18  7.198140e-01
     vertex -1.538493e-01 -3.469447e-18  7.508883e-01
     vertex -1.126688e-01 -3.469447e-18  7.333287e-01
   endloop
 endfacet
 facet normal -0.000000e+00  0.000000e+00  1.000000e+00
   outer loop
     vertex -8.301588e-01 -1.587302e-02  7.507936e-01
     vertex -2.206349e-01 -1.269842e-01  7.507936e-01
     vertex -2.206349e-01 -1.587302e-02  7.507936e-01
   endloop
 endfacet
 facet normal  0.000000e+00  0.000000e+00  1.000000e+00
   outer loop
     vertex -8.301588e-01 -1.587302e-02  7.507936e-01
     vertex -8.301588e-01 -1.269842e-01  7.507936e-01
     vertex -2.206349e-01 -1.269842e-01  7.507936e-01
   endloop
 endfacet
 facet normal -1.000000e+00  0.000000e+00  0.000000e+00
   outer loop
     vertex -2.777777e-01 -1.587302e-02  2.698404e-02
     vertex -2.777777e-01 -1.269842e-01  3.698412e-01
     vertex -2.777777e-01 -1.587302e-02  3.698412e-01
   endloop
 endfacet
 facet normal -1.000000e+00  0.000000e+00  0.000000e+00
   outer loop
     vertex -2.777777e-01 -1.587302e-02  2.698404e-02
     vertex -2.777777e-01 -1.269842e-01  2.698404e-02
     vertex -2.777777e-01 -1.269842e-01  3.698412e-01
   endloop
 endfacet
 facet normal  9.989561e-01  0.000000e+00 -4.568072e-02
   outer loop
     vertex -4.818045e-02 -1.587302e-02  6.208467e-01
     vertex -4.920632e-02 -1.269842e-01  5.984127e-01
     vertex -4.920632e-02 -1.587302e-02  5.984127e-01
   endloop
 endfacet
 facet normal  9.989561e-01  0.000000e+00 -4.568072e-02
   outer loop
     vertex -4.818045e-02 -1.587302e-02  6.208467e-01
     vertex -4.818045e-02 -1.269842e-01  6.208467e-01
     vertex -4.920632e-02 -1.269842e-01  5.984127e-01
   endloop
 endfacet
 facet normal  9.932686e-01  0.000000e+00  1.158338e-01
   outer loop
     vertex -5.078177e-02 -1.587302e-02  6.431529e-01
     vertex -5.078177e-02 -1.269842e-01  6.431529e-01
     vertex -4.818045e-02 -1.269842e-01  6.208467e-01
   endloop
 endfacet
 facet normal  9.932686e-01  0.000000e+00  1.158338e-01
   outer loop
     vertex -5.078177e-02 -1.587302e-02  6.431529e-01
     vertex -4.818045e-02 -1.269842e-01  6.208467e-01
     vertex -4.818045e-02 -1.587302e-02  6.208467e-01
   endloop
 endfacet
 facet normal  9.616377e-01  0.000000e+00  2.743228e-01
   outer loop
     vertex -5.694235e-02 -1.587302e-02  6.647488e-01
     vertex -5.694235e-02 -1.269842e-01  6.647488e-01
     vertex -5.078177e-02 -1.269842e-01  6.431529e-01
   endloop
 endfacet
 facet normal  9.616377e-01  0.000000e+00  2.743228e-01
   outer loop
     vertex -5.694235e-02 -1.587302e-02  6.647488e-01
     vertex -5.078177e-02 -1.269842e-01  6.431529e-01
     vertex -5.078177e-02 -1.587302e-02  6.431529e-01
   endloop
 endfacet
 facet normal  9.048894e-01  0.000000e+00  4.256467e-01
   outer loop
     vertex -6.650127e-02 -1.587302e-02  6.850703e-01
     vertex -6.650127e-02 -1.269842e-01  6.850703e-01
     vertex -5.694235e-02 -1.269842e-01  6.647488e-01
   endloop
 endfacet
 facet normal  9.048894e-01  0.000000e+00  4.256467e-01
   outer loop
     vertex -6.650127e-02 -1.587302e-02  6.850703e-01
     vertex -5.694235e-02 -1.269842e-01  6.647488e-01
     vertex -5.694235e-02 -1.587302e-02  6.647488e-01
   endloop
 endfacet
 facet normal  8.245061e-01  0.000000e+00  5.658530e-01
   outer loop
     vertex -7.920887e-02 -1.587302e-02  7.035865e-01
     vertex -7.920887e-02 -1.269842e-01  7.035865e-01
     vertex -6.650127e-02 -1.269842e-01  6.850703e-01
   endloop
 endfacet
 facet normal  8.245061e-01  0.000000e+00  5.658530e-01
   outer loop
     vertex -7.920887e-02 -1.587302e-02  7.035865e-01
     vertex -6.650127e-02 -1.269842e-01  6.850703e-01
     vertex -6.650127e-02 -1.587302e-02  6.850703e-01
   endloop
 endfacet
 facet normal  7.225873e-01  0.000000e+00  6.912796e-01
   outer loop
     vertex -9.473322e-02 -1.587302e-02  7.198140e-01
     vertex -9.473322e-02 -1.269842e-01  7.198140e-01
     vertex -7.920887e-02 -1.269842e-01  7.035865e-01
   endloop
 endfacet
 facet normal  7.225873e-01  0.000000e+00  6.912796e-01
   outer loop
     vertex -9.473322e-02 -1.587302e-02  7.198140e-01
     vertex -7.920887e-02 -1.269842e-01  7.035865e-01
     vertex -7.920887e-02 -1.587302e-02  7.035865e-01
   endloop
 endfacet
 facet normal  6.017951e-01  0.000000e+00  7.986506e-01
   outer loop
     vertex -1.126688e-01 -1.587302e-02  7.333287e-01
     vertex -1.126688e-01 -1.269842e-01  7.333287e-01
     vertex -9.473322e-02 -1.269842e-01  7.198140e-01
   endloop
 endfacet
 facet normal  6.017951e-01  0.000000e+00  7.986506e-01
   outer loop
     vertex -1.126688e-01 -1.587302e-02  7.333287e-01
     vertex -9.473322e-02 -1.269842e-01  7.198140e-01
     vertex -9.473322e-02 -1.587302e-02  7.198140e-01
   endloop
 endfacet
 facet normal  4.652843e-01  0.000000e+00  8.851613e-01
   outer loop
     vertex -1.325473e-01 -1.587302e-02  7.437778e-01
     vertex -1.325473e-01 -1.269842e-01  7.437778e-01
     vertex -1.126688e-01 -1.269842e-01  7.333287e-01
   endloop
 endfacet
 facet normal  4.652843e-01  0.000000e+00  8.851613e-01
   outer loop
     vertex -1.325473e-01 -1.587302e-02  7.437778e-01
     vertex -1.126688e-01 -1.269842e-01  7.333287e-01
     vertex -1.126688e-01 -1.587302e-02  7.333287e-01
   endloop
 endfacet
 facet normal  3.166207e-01  0.000000e+00  9.485522e-01
   outer loop
     vertex -1.538493e-01 -1.587302e-02  7.508883e-01
     vertex -1.538493e-01 -1.269842e-01  7.508883e-01
     vertex -1.325473e-01 -1.269842e-01  7.437778e-01
   endloop
 endfacet
 facet normal  3.166207e-01  0.000000e+00  9.485522e-01
   outer loop
     vertex -1.538493e-01 -1.587302e-02  7.508883e-01
     vertex -1.325473e-01 -1.269842e-01  7.437778e-01
     vertex -1.325473e-01 -1.587302e-02  7.437778e-01
   endloop
 endfacet
 facet normal  1.596872e-01  0.000000e+00  9.871677e-01
   outer loop
     vertex -1.760185e-01 -1.587302e-02  7.544744e-01
     vertex -1.760185e-01 -1.269842e-01  7.544744e-01
     vertex -1.538493e-01 -1.269842e-01  7.508883e-01
   endloop
 endfacet
 facet normal  1.596872e-01  0.000000e+00  9.871677e-01
   outer loop
     vertex -1.760185e-01 -1.587302e-02  7.544744e-01
     vertex -1.538493e-01 -1.269842e-01  7.508883e-01
     vertex -1.538493e-01 -1.587302e-02  7.508883e-01
   endloop
 endfacet
 facet normal -1.417244e-03  0.000000e+00  9.999990e-01
   outer loop
     vertex -1.984759e-01 -1.587302e-02  7.544426e-01
     vertex -1.984759e-01 -1.269842e-01  7.544426e-01
     vertex -1.760185e-01 -1.269842e-01  7.544744e-01
   endloop
 endfacet
 facet normal -1.417244e-03  0.000000e+00  9.999990e-01
   outer loop
     vertex -1.984759e-01 -1.587302e-02  7.544426e-01
     vertex -1.760185e-01 -1.269842e-01  7.544744e-01
     vertex -1.760185e-01 -1.587302e-02  7.544744e-01
   endloop
 endfacet
 facet normal -1.624847e-01  0.000000e+00  9.867111e-01
   outer loop
     vertex -2.206349e-01 -1.587302e-02  7.507936e-01
     vertex -2.206349e-01 -1.269842e-01  7.507936e-01
     vertex -1.984759e-01 -1.269842e-01  7.544426e-01
   endloop
 endfacet
 facet normal -1.624847e-01  0.000000e+00  9.867111e-01
   outer loop
     vertex -2.206349e-01 -1.587302e-02  7.507936e-01
     vertex -1.984759e-01 -1.269842e-01  7.544426e-01
     vertex -1.984759e-01 -1.587302e-02  7.544426e-01
   endloop
 endfacet
 facet normal -0.000000e+00  0.000000e+00 -1.000000e+00
   outer loop
     vertex -4.920632e-02 -1.587302e-02  2.698404e-02
     vertex -2.777777e-01 -1.269842e-01  2.698404e-02
     vertex -2.777777e-01 -1.587302e-02  2.698404e-02
   endloop
 endfacet
 facet normal  0.000000e+00 -0.000000e+00 -1.000000e+00
   outer loop
     vertex -4.920632e-02 -1.587302e-02  2.698404e-02
     vertex -4.920632e-02 -1.269842e-01  2.698404e-02
     vertex -2.777777e-01 -1.269842e-01  2.698404e-02
   endloop
 endfacet
 facet normal  1.000000e+00  0.000000e+00 -6.071531e-17
   outer loop
     vertex -4.920632e-02 -1.587302e-02  5.984127e-01
     vertex -4.920632e-02 -1.269842e-01  2.698404e-02
     vertex -4.920632e-02 -1.587302e-02  2.698404e-02
   endloop
 endfacet
 facet normal  1.000000e+00  0.000000e+00 -6.071531e-17
   outer loop
     vertex -4.920632e-02 -1.587302e-02  5.984127e-01
     vertex -4.920632e-02 -1.269842e-01  5.984127e-01
     vertex -4.920632e-02 -1.269842e-01  2.698404e-02
   endloop
 endfacet
 facet normal -9.927089e-01  0.000000e+00 -1.205367e-01
   outer loop
     vertex -4.745380e-01 -1.587302e-02  6.109483e-01
     vertex -4.730159e-01 -1.587302e-02  5.984127e-01
     vertex -4.730159e-01 -1.269842e-01  5.984127e-01
   endloop
 endfacet
 facet normal -9.927089e-01 -0.000000e+00 -1.205367e-01
   outer loop
     vertex -4.745380e-01 -1.587302e-02  6.109483e-01
     vertex -4.730159e-01 -1.269842e-01  5.984127e-01
     vertex -4.745380e-01 -1.269842e-01  6.109483e-01
   endloop
 endfacet
 facet normal -9.350162e-01 -0.000000e+00 -3.546049e-01
   outer loop
     vertex -4.790158e-01 -1.587302e-02  6.227553e-01
     vertex -4.745380e-01 -1.269842e-01  6.109483e-01
     vertex -4.790158e-01 -1.269842e-01  6.227553e-01
   endloop
 endfacet
 facet normal -9.350162e-01  0.000000e+00 -3.546049e-01
   outer loop
     vertex -4.790158e-01 -1.587302e-02  6.227553e-01
     vertex -4.745380e-01 -1.587302e-02  6.109483e-01
     vertex -4.745380e-01 -1.269842e-01  6.109483e-01
   endloop
 endfacet
 facet normal -8.229839e-01 -0.000000e+00 -5.680647e-01
   outer loop
     vertex -4.861891e-01 -1.587302e-02  6.331477e-01
     vertex -4.790158e-01 -1.269842e-01  6.227553e-01
     vertex -4.861891e-01 -1.269842e-01  6.331477e-01
   endloop
 endfacet
 facet normal -8.229839e-01  0.000000e+00 -5.680647e-01
   outer loop
     vertex -4.861891e-01 -1.587302e-02  6.331477e-01
     vertex -4.790158e-01 -1.587302e-02  6.227553e-01
     vertex -4.790158e-01 -1.269842e-01  6.227553e-01
   endloop
 endfacet
 facet normal -6.631227e-01 -0.000000e+00 -7.485107e-01
   outer loop
     vertex -4.956410e-01 -1.587302e-02  6.415214e-01
     vertex -4.861891e-01 -1.269842e-01  6.331477e-01
     vertex -4.956410e-01 -1.269842e-01  6.415214e-01
   endloop
 endfacet
 facet normal -6.631227e-01  0.000000e+00 -7.485107e-01
   outer loop
     vertex -4.956410e-01 -1.587302e-02  6.415214e-01
     vertex -4.861891e-01 -1.587302e-02  6.331477e-01
     vertex -4.861891e-01 -1.269842e-01  6.331477e-01
   endloop
 endfacet
 facet normal -4.647232e-01 -0.000000e+00 -8.854560e-01
   outer loop
     vertex -5.068223e-01 -1.587302e-02  6.473897e-01
     vertex -4.956410e-01 -1.269842e-01  6.415214e-01
     vertex -5.068223e-01 -1.269842e-01  6.473897e-01
   endloop
 endfacet
 facet normal -4.647232e-01  0.000000e+00 -8.854560e-01
   outer loop
     vertex -5.068223e-01 -1.587302e-02  6.473897e-01
     vertex -4.956410e-01 -1.587302e-02  6.415214e-01
     vertex -4.956410e-01 -1.269842e-01  6.415214e-01
   endloop
 endfacet
 facet normal -2.393157e-01 -0.000000e+00 -9.709418e-01
   outer loop
     vertex -5.190830e-01 -1.587302e-02  6.504117e-01
     vertex -5.068223e-01 -1.269842e-01  6.473897e-01
     vertex -5.190830e-01 -1.269842e-01  6.504117e-01
   endloop
 endfacet
 facet normal -2.393157e-01  0.000000e+00 -9.709418e-01
   outer loop
     vertex -5.190830e-01 -1.587302e-02  6.504117e-01
     vertex -5.068223e-01 -1.587302e-02  6.473897e-01
     vertex -5.068223e-01 -1.269842e-01  6.473897e-01
   endloop
 endfacet
 facet normal  0.000000e+00  0.000000e+00 -1.000000e+00
   outer loop
     vertex -5.317107e-01 -1.587302e-02  6.504117e-01
     vertex -5.190830e-01 -1.269842e-01  6.504117e-01
     vertex -5.317107e-01 -1.269842e-01  6.504117e-01
   endloop
 endfacet
 facet normal  0.000000e+00  0.000000e+00 -1.000000e+00
   outer loop
     vertex -5.317107e-01 -1.587302e-02  6.504117e-01
     vertex -5.190830e-01 -1.587302e-02  6.504117e-01
     vertex -5.190830e-01 -1.269842e-01  6.504117e-01
   endloop
 endfacet
 facet normal  2.393157e-01  0.000000e+00 -9.709418e-01
   outer loop
     vertex -5.439714e-01 -1.587302e-02  6.473897e-01
     vertex -5.317107e-01 -1.269842e-01  6.504117e-01
     vertex -5.439714e-01 -1.269842e-01  6.473897e-01
   endloop
 endfacet
 facet normal  2.393157e-01  0.000000e+00 -9.709418e-01
   outer loop
     vertex -5.439714e-01 -1.587302e-02  6.473897e-01
     vertex -5.317107e-01 -1.587302e-02  6.504117e-01
     vertex -5.317107e-01 -1.269842e-01  6.504117e-01
   endloop
 endfacet
 facet normal  4.647232e-01  0.000000e+00 -8.854560e-01
   outer loop
     vertex -5.551526e-01 -1.587302e-02  6.415214e-01
     vertex -5.439714e-01 -1.269842e-01  6.473897e-01
     vertex -5.551526e-01 -1.269842e-01  6.415214e-01
   endloop
 endfacet
 facet normal  4.647232e-01  0.000000e+00 -8.854560e-01
   outer loop
     vertex -5.551526e-01 -1.587302e-02  6.415214e-01
     vertex -5.439714e-01 -1.587302e-02  6.473897e-01
     vertex -5.439714e-01 -1.269842e-01  6.473897e-01
   endloop
 endfacet
 facet normal  6.631227e-01  0.000000e+00 -7.485107e-01
   outer loop
     vertex -5.646045e-01 -1.587302e-02  6.331477e-01
     vertex -5.551526e-01 -1.269842e-01  6.415214e-01
     vertex -5.646045e-01 -1.269842e-01  6.331477e-01
   endloop
 endfacet
 facet normal  6.631227e-01  0.000000e+00 -7.485107e-01
   outer loop
     vertex -5.646045e-01 -1.587302e-02  6.331477e-01
     vertex -5.551526e-01 -1.587302e-02  6.415214e-01
     vertex -5.551526e-01 -1.269842e-01  6.415214e-01
   endloop
 endfacet
 facet normal  8.229839e-01  0.000000e+00 -5.680647e-01
   outer loop
     vertex -5.717779e-01 -1.587302e-02  6.227553e-01
     vertex -5.646045e-01 -1.587302e-02  6.331477e-01
     vertex -5.646045e-01 -1.269842e-01  6.331477e-01
   endloop
 endfacet
 facet normal  8.229839e-01  0.000000e+00 -5.680647e-01
   outer loop
     vertex -5.717779e-01 -1.587302e-02  6.227553e-01
     vertex -5.646045e-01 -1.269842e-01  6.331477e-01
     vertex -5.717779e-01 -1.269842e-01  6.227553e-01
   endloop
 endfacet
 facet normal  9.350162e-01  0.000000e+00 -3.546049e-01
   outer loop
     vertex -5.762557e-01 -1.587302e-02  6.109483e-01
     vertex -5.717779e-01 -1.587302e-02  6.227553e-01
     vertex -5.717779e-01 -1.269842e-01  6.227553e-01
   endloop
 endfacet
 facet normal  9.350162e-01  0.000000e+00 -3.546049e-01
   outer loop
     vertex -5.762557e-01 -1.587302e-02  6.109483e-01
     vertex -5.717779e-01 -1.269842e-01  6.227553e-01
     vertex -5.762557e-01 -1.269842e-01  6.109483e-01
   endloop
 endfacet
 facet normal  9.927089e-01  0.000000e+00 -1.205367e-01
   outer loop
     vertex -5.777778e-01 -1.587302e-02  5.984127e-01
     vertex -5.762557e-01 -1.587302e-02  6.109483e-01
     vertex -5.762557e-01 -1.269842e-01  6.109483e-01
   endloop
 endfacet
 facet normal  9.927089e-01  0.000000e+00 -1.205367e-01
   outer loop
     vertex -5.777778e-01 -1.587302e-02  5.984127e-01
     vertex -5.762557e-01 -1.269842e-01  6.109483e-01
     vertex -5.777778e-01 -1.269842e-01  5.984127e-01
   endloop
 endfacet
 facet normal  9.927089e-01  0.000000e+00  1.205367e-01
   outer loop
     vertex -5.762557e-01 -1.587302e-02  5.858771e-01
     vertex -5.777778e-01 -1.269842e-01  5.984127e-01
     vertex -5.762557e-01 -1.269842e-01  5.858771e-01
   endloop
 endfacet
 facet normal  9.927089e-01  0.000000e+00  1.205367e-01
   outer loop
     vertex -5.762557e-01 -1.587302e-02  5.858771e-01
     vertex -5.777778e-01 -1.587302e-02  5.984127e-01
     vertex -5.777778e-01 -1.269842e-01  5.984127e-01
   endloop
 endfacet
 facet normal  9.350162e-01  0.000000e+00  3.546049e-01
   outer loop
     vertex -5.717779e-01 -1.587302e-02  5.740700e-01
     vertex -5.762557e-01 -1.587302e-02  5.858771e-01
     vertex -5.762557e-01 -1.269842e-01  5.858771e-01
   endloop
 endfacet
 facet normal  9.350162e-01  0.000000e+00  3.546049e-01
   outer loop
     vertex -5.717779e-01 -1.587302e-02  5.740700e-01
     vertex -5.762557e-01 -1.269842e-01  5.858771e-01
     vertex -5.717779e-01 -1.269842e-01  5.740700e-01
   endloop
 endfacet
 facet normal  8.229839e-01  0.000000e+00  5.680647e-01
   outer loop
     vertex -5.646045e-01 -1.587302e-02  5.636777e-01
     vertex -5.717779e-01 -1.269842e-01  5.740700e-01
     vertex -5.646045e-01 -1.269842e-01  5.636777e-01
   endloop
 endfacet
 facet normal  8.229839e-01  0.000000e+00  5.680647e-01
   outer loop
     vertex -5.646045e-01 -1.587302e-02  5.636777e-01
     vertex -5.717779e-01 -1.587302e-02  5.740700e-01
     vertex -5.717779e-01 -1.269842e-01  5.740700e-01
   endloop
 endfacet
 facet normal  6.631227e-01  0.000000e+00  7.485107e-01
   outer loop
     vertex -5.551526e-01 -1.587302e-02  5.553040e-01
     vertex -5.646045e-01 -1.269842e-01  5.636777e-01
     vertex -5.551526e-01 -1.269842e-01  5.553040e-01
   endloop
 endfacet
 facet normal  6.631227e-01  0.000000e+00  7.485107e-01
   outer loop
     vertex -5.551526e-01 -1.587302e-02  5.553040e-01
     vertex -5.646045e-01 -1.587302e-02  5.636777e-01
     vertex -5.646045e-01 -1.269842e-01  5.636777e-01
   endloop
 endfacet
 facet normal  4.647232e-01  0.000000e+00  8.854560e-01
   outer loop
     vertex -5.439714e-01 -1.587302e-02  5.494356e-01
     vertex -5.551526e-01 -1.269842e-01  5.553040e-01
     vertex -5.439714e-01 -1.269842e-01  5.494356e-01
   endloop
 endfacet
 facet normal  2.393157e-01  0.000000e+00  9.709418e-01
   outer loop
     vertex -5.439714e-01 -1.587302e-02  5.494356e-01
     vertex -5.439714e-01 -1.269842e-01  5.494356e-01
     vertex -5.317107e-01 -1.269842e-01  5.464136e-01
   endloop
 endfacet
 facet normal  4.647232e-01  0.000000e+00  8.854560e-01
   outer loop
     vertex -5.439714e-01 -1.587302e-02  5.494356e-01
     vertex -5.551526e-01 -1.587302e-02  5.553040e-01
     vertex -5.551526e-01 -1.269842e-01  5.553040e-01
   endloop
 endfacet
 facet normal  2.393157e-01  0.000000e+00  9.709418e-01
   outer loop
     vertex -5.317107e-01 -1.587302e-02  5.464136e-01
     vertex -5.439714e-01 -1.587302e-02  5.494356e-01
     vertex -5.317107e-01 -1.269842e-01  5.464136e-01
   endloop
 endfacet
 facet normal  0.000000e+00  0.000000e+00  1.000000e+00
   outer loop
     vertex -5.190830e-01 -1.587302e-02  5.464136e-01
     vertex -5.317107e-01 -1.269842e-01  5.464136e-01
     vertex -5.190830e-01 -1.269842e-01  5.464136e-01
   endloop
 endfacet
 facet normal  0.000000e+00  0.000000e+00  1.000000e+00
   outer loop
     vertex -5.190830e-01 -1.587302e-02  5.464136e-01
     vertex -5.317107e-01 -1.587302e-02  5.464136e-01
     vertex -5.317107e-01 -1.269842e-01  5.464136e-01
   endloop
 endfacet
 facet normal -2.393157e-01  0.000000e+00  9.709418e-01
   outer loop
     vertex -5.068223e-01 -1.587302e-02  5.494356e-01
     vertex -5.190830e-01 -1.269842e-01  5.464136e-01
     vertex -5.068223e-01 -1.269842e-01  5.494356e-01
   endloop
 endfacet
 facet normal -2.393157e-01  0.000000e+00  9.709418e-01
   outer loop
     vertex -5.068223e-01 -1.587302e-02  5.494356e-01
     vertex -5.190830e-01 -1.587302e-02  5.464136e-01
     vertex -5.190830e-01 -1.269842e-01  5.464136e-01
   endloop
 endfacet
 facet normal -4.647232e-01  0.000000e+00  8.854560e-01
   outer loop
     vertex -4.956410e-01 -1.587302e-02  5.553040e-01
     vertex -5.068223e-01 -1.269842e-01  5.494356e-01
     vertex -4.956410e-01 -1.269842e-01  5.553040e-01
   endloop
 endfacet
 facet normal -4.647232e-01  0.000000e+00  8.854560e-01
   outer loop
     vertex -4.956410e-01 -1.587302e-02  5.553040e-01
     vertex -5.068223e-01 -1.587302e-02  5.494356e-01
     vertex -5.068223e-01 -1.269842e-01  5.494356e-01
   endloop
 endfacet
 facet normal -6.631227e-01  0.000000e+00  7.485107e-01
   outer loop
     vertex -4.861891e-01 -1.587302e-02  5.636777e-01
     vertex -4.956410e-01 -1.269842e-01  5.553040e-01
     vertex -4.861891e-01 -1.269842e-01  5.636777e-01
   endloop
 endfacet
 facet normal -8.229839e-01  0.000000e+00  5.680647e-01
   outer loop
     vertex -4.861891e-01 -1.587302e-02  5.636777e-01
     vertex -4.861891e-01 -1.269842e-01  5.636777e-01
     vertex -4.790158e-01 -1.269842e-01  5.740700e-01
   endloop
 endfacet
 facet normal -6.631227e-01  0.000000e+00  7.485107e-01
   outer loop
     vertex -4.861891e-01 -1.587302e-02  5.636777e-01
     vertex -4.956410e-01 -1.587302e-02  5.553040e-01
     vertex -4.956410e-01 -1.269842e-01  5.553040e-01
   endloop
 endfacet
 facet normal -8.229839e-01  0.000000e+00  5.680647e-01
   outer loop
     vertex -4.790158e-01 -1.587302e-02  5.740700e-01
     vertex -4.861891e-01 -1.587302e-02  5.636777e-01
     vertex -4.790158e-01 -1.269842e-01  5.740700e-01
   endloop
 endfacet
 facet normal -9.350162e-01  0.000000e+00  3.546049e-01
   outer loop
     vertex -4.745380e-01 -1.587302e-02  5.858771e-01
     vertex -4.790158e-01 -1.269842e-01  5.740700e-01
     vertex -4.745380e-01 -1.269842e-01  5.858771e-01
   endloop
 endfacet
 facet normal -9.350162e-01  0.000000e+00  3.546049e-01
   outer loop
     vertex -4.745380e-01 -1.587302e-02  5.858771e-01
     vertex -4.790158e-01 -1.587302e-02  5.740700e-01
     vertex -4.790158e-01 -1.269842e-01  5.740700e-01
   endloop
 endfacet
 facet normal -9.927089e-01  0.000000e+00  1.205367e-01
   outer loop
     vertex -4.730159e-01 -1.587302e-02  5.984127e-01
     vertex -4.745380e-01 -1.269842e-01  5.858771e-01
     vertex -4.730159e-01 -1.269842e-01  5.984127e-01
   endloop
 endfacet
 facet normal -9.927089e-01  0.000000e+00  1.205367e-01
   outer loop
     vertex -4.730159e-01 -1.587302e-02  5.984127e-01
     vertex -4.745380e-01 -1.587302e-02  5.858771e-01
     vertex -4.745380e-01 -1.269842e-01  5.858771e-01
   endloop
 endfacet
 facet normal  1.624847e-01  0.000000e+00  9.867111e-01
   outer loop
     vertex -8.523177e-01 -1.587302e-02  7.544426e-01
     vertex -8.301588e-01 -1.587302e-02  7.507936e-01
     vertex -8.301588e-01  0.000000e+00  7.507936e-01
   endloop
 endfacet
 facet normal  1.624847e-01 -0.000000e+00  9.867111e-01
   outer loop
     vertex -8.523177e-01 -1.587302e-02  7.544426e-01
     vertex -8.301588e-01  0.000000e+00  7.507936e-01
     vertex -8.523177e-01  0.000000e+00  7.544426e-01
   endloop
 endfacet
 facet normal  1.417244e-03 -0.000000e+00  9.999990e-01
   outer loop
     vertex -8.747751e-01 -1.587302e-02  7.544744e-01
     vertex -8.523177e-01  0.000000e+00  7.544426e-01
     vertex -8.747751e-01  0.000000e+00  7.544744e-01
   endloop
 endfacet
 facet normal  1.417244e-03  0.000000e+00  9.999990e-01
   outer loop
     vertex -8.747751e-01 -1.587302e-02  7.544744e-01
     vertex -8.523177e-01 -1.587302e-02  7.544426e-01
     vertex -8.523177e-01  0.000000e+00  7.544426e-01
   endloop
 endfacet
 facet normal -1.596872e-01  0.000000e+00  9.871677e-01
   outer loop
     vertex -8.969444e-01 -1.587302e-02  7.508883e-01
     vertex -8.747751e-01  0.000000e+00  7.544744e-01
     vertex -8.969444e-01  0.000000e+00  7.508883e-01
   endloop
 endfacet
 facet normal -1.596872e-01  0.000000e+00  9.871677e-01
   outer loop
     vertex -8.969444e-01 -1.587302e-02  7.508883e-01
     vertex -8.747751e-01 -1.587302e-02  7.544744e-01
     vertex -8.747751e-01  0.000000e+00  7.544744e-01
   endloop
 endfacet
 facet normal -3.166207e-01  0.000000e+00  9.485522e-01
   outer loop
     vertex -9.182464e-01 -1.587302e-02  7.437778e-01
     vertex -8.969444e-01  0.000000e+00  7.508883e-01
     vertex -9.182464e-01  0.000000e+00  7.437778e-01
   endloop
 endfacet
 facet normal -3.166207e-01  0.000000e+00  9.485522e-01
   outer loop
     vertex -9.182464e-01 -1.587302e-02  7.437778e-01
     vertex -8.969444e-01 -1.587302e-02  7.508883e-01
     vertex -8.969444e-01  0.000000e+00  7.508883e-01
   endloop
 endfacet
 facet normal -4.652843e-01  0.000000e+00  8.851613e-01
   outer loop
     vertex -9.381248e-01 -1.587302e-02  7.333287e-01
     vertex -9.182464e-01  0.000000e+00  7.437778e-01
     vertex -9.381248e-01  0.000000e+00  7.333287e-01
   endloop
 endfacet
 facet normal -4.652843e-01  0.000000e+00  8.851613e-01
   outer loop
     vertex -9.381248e-01 -1.587302e-02  7.333287e-01
     vertex -9.182464e-01 -1.587302e-02  7.437778e-01
     vertex -9.182464e-01  0.000000e+00  7.437778e-01
   endloop
 endfacet
 facet normal -6.017951e-01  0.000000e+00  7.986506e-01
   outer loop
     vertex -9.560604e-01 -1.587302e-02  7.198140e-01
     vertex -9.381248e-01  0.000000e+00  7.333287e-01
     vertex -9.560604e-01  0.000000e+00  7.198140e-01
   endloop
 endfacet
 facet normal -6.017951e-01  0.000000e+00  7.986506e-01
   outer loop
     vertex -9.560604e-01 -1.587302e-02  7.198140e-01
     vertex -9.381248e-01 -1.587302e-02  7.333287e-01
     vertex -9.381248e-01  0.000000e+00  7.333287e-01
   endloop
 endfacet
 facet normal -7.225873e-01  0.000000e+00  6.912796e-01
   outer loop
     vertex -9.715848e-01 -1.587302e-02  7.035865e-01
     vertex -9.560604e-01  0.000000e+00  7.198140e-01
     vertex -9.715848e-01  0.000000e+00  7.035865e-01
   endloop
 endfacet
 facet normal -7.225873e-01  0.000000e+00  6.912796e-01
   outer loop
     vertex -9.715848e-01 -1.587302e-02  7.035865e-01
     vertex -9.560604e-01 -1.587302e-02  7.198140e-01
     vertex -9.560604e-01  0.000000e+00  7.198140e-01
   endloop
 endfacet
 facet normal -8.245061e-01  0.000000e+00  5.658530e-01
   outer loop
     vertex -9.842924e-01 -1.587302e-02  6.850703e-01
     vertex -9.715848e-01  0.000000e+00  7.035865e-01
     vertex -9.842924e-01  0.000000e+00  6.850703e-01
   endloop
 endfacet
 facet normal -8.245061e-01  0.000000e+00  5.658530e-01
   outer loop
     vertex -9.842924e-01 -1.587302e-02  6.850703e-01
     vertex -9.715848e-01 -1.587302e-02  7.035865e-01
     vertex -9.715848e-01  0.000000e+00  7.035865e-01
   endloop
 endfacet
 facet normal -9.048894e-01  0.000000e+00  4.256467e-01
   outer loop
     vertex -9.938513e-01 -1.587302e-02  6.647488e-01
     vertex -9.842924e-01  0.000000e+00  6.850703e-01
     vertex -9.938513e-01  0.000000e+00  6.647488e-01
   endloop
 endfacet
 facet normal -9.048894e-01  0.000000e+00  4.256467e-01
   outer loop
     vertex -9.938513e-01 -1.587302e-02  6.647488e-01
     vertex -9.842924e-01 -1.587302e-02  6.850703e-01
     vertex -9.842924e-01  0.000000e+00  6.850703e-01
   endloop
 endfacet
 facet normal -9.616377e-01  0.000000e+00  2.743228e-01
   outer loop
     vertex -1.000012e+00 -1.587302e-02  6.431529e-01
     vertex -9.938513e-01  0.000000e+00  6.647488e-01
     vertex -1.000012e+00  0.000000e+00  6.431529e-01
   endloop
 endfacet
 facet normal -9.616377e-01  0.000000e+00  2.743228e-01
   outer loop
     vertex -1.000012e+00 -1.587302e-02  6.431529e-01
     vertex -9.938513e-01 -1.587302e-02  6.647488e-01
     vertex -9.938513e-01  0.000000e+00  6.647488e-01
   endloop
 endfacet
 facet normal -9.932686e-01  0.000000e+00  1.158338e-01
   outer loop
     vertex -1.002613e+00 -1.587302e-02  6.208467e-01
     vertex -1.000012e+00  0.000000e+00  6.431529e-01
     vertex -1.002613e+00  0.000000e+00  6.208467e-01
   endloop
 endfacet
 facet normal -9.932686e-01  0.000000e+00  1.158338e-01
   outer loop
     vertex -1.002613e+00 -1.587302e-02  6.208467e-01
     vertex -1.000012e+00 -1.587302e-02  6.431529e-01
     vertex -1.000012e+00  0.000000e+00  6.431529e-01
   endloop
 endfacet
 facet normal -9.989561e-01  0.000000e+00 -4.568072e-02
   outer loop
     vertex -1.001587e+00 -1.587302e-02  5.984127e-01
     vertex -1.002613e+00  0.000000e+00  6.208467e-01
     vertex -1.001587e+00  0.000000e+00  5.984127e-01
   endloop
 endfacet
 facet normal -9.989561e-01  0.000000e+00 -4.568072e-02
   outer loop
     vertex -1.001587e+00 -1.587302e-02  5.984127e-01
     vertex -1.002613e+00 -1.587302e-02  6.208467e-01
     vertex -1.002613e+00  0.000000e+00  6.208467e-01
   endloop
 endfacet
 facet normal  0.000000e+00  0.000000e+00 -1.000000e+00
   outer loop
     vertex -2.777777e-01 -1.587302e-02  3.698412e-01
     vertex -7.730159e-01 -1.587302e-02  3.698412e-01
     vertex -7.730159e-01  0.000000e+00  3.698412e-01
   endloop
 endfacet
 facet normal  0.000000e+00  0.000000e+00 -1.000000e+00
   outer loop
     vertex -2.777777e-01 -1.587302e-02  3.698412e-01
     vertex -7.730159e-01  0.000000e+00  3.698412e-01
     vertex -2.777777e-01  0.000000e+00  3.698412e-01
   endloop
 endfacet
 facet normal  0.000000e+00  0.000000e+00  1.000000e+00
   outer loop
     vertex -8.301588e-01 -1.587302e-02  7.507936e-01
     vertex -2.206349e-01 -1.587302e-02  7.507936e-01
     vertex -2.206349e-01  0.000000e+00  7.507936e-01
   endloop
 endfacet
 facet normal  0.000000e+00  0.000000e+00  1.000000e+00
   outer loop
     vertex -8.301588e-01 -1.587302e-02  7.507936e-01
     vertex -2.206349e-01  0.000000e+00  7.507936e-01
     vertex -8.301588e-01  0.000000e+00  7.507936e-01
   endloop
 endfacet
 facet normal -1.000000e+00  0.000000e+00  0.000000e+00
   outer loop
     vertex -2.777777e-01 -1.587302e-02  2.698404e-02
     vertex -2.777777e-01 -1.587302e-02  3.698412e-01
     vertex -2.777777e-01  0.000000e+00  3.698412e-01
   endloop
 endfacet
 facet normal -1.000000e+00  0.000000e+00  0.000000e+00
   outer loop
     vertex -2.777777e-01 -1.587302e-02  2.698404e-02
     vertex -2.777777e-01  0.000000e+00  3.698412e-01
     vertex -2.777777e-01  0.000000e+00  2.698404e-02
   endloop
 endfacet
 facet normal  9.989561e-01  0.000000e+00 -4.568072e-02
   outer loop
     vertex -4.818045e-02 -1.587302e-02  6.208467e-01
     vertex -4.920632e-02 -1.587302e-02  5.984127e-01
     vertex -4.920632e-02  0.000000e+00  5.984127e-01
   endloop
 endfacet
 facet normal  9.989561e-01  0.000000e+00 -4.568072e-02
   outer loop
     vertex -4.818045e-02 -1.587302e-02  6.208467e-01
     vertex -4.920632e-02  0.000000e+00  5.984127e-01
     vertex -4.818045e-02  0.000000e+00  6.208467e-01
   endloop
 endfacet
 facet normal  9.932686e-01 -0.000000e+00  1.158338e-01
   outer loop
     vertex -5.078177e-02 -1.587302e-02  6.431529e-01
     vertex -4.818045e-02  0.000000e+00  6.208467e-01
     vertex -5.078177e-02  0.000000e+00  6.431529e-01
   endloop
 endfacet
 facet normal  9.932686e-01  0.000000e+00  1.158338e-01
   outer loop
     vertex -5.078177e-02 -1.587302e-02  6.431529e-01
     vertex -4.818045e-02 -1.587302e-02  6.208467e-01
     vertex -4.818045e-02  0.000000e+00  6.208467e-01
   endloop
 endfacet
 facet normal  9.616377e-01 -0.000000e+00  2.743228e-01
   outer loop
     vertex -5.694235e-02 -1.587302e-02  6.647488e-01
     vertex -5.078177e-02  0.000000e+00  6.431529e-01
     vertex -5.694235e-02  0.000000e+00  6.647488e-01
   endloop
 endfacet
 facet normal  9.616377e-01  0.000000e+00  2.743228e-01
   outer loop
     vertex -5.694235e-02 -1.587302e-02  6.647488e-01
     vertex -5.078177e-02 -1.587302e-02  6.431529e-01
     vertex -5.078177e-02  0.000000e+00  6.431529e-01
   endloop
 endfacet
 facet normal  9.048894e-01 -0.000000e+00  4.256467e-01
   outer loop
     vertex -6.650127e-02 -1.587302e-02  6.850703e-01
     vertex -5.694235e-02  0.000000e+00  6.647488e-01
     vertex -6.650127e-02  0.000000e+00  6.850703e-01
   endloop
 endfacet
 facet normal  9.048894e-01  0.000000e+00  4.256467e-01
   outer loop
     vertex -6.650127e-02 -1.587302e-02  6.850703e-01
     vertex -5.694235e-02 -1.587302e-02  6.647488e-01
     vertex -5.694235e-02  0.000000e+00  6.647488e-01
   endloop
 endfacet
 facet normal  8.245061e-01 -0.000000e+00  5.658530e-01
   outer loop
     vertex -7.920887e-02 -1.587302e-02  7.035865e-01
     vertex -6.650127e-02  0.000000e+00  6.850703e-01
     vertex -7.920887e-02  0.000000e+00  7.035865e-01
   endloop
 endfacet
 facet normal  8.245061e-01  0.000000e+00  5.658530e-01
   outer loop
     vertex -7.920887e-02 -1.587302e-02  7.035865e-01
     vertex -6.650127e-02 -1.587302e-02  6.850703e-01
     vertex -6.650127e-02  0.000000e+00  6.850703e-01
   endloop
 endfacet
 facet normal  7.225873e-01 -0.000000e+00  6.912796e-01
   outer loop
     vertex -9.473322e-02 -1.587302e-02  7.198140e-01
     vertex -7.920887e-02  0.000000e+00  7.035865e-01
     vertex -9.473322e-02  0.000000e+00  7.198140e-01
   endloop
 endfacet
 facet normal  7.225873e-01  0.000000e+00  6.912796e-01
   outer loop
     vertex -9.473322e-02 -1.587302e-02  7.198140e-01
     vertex -7.920887e-02 -1.587302e-02  7.035865e-01
     vertex -7.920887e-02  0.000000e+00  7.035865e-01
   endloop
 endfacet
 facet normal  6.017951e-01 -0.000000e+00  7.986506e-01
   outer loop
     vertex -1.126688e-01 -1.587302e-02  7.333287e-01
     vertex -9.473322e-02  0.000000e+00  7.198140e-01
     vertex -1.126688e-01  0.000000e+00  7.333287e-01
   endloop
 endfacet
 facet normal  6.017951e-01  0.000000e+00  7.986506e-01
   outer loop
     vertex -1.126688e-01 -1.587302e-02  7.333287e-01
     vertex -9.473322e-02 -1.587302e-02  7.198140e-01
     vertex -9.473322e-02  0.000000e+00  7.198140e-01
   endloop
 endfacet
 facet normal  4.652843e-01 -0.000000e+00  8.851613e-01
   outer loop
     vertex -1.325473e-01 -1.587302e-02  7.437778e-01
     vertex -1.126688e-01  0.000000e+00  7.333287e-01
     vertex -1.325473e-01  0.000000e+00  7.437778e-01
   endloop
 endfacet
 facet normal  4.652843e-01  0.000000e+00  8.851613e-01
   outer loop
     vertex -1.325473e-01 -1.587302e-02  7.437778e-01
     vertex -1.126688e-01 -1.587302e-02  7.333287e-01
     vertex -1.126688e-01  0.000000e+00  7.333287e-01
   endloop
 endfacet
 facet normal  3.166207e-01 -0.000000e+00  9.485522e-01
   outer loop
     vertex -1.538493e-01 -1.587302e-02  7.508883e-01
     vertex -1.325473e-01  0.000000e+00  7.437778e-01
     vertex -1.538493e-01  0.000000e+00  7.508883e-01
   endloop
 endfacet
 facet normal  3.166207e-01  0.000000e+00  9.485522e-01
   outer loop
     vertex -1.538493e-01 -1.587302e-02  7.508883e-01
     vertex -1.325473e-01 -1.587302e-02  7.437778e-01
     vertex -1.325473e-01  0.000000e+00  7.437778e-01
   endloop
 endfacet
 facet normal  1.596872e-01 -0.000000e+00  9.871677e-01
   outer loop
     vertex -1.760185e-01 -1.587302e-02  7.544744e-01
     vertex -1.538493e-01  0.000000e+00  7.508883e-01
     vertex -1.760185e-01  0.000000e+00  7.544744e-01
   endloop
 endfacet
 facet normal  1.596872e-01  0.000000e+00  9.871677e-01
   outer loop
     vertex -1.760185e-01 -1.587302e-02  7.544744e-01
     vertex -1.538493e-01 -1.587302e-02  7.508883e-01
     vertex -1.538493e-01  0.000000e+00  7.508883e-01
   endloop
 endfacet
 facet normal -1.417244e-03  0.000000e+00  9.999990e-01
   outer loop
     vertex -1.984759e-01 -1.587302e-02  7.544426e-01
     vertex -1.760185e-01  0.000000e+00  7.544744e-01
     vertex -1.984759e-01  0.000000e+00  7.544426e-01
   endloop
 endfacet
 facet normal -1.417244e-03  0.000000e+00  9.999990e-01
   outer loop
     vertex -1.984759e-01 -1.587302e-02  7.544426e-01
     vertex -1.760185e-01 -1.587302e-02  7.544744e-01
     vertex -1.760185e-01  0.000000e+00  7.544744e-01
   endloop
 endfacet
 facet normal -1.624847e-01  0.000000e+00  9.867111e-01
   outer loop
     vertex -2.206349e-01 -1.587302e-02  7.507936e-01
     vertex -1.984759e-01  0.000000e+00  7.544426e-01
     vertex -2.206349e-01  0.000000e+00  7.507936e-01
   endloop
 endfacet
 facet normal -1.624847e-01  0.000000e+00  9.867111e-01
   outer loop
     vertex -2.206349e-01 -1.587302e-02  7.507936e-01
     vertex -1.984759e-01 -1.587302e-02  7.544426e-01
     vertex -1.984759e-01  0.000000e+00  7.544426e-01
   endloop
 endfacet
 facet normal  0.000000e+00  0.000000e+00 -1.000000e+00
   outer loop
     vertex -4.920632e-02 -1.587302e-02  2.698404e-02
     vertex -2.777777e-01 -1.587302e-02  2.698404e-02
     vertex -2.777777e-01  0.000000e+00  2.698404e-02
   endloop
 endfacet
 facet normal  0.000000e+00  0.000000e+00 -1.000000e+00
   outer loop
     vertex -4.920632e-02 -1.587302e-02  2.698404e-02
     vertex -2.777777e-01  0.000000e+00  2.698404e-02
     vertex -4.920632e-02  0.000000e+00  2.698404e-02
   endloop
 endfacet
 facet normal  1.000000e+00  0.000000e+00 -6.071531e-17
   outer loop
     vertex -4.920632e-02 -1.587302e-02  5.984127e-01
     vertex -4.920632e-02 -1.587302e-02  2.698404e-02
     vertex -4.920632e-02  0.000000e+00  2.698404e-02
   endloop
 endfacet
 facet normal  1.000000e+00  0.000000e+00 -6.071531e-17
   outer loop
     vertex -4.920632e-02 -1.587302e-02  5.984127e-01
     vertex -4.920632e-02  0.000000e+00  2.698404e-02
     vertex -4.920632e-02  0.000000e+00  5.984127e-01
   endloop
 endfacet
 facet normal -9.927089e-01  0.000000e+00 -1.205367e-01
   outer loop
     vertex -4.745380e-01 -1.587302e-02  6.109483e-01
     vertex -4.730159e-01  0.000000e+00  5.984127e-01
     vertex -4.730159e-01 -1.587302e-02  5.984127e-01
   endloop
 endfacet
 facet normal -9.927089e-01  0.000000e+00 -1.205367e-01
   outer loop
     vertex -4.745380e-01 -1.587302e-02  6.109483e-01
     vertex -4.745380e-01  0.000000e+00  6.109483e-01
     vertex -4.730159e-01  0.000000e+00  5.984127e-01
   endloop
 endfacet
 facet normal -9.350162e-01  0.000000e+00 -3.546049e-01
   outer loop
     vertex -4.790158e-01 -1.587302e-02  6.227553e-01
     vertex -4.790158e-01  0.000000e+00  6.227553e-01
     vertex -4.745380e-01  0.000000e+00  6.109483e-01
   endloop
 endfacet
 facet normal -9.350162e-01  0.000000e+00 -3.546049e-01
   outer loop
     vertex -4.790158e-01 -1.587302e-02  6.227553e-01
     vertex -4.745380e-01  0.000000e+00  6.109483e-01
     vertex -4.745380e-01 -1.587302e-02  6.109483e-01
   endloop
 endfacet
 facet normal -8.229839e-01  0.000000e+00 -5.680647e-01
   outer loop
     vertex -4.861891e-01 -1.587302e-02  6.331477e-01
     vertex -4.861891e-01  0.000000e+00  6.331477e-01
     vertex -4.790158e-01  0.000000e+00  6.227553e-01
   endloop
 endfacet
 facet normal -8.229839e-01  0.000000e+00 -5.680647e-01
   outer loop
     vertex -4.861891e-01 -1.587302e-02  6.331477e-01
     vertex -4.790158e-01  0.000000e+00  6.227553e-01
     vertex -4.790158e-01 -1.587302e-02  6.227553e-01
   endloop
 endfacet
 facet normal -6.631227e-01  0.000000e+00 -7.485107e-01
   outer loop
     vertex -4.956410e-01 -1.587302e-02  6.415214e-01
     vertex -4.956410e-01  0.000000e+00  6.415214e-01
     vertex -4.861891e-01  0.000000e+00  6.331477e-01
   endloop
 endfacet
 facet normal -6.631227e-01  0.000000e+00 -7.485107e-01
   outer loop
     vertex -4.956410e-01 -1.587302e-02  6.415214e-01
     vertex -4.861891e-01  0.000000e+00  6.331477e-01
     vertex -4.861891e-01 -1.587302e-02  6.331477e-01
   endloop
 endfacet
 facet normal -4.647232e-01  0.000000e+00 -8.854560e-01
   outer loop
     vertex -5.068223e-01 -1.587302e-02  6.473897e-01
     vertex -5.068223e-01  0.000000e+00  6.473897e-01
     vertex -4.956410e-01  0.000000e+00  6.415214e-01
   endloop
 endfacet
 facet normal -4.647232e-01  0.000000e+00 -8.854560e-01
   outer loop
     vertex -5.068223e-01 -1.587302e-02  6.473897e-01
     vertex -4.956410e-01  0.000000e+00  6.415214e-01
     vertex -4.956410e-01 -1.587302e-02  6.415214e-01
   endloop
 endfacet
 facet normal -2.393157e-01  0.000000e+00 -9.709418e-01
   outer loop
     vertex -5.190830e-01 -1.587302e-02  6.504117e-01
     vertex -5.190830e-01  0.000000e+00  6.504117e-01
     vertex -5.068223e-01  0.000000e+00  6.473897e-01
   endloop
 endfacet
 facet normal -2.393157e-01  0.000000e+00 -9.709418e-01
   outer loop
     vertex -5.190830e-01 -1.587302e-02  6.504117e-01
     vertex -5.068223e-01  0.000000e+00  6.473897e-01
     vertex -5.068223e-01 -1.587302e-02  6.473897e-01
   endloop
 endfacet
 facet normal  0.000000e+00  0.000000e+00 -1.000000e+00
   outer loop
     vertex -5.317107e-01 -1.587302e-02  6.504117e-01
     vertex -5.317107e-01  0.000000e+00  6.504117e-01
     vertex -5.190830e-01  0.000000e+00  6.504117e-01
   endloop
 endfacet
 facet normal  0.000000e+00  0.000000e+00 -1.000000e+00
   outer loop
     vertex -5.317107e-01 -1.587302e-02  6.504117e-01
     vertex -5.190830e-01  0.000000e+00  6.504117e-01
     vertex -5.190830e-01 -1.587302e-02  6.504117e-01
   endloop
 endfacet
 facet normal  2.393157e-01  0.000000e+00 -9.709418e-01
   outer loop
     vertex -5.439714e-01 -1.587302e-02  6.473897e-01
     vertex -5.439714e-01  0.000000e+00  6.473897e-01
     vertex -5.317107e-01  0.000000e+00  6.504117e-01
   endloop
 endfacet
 facet normal  2.393157e-01  0.000000e+00 -9.709418e-01
   outer loop
     vertex -5.439714e-01 -1.587302e-02  6.473897e-01
     vertex -5.317107e-01  0.000000e+00  6.504117e-01
     vertex -5.317107e-01 -1.587302e-02  6.504117e-01
   endloop
 endfacet
 facet normal  4.647232e-01  0.000000e+00 -8.854560e-01
   outer loop
     vertex -5.551526e-01 -1.587302e-02  6.415214e-01
     vertex -5.551526e-01  0.000000e+00  6.415214e-01
     vertex -5.439714e-01  0.000000e+00  6.473897e-01
   endloop
 endfacet
 facet normal  4.647232e-01  0.000000e+00 -8.854560e-01
   outer loop
     vertex -5.551526e-01 -1.587302e-02  6.415214e-01
     vertex -5.439714e-01  0.000000e+00  6.473897e-01
     vertex -5.439714e-01 -1.587302e-02  6.473897e-01
   endloop
 endfacet
 facet normal  6.631227e-01  0.000000e+00 -7.485107e-01
   outer loop
     vertex -5.646045e-01 -1.587302e-02  6.331477e-01
     vertex -5.646045e-01  0.000000e+00  6.331477e-01
     vertex -5.551526e-01  0.000000e+00  6.415214e-01
   endloop
 endfacet
 facet normal  6.631227e-01  0.000000e+00 -7.485107e-01
   outer loop
     vertex -5.646045e-01 -1.587302e-02  6.331477e-01
     vertex -5.551526e-01  0.000000e+00  6.415214e-01
     vertex -5.551526e-01 -1.587302e-02  6.415214e-01
   endloop
 endfacet
 facet normal  8.229839e-01  0.000000e+00 -5.680647e-01
   outer loop
     vertex -5.717779e-01 -1.587302e-02  6.227553e-01
     vertex -5.646045e-01  0.000000e+00  6.331477e-01
     vertex -5.646045e-01 -1.587302e-02  6.331477e-01
   endloop
 endfacet
 facet normal  8.229839e-01  0.000000e+00 -5.680647e-01
   outer loop
     vertex -5.717779e-01 -1.587302e-02  6.227553e-01
     vertex -5.717779e-01  0.000000e+00  6.227553e-01
     vertex -5.646045e-01  0.000000e+00  6.331477e-01
   endloop
 endfacet
 facet normal  9.350162e-01  0.000000e+00 -3.546049e-01
   outer loop
     vertex -5.762557e-01 -1.587302e-02  6.109483e-01
     vertex -5.717779e-01  0.000000e+00  6.227553e-01
     vertex -5.717779e-01 -1.587302e-02  6.227553e-01
   endloop
 endfacet
 facet normal  9.350162e-01  0.000000e+00 -3.546049e-01
   outer loop
     vertex -5.762557e-01 -1.587302e-02  6.109483e-01
     vertex -5.762557e-01  0.000000e+00  6.109483e-01
     vertex -5.717779e-01  0.000000e+00  6.227553e-01
   endloop
 endfacet
 facet normal  9.927089e-01  0.000000e+00 -1.205367e-01
   outer loop
     vertex -5.777778e-01 -1.587302e-02  5.984127e-01
     vertex -5.762557e-01  0.000000e+00  6.109483e-01
     vertex -5.762557e-01 -1.587302e-02  6.109483e-01
   endloop
 endfacet
 facet normal  9.927089e-01  0.000000e+00 -1.205367e-01
   outer loop
     vertex -5.777778e-01 -1.587302e-02  5.984127e-01
     vertex -5.777778e-01  0.000000e+00  5.984127e-01
     vertex -5.762557e-01  0.000000e+00  6.109483e-01
   endloop
 endfacet
 facet normal  9.927089e-01 -0.000000e+00  1.205367e-01
   outer loop
     vertex -5.762557e-01 -1.587302e-02  5.858771e-01
     vertex -5.762557e-01  0.000000e+00  5.858771e-01
     vertex -5.777778e-01  0.000000e+00  5.984127e-01
   endloop
 endfacet
 facet normal  9.927089e-01  0.000000e+00  1.205367e-01
   outer loop
     vertex -5.762557e-01 -1.587302e-02  5.858771e-01
     vertex -5.777778e-01  0.000000e+00  5.984127e-01
     vertex -5.777778e-01 -1.587302e-02  5.984127e-01
   endloop
 endfacet
 facet normal  9.350162e-01  0.000000e+00  3.546049e-01
   outer loop
     vertex -5.717779e-01 -1.587302e-02  5.740700e-01
     vertex -5.762557e-01  0.000000e+00  5.858771e-01
     vertex -5.762557e-01 -1.587302e-02  5.858771e-01
   endloop
 endfacet
 facet normal  9.350162e-01 -0.000000e+00  3.546049e-01
   outer loop
     vertex -5.717779e-01 -1.587302e-02  5.740700e-01
     vertex -5.717779e-01  0.000000e+00  5.740700e-01
     vertex -5.762557e-01  0.000000e+00  5.858771e-01
   endloop
 endfacet
 facet normal  8.229839e-01 -0.000000e+00  5.680647e-01
   outer loop
     vertex -5.646045e-01 -1.587302e-02  5.636777e-01
     vertex -5.646045e-01  0.000000e+00  5.636777e-01
     vertex -5.717779e-01  0.000000e+00  5.740700e-01
   endloop
 endfacet
 facet normal  8.229839e-01  0.000000e+00  5.680647e-01
   outer loop
     vertex -5.646045e-01 -1.587302e-02  5.636777e-01
     vertex -5.717779e-01  0.000000e+00  5.740700e-01
     vertex -5.717779e-01 -1.587302e-02  5.740700e-01
   endloop
 endfacet
 facet normal  6.631227e-01 -0.000000e+00  7.485107e-01
   outer loop
     vertex -5.551526e-01 -1.587302e-02  5.553040e-01
     vertex -5.551526e-01  0.000000e+00  5.553040e-01
     vertex -5.646045e-01  0.000000e+00  5.636777e-01
   endloop
 endfacet
 facet normal  6.631227e-01  0.000000e+00  7.485107e-01
   outer loop
     vertex -5.551526e-01 -1.587302e-02  5.553040e-01
     vertex -5.646045e-01  0.000000e+00  5.636777e-01
     vertex -5.646045e-01 -1.587302e-02  5.636777e-01
   endloop
 endfacet
 facet normal  4.647232e-01 -0.000000e+00  8.854560e-01
   outer loop
     vertex -5.439714e-01 -1.587302e-02  5.494356e-01
     vertex -5.439714e-01  0.000000e+00  5.494356e-01
     vertex -5.551526e-01  0.000000e+00  5.553040e-01
   endloop
 endfacet
 facet normal  4.647232e-01  0.000000e+00  8.854560e-01
   outer loop
     vertex -5.439714e-01 -1.587302e-02  5.494356e-01
     vertex -5.551526e-01  0.000000e+00  5.553040e-01
     vertex -5.551526e-01 -1.587302e-02  5.553040e-01
   endloop
 endfacet
 facet normal  2.393157e-01 -0.000000e+00  9.709418e-01
   outer loop
     vertex -5.317107e-01 -1.587302e-02  5.464136e-01
     vertex -5.317107e-01  0.000000e+00  5.464136e-01
     vertex -5.439714e-01  0.000000e+00  5.494356e-01
   endloop
 endfacet
 facet normal  2.393157e-01  0.000000e+00  9.709418e-01
   outer loop
     vertex -5.317107e-01 -1.587302e-02  5.464136e-01
     vertex -5.439714e-01  0.000000e+00  5.494356e-01
     vertex -5.439714e-01 -1.587302e-02  5.494356e-01
   endloop
 endfacet
 facet normal  0.000000e+00 -0.000000e+00  1.000000e+00
   outer loop
     vertex -5.190830e-01 -1.587302e-02  5.464136e-01
     vertex -5.190830e-01  0.000000e+00  5.464136e-01
     vertex -5.317107e-01  0.000000e+00  5.464136e-01
   endloop
 endfacet
 facet normal  0.000000e+00  0.000000e+00  1.000000e+00
   outer loop
     vertex -5.190830e-01 -1.587302e-02  5.464136e-01
     vertex -5.317107e-01  0.000000e+00  5.464136e-01
     vertex -5.317107e-01 -1.587302e-02  5.464136e-01
   endloop
 endfacet
 facet normal -2.393157e-01  0.000000e+00  9.709418e-01
   outer loop
     vertex -5.068223e-01 -1.587302e-02  5.494356e-01
     vertex -5.068223e-01  0.000000e+00  5.494356e-01
     vertex -5.190830e-01  0.000000e+00  5.464136e-01
   endloop
 endfacet
 facet normal -2.393157e-01  0.000000e+00  9.709418e-01
   outer loop
     vertex -5.068223e-01 -1.587302e-02  5.494356e-01
     vertex -5.190830e-01  0.000000e+00  5.464136e-01
     vertex -5.190830e-01 -1.587302e-02  5.464136e-01
   endloop
 endfacet
 facet normal -4.647232e-01  0.000000e+00  8.854560e-01
   outer loop
     vertex -4.956410e-01 -1.587302e-02  5.553040e-01
     vertex -4.956410e-01  0.000000e+00  5.553040e-01
     vertex -5.068223e-01  0.000000e+00  5.494356e-01
   endloop
 endfacet
 facet normal -4.647232e-01  0.000000e+00  8.854560e-01
   outer loop
     vertex -4.956410e-01 -1.587302e-02  5.553040e-01
     vertex -5.068223e-01  0.000000e+00  5.494356e-01
     vertex -5.068223e-01 -1.587302e-02  5.494356e-01
   endloop
 endfacet
 facet normal -6.631227e-01  0.000000e+00  7.485107e-01
   outer loop
     vertex -4.861891e-01 -1.587302e-02  5.636777e-01
     vertex -4.861891e-01  0.000000e+00  5.636777e-01
     vertex -4.956410e-01  0.000000e+00  5.553040e-01
   endloop
 endfacet
 facet normal -6.631227e-01  0.000000e+00  7.485107e-01
   outer loop
     vertex -4.861891e-01 -1.587302e-02  5.636777e-01
     vertex -4.956410e-01  0.000000e+00  5.553040e-01
     vertex -4.956410e-01 -1.587302e-02  5.553040e-01
   endloop
 endfacet
 facet normal -8.229839e-01  0.000000e+00  5.680647e-01
   outer loop
     vertex -4.790158e-01 -1.587302e-02  5.740700e-01
     vertex -4.790158e-01  0.000000e+00  5.740700e-01
     vertex -4.861891e-01  0.000000e+00  5.636777e-01
   endloop
 endfacet
 facet normal -8.229839e-01  0.000000e+00  5.680647e-01
   outer loop
     vertex -4.790158e-01 -1.587302e-02  5.740700e-01
     vertex -4.861891e-01  0.000000e+00  5.636777e-01
     vertex -4.861891e-01 -1.587302e-02  5.636777e-01
   endloop
 endfacet
 facet normal -9.350162e-01  0.000000e+00  3.546049e-01
   outer loop
     vertex -4.745380e-01 -1.587302e-02  5.858771e-01
     vertex -4.745380e-01  0.000000e+00  5.858771e-01
     vertex -4.790158e-01  0.000000e+00  5.740700e-01
   endloop
 endfacet
 facet normal -9.350162e-01  0.000000e+00  3.546049e-01
   outer loop
     vertex -4.745380e-01 -1.587302e-02  5.858771e-01
     vertex -4.790158e-01  0.000000e+00  5.740700e-01
     vertex -4.790158e-01 -1.587302e-02  5.740700e-01
   endloop
 endfacet
 facet normal -9.927089e-01  0.000000e+00  1.205367e-01
   outer loop
     vertex -4.730159e-01 -1.587302e-02  5.984127e-01
     vertex -4.730159e-01  0.000000e+00  5.984127e-01
     vertex -4.745380e-01  0.000000e+00  5.858771e-01
   endloop
 endfacet
 facet normal -9.927089e-01  0.000000e+00  1.205367e-01
   outer loop
     vertex -4.730159e-01 -1.587302e-02  5.984127e-01
     vertex -4.745380e-01  0.000000e+00  5.858771e-01
     vertex -4.745380e-01 -1.587302e-02  5.858771e-01
   endloop
 endfacet
endsolid
