solid 
 facet normal -0.000000e+00  0.000000e+00 -1.000000e+00
   outer loop
     vertex  1.331570e-01 -1.587302e-02 -1.675478e-02
     vertex -3.536155e-01 -1.015873e+00 -1.675478e-02
     vertex -3.536155e-01 -1.587302e-02 -1.675478e-02
   endloop
 endfacet
 facet normal  0.000000e+00 -0.000000e+00 -1.000000e+00
   outer loop
     vertex  1.331570e-01 -1.587302e-02 -1.675478e-02
     vertex  1.331570e-01 -1.015873e+00 -1.675478e-02
     vertex -3.536155e-01 -1.015873e+00 -1.675478e-02
   endloop
 endfacet
 facet normal -1.000000e+00  0.000000e+00  0.000000e+00
   outer loop
     vertex -3.536155e-01 -1.587302e-02 -1.675478e-02
     vertex -3.536155e-01 -1.015873e+00  3.402117e-01
     vertex -3.536155e-01 -1.587302e-02  3.402117e-01
   endloop
 endfacet
 facet normal -1.000000e+00  0.000000e+00  0.000000e+00
   outer loop
     vertex -3.536155e-01 -1.587302e-02 -1.675478e-02
     vertex -3.536155e-01 -1.015873e+00 -1.675478e-02
     vertex -3.536155e-01 -1.015873e+00  3.402117e-01
   endloop
 endfacet
 facet normal -0.000000e+00  0.000000e+00 -1.000000e+00
   outer loop
     vertex  6.199295e-01 -1.587302e-02 -1.675478e-02
     vertex  1.331570e-01 -1.015873e+00 -1.675478e-02
     vertex  1.331570e-01 -1.587302e-02 -1.675478e-02
   endloop
 endfacet
 facet normal  0.000000e+00 -0.000000e+00 -1.000000e+00
   outer loop
     vertex  6.199295e-01 -1.587302e-02 -1.675478e-02
     vertex  6.199295e-01 -1.015873e+00 -1.675478e-02
     vertex  1.331570e-01 -1.015873e+00 -1.675478e-02
   endloop
 endfacet
 facet normal  0.000000e+00  0.000000e+00 -1.000000e+00
   outer loop
     vertex  1.331570e-01 -1.587302e-02 -1.675478e-02
     vertex -3.536155e-01 -1.587302e-02 -1.675478e-02
     vertex -3.536155e-01  0.000000e+00 -1.675478e-02
   endloop
 endfacet
 facet normal  0.000000e+00  0.000000e+00 -1.000000e+00
   outer loop
     vertex  1.331570e-01 -1.587302e-02 -1.675478e-02
     vertex -3.536155e-01  0.000000e+00 -1.675478e-02
     vertex  1.331570e-01  0.000000e+00 -1.675478e-02
   endloop
 endfacet
 facet normal  0.000000e+00 -1.000000e+00  0.000000e+00
   outer loop
     vertex  1.493828e-01 -1.015873e+00  1.455027e-01
     vertex -3.536155e-01 -1.015873e+00 -1.675478e-02
     vertex  1.331570e-01 -1.015873e+00 -1.675478e-02
   endloop
 endfacet
 facet normal -0.000000e+00 -1.000000e+00  0.000000e+00
   outer loop
     vertex  1.493828e-01 -1.015873e+00  1.455027e-01
     vertex -3.536155e-01 -1.015873e+00  3.402117e-01
     vertex -3.536155e-01 -1.015873e+00 -1.675478e-02
   endloop
 endfacet
 facet normal -0.000000e+00 -1.000000e+00 -0.000000e+00
   outer loop
     vertex  1.493828e-01 -1.015873e+00  3.402117e-01
     vertex -3.536155e-01 -1.015873e+00  3.402117e-01
     vertex  1.493828e-01 -1.015873e+00  1.455027e-01
   endloop
 endfacet
 facet normal  0.000000e+00 -1.000000e+00  0.000000e+00
   outer loop
     vertex  6.199295e-01 -1.015873e+00 -1.675478e-02
     vertex  1.493828e-01 -1.015873e+00  1.455027e-01
     vertex  1.331570e-01 -1.015873e+00 -1.675478e-02
   endloop
 endfacet
 facet normal -0.000000e+00 -1.000000e+00 -0.000000e+00
   outer loop
     vertex  6.199295e-01 -1.015873e+00  1.455027e-01
     vertex  1.493828e-01 -1.015873e+00  1.455027e-01
     vertex  6.199295e-01 -1.015873e+00 -1.675478e-02
   endloop
 endfacet
 facet normal -0.000000e+00  0.000000e+00  1.000000e+00
   outer loop
     vertex -3.536155e-01 -1.587302e-02  3.402117e-01
     vertex  1.493828e-01 -1.015873e+00  3.402117e-01
     vertex  1.493828e-01 -1.587302e-02  3.402117e-01
   endloop
 endfacet
 facet normal  0.000000e+00  0.000000e+00  1.000000e+00
   outer loop
     vertex -3.536155e-01 -1.587302e-02  3.402117e-01
     vertex -3.536155e-01 -1.015873e+00  3.402117e-01
     vertex  1.493828e-01 -1.015873e+00  3.402117e-01
   endloop
 endfacet
 facet normal -1.000000e+00  0.000000e+00  0.000000e+00
   outer loop
     vertex -3.536155e-01 -1.587302e-02 -1.675478e-02
     vertex -3.536155e-01 -1.587302e-02  3.402117e-01
     vertex -3.536155e-01  0.000000e+00  3.402117e-01
   endloop
 endfacet
 facet normal -1.000000e+00  0.000000e+00  0.000000e+00
   outer loop
     vertex -3.536155e-01 -1.587302e-02 -1.675478e-02
     vertex -3.536155e-01  0.000000e+00  3.402117e-01
     vertex -3.536155e-01  0.000000e+00 -1.675478e-02
   endloop
 endfacet
 facet normal  1.000000e+00  0.000000e+00  0.000000e+00
   outer loop
     vertex  6.199295e-01 -1.587302e-02  1.455027e-01
     vertex  6.199295e-01 -1.015873e+00 -1.675478e-02
     vertex  6.199295e-01 -1.587302e-02 -1.675478e-02
   endloop
 endfacet
 facet normal  1.000000e+00  0.000000e+00  0.000000e+00
   outer loop
     vertex  6.199295e-01 -1.587302e-02  1.455027e-01
     vertex  6.199295e-01 -1.015873e+00  1.455027e-01
     vertex  6.199295e-01 -1.015873e+00 -1.675478e-02
   endloop
 endfacet
 facet normal  0.000000e+00  0.000000e+00 -1.000000e+00
   outer loop
     vertex  6.199295e-01 -1.587302e-02 -1.675478e-02
     vertex  1.331570e-01 -1.587302e-02 -1.675478e-02
     vertex  1.331570e-01  0.000000e+00 -1.675478e-02
   endloop
 endfacet
 facet normal  0.000000e+00  0.000000e+00 -1.000000e+00
   outer loop
     vertex  6.199295e-01 -1.587302e-02 -1.675478e-02
     vertex  1.331570e-01  0.000000e+00 -1.675478e-02
     vertex  6.199295e-01  0.000000e+00 -1.675478e-02
   endloop
 endfacet
 facet normal  0.000000e+00  1.000000e+00  0.000000e+00
   outer loop
     vertex  1.493828e-01  6.591949e-17  1.455027e-01
     vertex  1.331570e-01  6.591949e-17 -1.675478e-02
     vertex -3.536155e-01  6.591949e-17 -1.675478e-02
   endloop
 endfacet
 facet normal  0.000000e+00  1.000000e+00  0.000000e+00
   outer loop
     vertex  1.493828e-01  6.591949e-17  1.455027e-01
     vertex -3.536155e-01  6.591949e-17 -1.675478e-02
     vertex -3.536155e-01  6.591949e-17  3.402117e-01
   endloop
 endfacet
 facet normal  0.000000e+00  1.000000e+00  0.000000e+00
   outer loop
     vertex  1.493828e-01  6.591949e-17  3.402117e-01
     vertex  1.493828e-01  6.591949e-17  1.455027e-01
     vertex -3.536155e-01  6.591949e-17  3.402117e-01
   endloop
 endfacet
 facet normal  0.000000e+00  1.000000e+00  0.000000e+00
   outer loop
     vertex  6.199295e-01  6.591949e-17 -1.675478e-02
     vertex  1.331570e-01  6.591949e-17 -1.675478e-02
     vertex  1.493828e-01  6.591949e-17  1.455027e-01
   endloop
 endfacet
 facet normal  0.000000e+00  1.000000e+00  0.000000e+00
   outer loop
     vertex  6.199295e-01  6.591949e-17  1.455027e-01
     vertex  6.199295e-01  6.591949e-17 -1.675478e-02
     vertex  1.493828e-01  6.591949e-17  1.455027e-01
   endloop
 endfacet
 facet normal -0.000000e+00  0.000000e+00  1.000000e+00
   outer loop
     vertex  1.493828e-01 -1.587302e-02  1.455027e-01
     vertex  6.199295e-01 -1.015873e+00  1.455027e-01
     vertex  6.199295e-01 -1.587302e-02  1.455027e-01
   endloop
 endfacet
 facet normal  0.000000e+00  0.000000e+00  1.000000e+00
   outer loop
     vertex  1.493828e-01 -1.587302e-02  1.455027e-01
     vertex  1.493828e-01 -1.015873e+00  1.455027e-01
     vertex  6.199295e-01 -1.015873e+00  1.455027e-01
   endloop
 endfacet
 facet normal  1.000000e+00  0.000000e+00  0.000000e+00
   outer loop
     vertex  1.493828e-01 -1.587302e-02  3.402117e-01
     vertex  1.493828e-01 -1.015873e+00  1.455027e-01
     vertex  1.493828e-01 -1.587302e-02  1.455027e-01
   endloop
 endfacet
 facet normal  1.000000e+00  0.000000e+00  0.000000e+00
   outer loop
     vertex  1.493828e-01 -1.587302e-02  3.402117e-01
     vertex  1.493828e-01 -1.015873e+00  3.402117e-01
     vertex  1.493828e-01 -1.015873e+00  1.455027e-01
   endloop
 endfacet
 facet normal  0.000000e+00  0.000000e+00  1.000000e+00
   outer loop
     vertex -3.536155e-01 -1.587302e-02  3.402117e-01
     vertex  1.493828e-01 -1.587302e-02  3.402117e-01
     vertex  1.493828e-01  0.000000e+00  3.402117e-01
   endloop
 endfacet
 facet normal  0.000000e+00  0.000000e+00  1.000000e+00
   outer loop
     vertex -3.536155e-01 -1.587302e-02  3.402117e-01
     vertex  1.493828e-01  0.000000e+00  3.402117e-01
     vertex -3.536155e-01  0.000000e+00  3.402117e-01
   endloop
 endfacet
 facet normal  1.000000e+00  0.000000e+00  0.000000e+00
   outer loop
     vertex  6.199295e-01 -1.587302e-02  1.455027e-01
     vertex  6.199295e-01 -1.587302e-02 -1.675478e-02
     vertex  6.199295e-01  0.000000e+00 -1.675478e-02
   endloop
 endfacet
 facet normal  1.000000e+00 -0.000000e+00  0.000000e+00
   outer loop
     vertex  6.199295e-01 -1.587302e-02  1.455027e-01
     vertex  6.199295e-01  0.000000e+00 -1.675478e-02
     vertex  6.199295e-01  0.000000e+00  1.455027e-01
   endloop
 endfacet
 facet normal  0.000000e+00  0.000000e+00  1.000000e+00
   outer loop
     vertex  1.493828e-01 -1.587302e-02  1.455027e-01
     vertex  6.199295e-01 -1.587302e-02  1.455027e-01
     vertex  6.199295e-01  0.000000e+00  1.455027e-01
   endloop
 endfacet
 facet normal  0.000000e+00  0.000000e+00  1.000000e+00
   outer loop
     vertex  1.493828e-01 -1.587302e-02  1.455027e-01
     vertex  6.199295e-01  0.000000e+00  1.455027e-01
     vertex  1.493828e-01  0.000000e+00  1.455027e-01
   endloop
 endfacet
 facet normal  1.000000e+00  0.000000e+00  0.000000e+00
   outer loop
     vertex  1.493828e-01 -1.587302e-02  3.402117e-01
     vertex  1.493828e-01 -1.587302e-02  1.455027e-01
     vertex  1.493828e-01  0.000000e+00  1.455027e-01
   endloop
 endfacet
 facet normal  1.000000e+00 -0.000000e+00  0.000000e+00
   outer loop
     vertex  1.493828e-01 -1.587302e-02  3.402117e-01
     vertex  1.493828e-01  0.000000e+00  1.455027e-01
     vertex  1.493828e-01  0.000000e+00  3.402117e-01
   endloop
 endfacet
endsolid
