solid 
 facet normal  0.000000e+00 -1.000000e+00  0.000000e+00
   outer loop
     vertex  7.116402e-01 -4.567909e-02 -1.587302e-02
     vertex -1.067020e-01 -4.567909e-02  6.000000e-08
     vertex -1.067020e-01 -4.567909e-02 -1.587302e-02
   endloop
 endfacet
 facet normal  0.000000e+00 -1.000000e+00  0.000000e+00
   outer loop
     vertex  7.116402e-01 -4.567909e-02 -1.587302e-02
     vertex  7.116402e-01 -4.567909e-02  6.000000e-08
     vertex -1.067020e-01 -4.567909e-02  6.000000e-08
   endloop
 endfacet
 facet normal -1.000000e+00  0.000000e+00  0.000000e+00
   outer loop
     vertex -1.067020e-01 -4.567909e-02 -1.587302e-02
     vertex -1.067020e-01  9.363316e-01  6.000000e-08
     vertex -1.067020e-01  9.363316e-01 -1.587302e-02
   endloop
 endfacet
 facet normal -1.000000e+00  0.000000e+00  0.000000e+00
   outer loop
     vertex -1.067020e-01 -4.567909e-02 -1.587302e-02
     vertex -1.067020e-01 -4.567909e-02  6.000000e-08
     vertex -1.067020e-01  9.363316e-01  6.000000e-08
   endloop
 endfacet
 facet normal  1.000000e+00  0.000000e+00  0.000000e+00
   outer loop
     vertex  7.116402e-01  9.363316e-01 -1.587302e-02
     vertex  7.116402e-01 -4.567909e-02  6.000000e-08
     vertex  7.116402e-01 -4.567909e-02 -1.587302e-02
   endloop
 endfacet
 facet normal  1.000000e+00  0.000000e+00 -0.000000e+00
   outer loop
     vertex  7.116402e-01  9.363316e-01 -1.587302e-02
     vertex  7.116402e-01  9.363316e-01  6.000000e-08
     vertex  7.116402e-01 -4.567909e-02  6.000000e-08
   endloop
 endfacet
 facet normal -0.000000e+00 -1.000000e+00  0.000000e+00
   outer loop
     vertex  7.116402e-01 -4.567909e-02 -1.587302e-02
     vertex -1.067020e-01 -4.567909e-02 -1.587302e-02
     vertex -1.067020e-01 -4.567909e-02 -3.174603e-02
   endloop
 endfacet
 facet normal  0.000000e+00 -1.000000e+00 -0.000000e+00
   outer loop
     vertex  7.116402e-01 -4.567909e-02 -1.587302e-02
     vertex -1.067020e-01 -4.567909e-02 -3.174603e-02
     vertex  7.116402e-01 -4.567909e-02 -3.174603e-02
   endloop
 endfacet
 facet normal  0.000000e+00  0.000000e+00  1.000000e+00
   outer loop
     vertex  1.084786e-01  2.480056e-01  6.000000e-08
     vertex -1.067020e-01 -4.567909e-02  6.000000e-08
     vertex  1.303915e-01  2.254610e-01  6.000000e-08
   endloop
 endfacet
 facet normal  0.000000e+00  0.000000e+00  1.000000e+00
   outer loop
     vertex  1.549052e-01  2.057756e-01  6.000000e-08
     vertex  1.303915e-01  2.254610e-01  6.000000e-08
     vertex -1.067020e-01 -4.567909e-02  6.000000e-08
   endloop
 endfacet
 facet normal  0.000000e+00  0.000000e+00  1.000000e+00
   outer loop
     vertex  8.949768e-02  2.730688e-01  6.000000e-08
     vertex -1.067020e-01 -4.567909e-02  6.000000e-08
     vertex  1.084786e-01  2.480056e-01  6.000000e-08
   endloop
 endfacet
 facet normal  0.000000e+00  0.000000e+00  1.000000e+00
   outer loop
     vertex  1.816492e-01  1.892469e-01  6.000000e-08
     vertex  1.549052e-01  2.057756e-01  6.000000e-08
     vertex -1.067020e-01 -4.567909e-02  6.000000e-08
   endloop
 endfacet
 facet normal  0.000000e+00  0.000000e+00  1.000000e+00
   outer loop
     vertex  7.373559e-02  3.002716e-01  6.000000e-08
     vertex -1.067020e-01 -4.567909e-02  6.000000e-08
     vertex  8.949768e-02  2.730688e-01  6.000000e-08
   endloop
 endfacet
 facet normal  0.000000e+00  0.000000e+00  1.000000e+00
   outer loop
     vertex  2.102192e-01  1.761248e-01  6.000000e-08
     vertex  1.816492e-01  1.892469e-01  6.000000e-08
     vertex -1.067020e-01 -4.567909e-02  6.000000e-08
   endloop
 endfacet
 facet normal  0.000000e+00  0.000000e+00  1.000000e+00
   outer loop
     vertex  6.143058e-02  3.292030e-01  6.000000e-08
     vertex -1.067020e-01 -4.567909e-02  6.000000e-08
     vertex  7.373559e-02  3.002716e-01  6.000000e-08
   endloop
 endfacet
 facet normal  0.000000e+00  0.000000e+00  1.000000e+00
   outer loop
     vertex  2.401835e-01  1.666075e-01  6.000000e-08
     vertex  2.102192e-01  1.761248e-01  6.000000e-08
     vertex -1.067020e-01 -4.567909e-02  6.000000e-08
   endloop
 endfacet
 facet normal  0.000000e+00  0.000000e+00  1.000000e+00
   outer loop
     vertex  5.276862e-02  3.594256e-01  6.000000e-08
     vertex -1.067020e-01 -4.567909e-02  6.000000e-08
     vertex  6.143058e-02  3.292030e-01  6.000000e-08
   endloop
 endfacet
 facet normal  0.000000e+00  0.000000e+00  1.000000e+00
   outer loop
     vertex  2.710892e-01  1.608391e-01  6.000000e-08
     vertex  2.401835e-01  1.666075e-01  6.000000e-08
     vertex -1.067020e-01 -4.567909e-02  6.000000e-08
   endloop
 endfacet
 facet normal  0.000000e+00  0.000000e+00  1.000000e+00
   outer loop
     vertex  4.788064e-02  3.904827e-01  6.000000e-08
     vertex -1.067020e-01 -4.567909e-02  6.000000e-08
     vertex  5.276862e-02  3.594256e-01  6.000000e-08
   endloop
 endfacet
 facet normal  0.000000e+00  0.000000e+00  1.000000e+00
   outer loop
     vertex  3.024692e-01  1.589065e-01  6.000000e-08
     vertex  2.710892e-01  1.608391e-01  6.000000e-08
     vertex -1.067020e-01 -4.567909e-02  6.000000e-08
   endloop
 endfacet
 facet normal  0.000000e+00  0.000000e+00  1.000000e+00
   outer loop
     vertex  4.684050e-02  4.219049e-01  6.000000e-08
     vertex -1.067020e-01 -4.567909e-02  6.000000e-08
     vertex  4.788064e-02  3.904827e-01  6.000000e-08
   endloop
 endfacet
 facet normal  0.000000e+00  0.000000e+00  1.000000e+00
   outer loop
     vertex  7.116402e-01 -4.567909e-02  6.000000e-08
     vertex  3.338491e-01  1.608391e-01  6.000000e-08
     vertex  3.024692e-01  1.589065e-01  6.000000e-08
   endloop
 endfacet
 facet normal  0.000000e+00  0.000000e+00  1.000000e+00
   outer loop
     vertex  7.116402e-01 -4.567909e-02  6.000000e-08
     vertex  3.647548e-01  1.666075e-01  6.000000e-08
     vertex  3.338491e-01  1.608391e-01  6.000000e-08
   endloop
 endfacet
 facet normal  0.000000e+00  0.000000e+00  1.000000e+00
   outer loop
     vertex  7.116402e-01 -4.567909e-02  6.000000e-08
     vertex  3.947191e-01  1.761248e-01  6.000000e-08
     vertex  3.647548e-01  1.666075e-01  6.000000e-08
   endloop
 endfacet
 facet normal  0.000000e+00  0.000000e+00  1.000000e+00
   outer loop
     vertex  7.116402e-01 -4.567909e-02  6.000000e-08
     vertex  4.232892e-01  1.892469e-01  6.000000e-08
     vertex  3.947191e-01  1.761248e-01  6.000000e-08
   endloop
 endfacet
 facet normal  0.000000e+00  0.000000e+00  1.000000e+00
   outer loop
     vertex  7.116402e-01 -4.567909e-02  6.000000e-08
     vertex  4.500331e-01  2.057756e-01  6.000000e-08
     vertex  4.232892e-01  1.892469e-01  6.000000e-08
   endloop
 endfacet
 facet normal  0.000000e+00  0.000000e+00  1.000000e+00
   outer loop
     vertex  7.116402e-01 -4.567909e-02  6.000000e-08
     vertex  3.024692e-01  1.589065e-01  6.000000e-08
     vertex -1.067020e-01 -4.567909e-02  6.000000e-08
   endloop
 endfacet
 facet normal  0.000000e+00  0.000000e+00  1.000000e+00
   outer loop
     vertex  4.745468e-01  2.254610e-01  6.000000e-08
     vertex  4.500331e-01  2.057756e-01  6.000000e-08
     vertex  7.116402e-01 -4.567909e-02  6.000000e-08
   endloop
 endfacet
 facet normal  0.000000e+00  0.000000e+00  1.000000e+00
   outer loop
     vertex  4.964597e-01  2.480056e-01  6.000000e-08
     vertex  4.745468e-01  2.254610e-01  6.000000e-08
     vertex  7.116402e-01 -4.567909e-02  6.000000e-08
   endloop
 endfacet
 facet normal  0.000000e+00  0.000000e+00  1.000000e+00
   outer loop
     vertex  9.788361e-02  6.703703e-01  6.000000e-08
     vertex  8.060169e-02  5.418141e-01  6.000000e-08
     vertex  9.788361e-02  5.680776e-01  6.000000e-08
   endloop
 endfacet
 facet normal  0.000000e+00  0.000000e+00  1.000000e+00
   outer loop
     vertex  9.788361e-02  6.703703e-01  6.000000e-08
     vertex  6.667306e-02  5.136284e-01  6.000000e-08
     vertex  8.060169e-02  5.418141e-01  6.000000e-08
   endloop
 endfacet
 facet normal  0.000000e+00  0.000000e+00  1.000000e+00
   outer loop
     vertex  5.154407e-01  2.730688e-01  6.000000e-08
     vertex  4.964597e-01  2.480056e-01  6.000000e-08
     vertex  7.116402e-01 -4.567909e-02  6.000000e-08
   endloop
 endfacet
 facet normal  0.000000e+00  0.000000e+00  1.000000e+00
   outer loop
     vertex -1.067020e-01  9.363316e-01  6.000000e-08
     vertex  6.667306e-02  5.136284e-01  6.000000e-08
     vertex  9.788361e-02  6.703703e-01  6.000000e-08
   endloop
 endfacet
 facet normal  0.000000e+00  0.000000e+00  1.000000e+00
   outer loop
     vertex -1.067020e-01  9.363316e-01  6.000000e-08
     vertex  5.630826e-02  4.839466e-01  6.000000e-08
     vertex  6.667306e-02  5.136284e-01  6.000000e-08
   endloop
 endfacet
 facet normal  0.000000e+00  0.000000e+00  1.000000e+00
   outer loop
     vertex -1.067020e-01  9.363316e-01  6.000000e-08
     vertex  4.966393e-02  4.532173e-01  6.000000e-08
     vertex  5.630826e-02  4.839466e-01  6.000000e-08
   endloop
 endfacet
 facet normal  0.000000e+00  0.000000e+00  1.000000e+00
   outer loop
     vertex -1.067020e-01  9.363316e-01  6.000000e-08
     vertex  4.684050e-02  4.219049e-01  6.000000e-08
     vertex  4.966393e-02  4.532173e-01  6.000000e-08
   endloop
 endfacet
 facet normal  0.000000e+00  0.000000e+00  1.000000e+00
   outer loop
     vertex -1.067020e-01  9.363316e-01  6.000000e-08
     vertex -1.067020e-01 -4.567909e-02  6.000000e-08
     vertex  4.684050e-02  4.219049e-01  6.000000e-08
   endloop
 endfacet
 facet normal  0.000000e+00  0.000000e+00  1.000000e+00
   outer loop
     vertex  5.312028e-01  3.002716e-01  6.000000e-08
     vertex  5.154407e-01  2.730688e-01  6.000000e-08
     vertex  7.116402e-01 -4.567909e-02  6.000000e-08
   endloop
 endfacet
 facet normal  0.000000e+00  0.000000e+00  1.000000e+00
   outer loop
     vertex  5.435078e-01  3.292030e-01  6.000000e-08
     vertex  5.312028e-01  3.002716e-01  6.000000e-08
     vertex  7.116402e-01 -4.567909e-02  6.000000e-08
   endloop
 endfacet
 facet normal  0.000000e+00  0.000000e+00  1.000000e+00
   outer loop
     vertex  5.521697e-01  3.594256e-01  6.000000e-08
     vertex  5.435078e-01  3.292030e-01  6.000000e-08
     vertex  7.116402e-01 -4.567909e-02  6.000000e-08
   endloop
 endfacet
 facet normal  0.000000e+00  0.000000e+00  1.000000e+00
   outer loop
     vertex  5.570577e-01  3.904827e-01  6.000000e-08
     vertex  5.521697e-01  3.594256e-01  6.000000e-08
     vertex  7.116402e-01 -4.567909e-02  6.000000e-08
   endloop
 endfacet
 facet normal  0.000000e+00  0.000000e+00  1.000000e+00
   outer loop
     vertex  5.580979e-01  4.219049e-01  6.000000e-08
     vertex  5.570577e-01  3.904827e-01  6.000000e-08
     vertex  7.116402e-01 -4.567909e-02  6.000000e-08
   endloop
 endfacet
 facet normal  0.000000e+00  0.000000e+00  1.000000e+00
   outer loop
     vertex  2.410935e-01  8.749559e-01  6.000000e-08
     vertex  9.788361e-02  6.703703e-01  6.000000e-08
     vertex  2.410935e-01  6.703703e-01  6.000000e-08
   endloop
 endfacet
 facet normal  0.000000e+00  0.000000e+00  1.000000e+00
   outer loop
     vertex  2.410935e-01  8.749559e-01  6.000000e-08
     vertex -1.067020e-01  9.363316e-01  6.000000e-08
     vertex  9.788361e-02  6.703703e-01  6.000000e-08
   endloop
 endfacet
 facet normal  0.000000e+00  0.000000e+00  1.000000e+00
   outer loop
     vertex  5.070547e-01  6.703703e-01  6.000000e-08
     vertex  5.243367e-01  5.418141e-01  6.000000e-08
     vertex  5.382653e-01  5.136284e-01  6.000000e-08
   endloop
 endfacet
 facet normal  0.000000e+00  0.000000e+00  1.000000e+00
   outer loop
     vertex  5.070547e-01  6.703703e-01  6.000000e-08
     vertex  5.070547e-01  5.680776e-01  6.000000e-08
     vertex  5.243367e-01  5.418141e-01  6.000000e-08
   endloop
 endfacet
 facet normal  0.000000e+00  0.000000e+00  1.000000e+00
   outer loop
     vertex  3.638448e-01  8.749559e-01  6.000000e-08
     vertex  3.638448e-01  6.703703e-01  6.000000e-08
     vertex  5.070547e-01  6.703703e-01  6.000000e-08
   endloop
 endfacet
 facet normal  0.000000e+00  0.000000e+00  1.000000e+00
   outer loop
     vertex  7.116402e-01  9.363316e-01  6.000000e-08
     vertex  5.552744e-01  4.532173e-01  6.000000e-08
     vertex  5.580979e-01  4.219049e-01  6.000000e-08
   endloop
 endfacet
 facet normal  0.000000e+00  0.000000e+00  1.000000e+00
   outer loop
     vertex  7.116402e-01  9.363316e-01  6.000000e-08
     vertex  5.486301e-01  4.839466e-01  6.000000e-08
     vertex  5.552744e-01  4.532173e-01  6.000000e-08
   endloop
 endfacet
 facet normal  0.000000e+00  0.000000e+00  1.000000e+00
   outer loop
     vertex  7.116402e-01  9.363316e-01  6.000000e-08
     vertex  5.382653e-01  5.136284e-01  6.000000e-08
     vertex  5.486301e-01  4.839466e-01  6.000000e-08
   endloop
 endfacet
 facet normal  0.000000e+00  0.000000e+00  1.000000e+00
   outer loop
     vertex  7.116402e-01  9.363316e-01  6.000000e-08
     vertex  5.070547e-01  6.703703e-01  6.000000e-08
     vertex  5.382653e-01  5.136284e-01  6.000000e-08
   endloop
 endfacet
 facet normal  0.000000e+00  0.000000e+00  1.000000e+00
   outer loop
     vertex  7.116402e-01  9.363316e-01  6.000000e-08
     vertex  5.580979e-01  4.219049e-01  6.000000e-08
     vertex  7.116402e-01 -4.567909e-02  6.000000e-08
   endloop
 endfacet
 facet normal  0.000000e+00  0.000000e+00  1.000000e+00
   outer loop
     vertex  7.116402e-01  9.363316e-01  6.000000e-08
     vertex  3.638448e-01  8.749559e-01  6.000000e-08
     vertex  5.070547e-01  6.703703e-01  6.000000e-08
   endloop
 endfacet
 facet normal  0.000000e+00  0.000000e+00  1.000000e+00
   outer loop
     vertex  7.116402e-01  9.363316e-01  6.000000e-08
     vertex -1.067020e-01  9.363316e-01  6.000000e-08
     vertex  2.410935e-01  8.749559e-01  6.000000e-08
   endloop
 endfacet
 facet normal  0.000000e+00  0.000000e+00  1.000000e+00
   outer loop
     vertex  7.116402e-01  9.363316e-01  6.000000e-08
     vertex  2.410935e-01  8.749559e-01  6.000000e-08
     vertex  3.638448e-01  8.749559e-01  6.000000e-08
   endloop
 endfacet
 facet normal  0.000000e+00  1.000000e+00  0.000000e+00
   outer loop
     vertex -1.067020e-01  9.363316e-01 -1.587302e-02
     vertex  7.116402e-01  9.363316e-01  6.000000e-08
     vertex  7.116402e-01  9.363316e-01 -1.587302e-02
   endloop
 endfacet
 facet normal  0.000000e+00  1.000000e+00  0.000000e+00
   outer loop
     vertex -1.067020e-01  9.363316e-01 -1.587302e-02
     vertex -1.067020e-01  9.363316e-01  6.000000e-08
     vertex  7.116402e-01  9.363316e-01  6.000000e-08
   endloop
 endfacet
 facet normal -1.000000e+00  0.000000e+00  0.000000e+00
   outer loop
     vertex -1.067020e-01 -4.567909e-02 -1.587302e-02
     vertex -1.067020e-01  9.363316e-01 -1.587302e-02
     vertex -1.067020e-01  9.363316e-01 -3.174603e-02
   endloop
 endfacet
 facet normal -1.000000e+00  0.000000e+00  0.000000e+00
   outer loop
     vertex -1.067020e-01 -4.567909e-02 -1.587302e-02
     vertex -1.067020e-01  9.363316e-01 -3.174603e-02
     vertex -1.067020e-01 -4.567909e-02 -3.174603e-02
   endloop
 endfacet
 facet normal  1.000000e+00  0.000000e+00  0.000000e+00
   outer loop
     vertex  7.116402e-01  9.363316e-01 -1.587302e-02
     vertex  7.116402e-01 -4.567909e-02 -1.587302e-02
     vertex  7.116402e-01 -4.567909e-02 -3.174603e-02
   endloop
 endfacet
 facet normal  1.000000e+00  0.000000e+00  0.000000e+00
   outer loop
     vertex  7.116402e-01  9.363316e-01 -1.587302e-02
     vertex  7.116402e-01 -4.567909e-02 -3.174603e-02
     vertex  7.116402e-01  9.363316e-01 -3.174603e-02
   endloop
 endfacet
 facet normal  0.000000e+00 -0.000000e+00 -1.000000e+00
   outer loop
     vertex  1.084786e-01  2.480056e-01 -3.174603e-02
     vertex  1.303915e-01  2.254610e-01 -3.174603e-02
     vertex -1.067020e-01 -4.567909e-02 -3.174603e-02
   endloop
 endfacet
 facet normal -0.000000e+00  0.000000e+00 -1.000000e+00
   outer loop
     vertex  1.549052e-01  2.057756e-01 -3.174603e-02
     vertex -1.067020e-01 -4.567909e-02 -3.174603e-02
     vertex  1.303915e-01  2.254610e-01 -3.174603e-02
   endloop
 endfacet
 facet normal  0.000000e+00 -0.000000e+00 -1.000000e+00
   outer loop
     vertex  8.949768e-02  2.730688e-01 -3.174603e-02
     vertex  1.084786e-01  2.480056e-01 -3.174603e-02
     vertex -1.067020e-01 -4.567909e-02 -3.174603e-02
   endloop
 endfacet
 facet normal -0.000000e+00  0.000000e+00 -1.000000e+00
   outer loop
     vertex  1.816492e-01  1.892469e-01 -3.174603e-02
     vertex -1.067020e-01 -4.567909e-02 -3.174603e-02
     vertex  1.549052e-01  2.057756e-01 -3.174603e-02
   endloop
 endfacet
 facet normal  0.000000e+00 -0.000000e+00 -1.000000e+00
   outer loop
     vertex  7.373559e-02  3.002716e-01 -3.174603e-02
     vertex  8.949768e-02  2.730688e-01 -3.174603e-02
     vertex -1.067020e-01 -4.567909e-02 -3.174603e-02
   endloop
 endfacet
 facet normal -0.000000e+00  0.000000e+00 -1.000000e+00
   outer loop
     vertex  2.102192e-01  1.761248e-01 -3.174603e-02
     vertex -1.067020e-01 -4.567909e-02 -3.174603e-02
     vertex  1.816492e-01  1.892469e-01 -3.174603e-02
   endloop
 endfacet
 facet normal  0.000000e+00 -0.000000e+00 -1.000000e+00
   outer loop
     vertex  6.143058e-02  3.292030e-01 -3.174603e-02
     vertex  7.373559e-02  3.002716e-01 -3.174603e-02
     vertex -1.067020e-01 -4.567909e-02 -3.174603e-02
   endloop
 endfacet
 facet normal -0.000000e+00  0.000000e+00 -1.000000e+00
   outer loop
     vertex  2.401835e-01  1.666075e-01 -3.174603e-02
     vertex -1.067020e-01 -4.567909e-02 -3.174603e-02
     vertex  2.102192e-01  1.761248e-01 -3.174603e-02
   endloop
 endfacet
 facet normal  0.000000e+00 -0.000000e+00 -1.000000e+00
   outer loop
     vertex  5.276862e-02  3.594256e-01 -3.174603e-02
     vertex  6.143058e-02  3.292030e-01 -3.174603e-02
     vertex -1.067020e-01 -4.567909e-02 -3.174603e-02
   endloop
 endfacet
 facet normal -0.000000e+00  0.000000e+00 -1.000000e+00
   outer loop
     vertex  2.710892e-01  1.608391e-01 -3.174603e-02
     vertex -1.067020e-01 -4.567909e-02 -3.174603e-02
     vertex  2.401835e-01  1.666075e-01 -3.174603e-02
   endloop
 endfacet
 facet normal  0.000000e+00 -0.000000e+00 -1.000000e+00
   outer loop
     vertex  4.788064e-02  3.904827e-01 -3.174603e-02
     vertex  5.276862e-02  3.594256e-01 -3.174603e-02
     vertex -1.067020e-01 -4.567909e-02 -3.174603e-02
   endloop
 endfacet
 facet normal -0.000000e+00  0.000000e+00 -1.000000e+00
   outer loop
     vertex  3.024692e-01  1.589065e-01 -3.174603e-02
     vertex -1.067020e-01 -4.567909e-02 -3.174603e-02
     vertex  2.710892e-01  1.608391e-01 -3.174603e-02
   endloop
 endfacet
 facet normal  0.000000e+00 -0.000000e+00 -1.000000e+00
   outer loop
     vertex  4.684050e-02  4.219049e-01 -3.174603e-02
     vertex  4.788064e-02  3.904827e-01 -3.174603e-02
     vertex -1.067020e-01 -4.567909e-02 -3.174603e-02
   endloop
 endfacet
 facet normal  0.000000e+00  0.000000e+00 -1.000000e+00
   outer loop
     vertex  7.116402e-01 -4.567909e-02 -3.174603e-02
     vertex  3.024692e-01  1.589065e-01 -3.174603e-02
     vertex  3.338491e-01  1.608391e-01 -3.174603e-02
   endloop
 endfacet
 facet normal  0.000000e+00  0.000000e+00 -1.000000e+00
   outer loop
     vertex  7.116402e-01 -4.567909e-02 -3.174603e-02
     vertex  3.338491e-01  1.608391e-01 -3.174603e-02
     vertex  3.647548e-01  1.666075e-01 -3.174603e-02
   endloop
 endfacet
 facet normal  0.000000e+00  0.000000e+00 -1.000000e+00
   outer loop
     vertex  7.116402e-01 -4.567909e-02 -3.174603e-02
     vertex  3.647548e-01  1.666075e-01 -3.174603e-02
     vertex  3.947191e-01  1.761248e-01 -3.174603e-02
   endloop
 endfacet
 facet normal  0.000000e+00  0.000000e+00 -1.000000e+00
   outer loop
     vertex  7.116402e-01 -4.567909e-02 -3.174603e-02
     vertex  3.947191e-01  1.761248e-01 -3.174603e-02
     vertex  4.232892e-01  1.892469e-01 -3.174603e-02
   endloop
 endfacet
 facet normal  0.000000e+00  0.000000e+00 -1.000000e+00
   outer loop
     vertex  7.116402e-01 -4.567909e-02 -3.174603e-02
     vertex  4.232892e-01  1.892469e-01 -3.174603e-02
     vertex  4.500331e-01  2.057756e-01 -3.174603e-02
   endloop
 endfacet
 facet normal  0.000000e+00  0.000000e+00 -1.000000e+00
   outer loop
     vertex  7.116402e-01 -4.567909e-02 -3.174603e-02
     vertex -1.067020e-01 -4.567909e-02 -3.174603e-02
     vertex  3.024692e-01  1.589065e-01 -3.174603e-02
   endloop
 endfacet
 facet normal  0.000000e+00 -0.000000e+00 -1.000000e+00
   outer loop
     vertex  4.745468e-01  2.254610e-01 -3.174603e-02
     vertex  7.116402e-01 -4.567909e-02 -3.174603e-02
     vertex  4.500331e-01  2.057756e-01 -3.174603e-02
   endloop
 endfacet
 facet normal  0.000000e+00 -0.000000e+00 -1.000000e+00
   outer loop
     vertex  4.964597e-01  2.480056e-01 -3.174603e-02
     vertex  7.116402e-01 -4.567909e-02 -3.174603e-02
     vertex  4.745468e-01  2.254610e-01 -3.174603e-02
   endloop
 endfacet
 facet normal  0.000000e+00 -0.000000e+00 -1.000000e+00
   outer loop
     vertex  9.788361e-02  6.703703e-01 -3.174603e-02
     vertex  9.788361e-02  5.680776e-01 -3.174603e-02
     vertex  8.060169e-02  5.418141e-01 -3.174603e-02
   endloop
 endfacet
 facet normal  0.000000e+00  0.000000e+00 -1.000000e+00
   outer loop
     vertex  9.788361e-02  6.703703e-01 -3.174603e-02
     vertex  8.060169e-02  5.418141e-01 -3.174603e-02
     vertex  6.667306e-02  5.136284e-01 -3.174603e-02
   endloop
 endfacet
 facet normal  0.000000e+00 -0.000000e+00 -1.000000e+00
   outer loop
     vertex  5.154407e-01  2.730688e-01 -3.174603e-02
     vertex  7.116402e-01 -4.567909e-02 -3.174603e-02
     vertex  4.964597e-01  2.480056e-01 -3.174603e-02
   endloop
 endfacet
 facet normal  0.000000e+00  0.000000e+00 -1.000000e+00
   outer loop
     vertex -1.067020e-01  9.363316e-01 -3.174603e-02
     vertex  9.788361e-02  6.703703e-01 -3.174603e-02
     vertex  6.667306e-02  5.136284e-01 -3.174603e-02
   endloop
 endfacet
 facet normal  0.000000e+00  0.000000e+00 -1.000000e+00
   outer loop
     vertex -1.067020e-01  9.363316e-01 -3.174603e-02
     vertex  6.667306e-02  5.136284e-01 -3.174603e-02
     vertex  5.630826e-02  4.839466e-01 -3.174603e-02
   endloop
 endfacet
 facet normal  0.000000e+00  0.000000e+00 -1.000000e+00
   outer loop
     vertex -1.067020e-01  9.363316e-01 -3.174603e-02
     vertex  5.630826e-02  4.839466e-01 -3.174603e-02
     vertex  4.966393e-02  4.532173e-01 -3.174603e-02
   endloop
 endfacet
 facet normal  0.000000e+00  0.000000e+00 -1.000000e+00
   outer loop
     vertex -1.067020e-01  9.363316e-01 -3.174603e-02
     vertex  4.966393e-02  4.532173e-01 -3.174603e-02
     vertex  4.684050e-02  4.219049e-01 -3.174603e-02
   endloop
 endfacet
 facet normal  0.000000e+00  0.000000e+00 -1.000000e+00
   outer loop
     vertex -1.067020e-01  9.363316e-01 -3.174603e-02
     vertex  4.684050e-02  4.219049e-01 -3.174603e-02
     vertex -1.067020e-01 -4.567909e-02 -3.174603e-02
   endloop
 endfacet
 facet normal  0.000000e+00 -0.000000e+00 -1.000000e+00
   outer loop
     vertex  5.312028e-01  3.002716e-01 -3.174603e-02
     vertex  7.116402e-01 -4.567909e-02 -3.174603e-02
     vertex  5.154407e-01  2.730688e-01 -3.174603e-02
   endloop
 endfacet
 facet normal  0.000000e+00 -0.000000e+00 -1.000000e+00
   outer loop
     vertex  5.435078e-01  3.292030e-01 -3.174603e-02
     vertex  7.116402e-01 -4.567909e-02 -3.174603e-02
     vertex  5.312028e-01  3.002716e-01 -3.174603e-02
   endloop
 endfacet
 facet normal  0.000000e+00 -0.000000e+00 -1.000000e+00
   outer loop
     vertex  5.521697e-01  3.594256e-01 -3.174603e-02
     vertex  7.116402e-01 -4.567909e-02 -3.174603e-02
     vertex  5.435078e-01  3.292030e-01 -3.174603e-02
   endloop
 endfacet
 facet normal  0.000000e+00 -0.000000e+00 -1.000000e+00
   outer loop
     vertex  5.570577e-01  3.904827e-01 -3.174603e-02
     vertex  7.116402e-01 -4.567909e-02 -3.174603e-02
     vertex  5.521697e-01  3.594256e-01 -3.174603e-02
   endloop
 endfacet
 facet normal  0.000000e+00 -0.000000e+00 -1.000000e+00
   outer loop
     vertex  5.580979e-01  4.219049e-01 -3.174603e-02
     vertex  7.116402e-01 -4.567909e-02 -3.174603e-02
     vertex  5.570577e-01  3.904827e-01 -3.174603e-02
   endloop
 endfacet
 facet normal  0.000000e+00 -0.000000e+00 -1.000000e+00
   outer loop
     vertex  2.410935e-01  8.749559e-01 -3.174603e-02
     vertex  2.410935e-01  6.703703e-01 -3.174603e-02
     vertex  9.788361e-02  6.703703e-01 -3.174603e-02
   endloop
 endfacet
 facet normal -0.000000e+00  0.000000e+00 -1.000000e+00
   outer loop
     vertex  2.410935e-01  8.749559e-01 -3.174603e-02
     vertex  9.788361e-02  6.703703e-01 -3.174603e-02
     vertex -1.067020e-01  9.363316e-01 -3.174603e-02
   endloop
 endfacet
 facet normal  0.000000e+00  0.000000e+00 -1.000000e+00
   outer loop
     vertex  5.070547e-01  6.703703e-01 -3.174603e-02
     vertex  5.382653e-01  5.136284e-01 -3.174603e-02
     vertex  5.243367e-01  5.418141e-01 -3.174603e-02
   endloop
 endfacet
 facet normal  0.000000e+00  0.000000e+00 -1.000000e+00
   outer loop
     vertex  5.070547e-01  6.703703e-01 -3.174603e-02
     vertex  5.243367e-01  5.418141e-01 -3.174603e-02
     vertex  5.070547e-01  5.680776e-01 -3.174603e-02
   endloop
 endfacet
 facet normal  0.000000e+00  0.000000e+00 -1.000000e+00
   outer loop
     vertex  3.638448e-01  8.749559e-01 -3.174603e-02
     vertex  5.070547e-01  6.703703e-01 -3.174603e-02
     vertex  3.638448e-01  6.703703e-01 -3.174603e-02
   endloop
 endfacet
 facet normal  0.000000e+00  0.000000e+00 -1.000000e+00
   outer loop
     vertex  7.116402e-01  9.363316e-01 -3.174603e-02
     vertex  5.580979e-01  4.219049e-01 -3.174603e-02
     vertex  5.552744e-01  4.532173e-01 -3.174603e-02
   endloop
 endfacet
 facet normal  0.000000e+00  0.000000e+00 -1.000000e+00
   outer loop
     vertex  7.116402e-01  9.363316e-01 -3.174603e-02
     vertex  5.552744e-01  4.532173e-01 -3.174603e-02
     vertex  5.486301e-01  4.839466e-01 -3.174603e-02
   endloop
 endfacet
 facet normal  0.000000e+00  0.000000e+00 -1.000000e+00
   outer loop
     vertex  7.116402e-01  9.363316e-01 -3.174603e-02
     vertex  5.486301e-01  4.839466e-01 -3.174603e-02
     vertex  5.382653e-01  5.136284e-01 -3.174603e-02
   endloop
 endfacet
 facet normal  0.000000e+00  0.000000e+00 -1.000000e+00
   outer loop
     vertex  7.116402e-01  9.363316e-01 -3.174603e-02
     vertex  5.382653e-01  5.136284e-01 -3.174603e-02
     vertex  5.070547e-01  6.703703e-01 -3.174603e-02
   endloop
 endfacet
 facet normal  0.000000e+00 -0.000000e+00 -1.000000e+00
   outer loop
     vertex  7.116402e-01  9.363316e-01 -3.174603e-02
     vertex  7.116402e-01 -4.567909e-02 -3.174603e-02
     vertex  5.580979e-01  4.219049e-01 -3.174603e-02
   endloop
 endfacet
 facet normal  0.000000e+00  0.000000e+00 -1.000000e+00
   outer loop
     vertex  7.116402e-01  9.363316e-01 -3.174603e-02
     vertex  5.070547e-01  6.703703e-01 -3.174603e-02
     vertex  3.638448e-01  8.749559e-01 -3.174603e-02
   endloop
 endfacet
 facet normal -0.000000e+00  0.000000e+00 -1.000000e+00
   outer loop
     vertex  7.116402e-01  9.363316e-01 -3.174603e-02
     vertex  2.410935e-01  8.749559e-01 -3.174603e-02
     vertex -1.067020e-01  9.363316e-01 -3.174603e-02
   endloop
 endfacet
 facet normal  0.000000e+00  0.000000e+00 -1.000000e+00
   outer loop
     vertex  7.116402e-01  9.363316e-01 -3.174603e-02
     vertex  3.638448e-01  8.749559e-01 -3.174603e-02
     vertex  2.410935e-01  8.749559e-01 -3.174603e-02
   endloop
 endfacet
 facet normal  8.353689e-01 -5.496897e-01  0.000000e+00
   outer loop
     vertex  8.060169e-02  5.418141e-01 -1.587302e-02
     vertex  9.788361e-02  5.680776e-01 -1.587302e-02
     vertex  9.788361e-02  5.680776e-01  6.000000e-08
   endloop
 endfacet
 facet normal  8.353689e-01 -5.496897e-01  0.000000e+00
   outer loop
     vertex  8.060169e-02  5.418141e-01 -1.587302e-02
     vertex  9.788361e-02  5.680776e-01  6.000000e-08
     vertex  8.060169e-02  5.418141e-01  6.000000e-08
   endloop
 endfacet
 facet normal  8.965065e-01 -4.430305e-01  0.000000e+00
   outer loop
     vertex  6.667306e-02  5.136284e-01 -1.587302e-02
     vertex  8.060169e-02  5.418141e-01  6.000000e-08
     vertex  6.667306e-02  5.136284e-01  6.000000e-08
   endloop
 endfacet
 facet normal  8.965065e-01 -4.430305e-01  0.000000e+00
   outer loop
     vertex  6.667306e-02  5.136284e-01 -1.587302e-02
     vertex  8.060169e-02  5.418141e-01 -1.587302e-02
     vertex  8.060169e-02  5.418141e-01  6.000000e-08
   endloop
 endfacet
 facet normal  9.440944e-01 -3.296754e-01  0.000000e+00
   outer loop
     vertex  5.630826e-02  4.839466e-01 -1.587302e-02
     vertex  6.667306e-02  5.136284e-01  6.000000e-08
     vertex  5.630826e-02  4.839466e-01  6.000000e-08
   endloop
 endfacet
 facet normal  9.440944e-01 -3.296754e-01  0.000000e+00
   outer loop
     vertex  5.630826e-02  4.839466e-01 -1.587302e-02
     vertex  6.667306e-02  5.136284e-01 -1.587302e-02
     vertex  6.667306e-02  5.136284e-01  6.000000e-08
   endloop
 endfacet
 facet normal  9.774131e-01 -2.113375e-01  0.000000e+00
   outer loop
     vertex  4.966393e-02  4.532173e-01 -1.587302e-02
     vertex  5.630826e-02  4.839466e-01  6.000000e-08
     vertex  4.966393e-02  4.532173e-01  6.000000e-08
   endloop
 endfacet
 facet normal  9.774131e-01 -2.113375e-01  0.000000e+00
   outer loop
     vertex  4.966393e-02  4.532173e-01 -1.587302e-02
     vertex  5.630826e-02  4.839466e-01 -1.587302e-02
     vertex  5.630826e-02  4.839466e-01  6.000000e-08
   endloop
 endfacet
 facet normal  9.959593e-01 -8.980551e-02  0.000000e+00
   outer loop
     vertex  4.684050e-02  4.219049e-01 -1.587302e-02
     vertex  4.966393e-02  4.532173e-01  6.000000e-08
     vertex  4.684050e-02  4.219049e-01  6.000000e-08
   endloop
 endfacet
 facet normal  9.959593e-01 -8.980551e-02  0.000000e+00
   outer loop
     vertex  4.684050e-02  4.219049e-01 -1.587302e-02
     vertex  4.966393e-02  4.532173e-01 -1.587302e-02
     vertex  4.966393e-02  4.532173e-01  6.000000e-08
   endloop
 endfacet
 facet normal  9.994526e-01  3.308382e-02  0.000000e+00
   outer loop
     vertex  4.788064e-02  3.904827e-01 -1.587302e-02
     vertex  4.684050e-02  4.219049e-01 -1.587302e-02
     vertex  4.684050e-02  4.219049e-01  6.000000e-08
   endloop
 endfacet
 facet normal  9.994526e-01  3.308382e-02 -0.000000e+00
   outer loop
     vertex  4.788064e-02  3.904827e-01 -1.587302e-02
     vertex  4.684050e-02  4.219049e-01  6.000000e-08
     vertex  4.788064e-02  3.904827e-01  6.000000e-08
   endloop
 endfacet
 facet normal  9.878401e-01  1.554731e-01  0.000000e+00
   outer loop
     vertex  5.276862e-02  3.594256e-01 -1.587302e-02
     vertex  4.788064e-02  3.904827e-01 -1.587302e-02
     vertex  4.788064e-02  3.904827e-01  6.000000e-08
   endloop
 endfacet
 facet normal  9.878401e-01  1.554731e-01 -0.000000e+00
   outer loop
     vertex  5.276862e-02  3.594256e-01 -1.587302e-02
     vertex  4.788064e-02  3.904827e-01  6.000000e-08
     vertex  5.276862e-02  3.594256e-01  6.000000e-08
   endloop
 endfacet
 facet normal  9.612975e-01  2.755126e-01 -0.000000e+00
   outer loop
     vertex  6.143058e-02  3.292030e-01 -1.587302e-02
     vertex  5.276862e-02  3.594256e-01  6.000000e-08
     vertex  6.143058e-02  3.292030e-01  6.000000e-08
   endloop
 endfacet
 facet normal  9.612975e-01  2.755126e-01  0.000000e+00
   outer loop
     vertex  6.143058e-02  3.292030e-01 -1.587302e-02
     vertex  5.276862e-02  3.594256e-01 -1.587302e-02
     vertex  5.276862e-02  3.594256e-01  6.000000e-08
   endloop
 endfacet
 facet normal  9.202258e-01  3.913880e-01 -0.000000e+00
   outer loop
     vertex  7.373559e-02  3.002716e-01 -1.587302e-02
     vertex  6.143058e-02  3.292030e-01  6.000000e-08
     vertex  7.373559e-02  3.002716e-01  6.000000e-08
   endloop
 endfacet
 facet normal  9.202258e-01  3.913880e-01  0.000000e+00
   outer loop
     vertex  7.373559e-02  3.002716e-01 -1.587302e-02
     vertex  6.143058e-02  3.292030e-01 -1.587302e-02
     vertex  6.143058e-02  3.292030e-01  6.000000e-08
   endloop
 endfacet
 facet normal  8.652458e-01  5.013479e-01 -0.000000e+00
   outer loop
     vertex  8.949768e-02  2.730688e-01 -1.587302e-02
     vertex  7.373559e-02  3.002716e-01  6.000000e-08
     vertex  8.949768e-02  2.730688e-01  6.000000e-08
   endloop
 endfacet
 facet normal  8.652458e-01  5.013479e-01  0.000000e+00
   outer loop
     vertex  8.949768e-02  2.730688e-01 -1.587302e-02
     vertex  7.373559e-02  3.002716e-01 -1.587302e-02
     vertex  7.373559e-02  3.002716e-01  6.000000e-08
   endloop
 endfacet
 facet normal  7.971885e-01  6.037305e-01 -0.000000e+00
   outer loop
     vertex  1.084786e-01  2.480056e-01 -1.587302e-02
     vertex  8.949768e-02  2.730688e-01  6.000000e-08
     vertex  1.084786e-01  2.480056e-01  6.000000e-08
   endloop
 endfacet
 facet normal  7.971885e-01  6.037305e-01  0.000000e+00
   outer loop
     vertex  1.084786e-01  2.480056e-01 -1.587302e-02
     vertex  8.949768e-02  2.730688e-01 -1.587302e-02
     vertex  8.949768e-02  2.730688e-01  6.000000e-08
   endloop
 endfacet
 facet normal  7.170825e-01  6.969883e-01 -0.000000e+00
   outer loop
     vertex  1.303915e-01  2.254610e-01 -1.587302e-02
     vertex  1.084786e-01  2.480056e-01  6.000000e-08
     vertex  1.303915e-01  2.254610e-01  6.000000e-08
   endloop
 endfacet
 facet normal  7.170825e-01  6.969883e-01  0.000000e+00
   outer loop
     vertex  1.303915e-01  2.254610e-01 -1.587302e-02
     vertex  1.084786e-01  2.480056e-01 -1.587302e-02
     vertex  1.084786e-01  2.480056e-01  6.000000e-08
   endloop
 endfacet
 facet normal  6.261385e-01  7.797118e-01 -0.000000e+00
   outer loop
     vertex  1.549052e-01  2.057756e-01 -1.587302e-02
     vertex  1.303915e-01  2.254610e-01  6.000000e-08
     vertex  1.549052e-01  2.057756e-01  6.000000e-08
   endloop
 endfacet
 facet normal  6.261385e-01  7.797118e-01  0.000000e+00
   outer loop
     vertex  1.549052e-01  2.057756e-01 -1.587302e-02
     vertex  1.303915e-01  2.254610e-01 -1.587302e-02
     vertex  1.303915e-01  2.254610e-01  6.000000e-08
   endloop
 endfacet
 facet normal  5.257311e-01  8.506508e-01 -0.000000e+00
   outer loop
     vertex  1.816492e-01  1.892469e-01 -1.587302e-02
     vertex  1.549052e-01  2.057756e-01  6.000000e-08
     vertex  1.816492e-01  1.892469e-01  6.000000e-08
   endloop
 endfacet
 facet normal  5.257311e-01  8.506508e-01  0.000000e+00
   outer loop
     vertex  1.816492e-01  1.892469e-01 -1.587302e-02
     vertex  1.549052e-01  2.057756e-01 -1.587302e-02
     vertex  1.549052e-01  2.057756e-01  6.000000e-08
   endloop
 endfacet
 facet normal  4.173778e-01  9.087331e-01 -0.000000e+00
   outer loop
     vertex  2.102192e-01  1.761248e-01 -1.587302e-02
     vertex  1.816492e-01  1.892469e-01  6.000000e-08
     vertex  2.102192e-01  1.761248e-01  6.000000e-08
   endloop
 endfacet
 facet normal  4.173778e-01  9.087331e-01  0.000000e+00
   outer loop
     vertex  2.102192e-01  1.761248e-01 -1.587302e-02
     vertex  1.816492e-01  1.892469e-01 -1.587302e-02
     vertex  1.816492e-01  1.892469e-01  6.000000e-08
   endloop
 endfacet
 facet normal  3.027162e-01  9.530807e-01 -0.000000e+00
   outer loop
     vertex  2.401835e-01  1.666075e-01 -1.587302e-02
     vertex  2.102192e-01  1.761248e-01  6.000000e-08
     vertex  2.401835e-01  1.666075e-01  6.000000e-08
   endloop
 endfacet
 facet normal  3.027162e-01  9.530807e-01  0.000000e+00
   outer loop
     vertex  2.401835e-01  1.666075e-01 -1.587302e-02
     vertex  2.102192e-01  1.761248e-01 -1.587302e-02
     vertex  2.102192e-01  1.761248e-01  6.000000e-08
   endloop
 endfacet
 facet normal  1.834794e-01  9.830236e-01 -0.000000e+00
   outer loop
     vertex  2.710892e-01  1.608391e-01 -1.587302e-02
     vertex  2.401835e-01  1.666075e-01  6.000000e-08
     vertex  2.710892e-01  1.608391e-01  6.000000e-08
   endloop
 endfacet
 facet normal  1.834794e-01  9.830236e-01  0.000000e+00
   outer loop
     vertex  2.710892e-01  1.608391e-01 -1.587302e-02
     vertex  2.401835e-01  1.666075e-01 -1.587302e-02
     vertex  2.401835e-01  1.666075e-01  6.000000e-08
   endloop
 endfacet
 facet normal  6.146948e-02  9.981090e-01 -0.000000e+00
   outer loop
     vertex  3.024692e-01  1.589065e-01 -1.587302e-02
     vertex  2.710892e-01  1.608391e-01  6.000000e-08
     vertex  3.024692e-01  1.589065e-01  6.000000e-08
   endloop
 endfacet
 facet normal  6.146948e-02  9.981090e-01  0.000000e+00
   outer loop
     vertex  3.024692e-01  1.589065e-01 -1.587302e-02
     vertex  2.710892e-01  1.608391e-01 -1.587302e-02
     vertex  2.710892e-01  1.608391e-01  6.000000e-08
   endloop
 endfacet
 facet normal -6.146948e-02  9.981090e-01  0.000000e+00
   outer loop
     vertex  3.338491e-01  1.608391e-01 -1.587302e-02
     vertex  3.024692e-01  1.589065e-01  6.000000e-08
     vertex  3.338491e-01  1.608391e-01  6.000000e-08
   endloop
 endfacet
 facet normal -6.146948e-02  9.981090e-01  0.000000e+00
   outer loop
     vertex  3.338491e-01  1.608391e-01 -1.587302e-02
     vertex  3.024692e-01  1.589065e-01 -1.587302e-02
     vertex  3.024692e-01  1.589065e-01  6.000000e-08
   endloop
 endfacet
 facet normal -1.834794e-01  9.830236e-01  0.000000e+00
   outer loop
     vertex  3.647548e-01  1.666075e-01 -1.587302e-02
     vertex  3.338491e-01  1.608391e-01  6.000000e-08
     vertex  3.647548e-01  1.666075e-01  6.000000e-08
   endloop
 endfacet
 facet normal -1.834794e-01  9.830236e-01  0.000000e+00
   outer loop
     vertex  3.647548e-01  1.666075e-01 -1.587302e-02
     vertex  3.338491e-01  1.608391e-01 -1.587302e-02
     vertex  3.338491e-01  1.608391e-01  6.000000e-08
   endloop
 endfacet
 facet normal -3.027162e-01  9.530807e-01  0.000000e+00
   outer loop
     vertex  3.947191e-01  1.761248e-01 -1.587302e-02
     vertex  3.647548e-01  1.666075e-01  6.000000e-08
     vertex  3.947191e-01  1.761248e-01  6.000000e-08
   endloop
 endfacet
 facet normal -3.027162e-01  9.530807e-01  0.000000e+00
   outer loop
     vertex  3.947191e-01  1.761248e-01 -1.587302e-02
     vertex  3.647548e-01  1.666075e-01 -1.587302e-02
     vertex  3.647548e-01  1.666075e-01  6.000000e-08
   endloop
 endfacet
 facet normal -4.173778e-01  9.087331e-01  0.000000e+00
   outer loop
     vertex  4.232892e-01  1.892469e-01 -1.587302e-02
     vertex  3.947191e-01  1.761248e-01  6.000000e-08
     vertex  4.232892e-01  1.892469e-01  6.000000e-08
   endloop
 endfacet
 facet normal -4.173778e-01  9.087331e-01  0.000000e+00
   outer loop
     vertex  4.232892e-01  1.892469e-01 -1.587302e-02
     vertex  3.947191e-01  1.761248e-01 -1.587302e-02
     vertex  3.947191e-01  1.761248e-01  6.000000e-08
   endloop
 endfacet
 facet normal -5.257311e-01  8.506508e-01  0.000000e+00
   outer loop
     vertex  4.500331e-01  2.057756e-01 -1.587302e-02
     vertex  4.232892e-01  1.892469e-01  6.000000e-08
     vertex  4.500331e-01  2.057756e-01  6.000000e-08
   endloop
 endfacet
 facet normal -6.261385e-01  7.797118e-01  0.000000e+00
   outer loop
     vertex  4.500331e-01  2.057756e-01 -1.587302e-02
     vertex  4.500331e-01  2.057756e-01  6.000000e-08
     vertex  4.745468e-01  2.254610e-01  6.000000e-08
   endloop
 endfacet
 facet normal -5.257311e-01  8.506508e-01  0.000000e+00
   outer loop
     vertex  4.500331e-01  2.057756e-01 -1.587302e-02
     vertex  4.232892e-01  1.892469e-01 -1.587302e-02
     vertex  4.232892e-01  1.892469e-01  6.000000e-08
   endloop
 endfacet
 facet normal -6.261385e-01  7.797118e-01  0.000000e+00
   outer loop
     vertex  4.745468e-01  2.254610e-01 -1.587302e-02
     vertex  4.500331e-01  2.057756e-01 -1.587302e-02
     vertex  4.745468e-01  2.254610e-01  6.000000e-08
   endloop
 endfacet
 facet normal -7.170825e-01  6.969883e-01  0.000000e+00
   outer loop
     vertex  4.964597e-01  2.480056e-01 -1.587302e-02
     vertex  4.745468e-01  2.254610e-01  6.000000e-08
     vertex  4.964597e-01  2.480056e-01  6.000000e-08
   endloop
 endfacet
 facet normal -7.170825e-01  6.969883e-01  0.000000e+00
   outer loop
     vertex  4.964597e-01  2.480056e-01 -1.587302e-02
     vertex  4.745468e-01  2.254610e-01 -1.587302e-02
     vertex  4.745468e-01  2.254610e-01  6.000000e-08
   endloop
 endfacet
 facet normal -7.971885e-01  6.037305e-01  0.000000e+00
   outer loop
     vertex  5.154407e-01  2.730688e-01 -1.587302e-02
     vertex  4.964597e-01  2.480056e-01  6.000000e-08
     vertex  5.154407e-01  2.730688e-01  6.000000e-08
   endloop
 endfacet
 facet normal -7.971885e-01  6.037305e-01  0.000000e+00
   outer loop
     vertex  5.154407e-01  2.730688e-01 -1.587302e-02
     vertex  4.964597e-01  2.480056e-01 -1.587302e-02
     vertex  4.964597e-01  2.480056e-01  6.000000e-08
   endloop
 endfacet
 facet normal -8.652458e-01  5.013479e-01  0.000000e+00
   outer loop
     vertex  5.312028e-01  3.002716e-01 -1.587302e-02
     vertex  5.154407e-01  2.730688e-01  6.000000e-08
     vertex  5.312028e-01  3.002716e-01  6.000000e-08
   endloop
 endfacet
 facet normal -8.652458e-01  5.013479e-01  0.000000e+00
   outer loop
     vertex  5.312028e-01  3.002716e-01 -1.587302e-02
     vertex  5.154407e-01  2.730688e-01 -1.587302e-02
     vertex  5.154407e-01  2.730688e-01  6.000000e-08
   endloop
 endfacet
 facet normal -9.202258e-01  3.913880e-01  0.000000e+00
   outer loop
     vertex  5.435078e-01  3.292030e-01 -1.587302e-02
     vertex  5.312028e-01  3.002716e-01  6.000000e-08
     vertex  5.435078e-01  3.292030e-01  6.000000e-08
   endloop
 endfacet
 facet normal -9.202258e-01  3.913880e-01  0.000000e+00
   outer loop
     vertex  5.435078e-01  3.292030e-01 -1.587302e-02
     vertex  5.312028e-01  3.002716e-01 -1.587302e-02
     vertex  5.312028e-01  3.002716e-01  6.000000e-08
   endloop
 endfacet
 facet normal -9.612975e-01  2.755126e-01  0.000000e+00
   outer loop
     vertex  5.521697e-01  3.594256e-01 -1.587302e-02
     vertex  5.435078e-01  3.292030e-01  6.000000e-08
     vertex  5.521697e-01  3.594256e-01  6.000000e-08
   endloop
 endfacet
 facet normal -9.612975e-01  2.755126e-01  0.000000e+00
   outer loop
     vertex  5.521697e-01  3.594256e-01 -1.587302e-02
     vertex  5.435078e-01  3.292030e-01 -1.587302e-02
     vertex  5.435078e-01  3.292030e-01  6.000000e-08
   endloop
 endfacet
 facet normal -9.878401e-01  1.554731e-01  0.000000e+00
   outer loop
     vertex  5.570577e-01  3.904827e-01 -1.587302e-02
     vertex  5.521697e-01  3.594256e-01  6.000000e-08
     vertex  5.570577e-01  3.904827e-01  6.000000e-08
   endloop
 endfacet
 facet normal -9.878401e-01  1.554731e-01  0.000000e+00
   outer loop
     vertex  5.570577e-01  3.904827e-01 -1.587302e-02
     vertex  5.521697e-01  3.594256e-01 -1.587302e-02
     vertex  5.521697e-01  3.594256e-01  6.000000e-08
   endloop
 endfacet
 facet normal -9.994526e-01  3.308382e-02  0.000000e+00
   outer loop
     vertex  5.580979e-01  4.219049e-01 -1.587302e-02
     vertex  5.570577e-01  3.904827e-01  6.000000e-08
     vertex  5.580979e-01  4.219049e-01  6.000000e-08
   endloop
 endfacet
 facet normal -9.994526e-01  3.308382e-02  0.000000e+00
   outer loop
     vertex  5.580979e-01  4.219049e-01 -1.587302e-02
     vertex  5.570577e-01  3.904827e-01 -1.587302e-02
     vertex  5.570577e-01  3.904827e-01  6.000000e-08
   endloop
 endfacet
 facet normal -9.959593e-01 -8.980551e-02  0.000000e+00
   outer loop
     vertex  5.552744e-01  4.532173e-01 -1.587302e-02
     vertex  5.580979e-01  4.219049e-01 -1.587302e-02
     vertex  5.580979e-01  4.219049e-01  6.000000e-08
   endloop
 endfacet
 facet normal -9.959593e-01 -8.980551e-02  0.000000e+00
   outer loop
     vertex  5.552744e-01  4.532173e-01 -1.587302e-02
     vertex  5.580979e-01  4.219049e-01  6.000000e-08
     vertex  5.552744e-01  4.532173e-01  6.000000e-08
   endloop
 endfacet
 facet normal -9.774131e-01 -2.113375e-01  0.000000e+00
   outer loop
     vertex  5.486301e-01  4.839466e-01 -1.587302e-02
     vertex  5.552744e-01  4.532173e-01 -1.587302e-02
     vertex  5.552744e-01  4.532173e-01  6.000000e-08
   endloop
 endfacet
 facet normal -9.774131e-01 -2.113375e-01  0.000000e+00
   outer loop
     vertex  5.486301e-01  4.839466e-01 -1.587302e-02
     vertex  5.552744e-01  4.532173e-01  6.000000e-08
     vertex  5.486301e-01  4.839466e-01  6.000000e-08
   endloop
 endfacet
 facet normal -9.440944e-01 -3.296754e-01  0.000000e+00
   outer loop
     vertex  5.382653e-01  5.136284e-01 -1.587302e-02
     vertex  5.486301e-01  4.839466e-01 -1.587302e-02
     vertex  5.486301e-01  4.839466e-01  6.000000e-08
   endloop
 endfacet
 facet normal -9.440944e-01 -3.296754e-01  0.000000e+00
   outer loop
     vertex  5.382653e-01  5.136284e-01 -1.587302e-02
     vertex  5.486301e-01  4.839466e-01  6.000000e-08
     vertex  5.382653e-01  5.136284e-01  6.000000e-08
   endloop
 endfacet
 facet normal -8.965065e-01 -4.430305e-01  0.000000e+00
   outer loop
     vertex  5.243367e-01  5.418141e-01 -1.587302e-02
     vertex  5.382653e-01  5.136284e-01 -1.587302e-02
     vertex  5.382653e-01  5.136284e-01  6.000000e-08
   endloop
 endfacet
 facet normal -8.965065e-01 -4.430305e-01  0.000000e+00
   outer loop
     vertex  5.243367e-01  5.418141e-01 -1.587302e-02
     vertex  5.382653e-01  5.136284e-01  6.000000e-08
     vertex  5.243367e-01  5.418141e-01  6.000000e-08
   endloop
 endfacet
 facet normal -8.353689e-01 -5.496897e-01  0.000000e+00
   outer loop
     vertex  5.070547e-01  5.680776e-01 -1.587302e-02
     vertex  5.243367e-01  5.418141e-01 -1.587302e-02
     vertex  5.243367e-01  5.418141e-01  6.000000e-08
   endloop
 endfacet
 facet normal -8.353689e-01 -5.496897e-01  0.000000e+00
   outer loop
     vertex  5.070547e-01  5.680776e-01 -1.587302e-02
     vertex  5.243367e-01  5.418141e-01  6.000000e-08
     vertex  5.070547e-01  5.680776e-01  6.000000e-08
   endloop
 endfacet
 facet normal -1.000000e+00  0.000000e+00  0.000000e+00
   outer loop
     vertex  5.070547e-01  6.703703e-01 -1.587302e-02
     vertex  5.070547e-01  5.680776e-01 -1.587302e-02
     vertex  5.070547e-01  5.680776e-01  6.000000e-08
   endloop
 endfacet
 facet normal -1.000000e+00  0.000000e+00  0.000000e+00
   outer loop
     vertex  5.070547e-01  6.703703e-01 -1.587302e-02
     vertex  5.070547e-01  5.680776e-01  6.000000e-08
     vertex  5.070547e-01  6.703703e-01  6.000000e-08
   endloop
 endfacet
 facet normal  0.000000e+00 -1.000000e+00  0.000000e+00
   outer loop
     vertex  3.638448e-01  6.703703e-01 -1.587302e-02
     vertex  5.070547e-01  6.703703e-01 -1.587302e-02
     vertex  5.070547e-01  6.703703e-01  6.000000e-08
   endloop
 endfacet
 facet normal  0.000000e+00 -1.000000e+00  0.000000e+00
   outer loop
     vertex  3.638448e-01  6.703703e-01 -1.587302e-02
     vertex  5.070547e-01  6.703703e-01  6.000000e-08
     vertex  3.638448e-01  6.703703e-01  6.000000e-08
   endloop
 endfacet
 facet normal -1.000000e+00  0.000000e+00  0.000000e+00
   outer loop
     vertex  3.638448e-01  8.749559e-01 -1.587302e-02
     vertex  3.638448e-01  6.703703e-01 -1.587302e-02
     vertex  3.638448e-01  6.703703e-01  6.000000e-08
   endloop
 endfacet
 facet normal -1.000000e+00  0.000000e+00  0.000000e+00
   outer loop
     vertex  3.638448e-01  8.749559e-01 -1.587302e-02
     vertex  3.638448e-01  6.703703e-01  6.000000e-08
     vertex  3.638448e-01  8.749559e-01  6.000000e-08
   endloop
 endfacet
 facet normal  0.000000e+00 -1.000000e+00  0.000000e+00
   outer loop
     vertex  2.410935e-01  8.749559e-01 -1.587302e-02
     vertex  3.638448e-01  8.749559e-01 -1.587302e-02
     vertex  3.638448e-01  8.749559e-01  6.000000e-08
   endloop
 endfacet
 facet normal  0.000000e+00 -1.000000e+00  0.000000e+00
   outer loop
     vertex  2.410935e-01  8.749559e-01 -1.587302e-02
     vertex  3.638448e-01  8.749559e-01  6.000000e-08
     vertex  2.410935e-01  8.749559e-01  6.000000e-08
   endloop
 endfacet
 facet normal  1.000000e+00  0.000000e+00  0.000000e+00
   outer loop
     vertex  2.410935e-01  6.703703e-01 -1.587302e-02
     vertex  2.410935e-01  8.749559e-01 -1.587302e-02
     vertex  2.410935e-01  8.749559e-01  6.000000e-08
   endloop
 endfacet
 facet normal  1.000000e+00  0.000000e+00  0.000000e+00
   outer loop
     vertex  2.410935e-01  6.703703e-01 -1.587302e-02
     vertex  2.410935e-01  8.749559e-01  6.000000e-08
     vertex  2.410935e-01  6.703703e-01  6.000000e-08
   endloop
 endfacet
 facet normal  0.000000e+00 -1.000000e+00  0.000000e+00
   outer loop
     vertex  9.788361e-02  6.703703e-01 -1.587302e-02
     vertex  2.410935e-01  6.703703e-01 -1.587302e-02
     vertex  2.410935e-01  6.703703e-01  6.000000e-08
   endloop
 endfacet
 facet normal  0.000000e+00 -1.000000e+00  0.000000e+00
   outer loop
     vertex  9.788361e-02  6.703703e-01 -1.587302e-02
     vertex  2.410935e-01  6.703703e-01  6.000000e-08
     vertex  9.788361e-02  6.703703e-01  6.000000e-08
   endloop
 endfacet
 facet normal  1.000000e+00  1.356673e-16  0.000000e+00
   outer loop
     vertex  9.788361e-02  5.680776e-01 -1.587302e-02
     vertex  9.788361e-02  6.703703e-01 -1.587302e-02
     vertex  9.788361e-02  6.703703e-01  6.000000e-08
   endloop
 endfacet
 facet normal  1.000000e+00  1.356673e-16 -0.000000e+00
   outer loop
     vertex  9.788361e-02  5.680776e-01 -1.587302e-02
     vertex  9.788361e-02  6.703703e-01  6.000000e-08
     vertex  9.788361e-02  5.680776e-01  6.000000e-08
   endloop
 endfacet
 facet normal -0.000000e+00  1.000000e+00  0.000000e+00
   outer loop
     vertex -1.067020e-01  9.363316e-01 -1.587302e-02
     vertex  7.116402e-01  9.363316e-01 -1.587302e-02
     vertex  7.116402e-01  9.363316e-01 -3.174603e-02
   endloop
 endfacet
 facet normal  0.000000e+00  1.000000e+00  0.000000e+00
   outer loop
     vertex -1.067020e-01  9.363316e-01 -1.587302e-02
     vertex  7.116402e-01  9.363316e-01 -3.174603e-02
     vertex -1.067020e-01  9.363316e-01 -3.174603e-02
   endloop
 endfacet
 facet normal  8.353689e-01 -5.496897e-01  0.000000e+00
   outer loop
     vertex  8.060169e-02  5.418141e-01 -1.587302e-02
     vertex  9.788361e-02  5.680776e-01 -3.174603e-02
     vertex  9.788361e-02  5.680776e-01 -1.587302e-02
   endloop
 endfacet
 facet normal  8.353689e-01 -5.496897e-01  0.000000e+00
   outer loop
     vertex  8.060169e-02  5.418141e-01 -1.587302e-02
     vertex  8.060169e-02  5.418141e-01 -3.174603e-02
     vertex  9.788361e-02  5.680776e-01 -3.174603e-02
   endloop
 endfacet
 facet normal  8.965065e-01 -4.430305e-01  0.000000e+00
   outer loop
     vertex  6.667306e-02  5.136284e-01 -1.587302e-02
     vertex  6.667306e-02  5.136284e-01 -3.174603e-02
     vertex  8.060169e-02  5.418141e-01 -3.174603e-02
   endloop
 endfacet
 facet normal  8.965065e-01 -4.430305e-01  0.000000e+00
   outer loop
     vertex  6.667306e-02  5.136284e-01 -1.587302e-02
     vertex  8.060169e-02  5.418141e-01 -3.174603e-02
     vertex  8.060169e-02  5.418141e-01 -1.587302e-02
   endloop
 endfacet
 facet normal  9.440944e-01 -3.296754e-01  0.000000e+00
   outer loop
     vertex  5.630826e-02  4.839466e-01 -1.587302e-02
     vertex  5.630826e-02  4.839466e-01 -3.174603e-02
     vertex  6.667306e-02  5.136284e-01 -3.174603e-02
   endloop
 endfacet
 facet normal  9.440944e-01 -3.296754e-01  0.000000e+00
   outer loop
     vertex  5.630826e-02  4.839466e-01 -1.587302e-02
     vertex  6.667306e-02  5.136284e-01 -3.174603e-02
     vertex  6.667306e-02  5.136284e-01 -1.587302e-02
   endloop
 endfacet
 facet normal  9.774131e-01 -2.113375e-01  0.000000e+00
   outer loop
     vertex  4.966393e-02  4.532173e-01 -1.587302e-02
     vertex  4.966393e-02  4.532173e-01 -3.174603e-02
     vertex  5.630826e-02  4.839466e-01 -3.174603e-02
   endloop
 endfacet
 facet normal  9.774131e-01 -2.113375e-01  0.000000e+00
   outer loop
     vertex  4.966393e-02  4.532173e-01 -1.587302e-02
     vertex  5.630826e-02  4.839466e-01 -3.174603e-02
     vertex  5.630826e-02  4.839466e-01 -1.587302e-02
   endloop
 endfacet
 facet normal  9.959593e-01 -8.980551e-02  0.000000e+00
   outer loop
     vertex  4.684050e-02  4.219049e-01 -1.587302e-02
     vertex  4.684050e-02  4.219049e-01 -3.174603e-02
     vertex  4.966393e-02  4.532173e-01 -3.174603e-02
   endloop
 endfacet
 facet normal  9.959593e-01 -8.980551e-02  0.000000e+00
   outer loop
     vertex  4.684050e-02  4.219049e-01 -1.587302e-02
     vertex  4.966393e-02  4.532173e-01 -3.174603e-02
     vertex  4.966393e-02  4.532173e-01 -1.587302e-02
   endloop
 endfacet
 facet normal  9.994526e-01  3.308382e-02  0.000000e+00
   outer loop
     vertex  4.788064e-02  3.904827e-01 -1.587302e-02
     vertex  4.684050e-02  4.219049e-01 -3.174603e-02
     vertex  4.684050e-02  4.219049e-01 -1.587302e-02
   endloop
 endfacet
 facet normal  9.994526e-01  3.308382e-02  0.000000e+00
   outer loop
     vertex  4.788064e-02  3.904827e-01 -1.587302e-02
     vertex  4.788064e-02  3.904827e-01 -3.174603e-02
     vertex  4.684050e-02  4.219049e-01 -3.174603e-02
   endloop
 endfacet
 facet normal  9.878401e-01  1.554731e-01  0.000000e+00
   outer loop
     vertex  5.276862e-02  3.594256e-01 -1.587302e-02
     vertex  4.788064e-02  3.904827e-01 -3.174603e-02
     vertex  4.788064e-02  3.904827e-01 -1.587302e-02
   endloop
 endfacet
 facet normal  9.878401e-01  1.554731e-01  0.000000e+00
   outer loop
     vertex  5.276862e-02  3.594256e-01 -1.587302e-02
     vertex  5.276862e-02  3.594256e-01 -3.174603e-02
     vertex  4.788064e-02  3.904827e-01 -3.174603e-02
   endloop
 endfacet
 facet normal  9.612975e-01  2.755126e-01  0.000000e+00
   outer loop
     vertex  6.143058e-02  3.292030e-01 -1.587302e-02
     vertex  6.143058e-02  3.292030e-01 -3.174603e-02
     vertex  5.276862e-02  3.594256e-01 -3.174603e-02
   endloop
 endfacet
 facet normal  9.612975e-01  2.755126e-01  0.000000e+00
   outer loop
     vertex  6.143058e-02  3.292030e-01 -1.587302e-02
     vertex  5.276862e-02  3.594256e-01 -3.174603e-02
     vertex  5.276862e-02  3.594256e-01 -1.587302e-02
   endloop
 endfacet
 facet normal  9.202258e-01  3.913880e-01  0.000000e+00
   outer loop
     vertex  7.373559e-02  3.002716e-01 -1.587302e-02
     vertex  7.373559e-02  3.002716e-01 -3.174603e-02
     vertex  6.143058e-02  3.292030e-01 -3.174603e-02
   endloop
 endfacet
 facet normal  9.202258e-01  3.913880e-01  0.000000e+00
   outer loop
     vertex  7.373559e-02  3.002716e-01 -1.587302e-02
     vertex  6.143058e-02  3.292030e-01 -3.174603e-02
     vertex  6.143058e-02  3.292030e-01 -1.587302e-02
   endloop
 endfacet
 facet normal  8.652458e-01  5.013479e-01  0.000000e+00
   outer loop
     vertex  8.949768e-02  2.730688e-01 -1.587302e-02
     vertex  8.949768e-02  2.730688e-01 -3.174603e-02
     vertex  7.373559e-02  3.002716e-01 -3.174603e-02
   endloop
 endfacet
 facet normal  8.652458e-01  5.013479e-01  0.000000e+00
   outer loop
     vertex  8.949768e-02  2.730688e-01 -1.587302e-02
     vertex  7.373559e-02  3.002716e-01 -3.174603e-02
     vertex  7.373559e-02  3.002716e-01 -1.587302e-02
   endloop
 endfacet
 facet normal  7.971885e-01  6.037305e-01  0.000000e+00
   outer loop
     vertex  1.084786e-01  2.480056e-01 -1.587302e-02
     vertex  1.084786e-01  2.480056e-01 -3.174603e-02
     vertex  8.949768e-02  2.730688e-01 -3.174603e-02
   endloop
 endfacet
 facet normal  7.971885e-01  6.037305e-01  0.000000e+00
   outer loop
     vertex  1.084786e-01  2.480056e-01 -1.587302e-02
     vertex  8.949768e-02  2.730688e-01 -3.174603e-02
     vertex  8.949768e-02  2.730688e-01 -1.587302e-02
   endloop
 endfacet
 facet normal  7.170825e-01  6.969883e-01  0.000000e+00
   outer loop
     vertex  1.303915e-01  2.254610e-01 -1.587302e-02
     vertex  1.303915e-01  2.254610e-01 -3.174603e-02
     vertex  1.084786e-01  2.480056e-01 -3.174603e-02
   endloop
 endfacet
 facet normal  7.170825e-01  6.969883e-01  0.000000e+00
   outer loop
     vertex  1.303915e-01  2.254610e-01 -1.587302e-02
     vertex  1.084786e-01  2.480056e-01 -3.174603e-02
     vertex  1.084786e-01  2.480056e-01 -1.587302e-02
   endloop
 endfacet
 facet normal  6.261385e-01  7.797118e-01  0.000000e+00
   outer loop
     vertex  1.549052e-01  2.057756e-01 -1.587302e-02
     vertex  1.549052e-01  2.057756e-01 -3.174603e-02
     vertex  1.303915e-01  2.254610e-01 -3.174603e-02
   endloop
 endfacet
 facet normal  6.261385e-01  7.797118e-01  0.000000e+00
   outer loop
     vertex  1.549052e-01  2.057756e-01 -1.587302e-02
     vertex  1.303915e-01  2.254610e-01 -3.174603e-02
     vertex  1.303915e-01  2.254610e-01 -1.587302e-02
   endloop
 endfacet
 facet normal  5.257311e-01  8.506508e-01  0.000000e+00
   outer loop
     vertex  1.816492e-01  1.892469e-01 -1.587302e-02
     vertex  1.816492e-01  1.892469e-01 -3.174603e-02
     vertex  1.549052e-01  2.057756e-01 -3.174603e-02
   endloop
 endfacet
 facet normal  5.257311e-01  8.506508e-01  0.000000e+00
   outer loop
     vertex  1.816492e-01  1.892469e-01 -1.587302e-02
     vertex  1.549052e-01  2.057756e-01 -3.174603e-02
     vertex  1.549052e-01  2.057756e-01 -1.587302e-02
   endloop
 endfacet
 facet normal  4.173778e-01  9.087331e-01  0.000000e+00
   outer loop
     vertex  2.102192e-01  1.761248e-01 -1.587302e-02
     vertex  2.102192e-01  1.761248e-01 -3.174603e-02
     vertex  1.816492e-01  1.892469e-01 -3.174603e-02
   endloop
 endfacet
 facet normal  4.173778e-01  9.087331e-01  0.000000e+00
   outer loop
     vertex  2.102192e-01  1.761248e-01 -1.587302e-02
     vertex  1.816492e-01  1.892469e-01 -3.174603e-02
     vertex  1.816492e-01  1.892469e-01 -1.587302e-02
   endloop
 endfacet
 facet normal  3.027162e-01  9.530807e-01  0.000000e+00
   outer loop
     vertex  2.401835e-01  1.666075e-01 -1.587302e-02
     vertex  2.401835e-01  1.666075e-01 -3.174603e-02
     vertex  2.102192e-01  1.761248e-01 -3.174603e-02
   endloop
 endfacet
 facet normal  3.027162e-01  9.530807e-01  0.000000e+00
   outer loop
     vertex  2.401835e-01  1.666075e-01 -1.587302e-02
     vertex  2.102192e-01  1.761248e-01 -3.174603e-02
     vertex  2.102192e-01  1.761248e-01 -1.587302e-02
   endloop
 endfacet
 facet normal  1.834794e-01  9.830236e-01  0.000000e+00
   outer loop
     vertex  2.710892e-01  1.608391e-01 -1.587302e-02
     vertex  2.710892e-01  1.608391e-01 -3.174603e-02
     vertex  2.401835e-01  1.666075e-01 -3.174603e-02
   endloop
 endfacet
 facet normal  1.834794e-01  9.830236e-01  0.000000e+00
   outer loop
     vertex  2.710892e-01  1.608391e-01 -1.587302e-02
     vertex  2.401835e-01  1.666075e-01 -3.174603e-02
     vertex  2.401835e-01  1.666075e-01 -1.587302e-02
   endloop
 endfacet
 facet normal  6.146948e-02  9.981090e-01  0.000000e+00
   outer loop
     vertex  3.024692e-01  1.589065e-01 -1.587302e-02
     vertex  3.024692e-01  1.589065e-01 -3.174603e-02
     vertex  2.710892e-01  1.608391e-01 -3.174603e-02
   endloop
 endfacet
 facet normal  6.146948e-02  9.981090e-01  0.000000e+00
   outer loop
     vertex  3.024692e-01  1.589065e-01 -1.587302e-02
     vertex  2.710892e-01  1.608391e-01 -3.174603e-02
     vertex  2.710892e-01  1.608391e-01 -1.587302e-02
   endloop
 endfacet
 facet normal -6.146948e-02  9.981090e-01  0.000000e+00
   outer loop
     vertex  3.338491e-01  1.608391e-01 -1.587302e-02
     vertex  3.338491e-01  1.608391e-01 -3.174603e-02
     vertex  3.024692e-01  1.589065e-01 -3.174603e-02
   endloop
 endfacet
 facet normal -6.146948e-02  9.981090e-01  0.000000e+00
   outer loop
     vertex  3.338491e-01  1.608391e-01 -1.587302e-02
     vertex  3.024692e-01  1.589065e-01 -3.174603e-02
     vertex  3.024692e-01  1.589065e-01 -1.587302e-02
   endloop
 endfacet
 facet normal -1.834794e-01  9.830236e-01  0.000000e+00
   outer loop
     vertex  3.647548e-01  1.666075e-01 -1.587302e-02
     vertex  3.647548e-01  1.666075e-01 -3.174603e-02
     vertex  3.338491e-01  1.608391e-01 -3.174603e-02
   endloop
 endfacet
 facet normal -1.834794e-01  9.830236e-01  0.000000e+00
   outer loop
     vertex  3.647548e-01  1.666075e-01 -1.587302e-02
     vertex  3.338491e-01  1.608391e-01 -3.174603e-02
     vertex  3.338491e-01  1.608391e-01 -1.587302e-02
   endloop
 endfacet
 facet normal -3.027162e-01  9.530807e-01  0.000000e+00
   outer loop
     vertex  3.947191e-01  1.761248e-01 -1.587302e-02
     vertex  3.947191e-01  1.761248e-01 -3.174603e-02
     vertex  3.647548e-01  1.666075e-01 -3.174603e-02
   endloop
 endfacet
 facet normal -3.027162e-01  9.530807e-01  0.000000e+00
   outer loop
     vertex  3.947191e-01  1.761248e-01 -1.587302e-02
     vertex  3.647548e-01  1.666075e-01 -3.174603e-02
     vertex  3.647548e-01  1.666075e-01 -1.587302e-02
   endloop
 endfacet
 facet normal -4.173778e-01  9.087331e-01  0.000000e+00
   outer loop
     vertex  4.232892e-01  1.892469e-01 -1.587302e-02
     vertex  4.232892e-01  1.892469e-01 -3.174603e-02
     vertex  3.947191e-01  1.761248e-01 -3.174603e-02
   endloop
 endfacet
 facet normal -4.173778e-01  9.087331e-01  0.000000e+00
   outer loop
     vertex  4.232892e-01  1.892469e-01 -1.587302e-02
     vertex  3.947191e-01  1.761248e-01 -3.174603e-02
     vertex  3.947191e-01  1.761248e-01 -1.587302e-02
   endloop
 endfacet
 facet normal -5.257311e-01  8.506508e-01  0.000000e+00
   outer loop
     vertex  4.500331e-01  2.057756e-01 -1.587302e-02
     vertex  4.500331e-01  2.057756e-01 -3.174603e-02
     vertex  4.232892e-01  1.892469e-01 -3.174603e-02
   endloop
 endfacet
 facet normal -5.257311e-01  8.506508e-01  0.000000e+00
   outer loop
     vertex  4.500331e-01  2.057756e-01 -1.587302e-02
     vertex  4.232892e-01  1.892469e-01 -3.174603e-02
     vertex  4.232892e-01  1.892469e-01 -1.587302e-02
   endloop
 endfacet
 facet normal -6.261385e-01  7.797118e-01  0.000000e+00
   outer loop
     vertex  4.745468e-01  2.254610e-01 -1.587302e-02
     vertex  4.745468e-01  2.254610e-01 -3.174603e-02
     vertex  4.500331e-01  2.057756e-01 -3.174603e-02
   endloop
 endfacet
 facet normal -6.261385e-01  7.797118e-01  0.000000e+00
   outer loop
     vertex  4.745468e-01  2.254610e-01 -1.587302e-02
     vertex  4.500331e-01  2.057756e-01 -3.174603e-02
     vertex  4.500331e-01  2.057756e-01 -1.587302e-02
   endloop
 endfacet
 facet normal -7.170825e-01  6.969883e-01  0.000000e+00
   outer loop
     vertex  4.964597e-01  2.480056e-01 -1.587302e-02
     vertex  4.964597e-01  2.480056e-01 -3.174603e-02
     vertex  4.745468e-01  2.254610e-01 -3.174603e-02
   endloop
 endfacet
 facet normal -7.170825e-01  6.969883e-01  0.000000e+00
   outer loop
     vertex  4.964597e-01  2.480056e-01 -1.587302e-02
     vertex  4.745468e-01  2.254610e-01 -3.174603e-02
     vertex  4.745468e-01  2.254610e-01 -1.587302e-02
   endloop
 endfacet
 facet normal -7.971885e-01  6.037305e-01  0.000000e+00
   outer loop
     vertex  5.154407e-01  2.730688e-01 -1.587302e-02
     vertex  5.154407e-01  2.730688e-01 -3.174603e-02
     vertex  4.964597e-01  2.480056e-01 -3.174603e-02
   endloop
 endfacet
 facet normal -7.971885e-01  6.037305e-01  0.000000e+00
   outer loop
     vertex  5.154407e-01  2.730688e-01 -1.587302e-02
     vertex  4.964597e-01  2.480056e-01 -3.174603e-02
     vertex  4.964597e-01  2.480056e-01 -1.587302e-02
   endloop
 endfacet
 facet normal -8.652458e-01  5.013479e-01  0.000000e+00
   outer loop
     vertex  5.312028e-01  3.002716e-01 -1.587302e-02
     vertex  5.312028e-01  3.002716e-01 -3.174603e-02
     vertex  5.154407e-01  2.730688e-01 -3.174603e-02
   endloop
 endfacet
 facet normal -8.652458e-01  5.013479e-01  0.000000e+00
   outer loop
     vertex  5.312028e-01  3.002716e-01 -1.587302e-02
     vertex  5.154407e-01  2.730688e-01 -3.174603e-02
     vertex  5.154407e-01  2.730688e-01 -1.587302e-02
   endloop
 endfacet
 facet normal -9.202258e-01  3.913880e-01  0.000000e+00
   outer loop
     vertex  5.435078e-01  3.292030e-01 -1.587302e-02
     vertex  5.435078e-01  3.292030e-01 -3.174603e-02
     vertex  5.312028e-01  3.002716e-01 -3.174603e-02
   endloop
 endfacet
 facet normal -9.202258e-01  3.913880e-01  0.000000e+00
   outer loop
     vertex  5.435078e-01  3.292030e-01 -1.587302e-02
     vertex  5.312028e-01  3.002716e-01 -3.174603e-02
     vertex  5.312028e-01  3.002716e-01 -1.587302e-02
   endloop
 endfacet
 facet normal -9.612975e-01  2.755126e-01  0.000000e+00
   outer loop
     vertex  5.521697e-01  3.594256e-01 -1.587302e-02
     vertex  5.521697e-01  3.594256e-01 -3.174603e-02
     vertex  5.435078e-01  3.292030e-01 -3.174603e-02
   endloop
 endfacet
 facet normal -9.612975e-01  2.755126e-01  0.000000e+00
   outer loop
     vertex  5.521697e-01  3.594256e-01 -1.587302e-02
     vertex  5.435078e-01  3.292030e-01 -3.174603e-02
     vertex  5.435078e-01  3.292030e-01 -1.587302e-02
   endloop
 endfacet
 facet normal -9.878401e-01  1.554731e-01  0.000000e+00
   outer loop
     vertex  5.570577e-01  3.904827e-01 -1.587302e-02
     vertex  5.570577e-01  3.904827e-01 -3.174603e-02
     vertex  5.521697e-01  3.594256e-01 -3.174603e-02
   endloop
 endfacet
 facet normal -9.878401e-01  1.554731e-01  0.000000e+00
   outer loop
     vertex  5.570577e-01  3.904827e-01 -1.587302e-02
     vertex  5.521697e-01  3.594256e-01 -3.174603e-02
     vertex  5.521697e-01  3.594256e-01 -1.587302e-02
   endloop
 endfacet
 facet normal -9.994526e-01  3.308382e-02  0.000000e+00
   outer loop
     vertex  5.580979e-01  4.219049e-01 -1.587302e-02
     vertex  5.580979e-01  4.219049e-01 -3.174603e-02
     vertex  5.570577e-01  3.904827e-01 -3.174603e-02
   endloop
 endfacet
 facet normal -9.994526e-01  3.308382e-02  0.000000e+00
   outer loop
     vertex  5.580979e-01  4.219049e-01 -1.587302e-02
     vertex  5.570577e-01  3.904827e-01 -3.174603e-02
     vertex  5.570577e-01  3.904827e-01 -1.587302e-02
   endloop
 endfacet
 facet normal -9.959593e-01 -8.980551e-02  0.000000e+00
   outer loop
     vertex  5.552744e-01  4.532173e-01 -1.587302e-02
     vertex  5.580979e-01  4.219049e-01 -3.174603e-02
     vertex  5.580979e-01  4.219049e-01 -1.587302e-02
   endloop
 endfacet
 facet normal -9.959593e-01 -8.980551e-02 -0.000000e+00
   outer loop
     vertex  5.552744e-01  4.532173e-01 -1.587302e-02
     vertex  5.552744e-01  4.532173e-01 -3.174603e-02
     vertex  5.580979e-01  4.219049e-01 -3.174603e-02
   endloop
 endfacet
 facet normal -9.774131e-01 -2.113375e-01  0.000000e+00
   outer loop
     vertex  5.486301e-01  4.839466e-01 -1.587302e-02
     vertex  5.552744e-01  4.532173e-01 -3.174603e-02
     vertex  5.552744e-01  4.532173e-01 -1.587302e-02
   endloop
 endfacet
 facet normal -9.774131e-01 -2.113375e-01 -0.000000e+00
   outer loop
     vertex  5.486301e-01  4.839466e-01 -1.587302e-02
     vertex  5.486301e-01  4.839466e-01 -3.174603e-02
     vertex  5.552744e-01  4.532173e-01 -3.174603e-02
   endloop
 endfacet
 facet normal -9.440944e-01 -3.296754e-01  0.000000e+00
   outer loop
     vertex  5.382653e-01  5.136284e-01 -1.587302e-02
     vertex  5.486301e-01  4.839466e-01 -3.174603e-02
     vertex  5.486301e-01  4.839466e-01 -1.587302e-02
   endloop
 endfacet
 facet normal -9.440944e-01 -3.296754e-01 -0.000000e+00
   outer loop
     vertex  5.382653e-01  5.136284e-01 -1.587302e-02
     vertex  5.382653e-01  5.136284e-01 -3.174603e-02
     vertex  5.486301e-01  4.839466e-01 -3.174603e-02
   endloop
 endfacet
 facet normal -8.965065e-01 -4.430305e-01  0.000000e+00
   outer loop
     vertex  5.243367e-01  5.418141e-01 -1.587302e-02
     vertex  5.382653e-01  5.136284e-01 -3.174603e-02
     vertex  5.382653e-01  5.136284e-01 -1.587302e-02
   endloop
 endfacet
 facet normal -8.965065e-01 -4.430305e-01 -0.000000e+00
   outer loop
     vertex  5.243367e-01  5.418141e-01 -1.587302e-02
     vertex  5.243367e-01  5.418141e-01 -3.174603e-02
     vertex  5.382653e-01  5.136284e-01 -3.174603e-02
   endloop
 endfacet
 facet normal -8.353689e-01 -5.496897e-01  0.000000e+00
   outer loop
     vertex  5.070547e-01  5.680776e-01 -1.587302e-02
     vertex  5.243367e-01  5.418141e-01 -3.174603e-02
     vertex  5.243367e-01  5.418141e-01 -1.587302e-02
   endloop
 endfacet
 facet normal -8.353689e-01 -5.496897e-01 -0.000000e+00
   outer loop
     vertex  5.070547e-01  5.680776e-01 -1.587302e-02
     vertex  5.070547e-01  5.680776e-01 -3.174603e-02
     vertex  5.243367e-01  5.418141e-01 -3.174603e-02
   endloop
 endfacet
 facet normal -1.000000e+00 -0.000000e+00  0.000000e+00
   outer loop
     vertex  5.070547e-01  6.703703e-01 -1.587302e-02
     vertex  5.070547e-01  5.680776e-01 -3.174603e-02
     vertex  5.070547e-01  5.680776e-01 -1.587302e-02
   endloop
 endfacet
 facet normal -1.000000e+00  0.000000e+00 -0.000000e+00
   outer loop
     vertex  5.070547e-01  6.703703e-01 -1.587302e-02
     vertex  5.070547e-01  6.703703e-01 -3.174603e-02
     vertex  5.070547e-01  5.680776e-01 -3.174603e-02
   endloop
 endfacet
 facet normal  0.000000e+00 -1.000000e+00  0.000000e+00
   outer loop
     vertex  3.638448e-01  6.703703e-01 -1.587302e-02
     vertex  5.070547e-01  6.703703e-01 -3.174603e-02
     vertex  5.070547e-01  6.703703e-01 -1.587302e-02
   endloop
 endfacet
 facet normal  0.000000e+00 -1.000000e+00  0.000000e+00
   outer loop
     vertex  3.638448e-01  6.703703e-01 -1.587302e-02
     vertex  3.638448e-01  6.703703e-01 -3.174603e-02
     vertex  5.070547e-01  6.703703e-01 -3.174603e-02
   endloop
 endfacet
 facet normal -1.000000e+00 -0.000000e+00  0.000000e+00
   outer loop
     vertex  3.638448e-01  8.749559e-01 -1.587302e-02
     vertex  3.638448e-01  6.703703e-01 -3.174603e-02
     vertex  3.638448e-01  6.703703e-01 -1.587302e-02
   endloop
 endfacet
 facet normal -1.000000e+00  0.000000e+00 -0.000000e+00
   outer loop
     vertex  3.638448e-01  8.749559e-01 -1.587302e-02
     vertex  3.638448e-01  8.749559e-01 -3.174603e-02
     vertex  3.638448e-01  6.703703e-01 -3.174603e-02
   endloop
 endfacet
 facet normal  0.000000e+00 -1.000000e+00  0.000000e+00
   outer loop
     vertex  2.410935e-01  8.749559e-01 -1.587302e-02
     vertex  3.638448e-01  8.749559e-01 -3.174603e-02
     vertex  3.638448e-01  8.749559e-01 -1.587302e-02
   endloop
 endfacet
 facet normal  0.000000e+00 -1.000000e+00  0.000000e+00
   outer loop
     vertex  2.410935e-01  8.749559e-01 -1.587302e-02
     vertex  2.410935e-01  8.749559e-01 -3.174603e-02
     vertex  3.638448e-01  8.749559e-01 -3.174603e-02
   endloop
 endfacet
 facet normal  1.000000e+00 -0.000000e+00  0.000000e+00
   outer loop
     vertex  2.410935e-01  6.703703e-01 -1.587302e-02
     vertex  2.410935e-01  8.749559e-01 -3.174603e-02
     vertex  2.410935e-01  8.749559e-01 -1.587302e-02
   endloop
 endfacet
 facet normal  1.000000e+00  0.000000e+00  0.000000e+00
   outer loop
     vertex  2.410935e-01  6.703703e-01 -1.587302e-02
     vertex  2.410935e-01  6.703703e-01 -3.174603e-02
     vertex  2.410935e-01  8.749559e-01 -3.174603e-02
   endloop
 endfacet
 facet normal  0.000000e+00 -1.000000e+00  0.000000e+00
   outer loop
     vertex  9.788361e-02  6.703703e-01 -1.587302e-02
     vertex  2.410935e-01  6.703703e-01 -3.174603e-02
     vertex  2.410935e-01  6.703703e-01 -1.587302e-02
   endloop
 endfacet
 facet normal  0.000000e+00 -1.000000e+00  0.000000e+00
   outer loop
     vertex  9.788361e-02  6.703703e-01 -1.587302e-02
     vertex  9.788361e-02  6.703703e-01 -3.174603e-02
     vertex  2.410935e-01  6.703703e-01 -3.174603e-02
   endloop
 endfacet
 facet normal  1.000000e+00  1.356673e-16  0.000000e+00
   outer loop
     vertex  9.788361e-02  5.680776e-01 -1.587302e-02
     vertex  9.788361e-02  6.703703e-01 -3.174603e-02
     vertex  9.788361e-02  6.703703e-01 -1.587302e-02
   endloop
 endfacet
 facet normal  1.000000e+00  1.356673e-16  0.000000e+00
   outer loop
     vertex  9.788361e-02  5.680776e-01 -1.587302e-02
     vertex  9.788361e-02  5.680776e-01 -3.174603e-02
     vertex  9.788361e-02  6.703703e-01 -3.174603e-02
   endloop
 endfacet
endsolid
