solid 
 facet normal  1.922718e-02  0.000000e+00 -9.998151e-01
   outer loop
     vertex -1.592592e-01 -1.587302e-02  2.874777e-02
     vertex -1.002998e+00 -5.079365e-01  1.252204e-02
     vertex -1.002998e+00 -1.587302e-02  1.252204e-02
   endloop
 endfacet
 facet normal  1.922718e-02  0.000000e+00 -9.998151e-01
   outer loop
     vertex -1.592592e-01 -1.587302e-02  2.874777e-02
     vertex -1.592592e-01 -5.079365e-01  2.874777e-02
     vertex -1.002998e+00 -5.079365e-01  1.252204e-02
   endloop
 endfacet
 facet normal -9.995921e-01  0.000000e+00  2.855989e-02
   outer loop
     vertex -1.002998e+00 -1.587302e-02  1.252204e-02
     vertex -9.867725e-01 -5.079365e-01  5.804233e-01
     vertex -9.867725e-01 -1.587302e-02  5.804233e-01
   endloop
 endfacet
 facet normal -9.995921e-01  0.000000e+00  2.855989e-02
   outer loop
     vertex -1.002998e+00 -1.587302e-02  1.252204e-02
     vertex -1.002998e+00 -5.079365e-01  1.252204e-02
     vertex -9.867725e-01 -5.079365e-01  5.804233e-01
   endloop
 endfacet
 facet normal  9.983713e-01  0.000000e+00  5.704975e-02
   outer loop
     vertex -1.917107e-01 -1.587302e-02  5.966491e-01
     vertex -1.592592e-01 -5.079365e-01  2.874777e-02
     vertex -1.592592e-01 -1.587302e-02  2.874777e-02
   endloop
 endfacet
 facet normal  9.983713e-01  0.000000e+00  5.704975e-02
   outer loop
     vertex -1.917107e-01 -1.587302e-02  5.966491e-01
     vertex -1.917107e-01 -5.079365e-01  5.966491e-01
     vertex -1.592592e-01 -5.079365e-01  2.874777e-02
   endloop
 endfacet
 facet normal  1.922718e-02  0.000000e+00 -9.998151e-01
   outer loop
     vertex -1.592592e-01 -1.587302e-02  2.874777e-02
     vertex -1.002998e+00 -1.587302e-02  1.252204e-02
     vertex -1.002998e+00  0.000000e+00  1.252204e-02
   endloop
 endfacet
 facet normal  1.922718e-02  0.000000e+00 -9.998151e-01
   outer loop
     vertex -1.592592e-01 -1.587302e-02  2.874777e-02
     vertex -1.002998e+00  0.000000e+00  1.252204e-02
     vertex -1.592592e-01  0.000000e+00  2.874777e-02
   endloop
 endfacet
 facet normal -0.000000e+00 -1.000000e+00  0.000000e+00
   outer loop
     vertex -1.592592e-01 -5.079365e-01  2.874777e-02
     vertex -9.867725e-01 -5.079365e-01  5.804233e-01
     vertex -1.002998e+00 -5.079365e-01  1.252204e-02
   endloop
 endfacet
 facet normal  0.000000e+00 -1.000000e+00 -0.000000e+00
   outer loop
     vertex -1.917107e-01 -5.079365e-01  5.966491e-01
     vertex -9.867725e-01 -5.079365e-01  5.804233e-01
     vertex -1.592592e-01 -5.079365e-01  2.874777e-02
   endloop
 endfacet
 facet normal -2.040400e-02  0.000000e+00  9.997918e-01
   outer loop
     vertex -9.867725e-01 -1.587302e-02  5.804233e-01
     vertex -1.917107e-01 -5.079365e-01  5.966491e-01
     vertex -1.917107e-01 -1.587302e-02  5.966491e-01
   endloop
 endfacet
 facet normal -2.040400e-02  0.000000e+00  9.997918e-01
   outer loop
     vertex -9.867725e-01 -1.587302e-02  5.804233e-01
     vertex -9.867725e-01 -5.079365e-01  5.804233e-01
     vertex -1.917107e-01 -5.079365e-01  5.966491e-01
   endloop
 endfacet
 facet normal -9.995921e-01  0.000000e+00  2.855989e-02
   outer loop
     vertex -1.002998e+00 -1.587302e-02  1.252204e-02
     vertex -9.867725e-01 -1.587302e-02  5.804233e-01
     vertex -9.867725e-01  0.000000e+00  5.804233e-01
   endloop
 endfacet
 facet normal -9.995921e-01  0.000000e+00  2.855989e-02
   outer loop
     vertex -1.002998e+00 -1.587302e-02  1.252204e-02
     vertex -9.867725e-01  0.000000e+00  5.804233e-01
     vertex -1.002998e+00  0.000000e+00  1.252204e-02
   endloop
 endfacet
 facet normal  9.983713e-01  0.000000e+00  5.704975e-02
   outer loop
     vertex -1.917107e-01 -1.587302e-02  5.966491e-01
     vertex -1.592592e-01 -1.587302e-02  2.874777e-02
     vertex -1.592592e-01  0.000000e+00  2.874777e-02
   endloop
 endfacet
 facet normal  9.983713e-01 -0.000000e+00  5.704975e-02
   outer loop
     vertex -1.917107e-01 -1.587302e-02  5.966491e-01
     vertex -1.592592e-01  0.000000e+00  2.874777e-02
     vertex -1.917107e-01  0.000000e+00  5.966491e-01
   endloop
 endfacet
 facet normal  0.000000e+00  1.000000e+00  0.000000e+00
   outer loop
     vertex -1.592592e-01 -4.510281e-17  2.874777e-02
     vertex -1.002998e+00 -4.510281e-17  1.252204e-02
     vertex -9.867725e-01 -4.510281e-17  5.804233e-01
   endloop
 endfacet
 facet normal  0.000000e+00  1.000000e+00  0.000000e+00
   outer loop
     vertex -1.917107e-01 -4.510281e-17  5.966491e-01
     vertex -1.592592e-01 -4.510281e-17  2.874777e-02
     vertex -9.867725e-01 -4.510281e-17  5.804233e-01
   endloop
 endfacet
 facet normal -2.040400e-02  0.000000e+00  9.997918e-01
   outer loop
     vertex -9.867725e-01 -1.587302e-02  5.804233e-01
     vertex -1.917107e-01 -1.587302e-02  5.966491e-01
     vertex -1.917107e-01  0.000000e+00  5.966491e-01
   endloop
 endfacet
 facet normal -2.040400e-02  0.000000e+00  9.997918e-01
   outer loop
     vertex -9.867725e-01 -1.587302e-02  5.804233e-01
     vertex -1.917107e-01  0.000000e+00  5.966491e-01
     vertex -9.867725e-01  0.000000e+00  5.804233e-01
   endloop
 endfacet
endsolid
