solid 
 facet normal -8.574929e-01 -5.144957e-01  0.000000e+00
   outer loop
     vertex  2.573192e-01 -3.615528e-02 -1.587302e-02
     vertex -2.463846e-01  8.033510e-01  4.126984e-01
     vertex -2.463846e-01  8.033510e-01 -1.587302e-02
   endloop
 endfacet
 facet normal -8.574929e-01 -5.144957e-01  0.000000e+00
   outer loop
     vertex  2.573192e-01 -3.615528e-02 -1.587302e-02
     vertex  2.573192e-01 -3.615528e-02  4.126984e-01
     vertex -2.463846e-01  8.033510e-01  4.126984e-01
   endloop
 endfacet
 facet normal -1.643989e-01  9.863939e-01  0.000000e+00
   outer loop
     vertex -2.463846e-01  8.033510e-01 -1.587302e-02
     vertex  4.731922e-01  9.232804e-01  4.126984e-01
     vertex  4.731922e-01  9.232804e-01 -1.587302e-02
   endloop
 endfacet
 facet normal -1.643989e-01  9.863939e-01  0.000000e+00
   outer loop
     vertex -2.463846e-01  8.033510e-01 -1.587302e-02
     vertex -2.463846e-01  8.033510e-01  4.126984e-01
     vertex  4.731922e-01  9.232804e-01  4.126984e-01
   endloop
 endfacet
 facet normal  1.820893e-01 -9.832820e-01  0.000000e+00
   outer loop
     vertex  9.049382e-01  8.377421e-02 -1.587302e-02
     vertex  2.573192e-01 -3.615528e-02  4.126984e-01
     vertex  2.573192e-01 -3.615528e-02 -1.587302e-02
   endloop
 endfacet
 facet normal  1.820893e-01 -9.832820e-01  0.000000e+00
   outer loop
     vertex  9.049382e-01  8.377421e-02 -1.587302e-02
     vertex  9.049382e-01  8.377421e-02  4.126984e-01
     vertex  2.573192e-01 -3.615528e-02  4.126984e-01
   endloop
 endfacet
 facet normal -8.574929e-01 -5.144957e-01  0.000000e+00
   outer loop
     vertex  2.573192e-01 -3.615528e-02 -1.587302e-02
     vertex -2.463846e-01  8.033510e-01 -1.587302e-02
     vertex -2.463846e-01  8.033510e-01 -3.174603e-02
   endloop
 endfacet
 facet normal -8.574929e-01 -5.144957e-01 -0.000000e+00
   outer loop
     vertex  2.573192e-01 -3.615528e-02 -1.587302e-02
     vertex -2.463846e-01  8.033510e-01 -3.174603e-02
     vertex  2.573192e-01 -3.615528e-02 -3.174603e-02
   endloop
 endfacet
 facet normal  0.000000e+00  0.000000e+00  1.000000e+00
   outer loop
     vertex  4.731922e-01  9.232804e-01  4.126984e-01
     vertex -2.463846e-01  8.033510e-01  4.126984e-01
     vertex  2.573192e-01 -3.615528e-02  4.126984e-01
   endloop
 endfacet
 facet normal  0.000000e+00  0.000000e+00  1.000000e+00
   outer loop
     vertex  4.731922e-01  9.232804e-01  4.126984e-01
     vertex  2.573192e-01 -3.615528e-02  4.126984e-01
     vertex  9.049382e-01  8.377421e-02  4.126984e-01
   endloop
 endfacet
 facet normal  8.892878e-01  4.573480e-01  0.000000e+00
   outer loop
     vertex  4.731922e-01  9.232804e-01 -1.587302e-02
     vertex  9.049382e-01  8.377421e-02  4.126984e-01
     vertex  9.049382e-01  8.377421e-02 -1.587302e-02
   endloop
 endfacet
 facet normal  8.892878e-01  4.573480e-01 -0.000000e+00
   outer loop
     vertex  4.731922e-01  9.232804e-01 -1.587302e-02
     vertex  4.731922e-01  9.232804e-01  4.126984e-01
     vertex  9.049382e-01  8.377421e-02  4.126984e-01
   endloop
 endfacet
 facet normal -1.643989e-01  9.863939e-01  0.000000e+00
   outer loop
     vertex -2.463846e-01  8.033510e-01 -1.587302e-02
     vertex  4.731922e-01  9.232804e-01 -1.587302e-02
     vertex  4.731922e-01  9.232804e-01 -3.174603e-02
   endloop
 endfacet
 facet normal -1.643989e-01  9.863939e-01  0.000000e+00
   outer loop
     vertex -2.463846e-01  8.033510e-01 -1.587302e-02
     vertex  4.731922e-01  9.232804e-01 -3.174603e-02
     vertex -2.463846e-01  8.033510e-01 -3.174603e-02
   endloop
 endfacet
 facet normal  1.820893e-01 -9.832820e-01  0.000000e+00
   outer loop
     vertex  9.049382e-01  8.377421e-02 -1.587302e-02
     vertex  2.573192e-01 -3.615528e-02 -1.587302e-02
     vertex  2.573192e-01 -3.615528e-02 -3.174603e-02
   endloop
 endfacet
 facet normal  1.820893e-01 -9.832820e-01  0.000000e+00
   outer loop
     vertex  9.049382e-01  8.377421e-02 -1.587302e-02
     vertex  2.573192e-01 -3.615528e-02 -3.174603e-02
     vertex  9.049382e-01  8.377421e-02 -3.174603e-02
   endloop
 endfacet
 facet normal  0.000000e+00  0.000000e+00 -1.000000e+00
   outer loop
     vertex  4.731922e-01  9.232804e-01 -3.174603e-02
     vertex  2.573192e-01 -3.615528e-02 -3.174603e-02
     vertex -2.463846e-01  8.033510e-01 -3.174603e-02
   endloop
 endfacet
 facet normal  0.000000e+00 -0.000000e+00 -1.000000e+00
   outer loop
     vertex  4.731922e-01  9.232804e-01 -3.174603e-02
     vertex  9.049382e-01  8.377421e-02 -3.174603e-02
     vertex  2.573192e-01 -3.615528e-02 -3.174603e-02
   endloop
 endfacet
 facet normal  8.892878e-01  4.573480e-01  0.000000e+00
   outer loop
     vertex  4.731922e-01  9.232804e-01 -1.587302e-02
     vertex  9.049382e-01  8.377421e-02 -1.587302e-02
     vertex  9.049382e-01  8.377421e-02 -3.174603e-02
   endloop
 endfacet
 facet normal  8.892878e-01  4.573480e-01  0.000000e+00
   outer loop
     vertex  4.731922e-01  9.232804e-01 -1.587302e-02
     vertex  9.049382e-01  8.377421e-02 -3.174603e-02
     vertex  4.731922e-01  9.232804e-01 -3.174603e-02
   endloop
 endfacet
endsolid
