solid 
 facet normal -0.000000e+00  0.000000e+00 -1.000000e+00
   outer loop
     vertex  3.564375e-01 -1.587302e-02 -2.310413e-02
     vertex -3.298052e-02 -6.984127e-01 -2.310413e-02
     vertex -3.298052e-02 -1.587302e-02 -2.310413e-02
   endloop
 endfacet
 facet normal  0.000000e+00 -0.000000e+00 -1.000000e+00
   outer loop
     vertex  3.564375e-01 -1.587302e-02 -2.310413e-02
     vertex  3.564375e-01 -6.984127e-01 -2.310413e-02
     vertex -3.298052e-02 -6.984127e-01 -2.310413e-02
   endloop
 endfacet
 facet normal -1.000000e+00  0.000000e+00  0.000000e+00
   outer loop
     vertex -3.298052e-02 -1.587302e-02 -2.310413e-02
     vertex -3.298052e-02 -6.984127e-01  4.961199e-01
     vertex -3.298052e-02 -1.587302e-02  4.961199e-01
   endloop
 endfacet
 facet normal -1.000000e+00  0.000000e+00  0.000000e+00
   outer loop
     vertex -3.298052e-02 -1.587302e-02 -2.310413e-02
     vertex -3.298052e-02 -6.984127e-01 -2.310413e-02
     vertex -3.298052e-02 -6.984127e-01  4.961199e-01
   endloop
 endfacet
 facet normal  1.000000e+00  0.000000e+00  0.000000e+00
   outer loop
     vertex  3.564375e-01 -1.587302e-02  4.961199e-01
     vertex  3.564375e-01 -6.984127e-01 -2.310413e-02
     vertex  3.564375e-01 -1.587302e-02 -2.310413e-02
   endloop
 endfacet
 facet normal  1.000000e+00  0.000000e+00  0.000000e+00
   outer loop
     vertex  3.564375e-01 -1.587302e-02  4.961199e-01
     vertex  3.564375e-01 -6.984127e-01  4.961199e-01
     vertex  3.564375e-01 -6.984127e-01 -2.310413e-02
   endloop
 endfacet
 facet normal  0.000000e+00  0.000000e+00 -1.000000e+00
   outer loop
     vertex  3.564375e-01 -1.587302e-02 -2.310413e-02
     vertex -3.298052e-02 -1.587302e-02 -2.310413e-02
     vertex -3.298052e-02  0.000000e+00 -2.310413e-02
   endloop
 endfacet
 facet normal  0.000000e+00  0.000000e+00 -1.000000e+00
   outer loop
     vertex  3.564375e-01 -1.587302e-02 -2.310413e-02
     vertex -3.298052e-02  0.000000e+00 -2.310413e-02
     vertex  3.564375e-01  0.000000e+00 -2.310413e-02
   endloop
 endfacet
 facet normal  0.000000e+00 -1.000000e+00 -0.000000e+00
   outer loop
     vertex  3.564375e-01 -6.984127e-01  4.961199e-01
     vertex -3.298052e-02 -6.984127e-01 -2.310413e-02
     vertex  3.564375e-01 -6.984127e-01 -2.310413e-02
   endloop
 endfacet
 facet normal -0.000000e+00 -1.000000e+00  0.000000e+00
   outer loop
     vertex  3.564375e-01 -6.984127e-01  4.961199e-01
     vertex -3.298052e-02 -6.984127e-01  4.961199e-01
     vertex -3.298052e-02 -6.984127e-01 -2.310413e-02
   endloop
 endfacet
 facet normal  0.000000e+00 -1.000000e+00 -0.000000e+00
   outer loop
     vertex  1.617285e-01 -6.984127e-01  9.179894e-01
     vertex -3.298052e-02 -6.984127e-01  4.961199e-01
     vertex  3.564375e-01 -6.984127e-01  4.961199e-01
   endloop
 endfacet
 facet normal -9.079594e-01  0.000000e+00  4.190581e-01
   outer loop
     vertex -3.298052e-02 -1.587302e-02  4.961199e-01
     vertex  1.617285e-01 -6.984127e-01  9.179894e-01
     vertex  1.617285e-01 -1.587302e-02  9.179894e-01
   endloop
 endfacet
 facet normal -9.079594e-01  0.000000e+00  4.190581e-01
   outer loop
     vertex -3.298052e-02 -1.587302e-02  4.961199e-01
     vertex -3.298052e-02 -6.984127e-01  4.961199e-01
     vertex  1.617285e-01 -6.984127e-01  9.179894e-01
   endloop
 endfacet
 facet normal -1.000000e+00  0.000000e+00  0.000000e+00
   outer loop
     vertex -3.298052e-02 -1.587302e-02 -2.310413e-02
     vertex -3.298052e-02 -1.587302e-02  4.961199e-01
     vertex -3.298052e-02  0.000000e+00  4.961199e-01
   endloop
 endfacet
 facet normal -1.000000e+00  0.000000e+00  0.000000e+00
   outer loop
     vertex -3.298052e-02 -1.587302e-02 -2.310413e-02
     vertex -3.298052e-02  0.000000e+00  4.961199e-01
     vertex -3.298052e-02  0.000000e+00 -2.310413e-02
   endloop
 endfacet
 facet normal  9.079594e-01  0.000000e+00  4.190582e-01
   outer loop
     vertex  1.617285e-01 -1.587302e-02  9.179894e-01
     vertex  3.564375e-01 -6.984127e-01  4.961199e-01
     vertex  3.564375e-01 -1.587302e-02  4.961199e-01
   endloop
 endfacet
 facet normal  9.079594e-01  0.000000e+00  4.190582e-01
   outer loop
     vertex  1.617285e-01 -1.587302e-02  9.179894e-01
     vertex  1.617285e-01 -6.984127e-01  9.179894e-01
     vertex  3.564375e-01 -6.984127e-01  4.961199e-01
   endloop
 endfacet
 facet normal  1.000000e+00  0.000000e+00  0.000000e+00
   outer loop
     vertex  3.564375e-01 -1.587302e-02  4.961199e-01
     vertex  3.564375e-01 -1.587302e-02 -2.310413e-02
     vertex  3.564375e-01  0.000000e+00 -2.310413e-02
   endloop
 endfacet
 facet normal  1.000000e+00 -0.000000e+00  0.000000e+00
   outer loop
     vertex  3.564375e-01 -1.587302e-02  4.961199e-01
     vertex  3.564375e-01  0.000000e+00 -2.310413e-02
     vertex  3.564375e-01  0.000000e+00  4.961199e-01
   endloop
 endfacet
 facet normal  0.000000e+00  1.000000e+00  0.000000e+00
   outer loop
     vertex  3.564375e-01 -4.510281e-17  4.961199e-01
     vertex  3.564375e-01 -4.510281e-17 -2.310413e-02
     vertex -3.298052e-02 -4.510281e-17 -2.310413e-02
   endloop
 endfacet
 facet normal  0.000000e+00  1.000000e+00  0.000000e+00
   outer loop
     vertex  3.564375e-01 -4.510281e-17  4.961199e-01
     vertex -3.298052e-02 -4.510281e-17 -2.310413e-02
     vertex -3.298052e-02 -4.510281e-17  4.961199e-01
   endloop
 endfacet
 facet normal  0.000000e+00  1.000000e+00  0.000000e+00
   outer loop
     vertex  1.617285e-01 -4.510281e-17  9.179894e-01
     vertex  3.564375e-01 -4.510281e-17  4.961199e-01
     vertex -3.298052e-02 -4.510281e-17  4.961199e-01
   endloop
 endfacet
 facet normal -9.079594e-01  0.000000e+00  4.190581e-01
   outer loop
     vertex -3.298052e-02 -1.587302e-02  4.961199e-01
     vertex  1.617285e-01 -1.587302e-02  9.179894e-01
     vertex  1.617285e-01  0.000000e+00  9.179894e-01
   endloop
 endfacet
 facet normal -9.079594e-01  0.000000e+00  4.190581e-01
   outer loop
     vertex -3.298052e-02 -1.587302e-02  4.961199e-01
     vertex  1.617285e-01  0.000000e+00  9.179894e-01
     vertex -3.298052e-02  0.000000e+00  4.961199e-01
   endloop
 endfacet
 facet normal  9.079594e-01  0.000000e+00  4.190582e-01
   outer loop
     vertex  1.617285e-01 -1.587302e-02  9.179894e-01
     vertex  3.564375e-01 -1.587302e-02  4.961199e-01
     vertex  3.564375e-01  0.000000e+00  4.961199e-01
   endloop
 endfacet
 facet normal  9.079594e-01 -0.000000e+00  4.190582e-01
   outer loop
     vertex  1.617285e-01 -1.587302e-02  9.179894e-01
     vertex  3.564375e-01  0.000000e+00  4.961199e-01
     vertex  1.617285e-01  0.000000e+00  9.179894e-01
   endloop
 endfacet
endsolid
