solid 
 facet normal -6.936416e-01 -7.203202e-01  0.000000e+00
   outer loop
     vertex -1.229277e-01  8.460317e-01 -1.587302e-02
     vertex -1.991182e-01  9.194003e-01  8.571429e-01
     vertex -1.991182e-01  9.194003e-01 -1.587302e-02
   endloop
 endfacet
 facet normal -6.936416e-01 -7.203202e-01  0.000000e+00
   outer loop
     vertex -1.229277e-01  8.460317e-01 -1.587302e-02
     vertex -1.229277e-01  8.460317e-01  8.571429e-01
     vertex -1.991182e-01  9.194003e-01  8.571429e-01
   endloop
 endfacet
 facet normal  0.000000e+00  1.000000e+00  0.000000e+00
   outer loop
     vertex -1.991182e-01  9.194003e-01 -1.587302e-02
     vertex -4.109349e-02  9.194003e-01  8.571429e-01
     vertex -4.109349e-02  9.194003e-01 -1.587302e-02
   endloop
 endfacet
 facet normal  0.000000e+00  1.000000e+00  0.000000e+00
   outer loop
     vertex -1.991182e-01  9.194003e-01 -1.587302e-02
     vertex -1.991182e-01  9.194003e-01  8.571429e-01
     vertex -4.109349e-02  9.194003e-01  8.571429e-01
   endloop
 endfacet
 facet normal  0.000000e+00 -1.000000e+00  0.000000e+00
   outer loop
     vertex -3.544976e-02  8.460317e-01 -1.587302e-02
     vertex -1.229277e-01  8.460317e-01  8.571429e-01
     vertex -1.229277e-01  8.460317e-01 -1.587302e-02
   endloop
 endfacet
 facet normal  0.000000e+00 -1.000000e+00  0.000000e+00
   outer loop
     vertex -3.544976e-02  8.460317e-01 -1.587302e-02
     vertex -3.544976e-02  8.460317e-01  8.571429e-01
     vertex -1.229277e-01  8.460317e-01  8.571429e-01
   endloop
 endfacet
 facet normal -6.936416e-01 -7.203202e-01  0.000000e+00
   outer loop
     vertex -1.229277e-01  8.460317e-01 -1.587302e-02
     vertex -1.991182e-01  9.194003e-01 -1.587302e-02
     vertex -1.991182e-01  9.194003e-01 -3.174603e-02
   endloop
 endfacet
 facet normal -6.936416e-01 -7.203202e-01 -0.000000e+00
   outer loop
     vertex -1.229277e-01  8.460317e-01 -1.587302e-02
     vertex -1.991182e-01  9.194003e-01 -3.174603e-02
     vertex -1.229277e-01  8.460317e-01 -3.174603e-02
   endloop
 endfacet
 facet normal  0.000000e+00  0.000000e+00  1.000000e+00
   outer loop
     vertex -4.109349e-02  9.194003e-01  8.571429e-01
     vertex -1.991182e-01  9.194003e-01  8.571429e-01
     vertex -1.229277e-01  8.460317e-01  8.571429e-01
   endloop
 endfacet
 facet normal  0.000000e+00  0.000000e+00  1.000000e+00
   outer loop
     vertex -4.109349e-02  9.194003e-01  8.571429e-01
     vertex -1.229277e-01  8.460317e-01  8.571429e-01
     vertex -3.544976e-02  8.460317e-01  8.571429e-01
   endloop
 endfacet
 facet normal  9.970545e-01  7.669641e-02  0.000000e+00
   outer loop
     vertex -4.109349e-02  9.194003e-01 -1.587302e-02
     vertex -3.544976e-02  8.460317e-01  8.571429e-01
     vertex -3.544976e-02  8.460317e-01 -1.587302e-02
   endloop
 endfacet
 facet normal  9.970545e-01  7.669641e-02 -0.000000e+00
   outer loop
     vertex -4.109349e-02  9.194003e-01 -1.587302e-02
     vertex -4.109349e-02  9.194003e-01  8.571429e-01
     vertex -3.544976e-02  8.460317e-01  8.571429e-01
   endloop
 endfacet
 facet normal -0.000000e+00  1.000000e+00  0.000000e+00
   outer loop
     vertex -1.991182e-01  9.194003e-01 -1.587302e-02
     vertex -4.109349e-02  9.194003e-01 -1.587302e-02
     vertex -4.109349e-02  9.194003e-01 -3.174603e-02
   endloop
 endfacet
 facet normal  0.000000e+00  1.000000e+00  0.000000e+00
   outer loop
     vertex -1.991182e-01  9.194003e-01 -1.587302e-02
     vertex -4.109349e-02  9.194003e-01 -3.174603e-02
     vertex -1.991182e-01  9.194003e-01 -3.174603e-02
   endloop
 endfacet
 facet normal -0.000000e+00 -1.000000e+00  0.000000e+00
   outer loop
     vertex -3.544976e-02  8.460317e-01 -1.587302e-02
     vertex -1.229277e-01  8.460317e-01 -1.587302e-02
     vertex -1.229277e-01  8.460317e-01 -3.174603e-02
   endloop
 endfacet
 facet normal  0.000000e+00 -1.000000e+00 -0.000000e+00
   outer loop
     vertex -3.544976e-02  8.460317e-01 -1.587302e-02
     vertex -1.229277e-01  8.460317e-01 -3.174603e-02
     vertex -3.544976e-02  8.460317e-01 -3.174603e-02
   endloop
 endfacet
 facet normal -0.000000e+00  0.000000e+00 -1.000000e+00
   outer loop
     vertex -4.109349e-02  9.194003e-01 -3.174603e-02
     vertex -1.229277e-01  8.460317e-01 -3.174603e-02
     vertex -1.991182e-01  9.194003e-01 -3.174603e-02
   endloop
 endfacet
 facet normal  0.000000e+00 -0.000000e+00 -1.000000e+00
   outer loop
     vertex -4.109349e-02  9.194003e-01 -3.174603e-02
     vertex -3.544976e-02  8.460317e-01 -3.174603e-02
     vertex -1.229277e-01  8.460317e-01 -3.174603e-02
   endloop
 endfacet
 facet normal  9.970545e-01  7.669641e-02  0.000000e+00
   outer loop
     vertex -4.109349e-02  9.194003e-01 -1.587302e-02
     vertex -3.544976e-02  8.460317e-01 -1.587302e-02
     vertex -3.544976e-02  8.460317e-01 -3.174603e-02
   endloop
 endfacet
 facet normal  9.970545e-01  7.669641e-02  0.000000e+00
   outer loop
     vertex -4.109349e-02  9.194003e-01 -1.587302e-02
     vertex -3.544976e-02  8.460317e-01 -3.174603e-02
     vertex -4.109349e-02  9.194003e-01 -3.174603e-02
   endloop
 endfacet
endsolid
