solid 
 facet normal  3.162278e-01  0.000000e+00 -9.486833e-01
   outer loop
     vertex  9.197530e-01 -1.587302e-02  2.809524e-01
     vertex -2.839515e-02 -6.666667e-01 -3.509703e-02
     vertex -2.839515e-02 -1.587302e-02 -3.509703e-02
   endloop
 endfacet
 facet normal  3.162278e-01  0.000000e+00 -9.486833e-01
   outer loop
     vertex  9.197530e-01 -1.587302e-02  2.809524e-01
     vertex  9.197530e-01 -6.666667e-01  2.809524e-01
     vertex -2.839515e-02 -6.666667e-01 -3.509703e-02
   endloop
 endfacet
 facet normal -1.000000e+00  0.000000e+00  1.611119e-17
   outer loop
     vertex -2.839515e-02 -9.133832e-02  5.396826e-01
     vertex -2.839515e-02 -6.666667e-01  7.550265e-01
     vertex -2.839515e-02 -1.587302e-02  7.550265e-01
   endloop
 endfacet
 facet normal -1.000000e+00 -6.030377e-18  0.000000e+00
   outer loop
     vertex -2.839515e-02 -9.133832e-02  5.396826e-01
     vertex -2.839515e-02 -6.666667e-01  5.396826e-01
     vertex -2.839515e-02 -6.666667e-01  7.550265e-01
   endloop
 endfacet
 facet normal -1.000000e+00 -6.030377e-18  0.000000e+00
   outer loop
     vertex -2.839515e-02 -9.133832e-02  3.174604e-01
     vertex -2.839515e-02 -6.666667e-01 -3.509703e-02
     vertex -2.839515e-02 -6.666667e-01  3.174604e-01
   endloop
 endfacet
 facet normal -1.000000e+00 -0.000000e+00 -9.840800e-18
   outer loop
     vertex -2.839515e-02 -1.587302e-02 -3.509703e-02
     vertex -2.839515e-02 -6.666667e-01 -3.509703e-02
     vertex -2.839515e-02 -9.133832e-02  3.174604e-01
   endloop
 endfacet
 facet normal -1.000000e+00  4.597407e-17  0.000000e+00
   outer loop
     vertex -2.839515e-02 -1.587302e-02 -3.509703e-02
     vertex -2.839515e-02 -9.133832e-02  5.396826e-01
     vertex -2.839515e-02 -1.587302e-02  7.550265e-01
   endloop
 endfacet
 facet normal -1.000000e+00  4.597407e-17  0.000000e+00
   outer loop
     vertex -2.839515e-02 -1.587302e-02 -3.509703e-02
     vertex -2.839515e-02 -9.133832e-02  3.174604e-01
     vertex -2.839515e-02 -9.133832e-02  5.396826e-01
   endloop
 endfacet
 facet normal  1.000000e+00  0.000000e+00  0.000000e+00
   outer loop
     vertex  9.197530e-01 -1.587302e-02  7.550265e-01
     vertex  9.197530e-01 -6.666667e-01  2.809524e-01
     vertex  9.197530e-01 -1.587302e-02  2.809524e-01
   endloop
 endfacet
 facet normal  1.000000e+00  0.000000e+00  0.000000e+00
   outer loop
     vertex  9.197530e-01 -1.587302e-02  7.550265e-01
     vertex  9.197530e-01 -6.666667e-01  7.550265e-01
     vertex  9.197530e-01 -6.666667e-01  2.809524e-01
   endloop
 endfacet
 facet normal  3.162278e-01  0.000000e+00 -9.486833e-01
   outer loop
     vertex  9.197530e-01 -1.587302e-02  2.809524e-01
     vertex -2.839515e-02 -1.587302e-02 -3.509703e-02
     vertex -2.839515e-02  0.000000e+00 -3.509703e-02
   endloop
 endfacet
 facet normal  3.162278e-01  0.000000e+00 -9.486833e-01
   outer loop
     vertex  9.197530e-01 -1.587302e-02  2.809524e-01
     vertex -2.839515e-02  0.000000e+00 -3.509703e-02
     vertex  9.197530e-01  0.000000e+00  2.809524e-01
   endloop
 endfacet
 facet normal -0.000000e+00 -1.000000e+00  0.000000e+00
   outer loop
     vertex  8.474427e-01 -6.666667e-01  3.174604e-01
     vertex -2.839515e-02 -6.666667e-01  3.174604e-01
     vertex -2.839515e-02 -6.666667e-01 -3.509703e-02
   endloop
 endfacet
 facet normal -0.000000e+00 -1.000000e+00  0.000000e+00
   outer loop
     vertex  9.197530e-01 -6.666667e-01  2.809524e-01
     vertex  8.474427e-01 -6.666667e-01  3.174604e-01
     vertex -2.839515e-02 -6.666667e-01 -3.509703e-02
   endloop
 endfacet
 facet normal  0.000000e+00 -1.000000e+00  0.000000e+00
   outer loop
     vertex  8.474427e-01 -6.666667e-01  5.396826e-01
     vertex -2.839515e-02 -6.666667e-01  7.550265e-01
     vertex -2.839515e-02 -6.666667e-01  5.396826e-01
   endloop
 endfacet
 facet normal  0.000000e+00 -1.000000e+00  0.000000e+00
   outer loop
     vertex  8.474427e-01 -6.666667e-01  5.396826e-01
     vertex  8.474427e-01 -6.666667e-01  3.174604e-01
     vertex  9.197530e-01 -6.666667e-01  2.809524e-01
   endloop
 endfacet
 facet normal -0.000000e+00 -1.000000e+00  0.000000e+00
   outer loop
     vertex  9.197530e-01 -6.666667e-01  7.550265e-01
     vertex -2.839515e-02 -6.666667e-01  7.550265e-01
     vertex  8.474427e-01 -6.666667e-01  5.396826e-01
   endloop
 endfacet
 facet normal  0.000000e+00 -1.000000e+00 -0.000000e+00
   outer loop
     vertex  9.197530e-01 -6.666667e-01  7.550265e-01
     vertex  8.474427e-01 -6.666667e-01  5.396826e-01
     vertex  9.197530e-01 -6.666667e-01  2.809524e-01
   endloop
 endfacet
 facet normal -1.000000e+00  0.000000e+00  0.000000e+00
   outer loop
     vertex -2.839515e-02 -1.587302e-02 -3.509703e-02
     vertex -2.839515e-02 -1.587302e-02  7.550265e-01
     vertex -2.839515e-02  0.000000e+00  7.550265e-01
   endloop
 endfacet
 facet normal -1.000000e+00  0.000000e+00  0.000000e+00
   outer loop
     vertex -2.839515e-02 -1.587302e-02 -3.509703e-02
     vertex -2.839515e-02  0.000000e+00  7.550265e-01
     vertex -2.839515e-02  0.000000e+00 -3.509703e-02
   endloop
 endfacet
 facet normal  0.000000e+00  0.000000e+00  1.000000e+00
   outer loop
     vertex  4.178131e-01 -1.409170e-01  3.174604e-01
     vertex -2.839515e-02 -9.133832e-02  3.174604e-01
     vertex -2.839515e-02 -6.666667e-01  3.174604e-01
   endloop
 endfacet
 facet normal  0.000000e+00  0.000000e+00  1.000000e+00
   outer loop
     vertex  6.223986e-01 -2.432098e-01  3.174604e-01
     vertex -2.839515e-02 -6.666667e-01  3.174604e-01
     vertex  8.474427e-01 -6.666667e-01  3.174604e-01
   endloop
 endfacet
 facet normal  0.000000e+00  0.000000e+00  1.000000e+00
   outer loop
     vertex  6.223986e-01 -2.432098e-01  3.174604e-01
     vertex  8.474427e-01 -6.666667e-01  3.174604e-01
     vertex  8.474427e-01 -4.887124e-01  3.174604e-01
   endloop
 endfacet
 facet normal  0.000000e+00  0.000000e+00  1.000000e+00
   outer loop
     vertex  6.223986e-01 -2.432098e-01  3.174604e-01
     vertex  4.178131e-01 -1.409170e-01  3.174604e-01
     vertex -2.839515e-02 -6.666667e-01  3.174604e-01
   endloop
 endfacet
 facet normal -1.104315e-01 -9.938837e-01  0.000000e+00
   outer loop
     vertex  4.178131e-01 -1.409170e-01  5.396826e-01
     vertex -2.839515e-02 -9.133832e-02  5.396826e-01
     vertex -2.839515e-02 -9.133832e-02  3.174604e-01
   endloop
 endfacet
 facet normal -1.104315e-01 -9.938837e-01 -0.000000e+00
   outer loop
     vertex  4.178131e-01 -1.409170e-01  5.396826e-01
     vertex -2.839515e-02 -9.133832e-02  3.174604e-01
     vertex  4.178131e-01 -1.409170e-01  3.174604e-01
   endloop
 endfacet
 facet normal -0.000000e+00  0.000000e+00 -1.000000e+00
   outer loop
     vertex  4.178131e-01 -1.409170e-01  5.396826e-01
     vertex -2.839515e-02 -6.666667e-01  5.396826e-01
     vertex -2.839515e-02 -9.133832e-02  5.396826e-01
   endloop
 endfacet
 facet normal  0.000000e+00 -0.000000e+00 -1.000000e+00
   outer loop
     vertex  6.223986e-01 -2.432098e-01  5.396826e-01
     vertex  8.474427e-01 -6.666667e-01  5.396826e-01
     vertex -2.839515e-02 -6.666667e-01  5.396826e-01
   endloop
 endfacet
 facet normal  0.000000e+00  0.000000e+00 -1.000000e+00
   outer loop
     vertex  6.223986e-01 -2.432098e-01  5.396826e-01
     vertex  8.474427e-01 -4.887124e-01  5.396826e-01
     vertex  8.474427e-01 -6.666667e-01  5.396826e-01
   endloop
 endfacet
 facet normal -0.000000e+00  0.000000e+00 -1.000000e+00
   outer loop
     vertex  6.223986e-01 -2.432098e-01  5.396826e-01
     vertex -2.839515e-02 -6.666667e-01  5.396826e-01
     vertex  4.178131e-01 -1.409170e-01  5.396826e-01
   endloop
 endfacet
 facet normal -0.000000e+00  0.000000e+00  1.000000e+00
   outer loop
     vertex -2.839515e-02 -1.587302e-02  7.550265e-01
     vertex  9.197530e-01 -6.666667e-01  7.550265e-01
     vertex  9.197530e-01 -1.587302e-02  7.550265e-01
   endloop
 endfacet
 facet normal  0.000000e+00  0.000000e+00  1.000000e+00
   outer loop
     vertex -2.839515e-02 -1.587302e-02  7.550265e-01
     vertex -2.839515e-02 -6.666667e-01  7.550265e-01
     vertex  9.197530e-01 -6.666667e-01  7.550265e-01
   endloop
 endfacet
 facet normal  1.000000e+00  0.000000e+00  0.000000e+00
   outer loop
     vertex  9.197530e-01 -1.587302e-02  7.550265e-01
     vertex  9.197530e-01 -1.587302e-02  2.809524e-01
     vertex  9.197530e-01  0.000000e+00  2.809524e-01
   endloop
 endfacet
 facet normal  1.000000e+00 -0.000000e+00  0.000000e+00
   outer loop
     vertex  9.197530e-01 -1.587302e-02  7.550265e-01
     vertex  9.197530e-01  0.000000e+00  2.809524e-01
     vertex  9.197530e-01  0.000000e+00  7.550265e-01
   endloop
 endfacet
 facet normal  0.000000e+00  1.000000e+00  0.000000e+00
   outer loop
     vertex  9.197530e-01  0.000000e+00  2.809524e-01
     vertex -2.839515e-02  0.000000e+00 -3.509703e-02
     vertex -2.839515e-02  0.000000e+00  7.550265e-01
   endloop
 endfacet
 facet normal  0.000000e+00  1.000000e+00  0.000000e+00
   outer loop
     vertex  9.197530e-01  0.000000e+00  7.550265e-01
     vertex  9.197530e-01  0.000000e+00  2.809524e-01
     vertex -2.839515e-02  0.000000e+00  7.550265e-01
   endloop
 endfacet
 facet normal -1.000000e+00  0.000000e+00  0.000000e+00
   outer loop
     vertex  8.474427e-01 -6.666667e-01  5.396826e-01
     vertex  8.474427e-01 -4.887124e-01  5.396826e-01
     vertex  8.474427e-01 -4.887124e-01  3.174604e-01
   endloop
 endfacet
 facet normal -1.000000e+00  0.000000e+00  0.000000e+00
   outer loop
     vertex  8.474427e-01 -6.666667e-01  5.396826e-01
     vertex  8.474427e-01 -4.887124e-01  3.174604e-01
     vertex  8.474427e-01 -6.666667e-01  3.174604e-01
   endloop
 endfacet
 facet normal  0.000000e+00  0.000000e+00  1.000000e+00
   outer loop
     vertex -2.839515e-02 -1.587302e-02  7.550265e-01
     vertex  9.197530e-01 -1.587302e-02  7.550265e-01
     vertex  9.197530e-01  0.000000e+00  7.550265e-01
   endloop
 endfacet
 facet normal  0.000000e+00  0.000000e+00  1.000000e+00
   outer loop
     vertex -2.839515e-02 -1.587302e-02  7.550265e-01
     vertex  9.197530e-01  0.000000e+00  7.550265e-01
     vertex -2.839515e-02  0.000000e+00  7.550265e-01
   endloop
 endfacet
 facet normal -4.472136e-01 -8.944272e-01  0.000000e+00
   outer loop
     vertex  6.223986e-01 -2.432098e-01  5.396826e-01
     vertex  4.178131e-01 -1.409170e-01  5.396826e-01
     vertex  4.178131e-01 -1.409170e-01  3.174604e-01
   endloop
 endfacet
 facet normal -4.472136e-01 -8.944272e-01 -0.000000e+00
   outer loop
     vertex  6.223986e-01 -2.432098e-01  5.396826e-01
     vertex  4.178131e-01 -1.409170e-01  3.174604e-01
     vertex  6.223986e-01 -2.432098e-01  3.174604e-01
   endloop
 endfacet
 facet normal  0.000000e+00  0.000000e+00  1.000000e+00
   outer loop
     vertex  8.474427e-01 -3.045854e-01  3.174604e-01
     vertex  6.223986e-01 -2.432098e-01  3.174604e-01
     vertex  8.474427e-01 -4.887124e-01  3.174604e-01
   endloop
 endfacet
 facet normal -0.000000e+00 -0.000000e+00 -1.000000e+00
   outer loop
     vertex  8.474427e-01 -3.045854e-01  5.396826e-01
     vertex  8.474427e-01 -4.887124e-01  5.396826e-01
     vertex  6.223986e-01 -2.432098e-01  5.396826e-01
   endloop
 endfacet
 facet normal -1.000000e+00 -0.000000e+00  0.000000e+00
   outer loop
     vertex  8.474427e-01 -3.045854e-01  5.396826e-01
     vertex  8.474427e-01 -4.887124e-01  3.174604e-01
     vertex  8.474427e-01 -4.887124e-01  5.396826e-01
   endloop
 endfacet
 facet normal -1.000000e+00  0.000000e+00 -0.000000e+00
   outer loop
     vertex  8.474427e-01 -3.045854e-01  5.396826e-01
     vertex  8.474427e-01 -3.045854e-01  3.174604e-01
     vertex  8.474427e-01 -4.887124e-01  3.174604e-01
   endloop
 endfacet
 facet normal -2.631173e-01 -9.647638e-01  0.000000e+00
   outer loop
     vertex  6.223986e-01 -2.432098e-01  5.396826e-01
     vertex  8.474427e-01 -3.045854e-01  3.174604e-01
     vertex  8.474427e-01 -3.045854e-01  5.396826e-01
   endloop
 endfacet
 facet normal -2.631173e-01 -9.647638e-01 -0.000000e+00
   outer loop
     vertex  6.223986e-01 -2.432098e-01  5.396826e-01
     vertex  6.223986e-01 -2.432098e-01  3.174604e-01
     vertex  8.474427e-01 -3.045854e-01  3.174604e-01
   endloop
 endfacet
endsolid
