solid 
 facet normal -0.000000e+00  0.000000e+00 -1.000000e+00
   outer loop
     vertex  9.652558e-01 -1.587302e-02 -2.717813e-01
     vertex  1.610230e-01 -3.174609e-02 -2.717813e-01
     vertex  1.610230e-01 -1.587302e-02 -2.717813e-01
   endloop
 endfacet
 facet normal  0.000000e+00 -0.000000e+00 -1.000000e+00
   outer loop
     vertex  9.652558e-01 -1.587302e-02 -2.717813e-01
     vertex  9.652558e-01 -3.174609e-02 -2.717813e-01
     vertex  1.610230e-01 -3.174609e-02 -2.717813e-01
   endloop
 endfacet
 facet normal -1.000000e+00  0.000000e+00  0.000000e+00
   outer loop
     vertex  1.610230e-01 -1.587302e-02 -2.717813e-01
     vertex  1.610230e-01 -3.174609e-02 -3.051147e-02
     vertex  1.610230e-01 -1.587302e-02 -3.051147e-02
   endloop
 endfacet
 facet normal -1.000000e+00  0.000000e+00  0.000000e+00
   outer loop
     vertex  1.610230e-01 -1.587302e-02 -2.717813e-01
     vertex  1.610230e-01 -3.174609e-02 -2.717813e-01
     vertex  1.610230e-01 -3.174609e-02 -3.051147e-02
   endloop
 endfacet
 facet normal  1.000000e+00  0.000000e+00  0.000000e+00
   outer loop
     vertex  9.652558e-01 -1.587302e-02 -3.051147e-02
     vertex  9.652558e-01 -3.174609e-02 -2.717813e-01
     vertex  9.652558e-01 -1.587302e-02 -2.717813e-01
   endloop
 endfacet
 facet normal  1.000000e+00  0.000000e+00  0.000000e+00
   outer loop
     vertex  9.652558e-01 -1.587302e-02 -3.051147e-02
     vertex  9.652558e-01 -3.174609e-02 -3.051147e-02
     vertex  9.652558e-01 -3.174609e-02 -2.717813e-01
   endloop
 endfacet
 facet normal  0.000000e+00  0.000000e+00 -1.000000e+00
   outer loop
     vertex  9.652558e-01 -1.587302e-02 -2.717813e-01
     vertex  1.610230e-01 -1.587302e-02 -2.717813e-01
     vertex  1.610230e-01  0.000000e+00 -2.717813e-01
   endloop
 endfacet
 facet normal  0.000000e+00  0.000000e+00 -1.000000e+00
   outer loop
     vertex  9.652558e-01 -1.587302e-02 -2.717813e-01
     vertex  1.610230e-01  0.000000e+00 -2.717813e-01
     vertex  9.652558e-01  0.000000e+00 -2.717813e-01
   endloop
 endfacet
 facet normal  0.000000e+00 -1.000000e+00 -0.000000e+00
   outer loop
     vertex  9.066238e-01 -3.174609e-02 -1.689945e-01
     vertex  1.610230e-01 -3.174609e-02 -2.717813e-01
     vertex  9.652558e-01 -3.174609e-02 -2.717813e-01
   endloop
 endfacet
 facet normal -0.000000e+00 -1.000000e+00 -0.000000e+00
   outer loop
     vertex  9.078331e-01 -3.174609e-02 -1.700659e-01
     vertex  9.066238e-01 -3.174609e-02 -1.689945e-01
     vertex  9.652558e-01 -3.174609e-02 -2.717813e-01
   endloop
 endfacet
 facet normal  0.000000e+00 -1.000000e+00 -0.000000e+00
   outer loop
     vertex  9.057060e-01 -3.174609e-02 -1.676648e-01
     vertex  1.610230e-01 -3.174609e-02 -2.717813e-01
     vertex  9.066238e-01 -3.174609e-02 -1.689945e-01
   endloop
 endfacet
 facet normal -0.000000e+00 -1.000000e+00 -0.000000e+00
   outer loop
     vertex  9.092637e-01 -3.174609e-02 -1.708167e-01
     vertex  9.078331e-01 -3.174609e-02 -1.700659e-01
     vertex  9.652558e-01 -3.174609e-02 -2.717813e-01
   endloop
 endfacet
 facet normal  0.000000e+00 -1.000000e+00 -0.000000e+00
   outer loop
     vertex  9.051331e-01 -3.174609e-02 -1.661542e-01
     vertex  1.610230e-01 -3.174609e-02 -2.717813e-01
     vertex  9.057060e-01 -3.174609e-02 -1.676648e-01
   endloop
 endfacet
 facet normal -0.000000e+00 -1.000000e+00 -0.000000e+00
   outer loop
     vertex  9.108324e-01 -3.174609e-02 -1.712034e-01
     vertex  9.092637e-01 -3.174609e-02 -1.708167e-01
     vertex  9.652558e-01 -3.174609e-02 -2.717813e-01
   endloop
 endfacet
 facet normal -0.000000e+00 -1.000000e+00  0.000000e+00
   outer loop
     vertex  9.049383e-01 -3.174609e-02 -1.645503e-01
     vertex  1.610230e-01 -3.174609e-02 -3.051147e-02
     vertex  1.610230e-01 -3.174609e-02 -2.717813e-01
   endloop
 endfacet
 facet normal  0.000000e+00 -1.000000e+00 -0.000000e+00
   outer loop
     vertex  9.049383e-01 -3.174609e-02 -1.645503e-01
     vertex  1.610230e-01 -3.174609e-02 -2.717813e-01
     vertex  9.051331e-01 -3.174609e-02 -1.661542e-01
   endloop
 endfacet
 facet normal -0.000000e+00 -1.000000e+00 -0.000000e+00
   outer loop
     vertex  9.124481e-01 -3.174609e-02 -1.712034e-01
     vertex  9.108324e-01 -3.174609e-02 -1.712034e-01
     vertex  9.652558e-01 -3.174609e-02 -2.717813e-01
   endloop
 endfacet
 facet normal -0.000000e+00 -1.000000e+00  0.000000e+00
   outer loop
     vertex  9.051331e-01 -3.174609e-02 -1.629464e-01
     vertex  1.610230e-01 -3.174609e-02 -3.051147e-02
     vertex  9.049383e-01 -3.174609e-02 -1.645503e-01
   endloop
 endfacet
 facet normal  0.000000e+00 -1.000000e+00 -0.000000e+00
   outer loop
     vertex  9.140168e-01 -3.174609e-02 -1.708167e-01
     vertex  9.124481e-01 -3.174609e-02 -1.712034e-01
     vertex  9.652558e-01 -3.174609e-02 -2.717813e-01
   endloop
 endfacet
 facet normal -0.000000e+00 -1.000000e+00  0.000000e+00
   outer loop
     vertex  9.057060e-01 -3.174609e-02 -1.614357e-01
     vertex  1.610230e-01 -3.174609e-02 -3.051147e-02
     vertex  9.051331e-01 -3.174609e-02 -1.629464e-01
   endloop
 endfacet
 facet normal  0.000000e+00 -1.000000e+00 -0.000000e+00
   outer loop
     vertex  9.154474e-01 -3.174609e-02 -1.700659e-01
     vertex  9.140168e-01 -3.174609e-02 -1.708167e-01
     vertex  9.652558e-01 -3.174609e-02 -2.717813e-01
   endloop
 endfacet
 facet normal  0.000000e+00 -1.000000e+00 -0.000000e+00
   outer loop
     vertex  9.166567e-01 -3.174609e-02 -1.689945e-01
     vertex  9.154474e-01 -3.174609e-02 -1.700659e-01
     vertex  9.652558e-01 -3.174609e-02 -2.717813e-01
   endloop
 endfacet
 facet normal  0.000000e+00 -1.000000e+00 -0.000000e+00
   outer loop
     vertex  9.175745e-01 -3.174609e-02 -1.676648e-01
     vertex  9.166567e-01 -3.174609e-02 -1.689945e-01
     vertex  9.652558e-01 -3.174609e-02 -2.717813e-01
   endloop
 endfacet
 facet normal  0.000000e+00 -1.000000e+00 -0.000000e+00
   outer loop
     vertex  9.181475e-01 -3.174609e-02 -1.661542e-01
     vertex  9.175745e-01 -3.174609e-02 -1.676648e-01
     vertex  9.652558e-01 -3.174609e-02 -2.717813e-01
   endloop
 endfacet
 facet normal  0.000000e+00 -1.000000e+00 -0.000000e+00
   outer loop
     vertex  9.183422e-01 -3.174609e-02 -1.645503e-01
     vertex  9.181475e-01 -3.174609e-02 -1.661542e-01
     vertex  9.652558e-01 -3.174609e-02 -2.717813e-01
   endloop
 endfacet
 facet normal  0.000000e+00 -1.000000e+00  0.000000e+00
   outer loop
     vertex  9.652558e-01 -3.174609e-02 -3.051147e-02
     vertex  9.181475e-01 -3.174609e-02 -1.629464e-01
     vertex  9.183422e-01 -3.174609e-02 -1.645503e-01
   endloop
 endfacet
 facet normal  0.000000e+00 -1.000000e+00  0.000000e+00
   outer loop
     vertex  9.652558e-01 -3.174609e-02 -3.051147e-02
     vertex  9.175745e-01 -3.174609e-02 -1.614357e-01
     vertex  9.181475e-01 -3.174609e-02 -1.629464e-01
   endloop
 endfacet
 facet normal  0.000000e+00 -1.000000e+00  0.000000e+00
   outer loop
     vertex  9.652558e-01 -3.174609e-02 -3.051147e-02
     vertex  9.166567e-01 -3.174609e-02 -1.601061e-01
     vertex  9.175745e-01 -3.174609e-02 -1.614357e-01
   endloop
 endfacet
 facet normal  0.000000e+00 -1.000000e+00  0.000000e+00
   outer loop
     vertex  9.652558e-01 -3.174609e-02 -3.051147e-02
     vertex  9.154474e-01 -3.174609e-02 -1.590347e-01
     vertex  9.166567e-01 -3.174609e-02 -1.601061e-01
   endloop
 endfacet
 facet normal  0.000000e+00 -1.000000e+00  0.000000e+00
   outer loop
     vertex  9.652558e-01 -3.174609e-02 -3.051147e-02
     vertex  9.140168e-01 -3.174609e-02 -1.582839e-01
     vertex  9.154474e-01 -3.174609e-02 -1.590347e-01
   endloop
 endfacet
 facet normal  0.000000e+00 -1.000000e+00  0.000000e+00
   outer loop
     vertex  9.652558e-01 -3.174609e-02 -3.051147e-02
     vertex  9.124481e-01 -3.174609e-02 -1.578972e-01
     vertex  9.140168e-01 -3.174609e-02 -1.582839e-01
   endloop
 endfacet
 facet normal  0.000000e+00 -1.000000e+00  0.000000e+00
   outer loop
     vertex  9.652558e-01 -3.174609e-02 -3.051147e-02
     vertex  9.108324e-01 -3.174609e-02 -1.578972e-01
     vertex  9.124481e-01 -3.174609e-02 -1.578972e-01
   endloop
 endfacet
 facet normal  0.000000e+00 -1.000000e+00  0.000000e+00
   outer loop
     vertex  9.652558e-01 -3.174609e-02 -3.051147e-02
     vertex  9.092637e-01 -3.174609e-02 -1.582839e-01
     vertex  9.108324e-01 -3.174609e-02 -1.578972e-01
   endloop
 endfacet
 facet normal  0.000000e+00 -1.000000e+00  0.000000e+00
   outer loop
     vertex  9.652558e-01 -3.174609e-02 -3.051147e-02
     vertex  9.078331e-01 -3.174609e-02 -1.590347e-01
     vertex  9.092637e-01 -3.174609e-02 -1.582839e-01
   endloop
 endfacet
 facet normal  0.000000e+00 -1.000000e+00  0.000000e+00
   outer loop
     vertex  9.652558e-01 -3.174609e-02 -3.051147e-02
     vertex  9.066238e-01 -3.174609e-02 -1.601061e-01
     vertex  9.078331e-01 -3.174609e-02 -1.590347e-01
   endloop
 endfacet
 facet normal  0.000000e+00 -1.000000e+00  0.000000e+00
   outer loop
     vertex  9.652558e-01 -3.174609e-02 -3.051147e-02
     vertex  9.057060e-01 -3.174609e-02 -1.614357e-01
     vertex  9.066238e-01 -3.174609e-02 -1.601061e-01
   endloop
 endfacet
 facet normal -0.000000e+00 -1.000000e+00  0.000000e+00
   outer loop
     vertex  9.652558e-01 -3.174609e-02 -3.051147e-02
     vertex  1.610230e-01 -3.174609e-02 -3.051147e-02
     vertex  9.057060e-01 -3.174609e-02 -1.614357e-01
   endloop
 endfacet
 facet normal  0.000000e+00 -1.000000e+00 -0.000000e+00
   outer loop
     vertex  9.652558e-01 -3.174609e-02 -3.051147e-02
     vertex  9.183422e-01 -3.174609e-02 -1.645503e-01
     vertex  9.652558e-01 -3.174609e-02 -2.717813e-01
   endloop
 endfacet
 facet normal -0.000000e+00  0.000000e+00  1.000000e+00
   outer loop
     vertex  1.610230e-01 -1.587302e-02 -3.051147e-02
     vertex  9.652558e-01 -3.174609e-02 -3.051147e-02
     vertex  9.652558e-01 -1.587302e-02 -3.051147e-02
   endloop
 endfacet
 facet normal  0.000000e+00  0.000000e+00  1.000000e+00
   outer loop
     vertex  1.610230e-01 -1.587302e-02 -3.051147e-02
     vertex  1.610230e-01 -3.174609e-02 -3.051147e-02
     vertex  9.652558e-01 -3.174609e-02 -3.051147e-02
   endloop
 endfacet
 facet normal -1.000000e+00  0.000000e+00  0.000000e+00
   outer loop
     vertex  1.610230e-01 -1.587302e-02 -2.717813e-01
     vertex  1.610230e-01 -1.587302e-02 -3.051147e-02
     vertex  1.610230e-01  0.000000e+00 -3.051147e-02
   endloop
 endfacet
 facet normal -1.000000e+00  0.000000e+00  0.000000e+00
   outer loop
     vertex  1.610230e-01 -1.587302e-02 -2.717813e-01
     vertex  1.610230e-01  0.000000e+00 -3.051147e-02
     vertex  1.610230e-01  0.000000e+00 -2.717813e-01
   endloop
 endfacet
 facet normal  1.000000e+00  0.000000e+00  0.000000e+00
   outer loop
     vertex  9.652558e-01 -1.587302e-02 -3.051147e-02
     vertex  9.652558e-01 -1.587302e-02 -2.717813e-01
     vertex  9.652558e-01  0.000000e+00 -2.717813e-01
   endloop
 endfacet
 facet normal  1.000000e+00 -0.000000e+00  0.000000e+00
   outer loop
     vertex  9.652558e-01 -1.587302e-02 -3.051147e-02
     vertex  9.652558e-01  0.000000e+00 -2.717813e-01
     vertex  9.652558e-01  0.000000e+00 -3.051147e-02
   endloop
 endfacet
 facet normal  0.000000e+00  1.000000e+00  0.000000e+00
   outer loop
     vertex  9.066238e-01 -3.469447e-18 -1.689945e-01
     vertex  9.652558e-01 -3.469447e-18 -2.717813e-01
     vertex  1.610230e-01 -3.469447e-18 -2.717813e-01
   endloop
 endfacet
 facet normal  0.000000e+00  1.000000e+00  0.000000e+00
   outer loop
     vertex  9.078331e-01 -3.469447e-18 -1.700659e-01
     vertex  9.652558e-01 -3.469447e-18 -2.717813e-01
     vertex  9.066238e-01 -3.469447e-18 -1.689945e-01
   endloop
 endfacet
 facet normal  0.000000e+00  1.000000e+00  0.000000e+00
   outer loop
     vertex  9.057060e-01 -3.469447e-18 -1.676648e-01
     vertex  9.066238e-01 -3.469447e-18 -1.689945e-01
     vertex  1.610230e-01 -3.469447e-18 -2.717813e-01
   endloop
 endfacet
 facet normal  0.000000e+00  1.000000e+00  0.000000e+00
   outer loop
     vertex  9.092637e-01 -3.469447e-18 -1.708167e-01
     vertex  9.652558e-01 -3.469447e-18 -2.717813e-01
     vertex  9.078331e-01 -3.469447e-18 -1.700659e-01
   endloop
 endfacet
 facet normal  0.000000e+00  1.000000e+00  0.000000e+00
   outer loop
     vertex  9.051331e-01 -3.469447e-18 -1.661542e-01
     vertex  9.057060e-01 -3.469447e-18 -1.676648e-01
     vertex  1.610230e-01 -3.469447e-18 -2.717813e-01
   endloop
 endfacet
 facet normal  0.000000e+00  1.000000e+00  0.000000e+00
   outer loop
     vertex  9.108324e-01 -3.469447e-18 -1.712034e-01
     vertex  9.652558e-01 -3.469447e-18 -2.717813e-01
     vertex  9.092637e-01 -3.469447e-18 -1.708167e-01
   endloop
 endfacet
 facet normal  0.000000e+00  1.000000e+00  0.000000e+00
   outer loop
     vertex  9.049383e-01 -3.469447e-18 -1.645503e-01
     vertex  1.610230e-01 -3.469447e-18 -2.717813e-01
     vertex  1.610230e-01 -3.469447e-18 -3.051147e-02
   endloop
 endfacet
 facet normal  0.000000e+00  1.000000e+00  0.000000e+00
   outer loop
     vertex  9.049383e-01 -3.469447e-18 -1.645503e-01
     vertex  9.051331e-01 -3.469447e-18 -1.661542e-01
     vertex  1.610230e-01 -3.469447e-18 -2.717813e-01
   endloop
 endfacet
 facet normal  0.000000e+00  1.000000e+00  0.000000e+00
   outer loop
     vertex  9.124481e-01 -3.469447e-18 -1.712034e-01
     vertex  9.652558e-01 -3.469447e-18 -2.717813e-01
     vertex  9.108324e-01 -3.469447e-18 -1.712034e-01
   endloop
 endfacet
 facet normal  0.000000e+00  1.000000e+00  0.000000e+00
   outer loop
     vertex  9.051331e-01 -3.469447e-18 -1.629464e-01
     vertex  9.049383e-01 -3.469447e-18 -1.645503e-01
     vertex  1.610230e-01 -3.469447e-18 -3.051147e-02
   endloop
 endfacet
 facet normal  0.000000e+00  1.000000e+00  0.000000e+00
   outer loop
     vertex  9.140168e-01 -3.469447e-18 -1.708167e-01
     vertex  9.652558e-01 -3.469447e-18 -2.717813e-01
     vertex  9.124481e-01 -3.469447e-18 -1.712034e-01
   endloop
 endfacet
 facet normal  0.000000e+00  1.000000e+00  0.000000e+00
   outer loop
     vertex  9.057060e-01 -3.469447e-18 -1.614357e-01
     vertex  9.051331e-01 -3.469447e-18 -1.629464e-01
     vertex  1.610230e-01 -3.469447e-18 -3.051147e-02
   endloop
 endfacet
 facet normal  0.000000e+00  1.000000e+00  0.000000e+00
   outer loop
     vertex  9.154474e-01 -3.469447e-18 -1.700659e-01
     vertex  9.652558e-01 -3.469447e-18 -2.717813e-01
     vertex  9.140168e-01 -3.469447e-18 -1.708167e-01
   endloop
 endfacet
 facet normal  0.000000e+00  1.000000e+00  0.000000e+00
   outer loop
     vertex  9.166567e-01 -3.469447e-18 -1.689945e-01
     vertex  9.652558e-01 -3.469447e-18 -2.717813e-01
     vertex  9.154474e-01 -3.469447e-18 -1.700659e-01
   endloop
 endfacet
 facet normal  0.000000e+00  1.000000e+00  0.000000e+00
   outer loop
     vertex  9.175745e-01 -3.469447e-18 -1.676648e-01
     vertex  9.652558e-01 -3.469447e-18 -2.717813e-01
     vertex  9.166567e-01 -3.469447e-18 -1.689945e-01
   endloop
 endfacet
 facet normal  0.000000e+00  1.000000e+00  0.000000e+00
   outer loop
     vertex  9.181475e-01 -3.469447e-18 -1.661542e-01
     vertex  9.652558e-01 -3.469447e-18 -2.717813e-01
     vertex  9.175745e-01 -3.469447e-18 -1.676648e-01
   endloop
 endfacet
 facet normal  0.000000e+00  1.000000e+00  0.000000e+00
   outer loop
     vertex  9.183422e-01 -3.469447e-18 -1.645503e-01
     vertex  9.652558e-01 -3.469447e-18 -2.717813e-01
     vertex  9.181475e-01 -3.469447e-18 -1.661542e-01
   endloop
 endfacet
 facet normal  0.000000e+00  1.000000e+00  0.000000e+00
   outer loop
     vertex  9.652558e-01 -3.469447e-18 -3.051147e-02
     vertex  9.183422e-01 -3.469447e-18 -1.645503e-01
     vertex  9.181475e-01 -3.469447e-18 -1.629464e-01
   endloop
 endfacet
 facet normal  0.000000e+00  1.000000e+00  0.000000e+00
   outer loop
     vertex  9.652558e-01 -3.469447e-18 -3.051147e-02
     vertex  9.181475e-01 -3.469447e-18 -1.629464e-01
     vertex  9.175745e-01 -3.469447e-18 -1.614357e-01
   endloop
 endfacet
 facet normal  0.000000e+00  1.000000e+00  0.000000e+00
   outer loop
     vertex  9.652558e-01 -3.469447e-18 -3.051147e-02
     vertex  9.175745e-01 -3.469447e-18 -1.614357e-01
     vertex  9.166567e-01 -3.469447e-18 -1.601061e-01
   endloop
 endfacet
 facet normal  0.000000e+00  1.000000e+00  0.000000e+00
   outer loop
     vertex  9.652558e-01 -3.469447e-18 -3.051147e-02
     vertex  9.166567e-01 -3.469447e-18 -1.601061e-01
     vertex  9.154474e-01 -3.469447e-18 -1.590347e-01
   endloop
 endfacet
 facet normal  0.000000e+00  1.000000e+00  0.000000e+00
   outer loop
     vertex  9.652558e-01 -3.469447e-18 -3.051147e-02
     vertex  9.154474e-01 -3.469447e-18 -1.590347e-01
     vertex  9.140168e-01 -3.469447e-18 -1.582839e-01
   endloop
 endfacet
 facet normal  0.000000e+00  1.000000e+00  0.000000e+00
   outer loop
     vertex  9.652558e-01 -3.469447e-18 -3.051147e-02
     vertex  9.140168e-01 -3.469447e-18 -1.582839e-01
     vertex  9.124481e-01 -3.469447e-18 -1.578972e-01
   endloop
 endfacet
 facet normal  0.000000e+00  1.000000e+00  0.000000e+00
   outer loop
     vertex  9.652558e-01 -3.469447e-18 -3.051147e-02
     vertex  9.124481e-01 -3.469447e-18 -1.578972e-01
     vertex  9.108324e-01 -3.469447e-18 -1.578972e-01
   endloop
 endfacet
 facet normal  0.000000e+00  1.000000e+00  0.000000e+00
   outer loop
     vertex  9.652558e-01 -3.469447e-18 -3.051147e-02
     vertex  9.108324e-01 -3.469447e-18 -1.578972e-01
     vertex  9.092637e-01 -3.469447e-18 -1.582839e-01
   endloop
 endfacet
 facet normal  0.000000e+00  1.000000e+00  0.000000e+00
   outer loop
     vertex  9.652558e-01 -3.469447e-18 -3.051147e-02
     vertex  9.092637e-01 -3.469447e-18 -1.582839e-01
     vertex  9.078331e-01 -3.469447e-18 -1.590347e-01
   endloop
 endfacet
 facet normal  0.000000e+00  1.000000e+00  0.000000e+00
   outer loop
     vertex  9.652558e-01 -3.469447e-18 -3.051147e-02
     vertex  9.078331e-01 -3.469447e-18 -1.590347e-01
     vertex  9.066238e-01 -3.469447e-18 -1.601061e-01
   endloop
 endfacet
 facet normal  0.000000e+00  1.000000e+00  0.000000e+00
   outer loop
     vertex  9.652558e-01 -3.469447e-18 -3.051147e-02
     vertex  9.066238e-01 -3.469447e-18 -1.601061e-01
     vertex  9.057060e-01 -3.469447e-18 -1.614357e-01
   endloop
 endfacet
 facet normal  0.000000e+00  1.000000e+00  0.000000e+00
   outer loop
     vertex  9.652558e-01 -3.469447e-18 -3.051147e-02
     vertex  9.057060e-01 -3.469447e-18 -1.614357e-01
     vertex  1.610230e-01 -3.469447e-18 -3.051147e-02
   endloop
 endfacet
 facet normal  0.000000e+00  1.000000e+00  0.000000e+00
   outer loop
     vertex  9.652558e-01 -3.469447e-18 -3.051147e-02
     vertex  9.652558e-01 -3.469447e-18 -2.717813e-01
     vertex  9.183422e-01 -3.469447e-18 -1.645503e-01
   endloop
 endfacet
 facet normal -9.927089e-01  0.000000e+00 -1.205367e-01
   outer loop
     vertex  9.181475e-01 -1.587302e-02 -1.629464e-01
     vertex  9.183422e-01 -1.587302e-02 -1.645503e-01
     vertex  9.183422e-01 -3.174609e-02 -1.645503e-01
   endloop
 endfacet
 facet normal -9.927089e-01 -0.000000e+00 -1.205367e-01
   outer loop
     vertex  9.181475e-01 -1.587302e-02 -1.629464e-01
     vertex  9.183422e-01 -3.174609e-02 -1.645503e-01
     vertex  9.181475e-01 -3.174609e-02 -1.629464e-01
   endloop
 endfacet
 facet normal -9.350162e-01 -0.000000e+00 -3.546049e-01
   outer loop
     vertex  9.175745e-01 -1.587302e-02 -1.614357e-01
     vertex  9.181475e-01 -3.174609e-02 -1.629464e-01
     vertex  9.175745e-01 -3.174609e-02 -1.614357e-01
   endloop
 endfacet
 facet normal -9.350162e-01  0.000000e+00 -3.546049e-01
   outer loop
     vertex  9.175745e-01 -1.587302e-02 -1.614357e-01
     vertex  9.181475e-01 -1.587302e-02 -1.629464e-01
     vertex  9.181475e-01 -3.174609e-02 -1.629464e-01
   endloop
 endfacet
 facet normal -8.229839e-01 -0.000000e+00 -5.680647e-01
   outer loop
     vertex  9.166567e-01 -1.587302e-02 -1.601061e-01
     vertex  9.175745e-01 -3.174609e-02 -1.614357e-01
     vertex  9.166567e-01 -3.174609e-02 -1.601061e-01
   endloop
 endfacet
 facet normal -8.229839e-01  0.000000e+00 -5.680647e-01
   outer loop
     vertex  9.166567e-01 -1.587302e-02 -1.601061e-01
     vertex  9.175745e-01 -1.587302e-02 -1.614357e-01
     vertex  9.175745e-01 -3.174609e-02 -1.614357e-01
   endloop
 endfacet
 facet normal -6.631227e-01 -0.000000e+00 -7.485107e-01
   outer loop
     vertex  9.154474e-01 -1.587302e-02 -1.590347e-01
     vertex  9.166567e-01 -3.174609e-02 -1.601061e-01
     vertex  9.154474e-01 -3.174609e-02 -1.590347e-01
   endloop
 endfacet
 facet normal -6.631227e-01  0.000000e+00 -7.485107e-01
   outer loop
     vertex  9.154474e-01 -1.587302e-02 -1.590347e-01
     vertex  9.166567e-01 -1.587302e-02 -1.601061e-01
     vertex  9.166567e-01 -3.174609e-02 -1.601061e-01
   endloop
 endfacet
 facet normal -4.647232e-01 -0.000000e+00 -8.854560e-01
   outer loop
     vertex  9.140168e-01 -1.587302e-02 -1.582839e-01
     vertex  9.154474e-01 -3.174609e-02 -1.590347e-01
     vertex  9.140168e-01 -3.174609e-02 -1.582839e-01
   endloop
 endfacet
 facet normal -4.647232e-01  0.000000e+00 -8.854560e-01
   outer loop
     vertex  9.140168e-01 -1.587302e-02 -1.582839e-01
     vertex  9.154474e-01 -1.587302e-02 -1.590347e-01
     vertex  9.154474e-01 -3.174609e-02 -1.590347e-01
   endloop
 endfacet
 facet normal -2.393157e-01 -0.000000e+00 -9.709418e-01
   outer loop
     vertex  9.124481e-01 -1.587302e-02 -1.578972e-01
     vertex  9.140168e-01 -3.174609e-02 -1.582839e-01
     vertex  9.124481e-01 -3.174609e-02 -1.578972e-01
   endloop
 endfacet
 facet normal -2.393157e-01  0.000000e+00 -9.709418e-01
   outer loop
     vertex  9.124481e-01 -1.587302e-02 -1.578972e-01
     vertex  9.140168e-01 -1.587302e-02 -1.582839e-01
     vertex  9.140168e-01 -3.174609e-02 -1.582839e-01
   endloop
 endfacet
 facet normal  0.000000e+00  0.000000e+00 -1.000000e+00
   outer loop
     vertex  9.108324e-01 -1.587302e-02 -1.578972e-01
     vertex  9.124481e-01 -3.174609e-02 -1.578972e-01
     vertex  9.108324e-01 -3.174609e-02 -1.578972e-01
   endloop
 endfacet
 facet normal  0.000000e+00  0.000000e+00 -1.000000e+00
   outer loop
     vertex  9.108324e-01 -1.587302e-02 -1.578972e-01
     vertex  9.124481e-01 -1.587302e-02 -1.578972e-01
     vertex  9.124481e-01 -3.174609e-02 -1.578972e-01
   endloop
 endfacet
 facet normal  2.393157e-01  0.000000e+00 -9.709418e-01
   outer loop
     vertex  9.092637e-01 -1.587302e-02 -1.582839e-01
     vertex  9.108324e-01 -3.174609e-02 -1.578972e-01
     vertex  9.092637e-01 -3.174609e-02 -1.582839e-01
   endloop
 endfacet
 facet normal  2.393157e-01  0.000000e+00 -9.709418e-01
   outer loop
     vertex  9.092637e-01 -1.587302e-02 -1.582839e-01
     vertex  9.108324e-01 -1.587302e-02 -1.578972e-01
     vertex  9.108324e-01 -3.174609e-02 -1.578972e-01
   endloop
 endfacet
 facet normal  4.647232e-01  0.000000e+00 -8.854560e-01
   outer loop
     vertex  9.078331e-01 -1.587302e-02 -1.590347e-01
     vertex  9.092637e-01 -3.174609e-02 -1.582839e-01
     vertex  9.078331e-01 -3.174609e-02 -1.590347e-01
   endloop
 endfacet
 facet normal  4.647232e-01  0.000000e+00 -8.854560e-01
   outer loop
     vertex  9.078331e-01 -1.587302e-02 -1.590347e-01
     vertex  9.092637e-01 -1.587302e-02 -1.582839e-01
     vertex  9.092637e-01 -3.174609e-02 -1.582839e-01
   endloop
 endfacet
 facet normal  6.631227e-01  0.000000e+00 -7.485107e-01
   outer loop
     vertex  9.066238e-01 -1.587302e-02 -1.601061e-01
     vertex  9.078331e-01 -3.174609e-02 -1.590347e-01
     vertex  9.066238e-01 -3.174609e-02 -1.601061e-01
   endloop
 endfacet
 facet normal  6.631227e-01  0.000000e+00 -7.485107e-01
   outer loop
     vertex  9.066238e-01 -1.587302e-02 -1.601061e-01
     vertex  9.078331e-01 -1.587302e-02 -1.590347e-01
     vertex  9.078331e-01 -3.174609e-02 -1.590347e-01
   endloop
 endfacet
 facet normal  8.229839e-01  0.000000e+00 -5.680647e-01
   outer loop
     vertex  9.057060e-01 -1.587302e-02 -1.614357e-01
     vertex  9.066238e-01 -3.174609e-02 -1.601061e-01
     vertex  9.057060e-01 -3.174609e-02 -1.614357e-01
   endloop
 endfacet
 facet normal  8.229839e-01  0.000000e+00 -5.680647e-01
   outer loop
     vertex  9.057060e-01 -1.587302e-02 -1.614357e-01
     vertex  9.066238e-01 -1.587302e-02 -1.601061e-01
     vertex  9.066238e-01 -3.174609e-02 -1.601061e-01
   endloop
 endfacet
 facet normal  9.350162e-01  0.000000e+00 -3.546049e-01
   outer loop
     vertex  9.051331e-01 -1.587302e-02 -1.629464e-01
     vertex  9.057060e-01 -1.587302e-02 -1.614357e-01
     vertex  9.057060e-01 -3.174609e-02 -1.614357e-01
   endloop
 endfacet
 facet normal  9.350162e-01  0.000000e+00 -3.546049e-01
   outer loop
     vertex  9.051331e-01 -1.587302e-02 -1.629464e-01
     vertex  9.057060e-01 -3.174609e-02 -1.614357e-01
     vertex  9.051331e-01 -3.174609e-02 -1.629464e-01
   endloop
 endfacet
 facet normal  9.927089e-01  0.000000e+00 -1.205367e-01
   outer loop
     vertex  9.049383e-01 -1.587302e-02 -1.645503e-01
     vertex  9.051331e-01 -1.587302e-02 -1.629464e-01
     vertex  9.051331e-01 -3.174609e-02 -1.629464e-01
   endloop
 endfacet
 facet normal  9.927089e-01  0.000000e+00 -1.205367e-01
   outer loop
     vertex  9.049383e-01 -1.587302e-02 -1.645503e-01
     vertex  9.051331e-01 -3.174609e-02 -1.629464e-01
     vertex  9.049383e-01 -3.174609e-02 -1.645503e-01
   endloop
 endfacet
 facet normal  9.927089e-01  0.000000e+00  1.205367e-01
   outer loop
     vertex  9.051331e-01 -1.587302e-02 -1.661542e-01
     vertex  9.049383e-01 -3.174609e-02 -1.645503e-01
     vertex  9.051331e-01 -3.174609e-02 -1.661542e-01
   endloop
 endfacet
 facet normal  9.927089e-01  0.000000e+00  1.205367e-01
   outer loop
     vertex  9.051331e-01 -1.587302e-02 -1.661542e-01
     vertex  9.049383e-01 -1.587302e-02 -1.645503e-01
     vertex  9.049383e-01 -3.174609e-02 -1.645503e-01
   endloop
 endfacet
 facet normal  9.350162e-01  0.000000e+00  3.546049e-01
   outer loop
     vertex  9.057060e-01 -1.587302e-02 -1.676648e-01
     vertex  9.051331e-01 -3.174609e-02 -1.661542e-01
     vertex  9.057060e-01 -3.174609e-02 -1.676648e-01
   endloop
 endfacet
 facet normal  9.350162e-01  0.000000e+00  3.546049e-01
   outer loop
     vertex  9.057060e-01 -1.587302e-02 -1.676648e-01
     vertex  9.051331e-01 -1.587302e-02 -1.661542e-01
     vertex  9.051331e-01 -3.174609e-02 -1.661542e-01
   endloop
 endfacet
 facet normal  8.229839e-01  0.000000e+00  5.680647e-01
   outer loop
     vertex  9.066238e-01 -1.587302e-02 -1.689945e-01
     vertex  9.057060e-01 -3.174609e-02 -1.676648e-01
     vertex  9.066238e-01 -3.174609e-02 -1.689945e-01
   endloop
 endfacet
 facet normal  8.229839e-01  0.000000e+00  5.680647e-01
   outer loop
     vertex  9.066238e-01 -1.587302e-02 -1.689945e-01
     vertex  9.057060e-01 -1.587302e-02 -1.676648e-01
     vertex  9.057060e-01 -3.174609e-02 -1.676648e-01
   endloop
 endfacet
 facet normal  6.631227e-01  0.000000e+00  7.485107e-01
   outer loop
     vertex  9.078331e-01 -1.587302e-02 -1.700659e-01
     vertex  9.066238e-01 -3.174609e-02 -1.689945e-01
     vertex  9.078331e-01 -3.174609e-02 -1.700659e-01
   endloop
 endfacet
 facet normal  6.631227e-01  0.000000e+00  7.485107e-01
   outer loop
     vertex  9.078331e-01 -1.587302e-02 -1.700659e-01
     vertex  9.066238e-01 -1.587302e-02 -1.689945e-01
     vertex  9.066238e-01 -3.174609e-02 -1.689945e-01
   endloop
 endfacet
 facet normal  4.647232e-01  0.000000e+00  8.854560e-01
   outer loop
     vertex  9.092637e-01 -1.587302e-02 -1.708167e-01
     vertex  9.078331e-01 -3.174609e-02 -1.700659e-01
     vertex  9.092637e-01 -3.174609e-02 -1.708167e-01
   endloop
 endfacet
 facet normal  4.647232e-01  0.000000e+00  8.854560e-01
   outer loop
     vertex  9.092637e-01 -1.587302e-02 -1.708167e-01
     vertex  9.078331e-01 -1.587302e-02 -1.700659e-01
     vertex  9.078331e-01 -3.174609e-02 -1.700659e-01
   endloop
 endfacet
 facet normal  2.393157e-01  0.000000e+00  9.709418e-01
   outer loop
     vertex  9.108324e-01 -1.587302e-02 -1.712034e-01
     vertex  9.092637e-01 -3.174609e-02 -1.708167e-01
     vertex  9.108324e-01 -3.174609e-02 -1.712034e-01
   endloop
 endfacet
 facet normal  2.393157e-01  0.000000e+00  9.709418e-01
   outer loop
     vertex  9.108324e-01 -1.587302e-02 -1.712034e-01
     vertex  9.092637e-01 -1.587302e-02 -1.708167e-01
     vertex  9.092637e-01 -3.174609e-02 -1.708167e-01
   endloop
 endfacet
 facet normal  0.000000e+00  0.000000e+00  1.000000e+00
   outer loop
     vertex  9.124481e-01 -1.587302e-02 -1.712034e-01
     vertex  9.108324e-01 -3.174609e-02 -1.712034e-01
     vertex  9.124481e-01 -3.174609e-02 -1.712034e-01
   endloop
 endfacet
 facet normal  0.000000e+00  0.000000e+00  1.000000e+00
   outer loop
     vertex  9.124481e-01 -1.587302e-02 -1.712034e-01
     vertex  9.108324e-01 -1.587302e-02 -1.712034e-01
     vertex  9.108324e-01 -3.174609e-02 -1.712034e-01
   endloop
 endfacet
 facet normal -2.393157e-01  0.000000e+00  9.709418e-01
   outer loop
     vertex  9.140168e-01 -1.587302e-02 -1.708167e-01
     vertex  9.124481e-01 -3.174609e-02 -1.712034e-01
     vertex  9.140168e-01 -3.174609e-02 -1.708167e-01
   endloop
 endfacet
 facet normal -2.393157e-01  0.000000e+00  9.709418e-01
   outer loop
     vertex  9.140168e-01 -1.587302e-02 -1.708167e-01
     vertex  9.124481e-01 -1.587302e-02 -1.712034e-01
     vertex  9.124481e-01 -3.174609e-02 -1.712034e-01
   endloop
 endfacet
 facet normal -4.647232e-01  0.000000e+00  8.854560e-01
   outer loop
     vertex  9.154474e-01 -1.587302e-02 -1.700659e-01
     vertex  9.140168e-01 -3.174609e-02 -1.708167e-01
     vertex  9.154474e-01 -3.174609e-02 -1.700659e-01
   endloop
 endfacet
 facet normal -4.647232e-01  0.000000e+00  8.854560e-01
   outer loop
     vertex  9.154474e-01 -1.587302e-02 -1.700659e-01
     vertex  9.140168e-01 -1.587302e-02 -1.708167e-01
     vertex  9.140168e-01 -3.174609e-02 -1.708167e-01
   endloop
 endfacet
 facet normal -6.631227e-01  0.000000e+00  7.485107e-01
   outer loop
     vertex  9.166567e-01 -1.587302e-02 -1.689945e-01
     vertex  9.154474e-01 -3.174609e-02 -1.700659e-01
     vertex  9.166567e-01 -3.174609e-02 -1.689945e-01
   endloop
 endfacet
 facet normal -6.631227e-01  0.000000e+00  7.485107e-01
   outer loop
     vertex  9.166567e-01 -1.587302e-02 -1.689945e-01
     vertex  9.154474e-01 -1.587302e-02 -1.700659e-01
     vertex  9.154474e-01 -3.174609e-02 -1.700659e-01
   endloop
 endfacet
 facet normal -8.229839e-01  0.000000e+00  5.680647e-01
   outer loop
     vertex  9.175745e-01 -1.587302e-02 -1.676648e-01
     vertex  9.166567e-01 -3.174609e-02 -1.689945e-01
     vertex  9.175745e-01 -3.174609e-02 -1.676648e-01
   endloop
 endfacet
 facet normal -8.229839e-01  0.000000e+00  5.680647e-01
   outer loop
     vertex  9.175745e-01 -1.587302e-02 -1.676648e-01
     vertex  9.166567e-01 -1.587302e-02 -1.689945e-01
     vertex  9.166567e-01 -3.174609e-02 -1.689945e-01
   endloop
 endfacet
 facet normal -9.350162e-01  0.000000e+00  3.546049e-01
   outer loop
     vertex  9.181475e-01 -1.587302e-02 -1.661542e-01
     vertex  9.175745e-01 -3.174609e-02 -1.676648e-01
     vertex  9.181475e-01 -3.174609e-02 -1.661542e-01
   endloop
 endfacet
 facet normal -9.350162e-01  0.000000e+00  3.546049e-01
   outer loop
     vertex  9.181475e-01 -1.587302e-02 -1.661542e-01
     vertex  9.175745e-01 -1.587302e-02 -1.676648e-01
     vertex  9.175745e-01 -3.174609e-02 -1.676648e-01
   endloop
 endfacet
 facet normal -9.927089e-01  0.000000e+00  1.205367e-01
   outer loop
     vertex  9.183422e-01 -1.587302e-02 -1.645503e-01
     vertex  9.181475e-01 -3.174609e-02 -1.661542e-01
     vertex  9.183422e-01 -3.174609e-02 -1.645503e-01
   endloop
 endfacet
 facet normal -9.927089e-01  0.000000e+00  1.205367e-01
   outer loop
     vertex  9.183422e-01 -1.587302e-02 -1.645503e-01
     vertex  9.181475e-01 -1.587302e-02 -1.661542e-01
     vertex  9.181475e-01 -3.174609e-02 -1.661542e-01
   endloop
 endfacet
 facet normal  0.000000e+00  0.000000e+00  1.000000e+00
   outer loop
     vertex  1.610230e-01 -1.587302e-02 -3.051147e-02
     vertex  9.652558e-01 -1.587302e-02 -3.051147e-02
     vertex  9.652558e-01  0.000000e+00 -3.051147e-02
   endloop
 endfacet
 facet normal  0.000000e+00  0.000000e+00  1.000000e+00
   outer loop
     vertex  1.610230e-01 -1.587302e-02 -3.051147e-02
     vertex  9.652558e-01  0.000000e+00 -3.051147e-02
     vertex  1.610230e-01  0.000000e+00 -3.051147e-02
   endloop
 endfacet
 facet normal -9.927089e-01  0.000000e+00 -1.205367e-01
   outer loop
     vertex  9.181475e-01 -1.587302e-02 -1.629464e-01
     vertex  9.183422e-01  0.000000e+00 -1.645503e-01
     vertex  9.183422e-01 -1.587302e-02 -1.645503e-01
   endloop
 endfacet
 facet normal -9.927089e-01  0.000000e+00 -1.205367e-01
   outer loop
     vertex  9.181475e-01 -1.587302e-02 -1.629464e-01
     vertex  9.181475e-01  0.000000e+00 -1.629464e-01
     vertex  9.183422e-01  0.000000e+00 -1.645503e-01
   endloop
 endfacet
 facet normal -9.350162e-01  0.000000e+00 -3.546049e-01
   outer loop
     vertex  9.175745e-01 -1.587302e-02 -1.614357e-01
     vertex  9.175745e-01  0.000000e+00 -1.614357e-01
     vertex  9.181475e-01  0.000000e+00 -1.629464e-01
   endloop
 endfacet
 facet normal -9.350162e-01  0.000000e+00 -3.546049e-01
   outer loop
     vertex  9.175745e-01 -1.587302e-02 -1.614357e-01
     vertex  9.181475e-01  0.000000e+00 -1.629464e-01
     vertex  9.181475e-01 -1.587302e-02 -1.629464e-01
   endloop
 endfacet
 facet normal -8.229839e-01  0.000000e+00 -5.680647e-01
   outer loop
     vertex  9.166567e-01 -1.587302e-02 -1.601061e-01
     vertex  9.166567e-01  0.000000e+00 -1.601061e-01
     vertex  9.175745e-01  0.000000e+00 -1.614357e-01
   endloop
 endfacet
 facet normal -8.229839e-01  0.000000e+00 -5.680647e-01
   outer loop
     vertex  9.166567e-01 -1.587302e-02 -1.601061e-01
     vertex  9.175745e-01  0.000000e+00 -1.614357e-01
     vertex  9.175745e-01 -1.587302e-02 -1.614357e-01
   endloop
 endfacet
 facet normal -6.631227e-01  0.000000e+00 -7.485107e-01
   outer loop
     vertex  9.154474e-01 -1.587302e-02 -1.590347e-01
     vertex  9.154474e-01  0.000000e+00 -1.590347e-01
     vertex  9.166567e-01  0.000000e+00 -1.601061e-01
   endloop
 endfacet
 facet normal -6.631227e-01  0.000000e+00 -7.485107e-01
   outer loop
     vertex  9.154474e-01 -1.587302e-02 -1.590347e-01
     vertex  9.166567e-01  0.000000e+00 -1.601061e-01
     vertex  9.166567e-01 -1.587302e-02 -1.601061e-01
   endloop
 endfacet
 facet normal -4.647232e-01  0.000000e+00 -8.854560e-01
   outer loop
     vertex  9.140168e-01 -1.587302e-02 -1.582839e-01
     vertex  9.140168e-01  0.000000e+00 -1.582839e-01
     vertex  9.154474e-01  0.000000e+00 -1.590347e-01
   endloop
 endfacet
 facet normal -4.647232e-01  0.000000e+00 -8.854560e-01
   outer loop
     vertex  9.140168e-01 -1.587302e-02 -1.582839e-01
     vertex  9.154474e-01  0.000000e+00 -1.590347e-01
     vertex  9.154474e-01 -1.587302e-02 -1.590347e-01
   endloop
 endfacet
 facet normal -2.393157e-01  0.000000e+00 -9.709418e-01
   outer loop
     vertex  9.124481e-01 -1.587302e-02 -1.578972e-01
     vertex  9.124481e-01  0.000000e+00 -1.578972e-01
     vertex  9.140168e-01  0.000000e+00 -1.582839e-01
   endloop
 endfacet
 facet normal -2.393157e-01  0.000000e+00 -9.709418e-01
   outer loop
     vertex  9.124481e-01 -1.587302e-02 -1.578972e-01
     vertex  9.140168e-01  0.000000e+00 -1.582839e-01
     vertex  9.140168e-01 -1.587302e-02 -1.582839e-01
   endloop
 endfacet
 facet normal  0.000000e+00  0.000000e+00 -1.000000e+00
   outer loop
     vertex  9.108324e-01 -1.587302e-02 -1.578972e-01
     vertex  9.108324e-01  0.000000e+00 -1.578972e-01
     vertex  9.124481e-01  0.000000e+00 -1.578972e-01
   endloop
 endfacet
 facet normal  0.000000e+00  0.000000e+00 -1.000000e+00
   outer loop
     vertex  9.108324e-01 -1.587302e-02 -1.578972e-01
     vertex  9.124481e-01  0.000000e+00 -1.578972e-01
     vertex  9.124481e-01 -1.587302e-02 -1.578972e-01
   endloop
 endfacet
 facet normal  2.393157e-01  0.000000e+00 -9.709418e-01
   outer loop
     vertex  9.092637e-01 -1.587302e-02 -1.582839e-01
     vertex  9.092637e-01  0.000000e+00 -1.582839e-01
     vertex  9.108324e-01  0.000000e+00 -1.578972e-01
   endloop
 endfacet
 facet normal  2.393157e-01  0.000000e+00 -9.709418e-01
   outer loop
     vertex  9.092637e-01 -1.587302e-02 -1.582839e-01
     vertex  9.108324e-01  0.000000e+00 -1.578972e-01
     vertex  9.108324e-01 -1.587302e-02 -1.578972e-01
   endloop
 endfacet
 facet normal  4.647232e-01  0.000000e+00 -8.854560e-01
   outer loop
     vertex  9.078331e-01 -1.587302e-02 -1.590347e-01
     vertex  9.078331e-01  0.000000e+00 -1.590347e-01
     vertex  9.092637e-01  0.000000e+00 -1.582839e-01
   endloop
 endfacet
 facet normal  4.647232e-01  0.000000e+00 -8.854560e-01
   outer loop
     vertex  9.078331e-01 -1.587302e-02 -1.590347e-01
     vertex  9.092637e-01  0.000000e+00 -1.582839e-01
     vertex  9.092637e-01 -1.587302e-02 -1.582839e-01
   endloop
 endfacet
 facet normal  6.631227e-01  0.000000e+00 -7.485107e-01
   outer loop
     vertex  9.066238e-01 -1.587302e-02 -1.601061e-01
     vertex  9.066238e-01  0.000000e+00 -1.601061e-01
     vertex  9.078331e-01  0.000000e+00 -1.590347e-01
   endloop
 endfacet
 facet normal  6.631227e-01  0.000000e+00 -7.485107e-01
   outer loop
     vertex  9.066238e-01 -1.587302e-02 -1.601061e-01
     vertex  9.078331e-01  0.000000e+00 -1.590347e-01
     vertex  9.078331e-01 -1.587302e-02 -1.590347e-01
   endloop
 endfacet
 facet normal  8.229839e-01  0.000000e+00 -5.680647e-01
   outer loop
     vertex  9.057060e-01 -1.587302e-02 -1.614357e-01
     vertex  9.057060e-01  0.000000e+00 -1.614357e-01
     vertex  9.066238e-01  0.000000e+00 -1.601061e-01
   endloop
 endfacet
 facet normal  8.229839e-01  0.000000e+00 -5.680647e-01
   outer loop
     vertex  9.057060e-01 -1.587302e-02 -1.614357e-01
     vertex  9.066238e-01  0.000000e+00 -1.601061e-01
     vertex  9.066238e-01 -1.587302e-02 -1.601061e-01
   endloop
 endfacet
 facet normal  9.350162e-01  0.000000e+00 -3.546049e-01
   outer loop
     vertex  9.051331e-01 -1.587302e-02 -1.629464e-01
     vertex  9.057060e-01  0.000000e+00 -1.614357e-01
     vertex  9.057060e-01 -1.587302e-02 -1.614357e-01
   endloop
 endfacet
 facet normal  9.350162e-01  0.000000e+00 -3.546049e-01
   outer loop
     vertex  9.051331e-01 -1.587302e-02 -1.629464e-01
     vertex  9.051331e-01  0.000000e+00 -1.629464e-01
     vertex  9.057060e-01  0.000000e+00 -1.614357e-01
   endloop
 endfacet
 facet normal  9.927089e-01  0.000000e+00 -1.205367e-01
   outer loop
     vertex  9.049383e-01 -1.587302e-02 -1.645503e-01
     vertex  9.051331e-01  0.000000e+00 -1.629464e-01
     vertex  9.051331e-01 -1.587302e-02 -1.629464e-01
   endloop
 endfacet
 facet normal  9.927089e-01  0.000000e+00 -1.205367e-01
   outer loop
     vertex  9.049383e-01 -1.587302e-02 -1.645503e-01
     vertex  9.049383e-01  0.000000e+00 -1.645503e-01
     vertex  9.051331e-01  0.000000e+00 -1.629464e-01
   endloop
 endfacet
 facet normal  9.927089e-01 -0.000000e+00  1.205367e-01
   outer loop
     vertex  9.051331e-01 -1.587302e-02 -1.661542e-01
     vertex  9.051331e-01  0.000000e+00 -1.661542e-01
     vertex  9.049383e-01  0.000000e+00 -1.645503e-01
   endloop
 endfacet
 facet normal  9.927089e-01  0.000000e+00  1.205367e-01
   outer loop
     vertex  9.051331e-01 -1.587302e-02 -1.661542e-01
     vertex  9.049383e-01  0.000000e+00 -1.645503e-01
     vertex  9.049383e-01 -1.587302e-02 -1.645503e-01
   endloop
 endfacet
 facet normal  9.350162e-01 -0.000000e+00  3.546049e-01
   outer loop
     vertex  9.057060e-01 -1.587302e-02 -1.676648e-01
     vertex  9.057060e-01  0.000000e+00 -1.676648e-01
     vertex  9.051331e-01  0.000000e+00 -1.661542e-01
   endloop
 endfacet
 facet normal  9.350162e-01  0.000000e+00  3.546049e-01
   outer loop
     vertex  9.057060e-01 -1.587302e-02 -1.676648e-01
     vertex  9.051331e-01  0.000000e+00 -1.661542e-01
     vertex  9.051331e-01 -1.587302e-02 -1.661542e-01
   endloop
 endfacet
 facet normal  8.229839e-01 -0.000000e+00  5.680647e-01
   outer loop
     vertex  9.066238e-01 -1.587302e-02 -1.689945e-01
     vertex  9.066238e-01  0.000000e+00 -1.689945e-01
     vertex  9.057060e-01  0.000000e+00 -1.676648e-01
   endloop
 endfacet
 facet normal  8.229839e-01  0.000000e+00  5.680647e-01
   outer loop
     vertex  9.066238e-01 -1.587302e-02 -1.689945e-01
     vertex  9.057060e-01  0.000000e+00 -1.676648e-01
     vertex  9.057060e-01 -1.587302e-02 -1.676648e-01
   endloop
 endfacet
 facet normal  6.631227e-01 -0.000000e+00  7.485107e-01
   outer loop
     vertex  9.078331e-01 -1.587302e-02 -1.700659e-01
     vertex  9.078331e-01  0.000000e+00 -1.700659e-01
     vertex  9.066238e-01  0.000000e+00 -1.689945e-01
   endloop
 endfacet
 facet normal  6.631227e-01  0.000000e+00  7.485107e-01
   outer loop
     vertex  9.078331e-01 -1.587302e-02 -1.700659e-01
     vertex  9.066238e-01  0.000000e+00 -1.689945e-01
     vertex  9.066238e-01 -1.587302e-02 -1.689945e-01
   endloop
 endfacet
 facet normal  4.647232e-01 -0.000000e+00  8.854560e-01
   outer loop
     vertex  9.092637e-01 -1.587302e-02 -1.708167e-01
     vertex  9.092637e-01  0.000000e+00 -1.708167e-01
     vertex  9.078331e-01  0.000000e+00 -1.700659e-01
   endloop
 endfacet
 facet normal  4.647232e-01  0.000000e+00  8.854560e-01
   outer loop
     vertex  9.092637e-01 -1.587302e-02 -1.708167e-01
     vertex  9.078331e-01  0.000000e+00 -1.700659e-01
     vertex  9.078331e-01 -1.587302e-02 -1.700659e-01
   endloop
 endfacet
 facet normal  2.393157e-01 -0.000000e+00  9.709418e-01
   outer loop
     vertex  9.108324e-01 -1.587302e-02 -1.712034e-01
     vertex  9.108324e-01  0.000000e+00 -1.712034e-01
     vertex  9.092637e-01  0.000000e+00 -1.708167e-01
   endloop
 endfacet
 facet normal  2.393157e-01  0.000000e+00  9.709418e-01
   outer loop
     vertex  9.108324e-01 -1.587302e-02 -1.712034e-01
     vertex  9.092637e-01  0.000000e+00 -1.708167e-01
     vertex  9.092637e-01 -1.587302e-02 -1.708167e-01
   endloop
 endfacet
 facet normal  0.000000e+00 -0.000000e+00  1.000000e+00
   outer loop
     vertex  9.124481e-01 -1.587302e-02 -1.712034e-01
     vertex  9.124481e-01  0.000000e+00 -1.712034e-01
     vertex  9.108324e-01  0.000000e+00 -1.712034e-01
   endloop
 endfacet
 facet normal  0.000000e+00  0.000000e+00  1.000000e+00
   outer loop
     vertex  9.124481e-01 -1.587302e-02 -1.712034e-01
     vertex  9.108324e-01  0.000000e+00 -1.712034e-01
     vertex  9.108324e-01 -1.587302e-02 -1.712034e-01
   endloop
 endfacet
 facet normal -2.393157e-01  0.000000e+00  9.709418e-01
   outer loop
     vertex  9.140168e-01 -1.587302e-02 -1.708167e-01
     vertex  9.140168e-01  0.000000e+00 -1.708167e-01
     vertex  9.124481e-01  0.000000e+00 -1.712034e-01
   endloop
 endfacet
 facet normal -2.393157e-01  0.000000e+00  9.709418e-01
   outer loop
     vertex  9.140168e-01 -1.587302e-02 -1.708167e-01
     vertex  9.124481e-01  0.000000e+00 -1.712034e-01
     vertex  9.124481e-01 -1.587302e-02 -1.712034e-01
   endloop
 endfacet
 facet normal -4.647232e-01  0.000000e+00  8.854560e-01
   outer loop
     vertex  9.154474e-01 -1.587302e-02 -1.700659e-01
     vertex  9.154474e-01  0.000000e+00 -1.700659e-01
     vertex  9.140168e-01  0.000000e+00 -1.708167e-01
   endloop
 endfacet
 facet normal -4.647232e-01  0.000000e+00  8.854560e-01
   outer loop
     vertex  9.154474e-01 -1.587302e-02 -1.700659e-01
     vertex  9.140168e-01  0.000000e+00 -1.708167e-01
     vertex  9.140168e-01 -1.587302e-02 -1.708167e-01
   endloop
 endfacet
 facet normal -6.631227e-01  0.000000e+00  7.485107e-01
   outer loop
     vertex  9.166567e-01 -1.587302e-02 -1.689945e-01
     vertex  9.166567e-01  0.000000e+00 -1.689945e-01
     vertex  9.154474e-01  0.000000e+00 -1.700659e-01
   endloop
 endfacet
 facet normal -6.631227e-01  0.000000e+00  7.485107e-01
   outer loop
     vertex  9.166567e-01 -1.587302e-02 -1.689945e-01
     vertex  9.154474e-01  0.000000e+00 -1.700659e-01
     vertex  9.154474e-01 -1.587302e-02 -1.700659e-01
   endloop
 endfacet
 facet normal -8.229839e-01  0.000000e+00  5.680647e-01
   outer loop
     vertex  9.175745e-01 -1.587302e-02 -1.676648e-01
     vertex  9.175745e-01  0.000000e+00 -1.676648e-01
     vertex  9.166567e-01  0.000000e+00 -1.689945e-01
   endloop
 endfacet
 facet normal -8.229839e-01  0.000000e+00  5.680647e-01
   outer loop
     vertex  9.175745e-01 -1.587302e-02 -1.676648e-01
     vertex  9.166567e-01  0.000000e+00 -1.689945e-01
     vertex  9.166567e-01 -1.587302e-02 -1.689945e-01
   endloop
 endfacet
 facet normal -9.350162e-01  0.000000e+00  3.546049e-01
   outer loop
     vertex  9.181475e-01 -1.587302e-02 -1.661542e-01
     vertex  9.181475e-01  0.000000e+00 -1.661542e-01
     vertex  9.175745e-01  0.000000e+00 -1.676648e-01
   endloop
 endfacet
 facet normal -9.350162e-01  0.000000e+00  3.546049e-01
   outer loop
     vertex  9.181475e-01 -1.587302e-02 -1.661542e-01
     vertex  9.175745e-01  0.000000e+00 -1.676648e-01
     vertex  9.175745e-01 -1.587302e-02 -1.676648e-01
   endloop
 endfacet
 facet normal -9.927089e-01  0.000000e+00  1.205367e-01
   outer loop
     vertex  9.183422e-01 -1.587302e-02 -1.645503e-01
     vertex  9.183422e-01  0.000000e+00 -1.645503e-01
     vertex  9.181475e-01  0.000000e+00 -1.661542e-01
   endloop
 endfacet
 facet normal -9.927089e-01  0.000000e+00  1.205367e-01
   outer loop
     vertex  9.183422e-01 -1.587302e-02 -1.645503e-01
     vertex  9.181475e-01  0.000000e+00 -1.661542e-01
     vertex  9.181475e-01 -1.587302e-02 -1.661542e-01
   endloop
 endfacet
endsolid
