solid 
 facet normal  0.000000e+00  0.000000e+00 -1.000000e+00
   outer loop
     vertex -1.587302e-02 -2.686066e-01 -1.019929e+00
     vertex  2.857143e-01 -8.527336e-01 -1.019929e+00
     vertex -1.587302e-02 -8.527336e-01 -1.019929e+00
   endloop
 endfacet
 facet normal  0.000000e+00  0.000000e+00 -1.000000e+00
   outer loop
     vertex -1.587302e-02 -2.686066e-01 -1.019929e+00
     vertex  2.857143e-01 -2.686066e-01 -1.019929e+00
     vertex  2.857143e-01 -8.527336e-01 -1.019929e+00
   endloop
 endfacet
 facet normal  0.000000e+00 -1.000000e+00  0.000000e+00
   outer loop
     vertex -1.587302e-02 -8.527336e-01 -1.019929e+00
     vertex  2.857143e-01 -8.527336e-01  6.350971e-01
     vertex -1.587302e-02 -8.527336e-01  6.350971e-01
   endloop
 endfacet
 facet normal  0.000000e+00 -1.000000e+00  0.000000e+00
   outer loop
     vertex -1.587302e-02 -8.527336e-01 -1.019929e+00
     vertex  2.857143e-01 -8.527336e-01 -1.019929e+00
     vertex  2.857143e-01 -8.527336e-01  6.350971e-01
   endloop
 endfacet
 facet normal  0.000000e+00  1.000000e+00  0.000000e+00
   outer loop
     vertex  6.000000e-08 -2.686066e-01  7.814815e-01
     vertex  2.857143e-01 -2.686066e-01 -1.019929e+00
     vertex -1.587302e-02 -2.686066e-01 -1.019929e+00
   endloop
 endfacet
 facet normal -0.000000e+00  1.000000e+00  0.000000e+00
   outer loop
     vertex  6.000000e-08 -2.686066e-01  7.814815e-01
     vertex  2.857143e-01 -2.686066e-01  9.271606e-01
     vertex  2.857143e-01 -2.686066e-01 -1.019929e+00
   endloop
 endfacet
 facet normal  0.000000e+00  1.000000e+00  0.000000e+00
   outer loop
     vertex -1.587302e-02 -2.686066e-01  7.814815e-01
     vertex  6.000000e-08 -2.686066e-01  7.814815e-01
     vertex -1.587302e-02 -2.686066e-01 -1.019929e+00
   endloop
 endfacet
 facet normal -0.000000e+00  1.000000e+00  0.000000e+00
   outer loop
     vertex  6.000000e-08 -2.686066e-01  9.253969e-01
     vertex  2.857143e-01 -2.686066e-01  9.271606e-01
     vertex  6.000000e-08 -2.686066e-01  7.814815e-01
   endloop
 endfacet
 facet normal  0.000000e+00  1.000000e+00  0.000000e+00
   outer loop
     vertex -1.587302e-02 -2.686066e-01  9.271606e-01
     vertex  6.000000e-08 -2.686066e-01  9.253969e-01
     vertex -1.587302e-02 -2.686066e-01  9.253969e-01
   endloop
 endfacet
 facet normal  0.000000e+00  1.000000e+00  0.000000e+00
   outer loop
     vertex  2.857143e-01 -2.686066e-01  9.271606e-01
     vertex  6.000000e-08 -2.686066e-01  9.253969e-01
     vertex -1.587302e-02 -2.686066e-01  9.271606e-01
   endloop
 endfacet
 facet normal  0.000000e+00 -0.000000e+00 -1.000000e+00
   outer loop
     vertex -1.587302e-02 -2.686066e-01 -1.019929e+00
     vertex -1.587302e-02 -8.527336e-01 -1.019929e+00
     vertex -3.174603e-02 -8.527336e-01 -1.019929e+00
   endloop
 endfacet
 facet normal -0.000000e+00  0.000000e+00 -1.000000e+00
   outer loop
     vertex -1.587302e-02 -2.686066e-01 -1.019929e+00
     vertex -3.174603e-02 -8.527336e-01 -1.019929e+00
     vertex -3.174603e-02 -2.686066e-01 -1.019929e+00
   endloop
 endfacet
 facet normal  1.000000e+00  0.000000e+00  0.000000e+00
   outer loop
     vertex  2.857143e-01 -5.282186e-01  6.350971e-01
     vertex  2.857143e-01 -8.527336e-01 -1.019929e+00
     vertex  2.857143e-01 -2.686066e-01 -1.019929e+00
   endloop
 endfacet
 facet normal  1.000000e+00  0.000000e+00  0.000000e+00
   outer loop
     vertex  2.857143e-01 -5.282186e-01  6.350971e-01
     vertex  2.857143e-01 -8.527336e-01  6.350971e-01
     vertex  2.857143e-01 -8.527336e-01 -1.019929e+00
   endloop
 endfacet
 facet normal  1.000000e+00  0.000000e+00  0.000000e+00
   outer loop
     vertex  2.857143e-01 -2.686066e-01  9.271606e-01
     vertex  2.857143e-01 -5.282186e-01  9.271606e-01
     vertex  2.857143e-01 -5.282186e-01  6.350971e-01
   endloop
 endfacet
 facet normal  1.000000e+00  0.000000e+00  0.000000e+00
   outer loop
     vertex  2.857143e-01 -2.686066e-01  9.271606e-01
     vertex  2.857143e-01 -5.282186e-01  6.350971e-01
     vertex  2.857143e-01 -2.686066e-01 -1.019929e+00
   endloop
 endfacet
 facet normal  0.000000e+00  0.000000e+00  1.000000e+00
   outer loop
     vertex -1.587302e-02 -8.527336e-01  6.350971e-01
     vertex  2.857143e-01 -5.282186e-01  6.350971e-01
     vertex -1.587302e-02 -5.282186e-01  6.350971e-01
   endloop
 endfacet
 facet normal  0.000000e+00  0.000000e+00  1.000000e+00
   outer loop
     vertex -1.587302e-02 -8.527336e-01  6.350971e-01
     vertex  2.857143e-01 -8.527336e-01  6.350971e-01
     vertex  2.857143e-01 -5.282186e-01  6.350971e-01
   endloop
 endfacet
 facet normal  0.000000e+00 -1.000000e+00  0.000000e+00
   outer loop
     vertex -1.587302e-02 -8.527336e-01 -1.019929e+00
     vertex -1.587302e-02 -8.527336e-01  6.350971e-01
     vertex -3.174603e-02 -8.527336e-01  6.350971e-01
   endloop
 endfacet
 facet normal  0.000000e+00 -1.000000e+00  0.000000e+00
   outer loop
     vertex -1.587302e-02 -8.527336e-01 -1.019929e+00
     vertex -3.174603e-02 -8.527336e-01  6.350971e-01
     vertex -3.174603e-02 -8.527336e-01 -1.019929e+00
   endloop
 endfacet
 facet normal  0.000000e+00  1.000000e+00  0.000000e+00
   outer loop
     vertex -1.587302e-02 -2.686066e-01  7.814815e-01
     vertex -1.587302e-02 -2.686066e-01 -1.019929e+00
     vertex -3.174603e-02 -2.686066e-01 -1.019929e+00
   endloop
 endfacet
 facet normal  0.000000e+00  1.000000e+00  0.000000e+00
   outer loop
     vertex -1.587302e-02 -2.686066e-01  7.814815e-01
     vertex -3.174603e-02 -2.686066e-01 -1.019929e+00
     vertex -3.174603e-02 -2.686066e-01  7.814815e-01
   endloop
 endfacet
 facet normal -6.994379e-15 -9.423610e-16 -1.000000e+00
   outer loop
     vertex -1.587302e-02 -1.507937e-01  7.814815e-01
     vertex  6.000000e-08 -2.686066e-01  7.814815e-01
     vertex -1.587302e-02 -2.686066e-01  7.814815e-01
   endloop
 endfacet
 facet normal  0.000000e+00  0.000000e+00 -1.000000e+00
   outer loop
     vertex -1.587302e-02 -1.507937e-01  7.814815e-01
     vertex  6.000000e-08 -1.507937e-01  7.814815e-01
     vertex  6.000000e-08 -2.686066e-01  7.814815e-01
   endloop
 endfacet
 facet normal  1.000000e+00  0.000000e+00  0.000000e+00
   outer loop
     vertex  6.000000e-08 -1.507937e-01  9.253969e-01
     vertex  6.000000e-08 -2.686066e-01  9.253969e-01
     vertex  6.000000e-08 -2.686066e-01  7.814815e-01
   endloop
 endfacet
 facet normal  1.000000e+00  0.000000e+00  0.000000e+00
   outer loop
     vertex  6.000000e-08 -1.507937e-01  9.253969e-01
     vertex  6.000000e-08 -2.686066e-01  7.814815e-01
     vertex  6.000000e-08 -1.507937e-01  7.814815e-01
   endloop
 endfacet
 facet normal  0.000000e+00  9.423610e-16  1.000000e+00
   outer loop
     vertex -1.587302e-02 -2.686066e-01  9.253969e-01
     vertex  6.000000e-08 -1.507937e-01  9.253969e-01
     vertex -1.587302e-02 -1.507937e-01  9.253969e-01
   endloop
 endfacet
 facet normal  6.994379e-15  0.000000e+00  1.000000e+00
   outer loop
     vertex -1.587302e-02 -2.686066e-01  9.253969e-01
     vertex  6.000000e-08 -2.686066e-01  9.253969e-01
     vertex  6.000000e-08 -1.507937e-01  9.253969e-01
   endloop
 endfacet
 facet normal  0.000000e+00  1.000000e+00  0.000000e+00
   outer loop
     vertex -1.587302e-02 -2.686066e-01  9.271606e-01
     vertex -1.587302e-02 -2.686066e-01  9.253969e-01
     vertex -3.174603e-02 -2.686066e-01  9.253969e-01
   endloop
 endfacet
 facet normal  0.000000e+00  1.000000e+00  0.000000e+00
   outer loop
     vertex -1.587302e-02 -2.686066e-01  9.271606e-01
     vertex -3.174603e-02 -2.686066e-01  9.253969e-01
     vertex -3.174603e-02 -2.686066e-01  9.271606e-01
   endloop
 endfacet
 facet normal  0.000000e+00  0.000000e+00  1.000000e+00
   outer loop
     vertex -1.587302e-02 -5.282186e-01  9.271606e-01
     vertex  2.857143e-01 -2.686066e-01  9.271606e-01
     vertex -1.587302e-02 -2.686066e-01  9.271606e-01
   endloop
 endfacet
 facet normal  0.000000e+00  0.000000e+00  1.000000e+00
   outer loop
     vertex -1.587302e-02 -5.282186e-01  9.271606e-01
     vertex  2.857143e-01 -5.282186e-01  9.271606e-01
     vertex  2.857143e-01 -2.686066e-01  9.271606e-01
   endloop
 endfacet
 facet normal -1.000000e+00 -0.000000e+00  0.000000e+00
   outer loop
     vertex -3.174603e-02 -5.282186e-01  6.350971e-01
     vertex -3.174603e-02 -8.527336e-01 -1.019929e+00
     vertex -3.174603e-02 -8.527336e-01  6.350971e-01
   endloop
 endfacet
 facet normal -1.000000e+00  0.000000e+00 -0.000000e+00
   outer loop
     vertex -3.174603e-02 -5.282186e-01  6.350971e-01
     vertex -3.174603e-02 -2.686066e-01 -1.019929e+00
     vertex -3.174603e-02 -8.527336e-01 -1.019929e+00
   endloop
 endfacet
 facet normal -1.000000e+00 -0.000000e+00  0.000000e+00
   outer loop
     vertex -3.174603e-02 -3.708995e-01  7.814815e-01
     vertex -3.174603e-02 -5.282186e-01  6.350971e-01
     vertex -3.174603e-02 -5.282186e-01  9.271606e-01
   endloop
 endfacet
 facet normal -1.000000e+00  0.000000e+00 -0.000000e+00
   outer loop
     vertex -3.174603e-02 -2.686066e-01  7.814815e-01
     vertex -3.174603e-02 -2.686066e-01 -1.019929e+00
     vertex -3.174603e-02 -5.282186e-01  6.350971e-01
   endloop
 endfacet
 facet normal -1.000000e+00  0.000000e+00  0.000000e+00
   outer loop
     vertex -3.174603e-02 -2.686066e-01  7.814815e-01
     vertex -3.174603e-02 -5.282186e-01  6.350971e-01
     vertex -3.174603e-02 -3.708995e-01  7.814815e-01
   endloop
 endfacet
 facet normal -1.000000e+00 -0.000000e+00 -0.000000e+00
   outer loop
     vertex -3.174603e-02 -3.708995e-01  9.253969e-01
     vertex -3.174603e-02 -3.708995e-01  7.814815e-01
     vertex -3.174603e-02 -5.282186e-01  9.271606e-01
   endloop
 endfacet
 facet normal -1.000000e+00  0.000000e+00 -0.000000e+00
   outer loop
     vertex -3.174603e-02 -2.686066e-01  9.271606e-01
     vertex -3.174603e-02 -2.686066e-01  9.253969e-01
     vertex -3.174603e-02 -3.708995e-01  9.253969e-01
   endloop
 endfacet
 facet normal -1.000000e+00 -0.000000e+00  0.000000e+00
   outer loop
     vertex -3.174603e-02 -2.686066e-01  9.271606e-01
     vertex -3.174603e-02 -3.708995e-01  9.253969e-01
     vertex -3.174603e-02 -5.282186e-01  9.271606e-01
   endloop
 endfacet
 facet normal  0.000000e+00 -1.000000e+00  0.000000e+00
   outer loop
     vertex -1.587302e-02 -5.282186e-01  6.350971e-01
     vertex  2.857143e-01 -5.282186e-01  9.271606e-01
     vertex -1.587302e-02 -5.282186e-01  9.271606e-01
   endloop
 endfacet
 facet normal  0.000000e+00 -1.000000e+00  0.000000e+00
   outer loop
     vertex -1.587302e-02 -5.282186e-01  6.350971e-01
     vertex  2.857143e-01 -5.282186e-01  6.350971e-01
     vertex  2.857143e-01 -5.282186e-01  9.271606e-01
   endloop
 endfacet
 facet normal  0.000000e+00 -0.000000e+00  1.000000e+00
   outer loop
     vertex -1.587302e-02 -8.527336e-01  6.350971e-01
     vertex -1.587302e-02 -5.282186e-01  6.350971e-01
     vertex -3.174603e-02 -5.282186e-01  6.350971e-01
   endloop
 endfacet
 facet normal  0.000000e+00  0.000000e+00  1.000000e+00
   outer loop
     vertex -1.587302e-02 -8.527336e-01  6.350971e-01
     vertex -3.174603e-02 -5.282186e-01  6.350971e-01
     vertex -3.174603e-02 -8.527336e-01  6.350971e-01
   endloop
 endfacet
 facet normal  0.000000e+00  1.085337e-15 -1.000000e+00
   outer loop
     vertex -3.174603e-02 -2.686066e-01  7.814815e-01
     vertex -3.174603e-02 -3.708995e-01  7.814815e-01
     vertex -6.349206e-02 -3.708995e-01  7.814815e-01
   endloop
 endfacet
 facet normal  3.497203e-15  0.000000e+00 -1.000000e+00
   outer loop
     vertex -6.349206e-02 -1.507937e-01  7.814815e-01
     vertex -3.174603e-02 -2.686066e-01  7.814815e-01
     vertex -6.349206e-02 -3.708995e-01  7.814815e-01
   endloop
 endfacet
 facet normal  0.000000e+00 -9.423610e-16 -1.000000e+00
   outer loop
     vertex -1.587302e-02 -1.507937e-01  7.814815e-01
     vertex -1.587302e-02 -2.686066e-01  7.814815e-01
     vertex -3.174603e-02 -2.686066e-01  7.814815e-01
   endloop
 endfacet
 facet normal -0.000000e+00 -9.423610e-16 -1.000000e+00
   outer loop
     vertex -1.587302e-02 -1.507937e-01  7.814815e-01
     vertex -3.174603e-02 -2.686066e-01  7.814815e-01
     vertex -6.349206e-02 -1.507937e-01  7.814815e-01
   endloop
 endfacet
 facet normal  0.000000e+00  1.000000e+00  0.000000e+00
   outer loop
     vertex -1.587302e-02 -1.507937e-01  9.253969e-01
     vertex  6.000000e-08 -1.507937e-01  7.814815e-01
     vertex -1.587302e-02 -1.507937e-01  7.814815e-01
   endloop
 endfacet
 facet normal -0.000000e+00  1.000000e+00  0.000000e+00
   outer loop
     vertex -1.587302e-02 -1.507937e-01  9.253969e-01
     vertex  6.000000e-08 -1.507937e-01  9.253969e-01
     vertex  6.000000e-08 -1.507937e-01  7.814815e-01
   endloop
 endfacet
 facet normal  0.000000e+00  9.423610e-16  1.000000e+00
   outer loop
     vertex -3.174603e-02 -2.686066e-01  9.253969e-01
     vertex -1.587302e-02 -1.507937e-01  9.253969e-01
     vertex -6.349206e-02 -1.507937e-01  9.253969e-01
   endloop
 endfacet
 facet normal  0.000000e+00  9.423610e-16  1.000000e+00
   outer loop
     vertex -1.587302e-02 -2.686066e-01  9.253969e-01
     vertex -1.587302e-02 -1.507937e-01  9.253969e-01
     vertex -3.174603e-02 -2.686066e-01  9.253969e-01
   endloop
 endfacet
 facet normal -3.497203e-15  0.000000e+00  1.000000e+00
   outer loop
     vertex -6.349206e-02 -3.708995e-01  9.253969e-01
     vertex -3.174603e-02 -2.686066e-01  9.253969e-01
     vertex -6.349206e-02 -1.507937e-01  9.253969e-01
   endloop
 endfacet
 facet normal  0.000000e+00 -1.085337e-15  1.000000e+00
   outer loop
     vertex -3.174603e-02 -3.708995e-01  9.253969e-01
     vertex -3.174603e-02 -2.686066e-01  9.253969e-01
     vertex -6.349206e-02 -3.708995e-01  9.253969e-01
   endloop
 endfacet
 facet normal  0.000000e+00 -0.000000e+00  1.000000e+00
   outer loop
     vertex -1.587302e-02 -5.282186e-01  9.271606e-01
     vertex -1.587302e-02 -2.686066e-01  9.271606e-01
     vertex -3.174603e-02 -2.686066e-01  9.271606e-01
   endloop
 endfacet
 facet normal  0.000000e+00  0.000000e+00  1.000000e+00
   outer loop
     vertex -1.587302e-02 -5.282186e-01  9.271606e-01
     vertex -3.174603e-02 -2.686066e-01  9.271606e-01
     vertex -3.174603e-02 -5.282186e-01  9.271606e-01
   endloop
 endfacet
 facet normal  0.000000e+00 -1.000000e+00  0.000000e+00
   outer loop
     vertex -1.587302e-02 -5.282186e-01  6.350971e-01
     vertex -1.587302e-02 -5.282186e-01  9.271606e-01
     vertex -3.174603e-02 -5.282186e-01  9.271606e-01
   endloop
 endfacet
 facet normal  0.000000e+00 -1.000000e+00  0.000000e+00
   outer loop
     vertex -1.587302e-02 -5.282186e-01  6.350971e-01
     vertex -3.174603e-02 -5.282186e-01  9.271606e-01
     vertex -3.174603e-02 -5.282186e-01  6.350971e-01
   endloop
 endfacet
 facet normal  0.000000e+00 -1.000000e+00  0.000000e+00
   outer loop
     vertex -3.174603e-02 -3.708995e-01  7.814815e-01
     vertex -3.174603e-02 -3.708995e-01  9.253969e-01
     vertex -6.349206e-02 -3.708995e-01  9.253969e-01
   endloop
 endfacet
 facet normal  0.000000e+00 -1.000000e+00  0.000000e+00
   outer loop
     vertex -3.174603e-02 -3.708995e-01  7.814815e-01
     vertex -6.349206e-02 -3.708995e-01  9.253969e-01
     vertex -6.349206e-02 -3.708995e-01  7.814815e-01
   endloop
 endfacet
 facet normal  0.000000e+00  1.000000e+00  0.000000e+00
   outer loop
     vertex -1.587302e-02 -1.507937e-01  9.253969e-01
     vertex -1.587302e-02 -1.507937e-01  7.814815e-01
     vertex -6.349206e-02 -1.507937e-01  7.814815e-01
   endloop
 endfacet
 facet normal  0.000000e+00  1.000000e+00  0.000000e+00
   outer loop
     vertex -1.587302e-02 -1.507937e-01  9.253969e-01
     vertex -6.349206e-02 -1.507937e-01  7.814815e-01
     vertex -6.349206e-02 -1.507937e-01  9.253969e-01
   endloop
 endfacet
 facet normal -1.000000e+00  0.000000e+00 -0.000000e+00
   outer loop
     vertex -6.349206e-02 -1.507937e-01  9.253969e-01
     vertex -6.349206e-02 -1.507937e-01  7.814815e-01
     vertex -6.349206e-02 -3.708995e-01  7.814815e-01
   endloop
 endfacet
 facet normal -1.000000e+00 -0.000000e+00  0.000000e+00
   outer loop
     vertex -6.349206e-02 -1.507937e-01  9.253969e-01
     vertex -6.349206e-02 -3.708995e-01  7.814815e-01
     vertex -6.349206e-02 -3.708995e-01  9.253969e-01
   endloop
 endfacet
endsolid
