solid 
 facet normal -1.000000e+00  4.474749e-13  0.000000e+00
   outer loop
     vertex -1.052734e+00  2.957672e-01 -1.587302e-02
     vertex -1.052734e+00  2.997370e-01  1.587302e-01
     vertex -1.052734e+00  2.997370e-01 -1.587302e-02
   endloop
 endfacet
 facet normal -1.000000e+00  4.474749e-13  0.000000e+00
   outer loop
     vertex -1.052734e+00  2.957672e-01 -1.587302e-02
     vertex -1.052734e+00  2.957672e-01  1.587302e-01
     vertex -1.052734e+00  2.997370e-01  1.587302e-01
   endloop
 endfacet
 facet normal  5.122346e-01  8.588456e-01  0.000000e+00
   outer loop
     vertex -1.038461e+00  2.912245e-01 -1.587302e-02
     vertex -1.052734e+00  2.997370e-01 -1.587302e-02
     vertex -1.052734e+00  2.997370e-01  1.587302e-01
   endloop
 endfacet
 facet normal  5.122346e-01  8.588456e-01 -0.000000e+00
   outer loop
     vertex -1.038461e+00  2.912245e-01 -1.587302e-02
     vertex -1.052734e+00  2.997370e-01  1.587302e-01
     vertex -1.038461e+00  2.912245e-01  1.587302e-01
   endloop
 endfacet
 facet normal  3.306266e-01  9.437617e-01 -0.000000e+00
   outer loop
     vertex -1.022778e+00  2.857301e-01 -1.587302e-02
     vertex -1.038461e+00  2.912245e-01  1.587302e-01
     vertex -1.022778e+00  2.857301e-01  1.587302e-01
   endloop
 endfacet
 facet normal  3.306266e-01  9.437617e-01  0.000000e+00
   outer loop
     vertex -1.022778e+00  2.857301e-01 -1.587302e-02
     vertex -1.038461e+00  2.912245e-01 -1.587302e-02
     vertex -1.038461e+00  2.912245e-01  1.587302e-01
   endloop
 endfacet
 facet normal  1.357299e-01  9.907459e-01 -0.000000e+00
   outer loop
     vertex -1.006313e+00  2.834745e-01 -1.587302e-02
     vertex -1.022778e+00  2.857301e-01  1.587302e-01
     vertex -1.006313e+00  2.834745e-01  1.587302e-01
   endloop
 endfacet
 facet normal  1.357299e-01  9.907459e-01  0.000000e+00
   outer loop
     vertex -1.006313e+00  2.834745e-01 -1.587302e-02
     vertex -1.022778e+00  2.857301e-01 -1.587302e-02
     vertex -1.022778e+00  2.857301e-01  1.587302e-01
   endloop
 endfacet
 facet normal -6.462202e-02  9.979098e-01  0.000000e+00
   outer loop
     vertex -9.897295e-01  2.845484e-01 -1.587302e-02
     vertex -1.006313e+00  2.834745e-01  1.587302e-01
     vertex -9.897295e-01  2.845484e-01  1.587302e-01
   endloop
 endfacet
 facet normal -6.462202e-02  9.979098e-01  0.000000e+00
   outer loop
     vertex -9.897295e-01  2.845484e-01 -1.587302e-02
     vertex -1.006313e+00  2.834745e-01 -1.587302e-02
     vertex -1.006313e+00  2.834745e-01  1.587302e-01
   endloop
 endfacet
 facet normal -2.623766e-01  9.649655e-01  0.000000e+00
   outer loop
     vertex -9.736934e-01  2.889086e-01 -1.587302e-02
     vertex -9.897295e-01  2.845484e-01  1.587302e-01
     vertex -9.736934e-01  2.889086e-01  1.587302e-01
   endloop
 endfacet
 facet normal -2.623766e-01  9.649655e-01  0.000000e+00
   outer loop
     vertex -9.736934e-01  2.889086e-01 -1.587302e-02
     vertex -9.897295e-01  2.845484e-01 -1.587302e-02
     vertex -9.897295e-01  2.845484e-01  1.587302e-01
   endloop
 endfacet
 facet normal -4.495858e-01  8.932372e-01  0.000000e+00
   outer loop
     vertex -9.588494e-01  2.963800e-01 -1.587302e-02
     vertex -9.736934e-01  2.889086e-01  1.587302e-01
     vertex -9.588494e-01  2.963800e-01  1.587302e-01
   endloop
 endfacet
 facet normal -4.495858e-01  8.932372e-01  0.000000e+00
   outer loop
     vertex -9.588494e-01  2.963800e-01 -1.587302e-02
     vertex -9.736934e-01  2.889086e-01 -1.587302e-02
     vertex -9.736934e-01  2.889086e-01  1.587302e-01
   endloop
 endfacet
 facet normal -6.187250e-01  7.856076e-01  0.000000e+00
   outer loop
     vertex -9.457939e-01  3.066621e-01 -1.587302e-02
     vertex -9.588494e-01  2.963800e-01  1.587302e-01
     vertex -9.457939e-01  3.066621e-01  1.587302e-01
   endloop
 endfacet
 facet normal -6.187250e-01  7.856076e-01  0.000000e+00
   outer loop
     vertex -9.457939e-01  3.066621e-01 -1.587302e-02
     vertex -9.588494e-01  2.963800e-01 -1.587302e-02
     vertex -9.588494e-01  2.963800e-01  1.587302e-01
   endloop
 endfacet
 facet normal -7.629964e-01  6.464027e-01  0.000000e+00
   outer loop
     vertex -9.350518e-01  3.193418e-01 -1.587302e-02
     vertex -9.457939e-01  3.066621e-01  1.587302e-01
     vertex -9.350518e-01  3.193418e-01  1.587302e-01
   endloop
 endfacet
 facet normal -7.629964e-01  6.464027e-01  0.000000e+00
   outer loop
     vertex -9.350518e-01  3.193418e-01 -1.587302e-02
     vertex -9.457939e-01  3.066621e-01 -1.587302e-02
     vertex -9.457939e-01  3.066621e-01  1.587302e-01
   endloop
 endfacet
 facet normal -8.766012e-01  4.812175e-01  0.000000e+00
   outer loop
     vertex -9.270548e-01  3.339094e-01 -1.587302e-02
     vertex -9.350518e-01  3.193418e-01  1.587302e-01
     vertex -9.270548e-01  3.339094e-01  1.587302e-01
   endloop
 endfacet
 facet normal -8.766012e-01  4.812175e-01  0.000000e+00
   outer loop
     vertex -9.270548e-01  3.339094e-01 -1.587302e-02
     vertex -9.350518e-01  3.193418e-01 -1.587302e-02
     vertex -9.350518e-01  3.193418e-01  1.587302e-01
   endloop
 endfacet
 facet normal -9.549735e-01  2.966911e-01  0.000000e+00
   outer loop
     vertex -9.221244e-01  3.497794e-01 -1.587302e-02
     vertex -9.270548e-01  3.339094e-01  1.587302e-01
     vertex -9.221244e-01  3.497794e-01  1.587302e-01
   endloop
 endfacet
 facet normal -9.549735e-01  2.966911e-01  0.000000e+00
   outer loop
     vertex -9.221244e-01  3.497794e-01 -1.587302e-02
     vertex -9.270548e-01  3.339094e-01 -1.587302e-02
     vertex -9.270548e-01  3.339094e-01  1.587302e-01
   endloop
 endfacet
 facet normal -9.949633e-01  1.002400e-01  0.000000e+00
   outer loop
     vertex -9.204585e-01  3.663139e-01 -1.587302e-02
     vertex -9.221244e-01  3.497794e-01  1.587302e-01
     vertex -9.204585e-01  3.663139e-01  1.587302e-01
   endloop
 endfacet
 facet normal -9.949633e-01  1.002400e-01  0.000000e+00
   outer loop
     vertex -9.204585e-01  3.663139e-01 -1.587302e-02
     vertex -9.221244e-01  3.497794e-01 -1.587302e-02
     vertex -9.221244e-01  3.497794e-01  1.587302e-01
   endloop
 endfacet
 facet normal -9.958351e-01 -9.117217e-02  0.000000e+00
   outer loop
     vertex -1.051719e+00  2.846816e-01 -1.587302e-02
     vertex -1.052734e+00  2.957672e-01  1.587302e-01
     vertex -1.052734e+00  2.957672e-01 -1.587302e-02
   endloop
 endfacet
 facet normal -9.958351e-01 -9.117217e-02  0.000000e+00
   outer loop
     vertex -1.051719e+00  2.846816e-01 -1.587302e-02
     vertex -1.051719e+00  2.846816e-01  1.587302e-01
     vertex -1.052734e+00  2.957672e-01  1.587302e-01
   endloop
 endfacet
 facet normal -9.483936e-01 -3.170955e-01  0.000000e+00
   outer loop
     vertex -1.048189e+00  2.741242e-01 -1.587302e-02
     vertex -1.048189e+00  2.741242e-01  1.587302e-01
     vertex -1.051719e+00  2.846816e-01  1.587302e-01
   endloop
 endfacet
 facet normal -9.483936e-01 -3.170955e-01  0.000000e+00
   outer loop
     vertex -1.048189e+00  2.741242e-01 -1.587302e-02
     vertex -1.051719e+00  2.846816e-01  1.587302e-01
     vertex -1.051719e+00  2.846816e-01 -1.587302e-02
   endloop
 endfacet
 facet normal -8.504102e-01 -5.261201e-01  0.000000e+00
   outer loop
     vertex -1.042332e+00  2.646575e-01 -1.587302e-02
     vertex -1.042332e+00  2.646575e-01  1.587302e-01
     vertex -1.048189e+00  2.741242e-01  1.587302e-01
   endloop
 endfacet
 facet normal -8.504102e-01 -5.261201e-01  0.000000e+00
   outer loop
     vertex -1.042332e+00  2.646575e-01 -1.587302e-02
     vertex -1.048189e+00  2.741242e-01  1.587302e-01
     vertex -1.048189e+00  2.741242e-01 -1.587302e-02
   endloop
 endfacet
 facet normal -7.071068e-01 -7.071068e-01  0.000000e+00
   outer loop
     vertex -1.034461e+00  2.567860e-01 -1.587302e-02
     vertex -1.034461e+00  2.567860e-01  1.587302e-01
     vertex -1.042332e+00  2.646575e-01  1.587302e-01
   endloop
 endfacet
 facet normal -7.071068e-01 -7.071068e-01  0.000000e+00
   outer loop
     vertex -1.034461e+00  2.567860e-01 -1.587302e-02
     vertex -1.042332e+00  2.646575e-01  1.587302e-01
     vertex -1.042332e+00  2.646575e-01 -1.587302e-02
   endloop
 endfacet
 facet normal -5.261201e-01 -8.504102e-01  0.000000e+00
   outer loop
     vertex -1.024994e+00  2.509293e-01 -1.587302e-02
     vertex -1.024994e+00  2.509293e-01  1.587302e-01
     vertex -1.034461e+00  2.567860e-01  1.587302e-01
   endloop
 endfacet
 facet normal -5.261201e-01 -8.504102e-01  0.000000e+00
   outer loop
     vertex -1.024994e+00  2.509293e-01 -1.587302e-02
     vertex -1.034461e+00  2.567860e-01  1.587302e-01
     vertex -1.034461e+00  2.567860e-01 -1.587302e-02
   endloop
 endfacet
 facet normal -3.170955e-01 -9.483936e-01  0.000000e+00
   outer loop
     vertex -1.014437e+00  2.473994e-01 -1.587302e-02
     vertex -1.014437e+00  2.473994e-01  1.587302e-01
     vertex -1.024994e+00  2.509293e-01  1.587302e-01
   endloop
 endfacet
 facet normal -3.170955e-01 -9.483936e-01  0.000000e+00
   outer loop
     vertex -1.014437e+00  2.473994e-01 -1.587302e-02
     vertex -1.024994e+00  2.509293e-01  1.587302e-01
     vertex -1.024994e+00  2.509293e-01 -1.587302e-02
   endloop
 endfacet
 facet normal -9.117217e-02 -9.958351e-01  0.000000e+00
   outer loop
     vertex -1.003351e+00  2.463845e-01 -1.587302e-02
     vertex -1.003351e+00  2.463845e-01  1.587302e-01
     vertex -1.014437e+00  2.473994e-01  1.587302e-01
   endloop
 endfacet
 facet normal -9.117217e-02 -9.958351e-01  0.000000e+00
   outer loop
     vertex -1.003351e+00  2.463845e-01 -1.587302e-02
     vertex -1.014437e+00  2.473994e-01  1.587302e-01
     vertex -1.014437e+00  2.473994e-01 -1.587302e-02
   endloop
 endfacet
 facet normal -1.000000e+00  4.474749e-13  0.000000e+00
   outer loop
     vertex -1.052734e+00  2.957672e-01 -1.587302e-02
     vertex -1.052734e+00  2.997370e-01 -1.587302e-02
     vertex -1.052734e+00  2.997370e-01 -3.174603e-02
   endloop
 endfacet
 facet normal -1.000000e+00  4.474749e-13  0.000000e+00
   outer loop
     vertex -1.052734e+00  2.957672e-01 -1.587302e-02
     vertex -1.052734e+00  2.997370e-01 -3.174603e-02
     vertex -1.052734e+00  2.957672e-01 -3.174603e-02
   endloop
 endfacet
 facet normal  0.000000e+00  0.000000e+00  1.000000e+00
   outer loop
     vertex -1.038461e+00  2.912245e-01  1.587302e-01
     vertex -1.052734e+00  2.997370e-01  1.587302e-01
     vertex -1.052734e+00  2.957672e-01  1.587302e-01
   endloop
 endfacet
 facet normal  0.000000e+00  0.000000e+00  1.000000e+00
   outer loop
     vertex -1.038461e+00  2.912245e-01  1.587302e-01
     vertex -1.052734e+00  2.957672e-01  1.587302e-01
     vertex -1.051719e+00  2.846816e-01  1.587302e-01
   endloop
 endfacet
 facet normal  0.000000e+00  0.000000e+00  1.000000e+00
   outer loop
     vertex -1.038461e+00  2.912245e-01  1.587302e-01
     vertex -1.051719e+00  2.846816e-01  1.587302e-01
     vertex -1.048189e+00  2.741242e-01  1.587302e-01
   endloop
 endfacet
 facet normal  0.000000e+00  0.000000e+00  1.000000e+00
   outer loop
     vertex -1.022778e+00  2.857301e-01  1.587302e-01
     vertex -1.048189e+00  2.741242e-01  1.587302e-01
     vertex -1.042332e+00  2.646575e-01  1.587302e-01
   endloop
 endfacet
 facet normal  0.000000e+00  0.000000e+00  1.000000e+00
   outer loop
     vertex -1.022778e+00  2.857301e-01  1.587302e-01
     vertex -1.042332e+00  2.646575e-01  1.587302e-01
     vertex -1.034461e+00  2.567860e-01  1.587302e-01
   endloop
 endfacet
 facet normal  0.000000e+00  0.000000e+00  1.000000e+00
   outer loop
     vertex -1.022778e+00  2.857301e-01  1.587302e-01
     vertex -1.034461e+00  2.567860e-01  1.587302e-01
     vertex -1.024994e+00  2.509293e-01  1.587302e-01
   endloop
 endfacet
 facet normal  0.000000e+00  0.000000e+00  1.000000e+00
   outer loop
     vertex -1.022778e+00  2.857301e-01  1.587302e-01
     vertex -1.038461e+00  2.912245e-01  1.587302e-01
     vertex -1.048189e+00  2.741242e-01  1.587302e-01
   endloop
 endfacet
 facet normal  0.000000e+00  0.000000e+00  1.000000e+00
   outer loop
     vertex -1.006313e+00  2.834745e-01  1.587302e-01
     vertex -1.024994e+00  2.509293e-01  1.587302e-01
     vertex -1.014437e+00  2.473994e-01  1.587302e-01
   endloop
 endfacet
 facet normal  0.000000e+00  0.000000e+00  1.000000e+00
   outer loop
     vertex -1.006313e+00  2.834745e-01  1.587302e-01
     vertex -1.014437e+00  2.473994e-01  1.587302e-01
     vertex -1.003351e+00  2.463845e-01  1.587302e-01
   endloop
 endfacet
 facet normal  0.000000e+00  0.000000e+00  1.000000e+00
   outer loop
     vertex -1.006313e+00  2.834745e-01  1.587302e-01
     vertex -1.022778e+00  2.857301e-01  1.587302e-01
     vertex -1.024994e+00  2.509293e-01  1.587302e-01
   endloop
 endfacet
 facet normal  0.000000e+00  0.000000e+00  1.000000e+00
   outer loop
     vertex -9.897295e-01  2.845484e-01  1.587302e-01
     vertex -1.006313e+00  2.834745e-01  1.587302e-01
     vertex -1.003351e+00  2.463845e-01  1.587302e-01
   endloop
 endfacet
 facet normal  0.000000e+00  0.000000e+00  1.000000e+00
   outer loop
     vertex -9.736934e-01  2.889086e-01  1.587302e-01
     vertex -9.897295e-01  2.845484e-01  1.587302e-01
     vertex -1.003351e+00  2.463845e-01  1.587302e-01
   endloop
 endfacet
 facet normal  0.000000e+00  0.000000e+00  1.000000e+00
   outer loop
     vertex -9.588494e-01  2.963800e-01  1.587302e-01
     vertex -9.736934e-01  2.889086e-01  1.587302e-01
     vertex -1.003351e+00  2.463845e-01  1.587302e-01
   endloop
 endfacet
 facet normal  0.000000e+00  0.000000e+00  1.000000e+00
   outer loop
     vertex -1.038461e+00  4.414034e-01  1.587302e-01
     vertex -1.051719e+00  4.479463e-01  1.587302e-01
     vertex -1.052734e+00  4.368607e-01  1.587302e-01
   endloop
 endfacet
 facet normal  0.000000e+00  0.000000e+00  1.000000e+00
   outer loop
     vertex -1.038461e+00  4.414034e-01  1.587302e-01
     vertex -1.052734e+00  4.368607e-01  1.587302e-01
     vertex -1.052734e+00  4.328909e-01  1.587302e-01
   endloop
 endfacet
 facet normal  0.000000e+00  0.000000e+00  1.000000e+00
   outer loop
     vertex -1.048189e+00  4.585037e-01  1.587302e-01
     vertex -1.051719e+00  4.479463e-01  1.587302e-01
     vertex -1.038461e+00  4.414034e-01  1.587302e-01
   endloop
 endfacet
 facet normal  0.000000e+00  0.000000e+00  1.000000e+00
   outer loop
     vertex -1.022778e+00  4.468978e-01  1.587302e-01
     vertex -1.048189e+00  4.585037e-01  1.587302e-01
     vertex -1.038461e+00  4.414034e-01  1.587302e-01
   endloop
 endfacet
 facet normal  0.000000e+00  0.000000e+00  1.000000e+00
   outer loop
     vertex -1.042332e+00  4.679704e-01  1.587302e-01
     vertex -1.048189e+00  4.585037e-01  1.587302e-01
     vertex -1.022778e+00  4.468978e-01  1.587302e-01
   endloop
 endfacet
 facet normal  0.000000e+00  0.000000e+00  1.000000e+00
   outer loop
     vertex -1.034461e+00  4.758419e-01  1.587302e-01
     vertex -1.042332e+00  4.679704e-01  1.587302e-01
     vertex -1.022778e+00  4.468978e-01  1.587302e-01
   endloop
 endfacet
 facet normal  0.000000e+00  0.000000e+00  1.000000e+00
   outer loop
     vertex -1.024994e+00  4.816986e-01  1.587302e-01
     vertex -1.022778e+00  4.468978e-01  1.587302e-01
     vertex -1.006313e+00  4.491534e-01  1.587302e-01
   endloop
 endfacet
 facet normal  0.000000e+00  0.000000e+00  1.000000e+00
   outer loop
     vertex -1.024994e+00  4.816986e-01  1.587302e-01
     vertex -1.034461e+00  4.758419e-01  1.587302e-01
     vertex -1.022778e+00  4.468978e-01  1.587302e-01
   endloop
 endfacet
 facet normal  0.000000e+00  0.000000e+00  1.000000e+00
   outer loop
     vertex -1.014437e+00  4.852285e-01  1.587302e-01
     vertex -1.024994e+00  4.816986e-01  1.587302e-01
     vertex -1.006313e+00  4.491534e-01  1.587302e-01
   endloop
 endfacet
 facet normal  0.000000e+00  0.000000e+00  1.000000e+00
   outer loop
     vertex -1.003351e+00  4.862434e-01  1.587302e-01
     vertex -1.014437e+00  4.852285e-01  1.587302e-01
     vertex -1.006313e+00  4.491534e-01  1.587302e-01
   endloop
 endfacet
 facet normal  0.000000e+00  0.000000e+00  1.000000e+00
   outer loop
     vertex -1.003351e+00  4.862434e-01  1.587302e-01
     vertex -9.736934e-01  4.437193e-01  1.587302e-01
     vertex -9.588494e-01  4.362479e-01  1.587302e-01
   endloop
 endfacet
 facet normal  0.000000e+00  0.000000e+00  1.000000e+00
   outer loop
     vertex -1.003351e+00  4.862434e-01  1.587302e-01
     vertex -9.897295e-01  4.480795e-01  1.587302e-01
     vertex -9.736934e-01  4.437193e-01  1.587302e-01
   endloop
 endfacet
 facet normal  0.000000e+00  0.000000e+00  1.000000e+00
   outer loop
     vertex -1.003351e+00  4.862434e-01  1.587302e-01
     vertex -1.006313e+00  4.491534e-01  1.587302e-01
     vertex -9.897295e-01  4.480795e-01  1.587302e-01
   endloop
 endfacet
 facet normal  0.000000e+00  0.000000e+00  1.000000e+00
   outer loop
     vertex -7.211640e-01  2.463845e-01  1.587302e-01
     vertex -9.457939e-01  3.066621e-01  1.587302e-01
     vertex -9.588494e-01  2.963800e-01  1.587302e-01
   endloop
 endfacet
 facet normal  0.000000e+00  0.000000e+00  1.000000e+00
   outer loop
     vertex -7.211640e-01  2.463845e-01  1.587302e-01
     vertex -9.350518e-01  3.193418e-01  1.587302e-01
     vertex -9.457939e-01  3.066621e-01  1.587302e-01
   endloop
 endfacet
 facet normal  0.000000e+00  0.000000e+00  1.000000e+00
   outer loop
     vertex -7.211640e-01  2.463845e-01  1.587302e-01
     vertex -9.270548e-01  3.339094e-01  1.587302e-01
     vertex -9.350518e-01  3.193418e-01  1.587302e-01
   endloop
 endfacet
 facet normal  0.000000e+00  0.000000e+00  1.000000e+00
   outer loop
     vertex -7.211640e-01  2.463845e-01  1.587302e-01
     vertex -9.221244e-01  3.497794e-01  1.587302e-01
     vertex -9.270548e-01  3.339094e-01  1.587302e-01
   endloop
 endfacet
 facet normal  0.000000e+00  0.000000e+00  1.000000e+00
   outer loop
     vertex -7.211640e-01  2.463845e-01  1.587302e-01
     vertex -9.204585e-01  3.663139e-01  1.587302e-01
     vertex -9.221244e-01  3.497794e-01  1.587302e-01
   endloop
 endfacet
 facet normal  0.000000e+00  0.000000e+00  1.000000e+00
   outer loop
     vertex -7.211640e-01  2.463845e-01  1.587302e-01
     vertex -9.588494e-01  2.963800e-01  1.587302e-01
     vertex -1.003351e+00  2.463845e-01  1.587302e-01
   endloop
 endfacet
 facet normal  0.000000e+00  0.000000e+00  1.000000e+00
   outer loop
     vertex -6.850081e-01  2.541732e-01  1.587302e-01
     vertex -7.116744e-01  2.448515e-01  1.587302e-01
     vertex -7.020990e-01  2.456970e-01  1.587302e-01
   endloop
 endfacet
 facet normal  0.000000e+00  0.000000e+00  1.000000e+00
   outer loop
     vertex -6.850081e-01  2.541732e-01  1.587302e-01
     vertex -7.020990e-01  2.456970e-01  1.587302e-01
     vertex -6.930249e-01  2.488690e-01  1.587302e-01
   endloop
 endfacet
 facet normal  0.000000e+00  0.000000e+00  1.000000e+00
   outer loop
     vertex -6.717813e-01  2.887125e-01  1.587302e-01
     vertex -7.211640e-01  2.463845e-01  1.587302e-01
     vertex -7.116744e-01  2.448515e-01  1.587302e-01
   endloop
 endfacet
 facet normal  0.000000e+00  0.000000e+00  1.000000e+00
   outer loop
     vertex -6.717813e-01  2.887125e-01  1.587302e-01
     vertex -6.850081e-01  2.541732e-01  1.587302e-01
     vertex -6.785402e-01  2.612844e-01  1.587302e-01
   endloop
 endfacet
 facet normal  0.000000e+00  0.000000e+00  1.000000e+00
   outer loop
     vertex -6.717813e-01  2.887125e-01  1.587302e-01
     vertex -6.785402e-01  2.612844e-01  1.587302e-01
     vertex -6.740177e-01  2.697667e-01  1.587302e-01
   endloop
 endfacet
 facet normal  0.000000e+00  0.000000e+00  1.000000e+00
   outer loop
     vertex -6.717813e-01  2.887125e-01  1.587302e-01
     vertex -6.740177e-01  2.697667e-01  1.587302e-01
     vertex -6.717177e-01  2.791001e-01  1.587302e-01
   endloop
 endfacet
 facet normal  0.000000e+00  0.000000e+00  1.000000e+00
   outer loop
     vertex -6.717813e-01  2.887125e-01  1.587302e-01
     vertex -7.116744e-01  2.448515e-01  1.587302e-01
     vertex -6.850081e-01  2.541732e-01  1.587302e-01
   endloop
 endfacet
 facet normal  0.000000e+00  0.000000e+00  1.000000e+00
   outer loop
     vertex -6.717813e-01  3.663139e-01  1.587302e-01
     vertex -9.204585e-01  3.663139e-01  1.587302e-01
     vertex -7.211640e-01  2.463845e-01  1.587302e-01
   endloop
 endfacet
 facet normal  0.000000e+00  0.000000e+00  1.000000e+00
   outer loop
     vertex -6.717813e-01  3.663139e-01  1.587302e-01
     vertex -7.211640e-01  2.463845e-01  1.587302e-01
     vertex -6.717813e-01  2.887125e-01  1.587302e-01
   endloop
 endfacet
 facet normal  0.000000e+00  0.000000e+00  1.000000e+00
   outer loop
     vertex -7.211640e-01  4.862434e-01  1.587302e-01
     vertex -1.003351e+00  4.862434e-01  1.587302e-01
     vertex -9.588494e-01  4.362479e-01  1.587302e-01
   endloop
 endfacet
 facet normal  0.000000e+00  0.000000e+00  1.000000e+00
   outer loop
     vertex -7.211640e-01  4.862434e-01  1.587302e-01
     vertex -9.221244e-01  3.828485e-01  1.587302e-01
     vertex -9.204585e-01  3.663139e-01  1.587302e-01
   endloop
 endfacet
 facet normal  0.000000e+00  0.000000e+00  1.000000e+00
   outer loop
     vertex -7.211640e-01  4.862434e-01  1.587302e-01
     vertex -9.270548e-01  3.987185e-01  1.587302e-01
     vertex -9.221244e-01  3.828485e-01  1.587302e-01
   endloop
 endfacet
 facet normal  0.000000e+00  0.000000e+00  1.000000e+00
   outer loop
     vertex -7.211640e-01  4.862434e-01  1.587302e-01
     vertex -9.350518e-01  4.132861e-01  1.587302e-01
     vertex -9.270548e-01  3.987185e-01  1.587302e-01
   endloop
 endfacet
 facet normal  0.000000e+00  0.000000e+00  1.000000e+00
   outer loop
     vertex -7.211640e-01  4.862434e-01  1.587302e-01
     vertex -9.457939e-01  4.259658e-01  1.587302e-01
     vertex -9.350518e-01  4.132861e-01  1.587302e-01
   endloop
 endfacet
 facet normal  0.000000e+00  0.000000e+00  1.000000e+00
   outer loop
     vertex -7.211640e-01  4.862434e-01  1.587302e-01
     vertex -9.588494e-01  4.362479e-01  1.587302e-01
     vertex -9.457939e-01  4.259658e-01  1.587302e-01
   endloop
 endfacet
 facet normal  0.000000e+00  0.000000e+00  1.000000e+00
   outer loop
     vertex -7.211640e-01  4.862434e-01  1.587302e-01
     vertex -9.204585e-01  3.663139e-01  1.587302e-01
     vertex -6.717813e-01  3.663139e-01  1.587302e-01
   endloop
 endfacet
 facet normal  0.000000e+00  0.000000e+00  1.000000e+00
   outer loop
     vertex -6.717813e-01  4.439154e-01  1.587302e-01
     vertex -7.211640e-01  4.862434e-01  1.587302e-01
     vertex -6.717813e-01  3.663139e-01  1.587302e-01
   endloop
 endfacet
 facet normal  0.000000e+00  0.000000e+00  1.000000e+00
   outer loop
     vertex -6.785402e-01  4.713435e-01  1.587302e-01
     vertex -6.717177e-01  4.535278e-01  1.587302e-01
     vertex -6.740177e-01  4.628612e-01  1.587302e-01
   endloop
 endfacet
 facet normal  0.000000e+00  0.000000e+00  1.000000e+00
   outer loop
     vertex -6.850081e-01  4.784547e-01  1.587302e-01
     vertex -6.717813e-01  4.439154e-01  1.587302e-01
     vertex -6.717177e-01  4.535278e-01  1.587302e-01
   endloop
 endfacet
 facet normal  0.000000e+00  0.000000e+00  1.000000e+00
   outer loop
     vertex -6.850081e-01  4.784547e-01  1.587302e-01
     vertex -6.930249e-01  4.837589e-01  1.587302e-01
     vertex -7.020990e-01  4.869309e-01  1.587302e-01
   endloop
 endfacet
 facet normal  0.000000e+00  0.000000e+00  1.000000e+00
   outer loop
     vertex -6.850081e-01  4.784547e-01  1.587302e-01
     vertex -7.020990e-01  4.869309e-01  1.587302e-01
     vertex -7.116744e-01  4.877764e-01  1.587302e-01
   endloop
 endfacet
 facet normal  0.000000e+00  0.000000e+00  1.000000e+00
   outer loop
     vertex -6.850081e-01  4.784547e-01  1.587302e-01
     vertex -7.116744e-01  4.877764e-01  1.587302e-01
     vertex -7.211640e-01  4.862434e-01  1.587302e-01
   endloop
 endfacet
 facet normal  0.000000e+00  0.000000e+00  1.000000e+00
   outer loop
     vertex -6.850081e-01  4.784547e-01  1.587302e-01
     vertex -6.717177e-01  4.535278e-01  1.587302e-01
     vertex -6.785402e-01  4.713435e-01  1.587302e-01
   endloop
 endfacet
 facet normal  0.000000e+00  0.000000e+00  1.000000e+00
   outer loop
     vertex -6.850081e-01  4.784547e-01  1.587302e-01
     vertex -7.211640e-01  4.862434e-01  1.587302e-01
     vertex -6.717813e-01  4.439154e-01  1.587302e-01
   endloop
 endfacet
 facet normal -9.949633e-01 -1.002400e-01  0.000000e+00
   outer loop
     vertex -9.221244e-01  3.828485e-01 -1.587302e-02
     vertex -9.204585e-01  3.663139e-01 -1.587302e-02
     vertex -9.204585e-01  3.663139e-01  1.587302e-01
   endloop
 endfacet
 facet normal -9.949633e-01 -1.002400e-01  0.000000e+00
   outer loop
     vertex -9.221244e-01  3.828485e-01 -1.587302e-02
     vertex -9.204585e-01  3.663139e-01  1.587302e-01
     vertex -9.221244e-01  3.828485e-01  1.587302e-01
   endloop
 endfacet
 facet normal -9.549735e-01 -2.966911e-01  0.000000e+00
   outer loop
     vertex -9.270548e-01  3.987185e-01 -1.587302e-02
     vertex -9.221244e-01  3.828485e-01  1.587302e-01
     vertex -9.270548e-01  3.987185e-01  1.587302e-01
   endloop
 endfacet
 facet normal -9.549735e-01 -2.966911e-01  0.000000e+00
   outer loop
     vertex -9.270548e-01  3.987185e-01 -1.587302e-02
     vertex -9.221244e-01  3.828485e-01 -1.587302e-02
     vertex -9.221244e-01  3.828485e-01  1.587302e-01
   endloop
 endfacet
 facet normal -8.766012e-01 -4.812175e-01  0.000000e+00
   outer loop
     vertex -9.350518e-01  4.132861e-01 -1.587302e-02
     vertex -9.270548e-01  3.987185e-01  1.587302e-01
     vertex -9.350518e-01  4.132861e-01  1.587302e-01
   endloop
 endfacet
 facet normal -8.766012e-01 -4.812175e-01  0.000000e+00
   outer loop
     vertex -9.350518e-01  4.132861e-01 -1.587302e-02
     vertex -9.270548e-01  3.987185e-01 -1.587302e-02
     vertex -9.270548e-01  3.987185e-01  1.587302e-01
   endloop
 endfacet
 facet normal -7.629964e-01 -6.464027e-01  0.000000e+00
   outer loop
     vertex -9.457939e-01  4.259658e-01 -1.587302e-02
     vertex -9.350518e-01  4.132861e-01  1.587302e-01
     vertex -9.457939e-01  4.259658e-01  1.587302e-01
   endloop
 endfacet
 facet normal -7.629964e-01 -6.464027e-01  0.000000e+00
   outer loop
     vertex -9.457939e-01  4.259658e-01 -1.587302e-02
     vertex -9.350518e-01  4.132861e-01 -1.587302e-02
     vertex -9.350518e-01  4.132861e-01  1.587302e-01
   endloop
 endfacet
 facet normal -6.187250e-01 -7.856076e-01  0.000000e+00
   outer loop
     vertex -9.588494e-01  4.362479e-01 -1.587302e-02
     vertex -9.457939e-01  4.259658e-01  1.587302e-01
     vertex -9.588494e-01  4.362479e-01  1.587302e-01
   endloop
 endfacet
 facet normal -6.187250e-01 -7.856076e-01  0.000000e+00
   outer loop
     vertex -9.588494e-01  4.362479e-01 -1.587302e-02
     vertex -9.457939e-01  4.259658e-01 -1.587302e-02
     vertex -9.457939e-01  4.259658e-01  1.587302e-01
   endloop
 endfacet
 facet normal -4.495858e-01 -8.932372e-01  0.000000e+00
   outer loop
     vertex -9.736934e-01  4.437193e-01 -1.587302e-02
     vertex -9.588494e-01  4.362479e-01  1.587302e-01
     vertex -9.736934e-01  4.437193e-01  1.587302e-01
   endloop
 endfacet
 facet normal -4.495858e-01 -8.932372e-01  0.000000e+00
   outer loop
     vertex -9.736934e-01  4.437193e-01 -1.587302e-02
     vertex -9.588494e-01  4.362479e-01 -1.587302e-02
     vertex -9.588494e-01  4.362479e-01  1.587302e-01
   endloop
 endfacet
 facet normal -2.623766e-01 -9.649655e-01  0.000000e+00
   outer loop
     vertex -9.897295e-01  4.480795e-01 -1.587302e-02
     vertex -9.736934e-01  4.437193e-01  1.587302e-01
     vertex -9.897295e-01  4.480795e-01  1.587302e-01
   endloop
 endfacet
 facet normal -2.623766e-01 -9.649655e-01  0.000000e+00
   outer loop
     vertex -9.897295e-01  4.480795e-01 -1.587302e-02
     vertex -9.736934e-01  4.437193e-01 -1.587302e-02
     vertex -9.736934e-01  4.437193e-01  1.587302e-01
   endloop
 endfacet
 facet normal -6.462202e-02 -9.979098e-01  0.000000e+00
   outer loop
     vertex -1.006313e+00  4.491534e-01 -1.587302e-02
     vertex -9.897295e-01  4.480795e-01  1.587302e-01
     vertex -1.006313e+00  4.491534e-01  1.587302e-01
   endloop
 endfacet
 facet normal -6.462202e-02 -9.979098e-01  0.000000e+00
   outer loop
     vertex -1.006313e+00  4.491534e-01 -1.587302e-02
     vertex -9.897295e-01  4.480795e-01 -1.587302e-02
     vertex -9.897295e-01  4.480795e-01  1.587302e-01
   endloop
 endfacet
 facet normal  1.357299e-01 -9.907459e-01  0.000000e+00
   outer loop
     vertex -1.022778e+00  4.468978e-01 -1.587302e-02
     vertex -1.006313e+00  4.491534e-01  1.587302e-01
     vertex -1.022778e+00  4.468978e-01  1.587302e-01
   endloop
 endfacet
 facet normal  1.357299e-01 -9.907459e-01  0.000000e+00
   outer loop
     vertex -1.022778e+00  4.468978e-01 -1.587302e-02
     vertex -1.006313e+00  4.491534e-01 -1.587302e-02
     vertex -1.006313e+00  4.491534e-01  1.587302e-01
   endloop
 endfacet
 facet normal  3.306266e-01 -9.437617e-01  0.000000e+00
   outer loop
     vertex -1.038461e+00  4.414034e-01 -1.587302e-02
     vertex -1.022778e+00  4.468978e-01  1.587302e-01
     vertex -1.038461e+00  4.414034e-01  1.587302e-01
   endloop
 endfacet
 facet normal  3.306266e-01 -9.437617e-01  0.000000e+00
   outer loop
     vertex -1.038461e+00  4.414034e-01 -1.587302e-02
     vertex -1.022778e+00  4.468978e-01 -1.587302e-02
     vertex -1.022778e+00  4.468978e-01  1.587302e-01
   endloop
 endfacet
 facet normal  5.122346e-01 -8.588456e-01  0.000000e+00
   outer loop
     vertex -1.052734e+00  4.328909e-01 -1.587302e-02
     vertex -1.038461e+00  4.414034e-01  1.587302e-01
     vertex -1.052734e+00  4.328909e-01  1.587302e-01
   endloop
 endfacet
 facet normal  5.122346e-01 -8.588456e-01  0.000000e+00
   outer loop
     vertex -1.052734e+00  4.328909e-01 -1.587302e-02
     vertex -1.038461e+00  4.414034e-01 -1.587302e-02
     vertex -1.038461e+00  4.414034e-01  1.587302e-01
   endloop
 endfacet
 facet normal  5.122346e-01  8.588456e-01  0.000000e+00
   outer loop
     vertex -1.038461e+00  2.912245e-01 -1.587302e-02
     vertex -1.052734e+00  2.997370e-01 -3.174603e-02
     vertex -1.052734e+00  2.997370e-01 -1.587302e-02
   endloop
 endfacet
 facet normal  5.122346e-01  8.588456e-01  0.000000e+00
   outer loop
     vertex -1.038461e+00  2.912245e-01 -1.587302e-02
     vertex -1.038461e+00  2.912245e-01 -3.174603e-02
     vertex -1.052734e+00  2.997370e-01 -3.174603e-02
   endloop
 endfacet
 facet normal  3.306266e-01  9.437617e-01  0.000000e+00
   outer loop
     vertex -1.022778e+00  2.857301e-01 -1.587302e-02
     vertex -1.022778e+00  2.857301e-01 -3.174603e-02
     vertex -1.038461e+00  2.912245e-01 -3.174603e-02
   endloop
 endfacet
 facet normal  3.306266e-01  9.437617e-01  0.000000e+00
   outer loop
     vertex -1.022778e+00  2.857301e-01 -1.587302e-02
     vertex -1.038461e+00  2.912245e-01 -3.174603e-02
     vertex -1.038461e+00  2.912245e-01 -1.587302e-02
   endloop
 endfacet
 facet normal  1.357299e-01  9.907459e-01  0.000000e+00
   outer loop
     vertex -1.006313e+00  2.834745e-01 -1.587302e-02
     vertex -1.006313e+00  2.834745e-01 -3.174603e-02
     vertex -1.022778e+00  2.857301e-01 -3.174603e-02
   endloop
 endfacet
 facet normal  1.357299e-01  9.907459e-01  0.000000e+00
   outer loop
     vertex -1.006313e+00  2.834745e-01 -1.587302e-02
     vertex -1.022778e+00  2.857301e-01 -3.174603e-02
     vertex -1.022778e+00  2.857301e-01 -1.587302e-02
   endloop
 endfacet
 facet normal -6.462202e-02  9.979098e-01  0.000000e+00
   outer loop
     vertex -9.897295e-01  2.845484e-01 -1.587302e-02
     vertex -9.897295e-01  2.845484e-01 -3.174603e-02
     vertex -1.006313e+00  2.834745e-01 -3.174603e-02
   endloop
 endfacet
 facet normal -6.462202e-02  9.979098e-01  0.000000e+00
   outer loop
     vertex -9.897295e-01  2.845484e-01 -1.587302e-02
     vertex -1.006313e+00  2.834745e-01 -3.174603e-02
     vertex -1.006313e+00  2.834745e-01 -1.587302e-02
   endloop
 endfacet
 facet normal -2.623766e-01  9.649655e-01  0.000000e+00
   outer loop
     vertex -9.736934e-01  2.889086e-01 -1.587302e-02
     vertex -9.736934e-01  2.889086e-01 -3.174603e-02
     vertex -9.897295e-01  2.845484e-01 -3.174603e-02
   endloop
 endfacet
 facet normal -2.623766e-01  9.649655e-01  0.000000e+00
   outer loop
     vertex -9.736934e-01  2.889086e-01 -1.587302e-02
     vertex -9.897295e-01  2.845484e-01 -3.174603e-02
     vertex -9.897295e-01  2.845484e-01 -1.587302e-02
   endloop
 endfacet
 facet normal -4.495858e-01  8.932372e-01  0.000000e+00
   outer loop
     vertex -9.588494e-01  2.963800e-01 -1.587302e-02
     vertex -9.588494e-01  2.963800e-01 -3.174603e-02
     vertex -9.736934e-01  2.889086e-01 -3.174603e-02
   endloop
 endfacet
 facet normal -4.495858e-01  8.932372e-01  0.000000e+00
   outer loop
     vertex -9.588494e-01  2.963800e-01 -1.587302e-02
     vertex -9.736934e-01  2.889086e-01 -3.174603e-02
     vertex -9.736934e-01  2.889086e-01 -1.587302e-02
   endloop
 endfacet
 facet normal -6.187250e-01  7.856076e-01  0.000000e+00
   outer loop
     vertex -9.457939e-01  3.066621e-01 -1.587302e-02
     vertex -9.457939e-01  3.066621e-01 -3.174603e-02
     vertex -9.588494e-01  2.963800e-01 -3.174603e-02
   endloop
 endfacet
 facet normal -6.187250e-01  7.856076e-01  0.000000e+00
   outer loop
     vertex -9.457939e-01  3.066621e-01 -1.587302e-02
     vertex -9.588494e-01  2.963800e-01 -3.174603e-02
     vertex -9.588494e-01  2.963800e-01 -1.587302e-02
   endloop
 endfacet
 facet normal -7.629964e-01  6.464027e-01  0.000000e+00
   outer loop
     vertex -9.350518e-01  3.193418e-01 -1.587302e-02
     vertex -9.350518e-01  3.193418e-01 -3.174603e-02
     vertex -9.457939e-01  3.066621e-01 -3.174603e-02
   endloop
 endfacet
 facet normal -7.629964e-01  6.464027e-01  0.000000e+00
   outer loop
     vertex -9.350518e-01  3.193418e-01 -1.587302e-02
     vertex -9.457939e-01  3.066621e-01 -3.174603e-02
     vertex -9.457939e-01  3.066621e-01 -1.587302e-02
   endloop
 endfacet
 facet normal -8.766012e-01  4.812175e-01  0.000000e+00
   outer loop
     vertex -9.270548e-01  3.339094e-01 -1.587302e-02
     vertex -9.270548e-01  3.339094e-01 -3.174603e-02
     vertex -9.350518e-01  3.193418e-01 -3.174603e-02
   endloop
 endfacet
 facet normal -8.766012e-01  4.812175e-01  0.000000e+00
   outer loop
     vertex -9.270548e-01  3.339094e-01 -1.587302e-02
     vertex -9.350518e-01  3.193418e-01 -3.174603e-02
     vertex -9.350518e-01  3.193418e-01 -1.587302e-02
   endloop
 endfacet
 facet normal -9.549735e-01  2.966911e-01  0.000000e+00
   outer loop
     vertex -9.221244e-01  3.497794e-01 -1.587302e-02
     vertex -9.221244e-01  3.497794e-01 -3.174603e-02
     vertex -9.270548e-01  3.339094e-01 -3.174603e-02
   endloop
 endfacet
 facet normal -9.549735e-01  2.966911e-01  0.000000e+00
   outer loop
     vertex -9.221244e-01  3.497794e-01 -1.587302e-02
     vertex -9.270548e-01  3.339094e-01 -3.174603e-02
     vertex -9.270548e-01  3.339094e-01 -1.587302e-02
   endloop
 endfacet
 facet normal -9.949633e-01  1.002400e-01  0.000000e+00
   outer loop
     vertex -9.204585e-01  3.663139e-01 -1.587302e-02
     vertex -9.204585e-01  3.663139e-01 -3.174603e-02
     vertex -9.221244e-01  3.497794e-01 -3.174603e-02
   endloop
 endfacet
 facet normal -9.949633e-01  1.002400e-01  0.000000e+00
   outer loop
     vertex -9.204585e-01  3.663139e-01 -1.587302e-02
     vertex -9.221244e-01  3.497794e-01 -3.174603e-02
     vertex -9.221244e-01  3.497794e-01 -1.587302e-02
   endloop
 endfacet
 facet normal  0.000000e+00 -1.000000e+00  0.000000e+00
   outer loop
     vertex -7.211640e-01  2.463845e-01 -1.587302e-02
     vertex -1.003351e+00  2.463845e-01  1.587302e-01
     vertex -1.003351e+00  2.463845e-01 -1.587302e-02
   endloop
 endfacet
 facet normal  0.000000e+00 -1.000000e+00  0.000000e+00
   outer loop
     vertex -7.211640e-01  2.463845e-01 -1.587302e-02
     vertex -7.211640e-01  2.463845e-01  1.587302e-01
     vertex -1.003351e+00  2.463845e-01  1.587302e-01
   endloop
 endfacet
 facet normal -9.958351e-01 -9.117217e-02  0.000000e+00
   outer loop
     vertex -1.051719e+00  2.846816e-01 -1.587302e-02
     vertex -1.052734e+00  2.957672e-01 -1.587302e-02
     vertex -1.052734e+00  2.957672e-01 -3.174603e-02
   endloop
 endfacet
 facet normal -9.958351e-01 -9.117217e-02 -0.000000e+00
   outer loop
     vertex -1.051719e+00  2.846816e-01 -1.587302e-02
     vertex -1.052734e+00  2.957672e-01 -3.174603e-02
     vertex -1.051719e+00  2.846816e-01 -3.174603e-02
   endloop
 endfacet
 facet normal -9.483936e-01 -3.170955e-01 -0.000000e+00
   outer loop
     vertex -1.048189e+00  2.741242e-01 -1.587302e-02
     vertex -1.051719e+00  2.846816e-01 -3.174603e-02
     vertex -1.048189e+00  2.741242e-01 -3.174603e-02
   endloop
 endfacet
 facet normal -9.483936e-01 -3.170955e-01  0.000000e+00
   outer loop
     vertex -1.048189e+00  2.741242e-01 -1.587302e-02
     vertex -1.051719e+00  2.846816e-01 -1.587302e-02
     vertex -1.051719e+00  2.846816e-01 -3.174603e-02
   endloop
 endfacet
 facet normal -8.504102e-01 -5.261201e-01 -0.000000e+00
   outer loop
     vertex -1.042332e+00  2.646575e-01 -1.587302e-02
     vertex -1.048189e+00  2.741242e-01 -3.174603e-02
     vertex -1.042332e+00  2.646575e-01 -3.174603e-02
   endloop
 endfacet
 facet normal -8.504102e-01 -5.261201e-01  0.000000e+00
   outer loop
     vertex -1.042332e+00  2.646575e-01 -1.587302e-02
     vertex -1.048189e+00  2.741242e-01 -1.587302e-02
     vertex -1.048189e+00  2.741242e-01 -3.174603e-02
   endloop
 endfacet
 facet normal -7.071068e-01 -7.071068e-01 -0.000000e+00
   outer loop
     vertex -1.034461e+00  2.567860e-01 -1.587302e-02
     vertex -1.042332e+00  2.646575e-01 -3.174603e-02
     vertex -1.034461e+00  2.567860e-01 -3.174603e-02
   endloop
 endfacet
 facet normal -7.071068e-01 -7.071068e-01  0.000000e+00
   outer loop
     vertex -1.034461e+00  2.567860e-01 -1.587302e-02
     vertex -1.042332e+00  2.646575e-01 -1.587302e-02
     vertex -1.042332e+00  2.646575e-01 -3.174603e-02
   endloop
 endfacet
 facet normal -5.261201e-01 -8.504102e-01 -0.000000e+00
   outer loop
     vertex -1.024994e+00  2.509293e-01 -1.587302e-02
     vertex -1.034461e+00  2.567860e-01 -3.174603e-02
     vertex -1.024994e+00  2.509293e-01 -3.174603e-02
   endloop
 endfacet
 facet normal -5.261201e-01 -8.504102e-01  0.000000e+00
   outer loop
     vertex -1.024994e+00  2.509293e-01 -1.587302e-02
     vertex -1.034461e+00  2.567860e-01 -1.587302e-02
     vertex -1.034461e+00  2.567860e-01 -3.174603e-02
   endloop
 endfacet
 facet normal -3.170955e-01 -9.483936e-01 -0.000000e+00
   outer loop
     vertex -1.014437e+00  2.473994e-01 -1.587302e-02
     vertex -1.024994e+00  2.509293e-01 -3.174603e-02
     vertex -1.014437e+00  2.473994e-01 -3.174603e-02
   endloop
 endfacet
 facet normal -3.170955e-01 -9.483936e-01  0.000000e+00
   outer loop
     vertex -1.014437e+00  2.473994e-01 -1.587302e-02
     vertex -1.024994e+00  2.509293e-01 -1.587302e-02
     vertex -1.024994e+00  2.509293e-01 -3.174603e-02
   endloop
 endfacet
 facet normal -9.117217e-02 -9.958351e-01 -0.000000e+00
   outer loop
     vertex -1.003351e+00  2.463845e-01 -1.587302e-02
     vertex -1.014437e+00  2.473994e-01 -3.174603e-02
     vertex -1.003351e+00  2.463845e-01 -3.174603e-02
   endloop
 endfacet
 facet normal -9.117217e-02 -9.958351e-01  0.000000e+00
   outer loop
     vertex -1.003351e+00  2.463845e-01 -1.587302e-02
     vertex -1.014437e+00  2.473994e-01 -1.587302e-02
     vertex -1.014437e+00  2.473994e-01 -3.174603e-02
   endloop
 endfacet
 facet normal  0.000000e+00  0.000000e+00 -1.000000e+00
   outer loop
     vertex -1.038461e+00  2.912245e-01 -3.174603e-02
     vertex -1.052734e+00  2.957672e-01 -3.174603e-02
     vertex -1.052734e+00  2.997370e-01 -3.174603e-02
   endloop
 endfacet
 facet normal -0.000000e+00  0.000000e+00 -1.000000e+00
   outer loop
     vertex -1.038461e+00  2.912245e-01 -3.174603e-02
     vertex -1.051719e+00  2.846816e-01 -3.174603e-02
     vertex -1.052734e+00  2.957672e-01 -3.174603e-02
   endloop
 endfacet
 facet normal  0.000000e+00  0.000000e+00 -1.000000e+00
   outer loop
     vertex -1.038461e+00  2.912245e-01 -3.174603e-02
     vertex -1.048189e+00  2.741242e-01 -3.174603e-02
     vertex -1.051719e+00  2.846816e-01 -3.174603e-02
   endloop
 endfacet
 facet normal  0.000000e+00  0.000000e+00 -1.000000e+00
   outer loop
     vertex -1.022778e+00  2.857301e-01 -3.174603e-02
     vertex -1.042332e+00  2.646575e-01 -3.174603e-02
     vertex -1.048189e+00  2.741242e-01 -3.174603e-02
   endloop
 endfacet
 facet normal  0.000000e+00  0.000000e+00 -1.000000e+00
   outer loop
     vertex -1.022778e+00  2.857301e-01 -3.174603e-02
     vertex -1.034461e+00  2.567860e-01 -3.174603e-02
     vertex -1.042332e+00  2.646575e-01 -3.174603e-02
   endloop
 endfacet
 facet normal  0.000000e+00  0.000000e+00 -1.000000e+00
   outer loop
     vertex -1.022778e+00  2.857301e-01 -3.174603e-02
     vertex -1.024994e+00  2.509293e-01 -3.174603e-02
     vertex -1.034461e+00  2.567860e-01 -3.174603e-02
   endloop
 endfacet
 facet normal -0.000000e+00  0.000000e+00 -1.000000e+00
   outer loop
     vertex -1.022778e+00  2.857301e-01 -3.174603e-02
     vertex -1.048189e+00  2.741242e-01 -3.174603e-02
     vertex -1.038461e+00  2.912245e-01 -3.174603e-02
   endloop
 endfacet
 facet normal  0.000000e+00  0.000000e+00 -1.000000e+00
   outer loop
     vertex -1.006313e+00  2.834745e-01 -3.174603e-02
     vertex -1.014437e+00  2.473994e-01 -3.174603e-02
     vertex -1.024994e+00  2.509293e-01 -3.174603e-02
   endloop
 endfacet
 facet normal  0.000000e+00 -0.000000e+00 -1.000000e+00
   outer loop
     vertex -1.006313e+00  2.834745e-01 -3.174603e-02
     vertex -1.003351e+00  2.463845e-01 -3.174603e-02
     vertex -1.014437e+00  2.473994e-01 -3.174603e-02
   endloop
 endfacet
 facet normal -0.000000e+00  0.000000e+00 -1.000000e+00
   outer loop
     vertex -1.006313e+00  2.834745e-01 -3.174603e-02
     vertex -1.024994e+00  2.509293e-01 -3.174603e-02
     vertex -1.022778e+00  2.857301e-01 -3.174603e-02
   endloop
 endfacet
 facet normal  0.000000e+00  0.000000e+00 -1.000000e+00
   outer loop
     vertex -9.897295e-01  2.845484e-01 -3.174603e-02
     vertex -1.003351e+00  2.463845e-01 -3.174603e-02
     vertex -1.006313e+00  2.834745e-01 -3.174603e-02
   endloop
 endfacet
 facet normal  0.000000e+00  0.000000e+00 -1.000000e+00
   outer loop
     vertex -9.736934e-01  2.889086e-01 -3.174603e-02
     vertex -1.003351e+00  2.463845e-01 -3.174603e-02
     vertex -9.897295e-01  2.845484e-01 -3.174603e-02
   endloop
 endfacet
 facet normal  0.000000e+00  0.000000e+00 -1.000000e+00
   outer loop
     vertex -9.588494e-01  2.963800e-01 -3.174603e-02
     vertex -1.003351e+00  2.463845e-01 -3.174603e-02
     vertex -9.736934e-01  2.889086e-01 -3.174603e-02
   endloop
 endfacet
 facet normal -0.000000e+00  0.000000e+00 -1.000000e+00
   outer loop
     vertex -1.038461e+00  4.414034e-01 -3.174603e-02
     vertex -1.052734e+00  4.368607e-01 -3.174603e-02
     vertex -1.051719e+00  4.479463e-01 -3.174603e-02
   endloop
 endfacet
 facet normal  0.000000e+00  0.000000e+00 -1.000000e+00
   outer loop
     vertex -1.038461e+00  4.414034e-01 -3.174603e-02
     vertex -1.052734e+00  4.328909e-01 -3.174603e-02
     vertex -1.052734e+00  4.368607e-01 -3.174603e-02
   endloop
 endfacet
 facet normal  0.000000e+00 -0.000000e+00 -1.000000e+00
   outer loop
     vertex -1.048189e+00  4.585037e-01 -3.174603e-02
     vertex -1.038461e+00  4.414034e-01 -3.174603e-02
     vertex -1.051719e+00  4.479463e-01 -3.174603e-02
   endloop
 endfacet
 facet normal -0.000000e+00  0.000000e+00 -1.000000e+00
   outer loop
     vertex -1.022778e+00  4.468978e-01 -3.174603e-02
     vertex -1.038461e+00  4.414034e-01 -3.174603e-02
     vertex -1.048189e+00  4.585037e-01 -3.174603e-02
   endloop
 endfacet
 facet normal  0.000000e+00 -0.000000e+00 -1.000000e+00
   outer loop
     vertex -1.042332e+00  4.679704e-01 -3.174603e-02
     vertex -1.022778e+00  4.468978e-01 -3.174603e-02
     vertex -1.048189e+00  4.585037e-01 -3.174603e-02
   endloop
 endfacet
 facet normal  0.000000e+00 -0.000000e+00 -1.000000e+00
   outer loop
     vertex -1.034461e+00  4.758419e-01 -3.174603e-02
     vertex -1.022778e+00  4.468978e-01 -3.174603e-02
     vertex -1.042332e+00  4.679704e-01 -3.174603e-02
   endloop
 endfacet
 facet normal  0.000000e+00  0.000000e+00 -1.000000e+00
   outer loop
     vertex -1.024994e+00  4.816986e-01 -3.174603e-02
     vertex -1.006313e+00  4.491534e-01 -3.174603e-02
     vertex -1.022778e+00  4.468978e-01 -3.174603e-02
   endloop
 endfacet
 facet normal  0.000000e+00 -0.000000e+00 -1.000000e+00
   outer loop
     vertex -1.024994e+00  4.816986e-01 -3.174603e-02
     vertex -1.022778e+00  4.468978e-01 -3.174603e-02
     vertex -1.034461e+00  4.758419e-01 -3.174603e-02
   endloop
 endfacet
 facet normal  0.000000e+00 -0.000000e+00 -1.000000e+00
   outer loop
     vertex -1.014437e+00  4.852285e-01 -3.174603e-02
     vertex -1.006313e+00  4.491534e-01 -3.174603e-02
     vertex -1.024994e+00  4.816986e-01 -3.174603e-02
   endloop
 endfacet
 facet normal  0.000000e+00  0.000000e+00 -1.000000e+00
   outer loop
     vertex -1.003351e+00  4.862434e-01 -3.174603e-02
     vertex -1.006313e+00  4.491534e-01 -3.174603e-02
     vertex -1.014437e+00  4.852285e-01 -3.174603e-02
   endloop
 endfacet
 facet normal  0.000000e+00  0.000000e+00 -1.000000e+00
   outer loop
     vertex -1.003351e+00  4.862434e-01 -3.174603e-02
     vertex -9.588494e-01  4.362479e-01 -3.174603e-02
     vertex -9.736934e-01  4.437193e-01 -3.174603e-02
   endloop
 endfacet
 facet normal  0.000000e+00  0.000000e+00 -1.000000e+00
   outer loop
     vertex -1.003351e+00  4.862434e-01 -3.174603e-02
     vertex -9.736934e-01  4.437193e-01 -3.174603e-02
     vertex -9.897295e-01  4.480795e-01 -3.174603e-02
   endloop
 endfacet
 facet normal  0.000000e+00 -0.000000e+00 -1.000000e+00
   outer loop
     vertex -1.003351e+00  4.862434e-01 -3.174603e-02
     vertex -9.897295e-01  4.480795e-01 -3.174603e-02
     vertex -1.006313e+00  4.491534e-01 -3.174603e-02
   endloop
 endfacet
 facet normal  0.000000e+00  0.000000e+00 -1.000000e+00
   outer loop
     vertex -7.211640e-01  2.463845e-01 -3.174603e-02
     vertex -9.588494e-01  2.963800e-01 -3.174603e-02
     vertex -9.457939e-01  3.066621e-01 -3.174603e-02
   endloop
 endfacet
 facet normal  0.000000e+00  0.000000e+00 -1.000000e+00
   outer loop
     vertex -7.211640e-01  2.463845e-01 -3.174603e-02
     vertex -9.457939e-01  3.066621e-01 -3.174603e-02
     vertex -9.350518e-01  3.193418e-01 -3.174603e-02
   endloop
 endfacet
 facet normal  0.000000e+00  0.000000e+00 -1.000000e+00
   outer loop
     vertex -7.211640e-01  2.463845e-01 -3.174603e-02
     vertex -9.350518e-01  3.193418e-01 -3.174603e-02
     vertex -9.270548e-01  3.339094e-01 -3.174603e-02
   endloop
 endfacet
 facet normal  0.000000e+00  0.000000e+00 -1.000000e+00
   outer loop
     vertex -7.211640e-01  2.463845e-01 -3.174603e-02
     vertex -9.270548e-01  3.339094e-01 -3.174603e-02
     vertex -9.221244e-01  3.497794e-01 -3.174603e-02
   endloop
 endfacet
 facet normal  0.000000e+00  0.000000e+00 -1.000000e+00
   outer loop
     vertex -7.211640e-01  2.463845e-01 -3.174603e-02
     vertex -9.221244e-01  3.497794e-01 -3.174603e-02
     vertex -9.204585e-01  3.663139e-01 -3.174603e-02
   endloop
 endfacet
 facet normal  0.000000e+00  0.000000e+00 -1.000000e+00
   outer loop
     vertex -7.211640e-01  2.463845e-01 -3.174603e-02
     vertex -1.003351e+00  2.463845e-01 -3.174603e-02
     vertex -9.588494e-01  2.963800e-01 -3.174603e-02
   endloop
 endfacet
 facet normal  0.000000e+00  0.000000e+00 -1.000000e+00
   outer loop
     vertex -6.850081e-01  2.541732e-01 -3.174603e-02
     vertex -7.020990e-01  2.456970e-01 -3.174603e-02
     vertex -7.116744e-01  2.448515e-01 -3.174603e-02
   endloop
 endfacet
 facet normal  0.000000e+00  0.000000e+00 -1.000000e+00
   outer loop
     vertex -6.850081e-01  2.541732e-01 -3.174603e-02
     vertex -6.930249e-01  2.488690e-01 -3.174603e-02
     vertex -7.020990e-01  2.456970e-01 -3.174603e-02
   endloop
 endfacet
 facet normal  0.000000e+00  0.000000e+00 -1.000000e+00
   outer loop
     vertex -6.717813e-01  2.887125e-01 -3.174603e-02
     vertex -7.116744e-01  2.448515e-01 -3.174603e-02
     vertex -7.211640e-01  2.463845e-01 -3.174603e-02
   endloop
 endfacet
 facet normal  0.000000e+00  0.000000e+00 -1.000000e+00
   outer loop
     vertex -6.717813e-01  2.887125e-01 -3.174603e-02
     vertex -6.785402e-01  2.612844e-01 -3.174603e-02
     vertex -6.850081e-01  2.541732e-01 -3.174603e-02
   endloop
 endfacet
 facet normal  0.000000e+00  0.000000e+00 -1.000000e+00
   outer loop
     vertex -6.717813e-01  2.887125e-01 -3.174603e-02
     vertex -6.740177e-01  2.697667e-01 -3.174603e-02
     vertex -6.785402e-01  2.612844e-01 -3.174603e-02
   endloop
 endfacet
 facet normal  0.000000e+00 -0.000000e+00 -1.000000e+00
   outer loop
     vertex -6.717813e-01  2.887125e-01 -3.174603e-02
     vertex -6.717177e-01  2.791001e-01 -3.174603e-02
     vertex -6.740177e-01  2.697667e-01 -3.174603e-02
   endloop
 endfacet
 facet normal  0.000000e+00  0.000000e+00 -1.000000e+00
   outer loop
     vertex -6.717813e-01  2.887125e-01 -3.174603e-02
     vertex -6.850081e-01  2.541732e-01 -3.174603e-02
     vertex -7.116744e-01  2.448515e-01 -3.174603e-02
   endloop
 endfacet
 facet normal -0.000000e+00  0.000000e+00 -1.000000e+00
   outer loop
     vertex -6.717813e-01  3.663139e-01 -3.174603e-02
     vertex -7.211640e-01  2.463845e-01 -3.174603e-02
     vertex -9.204585e-01  3.663139e-01 -3.174603e-02
   endloop
 endfacet
 facet normal  0.000000e+00 -0.000000e+00 -1.000000e+00
   outer loop
     vertex -6.717813e-01  3.663139e-01 -3.174603e-02
     vertex -6.717813e-01  2.887125e-01 -3.174603e-02
     vertex -7.211640e-01  2.463845e-01 -3.174603e-02
   endloop
 endfacet
 facet normal -0.000000e+00  0.000000e+00 -1.000000e+00
   outer loop
     vertex -7.211640e-01  4.862434e-01 -3.174603e-02
     vertex -9.588494e-01  4.362479e-01 -3.174603e-02
     vertex -1.003351e+00  4.862434e-01 -3.174603e-02
   endloop
 endfacet
 facet normal  0.000000e+00  0.000000e+00 -1.000000e+00
   outer loop
     vertex -7.211640e-01  4.862434e-01 -3.174603e-02
     vertex -9.204585e-01  3.663139e-01 -3.174603e-02
     vertex -9.221244e-01  3.828485e-01 -3.174603e-02
   endloop
 endfacet
 facet normal  0.000000e+00  0.000000e+00 -1.000000e+00
   outer loop
     vertex -7.211640e-01  4.862434e-01 -3.174603e-02
     vertex -9.221244e-01  3.828485e-01 -3.174603e-02
     vertex -9.270548e-01  3.987185e-01 -3.174603e-02
   endloop
 endfacet
 facet normal  0.000000e+00  0.000000e+00 -1.000000e+00
   outer loop
     vertex -7.211640e-01  4.862434e-01 -3.174603e-02
     vertex -9.270548e-01  3.987185e-01 -3.174603e-02
     vertex -9.350518e-01  4.132861e-01 -3.174603e-02
   endloop
 endfacet
 facet normal  0.000000e+00  0.000000e+00 -1.000000e+00
   outer loop
     vertex -7.211640e-01  4.862434e-01 -3.174603e-02
     vertex -9.350518e-01  4.132861e-01 -3.174603e-02
     vertex -9.457939e-01  4.259658e-01 -3.174603e-02
   endloop
 endfacet
 facet normal  0.000000e+00  0.000000e+00 -1.000000e+00
   outer loop
     vertex -7.211640e-01  4.862434e-01 -3.174603e-02
     vertex -9.457939e-01  4.259658e-01 -3.174603e-02
     vertex -9.588494e-01  4.362479e-01 -3.174603e-02
   endloop
 endfacet
 facet normal  0.000000e+00 -0.000000e+00 -1.000000e+00
   outer loop
     vertex -7.211640e-01  4.862434e-01 -3.174603e-02
     vertex -6.717813e-01  3.663139e-01 -3.174603e-02
     vertex -9.204585e-01  3.663139e-01 -3.174603e-02
   endloop
 endfacet
 facet normal -0.000000e+00 -0.000000e+00 -1.000000e+00
   outer loop
     vertex -6.717813e-01  4.439154e-01 -3.174603e-02
     vertex -6.717813e-01  3.663139e-01 -3.174603e-02
     vertex -7.211640e-01  4.862434e-01 -3.174603e-02
   endloop
 endfacet
 facet normal  0.000000e+00  0.000000e+00 -1.000000e+00
   outer loop
     vertex -6.785402e-01  4.713435e-01 -3.174603e-02
     vertex -6.740177e-01  4.628612e-01 -3.174603e-02
     vertex -6.717177e-01  4.535278e-01 -3.174603e-02
   endloop
 endfacet
 facet normal  0.000000e+00  0.000000e+00 -1.000000e+00
   outer loop
     vertex -6.850081e-01  4.784547e-01 -3.174603e-02
     vertex -6.717177e-01  4.535278e-01 -3.174603e-02
     vertex -6.717813e-01  4.439154e-01 -3.174603e-02
   endloop
 endfacet
 facet normal  0.000000e+00  0.000000e+00 -1.000000e+00
   outer loop
     vertex -6.850081e-01  4.784547e-01 -3.174603e-02
     vertex -7.020990e-01  4.869309e-01 -3.174603e-02
     vertex -6.930249e-01  4.837589e-01 -3.174603e-02
   endloop
 endfacet
 facet normal  0.000000e+00  0.000000e+00 -1.000000e+00
   outer loop
     vertex -6.850081e-01  4.784547e-01 -3.174603e-02
     vertex -7.116744e-01  4.877764e-01 -3.174603e-02
     vertex -7.020990e-01  4.869309e-01 -3.174603e-02
   endloop
 endfacet
 facet normal  0.000000e+00  0.000000e+00 -1.000000e+00
   outer loop
     vertex -6.850081e-01  4.784547e-01 -3.174603e-02
     vertex -7.211640e-01  4.862434e-01 -3.174603e-02
     vertex -7.116744e-01  4.877764e-01 -3.174603e-02
   endloop
 endfacet
 facet normal  0.000000e+00  0.000000e+00 -1.000000e+00
   outer loop
     vertex -6.850081e-01  4.784547e-01 -3.174603e-02
     vertex -6.785402e-01  4.713435e-01 -3.174603e-02
     vertex -6.717177e-01  4.535278e-01 -3.174603e-02
   endloop
 endfacet
 facet normal -0.000000e+00 -0.000000e+00 -1.000000e+00
   outer loop
     vertex -6.850081e-01  4.784547e-01 -3.174603e-02
     vertex -6.717813e-01  4.439154e-01 -3.174603e-02
     vertex -7.211640e-01  4.862434e-01 -3.174603e-02
   endloop
 endfacet
 facet normal -1.000000e+00 -2.796707e-13  0.000000e+00
   outer loop
     vertex -1.052734e+00  4.328909e-01 -1.587302e-02
     vertex -1.052734e+00  4.368607e-01  1.587302e-01
     vertex -1.052734e+00  4.368607e-01 -1.587302e-02
   endloop
 endfacet
 facet normal -1.000000e+00 -2.796707e-13  0.000000e+00
   outer loop
     vertex -1.052734e+00  4.328909e-01 -1.587302e-02
     vertex -1.052734e+00  4.328909e-01  1.587302e-01
     vertex -1.052734e+00  4.368607e-01  1.587302e-01
   endloop
 endfacet
 facet normal -9.117217e-02  9.958351e-01  0.000000e+00
   outer loop
     vertex -1.014437e+00  4.852285e-01 -1.587302e-02
     vertex -1.003351e+00  4.862434e-01  1.587302e-01
     vertex -1.003351e+00  4.862434e-01 -1.587302e-02
   endloop
 endfacet
 facet normal -9.117217e-02  9.958351e-01  0.000000e+00
   outer loop
     vertex -1.014437e+00  4.852285e-01 -1.587302e-02
     vertex -1.014437e+00  4.852285e-01  1.587302e-01
     vertex -1.003351e+00  4.862434e-01  1.587302e-01
   endloop
 endfacet
 facet normal -3.170955e-01  9.483936e-01  0.000000e+00
   outer loop
     vertex -1.024994e+00  4.816986e-01 -1.587302e-02
     vertex -1.024994e+00  4.816986e-01  1.587302e-01
     vertex -1.014437e+00  4.852285e-01  1.587302e-01
   endloop
 endfacet
 facet normal -3.170955e-01  9.483936e-01  0.000000e+00
   outer loop
     vertex -1.024994e+00  4.816986e-01 -1.587302e-02
     vertex -1.014437e+00  4.852285e-01  1.587302e-01
     vertex -1.014437e+00  4.852285e-01 -1.587302e-02
   endloop
 endfacet
 facet normal -5.261201e-01  8.504102e-01  0.000000e+00
   outer loop
     vertex -1.034461e+00  4.758419e-01 -1.587302e-02
     vertex -1.034461e+00  4.758419e-01  1.587302e-01
     vertex -1.024994e+00  4.816986e-01  1.587302e-01
   endloop
 endfacet
 facet normal -5.261201e-01  8.504102e-01  0.000000e+00
   outer loop
     vertex -1.034461e+00  4.758419e-01 -1.587302e-02
     vertex -1.024994e+00  4.816986e-01  1.587302e-01
     vertex -1.024994e+00  4.816986e-01 -1.587302e-02
   endloop
 endfacet
 facet normal -7.071068e-01  7.071068e-01  0.000000e+00
   outer loop
     vertex -1.042332e+00  4.679704e-01 -1.587302e-02
     vertex -1.042332e+00  4.679704e-01  1.587302e-01
     vertex -1.034461e+00  4.758419e-01  1.587302e-01
   endloop
 endfacet
 facet normal -7.071068e-01  7.071068e-01  0.000000e+00
   outer loop
     vertex -1.042332e+00  4.679704e-01 -1.587302e-02
     vertex -1.034461e+00  4.758419e-01  1.587302e-01
     vertex -1.034461e+00  4.758419e-01 -1.587302e-02
   endloop
 endfacet
 facet normal -8.504102e-01  5.261201e-01  0.000000e+00
   outer loop
     vertex -1.048189e+00  4.585037e-01 -1.587302e-02
     vertex -1.048189e+00  4.585037e-01  1.587302e-01
     vertex -1.042332e+00  4.679704e-01  1.587302e-01
   endloop
 endfacet
 facet normal -8.504102e-01  5.261201e-01  0.000000e+00
   outer loop
     vertex -1.048189e+00  4.585037e-01 -1.587302e-02
     vertex -1.042332e+00  4.679704e-01  1.587302e-01
     vertex -1.042332e+00  4.679704e-01 -1.587302e-02
   endloop
 endfacet
 facet normal -9.483936e-01  3.170955e-01  0.000000e+00
   outer loop
     vertex -1.051719e+00  4.479463e-01 -1.587302e-02
     vertex -1.051719e+00  4.479463e-01  1.587302e-01
     vertex -1.048189e+00  4.585037e-01  1.587302e-01
   endloop
 endfacet
 facet normal -9.483936e-01  3.170955e-01  0.000000e+00
   outer loop
     vertex -1.051719e+00  4.479463e-01 -1.587302e-02
     vertex -1.048189e+00  4.585037e-01  1.587302e-01
     vertex -1.048189e+00  4.585037e-01 -1.587302e-02
   endloop
 endfacet
 facet normal -9.958351e-01  9.117217e-02  0.000000e+00
   outer loop
     vertex -1.052734e+00  4.368607e-01 -1.587302e-02
     vertex -1.052734e+00  4.368607e-01  1.587302e-01
     vertex -1.051719e+00  4.479463e-01  1.587302e-01
   endloop
 endfacet
 facet normal -9.958351e-01  9.117217e-02  0.000000e+00
   outer loop
     vertex -1.052734e+00  4.368607e-01 -1.587302e-02
     vertex -1.051719e+00  4.479463e-01  1.587302e-01
     vertex -1.051719e+00  4.479463e-01 -1.587302e-02
   endloop
 endfacet
 facet normal  1.967176e-16  1.000000e+00  0.000000e+00
   outer loop
     vertex -1.003351e+00  4.862434e-01 -1.587302e-02
     vertex -7.211640e-01  4.862434e-01  1.587302e-01
     vertex -7.211640e-01  4.862434e-01 -1.587302e-02
   endloop
 endfacet
 facet normal  1.967176e-16  1.000000e+00 -0.000000e+00
   outer loop
     vertex -1.003351e+00  4.862434e-01 -1.587302e-02
     vertex -1.003351e+00  4.862434e-01  1.587302e-01
     vertex -7.211640e-01  4.862434e-01  1.587302e-01
   endloop
 endfacet
 facet normal  9.999781e-01 -6.613466e-03  0.000000e+00
   outer loop
     vertex -6.717177e-01  4.535278e-01 -1.587302e-02
     vertex -6.717813e-01  4.439154e-01  1.587302e-01
     vertex -6.717813e-01  4.439154e-01 -1.587302e-02
   endloop
 endfacet
 facet normal  9.999781e-01 -6.613466e-03  0.000000e+00
   outer loop
     vertex -6.717177e-01  4.535278e-01 -1.587302e-02
     vertex -6.717177e-01  4.535278e-01  1.587302e-01
     vertex -6.717813e-01  4.439154e-01  1.587302e-01
   endloop
 endfacet
 facet normal  9.709540e-01  2.392664e-01 -0.000000e+00
   outer loop
     vertex -6.740177e-01  4.628612e-01 -1.587302e-02
     vertex -6.740177e-01  4.628612e-01  1.587302e-01
     vertex -6.717177e-01  4.535278e-01  1.587302e-01
   endloop
 endfacet
 facet normal  9.709540e-01  2.392664e-01  0.000000e+00
   outer loop
     vertex -6.740177e-01  4.628612e-01 -1.587302e-02
     vertex -6.717177e-01  4.535278e-01  1.587302e-01
     vertex -6.717177e-01  4.535278e-01 -1.587302e-02
   endloop
 endfacet
 facet normal  8.824110e-01  4.704794e-01 -0.000000e+00
   outer loop
     vertex -6.785402e-01  4.713435e-01 -1.587302e-02
     vertex -6.785402e-01  4.713435e-01  1.587302e-01
     vertex -6.740177e-01  4.628612e-01  1.587302e-01
   endloop
 endfacet
 facet normal  8.824110e-01  4.704794e-01  0.000000e+00
   outer loop
     vertex -6.785402e-01  4.713435e-01 -1.587302e-02
     vertex -6.740177e-01  4.628612e-01  1.587302e-01
     vertex -6.740177e-01  4.628612e-01 -1.587302e-02
   endloop
 endfacet
 facet normal  7.397768e-01  6.728523e-01 -0.000000e+00
   outer loop
     vertex -6.850081e-01  4.784547e-01 -1.587302e-02
     vertex -6.850081e-01  4.784547e-01  1.587302e-01
     vertex -6.785402e-01  4.713435e-01  1.587302e-01
   endloop
 endfacet
 facet normal  7.397768e-01  6.728523e-01  0.000000e+00
   outer loop
     vertex -6.850081e-01  4.784547e-01 -1.587302e-02
     vertex -6.785402e-01  4.713435e-01  1.587302e-01
     vertex -6.785402e-01  4.713435e-01 -1.587302e-02
   endloop
 endfacet
 facet normal  5.517949e-01  8.339799e-01 -0.000000e+00
   outer loop
     vertex -6.930249e-01  4.837589e-01 -1.587302e-02
     vertex -6.930249e-01  4.837589e-01  1.587302e-01
     vertex -6.850081e-01  4.784547e-01  1.587302e-01
   endloop
 endfacet
 facet normal  5.517949e-01  8.339799e-01  0.000000e+00
   outer loop
     vertex -6.930249e-01  4.837589e-01 -1.587302e-02
     vertex -6.850081e-01  4.784547e-01  1.587302e-01
     vertex -6.850081e-01  4.784547e-01 -1.587302e-02
   endloop
 endfacet
 facet normal  3.299883e-01  9.439850e-01 -0.000000e+00
   outer loop
     vertex -7.020990e-01  4.869309e-01 -1.587302e-02
     vertex -7.020990e-01  4.869309e-01  1.587302e-01
     vertex -6.930249e-01  4.837589e-01  1.587302e-01
   endloop
 endfacet
 facet normal  3.299883e-01  9.439850e-01  0.000000e+00
   outer loop
     vertex -7.020990e-01  4.869309e-01 -1.587302e-02
     vertex -6.930249e-01  4.837589e-01  1.587302e-01
     vertex -6.930249e-01  4.837589e-01 -1.587302e-02
   endloop
 endfacet
 facet normal  8.795364e-02  9.961246e-01 -0.000000e+00
   outer loop
     vertex -7.116744e-01  4.877764e-01 -1.587302e-02
     vertex -7.116744e-01  4.877764e-01  1.587302e-01
     vertex -7.020990e-01  4.869309e-01  1.587302e-01
   endloop
 endfacet
 facet normal  8.795364e-02  9.961246e-01  0.000000e+00
   outer loop
     vertex -7.116744e-01  4.877764e-01 -1.587302e-02
     vertex -7.020990e-01  4.869309e-01  1.587302e-01
     vertex -7.020990e-01  4.869309e-01 -1.587302e-02
   endloop
 endfacet
 facet normal -1.594725e-01  9.872024e-01  0.000000e+00
   outer loop
     vertex -7.211640e-01  4.862434e-01 -1.587302e-02
     vertex -7.211640e-01  4.862434e-01  1.587302e-01
     vertex -7.116744e-01  4.877764e-01  1.587302e-01
   endloop
 endfacet
 facet normal -1.594725e-01  9.872024e-01  0.000000e+00
   outer loop
     vertex -7.211640e-01  4.862434e-01 -1.587302e-02
     vertex -7.116744e-01  4.877764e-01  1.587302e-01
     vertex -7.116744e-01  4.877764e-01 -1.587302e-02
   endloop
 endfacet
 facet normal  1.000000e+00  0.000000e+00  0.000000e+00
   outer loop
     vertex -6.717813e-01  4.439154e-01 -1.587302e-02
     vertex -6.717813e-01  3.663139e-01  1.587302e-01
     vertex -6.717813e-01  3.663139e-01 -1.587302e-02
   endloop
 endfacet
 facet normal  1.000000e+00  0.000000e+00 -0.000000e+00
   outer loop
     vertex -6.717813e-01  4.439154e-01 -1.587302e-02
     vertex -6.717813e-01  4.439154e-01  1.587302e-01
     vertex -6.717813e-01  3.663139e-01  1.587302e-01
   endloop
 endfacet
 facet normal  1.000000e+00  0.000000e+00  0.000000e+00
   outer loop
     vertex -6.717813e-01  3.663139e-01 -1.587302e-02
     vertex -6.717813e-01  2.887125e-01  1.587302e-01
     vertex -6.717813e-01  2.887125e-01 -1.587302e-02
   endloop
 endfacet
 facet normal  1.000000e+00  0.000000e+00 -0.000000e+00
   outer loop
     vertex -6.717813e-01  3.663139e-01 -1.587302e-02
     vertex -6.717813e-01  3.663139e-01  1.587302e-01
     vertex -6.717813e-01  2.887125e-01  1.587302e-01
   endloop
 endfacet
 facet normal -1.594725e-01 -9.872024e-01  0.000000e+00
   outer loop
     vertex -7.116744e-01  2.448515e-01 -1.587302e-02
     vertex -7.211640e-01  2.463845e-01  1.587302e-01
     vertex -7.211640e-01  2.463845e-01 -1.587302e-02
   endloop
 endfacet
 facet normal -1.594725e-01 -9.872024e-01  0.000000e+00
   outer loop
     vertex -7.116744e-01  2.448515e-01 -1.587302e-02
     vertex -7.116744e-01  2.448515e-01  1.587302e-01
     vertex -7.211640e-01  2.463845e-01  1.587302e-01
   endloop
 endfacet
 facet normal  8.795364e-02 -9.961246e-01  0.000000e+00
   outer loop
     vertex -7.020990e-01  2.456970e-01 -1.587302e-02
     vertex -7.020990e-01  2.456970e-01  1.587302e-01
     vertex -7.116744e-01  2.448515e-01  1.587302e-01
   endloop
 endfacet
 facet normal  8.795364e-02 -9.961246e-01  0.000000e+00
   outer loop
     vertex -7.020990e-01  2.456970e-01 -1.587302e-02
     vertex -7.116744e-01  2.448515e-01  1.587302e-01
     vertex -7.116744e-01  2.448515e-01 -1.587302e-02
   endloop
 endfacet
 facet normal  3.299883e-01 -9.439850e-01  0.000000e+00
   outer loop
     vertex -6.930249e-01  2.488690e-01 -1.587302e-02
     vertex -6.930249e-01  2.488690e-01  1.587302e-01
     vertex -7.020990e-01  2.456970e-01  1.587302e-01
   endloop
 endfacet
 facet normal  3.299883e-01 -9.439850e-01  0.000000e+00
   outer loop
     vertex -6.930249e-01  2.488690e-01 -1.587302e-02
     vertex -7.020990e-01  2.456970e-01  1.587302e-01
     vertex -7.020990e-01  2.456970e-01 -1.587302e-02
   endloop
 endfacet
 facet normal  5.517949e-01 -8.339799e-01  0.000000e+00
   outer loop
     vertex -6.850081e-01  2.541732e-01 -1.587302e-02
     vertex -6.850081e-01  2.541732e-01  1.587302e-01
     vertex -6.930249e-01  2.488690e-01  1.587302e-01
   endloop
 endfacet
 facet normal  5.517949e-01 -8.339799e-01  0.000000e+00
   outer loop
     vertex -6.850081e-01  2.541732e-01 -1.587302e-02
     vertex -6.930249e-01  2.488690e-01  1.587302e-01
     vertex -6.930249e-01  2.488690e-01 -1.587302e-02
   endloop
 endfacet
 facet normal  7.397768e-01 -6.728523e-01  0.000000e+00
   outer loop
     vertex -6.785402e-01  2.612844e-01 -1.587302e-02
     vertex -6.785402e-01  2.612844e-01  1.587302e-01
     vertex -6.850081e-01  2.541732e-01  1.587302e-01
   endloop
 endfacet
 facet normal  7.397768e-01 -6.728523e-01  0.000000e+00
   outer loop
     vertex -6.785402e-01  2.612844e-01 -1.587302e-02
     vertex -6.850081e-01  2.541732e-01  1.587302e-01
     vertex -6.850081e-01  2.541732e-01 -1.587302e-02
   endloop
 endfacet
 facet normal  8.824110e-01 -4.704794e-01  0.000000e+00
   outer loop
     vertex -6.740177e-01  2.697667e-01 -1.587302e-02
     vertex -6.740177e-01  2.697667e-01  1.587302e-01
     vertex -6.785402e-01  2.612844e-01  1.587302e-01
   endloop
 endfacet
 facet normal  8.824110e-01 -4.704794e-01  0.000000e+00
   outer loop
     vertex -6.740177e-01  2.697667e-01 -1.587302e-02
     vertex -6.785402e-01  2.612844e-01  1.587302e-01
     vertex -6.785402e-01  2.612844e-01 -1.587302e-02
   endloop
 endfacet
 facet normal  9.709540e-01 -2.392664e-01  0.000000e+00
   outer loop
     vertex -6.717177e-01  2.791001e-01 -1.587302e-02
     vertex -6.717177e-01  2.791001e-01  1.587302e-01
     vertex -6.740177e-01  2.697667e-01  1.587302e-01
   endloop
 endfacet
 facet normal  9.709540e-01 -2.392664e-01  0.000000e+00
   outer loop
     vertex -6.717177e-01  2.791001e-01 -1.587302e-02
     vertex -6.740177e-01  2.697667e-01  1.587302e-01
     vertex -6.740177e-01  2.697667e-01 -1.587302e-02
   endloop
 endfacet
 facet normal  9.999781e-01  6.613466e-03 -0.000000e+00
   outer loop
     vertex -6.717813e-01  2.887125e-01 -1.587302e-02
     vertex -6.717813e-01  2.887125e-01  1.587302e-01
     vertex -6.717177e-01  2.791001e-01  1.587302e-01
   endloop
 endfacet
 facet normal  9.999781e-01  6.613466e-03  0.000000e+00
   outer loop
     vertex -6.717813e-01  2.887125e-01 -1.587302e-02
     vertex -6.717177e-01  2.791001e-01  1.587302e-01
     vertex -6.717177e-01  2.791001e-01 -1.587302e-02
   endloop
 endfacet
 facet normal -9.949633e-01 -1.002400e-01  0.000000e+00
   outer loop
     vertex -9.221244e-01  3.828485e-01 -1.587302e-02
     vertex -9.204585e-01  3.663139e-01 -3.174603e-02
     vertex -9.204585e-01  3.663139e-01 -1.587302e-02
   endloop
 endfacet
 facet normal -9.949633e-01 -1.002400e-01 -0.000000e+00
   outer loop
     vertex -9.221244e-01  3.828485e-01 -1.587302e-02
     vertex -9.221244e-01  3.828485e-01 -3.174603e-02
     vertex -9.204585e-01  3.663139e-01 -3.174603e-02
   endloop
 endfacet
 facet normal -9.549735e-01 -2.966911e-01 -0.000000e+00
   outer loop
     vertex -9.270548e-01  3.987185e-01 -1.587302e-02
     vertex -9.270548e-01  3.987185e-01 -3.174603e-02
     vertex -9.221244e-01  3.828485e-01 -3.174603e-02
   endloop
 endfacet
 facet normal -9.549735e-01 -2.966911e-01  0.000000e+00
   outer loop
     vertex -9.270548e-01  3.987185e-01 -1.587302e-02
     vertex -9.221244e-01  3.828485e-01 -3.174603e-02
     vertex -9.221244e-01  3.828485e-01 -1.587302e-02
   endloop
 endfacet
 facet normal -8.766012e-01 -4.812175e-01 -0.000000e+00
   outer loop
     vertex -9.350518e-01  4.132861e-01 -1.587302e-02
     vertex -9.350518e-01  4.132861e-01 -3.174603e-02
     vertex -9.270548e-01  3.987185e-01 -3.174603e-02
   endloop
 endfacet
 facet normal -8.766012e-01 -4.812175e-01  0.000000e+00
   outer loop
     vertex -9.350518e-01  4.132861e-01 -1.587302e-02
     vertex -9.270548e-01  3.987185e-01 -3.174603e-02
     vertex -9.270548e-01  3.987185e-01 -1.587302e-02
   endloop
 endfacet
 facet normal -7.629964e-01 -6.464027e-01 -0.000000e+00
   outer loop
     vertex -9.457939e-01  4.259658e-01 -1.587302e-02
     vertex -9.457939e-01  4.259658e-01 -3.174603e-02
     vertex -9.350518e-01  4.132861e-01 -3.174603e-02
   endloop
 endfacet
 facet normal -7.629964e-01 -6.464027e-01  0.000000e+00
   outer loop
     vertex -9.457939e-01  4.259658e-01 -1.587302e-02
     vertex -9.350518e-01  4.132861e-01 -3.174603e-02
     vertex -9.350518e-01  4.132861e-01 -1.587302e-02
   endloop
 endfacet
 facet normal -6.187250e-01 -7.856076e-01 -0.000000e+00
   outer loop
     vertex -9.588494e-01  4.362479e-01 -1.587302e-02
     vertex -9.588494e-01  4.362479e-01 -3.174603e-02
     vertex -9.457939e-01  4.259658e-01 -3.174603e-02
   endloop
 endfacet
 facet normal -6.187250e-01 -7.856076e-01  0.000000e+00
   outer loop
     vertex -9.588494e-01  4.362479e-01 -1.587302e-02
     vertex -9.457939e-01  4.259658e-01 -3.174603e-02
     vertex -9.457939e-01  4.259658e-01 -1.587302e-02
   endloop
 endfacet
 facet normal -4.495858e-01 -8.932372e-01 -0.000000e+00
   outer loop
     vertex -9.736934e-01  4.437193e-01 -1.587302e-02
     vertex -9.736934e-01  4.437193e-01 -3.174603e-02
     vertex -9.588494e-01  4.362479e-01 -3.174603e-02
   endloop
 endfacet
 facet normal -4.495858e-01 -8.932372e-01  0.000000e+00
   outer loop
     vertex -9.736934e-01  4.437193e-01 -1.587302e-02
     vertex -9.588494e-01  4.362479e-01 -3.174603e-02
     vertex -9.588494e-01  4.362479e-01 -1.587302e-02
   endloop
 endfacet
 facet normal -2.623766e-01 -9.649655e-01 -0.000000e+00
   outer loop
     vertex -9.897295e-01  4.480795e-01 -1.587302e-02
     vertex -9.897295e-01  4.480795e-01 -3.174603e-02
     vertex -9.736934e-01  4.437193e-01 -3.174603e-02
   endloop
 endfacet
 facet normal -2.623766e-01 -9.649655e-01  0.000000e+00
   outer loop
     vertex -9.897295e-01  4.480795e-01 -1.587302e-02
     vertex -9.736934e-01  4.437193e-01 -3.174603e-02
     vertex -9.736934e-01  4.437193e-01 -1.587302e-02
   endloop
 endfacet
 facet normal -6.462202e-02 -9.979098e-01 -0.000000e+00
   outer loop
     vertex -1.006313e+00  4.491534e-01 -1.587302e-02
     vertex -1.006313e+00  4.491534e-01 -3.174603e-02
     vertex -9.897295e-01  4.480795e-01 -3.174603e-02
   endloop
 endfacet
 facet normal -6.462202e-02 -9.979098e-01  0.000000e+00
   outer loop
     vertex -1.006313e+00  4.491534e-01 -1.587302e-02
     vertex -9.897295e-01  4.480795e-01 -3.174603e-02
     vertex -9.897295e-01  4.480795e-01 -1.587302e-02
   endloop
 endfacet
 facet normal  1.357299e-01 -9.907459e-01  0.000000e+00
   outer loop
     vertex -1.022778e+00  4.468978e-01 -1.587302e-02
     vertex -1.022778e+00  4.468978e-01 -3.174603e-02
     vertex -1.006313e+00  4.491534e-01 -3.174603e-02
   endloop
 endfacet
 facet normal  1.357299e-01 -9.907459e-01  0.000000e+00
   outer loop
     vertex -1.022778e+00  4.468978e-01 -1.587302e-02
     vertex -1.006313e+00  4.491534e-01 -3.174603e-02
     vertex -1.006313e+00  4.491534e-01 -1.587302e-02
   endloop
 endfacet
 facet normal  3.306266e-01 -9.437617e-01  0.000000e+00
   outer loop
     vertex -1.038461e+00  4.414034e-01 -1.587302e-02
     vertex -1.038461e+00  4.414034e-01 -3.174603e-02
     vertex -1.022778e+00  4.468978e-01 -3.174603e-02
   endloop
 endfacet
 facet normal  3.306266e-01 -9.437617e-01  0.000000e+00
   outer loop
     vertex -1.038461e+00  4.414034e-01 -1.587302e-02
     vertex -1.022778e+00  4.468978e-01 -3.174603e-02
     vertex -1.022778e+00  4.468978e-01 -1.587302e-02
   endloop
 endfacet
 facet normal  5.122346e-01 -8.588456e-01  0.000000e+00
   outer loop
     vertex -1.052734e+00  4.328909e-01 -1.587302e-02
     vertex -1.052734e+00  4.328909e-01 -3.174603e-02
     vertex -1.038461e+00  4.414034e-01 -3.174603e-02
   endloop
 endfacet
 facet normal  5.122346e-01 -8.588456e-01  0.000000e+00
   outer loop
     vertex -1.052734e+00  4.328909e-01 -1.587302e-02
     vertex -1.038461e+00  4.414034e-01 -3.174603e-02
     vertex -1.038461e+00  4.414034e-01 -1.587302e-02
   endloop
 endfacet
 facet normal -0.000000e+00 -1.000000e+00  0.000000e+00
   outer loop
     vertex -7.211640e-01  2.463845e-01 -1.587302e-02
     vertex -1.003351e+00  2.463845e-01 -1.587302e-02
     vertex -1.003351e+00  2.463845e-01 -3.174603e-02
   endloop
 endfacet
 facet normal  0.000000e+00 -1.000000e+00 -0.000000e+00
   outer loop
     vertex -7.211640e-01  2.463845e-01 -1.587302e-02
     vertex -1.003351e+00  2.463845e-01 -3.174603e-02
     vertex -7.211640e-01  2.463845e-01 -3.174603e-02
   endloop
 endfacet
 facet normal -1.000000e+00 -2.796707e-13  0.000000e+00
   outer loop
     vertex -1.052734e+00  4.328909e-01 -1.587302e-02
     vertex -1.052734e+00  4.368607e-01 -1.587302e-02
     vertex -1.052734e+00  4.368607e-01 -3.174603e-02
   endloop
 endfacet
 facet normal -1.000000e+00 -2.796707e-13 -0.000000e+00
   outer loop
     vertex -1.052734e+00  4.328909e-01 -1.587302e-02
     vertex -1.052734e+00  4.368607e-01 -3.174603e-02
     vertex -1.052734e+00  4.328909e-01 -3.174603e-02
   endloop
 endfacet
 facet normal -9.117217e-02  9.958351e-01  0.000000e+00
   outer loop
     vertex -1.014437e+00  4.852285e-01 -1.587302e-02
     vertex -1.003351e+00  4.862434e-01 -1.587302e-02
     vertex -1.003351e+00  4.862434e-01 -3.174603e-02
   endloop
 endfacet
 facet normal -9.117217e-02  9.958351e-01  0.000000e+00
   outer loop
     vertex -1.014437e+00  4.852285e-01 -1.587302e-02
     vertex -1.003351e+00  4.862434e-01 -3.174603e-02
     vertex -1.014437e+00  4.852285e-01 -3.174603e-02
   endloop
 endfacet
 facet normal -3.170955e-01  9.483936e-01  0.000000e+00
   outer loop
     vertex -1.024994e+00  4.816986e-01 -1.587302e-02
     vertex -1.014437e+00  4.852285e-01 -3.174603e-02
     vertex -1.024994e+00  4.816986e-01 -3.174603e-02
   endloop
 endfacet
 facet normal -3.170955e-01  9.483936e-01  0.000000e+00
   outer loop
     vertex -1.024994e+00  4.816986e-01 -1.587302e-02
     vertex -1.014437e+00  4.852285e-01 -1.587302e-02
     vertex -1.014437e+00  4.852285e-01 -3.174603e-02
   endloop
 endfacet
 facet normal -5.261201e-01  8.504102e-01  0.000000e+00
   outer loop
     vertex -1.034461e+00  4.758419e-01 -1.587302e-02
     vertex -1.024994e+00  4.816986e-01 -3.174603e-02
     vertex -1.034461e+00  4.758419e-01 -3.174603e-02
   endloop
 endfacet
 facet normal -5.261201e-01  8.504102e-01  0.000000e+00
   outer loop
     vertex -1.034461e+00  4.758419e-01 -1.587302e-02
     vertex -1.024994e+00  4.816986e-01 -1.587302e-02
     vertex -1.024994e+00  4.816986e-01 -3.174603e-02
   endloop
 endfacet
 facet normal -7.071068e-01  7.071068e-01  0.000000e+00
   outer loop
     vertex -1.042332e+00  4.679704e-01 -1.587302e-02
     vertex -1.034461e+00  4.758419e-01 -3.174603e-02
     vertex -1.042332e+00  4.679704e-01 -3.174603e-02
   endloop
 endfacet
 facet normal -7.071068e-01  7.071068e-01  0.000000e+00
   outer loop
     vertex -1.042332e+00  4.679704e-01 -1.587302e-02
     vertex -1.034461e+00  4.758419e-01 -1.587302e-02
     vertex -1.034461e+00  4.758419e-01 -3.174603e-02
   endloop
 endfacet
 facet normal -8.504102e-01  5.261201e-01  0.000000e+00
   outer loop
     vertex -1.048189e+00  4.585037e-01 -1.587302e-02
     vertex -1.042332e+00  4.679704e-01 -3.174603e-02
     vertex -1.048189e+00  4.585037e-01 -3.174603e-02
   endloop
 endfacet
 facet normal -8.504102e-01  5.261201e-01  0.000000e+00
   outer loop
     vertex -1.048189e+00  4.585037e-01 -1.587302e-02
     vertex -1.042332e+00  4.679704e-01 -1.587302e-02
     vertex -1.042332e+00  4.679704e-01 -3.174603e-02
   endloop
 endfacet
 facet normal -9.483936e-01  3.170955e-01  0.000000e+00
   outer loop
     vertex -1.051719e+00  4.479463e-01 -1.587302e-02
     vertex -1.048189e+00  4.585037e-01 -3.174603e-02
     vertex -1.051719e+00  4.479463e-01 -3.174603e-02
   endloop
 endfacet
 facet normal -9.483936e-01  3.170955e-01  0.000000e+00
   outer loop
     vertex -1.051719e+00  4.479463e-01 -1.587302e-02
     vertex -1.048189e+00  4.585037e-01 -1.587302e-02
     vertex -1.048189e+00  4.585037e-01 -3.174603e-02
   endloop
 endfacet
 facet normal -9.958351e-01  9.117217e-02  0.000000e+00
   outer loop
     vertex -1.052734e+00  4.368607e-01 -1.587302e-02
     vertex -1.051719e+00  4.479463e-01 -3.174603e-02
     vertex -1.052734e+00  4.368607e-01 -3.174603e-02
   endloop
 endfacet
 facet normal -9.958351e-01  9.117217e-02  0.000000e+00
   outer loop
     vertex -1.052734e+00  4.368607e-01 -1.587302e-02
     vertex -1.051719e+00  4.479463e-01 -1.587302e-02
     vertex -1.051719e+00  4.479463e-01 -3.174603e-02
   endloop
 endfacet
 facet normal  1.967176e-16  1.000000e+00  0.000000e+00
   outer loop
     vertex -1.003351e+00  4.862434e-01 -1.587302e-02
     vertex -7.211640e-01  4.862434e-01 -1.587302e-02
     vertex -7.211640e-01  4.862434e-01 -3.174603e-02
   endloop
 endfacet
 facet normal  1.967176e-16  1.000000e+00  0.000000e+00
   outer loop
     vertex -1.003351e+00  4.862434e-01 -1.587302e-02
     vertex -7.211640e-01  4.862434e-01 -3.174603e-02
     vertex -1.003351e+00  4.862434e-01 -3.174603e-02
   endloop
 endfacet
 facet normal  9.999781e-01 -6.613466e-03  0.000000e+00
   outer loop
     vertex -6.717177e-01  4.535278e-01 -1.587302e-02
     vertex -6.717813e-01  4.439154e-01 -1.587302e-02
     vertex -6.717813e-01  4.439154e-01 -3.174603e-02
   endloop
 endfacet
 facet normal  9.999781e-01 -6.613466e-03  0.000000e+00
   outer loop
     vertex -6.717177e-01  4.535278e-01 -1.587302e-02
     vertex -6.717813e-01  4.439154e-01 -3.174603e-02
     vertex -6.717177e-01  4.535278e-01 -3.174603e-02
   endloop
 endfacet
 facet normal  9.709540e-01  2.392664e-01  0.000000e+00
   outer loop
     vertex -6.740177e-01  4.628612e-01 -1.587302e-02
     vertex -6.717177e-01  4.535278e-01 -3.174603e-02
     vertex -6.740177e-01  4.628612e-01 -3.174603e-02
   endloop
 endfacet
 facet normal  9.709540e-01  2.392664e-01  0.000000e+00
   outer loop
     vertex -6.740177e-01  4.628612e-01 -1.587302e-02
     vertex -6.717177e-01  4.535278e-01 -1.587302e-02
     vertex -6.717177e-01  4.535278e-01 -3.174603e-02
   endloop
 endfacet
 facet normal  8.824110e-01  4.704794e-01  0.000000e+00
   outer loop
     vertex -6.785402e-01  4.713435e-01 -1.587302e-02
     vertex -6.740177e-01  4.628612e-01 -3.174603e-02
     vertex -6.785402e-01  4.713435e-01 -3.174603e-02
   endloop
 endfacet
 facet normal  8.824110e-01  4.704794e-01  0.000000e+00
   outer loop
     vertex -6.785402e-01  4.713435e-01 -1.587302e-02
     vertex -6.740177e-01  4.628612e-01 -1.587302e-02
     vertex -6.740177e-01  4.628612e-01 -3.174603e-02
   endloop
 endfacet
 facet normal  7.397768e-01  6.728523e-01  0.000000e+00
   outer loop
     vertex -6.850081e-01  4.784547e-01 -1.587302e-02
     vertex -6.785402e-01  4.713435e-01 -3.174603e-02
     vertex -6.850081e-01  4.784547e-01 -3.174603e-02
   endloop
 endfacet
 facet normal  7.397768e-01  6.728523e-01  0.000000e+00
   outer loop
     vertex -6.850081e-01  4.784547e-01 -1.587302e-02
     vertex -6.785402e-01  4.713435e-01 -1.587302e-02
     vertex -6.785402e-01  4.713435e-01 -3.174603e-02
   endloop
 endfacet
 facet normal  5.517949e-01  8.339799e-01  0.000000e+00
   outer loop
     vertex -6.930249e-01  4.837589e-01 -1.587302e-02
     vertex -6.850081e-01  4.784547e-01 -3.174603e-02
     vertex -6.930249e-01  4.837589e-01 -3.174603e-02
   endloop
 endfacet
 facet normal  5.517949e-01  8.339799e-01  0.000000e+00
   outer loop
     vertex -6.930249e-01  4.837589e-01 -1.587302e-02
     vertex -6.850081e-01  4.784547e-01 -1.587302e-02
     vertex -6.850081e-01  4.784547e-01 -3.174603e-02
   endloop
 endfacet
 facet normal  3.299883e-01  9.439850e-01  0.000000e+00
   outer loop
     vertex -7.020990e-01  4.869309e-01 -1.587302e-02
     vertex -6.930249e-01  4.837589e-01 -3.174603e-02
     vertex -7.020990e-01  4.869309e-01 -3.174603e-02
   endloop
 endfacet
 facet normal  3.299883e-01  9.439850e-01  0.000000e+00
   outer loop
     vertex -7.020990e-01  4.869309e-01 -1.587302e-02
     vertex -6.930249e-01  4.837589e-01 -1.587302e-02
     vertex -6.930249e-01  4.837589e-01 -3.174603e-02
   endloop
 endfacet
 facet normal  8.795364e-02  9.961246e-01  0.000000e+00
   outer loop
     vertex -7.116744e-01  4.877764e-01 -1.587302e-02
     vertex -7.020990e-01  4.869309e-01 -3.174603e-02
     vertex -7.116744e-01  4.877764e-01 -3.174603e-02
   endloop
 endfacet
 facet normal  8.795364e-02  9.961246e-01  0.000000e+00
   outer loop
     vertex -7.116744e-01  4.877764e-01 -1.587302e-02
     vertex -7.020990e-01  4.869309e-01 -1.587302e-02
     vertex -7.020990e-01  4.869309e-01 -3.174603e-02
   endloop
 endfacet
 facet normal -1.594725e-01  9.872024e-01  0.000000e+00
   outer loop
     vertex -7.211640e-01  4.862434e-01 -1.587302e-02
     vertex -7.116744e-01  4.877764e-01 -3.174603e-02
     vertex -7.211640e-01  4.862434e-01 -3.174603e-02
   endloop
 endfacet
 facet normal -1.594725e-01  9.872024e-01  0.000000e+00
   outer loop
     vertex -7.211640e-01  4.862434e-01 -1.587302e-02
     vertex -7.116744e-01  4.877764e-01 -1.587302e-02
     vertex -7.116744e-01  4.877764e-01 -3.174603e-02
   endloop
 endfacet
 facet normal  1.000000e+00  0.000000e+00  0.000000e+00
   outer loop
     vertex -6.717813e-01  4.439154e-01 -1.587302e-02
     vertex -6.717813e-01  3.663139e-01 -1.587302e-02
     vertex -6.717813e-01  3.663139e-01 -3.174603e-02
   endloop
 endfacet
 facet normal  1.000000e+00  0.000000e+00  0.000000e+00
   outer loop
     vertex -6.717813e-01  4.439154e-01 -1.587302e-02
     vertex -6.717813e-01  3.663139e-01 -3.174603e-02
     vertex -6.717813e-01  4.439154e-01 -3.174603e-02
   endloop
 endfacet
 facet normal  1.000000e+00  0.000000e+00  0.000000e+00
   outer loop
     vertex -6.717813e-01  3.663139e-01 -1.587302e-02
     vertex -6.717813e-01  2.887125e-01 -1.587302e-02
     vertex -6.717813e-01  2.887125e-01 -3.174603e-02
   endloop
 endfacet
 facet normal  1.000000e+00  0.000000e+00  0.000000e+00
   outer loop
     vertex -6.717813e-01  3.663139e-01 -1.587302e-02
     vertex -6.717813e-01  2.887125e-01 -3.174603e-02
     vertex -6.717813e-01  3.663139e-01 -3.174603e-02
   endloop
 endfacet
 facet normal -1.594725e-01 -9.872024e-01  0.000000e+00
   outer loop
     vertex -7.116744e-01  2.448515e-01 -1.587302e-02
     vertex -7.211640e-01  2.463845e-01 -1.587302e-02
     vertex -7.211640e-01  2.463845e-01 -3.174603e-02
   endloop
 endfacet
 facet normal -1.594725e-01 -9.872024e-01 -0.000000e+00
   outer loop
     vertex -7.116744e-01  2.448515e-01 -1.587302e-02
     vertex -7.211640e-01  2.463845e-01 -3.174603e-02
     vertex -7.116744e-01  2.448515e-01 -3.174603e-02
   endloop
 endfacet
 facet normal  8.795364e-02 -9.961246e-01  0.000000e+00
   outer loop
     vertex -7.020990e-01  2.456970e-01 -1.587302e-02
     vertex -7.116744e-01  2.448515e-01 -3.174603e-02
     vertex -7.020990e-01  2.456970e-01 -3.174603e-02
   endloop
 endfacet
 facet normal  8.795364e-02 -9.961246e-01  0.000000e+00
   outer loop
     vertex -7.020990e-01  2.456970e-01 -1.587302e-02
     vertex -7.116744e-01  2.448515e-01 -1.587302e-02
     vertex -7.116744e-01  2.448515e-01 -3.174603e-02
   endloop
 endfacet
 facet normal  3.299883e-01 -9.439850e-01  0.000000e+00
   outer loop
     vertex -6.930249e-01  2.488690e-01 -1.587302e-02
     vertex -7.020990e-01  2.456970e-01 -3.174603e-02
     vertex -6.930249e-01  2.488690e-01 -3.174603e-02
   endloop
 endfacet
 facet normal  3.299883e-01 -9.439850e-01  0.000000e+00
   outer loop
     vertex -6.930249e-01  2.488690e-01 -1.587302e-02
     vertex -7.020990e-01  2.456970e-01 -1.587302e-02
     vertex -7.020990e-01  2.456970e-01 -3.174603e-02
   endloop
 endfacet
 facet normal  5.517949e-01 -8.339799e-01  0.000000e+00
   outer loop
     vertex -6.850081e-01  2.541732e-01 -1.587302e-02
     vertex -6.930249e-01  2.488690e-01 -3.174603e-02
     vertex -6.850081e-01  2.541732e-01 -3.174603e-02
   endloop
 endfacet
 facet normal  5.517949e-01 -8.339799e-01  0.000000e+00
   outer loop
     vertex -6.850081e-01  2.541732e-01 -1.587302e-02
     vertex -6.930249e-01  2.488690e-01 -1.587302e-02
     vertex -6.930249e-01  2.488690e-01 -3.174603e-02
   endloop
 endfacet
 facet normal  7.397768e-01 -6.728523e-01  0.000000e+00
   outer loop
     vertex -6.785402e-01  2.612844e-01 -1.587302e-02
     vertex -6.850081e-01  2.541732e-01 -3.174603e-02
     vertex -6.785402e-01  2.612844e-01 -3.174603e-02
   endloop
 endfacet
 facet normal  7.397768e-01 -6.728523e-01  0.000000e+00
   outer loop
     vertex -6.785402e-01  2.612844e-01 -1.587302e-02
     vertex -6.850081e-01  2.541732e-01 -1.587302e-02
     vertex -6.850081e-01  2.541732e-01 -3.174603e-02
   endloop
 endfacet
 facet normal  8.824110e-01 -4.704794e-01  0.000000e+00
   outer loop
     vertex -6.740177e-01  2.697667e-01 -1.587302e-02
     vertex -6.785402e-01  2.612844e-01 -3.174603e-02
     vertex -6.740177e-01  2.697667e-01 -3.174603e-02
   endloop
 endfacet
 facet normal  8.824110e-01 -4.704794e-01  0.000000e+00
   outer loop
     vertex -6.740177e-01  2.697667e-01 -1.587302e-02
     vertex -6.785402e-01  2.612844e-01 -1.587302e-02
     vertex -6.785402e-01  2.612844e-01 -3.174603e-02
   endloop
 endfacet
 facet normal  9.709540e-01 -2.392664e-01  0.000000e+00
   outer loop
     vertex -6.717177e-01  2.791001e-01 -1.587302e-02
     vertex -6.740177e-01  2.697667e-01 -3.174603e-02
     vertex -6.717177e-01  2.791001e-01 -3.174603e-02
   endloop
 endfacet
 facet normal  9.709540e-01 -2.392664e-01  0.000000e+00
   outer loop
     vertex -6.717177e-01  2.791001e-01 -1.587302e-02
     vertex -6.740177e-01  2.697667e-01 -1.587302e-02
     vertex -6.740177e-01  2.697667e-01 -3.174603e-02
   endloop
 endfacet
 facet normal  9.999781e-01  6.613466e-03  0.000000e+00
   outer loop
     vertex -6.717813e-01  2.887125e-01 -1.587302e-02
     vertex -6.717177e-01  2.791001e-01 -3.174603e-02
     vertex -6.717813e-01  2.887125e-01 -3.174603e-02
   endloop
 endfacet
 facet normal  9.999781e-01  6.613466e-03  0.000000e+00
   outer loop
     vertex -6.717813e-01  2.887125e-01 -1.587302e-02
     vertex -6.717177e-01  2.791001e-01 -1.587302e-02
     vertex -6.717177e-01  2.791001e-01 -3.174603e-02
   endloop
 endfacet
endsolid
