solid 
 facet normal  0.000000e+00 -9.284765e-01  3.713913e-01
   outer loop
     vertex -1.587302e-02 -8.174604e-01 -4.074077e-02
     vertex  9.841270e-01 -7.962963e-01  1.216928e-02
     vertex -1.587302e-02 -7.962963e-01  1.216928e-02
   endloop
 endfacet
 facet normal  0.000000e+00 -9.284765e-01  3.713913e-01
   outer loop
     vertex -1.587302e-02 -8.174604e-01 -4.074077e-02
     vertex  9.841270e-01 -8.174604e-01 -4.074077e-02
     vertex  9.841270e-01 -7.962963e-01  1.216928e-02
   endloop
 endfacet
 facet normal  0.000000e+00 -2.840883e-01  9.587981e-01
   outer loop
     vertex -1.587302e-02 -7.962963e-01  1.216928e-02
     vertex  9.841270e-01 -5.105820e-01  9.682536e-02
     vertex -1.587302e-02 -5.105820e-01  9.682536e-02
   endloop
 endfacet
 facet normal  0.000000e+00 -2.840883e-01  9.587981e-01
   outer loop
     vertex -1.587302e-02 -7.962963e-01  1.216928e-02
     vertex  9.841270e-01 -7.962963e-01  1.216928e-02
     vertex  9.841270e-01 -5.105820e-01  9.682536e-02
   endloop
 endfacet
 facet normal  0.000000e+00  2.221674e-02 -9.997532e-01
   outer loop
     vertex -1.587302e-02 -3.412698e-01 -3.015876e-02
     vertex  9.841270e-01 -8.174604e-01 -4.074077e-02
     vertex -1.587302e-02 -8.174604e-01 -4.074077e-02
   endloop
 endfacet
 facet normal  0.000000e+00  2.221674e-02 -9.997532e-01
   outer loop
     vertex -1.587302e-02 -3.412698e-01 -3.015876e-02
     vertex  9.841270e-01 -3.412698e-01 -3.015876e-02
     vertex  9.841270e-01 -8.174604e-01 -4.074077e-02
   endloop
 endfacet
 facet normal  0.000000e+00 -9.284765e-01  3.713913e-01
   outer loop
     vertex -1.587302e-02 -8.174604e-01 -4.074077e-02
     vertex -1.587302e-02 -7.962963e-01  1.216928e-02
     vertex -3.174603e-02 -7.962963e-01  1.216928e-02
   endloop
 endfacet
 facet normal  0.000000e+00 -9.284765e-01  3.713913e-01
   outer loop
     vertex -1.587302e-02 -8.174604e-01 -4.074077e-02
     vertex -3.174603e-02 -7.962963e-01  1.216928e-02
     vertex -3.174603e-02 -8.174604e-01 -4.074077e-02
   endloop
 endfacet
 facet normal  1.000000e+00  0.000000e+00  0.000000e+00
   outer loop
     vertex  9.841270e-01 -5.105820e-01  9.682536e-02
     vertex  9.841270e-01 -7.962963e-01  1.216928e-02
     vertex  9.841270e-01 -8.174604e-01 -4.074077e-02
   endloop
 endfacet
 facet normal  1.000000e+00  0.000000e+00  0.000000e+00
   outer loop
     vertex  9.841270e-01 -3.412698e-01 -3.015876e-02
     vertex  9.841270e-01 -5.105820e-01  9.682536e-02
     vertex  9.841270e-01 -8.174604e-01 -4.074077e-02
   endloop
 endfacet
 facet normal  1.000000e+00  0.000000e+00  0.000000e+00
   outer loop
     vertex  9.841270e-01 -3.330394e-01 -2.192831e-02
     vertex  9.841270e-01 -5.105820e-01  9.682536e-02
     vertex  9.841270e-01 -3.412698e-01 -3.015876e-02
   endloop
 endfacet
 facet normal  1.000000e+00  0.000000e+00  0.000000e+00
   outer loop
     vertex  9.841270e-01 -3.518518e-01  2.132275e-01
     vertex  9.841270e-01 -3.941799e-01  2.449735e-01
     vertex  9.841270e-01 -5.105820e-01  9.682536e-02
   endloop
 endfacet
 facet normal  1.000000e+00  0.000000e+00  0.000000e+00
   outer loop
     vertex  9.841270e-01 -3.518518e-01  2.132275e-01
     vertex  9.841270e-01 -5.105820e-01  9.682536e-02
     vertex  9.841270e-01 -3.330394e-01 -2.192831e-02
   endloop
 endfacet
 facet normal  1.000000e+00  0.000000e+00  0.000000e+00
   outer loop
     vertex  9.841270e-01 -3.287638e-01  2.286195e-01
     vertex  9.841270e-01 -3.941799e-01  2.449735e-01
     vertex  9.841270e-01 -3.518518e-01  2.132275e-01
   endloop
 endfacet
 facet normal  0.000000e+00 -7.863184e-01  6.178215e-01
   outer loop
     vertex -1.587302e-02 -5.105820e-01  9.682536e-02
     vertex  9.841270e-01 -3.941799e-01  2.449735e-01
     vertex -1.587302e-02 -3.941799e-01  2.449735e-01
   endloop
 endfacet
 facet normal  0.000000e+00 -7.863184e-01  6.178215e-01
   outer loop
     vertex -1.587302e-02 -5.105820e-01  9.682536e-02
     vertex  9.841270e-01 -5.105820e-01  9.682536e-02
     vertex  9.841270e-01 -3.941799e-01  2.449735e-01
   endloop
 endfacet
 facet normal  0.000000e+00 -2.840883e-01  9.587981e-01
   outer loop
     vertex -1.587302e-02 -7.962963e-01  1.216928e-02
     vertex -1.587302e-02 -5.105820e-01  9.682536e-02
     vertex -3.174603e-02 -5.105820e-01  9.682536e-02
   endloop
 endfacet
 facet normal  0.000000e+00 -2.840883e-01  9.587981e-01
   outer loop
     vertex -1.587302e-02 -7.962963e-01  1.216928e-02
     vertex -3.174603e-02 -5.105820e-01  9.682536e-02
     vertex -3.174603e-02 -7.962963e-01  1.216928e-02
   endloop
 endfacet
 facet normal  0.000000e+00  7.071068e-01 -7.071068e-01
   outer loop
     vertex -1.587302e-02 -3.330394e-01 -2.192831e-02
     vertex  9.841270e-01 -3.412698e-01 -3.015876e-02
     vertex -1.587302e-02 -3.412698e-01 -3.015876e-02
   endloop
 endfacet
 facet normal  0.000000e+00  7.071068e-01 -7.071068e-01
   outer loop
     vertex -1.587302e-02 -3.330394e-01 -2.192831e-02
     vertex  9.841270e-01 -3.330394e-01 -2.192831e-02
     vertex  9.841270e-01 -3.412698e-01 -3.015876e-02
   endloop
 endfacet
 facet normal  0.000000e+00  2.221674e-02 -9.997532e-01
   outer loop
     vertex -1.587302e-02 -3.412698e-01 -3.015876e-02
     vertex -1.587302e-02 -8.174604e-01 -4.074077e-02
     vertex -3.174603e-02 -8.174604e-01 -4.074077e-02
   endloop
 endfacet
 facet normal  0.000000e+00  2.221674e-02 -9.997532e-01
   outer loop
     vertex -1.587302e-02 -3.412698e-01 -3.015876e-02
     vertex -3.174603e-02 -8.174604e-01 -4.074077e-02
     vertex -3.174603e-02 -3.412698e-01 -3.015876e-02
   endloop
 endfacet
 facet normal -1.000000e+00  0.000000e+00  0.000000e+00
   outer loop
     vertex -3.174603e-02 -5.105820e-01  9.682536e-02
     vertex -3.174603e-02 -8.174604e-01 -4.074077e-02
     vertex -3.174603e-02 -7.962963e-01  1.216928e-02
   endloop
 endfacet
 facet normal -1.000000e+00 -0.000000e+00  0.000000e+00
   outer loop
     vertex -3.174603e-02 -3.412698e-01 -3.015876e-02
     vertex -3.174603e-02 -8.174604e-01 -4.074077e-02
     vertex -3.174603e-02 -5.105820e-01  9.682536e-02
   endloop
 endfacet
 facet normal -1.000000e+00 -0.000000e+00  0.000000e+00
   outer loop
     vertex -3.174603e-02 -3.330394e-01 -2.192831e-02
     vertex -3.174603e-02 -3.412698e-01 -3.015876e-02
     vertex -3.174603e-02 -5.105820e-01  9.682536e-02
   endloop
 endfacet
 facet normal -1.000000e+00 -0.000000e+00  0.000000e+00
   outer loop
     vertex -3.174603e-02 -3.518518e-01  2.132275e-01
     vertex -3.174603e-02 -5.105820e-01  9.682536e-02
     vertex -3.174603e-02 -3.941799e-01  2.449735e-01
   endloop
 endfacet
 facet normal -1.000000e+00  0.000000e+00 -0.000000e+00
   outer loop
     vertex -3.174603e-02 -3.518518e-01  2.132275e-01
     vertex -3.174603e-02 -3.330394e-01 -2.192831e-02
     vertex -3.174603e-02 -5.105820e-01  9.682536e-02
   endloop
 endfacet
 facet normal -1.000000e+00 -0.000000e+00  0.000000e+00
   outer loop
     vertex -3.174603e-02 -3.287638e-01  2.286195e-01
     vertex -3.174603e-02 -3.518518e-01  2.132275e-01
     vertex -3.174603e-02 -3.941799e-01  2.449735e-01
   endloop
 endfacet
 facet normal  0.000000e+00  2.425357e-01  9.701425e-01
   outer loop
     vertex -1.587302e-02 -3.941799e-01  2.449735e-01
     vertex  9.841270e-01 -3.287638e-01  2.286195e-01
     vertex -1.587302e-02 -3.287638e-01  2.286195e-01
   endloop
 endfacet
 facet normal -0.000000e+00  2.425357e-01  9.701425e-01
   outer loop
     vertex -1.587302e-02 -3.941799e-01  2.449735e-01
     vertex  9.841270e-01 -3.941799e-01  2.449735e-01
     vertex  9.841270e-01 -3.287638e-01  2.286195e-01
   endloop
 endfacet
 facet normal  1.000000e+00  0.000000e+00  0.000000e+00
   outer loop
     vertex  9.841270e-01 -3.034769e-01  1.594858e-02
     vertex  9.841270e-01 -3.330394e-01 -2.192831e-02
     vertex  9.841270e-01 -3.201058e-01 -8.994743e-03
   endloop
 endfacet
 facet normal  1.000000e+00  0.000000e+00  0.000000e+00
   outer loop
     vertex  9.841270e-01 -2.925926e-01  4.179881e-02
     vertex  9.841270e-01 -3.330394e-01 -2.192831e-02
     vertex  9.841270e-01 -3.034769e-01  1.594858e-02
   endloop
 endfacet
 facet normal  1.000000e+00  0.000000e+00  0.000000e+00
   outer loop
     vertex  9.841270e-01 -3.518518e-01  2.132275e-01
     vertex  9.841270e-01 -3.330394e-01 -2.192831e-02
     vertex  9.841270e-01 -2.925926e-01  4.179881e-02
   endloop
 endfacet
 facet normal  1.000000e+00  0.000000e+00  0.000000e+00
   outer loop
     vertex  9.841270e-01 -2.460317e-01  1.814815e-01
     vertex  9.841270e-01 -3.287638e-01  2.286195e-01
     vertex  9.841270e-01 -3.518518e-01  2.132275e-01
   endloop
 endfacet
 facet normal  1.000000e+00  0.000000e+00  0.000000e+00
   outer loop
     vertex  9.841270e-01 -2.460317e-01  1.814815e-01
     vertex  9.841270e-01 -3.518518e-01  2.132275e-01
     vertex  9.841270e-01 -2.925926e-01  4.179881e-02
   endloop
 endfacet
 facet normal  1.000000e+00  0.000000e+00  0.000000e+00
   outer loop
     vertex  9.841270e-01 -2.248677e-01  2.026455e-01
     vertex  9.841270e-01 -2.460317e-01  1.814815e-01
     vertex  9.841270e-01 -2.275552e-01  1.962627e-01
   endloop
 endfacet
 facet normal  1.000000e+00  0.000000e+00  0.000000e+00
   outer loop
     vertex  9.841270e-01 -2.248677e-01  2.026455e-01
     vertex  9.841270e-01 -3.287638e-01  2.286195e-01
     vertex  9.841270e-01 -2.460317e-01  1.814815e-01
   endloop
 endfacet
 facet normal  0.000000e+00 -7.863184e-01  6.178215e-01
   outer loop
     vertex -1.587302e-02 -5.105820e-01  9.682536e-02
     vertex -1.587302e-02 -3.941799e-01  2.449735e-01
     vertex -3.174603e-02 -3.941799e-01  2.449735e-01
   endloop
 endfacet
 facet normal  0.000000e+00 -7.863184e-01  6.178215e-01
   outer loop
     vertex -1.587302e-02 -5.105820e-01  9.682536e-02
     vertex -3.174603e-02 -3.941799e-01  2.449735e-01
     vertex -3.174603e-02 -5.105820e-01  9.682536e-02
   endloop
 endfacet
 facet normal  0.000000e+00 -9.968153e-01 -7.974514e-02
   outer loop
     vertex -1.587302e-02 -3.306878e-01 -5.132279e-02
     vertex  9.841270e-01 -3.330394e-01 -2.192831e-02
     vertex -1.587302e-02 -3.330394e-01 -2.192831e-02
   endloop
 endfacet
 facet normal  0.000000e+00 -9.968153e-01 -7.974514e-02
   outer loop
     vertex -1.587302e-02 -3.306878e-01 -5.132279e-02
     vertex  9.841270e-01 -3.306878e-01 -5.132279e-02
     vertex  9.841270e-01 -3.330394e-01 -2.192831e-02
   endloop
 endfacet
 facet normal  0.000000e+00  7.071068e-01 -7.071068e-01
   outer loop
     vertex -1.587302e-02 -3.330394e-01 -2.192831e-02
     vertex -1.587302e-02 -3.412698e-01 -3.015876e-02
     vertex -3.174603e-02 -3.412698e-01 -3.015876e-02
   endloop
 endfacet
 facet normal  0.000000e+00  7.071068e-01 -7.071068e-01
   outer loop
     vertex -1.587302e-02 -3.330394e-01 -2.192831e-02
     vertex -3.174603e-02 -3.412698e-01 -3.015876e-02
     vertex -3.174603e-02 -3.330394e-01 -2.192831e-02
   endloop
 endfacet
 facet normal  0.000000e+00  2.425357e-01  9.701425e-01
   outer loop
     vertex -1.587302e-02 -3.941799e-01  2.449735e-01
     vertex -1.587302e-02 -3.287638e-01  2.286195e-01
     vertex -3.174603e-02 -3.287638e-01  2.286195e-01
   endloop
 endfacet
 facet normal  0.000000e+00  2.425357e-01  9.701425e-01
   outer loop
     vertex -1.587302e-02 -3.941799e-01  2.449735e-01
     vertex -3.174603e-02 -3.287638e-01  2.286195e-01
     vertex -3.174603e-02 -3.941799e-01  2.449735e-01
   endloop
 endfacet
 facet normal -1.000000e+00  0.000000e+00  0.000000e+00
   outer loop
     vertex -3.174603e-02 -3.034769e-01  1.594858e-02
     vertex -3.174603e-02 -3.201058e-01 -8.994743e-03
     vertex -3.174603e-02 -3.330394e-01 -2.192831e-02
   endloop
 endfacet
 facet normal -1.000000e+00  0.000000e+00  0.000000e+00
   outer loop
     vertex -3.174603e-02 -2.925926e-01  4.179881e-02
     vertex -3.174603e-02 -3.034769e-01  1.594858e-02
     vertex -3.174603e-02 -3.330394e-01 -2.192831e-02
   endloop
 endfacet
 facet normal -1.000000e+00  0.000000e+00  0.000000e+00
   outer loop
     vertex -3.174603e-02 -3.518518e-01  2.132275e-01
     vertex -3.174603e-02 -2.925926e-01  4.179881e-02
     vertex -3.174603e-02 -3.330394e-01 -2.192831e-02
   endloop
 endfacet
 facet normal -1.000000e+00  0.000000e+00  0.000000e+00
   outer loop
     vertex -3.174603e-02 -2.460317e-01  1.814815e-01
     vertex -3.174603e-02 -3.518518e-01  2.132275e-01
     vertex -3.174603e-02 -3.287638e-01  2.286195e-01
   endloop
 endfacet
 facet normal -1.000000e+00 -0.000000e+00  0.000000e+00
   outer loop
     vertex -3.174603e-02 -2.460317e-01  1.814815e-01
     vertex -3.174603e-02 -2.925926e-01  4.179881e-02
     vertex -3.174603e-02 -3.518518e-01  2.132275e-01
   endloop
 endfacet
 facet normal -1.000000e+00  0.000000e+00  0.000000e+00
   outer loop
     vertex -3.174603e-02 -2.248677e-01  2.026455e-01
     vertex -3.174603e-02 -2.275552e-01  1.962627e-01
     vertex -3.174603e-02 -2.460317e-01  1.814815e-01
   endloop
 endfacet
 facet normal -1.000000e+00 -0.000000e+00  0.000000e+00
   outer loop
     vertex -3.174603e-02 -2.248677e-01  2.026455e-01
     vertex -3.174603e-02 -2.460317e-01  1.814815e-01
     vertex -3.174603e-02 -3.287638e-01  2.286195e-01
   endloop
 endfacet
 facet normal  0.000000e+00 -5.547002e-01  8.320503e-01
   outer loop
     vertex -1.587302e-02 -3.287638e-01  2.286195e-01
     vertex  9.841270e-01 -2.883598e-01  2.555555e-01
     vertex -1.587302e-02 -2.883598e-01  2.555555e-01
   endloop
 endfacet
 facet normal  0.000000e+00 -5.547002e-01  8.320503e-01
   outer loop
     vertex -1.587302e-02 -3.287638e-01  2.286195e-01
     vertex  9.841270e-01 -3.287638e-01  2.286195e-01
     vertex  9.841270e-01 -2.883598e-01  2.555555e-01
   endloop
 endfacet
 facet normal  1.000000e+00  0.000000e+00  0.000000e+00
   outer loop
     vertex  9.841270e-01 -1.931217e-01  2.238095e-01
     vertex  9.841270e-01 -2.248677e-01  2.026455e-01
     vertex  9.841270e-01 -2.275552e-01  1.962627e-01
   endloop
 endfacet
 facet normal  1.000000e+00  0.000000e+00  0.000000e+00
   outer loop
     vertex  9.841270e-01 -1.931217e-01  2.238095e-01
     vertex  9.841270e-01 -2.883598e-01  2.555555e-01
     vertex  9.841270e-01 -2.248677e-01  2.026455e-01
   endloop
 endfacet
 facet normal  1.000000e+00 -0.000000e+00  0.000000e+00
   outer loop
     vertex  9.841270e-01 -3.287638e-01  2.286195e-01
     vertex  9.841270e-01 -2.248677e-01  2.026455e-01
     vertex  9.841270e-01 -2.883598e-01  2.555555e-01
   endloop
 endfacet
 facet normal  1.000000e+00  0.000000e+00  0.000000e+00
   outer loop
     vertex  9.841270e-01 -2.275552e-01  1.962627e-01
     vertex  9.841270e-01 -2.460317e-01  1.814815e-01
     vertex  9.841270e-01 -2.925926e-01  4.179881e-02
   endloop
 endfacet
 facet normal  1.000000e+00  0.000000e+00  0.000000e+00
   outer loop
     vertex  9.841270e-01 -2.925926e-01  4.179881e-02
     vertex  9.841270e-01 -3.034769e-01  1.594858e-02
     vertex  9.841270e-01 -2.989418e-01  2.275129e-02
   endloop
 endfacet
 facet normal  1.000000e+00  0.000000e+00  0.000000e+00
   outer loop
     vertex  9.841270e-01 -3.034769e-01  1.594858e-02
     vertex  9.841270e-01 -3.201058e-01 -8.994743e-03
     vertex  9.841270e-01 -3.095238e-01  1.587272e-03
   endloop
 endfacet
 facet normal  1.000000e+00  0.000000e+00  0.000000e+00
   outer loop
     vertex  9.841270e-01 -3.201058e-01 -8.994743e-03
     vertex  9.841270e-01 -3.330394e-01 -2.192831e-02
     vertex  9.841270e-01 -3.306878e-01 -5.132279e-02
   endloop
 endfacet
 facet normal  0.000000e+00  9.701424e-01 -2.425360e-01
   outer loop
     vertex -1.587302e-02 -3.201058e-01 -8.994743e-03
     vertex  9.841270e-01 -3.306878e-01 -5.132279e-02
     vertex -1.587302e-02 -3.306878e-01 -5.132279e-02
   endloop
 endfacet
 facet normal  0.000000e+00  9.701424e-01 -2.425360e-01
   outer loop
     vertex -1.587302e-02 -3.201058e-01 -8.994743e-03
     vertex  9.841270e-01 -3.201058e-01 -8.994743e-03
     vertex  9.841270e-01 -3.306878e-01 -5.132279e-02
   endloop
 endfacet
 facet normal  0.000000e+00 -9.968153e-01 -7.974514e-02
   outer loop
     vertex -1.587302e-02 -3.306878e-01 -5.132279e-02
     vertex -1.587302e-02 -3.330394e-01 -2.192831e-02
     vertex -3.174603e-02 -3.330394e-01 -2.192831e-02
   endloop
 endfacet
 facet normal -0.000000e+00 -9.968153e-01 -7.974514e-02
   outer loop
     vertex -1.587302e-02 -3.306878e-01 -5.132279e-02
     vertex -3.174603e-02 -3.330394e-01 -2.192831e-02
     vertex -3.174603e-02 -3.306878e-01 -5.132279e-02
   endloop
 endfacet
 facet normal  0.000000e+00 -5.547002e-01  8.320503e-01
   outer loop
     vertex -1.587302e-02 -3.287638e-01  2.286195e-01
     vertex -1.587302e-02 -2.883598e-01  2.555555e-01
     vertex -3.174603e-02 -2.883598e-01  2.555555e-01
   endloop
 endfacet
 facet normal  0.000000e+00 -5.547002e-01  8.320503e-01
   outer loop
     vertex -1.587302e-02 -3.287638e-01  2.286195e-01
     vertex -3.174603e-02 -2.883598e-01  2.555555e-01
     vertex -3.174603e-02 -3.287638e-01  2.286195e-01
   endloop
 endfacet
 facet normal -1.000000e+00  0.000000e+00  0.000000e+00
   outer loop
     vertex -3.174603e-02 -1.931217e-01  2.238095e-01
     vertex -3.174603e-02 -2.275552e-01  1.962627e-01
     vertex -3.174603e-02 -2.248677e-01  2.026455e-01
   endloop
 endfacet
 facet normal -1.000000e+00 -0.000000e+00  0.000000e+00
   outer loop
     vertex -3.174603e-02 -1.931217e-01  2.238095e-01
     vertex -3.174603e-02 -2.248677e-01  2.026455e-01
     vertex -3.174603e-02 -2.883598e-01  2.555555e-01
   endloop
 endfacet
 facet normal -1.000000e+00  0.000000e+00  0.000000e+00
   outer loop
     vertex -3.174603e-02 -3.287638e-01  2.286195e-01
     vertex -3.174603e-02 -2.883598e-01  2.555555e-01
     vertex -3.174603e-02 -2.248677e-01  2.026455e-01
   endloop
 endfacet
 facet normal -1.000000e+00  0.000000e+00  0.000000e+00
   outer loop
     vertex -3.174603e-02 -2.275552e-01  1.962627e-01
     vertex -3.174603e-02 -2.925926e-01  4.179881e-02
     vertex -3.174603e-02 -2.460317e-01  1.814815e-01
   endloop
 endfacet
 facet normal -1.000000e+00  0.000000e+00  0.000000e+00
   outer loop
     vertex -3.174603e-02 -2.925926e-01  4.179881e-02
     vertex -3.174603e-02 -2.989418e-01  2.275129e-02
     vertex -3.174603e-02 -3.034769e-01  1.594858e-02
   endloop
 endfacet
 facet normal -1.000000e+00  0.000000e+00  0.000000e+00
   outer loop
     vertex -3.174603e-02 -3.034769e-01  1.594858e-02
     vertex -3.174603e-02 -3.095238e-01  1.587272e-03
     vertex -3.174603e-02 -3.201058e-01 -8.994743e-03
   endloop
 endfacet
 facet normal -1.000000e+00  0.000000e+00  0.000000e+00
   outer loop
     vertex -3.174603e-02 -3.201058e-01 -8.994743e-03
     vertex -3.174603e-02 -3.306878e-01 -5.132279e-02
     vertex -3.174603e-02 -3.330394e-01 -2.192831e-02
   endloop
 endfacet
 facet normal  0.000000e+00  3.162278e-01  9.486833e-01
   outer loop
     vertex -1.587302e-02 -2.883598e-01  2.555555e-01
     vertex  9.841270e-01 -1.931217e-01  2.238095e-01
     vertex -1.587302e-02 -1.931217e-01  2.238095e-01
   endloop
 endfacet
 facet normal -0.000000e+00  3.162278e-01  9.486833e-01
   outer loop
     vertex -1.587302e-02 -2.883598e-01  2.555555e-01
     vertex  9.841270e-01 -2.883598e-01  2.555555e-01
     vertex  9.841270e-01 -1.931217e-01  2.238095e-01
   endloop
 endfacet
 facet normal  0.000000e+00  6.246950e-01 -7.808688e-01
   outer loop
     vertex -1.587302e-02 -1.931217e-01  2.238095e-01
     vertex  9.841270e-01 -2.275552e-01  1.962627e-01
     vertex -1.587302e-02 -2.275552e-01  1.962627e-01
   endloop
 endfacet
 facet normal  0.000000e+00  6.246950e-01 -7.808688e-01
   outer loop
     vertex -1.587302e-02 -1.931217e-01  2.238095e-01
     vertex  9.841270e-01 -1.931217e-01  2.238095e-01
     vertex  9.841270e-01 -2.275552e-01  1.962627e-01
   endloop
 endfacet
 facet normal  0.000000e+00  9.216354e-01 -3.880570e-01
   outer loop
     vertex -1.587302e-02 -2.275552e-01  1.962627e-01
     vertex  9.841270e-01 -2.925926e-01  4.179881e-02
     vertex -1.587302e-02 -2.925926e-01  4.179881e-02
   endloop
 endfacet
 facet normal  0.000000e+00  9.216354e-01 -3.880570e-01
   outer loop
     vertex -1.587302e-02 -2.275552e-01  1.962627e-01
     vertex  9.841270e-01 -2.275552e-01  1.962627e-01
     vertex  9.841270e-01 -2.925926e-01  4.179881e-02
   endloop
 endfacet
 facet normal  0.000000e+00  9.486833e-01 -3.162278e-01
   outer loop
     vertex -1.587302e-02 -2.925926e-01  4.179881e-02
     vertex  9.841270e-01 -2.989418e-01  2.275129e-02
     vertex -1.587302e-02 -2.989418e-01  2.275129e-02
   endloop
 endfacet
 facet normal  0.000000e+00  9.486833e-01 -3.162278e-01
   outer loop
     vertex -1.587302e-02 -2.925926e-01  4.179881e-02
     vertex  9.841270e-01 -2.925926e-01  4.179881e-02
     vertex  9.841270e-01 -2.989418e-01  2.275129e-02
   endloop
 endfacet
 facet normal  0.000000e+00  8.320505e-01 -5.546998e-01
   outer loop
     vertex -1.587302e-02 -2.989418e-01  2.275129e-02
     vertex  9.841270e-01 -3.034769e-01  1.594858e-02
     vertex -1.587302e-02 -3.034769e-01  1.594858e-02
   endloop
 endfacet
 facet normal  0.000000e+00  8.320505e-01 -5.546998e-01
   outer loop
     vertex -1.587302e-02 -2.989418e-01  2.275129e-02
     vertex  9.841270e-01 -2.989418e-01  2.275129e-02
     vertex  9.841270e-01 -3.034769e-01  1.594858e-02
   endloop
 endfacet
 facet normal  0.000000e+00  9.216354e-01 -3.880570e-01
   outer loop
     vertex -1.587302e-02 -3.034769e-01  1.594858e-02
     vertex  9.841270e-01 -3.095238e-01  1.587272e-03
     vertex -1.587302e-02 -3.095238e-01  1.587272e-03
   endloop
 endfacet
 facet normal  0.000000e+00  9.216354e-01 -3.880570e-01
   outer loop
     vertex -1.587302e-02 -3.034769e-01  1.594858e-02
     vertex  9.841270e-01 -3.034769e-01  1.594858e-02
     vertex  9.841270e-01 -3.095238e-01  1.587272e-03
   endloop
 endfacet
 facet normal  0.000000e+00  7.071073e-01 -7.071063e-01
   outer loop
     vertex -1.587302e-02 -3.095238e-01  1.587272e-03
     vertex  9.841270e-01 -3.201058e-01 -8.994743e-03
     vertex -1.587302e-02 -3.201058e-01 -8.994743e-03
   endloop
 endfacet
 facet normal  0.000000e+00  7.071073e-01 -7.071063e-01
   outer loop
     vertex -1.587302e-02 -3.095238e-01  1.587272e-03
     vertex  9.841270e-01 -3.095238e-01  1.587272e-03
     vertex  9.841270e-01 -3.201058e-01 -8.994743e-03
   endloop
 endfacet
 facet normal  0.000000e+00  9.701424e-01 -2.425360e-01
   outer loop
     vertex -1.587302e-02 -3.201058e-01 -8.994743e-03
     vertex -1.587302e-02 -3.306878e-01 -5.132279e-02
     vertex -3.174603e-02 -3.306878e-01 -5.132279e-02
   endloop
 endfacet
 facet normal  0.000000e+00  9.701424e-01 -2.425360e-01
   outer loop
     vertex -1.587302e-02 -3.201058e-01 -8.994743e-03
     vertex -3.174603e-02 -3.306878e-01 -5.132279e-02
     vertex -3.174603e-02 -3.201058e-01 -8.994743e-03
   endloop
 endfacet
 facet normal  0.000000e+00  3.162278e-01  9.486833e-01
   outer loop
     vertex -1.587302e-02 -2.883598e-01  2.555555e-01
     vertex -1.587302e-02 -1.931217e-01  2.238095e-01
     vertex -3.174603e-02 -1.931217e-01  2.238095e-01
   endloop
 endfacet
 facet normal  0.000000e+00  3.162278e-01  9.486833e-01
   outer loop
     vertex -1.587302e-02 -2.883598e-01  2.555555e-01
     vertex -3.174603e-02 -1.931217e-01  2.238095e-01
     vertex -3.174603e-02 -2.883598e-01  2.555555e-01
   endloop
 endfacet
 facet normal  0.000000e+00  6.246950e-01 -7.808688e-01
   outer loop
     vertex -1.587302e-02 -1.931217e-01  2.238095e-01
     vertex -1.587302e-02 -2.275552e-01  1.962627e-01
     vertex -3.174603e-02 -2.275552e-01  1.962627e-01
   endloop
 endfacet
 facet normal  0.000000e+00  6.246950e-01 -7.808688e-01
   outer loop
     vertex -1.587302e-02 -1.931217e-01  2.238095e-01
     vertex -3.174603e-02 -2.275552e-01  1.962627e-01
     vertex -3.174603e-02 -1.931217e-01  2.238095e-01
   endloop
 endfacet
 facet normal  0.000000e+00  9.216354e-01 -3.880570e-01
   outer loop
     vertex -1.587302e-02 -2.275552e-01  1.962627e-01
     vertex -1.587302e-02 -2.925926e-01  4.179881e-02
     vertex -3.174603e-02 -2.925926e-01  4.179881e-02
   endloop
 endfacet
 facet normal  0.000000e+00  9.216354e-01 -3.880570e-01
   outer loop
     vertex -1.587302e-02 -2.275552e-01  1.962627e-01
     vertex -3.174603e-02 -2.925926e-01  4.179881e-02
     vertex -3.174603e-02 -2.275552e-01  1.962627e-01
   endloop
 endfacet
 facet normal  0.000000e+00  9.486833e-01 -3.162278e-01
   outer loop
     vertex -1.587302e-02 -2.925926e-01  4.179881e-02
     vertex -1.587302e-02 -2.989418e-01  2.275129e-02
     vertex -3.174603e-02 -2.989418e-01  2.275129e-02
   endloop
 endfacet
 facet normal  0.000000e+00  9.486833e-01 -3.162278e-01
   outer loop
     vertex -1.587302e-02 -2.925926e-01  4.179881e-02
     vertex -3.174603e-02 -2.989418e-01  2.275129e-02
     vertex -3.174603e-02 -2.925926e-01  4.179881e-02
   endloop
 endfacet
 facet normal  0.000000e+00  8.320505e-01 -5.546998e-01
   outer loop
     vertex -1.587302e-02 -2.989418e-01  2.275129e-02
     vertex -1.587302e-02 -3.034769e-01  1.594858e-02
     vertex -3.174603e-02 -3.034769e-01  1.594858e-02
   endloop
 endfacet
 facet normal  0.000000e+00  8.320505e-01 -5.546998e-01
   outer loop
     vertex -1.587302e-02 -2.989418e-01  2.275129e-02
     vertex -3.174603e-02 -3.034769e-01  1.594858e-02
     vertex -3.174603e-02 -2.989418e-01  2.275129e-02
   endloop
 endfacet
 facet normal  0.000000e+00  9.216354e-01 -3.880570e-01
   outer loop
     vertex -1.587302e-02 -3.034769e-01  1.594858e-02
     vertex -1.587302e-02 -3.095238e-01  1.587272e-03
     vertex -3.174603e-02 -3.095238e-01  1.587272e-03
   endloop
 endfacet
 facet normal  0.000000e+00  9.216354e-01 -3.880570e-01
   outer loop
     vertex -1.587302e-02 -3.034769e-01  1.594858e-02
     vertex -3.174603e-02 -3.095238e-01  1.587272e-03
     vertex -3.174603e-02 -3.034769e-01  1.594858e-02
   endloop
 endfacet
 facet normal  0.000000e+00  7.071073e-01 -7.071063e-01
   outer loop
     vertex -1.587302e-02 -3.095238e-01  1.587272e-03
     vertex -1.587302e-02 -3.201058e-01 -8.994743e-03
     vertex -3.174603e-02 -3.201058e-01 -8.994743e-03
   endloop
 endfacet
 facet normal  0.000000e+00  7.071073e-01 -7.071063e-01
   outer loop
     vertex -1.587302e-02 -3.095238e-01  1.587272e-03
     vertex -3.174603e-02 -3.201058e-01 -8.994743e-03
     vertex -3.174603e-02 -3.095238e-01  1.587272e-03
   endloop
 endfacet
endsolid
