solid 
 facet normal  8.518764e-01 -5.237429e-01  0.000000e+00
   outer loop
     vertex  7.208016e-02 -1.071252e-01 -1.587302e-02
     vertex  6.084660e-02 -1.253968e-01  9.841270e-01
     vertex  6.084660e-02 -1.253968e-01 -1.587302e-02
   endloop
 endfacet
 facet normal  8.518764e-01 -5.237429e-01  0.000000e+00
   outer loop
     vertex  7.208016e-02 -1.071252e-01 -1.587302e-02
     vertex  7.208016e-02 -1.071252e-01  9.841270e-01
     vertex  6.084660e-02 -1.253968e-01  9.841270e-01
   endloop
 endfacet
 facet normal  9.335106e-01 -3.585498e-01  0.000000e+00
   outer loop
     vertex  7.977055e-02 -8.710272e-02 -1.587302e-02
     vertex  7.977055e-02 -8.710272e-02  9.841270e-01
     vertex  7.208016e-02 -1.071252e-01  9.841270e-01
   endloop
 endfacet
 facet normal  9.335106e-01 -3.585498e-01  0.000000e+00
   outer loop
     vertex  7.977055e-02 -8.710272e-02 -1.587302e-02
     vertex  7.208016e-02 -1.071252e-01  9.841270e-01
     vertex  7.208016e-02 -1.071252e-01 -1.587302e-02
   endloop
 endfacet
 facet normal  9.834494e-01 -1.811829e-01  0.000000e+00
   outer loop
     vertex  8.365668e-02 -6.600909e-02 -1.587302e-02
     vertex  8.365668e-02 -6.600909e-02  9.841270e-01
     vertex  7.977055e-02 -8.710272e-02  9.841270e-01
   endloop
 endfacet
 facet normal  9.834494e-01 -1.811829e-01  0.000000e+00
   outer loop
     vertex  8.365668e-02 -6.600909e-02 -1.587302e-02
     vertex  7.977055e-02 -8.710272e-02  9.841270e-01
     vertex  7.977055e-02 -8.710272e-02 -1.587302e-02
   endloop
 endfacet
 facet normal  9.999973e-01  2.335641e-03 -0.000000e+00
   outer loop
     vertex  8.360658e-02 -4.456053e-02 -1.587302e-02
     vertex  8.360658e-02 -4.456053e-02  9.841270e-01
     vertex  8.365668e-02 -6.600909e-02  9.841270e-01
   endloop
 endfacet
 facet normal  9.999973e-01  2.335641e-03  0.000000e+00
   outer loop
     vertex  8.360658e-02 -4.456053e-02 -1.587302e-02
     vertex  8.365668e-02 -6.600909e-02  9.841270e-01
     vertex  8.365668e-02 -6.600909e-02 -1.587302e-02
   endloop
 endfacet
 facet normal  9.825923e-01  1.857749e-01 -0.000000e+00
   outer loop
     vertex  7.962197e-02 -2.348528e-02 -1.587302e-02
     vertex  7.962197e-02 -2.348528e-02  9.841270e-01
     vertex  8.360658e-02 -4.456053e-02  9.841270e-01
   endloop
 endfacet
 facet normal  9.825923e-01  1.857749e-01  0.000000e+00
   outer loop
     vertex  7.962197e-02 -2.348528e-02 -1.587302e-02
     vertex  8.360658e-02 -4.456053e-02  9.841270e-01
     vertex  8.360658e-02 -4.456053e-02 -1.587302e-02
   endloop
 endfacet
 facet normal  9.318255e-01  3.629066e-01 -0.000000e+00
   outer loop
     vertex  7.183812e-02 -3.498915e-03 -1.587302e-02
     vertex  7.183812e-02 -3.498915e-03  9.841270e-01
     vertex  7.962197e-02 -2.348528e-02  9.841270e-01
   endloop
 endfacet
 facet normal  9.318255e-01  3.629066e-01  0.000000e+00
   outer loop
     vertex  7.183812e-02 -3.498915e-03 -1.587302e-02
     vertex  7.962197e-02 -2.348528e-02  9.841270e-01
     vertex  7.962197e-02 -2.348528e-02 -1.587302e-02
   endloop
 endfacet
 facet normal  8.494206e-01  5.277165e-01 -0.000000e+00
   outer loop
     vertex  6.051933e-02  1.471998e-02 -1.587302e-02
     vertex  6.051933e-02  1.471998e-02  9.841270e-01
     vertex  7.183812e-02 -3.498915e-03  9.841270e-01
   endloop
 endfacet
 facet normal  8.494206e-01  5.277165e-01  0.000000e+00
   outer loop
     vertex  6.051933e-02  1.471998e-02 -1.587302e-02
     vertex  7.183812e-02 -3.498915e-03  9.841270e-01
     vertex  7.183812e-02 -3.498915e-03 -1.587302e-02
   endloop
 endfacet
 facet normal  7.381753e-01  6.746089e-01 -0.000000e+00
   outer loop
     vertex  4.604990e-02  3.055282e-02 -1.587302e-02
     vertex  4.604990e-02  3.055282e-02  9.841270e-01
     vertex  6.051933e-02  1.471998e-02  9.841270e-01
   endloop
 endfacet
 facet normal  7.381753e-01  6.746089e-01  0.000000e+00
   outer loop
     vertex  4.604990e-02  3.055282e-02 -1.587302e-02
     vertex  6.051933e-02  1.471998e-02  9.841270e-01
     vertex  6.051933e-02  1.471998e-02 -1.587302e-02
   endloop
 endfacet
 facet normal  6.018669e-01  7.985964e-01 -0.000000e+00
   outer loop
     vertex  2.892112e-02  4.346203e-02 -1.587302e-02
     vertex  2.892112e-02  4.346203e-02  9.841270e-01
     vertex  4.604990e-02  3.055282e-02  9.841270e-01
   endloop
 endfacet
 facet normal  6.018669e-01  7.985964e-01  0.000000e+00
   outer loop
     vertex  2.892112e-02  4.346203e-02 -1.587302e-02
     vertex  4.604990e-02  3.055282e-02  9.841270e-01
     vertex  4.604990e-02  3.055282e-02 -1.587302e-02
   endloop
 endfacet
 facet normal  4.451233e-01  8.954693e-01 -0.000000e+00
   outer loop
     vertex  9.714538e-03  5.300931e-02 -1.587302e-02
     vertex  9.714538e-03  5.300931e-02  9.841270e-01
     vertex  2.892112e-02  4.346203e-02  9.841270e-01
   endloop
 endfacet
 facet normal  2.732665e-01  9.619384e-01 -0.000000e+00
   outer loop
     vertex  9.714538e-03  5.300931e-02 -1.587302e-02
     vertex -1.091771e-02  5.887050e-02  9.841270e-01
     vertex  9.714538e-03  5.300931e-02  9.841270e-01
   endloop
 endfacet
 facet normal  4.451233e-01  8.954693e-01  0.000000e+00
   outer loop
     vertex  9.714538e-03  5.300931e-02 -1.587302e-02
     vertex  2.892112e-02  4.346203e-02  9.841270e-01
     vertex  2.892112e-02  4.346203e-02 -1.587302e-02
   endloop
 endfacet
 facet normal  2.732665e-01  9.619384e-01 -0.000000e+00
   outer loop
     vertex -1.091771e-02  5.887050e-02 -1.587302e-02
     vertex -1.091771e-02  5.887050e-02  9.841270e-01
     vertex  9.714538e-03  5.300931e-02 -1.587302e-02
   endloop
 endfacet
 facet normal  9.213155e-02  9.957468e-01  0.000000e+00
   outer loop
     vertex -3.227510e-02  6.084660e-02 -1.587302e-02
     vertex -1.091771e-02  5.887050e-02  9.841270e-01
     vertex -1.091771e-02  5.887050e-02 -1.587302e-02
   endloop
 endfacet
 facet normal  9.213155e-02  9.957468e-01 -0.000000e+00
   outer loop
     vertex -3.227510e-02  6.084660e-02 -1.587302e-02
     vertex -3.227510e-02  6.084660e-02  9.841270e-01
     vertex -1.091771e-02  5.887050e-02  9.841270e-01
   endloop
 endfacet
 facet normal -9.213155e-02  9.957468e-01  0.000000e+00
   outer loop
     vertex -3.227510e-02  6.084660e-02 -1.587302e-02
     vertex -5.363250e-02  5.887050e-02  9.841270e-01
     vertex -3.227510e-02  6.084660e-02  9.841270e-01
   endloop
 endfacet
 facet normal -9.213155e-02  9.957468e-01  0.000000e+00
   outer loop
     vertex -5.363250e-02  5.887050e-02 -1.587302e-02
     vertex -5.363250e-02  5.887050e-02  9.841270e-01
     vertex -3.227510e-02  6.084660e-02 -1.587302e-02
   endloop
 endfacet
 facet normal -2.732665e-01  9.619384e-01  0.000000e+00
   outer loop
     vertex -7.426474e-02  5.300931e-02 -1.587302e-02
     vertex -5.363250e-02  5.887050e-02  9.841270e-01
     vertex -5.363250e-02  5.887050e-02 -1.587302e-02
   endloop
 endfacet
 facet normal -2.732665e-01  9.619384e-01  0.000000e+00
   outer loop
     vertex -7.426474e-02  5.300931e-02 -1.587302e-02
     vertex -7.426474e-02  5.300931e-02  9.841270e-01
     vertex -5.363250e-02  5.887050e-02  9.841270e-01
   endloop
 endfacet
 facet normal -4.451233e-01  8.954693e-01  0.000000e+00
   outer loop
     vertex -9.347132e-02  4.346203e-02 -1.587302e-02
     vertex -7.426474e-02  5.300931e-02  9.841270e-01
     vertex -7.426474e-02  5.300931e-02 -1.587302e-02
   endloop
 endfacet
 facet normal -4.451233e-01  8.954693e-01  0.000000e+00
   outer loop
     vertex -9.347132e-02  4.346203e-02 -1.587302e-02
     vertex -9.347132e-02  4.346203e-02  9.841270e-01
     vertex -7.426474e-02  5.300931e-02  9.841270e-01
   endloop
 endfacet
 facet normal -6.018669e-01  7.985964e-01  0.000000e+00
   outer loop
     vertex -1.106001e-01  3.055282e-02 -1.587302e-02
     vertex -9.347132e-02  4.346203e-02  9.841270e-01
     vertex -9.347132e-02  4.346203e-02 -1.587302e-02
   endloop
 endfacet
 facet normal -6.018669e-01  7.985964e-01  0.000000e+00
   outer loop
     vertex -1.106001e-01  3.055282e-02 -1.587302e-02
     vertex -1.106001e-01  3.055282e-02  9.841270e-01
     vertex -9.347132e-02  4.346203e-02  9.841270e-01
   endloop
 endfacet
 facet normal -7.381753e-01  6.746089e-01  0.000000e+00
   outer loop
     vertex -1.250695e-01  1.471998e-02 -1.587302e-02
     vertex -1.250695e-01  1.471998e-02  9.841270e-01
     vertex -1.106001e-01  3.055282e-02  9.841270e-01
   endloop
 endfacet
 facet normal -7.381753e-01  6.746089e-01  0.000000e+00
   outer loop
     vertex -1.250695e-01  1.471998e-02 -1.587302e-02
     vertex -1.106001e-01  3.055282e-02  9.841270e-01
     vertex -1.106001e-01  3.055282e-02 -1.587302e-02
   endloop
 endfacet
 facet normal -8.494206e-01  5.277165e-01  0.000000e+00
   outer loop
     vertex -1.250695e-01  1.471998e-02 -1.587302e-02
     vertex -1.363883e-01 -3.498915e-03  9.841270e-01
     vertex -1.250695e-01  1.471998e-02  9.841270e-01
   endloop
 endfacet
 facet normal -9.318255e-01  3.629066e-01  0.000000e+00
   outer loop
     vertex -1.363883e-01 -3.498915e-03 -1.587302e-02
     vertex -1.441722e-01 -2.348528e-02  9.841270e-01
     vertex -1.363883e-01 -3.498915e-03  9.841270e-01
   endloop
 endfacet
 facet normal -8.494206e-01  5.277165e-01  0.000000e+00
   outer loop
     vertex -1.363883e-01 -3.498915e-03 -1.587302e-02
     vertex -1.363883e-01 -3.498915e-03  9.841270e-01
     vertex -1.250695e-01  1.471998e-02 -1.587302e-02
   endloop
 endfacet
 facet normal -9.318255e-01  3.629066e-01  0.000000e+00
   outer loop
     vertex -1.441722e-01 -2.348528e-02 -1.587302e-02
     vertex -1.441722e-01 -2.348528e-02  9.841270e-01
     vertex -1.363883e-01 -3.498915e-03 -1.587302e-02
   endloop
 endfacet
 facet normal -9.825923e-01  1.857749e-01  0.000000e+00
   outer loop
     vertex -1.481568e-01 -4.456053e-02 -1.587302e-02
     vertex -1.481568e-01 -4.456053e-02  9.841270e-01
     vertex -1.441722e-01 -2.348528e-02  9.841270e-01
   endloop
 endfacet
 facet normal -9.825923e-01  1.857749e-01  0.000000e+00
   outer loop
     vertex -1.481568e-01 -4.456053e-02 -1.587302e-02
     vertex -1.441722e-01 -2.348528e-02  9.841270e-01
     vertex -1.441722e-01 -2.348528e-02 -1.587302e-02
   endloop
 endfacet
 facet normal -9.999973e-01  2.335641e-03  0.000000e+00
   outer loop
     vertex -1.482069e-01 -6.600909e-02 -1.587302e-02
     vertex -1.482069e-01 -6.600909e-02  9.841270e-01
     vertex -1.481568e-01 -4.456053e-02  9.841270e-01
   endloop
 endfacet
 facet normal -9.834494e-01 -1.811829e-01  0.000000e+00
   outer loop
     vertex -1.482069e-01 -6.600909e-02 -1.587302e-02
     vertex -1.443208e-01 -8.710272e-02  9.841270e-01
     vertex -1.482069e-01 -6.600909e-02  9.841270e-01
   endloop
 endfacet
 facet normal -9.999973e-01  2.335641e-03  0.000000e+00
   outer loop
     vertex -1.482069e-01 -6.600909e-02 -1.587302e-02
     vertex -1.481568e-01 -4.456053e-02  9.841270e-01
     vertex -1.481568e-01 -4.456053e-02 -1.587302e-02
   endloop
 endfacet
 facet normal -9.834494e-01 -1.811829e-01  0.000000e+00
   outer loop
     vertex -1.443208e-01 -8.710272e-02 -1.587302e-02
     vertex -1.443208e-01 -8.710272e-02  9.841270e-01
     vertex -1.482069e-01 -6.600909e-02 -1.587302e-02
   endloop
 endfacet
 facet normal -9.335106e-01 -3.585498e-01  0.000000e+00
   outer loop
     vertex -1.366304e-01 -1.071252e-01 -1.587302e-02
     vertex -1.366304e-01 -1.071252e-01  9.841270e-01
     vertex -1.443208e-01 -8.710272e-02  9.841270e-01
   endloop
 endfacet
 facet normal -9.335106e-01 -3.585498e-01  0.000000e+00
   outer loop
     vertex -1.366304e-01 -1.071252e-01 -1.587302e-02
     vertex -1.443208e-01 -8.710272e-02  9.841270e-01
     vertex -1.443208e-01 -8.710272e-02 -1.587302e-02
   endloop
 endfacet
 facet normal -8.518764e-01 -5.237429e-01  0.000000e+00
   outer loop
     vertex -1.253968e-01 -1.253968e-01 -1.587302e-02
     vertex -1.253968e-01 -1.253968e-01  9.841270e-01
     vertex -1.366304e-01 -1.071252e-01  9.841270e-01
   endloop
 endfacet
 facet normal -8.518764e-01 -5.237429e-01  0.000000e+00
   outer loop
     vertex -1.253968e-01 -1.253968e-01 -1.587302e-02
     vertex -1.366304e-01 -1.071252e-01  9.841270e-01
     vertex -1.366304e-01 -1.071252e-01 -1.587302e-02
   endloop
 endfacet
 facet normal  1.445477e-01 -9.894978e-01  0.000000e+00
   outer loop
     vertex -8.834470e-02 -1.199842e-01 -1.587302e-02
     vertex -1.253968e-01 -1.253968e-01  9.841270e-01
     vertex -1.253968e-01 -1.253968e-01 -1.587302e-02
   endloop
 endfacet
 facet normal  1.445477e-01 -9.894978e-01  0.000000e+00
   outer loop
     vertex -8.834470e-02 -1.199842e-01 -1.587302e-02
     vertex -8.834470e-02 -1.199842e-01  9.841270e-01
     vertex -1.253968e-01 -1.253968e-01  9.841270e-01
   endloop
 endfacet
 facet normal  7.246435e-02 -9.973710e-01  0.000000e+00
   outer loop
     vertex -5.099778e-02 -1.172707e-01 -1.587302e-02
     vertex -5.099778e-02 -1.172707e-01  9.841270e-01
     vertex -8.834470e-02 -1.199842e-01  9.841270e-01
   endloop
 endfacet
 facet normal  7.246435e-02 -9.973710e-01  0.000000e+00
   outer loop
     vertex -5.099778e-02 -1.172707e-01 -1.587302e-02
     vertex -8.834470e-02 -1.199842e-01  9.841270e-01
     vertex -8.834470e-02 -1.199842e-01 -1.587302e-02
   endloop
 endfacet
 facet normal  2.964915e-15 -1.000000e+00  0.000000e+00
   outer loop
     vertex -1.355242e-02 -1.172707e-01 -1.587302e-02
     vertex -1.355242e-02 -1.172707e-01  9.841270e-01
     vertex -5.099778e-02 -1.172707e-01  9.841270e-01
   endloop
 endfacet
 facet normal  2.964915e-15 -1.000000e+00  0.000000e+00
   outer loop
     vertex -1.355242e-02 -1.172707e-01 -1.587302e-02
     vertex -5.099778e-02 -1.172707e-01  9.841270e-01
     vertex -5.099778e-02 -1.172707e-01 -1.587302e-02
   endloop
 endfacet
 facet normal -7.246435e-02 -9.973710e-01  0.000000e+00
   outer loop
     vertex  2.379449e-02 -1.199842e-01 -1.587302e-02
     vertex  2.379449e-02 -1.199842e-01  9.841270e-01
     vertex -1.355242e-02 -1.172707e-01  9.841270e-01
   endloop
 endfacet
 facet normal -7.246435e-02 -9.973710e-01  0.000000e+00
   outer loop
     vertex  2.379449e-02 -1.199842e-01 -1.587302e-02
     vertex -1.355242e-02 -1.172707e-01  9.841270e-01
     vertex -1.355242e-02 -1.172707e-01 -1.587302e-02
   endloop
 endfacet
 facet normal -1.445477e-01 -9.894978e-01  0.000000e+00
   outer loop
     vertex  6.084660e-02 -1.253968e-01 -1.587302e-02
     vertex  6.084660e-02 -1.253968e-01  9.841270e-01
     vertex  2.379449e-02 -1.199842e-01  9.841270e-01
   endloop
 endfacet
 facet normal -1.445477e-01 -9.894978e-01  0.000000e+00
   outer loop
     vertex  6.084660e-02 -1.253968e-01 -1.587302e-02
     vertex  2.379449e-02 -1.199842e-01  9.841270e-01
     vertex  2.379449e-02 -1.199842e-01 -1.587302e-02
   endloop
 endfacet
 facet normal  8.518764e-01 -5.237429e-01  0.000000e+00
   outer loop
     vertex  7.208016e-02 -1.071252e-01 -1.587302e-02
     vertex  6.084660e-02 -1.253968e-01 -1.587302e-02
     vertex  6.084660e-02 -1.253968e-01 -1.015873e+00
   endloop
 endfacet
 facet normal  8.518764e-01 -5.237429e-01  0.000000e+00
   outer loop
     vertex  7.208016e-02 -1.071252e-01 -1.587302e-02
     vertex  6.084660e-02 -1.253968e-01 -1.015873e+00
     vertex  7.208016e-02 -1.071252e-01 -1.015873e+00
   endloop
 endfacet
 facet normal  9.335106e-01 -3.585498e-01  0.000000e+00
   outer loop
     vertex  7.977055e-02 -8.710272e-02 -1.587302e-02
     vertex  7.208016e-02 -1.071252e-01 -1.015873e+00
     vertex  7.977055e-02 -8.710272e-02 -1.015873e+00
   endloop
 endfacet
 facet normal  9.335106e-01 -3.585498e-01  0.000000e+00
   outer loop
     vertex  7.977055e-02 -8.710272e-02 -1.587302e-02
     vertex  7.208016e-02 -1.071252e-01 -1.587302e-02
     vertex  7.208016e-02 -1.071252e-01 -1.015873e+00
   endloop
 endfacet
 facet normal  9.834494e-01 -1.811829e-01  0.000000e+00
   outer loop
     vertex  8.365668e-02 -6.600909e-02 -1.587302e-02
     vertex  7.977055e-02 -8.710272e-02 -1.015873e+00
     vertex  8.365668e-02 -6.600909e-02 -1.015873e+00
   endloop
 endfacet
 facet normal  9.834494e-01 -1.811829e-01  0.000000e+00
   outer loop
     vertex  8.365668e-02 -6.600909e-02 -1.587302e-02
     vertex  7.977055e-02 -8.710272e-02 -1.587302e-02
     vertex  7.977055e-02 -8.710272e-02 -1.015873e+00
   endloop
 endfacet
 facet normal  9.999973e-01  2.335641e-03  0.000000e+00
   outer loop
     vertex  8.360658e-02 -4.456053e-02 -1.587302e-02
     vertex  8.365668e-02 -6.600909e-02 -1.015873e+00
     vertex  8.360658e-02 -4.456053e-02 -1.015873e+00
   endloop
 endfacet
 facet normal  9.999973e-01  2.335641e-03  0.000000e+00
   outer loop
     vertex  8.360658e-02 -4.456053e-02 -1.587302e-02
     vertex  8.365668e-02 -6.600909e-02 -1.587302e-02
     vertex  8.365668e-02 -6.600909e-02 -1.015873e+00
   endloop
 endfacet
 facet normal  9.825923e-01  1.857749e-01  0.000000e+00
   outer loop
     vertex  7.962197e-02 -2.348528e-02 -1.587302e-02
     vertex  8.360658e-02 -4.456053e-02 -1.015873e+00
     vertex  7.962197e-02 -2.348528e-02 -1.015873e+00
   endloop
 endfacet
 facet normal  9.318255e-01  3.629066e-01  0.000000e+00
   outer loop
     vertex  7.962197e-02 -2.348528e-02 -1.587302e-02
     vertex  7.962197e-02 -2.348528e-02 -1.015873e+00
     vertex  7.183812e-02 -3.498915e-03 -1.015873e+00
   endloop
 endfacet
 facet normal  9.825923e-01  1.857749e-01  0.000000e+00
   outer loop
     vertex  7.962197e-02 -2.348528e-02 -1.587302e-02
     vertex  8.360658e-02 -4.456053e-02 -1.587302e-02
     vertex  8.360658e-02 -4.456053e-02 -1.015873e+00
   endloop
 endfacet
 facet normal  9.318255e-01  3.629066e-01  0.000000e+00
   outer loop
     vertex  7.183812e-02 -3.498915e-03 -1.587302e-02
     vertex  7.962197e-02 -2.348528e-02 -1.587302e-02
     vertex  7.183812e-02 -3.498915e-03 -1.015873e+00
   endloop
 endfacet
 facet normal  8.494206e-01  5.277165e-01  0.000000e+00
   outer loop
     vertex  6.051933e-02  1.471998e-02 -1.587302e-02
     vertex  7.183812e-02 -3.498915e-03 -1.015873e+00
     vertex  6.051933e-02  1.471998e-02 -1.015873e+00
   endloop
 endfacet
 facet normal  7.381753e-01  6.746089e-01  0.000000e+00
   outer loop
     vertex  6.051933e-02  1.471998e-02 -1.587302e-02
     vertex  6.051933e-02  1.471998e-02 -1.015873e+00
     vertex  4.604990e-02  3.055282e-02 -1.015873e+00
   endloop
 endfacet
 facet normal  8.494206e-01  5.277165e-01  0.000000e+00
   outer loop
     vertex  6.051933e-02  1.471998e-02 -1.587302e-02
     vertex  7.183812e-02 -3.498915e-03 -1.587302e-02
     vertex  7.183812e-02 -3.498915e-03 -1.015873e+00
   endloop
 endfacet
 facet normal  6.018669e-01  7.985964e-01  0.000000e+00
   outer loop
     vertex  4.604990e-02  3.055282e-02 -1.587302e-02
     vertex  4.604990e-02  3.055282e-02 -1.015873e+00
     vertex  2.892112e-02  4.346203e-02 -1.015873e+00
   endloop
 endfacet
 facet normal  7.381753e-01  6.746089e-01  0.000000e+00
   outer loop
     vertex  4.604990e-02  3.055282e-02 -1.587302e-02
     vertex  6.051933e-02  1.471998e-02 -1.587302e-02
     vertex  4.604990e-02  3.055282e-02 -1.015873e+00
   endloop
 endfacet
 facet normal  4.451233e-01  8.954693e-01  0.000000e+00
   outer loop
     vertex  2.892112e-02  4.346203e-02 -1.587302e-02
     vertex  2.892112e-02  4.346203e-02 -1.015873e+00
     vertex  9.714538e-03  5.300931e-02 -1.015873e+00
   endloop
 endfacet
 facet normal  6.018669e-01  7.985964e-01  0.000000e+00
   outer loop
     vertex  2.892112e-02  4.346203e-02 -1.587302e-02
     vertex  4.604990e-02  3.055282e-02 -1.587302e-02
     vertex  2.892112e-02  4.346203e-02 -1.015873e+00
   endloop
 endfacet
 facet normal  4.451233e-01  8.954693e-01  0.000000e+00
   outer loop
     vertex  9.714538e-03  5.300931e-02 -1.587302e-02
     vertex  2.892112e-02  4.346203e-02 -1.587302e-02
     vertex  9.714538e-03  5.300931e-02 -1.015873e+00
   endloop
 endfacet
 facet normal  2.732665e-01  9.619384e-01  0.000000e+00
   outer loop
     vertex -1.091771e-02  5.887050e-02 -1.587302e-02
     vertex  9.714538e-03  5.300931e-02 -1.015873e+00
     vertex -1.091771e-02  5.887050e-02 -1.015873e+00
   endloop
 endfacet
 facet normal  9.213155e-02  9.957468e-01  0.000000e+00
   outer loop
     vertex -1.091771e-02  5.887050e-02 -1.587302e-02
     vertex -1.091771e-02  5.887050e-02 -1.015873e+00
     vertex -3.227510e-02  6.084660e-02 -1.015873e+00
   endloop
 endfacet
 facet normal  2.732665e-01  9.619384e-01  0.000000e+00
   outer loop
     vertex -1.091771e-02  5.887050e-02 -1.587302e-02
     vertex  9.714538e-03  5.300931e-02 -1.587302e-02
     vertex  9.714538e-03  5.300931e-02 -1.015873e+00
   endloop
 endfacet
 facet normal  9.213155e-02  9.957468e-01  0.000000e+00
   outer loop
     vertex -3.227510e-02  6.084660e-02 -1.587302e-02
     vertex -1.091771e-02  5.887050e-02 -1.587302e-02
     vertex -3.227510e-02  6.084660e-02 -1.015873e+00
   endloop
 endfacet
 facet normal -9.213155e-02  9.957468e-01  0.000000e+00
   outer loop
     vertex -5.363250e-02  5.887050e-02 -1.587302e-02
     vertex -3.227510e-02  6.084660e-02 -1.587302e-02
     vertex -3.227510e-02  6.084660e-02 -1.015873e+00
   endloop
 endfacet
 facet normal -9.213155e-02  9.957468e-01  0.000000e+00
   outer loop
     vertex -5.363250e-02  5.887050e-02 -1.587302e-02
     vertex -3.227510e-02  6.084660e-02 -1.015873e+00
     vertex -5.363250e-02  5.887050e-02 -1.015873e+00
   endloop
 endfacet
 facet normal -2.732665e-01  9.619384e-01  0.000000e+00
   outer loop
     vertex -7.426474e-02  5.300931e-02 -1.587302e-02
     vertex -5.363250e-02  5.887050e-02 -1.587302e-02
     vertex -5.363250e-02  5.887050e-02 -1.015873e+00
   endloop
 endfacet
 facet normal -2.732665e-01  9.619384e-01  0.000000e+00
   outer loop
     vertex -7.426474e-02  5.300931e-02 -1.587302e-02
     vertex -5.363250e-02  5.887050e-02 -1.015873e+00
     vertex -7.426474e-02  5.300931e-02 -1.015873e+00
   endloop
 endfacet
 facet normal -4.451233e-01  8.954693e-01  0.000000e+00
   outer loop
     vertex -9.347132e-02  4.346203e-02 -1.587302e-02
     vertex -7.426474e-02  5.300931e-02 -1.587302e-02
     vertex -7.426474e-02  5.300931e-02 -1.015873e+00
   endloop
 endfacet
 facet normal -4.451233e-01  8.954693e-01  0.000000e+00
   outer loop
     vertex -9.347132e-02  4.346203e-02 -1.587302e-02
     vertex -7.426474e-02  5.300931e-02 -1.015873e+00
     vertex -9.347132e-02  4.346203e-02 -1.015873e+00
   endloop
 endfacet
 facet normal -6.018669e-01  7.985964e-01  0.000000e+00
   outer loop
     vertex -1.106001e-01  3.055282e-02 -1.587302e-02
     vertex -9.347132e-02  4.346203e-02 -1.015873e+00
     vertex -1.106001e-01  3.055282e-02 -1.015873e+00
   endloop
 endfacet
 facet normal -7.381753e-01  6.746089e-01  0.000000e+00
   outer loop
     vertex -1.106001e-01  3.055282e-02 -1.587302e-02
     vertex -1.106001e-01  3.055282e-02 -1.015873e+00
     vertex -1.250695e-01  1.471998e-02 -1.015873e+00
   endloop
 endfacet
 facet normal -6.018669e-01  7.985964e-01  0.000000e+00
   outer loop
     vertex -1.106001e-01  3.055282e-02 -1.587302e-02
     vertex -9.347132e-02  4.346203e-02 -1.587302e-02
     vertex -9.347132e-02  4.346203e-02 -1.015873e+00
   endloop
 endfacet
 facet normal -7.381753e-01  6.746089e-01  0.000000e+00
   outer loop
     vertex -1.250695e-01  1.471998e-02 -1.587302e-02
     vertex -1.106001e-01  3.055282e-02 -1.587302e-02
     vertex -1.250695e-01  1.471998e-02 -1.015873e+00
   endloop
 endfacet
 facet normal -8.494206e-01  5.277165e-01  0.000000e+00
   outer loop
     vertex -1.363883e-01 -3.498915e-03 -1.587302e-02
     vertex -1.250695e-01  1.471998e-02 -1.015873e+00
     vertex -1.363883e-01 -3.498915e-03 -1.015873e+00
   endloop
 endfacet
 facet normal -9.318255e-01  3.629066e-01  0.000000e+00
   outer loop
     vertex -1.363883e-01 -3.498915e-03 -1.587302e-02
     vertex -1.363883e-01 -3.498915e-03 -1.015873e+00
     vertex -1.441722e-01 -2.348528e-02 -1.015873e+00
   endloop
 endfacet
 facet normal -8.494206e-01  5.277165e-01  0.000000e+00
   outer loop
     vertex -1.363883e-01 -3.498915e-03 -1.587302e-02
     vertex -1.250695e-01  1.471998e-02 -1.587302e-02
     vertex -1.250695e-01  1.471998e-02 -1.015873e+00
   endloop
 endfacet
 facet normal -9.825923e-01  1.857749e-01  0.000000e+00
   outer loop
     vertex -1.441722e-01 -2.348528e-02 -1.587302e-02
     vertex -1.441722e-01 -2.348528e-02 -1.015873e+00
     vertex -1.481568e-01 -4.456053e-02 -1.015873e+00
   endloop
 endfacet
 facet normal -9.318255e-01  3.629066e-01  0.000000e+00
   outer loop
     vertex -1.441722e-01 -2.348528e-02 -1.587302e-02
     vertex -1.363883e-01 -3.498915e-03 -1.587302e-02
     vertex -1.441722e-01 -2.348528e-02 -1.015873e+00
   endloop
 endfacet
 facet normal -9.825923e-01  1.857749e-01  0.000000e+00
   outer loop
     vertex -1.481568e-01 -4.456053e-02 -1.587302e-02
     vertex -1.441722e-01 -2.348528e-02 -1.587302e-02
     vertex -1.481568e-01 -4.456053e-02 -1.015873e+00
   endloop
 endfacet
 facet normal -9.999973e-01  2.335641e-03  0.000000e+00
   outer loop
     vertex -1.482069e-01 -6.600909e-02 -1.587302e-02
     vertex -1.481568e-01 -4.456053e-02 -1.015873e+00
     vertex -1.482069e-01 -6.600909e-02 -1.015873e+00
   endloop
 endfacet
 facet normal -9.834494e-01 -1.811829e-01 -0.000000e+00
   outer loop
     vertex -1.482069e-01 -6.600909e-02 -1.587302e-02
     vertex -1.482069e-01 -6.600909e-02 -1.015873e+00
     vertex -1.443208e-01 -8.710272e-02 -1.015873e+00
   endloop
 endfacet
 facet normal -9.999973e-01  2.335641e-03  0.000000e+00
   outer loop
     vertex -1.482069e-01 -6.600909e-02 -1.587302e-02
     vertex -1.481568e-01 -4.456053e-02 -1.587302e-02
     vertex -1.481568e-01 -4.456053e-02 -1.015873e+00
   endloop
 endfacet
 facet normal -9.834494e-01 -1.811829e-01 -0.000000e+00
   outer loop
     vertex -1.443208e-01 -8.710272e-02 -1.587302e-02
     vertex -1.482069e-01 -6.600909e-02 -1.587302e-02
     vertex -1.443208e-01 -8.710272e-02 -1.015873e+00
   endloop
 endfacet
 facet normal -9.335106e-01 -3.585498e-01 -0.000000e+00
   outer loop
     vertex -1.366304e-01 -1.071252e-01 -1.587302e-02
     vertex -1.443208e-01 -8.710272e-02 -1.015873e+00
     vertex -1.366304e-01 -1.071252e-01 -1.015873e+00
   endloop
 endfacet
 facet normal -9.335106e-01 -3.585498e-01  0.000000e+00
   outer loop
     vertex -1.366304e-01 -1.071252e-01 -1.587302e-02
     vertex -1.443208e-01 -8.710272e-02 -1.587302e-02
     vertex -1.443208e-01 -8.710272e-02 -1.015873e+00
   endloop
 endfacet
 facet normal -8.518764e-01 -5.237429e-01 -0.000000e+00
   outer loop
     vertex -1.253968e-01 -1.253968e-01 -1.587302e-02
     vertex -1.366304e-01 -1.071252e-01 -1.015873e+00
     vertex -1.253968e-01 -1.253968e-01 -1.015873e+00
   endloop
 endfacet
 facet normal -8.518764e-01 -5.237429e-01  0.000000e+00
   outer loop
     vertex -1.253968e-01 -1.253968e-01 -1.587302e-02
     vertex -1.366304e-01 -1.071252e-01 -1.587302e-02
     vertex -1.366304e-01 -1.071252e-01 -1.015873e+00
   endloop
 endfacet
 facet normal  0.000000e+00  0.000000e+00  1.000000e+00
   outer loop
     vertex -8.834470e-02 -1.199842e-01  9.841270e-01
     vertex -1.443208e-01 -8.710272e-02  9.841270e-01
     vertex -1.366304e-01 -1.071252e-01  9.841270e-01
   endloop
 endfacet
 facet normal  0.000000e+00  0.000000e+00  1.000000e+00
   outer loop
     vertex -8.834470e-02 -1.199842e-01  9.841270e-01
     vertex -1.366304e-01 -1.071252e-01  9.841270e-01
     vertex -1.253968e-01 -1.253968e-01  9.841270e-01
   endloop
 endfacet
 facet normal  0.000000e+00  0.000000e+00  1.000000e+00
   outer loop
     vertex -4.670214e-02 -5.317628e-02  9.841270e-01
     vertex -8.834470e-02 -1.199842e-01  9.841270e-01
     vertex -5.099778e-02 -1.172707e-01  9.841270e-01
   endloop
 endfacet
 facet normal  0.000000e+00  0.000000e+00  1.000000e+00
   outer loop
     vertex -4.670214e-02 -5.317628e-02  9.841270e-01
     vertex -5.128490e-02 -4.911631e-02  9.841270e-01
     vertex -8.834470e-02 -1.199842e-01  9.841270e-01
   endloop
 endfacet
 facet normal  0.000000e+00  0.000000e+00  1.000000e+00
   outer loop
     vertex -5.476287e-02 -4.407760e-02  9.841270e-01
     vertex -1.482069e-01 -6.600909e-02  9.841270e-01
     vertex -1.443208e-01 -8.710272e-02  9.841270e-01
   endloop
 endfacet
 facet normal  0.000000e+00  0.000000e+00  1.000000e+00
   outer loop
     vertex -5.476287e-02 -4.407760e-02  9.841270e-01
     vertex -8.834470e-02 -1.199842e-01  9.841270e-01
     vertex -5.128490e-02 -4.911631e-02  9.841270e-01
   endloop
 endfacet
 facet normal  0.000000e+00  0.000000e+00  1.000000e+00
   outer loop
     vertex -5.476287e-02 -4.407760e-02  9.841270e-01
     vertex -1.443208e-01 -8.710272e-02  9.841270e-01
     vertex -8.834470e-02 -1.199842e-01  9.841270e-01
   endloop
 endfacet
 facet normal  0.000000e+00  0.000000e+00  1.000000e+00
   outer loop
     vertex -4.128094e-02 -5.602155e-02  9.841270e-01
     vertex -4.670214e-02 -5.317628e-02  9.841270e-01
     vertex -5.099778e-02 -1.172707e-01  9.841270e-01
   endloop
 endfacet
 facet normal  0.000000e+00  0.000000e+00  1.000000e+00
   outer loop
     vertex -5.693394e-02 -3.835296e-02  9.841270e-01
     vertex -1.441722e-01 -2.348528e-02  9.841270e-01
     vertex -1.481568e-01 -4.456053e-02  9.841270e-01
   endloop
 endfacet
 facet normal  0.000000e+00  0.000000e+00  1.000000e+00
   outer loop
     vertex -5.693394e-02 -3.835296e-02  9.841270e-01
     vertex -1.481568e-01 -4.456053e-02  9.841270e-01
     vertex -1.482069e-01 -6.600909e-02  9.841270e-01
   endloop
 endfacet
 facet normal  0.000000e+00  0.000000e+00  1.000000e+00
   outer loop
     vertex -5.693394e-02 -3.835296e-02  9.841270e-01
     vertex -1.482069e-01 -6.600909e-02  9.841270e-01
     vertex -5.476287e-02 -4.407760e-02  9.841270e-01
   endloop
 endfacet
 facet normal  0.000000e+00  0.000000e+00  1.000000e+00
   outer loop
     vertex -3.533635e-02 -5.748676e-02  9.841270e-01
     vertex -5.099778e-02 -1.172707e-01  9.841270e-01
     vertex -1.355242e-02 -1.172707e-01  9.841270e-01
   endloop
 endfacet
 facet normal  0.000000e+00  0.000000e+00  1.000000e+00
   outer loop
     vertex -3.533635e-02 -5.748676e-02  9.841270e-01
     vertex -4.128094e-02 -5.602155e-02  9.841270e-01
     vertex -5.099778e-02 -1.172707e-01  9.841270e-01
   endloop
 endfacet
 facet normal  0.000000e+00  0.000000e+00  1.000000e+00
   outer loop
     vertex -5.767193e-02 -3.227510e-02  9.841270e-01
     vertex -1.363883e-01 -3.498915e-03  9.841270e-01
     vertex -1.441722e-01 -2.348528e-02  9.841270e-01
   endloop
 endfacet
 facet normal  0.000000e+00  0.000000e+00  1.000000e+00
   outer loop
     vertex -5.767193e-02 -3.227510e-02  9.841270e-01
     vertex -1.441722e-01 -2.348528e-02  9.841270e-01
     vertex -5.693394e-02 -3.835296e-02  9.841270e-01
   endloop
 endfacet
 facet normal  0.000000e+00  0.000000e+00  1.000000e+00
   outer loop
     vertex -2.921385e-02 -5.748676e-02  9.841270e-01
     vertex -3.533635e-02 -5.748676e-02  9.841270e-01
     vertex -1.355242e-02 -1.172707e-01  9.841270e-01
   endloop
 endfacet
 facet normal  0.000000e+00  0.000000e+00  1.000000e+00
   outer loop
     vertex -5.693394e-02 -2.619724e-02  9.841270e-01
     vertex -1.250695e-01  1.471998e-02  9.841270e-01
     vertex -1.363883e-01 -3.498915e-03  9.841270e-01
   endloop
 endfacet
 facet normal  0.000000e+00  0.000000e+00  1.000000e+00
   outer loop
     vertex -5.693394e-02 -2.619724e-02  9.841270e-01
     vertex -1.363883e-01 -3.498915e-03  9.841270e-01
     vertex -5.767193e-02 -3.227510e-02  9.841270e-01
   endloop
 endfacet
 facet normal  0.000000e+00  0.000000e+00  1.000000e+00
   outer loop
     vertex -2.326926e-02 -5.602155e-02  9.841270e-01
     vertex -2.921385e-02 -5.748676e-02  9.841270e-01
     vertex -1.355242e-02 -1.172707e-01  9.841270e-01
   endloop
 endfacet
 facet normal  0.000000e+00  0.000000e+00  1.000000e+00
   outer loop
     vertex -5.476287e-02 -2.047261e-02  9.841270e-01
     vertex -1.106001e-01  3.055282e-02  9.841270e-01
     vertex -1.250695e-01  1.471998e-02  9.841270e-01
   endloop
 endfacet
 facet normal  0.000000e+00  0.000000e+00  1.000000e+00
   outer loop
     vertex -5.476287e-02 -2.047261e-02  9.841270e-01
     vertex -1.250695e-01  1.471998e-02  9.841270e-01
     vertex -5.693394e-02 -2.619724e-02  9.841270e-01
   endloop
 endfacet
 facet normal  0.000000e+00  0.000000e+00  1.000000e+00
   outer loop
     vertex -1.784806e-02 -5.317628e-02  9.841270e-01
     vertex -1.355242e-02 -1.172707e-01  9.841270e-01
     vertex  2.379449e-02 -1.199842e-01  9.841270e-01
   endloop
 endfacet
 facet normal  0.000000e+00  0.000000e+00  1.000000e+00
   outer loop
     vertex -1.784806e-02 -5.317628e-02  9.841270e-01
     vertex -2.326926e-02 -5.602155e-02  9.841270e-01
     vertex -1.355242e-02 -1.172707e-01  9.841270e-01
   endloop
 endfacet
 facet normal  0.000000e+00  0.000000e+00  1.000000e+00
   outer loop
     vertex -5.128490e-02 -1.543389e-02  9.841270e-01
     vertex -1.106001e-01  3.055282e-02  9.841270e-01
     vertex -5.476287e-02 -2.047261e-02  9.841270e-01
   endloop
 endfacet
 facet normal  0.000000e+00  0.000000e+00  1.000000e+00
   outer loop
     vertex -1.326530e-02 -4.911631e-02  9.841270e-01
     vertex -1.784806e-02 -5.317628e-02  9.841270e-01
     vertex  2.379449e-02 -1.199842e-01  9.841270e-01
   endloop
 endfacet
 facet normal  0.000000e+00  0.000000e+00  1.000000e+00
   outer loop
     vertex -9.787326e-03 -4.407760e-02  9.841270e-01
     vertex -1.326530e-02 -4.911631e-02  9.841270e-01
     vertex  2.379449e-02 -1.199842e-01  9.841270e-01
   endloop
 endfacet
 facet normal  0.000000e+00  0.000000e+00  1.000000e+00
   outer loop
     vertex -9.347132e-02  4.346203e-02  9.841270e-01
     vertex -1.106001e-01  3.055282e-02  9.841270e-01
     vertex -5.128490e-02 -1.543389e-02  9.841270e-01
   endloop
 endfacet
 facet normal  0.000000e+00  0.000000e+00  1.000000e+00
   outer loop
     vertex -9.347132e-02  4.346203e-02  9.841270e-01
     vertex -5.128490e-02 -1.543389e-02  9.841270e-01
     vertex -4.670214e-02 -1.137392e-02  9.841270e-01
   endloop
 endfacet
 facet normal  0.000000e+00  0.000000e+00  1.000000e+00
   outer loop
     vertex  7.208016e-02 -1.071252e-01  9.841270e-01
     vertex  2.379449e-02 -1.199842e-01  9.841270e-01
     vertex  6.084660e-02 -1.253968e-01  9.841270e-01
   endloop
 endfacet
 facet normal  0.000000e+00  0.000000e+00  1.000000e+00
   outer loop
     vertex -7.426474e-02  5.300931e-02  9.841270e-01
     vertex -9.347132e-02  4.346203e-02  9.841270e-01
     vertex -4.670214e-02 -1.137392e-02  9.841270e-01
   endloop
 endfacet
 facet normal  0.000000e+00  0.000000e+00  1.000000e+00
   outer loop
     vertex -7.426474e-02  5.300931e-02  9.841270e-01
     vertex -4.670214e-02 -1.137392e-02  9.841270e-01
     vertex -4.128094e-02 -8.528654e-03  9.841270e-01
   endloop
 endfacet
 facet normal  0.000000e+00  0.000000e+00  1.000000e+00
   outer loop
     vertex  7.977055e-02 -8.710272e-02  9.841270e-01
     vertex -9.787326e-03 -4.407760e-02  9.841270e-01
     vertex  2.379449e-02 -1.199842e-01  9.841270e-01
   endloop
 endfacet
 facet normal  0.000000e+00  0.000000e+00  1.000000e+00
   outer loop
     vertex  7.977055e-02 -8.710272e-02  9.841270e-01
     vertex  2.379449e-02 -1.199842e-01  9.841270e-01
     vertex  7.208016e-02 -1.071252e-01  9.841270e-01
   endloop
 endfacet
 facet normal  0.000000e+00  0.000000e+00  1.000000e+00
   outer loop
     vertex -5.363250e-02  5.887050e-02  9.841270e-01
     vertex -4.128094e-02 -8.528654e-03  9.841270e-01
     vertex -3.533635e-02 -7.063444e-03  9.841270e-01
   endloop
 endfacet
 facet normal  0.000000e+00  0.000000e+00  1.000000e+00
   outer loop
     vertex -5.363250e-02  5.887050e-02  9.841270e-01
     vertex -7.426474e-02  5.300931e-02  9.841270e-01
     vertex -4.128094e-02 -8.528654e-03  9.841270e-01
   endloop
 endfacet
 facet normal  0.000000e+00  0.000000e+00  1.000000e+00
   outer loop
     vertex  8.365668e-02 -6.600909e-02  9.841270e-01
     vertex -9.787326e-03 -4.407760e-02  9.841270e-01
     vertex  7.977055e-02 -8.710272e-02  9.841270e-01
   endloop
 endfacet
 facet normal  0.000000e+00  0.000000e+00  1.000000e+00
   outer loop
     vertex  8.365668e-02 -6.600909e-02  9.841270e-01
     vertex -7.616258e-03 -3.835296e-02  9.841270e-01
     vertex -9.787326e-03 -4.407760e-02  9.841270e-01
   endloop
 endfacet
 facet normal  0.000000e+00  0.000000e+00  1.000000e+00
   outer loop
     vertex -3.227510e-02  6.084660e-02  9.841270e-01
     vertex -3.533635e-02 -7.063444e-03  9.841270e-01
     vertex -2.921385e-02 -7.063444e-03  9.841270e-01
   endloop
 endfacet
 facet normal  0.000000e+00  0.000000e+00  1.000000e+00
   outer loop
     vertex -3.227510e-02  6.084660e-02  9.841270e-01
     vertex -5.363250e-02  5.887050e-02  9.841270e-01
     vertex -3.533635e-02 -7.063444e-03  9.841270e-01
   endloop
 endfacet
 facet normal  0.000000e+00  0.000000e+00  1.000000e+00
   outer loop
     vertex  8.360658e-02 -4.456053e-02  9.841270e-01
     vertex -7.616258e-03 -3.835296e-02  9.841270e-01
     vertex  8.365668e-02 -6.600909e-02  9.841270e-01
   endloop
 endfacet
 facet normal  0.000000e+00  0.000000e+00  1.000000e+00
   outer loop
     vertex -1.091771e-02  5.887050e-02  9.841270e-01
     vertex -2.921385e-02 -7.063444e-03  9.841270e-01
     vertex -2.326926e-02 -8.528654e-03  9.841270e-01
   endloop
 endfacet
 facet normal  0.000000e+00  0.000000e+00  1.000000e+00
   outer loop
     vertex -1.091771e-02  5.887050e-02  9.841270e-01
     vertex -3.227510e-02  6.084660e-02  9.841270e-01
     vertex -2.921385e-02 -7.063444e-03  9.841270e-01
   endloop
 endfacet
 facet normal  0.000000e+00  0.000000e+00  1.000000e+00
   outer loop
     vertex  7.962197e-02 -2.348528e-02  9.841270e-01
     vertex -7.616258e-03 -3.835296e-02  9.841270e-01
     vertex  8.360658e-02 -4.456053e-02  9.841270e-01
   endloop
 endfacet
 facet normal  0.000000e+00  0.000000e+00  1.000000e+00
   outer loop
     vertex  7.962197e-02 -2.348528e-02  9.841270e-01
     vertex -6.878273e-03 -3.227510e-02  9.841270e-01
     vertex -7.616258e-03 -3.835296e-02  9.841270e-01
   endloop
 endfacet
 facet normal  0.000000e+00  0.000000e+00  1.000000e+00
   outer loop
     vertex  9.714538e-03  5.300931e-02  9.841270e-01
     vertex -2.326926e-02 -8.528654e-03  9.841270e-01
     vertex -1.784806e-02 -1.137392e-02  9.841270e-01
   endloop
 endfacet
 facet normal  0.000000e+00  0.000000e+00  1.000000e+00
   outer loop
     vertex  9.714538e-03  5.300931e-02  9.841270e-01
     vertex -1.091771e-02  5.887050e-02  9.841270e-01
     vertex -2.326926e-02 -8.528654e-03  9.841270e-01
   endloop
 endfacet
 facet normal  0.000000e+00  0.000000e+00  1.000000e+00
   outer loop
     vertex  7.183812e-02 -3.498915e-03  9.841270e-01
     vertex -7.616258e-03 -2.619724e-02  9.841270e-01
     vertex -6.878273e-03 -3.227510e-02  9.841270e-01
   endloop
 endfacet
 facet normal  0.000000e+00  0.000000e+00  1.000000e+00
   outer loop
     vertex  7.183812e-02 -3.498915e-03  9.841270e-01
     vertex -6.878273e-03 -3.227510e-02  9.841270e-01
     vertex  7.962197e-02 -2.348528e-02  9.841270e-01
   endloop
 endfacet
 facet normal  0.000000e+00  0.000000e+00  1.000000e+00
   outer loop
     vertex  2.892112e-02  4.346203e-02  9.841270e-01
     vertex -1.784806e-02 -1.137392e-02  9.841270e-01
     vertex -1.326530e-02 -1.543389e-02  9.841270e-01
   endloop
 endfacet
 facet normal  0.000000e+00  0.000000e+00  1.000000e+00
   outer loop
     vertex  2.892112e-02  4.346203e-02  9.841270e-01
     vertex  9.714538e-03  5.300931e-02  9.841270e-01
     vertex -1.784806e-02 -1.137392e-02  9.841270e-01
   endloop
 endfacet
 facet normal  0.000000e+00  0.000000e+00  1.000000e+00
   outer loop
     vertex  6.051933e-02  1.471998e-02  9.841270e-01
     vertex -9.787326e-03 -2.047261e-02  9.841270e-01
     vertex -7.616258e-03 -2.619724e-02  9.841270e-01
   endloop
 endfacet
 facet normal  0.000000e+00  0.000000e+00  1.000000e+00
   outer loop
     vertex  6.051933e-02  1.471998e-02  9.841270e-01
     vertex -7.616258e-03 -2.619724e-02  9.841270e-01
     vertex  7.183812e-02 -3.498915e-03  9.841270e-01
   endloop
 endfacet
 facet normal  0.000000e+00  0.000000e+00  1.000000e+00
   outer loop
     vertex  4.604990e-02  3.055282e-02  9.841270e-01
     vertex -1.326530e-02 -1.543389e-02  9.841270e-01
     vertex -9.787326e-03 -2.047261e-02  9.841270e-01
   endloop
 endfacet
 facet normal  0.000000e+00  0.000000e+00  1.000000e+00
   outer loop
     vertex  4.604990e-02  3.055282e-02  9.841270e-01
     vertex -9.787326e-03 -2.047261e-02  9.841270e-01
     vertex  6.051933e-02  1.471998e-02  9.841270e-01
   endloop
 endfacet
 facet normal  0.000000e+00  0.000000e+00  1.000000e+00
   outer loop
     vertex  4.604990e-02  3.055282e-02  9.841270e-01
     vertex  2.892112e-02  4.346203e-02  9.841270e-01
     vertex -1.326530e-02 -1.543389e-02  9.841270e-01
   endloop
 endfacet
 facet normal  1.445477e-01 -9.894978e-01  0.000000e+00
   outer loop
     vertex -8.834470e-02 -1.199842e-01 -1.587302e-02
     vertex -1.253968e-01 -1.253968e-01 -1.587302e-02
     vertex -1.253968e-01 -1.253968e-01 -1.015873e+00
   endloop
 endfacet
 facet normal  1.445477e-01 -9.894978e-01  0.000000e+00
   outer loop
     vertex -8.834470e-02 -1.199842e-01 -1.587302e-02
     vertex -1.253968e-01 -1.253968e-01 -1.015873e+00
     vertex -8.834470e-02 -1.199842e-01 -1.015873e+00
   endloop
 endfacet
 facet normal  7.246435e-02 -9.973710e-01  0.000000e+00
   outer loop
     vertex -5.099778e-02 -1.172707e-01 -1.587302e-02
     vertex -8.834470e-02 -1.199842e-01 -1.015873e+00
     vertex -5.099778e-02 -1.172707e-01 -1.015873e+00
   endloop
 endfacet
 facet normal  7.246435e-02 -9.973710e-01  0.000000e+00
   outer loop
     vertex -5.099778e-02 -1.172707e-01 -1.587302e-02
     vertex -8.834470e-02 -1.199842e-01 -1.587302e-02
     vertex -8.834470e-02 -1.199842e-01 -1.015873e+00
   endloop
 endfacet
 facet normal  2.964915e-15 -1.000000e+00  0.000000e+00
   outer loop
     vertex -1.355242e-02 -1.172707e-01 -1.587302e-02
     vertex -5.099778e-02 -1.172707e-01 -1.015873e+00
     vertex -1.355242e-02 -1.172707e-01 -1.015873e+00
   endloop
 endfacet
 facet normal  2.964915e-15 -1.000000e+00  0.000000e+00
   outer loop
     vertex -1.355242e-02 -1.172707e-01 -1.587302e-02
     vertex -5.099778e-02 -1.172707e-01 -1.587302e-02
     vertex -5.099778e-02 -1.172707e-01 -1.015873e+00
   endloop
 endfacet
 facet normal -7.246435e-02 -9.973710e-01 -0.000000e+00
   outer loop
     vertex  2.379449e-02 -1.199842e-01 -1.587302e-02
     vertex -1.355242e-02 -1.172707e-01 -1.015873e+00
     vertex  2.379449e-02 -1.199842e-01 -1.015873e+00
   endloop
 endfacet
 facet normal -7.246435e-02 -9.973710e-01  0.000000e+00
   outer loop
     vertex  2.379449e-02 -1.199842e-01 -1.587302e-02
     vertex -1.355242e-02 -1.172707e-01 -1.587302e-02
     vertex -1.355242e-02 -1.172707e-01 -1.015873e+00
   endloop
 endfacet
 facet normal -1.445477e-01 -9.894978e-01 -0.000000e+00
   outer loop
     vertex  6.084660e-02 -1.253968e-01 -1.587302e-02
     vertex  2.379449e-02 -1.199842e-01 -1.015873e+00
     vertex  6.084660e-02 -1.253968e-01 -1.015873e+00
   endloop
 endfacet
 facet normal -1.445477e-01 -9.894978e-01  0.000000e+00
   outer loop
     vertex  6.084660e-02 -1.253968e-01 -1.587302e-02
     vertex  2.379449e-02 -1.199842e-01 -1.587302e-02
     vertex  2.379449e-02 -1.199842e-01 -1.015873e+00
   endloop
 endfacet
 facet normal  0.000000e+00  0.000000e+00 -1.000000e+00
   outer loop
     vertex -8.834470e-02 -1.199842e-01 -1.015873e+00
     vertex -1.366304e-01 -1.071252e-01 -1.015873e+00
     vertex -1.443208e-01 -8.710272e-02 -1.015873e+00
   endloop
 endfacet
 facet normal -0.000000e+00  0.000000e+00 -1.000000e+00
   outer loop
     vertex -8.834470e-02 -1.199842e-01 -1.015873e+00
     vertex -1.253968e-01 -1.253968e-01 -1.015873e+00
     vertex -1.366304e-01 -1.071252e-01 -1.015873e+00
   endloop
 endfacet
 facet normal  0.000000e+00  0.000000e+00 -1.000000e+00
   outer loop
     vertex -4.670214e-02 -5.317628e-02 -1.015873e+00
     vertex -5.099778e-02 -1.172707e-01 -1.015873e+00
     vertex -8.834470e-02 -1.199842e-01 -1.015873e+00
   endloop
 endfacet
 facet normal -0.000000e+00  0.000000e+00 -1.000000e+00
   outer loop
     vertex -4.670214e-02 -5.317628e-02 -1.015873e+00
     vertex -8.834470e-02 -1.199842e-01 -1.015873e+00
     vertex -5.128490e-02 -4.911631e-02 -1.015873e+00
   endloop
 endfacet
 facet normal  0.000000e+00  0.000000e+00 -1.000000e+00
   outer loop
     vertex -5.476287e-02 -4.407760e-02 -1.015873e+00
     vertex -1.443208e-01 -8.710272e-02 -1.015873e+00
     vertex -1.482069e-01 -6.600909e-02 -1.015873e+00
   endloop
 endfacet
 facet normal  0.000000e+00 -0.000000e+00 -1.000000e+00
   outer loop
     vertex -5.476287e-02 -4.407760e-02 -1.015873e+00
     vertex -5.128490e-02 -4.911631e-02 -1.015873e+00
     vertex -8.834470e-02 -1.199842e-01 -1.015873e+00
   endloop
 endfacet
 facet normal  0.000000e+00  0.000000e+00 -1.000000e+00
   outer loop
     vertex -5.476287e-02 -4.407760e-02 -1.015873e+00
     vertex -8.834470e-02 -1.199842e-01 -1.015873e+00
     vertex -1.443208e-01 -8.710272e-02 -1.015873e+00
   endloop
 endfacet
 facet normal -0.000000e+00  0.000000e+00 -1.000000e+00
   outer loop
     vertex -4.128094e-02 -5.602155e-02 -1.015873e+00
     vertex -5.099778e-02 -1.172707e-01 -1.015873e+00
     vertex -4.670214e-02 -5.317628e-02 -1.015873e+00
   endloop
 endfacet
 facet normal -0.000000e+00  0.000000e+00 -1.000000e+00
   outer loop
     vertex -5.693394e-02 -3.835296e-02 -1.015873e+00
     vertex -1.481568e-01 -4.456053e-02 -1.015873e+00
     vertex -1.441722e-01 -2.348528e-02 -1.015873e+00
   endloop
 endfacet
 facet normal  0.000000e+00  0.000000e+00 -1.000000e+00
   outer loop
     vertex -5.693394e-02 -3.835296e-02 -1.015873e+00
     vertex -1.482069e-01 -6.600909e-02 -1.015873e+00
     vertex -1.481568e-01 -4.456053e-02 -1.015873e+00
   endloop
 endfacet
 facet normal  0.000000e+00 -0.000000e+00 -1.000000e+00
   outer loop
     vertex -5.693394e-02 -3.835296e-02 -1.015873e+00
     vertex -5.476287e-02 -4.407760e-02 -1.015873e+00
     vertex -1.482069e-01 -6.600909e-02 -1.015873e+00
   endloop
 endfacet
 facet normal  0.000000e+00 -0.000000e+00 -1.000000e+00
   outer loop
     vertex -3.533635e-02 -5.748676e-02 -1.015873e+00
     vertex -1.355242e-02 -1.172707e-01 -1.015873e+00
     vertex -5.099778e-02 -1.172707e-01 -1.015873e+00
   endloop
 endfacet
 facet normal -0.000000e+00  0.000000e+00 -1.000000e+00
   outer loop
     vertex -3.533635e-02 -5.748676e-02 -1.015873e+00
     vertex -5.099778e-02 -1.172707e-01 -1.015873e+00
     vertex -4.128094e-02 -5.602155e-02 -1.015873e+00
   endloop
 endfacet
 facet normal  0.000000e+00  0.000000e+00 -1.000000e+00
   outer loop
     vertex -5.767193e-02 -3.227510e-02 -1.015873e+00
     vertex -1.441722e-01 -2.348528e-02 -1.015873e+00
     vertex -1.363883e-01 -3.498915e-03 -1.015873e+00
   endloop
 endfacet
 facet normal -0.000000e+00 -0.000000e+00 -1.000000e+00
   outer loop
     vertex -5.767193e-02 -3.227510e-02 -1.015873e+00
     vertex -5.693394e-02 -3.835296e-02 -1.015873e+00
     vertex -1.441722e-01 -2.348528e-02 -1.015873e+00
   endloop
 endfacet
 facet normal -0.000000e+00 -0.000000e+00 -1.000000e+00
   outer loop
     vertex -2.921385e-02 -5.748676e-02 -1.015873e+00
     vertex -1.355242e-02 -1.172707e-01 -1.015873e+00
     vertex -3.533635e-02 -5.748676e-02 -1.015873e+00
   endloop
 endfacet
 facet normal  0.000000e+00  0.000000e+00 -1.000000e+00
   outer loop
     vertex -5.693394e-02 -2.619724e-02 -1.015873e+00
     vertex -1.363883e-01 -3.498915e-03 -1.015873e+00
     vertex -1.250695e-01  1.471998e-02 -1.015873e+00
   endloop
 endfacet
 facet normal -0.000000e+00  0.000000e+00 -1.000000e+00
   outer loop
     vertex -5.693394e-02 -2.619724e-02 -1.015873e+00
     vertex -5.767193e-02 -3.227510e-02 -1.015873e+00
     vertex -1.363883e-01 -3.498915e-03 -1.015873e+00
   endloop
 endfacet
 facet normal  0.000000e+00 -0.000000e+00 -1.000000e+00
   outer loop
     vertex -2.326926e-02 -5.602155e-02 -1.015873e+00
     vertex -1.355242e-02 -1.172707e-01 -1.015873e+00
     vertex -2.921385e-02 -5.748676e-02 -1.015873e+00
   endloop
 endfacet
 facet normal  0.000000e+00  0.000000e+00 -1.000000e+00
   outer loop
     vertex -5.476287e-02 -2.047261e-02 -1.015873e+00
     vertex -1.250695e-01  1.471998e-02 -1.015873e+00
     vertex -1.106001e-01  3.055282e-02 -1.015873e+00
   endloop
 endfacet
 facet normal -0.000000e+00  0.000000e+00 -1.000000e+00
   outer loop
     vertex -5.476287e-02 -2.047261e-02 -1.015873e+00
     vertex -5.693394e-02 -2.619724e-02 -1.015873e+00
     vertex -1.250695e-01  1.471998e-02 -1.015873e+00
   endloop
 endfacet
 facet normal  0.000000e+00  0.000000e+00 -1.000000e+00
   outer loop
     vertex -1.784806e-02 -5.317628e-02 -1.015873e+00
     vertex  2.379449e-02 -1.199842e-01 -1.015873e+00
     vertex -1.355242e-02 -1.172707e-01 -1.015873e+00
   endloop
 endfacet
 facet normal  0.000000e+00 -0.000000e+00 -1.000000e+00
   outer loop
     vertex -1.784806e-02 -5.317628e-02 -1.015873e+00
     vertex -1.355242e-02 -1.172707e-01 -1.015873e+00
     vertex -2.326926e-02 -5.602155e-02 -1.015873e+00
   endloop
 endfacet
 facet normal -0.000000e+00  0.000000e+00 -1.000000e+00
   outer loop
     vertex -5.128490e-02 -1.543389e-02 -1.015873e+00
     vertex -5.476287e-02 -2.047261e-02 -1.015873e+00
     vertex -1.106001e-01  3.055282e-02 -1.015873e+00
   endloop
 endfacet
 facet normal  0.000000e+00 -0.000000e+00 -1.000000e+00
   outer loop
     vertex -1.326530e-02 -4.911631e-02 -1.015873e+00
     vertex  2.379449e-02 -1.199842e-01 -1.015873e+00
     vertex -1.784806e-02 -5.317628e-02 -1.015873e+00
   endloop
 endfacet
 facet normal  0.000000e+00 -0.000000e+00 -1.000000e+00
   outer loop
     vertex -9.787326e-03 -4.407760e-02 -1.015873e+00
     vertex  2.379449e-02 -1.199842e-01 -1.015873e+00
     vertex -1.326530e-02 -4.911631e-02 -1.015873e+00
   endloop
 endfacet
 facet normal  0.000000e+00 -0.000000e+00 -1.000000e+00
   outer loop
     vertex -9.347132e-02  4.346203e-02 -1.015873e+00
     vertex -5.128490e-02 -1.543389e-02 -1.015873e+00
     vertex -1.106001e-01  3.055282e-02 -1.015873e+00
   endloop
 endfacet
 facet normal  0.000000e+00  0.000000e+00 -1.000000e+00
   outer loop
     vertex -9.347132e-02  4.346203e-02 -1.015873e+00
     vertex -4.670214e-02 -1.137392e-02 -1.015873e+00
     vertex -5.128490e-02 -1.543389e-02 -1.015873e+00
   endloop
 endfacet
 facet normal  0.000000e+00  0.000000e+00 -1.000000e+00
   outer loop
     vertex  7.208016e-02 -1.071252e-01 -1.015873e+00
     vertex  6.084660e-02 -1.253968e-01 -1.015873e+00
     vertex  2.379449e-02 -1.199842e-01 -1.015873e+00
   endloop
 endfacet
 facet normal  0.000000e+00 -0.000000e+00 -1.000000e+00
   outer loop
     vertex -7.426474e-02  5.300931e-02 -1.015873e+00
     vertex -4.670214e-02 -1.137392e-02 -1.015873e+00
     vertex -9.347132e-02  4.346203e-02 -1.015873e+00
   endloop
 endfacet
 facet normal  0.000000e+00  0.000000e+00 -1.000000e+00
   outer loop
     vertex -7.426474e-02  5.300931e-02 -1.015873e+00
     vertex -4.128094e-02 -8.528654e-03 -1.015873e+00
     vertex -4.670214e-02 -1.137392e-02 -1.015873e+00
   endloop
 endfacet
 facet normal -0.000000e+00  0.000000e+00 -1.000000e+00
   outer loop
     vertex  7.977055e-02 -8.710272e-02 -1.015873e+00
     vertex  2.379449e-02 -1.199842e-01 -1.015873e+00
     vertex -9.787326e-03 -4.407760e-02 -1.015873e+00
   endloop
 endfacet
 facet normal  0.000000e+00  0.000000e+00 -1.000000e+00
   outer loop
     vertex  7.977055e-02 -8.710272e-02 -1.015873e+00
     vertex  7.208016e-02 -1.071252e-01 -1.015873e+00
     vertex  2.379449e-02 -1.199842e-01 -1.015873e+00
   endloop
 endfacet
 facet normal  0.000000e+00  0.000000e+00 -1.000000e+00
   outer loop
     vertex -5.363250e-02  5.887050e-02 -1.015873e+00
     vertex -3.533635e-02 -7.063444e-03 -1.015873e+00
     vertex -4.128094e-02 -8.528654e-03 -1.015873e+00
   endloop
 endfacet
 facet normal  0.000000e+00 -0.000000e+00 -1.000000e+00
   outer loop
     vertex -5.363250e-02  5.887050e-02 -1.015873e+00
     vertex -4.128094e-02 -8.528654e-03 -1.015873e+00
     vertex -7.426474e-02  5.300931e-02 -1.015873e+00
   endloop
 endfacet
 facet normal -0.000000e+00  0.000000e+00 -1.000000e+00
   outer loop
     vertex  8.365668e-02 -6.600909e-02 -1.015873e+00
     vertex  7.977055e-02 -8.710272e-02 -1.015873e+00
     vertex -9.787326e-03 -4.407760e-02 -1.015873e+00
   endloop
 endfacet
 facet normal  0.000000e+00  0.000000e+00 -1.000000e+00
   outer loop
     vertex  8.365668e-02 -6.600909e-02 -1.015873e+00
     vertex -9.787326e-03 -4.407760e-02 -1.015873e+00
     vertex -7.616258e-03 -3.835296e-02 -1.015873e+00
   endloop
 endfacet
 facet normal  0.000000e+00 -0.000000e+00 -1.000000e+00
   outer loop
     vertex -3.227510e-02  6.084660e-02 -1.015873e+00
     vertex -2.921385e-02 -7.063444e-03 -1.015873e+00
     vertex -3.533635e-02 -7.063444e-03 -1.015873e+00
   endloop
 endfacet
 facet normal  0.000000e+00  0.000000e+00 -1.000000e+00
   outer loop
     vertex -3.227510e-02  6.084660e-02 -1.015873e+00
     vertex -3.533635e-02 -7.063444e-03 -1.015873e+00
     vertex -5.363250e-02  5.887050e-02 -1.015873e+00
   endloop
 endfacet
 facet normal -0.000000e+00 -0.000000e+00 -1.000000e+00
   outer loop
     vertex  8.360658e-02 -4.456053e-02 -1.015873e+00
     vertex  8.365668e-02 -6.600909e-02 -1.015873e+00
     vertex -7.616258e-03 -3.835296e-02 -1.015873e+00
   endloop
 endfacet
 facet normal  0.000000e+00  0.000000e+00 -1.000000e+00
   outer loop
     vertex -1.091771e-02  5.887050e-02 -1.015873e+00
     vertex -2.326926e-02 -8.528654e-03 -1.015873e+00
     vertex -2.921385e-02 -7.063444e-03 -1.015873e+00
   endloop
 endfacet
 facet normal -0.000000e+00  0.000000e+00 -1.000000e+00
   outer loop
     vertex -1.091771e-02  5.887050e-02 -1.015873e+00
     vertex -2.921385e-02 -7.063444e-03 -1.015873e+00
     vertex -3.227510e-02  6.084660e-02 -1.015873e+00
   endloop
 endfacet
 facet normal  0.000000e+00 -0.000000e+00 -1.000000e+00
   outer loop
     vertex  7.962197e-02 -2.348528e-02 -1.015873e+00
     vertex  8.360658e-02 -4.456053e-02 -1.015873e+00
     vertex -7.616258e-03 -3.835296e-02 -1.015873e+00
   endloop
 endfacet
 facet normal  0.000000e+00  0.000000e+00 -1.000000e+00
   outer loop
     vertex  7.962197e-02 -2.348528e-02 -1.015873e+00
     vertex -7.616258e-03 -3.835296e-02 -1.015873e+00
     vertex -6.878273e-03 -3.227510e-02 -1.015873e+00
   endloop
 endfacet
 facet normal  0.000000e+00  0.000000e+00 -1.000000e+00
   outer loop
     vertex  9.714538e-03  5.300931e-02 -1.015873e+00
     vertex -1.784806e-02 -1.137392e-02 -1.015873e+00
     vertex -2.326926e-02 -8.528654e-03 -1.015873e+00
   endloop
 endfacet
 facet normal -0.000000e+00  0.000000e+00 -1.000000e+00
   outer loop
     vertex  9.714538e-03  5.300931e-02 -1.015873e+00
     vertex -2.326926e-02 -8.528654e-03 -1.015873e+00
     vertex -1.091771e-02  5.887050e-02 -1.015873e+00
   endloop
 endfacet
 facet normal  0.000000e+00  0.000000e+00 -1.000000e+00
   outer loop
     vertex  7.183812e-02 -3.498915e-03 -1.015873e+00
     vertex -6.878273e-03 -3.227510e-02 -1.015873e+00
     vertex -7.616258e-03 -2.619724e-02 -1.015873e+00
   endloop
 endfacet
 facet normal  0.000000e+00 -0.000000e+00 -1.000000e+00
   outer loop
     vertex  7.183812e-02 -3.498915e-03 -1.015873e+00
     vertex  7.962197e-02 -2.348528e-02 -1.015873e+00
     vertex -6.878273e-03 -3.227510e-02 -1.015873e+00
   endloop
 endfacet
 facet normal  0.000000e+00  0.000000e+00 -1.000000e+00
   outer loop
     vertex  2.892112e-02  4.346203e-02 -1.015873e+00
     vertex -1.326530e-02 -1.543389e-02 -1.015873e+00
     vertex -1.784806e-02 -1.137392e-02 -1.015873e+00
   endloop
 endfacet
 facet normal -0.000000e+00  0.000000e+00 -1.000000e+00
   outer loop
     vertex  2.892112e-02  4.346203e-02 -1.015873e+00
     vertex -1.784806e-02 -1.137392e-02 -1.015873e+00
     vertex  9.714538e-03  5.300931e-02 -1.015873e+00
   endloop
 endfacet
 facet normal  0.000000e+00  0.000000e+00 -1.000000e+00
   outer loop
     vertex  6.051933e-02  1.471998e-02 -1.015873e+00
     vertex -7.616258e-03 -2.619724e-02 -1.015873e+00
     vertex -9.787326e-03 -2.047261e-02 -1.015873e+00
   endloop
 endfacet
 facet normal  0.000000e+00 -0.000000e+00 -1.000000e+00
   outer loop
     vertex  6.051933e-02  1.471998e-02 -1.015873e+00
     vertex  7.183812e-02 -3.498915e-03 -1.015873e+00
     vertex -7.616258e-03 -2.619724e-02 -1.015873e+00
   endloop
 endfacet
 facet normal  0.000000e+00  0.000000e+00 -1.000000e+00
   outer loop
     vertex  4.604990e-02  3.055282e-02 -1.015873e+00
     vertex -9.787326e-03 -2.047261e-02 -1.015873e+00
     vertex -1.326530e-02 -1.543389e-02 -1.015873e+00
   endloop
 endfacet
 facet normal  0.000000e+00 -0.000000e+00 -1.000000e+00
   outer loop
     vertex  4.604990e-02  3.055282e-02 -1.015873e+00
     vertex  6.051933e-02  1.471998e-02 -1.015873e+00
     vertex -9.787326e-03 -2.047261e-02 -1.015873e+00
   endloop
 endfacet
 facet normal -0.000000e+00  0.000000e+00 -1.000000e+00
   outer loop
     vertex  4.604990e-02  3.055282e-02 -1.015873e+00
     vertex -1.326530e-02 -1.543389e-02 -1.015873e+00
     vertex  2.892112e-02  4.346203e-02 -1.015873e+00
   endloop
 endfacet
 facet normal -9.927089e-01 -1.205367e-01  0.000000e+00
   outer loop
     vertex -7.616258e-03 -2.619724e-02 -1.587302e-02
     vertex -6.878273e-03 -3.227510e-02 -1.587302e-02
     vertex -6.878273e-03 -3.227510e-02  9.841270e-01
   endloop
 endfacet
 facet normal -9.927089e-01 -1.205367e-01  0.000000e+00
   outer loop
     vertex -7.616258e-03 -2.619724e-02 -1.587302e-02
     vertex -6.878273e-03 -3.227510e-02  9.841270e-01
     vertex -7.616258e-03 -2.619724e-02  9.841270e-01
   endloop
 endfacet
 facet normal -9.350162e-01 -3.546049e-01  0.000000e+00
   outer loop
     vertex -9.787326e-03 -2.047261e-02 -1.587302e-02
     vertex -7.616258e-03 -2.619724e-02  9.841270e-01
     vertex -9.787326e-03 -2.047261e-02  9.841270e-01
   endloop
 endfacet
 facet normal -9.350162e-01 -3.546049e-01  0.000000e+00
   outer loop
     vertex -9.787326e-03 -2.047261e-02 -1.587302e-02
     vertex -7.616258e-03 -2.619724e-02 -1.587302e-02
     vertex -7.616258e-03 -2.619724e-02  9.841270e-01
   endloop
 endfacet
 facet normal -8.229839e-01 -5.680647e-01  0.000000e+00
   outer loop
     vertex -1.326530e-02 -1.543389e-02 -1.587302e-02
     vertex -9.787326e-03 -2.047261e-02  9.841270e-01
     vertex -1.326530e-02 -1.543389e-02  9.841270e-01
   endloop
 endfacet
 facet normal -8.229839e-01 -5.680647e-01  0.000000e+00
   outer loop
     vertex -1.326530e-02 -1.543389e-02 -1.587302e-02
     vertex -9.787326e-03 -2.047261e-02 -1.587302e-02
     vertex -9.787326e-03 -2.047261e-02  9.841270e-01
   endloop
 endfacet
 facet normal -6.631227e-01 -7.485107e-01  0.000000e+00
   outer loop
     vertex -1.784806e-02 -1.137392e-02 -1.587302e-02
     vertex -1.326530e-02 -1.543389e-02  9.841270e-01
     vertex -1.784806e-02 -1.137392e-02  9.841270e-01
   endloop
 endfacet
 facet normal -6.631227e-01 -7.485107e-01  0.000000e+00
   outer loop
     vertex -1.784806e-02 -1.137392e-02 -1.587302e-02
     vertex -1.326530e-02 -1.543389e-02 -1.587302e-02
     vertex -1.326530e-02 -1.543389e-02  9.841270e-01
   endloop
 endfacet
 facet normal -4.647232e-01 -8.854560e-01  0.000000e+00
   outer loop
     vertex -2.326926e-02 -8.528654e-03 -1.587302e-02
     vertex -1.784806e-02 -1.137392e-02  9.841270e-01
     vertex -2.326926e-02 -8.528654e-03  9.841270e-01
   endloop
 endfacet
 facet normal -4.647232e-01 -8.854560e-01  0.000000e+00
   outer loop
     vertex -2.326926e-02 -8.528654e-03 -1.587302e-02
     vertex -1.784806e-02 -1.137392e-02 -1.587302e-02
     vertex -1.784806e-02 -1.137392e-02  9.841270e-01
   endloop
 endfacet
 facet normal -2.393157e-01 -9.709418e-01  0.000000e+00
   outer loop
     vertex -2.921385e-02 -7.063444e-03 -1.587302e-02
     vertex -2.326926e-02 -8.528654e-03  9.841270e-01
     vertex -2.921385e-02 -7.063444e-03  9.841270e-01
   endloop
 endfacet
 facet normal -2.393157e-01 -9.709418e-01  0.000000e+00
   outer loop
     vertex -2.921385e-02 -7.063444e-03 -1.587302e-02
     vertex -2.326926e-02 -8.528654e-03 -1.587302e-02
     vertex -2.326926e-02 -8.528654e-03  9.841270e-01
   endloop
 endfacet
 facet normal  0.000000e+00 -1.000000e+00  0.000000e+00
   outer loop
     vertex -3.533635e-02 -7.063444e-03 -1.587302e-02
     vertex -2.921385e-02 -7.063444e-03  9.841270e-01
     vertex -3.533635e-02 -7.063444e-03  9.841270e-01
   endloop
 endfacet
 facet normal  0.000000e+00 -1.000000e+00  0.000000e+00
   outer loop
     vertex -3.533635e-02 -7.063444e-03 -1.587302e-02
     vertex -2.921385e-02 -7.063444e-03 -1.587302e-02
     vertex -2.921385e-02 -7.063444e-03  9.841270e-01
   endloop
 endfacet
 facet normal  2.393157e-01 -9.709418e-01  0.000000e+00
   outer loop
     vertex -4.128094e-02 -8.528654e-03 -1.587302e-02
     vertex -3.533635e-02 -7.063444e-03  9.841270e-01
     vertex -4.128094e-02 -8.528654e-03  9.841270e-01
   endloop
 endfacet
 facet normal  2.393157e-01 -9.709418e-01  0.000000e+00
   outer loop
     vertex -4.128094e-02 -8.528654e-03 -1.587302e-02
     vertex -3.533635e-02 -7.063444e-03 -1.587302e-02
     vertex -3.533635e-02 -7.063444e-03  9.841270e-01
   endloop
 endfacet
 facet normal  4.647232e-01 -8.854560e-01  0.000000e+00
   outer loop
     vertex -4.670214e-02 -1.137392e-02 -1.587302e-02
     vertex -4.128094e-02 -8.528654e-03  9.841270e-01
     vertex -4.670214e-02 -1.137392e-02  9.841270e-01
   endloop
 endfacet
 facet normal  4.647232e-01 -8.854560e-01  0.000000e+00
   outer loop
     vertex -4.670214e-02 -1.137392e-02 -1.587302e-02
     vertex -4.128094e-02 -8.528654e-03 -1.587302e-02
     vertex -4.128094e-02 -8.528654e-03  9.841270e-01
   endloop
 endfacet
 facet normal  6.631227e-01 -7.485107e-01  0.000000e+00
   outer loop
     vertex -5.128490e-02 -1.543389e-02 -1.587302e-02
     vertex -4.670214e-02 -1.137392e-02  9.841270e-01
     vertex -5.128490e-02 -1.543389e-02  9.841270e-01
   endloop
 endfacet
 facet normal  6.631227e-01 -7.485107e-01  0.000000e+00
   outer loop
     vertex -5.128490e-02 -1.543389e-02 -1.587302e-02
     vertex -4.670214e-02 -1.137392e-02 -1.587302e-02
     vertex -4.670214e-02 -1.137392e-02  9.841270e-01
   endloop
 endfacet
 facet normal  8.229839e-01 -5.680647e-01  0.000000e+00
   outer loop
     vertex -5.476287e-02 -2.047261e-02 -1.587302e-02
     vertex -5.128490e-02 -1.543389e-02  9.841270e-01
     vertex -5.476287e-02 -2.047261e-02  9.841270e-01
   endloop
 endfacet
 facet normal  8.229839e-01 -5.680647e-01  0.000000e+00
   outer loop
     vertex -5.476287e-02 -2.047261e-02 -1.587302e-02
     vertex -5.128490e-02 -1.543389e-02 -1.587302e-02
     vertex -5.128490e-02 -1.543389e-02  9.841270e-01
   endloop
 endfacet
 facet normal  9.350162e-01 -3.546049e-01  0.000000e+00
   outer loop
     vertex -5.693394e-02 -2.619724e-02 -1.587302e-02
     vertex -5.476287e-02 -2.047261e-02 -1.587302e-02
     vertex -5.476287e-02 -2.047261e-02  9.841270e-01
   endloop
 endfacet
 facet normal  9.350162e-01 -3.546049e-01  0.000000e+00
   outer loop
     vertex -5.693394e-02 -2.619724e-02 -1.587302e-02
     vertex -5.476287e-02 -2.047261e-02  9.841270e-01
     vertex -5.693394e-02 -2.619724e-02  9.841270e-01
   endloop
 endfacet
 facet normal  9.927089e-01 -1.205367e-01  0.000000e+00
   outer loop
     vertex -5.767193e-02 -3.227510e-02 -1.587302e-02
     vertex -5.693394e-02 -2.619724e-02 -1.587302e-02
     vertex -5.693394e-02 -2.619724e-02  9.841270e-01
   endloop
 endfacet
 facet normal  9.927089e-01 -1.205367e-01  0.000000e+00
   outer loop
     vertex -5.767193e-02 -3.227510e-02 -1.587302e-02
     vertex -5.693394e-02 -2.619724e-02  9.841270e-01
     vertex -5.767193e-02 -3.227510e-02  9.841270e-01
   endloop
 endfacet
 facet normal  9.927089e-01  1.205367e-01 -0.000000e+00
   outer loop
     vertex -5.693394e-02 -3.835296e-02 -1.587302e-02
     vertex -5.767193e-02 -3.227510e-02  9.841270e-01
     vertex -5.693394e-02 -3.835296e-02  9.841270e-01
   endloop
 endfacet
 facet normal  9.927089e-01  1.205367e-01  0.000000e+00
   outer loop
     vertex -5.693394e-02 -3.835296e-02 -1.587302e-02
     vertex -5.767193e-02 -3.227510e-02 -1.587302e-02
     vertex -5.767193e-02 -3.227510e-02  9.841270e-01
   endloop
 endfacet
 facet normal  9.350162e-01  3.546049e-01 -0.000000e+00
   outer loop
     vertex -5.476287e-02 -4.407760e-02 -1.587302e-02
     vertex -5.693394e-02 -3.835296e-02  9.841270e-01
     vertex -5.476287e-02 -4.407760e-02  9.841270e-01
   endloop
 endfacet
 facet normal  9.350162e-01  3.546049e-01  0.000000e+00
   outer loop
     vertex -5.476287e-02 -4.407760e-02 -1.587302e-02
     vertex -5.693394e-02 -3.835296e-02 -1.587302e-02
     vertex -5.693394e-02 -3.835296e-02  9.841270e-01
   endloop
 endfacet
 facet normal  8.229839e-01  5.680647e-01 -0.000000e+00
   outer loop
     vertex -5.128490e-02 -4.911631e-02 -1.587302e-02
     vertex -5.476287e-02 -4.407760e-02  9.841270e-01
     vertex -5.128490e-02 -4.911631e-02  9.841270e-01
   endloop
 endfacet
 facet normal  6.631227e-01  7.485107e-01 -0.000000e+00
   outer loop
     vertex -5.128490e-02 -4.911631e-02 -1.587302e-02
     vertex -5.128490e-02 -4.911631e-02  9.841270e-01
     vertex -4.670214e-02 -5.317628e-02  9.841270e-01
   endloop
 endfacet
 facet normal  8.229839e-01  5.680647e-01  0.000000e+00
   outer loop
     vertex -5.128490e-02 -4.911631e-02 -1.587302e-02
     vertex -5.476287e-02 -4.407760e-02 -1.587302e-02
     vertex -5.476287e-02 -4.407760e-02  9.841270e-01
   endloop
 endfacet
 facet normal  6.631227e-01  7.485107e-01 -0.000000e+00
   outer loop
     vertex -4.670214e-02 -5.317628e-02 -1.587302e-02
     vertex -5.128490e-02 -4.911631e-02 -1.587302e-02
     vertex -4.670214e-02 -5.317628e-02  9.841270e-01
   endloop
 endfacet
 facet normal  4.647232e-01  8.854560e-01 -0.000000e+00
   outer loop
     vertex -4.128094e-02 -5.602155e-02 -1.587302e-02
     vertex -4.670214e-02 -5.317628e-02  9.841270e-01
     vertex -4.128094e-02 -5.602155e-02  9.841270e-01
   endloop
 endfacet
 facet normal  2.393157e-01  9.709418e-01 -0.000000e+00
   outer loop
     vertex -4.128094e-02 -5.602155e-02 -1.587302e-02
     vertex -4.128094e-02 -5.602155e-02  9.841270e-01
     vertex -3.533635e-02 -5.748676e-02  9.841270e-01
   endloop
 endfacet
 facet normal  4.647232e-01  8.854560e-01  0.000000e+00
   outer loop
     vertex -4.128094e-02 -5.602155e-02 -1.587302e-02
     vertex -4.670214e-02 -5.317628e-02 -1.587302e-02
     vertex -4.670214e-02 -5.317628e-02  9.841270e-01
   endloop
 endfacet
 facet normal  2.393157e-01  9.709418e-01 -0.000000e+00
   outer loop
     vertex -3.533635e-02 -5.748676e-02 -1.587302e-02
     vertex -4.128094e-02 -5.602155e-02 -1.587302e-02
     vertex -3.533635e-02 -5.748676e-02  9.841270e-01
   endloop
 endfacet
 facet normal  2.266687e-15  1.000000e+00 -0.000000e+00
   outer loop
     vertex -2.921385e-02 -5.748676e-02 -1.587302e-02
     vertex -3.533635e-02 -5.748676e-02  9.841270e-01
     vertex -2.921385e-02 -5.748676e-02  9.841270e-01
   endloop
 endfacet
 facet normal -2.393157e-01  9.709418e-01  0.000000e+00
   outer loop
     vertex -2.921385e-02 -5.748676e-02 -1.587302e-02
     vertex -2.921385e-02 -5.748676e-02  9.841270e-01
     vertex -2.326926e-02 -5.602155e-02  9.841270e-01
   endloop
 endfacet
 facet normal  2.266687e-15  1.000000e+00  0.000000e+00
   outer loop
     vertex -2.921385e-02 -5.748676e-02 -1.587302e-02
     vertex -3.533635e-02 -5.748676e-02 -1.587302e-02
     vertex -3.533635e-02 -5.748676e-02  9.841270e-01
   endloop
 endfacet
 facet normal -2.393157e-01  9.709418e-01  0.000000e+00
   outer loop
     vertex -2.326926e-02 -5.602155e-02 -1.587302e-02
     vertex -2.921385e-02 -5.748676e-02 -1.587302e-02
     vertex -2.326926e-02 -5.602155e-02  9.841270e-01
   endloop
 endfacet
 facet normal -4.647232e-01  8.854560e-01  0.000000e+00
   outer loop
     vertex -1.784806e-02 -5.317628e-02 -1.587302e-02
     vertex -2.326926e-02 -5.602155e-02  9.841270e-01
     vertex -1.784806e-02 -5.317628e-02  9.841270e-01
   endloop
 endfacet
 facet normal -6.631227e-01  7.485107e-01  0.000000e+00
   outer loop
     vertex -1.784806e-02 -5.317628e-02 -1.587302e-02
     vertex -1.784806e-02 -5.317628e-02  9.841270e-01
     vertex -1.326530e-02 -4.911631e-02  9.841270e-01
   endloop
 endfacet
 facet normal -4.647232e-01  8.854560e-01  0.000000e+00
   outer loop
     vertex -1.784806e-02 -5.317628e-02 -1.587302e-02
     vertex -2.326926e-02 -5.602155e-02 -1.587302e-02
     vertex -2.326926e-02 -5.602155e-02  9.841270e-01
   endloop
 endfacet
 facet normal -6.631227e-01  7.485107e-01  0.000000e+00
   outer loop
     vertex -1.326530e-02 -4.911631e-02 -1.587302e-02
     vertex -1.784806e-02 -5.317628e-02 -1.587302e-02
     vertex -1.326530e-02 -4.911631e-02  9.841270e-01
   endloop
 endfacet
 facet normal -8.229839e-01  5.680647e-01  0.000000e+00
   outer loop
     vertex -9.787326e-03 -4.407760e-02 -1.587302e-02
     vertex -1.326530e-02 -4.911631e-02  9.841270e-01
     vertex -9.787326e-03 -4.407760e-02  9.841270e-01
   endloop
 endfacet
 facet normal -9.350162e-01  3.546049e-01  0.000000e+00
   outer loop
     vertex -9.787326e-03 -4.407760e-02 -1.587302e-02
     vertex -9.787326e-03 -4.407760e-02  9.841270e-01
     vertex -7.616258e-03 -3.835296e-02  9.841270e-01
   endloop
 endfacet
 facet normal -8.229839e-01  5.680647e-01  0.000000e+00
   outer loop
     vertex -9.787326e-03 -4.407760e-02 -1.587302e-02
     vertex -1.326530e-02 -4.911631e-02 -1.587302e-02
     vertex -1.326530e-02 -4.911631e-02  9.841270e-01
   endloop
 endfacet
 facet normal -9.350162e-01  3.546049e-01  0.000000e+00
   outer loop
     vertex -7.616258e-03 -3.835296e-02 -1.587302e-02
     vertex -9.787326e-03 -4.407760e-02 -1.587302e-02
     vertex -7.616258e-03 -3.835296e-02  9.841270e-01
   endloop
 endfacet
 facet normal -9.927089e-01  1.205367e-01  0.000000e+00
   outer loop
     vertex -6.878273e-03 -3.227510e-02 -1.587302e-02
     vertex -7.616258e-03 -3.835296e-02  9.841270e-01
     vertex -6.878273e-03 -3.227510e-02  9.841270e-01
   endloop
 endfacet
 facet normal -9.927089e-01  1.205367e-01  0.000000e+00
   outer loop
     vertex -6.878273e-03 -3.227510e-02 -1.587302e-02
     vertex -7.616258e-03 -3.835296e-02 -1.587302e-02
     vertex -7.616258e-03 -3.835296e-02  9.841270e-01
   endloop
 endfacet
 facet normal -9.927089e-01 -1.205367e-01  0.000000e+00
   outer loop
     vertex -7.616258e-03 -2.619724e-02 -1.587302e-02
     vertex -6.878273e-03 -3.227510e-02 -1.015873e+00
     vertex -6.878273e-03 -3.227510e-02 -1.587302e-02
   endloop
 endfacet
 facet normal -9.927089e-01 -1.205367e-01 -0.000000e+00
   outer loop
     vertex -7.616258e-03 -2.619724e-02 -1.587302e-02
     vertex -7.616258e-03 -2.619724e-02 -1.015873e+00
     vertex -6.878273e-03 -3.227510e-02 -1.015873e+00
   endloop
 endfacet
 facet normal -9.350162e-01 -3.546049e-01 -0.000000e+00
   outer loop
     vertex -9.787326e-03 -2.047261e-02 -1.587302e-02
     vertex -9.787326e-03 -2.047261e-02 -1.015873e+00
     vertex -7.616258e-03 -2.619724e-02 -1.015873e+00
   endloop
 endfacet
 facet normal -9.350162e-01 -3.546049e-01  0.000000e+00
   outer loop
     vertex -9.787326e-03 -2.047261e-02 -1.587302e-02
     vertex -7.616258e-03 -2.619724e-02 -1.015873e+00
     vertex -7.616258e-03 -2.619724e-02 -1.587302e-02
   endloop
 endfacet
 facet normal -8.229839e-01 -5.680647e-01 -0.000000e+00
   outer loop
     vertex -1.326530e-02 -1.543389e-02 -1.587302e-02
     vertex -1.326530e-02 -1.543389e-02 -1.015873e+00
     vertex -9.787326e-03 -2.047261e-02 -1.015873e+00
   endloop
 endfacet
 facet normal -8.229839e-01 -5.680647e-01  0.000000e+00
   outer loop
     vertex -1.326530e-02 -1.543389e-02 -1.587302e-02
     vertex -9.787326e-03 -2.047261e-02 -1.015873e+00
     vertex -9.787326e-03 -2.047261e-02 -1.587302e-02
   endloop
 endfacet
 facet normal -6.631227e-01 -7.485107e-01 -0.000000e+00
   outer loop
     vertex -1.784806e-02 -1.137392e-02 -1.587302e-02
     vertex -1.784806e-02 -1.137392e-02 -1.015873e+00
     vertex -1.326530e-02 -1.543389e-02 -1.015873e+00
   endloop
 endfacet
 facet normal -6.631227e-01 -7.485107e-01  0.000000e+00
   outer loop
     vertex -1.784806e-02 -1.137392e-02 -1.587302e-02
     vertex -1.326530e-02 -1.543389e-02 -1.015873e+00
     vertex -1.326530e-02 -1.543389e-02 -1.587302e-02
   endloop
 endfacet
 facet normal -4.647232e-01 -8.854560e-01 -0.000000e+00
   outer loop
     vertex -2.326926e-02 -8.528654e-03 -1.587302e-02
     vertex -2.326926e-02 -8.528654e-03 -1.015873e+00
     vertex -1.784806e-02 -1.137392e-02 -1.015873e+00
   endloop
 endfacet
 facet normal -4.647232e-01 -8.854560e-01  0.000000e+00
   outer loop
     vertex -2.326926e-02 -8.528654e-03 -1.587302e-02
     vertex -1.784806e-02 -1.137392e-02 -1.015873e+00
     vertex -1.784806e-02 -1.137392e-02 -1.587302e-02
   endloop
 endfacet
 facet normal -2.393157e-01 -9.709418e-01 -0.000000e+00
   outer loop
     vertex -2.921385e-02 -7.063444e-03 -1.587302e-02
     vertex -2.921385e-02 -7.063444e-03 -1.015873e+00
     vertex -2.326926e-02 -8.528654e-03 -1.015873e+00
   endloop
 endfacet
 facet normal -2.393157e-01 -9.709418e-01  0.000000e+00
   outer loop
     vertex -2.921385e-02 -7.063444e-03 -1.587302e-02
     vertex -2.326926e-02 -8.528654e-03 -1.015873e+00
     vertex -2.326926e-02 -8.528654e-03 -1.587302e-02
   endloop
 endfacet
 facet normal  0.000000e+00 -1.000000e+00  0.000000e+00
   outer loop
     vertex -3.533635e-02 -7.063444e-03 -1.587302e-02
     vertex -3.533635e-02 -7.063444e-03 -1.015873e+00
     vertex -2.921385e-02 -7.063444e-03 -1.015873e+00
   endloop
 endfacet
 facet normal  0.000000e+00 -1.000000e+00  0.000000e+00
   outer loop
     vertex -3.533635e-02 -7.063444e-03 -1.587302e-02
     vertex -2.921385e-02 -7.063444e-03 -1.015873e+00
     vertex -2.921385e-02 -7.063444e-03 -1.587302e-02
   endloop
 endfacet
 facet normal  2.393157e-01 -9.709418e-01  0.000000e+00
   outer loop
     vertex -4.128094e-02 -8.528654e-03 -1.587302e-02
     vertex -4.128094e-02 -8.528654e-03 -1.015873e+00
     vertex -3.533635e-02 -7.063444e-03 -1.015873e+00
   endloop
 endfacet
 facet normal  2.393157e-01 -9.709418e-01  0.000000e+00
   outer loop
     vertex -4.128094e-02 -8.528654e-03 -1.587302e-02
     vertex -3.533635e-02 -7.063444e-03 -1.015873e+00
     vertex -3.533635e-02 -7.063444e-03 -1.587302e-02
   endloop
 endfacet
 facet normal  4.647232e-01 -8.854560e-01  0.000000e+00
   outer loop
     vertex -4.670214e-02 -1.137392e-02 -1.587302e-02
     vertex -4.670214e-02 -1.137392e-02 -1.015873e+00
     vertex -4.128094e-02 -8.528654e-03 -1.015873e+00
   endloop
 endfacet
 facet normal  4.647232e-01 -8.854560e-01  0.000000e+00
   outer loop
     vertex -4.670214e-02 -1.137392e-02 -1.587302e-02
     vertex -4.128094e-02 -8.528654e-03 -1.015873e+00
     vertex -4.128094e-02 -8.528654e-03 -1.587302e-02
   endloop
 endfacet
 facet normal  6.631227e-01 -7.485107e-01  0.000000e+00
   outer loop
     vertex -5.128490e-02 -1.543389e-02 -1.587302e-02
     vertex -5.128490e-02 -1.543389e-02 -1.015873e+00
     vertex -4.670214e-02 -1.137392e-02 -1.015873e+00
   endloop
 endfacet
 facet normal  6.631227e-01 -7.485107e-01  0.000000e+00
   outer loop
     vertex -5.128490e-02 -1.543389e-02 -1.587302e-02
     vertex -4.670214e-02 -1.137392e-02 -1.015873e+00
     vertex -4.670214e-02 -1.137392e-02 -1.587302e-02
   endloop
 endfacet
 facet normal  8.229839e-01 -5.680647e-01  0.000000e+00
   outer loop
     vertex -5.476287e-02 -2.047261e-02 -1.587302e-02
     vertex -5.476287e-02 -2.047261e-02 -1.015873e+00
     vertex -5.128490e-02 -1.543389e-02 -1.015873e+00
   endloop
 endfacet
 facet normal  8.229839e-01 -5.680647e-01  0.000000e+00
   outer loop
     vertex -5.476287e-02 -2.047261e-02 -1.587302e-02
     vertex -5.128490e-02 -1.543389e-02 -1.015873e+00
     vertex -5.128490e-02 -1.543389e-02 -1.587302e-02
   endloop
 endfacet
 facet normal  9.350162e-01 -3.546049e-01  0.000000e+00
   outer loop
     vertex -5.693394e-02 -2.619724e-02 -1.587302e-02
     vertex -5.476287e-02 -2.047261e-02 -1.015873e+00
     vertex -5.476287e-02 -2.047261e-02 -1.587302e-02
   endloop
 endfacet
 facet normal  9.350162e-01 -3.546049e-01  0.000000e+00
   outer loop
     vertex -5.693394e-02 -2.619724e-02 -1.587302e-02
     vertex -5.693394e-02 -2.619724e-02 -1.015873e+00
     vertex -5.476287e-02 -2.047261e-02 -1.015873e+00
   endloop
 endfacet
 facet normal  9.927089e-01 -1.205367e-01  0.000000e+00
   outer loop
     vertex -5.767193e-02 -3.227510e-02 -1.587302e-02
     vertex -5.693394e-02 -2.619724e-02 -1.015873e+00
     vertex -5.693394e-02 -2.619724e-02 -1.587302e-02
   endloop
 endfacet
 facet normal  9.927089e-01 -1.205367e-01  0.000000e+00
   outer loop
     vertex -5.767193e-02 -3.227510e-02 -1.587302e-02
     vertex -5.767193e-02 -3.227510e-02 -1.015873e+00
     vertex -5.693394e-02 -2.619724e-02 -1.015873e+00
   endloop
 endfacet
 facet normal  9.927089e-01  1.205367e-01  0.000000e+00
   outer loop
     vertex -5.693394e-02 -3.835296e-02 -1.587302e-02
     vertex -5.693394e-02 -3.835296e-02 -1.015873e+00
     vertex -5.767193e-02 -3.227510e-02 -1.015873e+00
   endloop
 endfacet
 facet normal  9.927089e-01  1.205367e-01  0.000000e+00
   outer loop
     vertex -5.693394e-02 -3.835296e-02 -1.587302e-02
     vertex -5.767193e-02 -3.227510e-02 -1.015873e+00
     vertex -5.767193e-02 -3.227510e-02 -1.587302e-02
   endloop
 endfacet
 facet normal  9.350162e-01  3.546049e-01  0.000000e+00
   outer loop
     vertex -5.693394e-02 -3.835296e-02 -1.587302e-02
     vertex -5.476287e-02 -4.407760e-02 -1.015873e+00
     vertex -5.693394e-02 -3.835296e-02 -1.015873e+00
   endloop
 endfacet
 facet normal  9.350162e-01  3.546049e-01  0.000000e+00
   outer loop
     vertex -5.476287e-02 -4.407760e-02 -1.587302e-02
     vertex -5.476287e-02 -4.407760e-02 -1.015873e+00
     vertex -5.693394e-02 -3.835296e-02 -1.587302e-02
   endloop
 endfacet
 facet normal  8.229839e-01  5.680647e-01  0.000000e+00
   outer loop
     vertex -5.128490e-02 -4.911631e-02 -1.587302e-02
     vertex -5.128490e-02 -4.911631e-02 -1.015873e+00
     vertex -5.476287e-02 -4.407760e-02 -1.015873e+00
   endloop
 endfacet
 facet normal  6.631227e-01  7.485107e-01  0.000000e+00
   outer loop
     vertex -5.128490e-02 -4.911631e-02 -1.587302e-02
     vertex -4.670214e-02 -5.317628e-02 -1.015873e+00
     vertex -5.128490e-02 -4.911631e-02 -1.015873e+00
   endloop
 endfacet
 facet normal  8.229839e-01  5.680647e-01  0.000000e+00
   outer loop
     vertex -5.128490e-02 -4.911631e-02 -1.587302e-02
     vertex -5.476287e-02 -4.407760e-02 -1.015873e+00
     vertex -5.476287e-02 -4.407760e-02 -1.587302e-02
   endloop
 endfacet
 facet normal  6.631227e-01  7.485107e-01  0.000000e+00
   outer loop
     vertex -4.670214e-02 -5.317628e-02 -1.587302e-02
     vertex -4.670214e-02 -5.317628e-02 -1.015873e+00
     vertex -5.128490e-02 -4.911631e-02 -1.587302e-02
   endloop
 endfacet
 facet normal  4.647232e-01  8.854560e-01  0.000000e+00
   outer loop
     vertex -4.128094e-02 -5.602155e-02 -1.587302e-02
     vertex -4.128094e-02 -5.602155e-02 -1.015873e+00
     vertex -4.670214e-02 -5.317628e-02 -1.015873e+00
   endloop
 endfacet
 facet normal  4.647232e-01  8.854560e-01  0.000000e+00
   outer loop
     vertex -4.128094e-02 -5.602155e-02 -1.587302e-02
     vertex -4.670214e-02 -5.317628e-02 -1.015873e+00
     vertex -4.670214e-02 -5.317628e-02 -1.587302e-02
   endloop
 endfacet
 facet normal  2.393157e-01  9.709418e-01  0.000000e+00
   outer loop
     vertex -3.533635e-02 -5.748676e-02 -1.587302e-02
     vertex -3.533635e-02 -5.748676e-02 -1.015873e+00
     vertex -4.128094e-02 -5.602155e-02 -1.015873e+00
   endloop
 endfacet
 facet normal  2.266687e-15  1.000000e+00  0.000000e+00
   outer loop
     vertex -3.533635e-02 -5.748676e-02 -1.587302e-02
     vertex -2.921385e-02 -5.748676e-02 -1.015873e+00
     vertex -3.533635e-02 -5.748676e-02 -1.015873e+00
   endloop
 endfacet
 facet normal  2.393157e-01  9.709418e-01  0.000000e+00
   outer loop
     vertex -3.533635e-02 -5.748676e-02 -1.587302e-02
     vertex -4.128094e-02 -5.602155e-02 -1.015873e+00
     vertex -4.128094e-02 -5.602155e-02 -1.587302e-02
   endloop
 endfacet
 facet normal  2.266687e-15  1.000000e+00  0.000000e+00
   outer loop
     vertex -2.921385e-02 -5.748676e-02 -1.587302e-02
     vertex -2.921385e-02 -5.748676e-02 -1.015873e+00
     vertex -3.533635e-02 -5.748676e-02 -1.587302e-02
   endloop
 endfacet
 facet normal -2.393157e-01  9.709418e-01  0.000000e+00
   outer loop
     vertex -2.326926e-02 -5.602155e-02 -1.587302e-02
     vertex -2.326926e-02 -5.602155e-02 -1.015873e+00
     vertex -2.921385e-02 -5.748676e-02 -1.015873e+00
   endloop
 endfacet
 facet normal -4.647232e-01  8.854560e-01  0.000000e+00
   outer loop
     vertex -2.326926e-02 -5.602155e-02 -1.587302e-02
     vertex -1.784806e-02 -5.317628e-02 -1.015873e+00
     vertex -2.326926e-02 -5.602155e-02 -1.015873e+00
   endloop
 endfacet
 facet normal -2.393157e-01  9.709418e-01  0.000000e+00
   outer loop
     vertex -2.326926e-02 -5.602155e-02 -1.587302e-02
     vertex -2.921385e-02 -5.748676e-02 -1.015873e+00
     vertex -2.921385e-02 -5.748676e-02 -1.587302e-02
   endloop
 endfacet
 facet normal -4.647232e-01  8.854560e-01  0.000000e+00
   outer loop
     vertex -1.784806e-02 -5.317628e-02 -1.587302e-02
     vertex -1.784806e-02 -5.317628e-02 -1.015873e+00
     vertex -2.326926e-02 -5.602155e-02 -1.587302e-02
   endloop
 endfacet
 facet normal -6.631227e-01  7.485107e-01  0.000000e+00
   outer loop
     vertex -1.326530e-02 -4.911631e-02 -1.587302e-02
     vertex -1.326530e-02 -4.911631e-02 -1.015873e+00
     vertex -1.784806e-02 -5.317628e-02 -1.015873e+00
   endloop
 endfacet
 facet normal -8.229839e-01  5.680647e-01  0.000000e+00
   outer loop
     vertex -1.326530e-02 -4.911631e-02 -1.587302e-02
     vertex -9.787326e-03 -4.407760e-02 -1.015873e+00
     vertex -1.326530e-02 -4.911631e-02 -1.015873e+00
   endloop
 endfacet
 facet normal -6.631227e-01  7.485107e-01  0.000000e+00
   outer loop
     vertex -1.326530e-02 -4.911631e-02 -1.587302e-02
     vertex -1.784806e-02 -5.317628e-02 -1.015873e+00
     vertex -1.784806e-02 -5.317628e-02 -1.587302e-02
   endloop
 endfacet
 facet normal -8.229839e-01  5.680647e-01  0.000000e+00
   outer loop
     vertex -9.787326e-03 -4.407760e-02 -1.587302e-02
     vertex -9.787326e-03 -4.407760e-02 -1.015873e+00
     vertex -1.326530e-02 -4.911631e-02 -1.587302e-02
   endloop
 endfacet
 facet normal -9.350162e-01  3.546049e-01  0.000000e+00
   outer loop
     vertex -7.616258e-03 -3.835296e-02 -1.587302e-02
     vertex -7.616258e-03 -3.835296e-02 -1.015873e+00
     vertex -9.787326e-03 -4.407760e-02 -1.015873e+00
   endloop
 endfacet
 facet normal -9.350162e-01  3.546049e-01  0.000000e+00
   outer loop
     vertex -7.616258e-03 -3.835296e-02 -1.587302e-02
     vertex -9.787326e-03 -4.407760e-02 -1.015873e+00
     vertex -9.787326e-03 -4.407760e-02 -1.587302e-02
   endloop
 endfacet
 facet normal -9.927089e-01  1.205367e-01  0.000000e+00
   outer loop
     vertex -6.878273e-03 -3.227510e-02 -1.587302e-02
     vertex -6.878273e-03 -3.227510e-02 -1.015873e+00
     vertex -7.616258e-03 -3.835296e-02 -1.015873e+00
   endloop
 endfacet
 facet normal -9.927089e-01  1.205367e-01  0.000000e+00
   outer loop
     vertex -6.878273e-03 -3.227510e-02 -1.587302e-02
     vertex -7.616258e-03 -3.835296e-02 -1.015873e+00
     vertex -7.616258e-03 -3.835296e-02 -1.587302e-02
   endloop
 endfacet
endsolid
