solid 
 facet normal -0.000000e+00  0.000000e+00 -1.000000e+00
   outer loop
     vertex  9.229277e-01 -1.587302e-02 -3.544986e-02
     vertex -2.945334e-02 -6.349207e-01 -3.544986e-02
     vertex -2.945334e-02 -1.587302e-02 -3.544986e-02
   endloop
 endfacet
 facet normal  0.000000e+00 -0.000000e+00 -1.000000e+00
   outer loop
     vertex  9.229277e-01 -1.587302e-02 -3.544986e-02
     vertex  9.229277e-01 -6.349207e-01 -3.544986e-02
     vertex -2.945334e-02 -6.349207e-01 -3.544986e-02
   endloop
 endfacet
 facet normal -9.994801e-01  0.000000e+00  3.224130e-02
   outer loop
     vertex -2.945334e-02 -1.587302e-02 -3.544986e-02
     vertex -1.181665e-02 -6.349207e-01  5.112874e-01
     vertex -1.181665e-02 -1.587302e-02  5.112874e-01
   endloop
 endfacet
 facet normal -9.994801e-01  0.000000e+00  3.224130e-02
   outer loop
     vertex -2.945334e-02 -1.587302e-02 -3.544986e-02
     vertex -2.945334e-02 -6.349207e-01 -3.544986e-02
     vertex -1.181665e-02 -6.349207e-01  5.112874e-01
   endloop
 endfacet
 facet normal  1.000000e+00  0.000000e+00  0.000000e+00
   outer loop
     vertex  9.229277e-01 -1.587302e-02  5.289240e-01
     vertex  9.229277e-01 -6.349207e-01 -3.544986e-02
     vertex  9.229277e-01 -1.587302e-02 -3.544986e-02
   endloop
 endfacet
 facet normal  1.000000e+00  0.000000e+00  0.000000e+00
   outer loop
     vertex  9.229277e-01 -1.587302e-02  5.289240e-01
     vertex  9.229277e-01 -6.349207e-01  5.289240e-01
     vertex  9.229277e-01 -6.349207e-01 -3.544986e-02
   endloop
 endfacet
 facet normal  0.000000e+00  0.000000e+00 -1.000000e+00
   outer loop
     vertex  9.229277e-01 -1.587302e-02 -3.544986e-02
     vertex -2.945334e-02 -1.587302e-02 -3.544986e-02
     vertex -2.945334e-02  0.000000e+00 -3.544986e-02
   endloop
 endfacet
 facet normal  0.000000e+00  0.000000e+00 -1.000000e+00
   outer loop
     vertex  9.229277e-01 -1.587302e-02 -3.544986e-02
     vertex -2.945334e-02  0.000000e+00 -3.544986e-02
     vertex  9.229277e-01  0.000000e+00 -3.544986e-02
   endloop
 endfacet
 facet normal  0.000000e+00 -1.000000e+00 -0.000000e+00
   outer loop
     vertex -1.181665e-02 -6.349207e-01  5.112874e-01
     vertex -2.945334e-02 -6.349207e-01 -3.544986e-02
     vertex  2.703703e-01 -6.349207e-01  7.037027e-02
   endloop
 endfacet
 facet normal -0.000000e+00 -1.000000e+00 -0.000000e+00
   outer loop
     vertex  2.703703e-01 -6.349207e-01  5.112874e-01
     vertex -1.181665e-02 -6.349207e-01  5.112874e-01
     vertex  2.703703e-01 -6.349207e-01  7.037027e-02
   endloop
 endfacet
 facet normal  0.000000e+00 -1.000000e+00  0.000000e+00
   outer loop
     vertex  9.229277e-01 -6.349207e-01 -3.544986e-02
     vertex  6.231040e-01 -6.349207e-01  7.037027e-02
     vertex  2.703703e-01 -6.349207e-01  7.037027e-02
   endloop
 endfacet
 facet normal  0.000000e+00 -1.000000e+00  0.000000e+00
   outer loop
     vertex  9.229277e-01 -6.349207e-01 -3.544986e-02
     vertex  2.703703e-01 -6.349207e-01  7.037027e-02
     vertex -2.945334e-02 -6.349207e-01 -3.544986e-02
   endloop
 endfacet
 facet normal -0.000000e+00 -1.000000e+00  0.000000e+00
   outer loop
     vertex  9.229277e-01 -6.349207e-01  5.289240e-01
     vertex  6.231040e-01 -6.349207e-01  5.289240e-01
     vertex  6.231040e-01 -6.349207e-01  7.037027e-02
   endloop
 endfacet
 facet normal  0.000000e+00 -1.000000e+00 -0.000000e+00
   outer loop
     vertex  9.229277e-01 -6.349207e-01  5.289240e-01
     vertex  6.231040e-01 -6.349207e-01  7.037027e-02
     vertex  9.229277e-01 -6.349207e-01 -3.544986e-02
   endloop
 endfacet
 facet normal -0.000000e+00  0.000000e+00  1.000000e+00
   outer loop
     vertex -1.181665e-02 -1.587302e-02  5.112874e-01
     vertex  2.703703e-01 -6.349207e-01  5.112874e-01
     vertex  2.703703e-01 -1.587302e-02  5.112874e-01
   endloop
 endfacet
 facet normal  0.000000e+00  0.000000e+00  1.000000e+00
   outer loop
     vertex -1.181665e-02 -1.587302e-02  5.112874e-01
     vertex -1.181665e-02 -6.349207e-01  5.112874e-01
     vertex  2.703703e-01 -6.349207e-01  5.112874e-01
   endloop
 endfacet
 facet normal -9.994801e-01  0.000000e+00  3.224130e-02
   outer loop
     vertex -2.945334e-02 -1.587302e-02 -3.544986e-02
     vertex -1.181665e-02 -1.587302e-02  5.112874e-01
     vertex -1.181665e-02  0.000000e+00  5.112874e-01
   endloop
 endfacet
 facet normal -9.994801e-01  0.000000e+00  3.224130e-02
   outer loop
     vertex -2.945334e-02 -1.587302e-02 -3.544986e-02
     vertex -1.181665e-02  0.000000e+00  5.112874e-01
     vertex -2.945334e-02  0.000000e+00 -3.544986e-02
   endloop
 endfacet
 facet normal -0.000000e+00  0.000000e+00  1.000000e+00
   outer loop
     vertex  6.231040e-01 -1.587302e-02  5.289240e-01
     vertex  9.229277e-01 -6.349207e-01  5.289240e-01
     vertex  9.229277e-01 -1.587302e-02  5.289240e-01
   endloop
 endfacet
 facet normal  0.000000e+00  0.000000e+00  1.000000e+00
   outer loop
     vertex  6.231040e-01 -1.587302e-02  5.289240e-01
     vertex  6.231040e-01 -6.349207e-01  5.289240e-01
     vertex  9.229277e-01 -6.349207e-01  5.289240e-01
   endloop
 endfacet
 facet normal  1.000000e+00  0.000000e+00  0.000000e+00
   outer loop
     vertex  9.229277e-01 -1.587302e-02  5.289240e-01
     vertex  9.229277e-01 -1.587302e-02 -3.544986e-02
     vertex  9.229277e-01  0.000000e+00 -3.544986e-02
   endloop
 endfacet
 facet normal  1.000000e+00 -0.000000e+00  0.000000e+00
   outer loop
     vertex  9.229277e-01 -1.587302e-02  5.289240e-01
     vertex  9.229277e-01  0.000000e+00 -3.544986e-02
     vertex  9.229277e-01  0.000000e+00  5.289240e-01
   endloop
 endfacet
 facet normal  0.000000e+00  1.000000e+00  0.000000e+00
   outer loop
     vertex -1.181665e-02 -4.510281e-17  5.112874e-01
     vertex  2.703703e-01 -4.510281e-17  7.037027e-02
     vertex -2.945334e-02 -4.510281e-17 -3.544986e-02
   endloop
 endfacet
 facet normal  0.000000e+00  1.000000e+00  0.000000e+00
   outer loop
     vertex  2.703703e-01 -4.510281e-17  5.112874e-01
     vertex  2.703703e-01 -4.510281e-17  7.037027e-02
     vertex -1.181665e-02 -4.510281e-17  5.112874e-01
   endloop
 endfacet
 facet normal  0.000000e+00  1.000000e+00  0.000000e+00
   outer loop
     vertex  9.229277e-01 -4.510281e-17 -3.544986e-02
     vertex  2.703703e-01 -4.510281e-17  7.037027e-02
     vertex  6.231040e-01 -4.510281e-17  7.037027e-02
   endloop
 endfacet
 facet normal  0.000000e+00  1.000000e+00  0.000000e+00
   outer loop
     vertex  9.229277e-01 -4.510281e-17 -3.544986e-02
     vertex -2.945334e-02 -4.510281e-17 -3.544986e-02
     vertex  2.703703e-01 -4.510281e-17  7.037027e-02
   endloop
 endfacet
 facet normal  0.000000e+00  1.000000e+00  0.000000e+00
   outer loop
     vertex  9.229277e-01 -4.510281e-17  5.289240e-01
     vertex  6.231040e-01 -4.510281e-17  7.037027e-02
     vertex  6.231040e-01 -4.510281e-17  5.289240e-01
   endloop
 endfacet
 facet normal  0.000000e+00  1.000000e+00  0.000000e+00
   outer loop
     vertex  9.229277e-01 -4.510281e-17  5.289240e-01
     vertex  9.229277e-01 -4.510281e-17 -3.544986e-02
     vertex  6.231040e-01 -4.510281e-17  7.037027e-02
   endloop
 endfacet
 facet normal -1.000000e+00  0.000000e+00  0.000000e+00
   outer loop
     vertex  6.231040e-01 -1.587302e-02  7.037027e-02
     vertex  6.231040e-01 -6.349207e-01  5.289240e-01
     vertex  6.231040e-01 -1.587302e-02  5.289240e-01
   endloop
 endfacet
 facet normal -1.000000e+00  0.000000e+00  0.000000e+00
   outer loop
     vertex  6.231040e-01 -1.587302e-02  7.037027e-02
     vertex  6.231040e-01 -6.349207e-01  7.037027e-02
     vertex  6.231040e-01 -6.349207e-01  5.289240e-01
   endloop
 endfacet
 facet normal -0.000000e+00  0.000000e+00  1.000000e+00
   outer loop
     vertex  2.703703e-01 -1.587302e-02  7.037027e-02
     vertex  6.231040e-01 -6.349207e-01  7.037027e-02
     vertex  6.231040e-01 -1.587302e-02  7.037027e-02
   endloop
 endfacet
 facet normal  0.000000e+00  0.000000e+00  1.000000e+00
   outer loop
     vertex  2.703703e-01 -1.587302e-02  7.037027e-02
     vertex  2.703703e-01 -6.349207e-01  7.037027e-02
     vertex  6.231040e-01 -6.349207e-01  7.037027e-02
   endloop
 endfacet
 facet normal  1.000000e+00  0.000000e+00  0.000000e+00
   outer loop
     vertex  2.703703e-01 -1.587302e-02  5.112874e-01
     vertex  2.703703e-01 -6.349207e-01  7.037027e-02
     vertex  2.703703e-01 -1.587302e-02  7.037027e-02
   endloop
 endfacet
 facet normal  1.000000e+00  0.000000e+00  0.000000e+00
   outer loop
     vertex  2.703703e-01 -1.587302e-02  5.112874e-01
     vertex  2.703703e-01 -6.349207e-01  5.112874e-01
     vertex  2.703703e-01 -6.349207e-01  7.037027e-02
   endloop
 endfacet
 facet normal  0.000000e+00  0.000000e+00  1.000000e+00
   outer loop
     vertex -1.181665e-02 -1.587302e-02  5.112874e-01
     vertex  2.703703e-01 -1.587302e-02  5.112874e-01
     vertex  2.703703e-01  0.000000e+00  5.112874e-01
   endloop
 endfacet
 facet normal  0.000000e+00  0.000000e+00  1.000000e+00
   outer loop
     vertex -1.181665e-02 -1.587302e-02  5.112874e-01
     vertex  2.703703e-01  0.000000e+00  5.112874e-01
     vertex -1.181665e-02  0.000000e+00  5.112874e-01
   endloop
 endfacet
 facet normal  0.000000e+00  0.000000e+00  1.000000e+00
   outer loop
     vertex  6.231040e-01 -1.587302e-02  5.289240e-01
     vertex  9.229277e-01 -1.587302e-02  5.289240e-01
     vertex  9.229277e-01  0.000000e+00  5.289240e-01
   endloop
 endfacet
 facet normal  0.000000e+00  0.000000e+00  1.000000e+00
   outer loop
     vertex  6.231040e-01 -1.587302e-02  5.289240e-01
     vertex  9.229277e-01  0.000000e+00  5.289240e-01
     vertex  6.231040e-01  0.000000e+00  5.289240e-01
   endloop
 endfacet
 facet normal -1.000000e+00  0.000000e+00  0.000000e+00
   outer loop
     vertex  6.231040e-01 -1.587302e-02  7.037027e-02
     vertex  6.231040e-01 -1.587302e-02  5.289240e-01
     vertex  6.231040e-01  0.000000e+00  5.289240e-01
   endloop
 endfacet
 facet normal -1.000000e+00  0.000000e+00  0.000000e+00
   outer loop
     vertex  6.231040e-01 -1.587302e-02  7.037027e-02
     vertex  6.231040e-01  0.000000e+00  5.289240e-01
     vertex  6.231040e-01  0.000000e+00  7.037027e-02
   endloop
 endfacet
 facet normal  0.000000e+00  0.000000e+00  1.000000e+00
   outer loop
     vertex  2.703703e-01 -1.587302e-02  7.037027e-02
     vertex  6.231040e-01 -1.587302e-02  7.037027e-02
     vertex  6.231040e-01  0.000000e+00  7.037027e-02
   endloop
 endfacet
 facet normal  0.000000e+00  0.000000e+00  1.000000e+00
   outer loop
     vertex  2.703703e-01 -1.587302e-02  7.037027e-02
     vertex  6.231040e-01  0.000000e+00  7.037027e-02
     vertex  2.703703e-01  0.000000e+00  7.037027e-02
   endloop
 endfacet
 facet normal  1.000000e+00  0.000000e+00  0.000000e+00
   outer loop
     vertex  2.703703e-01 -1.587302e-02  5.112874e-01
     vertex  2.703703e-01 -1.587302e-02  7.037027e-02
     vertex  2.703703e-01  0.000000e+00  7.037027e-02
   endloop
 endfacet
 facet normal  1.000000e+00 -0.000000e+00  0.000000e+00
   outer loop
     vertex  2.703703e-01 -1.587302e-02  5.112874e-01
     vertex  2.703703e-01  0.000000e+00  7.037027e-02
     vertex  2.703703e-01  0.000000e+00  5.112874e-01
   endloop
 endfacet
endsolid
