solid 
 facet normal -0.000000e+00 -1.000000e+00  0.000000e+00
   outer loop
     vertex  9.179894e-01 -4.329806e-01 -3.174603e-02
     vertex -2.310413e-02 -4.329806e-01 -3.174603e-02
     vertex -2.310413e-02 -4.329806e-01 -6.349206e-02
   endloop
 endfacet
 facet normal  0.000000e+00 -1.000000e+00 -0.000000e+00
   outer loop
     vertex  9.179894e-01 -4.329806e-01 -3.174603e-02
     vertex -2.310413e-02 -4.329806e-01 -6.349206e-02
     vertex  9.179894e-01 -4.329806e-01 -6.349206e-02
   endloop
 endfacet
 facet normal  0.000000e+00  0.000000e+00  1.000000e+00
   outer loop
     vertex  7.225840e-02 -1.570566e-01 -3.174603e-02
     vertex -2.310413e-02 -9.223984e-02 -3.174603e-02
     vertex -2.310413e-02 -4.329806e-01 -3.174603e-02
   endloop
 endfacet
 facet normal  0.000000e+00  0.000000e+00  1.000000e+00
   outer loop
     vertex  7.665021e-02 -1.609474e-01 -3.174603e-02
     vertex  7.225840e-02 -1.570566e-01 -3.174603e-02
     vertex -2.310413e-02 -4.329806e-01 -3.174603e-02
   endloop
 endfacet
 facet normal  0.000000e+00  0.000000e+00  1.000000e+00
   outer loop
     vertex  6.892534e-02 -1.522278e-01 -3.174603e-02
     vertex -2.310413e-02 -9.223984e-02 -3.174603e-02
     vertex  7.225840e-02 -1.570566e-01 -3.174603e-02
   endloop
 endfacet
 facet normal  0.000000e+00  0.000000e+00  1.000000e+00
   outer loop
     vertex  8.184553e-02 -1.636741e-01 -3.174603e-02
     vertex  7.665021e-02 -1.609474e-01 -3.174603e-02
     vertex -2.310413e-02 -4.329806e-01 -3.174603e-02
   endloop
 endfacet
 facet normal  0.000000e+00  0.000000e+00  1.000000e+00
   outer loop
     vertex  6.684474e-02 -1.467417e-01 -3.174603e-02
     vertex -2.310413e-02 -9.223984e-02 -3.174603e-02
     vertex  6.892534e-02 -1.522278e-01 -3.174603e-02
   endloop
 endfacet
 facet normal  0.000000e+00  0.000000e+00  1.000000e+00
   outer loop
     vertex  8.754243e-02 -1.650783e-01 -3.174603e-02
     vertex  8.184553e-02 -1.636741e-01 -3.174603e-02
     vertex -2.310413e-02 -4.329806e-01 -3.174603e-02
   endloop
 endfacet
 facet normal  0.000000e+00  0.000000e+00  1.000000e+00
   outer loop
     vertex  6.613750e-02 -1.409171e-01 -3.174603e-02
     vertex -2.310413e-02 -9.223984e-02 -3.174603e-02
     vertex  6.684474e-02 -1.467417e-01 -3.174603e-02
   endloop
 endfacet
 facet normal  0.000000e+00  0.000000e+00  1.000000e+00
   outer loop
     vertex  9.340982e-02 -1.650783e-01 -3.174603e-02
     vertex  8.754243e-02 -1.650783e-01 -3.174603e-02
     vertex -2.310413e-02 -4.329806e-01 -3.174603e-02
   endloop
 endfacet
 facet normal  0.000000e+00  0.000000e+00  1.000000e+00
   outer loop
     vertex  6.684474e-02 -1.350925e-01 -3.174603e-02
     vertex  2.561041e-03 -7.378819e-02 -3.174603e-02
     vertex -2.310413e-02 -9.223984e-02 -3.174603e-02
   endloop
 endfacet
 facet normal  0.000000e+00  0.000000e+00  1.000000e+00
   outer loop
     vertex  6.684474e-02 -1.350925e-01 -3.174603e-02
     vertex -2.310413e-02 -9.223984e-02 -3.174603e-02
     vertex  6.613750e-02 -1.409171e-01 -3.174603e-02
   endloop
 endfacet
 facet normal  0.000000e+00  0.000000e+00  1.000000e+00
   outer loop
     vertex  9.910672e-02 -1.636741e-01 -3.174603e-02
     vertex  9.340982e-02 -1.650783e-01 -3.174603e-02
     vertex -2.310413e-02 -4.329806e-01 -3.174603e-02
   endloop
 endfacet
 facet normal  0.000000e+00  0.000000e+00  1.000000e+00
   outer loop
     vertex  6.892534e-02 -1.296064e-01 -3.174603e-02
     vertex  2.561041e-03 -7.378819e-02 -3.174603e-02
     vertex  6.684474e-02 -1.350925e-01 -3.174603e-02
   endloop
 endfacet
 facet normal  0.000000e+00  0.000000e+00  1.000000e+00
   outer loop
     vertex  1.043020e-01 -1.609474e-01 -3.174603e-02
     vertex  9.910672e-02 -1.636741e-01 -3.174603e-02
     vertex -2.310413e-02 -4.329806e-01 -3.174603e-02
   endloop
 endfacet
 facet normal  0.000000e+00  0.000000e+00  1.000000e+00
   outer loop
     vertex  7.225840e-02 -1.247776e-01 -3.174603e-02
     vertex  2.561041e-03 -7.378819e-02 -3.174603e-02
     vertex  6.892534e-02 -1.296064e-01 -3.174603e-02
   endloop
 endfacet
 facet normal  0.000000e+00  0.000000e+00  1.000000e+00
   outer loop
     vertex  1.086938e-01 -1.570566e-01 -3.174603e-02
     vertex  1.043020e-01 -1.609474e-01 -3.174603e-02
     vertex -2.310413e-02 -4.329806e-01 -3.174603e-02
   endloop
 endfacet
 facet normal  0.000000e+00  0.000000e+00  1.000000e+00
   outer loop
     vertex  2.966602e-02 -5.752520e-02 -3.174603e-02
     vertex  7.225840e-02 -1.247776e-01 -3.174603e-02
     vertex  7.665021e-02 -1.208868e-01 -3.174603e-02
   endloop
 endfacet
 facet normal  0.000000e+00  0.000000e+00  1.000000e+00
   outer loop
     vertex  2.966602e-02 -5.752520e-02 -3.174603e-02
     vertex  2.561041e-03 -7.378819e-02 -3.174603e-02
     vertex  7.225840e-02 -1.247776e-01 -3.174603e-02
   endloop
 endfacet
 facet normal  0.000000e+00  0.000000e+00  1.000000e+00
   outer loop
     vertex  5.802461e-02 -4.356259e-02 -3.174603e-02
     vertex  2.966602e-02 -5.752520e-02 -3.174603e-02
     vertex  7.665021e-02 -1.208868e-01 -3.174603e-02
   endloop
 endfacet
 facet normal  0.000000e+00  0.000000e+00  1.000000e+00
   outer loop
     vertex  5.802461e-02 -4.356259e-02 -3.174603e-02
     vertex  1.043020e-01 -1.208868e-01 -3.174603e-02
     vertex  1.086938e-01 -1.247776e-01 -3.174603e-02
   endloop
 endfacet
 facet normal  0.000000e+00  0.000000e+00  1.000000e+00
   outer loop
     vertex  5.802461e-02 -4.356259e-02 -3.174603e-02
     vertex  9.910672e-02 -1.181601e-01 -3.174603e-02
     vertex  1.043020e-01 -1.208868e-01 -3.174603e-02
   endloop
 endfacet
 facet normal  0.000000e+00  0.000000e+00  1.000000e+00
   outer loop
     vertex  5.802461e-02 -4.356259e-02 -3.174603e-02
     vertex  9.340982e-02 -1.167559e-01 -3.174603e-02
     vertex  9.910672e-02 -1.181601e-01 -3.174603e-02
   endloop
 endfacet
 facet normal  0.000000e+00  0.000000e+00  1.000000e+00
   outer loop
     vertex  5.802461e-02 -4.356259e-02 -3.174603e-02
     vertex  8.754243e-02 -1.167559e-01 -3.174603e-02
     vertex  9.340982e-02 -1.167559e-01 -3.174603e-02
   endloop
 endfacet
 facet normal  0.000000e+00  0.000000e+00  1.000000e+00
   outer loop
     vertex  5.802461e-02 -4.356259e-02 -3.174603e-02
     vertex  8.184553e-02 -1.181601e-01 -3.174603e-02
     vertex  8.754243e-02 -1.167559e-01 -3.174603e-02
   endloop
 endfacet
 facet normal  0.000000e+00  0.000000e+00  1.000000e+00
   outer loop
     vertex  5.802461e-02 -4.356259e-02 -3.174603e-02
     vertex  7.665021e-02 -1.208868e-01 -3.174603e-02
     vertex  8.184553e-02 -1.181601e-01 -3.174603e-02
   endloop
 endfacet
 facet normal  0.000000e+00  0.000000e+00  1.000000e+00
   outer loop
     vertex  7.861914e-01 -1.570566e-01 -3.174603e-02
     vertex -2.310413e-02 -4.329806e-01 -3.174603e-02
     vertex  9.179894e-01 -4.329806e-01 -3.174603e-02
   endloop
 endfacet
 facet normal  0.000000e+00  0.000000e+00  1.000000e+00
   outer loop
     vertex  7.861914e-01 -1.570566e-01 -3.174603e-02
     vertex  1.086938e-01 -1.570566e-01 -3.174603e-02
     vertex -2.310413e-02 -4.329806e-01 -3.174603e-02
   endloop
 endfacet
 facet normal  0.000000e+00  0.000000e+00  1.000000e+00
   outer loop
     vertex  7.905832e-01 -1.609474e-01 -3.174603e-02
     vertex  7.861914e-01 -1.570566e-01 -3.174603e-02
     vertex  9.179894e-01 -4.329806e-01 -3.174603e-02
   endloop
 endfacet
 facet normal  0.000000e+00  0.000000e+00  1.000000e+00
   outer loop
     vertex  7.828583e-01 -1.522278e-01 -3.174603e-02
     vertex  1.086938e-01 -1.570566e-01 -3.174603e-02
     vertex  7.861914e-01 -1.570566e-01 -3.174603e-02
   endloop
 endfacet
 facet normal  0.000000e+00  0.000000e+00  1.000000e+00
   outer loop
     vertex  7.828583e-01 -1.522278e-01 -3.174603e-02
     vertex  1.120269e-01 -1.522278e-01 -3.174603e-02
     vertex  1.086938e-01 -1.570566e-01 -3.174603e-02
   endloop
 endfacet
 facet normal  0.000000e+00  0.000000e+00  1.000000e+00
   outer loop
     vertex  7.957785e-01 -1.636741e-01 -3.174603e-02
     vertex  7.905832e-01 -1.609474e-01 -3.174603e-02
     vertex  9.179894e-01 -4.329806e-01 -3.174603e-02
   endloop
 endfacet
 facet normal  0.000000e+00  0.000000e+00  1.000000e+00
   outer loop
     vertex  7.807777e-01 -1.467417e-01 -3.174603e-02
     vertex  1.120269e-01 -1.522278e-01 -3.174603e-02
     vertex  7.828583e-01 -1.522278e-01 -3.174603e-02
   endloop
 endfacet
 facet normal  0.000000e+00  0.000000e+00  1.000000e+00
   outer loop
     vertex  7.807777e-01 -1.467417e-01 -3.174603e-02
     vertex  1.141075e-01 -1.467417e-01 -3.174603e-02
     vertex  1.120269e-01 -1.522278e-01 -3.174603e-02
   endloop
 endfacet
 facet normal  0.000000e+00  0.000000e+00  1.000000e+00
   outer loop
     vertex  8.014754e-01 -1.650783e-01 -3.174603e-02
     vertex  7.957785e-01 -1.636741e-01 -3.174603e-02
     vertex  9.179894e-01 -4.329806e-01 -3.174603e-02
   endloop
 endfacet
 facet normal  0.000000e+00  0.000000e+00  1.000000e+00
   outer loop
     vertex  7.800705e-01 -1.409171e-01 -3.174603e-02
     vertex  1.148147e-01 -1.409171e-01 -3.174603e-02
     vertex  1.141075e-01 -1.467417e-01 -3.174603e-02
   endloop
 endfacet
 facet normal  0.000000e+00  0.000000e+00  1.000000e+00
   outer loop
     vertex  7.800705e-01 -1.409171e-01 -3.174603e-02
     vertex  1.141075e-01 -1.467417e-01 -3.174603e-02
     vertex  7.807777e-01 -1.467417e-01 -3.174603e-02
   endloop
 endfacet
 facet normal  0.000000e+00  0.000000e+00  1.000000e+00
   outer loop
     vertex  8.073428e-01 -1.650783e-01 -3.174603e-02
     vertex  8.014754e-01 -1.650783e-01 -3.174603e-02
     vertex  9.179894e-01 -4.329806e-01 -3.174603e-02
   endloop
 endfacet
 facet normal  0.000000e+00  0.000000e+00  1.000000e+00
   outer loop
     vertex  7.807777e-01 -1.350925e-01 -3.174603e-02
     vertex  1.141075e-01 -1.350925e-01 -3.174603e-02
     vertex  1.148147e-01 -1.409171e-01 -3.174603e-02
   endloop
 endfacet
 facet normal  0.000000e+00  0.000000e+00  1.000000e+00
   outer loop
     vertex  7.807777e-01 -1.350925e-01 -3.174603e-02
     vertex  1.148147e-01 -1.409171e-01 -3.174603e-02
     vertex  7.800705e-01 -1.409171e-01 -3.174603e-02
   endloop
 endfacet
 facet normal  0.000000e+00  0.000000e+00  1.000000e+00
   outer loop
     vertex  8.130397e-01 -1.636741e-01 -3.174603e-02
     vertex  8.073428e-01 -1.650783e-01 -3.174603e-02
     vertex  9.179894e-01 -4.329806e-01 -3.174603e-02
   endloop
 endfacet
 facet normal  0.000000e+00  0.000000e+00  1.000000e+00
   outer loop
     vertex  7.828583e-01 -1.296064e-01 -3.174603e-02
     vertex  1.120269e-01 -1.296064e-01 -3.174603e-02
     vertex  1.141075e-01 -1.350925e-01 -3.174603e-02
   endloop
 endfacet
 facet normal  0.000000e+00  0.000000e+00  1.000000e+00
   outer loop
     vertex  7.828583e-01 -1.296064e-01 -3.174603e-02
     vertex  1.141075e-01 -1.350925e-01 -3.174603e-02
     vertex  7.807777e-01 -1.350925e-01 -3.174603e-02
   endloop
 endfacet
 facet normal  0.000000e+00  0.000000e+00  1.000000e+00
   outer loop
     vertex  8.182350e-01 -1.609474e-01 -3.174603e-02
     vertex  8.130397e-01 -1.636741e-01 -3.174603e-02
     vertex  9.179894e-01 -4.329806e-01 -3.174603e-02
   endloop
 endfacet
 facet normal  0.000000e+00  0.000000e+00  1.000000e+00
   outer loop
     vertex  7.861914e-01 -1.247776e-01 -3.174603e-02
     vertex  5.802461e-02 -4.356259e-02 -3.174603e-02
     vertex  1.086938e-01 -1.247776e-01 -3.174603e-02
   endloop
 endfacet
 facet normal  0.000000e+00  0.000000e+00  1.000000e+00
   outer loop
     vertex  7.861914e-01 -1.247776e-01 -3.174603e-02
     vertex  1.086938e-01 -1.247776e-01 -3.174603e-02
     vertex  1.120269e-01 -1.296064e-01 -3.174603e-02
   endloop
 endfacet
 facet normal  0.000000e+00  0.000000e+00  1.000000e+00
   outer loop
     vertex  7.861914e-01 -1.247776e-01 -3.174603e-02
     vertex  1.120269e-01 -1.296064e-01 -3.174603e-02
     vertex  7.828583e-01 -1.296064e-01 -3.174603e-02
   endloop
 endfacet
 facet normal  0.000000e+00  0.000000e+00  1.000000e+00
   outer loop
     vertex  8.226268e-01 -1.570566e-01 -3.174603e-02
     vertex  8.182350e-01 -1.609474e-01 -3.174603e-02
     vertex  9.179894e-01 -4.329806e-01 -3.174603e-02
   endloop
 endfacet
 facet normal  0.000000e+00  0.000000e+00  1.000000e+00
   outer loop
     vertex  8.368607e-01 -4.356259e-02 -3.174603e-02
     vertex  8.130397e-01 -1.181601e-01 -3.174603e-02
     vertex  8.182350e-01 -1.208868e-01 -3.174603e-02
   endloop
 endfacet
 facet normal  0.000000e+00  0.000000e+00  1.000000e+00
   outer loop
     vertex  8.368607e-01 -4.356259e-02 -3.174603e-02
     vertex  8.073428e-01 -1.167559e-01 -3.174603e-02
     vertex  8.130397e-01 -1.181601e-01 -3.174603e-02
   endloop
 endfacet
 facet normal  0.000000e+00  0.000000e+00  1.000000e+00
   outer loop
     vertex  8.368607e-01 -4.356259e-02 -3.174603e-02
     vertex  8.014754e-01 -1.167559e-01 -3.174603e-02
     vertex  8.073428e-01 -1.167559e-01 -3.174603e-02
   endloop
 endfacet
 facet normal  0.000000e+00  0.000000e+00  1.000000e+00
   outer loop
     vertex  8.368607e-01 -4.356259e-02 -3.174603e-02
     vertex  7.957785e-01 -1.181601e-01 -3.174603e-02
     vertex  8.014754e-01 -1.167559e-01 -3.174603e-02
   endloop
 endfacet
 facet normal  0.000000e+00  0.000000e+00  1.000000e+00
   outer loop
     vertex  8.368607e-01 -4.356259e-02 -3.174603e-02
     vertex  7.905832e-01 -1.208868e-01 -3.174603e-02
     vertex  7.957785e-01 -1.181601e-01 -3.174603e-02
   endloop
 endfacet
 facet normal  0.000000e+00  0.000000e+00  1.000000e+00
   outer loop
     vertex  8.368607e-01 -4.356259e-02 -3.174603e-02
     vertex  7.861914e-01 -1.247776e-01 -3.174603e-02
     vertex  7.905832e-01 -1.208868e-01 -3.174603e-02
   endloop
 endfacet
 facet normal  0.000000e+00  0.000000e+00  1.000000e+00
   outer loop
     vertex  8.368607e-01 -4.356259e-02 -3.174603e-02
     vertex  5.802461e-02 -4.356259e-02 -3.174603e-02
     vertex  7.861914e-01 -1.247776e-01 -3.174603e-02
   endloop
 endfacet
 facet normal  0.000000e+00  0.000000e+00  1.000000e+00
   outer loop
     vertex  8.652192e-01 -5.752523e-02 -3.174603e-02
     vertex  8.182350e-01 -1.208868e-01 -3.174603e-02
     vertex  8.226268e-01 -1.247776e-01 -3.174603e-02
   endloop
 endfacet
 facet normal  0.000000e+00  0.000000e+00  1.000000e+00
   outer loop
     vertex  8.652192e-01 -5.752523e-02 -3.174603e-02
     vertex  8.368607e-01 -4.356259e-02 -3.174603e-02
     vertex  8.182350e-01 -1.208868e-01 -3.174603e-02
   endloop
 endfacet
 facet normal  0.000000e+00  0.000000e+00  1.000000e+00
   outer loop
     vertex  8.923242e-01 -7.378822e-02 -3.174603e-02
     vertex  8.259599e-01 -1.296064e-01 -3.174603e-02
     vertex  8.280405e-01 -1.350925e-01 -3.174603e-02
   endloop
 endfacet
 facet normal  0.000000e+00  0.000000e+00  1.000000e+00
   outer loop
     vertex  8.923242e-01 -7.378822e-02 -3.174603e-02
     vertex  8.226268e-01 -1.247776e-01 -3.174603e-02
     vertex  8.259599e-01 -1.296064e-01 -3.174603e-02
   endloop
 endfacet
 facet normal  0.000000e+00  0.000000e+00  1.000000e+00
   outer loop
     vertex  8.923242e-01 -7.378822e-02 -3.174603e-02
     vertex  8.652192e-01 -5.752523e-02 -3.174603e-02
     vertex  8.226268e-01 -1.247776e-01 -3.174603e-02
   endloop
 endfacet
 facet normal  0.000000e+00  0.000000e+00  1.000000e+00
   outer loop
     vertex  9.179894e-01 -9.223984e-02 -3.174603e-02
     vertex  8.280405e-01 -1.350925e-01 -3.174603e-02
     vertex  8.287477e-01 -1.409171e-01 -3.174603e-02
   endloop
 endfacet
 facet normal  0.000000e+00  0.000000e+00  1.000000e+00
   outer loop
     vertex  9.179894e-01 -9.223984e-02 -3.174603e-02
     vertex  8.226268e-01 -1.570566e-01 -3.174603e-02
     vertex  9.179894e-01 -4.329806e-01 -3.174603e-02
   endloop
 endfacet
 facet normal  0.000000e+00  0.000000e+00  1.000000e+00
   outer loop
     vertex  9.179894e-01 -9.223984e-02 -3.174603e-02
     vertex  8.259599e-01 -1.522278e-01 -3.174603e-02
     vertex  8.226268e-01 -1.570566e-01 -3.174603e-02
   endloop
 endfacet
 facet normal  0.000000e+00  0.000000e+00  1.000000e+00
   outer loop
     vertex  9.179894e-01 -9.223984e-02 -3.174603e-02
     vertex  8.280405e-01 -1.467417e-01 -3.174603e-02
     vertex  8.259599e-01 -1.522278e-01 -3.174603e-02
   endloop
 endfacet
 facet normal  0.000000e+00  0.000000e+00  1.000000e+00
   outer loop
     vertex  9.179894e-01 -9.223984e-02 -3.174603e-02
     vertex  8.287477e-01 -1.409171e-01 -3.174603e-02
     vertex  8.280405e-01 -1.467417e-01 -3.174603e-02
   endloop
 endfacet
 facet normal  0.000000e+00  0.000000e+00  1.000000e+00
   outer loop
     vertex  9.179894e-01 -9.223984e-02 -3.174603e-02
     vertex  8.923242e-01 -7.378822e-02 -3.174603e-02
     vertex  8.280405e-01 -1.350925e-01 -3.174603e-02
   endloop
 endfacet
 facet normal  1.000000e+00  3.258263e-16  0.000000e+00
   outer loop
     vertex  9.179894e-01 -9.223984e-02 -3.174603e-02
     vertex  9.179894e-01 -4.329806e-01 -3.174603e-02
     vertex  9.179894e-01 -4.329806e-01 -6.349206e-02
   endloop
 endfacet
 facet normal  1.000000e+00  3.258263e-16  0.000000e+00
   outer loop
     vertex  9.179894e-01 -9.223984e-02 -3.174603e-02
     vertex  9.179894e-01 -4.329806e-01 -6.349206e-02
     vertex  9.179894e-01 -9.223984e-02 -6.349206e-02
   endloop
 endfacet
 facet normal -0.000000e+00  0.000000e+00 -1.000000e+00
   outer loop
     vertex  7.225840e-02 -1.570566e-01 -6.349206e-02
     vertex -2.310413e-02 -4.329806e-01 -6.349206e-02
     vertex -2.310413e-02 -9.223984e-02 -6.349206e-02
   endloop
 endfacet
 facet normal -0.000000e+00  0.000000e+00 -1.000000e+00
   outer loop
     vertex  7.665021e-02 -1.609474e-01 -6.349206e-02
     vertex -2.310413e-02 -4.329806e-01 -6.349206e-02
     vertex  7.225840e-02 -1.570566e-01 -6.349206e-02
   endloop
 endfacet
 facet normal -0.000000e+00 -0.000000e+00 -1.000000e+00
   outer loop
     vertex  6.892534e-02 -1.522278e-01 -6.349206e-02
     vertex  7.225840e-02 -1.570566e-01 -6.349206e-02
     vertex -2.310413e-02 -9.223984e-02 -6.349206e-02
   endloop
 endfacet
 facet normal -0.000000e+00  0.000000e+00 -1.000000e+00
   outer loop
     vertex  8.184553e-02 -1.636741e-01 -6.349206e-02
     vertex -2.310413e-02 -4.329806e-01 -6.349206e-02
     vertex  7.665021e-02 -1.609474e-01 -6.349206e-02
   endloop
 endfacet
 facet normal -0.000000e+00 -0.000000e+00 -1.000000e+00
   outer loop
     vertex  6.684474e-02 -1.467417e-01 -6.349206e-02
     vertex  6.892534e-02 -1.522278e-01 -6.349206e-02
     vertex -2.310413e-02 -9.223984e-02 -6.349206e-02
   endloop
 endfacet
 facet normal -0.000000e+00  0.000000e+00 -1.000000e+00
   outer loop
     vertex  8.754243e-02 -1.650783e-01 -6.349206e-02
     vertex -2.310413e-02 -4.329806e-01 -6.349206e-02
     vertex  8.184553e-02 -1.636741e-01 -6.349206e-02
   endloop
 endfacet
 facet normal -0.000000e+00 -0.000000e+00 -1.000000e+00
   outer loop
     vertex  6.613750e-02 -1.409171e-01 -6.349206e-02
     vertex  6.684474e-02 -1.467417e-01 -6.349206e-02
     vertex -2.310413e-02 -9.223984e-02 -6.349206e-02
   endloop
 endfacet
 facet normal -0.000000e+00  0.000000e+00 -1.000000e+00
   outer loop
     vertex  9.340982e-02 -1.650783e-01 -6.349206e-02
     vertex -2.310413e-02 -4.329806e-01 -6.349206e-02
     vertex  8.754243e-02 -1.650783e-01 -6.349206e-02
   endloop
 endfacet
 facet normal  0.000000e+00  0.000000e+00 -1.000000e+00
   outer loop
     vertex  6.684474e-02 -1.350925e-01 -6.349206e-02
     vertex -2.310413e-02 -9.223984e-02 -6.349206e-02
     vertex  2.561041e-03 -7.378819e-02 -6.349206e-02
   endloop
 endfacet
 facet normal -0.000000e+00  0.000000e+00 -1.000000e+00
   outer loop
     vertex  6.684474e-02 -1.350925e-01 -6.349206e-02
     vertex  6.613750e-02 -1.409171e-01 -6.349206e-02
     vertex -2.310413e-02 -9.223984e-02 -6.349206e-02
   endloop
 endfacet
 facet normal  0.000000e+00  0.000000e+00 -1.000000e+00
   outer loop
     vertex  9.910672e-02 -1.636741e-01 -6.349206e-02
     vertex -2.310413e-02 -4.329806e-01 -6.349206e-02
     vertex  9.340982e-02 -1.650783e-01 -6.349206e-02
   endloop
 endfacet
 facet normal -0.000000e+00  0.000000e+00 -1.000000e+00
   outer loop
     vertex  6.892534e-02 -1.296064e-01 -6.349206e-02
     vertex  6.684474e-02 -1.350925e-01 -6.349206e-02
     vertex  2.561041e-03 -7.378819e-02 -6.349206e-02
   endloop
 endfacet
 facet normal  0.000000e+00  0.000000e+00 -1.000000e+00
   outer loop
     vertex  1.043020e-01 -1.609474e-01 -6.349206e-02
     vertex -2.310413e-02 -4.329806e-01 -6.349206e-02
     vertex  9.910672e-02 -1.636741e-01 -6.349206e-02
   endloop
 endfacet
 facet normal -0.000000e+00  0.000000e+00 -1.000000e+00
   outer loop
     vertex  7.225840e-02 -1.247776e-01 -6.349206e-02
     vertex  6.892534e-02 -1.296064e-01 -6.349206e-02
     vertex  2.561041e-03 -7.378819e-02 -6.349206e-02
   endloop
 endfacet
 facet normal  0.000000e+00  0.000000e+00 -1.000000e+00
   outer loop
     vertex  1.086938e-01 -1.570566e-01 -6.349206e-02
     vertex -2.310413e-02 -4.329806e-01 -6.349206e-02
     vertex  1.043020e-01 -1.609474e-01 -6.349206e-02
   endloop
 endfacet
 facet normal  0.000000e+00  0.000000e+00 -1.000000e+00
   outer loop
     vertex  2.966602e-02 -5.752520e-02 -6.349206e-02
     vertex  7.665021e-02 -1.208868e-01 -6.349206e-02
     vertex  7.225840e-02 -1.247776e-01 -6.349206e-02
   endloop
 endfacet
 facet normal  0.000000e+00 -0.000000e+00 -1.000000e+00
   outer loop
     vertex  2.966602e-02 -5.752520e-02 -6.349206e-02
     vertex  7.225840e-02 -1.247776e-01 -6.349206e-02
     vertex  2.561041e-03 -7.378819e-02 -6.349206e-02
   endloop
 endfacet
 facet normal  0.000000e+00 -0.000000e+00 -1.000000e+00
   outer loop
     vertex  5.802461e-02 -4.356259e-02 -6.349206e-02
     vertex  7.665021e-02 -1.208868e-01 -6.349206e-02
     vertex  2.966602e-02 -5.752520e-02 -6.349206e-02
   endloop
 endfacet
 facet normal  0.000000e+00  0.000000e+00 -1.000000e+00
   outer loop
     vertex  5.802461e-02 -4.356259e-02 -6.349206e-02
     vertex  1.086938e-01 -1.247776e-01 -6.349206e-02
     vertex  1.043020e-01 -1.208868e-01 -6.349206e-02
   endloop
 endfacet
 facet normal  0.000000e+00  0.000000e+00 -1.000000e+00
   outer loop
     vertex  5.802461e-02 -4.356259e-02 -6.349206e-02
     vertex  1.043020e-01 -1.208868e-01 -6.349206e-02
     vertex  9.910672e-02 -1.181601e-01 -6.349206e-02
   endloop
 endfacet
 facet normal  0.000000e+00  0.000000e+00 -1.000000e+00
   outer loop
     vertex  5.802461e-02 -4.356259e-02 -6.349206e-02
     vertex  9.910672e-02 -1.181601e-01 -6.349206e-02
     vertex  9.340982e-02 -1.167559e-01 -6.349206e-02
   endloop
 endfacet
 facet normal  0.000000e+00  0.000000e+00 -1.000000e+00
   outer loop
     vertex  5.802461e-02 -4.356259e-02 -6.349206e-02
     vertex  9.340982e-02 -1.167559e-01 -6.349206e-02
     vertex  8.754243e-02 -1.167559e-01 -6.349206e-02
   endloop
 endfacet
 facet normal  0.000000e+00  0.000000e+00 -1.000000e+00
   outer loop
     vertex  5.802461e-02 -4.356259e-02 -6.349206e-02
     vertex  8.754243e-02 -1.167559e-01 -6.349206e-02
     vertex  8.184553e-02 -1.181601e-01 -6.349206e-02
   endloop
 endfacet
 facet normal  0.000000e+00  0.000000e+00 -1.000000e+00
   outer loop
     vertex  5.802461e-02 -4.356259e-02 -6.349206e-02
     vertex  8.184553e-02 -1.181601e-01 -6.349206e-02
     vertex  7.665021e-02 -1.208868e-01 -6.349206e-02
   endloop
 endfacet
 facet normal  0.000000e+00 -0.000000e+00 -1.000000e+00
   outer loop
     vertex  7.861914e-01 -1.570566e-01 -6.349206e-02
     vertex  9.179894e-01 -4.329806e-01 -6.349206e-02
     vertex -2.310413e-02 -4.329806e-01 -6.349206e-02
   endloop
 endfacet
 facet normal  0.000000e+00  0.000000e+00 -1.000000e+00
   outer loop
     vertex  7.861914e-01 -1.570566e-01 -6.349206e-02
     vertex -2.310413e-02 -4.329806e-01 -6.349206e-02
     vertex  1.086938e-01 -1.570566e-01 -6.349206e-02
   endloop
 endfacet
 facet normal -0.000000e+00 -0.000000e+00 -1.000000e+00
   outer loop
     vertex  7.905832e-01 -1.609474e-01 -6.349206e-02
     vertex  9.179894e-01 -4.329806e-01 -6.349206e-02
     vertex  7.861914e-01 -1.570566e-01 -6.349206e-02
   endloop
 endfacet
 facet normal  0.000000e+00 -0.000000e+00 -1.000000e+00
   outer loop
     vertex  7.828583e-01 -1.522278e-01 -6.349206e-02
     vertex  7.861914e-01 -1.570566e-01 -6.349206e-02
     vertex  1.086938e-01 -1.570566e-01 -6.349206e-02
   endloop
 endfacet
 facet normal  0.000000e+00  0.000000e+00 -1.000000e+00
   outer loop
     vertex  7.828583e-01 -1.522278e-01 -6.349206e-02
     vertex  1.086938e-01 -1.570566e-01 -6.349206e-02
     vertex  1.120269e-01 -1.522278e-01 -6.349206e-02
   endloop
 endfacet
 facet normal -0.000000e+00 -0.000000e+00 -1.000000e+00
   outer loop
     vertex  7.957785e-01 -1.636741e-01 -6.349206e-02
     vertex  9.179894e-01 -4.329806e-01 -6.349206e-02
     vertex  7.905832e-01 -1.609474e-01 -6.349206e-02
   endloop
 endfacet
 facet normal  0.000000e+00 -0.000000e+00 -1.000000e+00
   outer loop
     vertex  7.807777e-01 -1.467417e-01 -6.349206e-02
     vertex  7.828583e-01 -1.522278e-01 -6.349206e-02
     vertex  1.120269e-01 -1.522278e-01 -6.349206e-02
   endloop
 endfacet
 facet normal  0.000000e+00  0.000000e+00 -1.000000e+00
   outer loop
     vertex  7.807777e-01 -1.467417e-01 -6.349206e-02
     vertex  1.120269e-01 -1.522278e-01 -6.349206e-02
     vertex  1.141075e-01 -1.467417e-01 -6.349206e-02
   endloop
 endfacet
 facet normal -0.000000e+00 -0.000000e+00 -1.000000e+00
   outer loop
     vertex  8.014754e-01 -1.650783e-01 -6.349206e-02
     vertex  9.179894e-01 -4.329806e-01 -6.349206e-02
     vertex  7.957785e-01 -1.636741e-01 -6.349206e-02
   endloop
 endfacet
 facet normal  0.000000e+00  0.000000e+00 -1.000000e+00
   outer loop
     vertex  7.800705e-01 -1.409171e-01 -6.349206e-02
     vertex  1.141075e-01 -1.467417e-01 -6.349206e-02
     vertex  1.148147e-01 -1.409171e-01 -6.349206e-02
   endloop
 endfacet
 facet normal  0.000000e+00 -0.000000e+00 -1.000000e+00
   outer loop
     vertex  7.800705e-01 -1.409171e-01 -6.349206e-02
     vertex  7.807777e-01 -1.467417e-01 -6.349206e-02
     vertex  1.141075e-01 -1.467417e-01 -6.349206e-02
   endloop
 endfacet
 facet normal -0.000000e+00 -0.000000e+00 -1.000000e+00
   outer loop
     vertex  8.073428e-01 -1.650783e-01 -6.349206e-02
     vertex  9.179894e-01 -4.329806e-01 -6.349206e-02
     vertex  8.014754e-01 -1.650783e-01 -6.349206e-02
   endloop
 endfacet
 facet normal  0.000000e+00  0.000000e+00 -1.000000e+00
   outer loop
     vertex  7.807777e-01 -1.350925e-01 -6.349206e-02
     vertex  1.148147e-01 -1.409171e-01 -6.349206e-02
     vertex  1.141075e-01 -1.350925e-01 -6.349206e-02
   endloop
 endfacet
 facet normal  0.000000e+00  0.000000e+00 -1.000000e+00
   outer loop
     vertex  7.807777e-01 -1.350925e-01 -6.349206e-02
     vertex  7.800705e-01 -1.409171e-01 -6.349206e-02
     vertex  1.148147e-01 -1.409171e-01 -6.349206e-02
   endloop
 endfacet
 facet normal  0.000000e+00 -0.000000e+00 -1.000000e+00
   outer loop
     vertex  8.130397e-01 -1.636741e-01 -6.349206e-02
     vertex  9.179894e-01 -4.329806e-01 -6.349206e-02
     vertex  8.073428e-01 -1.650783e-01 -6.349206e-02
   endloop
 endfacet
 facet normal -0.000000e+00  0.000000e+00 -1.000000e+00
   outer loop
     vertex  7.828583e-01 -1.296064e-01 -6.349206e-02
     vertex  1.141075e-01 -1.350925e-01 -6.349206e-02
     vertex  1.120269e-01 -1.296064e-01 -6.349206e-02
   endloop
 endfacet
 facet normal  0.000000e+00  0.000000e+00 -1.000000e+00
   outer loop
     vertex  7.828583e-01 -1.296064e-01 -6.349206e-02
     vertex  7.807777e-01 -1.350925e-01 -6.349206e-02
     vertex  1.141075e-01 -1.350925e-01 -6.349206e-02
   endloop
 endfacet
 facet normal  0.000000e+00 -0.000000e+00 -1.000000e+00
   outer loop
     vertex  8.182350e-01 -1.609474e-01 -6.349206e-02
     vertex  9.179894e-01 -4.329806e-01 -6.349206e-02
     vertex  8.130397e-01 -1.636741e-01 -6.349206e-02
   endloop
 endfacet
 facet normal -0.000000e+00  0.000000e+00 -1.000000e+00
   outer loop
     vertex  7.861914e-01 -1.247776e-01 -6.349206e-02
     vertex  1.086938e-01 -1.247776e-01 -6.349206e-02
     vertex  5.802461e-02 -4.356259e-02 -6.349206e-02
   endloop
 endfacet
 facet normal  0.000000e+00  0.000000e+00 -1.000000e+00
   outer loop
     vertex  7.861914e-01 -1.247776e-01 -6.349206e-02
     vertex  1.120269e-01 -1.296064e-01 -6.349206e-02
     vertex  1.086938e-01 -1.247776e-01 -6.349206e-02
   endloop
 endfacet
 facet normal  0.000000e+00  0.000000e+00 -1.000000e+00
   outer loop
     vertex  7.861914e-01 -1.247776e-01 -6.349206e-02
     vertex  7.828583e-01 -1.296064e-01 -6.349206e-02
     vertex  1.120269e-01 -1.296064e-01 -6.349206e-02
   endloop
 endfacet
 facet normal  0.000000e+00 -0.000000e+00 -1.000000e+00
   outer loop
     vertex  8.226268e-01 -1.570566e-01 -6.349206e-02
     vertex  9.179894e-01 -4.329806e-01 -6.349206e-02
     vertex  8.182350e-01 -1.609474e-01 -6.349206e-02
   endloop
 endfacet
 facet normal  0.000000e+00  0.000000e+00 -1.000000e+00
   outer loop
     vertex  8.368607e-01 -4.356259e-02 -6.349206e-02
     vertex  8.182350e-01 -1.208868e-01 -6.349206e-02
     vertex  8.130397e-01 -1.181601e-01 -6.349206e-02
   endloop
 endfacet
 facet normal  0.000000e+00  0.000000e+00 -1.000000e+00
   outer loop
     vertex  8.368607e-01 -4.356259e-02 -6.349206e-02
     vertex  8.130397e-01 -1.181601e-01 -6.349206e-02
     vertex  8.073428e-01 -1.167559e-01 -6.349206e-02
   endloop
 endfacet
 facet normal  0.000000e+00  0.000000e+00 -1.000000e+00
   outer loop
     vertex  8.368607e-01 -4.356259e-02 -6.349206e-02
     vertex  8.073428e-01 -1.167559e-01 -6.349206e-02
     vertex  8.014754e-01 -1.167559e-01 -6.349206e-02
   endloop
 endfacet
 facet normal  0.000000e+00  0.000000e+00 -1.000000e+00
   outer loop
     vertex  8.368607e-01 -4.356259e-02 -6.349206e-02
     vertex  8.014754e-01 -1.167559e-01 -6.349206e-02
     vertex  7.957785e-01 -1.181601e-01 -6.349206e-02
   endloop
 endfacet
 facet normal  0.000000e+00  0.000000e+00 -1.000000e+00
   outer loop
     vertex  8.368607e-01 -4.356259e-02 -6.349206e-02
     vertex  7.957785e-01 -1.181601e-01 -6.349206e-02
     vertex  7.905832e-01 -1.208868e-01 -6.349206e-02
   endloop
 endfacet
 facet normal  0.000000e+00  0.000000e+00 -1.000000e+00
   outer loop
     vertex  8.368607e-01 -4.356259e-02 -6.349206e-02
     vertex  7.905832e-01 -1.208868e-01 -6.349206e-02
     vertex  7.861914e-01 -1.247776e-01 -6.349206e-02
   endloop
 endfacet
 facet normal -0.000000e+00  0.000000e+00 -1.000000e+00
   outer loop
     vertex  8.368607e-01 -4.356259e-02 -6.349206e-02
     vertex  7.861914e-01 -1.247776e-01 -6.349206e-02
     vertex  5.802461e-02 -4.356259e-02 -6.349206e-02
   endloop
 endfacet
 facet normal  0.000000e+00  0.000000e+00 -1.000000e+00
   outer loop
     vertex  8.652192e-01 -5.752523e-02 -6.349206e-02
     vertex  8.226268e-01 -1.247776e-01 -6.349206e-02
     vertex  8.182350e-01 -1.208868e-01 -6.349206e-02
   endloop
 endfacet
 facet normal -0.000000e+00  0.000000e+00 -1.000000e+00
   outer loop
     vertex  8.652192e-01 -5.752523e-02 -6.349206e-02
     vertex  8.182350e-01 -1.208868e-01 -6.349206e-02
     vertex  8.368607e-01 -4.356259e-02 -6.349206e-02
   endloop
 endfacet
 facet normal  0.000000e+00  0.000000e+00 -1.000000e+00
   outer loop
     vertex  8.923242e-01 -7.378822e-02 -6.349206e-02
     vertex  8.280405e-01 -1.350925e-01 -6.349206e-02
     vertex  8.259599e-01 -1.296064e-01 -6.349206e-02
   endloop
 endfacet
 facet normal  0.000000e+00  0.000000e+00 -1.000000e+00
   outer loop
     vertex  8.923242e-01 -7.378822e-02 -6.349206e-02
     vertex  8.259599e-01 -1.296064e-01 -6.349206e-02
     vertex  8.226268e-01 -1.247776e-01 -6.349206e-02
   endloop
 endfacet
 facet normal -0.000000e+00  0.000000e+00 -1.000000e+00
   outer loop
     vertex  8.923242e-01 -7.378822e-02 -6.349206e-02
     vertex  8.226268e-01 -1.247776e-01 -6.349206e-02
     vertex  8.652192e-01 -5.752523e-02 -6.349206e-02
   endloop
 endfacet
 facet normal  0.000000e+00  0.000000e+00 -1.000000e+00
   outer loop
     vertex  9.179894e-01 -9.223984e-02 -6.349206e-02
     vertex  8.287477e-01 -1.409171e-01 -6.349206e-02
     vertex  8.280405e-01 -1.350925e-01 -6.349206e-02
   endloop
 endfacet
 facet normal  0.000000e+00 -0.000000e+00 -1.000000e+00
   outer loop
     vertex  9.179894e-01 -9.223984e-02 -6.349206e-02
     vertex  9.179894e-01 -4.329806e-01 -6.349206e-02
     vertex  8.226268e-01 -1.570566e-01 -6.349206e-02
   endloop
 endfacet
 facet normal  0.000000e+00  0.000000e+00 -1.000000e+00
   outer loop
     vertex  9.179894e-01 -9.223984e-02 -6.349206e-02
     vertex  8.226268e-01 -1.570566e-01 -6.349206e-02
     vertex  8.259599e-01 -1.522278e-01 -6.349206e-02
   endloop
 endfacet
 facet normal  0.000000e+00  0.000000e+00 -1.000000e+00
   outer loop
     vertex  9.179894e-01 -9.223984e-02 -6.349206e-02
     vertex  8.259599e-01 -1.522278e-01 -6.349206e-02
     vertex  8.280405e-01 -1.467417e-01 -6.349206e-02
   endloop
 endfacet
 facet normal  0.000000e+00  0.000000e+00 -1.000000e+00
   outer loop
     vertex  9.179894e-01 -9.223984e-02 -6.349206e-02
     vertex  8.280405e-01 -1.467417e-01 -6.349206e-02
     vertex  8.287477e-01 -1.409171e-01 -6.349206e-02
   endloop
 endfacet
 facet normal -0.000000e+00  0.000000e+00 -1.000000e+00
   outer loop
     vertex  9.179894e-01 -9.223984e-02 -6.349206e-02
     vertex  8.280405e-01 -1.350925e-01 -6.349206e-02
     vertex  8.923242e-01 -7.378822e-02 -6.349206e-02
   endloop
 endfacet
 facet normal -1.000000e+00  1.018207e-17  0.000000e+00
   outer loop
     vertex -2.310413e-02 -4.329806e-01 -3.174603e-02
     vertex -2.310413e-02 -9.223984e-02 -3.174603e-02
     vertex -2.310413e-02 -9.223984e-02 -6.349206e-02
   endloop
 endfacet
 facet normal -1.000000e+00  1.018207e-17  0.000000e+00
   outer loop
     vertex -2.310413e-02 -4.329806e-01 -3.174603e-02
     vertex -2.310413e-02 -9.223984e-02 -6.349206e-02
     vertex -2.310413e-02 -4.329806e-01 -6.349206e-02
   endloop
 endfacet
 facet normal -4.417211e-01  8.971524e-01  0.000000e+00
   outer loop
     vertex  2.966602e-02 -5.752520e-02 -3.174603e-02
     vertex  5.802461e-02 -4.356259e-02 -3.174603e-02
     vertex  5.802461e-02 -4.356259e-02 -6.349206e-02
   endloop
 endfacet
 facet normal -4.417211e-01  8.971524e-01  0.000000e+00
   outer loop
     vertex  2.966602e-02 -5.752520e-02 -3.174603e-02
     vertex  5.802461e-02 -4.356259e-02 -6.349206e-02
     vertex  2.966602e-02 -5.752520e-02 -6.349206e-02
   endloop
 endfacet
 facet normal -5.144958e-01  8.574929e-01  0.000000e+00
   outer loop
     vertex  2.561041e-03 -7.378819e-02 -3.174603e-02
     vertex  2.966602e-02 -5.752520e-02 -6.349206e-02
     vertex  2.561041e-03 -7.378819e-02 -6.349206e-02
   endloop
 endfacet
 facet normal -5.144958e-01  8.574929e-01  0.000000e+00
   outer loop
     vertex  2.561041e-03 -7.378819e-02 -3.174603e-02
     vertex  2.966602e-02 -5.752520e-02 -3.174603e-02
     vertex  2.966602e-02 -5.752520e-02 -6.349206e-02
   endloop
 endfacet
 facet normal -5.837364e-01  8.119432e-01  0.000000e+00
   outer loop
     vertex -2.310413e-02 -9.223984e-02 -3.174603e-02
     vertex  2.561041e-03 -7.378819e-02 -6.349206e-02
     vertex -2.310413e-02 -9.223984e-02 -6.349206e-02
   endloop
 endfacet
 facet normal -5.837364e-01  8.119432e-01  0.000000e+00
   outer loop
     vertex -2.310413e-02 -9.223984e-02 -3.174603e-02
     vertex  2.561041e-03 -7.378819e-02 -3.174603e-02
     vertex  2.561041e-03 -7.378819e-02 -6.349206e-02
   endloop
 endfacet
 facet normal  5.837354e-01  8.119440e-01  0.000000e+00
   outer loop
     vertex  8.923242e-01 -7.378822e-02 -3.174603e-02
     vertex  9.179894e-01 -9.223984e-02 -3.174603e-02
     vertex  9.179894e-01 -9.223984e-02 -6.349206e-02
   endloop
 endfacet
 facet normal  5.837354e-01  8.119440e-01  0.000000e+00
   outer loop
     vertex  8.923242e-01 -7.378822e-02 -3.174603e-02
     vertex  9.179894e-01 -9.223984e-02 -6.349206e-02
     vertex  8.923242e-01 -7.378822e-02 -6.349206e-02
   endloop
 endfacet
 facet normal  5.144956e-01  8.574930e-01  0.000000e+00
   outer loop
     vertex  8.652192e-01 -5.752523e-02 -3.174603e-02
     vertex  8.923242e-01 -7.378822e-02 -6.349206e-02
     vertex  8.652192e-01 -5.752523e-02 -6.349206e-02
   endloop
 endfacet
 facet normal  5.144956e-01  8.574930e-01  0.000000e+00
   outer loop
     vertex  8.652192e-01 -5.752523e-02 -3.174603e-02
     vertex  8.923242e-01 -7.378822e-02 -3.174603e-02
     vertex  8.923242e-01 -7.378822e-02 -6.349206e-02
   endloop
 endfacet
 facet normal  4.417219e-01  8.971520e-01  0.000000e+00
   outer loop
     vertex  8.368607e-01 -4.356259e-02 -3.174603e-02
     vertex  8.652192e-01 -5.752523e-02 -6.349206e-02
     vertex  8.368607e-01 -4.356259e-02 -6.349206e-02
   endloop
 endfacet
 facet normal  4.417219e-01  8.971520e-01  0.000000e+00
   outer loop
     vertex  8.368607e-01 -4.356259e-02 -3.174603e-02
     vertex  8.652192e-01 -5.752523e-02 -3.174603e-02
     vertex  8.652192e-01 -5.752523e-02 -6.349206e-02
   endloop
 endfacet
 facet normal -0.000000e+00  1.000000e+00  0.000000e+00
   outer loop
     vertex  5.802461e-02 -4.356259e-02 -3.174603e-02
     vertex  8.368607e-01 -4.356259e-02 -3.174603e-02
     vertex  8.368607e-01 -4.356259e-02 -6.349206e-02
   endloop
 endfacet
 facet normal  0.000000e+00  1.000000e+00  0.000000e+00
   outer loop
     vertex  5.802461e-02 -4.356259e-02 -3.174603e-02
     vertex  8.368607e-01 -4.356259e-02 -6.349206e-02
     vertex  5.802461e-02 -4.356259e-02 -6.349206e-02
   endloop
 endfacet
 facet normal -9.927089e-01 -1.205367e-01  0.000000e+00
   outer loop
     vertex  1.141075e-01 -1.350925e-01 -3.174603e-02
     vertex  1.148147e-01 -1.409171e-01 -6.349206e-02
     vertex  1.148147e-01 -1.409171e-01 -3.174603e-02
   endloop
 endfacet
 facet normal -9.927089e-01 -1.205367e-01 -0.000000e+00
   outer loop
     vertex  1.141075e-01 -1.350925e-01 -3.174603e-02
     vertex  1.141075e-01 -1.350925e-01 -6.349206e-02
     vertex  1.148147e-01 -1.409171e-01 -6.349206e-02
   endloop
 endfacet
 facet normal -9.350162e-01 -3.546049e-01 -0.000000e+00
   outer loop
     vertex  1.120269e-01 -1.296064e-01 -3.174603e-02
     vertex  1.120269e-01 -1.296064e-01 -6.349206e-02
     vertex  1.141075e-01 -1.350925e-01 -6.349206e-02
   endloop
 endfacet
 facet normal -9.350162e-01 -3.546049e-01  0.000000e+00
   outer loop
     vertex  1.120269e-01 -1.296064e-01 -3.174603e-02
     vertex  1.141075e-01 -1.350925e-01 -6.349206e-02
     vertex  1.141075e-01 -1.350925e-01 -3.174603e-02
   endloop
 endfacet
 facet normal -8.229839e-01 -5.680647e-01 -0.000000e+00
   outer loop
     vertex  1.086938e-01 -1.247776e-01 -3.174603e-02
     vertex  1.086938e-01 -1.247776e-01 -6.349206e-02
     vertex  1.120269e-01 -1.296064e-01 -6.349206e-02
   endloop
 endfacet
 facet normal -8.229839e-01 -5.680647e-01  0.000000e+00
   outer loop
     vertex  1.086938e-01 -1.247776e-01 -3.174603e-02
     vertex  1.120269e-01 -1.296064e-01 -6.349206e-02
     vertex  1.120269e-01 -1.296064e-01 -3.174603e-02
   endloop
 endfacet
 facet normal -6.631227e-01 -7.485107e-01 -0.000000e+00
   outer loop
     vertex  1.043020e-01 -1.208868e-01 -3.174603e-02
     vertex  1.043020e-01 -1.208868e-01 -6.349206e-02
     vertex  1.086938e-01 -1.247776e-01 -6.349206e-02
   endloop
 endfacet
 facet normal -6.631227e-01 -7.485107e-01  0.000000e+00
   outer loop
     vertex  1.043020e-01 -1.208868e-01 -3.174603e-02
     vertex  1.086938e-01 -1.247776e-01 -6.349206e-02
     vertex  1.086938e-01 -1.247776e-01 -3.174603e-02
   endloop
 endfacet
 facet normal -4.647232e-01 -8.854560e-01 -0.000000e+00
   outer loop
     vertex  9.910672e-02 -1.181601e-01 -3.174603e-02
     vertex  9.910672e-02 -1.181601e-01 -6.349206e-02
     vertex  1.043020e-01 -1.208868e-01 -6.349206e-02
   endloop
 endfacet
 facet normal -4.647232e-01 -8.854560e-01  0.000000e+00
   outer loop
     vertex  9.910672e-02 -1.181601e-01 -3.174603e-02
     vertex  1.043020e-01 -1.208868e-01 -6.349206e-02
     vertex  1.043020e-01 -1.208868e-01 -3.174603e-02
   endloop
 endfacet
 facet normal -2.393157e-01 -9.709418e-01 -0.000000e+00
   outer loop
     vertex  9.340982e-02 -1.167559e-01 -3.174603e-02
     vertex  9.340982e-02 -1.167559e-01 -6.349206e-02
     vertex  9.910672e-02 -1.181601e-01 -6.349206e-02
   endloop
 endfacet
 facet normal -2.393157e-01 -9.709418e-01  0.000000e+00
   outer loop
     vertex  9.340982e-02 -1.167559e-01 -3.174603e-02
     vertex  9.910672e-02 -1.181601e-01 -6.349206e-02
     vertex  9.910672e-02 -1.181601e-01 -3.174603e-02
   endloop
 endfacet
 facet normal  0.000000e+00 -1.000000e+00  0.000000e+00
   outer loop
     vertex  8.754243e-02 -1.167559e-01 -3.174603e-02
     vertex  8.754243e-02 -1.167559e-01 -6.349206e-02
     vertex  9.340982e-02 -1.167559e-01 -6.349206e-02
   endloop
 endfacet
 facet normal  0.000000e+00 -1.000000e+00  0.000000e+00
   outer loop
     vertex  8.754243e-02 -1.167559e-01 -3.174603e-02
     vertex  9.340982e-02 -1.167559e-01 -6.349206e-02
     vertex  9.340982e-02 -1.167559e-01 -3.174603e-02
   endloop
 endfacet
 facet normal  2.393157e-01 -9.709418e-01  0.000000e+00
   outer loop
     vertex  8.184553e-02 -1.181601e-01 -3.174603e-02
     vertex  8.184553e-02 -1.181601e-01 -6.349206e-02
     vertex  8.754243e-02 -1.167559e-01 -6.349206e-02
   endloop
 endfacet
 facet normal  2.393157e-01 -9.709418e-01  0.000000e+00
   outer loop
     vertex  8.184553e-02 -1.181601e-01 -3.174603e-02
     vertex  8.754243e-02 -1.167559e-01 -6.349206e-02
     vertex  8.754243e-02 -1.167559e-01 -3.174603e-02
   endloop
 endfacet
 facet normal  4.647232e-01 -8.854560e-01  0.000000e+00
   outer loop
     vertex  7.665021e-02 -1.208868e-01 -3.174603e-02
     vertex  7.665021e-02 -1.208868e-01 -6.349206e-02
     vertex  8.184553e-02 -1.181601e-01 -6.349206e-02
   endloop
 endfacet
 facet normal  4.647232e-01 -8.854560e-01  0.000000e+00
   outer loop
     vertex  7.665021e-02 -1.208868e-01 -3.174603e-02
     vertex  8.184553e-02 -1.181601e-01 -6.349206e-02
     vertex  8.184553e-02 -1.181601e-01 -3.174603e-02
   endloop
 endfacet
 facet normal  6.631227e-01 -7.485107e-01  0.000000e+00
   outer loop
     vertex  7.225840e-02 -1.247776e-01 -3.174603e-02
     vertex  7.225840e-02 -1.247776e-01 -6.349206e-02
     vertex  7.665021e-02 -1.208868e-01 -6.349206e-02
   endloop
 endfacet
 facet normal  6.631227e-01 -7.485107e-01  0.000000e+00
   outer loop
     vertex  7.225840e-02 -1.247776e-01 -3.174603e-02
     vertex  7.665021e-02 -1.208868e-01 -6.349206e-02
     vertex  7.665021e-02 -1.208868e-01 -3.174603e-02
   endloop
 endfacet
 facet normal  8.229839e-01 -5.680647e-01  0.000000e+00
   outer loop
     vertex  6.892534e-02 -1.296064e-01 -3.174603e-02
     vertex  6.892534e-02 -1.296064e-01 -6.349206e-02
     vertex  7.225840e-02 -1.247776e-01 -6.349206e-02
   endloop
 endfacet
 facet normal  8.229839e-01 -5.680647e-01  0.000000e+00
   outer loop
     vertex  6.892534e-02 -1.296064e-01 -3.174603e-02
     vertex  7.225840e-02 -1.247776e-01 -6.349206e-02
     vertex  7.225840e-02 -1.247776e-01 -3.174603e-02
   endloop
 endfacet
 facet normal  9.350162e-01 -3.546049e-01  0.000000e+00
   outer loop
     vertex  6.684474e-02 -1.350925e-01 -3.174603e-02
     vertex  6.892534e-02 -1.296064e-01 -6.349206e-02
     vertex  6.892534e-02 -1.296064e-01 -3.174603e-02
   endloop
 endfacet
 facet normal  9.350162e-01 -3.546049e-01  0.000000e+00
   outer loop
     vertex  6.684474e-02 -1.350925e-01 -3.174603e-02
     vertex  6.684474e-02 -1.350925e-01 -6.349206e-02
     vertex  6.892534e-02 -1.296064e-01 -6.349206e-02
   endloop
 endfacet
 facet normal  9.927089e-01 -1.205367e-01  0.000000e+00
   outer loop
     vertex  6.613750e-02 -1.409171e-01 -3.174603e-02
     vertex  6.684474e-02 -1.350925e-01 -6.349206e-02
     vertex  6.684474e-02 -1.350925e-01 -3.174603e-02
   endloop
 endfacet
 facet normal  9.927089e-01 -1.205367e-01  0.000000e+00
   outer loop
     vertex  6.613750e-02 -1.409171e-01 -3.174603e-02
     vertex  6.613750e-02 -1.409171e-01 -6.349206e-02
     vertex  6.684474e-02 -1.350925e-01 -6.349206e-02
   endloop
 endfacet
 facet normal  9.927089e-01  1.205367e-01  0.000000e+00
   outer loop
     vertex  6.684474e-02 -1.467417e-01 -3.174603e-02
     vertex  6.613750e-02 -1.409171e-01 -6.349206e-02
     vertex  6.613750e-02 -1.409171e-01 -3.174603e-02
   endloop
 endfacet
 facet normal  9.927089e-01  1.205367e-01  0.000000e+00
   outer loop
     vertex  6.684474e-02 -1.467417e-01 -3.174603e-02
     vertex  6.684474e-02 -1.467417e-01 -6.349206e-02
     vertex  6.613750e-02 -1.409171e-01 -6.349206e-02
   endloop
 endfacet
 facet normal  9.350162e-01  3.546049e-01  0.000000e+00
   outer loop
     vertex  6.892534e-02 -1.522278e-01 -3.174603e-02
     vertex  6.684474e-02 -1.467417e-01 -6.349206e-02
     vertex  6.684474e-02 -1.467417e-01 -3.174603e-02
   endloop
 endfacet
 facet normal  9.350162e-01  3.546049e-01  0.000000e+00
   outer loop
     vertex  6.892534e-02 -1.522278e-01 -3.174603e-02
     vertex  6.892534e-02 -1.522278e-01 -6.349206e-02
     vertex  6.684474e-02 -1.467417e-01 -6.349206e-02
   endloop
 endfacet
 facet normal  8.229839e-01  5.680647e-01  0.000000e+00
   outer loop
     vertex  7.225840e-02 -1.570566e-01 -3.174603e-02
     vertex  6.892534e-02 -1.522278e-01 -6.349206e-02
     vertex  6.892534e-02 -1.522278e-01 -3.174603e-02
   endloop
 endfacet
 facet normal  8.229839e-01  5.680647e-01  0.000000e+00
   outer loop
     vertex  7.225840e-02 -1.570566e-01 -3.174603e-02
     vertex  7.225840e-02 -1.570566e-01 -6.349206e-02
     vertex  6.892534e-02 -1.522278e-01 -6.349206e-02
   endloop
 endfacet
 facet normal  6.631227e-01  7.485107e-01  0.000000e+00
   outer loop
     vertex  7.665021e-02 -1.609474e-01 -3.174603e-02
     vertex  7.225840e-02 -1.570566e-01 -6.349206e-02
     vertex  7.225840e-02 -1.570566e-01 -3.174603e-02
   endloop
 endfacet
 facet normal  6.631227e-01  7.485107e-01  0.000000e+00
   outer loop
     vertex  7.665021e-02 -1.609474e-01 -3.174603e-02
     vertex  7.665021e-02 -1.609474e-01 -6.349206e-02
     vertex  7.225840e-02 -1.570566e-01 -6.349206e-02
   endloop
 endfacet
 facet normal  4.647232e-01  8.854560e-01  0.000000e+00
   outer loop
     vertex  8.184553e-02 -1.636741e-01 -3.174603e-02
     vertex  7.665021e-02 -1.609474e-01 -6.349206e-02
     vertex  7.665021e-02 -1.609474e-01 -3.174603e-02
   endloop
 endfacet
 facet normal  4.647232e-01  8.854560e-01  0.000000e+00
   outer loop
     vertex  8.184553e-02 -1.636741e-01 -3.174603e-02
     vertex  8.184553e-02 -1.636741e-01 -6.349206e-02
     vertex  7.665021e-02 -1.609474e-01 -6.349206e-02
   endloop
 endfacet
 facet normal  2.393157e-01  9.709418e-01  0.000000e+00
   outer loop
     vertex  8.754243e-02 -1.650783e-01 -3.174603e-02
     vertex  8.184553e-02 -1.636741e-01 -6.349206e-02
     vertex  8.184553e-02 -1.636741e-01 -3.174603e-02
   endloop
 endfacet
 facet normal  2.393157e-01  9.709418e-01  0.000000e+00
   outer loop
     vertex  8.754243e-02 -1.650783e-01 -3.174603e-02
     vertex  8.754243e-02 -1.650783e-01 -6.349206e-02
     vertex  8.184553e-02 -1.636741e-01 -6.349206e-02
   endloop
 endfacet
 facet normal  4.730478e-15  1.000000e+00  0.000000e+00
   outer loop
     vertex  9.340982e-02 -1.650783e-01 -3.174603e-02
     vertex  8.754243e-02 -1.650783e-01 -6.349206e-02
     vertex  8.754243e-02 -1.650783e-01 -3.174603e-02
   endloop
 endfacet
 facet normal  4.730478e-15  1.000000e+00  0.000000e+00
   outer loop
     vertex  9.340982e-02 -1.650783e-01 -3.174603e-02
     vertex  9.340982e-02 -1.650783e-01 -6.349206e-02
     vertex  8.754243e-02 -1.650783e-01 -6.349206e-02
   endloop
 endfacet
 facet normal -2.393157e-01  9.709418e-01  0.000000e+00
   outer loop
     vertex  9.910672e-02 -1.636741e-01 -3.174603e-02
     vertex  9.340982e-02 -1.650783e-01 -6.349206e-02
     vertex  9.340982e-02 -1.650783e-01 -3.174603e-02
   endloop
 endfacet
 facet normal -2.393157e-01  9.709418e-01  0.000000e+00
   outer loop
     vertex  9.910672e-02 -1.636741e-01 -3.174603e-02
     vertex  9.910672e-02 -1.636741e-01 -6.349206e-02
     vertex  9.340982e-02 -1.650783e-01 -6.349206e-02
   endloop
 endfacet
 facet normal -4.647232e-01  8.854560e-01  0.000000e+00
   outer loop
     vertex  1.043020e-01 -1.609474e-01 -3.174603e-02
     vertex  9.910672e-02 -1.636741e-01 -6.349206e-02
     vertex  9.910672e-02 -1.636741e-01 -3.174603e-02
   endloop
 endfacet
 facet normal -4.647232e-01  8.854560e-01  0.000000e+00
   outer loop
     vertex  1.043020e-01 -1.609474e-01 -3.174603e-02
     vertex  1.043020e-01 -1.609474e-01 -6.349206e-02
     vertex  9.910672e-02 -1.636741e-01 -6.349206e-02
   endloop
 endfacet
 facet normal -6.631227e-01  7.485107e-01  0.000000e+00
   outer loop
     vertex  1.086938e-01 -1.570566e-01 -3.174603e-02
     vertex  1.043020e-01 -1.609474e-01 -6.349206e-02
     vertex  1.043020e-01 -1.609474e-01 -3.174603e-02
   endloop
 endfacet
 facet normal -6.631227e-01  7.485107e-01  0.000000e+00
   outer loop
     vertex  1.086938e-01 -1.570566e-01 -3.174603e-02
     vertex  1.086938e-01 -1.570566e-01 -6.349206e-02
     vertex  1.043020e-01 -1.609474e-01 -6.349206e-02
   endloop
 endfacet
 facet normal -8.229839e-01  5.680647e-01  0.000000e+00
   outer loop
     vertex  1.120269e-01 -1.522278e-01 -3.174603e-02
     vertex  1.120269e-01 -1.522278e-01 -6.349206e-02
     vertex  1.086938e-01 -1.570566e-01 -6.349206e-02
   endloop
 endfacet
 facet normal -8.229839e-01  5.680647e-01  0.000000e+00
   outer loop
     vertex  1.120269e-01 -1.522278e-01 -3.174603e-02
     vertex  1.086938e-01 -1.570566e-01 -6.349206e-02
     vertex  1.086938e-01 -1.570566e-01 -3.174603e-02
   endloop
 endfacet
 facet normal -9.350162e-01  3.546049e-01  0.000000e+00
   outer loop
     vertex  1.141075e-01 -1.467417e-01 -3.174603e-02
     vertex  1.141075e-01 -1.467417e-01 -6.349206e-02
     vertex  1.120269e-01 -1.522278e-01 -6.349206e-02
   endloop
 endfacet
 facet normal -9.350162e-01  3.546049e-01  0.000000e+00
   outer loop
     vertex  1.141075e-01 -1.467417e-01 -3.174603e-02
     vertex  1.120269e-01 -1.522278e-01 -6.349206e-02
     vertex  1.120269e-01 -1.522278e-01 -3.174603e-02
   endloop
 endfacet
 facet normal -9.927089e-01  1.205367e-01  0.000000e+00
   outer loop
     vertex  1.148147e-01 -1.409171e-01 -3.174603e-02
     vertex  1.148147e-01 -1.409171e-01 -6.349206e-02
     vertex  1.141075e-01 -1.467417e-01 -6.349206e-02
   endloop
 endfacet
 facet normal -9.927089e-01  1.205367e-01  0.000000e+00
   outer loop
     vertex  1.148147e-01 -1.409171e-01 -3.174603e-02
     vertex  1.141075e-01 -1.467417e-01 -6.349206e-02
     vertex  1.141075e-01 -1.467417e-01 -3.174603e-02
   endloop
 endfacet
 facet normal -9.927089e-01 -1.205367e-01  0.000000e+00
   outer loop
     vertex  8.280405e-01 -1.350925e-01 -3.174603e-02
     vertex  8.287477e-01 -1.409171e-01 -6.349206e-02
     vertex  8.287477e-01 -1.409171e-01 -3.174603e-02
   endloop
 endfacet
 facet normal -9.927089e-01 -1.205367e-01 -0.000000e+00
   outer loop
     vertex  8.280405e-01 -1.350925e-01 -3.174603e-02
     vertex  8.280405e-01 -1.350925e-01 -6.349206e-02
     vertex  8.287477e-01 -1.409171e-01 -6.349206e-02
   endloop
 endfacet
 facet normal -9.350162e-01 -3.546049e-01 -0.000000e+00
   outer loop
     vertex  8.259599e-01 -1.296064e-01 -3.174603e-02
     vertex  8.259599e-01 -1.296064e-01 -6.349206e-02
     vertex  8.280405e-01 -1.350925e-01 -6.349206e-02
   endloop
 endfacet
 facet normal -9.350162e-01 -3.546049e-01  0.000000e+00
   outer loop
     vertex  8.259599e-01 -1.296064e-01 -3.174603e-02
     vertex  8.280405e-01 -1.350925e-01 -6.349206e-02
     vertex  8.280405e-01 -1.350925e-01 -3.174603e-02
   endloop
 endfacet
 facet normal -8.229839e-01 -5.680647e-01 -0.000000e+00
   outer loop
     vertex  8.226268e-01 -1.247776e-01 -3.174603e-02
     vertex  8.226268e-01 -1.247776e-01 -6.349206e-02
     vertex  8.259599e-01 -1.296064e-01 -6.349206e-02
   endloop
 endfacet
 facet normal -8.229839e-01 -5.680647e-01  0.000000e+00
   outer loop
     vertex  8.226268e-01 -1.247776e-01 -3.174603e-02
     vertex  8.259599e-01 -1.296064e-01 -6.349206e-02
     vertex  8.259599e-01 -1.296064e-01 -3.174603e-02
   endloop
 endfacet
 facet normal -6.631227e-01 -7.485107e-01 -0.000000e+00
   outer loop
     vertex  8.182350e-01 -1.208868e-01 -3.174603e-02
     vertex  8.182350e-01 -1.208868e-01 -6.349206e-02
     vertex  8.226268e-01 -1.247776e-01 -6.349206e-02
   endloop
 endfacet
 facet normal -6.631227e-01 -7.485107e-01  0.000000e+00
   outer loop
     vertex  8.182350e-01 -1.208868e-01 -3.174603e-02
     vertex  8.226268e-01 -1.247776e-01 -6.349206e-02
     vertex  8.226268e-01 -1.247776e-01 -3.174603e-02
   endloop
 endfacet
 facet normal -4.647232e-01 -8.854560e-01 -0.000000e+00
   outer loop
     vertex  8.130397e-01 -1.181601e-01 -3.174603e-02
     vertex  8.130397e-01 -1.181601e-01 -6.349206e-02
     vertex  8.182350e-01 -1.208868e-01 -6.349206e-02
   endloop
 endfacet
 facet normal -4.647232e-01 -8.854560e-01  0.000000e+00
   outer loop
     vertex  8.130397e-01 -1.181601e-01 -3.174603e-02
     vertex  8.182350e-01 -1.208868e-01 -6.349206e-02
     vertex  8.182350e-01 -1.208868e-01 -3.174603e-02
   endloop
 endfacet
 facet normal -2.393157e-01 -9.709418e-01 -0.000000e+00
   outer loop
     vertex  8.073428e-01 -1.167559e-01 -3.174603e-02
     vertex  8.073428e-01 -1.167559e-01 -6.349206e-02
     vertex  8.130397e-01 -1.181601e-01 -6.349206e-02
   endloop
 endfacet
 facet normal -2.393157e-01 -9.709418e-01  0.000000e+00
   outer loop
     vertex  8.073428e-01 -1.167559e-01 -3.174603e-02
     vertex  8.130397e-01 -1.181601e-01 -6.349206e-02
     vertex  8.130397e-01 -1.181601e-01 -3.174603e-02
   endloop
 endfacet
 facet normal  0.000000e+00 -1.000000e+00  0.000000e+00
   outer loop
     vertex  8.014754e-01 -1.167559e-01 -3.174603e-02
     vertex  8.014754e-01 -1.167559e-01 -6.349206e-02
     vertex  8.073428e-01 -1.167559e-01 -6.349206e-02
   endloop
 endfacet
 facet normal  0.000000e+00 -1.000000e+00  0.000000e+00
   outer loop
     vertex  8.014754e-01 -1.167559e-01 -3.174603e-02
     vertex  8.073428e-01 -1.167559e-01 -6.349206e-02
     vertex  8.073428e-01 -1.167559e-01 -3.174603e-02
   endloop
 endfacet
 facet normal  2.393157e-01 -9.709418e-01  0.000000e+00
   outer loop
     vertex  7.957785e-01 -1.181601e-01 -3.174603e-02
     vertex  7.957785e-01 -1.181601e-01 -6.349206e-02
     vertex  8.014754e-01 -1.167559e-01 -6.349206e-02
   endloop
 endfacet
 facet normal  2.393157e-01 -9.709418e-01  0.000000e+00
   outer loop
     vertex  7.957785e-01 -1.181601e-01 -3.174603e-02
     vertex  8.014754e-01 -1.167559e-01 -6.349206e-02
     vertex  8.014754e-01 -1.167559e-01 -3.174603e-02
   endloop
 endfacet
 facet normal  4.647232e-01 -8.854560e-01  0.000000e+00
   outer loop
     vertex  7.905832e-01 -1.208868e-01 -3.174603e-02
     vertex  7.905832e-01 -1.208868e-01 -6.349206e-02
     vertex  7.957785e-01 -1.181601e-01 -6.349206e-02
   endloop
 endfacet
 facet normal  4.647232e-01 -8.854560e-01  0.000000e+00
   outer loop
     vertex  7.905832e-01 -1.208868e-01 -3.174603e-02
     vertex  7.957785e-01 -1.181601e-01 -6.349206e-02
     vertex  7.957785e-01 -1.181601e-01 -3.174603e-02
   endloop
 endfacet
 facet normal  6.631227e-01 -7.485107e-01  0.000000e+00
   outer loop
     vertex  7.861914e-01 -1.247776e-01 -3.174603e-02
     vertex  7.861914e-01 -1.247776e-01 -6.349206e-02
     vertex  7.905832e-01 -1.208868e-01 -6.349206e-02
   endloop
 endfacet
 facet normal  6.631227e-01 -7.485107e-01  0.000000e+00
   outer loop
     vertex  7.861914e-01 -1.247776e-01 -3.174603e-02
     vertex  7.905832e-01 -1.208868e-01 -6.349206e-02
     vertex  7.905832e-01 -1.208868e-01 -3.174603e-02
   endloop
 endfacet
 facet normal  8.229839e-01 -5.680647e-01  0.000000e+00
   outer loop
     vertex  7.828583e-01 -1.296064e-01 -3.174603e-02
     vertex  7.828583e-01 -1.296064e-01 -6.349206e-02
     vertex  7.861914e-01 -1.247776e-01 -6.349206e-02
   endloop
 endfacet
 facet normal  8.229839e-01 -5.680647e-01  0.000000e+00
   outer loop
     vertex  7.828583e-01 -1.296064e-01 -3.174603e-02
     vertex  7.861914e-01 -1.247776e-01 -6.349206e-02
     vertex  7.861914e-01 -1.247776e-01 -3.174603e-02
   endloop
 endfacet
 facet normal  9.350162e-01 -3.546049e-01  0.000000e+00
   outer loop
     vertex  7.807777e-01 -1.350925e-01 -3.174603e-02
     vertex  7.828583e-01 -1.296064e-01 -6.349206e-02
     vertex  7.828583e-01 -1.296064e-01 -3.174603e-02
   endloop
 endfacet
 facet normal  9.350162e-01 -3.546049e-01  0.000000e+00
   outer loop
     vertex  7.807777e-01 -1.350925e-01 -3.174603e-02
     vertex  7.807777e-01 -1.350925e-01 -6.349206e-02
     vertex  7.828583e-01 -1.296064e-01 -6.349206e-02
   endloop
 endfacet
 facet normal  9.927089e-01 -1.205367e-01  0.000000e+00
   outer loop
     vertex  7.800705e-01 -1.409171e-01 -3.174603e-02
     vertex  7.807777e-01 -1.350925e-01 -6.349206e-02
     vertex  7.807777e-01 -1.350925e-01 -3.174603e-02
   endloop
 endfacet
 facet normal  9.927089e-01 -1.205367e-01  0.000000e+00
   outer loop
     vertex  7.800705e-01 -1.409171e-01 -3.174603e-02
     vertex  7.800705e-01 -1.409171e-01 -6.349206e-02
     vertex  7.807777e-01 -1.350925e-01 -6.349206e-02
   endloop
 endfacet
 facet normal  9.927089e-01  1.205367e-01  0.000000e+00
   outer loop
     vertex  7.807777e-01 -1.467417e-01 -3.174603e-02
     vertex  7.800705e-01 -1.409171e-01 -6.349206e-02
     vertex  7.800705e-01 -1.409171e-01 -3.174603e-02
   endloop
 endfacet
 facet normal  9.927089e-01  1.205367e-01  0.000000e+00
   outer loop
     vertex  7.807777e-01 -1.467417e-01 -3.174603e-02
     vertex  7.807777e-01 -1.467417e-01 -6.349206e-02
     vertex  7.800705e-01 -1.409171e-01 -6.349206e-02
   endloop
 endfacet
 facet normal  9.350162e-01  3.546049e-01  0.000000e+00
   outer loop
     vertex  7.828583e-01 -1.522278e-01 -3.174603e-02
     vertex  7.807777e-01 -1.467417e-01 -6.349206e-02
     vertex  7.807777e-01 -1.467417e-01 -3.174603e-02
   endloop
 endfacet
 facet normal  9.350162e-01  3.546049e-01  0.000000e+00
   outer loop
     vertex  7.828583e-01 -1.522278e-01 -3.174603e-02
     vertex  7.828583e-01 -1.522278e-01 -6.349206e-02
     vertex  7.807777e-01 -1.467417e-01 -6.349206e-02
   endloop
 endfacet
 facet normal  8.229839e-01  5.680647e-01  0.000000e+00
   outer loop
     vertex  7.861914e-01 -1.570566e-01 -3.174603e-02
     vertex  7.828583e-01 -1.522278e-01 -6.349206e-02
     vertex  7.828583e-01 -1.522278e-01 -3.174603e-02
   endloop
 endfacet
 facet normal  8.229839e-01  5.680647e-01  0.000000e+00
   outer loop
     vertex  7.861914e-01 -1.570566e-01 -3.174603e-02
     vertex  7.861914e-01 -1.570566e-01 -6.349206e-02
     vertex  7.828583e-01 -1.522278e-01 -6.349206e-02
   endloop
 endfacet
 facet normal  6.631227e-01  7.485107e-01  0.000000e+00
   outer loop
     vertex  7.905832e-01 -1.609474e-01 -3.174603e-02
     vertex  7.861914e-01 -1.570566e-01 -6.349206e-02
     vertex  7.861914e-01 -1.570566e-01 -3.174603e-02
   endloop
 endfacet
 facet normal  6.631227e-01  7.485107e-01  0.000000e+00
   outer loop
     vertex  7.905832e-01 -1.609474e-01 -3.174603e-02
     vertex  7.905832e-01 -1.609474e-01 -6.349206e-02
     vertex  7.861914e-01 -1.570566e-01 -6.349206e-02
   endloop
 endfacet
 facet normal  4.647232e-01  8.854560e-01  0.000000e+00
   outer loop
     vertex  7.957785e-01 -1.636741e-01 -3.174603e-02
     vertex  7.905832e-01 -1.609474e-01 -6.349206e-02
     vertex  7.905832e-01 -1.609474e-01 -3.174603e-02
   endloop
 endfacet
 facet normal  4.647232e-01  8.854560e-01  0.000000e+00
   outer loop
     vertex  7.957785e-01 -1.636741e-01 -3.174603e-02
     vertex  7.957785e-01 -1.636741e-01 -6.349206e-02
     vertex  7.905832e-01 -1.609474e-01 -6.349206e-02
   endloop
 endfacet
 facet normal  2.393157e-01  9.709418e-01  0.000000e+00
   outer loop
     vertex  8.014754e-01 -1.650783e-01 -3.174603e-02
     vertex  7.957785e-01 -1.636741e-01 -6.349206e-02
     vertex  7.957785e-01 -1.636741e-01 -3.174603e-02
   endloop
 endfacet
 facet normal  2.393157e-01  9.709418e-01  0.000000e+00
   outer loop
     vertex  8.014754e-01 -1.650783e-01 -3.174603e-02
     vertex  8.014754e-01 -1.650783e-01 -6.349206e-02
     vertex  7.957785e-01 -1.636741e-01 -6.349206e-02
   endloop
 endfacet
 facet normal  4.730478e-15  1.000000e+00  0.000000e+00
   outer loop
     vertex  8.073428e-01 -1.650783e-01 -3.174603e-02
     vertex  8.014754e-01 -1.650783e-01 -6.349206e-02
     vertex  8.014754e-01 -1.650783e-01 -3.174603e-02
   endloop
 endfacet
 facet normal  4.730478e-15  1.000000e+00  0.000000e+00
   outer loop
     vertex  8.073428e-01 -1.650783e-01 -3.174603e-02
     vertex  8.073428e-01 -1.650783e-01 -6.349206e-02
     vertex  8.014754e-01 -1.650783e-01 -6.349206e-02
   endloop
 endfacet
 facet normal -2.393157e-01  9.709418e-01  0.000000e+00
   outer loop
     vertex  8.130397e-01 -1.636741e-01 -3.174603e-02
     vertex  8.073428e-01 -1.650783e-01 -6.349206e-02
     vertex  8.073428e-01 -1.650783e-01 -3.174603e-02
   endloop
 endfacet
 facet normal -2.393157e-01  9.709418e-01  0.000000e+00
   outer loop
     vertex  8.130397e-01 -1.636741e-01 -3.174603e-02
     vertex  8.130397e-01 -1.636741e-01 -6.349206e-02
     vertex  8.073428e-01 -1.650783e-01 -6.349206e-02
   endloop
 endfacet
 facet normal -4.647232e-01  8.854560e-01  0.000000e+00
   outer loop
     vertex  8.182350e-01 -1.609474e-01 -3.174603e-02
     vertex  8.130397e-01 -1.636741e-01 -6.349206e-02
     vertex  8.130397e-01 -1.636741e-01 -3.174603e-02
   endloop
 endfacet
 facet normal -4.647232e-01  8.854560e-01  0.000000e+00
   outer loop
     vertex  8.182350e-01 -1.609474e-01 -3.174603e-02
     vertex  8.182350e-01 -1.609474e-01 -6.349206e-02
     vertex  8.130397e-01 -1.636741e-01 -6.349206e-02
   endloop
 endfacet
 facet normal -6.631227e-01  7.485107e-01  0.000000e+00
   outer loop
     vertex  8.226268e-01 -1.570566e-01 -3.174603e-02
     vertex  8.182350e-01 -1.609474e-01 -6.349206e-02
     vertex  8.182350e-01 -1.609474e-01 -3.174603e-02
   endloop
 endfacet
 facet normal -6.631227e-01  7.485107e-01  0.000000e+00
   outer loop
     vertex  8.226268e-01 -1.570566e-01 -3.174603e-02
     vertex  8.226268e-01 -1.570566e-01 -6.349206e-02
     vertex  8.182350e-01 -1.609474e-01 -6.349206e-02
   endloop
 endfacet
 facet normal -8.229839e-01  5.680647e-01  0.000000e+00
   outer loop
     vertex  8.259599e-01 -1.522278e-01 -3.174603e-02
     vertex  8.259599e-01 -1.522278e-01 -6.349206e-02
     vertex  8.226268e-01 -1.570566e-01 -6.349206e-02
   endloop
 endfacet
 facet normal -8.229839e-01  5.680647e-01  0.000000e+00
   outer loop
     vertex  8.259599e-01 -1.522278e-01 -3.174603e-02
     vertex  8.226268e-01 -1.570566e-01 -6.349206e-02
     vertex  8.226268e-01 -1.570566e-01 -3.174603e-02
   endloop
 endfacet
 facet normal -9.350162e-01  3.546049e-01  0.000000e+00
   outer loop
     vertex  8.280405e-01 -1.467417e-01 -3.174603e-02
     vertex  8.280405e-01 -1.467417e-01 -6.349206e-02
     vertex  8.259599e-01 -1.522278e-01 -6.349206e-02
   endloop
 endfacet
 facet normal -9.350162e-01  3.546049e-01  0.000000e+00
   outer loop
     vertex  8.280405e-01 -1.467417e-01 -3.174603e-02
     vertex  8.259599e-01 -1.522278e-01 -6.349206e-02
     vertex  8.259599e-01 -1.522278e-01 -3.174603e-02
   endloop
 endfacet
 facet normal -9.927089e-01  1.205367e-01  0.000000e+00
   outer loop
     vertex  8.287477e-01 -1.409171e-01 -3.174603e-02
     vertex  8.287477e-01 -1.409171e-01 -6.349206e-02
     vertex  8.280405e-01 -1.467417e-01 -6.349206e-02
   endloop
 endfacet
 facet normal -9.927089e-01  1.205367e-01  0.000000e+00
   outer loop
     vertex  8.287477e-01 -1.409171e-01 -3.174603e-02
     vertex  8.280405e-01 -1.467417e-01 -6.349206e-02
     vertex  8.280405e-01 -1.467417e-01 -3.174603e-02
   endloop
 endfacet
endsolid
