solid 
 facet normal  0.000000e+00 -1.000000e+00  0.000000e+00
   outer loop
     vertex  4.502646e-01 -7.529101e-01 -1.587302e-02
     vertex -5.938271e-01 -7.529101e-01  9.841270e-01
     vertex -5.938271e-01 -7.529101e-01 -1.587302e-02
   endloop
 endfacet
 facet normal  0.000000e+00 -1.000000e+00  0.000000e+00
   outer loop
     vertex  4.502646e-01 -7.529101e-01 -1.587302e-02
     vertex  4.502646e-01 -7.529101e-01  9.841270e-01
     vertex -5.938271e-01 -7.529101e-01  9.841270e-01
   endloop
 endfacet
 facet normal -1.000000e+00  0.000000e+00  0.000000e+00
   outer loop
     vertex -5.938271e-01 -7.529101e-01 -1.587302e-02
     vertex -5.938271e-01  5.522046e-01  9.841270e-01
     vertex -5.938271e-01  5.522046e-01 -1.587302e-02
   endloop
 endfacet
 facet normal -1.000000e+00  0.000000e+00  0.000000e+00
   outer loop
     vertex -5.938271e-01 -7.529101e-01 -1.587302e-02
     vertex -5.938271e-01 -7.529101e-01  9.841270e-01
     vertex -5.938271e-01  5.522046e-01  9.841270e-01
   endloop
 endfacet
 facet normal  1.000000e+00  0.000000e+00  3.497203e-15
   outer loop
     vertex  4.502646e-01 -5.634921e-01  9.682540e-01
     vertex  4.502646e-01 -5.634921e-01  9.841270e-01
     vertex  4.502646e-01 -7.529101e-01  9.841270e-01
   endloop
 endfacet
 facet normal  1.000000e+00 -2.930617e-16  0.000000e+00
   outer loop
     vertex  4.502646e-01 -5.634921e-01  9.523810e-01
     vertex  4.502646e-01 -5.634921e-01  9.682540e-01
     vertex  4.502646e-01 -7.529101e-01  9.841270e-01
   endloop
 endfacet
 facet normal  1.000000e+00 -2.930617e-16  0.000000e+00
   outer loop
     vertex  4.502646e-01 -7.529101e-01 -1.587302e-02
     vertex  4.502646e-01 -5.634921e-01  9.523810e-01
     vertex  4.502646e-01 -7.529101e-01  9.841270e-01
   endloop
 endfacet
 facet normal  1.000000e+00  0.000000e+00  0.000000e+00
   outer loop
     vertex  4.502646e-01  5.522046e-01  9.841270e-01
     vertex  4.502646e-01  5.229277e-01  9.841270e-01
     vertex  4.502646e-01  5.229277e-01  9.682540e-01
   endloop
 endfacet
 facet normal  1.000000e+00  0.000000e+00  0.000000e+00
   outer loop
     vertex  4.502646e-01  5.229277e-01  9.523810e-01
     vertex  4.502646e-01  5.522046e-01  9.841270e-01
     vertex  4.502646e-01  5.229277e-01  9.682540e-01
   endloop
 endfacet
 facet normal  1.000000e+00  5.109549e-17  1.544964e-18
   outer loop
     vertex  4.502646e-01  5.522046e-01 -1.587302e-02
     vertex  4.502646e-01  5.229277e-01  9.523810e-01
     vertex  4.502646e-01 -5.634921e-01  9.523810e-01
   endloop
 endfacet
 facet normal  1.000000e+00  0.000000e+00 -5.733119e-17
   outer loop
     vertex  4.502646e-01  5.522046e-01 -1.587302e-02
     vertex  4.502646e-01 -5.634921e-01  9.523810e-01
     vertex  4.502646e-01 -7.529101e-01 -1.587302e-02
   endloop
 endfacet
 facet normal  1.000000e+00  0.000000e+00 -0.000000e+00
   outer loop
     vertex  4.502646e-01  5.522046e-01 -1.587302e-02
     vertex  4.502646e-01  5.522046e-01  9.841270e-01
     vertex  4.502646e-01  5.229277e-01  9.523810e-01
   endloop
 endfacet
 facet normal -0.000000e+00 -1.000000e+00  0.000000e+00
   outer loop
     vertex  4.502646e-01 -7.529101e-01 -1.587302e-02
     vertex -5.938271e-01 -7.529101e-01 -1.587302e-02
     vertex -5.938271e-01 -7.529101e-01 -3.174603e-02
   endloop
 endfacet
 facet normal  0.000000e+00 -1.000000e+00 -0.000000e+00
   outer loop
     vertex  4.502646e-01 -7.529101e-01 -1.587302e-02
     vertex -5.938271e-01 -7.529101e-01 -3.174603e-02
     vertex  4.502646e-01 -7.529101e-01 -3.174603e-02
   endloop
 endfacet
 facet normal  0.000000e+00  0.000000e+00  1.000000e+00
   outer loop
     vertex -5.888889e-01 -5.634921e-01  9.841270e-01
     vertex -5.938271e-01 -7.529101e-01  9.841270e-01
     vertex -5.416226e-01 -7.007055e-01  9.841270e-01
   endloop
 endfacet
 facet normal  0.000000e+00  0.000000e+00  1.000000e+00
   outer loop
     vertex -5.416226e-01 -5.634921e-01  9.841270e-01
     vertex -5.888889e-01 -5.634921e-01  9.841270e-01
     vertex -5.416226e-01 -7.007055e-01  9.841270e-01
   endloop
 endfacet
 facet normal  0.000000e+00  0.000000e+00  1.000000e+00
   outer loop
     vertex  3.980600e-01 -7.007055e-01  9.841270e-01
     vertex -5.416226e-01 -7.007055e-01  9.841270e-01
     vertex -5.938271e-01 -7.529101e-01  9.841270e-01
   endloop
 endfacet
 facet normal  0.000000e+00  0.000000e+00  1.000000e+00
   outer loop
     vertex  4.502646e-01 -7.529101e-01  9.841270e-01
     vertex  3.980600e-01 -7.007055e-01  9.841270e-01
     vertex -5.938271e-01 -7.529101e-01  9.841270e-01
   endloop
 endfacet
 facet normal  0.000000e+00  0.000000e+00  1.000000e+00
   outer loop
     vertex  4.502646e-01 -5.634921e-01  9.841270e-01
     vertex  3.980600e-01 -5.634921e-01  9.841270e-01
     vertex  3.980600e-01 -7.007055e-01  9.841270e-01
   endloop
 endfacet
 facet normal  0.000000e+00  0.000000e+00  1.000000e+00
   outer loop
     vertex  4.502646e-01 -5.634921e-01  9.841270e-01
     vertex  3.980600e-01 -7.007055e-01  9.841270e-01
     vertex  4.502646e-01 -7.529101e-01  9.841270e-01
   endloop
 endfacet
 facet normal  0.000000e+00  0.000000e+00  1.000000e+00
   outer loop
     vertex  4.502646e-01  5.522046e-01  9.841270e-01
     vertex -5.888889e-01  5.229277e-01  9.841270e-01
     vertex  4.502646e-01  5.229277e-01  9.841270e-01
   endloop
 endfacet
 facet normal  0.000000e+00  0.000000e+00  1.000000e+00
   outer loop
     vertex  4.502646e-01  5.522046e-01  9.841270e-01
     vertex -5.938271e-01  5.522046e-01  9.841270e-01
     vertex -5.888889e-01  5.229277e-01  9.841270e-01
   endloop
 endfacet
 facet normal  0.000000e+00  0.000000e+00  1.000000e+00
   outer loop
     vertex -5.938271e-01  5.522046e-01  9.841270e-01
     vertex -5.938271e-01 -7.529101e-01  9.841270e-01
     vertex -5.888889e-01  5.229277e-01  9.841270e-01
   endloop
 endfacet
 facet normal  0.000000e+00  0.000000e+00  1.000000e+00
   outer loop
     vertex -5.888889e-01  5.229277e-01  9.841270e-01
     vertex -5.938271e-01 -7.529101e-01  9.841270e-01
     vertex -5.888889e-01 -5.634921e-01  9.841270e-01
   endloop
 endfacet
 facet normal  0.000000e+00  1.000000e+00  0.000000e+00
   outer loop
     vertex -5.938271e-01  5.522046e-01 -1.587302e-02
     vertex  4.502646e-01  5.522046e-01  9.841270e-01
     vertex  4.502646e-01  5.522046e-01 -1.587302e-02
   endloop
 endfacet
 facet normal  0.000000e+00  1.000000e+00  0.000000e+00
   outer loop
     vertex -5.938271e-01  5.522046e-01 -1.587302e-02
     vertex -5.938271e-01  5.522046e-01  9.841270e-01
     vertex  4.502646e-01  5.522046e-01  9.841270e-01
   endloop
 endfacet
 facet normal -1.000000e+00  0.000000e+00  0.000000e+00
   outer loop
     vertex -5.938271e-01 -7.529101e-01 -1.587302e-02
     vertex -5.938271e-01  5.522046e-01 -1.587302e-02
     vertex -5.938271e-01  5.522046e-01 -3.174603e-02
   endloop
 endfacet
 facet normal -1.000000e+00  0.000000e+00  0.000000e+00
   outer loop
     vertex -5.938271e-01 -7.529101e-01 -1.587302e-02
     vertex -5.938271e-01  5.522046e-01 -3.174603e-02
     vertex -5.938271e-01 -7.529101e-01 -3.174603e-02
   endloop
 endfacet
 facet normal  1.000000e+00  0.000000e+00  0.000000e+00
   outer loop
     vertex  4.502646e-01  5.522046e-01 -1.587302e-02
     vertex  4.502646e-01 -7.529101e-01 -1.587302e-02
     vertex  4.502646e-01 -7.529101e-01 -3.174603e-02
   endloop
 endfacet
 facet normal  1.000000e+00  0.000000e+00  0.000000e+00
   outer loop
     vertex  4.502646e-01  5.522046e-01 -1.587302e-02
     vertex  4.502646e-01 -7.529101e-01 -3.174603e-02
     vertex  4.502646e-01  5.522046e-01 -3.174603e-02
   endloop
 endfacet
 facet normal -0.000000e+00  1.000000e+00  0.000000e+00
   outer loop
     vertex  4.502646e-01  5.229277e-01  9.841270e-01
     vertex  4.975309e-01  5.229277e-01  1.015873e+00
     vertex  4.975309e-01  5.229277e-01  9.682540e-01
   endloop
 endfacet
 facet normal  0.000000e+00  1.000000e+00  0.000000e+00
   outer loop
     vertex  4.502646e-01  5.229277e-01  9.682540e-01
     vertex  4.502646e-01  5.229277e-01  9.841270e-01
     vertex  4.975309e-01  5.229277e-01  9.682540e-01
   endloop
 endfacet
 facet normal -0.000000e+00  1.000000e+00  0.000000e+00
   outer loop
     vertex -5.888889e-01  5.229277e-01  1.015873e+00
     vertex  4.975309e-01  5.229277e-01  1.015873e+00
     vertex  4.502646e-01  5.229277e-01  9.841270e-01
   endloop
 endfacet
 facet normal  0.000000e+00  1.000000e+00  0.000000e+00
   outer loop
     vertex -5.888889e-01  5.229277e-01  9.841270e-01
     vertex -5.888889e-01  5.229277e-01  1.015873e+00
     vertex  4.502646e-01  5.229277e-01  9.841270e-01
   endloop
 endfacet
 facet normal -0.000000e+00  1.000000e+00  0.000000e+00
   outer loop
     vertex  4.502646e-01  5.229277e-01  9.682540e-01
     vertex  4.975309e-01  5.229277e-01  9.682540e-01
     vertex  4.975309e-01  5.229277e-01  9.523810e-01
   endloop
 endfacet
 facet normal  0.000000e+00  1.000000e+00  0.000000e+00
   outer loop
     vertex  4.502646e-01  5.229277e-01  9.682540e-01
     vertex  4.975309e-01  5.229277e-01  9.523810e-01
     vertex  4.502646e-01  5.229277e-01  9.523810e-01
   endloop
 endfacet
 facet normal -0.000000e+00  0.000000e+00 -1.000000e+00
   outer loop
     vertex  4.975309e-01  5.229277e-01  9.523810e-01
     vertex  4.502646e-01 -5.634921e-01  9.523810e-01
     vertex  4.502646e-01  5.229277e-01  9.523810e-01
   endloop
 endfacet
 facet normal  0.000000e+00 -0.000000e+00 -1.000000e+00
   outer loop
     vertex  4.975309e-01  5.229277e-01  9.523810e-01
     vertex  4.975309e-01 -5.634921e-01  9.523810e-01
     vertex  4.502646e-01 -5.634921e-01  9.523810e-01
   endloop
 endfacet
 facet normal -0.000000e+00 -1.000000e+00  0.000000e+00
   outer loop
     vertex  4.975309e-01 -5.634921e-01  9.682540e-01
     vertex  4.502646e-01 -5.634921e-01  9.682540e-01
     vertex  4.502646e-01 -5.634921e-01  9.523810e-01
   endloop
 endfacet
 facet normal  0.000000e+00 -1.000000e+00 -0.000000e+00
   outer loop
     vertex  4.975309e-01 -5.634921e-01  9.682540e-01
     vertex  4.502646e-01 -5.634921e-01  9.523810e-01
     vertex  4.975309e-01 -5.634921e-01  9.523810e-01
   endloop
 endfacet
 facet normal -2.348868e-15 -1.000000e+00  0.000000e+00
   outer loop
     vertex -5.416226e-01 -5.634921e-01  9.841270e-01
     vertex -5.888889e-01 -5.634921e-01  1.015873e+00
     vertex -5.888889e-01 -5.634921e-01  9.841270e-01
   endloop
 endfacet
 facet normal  1.181487e-16 -1.000000e+00  3.673106e-15
   outer loop
     vertex  3.980600e-01 -5.634921e-01  9.841270e-01
     vertex -5.888889e-01 -5.634921e-01  1.015873e+00
     vertex -5.416226e-01 -5.634921e-01  9.841270e-01
   endloop
 endfacet
 facet normal -0.000000e+00 -1.000000e+00 -6.994405e-15
   outer loop
     vertex  3.980600e-01 -5.634921e-01  9.682540e-01
     vertex -5.416226e-01 -5.634921e-01  9.841270e-01
     vertex -5.416226e-01 -5.634921e-01  9.682540e-01
   endloop
 endfacet
 facet normal  1.181487e-16 -1.000000e+00  4.131900e-31
   outer loop
     vertex  3.980600e-01 -5.634921e-01  9.682540e-01
     vertex  3.980600e-01 -5.634921e-01  9.841270e-01
     vertex -5.416226e-01 -5.634921e-01  9.841270e-01
   endloop
 endfacet
 facet normal  0.000000e+00 -1.000000e+00  0.000000e+00
   outer loop
     vertex  4.975309e-01 -5.634921e-01  1.015873e+00
     vertex  3.980600e-01 -5.634921e-01  9.841270e-01
     vertex  4.502646e-01 -5.634921e-01  9.841270e-01
   endloop
 endfacet
 facet normal -0.000000e+00 -1.000000e+00  0.000000e+00
   outer loop
     vertex  4.975309e-01 -5.634921e-01  1.015873e+00
     vertex -5.888889e-01 -5.634921e-01  1.015873e+00
     vertex  3.980600e-01 -5.634921e-01  9.841270e-01
   endloop
 endfacet
 facet normal  0.000000e+00 -1.000000e+00  0.000000e+00
   outer loop
     vertex  4.975309e-01 -5.634921e-01  9.682540e-01
     vertex  4.502646e-01 -5.634921e-01  9.841270e-01
     vertex  4.502646e-01 -5.634921e-01  9.682540e-01
   endloop
 endfacet
 facet normal  0.000000e+00 -1.000000e+00  0.000000e+00
   outer loop
     vertex  4.975309e-01 -5.634921e-01  9.682540e-01
     vertex  4.975309e-01 -5.634921e-01  1.015873e+00
     vertex  4.502646e-01 -5.634921e-01  9.841270e-01
   endloop
 endfacet
 facet normal -0.000000e+00  0.000000e+00 -1.000000e+00
   outer loop
     vertex  3.980600e-01 -7.007055e-01 -3.174603e-02
     vertex -5.938271e-01 -7.529101e-01 -3.174603e-02
     vertex -5.416226e-01 -7.007055e-01 -3.174603e-02
   endloop
 endfacet
 facet normal  0.000000e+00  0.000000e+00 -1.000000e+00
   outer loop
     vertex  4.502646e-01 -7.529101e-01 -3.174603e-02
     vertex -5.938271e-01 -7.529101e-01 -3.174603e-02
     vertex  3.980600e-01 -7.007055e-01 -3.174603e-02
   endloop
 endfacet
 facet normal  0.000000e+00 -0.000000e+00 -1.000000e+00
   outer loop
     vertex -5.416226e-01  5.000000e-01 -3.174603e-02
     vertex -5.416226e-01 -7.007055e-01 -3.174603e-02
     vertex -5.938271e-01 -7.529101e-01 -3.174603e-02
   endloop
 endfacet
 facet normal  0.000000e+00  0.000000e+00 -1.000000e+00
   outer loop
     vertex -5.938271e-01  5.522046e-01 -3.174603e-02
     vertex -5.416226e-01  5.000000e-01 -3.174603e-02
     vertex -5.938271e-01 -7.529101e-01 -3.174603e-02
   endloop
 endfacet
 facet normal  0.000000e+00  0.000000e+00 -1.000000e+00
   outer loop
     vertex  3.980600e-01  5.000000e-01 -3.174603e-02
     vertex  4.502646e-01 -7.529101e-01 -3.174603e-02
     vertex  3.980600e-01 -7.007055e-01 -3.174603e-02
   endloop
 endfacet
 facet normal  0.000000e+00  0.000000e+00 -1.000000e+00
   outer loop
     vertex  3.980600e-01  5.000000e-01 -3.174603e-02
     vertex -5.416226e-01  5.000000e-01 -3.174603e-02
     vertex -5.938271e-01  5.522046e-01 -3.174603e-02
   endloop
 endfacet
 facet normal  0.000000e+00 -0.000000e+00 -1.000000e+00
   outer loop
     vertex  4.502646e-01  5.522046e-01 -3.174603e-02
     vertex  4.502646e-01 -7.529101e-01 -3.174603e-02
     vertex  3.980600e-01  5.000000e-01 -3.174603e-02
   endloop
 endfacet
 facet normal -0.000000e+00  0.000000e+00 -1.000000e+00
   outer loop
     vertex  4.502646e-01  5.522046e-01 -3.174603e-02
     vertex  3.980600e-01  5.000000e-01 -3.174603e-02
     vertex -5.938271e-01  5.522046e-01 -3.174603e-02
   endloop
 endfacet
 facet normal -1.000000e+00  0.000000e+00  0.000000e+00
   outer loop
     vertex -5.888889e-01 -5.634921e-01  9.841270e-01
     vertex -5.888889e-01  5.229277e-01  1.015873e+00
     vertex -5.888889e-01  5.229277e-01  9.841270e-01
   endloop
 endfacet
 facet normal -1.000000e+00  0.000000e+00  0.000000e+00
   outer loop
     vertex -5.888889e-01 -5.634921e-01  9.841270e-01
     vertex -5.888889e-01 -5.634921e-01  1.015873e+00
     vertex -5.888889e-01  5.229277e-01  1.015873e+00
   endloop
 endfacet
 facet normal  1.000000e+00 -0.000000e+00  0.000000e+00
   outer loop
     vertex -5.416226e-01 -5.634921e-01  9.523810e-01
     vertex -5.416226e-01  5.000000e-01 -1.587302e-02
     vertex -5.416226e-01  5.000000e-01  9.523810e-01
   endloop
 endfacet
 facet normal  1.000000e+00  0.000000e+00  0.000000e+00
   outer loop
     vertex -5.416226e-01 -7.007055e-01  9.841270e-01
     vertex -5.416226e-01 -5.634921e-01  9.523810e-01
     vertex -5.416226e-01 -5.634921e-01  9.682540e-01
   endloop
 endfacet
 facet normal  1.000000e+00 -0.000000e+00  0.000000e+00
   outer loop
     vertex -5.416226e-01 -7.007055e-01  9.841270e-01
     vertex -5.416226e-01 -5.634921e-01  9.682540e-01
     vertex -5.416226e-01 -5.634921e-01  9.841270e-01
   endloop
 endfacet
 facet normal  1.000000e+00  0.000000e+00  0.000000e+00
   outer loop
     vertex -5.416226e-01 -7.007055e-01 -1.587302e-02
     vertex -5.416226e-01 -5.634921e-01  9.523810e-01
     vertex -5.416226e-01 -7.007055e-01  9.841270e-01
   endloop
 endfacet
 facet normal  1.000000e+00  0.000000e+00  0.000000e+00
   outer loop
     vertex -5.416226e-01 -7.007055e-01 -1.587302e-02
     vertex -5.416226e-01  5.000000e-01 -1.587302e-02
     vertex -5.416226e-01 -5.634921e-01  9.523810e-01
   endloop
 endfacet
 facet normal  0.000000e+00  1.000000e+00  0.000000e+00
   outer loop
     vertex  3.980600e-01 -7.007055e-01 -1.587302e-02
     vertex -5.416226e-01 -7.007055e-01 -1.587302e-02
     vertex -5.416226e-01 -7.007055e-01  9.841270e-01
   endloop
 endfacet
 facet normal  0.000000e+00  1.000000e+00 -0.000000e+00
   outer loop
     vertex  3.980600e-01 -7.007055e-01 -1.587302e-02
     vertex -5.416226e-01 -7.007055e-01  9.841270e-01
     vertex  3.980600e-01 -7.007055e-01  9.841270e-01
   endloop
 endfacet
 facet normal -1.000000e+00  0.000000e+00 -3.497203e-15
   outer loop
     vertex  3.980600e-01 -5.634921e-01  9.682540e-01
     vertex  3.980600e-01 -7.007055e-01  9.841270e-01
     vertex  3.980600e-01 -5.634921e-01  9.841270e-01
   endloop
 endfacet
 facet normal -1.000000e+00  4.045607e-16  0.000000e+00
   outer loop
     vertex  3.980600e-01 -5.634921e-01  9.523810e-01
     vertex  3.980600e-01 -7.007055e-01  9.841270e-01
     vertex  3.980600e-01 -5.634921e-01  9.682540e-01
   endloop
 endfacet
 facet normal -1.000000e+00  4.045607e-16  0.000000e+00
   outer loop
     vertex  3.980600e-01 -7.007055e-01 -1.587302e-02
     vertex  3.980600e-01 -7.007055e-01  9.841270e-01
     vertex  3.980600e-01 -5.634921e-01  9.523810e-01
   endloop
 endfacet
 facet normal -1.000000e+00 -5.219705e-17  0.000000e+00
   outer loop
     vertex  3.980600e-01  5.000000e-01 -1.587302e-02
     vertex  3.980600e-01 -5.634921e-01  9.523810e-01
     vertex  3.980600e-01  5.000000e-01  9.523810e-01
   endloop
 endfacet
 facet normal -1.000000e+00  0.000000e+00  5.733119e-17
   outer loop
     vertex  3.980600e-01  5.000000e-01 -1.587302e-02
     vertex  3.980600e-01 -7.007055e-01 -1.587302e-02
     vertex  3.980600e-01 -5.634921e-01  9.523810e-01
   endloop
 endfacet
 facet normal -0.000000e+00  1.000000e+00  0.000000e+00
   outer loop
     vertex -5.938271e-01  5.522046e-01 -1.587302e-02
     vertex  4.502646e-01  5.522046e-01 -1.587302e-02
     vertex  4.502646e-01  5.522046e-01 -3.174603e-02
   endloop
 endfacet
 facet normal  0.000000e+00  1.000000e+00  0.000000e+00
   outer loop
     vertex -5.938271e-01  5.522046e-01 -1.587302e-02
     vertex  4.502646e-01  5.522046e-01 -3.174603e-02
     vertex -5.938271e-01  5.522046e-01 -3.174603e-02
   endloop
 endfacet
 facet normal  0.000000e+00  0.000000e+00  1.000000e+00
   outer loop
     vertex  4.975309e-01  5.229277e-01  1.015873e+00
     vertex -5.888889e-01 -5.634921e-01  1.015873e+00
     vertex  4.975309e-01 -5.634921e-01  1.015873e+00
   endloop
 endfacet
 facet normal  0.000000e+00  0.000000e+00  1.000000e+00
   outer loop
     vertex  4.975309e-01  5.229277e-01  1.015873e+00
     vertex -5.888889e-01  5.229277e-01  1.015873e+00
     vertex -5.888889e-01 -5.634921e-01  1.015873e+00
   endloop
 endfacet
 facet normal  1.000000e+00  0.000000e+00  0.000000e+00
   outer loop
     vertex  4.975309e-01  5.229277e-01  9.682540e-01
     vertex  4.975309e-01 -5.634921e-01  1.015873e+00
     vertex  4.975309e-01 -5.634921e-01  9.682540e-01
   endloop
 endfacet
 facet normal  1.000000e+00  0.000000e+00 -0.000000e+00
   outer loop
     vertex  4.975309e-01  5.229277e-01  9.682540e-01
     vertex  4.975309e-01  5.229277e-01  1.015873e+00
     vertex  4.975309e-01 -5.634921e-01  1.015873e+00
   endloop
 endfacet
 facet normal  1.000000e+00  0.000000e+00  0.000000e+00
   outer loop
     vertex  4.975309e-01  5.229277e-01  9.682540e-01
     vertex  4.975309e-01 -5.634921e-01  9.682540e-01
     vertex  4.975309e-01 -5.634921e-01  9.523810e-01
   endloop
 endfacet
 facet normal  1.000000e+00  0.000000e+00  0.000000e+00
   outer loop
     vertex  4.975309e-01  5.229277e-01  9.682540e-01
     vertex  4.975309e-01 -5.634921e-01  9.523810e-01
     vertex  4.975309e-01  5.229277e-01  9.523810e-01
   endloop
 endfacet
 facet normal -0.000000e+00 -1.000000e+00  0.000000e+00
   outer loop
     vertex  3.980600e-01 -5.634921e-01  9.682540e-01
     vertex -5.416226e-01 -5.634921e-01  9.682540e-01
     vertex -5.416226e-01 -5.634921e-01  9.523810e-01
   endloop
 endfacet
 facet normal  0.000000e+00 -1.000000e+00 -0.000000e+00
   outer loop
     vertex  3.980600e-01 -5.634921e-01  9.682540e-01
     vertex -5.416226e-01 -5.634921e-01  9.523810e-01
     vertex  3.980600e-01 -5.634921e-01  9.523810e-01
   endloop
 endfacet
 facet normal  0.000000e+00  1.000000e+00  0.000000e+00
   outer loop
     vertex  3.980600e-01 -7.007055e-01 -1.587302e-02
     vertex -5.416226e-01 -7.007055e-01 -3.174603e-02
     vertex -5.416226e-01 -7.007055e-01 -1.587302e-02
   endloop
 endfacet
 facet normal  0.000000e+00  1.000000e+00  0.000000e+00
   outer loop
     vertex  3.980600e-01 -7.007055e-01 -1.587302e-02
     vertex  3.980600e-01 -7.007055e-01 -3.174603e-02
     vertex -5.416226e-01 -7.007055e-01 -3.174603e-02
   endloop
 endfacet
 facet normal -1.000000e+00 -0.000000e+00  0.000000e+00
   outer loop
     vertex  3.980600e-01  5.000000e-01 -1.587302e-02
     vertex  3.980600e-01 -7.007055e-01 -3.174603e-02
     vertex  3.980600e-01 -7.007055e-01 -1.587302e-02
   endloop
 endfacet
 facet normal -1.000000e+00  0.000000e+00 -0.000000e+00
   outer loop
     vertex  3.980600e-01  5.000000e-01 -1.587302e-02
     vertex  3.980600e-01  5.000000e-01 -3.174603e-02
     vertex  3.980600e-01 -7.007055e-01 -3.174603e-02
   endloop
 endfacet
 facet normal  0.000000e+00 -1.000000e+00  0.000000e+00
   outer loop
     vertex -5.416226e-01  5.000000e-01 -1.587302e-02
     vertex  3.980600e-01  5.000000e-01 -3.174603e-02
     vertex  3.980600e-01  5.000000e-01 -1.587302e-02
   endloop
 endfacet
 facet normal  0.000000e+00 -1.000000e+00  0.000000e+00
   outer loop
     vertex -5.416226e-01  5.000000e-01 -1.587302e-02
     vertex -5.416226e-01  5.000000e-01 -3.174603e-02
     vertex  3.980600e-01  5.000000e-01 -3.174603e-02
   endloop
 endfacet
 facet normal  1.000000e+00 -0.000000e+00  0.000000e+00
   outer loop
     vertex -5.416226e-01 -7.007055e-01 -1.587302e-02
     vertex -5.416226e-01  5.000000e-01 -3.174603e-02
     vertex -5.416226e-01  5.000000e-01 -1.587302e-02
   endloop
 endfacet
 facet normal  1.000000e+00  0.000000e+00  0.000000e+00
   outer loop
     vertex -5.416226e-01 -7.007055e-01 -1.587302e-02
     vertex -5.416226e-01 -7.007055e-01 -3.174603e-02
     vertex -5.416226e-01  5.000000e-01 -3.174603e-02
   endloop
 endfacet
 facet normal -0.000000e+00  0.000000e+00 -1.000000e+00
   outer loop
     vertex  3.980600e-01  5.000000e-01  9.523810e-01
     vertex -5.416226e-01 -5.634921e-01  9.523810e-01
     vertex -5.416226e-01  5.000000e-01  9.523810e-01
   endloop
 endfacet
 facet normal  0.000000e+00 -0.000000e+00 -1.000000e+00
   outer loop
     vertex  3.980600e-01  5.000000e-01  9.523810e-01
     vertex  3.980600e-01 -5.634921e-01  9.523810e-01
     vertex -5.416226e-01 -5.634921e-01  9.523810e-01
   endloop
 endfacet
 facet normal  0.000000e+00 -1.000000e+00  0.000000e+00
   outer loop
     vertex -5.416226e-01  5.000000e-01 -1.587302e-02
     vertex  3.980600e-01  5.000000e-01 -1.587302e-02
     vertex  3.980600e-01  5.000000e-01  9.523810e-01
   endloop
 endfacet
 facet normal  0.000000e+00 -1.000000e+00  0.000000e+00
   outer loop
     vertex -5.416226e-01  5.000000e-01 -1.587302e-02
     vertex  3.980600e-01  5.000000e-01  9.523810e-01
     vertex -5.416226e-01  5.000000e-01  9.523810e-01
   endloop
 endfacet
endsolid
