solid 
 facet normal  0.000000e+00 -1.000000e+00  0.000000e+00
   outer loop
     vertex  9.158730e-01 -8.985891e-01 -1.587302e-02
     vertex -2.522054e-02 -8.985891e-01  6.000000e-08
     vertex -2.522054e-02 -8.985891e-01 -1.587302e-02
   endloop
 endfacet
 facet normal  0.000000e+00 -1.000000e+00  0.000000e+00
   outer loop
     vertex  9.158730e-01 -8.985891e-01 -1.587302e-02
     vertex  9.158730e-01 -8.985891e-01  6.000000e-08
     vertex -2.522054e-02 -8.985891e-01  6.000000e-08
   endloop
 endfacet
 facet normal -1.000000e+00  0.000000e+00  0.000000e+00
   outer loop
     vertex -2.522054e-02 -8.985891e-01 -1.587302e-02
     vertex -2.522054e-02 -3.932974e-02  6.000000e-08
     vertex -2.522054e-02 -3.932974e-02 -1.587302e-02
   endloop
 endfacet
 facet normal -1.000000e+00  0.000000e+00  0.000000e+00
   outer loop
     vertex -2.522054e-02 -8.985891e-01 -1.587302e-02
     vertex -2.522054e-02 -8.985891e-01  6.000000e-08
     vertex -2.522054e-02 -3.932974e-02  6.000000e-08
   endloop
 endfacet
 facet normal  1.000000e+00  0.000000e+00  0.000000e+00
   outer loop
     vertex  9.158730e-01 -6.735449e-01 -1.587302e-02
     vertex  9.158730e-01 -8.985891e-01  6.000000e-08
     vertex  9.158730e-01 -8.985891e-01 -1.587302e-02
   endloop
 endfacet
 facet normal  1.000000e+00  0.000000e+00 -0.000000e+00
   outer loop
     vertex  9.158730e-01 -6.735449e-01 -1.587302e-02
     vertex  9.158730e-01 -6.735449e-01  6.000000e-08
     vertex  9.158730e-01 -8.985891e-01  6.000000e-08
   endloop
 endfacet
 facet normal -0.000000e+00 -1.000000e+00  0.000000e+00
   outer loop
     vertex  9.158730e-01 -8.985891e-01 -1.587302e-02
     vertex -2.522054e-02 -8.985891e-01 -1.587302e-02
     vertex -2.522054e-02 -8.985891e-01 -3.174603e-02
   endloop
 endfacet
 facet normal  0.000000e+00 -1.000000e+00 -0.000000e+00
   outer loop
     vertex  9.158730e-01 -8.985891e-01 -1.587302e-02
     vertex -2.522054e-02 -8.985891e-01 -3.174603e-02
     vertex  9.158730e-01 -8.985891e-01 -3.174603e-02
   endloop
 endfacet
 facet normal  0.000000e+00  0.000000e+00  1.000000e+00
   outer loop
     vertex  9.158730e-01 -8.985891e-01  6.000000e-08
     vertex  6.294532e-01 -6.735449e-01  6.000000e-08
     vertex -2.522054e-02 -8.985891e-01  6.000000e-08
   endloop
 endfacet
 facet normal  0.000000e+00  0.000000e+00  1.000000e+00
   outer loop
     vertex  5.885361e-01 -4.689594e-01  6.000000e-08
     vertex  6.294532e-01 -6.735449e-01  6.000000e-08
     vertex  6.089947e-01 -4.894180e-01  6.000000e-08
   endloop
 endfacet
 facet normal  0.000000e+00  0.000000e+00  1.000000e+00
   outer loop
     vertex  5.885361e-01 -4.689594e-01  6.000000e-08
     vertex -2.522054e-02 -3.932974e-02  6.000000e-08
     vertex -2.522054e-02 -8.985891e-01  6.000000e-08
   endloop
 endfacet
 facet normal  0.000000e+00  0.000000e+00  1.000000e+00
   outer loop
     vertex  5.885361e-01 -4.689594e-01  6.000000e-08
     vertex -2.522054e-02 -8.985891e-01  6.000000e-08
     vertex  6.294532e-01 -6.735449e-01  6.000000e-08
   endloop
 endfacet
 facet normal  0.000000e+00  0.000000e+00  1.000000e+00
   outer loop
     vertex  9.158730e-01 -6.735449e-01  6.000000e-08
     vertex  6.294532e-01 -6.735449e-01  6.000000e-08
     vertex  9.158730e-01 -8.985891e-01  6.000000e-08
   endloop
 endfacet
 facet normal  0.000000e+00  0.000000e+00  1.000000e+00
   outer loop
     vertex  5.885361e-01 -3.932974e-02  6.000000e-08
     vertex -2.522054e-02 -3.932974e-02  6.000000e-08
     vertex  5.885361e-01 -4.689594e-01  6.000000e-08
   endloop
 endfacet
 facet normal  0.000000e+00  1.000000e+00  0.000000e+00
   outer loop
     vertex -2.522054e-02 -3.932974e-02 -1.587302e-02
     vertex  5.885361e-01 -3.932974e-02  6.000000e-08
     vertex  5.885361e-01 -3.932974e-02 -1.587302e-02
   endloop
 endfacet
 facet normal  0.000000e+00  1.000000e+00  0.000000e+00
   outer loop
     vertex -2.522054e-02 -3.932974e-02 -1.587302e-02
     vertex -2.522054e-02 -3.932974e-02  6.000000e-08
     vertex  5.885361e-01 -3.932974e-02  6.000000e-08
   endloop
 endfacet
 facet normal -1.000000e+00  0.000000e+00  0.000000e+00
   outer loop
     vertex -2.522054e-02 -8.985891e-01 -1.587302e-02
     vertex -2.522054e-02 -3.932974e-02 -1.587302e-02
     vertex -2.522054e-02 -3.932974e-02 -3.174603e-02
   endloop
 endfacet
 facet normal -1.000000e+00  0.000000e+00  0.000000e+00
   outer loop
     vertex -2.522054e-02 -8.985891e-01 -1.587302e-02
     vertex -2.522054e-02 -3.932974e-02 -3.174603e-02
     vertex -2.522054e-02 -8.985891e-01 -3.174603e-02
   endloop
 endfacet
 facet normal  0.000000e+00  1.000000e+00  0.000000e+00
   outer loop
     vertex  6.294532e-01 -6.735449e-01 -1.587302e-02
     vertex  9.158730e-01 -6.735449e-01  6.000000e-08
     vertex  9.158730e-01 -6.735449e-01 -1.587302e-02
   endloop
 endfacet
 facet normal  0.000000e+00  1.000000e+00  0.000000e+00
   outer loop
     vertex  6.294532e-01 -6.735449e-01 -1.587302e-02
     vertex  6.294532e-01 -6.735449e-01  6.000000e-08
     vertex  9.158730e-01 -6.735449e-01  6.000000e-08
   endloop
 endfacet
 facet normal  1.000000e+00  0.000000e+00  0.000000e+00
   outer loop
     vertex  9.158730e-01 -6.735449e-01 -1.587302e-02
     vertex  9.158730e-01 -8.985891e-01 -1.587302e-02
     vertex  9.158730e-01 -8.985891e-01 -3.174603e-02
   endloop
 endfacet
 facet normal  1.000000e+00  0.000000e+00  0.000000e+00
   outer loop
     vertex  9.158730e-01 -6.735449e-01 -1.587302e-02
     vertex  9.158730e-01 -8.985891e-01 -3.174603e-02
     vertex  9.158730e-01 -6.735449e-01 -3.174603e-02
   endloop
 endfacet
 facet normal  0.000000e+00  0.000000e+00 -1.000000e+00
   outer loop
     vertex  9.158730e-01 -8.985891e-01 -3.174603e-02
     vertex -2.522054e-02 -8.985891e-01 -3.174603e-02
     vertex  6.294532e-01 -6.735449e-01 -3.174603e-02
   endloop
 endfacet
 facet normal  0.000000e+00  0.000000e+00 -1.000000e+00
   outer loop
     vertex  5.885361e-01 -4.689594e-01 -3.174603e-02
     vertex  6.089947e-01 -4.894180e-01 -3.174603e-02
     vertex  6.294532e-01 -6.735449e-01 -3.174603e-02
   endloop
 endfacet
 facet normal -0.000000e+00  0.000000e+00 -1.000000e+00
   outer loop
     vertex  5.885361e-01 -4.689594e-01 -3.174603e-02
     vertex -2.522054e-02 -8.985891e-01 -3.174603e-02
     vertex -2.522054e-02 -3.932974e-02 -3.174603e-02
   endloop
 endfacet
 facet normal  0.000000e+00 -0.000000e+00 -1.000000e+00
   outer loop
     vertex  5.885361e-01 -4.689594e-01 -3.174603e-02
     vertex  6.294532e-01 -6.735449e-01 -3.174603e-02
     vertex -2.522054e-02 -8.985891e-01 -3.174603e-02
   endloop
 endfacet
 facet normal -0.000000e+00 -0.000000e+00 -1.000000e+00
   outer loop
     vertex  9.158730e-01 -6.735449e-01 -3.174603e-02
     vertex  9.158730e-01 -8.985891e-01 -3.174603e-02
     vertex  6.294532e-01 -6.735449e-01 -3.174603e-02
   endloop
 endfacet
 facet normal -0.000000e+00 -0.000000e+00 -1.000000e+00
   outer loop
     vertex  5.885361e-01 -3.932974e-02 -3.174603e-02
     vertex  5.885361e-01 -4.689594e-01 -3.174603e-02
     vertex -2.522054e-02 -3.932974e-02 -3.174603e-02
   endloop
 endfacet
 facet normal  9.938837e-01  1.104317e-01  0.000000e+00
   outer loop
     vertex  6.089947e-01 -4.894180e-01 -1.587302e-02
     vertex  6.294532e-01 -6.735449e-01  6.000000e-08
     vertex  6.294532e-01 -6.735449e-01 -1.587302e-02
   endloop
 endfacet
 facet normal  9.938837e-01  1.104317e-01 -0.000000e+00
   outer loop
     vertex  6.089947e-01 -4.894180e-01 -1.587302e-02
     vertex  6.089947e-01 -4.894180e-01  6.000000e-08
     vertex  6.294532e-01 -6.735449e-01  6.000000e-08
   endloop
 endfacet
 facet normal  7.071073e-01  7.071063e-01  0.000000e+00
   outer loop
     vertex  5.885361e-01 -4.689594e-01 -1.587302e-02
     vertex  6.089947e-01 -4.894180e-01  6.000000e-08
     vertex  6.089947e-01 -4.894180e-01 -1.587302e-02
   endloop
 endfacet
 facet normal  7.071073e-01  7.071063e-01 -0.000000e+00
   outer loop
     vertex  5.885361e-01 -4.689594e-01 -1.587302e-02
     vertex  5.885361e-01 -4.689594e-01  6.000000e-08
     vertex  6.089947e-01 -4.894180e-01  6.000000e-08
   endloop
 endfacet
 facet normal  1.000000e+00  0.000000e+00  0.000000e+00
   outer loop
     vertex  5.885361e-01 -3.932974e-02 -1.587302e-02
     vertex  5.885361e-01 -4.689594e-01  6.000000e-08
     vertex  5.885361e-01 -4.689594e-01 -1.587302e-02
   endloop
 endfacet
 facet normal  1.000000e+00  0.000000e+00 -0.000000e+00
   outer loop
     vertex  5.885361e-01 -3.932974e-02 -1.587302e-02
     vertex  5.885361e-01 -3.932974e-02  6.000000e-08
     vertex  5.885361e-01 -4.689594e-01  6.000000e-08
   endloop
 endfacet
 facet normal -0.000000e+00  1.000000e+00  0.000000e+00
   outer loop
     vertex -2.522054e-02 -3.932974e-02 -1.587302e-02
     vertex  5.885361e-01 -3.932974e-02 -1.587302e-02
     vertex  5.885361e-01 -3.932974e-02 -3.174603e-02
   endloop
 endfacet
 facet normal  0.000000e+00  1.000000e+00  0.000000e+00
   outer loop
     vertex -2.522054e-02 -3.932974e-02 -1.587302e-02
     vertex  5.885361e-01 -3.932974e-02 -3.174603e-02
     vertex -2.522054e-02 -3.932974e-02 -3.174603e-02
   endloop
 endfacet
 facet normal -0.000000e+00  1.000000e+00  0.000000e+00
   outer loop
     vertex  6.294532e-01 -6.735449e-01 -1.587302e-02
     vertex  9.158730e-01 -6.735449e-01 -1.587302e-02
     vertex  9.158730e-01 -6.735449e-01 -3.174603e-02
   endloop
 endfacet
 facet normal  0.000000e+00  1.000000e+00  0.000000e+00
   outer loop
     vertex  6.294532e-01 -6.735449e-01 -1.587302e-02
     vertex  9.158730e-01 -6.735449e-01 -3.174603e-02
     vertex  6.294532e-01 -6.735449e-01 -3.174603e-02
   endloop
 endfacet
 facet normal  9.938837e-01  1.104317e-01  0.000000e+00
   outer loop
     vertex  6.089947e-01 -4.894180e-01 -1.587302e-02
     vertex  6.294532e-01 -6.735449e-01 -1.587302e-02
     vertex  6.294532e-01 -6.735449e-01 -3.174603e-02
   endloop
 endfacet
 facet normal  9.938837e-01  1.104317e-01  0.000000e+00
   outer loop
     vertex  6.089947e-01 -4.894180e-01 -1.587302e-02
     vertex  6.294532e-01 -6.735449e-01 -3.174603e-02
     vertex  6.089947e-01 -4.894180e-01 -3.174603e-02
   endloop
 endfacet
 facet normal  7.071073e-01  7.071063e-01  0.000000e+00
   outer loop
     vertex  5.885361e-01 -4.689594e-01 -1.587302e-02
     vertex  6.089947e-01 -4.894180e-01 -1.587302e-02
     vertex  6.089947e-01 -4.894180e-01 -3.174603e-02
   endloop
 endfacet
 facet normal  7.071073e-01  7.071063e-01  0.000000e+00
   outer loop
     vertex  5.885361e-01 -4.689594e-01 -1.587302e-02
     vertex  6.089947e-01 -4.894180e-01 -3.174603e-02
     vertex  5.885361e-01 -4.689594e-01 -3.174603e-02
   endloop
 endfacet
 facet normal  1.000000e+00  0.000000e+00  0.000000e+00
   outer loop
     vertex  5.885361e-01 -3.932974e-02 -1.587302e-02
     vertex  5.885361e-01 -4.689594e-01 -1.587302e-02
     vertex  5.885361e-01 -4.689594e-01 -3.174603e-02
   endloop
 endfacet
 facet normal  1.000000e+00  0.000000e+00  0.000000e+00
   outer loop
     vertex  5.885361e-01 -3.932974e-02 -1.587302e-02
     vertex  5.885361e-01 -4.689594e-01 -3.174603e-02
     vertex  5.885361e-01 -3.932974e-02 -3.174603e-02
   endloop
 endfacet
endsolid
