solid 
 facet normal  0.000000e+00 -9.701425e-01  2.425358e-01
   outer loop
     vertex -1.587302e-02 -2.326279e-01 -3.932977e-02
     vertex  9.841270e-01 -2.128748e-01  3.968257e-02
     vertex -1.587302e-02 -2.128748e-01  3.968257e-02
   endloop
 endfacet
 facet normal  0.000000e+00 -9.701425e-01  2.425358e-01
   outer loop
     vertex -1.587302e-02 -2.326279e-01 -3.932977e-02
     vertex  9.841270e-01 -2.326279e-01 -3.932977e-02
     vertex  9.841270e-01 -2.128748e-01  3.968257e-02
   endloop
 endfacet
 facet normal  0.000000e+00  4.472136e-01  8.944272e-01
   outer loop
     vertex -1.587302e-02 -2.128748e-01  3.968257e-02
     vertex  9.841270e-01 -1.733686e-01  1.992948e-02
     vertex -1.587302e-02 -1.733686e-01  1.992948e-02
   endloop
 endfacet
 facet normal -0.000000e+00  4.472136e-01  8.944272e-01
   outer loop
     vertex -1.587302e-02 -2.128748e-01  3.968257e-02
     vertex  9.841270e-01 -2.128748e-01  3.968257e-02
     vertex  9.841270e-01 -1.733686e-01  1.992948e-02
   endloop
 endfacet
 facet normal  0.000000e+00 -8.137336e-01  5.812380e-01
   outer loop
     vertex -1.587302e-02 -2.820106e-01 -1.084656e-01
     vertex  9.841270e-01 -2.326279e-01 -3.932977e-02
     vertex -1.587302e-02 -2.326279e-01 -3.932977e-02
   endloop
 endfacet
 facet normal  0.000000e+00 -8.137336e-01  5.812380e-01
   outer loop
     vertex -1.587302e-02 -2.820106e-01 -1.084656e-01
     vertex  9.841270e-01 -2.820106e-01 -1.084656e-01
     vertex  9.841270e-01 -2.326279e-01 -3.932977e-02
   endloop
 endfacet
 facet normal  0.000000e+00 -9.701425e-01  2.425358e-01
   outer loop
     vertex -1.587302e-02 -2.326279e-01 -3.932977e-02
     vertex -1.587302e-02 -2.128748e-01  3.968257e-02
     vertex -7.301587e-01 -2.128748e-01  3.968257e-02
   endloop
 endfacet
 facet normal  0.000000e+00 -9.701425e-01  2.425358e-01
   outer loop
     vertex -1.587302e-02 -2.326279e-01 -3.932977e-02
     vertex -7.301587e-01 -2.128748e-01  3.968257e-02
     vertex -7.301587e-01 -2.326279e-01 -3.932977e-02
   endloop
 endfacet
 facet normal  1.000000e+00  0.000000e+00  0.000000e+00
   outer loop
     vertex  9.841270e-01 -1.733686e-01  1.992948e-02
     vertex  9.841270e-01 -2.128748e-01  3.968257e-02
     vertex  9.841270e-01 -2.326279e-01 -3.932977e-02
   endloop
 endfacet
 facet normal  1.000000e+00  0.000000e+00  0.000000e+00
   outer loop
     vertex  9.841270e-01 -1.534387e-02 -1.084656e-01
     vertex  9.841270e-01 -2.326279e-01 -3.932977e-02
     vertex  9.841270e-01 -2.820106e-01 -1.084656e-01
   endloop
 endfacet
 facet normal  1.000000e+00  0.000000e+00  0.000000e+00
   outer loop
     vertex  9.841270e-01 -1.534387e-02 -1.084656e-01
     vertex  9.841270e-01 -1.733686e-01  1.992948e-02
     vertex  9.841270e-01 -2.326279e-01 -3.932977e-02
   endloop
 endfacet
 facet normal  1.000000e+00  0.000000e+00  0.000000e+00
   outer loop
     vertex  9.841270e-01 -1.437389e-01  2.980602e-02
     vertex  9.841270e-01 -1.733686e-01  1.992948e-02
     vertex  9.841270e-01 -1.534387e-02 -1.084656e-01
   endloop
 endfacet
 facet normal  1.000000e+00  0.000000e+00  0.000000e+00
   outer loop
     vertex  9.841270e-01 -1.239859e-01  8.906530e-02
     vertex  9.841270e-01 -1.338624e-01  6.931219e-02
     vertex  9.841270e-01 -1.042328e-01  4.955911e-02
   endloop
 endfacet
 facet normal  1.000000e+00  0.000000e+00  0.000000e+00
   outer loop
     vertex  9.841270e-01  4.409220e-03 -1.957669e-02
     vertex  9.841270e-01 -1.042328e-01  4.955911e-02
     vertex  9.841270e-01 -1.437389e-01  2.980602e-02
   endloop
 endfacet
 facet normal  1.000000e+00  0.000000e+00  0.000000e+00
   outer loop
     vertex  9.841270e-01  4.409220e-03 -1.957669e-02
     vertex  9.841270e-01 -1.437389e-01  2.980602e-02
     vertex  9.841270e-01 -1.534387e-02 -1.084656e-01
   endloop
 endfacet
 facet normal  1.000000e+00  0.000000e+00  0.000000e+00
   outer loop
     vertex  9.841270e-01 -1.042328e-01  1.088184e-01
     vertex  9.841270e-01 -1.427058e-01  1.280549e-01
     vertex  9.841270e-01 -1.381856e-01  1.142783e-01
   endloop
 endfacet
 facet normal  1.000000e+00  0.000000e+00  0.000000e+00
   outer loop
     vertex  9.841270e-01 -1.042328e-01  1.088184e-01
     vertex  9.841270e-01 -1.381856e-01  1.142783e-01
     vertex  9.841270e-01 -1.319100e-01  1.012076e-01
   endloop
 endfacet
 facet normal  1.000000e+00  0.000000e+00  0.000000e+00
   outer loop
     vertex  9.841270e-01 -1.042328e-01  1.088184e-01
     vertex  9.841270e-01 -1.319100e-01  1.012076e-01
     vertex  9.841270e-01 -1.239859e-01  8.906530e-02
   endloop
 endfacet
 facet normal  1.000000e+00  0.000000e+00  0.000000e+00
   outer loop
     vertex  9.841270e-01 -1.042328e-01  1.088184e-01
     vertex  9.841270e-01 -1.239859e-01  8.906530e-02
     vertex  9.841270e-01 -1.042328e-01  4.955911e-02
   endloop
 endfacet
 facet normal  1.000000e+00  0.000000e+00  0.000000e+00
   outer loop
     vertex  9.841270e-01 -5.485006e-02  1.285715e-01
     vertex  9.841270e-01 -1.042328e-01  4.955911e-02
     vertex  9.841270e-01  4.409220e-03 -1.957669e-02
   endloop
 endfacet
 facet normal  1.000000e+00  0.000000e+00  0.000000e+00
   outer loop
     vertex  9.841270e-01 -5.485006e-02  1.285715e-01
     vertex  9.841270e-01 -1.042328e-01  1.088184e-01
     vertex  9.841270e-01 -1.042328e-01  4.955911e-02
   endloop
 endfacet
 facet normal  1.000000e+00  0.000000e+00  0.000000e+00
   outer loop
     vertex  9.841270e-01  5.379193e-02  8.906530e-02
     vertex  9.841270e-01  4.409220e-03 -1.957669e-02
     vertex  9.841270e-01  4.391539e-02  1.763924e-04
   endloop
 endfacet
 facet normal  1.000000e+00  0.000000e+00  0.000000e+00
   outer loop
     vertex  9.841270e-01  5.379193e-02  8.906530e-02
     vertex  9.841270e-01  4.391539e-02  1.763924e-04
     vertex  9.841270e-01  6.366848e-02  6.931219e-02
   endloop
 endfacet
 facet normal  1.000000e+00  0.000000e+00  0.000000e+00
   outer loop
     vertex  9.841270e-01  5.379193e-02  8.906530e-02
     vertex  9.841270e-01 -5.485006e-02  1.285715e-01
     vertex  9.841270e-01  4.409220e-03 -1.957669e-02
   endloop
 endfacet
 facet normal  1.000000e+00  0.000000e+00  0.000000e+00
   outer loop
     vertex  9.841270e-01  6.465176e-02  1.067843e-01
     vertex  9.841270e-01 -5.485006e-02  1.285715e-01
     vertex  9.841270e-01  5.379193e-02  8.906530e-02
   endloop
 endfacet
 facet normal  1.000000e+00  0.000000e+00  0.000000e+00
   outer loop
     vertex  9.841270e-01  3.403885e-02  1.878307e-01
     vertex  9.841270e-01  6.465176e-02  1.067843e-01
     vertex  9.841270e-01  7.202199e-02  1.262157e-01
   endloop
 endfacet
 facet normal  1.000000e+00  0.000000e+00  0.000000e+00
   outer loop
     vertex  9.841270e-01  3.403885e-02  1.878307e-01
     vertex  9.841270e-01 -5.485006e-02  1.285715e-01
     vertex  9.841270e-01  6.465176e-02  1.067843e-01
   endloop
 endfacet
 facet normal  1.000000e+00  0.000000e+00  0.000000e+00
   outer loop
     vertex  9.841270e-01  7.564479e-02  1.466797e-01
     vertex  9.841270e-01  3.403885e-02  1.878307e-01
     vertex  9.841270e-01  7.202199e-02  1.262157e-01
   endloop
 endfacet
 facet normal  1.000000e+00  0.000000e+00  0.000000e+00
   outer loop
     vertex  9.841270e-01  7.539342e-02  1.674604e-01
     vertex  9.841270e-01  3.403885e-02  1.878307e-01
     vertex  9.841270e-01  7.564479e-02  1.466797e-01
   endloop
 endfacet
 facet normal  1.000000e+00  0.000000e+00  0.000000e+00
   outer loop
     vertex  9.841270e-01  7.127667e-02  1.878307e-01
     vertex  9.841270e-01  3.403885e-02  1.878307e-01
     vertex  9.841270e-01  7.539342e-02  1.674604e-01
   endloop
 endfacet
 facet normal  0.000000e+00 -3.162278e-01  9.486833e-01
   outer loop
     vertex -1.587302e-02 -1.733686e-01  1.992948e-02
     vertex  9.841270e-01 -1.437389e-01  2.980602e-02
     vertex -1.587302e-02 -1.437389e-01  2.980602e-02
   endloop
 endfacet
 facet normal  0.000000e+00 -3.162278e-01  9.486833e-01
   outer loop
     vertex -1.587302e-02 -1.733686e-01  1.992948e-02
     vertex  9.841270e-01 -1.733686e-01  1.992948e-02
     vertex  9.841270e-01 -1.437389e-01  2.980602e-02
   endloop
 endfacet
 facet normal  0.000000e+00  4.472136e-01  8.944272e-01
   outer loop
     vertex -1.587302e-02 -2.128748e-01  3.968257e-02
     vertex -1.587302e-02 -1.733686e-01  1.992948e-02
     vertex -7.301587e-01 -1.733686e-01  1.992948e-02
   endloop
 endfacet
 facet normal  0.000000e+00  4.472136e-01  8.944272e-01
   outer loop
     vertex -1.587302e-02 -2.128748e-01  3.968257e-02
     vertex -7.301587e-01 -1.733686e-01  1.992948e-02
     vertex -7.301587e-01 -2.128748e-01  3.968257e-02
   endloop
 endfacet
 facet normal  0.000000e+00  0.000000e+00 -1.000000e+00
   outer loop
     vertex -1.587302e-02 -1.534387e-02 -1.084656e-01
     vertex  9.841270e-01 -2.820106e-01 -1.084656e-01
     vertex -1.587302e-02 -2.820106e-01 -1.084656e-01
   endloop
 endfacet
 facet normal  0.000000e+00  0.000000e+00 -1.000000e+00
   outer loop
     vertex -1.587302e-02 -1.534387e-02 -1.084656e-01
     vertex  9.841270e-01 -1.534387e-02 -1.084656e-01
     vertex  9.841270e-01 -2.820106e-01 -1.084656e-01
   endloop
 endfacet
 facet normal  0.000000e+00 -8.137336e-01  5.812380e-01
   outer loop
     vertex -1.587302e-02 -2.820106e-01 -1.084656e-01
     vertex -1.587302e-02 -2.326279e-01 -3.932977e-02
     vertex -7.301587e-01 -2.326279e-01 -3.932977e-02
   endloop
 endfacet
 facet normal  0.000000e+00 -8.137336e-01  5.812380e-01
   outer loop
     vertex -1.587302e-02 -2.820106e-01 -1.084656e-01
     vertex -7.301587e-01 -2.326279e-01 -3.932977e-02
     vertex -7.301587e-01 -2.820106e-01 -1.084656e-01
   endloop
 endfacet
 facet normal -1.000000e+00 -0.000000e+00  0.000000e+00
   outer loop
     vertex -7.301587e-01 -1.733686e-01  1.992948e-02
     vertex -7.301587e-01 -2.326279e-01 -3.932977e-02
     vertex -7.301587e-01 -2.128748e-01  3.968257e-02
   endloop
 endfacet
 facet normal -1.000000e+00  0.000000e+00  0.000000e+00
   outer loop
     vertex -7.301587e-01 -1.534387e-02 -1.084656e-01
     vertex -7.301587e-01 -2.820106e-01 -1.084656e-01
     vertex -7.301587e-01 -2.326279e-01 -3.932977e-02
   endloop
 endfacet
 facet normal -1.000000e+00  0.000000e+00  0.000000e+00
   outer loop
     vertex -7.301587e-01 -1.534387e-02 -1.084656e-01
     vertex -7.301587e-01 -2.326279e-01 -3.932977e-02
     vertex -7.301587e-01 -1.733686e-01  1.992948e-02
   endloop
 endfacet
 facet normal -1.000000e+00  0.000000e+00 -0.000000e+00
   outer loop
     vertex -7.301587e-01 -1.437389e-01  2.980602e-02
     vertex -7.301587e-01 -1.534387e-02 -1.084656e-01
     vertex -7.301587e-01 -1.733686e-01  1.992948e-02
   endloop
 endfacet
 facet normal -1.000000e+00  0.000000e+00 -0.000000e+00
   outer loop
     vertex -7.301587e-01 -1.239859e-01  8.906530e-02
     vertex -7.301587e-01 -1.042328e-01  4.955911e-02
     vertex -7.301587e-01 -1.338624e-01  6.931219e-02
   endloop
 endfacet
 facet normal -1.000000e+00  0.000000e+00  0.000000e+00
   outer loop
     vertex -7.301587e-01  4.409220e-03 -1.957669e-02
     vertex -7.301587e-01 -1.437389e-01  2.980602e-02
     vertex -7.301587e-01 -1.042328e-01  4.955911e-02
   endloop
 endfacet
 facet normal -1.000000e+00 -0.000000e+00  0.000000e+00
   outer loop
     vertex -7.301587e-01  4.409220e-03 -1.957669e-02
     vertex -7.301587e-01 -1.534387e-02 -1.084656e-01
     vertex -7.301587e-01 -1.437389e-01  2.980602e-02
   endloop
 endfacet
 facet normal -1.000000e+00  0.000000e+00  0.000000e+00
   outer loop
     vertex -7.301587e-01 -1.042328e-01  1.088184e-01
     vertex -7.301587e-01 -1.381856e-01  1.142783e-01
     vertex -7.301587e-01 -1.427058e-01  1.280549e-01
   endloop
 endfacet
 facet normal -1.000000e+00 -0.000000e+00  0.000000e+00
   outer loop
     vertex -7.301587e-01 -1.042328e-01  1.088184e-01
     vertex -7.301587e-01 -1.319100e-01  1.012076e-01
     vertex -7.301587e-01 -1.381856e-01  1.142783e-01
   endloop
 endfacet
 facet normal -1.000000e+00  0.000000e+00  0.000000e+00
   outer loop
     vertex -7.301587e-01 -1.042328e-01  1.088184e-01
     vertex -7.301587e-01 -1.239859e-01  8.906530e-02
     vertex -7.301587e-01 -1.319100e-01  1.012076e-01
   endloop
 endfacet
 facet normal -1.000000e+00  0.000000e+00 -0.000000e+00
   outer loop
     vertex -7.301587e-01 -1.042328e-01  1.088184e-01
     vertex -7.301587e-01 -1.042328e-01  4.955911e-02
     vertex -7.301587e-01 -1.239859e-01  8.906530e-02
   endloop
 endfacet
 facet normal -1.000000e+00  0.000000e+00 -0.000000e+00
   outer loop
     vertex -7.301587e-01 -5.485006e-02  1.285715e-01
     vertex -7.301587e-01  4.409220e-03 -1.957669e-02
     vertex -7.301587e-01 -1.042328e-01  4.955911e-02
   endloop
 endfacet
 facet normal -1.000000e+00  0.000000e+00  0.000000e+00
   outer loop
     vertex -7.301587e-01 -5.485006e-02  1.285715e-01
     vertex -7.301587e-01 -1.042328e-01  4.955911e-02
     vertex -7.301587e-01 -1.042328e-01  1.088184e-01
   endloop
 endfacet
 facet normal -1.000000e+00  0.000000e+00  0.000000e+00
   outer loop
     vertex -7.301587e-01  5.379193e-02  8.906530e-02
     vertex -7.301587e-01  4.391539e-02  1.763924e-04
     vertex -7.301587e-01  4.409220e-03 -1.957669e-02
   endloop
 endfacet
 facet normal -1.000000e+00  0.000000e+00 -0.000000e+00
   outer loop
     vertex -7.301587e-01  5.379193e-02  8.906530e-02
     vertex -7.301587e-01  6.366848e-02  6.931219e-02
     vertex -7.301587e-01  4.391539e-02  1.763924e-04
   endloop
 endfacet
 facet normal -1.000000e+00 -0.000000e+00  0.000000e+00
   outer loop
     vertex -7.301587e-01  5.379193e-02  8.906530e-02
     vertex -7.301587e-01  4.409220e-03 -1.957669e-02
     vertex -7.301587e-01 -5.485006e-02  1.285715e-01
   endloop
 endfacet
 facet normal -1.000000e+00 -0.000000e+00  0.000000e+00
   outer loop
     vertex -7.301587e-01  6.465176e-02  1.067843e-01
     vertex -7.301587e-01  5.379193e-02  8.906530e-02
     vertex -7.301587e-01 -5.485006e-02  1.285715e-01
   endloop
 endfacet
 facet normal -1.000000e+00  0.000000e+00  0.000000e+00
   outer loop
     vertex -7.301587e-01  3.403885e-02  1.878307e-01
     vertex -7.301587e-01  7.202199e-02  1.262157e-01
     vertex -7.301587e-01  6.465176e-02  1.067843e-01
   endloop
 endfacet
 facet normal -1.000000e+00  0.000000e+00 -0.000000e+00
   outer loop
     vertex -7.301587e-01  3.403885e-02  1.878307e-01
     vertex -7.301587e-01  6.465176e-02  1.067843e-01
     vertex -7.301587e-01 -5.485006e-02  1.285715e-01
   endloop
 endfacet
 facet normal -1.000000e+00 -0.000000e+00  0.000000e+00
   outer loop
     vertex -7.301587e-01  7.564479e-02  1.466797e-01
     vertex -7.301587e-01  7.202199e-02  1.262157e-01
     vertex -7.301587e-01  3.403885e-02  1.878307e-01
   endloop
 endfacet
 facet normal -1.000000e+00 -0.000000e+00 -0.000000e+00
   outer loop
     vertex -7.301587e-01  7.539342e-02  1.674604e-01
     vertex -7.301587e-01  7.564479e-02  1.466797e-01
     vertex -7.301587e-01  3.403885e-02  1.878307e-01
   endloop
 endfacet
 facet normal -1.000000e+00 -0.000000e+00 -0.000000e+00
   outer loop
     vertex -7.301587e-01  7.127667e-02  1.878307e-01
     vertex -7.301587e-01  7.539342e-02  1.674604e-01
     vertex -7.301587e-01  3.403885e-02  1.878307e-01
   endloop
 endfacet
 facet normal  0.000000e+00 -4.472137e-01  8.944272e-01
   outer loop
     vertex -1.587302e-02 -1.437389e-01  2.980602e-02
     vertex  9.841270e-01 -1.042328e-01  4.955911e-02
     vertex -1.587302e-02 -1.042328e-01  4.955911e-02
   endloop
 endfacet
 facet normal  0.000000e+00 -4.472137e-01  8.944272e-01
   outer loop
     vertex -1.587302e-02 -1.437389e-01  2.980602e-02
     vertex  9.841270e-01 -1.437389e-01  2.980602e-02
     vertex  9.841270e-01 -1.042328e-01  4.955911e-02
   endloop
 endfacet
 facet normal  0.000000e+00 -5.547002e-01 -8.320503e-01
   outer loop
     vertex -1.587302e-02 -1.042328e-01  4.955911e-02
     vertex  9.841270e-01 -1.338624e-01  6.931219e-02
     vertex -1.587302e-02 -1.338624e-01  6.931219e-02
   endloop
 endfacet
 facet normal  0.000000e+00 -5.547002e-01 -8.320503e-01
   outer loop
     vertex -1.587302e-02 -1.042328e-01  4.955911e-02
     vertex  9.841270e-01 -1.042328e-01  4.955911e-02
     vertex  9.841270e-01 -1.338624e-01  6.931219e-02
   endloop
 endfacet
 facet normal  0.000000e+00 -8.944274e-01  4.472132e-01
   outer loop
     vertex -1.587302e-02 -1.338624e-01  6.931219e-02
     vertex  9.841270e-01 -1.239859e-01  8.906530e-02
     vertex -1.587301e-02 -1.239859e-01  8.906530e-02
   endloop
 endfacet
 facet normal  0.000000e+00 -8.944274e-01  4.472132e-01
   outer loop
     vertex -1.587302e-02 -1.338624e-01  6.931219e-02
     vertex  9.841270e-01 -1.338624e-01  6.931219e-02
     vertex  9.841270e-01 -1.239859e-01  8.906530e-02
   endloop
 endfacet
 facet normal  0.000000e+00 -9.501633e-01 -3.117527e-01
   outer loop
     vertex -1.587302e-02 -1.381856e-01  1.142783e-01
     vertex  9.841270e-01 -1.427058e-01  1.280549e-01
     vertex -1.587302e-02 -1.427058e-01  1.280549e-01
   endloop
 endfacet
 facet normal  0.000000e+00 -9.501633e-01 -3.117527e-01
   outer loop
     vertex -1.587302e-02 -1.381856e-01  1.142783e-01
     vertex  9.841270e-01 -1.381856e-01  1.142783e-01
     vertex  9.841270e-01 -1.427058e-01  1.280549e-01
   endloop
 endfacet
 facet normal  0.000000e+00 -9.014786e-01 -4.328236e-01
   outer loop
     vertex -1.587302e-02 -1.319100e-01  1.012076e-01
     vertex  9.841270e-01 -1.319100e-01  1.012076e-01
     vertex  9.841270e-01 -1.381856e-01  1.142783e-01
   endloop
 endfacet
 facet normal  0.000000e+00 -9.014786e-01 -4.328236e-01
   outer loop
     vertex -1.587302e-02 -1.319100e-01  1.012076e-01
     vertex  9.841270e-01 -1.381856e-01  1.142783e-01
     vertex -1.587302e-02 -1.381856e-01  1.142783e-01
   endloop
 endfacet
 facet normal  0.000000e+00 -8.374432e-01 -5.465243e-01
   outer loop
     vertex -1.587301e-02 -1.239859e-01  8.906530e-02
     vertex  9.841270e-01 -1.239859e-01  8.906530e-02
     vertex  9.841270e-01 -1.319100e-01  1.012076e-01
   endloop
 endfacet
 facet normal  0.000000e+00 -8.374432e-01 -5.465243e-01
   outer loop
     vertex -1.587301e-02 -1.239859e-01  8.906530e-02
     vertex  9.841270e-01 -1.319100e-01  1.012076e-01
     vertex -1.587302e-02 -1.319100e-01  1.012076e-01
   endloop
 endfacet
 facet normal  1.000000e+00  0.000000e+00  0.000000e+00
   outer loop
     vertex  9.841270e-01 -1.042328e-01  1.088184e-01
     vertex  9.841270e-01 -1.459126e-01  1.476348e-01
     vertex  9.841270e-01 -1.427058e-01  1.280549e-01
   endloop
 endfacet
 facet normal  1.000000e+00  0.000000e+00  0.000000e+00
   outer loop
     vertex  9.841270e-01 -1.455860e-01  1.674729e-01
     vertex  9.841270e-01 -1.459126e-01  1.476348e-01
     vertex  9.841270e-01 -1.042328e-01  1.088184e-01
   endloop
 endfacet
 facet normal  1.000000e+00  0.000000e+00  0.000000e+00
   outer loop
     vertex  9.841270e-01 -5.485006e-02  1.285715e-01
     vertex  9.841270e-01 -1.344863e-01  2.054053e-01
     vertex  9.841270e-01 -1.417363e-01  1.869366e-01
   endloop
 endfacet
 facet normal  1.000000e+00  0.000000e+00  0.000000e+00
   outer loop
     vertex  9.841270e-01 -5.485006e-02  1.285715e-01
     vertex  9.841270e-01 -1.417363e-01  1.869366e-01
     vertex  9.841270e-01 -1.455860e-01  1.674729e-01
   endloop
 endfacet
 facet normal  1.000000e+00  0.000000e+00  0.000000e+00
   outer loop
     vertex  9.841270e-01 -5.485006e-02  1.285715e-01
     vertex  9.841270e-01 -1.455860e-01  1.674729e-01
     vertex  9.841270e-01 -1.042328e-01  1.088184e-01
   endloop
 endfacet
 facet normal  1.000000e+00  0.000000e+00  0.000000e+00
   outer loop
     vertex  9.841270e-01 -1.240671e-01  2.222902e-01
     vertex  9.841270e-01 -1.344863e-01  2.054053e-01
     vertex  9.841270e-01 -5.485006e-02  1.285715e-01
   endloop
 endfacet
 facet normal  1.000000e+00  0.000000e+00  0.000000e+00
   outer loop
     vertex  9.841270e-01 -1.108110e-01  2.370527e-01
     vertex  9.841270e-01 -1.240671e-01  2.222902e-01
     vertex  9.841270e-01 -5.485006e-02  1.285715e-01
   endloop
 endfacet
 facet normal  1.000000e+00  0.000000e+00  0.000000e+00
   outer loop
     vertex  9.841270e-01 -9.514068e-02  2.492222e-01
     vertex  9.841270e-01 -1.108110e-01  2.370527e-01
     vertex  9.841270e-01 -5.485006e-02  1.285715e-01
   endloop
 endfacet
 facet normal  1.000000e+00  0.000000e+00  0.000000e+00
   outer loop
     vertex  9.841270e-01 -7.755579e-02  2.584107e-01
     vertex  9.841270e-01 -9.514068e-02  2.492222e-01
     vertex  9.841270e-01 -5.485006e-02  1.285715e-01
   endloop
 endfacet
 facet normal  1.000000e+00  0.000000e+00  0.000000e+00
   outer loop
     vertex  9.841270e-01 -5.861705e-02  2.643252e-01
     vertex  9.841270e-01 -7.755579e-02  2.584107e-01
     vertex  9.841270e-01 -5.485006e-02  1.285715e-01
   endloop
 endfacet
 facet normal  1.000000e+00  0.000000e+00  0.000000e+00
   outer loop
     vertex  9.841270e-01 -3.892834e-02  2.667770e-01
     vertex  9.841270e-01 -5.485006e-02  1.285715e-01
     vertex  9.841270e-01  3.403885e-02  1.878307e-01
   endloop
 endfacet
 facet normal  1.000000e+00  0.000000e+00  0.000000e+00
   outer loop
     vertex  9.841270e-01 -3.892834e-02  2.667770e-01
     vertex  9.841270e-01 -5.861705e-02  2.643252e-01
     vertex  9.841270e-01 -5.485006e-02  1.285715e-01
   endloop
 endfacet
 facet normal  1.000000e+00  0.000000e+00  0.000000e+00
   outer loop
     vertex  9.841270e-01 -1.911747e-02  2.656880e-01
     vertex  9.841270e-01 -3.892834e-02  2.667770e-01
     vertex  9.841270e-01  3.403885e-02  1.878307e-01
   endloop
 endfacet
 facet normal  1.000000e+00  0.000000e+00  0.000000e+00
   outer loop
     vertex  9.841270e-01  1.838820e-04  2.610930e-01
     vertex  9.841270e-01 -1.911747e-02  2.656880e-01
     vertex  9.841270e-01  3.403885e-02  1.878307e-01
   endloop
 endfacet
 facet normal  1.000000e+00  0.000000e+00  0.000000e+00
   outer loop
     vertex  9.841270e-01  1.836026e-02  2.531384e-01
     vertex  9.841270e-01  1.838820e-04  2.610930e-01
     vertex  9.841270e-01  3.403885e-02  1.878307e-01
   endloop
 endfacet
 facet normal  1.000000e+00  0.000000e+00  0.000000e+00
   outer loop
     vertex  9.841270e-01  6.063232e-02  2.121375e-01
     vertex  9.841270e-01  3.403885e-02  1.878307e-01
     vertex  9.841270e-01  6.913804e-02  1.942124e-01
   endloop
 endfacet
 facet normal  1.000000e+00  0.000000e+00  0.000000e+00
   outer loop
     vertex  9.841270e-01  3.483209e-02  2.420778e-01
     vertex  9.841270e-01  1.836026e-02  2.531384e-01
     vertex  9.841270e-01  3.403885e-02  1.878307e-01
   endloop
 endfacet
 facet normal  1.000000e+00  0.000000e+00  0.000000e+00
   outer loop
     vertex  9.841270e-01  4.907415e-02  2.282641e-01
     vertex  9.841270e-01  3.403885e-02  1.878307e-01
     vertex  9.841270e-01  6.063232e-02  2.121375e-01
   endloop
 endfacet
 facet normal  1.000000e+00  0.000000e+00  0.000000e+00
   outer loop
     vertex  9.841270e-01  4.907415e-02  2.282641e-01
     vertex  9.841270e-01  3.483209e-02  2.420778e-01
     vertex  9.841270e-01  3.403885e-02  1.878307e-01
   endloop
 endfacet
 facet normal  1.000000e+00  0.000000e+00  0.000000e+00
   outer loop
     vertex  9.841270e-01  7.066150e-02  1.898029e-01
     vertex  9.841270e-01  3.403885e-02  1.878307e-01
     vertex  9.841270e-01  7.127667e-02  1.878307e-01
   endloop
 endfacet
 facet normal  1.000000e+00  0.000000e+00  0.000000e+00
   outer loop
     vertex  9.841270e-01  7.000977e-02  1.917633e-01
     vertex  9.841270e-01  3.403885e-02  1.878307e-01
     vertex  9.841270e-01  7.066150e-02  1.898029e-01
   endloop
 endfacet
 facet normal  1.000000e+00  0.000000e+00  0.000000e+00
   outer loop
     vertex  9.841270e-01  6.932170e-02  1.937112e-01
     vertex  9.841270e-01  3.403885e-02  1.878307e-01
     vertex  9.841270e-01  7.000977e-02  1.917633e-01
   endloop
 endfacet
 facet normal  0.000000e+00  8.526059e-01 -5.225545e-01
   outer loop
     vertex -1.587302e-02  6.465176e-02  1.067843e-01
     vertex  9.841270e-01  5.379193e-02  8.906530e-02
     vertex -1.587302e-02  5.379193e-02  8.906530e-02
   endloop
 endfacet
 facet normal  0.000000e+00  8.526059e-01 -5.225545e-01
   outer loop
     vertex -1.587302e-02  6.465176e-02  1.067843e-01
     vertex  9.841270e-01  6.465176e-02  1.067843e-01
     vertex  9.841270e-01  5.379193e-02  8.906530e-02
   endloop
 endfacet
 facet normal  0.000000e+00  9.350022e-01 -3.546418e-01
   outer loop
     vertex -1.587302e-02  7.202199e-02  1.262157e-01
     vertex  9.841270e-01  7.202199e-02  1.262157e-01
     vertex  9.841270e-01  6.465176e-02  1.067843e-01
   endloop
 endfacet
 facet normal  0.000000e+00  9.350022e-01 -3.546418e-01
   outer loop
     vertex -1.587302e-02  7.202199e-02  1.262157e-01
     vertex  9.841270e-01  6.465176e-02  1.067843e-01
     vertex -1.587302e-02  6.465176e-02  1.067843e-01
   endloop
 endfacet
 facet normal  0.000000e+00  9.846886e-01 -1.743223e-01
   outer loop
     vertex -1.587302e-02  7.564479e-02  1.466797e-01
     vertex  9.841270e-01  7.564479e-02  1.466797e-01
     vertex  9.841270e-01  7.202199e-02  1.262157e-01
   endloop
 endfacet
 facet normal  0.000000e+00  9.846886e-01 -1.743223e-01
   outer loop
     vertex -1.587302e-02  7.564479e-02  1.466797e-01
     vertex  9.841270e-01  7.202199e-02  1.262157e-01
     vertex -1.587302e-02  7.202199e-02  1.262157e-01
   endloop
 endfacet
 facet normal -0.000000e+00  9.999268e-01  1.209561e-02
   outer loop
     vertex -1.587302e-02  7.539342e-02  1.674604e-01
     vertex  9.841270e-01  7.539342e-02  1.674604e-01
     vertex  9.841270e-01  7.564479e-02  1.466797e-01
   endloop
 endfacet
 facet normal  0.000000e+00  9.999268e-01  1.209561e-02
   outer loop
     vertex -1.587302e-02  7.539342e-02  1.674604e-01
     vertex  9.841270e-01  7.564479e-02  1.466797e-01
     vertex -1.587302e-02  7.564479e-02  1.466797e-01
   endloop
 endfacet
 facet normal -0.000000e+00  9.801838e-01  1.980904e-01
   outer loop
     vertex -1.587302e-02  7.127667e-02  1.878307e-01
     vertex  9.841270e-01  7.127667e-02  1.878307e-01
     vertex  9.841270e-01  7.539342e-02  1.674604e-01
   endloop
 endfacet
 facet normal  0.000000e+00  9.801838e-01  1.980904e-01
   outer loop
     vertex -1.587302e-02  7.127667e-02  1.878307e-01
     vertex  9.841270e-01  7.539342e-02  1.674604e-01
     vertex -1.587302e-02  7.539342e-02  1.674604e-01
   endloop
 endfacet
 facet normal  0.000000e+00  8.944273e-01  4.472135e-01
   outer loop
     vertex -1.587302e-02  5.379193e-02  8.906530e-02
     vertex  9.841270e-01  6.366848e-02  6.931219e-02
     vertex -1.587302e-02  6.366848e-02  6.931219e-02
   endloop
 endfacet
 facet normal -0.000000e+00  8.944273e-01  4.472135e-01
   outer loop
     vertex -1.587302e-02  5.379193e-02  8.906530e-02
     vertex  9.841270e-01  5.379193e-02  8.906530e-02
     vertex  9.841270e-01  6.366848e-02  6.931219e-02
   endloop
 endfacet
 facet normal  0.000000e+00  9.615239e-01 -2.747212e-01
   outer loop
     vertex -1.587302e-02  6.366848e-02  6.931219e-02
     vertex  9.841270e-01  4.391539e-02  1.763924e-04
     vertex -1.587302e-02  4.391539e-02  1.763924e-04
   endloop
 endfacet
 facet normal  0.000000e+00  9.615239e-01 -2.747212e-01
   outer loop
     vertex -1.587302e-02  6.366848e-02  6.931219e-02
     vertex  9.841270e-01  6.366848e-02  6.931219e-02
     vertex  9.841270e-01  4.391539e-02  1.763924e-04
   endloop
 endfacet
 facet normal  0.000000e+00  4.472136e-01 -8.944272e-01
   outer loop
     vertex -1.587302e-02  4.391539e-02  1.763924e-04
     vertex  9.841270e-01  4.409220e-03 -1.957669e-02
     vertex -1.587302e-02  4.409220e-03 -1.957669e-02
   endloop
 endfacet
 facet normal  0.000000e+00  4.472136e-01 -8.944272e-01
   outer loop
     vertex -1.587302e-02  4.391539e-02  1.763924e-04
     vertex  9.841270e-01  4.391539e-02  1.763924e-04
     vertex  9.841270e-01  4.409220e-03 -1.957669e-02
   endloop
 endfacet
 facet normal  0.000000e+00  9.761871e-01 -2.169304e-01
   outer loop
     vertex -1.587302e-02  4.409220e-03 -1.957669e-02
     vertex  9.841270e-01 -1.534387e-02 -1.084656e-01
     vertex -1.587302e-02 -1.534387e-02 -1.084656e-01
   endloop
 endfacet
 facet normal  0.000000e+00  9.761871e-01 -2.169304e-01
   outer loop
     vertex -1.587302e-02  4.409220e-03 -1.957669e-02
     vertex  9.841270e-01  4.409220e-03 -1.957669e-02
     vertex  9.841270e-01 -1.534387e-02 -1.084656e-01
   endloop
 endfacet
 facet normal  0.000000e+00 -3.162278e-01  9.486833e-01
   outer loop
     vertex -1.587302e-02 -1.733686e-01  1.992948e-02
     vertex -1.587302e-02 -1.437389e-01  2.980602e-02
     vertex -7.301587e-01 -1.437389e-01  2.980602e-02
   endloop
 endfacet
 facet normal  0.000000e+00 -3.162278e-01  9.486833e-01
   outer loop
     vertex -1.587302e-02 -1.733686e-01  1.992948e-02
     vertex -7.301587e-01 -1.437389e-01  2.980602e-02
     vertex -7.301587e-01 -1.733686e-01  1.992948e-02
   endloop
 endfacet
 facet normal  0.000000e+00 -0.000000e+00 -1.000000e+00
   outer loop
     vertex -1.587302e-02 -1.534387e-02 -1.084656e-01
     vertex -1.587302e-02 -2.820106e-01 -1.084656e-01
     vertex -7.301587e-01 -2.820106e-01 -1.084656e-01
   endloop
 endfacet
 facet normal -0.000000e+00  0.000000e+00 -1.000000e+00
   outer loop
     vertex -1.587302e-02 -1.534387e-02 -1.084656e-01
     vertex -7.301587e-01 -2.820106e-01 -1.084656e-01
     vertex -7.301587e-01 -1.534387e-02 -1.084656e-01
   endloop
 endfacet
 facet normal  0.000000e+00 -4.472137e-01  8.944272e-01
   outer loop
     vertex -1.587302e-02 -1.437389e-01  2.980602e-02
     vertex -1.587302e-02 -1.042328e-01  4.955911e-02
     vertex -7.301587e-01 -1.042328e-01  4.955911e-02
   endloop
 endfacet
 facet normal  0.000000e+00 -4.472137e-01  8.944272e-01
   outer loop
     vertex -1.587302e-02 -1.437389e-01  2.980602e-02
     vertex -7.301587e-01 -1.042328e-01  4.955911e-02
     vertex -7.301587e-01 -1.437389e-01  2.980602e-02
   endloop
 endfacet
 facet normal  0.000000e+00 -5.547002e-01 -8.320503e-01
   outer loop
     vertex -1.587302e-02 -1.042328e-01  4.955911e-02
     vertex -1.587302e-02 -1.338624e-01  6.931219e-02
     vertex -7.301587e-01 -1.338624e-01  6.931219e-02
   endloop
 endfacet
 facet normal -0.000000e+00 -5.547002e-01 -8.320503e-01
   outer loop
     vertex -1.587302e-02 -1.042328e-01  4.955911e-02
     vertex -7.301587e-01 -1.338624e-01  6.931219e-02
     vertex -7.301587e-01 -1.042328e-01  4.955911e-02
   endloop
 endfacet
 facet normal  0.000000e+00 -8.944274e-01  4.472132e-01
   outer loop
     vertex -1.587302e-02 -1.338624e-01  6.931219e-02
     vertex -1.587301e-02 -1.239859e-01  8.906530e-02
     vertex -7.301587e-01 -1.239859e-01  8.906530e-02
   endloop
 endfacet
 facet normal  0.000000e+00 -8.944274e-01  4.472132e-01
   outer loop
     vertex -1.587302e-02 -1.338624e-01  6.931219e-02
     vertex -7.301587e-01 -1.239859e-01  8.906530e-02
     vertex -7.301587e-01 -1.338624e-01  6.931219e-02
   endloop
 endfacet
 facet normal  0.000000e+00 -9.501633e-01 -3.117527e-01
   outer loop
     vertex -1.587302e-02 -1.381856e-01  1.142783e-01
     vertex -1.587302e-02 -1.427058e-01  1.280549e-01
     vertex -7.301587e-01 -1.427058e-01  1.280549e-01
   endloop
 endfacet
 facet normal -0.000000e+00 -9.501633e-01 -3.117527e-01
   outer loop
     vertex -1.587302e-02 -1.381856e-01  1.142783e-01
     vertex -7.301587e-01 -1.427058e-01  1.280549e-01
     vertex -7.301587e-01 -1.381856e-01  1.142783e-01
   endloop
 endfacet
 facet normal -0.000000e+00 -9.014786e-01 -4.328236e-01
   outer loop
     vertex -1.587302e-02 -1.319100e-01  1.012076e-01
     vertex -7.301587e-01 -1.381856e-01  1.142783e-01
     vertex -7.301587e-01 -1.319100e-01  1.012076e-01
   endloop
 endfacet
 facet normal  0.000000e+00 -9.014786e-01 -4.328236e-01
   outer loop
     vertex -1.587302e-02 -1.319100e-01  1.012076e-01
     vertex -1.587302e-02 -1.381856e-01  1.142783e-01
     vertex -7.301587e-01 -1.381856e-01  1.142783e-01
   endloop
 endfacet
 facet normal -0.000000e+00 -8.374432e-01 -5.465243e-01
   outer loop
     vertex -1.587301e-02 -1.239859e-01  8.906530e-02
     vertex -7.301587e-01 -1.319100e-01  1.012076e-01
     vertex -7.301587e-01 -1.239859e-01  8.906530e-02
   endloop
 endfacet
 facet normal  0.000000e+00 -8.374432e-01 -5.465243e-01
   outer loop
     vertex -1.587301e-02 -1.239859e-01  8.906530e-02
     vertex -1.587302e-02 -1.319100e-01  1.012076e-01
     vertex -7.301587e-01 -1.319100e-01  1.012076e-01
   endloop
 endfacet
 facet normal -1.000000e+00  0.000000e+00  0.000000e+00
   outer loop
     vertex -7.301587e-01 -1.042328e-01  1.088184e-01
     vertex -7.301587e-01 -1.427058e-01  1.280549e-01
     vertex -7.301587e-01 -1.459126e-01  1.476348e-01
   endloop
 endfacet
 facet normal -1.000000e+00  0.000000e+00 -0.000000e+00
   outer loop
     vertex -7.301587e-01 -1.455860e-01  1.674729e-01
     vertex -7.301587e-01 -1.042328e-01  1.088184e-01
     vertex -7.301587e-01 -1.459126e-01  1.476348e-01
   endloop
 endfacet
 facet normal -1.000000e+00  0.000000e+00  0.000000e+00
   outer loop
     vertex -7.301587e-01 -5.485006e-02  1.285715e-01
     vertex -7.301587e-01 -1.417363e-01  1.869366e-01
     vertex -7.301587e-01 -1.344863e-01  2.054053e-01
   endloop
 endfacet
 facet normal -1.000000e+00  0.000000e+00  0.000000e+00
   outer loop
     vertex -7.301587e-01 -5.485006e-02  1.285715e-01
     vertex -7.301587e-01 -1.455860e-01  1.674729e-01
     vertex -7.301587e-01 -1.417363e-01  1.869366e-01
   endloop
 endfacet
 facet normal -1.000000e+00 -0.000000e+00  0.000000e+00
   outer loop
     vertex -7.301587e-01 -5.485006e-02  1.285715e-01
     vertex -7.301587e-01 -1.042328e-01  1.088184e-01
     vertex -7.301587e-01 -1.455860e-01  1.674729e-01
   endloop
 endfacet
 facet normal -1.000000e+00  0.000000e+00 -0.000000e+00
   outer loop
     vertex -7.301587e-01 -1.240671e-01  2.222902e-01
     vertex -7.301587e-01 -5.485006e-02  1.285715e-01
     vertex -7.301587e-01 -1.344863e-01  2.054053e-01
   endloop
 endfacet
 facet normal -1.000000e+00  0.000000e+00 -0.000000e+00
   outer loop
     vertex -7.301587e-01 -1.108110e-01  2.370527e-01
     vertex -7.301587e-01 -5.485006e-02  1.285715e-01
     vertex -7.301587e-01 -1.240671e-01  2.222902e-01
   endloop
 endfacet
 facet normal -1.000000e+00  0.000000e+00 -0.000000e+00
   outer loop
     vertex -7.301587e-01 -9.514068e-02  2.492222e-01
     vertex -7.301587e-01 -5.485006e-02  1.285715e-01
     vertex -7.301587e-01 -1.108110e-01  2.370527e-01
   endloop
 endfacet
 facet normal -1.000000e+00  0.000000e+00 -0.000000e+00
   outer loop
     vertex -7.301587e-01 -7.755579e-02  2.584107e-01
     vertex -7.301587e-01 -5.485006e-02  1.285715e-01
     vertex -7.301587e-01 -9.514068e-02  2.492222e-01
   endloop
 endfacet
 facet normal -1.000000e+00  0.000000e+00 -0.000000e+00
   outer loop
     vertex -7.301587e-01 -5.861705e-02  2.643252e-01
     vertex -7.301587e-01 -5.485006e-02  1.285715e-01
     vertex -7.301587e-01 -7.755579e-02  2.584107e-01
   endloop
 endfacet
 facet normal -1.000000e+00  0.000000e+00 -0.000000e+00
   outer loop
     vertex -7.301587e-01 -3.892834e-02  2.667770e-01
     vertex -7.301587e-01  3.403885e-02  1.878307e-01
     vertex -7.301587e-01 -5.485006e-02  1.285715e-01
   endloop
 endfacet
 facet normal -1.000000e+00  0.000000e+00  0.000000e+00
   outer loop
     vertex -7.301587e-01 -3.892834e-02  2.667770e-01
     vertex -7.301587e-01 -5.485006e-02  1.285715e-01
     vertex -7.301587e-01 -5.861705e-02  2.643252e-01
   endloop
 endfacet
 facet normal -1.000000e+00 -0.000000e+00 -0.000000e+00
   outer loop
     vertex -7.301587e-01 -1.911747e-02  2.656880e-01
     vertex -7.301587e-01  3.403885e-02  1.878307e-01
     vertex -7.301587e-01 -3.892834e-02  2.667770e-01
   endloop
 endfacet
 facet normal -1.000000e+00 -0.000000e+00 -0.000000e+00
   outer loop
     vertex -7.301587e-01  1.838820e-04  2.610930e-01
     vertex -7.301587e-01  3.403885e-02  1.878307e-01
     vertex -7.301587e-01 -1.911747e-02  2.656880e-01
   endloop
 endfacet
 facet normal -1.000000e+00 -0.000000e+00 -0.000000e+00
   outer loop
     vertex -7.301587e-01  1.836026e-02  2.531384e-01
     vertex -7.301587e-01  3.403885e-02  1.878307e-01
     vertex -7.301587e-01  1.838820e-04  2.610930e-01
   endloop
 endfacet
 facet normal -1.000000e+00  0.000000e+00 -0.000000e+00
   outer loop
     vertex -7.301587e-01  6.063232e-02  2.121375e-01
     vertex -7.301587e-01  6.913804e-02  1.942124e-01
     vertex -7.301587e-01  3.403885e-02  1.878307e-01
   endloop
 endfacet
 facet normal -1.000000e+00 -0.000000e+00  0.000000e+00
   outer loop
     vertex -7.301587e-01  3.483209e-02  2.420778e-01
     vertex -7.301587e-01  3.403885e-02  1.878307e-01
     vertex -7.301587e-01  1.836026e-02  2.531384e-01
   endloop
 endfacet
 facet normal -1.000000e+00  0.000000e+00 -0.000000e+00
   outer loop
     vertex -7.301587e-01  4.907415e-02  2.282641e-01
     vertex -7.301587e-01  6.063232e-02  2.121375e-01
     vertex -7.301587e-01  3.403885e-02  1.878307e-01
   endloop
 endfacet
 facet normal -1.000000e+00 -0.000000e+00  0.000000e+00
   outer loop
     vertex -7.301587e-01  4.907415e-02  2.282641e-01
     vertex -7.301587e-01  3.403885e-02  1.878307e-01
     vertex -7.301587e-01  3.483209e-02  2.420778e-01
   endloop
 endfacet
 facet normal -1.000000e+00  0.000000e+00 -0.000000e+00
   outer loop
     vertex -7.301587e-01  7.066150e-02  1.898029e-01
     vertex -7.301587e-01  7.127667e-02  1.878307e-01
     vertex -7.301587e-01  3.403885e-02  1.878307e-01
   endloop
 endfacet
 facet normal -1.000000e+00  0.000000e+00 -0.000000e+00
   outer loop
     vertex -7.301587e-01  7.000977e-02  1.917633e-01
     vertex -7.301587e-01  7.066150e-02  1.898029e-01
     vertex -7.301587e-01  3.403885e-02  1.878307e-01
   endloop
 endfacet
 facet normal -1.000000e+00  0.000000e+00 -0.000000e+00
   outer loop
     vertex -7.301587e-01  6.932170e-02  1.937112e-01
     vertex -7.301587e-01  7.000977e-02  1.917633e-01
     vertex -7.301587e-01  3.403885e-02  1.878307e-01
   endloop
 endfacet
 facet normal  0.000000e+00  8.526059e-01 -5.225545e-01
   outer loop
     vertex -1.587302e-02  6.465176e-02  1.067843e-01
     vertex -1.587302e-02  5.379193e-02  8.906530e-02
     vertex -7.301587e-01  5.379193e-02  8.906530e-02
   endloop
 endfacet
 facet normal  0.000000e+00  8.526059e-01 -5.225545e-01
   outer loop
     vertex -1.587302e-02  6.465176e-02  1.067843e-01
     vertex -7.301587e-01  5.379193e-02  8.906530e-02
     vertex -7.301587e-01  6.465176e-02  1.067843e-01
   endloop
 endfacet
 facet normal  0.000000e+00  9.350022e-01 -3.546418e-01
   outer loop
     vertex -1.587302e-02  7.202199e-02  1.262157e-01
     vertex -7.301587e-01  6.465176e-02  1.067843e-01
     vertex -7.301587e-01  7.202199e-02  1.262157e-01
   endloop
 endfacet
 facet normal  0.000000e+00  9.350022e-01 -3.546418e-01
   outer loop
     vertex -1.587302e-02  7.202199e-02  1.262157e-01
     vertex -1.587302e-02  6.465176e-02  1.067843e-01
     vertex -7.301587e-01  6.465176e-02  1.067843e-01
   endloop
 endfacet
 facet normal  0.000000e+00  9.846886e-01 -1.743223e-01
   outer loop
     vertex -1.587302e-02  7.564479e-02  1.466797e-01
     vertex -7.301587e-01  7.202199e-02  1.262157e-01
     vertex -7.301587e-01  7.564479e-02  1.466797e-01
   endloop
 endfacet
 facet normal  0.000000e+00  9.846886e-01 -1.743223e-01
   outer loop
     vertex -1.587302e-02  7.564479e-02  1.466797e-01
     vertex -1.587302e-02  7.202199e-02  1.262157e-01
     vertex -7.301587e-01  7.202199e-02  1.262157e-01
   endloop
 endfacet
 facet normal  0.000000e+00  9.999268e-01  1.209561e-02
   outer loop
     vertex -1.587302e-02  7.539342e-02  1.674604e-01
     vertex -7.301587e-01  7.564479e-02  1.466797e-01
     vertex -7.301587e-01  7.539342e-02  1.674604e-01
   endloop
 endfacet
 facet normal  0.000000e+00  9.999268e-01  1.209561e-02
   outer loop
     vertex -1.587302e-02  7.539342e-02  1.674604e-01
     vertex -1.587302e-02  7.564479e-02  1.466797e-01
     vertex -7.301587e-01  7.564479e-02  1.466797e-01
   endloop
 endfacet
 facet normal  0.000000e+00  9.801838e-01  1.980904e-01
   outer loop
     vertex -1.587302e-02  7.127667e-02  1.878307e-01
     vertex -7.301587e-01  7.539342e-02  1.674604e-01
     vertex -7.301587e-01  7.127667e-02  1.878307e-01
   endloop
 endfacet
 facet normal  0.000000e+00  9.801838e-01  1.980904e-01
   outer loop
     vertex -1.587302e-02  7.127667e-02  1.878307e-01
     vertex -1.587302e-02  7.539342e-02  1.674604e-01
     vertex -7.301587e-01  7.539342e-02  1.674604e-01
   endloop
 endfacet
 facet normal  0.000000e+00  8.944273e-01  4.472135e-01
   outer loop
     vertex -1.587302e-02  5.379193e-02  8.906530e-02
     vertex -1.587302e-02  6.366848e-02  6.931219e-02
     vertex -7.301587e-01  6.366848e-02  6.931219e-02
   endloop
 endfacet
 facet normal  0.000000e+00  8.944273e-01  4.472135e-01
   outer loop
     vertex -1.587302e-02  5.379193e-02  8.906530e-02
     vertex -7.301587e-01  6.366848e-02  6.931219e-02
     vertex -7.301587e-01  5.379193e-02  8.906530e-02
   endloop
 endfacet
 facet normal  0.000000e+00  9.615239e-01 -2.747212e-01
   outer loop
     vertex -1.587302e-02  6.366848e-02  6.931219e-02
     vertex -1.587302e-02  4.391539e-02  1.763924e-04
     vertex -7.301587e-01  4.391539e-02  1.763924e-04
   endloop
 endfacet
 facet normal  0.000000e+00  9.615239e-01 -2.747212e-01
   outer loop
     vertex -1.587302e-02  6.366848e-02  6.931219e-02
     vertex -7.301587e-01  4.391539e-02  1.763924e-04
     vertex -7.301587e-01  6.366848e-02  6.931219e-02
   endloop
 endfacet
 facet normal  0.000000e+00  4.472136e-01 -8.944272e-01
   outer loop
     vertex -1.587302e-02  4.391539e-02  1.763924e-04
     vertex -1.587302e-02  4.409220e-03 -1.957669e-02
     vertex -7.301587e-01  4.409220e-03 -1.957669e-02
   endloop
 endfacet
 facet normal  0.000000e+00  4.472136e-01 -8.944272e-01
   outer loop
     vertex -1.587302e-02  4.391539e-02  1.763924e-04
     vertex -7.301587e-01  4.409220e-03 -1.957669e-02
     vertex -7.301587e-01  4.391539e-02  1.763924e-04
   endloop
 endfacet
 facet normal  0.000000e+00  9.761871e-01 -2.169304e-01
   outer loop
     vertex -1.587302e-02  4.409220e-03 -1.957669e-02
     vertex -1.587302e-02 -1.534387e-02 -1.084656e-01
     vertex -7.301587e-01 -1.534387e-02 -1.084656e-01
   endloop
 endfacet
 facet normal  0.000000e+00  9.761871e-01 -2.169304e-01
   outer loop
     vertex -1.587302e-02  4.409220e-03 -1.957669e-02
     vertex -7.301587e-01 -1.534387e-02 -1.084656e-01
     vertex -7.301587e-01  4.409220e-03 -1.957669e-02
   endloop
 endfacet
 facet normal  0.000000e+00 -4.472137e-01 -8.944271e-01
   outer loop
     vertex -1.587302e-02 -1.427058e-01  1.280549e-01
     vertex  9.841270e-01 -1.634920e-01  1.384480e-01
     vertex -1.587302e-02 -1.634920e-01  1.384480e-01
   endloop
 endfacet
 facet normal  0.000000e+00 -4.472137e-01 -8.944271e-01
   outer loop
     vertex -1.587302e-02 -1.427058e-01  1.280549e-01
     vertex  9.841270e-01 -1.427058e-01  1.280549e-01
     vertex  9.841270e-01 -1.634920e-01  1.384480e-01
   endloop
 endfacet
 facet normal  1.000000e+00  0.000000e+00  0.000000e+00
   outer loop
     vertex  9.841270e-01 -1.459126e-01  1.476348e-01
     vertex  9.841270e-01 -1.634920e-01  1.384480e-01
     vertex  9.841270e-01 -1.427058e-01  1.280549e-01
   endloop
 endfacet
 facet normal  1.000000e+00  0.000000e+00  0.000000e+00
   outer loop
     vertex  9.841270e-01 -1.455860e-01  1.674729e-01
     vertex  9.841270e-01 -1.634920e-01  1.384480e-01
     vertex  9.841270e-01 -1.459126e-01  1.476348e-01
   endloop
 endfacet
 facet normal  1.000000e+00  0.000000e+00  0.000000e+00
   outer loop
     vertex  9.841270e-01 -1.417363e-01  1.869366e-01
     vertex  9.841270e-01 -1.634920e-01  1.384480e-01
     vertex  9.841270e-01 -1.455860e-01  1.674729e-01
   endloop
 endfacet
 facet normal  1.000000e+00  0.000000e+00  0.000000e+00
   outer loop
     vertex  9.841270e-01 -1.239859e-01  2.767196e-01
     vertex  9.841270e-01 -1.240671e-01  2.222902e-01
     vertex  9.841270e-01 -1.108110e-01  2.370527e-01
   endloop
 endfacet
 facet normal  1.000000e+00  0.000000e+00  0.000000e+00
   outer loop
     vertex  9.841270e-01 -1.239859e-01  2.767196e-01
     vertex  9.841270e-01 -1.344863e-01  2.054053e-01
     vertex  9.841270e-01 -1.240671e-01  2.222902e-01
   endloop
 endfacet
 facet normal  1.000000e+00  0.000000e+00  0.000000e+00
   outer loop
     vertex  9.841270e-01 -1.239859e-01  2.767196e-01
     vertex  9.841270e-01 -1.417363e-01  1.869366e-01
     vertex  9.841270e-01 -1.344863e-01  2.054053e-01
   endloop
 endfacet
 facet normal  1.000000e+00  0.000000e+00  0.000000e+00
   outer loop
     vertex  9.841270e-01 -1.239859e-01  2.767196e-01
     vertex  9.841270e-01 -1.634920e-01  1.384480e-01
     vertex  9.841270e-01 -1.417363e-01  1.869366e-01
   endloop
 endfacet
 facet normal  1.000000e+00  0.000000e+00  0.000000e+00
   outer loop
     vertex  9.841270e-01 -9.514068e-02  2.492222e-01
     vertex  9.841270e-01 -1.239859e-01  2.767196e-01
     vertex  9.841270e-01 -1.108110e-01  2.370527e-01
   endloop
 endfacet
 facet normal  1.000000e+00  0.000000e+00  0.000000e+00
   outer loop
     vertex  9.841270e-01 -7.755579e-02  2.584107e-01
     vertex  9.841270e-01 -1.239859e-01  2.767196e-01
     vertex  9.841270e-01 -9.514068e-02  2.492222e-01
   endloop
 endfacet
 facet normal  1.000000e+00  0.000000e+00  0.000000e+00
   outer loop
     vertex  9.841270e-01 -5.861705e-02  2.643252e-01
     vertex  9.841270e-01 -1.239859e-01  2.767196e-01
     vertex  9.841270e-01 -7.755579e-02  2.584107e-01
   endloop
 endfacet
 facet normal  1.000000e+00  0.000000e+00  0.000000e+00
   outer loop
     vertex  9.841270e-01 -3.892834e-02  2.667770e-01
     vertex  9.841270e-01 -1.239859e-01  2.767196e-01
     vertex  9.841270e-01 -5.861705e-02  2.643252e-01
   endloop
 endfacet
 facet normal  1.000000e+00  0.000000e+00  0.000000e+00
   outer loop
     vertex  9.841270e-01  9.612000e-02  1.991182e-01
     vertex  9.841270e-01  6.063232e-02  2.121375e-01
     vertex  9.841270e-01  6.913804e-02  1.942124e-01
   endloop
 endfacet
 facet normal  1.000000e+00  0.000000e+00  0.000000e+00
   outer loop
     vertex  9.841270e-01  1.229277e-01  2.865962e-01
     vertex  9.841270e-01  4.907415e-02  2.282641e-01
     vertex  9.841270e-01  6.063232e-02  2.121375e-01
   endloop
 endfacet
 facet normal  1.000000e+00  0.000000e+00  0.000000e+00
   outer loop
     vertex  9.841270e-01  1.229277e-01  2.865962e-01
     vertex  9.841270e-01  3.483209e-02  2.420778e-01
     vertex  9.841270e-01  4.907415e-02  2.282641e-01
   endloop
 endfacet
 facet normal  1.000000e+00  0.000000e+00  0.000000e+00
   outer loop
     vertex  9.841270e-01  1.229277e-01  2.865962e-01
     vertex  9.841270e-01  1.836026e-02  2.531384e-01
     vertex  9.841270e-01  3.483209e-02  2.420778e-01
   endloop
 endfacet
 facet normal  1.000000e+00  0.000000e+00  0.000000e+00
   outer loop
     vertex  9.841270e-01  1.229277e-01  2.865962e-01
     vertex  9.841270e-01  1.838820e-04  2.610930e-01
     vertex  9.841270e-01  1.836026e-02  2.531384e-01
   endloop
 endfacet
 facet normal  1.000000e+00  0.000000e+00  0.000000e+00
   outer loop
     vertex  9.841270e-01  1.229277e-01  2.865962e-01
     vertex  9.841270e-01  9.612000e-02  1.991182e-01
     vertex  9.841270e-01  1.328043e-01  2.174604e-01
   endloop
 endfacet
 facet normal  1.000000e+00  0.000000e+00  0.000000e+00
   outer loop
     vertex  9.841270e-01  1.229277e-01  2.865962e-01
     vertex  9.841270e-01  6.063232e-02  2.121375e-01
     vertex  9.841270e-01  9.612000e-02  1.991182e-01
   endloop
 endfacet
 facet normal  1.000000e+00  0.000000e+00  0.000000e+00
   outer loop
     vertex  9.841270e-01  1.229277e-01  2.865962e-01
     vertex  9.841270e-01 -1.239859e-01  2.767196e-01
     vertex  9.841270e-01 -3.892834e-02  2.667770e-01
   endloop
 endfacet
 facet normal  1.000000e+00  0.000000e+00  0.000000e+00
   outer loop
     vertex  9.841270e-01  1.229277e-01  2.865962e-01
     vertex  9.841270e-01 -3.892834e-02  2.667770e-01
     vertex  9.841270e-01 -1.911747e-02  2.656880e-01
   endloop
 endfacet
 facet normal  1.000000e+00  0.000000e+00  0.000000e+00
   outer loop
     vertex  9.841270e-01  1.229277e-01  2.865962e-01
     vertex  9.841270e-01 -1.911747e-02  2.656880e-01
     vertex  9.841270e-01  1.838820e-04  2.610930e-01
   endloop
 endfacet
 facet normal  1.000000e+00  0.000000e+00  0.000000e+00
   outer loop
     vertex  9.841270e-01  6.926075e-02  1.938784e-01
     vertex  9.841270e-01  3.403885e-02  1.878307e-01
     vertex  9.841270e-01  6.932170e-02  1.937112e-01
   endloop
 endfacet
 facet normal  1.000000e+00  0.000000e+00  0.000000e+00
   outer loop
     vertex  9.841270e-01  6.919953e-02  1.940454e-01
     vertex  9.841270e-01  3.403885e-02  1.878307e-01
     vertex  9.841270e-01  6.926075e-02  1.938784e-01
   endloop
 endfacet
 facet normal  1.000000e+00  0.000000e+00  0.000000e+00
   outer loop
     vertex  9.841270e-01  6.913804e-02  1.942124e-01
     vertex  9.841270e-01  3.403885e-02  1.878307e-01
     vertex  9.841270e-01  6.919953e-02  1.940454e-01
   endloop
 endfacet
 facet normal  1.000000e+00  0.000000e+00  0.000000e+00
   outer loop
     vertex  9.841270e-01  9.329811e-02  1.977073e-01
     vertex  9.841270e-01  7.066150e-02  1.898029e-01
     vertex  9.841270e-01  7.127667e-02  1.878307e-01
   endloop
 endfacet
 facet normal  1.000000e+00  0.000000e+00  0.000000e+00
   outer loop
     vertex  9.841270e-01  9.329811e-02  1.977073e-01
     vertex  9.841270e-01  7.000977e-02  1.917633e-01
     vertex  9.841270e-01  7.066150e-02  1.898029e-01
   endloop
 endfacet
 facet normal  1.000000e+00  0.000000e+00  0.000000e+00
   outer loop
     vertex  9.841270e-01  9.329811e-02  1.977073e-01
     vertex  9.841270e-01  6.932170e-02  1.937112e-01
     vertex  9.841270e-01  7.000977e-02  1.917633e-01
   endloop
 endfacet
 facet normal  1.000000e+00  0.000000e+00  0.000000e+00
   outer loop
     vertex  9.841270e-01  1.426808e-01  2.075838e-01
     vertex  9.841270e-01  9.612000e-02  1.991182e-01
     vertex  9.841270e-01  9.329811e-02  1.977073e-01
   endloop
 endfacet
 facet normal  1.000000e+00  0.000000e+00  0.000000e+00
   outer loop
     vertex  9.841270e-01  2.118166e-01  1.878307e-01
     vertex  9.841270e-01  1.821870e-01  2.174604e-01
     vertex  9.841270e-01  1.426808e-01  2.075838e-01
   endloop
 endfacet
 facet normal  1.000000e+00  0.000000e+00  0.000000e+00
   outer loop
     vertex  9.841270e-01  2.118166e-01  1.878307e-01
     vertex  9.841270e-01  9.329811e-02  1.977073e-01
     vertex  9.841270e-01  7.127667e-02  1.878307e-01
   endloop
 endfacet
 facet normal  1.000000e+00  0.000000e+00  0.000000e+00
   outer loop
     vertex  9.841270e-01  2.118166e-01  1.878307e-01
     vertex  9.841270e-01  1.426808e-01  2.075838e-01
     vertex  9.841270e-01  9.329811e-02  1.977073e-01
   endloop
 endfacet
 facet normal  1.000000e+00  0.000000e+00  0.000000e+00
   outer loop
     vertex  9.841270e-01  1.920635e-01  2.273369e-01
     vertex  9.841270e-01  1.821870e-01  2.174604e-01
     vertex  9.841270e-01  2.118166e-01  1.878307e-01
   endloop
 endfacet
 facet normal  1.000000e+00  0.000000e+00  0.000000e+00
   outer loop
     vertex  9.841270e-01  2.118166e-01  2.569665e-01
     vertex  9.841270e-01  1.920635e-01  2.273369e-01
     vertex  9.841270e-01  2.118166e-01  1.878307e-01
   endloop
 endfacet
 facet normal  0.000000e+00  6.122265e-15 -1.000000e+00
   outer loop
     vertex -1.587302e-02  2.118166e-01  1.878307e-01
     vertex  9.841270e-01  7.127667e-02  1.878307e-01
     vertex -1.587302e-02  7.127667e-02  1.878307e-01
   endloop
 endfacet
 facet normal  0.000000e+00  6.122265e-15 -1.000000e+00
   outer loop
     vertex -1.587302e-02  2.118166e-01  1.878307e-01
     vertex  9.841270e-01  2.118166e-01  1.878307e-01
     vertex  9.841270e-01  7.127667e-02  1.878307e-01
   endloop
 endfacet
 facet normal  0.000000e+00 -4.472137e-01 -8.944271e-01
   outer loop
     vertex -1.587302e-02 -1.427058e-01  1.280549e-01
     vertex -1.587302e-02 -1.634920e-01  1.384480e-01
     vertex -7.301587e-01 -1.634920e-01  1.384480e-01
   endloop
 endfacet
 facet normal -0.000000e+00 -4.472137e-01 -8.944271e-01
   outer loop
     vertex -1.587302e-02 -1.427058e-01  1.280549e-01
     vertex -7.301587e-01 -1.634920e-01  1.384480e-01
     vertex -7.301587e-01 -1.427058e-01  1.280549e-01
   endloop
 endfacet
 facet normal -1.000000e+00  0.000000e+00 -0.000000e+00
   outer loop
     vertex -7.301587e-01 -1.459126e-01  1.476348e-01
     vertex -7.301587e-01 -1.427058e-01  1.280549e-01
     vertex -7.301587e-01 -1.634920e-01  1.384480e-01
   endloop
 endfacet
 facet normal -1.000000e+00  0.000000e+00  0.000000e+00
   outer loop
     vertex -7.301587e-01 -1.455860e-01  1.674729e-01
     vertex -7.301587e-01 -1.459126e-01  1.476348e-01
     vertex -7.301587e-01 -1.634920e-01  1.384480e-01
   endloop
 endfacet
 facet normal -1.000000e+00  0.000000e+00  0.000000e+00
   outer loop
     vertex -7.301587e-01 -1.417363e-01  1.869366e-01
     vertex -7.301587e-01 -1.455860e-01  1.674729e-01
     vertex -7.301587e-01 -1.634920e-01  1.384480e-01
   endloop
 endfacet
 facet normal -1.000000e+00  0.000000e+00 -0.000000e+00
   outer loop
     vertex -7.301587e-01 -1.239859e-01  2.767196e-01
     vertex -7.301587e-01 -1.108110e-01  2.370527e-01
     vertex -7.301587e-01 -1.240671e-01  2.222902e-01
   endloop
 endfacet
 facet normal -1.000000e+00  0.000000e+00  0.000000e+00
   outer loop
     vertex -7.301587e-01 -1.239859e-01  2.767196e-01
     vertex -7.301587e-01 -1.240671e-01  2.222902e-01
     vertex -7.301587e-01 -1.344863e-01  2.054053e-01
   endloop
 endfacet
 facet normal -1.000000e+00  0.000000e+00  0.000000e+00
   outer loop
     vertex -7.301587e-01 -1.239859e-01  2.767196e-01
     vertex -7.301587e-01 -1.344863e-01  2.054053e-01
     vertex -7.301587e-01 -1.417363e-01  1.869366e-01
   endloop
 endfacet
 facet normal -1.000000e+00  0.000000e+00  0.000000e+00
   outer loop
     vertex -7.301587e-01 -1.239859e-01  2.767196e-01
     vertex -7.301587e-01 -1.417363e-01  1.869366e-01
     vertex -7.301587e-01 -1.634920e-01  1.384480e-01
   endloop
 endfacet
 facet normal -1.000000e+00 -0.000000e+00  0.000000e+00
   outer loop
     vertex -7.301587e-01 -9.514068e-02  2.492222e-01
     vertex -7.301587e-01 -1.108110e-01  2.370527e-01
     vertex -7.301587e-01 -1.239859e-01  2.767196e-01
   endloop
 endfacet
 facet normal -1.000000e+00 -0.000000e+00  0.000000e+00
   outer loop
     vertex -7.301587e-01 -7.755579e-02  2.584107e-01
     vertex -7.301587e-01 -9.514068e-02  2.492222e-01
     vertex -7.301587e-01 -1.239859e-01  2.767196e-01
   endloop
 endfacet
 facet normal -1.000000e+00 -0.000000e+00  0.000000e+00
   outer loop
     vertex -7.301587e-01 -5.861705e-02  2.643252e-01
     vertex -7.301587e-01 -7.755579e-02  2.584107e-01
     vertex -7.301587e-01 -1.239859e-01  2.767196e-01
   endloop
 endfacet
 facet normal -1.000000e+00 -0.000000e+00  0.000000e+00
   outer loop
     vertex -7.301587e-01 -3.892834e-02  2.667770e-01
     vertex -7.301587e-01 -5.861705e-02  2.643252e-01
     vertex -7.301587e-01 -1.239859e-01  2.767196e-01
   endloop
 endfacet
 facet normal -1.000000e+00 -0.000000e+00  0.000000e+00
   outer loop
     vertex -7.301587e-01  9.612000e-02  1.991182e-01
     vertex -7.301587e-01  6.913804e-02  1.942124e-01
     vertex -7.301587e-01  6.063232e-02  2.121375e-01
   endloop
 endfacet
 facet normal -1.000000e+00  0.000000e+00  0.000000e+00
   outer loop
     vertex -7.301587e-01  1.229277e-01  2.865962e-01
     vertex -7.301587e-01  6.063232e-02  2.121375e-01
     vertex -7.301587e-01  4.907415e-02  2.282641e-01
   endloop
 endfacet
 facet normal -1.000000e+00  0.000000e+00  0.000000e+00
   outer loop
     vertex -7.301587e-01  1.229277e-01  2.865962e-01
     vertex -7.301587e-01  4.907415e-02  2.282641e-01
     vertex -7.301587e-01  3.483209e-02  2.420778e-01
   endloop
 endfacet
 facet normal -1.000000e+00  0.000000e+00  0.000000e+00
   outer loop
     vertex -7.301587e-01  1.229277e-01  2.865962e-01
     vertex -7.301587e-01  3.483209e-02  2.420778e-01
     vertex -7.301587e-01  1.836026e-02  2.531384e-01
   endloop
 endfacet
 facet normal -1.000000e+00  0.000000e+00  0.000000e+00
   outer loop
     vertex -7.301587e-01  1.229277e-01  2.865962e-01
     vertex -7.301587e-01  1.836026e-02  2.531384e-01
     vertex -7.301587e-01  1.838820e-04  2.610930e-01
   endloop
 endfacet
 facet normal -1.000000e+00  0.000000e+00 -0.000000e+00
   outer loop
     vertex -7.301587e-01  1.229277e-01  2.865962e-01
     vertex -7.301587e-01  1.328043e-01  2.174604e-01
     vertex -7.301587e-01  9.612000e-02  1.991182e-01
   endloop
 endfacet
 facet normal -1.000000e+00  0.000000e+00  0.000000e+00
   outer loop
     vertex -7.301587e-01  1.229277e-01  2.865962e-01
     vertex -7.301587e-01  9.612000e-02  1.991182e-01
     vertex -7.301587e-01  6.063232e-02  2.121375e-01
   endloop
 endfacet
 facet normal -1.000000e+00  0.000000e+00  0.000000e+00
   outer loop
     vertex -7.301587e-01  1.229277e-01  2.865962e-01
     vertex -7.301587e-01 -3.892834e-02  2.667770e-01
     vertex -7.301587e-01 -1.239859e-01  2.767196e-01
   endloop
 endfacet
 facet normal -1.000000e+00  0.000000e+00  0.000000e+00
   outer loop
     vertex -7.301587e-01  1.229277e-01  2.865962e-01
     vertex -7.301587e-01 -1.911747e-02  2.656880e-01
     vertex -7.301587e-01 -3.892834e-02  2.667770e-01
   endloop
 endfacet
 facet normal -1.000000e+00  0.000000e+00  0.000000e+00
   outer loop
     vertex -7.301587e-01  1.229277e-01  2.865962e-01
     vertex -7.301587e-01  1.838820e-04  2.610930e-01
     vertex -7.301587e-01 -1.911747e-02  2.656880e-01
   endloop
 endfacet
 facet normal -1.000000e+00  0.000000e+00 -0.000000e+00
   outer loop
     vertex -7.301587e-01  6.926075e-02  1.938784e-01
     vertex -7.301587e-01  6.932170e-02  1.937112e-01
     vertex -7.301587e-01  3.403885e-02  1.878307e-01
   endloop
 endfacet
 facet normal -1.000000e+00  0.000000e+00 -0.000000e+00
   outer loop
     vertex -7.301587e-01  6.919953e-02  1.940454e-01
     vertex -7.301587e-01  6.926075e-02  1.938784e-01
     vertex -7.301587e-01  3.403885e-02  1.878307e-01
   endloop
 endfacet
 facet normal -1.000000e+00  0.000000e+00 -0.000000e+00
   outer loop
     vertex -7.301587e-01  6.913804e-02  1.942124e-01
     vertex -7.301587e-01  6.919953e-02  1.940454e-01
     vertex -7.301587e-01  3.403885e-02  1.878307e-01
   endloop
 endfacet
 facet normal -1.000000e+00  0.000000e+00  0.000000e+00
   outer loop
     vertex -7.301587e-01  9.329811e-02  1.977073e-01
     vertex -7.301587e-01  7.127667e-02  1.878307e-01
     vertex -7.301587e-01  7.066150e-02  1.898029e-01
   endloop
 endfacet
 facet normal -1.000000e+00  0.000000e+00  0.000000e+00
   outer loop
     vertex -7.301587e-01  9.329811e-02  1.977073e-01
     vertex -7.301587e-01  7.066150e-02  1.898029e-01
     vertex -7.301587e-01  7.000977e-02  1.917633e-01
   endloop
 endfacet
 facet normal -1.000000e+00  0.000000e+00  0.000000e+00
   outer loop
     vertex -7.301587e-01  9.329811e-02  1.977073e-01
     vertex -7.301587e-01  7.000977e-02  1.917633e-01
     vertex -7.301587e-01  6.932170e-02  1.937112e-01
   endloop
 endfacet
 facet normal -1.000000e+00  0.000000e+00  0.000000e+00
   outer loop
     vertex -7.301587e-01  1.426808e-01  2.075838e-01
     vertex -7.301587e-01  9.329811e-02  1.977073e-01
     vertex -7.301587e-01  9.612000e-02  1.991182e-01
   endloop
 endfacet
 facet normal -1.000000e+00  0.000000e+00  0.000000e+00
   outer loop
     vertex -7.301587e-01  2.118166e-01  1.878307e-01
     vertex -7.301587e-01  1.426808e-01  2.075838e-01
     vertex -7.301587e-01  1.821870e-01  2.174604e-01
   endloop
 endfacet
 facet normal -1.000000e+00 -0.000000e+00  0.000000e+00
   outer loop
     vertex -7.301587e-01  2.118166e-01  1.878307e-01
     vertex -7.301587e-01  7.127667e-02  1.878307e-01
     vertex -7.301587e-01  9.329811e-02  1.977073e-01
   endloop
 endfacet
 facet normal -1.000000e+00  0.000000e+00  0.000000e+00
   outer loop
     vertex -7.301587e-01  2.118166e-01  1.878307e-01
     vertex -7.301587e-01  9.329811e-02  1.977073e-01
     vertex -7.301587e-01  1.426808e-01  2.075838e-01
   endloop
 endfacet
 facet normal -1.000000e+00  0.000000e+00 -0.000000e+00
   outer loop
     vertex -7.301587e-01  1.920635e-01  2.273369e-01
     vertex -7.301587e-01  2.118166e-01  1.878307e-01
     vertex -7.301587e-01  1.821870e-01  2.174604e-01
   endloop
 endfacet
 facet normal -1.000000e+00  0.000000e+00 -0.000000e+00
   outer loop
     vertex -7.301587e-01  2.118166e-01  2.569665e-01
     vertex -7.301587e-01  2.118166e-01  1.878307e-01
     vertex -7.301587e-01  1.920635e-01  2.273369e-01
   endloop
 endfacet
 facet normal  0.000000e+00  6.122265e-15 -1.000000e+00
   outer loop
     vertex -1.587302e-02  2.118166e-01  1.878307e-01
     vertex -1.587302e-02  7.127667e-02  1.878307e-01
     vertex -7.301587e-01  7.127667e-02  1.878307e-01
   endloop
 endfacet
 facet normal  0.000000e+00  6.122265e-15 -1.000000e+00
   outer loop
     vertex -1.587302e-02  2.118166e-01  1.878307e-01
     vertex -7.301587e-01  7.127667e-02  1.878307e-01
     vertex -7.301587e-01  2.118166e-01  1.878307e-01
   endloop
 endfacet
 facet normal  0.000000e+00 -9.615240e-01  2.747211e-01
   outer loop
     vertex -1.587302e-02 -1.634920e-01  1.384480e-01
     vertex  9.841270e-01 -1.239859e-01  2.767196e-01
     vertex -1.587302e-02 -1.239859e-01  2.767196e-01
   endloop
 endfacet
 facet normal  0.000000e+00 -9.615240e-01  2.747211e-01
   outer loop
     vertex -1.587302e-02 -1.634920e-01  1.384480e-01
     vertex  9.841270e-01 -1.634920e-01  1.384480e-01
     vertex  9.841270e-01 -1.239859e-01  2.767196e-01
   endloop
 endfacet
 facet normal  0.000000e+00 -3.996806e-02  9.992010e-01
   outer loop
     vertex -1.587302e-02 -1.239859e-01  2.767196e-01
     vertex  9.841270e-01  1.229277e-01  2.865962e-01
     vertex -1.587302e-02  1.229277e-01  2.865962e-01
   endloop
 endfacet
 facet normal  0.000000e+00 -3.996806e-02  9.992010e-01
   outer loop
     vertex -1.587302e-02 -1.239859e-01  2.767196e-01
     vertex  9.841270e-01 -1.239859e-01  2.767196e-01
     vertex  9.841270e-01  1.229277e-01  2.865962e-01
   endloop
 endfacet
 facet normal  0.000000e+00  9.899495e-01  1.414212e-01
   outer loop
     vertex -1.587302e-02  1.229277e-01  2.865962e-01
     vertex  9.841270e-01  1.328043e-01  2.174604e-01
     vertex -1.587302e-02  1.328043e-01  2.174604e-01
   endloop
 endfacet
 facet normal -0.000000e+00  9.899495e-01  1.414212e-01
   outer loop
     vertex -1.587302e-02  1.229277e-01  2.865962e-01
     vertex  9.841270e-01  1.229277e-01  2.865962e-01
     vertex  9.841270e-01  1.328043e-01  2.174604e-01
   endloop
 endfacet
 facet normal  0.000000e+00  4.472139e-01 -8.944271e-01
   outer loop
     vertex -1.587302e-02  1.328043e-01  2.174604e-01
     vertex  9.841270e-01  9.612000e-02  1.991182e-01
     vertex -1.587302e-02  9.612000e-02  1.991182e-01
   endloop
 endfacet
 facet normal  0.000000e+00  4.472139e-01 -8.944271e-01
   outer loop
     vertex -1.587302e-02  1.328043e-01  2.174604e-01
     vertex  9.841270e-01  1.328043e-01  2.174604e-01
     vertex  9.841270e-01  9.612000e-02  1.991182e-01
   endloop
 endfacet
 facet normal  1.000000e+00  0.000000e+00  0.000000e+00
   outer loop
     vertex  9.841270e-01  9.329811e-02  1.977073e-01
     vertex  9.841270e-01  6.926075e-02  1.938784e-01
     vertex  9.841270e-01  6.932170e-02  1.937112e-01
   endloop
 endfacet
 facet normal  1.000000e+00  0.000000e+00  0.000000e+00
   outer loop
     vertex  9.841270e-01  9.329811e-02  1.977073e-01
     vertex  9.841270e-01  6.919953e-02  1.940454e-01
     vertex  9.841270e-01  6.926075e-02  1.938784e-01
   endloop
 endfacet
 facet normal  1.000000e+00  0.000000e+00  0.000000e+00
   outer loop
     vertex  9.841270e-01  9.329811e-02  1.977073e-01
     vertex  9.841270e-01  6.913804e-02  1.942124e-01
     vertex  9.841270e-01  6.919953e-02  1.940454e-01
   endloop
 endfacet
 facet normal  1.000000e+00  0.000000e+00  0.000000e+00
   outer loop
     vertex  9.841270e-01  9.612000e-02  1.991182e-01
     vertex  9.841270e-01  6.913804e-02  1.942124e-01
     vertex  9.841270e-01  9.329811e-02  1.977073e-01
   endloop
 endfacet
 facet normal  0.000000e+00 -1.788854e-01  9.838699e-01
   outer loop
     vertex -1.587302e-02  9.612000e-02  1.991182e-01
     vertex  9.841270e-01  1.426808e-01  2.075838e-01
     vertex -1.587302e-02  1.426808e-01  2.075838e-01
   endloop
 endfacet
 facet normal  0.000000e+00 -1.788854e-01  9.838699e-01
   outer loop
     vertex -1.587302e-02  9.612000e-02  1.991182e-01
     vertex  9.841270e-01  9.612000e-02  1.991182e-01
     vertex  9.841270e-01  1.426808e-01  2.075838e-01
   endloop
 endfacet
 facet normal  0.000000e+00 -2.425358e-01  9.701425e-01
   outer loop
     vertex -1.587302e-02  1.426808e-01  2.075838e-01
     vertex  9.841270e-01  1.821870e-01  2.174604e-01
     vertex -1.587302e-02  1.821870e-01  2.174604e-01
   endloop
 endfacet
 facet normal  0.000000e+00 -2.425358e-01  9.701425e-01
   outer loop
     vertex -1.587302e-02  1.426808e-01  2.075838e-01
     vertex  9.841270e-01  1.426808e-01  2.075838e-01
     vertex  9.841270e-01  1.821870e-01  2.174604e-01
   endloop
 endfacet
 facet normal  0.000000e+00 -7.071062e-01  7.071073e-01
   outer loop
     vertex -1.587302e-02  1.821870e-01  2.174604e-01
     vertex  9.841270e-01  1.920635e-01  2.273369e-01
     vertex -1.587302e-02  1.920635e-01  2.273369e-01
   endloop
 endfacet
 facet normal  0.000000e+00 -7.071062e-01  7.071073e-01
   outer loop
     vertex -1.587302e-02  1.821870e-01  2.174604e-01
     vertex  9.841270e-01  1.821870e-01  2.174604e-01
     vertex  9.841270e-01  1.920635e-01  2.273369e-01
   endloop
 endfacet
 facet normal  0.000000e+00 -8.320504e-01  5.547001e-01
   outer loop
     vertex -1.587302e-02  1.920635e-01  2.273369e-01
     vertex  9.841270e-01  2.118166e-01  2.569665e-01
     vertex -1.587302e-02  2.118166e-01  2.569665e-01
   endloop
 endfacet
 facet normal  0.000000e+00 -8.320504e-01  5.547001e-01
   outer loop
     vertex -1.587302e-02  1.920635e-01  2.273369e-01
     vertex  9.841270e-01  1.920635e-01  2.273369e-01
     vertex  9.841270e-01  2.118166e-01  2.569665e-01
   endloop
 endfacet
 facet normal  0.000000e+00  1.000000e+00  0.000000e+00
   outer loop
     vertex -1.587302e-02  2.118166e-01  2.569665e-01
     vertex  9.841270e-01  2.118166e-01  1.878307e-01
     vertex -1.587302e-02  2.118166e-01  1.878307e-01
   endloop
 endfacet
 facet normal -0.000000e+00  1.000000e+00  0.000000e+00
   outer loop
     vertex -1.587302e-02  2.118166e-01  2.569665e-01
     vertex  9.841270e-01  2.118166e-01  2.569665e-01
     vertex  9.841270e-01  2.118166e-01  1.878307e-01
   endloop
 endfacet
 facet normal  0.000000e+00 -9.615240e-01  2.747211e-01
   outer loop
     vertex -1.587302e-02 -1.634920e-01  1.384480e-01
     vertex -1.587302e-02 -1.239859e-01  2.767196e-01
     vertex -7.301587e-01 -1.239859e-01  2.767196e-01
   endloop
 endfacet
 facet normal  0.000000e+00 -9.615240e-01  2.747211e-01
   outer loop
     vertex -1.587302e-02 -1.634920e-01  1.384480e-01
     vertex -7.301587e-01 -1.239859e-01  2.767196e-01
     vertex -7.301587e-01 -1.634920e-01  1.384480e-01
   endloop
 endfacet
 facet normal  0.000000e+00 -3.996806e-02  9.992010e-01
   outer loop
     vertex -1.587302e-02 -1.239859e-01  2.767196e-01
     vertex -1.587302e-02  1.229277e-01  2.865962e-01
     vertex -7.301587e-01  1.229277e-01  2.865962e-01
   endloop
 endfacet
 facet normal  0.000000e+00 -3.996806e-02  9.992010e-01
   outer loop
     vertex -1.587302e-02 -1.239859e-01  2.767196e-01
     vertex -7.301587e-01  1.229277e-01  2.865962e-01
     vertex -7.301587e-01 -1.239859e-01  2.767196e-01
   endloop
 endfacet
 facet normal  0.000000e+00  9.899495e-01  1.414212e-01
   outer loop
     vertex -1.587302e-02  1.229277e-01  2.865962e-01
     vertex -1.587302e-02  1.328043e-01  2.174604e-01
     vertex -7.301587e-01  1.328043e-01  2.174604e-01
   endloop
 endfacet
 facet normal  0.000000e+00  9.899495e-01  1.414212e-01
   outer loop
     vertex -1.587302e-02  1.229277e-01  2.865962e-01
     vertex -7.301587e-01  1.328043e-01  2.174604e-01
     vertex -7.301587e-01  1.229277e-01  2.865962e-01
   endloop
 endfacet
 facet normal  0.000000e+00  4.472139e-01 -8.944271e-01
   outer loop
     vertex -1.587302e-02  1.328043e-01  2.174604e-01
     vertex -1.587302e-02  9.612000e-02  1.991182e-01
     vertex -7.301587e-01  9.612000e-02  1.991182e-01
   endloop
 endfacet
 facet normal  0.000000e+00  4.472139e-01 -8.944271e-01
   outer loop
     vertex -1.587302e-02  1.328043e-01  2.174604e-01
     vertex -7.301587e-01  9.612000e-02  1.991182e-01
     vertex -7.301587e-01  1.328043e-01  2.174604e-01
   endloop
 endfacet
 facet normal -1.000000e+00  0.000000e+00  0.000000e+00
   outer loop
     vertex -7.301587e-01  9.329811e-02  1.977073e-01
     vertex -7.301587e-01  6.932170e-02  1.937112e-01
     vertex -7.301587e-01  6.926075e-02  1.938784e-01
   endloop
 endfacet
 facet normal -1.000000e+00  0.000000e+00  0.000000e+00
   outer loop
     vertex -7.301587e-01  9.329811e-02  1.977073e-01
     vertex -7.301587e-01  6.926075e-02  1.938784e-01
     vertex -7.301587e-01  6.919953e-02  1.940454e-01
   endloop
 endfacet
 facet normal -1.000000e+00  0.000000e+00  0.000000e+00
   outer loop
     vertex -7.301587e-01  9.329811e-02  1.977073e-01
     vertex -7.301587e-01  6.919953e-02  1.940454e-01
     vertex -7.301587e-01  6.913804e-02  1.942124e-01
   endloop
 endfacet
 facet normal -1.000000e+00  0.000000e+00  0.000000e+00
   outer loop
     vertex -7.301587e-01  9.612000e-02  1.991182e-01
     vertex -7.301587e-01  9.329811e-02  1.977073e-01
     vertex -7.301587e-01  6.913804e-02  1.942124e-01
   endloop
 endfacet
 facet normal  0.000000e+00 -1.788854e-01  9.838699e-01
   outer loop
     vertex -1.587302e-02  9.612000e-02  1.991182e-01
     vertex -1.587302e-02  1.426808e-01  2.075838e-01
     vertex -7.301587e-01  1.426808e-01  2.075838e-01
   endloop
 endfacet
 facet normal  0.000000e+00 -1.788854e-01  9.838699e-01
   outer loop
     vertex -1.587302e-02  9.612000e-02  1.991182e-01
     vertex -7.301587e-01  1.426808e-01  2.075838e-01
     vertex -7.301587e-01  9.612000e-02  1.991182e-01
   endloop
 endfacet
 facet normal  0.000000e+00 -2.425358e-01  9.701425e-01
   outer loop
     vertex -1.587302e-02  1.426808e-01  2.075838e-01
     vertex -1.587302e-02  1.821870e-01  2.174604e-01
     vertex -7.301587e-01  1.821870e-01  2.174604e-01
   endloop
 endfacet
 facet normal  0.000000e+00 -2.425358e-01  9.701425e-01
   outer loop
     vertex -1.587302e-02  1.426808e-01  2.075838e-01
     vertex -7.301587e-01  1.821870e-01  2.174604e-01
     vertex -7.301587e-01  1.426808e-01  2.075838e-01
   endloop
 endfacet
 facet normal  0.000000e+00 -7.071062e-01  7.071073e-01
   outer loop
     vertex -1.587302e-02  1.821870e-01  2.174604e-01
     vertex -1.587302e-02  1.920635e-01  2.273369e-01
     vertex -7.301587e-01  1.920635e-01  2.273369e-01
   endloop
 endfacet
 facet normal  0.000000e+00 -7.071062e-01  7.071073e-01
   outer loop
     vertex -1.587302e-02  1.821870e-01  2.174604e-01
     vertex -7.301587e-01  1.920635e-01  2.273369e-01
     vertex -7.301587e-01  1.821870e-01  2.174604e-01
   endloop
 endfacet
 facet normal  0.000000e+00 -8.320504e-01  5.547001e-01
   outer loop
     vertex -1.587302e-02  1.920635e-01  2.273369e-01
     vertex -1.587302e-02  2.118166e-01  2.569665e-01
     vertex -7.301587e-01  2.118166e-01  2.569665e-01
   endloop
 endfacet
 facet normal  0.000000e+00 -8.320504e-01  5.547001e-01
   outer loop
     vertex -1.587302e-02  1.920635e-01  2.273369e-01
     vertex -7.301587e-01  2.118166e-01  2.569665e-01
     vertex -7.301587e-01  1.920635e-01  2.273369e-01
   endloop
 endfacet
 facet normal  0.000000e+00  1.000000e+00  0.000000e+00
   outer loop
     vertex -1.587302e-02  2.118166e-01  2.569665e-01
     vertex -1.587302e-02  2.118166e-01  1.878307e-01
     vertex -7.301587e-01  2.118166e-01  1.878307e-01
   endloop
 endfacet
 facet normal  0.000000e+00  1.000000e+00  0.000000e+00
   outer loop
     vertex -1.587302e-02  2.118166e-01  2.569665e-01
     vertex -7.301587e-01  2.118166e-01  1.878307e-01
     vertex -7.301587e-01  2.118166e-01  2.569665e-01
   endloop
 endfacet
endsolid
