solid 
 facet normal -2.272141e-02  0.000000e+00  9.997418e-01
   outer loop
     vertex -6.190473e-02 -1.587302e-02  2.874783e-02
     vertex -4.753946e-02 -1.015873e+00  2.907431e-02
     vertex -4.753946e-02 -1.587302e-02  2.907431e-02
   endloop
 endfacet
 facet normal -2.272141e-02  0.000000e+00  9.997418e-01
   outer loop
     vertex -6.190473e-02 -1.587302e-02  2.874783e-02
     vertex -6.190473e-02 -1.015873e+00  2.874783e-02
     vertex -4.753946e-02 -1.015873e+00  2.907431e-02
   endloop
 endfacet
 facet normal  1.427067e-01  0.000000e+00 -9.897650e-01
   outer loop
     vertex -5.093197e-02 -1.587302e-02  2.858517e-02
     vertex -4.753946e-02 -1.587302e-02  2.907431e-02
     vertex -4.753946e-02 -1.015873e+00  2.907431e-02
   endloop
 endfacet
 facet normal  1.427067e-01  0.000000e+00 -9.897650e-01
   outer loop
     vertex -5.093197e-02 -1.587302e-02  2.858517e-02
     vertex -4.753946e-02 -1.015873e+00  2.907431e-02
     vertex -5.093197e-02 -1.015873e+00  2.858517e-02
   endloop
 endfacet
 facet normal  1.690039e-01  0.000000e+00 -9.856154e-01
   outer loop
     vertex -5.431026e-02 -1.587302e-02  2.800589e-02
     vertex -5.093197e-02 -1.015873e+00  2.858517e-02
     vertex -5.431026e-02 -1.015873e+00  2.800589e-02
   endloop
 endfacet
 facet normal  1.690039e-01  0.000000e+00 -9.856154e-01
   outer loop
     vertex -5.431026e-02 -1.587302e-02  2.800589e-02
     vertex -5.093197e-02 -1.587302e-02  2.858517e-02
     vertex -5.093197e-02 -1.015873e+00  2.858517e-02
   endloop
 endfacet
 facet normal  1.951813e-01  0.000000e+00 -9.807672e-01
   outer loop
     vertex -5.767193e-02 -1.587302e-02  2.733689e-02
     vertex -5.431026e-02 -1.015873e+00  2.800589e-02
     vertex -5.767193e-02 -1.015873e+00  2.733689e-02
   endloop
 endfacet
 facet normal  1.951813e-01  0.000000e+00 -9.807672e-01
   outer loop
     vertex -5.767193e-02 -1.587302e-02  2.733689e-02
     vertex -5.431026e-02 -1.587302e-02  2.800589e-02
     vertex -5.431026e-02 -1.015873e+00  2.800589e-02
   endloop
 endfacet
 facet normal -9.761871e-01  0.000000e+00 -2.169305e-01
   outer loop
     vertex -5.767193e-02 -1.587302e-02  9.700207e-03
     vertex -6.190473e-02 -1.015873e+00  2.874783e-02
     vertex -6.190473e-02 -1.587302e-02  2.874783e-02
   endloop
 endfacet
 facet normal -9.761871e-01 -0.000000e+00 -2.169305e-01
   outer loop
     vertex -5.767193e-02 -1.587302e-02  9.700207e-03
     vertex -5.767193e-02 -1.015873e+00  9.700207e-03
     vertex -6.190473e-02 -1.015873e+00  2.874783e-02
   endloop
 endfacet
 facet normal -2.272141e-02  0.000000e+00  9.997418e-01
   outer loop
     vertex -6.190473e-02 -1.587302e-02  2.874783e-02
     vertex -4.753946e-02 -1.587302e-02  2.907431e-02
     vertex -4.753946e-02  9.841270e-01  2.907431e-02
   endloop
 endfacet
 facet normal -2.272141e-02  0.000000e+00  9.997418e-01
   outer loop
     vertex -6.190473e-02 -1.587302e-02  2.874783e-02
     vertex -4.753946e-02  9.841270e-01  2.907431e-02
     vertex -6.190473e-02  9.841270e-01  2.874783e-02
   endloop
 endfacet
 facet normal -0.000000e+00 -1.000000e+00 -0.000000e+00
   outer loop
     vertex -5.767193e-02 -1.015873e+00  2.733689e-02
     vertex -6.190473e-02 -1.015873e+00  2.874783e-02
     vertex -5.767193e-02 -1.015873e+00  9.700207e-03
   endloop
 endfacet
 facet normal -0.000000e+00 -1.000000e+00  0.000000e+00
   outer loop
     vertex -5.431026e-02 -1.015873e+00  2.800589e-02
     vertex -6.190473e-02 -1.015873e+00  2.874783e-02
     vertex -5.767193e-02 -1.015873e+00  2.733689e-02
   endloop
 endfacet
 facet normal  0.000000e+00 -1.000000e+00  0.000000e+00
   outer loop
     vertex -4.753946e-02 -1.015873e+00  2.907431e-02
     vertex -6.190473e-02 -1.015873e+00  2.874783e-02
     vertex -5.093197e-02 -1.015873e+00  2.858517e-02
   endloop
 endfacet
 facet normal -0.000000e+00 -1.000000e+00  0.000000e+00
   outer loop
     vertex -5.093197e-02 -1.015873e+00  2.858517e-02
     vertex -6.190473e-02 -1.015873e+00  2.874783e-02
     vertex -5.431026e-02 -1.015873e+00  2.800589e-02
   endloop
 endfacet
 facet normal  1.000000e+00  0.000000e+00 -0.000000e+00
   outer loop
     vertex -5.767193e-02 -1.587302e-02  9.700207e-03
     vertex -5.767193e-02 -1.587302e-02  2.733689e-02
     vertex -5.767193e-02 -1.015873e+00  2.733689e-02
   endloop
 endfacet
 facet normal  1.000000e+00  0.000000e+00  0.000000e+00
   outer loop
     vertex -5.767193e-02 -1.587302e-02  9.700207e-03
     vertex -5.767193e-02 -1.015873e+00  2.733689e-02
     vertex -5.767193e-02 -1.015873e+00  9.700207e-03
   endloop
 endfacet
 facet normal  1.427067e-01  0.000000e+00 -9.897650e-01
   outer loop
     vertex -5.093197e-02 -1.587302e-02  2.858517e-02
     vertex -4.753946e-02  9.841270e-01  2.907431e-02
     vertex -4.753946e-02 -1.587302e-02  2.907431e-02
   endloop
 endfacet
 facet normal  1.427067e-01  0.000000e+00 -9.897650e-01
   outer loop
     vertex -5.093197e-02 -1.587302e-02  2.858517e-02
     vertex -5.093197e-02  9.841270e-01  2.858517e-02
     vertex -4.753946e-02  9.841270e-01  2.907431e-02
   endloop
 endfacet
 facet normal  1.690039e-01  0.000000e+00 -9.856154e-01
   outer loop
     vertex -5.431026e-02 -1.587302e-02  2.800589e-02
     vertex -5.431026e-02  9.841270e-01  2.800589e-02
     vertex -5.093197e-02  9.841270e-01  2.858517e-02
   endloop
 endfacet
 facet normal  1.690039e-01  0.000000e+00 -9.856154e-01
   outer loop
     vertex -5.431026e-02 -1.587302e-02  2.800589e-02
     vertex -5.093197e-02  9.841270e-01  2.858517e-02
     vertex -5.093197e-02 -1.587302e-02  2.858517e-02
   endloop
 endfacet
 facet normal  1.951813e-01  0.000000e+00 -9.807672e-01
   outer loop
     vertex -5.767193e-02 -1.587302e-02  2.733689e-02
     vertex -5.767193e-02  9.841270e-01  2.733689e-02
     vertex -5.431026e-02  9.841270e-01  2.800589e-02
   endloop
 endfacet
 facet normal  1.951813e-01  0.000000e+00 -9.807672e-01
   outer loop
     vertex -5.767193e-02 -1.587302e-02  2.733689e-02
     vertex -5.431026e-02  9.841270e-01  2.800589e-02
     vertex -5.431026e-02 -1.587302e-02  2.800589e-02
   endloop
 endfacet
 facet normal -9.761871e-01  0.000000e+00 -2.169305e-01
   outer loop
     vertex -5.767193e-02 -1.587302e-02  9.700207e-03
     vertex -6.190473e-02 -1.587302e-02  2.874783e-02
     vertex -6.190473e-02  9.841270e-01  2.874783e-02
   endloop
 endfacet
 facet normal -9.761871e-01  0.000000e+00 -2.169305e-01
   outer loop
     vertex -5.767193e-02 -1.587302e-02  9.700207e-03
     vertex -6.190473e-02  9.841270e-01  2.874783e-02
     vertex -5.767193e-02  9.841270e-01  9.700207e-03
   endloop
 endfacet
 facet normal  0.000000e+00  1.000000e+00  0.000000e+00
   outer loop
     vertex -5.767193e-02  9.841270e-01  2.733689e-02
     vertex -5.767193e-02  9.841270e-01  9.700207e-03
     vertex -6.190473e-02  9.841270e-01  2.874783e-02
   endloop
 endfacet
 facet normal  0.000000e+00  1.000000e+00  0.000000e+00
   outer loop
     vertex -5.431026e-02  9.841270e-01  2.800589e-02
     vertex -5.767193e-02  9.841270e-01  2.733689e-02
     vertex -6.190473e-02  9.841270e-01  2.874783e-02
   endloop
 endfacet
 facet normal  0.000000e+00  1.000000e+00  0.000000e+00
   outer loop
     vertex -4.753946e-02  9.841270e-01  2.907431e-02
     vertex -5.093197e-02  9.841270e-01  2.858517e-02
     vertex -6.190473e-02  9.841270e-01  2.874783e-02
   endloop
 endfacet
 facet normal  0.000000e+00  1.000000e+00  0.000000e+00
   outer loop
     vertex -5.093197e-02  9.841270e-01  2.858517e-02
     vertex -5.431026e-02  9.841270e-01  2.800589e-02
     vertex -6.190473e-02  9.841270e-01  2.874783e-02
   endloop
 endfacet
 facet normal  1.000000e+00  0.000000e+00  0.000000e+00
   outer loop
     vertex -5.767193e-02 -1.587302e-02  9.700207e-03
     vertex -5.767193e-02  9.841270e-01  2.733689e-02
     vertex -5.767193e-02 -1.587302e-02  2.733689e-02
   endloop
 endfacet
 facet normal  1.000000e+00  0.000000e+00  0.000000e+00
   outer loop
     vertex -5.767193e-02 -1.587302e-02  9.700207e-03
     vertex -5.767193e-02  9.841270e-01  9.700207e-03
     vertex -5.767193e-02  9.841270e-01  2.733689e-02
   endloop
 endfacet
 facet normal  2.776707e-02  0.000000e+00  9.996144e-01
   outer loop
     vertex -6.260036e-03 -1.587302e-02  5.511521e-04
     vertex -5.594550e-02 -1.587302e-02  1.931304e-03
     vertex -5.594550e-02 -1.015873e+00  1.931304e-03
   endloop
 endfacet
 facet normal  2.776707e-02  0.000000e+00  9.996144e-01
   outer loop
     vertex -6.260036e-03 -1.587302e-02  5.511521e-04
     vertex -5.594550e-02 -1.015873e+00  1.931304e-03
     vertex -6.260036e-03 -1.015873e+00  5.511521e-04
   endloop
 endfacet
 facet normal -9.761871e-01  0.000000e+00 -2.169305e-01
   outer loop
     vertex -4.779538e-02 -1.587302e-02 -3.474424e-02
     vertex -5.594550e-02 -1.015873e+00  1.931304e-03
     vertex -5.594550e-02 -1.587302e-02  1.931304e-03
   endloop
 endfacet
 facet normal -9.761871e-01 -0.000000e+00 -2.169305e-01
   outer loop
     vertex -4.779538e-02 -1.587302e-02 -3.474424e-02
     vertex -4.779538e-02 -1.015873e+00 -3.474424e-02
     vertex -5.594550e-02 -1.015873e+00  1.931304e-03
   endloop
 endfacet
 facet normal  9.771764e-01  0.000000e+00 -2.124296e-01
   outer loop
     vertex -6.260036e-03 -1.587302e-02  5.511521e-04
     vertex -1.393295e-02 -1.015873e+00 -3.474424e-02
     vertex -1.393295e-02 -1.587302e-02 -3.474424e-02
   endloop
 endfacet
 facet normal  9.771764e-01  0.000000e+00 -2.124296e-01
   outer loop
     vertex -6.260036e-03 -1.587302e-02  5.511521e-04
     vertex -6.260036e-03 -1.015873e+00  5.511521e-04
     vertex -1.393295e-02 -1.015873e+00 -3.474424e-02
   endloop
 endfacet
 facet normal  2.776707e-02  0.000000e+00  9.996144e-01
   outer loop
     vertex -6.260036e-03 -1.587302e-02  5.511521e-04
     vertex -5.594550e-02  9.841270e-01  1.931304e-03
     vertex -5.594550e-02 -1.587302e-02  1.931304e-03
   endloop
 endfacet
 facet normal  2.776707e-02 -0.000000e+00  9.996144e-01
   outer loop
     vertex -6.260036e-03 -1.587302e-02  5.511521e-04
     vertex -6.260036e-03  9.841270e-01  5.511521e-04
     vertex -5.594550e-02  9.841270e-01  1.931304e-03
   endloop
 endfacet
 facet normal -0.000000e+00 -1.000000e+00  0.000000e+00
   outer loop
     vertex -6.260036e-03 -1.015873e+00  5.511521e-04
     vertex -5.594550e-02 -1.015873e+00  1.931304e-03
     vertex -4.779538e-02 -1.015873e+00 -3.474424e-02
   endloop
 endfacet
 facet normal  0.000000e+00 -1.000000e+00  0.000000e+00
   outer loop
     vertex -6.260036e-03 -1.015873e+00  5.511521e-04
     vertex -4.779538e-02 -1.015873e+00 -3.474424e-02
     vertex -1.393295e-02 -1.015873e+00 -3.474424e-02
   endloop
 endfacet
 facet normal -0.000000e+00  0.000000e+00 -1.000000e+00
   outer loop
     vertex -1.393295e-02 -1.587302e-02 -3.474424e-02
     vertex -4.779538e-02 -1.015873e+00 -3.474424e-02
     vertex -4.779538e-02 -1.587302e-02 -3.474424e-02
   endloop
 endfacet
 facet normal  0.000000e+00 -0.000000e+00 -1.000000e+00
   outer loop
     vertex -1.393295e-02 -1.587302e-02 -3.474424e-02
     vertex -1.393295e-02 -1.015873e+00 -3.474424e-02
     vertex -4.779538e-02 -1.015873e+00 -3.474424e-02
   endloop
 endfacet
 facet normal -9.761871e-01  0.000000e+00 -2.169305e-01
   outer loop
     vertex -4.779538e-02 -1.587302e-02 -3.474424e-02
     vertex -5.594550e-02 -1.587302e-02  1.931304e-03
     vertex -5.594550e-02  9.841270e-01  1.931304e-03
   endloop
 endfacet
 facet normal -9.761871e-01  0.000000e+00 -2.169305e-01
   outer loop
     vertex -4.779538e-02 -1.587302e-02 -3.474424e-02
     vertex -5.594550e-02  9.841270e-01  1.931304e-03
     vertex -4.779538e-02  9.841270e-01 -3.474424e-02
   endloop
 endfacet
 facet normal  9.771764e-01  0.000000e+00 -2.124296e-01
   outer loop
     vertex -6.260036e-03 -1.587302e-02  5.511521e-04
     vertex -1.393295e-02 -1.587302e-02 -3.474424e-02
     vertex -1.393295e-02  9.841270e-01 -3.474424e-02
   endloop
 endfacet
 facet normal  9.771764e-01  0.000000e+00 -2.124296e-01
   outer loop
     vertex -6.260036e-03 -1.587302e-02  5.511521e-04
     vertex -1.393295e-02  9.841270e-01 -3.474424e-02
     vertex -6.260036e-03  9.841270e-01  5.511521e-04
   endloop
 endfacet
 facet normal  0.000000e+00  1.000000e+00  0.000000e+00
   outer loop
     vertex -6.260036e-03  9.841270e-01  5.511521e-04
     vertex -4.779538e-02  9.841270e-01 -3.474424e-02
     vertex -5.594550e-02  9.841270e-01  1.931304e-03
   endloop
 endfacet
 facet normal  0.000000e+00  1.000000e+00  0.000000e+00
   outer loop
     vertex -6.260036e-03  9.841270e-01  5.511521e-04
     vertex -1.393295e-02  9.841270e-01 -3.474424e-02
     vertex -4.779538e-02  9.841270e-01 -3.474424e-02
   endloop
 endfacet
 facet normal  0.000000e+00  0.000000e+00 -1.000000e+00
   outer loop
     vertex -1.393295e-02 -1.587302e-02 -3.474424e-02
     vertex -4.779538e-02 -1.587302e-02 -3.474424e-02
     vertex -4.779538e-02  9.841270e-01 -3.474424e-02
   endloop
 endfacet
 facet normal  0.000000e+00  0.000000e+00 -1.000000e+00
   outer loop
     vertex -1.393295e-02 -1.587302e-02 -3.474424e-02
     vertex -4.779538e-02  9.841270e-01 -3.474424e-02
     vertex -1.393295e-02  9.841270e-01 -3.474424e-02
   endloop
 endfacet
 facet normal -2.272141e-02  0.000000e+00  9.997418e-01
   outer loop
     vertex -2.000597e-02 -1.587302e-02  2.970007e-02
     vertex  1.763999e-04 -1.015873e+00  3.015876e-02
     vertex  1.763999e-04 -1.587302e-02  3.015876e-02
   endloop
 endfacet
 facet normal -2.272141e-02  0.000000e+00  9.997418e-01
   outer loop
     vertex -2.000597e-02 -1.587302e-02  2.970007e-02
     vertex -2.000597e-02 -1.015873e+00  2.970007e-02
     vertex  1.763999e-04 -1.015873e+00  3.015876e-02
   endloop
 endfacet
 facet normal  9.771764e-01  0.000000e+00 -2.124296e-01
   outer loop
     vertex  1.763999e-04 -1.587302e-02  3.015876e-02
     vertex -4.056403e-03 -1.015873e+00  1.068786e-02
     vertex -4.056403e-03 -1.587302e-02  1.068786e-02
   endloop
 endfacet
 facet normal  9.771764e-01  0.000000e+00 -2.124296e-01
   outer loop
     vertex  1.763999e-04 -1.587302e-02  3.015876e-02
     vertex  1.763999e-04 -1.015873e+00  3.015876e-02
     vertex -4.056403e-03 -1.015873e+00  1.068786e-02
   endloop
 endfacet
 facet normal -1.877469e-01  0.000000e+00 -9.822174e-01
   outer loop
     vertex -9.338465e-03 -1.587302e-02  2.834654e-02
     vertex -4.056403e-03 -1.587302e-02  2.733689e-02
     vertex -4.056403e-03 -1.015873e+00  2.733689e-02
   endloop
 endfacet
 facet normal -1.877469e-01 -0.000000e+00 -9.822174e-01
   outer loop
     vertex -9.338465e-03 -1.587302e-02  2.834654e-02
     vertex -4.056403e-03 -1.015873e+00  2.733689e-02
     vertex -9.338465e-03 -1.015873e+00  2.834654e-02
   endloop
 endfacet
 facet normal -1.465657e-01 -0.000000e+00 -9.892009e-01
   outer loop
     vertex -1.465808e-02 -1.587302e-02  2.913472e-02
     vertex -9.338465e-03 -1.015873e+00  2.834654e-02
     vertex -1.465808e-02 -1.015873e+00  2.913472e-02
   endloop
 endfacet
 facet normal -1.465657e-01  0.000000e+00 -9.892009e-01
   outer loop
     vertex -1.465808e-02 -1.587302e-02  2.913472e-02
     vertex -9.338465e-03 -1.587302e-02  2.834654e-02
     vertex -9.338465e-03 -1.015873e+00  2.834654e-02
   endloop
 endfacet
 facet normal -1.051287e-01 -0.000000e+00 -9.944586e-01
   outer loop
     vertex -2.000597e-02 -1.587302e-02  2.970007e-02
     vertex -1.465808e-02 -1.015873e+00  2.913472e-02
     vertex -2.000597e-02 -1.015873e+00  2.970007e-02
   endloop
 endfacet
 facet normal -1.051287e-01  0.000000e+00 -9.944586e-01
   outer loop
     vertex -2.000597e-02 -1.587302e-02  2.970007e-02
     vertex -1.465808e-02 -1.587302e-02  2.913472e-02
     vertex -1.465808e-02 -1.015873e+00  2.913472e-02
   endloop
 endfacet
 facet normal -2.272141e-02  0.000000e+00  9.997418e-01
   outer loop
     vertex -2.000597e-02 -1.587302e-02  2.970007e-02
     vertex  1.763999e-04 -1.587302e-02  3.015876e-02
     vertex  1.763999e-04  9.841270e-01  3.015876e-02
   endloop
 endfacet
 facet normal -2.272141e-02  0.000000e+00  9.997418e-01
   outer loop
     vertex -2.000597e-02 -1.587302e-02  2.970007e-02
     vertex  1.763999e-04  9.841270e-01  3.015876e-02
     vertex -2.000597e-02  9.841270e-01  2.970007e-02
   endloop
 endfacet
 facet normal  0.000000e+00 -1.000000e+00  0.000000e+00
   outer loop
     vertex  1.763999e-04 -1.015873e+00  3.015876e-02
     vertex -9.338465e-03 -1.015873e+00  2.834654e-02
     vertex -4.056403e-03 -1.015873e+00  2.733689e-02
   endloop
 endfacet
 facet normal  0.000000e+00 -1.000000e+00  0.000000e+00
   outer loop
     vertex  1.763999e-04 -1.015873e+00  3.015876e-02
     vertex -4.056403e-03 -1.015873e+00  2.733689e-02
     vertex -4.056403e-03 -1.015873e+00  1.068786e-02
   endloop
 endfacet
 facet normal  0.000000e+00 -1.000000e+00  0.000000e+00
   outer loop
     vertex  1.763999e-04 -1.015873e+00  3.015876e-02
     vertex -2.000597e-02 -1.015873e+00  2.970007e-02
     vertex -1.465808e-02 -1.015873e+00  2.913472e-02
   endloop
 endfacet
 facet normal  0.000000e+00 -1.000000e+00  0.000000e+00
   outer loop
     vertex  1.763999e-04 -1.015873e+00  3.015876e-02
     vertex -1.465808e-02 -1.015873e+00  2.913472e-02
     vertex -9.338465e-03 -1.015873e+00  2.834654e-02
   endloop
 endfacet
 facet normal -1.000000e+00  0.000000e+00  1.719196e-15
   outer loop
     vertex -4.056403e-03 -1.587302e-02  2.733689e-02
     vertex -4.056403e-03 -1.587302e-02  1.068786e-02
     vertex -4.056403e-03 -1.015873e+00  1.068786e-02
   endloop
 endfacet
 facet normal -1.000000e+00  0.000000e+00  1.719196e-15
   outer loop
     vertex -4.056403e-03 -1.587302e-02  2.733689e-02
     vertex -4.056403e-03 -1.015873e+00  1.068786e-02
     vertex -4.056403e-03 -1.015873e+00  2.733689e-02
   endloop
 endfacet
 facet normal  9.771764e-01  0.000000e+00 -2.124296e-01
   outer loop
     vertex  1.763999e-04 -1.587302e-02  3.015876e-02
     vertex -4.056403e-03 -1.587302e-02  1.068786e-02
     vertex -4.056403e-03  9.841270e-01  1.068786e-02
   endloop
 endfacet
 facet normal  9.771764e-01  0.000000e+00 -2.124296e-01
   outer loop
     vertex  1.763999e-04 -1.587302e-02  3.015876e-02
     vertex -4.056403e-03  9.841270e-01  1.068786e-02
     vertex  1.763999e-04  9.841270e-01  3.015876e-02
   endloop
 endfacet
 facet normal -1.877469e-01  0.000000e+00 -9.822174e-01
   outer loop
     vertex -9.338465e-03 -1.587302e-02  2.834654e-02
     vertex -4.056403e-03  9.841270e-01  2.733689e-02
     vertex -4.056403e-03 -1.587302e-02  2.733689e-02
   endloop
 endfacet
 facet normal -1.877469e-01  0.000000e+00 -9.822174e-01
   outer loop
     vertex -9.338465e-03 -1.587302e-02  2.834654e-02
     vertex -9.338465e-03  9.841270e-01  2.834654e-02
     vertex -4.056403e-03  9.841270e-01  2.733689e-02
   endloop
 endfacet
 facet normal -1.465657e-01  0.000000e+00 -9.892009e-01
   outer loop
     vertex -1.465808e-02 -1.587302e-02  2.913472e-02
     vertex -1.465808e-02  9.841270e-01  2.913472e-02
     vertex -9.338465e-03  9.841270e-01  2.834654e-02
   endloop
 endfacet
 facet normal -1.465657e-01  0.000000e+00 -9.892009e-01
   outer loop
     vertex -1.465808e-02 -1.587302e-02  2.913472e-02
     vertex -9.338465e-03  9.841270e-01  2.834654e-02
     vertex -9.338465e-03 -1.587302e-02  2.834654e-02
   endloop
 endfacet
 facet normal -1.051287e-01  0.000000e+00 -9.944586e-01
   outer loop
     vertex -2.000597e-02 -1.587302e-02  2.970007e-02
     vertex -2.000597e-02  9.841270e-01  2.970007e-02
     vertex -1.465808e-02  9.841270e-01  2.913472e-02
   endloop
 endfacet
 facet normal -1.051287e-01  0.000000e+00 -9.944586e-01
   outer loop
     vertex -2.000597e-02 -1.587302e-02  2.970007e-02
     vertex -1.465808e-02  9.841270e-01  2.913472e-02
     vertex -1.465808e-02 -1.587302e-02  2.913472e-02
   endloop
 endfacet
 facet normal  0.000000e+00  1.000000e+00  0.000000e+00
   outer loop
     vertex  1.763999e-04  9.841270e-01  3.015876e-02
     vertex -4.056403e-03  9.841270e-01  2.733689e-02
     vertex -9.338465e-03  9.841270e-01  2.834654e-02
   endloop
 endfacet
 facet normal  0.000000e+00  1.000000e+00  0.000000e+00
   outer loop
     vertex  1.763999e-04  9.841270e-01  3.015876e-02
     vertex -4.056403e-03  9.841270e-01  1.068786e-02
     vertex -4.056403e-03  9.841270e-01  2.733689e-02
   endloop
 endfacet
 facet normal  0.000000e+00  1.000000e+00  0.000000e+00
   outer loop
     vertex  1.763999e-04  9.841270e-01  3.015876e-02
     vertex -1.465808e-02  9.841270e-01  2.913472e-02
     vertex -2.000597e-02  9.841270e-01  2.970007e-02
   endloop
 endfacet
 facet normal  0.000000e+00  1.000000e+00  0.000000e+00
   outer loop
     vertex  1.763999e-04  9.841270e-01  3.015876e-02
     vertex -9.338465e-03  9.841270e-01  2.834654e-02
     vertex -1.465808e-02  9.841270e-01  2.913472e-02
   endloop
 endfacet
 facet normal -1.000000e+00  0.000000e+00  1.719196e-15
   outer loop
     vertex -4.056403e-03 -1.587302e-02  2.733689e-02
     vertex -4.056403e-03  9.841270e-01  1.068786e-02
     vertex -4.056403e-03 -1.587302e-02  1.068786e-02
   endloop
 endfacet
 facet normal -1.000000e+00  0.000000e+00  1.719196e-15
   outer loop
     vertex -4.056403e-03 -1.587302e-02  2.733689e-02
     vertex -4.056403e-03  9.841270e-01  2.733689e-02
     vertex -4.056403e-03  9.841270e-01  1.068786e-02
   endloop
 endfacet
endsolid
