solid 
 facet normal  0.000000e+00 -1.000000e+00  0.000000e+00
   outer loop
     vertex  2.005292e-01 -1.004762e+00 -1.587302e-02
     vertex -4.779539e-02 -1.004762e+00  6.000000e-08
     vertex -4.779539e-02 -1.004762e+00 -1.587302e-02
   endloop
 endfacet
 facet normal  0.000000e+00 -1.000000e+00  0.000000e+00
   outer loop
     vertex  2.005292e-01 -1.004762e+00 -1.587302e-02
     vertex  2.005292e-01 -1.004762e+00  6.000000e-08
     vertex -4.779539e-02 -1.004762e+00  6.000000e-08
   endloop
 endfacet
 facet normal -1.000000e+00  0.000000e+00  0.000000e+00
   outer loop
     vertex -4.779539e-02 -1.004762e+00 -1.587302e-02
     vertex -4.779539e-02 -4.250440e-02  6.000000e-08
     vertex -4.779539e-02 -4.250440e-02 -1.587302e-02
   endloop
 endfacet
 facet normal -1.000000e+00  0.000000e+00  0.000000e+00
   outer loop
     vertex -4.779539e-02 -1.004762e+00 -1.587302e-02
     vertex -4.779539e-02 -1.004762e+00  6.000000e-08
     vertex -4.779539e-02 -4.250440e-02  6.000000e-08
   endloop
 endfacet
 facet normal  1.000000e+00  0.000000e+00  0.000000e+00
   outer loop
     vertex  2.005292e-01 -4.250440e-02 -1.587302e-02
     vertex  2.005292e-01 -1.004762e+00  6.000000e-08
     vertex  2.005292e-01 -1.004762e+00 -1.587302e-02
   endloop
 endfacet
 facet normal  1.000000e+00  0.000000e+00 -0.000000e+00
   outer loop
     vertex  2.005292e-01 -4.250440e-02 -1.587302e-02
     vertex  2.005292e-01 -4.250440e-02  6.000000e-08
     vertex  2.005292e-01 -1.004762e+00  6.000000e-08
   endloop
 endfacet
 facet normal -0.000000e+00 -1.000000e+00  0.000000e+00
   outer loop
     vertex  2.005292e-01 -1.004762e+00 -1.587302e-02
     vertex -4.779539e-02 -1.004762e+00 -1.587302e-02
     vertex -4.779539e-02 -1.004762e+00 -3.174603e-02
   endloop
 endfacet
 facet normal  0.000000e+00 -1.000000e+00 -0.000000e+00
   outer loop
     vertex  2.005292e-01 -1.004762e+00 -1.587302e-02
     vertex -4.779539e-02 -1.004762e+00 -3.174603e-02
     vertex  2.005292e-01 -1.004762e+00 -3.174603e-02
   endloop
 endfacet
 facet normal  0.000000e+00  0.000000e+00  1.000000e+00
   outer loop
     vertex  2.005292e-01 -4.250440e-02  6.000000e-08
     vertex -4.779539e-02 -1.004762e+00  6.000000e-08
     vertex  2.005292e-01 -1.004762e+00  6.000000e-08
   endloop
 endfacet
 facet normal  0.000000e+00  0.000000e+00  1.000000e+00
   outer loop
     vertex  2.005292e-01 -4.250440e-02  6.000000e-08
     vertex -4.779539e-02 -4.250440e-02  6.000000e-08
     vertex -4.779539e-02 -1.004762e+00  6.000000e-08
   endloop
 endfacet
 facet normal  0.000000e+00  1.000000e+00  0.000000e+00
   outer loop
     vertex -4.779539e-02 -4.250440e-02 -1.587302e-02
     vertex  2.005292e-01 -4.250440e-02  6.000000e-08
     vertex  2.005292e-01 -4.250440e-02 -1.587302e-02
   endloop
 endfacet
 facet normal  0.000000e+00  1.000000e+00  0.000000e+00
   outer loop
     vertex -4.779539e-02 -4.250440e-02 -1.587302e-02
     vertex -4.779539e-02 -4.250440e-02  6.000000e-08
     vertex  2.005292e-01 -4.250440e-02  6.000000e-08
   endloop
 endfacet
 facet normal -1.000000e+00  0.000000e+00  0.000000e+00
   outer loop
     vertex -4.779539e-02 -1.004762e+00 -1.587302e-02
     vertex -4.779539e-02 -4.250440e-02 -1.587302e-02
     vertex -4.779539e-02 -4.250440e-02 -3.174603e-02
   endloop
 endfacet
 facet normal -1.000000e+00  0.000000e+00  0.000000e+00
   outer loop
     vertex -4.779539e-02 -1.004762e+00 -1.587302e-02
     vertex -4.779539e-02 -4.250440e-02 -3.174603e-02
     vertex -4.779539e-02 -1.004762e+00 -3.174603e-02
   endloop
 endfacet
 facet normal  1.000000e+00  0.000000e+00  0.000000e+00
   outer loop
     vertex  2.005292e-01 -4.250440e-02 -1.587302e-02
     vertex  2.005292e-01 -1.004762e+00 -1.587302e-02
     vertex  2.005292e-01 -1.004762e+00 -3.174603e-02
   endloop
 endfacet
 facet normal  1.000000e+00  0.000000e+00  0.000000e+00
   outer loop
     vertex  2.005292e-01 -4.250440e-02 -1.587302e-02
     vertex  2.005292e-01 -1.004762e+00 -3.174603e-02
     vertex  2.005292e-01 -4.250440e-02 -3.174603e-02
   endloop
 endfacet
 facet normal  0.000000e+00 -0.000000e+00 -1.000000e+00
   outer loop
     vertex  2.005292e-01 -4.250440e-02 -3.174603e-02
     vertex  2.005292e-01 -1.004762e+00 -3.174603e-02
     vertex -4.779539e-02 -1.004762e+00 -3.174603e-02
   endloop
 endfacet
 facet normal -0.000000e+00  0.000000e+00 -1.000000e+00
   outer loop
     vertex  2.005292e-01 -4.250440e-02 -3.174603e-02
     vertex -4.779539e-02 -1.004762e+00 -3.174603e-02
     vertex -4.779539e-02 -4.250440e-02 -3.174603e-02
   endloop
 endfacet
 facet normal -0.000000e+00  1.000000e+00  0.000000e+00
   outer loop
     vertex -4.779539e-02 -4.250440e-02 -1.587302e-02
     vertex  2.005292e-01 -4.250440e-02 -1.587302e-02
     vertex  2.005292e-01 -4.250440e-02 -3.174603e-02
   endloop
 endfacet
 facet normal  0.000000e+00  1.000000e+00  0.000000e+00
   outer loop
     vertex -4.779539e-02 -4.250440e-02 -1.587302e-02
     vertex  2.005292e-01 -4.250440e-02 -3.174603e-02
     vertex -4.779539e-02 -4.250440e-02 -3.174603e-02
   endloop
 endfacet
 facet normal  0.000000e+00  0.000000e+00 -1.000000e+00
   outer loop
     vertex  7.931217e-01 -4.920635e-01 -4.873015e-01
     vertex  1.041446e+00 -3.492063e-01 -4.873015e-01
     vertex  1.041446e+00 -4.920635e-01 -4.873015e-01
   endloop
 endfacet
 facet normal  0.000000e+00  0.000000e+00 -1.000000e+00
   outer loop
     vertex  7.931217e-01 -4.920635e-01 -4.873015e-01
     vertex  7.931217e-01 -3.492063e-01 -4.873015e-01
     vertex  1.041446e+00 -3.492063e-01 -4.873015e-01
   endloop
 endfacet
 facet normal  1.000000e+00  0.000000e+00  0.000000e+00
   outer loop
     vertex  1.041446e+00 -4.920635e-01 -4.873015e-01
     vertex  1.041446e+00 -3.492063e-01  4.749560e-01
     vertex  1.041446e+00 -4.920635e-01  4.749560e-01
   endloop
 endfacet
 facet normal  1.000000e+00  0.000000e+00  0.000000e+00
   outer loop
     vertex  1.041446e+00 -4.920635e-01 -4.873015e-01
     vertex  1.041446e+00 -3.492063e-01 -4.873015e-01
     vertex  1.041446e+00 -3.492063e-01  4.749560e-01
   endloop
 endfacet
 facet normal -1.000000e+00  0.000000e+00  0.000000e+00
   outer loop
     vertex  7.931217e-01 -4.920635e-01  4.749560e-01
     vertex  7.931217e-01 -3.492063e-01 -4.873015e-01
     vertex  7.931217e-01 -4.920635e-01 -4.873015e-01
   endloop
 endfacet
 facet normal -1.000000e+00  0.000000e+00  0.000000e+00
   outer loop
     vertex  7.931217e-01 -4.920635e-01  4.749560e-01
     vertex  7.931217e-01 -3.492063e-01  4.749560e-01
     vertex  7.931217e-01 -3.492063e-01 -4.873015e-01
   endloop
 endfacet
 facet normal  0.000000e+00  0.000000e+00 -1.000000e+00
   outer loop
     vertex  7.931217e-01 -4.920635e-01 -4.873015e-01
     vertex  1.041446e+00 -4.920635e-01 -4.873015e-01
     vertex  1.041446e+00 -5.079365e-01 -4.873015e-01
   endloop
 endfacet
 facet normal  0.000000e+00  0.000000e+00 -1.000000e+00
   outer loop
     vertex  7.931217e-01 -4.920635e-01 -4.873015e-01
     vertex  1.041446e+00 -5.079365e-01 -4.873015e-01
     vertex  7.931217e-01 -5.079365e-01 -4.873015e-01
   endloop
 endfacet
 facet normal  0.000000e+00  1.000000e+00  0.000000e+00
   outer loop
     vertex  7.931217e-01 -3.492063e-01  4.749560e-01
     vertex  1.041446e+00 -3.492063e-01 -4.873015e-01
     vertex  7.931217e-01 -3.492063e-01 -4.873015e-01
   endloop
 endfacet
 facet normal -0.000000e+00  1.000000e+00  0.000000e+00
   outer loop
     vertex  7.931217e-01 -3.492063e-01  4.749560e-01
     vertex  1.041446e+00 -3.492063e-01  4.749560e-01
     vertex  1.041446e+00 -3.492063e-01 -4.873015e-01
   endloop
 endfacet
 facet normal  0.000000e+00  0.000000e+00  1.000000e+00
   outer loop
     vertex  1.041446e+00 -4.920635e-01  4.749560e-01
     vertex  7.931217e-01 -3.492063e-01  4.749560e-01
     vertex  7.931217e-01 -4.920635e-01  4.749560e-01
   endloop
 endfacet
 facet normal  0.000000e+00 -0.000000e+00  1.000000e+00
   outer loop
     vertex  1.041446e+00 -4.920635e-01  4.749560e-01
     vertex  1.041446e+00 -3.492063e-01  4.749560e-01
     vertex  7.931217e-01 -3.492063e-01  4.749560e-01
   endloop
 endfacet
 facet normal  1.000000e+00  0.000000e+00 -0.000000e+00
   outer loop
     vertex  1.041446e+00 -4.920635e-01 -4.873015e-01
     vertex  1.041446e+00 -4.920635e-01  4.749560e-01
     vertex  1.041446e+00 -5.079365e-01  4.749560e-01
   endloop
 endfacet
 facet normal  1.000000e+00  0.000000e+00  0.000000e+00
   outer loop
     vertex  1.041446e+00 -4.920635e-01 -4.873015e-01
     vertex  1.041446e+00 -5.079365e-01  4.749560e-01
     vertex  1.041446e+00 -5.079365e-01 -4.873015e-01
   endloop
 endfacet
 facet normal -1.000000e+00  0.000000e+00 -0.000000e+00
   outer loop
     vertex  7.931217e-01 -4.920635e-01  4.749560e-01
     vertex  7.931217e-01 -4.920635e-01 -4.873015e-01
     vertex  7.931217e-01 -5.079365e-01 -4.873015e-01
   endloop
 endfacet
 facet normal -1.000000e+00 -0.000000e+00  0.000000e+00
   outer loop
     vertex  7.931217e-01 -4.920635e-01  4.749560e-01
     vertex  7.931217e-01 -5.079365e-01 -4.873015e-01
     vertex  7.931217e-01 -5.079365e-01  4.749560e-01
   endloop
 endfacet
 facet normal  0.000000e+00 -1.000000e+00  0.000000e+00
   outer loop
     vertex  7.931217e-01 -5.079365e-01  4.749560e-01
     vertex  7.931217e-01 -5.079365e-01 -4.873015e-01
     vertex  1.041446e+00 -5.079365e-01 -4.873015e-01
   endloop
 endfacet
 facet normal  0.000000e+00 -1.000000e+00  0.000000e+00
   outer loop
     vertex  7.931217e-01 -5.079365e-01  4.749560e-01
     vertex  1.041446e+00 -5.079365e-01 -4.873015e-01
     vertex  1.041446e+00 -5.079365e-01  4.749560e-01
   endloop
 endfacet
 facet normal  0.000000e+00  0.000000e+00  1.000000e+00
   outer loop
     vertex  1.041446e+00 -4.920635e-01  4.749560e-01
     vertex  7.931217e-01 -4.920635e-01  4.749560e-01
     vertex  7.931217e-01 -5.079365e-01  4.749560e-01
   endloop
 endfacet
 facet normal  0.000000e+00  0.000000e+00  1.000000e+00
   outer loop
     vertex  1.041446e+00 -4.920635e-01  4.749560e-01
     vertex  7.931217e-01 -5.079365e-01  4.749560e-01
     vertex  1.041446e+00 -5.079365e-01  4.749560e-01
   endloop
 endfacet
endsolid
