solid 
 facet normal -1.000000e+00  0.000000e+00  0.000000e+00
   outer loop
     vertex -9.733686e-01 -1.587302e-02 -3.686073e-02
     vertex -9.733686e-01 -2.857143e-01  1.649030e-01
     vertex -9.733686e-01 -1.587302e-02  1.649030e-01
   endloop
 endfacet
 facet normal -1.000000e+00  0.000000e+00  0.000000e+00
   outer loop
     vertex -9.733686e-01 -1.587302e-02 -3.686073e-02
     vertex -9.733686e-01 -2.857143e-01 -3.686073e-02
     vertex -9.733686e-01 -2.857143e-01  1.649030e-01
   endloop
 endfacet
 facet normal  1.218060e-14  0.000000e+00  1.000000e+00
   outer loop
     vertex -9.733686e-01 -1.587302e-02  1.649030e-01
     vertex -8.229764e-01 -2.857143e-01  1.649030e-01
     vertex -8.229764e-01 -1.587302e-02  1.649030e-01
   endloop
 endfacet
 facet normal  1.218060e-14  0.000000e+00  1.000000e+00
   outer loop
     vertex -9.733686e-01 -1.587302e-02  1.649030e-01
     vertex -9.733686e-01 -2.857143e-01  1.649030e-01
     vertex -8.229764e-01 -2.857143e-01  1.649030e-01
   endloop
 endfacet
 facet normal -0.000000e+00  0.000000e+00 -1.000000e+00
   outer loop
     vertex -1.957667e-02 -1.587302e-02 -3.686073e-02
     vertex -9.733686e-01 -2.857143e-01 -3.686073e-02
     vertex -9.733686e-01 -1.587302e-02 -3.686073e-02
   endloop
 endfacet
 facet normal  0.000000e+00 -0.000000e+00 -1.000000e+00
   outer loop
     vertex -1.957667e-02 -1.587302e-02 -3.686073e-02
     vertex -1.957667e-02 -2.857143e-01 -3.686073e-02
     vertex -9.733686e-01 -2.857143e-01 -3.686073e-02
   endloop
 endfacet
 facet normal -1.000000e+00  0.000000e+00  0.000000e+00
   outer loop
     vertex -9.733686e-01 -1.587302e-02 -3.686073e-02
     vertex -9.733686e-01 -1.587302e-02  1.649030e-01
     vertex -9.733686e-01  0.000000e+00  1.649030e-01
   endloop
 endfacet
 facet normal -1.000000e+00  0.000000e+00  0.000000e+00
   outer loop
     vertex -9.733686e-01 -1.587302e-02 -3.686073e-02
     vertex -9.733686e-01  0.000000e+00  1.649030e-01
     vertex -9.733686e-01  0.000000e+00 -3.686073e-02
   endloop
 endfacet
 facet normal -0.000000e+00 -1.000000e+00  0.000000e+00
   outer loop
     vertex -8.229764e-01 -2.857143e-01  1.649030e-01
     vertex -9.733686e-01 -2.857143e-01  1.649030e-01
     vertex -9.733686e-01 -2.857143e-01 -3.686073e-02
   endloop
 endfacet
 facet normal -0.000000e+00 -1.000000e+00  0.000000e+00
   outer loop
     vertex -8.009201e-01 -2.857143e-01  1.487048e-01
     vertex -8.229764e-01 -2.857143e-01  1.649030e-01
     vertex -9.733686e-01 -2.857143e-01 -3.686073e-02
   endloop
 endfacet
 facet normal -0.000000e+00 -1.000000e+00  0.000000e+00
   outer loop
     vertex -7.767907e-01 -2.857143e-01  1.357962e-01
     vertex -8.009201e-01 -2.857143e-01  1.487048e-01
     vertex -9.733686e-01 -2.857143e-01 -3.686073e-02
   endloop
 endfacet
 facet normal -0.000000e+00 -1.000000e+00  0.000000e+00
   outer loop
     vertex -7.510753e-01 -2.857143e-01  1.264377e-01
     vertex -7.767907e-01 -2.857143e-01  1.357962e-01
     vertex -9.733686e-01 -2.857143e-01 -3.686073e-02
   endloop
 endfacet
 facet normal -0.000000e+00 -1.000000e+00  0.000000e+00
   outer loop
     vertex -7.242931e-01 -2.857143e-01  1.208184e-01
     vertex -7.510753e-01 -2.857143e-01  1.264377e-01
     vertex -9.733686e-01 -2.857143e-01 -3.686073e-02
   endloop
 endfacet
 facet normal -0.000000e+00 -1.000000e+00  0.000000e+00
   outer loop
     vertex -6.969849e-01 -2.857143e-01  1.190517e-01
     vertex -7.242931e-01 -2.857143e-01  1.208184e-01
     vertex -9.733686e-01 -2.857143e-01 -3.686073e-02
   endloop
 endfacet
 facet normal  0.000000e+00 -1.000000e+00  0.000000e+00
   outer loop
     vertex -6.697019e-01 -2.857143e-01  1.211731e-01
     vertex -6.969849e-01 -2.857143e-01  1.190517e-01
     vertex -9.733686e-01 -2.857143e-01 -3.686073e-02
   endloop
 endfacet
 facet normal  0.000000e+00 -1.000000e+00  0.000000e+00
   outer loop
     vertex -6.429951e-01 -2.857143e-01  1.271400e-01
     vertex -6.697019e-01 -2.857143e-01  1.211731e-01
     vertex -9.733686e-01 -2.857143e-01 -3.686073e-02
   endloop
 endfacet
 facet normal  0.000000e+00 -1.000000e+00  0.000000e+00
   outer loop
     vertex -5.171775e-01 -2.857143e-01  4.019640e-01
     vertex -5.274792e-01 -2.857143e-01  4.007127e-01
     vertex -5.180304e-01 -2.857143e-01  3.795943e-01
   endloop
 endfacet
 facet normal  0.000000e+00 -1.000000e+00  0.000000e+00
   outer loop
     vertex -5.068376e-01 -2.857143e-01  4.028438e-01
     vertex -5.171775e-01 -2.857143e-01  4.019640e-01
     vertex -5.180304e-01 -2.857143e-01  3.795943e-01
   endloop
 endfacet
 facet normal  0.000000e+00 -1.000000e+00  0.000000e+00
   outer loop
     vertex -4.964726e-01 -2.857143e-01  4.033509e-01
     vertex -5.070333e-01 -2.857143e-01  3.347343e-01
     vertex -5.056437e-01 -2.857143e-01  3.116402e-01
   endloop
 endfacet
 facet normal  0.000000e+00 -1.000000e+00  0.000000e+00
   outer loop
     vertex -4.964726e-01 -2.857143e-01  4.033509e-01
     vertex -5.111822e-01 -2.857143e-01  3.574951e-01
     vertex -5.070333e-01 -2.857143e-01  3.347343e-01
   endloop
 endfacet
 facet normal  0.000000e+00 -1.000000e+00  0.000000e+00
   outer loop
     vertex -4.964726e-01 -2.857143e-01  4.033509e-01
     vertex -5.180304e-01 -2.857143e-01  3.795943e-01
     vertex -5.111822e-01 -2.857143e-01  3.574951e-01
   endloop
 endfacet
 facet normal  0.000000e+00 -1.000000e+00  0.000000e+00
   outer loop
     vertex -4.964726e-01 -2.857143e-01  4.033509e-01
     vertex -5.068376e-01 -2.857143e-01  4.028438e-01
     vertex -5.180304e-01 -2.857143e-01  3.795943e-01
   endloop
 endfacet
 facet normal  0.000000e+00 -1.000000e+00  0.000000e+00
   outer loop
     vertex -1.957667e-02 -2.857143e-01 -3.686073e-02
     vertex -6.174035e-01 -2.857143e-01  1.368318e-01
     vertex -6.429951e-01 -2.857143e-01  1.271400e-01
   endloop
 endfacet
 facet normal  0.000000e+00 -1.000000e+00  0.000000e+00
   outer loop
     vertex -1.957667e-02 -2.857143e-01 -3.686073e-02
     vertex -5.934438e-01 -2.857143e-01  1.500529e-01
     vertex -6.174035e-01 -2.857143e-01  1.368318e-01
   endloop
 endfacet
 facet normal  0.000000e+00 -1.000000e+00  0.000000e+00
   outer loop
     vertex -1.957667e-02 -2.857143e-01 -3.686073e-02
     vertex -5.715999e-01 -2.857143e-01  1.665363e-01
     vertex -5.934438e-01 -2.857143e-01  1.500529e-01
   endloop
 endfacet
 facet normal  0.000000e+00 -1.000000e+00  0.000000e+00
   outer loop
     vertex -1.957667e-02 -2.857143e-01 -3.686073e-02
     vertex -5.523127e-01 -2.857143e-01  1.859493e-01
     vertex -5.715999e-01 -2.857143e-01  1.665363e-01
   endloop
 endfacet
 facet normal  0.000000e+00 -1.000000e+00  0.000000e+00
   outer loop
     vertex -1.957667e-02 -2.857143e-01 -3.686073e-02
     vertex -5.359715e-01 -2.857143e-01  2.078999e-01
     vertex -5.523127e-01 -2.857143e-01  1.859493e-01
   endloop
 endfacet
 facet normal  0.000000e+00 -1.000000e+00  0.000000e+00
   outer loop
     vertex -1.957667e-02 -2.857143e-01 -3.686073e-02
     vertex -5.229064e-01 -2.857143e-01  2.319449e-01
     vertex -5.359715e-01 -2.857143e-01  2.078999e-01
   endloop
 endfacet
 facet normal  0.000000e+00 -1.000000e+00  0.000000e+00
   outer loop
     vertex -1.957667e-02 -2.857143e-01 -3.686073e-02
     vertex -5.133811e-01 -2.857143e-01  2.575989e-01
     vertex -5.229064e-01 -2.857143e-01  2.319449e-01
   endloop
 endfacet
 facet normal  0.000000e+00 -1.000000e+00  0.000000e+00
   outer loop
     vertex -1.957667e-02 -2.857143e-01 -3.686073e-02
     vertex -5.075878e-01 -2.857143e-01  2.843440e-01
     vertex -5.133811e-01 -2.857143e-01  2.575989e-01
   endloop
 endfacet
 facet normal  0.000000e+00 -1.000000e+00  0.000000e+00
   outer loop
     vertex -1.957667e-02 -2.857143e-01 -3.686073e-02
     vertex -5.056437e-01 -2.857143e-01  3.116402e-01
     vertex -5.075878e-01 -2.857143e-01  2.843440e-01
   endloop
 endfacet
 facet normal  0.000000e+00 -1.000000e+00  0.000000e+00
   outer loop
     vertex -1.957667e-02 -2.857143e-01 -3.686073e-02
     vertex -6.429951e-01 -2.857143e-01  1.271400e-01
     vertex -9.733686e-01 -2.857143e-01 -3.686073e-02
   endloop
 endfacet
 facet normal -0.000000e+00 -1.000000e+00  0.000000e+00
   outer loop
     vertex -1.957667e-02 -2.857143e-01  5.867725e-01
     vertex -4.964726e-01 -2.857143e-01  5.867725e-01
     vertex -4.964726e-01 -2.857143e-01  4.033509e-01
   endloop
 endfacet
 facet normal  0.000000e+00 -1.000000e+00 -0.000000e+00
   outer loop
     vertex -1.957667e-02 -2.857143e-01  5.867725e-01
     vertex -5.056437e-01 -2.857143e-01  3.116402e-01
     vertex -1.957667e-02 -2.857143e-01 -3.686073e-02
   endloop
 endfacet
 facet normal  0.000000e+00 -1.000000e+00  0.000000e+00
   outer loop
     vertex -1.957667e-02 -2.857143e-01  5.867725e-01
     vertex -4.964726e-01 -2.857143e-01  4.033509e-01
     vertex -5.056437e-01 -2.857143e-01  3.116402e-01
   endloop
 endfacet
 facet normal  5.919231e-01  0.000000e+00  8.059945e-01
   outer loop
     vertex -8.009201e-01 -1.587302e-02  1.487048e-01
     vertex -8.229764e-01 -1.587302e-02  1.649030e-01
     vertex -8.229764e-01 -2.857143e-01  1.649030e-01
   endloop
 endfacet
 facet normal  5.919231e-01  0.000000e+00  8.059945e-01
   outer loop
     vertex -8.009201e-01 -1.587302e-02  1.487048e-01
     vertex -8.229764e-01 -2.857143e-01  1.649030e-01
     vertex -8.009201e-01 -2.857143e-01  1.487048e-01
   endloop
 endfacet
 facet normal  4.717141e-01  0.000000e+00  8.817515e-01
   outer loop
     vertex -7.767907e-01 -1.587302e-02  1.357962e-01
     vertex -8.009201e-01 -2.857143e-01  1.487048e-01
     vertex -7.767907e-01 -2.857143e-01  1.357962e-01
   endloop
 endfacet
 facet normal  4.717141e-01  0.000000e+00  8.817515e-01
   outer loop
     vertex -7.767907e-01 -1.587302e-02  1.357962e-01
     vertex -8.009201e-01 -1.587302e-02  1.487048e-01
     vertex -8.009201e-01 -2.857143e-01  1.487048e-01
   endloop
 endfacet
 facet normal  3.419816e-01  0.000000e+00  9.397067e-01
   outer loop
     vertex -7.510753e-01 -1.587302e-02  1.264377e-01
     vertex -7.767907e-01 -2.857143e-01  1.357962e-01
     vertex -7.510753e-01 -2.857143e-01  1.264377e-01
   endloop
 endfacet
 facet normal  3.419816e-01  0.000000e+00  9.397067e-01
   outer loop
     vertex -7.510753e-01 -1.587302e-02  1.264377e-01
     vertex -7.767907e-01 -1.587302e-02  1.357962e-01
     vertex -7.767907e-01 -2.857143e-01  1.357962e-01
   endloop
 endfacet
 facet normal  2.053446e-01  0.000000e+00  9.786897e-01
   outer loop
     vertex -7.242931e-01 -1.587302e-02  1.208184e-01
     vertex -7.510753e-01 -2.857143e-01  1.264377e-01
     vertex -7.242931e-01 -2.857143e-01  1.208184e-01
   endloop
 endfacet
 facet normal  2.053446e-01  0.000000e+00  9.786897e-01
   outer loop
     vertex -7.242931e-01 -1.587302e-02  1.208184e-01
     vertex -7.510753e-01 -1.587302e-02  1.264377e-01
     vertex -7.510753e-01 -2.857143e-01  1.264377e-01
   endloop
 endfacet
 facet normal  6.456191e-02  0.000000e+00  9.979137e-01
   outer loop
     vertex -6.969849e-01 -1.587302e-02  1.190517e-01
     vertex -7.242931e-01 -2.857143e-01  1.208184e-01
     vertex -6.969849e-01 -2.857143e-01  1.190517e-01
   endloop
 endfacet
 facet normal  6.456191e-02  0.000000e+00  9.979137e-01
   outer loop
     vertex -6.969849e-01 -1.587302e-02  1.190517e-01
     vertex -7.242931e-01 -1.587302e-02  1.208184e-01
     vertex -7.242931e-01 -2.857143e-01  1.208184e-01
   endloop
 endfacet
 facet normal -7.752426e-02  0.000000e+00  9.969905e-01
   outer loop
     vertex -6.697019e-01 -1.587302e-02  1.211731e-01
     vertex -6.969849e-01 -2.857143e-01  1.190517e-01
     vertex -6.697019e-01 -2.857143e-01  1.211731e-01
   endloop
 endfacet
 facet normal -7.752426e-02  0.000000e+00  9.969905e-01
   outer loop
     vertex -6.697019e-01 -1.587302e-02  1.211731e-01
     vertex -6.969849e-01 -1.587302e-02  1.190517e-01
     vertex -6.969849e-01 -2.857143e-01  1.190517e-01
   endloop
 endfacet
 facet normal -2.180453e-01  0.000000e+00  9.759387e-01
   outer loop
     vertex -6.429951e-01 -1.587302e-02  1.271400e-01
     vertex -6.697019e-01 -2.857143e-01  1.211731e-01
     vertex -6.429951e-01 -2.857143e-01  1.271400e-01
   endloop
 endfacet
 facet normal -2.180453e-01  0.000000e+00  9.759387e-01
   outer loop
     vertex -6.429951e-01 -1.587302e-02  1.271400e-01
     vertex -6.697019e-01 -1.587302e-02  1.211731e-01
     vertex -6.697019e-01 -2.857143e-01  1.211731e-01
   endloop
 endfacet
 facet normal -3.541641e-01  0.000000e+00  9.351833e-01
   outer loop
     vertex -6.174035e-01 -1.587302e-02  1.368318e-01
     vertex -6.429951e-01 -2.857143e-01  1.271400e-01
     vertex -6.174035e-01 -2.857143e-01  1.368318e-01
   endloop
 endfacet
 facet normal -3.541641e-01  0.000000e+00  9.351833e-01
   outer loop
     vertex -6.174035e-01 -1.587302e-02  1.368318e-01
     vertex -6.429951e-01 -1.587302e-02  1.271400e-01
     vertex -6.429951e-01 -2.857143e-01  1.271400e-01
   endloop
 endfacet
 facet normal -4.831326e-01  0.000000e+00  8.755472e-01
   outer loop
     vertex -5.934438e-01 -1.587302e-02  1.500529e-01
     vertex -6.174035e-01 -2.857143e-01  1.368318e-01
     vertex -5.934438e-01 -2.857143e-01  1.500529e-01
   endloop
 endfacet
 facet normal -6.023469e-01  0.000000e+00  7.982344e-01
   outer loop
     vertex -5.934438e-01 -1.587302e-02  1.500529e-01
     vertex -5.934438e-01 -2.857143e-01  1.500529e-01
     vertex -5.715999e-01 -2.857143e-01  1.665363e-01
   endloop
 endfacet
 facet normal -4.831326e-01  0.000000e+00  8.755472e-01
   outer loop
     vertex -5.934438e-01 -1.587302e-02  1.500529e-01
     vertex -6.174035e-01 -1.587302e-02  1.368318e-01
     vertex -6.174035e-01 -2.857143e-01  1.368318e-01
   endloop
 endfacet
 facet normal -7.094003e-01  0.000000e+00  7.048058e-01
   outer loop
     vertex -5.715999e-01 -1.587302e-02  1.665363e-01
     vertex -5.715999e-01 -2.857143e-01  1.665363e-01
     vertex -5.523127e-01 -2.857143e-01  1.859493e-01
   endloop
 endfacet
 facet normal -6.023469e-01  0.000000e+00  7.982344e-01
   outer loop
     vertex -5.715999e-01 -1.587302e-02  1.665363e-01
     vertex -5.934438e-01 -1.587302e-02  1.500529e-01
     vertex -5.715999e-01 -2.857143e-01  1.665363e-01
   endloop
 endfacet
 facet normal -7.094003e-01  0.000000e+00  7.048058e-01
   outer loop
     vertex -5.523127e-01 -1.587302e-02  1.859493e-01
     vertex -5.715999e-01 -1.587302e-02  1.665363e-01
     vertex -5.523127e-01 -2.857143e-01  1.859493e-01
   endloop
 endfacet
 facet normal -8.021314e-01  0.000000e+00  5.971476e-01
   outer loop
     vertex -5.359715e-01 -1.587302e-02  2.078999e-01
     vertex -5.523127e-01 -2.857143e-01  1.859493e-01
     vertex -5.359715e-01 -2.857143e-01  2.078999e-01
   endloop
 endfacet
 facet normal -8.021314e-01  0.000000e+00  5.971476e-01
   outer loop
     vertex -5.359715e-01 -1.587302e-02  2.078999e-01
     vertex -5.523127e-01 -1.587302e-02  1.859493e-01
     vertex -5.523127e-01 -2.857143e-01  1.859493e-01
   endloop
 endfacet
 facet normal -8.786679e-01  0.000000e+00  4.774334e-01
   outer loop
     vertex -5.229064e-01 -1.587302e-02  2.319449e-01
     vertex -5.359715e-01 -2.857143e-01  2.078999e-01
     vertex -5.229064e-01 -2.857143e-01  2.319449e-01
   endloop
 endfacet
 facet normal -8.786679e-01  0.000000e+00  4.774334e-01
   outer loop
     vertex -5.229064e-01 -1.587302e-02  2.319449e-01
     vertex -5.359715e-01 -1.587302e-02  2.078999e-01
     vertex -5.359715e-01 -2.857143e-01  2.078999e-01
   endloop
 endfacet
 facet normal -9.374648e-01  0.000000e+00  3.480802e-01
   outer loop
     vertex -5.133811e-01 -1.587302e-02  2.575989e-01
     vertex -5.229064e-01 -2.857143e-01  2.319449e-01
     vertex -5.133811e-01 -2.857143e-01  2.575989e-01
   endloop
 endfacet
 facet normal -9.773348e-01  0.000000e+00  2.116994e-01
   outer loop
     vertex -5.133811e-01 -1.587302e-02  2.575989e-01
     vertex -5.133811e-01 -2.857143e-01  2.575989e-01
     vertex -5.075878e-01 -2.857143e-01  2.843440e-01
   endloop
 endfacet
 facet normal -9.374648e-01  0.000000e+00  3.480802e-01
   outer loop
     vertex -5.133811e-01 -1.587302e-02  2.575989e-01
     vertex -5.229064e-01 -1.587302e-02  2.319449e-01
     vertex -5.229064e-01 -2.857143e-01  2.319449e-01
   endloop
 endfacet
 facet normal -9.773348e-01  0.000000e+00  2.116994e-01
   outer loop
     vertex -5.075878e-01 -1.587302e-02  2.843440e-01
     vertex -5.133811e-01 -1.587302e-02  2.575989e-01
     vertex -5.075878e-01 -2.857143e-01  2.843440e-01
   endloop
 endfacet
 facet normal -9.974731e-01  0.000000e+00  7.104459e-02
   outer loop
     vertex -5.056437e-01 -1.587302e-02  3.116402e-01
     vertex -5.075878e-01 -1.587302e-02  2.843440e-01
     vertex -5.075878e-01 -2.857143e-01  2.843440e-01
   endloop
 endfacet
 facet normal -9.974731e-01  0.000000e+00  7.104459e-02
   outer loop
     vertex -5.056437e-01 -1.587302e-02  3.116402e-01
     vertex -5.075878e-01 -2.857143e-01  2.843440e-01
     vertex -5.056437e-01 -2.857143e-01  3.116402e-01
   endloop
 endfacet
 facet normal  1.218060e-14  0.000000e+00  1.000000e+00
   outer loop
     vertex -9.733686e-01 -1.587302e-02  1.649030e-01
     vertex -8.229764e-01 -1.587302e-02  1.649030e-01
     vertex -8.229764e-01  0.000000e+00  1.649030e-01
   endloop
 endfacet
 facet normal  1.218060e-14 -0.000000e+00  1.000000e+00
   outer loop
     vertex -9.733686e-01 -1.587302e-02  1.649030e-01
     vertex -8.229764e-01  0.000000e+00  1.649030e-01
     vertex -9.733686e-01  0.000000e+00  1.649030e-01
   endloop
 endfacet
 facet normal  1.000000e+00  0.000000e+00  0.000000e+00
   outer loop
     vertex -1.957667e-02 -1.587302e-02  5.867725e-01
     vertex -1.957667e-02 -2.857143e-01 -3.686073e-02
     vertex -1.957667e-02 -1.587302e-02 -3.686073e-02
   endloop
 endfacet
 facet normal  1.000000e+00  0.000000e+00  0.000000e+00
   outer loop
     vertex -1.957667e-02 -1.587302e-02  5.867725e-01
     vertex -1.957667e-02 -2.857143e-01  5.867725e-01
     vertex -1.957667e-02 -2.857143e-01 -3.686073e-02
   endloop
 endfacet
 facet normal  0.000000e+00  0.000000e+00 -1.000000e+00
   outer loop
     vertex -1.957667e-02 -1.587302e-02 -3.686073e-02
     vertex -9.733686e-01 -1.587302e-02 -3.686073e-02
     vertex -9.733686e-01  0.000000e+00 -3.686073e-02
   endloop
 endfacet
 facet normal  0.000000e+00  0.000000e+00 -1.000000e+00
   outer loop
     vertex -1.957667e-02 -1.587302e-02 -3.686073e-02
     vertex -9.733686e-01  0.000000e+00 -3.686073e-02
     vertex -1.957667e-02  0.000000e+00 -3.686073e-02
   endloop
 endfacet
 facet normal  0.000000e+00  1.000000e+00  0.000000e+00
   outer loop
     vertex -8.229764e-01  1.040834e-17  1.649030e-01
     vertex -9.733686e-01  1.040834e-17 -3.686073e-02
     vertex -9.733686e-01  1.040834e-17  1.649030e-01
   endloop
 endfacet
 facet normal  0.000000e+00  1.000000e+00  0.000000e+00
   outer loop
     vertex -8.009201e-01  1.040834e-17  1.487048e-01
     vertex -9.733686e-01  1.040834e-17 -3.686073e-02
     vertex -8.229764e-01  1.040834e-17  1.649030e-01
   endloop
 endfacet
 facet normal  0.000000e+00  1.000000e+00  0.000000e+00
   outer loop
     vertex -7.767907e-01  1.040834e-17  1.357962e-01
     vertex -9.733686e-01  1.040834e-17 -3.686073e-02
     vertex -8.009201e-01  1.040834e-17  1.487048e-01
   endloop
 endfacet
 facet normal  0.000000e+00  1.000000e+00  0.000000e+00
   outer loop
     vertex -7.510753e-01  1.040834e-17  1.264377e-01
     vertex -9.733686e-01  1.040834e-17 -3.686073e-02
     vertex -7.767907e-01  1.040834e-17  1.357962e-01
   endloop
 endfacet
 facet normal  0.000000e+00  1.000000e+00  0.000000e+00
   outer loop
     vertex -7.242931e-01  1.040834e-17  1.208184e-01
     vertex -9.733686e-01  1.040834e-17 -3.686073e-02
     vertex -7.510753e-01  1.040834e-17  1.264377e-01
   endloop
 endfacet
 facet normal  0.000000e+00  1.000000e+00  0.000000e+00
   outer loop
     vertex -6.969849e-01  1.040834e-17  1.190517e-01
     vertex -9.733686e-01  1.040834e-17 -3.686073e-02
     vertex -7.242931e-01  1.040834e-17  1.208184e-01
   endloop
 endfacet
 facet normal  0.000000e+00  1.000000e+00  0.000000e+00
   outer loop
     vertex -6.697019e-01  1.040834e-17  1.211731e-01
     vertex -9.733686e-01  1.040834e-17 -3.686073e-02
     vertex -6.969849e-01  1.040834e-17  1.190517e-01
   endloop
 endfacet
 facet normal  0.000000e+00  1.000000e+00  0.000000e+00
   outer loop
     vertex -6.429951e-01  1.040834e-17  1.271400e-01
     vertex -9.733686e-01  1.040834e-17 -3.686073e-02
     vertex -6.697019e-01  1.040834e-17  1.211731e-01
   endloop
 endfacet
 facet normal  0.000000e+00  1.000000e+00  0.000000e+00
   outer loop
     vertex -5.171775e-01  1.040834e-17  4.019640e-01
     vertex -5.180304e-01  1.040834e-17  3.795943e-01
     vertex -5.274792e-01  1.040834e-17  4.007127e-01
   endloop
 endfacet
 facet normal  0.000000e+00  1.000000e+00  0.000000e+00
   outer loop
     vertex -5.068376e-01  1.040834e-17  4.028438e-01
     vertex -5.180304e-01  1.040834e-17  3.795943e-01
     vertex -5.171775e-01  1.040834e-17  4.019640e-01
   endloop
 endfacet
 facet normal  0.000000e+00  1.000000e+00  0.000000e+00
   outer loop
     vertex -4.964726e-01  1.040834e-17  4.033509e-01
     vertex -5.056437e-01  1.040834e-17  3.116402e-01
     vertex -5.070333e-01  1.040834e-17  3.347343e-01
   endloop
 endfacet
 facet normal  0.000000e+00  1.000000e+00  0.000000e+00
   outer loop
     vertex -4.964726e-01  1.040834e-17  4.033509e-01
     vertex -5.070333e-01  1.040834e-17  3.347343e-01
     vertex -5.111822e-01  1.040834e-17  3.574951e-01
   endloop
 endfacet
 facet normal  0.000000e+00  1.000000e+00  0.000000e+00
   outer loop
     vertex -4.964726e-01  1.040834e-17  4.033509e-01
     vertex -5.111822e-01  1.040834e-17  3.574951e-01
     vertex -5.180304e-01  1.040834e-17  3.795943e-01
   endloop
 endfacet
 facet normal  0.000000e+00  1.000000e+00  0.000000e+00
   outer loop
     vertex -4.964726e-01  1.040834e-17  4.033509e-01
     vertex -5.180304e-01  1.040834e-17  3.795943e-01
     vertex -5.068376e-01  1.040834e-17  4.028438e-01
   endloop
 endfacet
 facet normal  0.000000e+00  1.000000e+00  0.000000e+00
   outer loop
     vertex -1.957667e-02  1.040834e-17 -3.686073e-02
     vertex -6.429951e-01  1.040834e-17  1.271400e-01
     vertex -6.174035e-01  1.040834e-17  1.368318e-01
   endloop
 endfacet
 facet normal  0.000000e+00  1.000000e+00  0.000000e+00
   outer loop
     vertex -1.957667e-02  1.040834e-17 -3.686073e-02
     vertex -6.174035e-01  1.040834e-17  1.368318e-01
     vertex -5.934438e-01  1.040834e-17  1.500529e-01
   endloop
 endfacet
 facet normal  0.000000e+00  1.000000e+00  0.000000e+00
   outer loop
     vertex -1.957667e-02  1.040834e-17 -3.686073e-02
     vertex -5.934438e-01  1.040834e-17  1.500529e-01
     vertex -5.715999e-01  1.040834e-17  1.665363e-01
   endloop
 endfacet
 facet normal  0.000000e+00  1.000000e+00  0.000000e+00
   outer loop
     vertex -1.957667e-02  1.040834e-17 -3.686073e-02
     vertex -5.715999e-01  1.040834e-17  1.665363e-01
     vertex -5.523127e-01  1.040834e-17  1.859493e-01
   endloop
 endfacet
 facet normal  0.000000e+00  1.000000e+00  0.000000e+00
   outer loop
     vertex -1.957667e-02  1.040834e-17 -3.686073e-02
     vertex -5.523127e-01  1.040834e-17  1.859493e-01
     vertex -5.359715e-01  1.040834e-17  2.078999e-01
   endloop
 endfacet
 facet normal  0.000000e+00  1.000000e+00  0.000000e+00
   outer loop
     vertex -1.957667e-02  1.040834e-17 -3.686073e-02
     vertex -5.359715e-01  1.040834e-17  2.078999e-01
     vertex -5.229064e-01  1.040834e-17  2.319449e-01
   endloop
 endfacet
 facet normal  0.000000e+00  1.000000e+00  0.000000e+00
   outer loop
     vertex -1.957667e-02  1.040834e-17 -3.686073e-02
     vertex -5.229064e-01  1.040834e-17  2.319449e-01
     vertex -5.133811e-01  1.040834e-17  2.575989e-01
   endloop
 endfacet
 facet normal  0.000000e+00  1.000000e+00  0.000000e+00
   outer loop
     vertex -1.957667e-02  1.040834e-17 -3.686073e-02
     vertex -5.133811e-01  1.040834e-17  2.575989e-01
     vertex -5.075878e-01  1.040834e-17  2.843440e-01
   endloop
 endfacet
 facet normal  0.000000e+00  1.000000e+00  0.000000e+00
   outer loop
     vertex -1.957667e-02  1.040834e-17 -3.686073e-02
     vertex -5.075878e-01  1.040834e-17  2.843440e-01
     vertex -5.056437e-01  1.040834e-17  3.116402e-01
   endloop
 endfacet
 facet normal  0.000000e+00  1.000000e+00  0.000000e+00
   outer loop
     vertex -1.957667e-02  1.040834e-17 -3.686073e-02
     vertex -9.733686e-01  1.040834e-17 -3.686073e-02
     vertex -6.429951e-01  1.040834e-17  1.271400e-01
   endloop
 endfacet
 facet normal  0.000000e+00  1.000000e+00  0.000000e+00
   outer loop
     vertex -1.957667e-02  1.040834e-17  5.867725e-01
     vertex -4.964726e-01  1.040834e-17  4.033509e-01
     vertex -4.964726e-01  1.040834e-17  5.867725e-01
   endloop
 endfacet
 facet normal  0.000000e+00  1.000000e+00  0.000000e+00
   outer loop
     vertex -1.957667e-02  1.040834e-17  5.867725e-01
     vertex -1.957667e-02  1.040834e-17 -3.686073e-02
     vertex -5.056437e-01  1.040834e-17  3.116402e-01
   endloop
 endfacet
 facet normal  0.000000e+00  1.000000e+00  0.000000e+00
   outer loop
     vertex -1.957667e-02  1.040834e-17  5.867725e-01
     vertex -5.056437e-01  1.040834e-17  3.116402e-01
     vertex -4.964726e-01  1.040834e-17  4.033509e-01
   endloop
 endfacet
 facet normal -9.981945e-01  0.000000e+00 -6.006430e-02
   outer loop
     vertex -5.070333e-01 -1.587302e-02  3.347343e-01
     vertex -5.056437e-01 -1.587302e-02  3.116402e-01
     vertex -5.056437e-01 -2.857143e-01  3.116402e-01
   endloop
 endfacet
 facet normal -9.981945e-01 -0.000000e+00 -6.006430e-02
   outer loop
     vertex -5.070333e-01 -1.587302e-02  3.347343e-01
     vertex -5.056437e-01 -2.857143e-01  3.116402e-01
     vertex -5.070333e-01 -2.857143e-01  3.347343e-01
   endloop
 endfacet
 facet normal -9.837897e-01 -0.000000e+00 -1.793261e-01
   outer loop
     vertex -5.111822e-01 -1.587302e-02  3.574951e-01
     vertex -5.070333e-01 -2.857143e-01  3.347343e-01
     vertex -5.111822e-01 -2.857143e-01  3.574951e-01
   endloop
 endfacet
 facet normal -9.837897e-01  0.000000e+00 -1.793261e-01
   outer loop
     vertex -5.111822e-01 -1.587302e-02  3.574951e-01
     vertex -5.070333e-01 -1.587302e-02  3.347343e-01
     vertex -5.070333e-01 -2.857143e-01  3.347343e-01
   endloop
 endfacet
 facet normal -9.551879e-01 -0.000000e+00 -2.960001e-01
   outer loop
     vertex -5.180304e-01 -1.587302e-02  3.795943e-01
     vertex -5.111822e-01 -2.857143e-01  3.574951e-01
     vertex -5.180304e-01 -2.857143e-01  3.795943e-01
   endloop
 endfacet
 facet normal -9.551879e-01  0.000000e+00 -2.960001e-01
   outer loop
     vertex -5.180304e-01 -1.587302e-02  3.795943e-01
     vertex -5.111822e-01 -1.587302e-02  3.574951e-01
     vertex -5.111822e-01 -2.857143e-01  3.574951e-01
   endloop
 endfacet
 facet normal -9.128019e-01 -0.000000e+00 -4.084026e-01
   outer loop
     vertex -5.274792e-01 -1.587302e-02  4.007127e-01
     vertex -5.180304e-01 -2.857143e-01  3.795943e-01
     vertex -5.274792e-01 -2.857143e-01  4.007127e-01
   endloop
 endfacet
 facet normal -9.128019e-01  0.000000e+00 -4.084026e-01
   outer loop
     vertex -5.274792e-01 -1.587302e-02  4.007127e-01
     vertex -5.180304e-01 -1.587302e-02  3.795943e-01
     vertex -5.180304e-01 -2.857143e-01  3.795943e-01
   endloop
 endfacet
 facet normal -4.887371e-02  0.000000e+00  9.988050e-01
   outer loop
     vertex -5.068376e-01 -1.587302e-02  4.028438e-01
     vertex -4.964726e-01 -2.857143e-01  4.033509e-01
     vertex -4.964726e-01 -1.587302e-02  4.033509e-01
   endloop
 endfacet
 facet normal -4.887371e-02  0.000000e+00  9.988050e-01
   outer loop
     vertex -5.068376e-01 -1.587302e-02  4.028438e-01
     vertex -5.068376e-01 -2.857143e-01  4.028438e-01
     vertex -4.964726e-01 -2.857143e-01  4.033509e-01
   endloop
 endfacet
 facet normal -8.477926e-02  0.000000e+00  9.963998e-01
   outer loop
     vertex -5.171775e-01 -1.587302e-02  4.019640e-01
     vertex -5.171775e-01 -2.857143e-01  4.019640e-01
     vertex -5.068376e-01 -2.857143e-01  4.028438e-01
   endloop
 endfacet
 facet normal -8.477926e-02  0.000000e+00  9.963998e-01
   outer loop
     vertex -5.171775e-01 -1.587302e-02  4.019640e-01
     vertex -5.068376e-01 -2.857143e-01  4.028438e-01
     vertex -5.068376e-01 -1.587302e-02  4.028438e-01
   endloop
 endfacet
 facet normal -1.205750e-01  0.000000e+00  9.927042e-01
   outer loop
     vertex -5.274792e-01 -1.587302e-02  4.007127e-01
     vertex -5.274792e-01 -2.857143e-01  4.007127e-01
     vertex -5.171775e-01 -2.857143e-01  4.019640e-01
   endloop
 endfacet
 facet normal -1.205750e-01  0.000000e+00  9.927042e-01
   outer loop
     vertex -5.274792e-01 -1.587302e-02  4.007127e-01
     vertex -5.171775e-01 -2.857143e-01  4.019640e-01
     vertex -5.171775e-01 -1.587302e-02  4.019640e-01
   endloop
 endfacet
 facet normal -1.000000e+00  0.000000e+00  0.000000e+00
   outer loop
     vertex -4.964726e-01 -1.587302e-02  4.033509e-01
     vertex -4.964726e-01 -2.857143e-01  5.867725e-01
     vertex -4.964726e-01 -1.587302e-02  5.867725e-01
   endloop
 endfacet
 facet normal -1.000000e+00  0.000000e+00  0.000000e+00
   outer loop
     vertex -4.964726e-01 -1.587302e-02  4.033509e-01
     vertex -4.964726e-01 -2.857143e-01  4.033509e-01
     vertex -4.964726e-01 -2.857143e-01  5.867725e-01
   endloop
 endfacet
 facet normal -0.000000e+00  0.000000e+00  1.000000e+00
   outer loop
     vertex -4.964726e-01 -1.587302e-02  5.867725e-01
     vertex -1.957667e-02 -2.857143e-01  5.867725e-01
     vertex -1.957667e-02 -1.587302e-02  5.867725e-01
   endloop
 endfacet
 facet normal  0.000000e+00  0.000000e+00  1.000000e+00
   outer loop
     vertex -4.964726e-01 -1.587302e-02  5.867725e-01
     vertex -4.964726e-01 -2.857143e-01  5.867725e-01
     vertex -1.957667e-02 -2.857143e-01  5.867725e-01
   endloop
 endfacet
 facet normal  5.919231e-01  0.000000e+00  8.059945e-01
   outer loop
     vertex -8.009201e-01 -1.587302e-02  1.487048e-01
     vertex -8.229764e-01  0.000000e+00  1.649030e-01
     vertex -8.229764e-01 -1.587302e-02  1.649030e-01
   endloop
 endfacet
 facet normal  5.919231e-01 -0.000000e+00  8.059945e-01
   outer loop
     vertex -8.009201e-01 -1.587302e-02  1.487048e-01
     vertex -8.009201e-01  0.000000e+00  1.487048e-01
     vertex -8.229764e-01  0.000000e+00  1.649030e-01
   endloop
 endfacet
 facet normal  4.717141e-01 -0.000000e+00  8.817515e-01
   outer loop
     vertex -7.767907e-01 -1.587302e-02  1.357962e-01
     vertex -7.767907e-01  0.000000e+00  1.357962e-01
     vertex -8.009201e-01  0.000000e+00  1.487048e-01
   endloop
 endfacet
 facet normal  4.717141e-01  0.000000e+00  8.817515e-01
   outer loop
     vertex -7.767907e-01 -1.587302e-02  1.357962e-01
     vertex -8.009201e-01  0.000000e+00  1.487048e-01
     vertex -8.009201e-01 -1.587302e-02  1.487048e-01
   endloop
 endfacet
 facet normal  3.419816e-01 -0.000000e+00  9.397067e-01
   outer loop
     vertex -7.510753e-01 -1.587302e-02  1.264377e-01
     vertex -7.510753e-01  0.000000e+00  1.264377e-01
     vertex -7.767907e-01  0.000000e+00  1.357962e-01
   endloop
 endfacet
 facet normal  3.419816e-01  0.000000e+00  9.397067e-01
   outer loop
     vertex -7.510753e-01 -1.587302e-02  1.264377e-01
     vertex -7.767907e-01  0.000000e+00  1.357962e-01
     vertex -7.767907e-01 -1.587302e-02  1.357962e-01
   endloop
 endfacet
 facet normal  2.053446e-01 -0.000000e+00  9.786897e-01
   outer loop
     vertex -7.242931e-01 -1.587302e-02  1.208184e-01
     vertex -7.242931e-01  0.000000e+00  1.208184e-01
     vertex -7.510753e-01  0.000000e+00  1.264377e-01
   endloop
 endfacet
 facet normal  2.053446e-01  0.000000e+00  9.786897e-01
   outer loop
     vertex -7.242931e-01 -1.587302e-02  1.208184e-01
     vertex -7.510753e-01  0.000000e+00  1.264377e-01
     vertex -7.510753e-01 -1.587302e-02  1.264377e-01
   endloop
 endfacet
 facet normal  6.456191e-02 -0.000000e+00  9.979137e-01
   outer loop
     vertex -6.969849e-01 -1.587302e-02  1.190517e-01
     vertex -6.969849e-01  0.000000e+00  1.190517e-01
     vertex -7.242931e-01  0.000000e+00  1.208184e-01
   endloop
 endfacet
 facet normal  6.456191e-02  0.000000e+00  9.979137e-01
   outer loop
     vertex -6.969849e-01 -1.587302e-02  1.190517e-01
     vertex -7.242931e-01  0.000000e+00  1.208184e-01
     vertex -7.242931e-01 -1.587302e-02  1.208184e-01
   endloop
 endfacet
 facet normal -7.752426e-02  0.000000e+00  9.969905e-01
   outer loop
     vertex -6.697019e-01 -1.587302e-02  1.211731e-01
     vertex -6.697019e-01  0.000000e+00  1.211731e-01
     vertex -6.969849e-01  0.000000e+00  1.190517e-01
   endloop
 endfacet
 facet normal -7.752426e-02  0.000000e+00  9.969905e-01
   outer loop
     vertex -6.697019e-01 -1.587302e-02  1.211731e-01
     vertex -6.969849e-01  0.000000e+00  1.190517e-01
     vertex -6.969849e-01 -1.587302e-02  1.190517e-01
   endloop
 endfacet
 facet normal -2.180453e-01  0.000000e+00  9.759387e-01
   outer loop
     vertex -6.429951e-01 -1.587302e-02  1.271400e-01
     vertex -6.429951e-01  0.000000e+00  1.271400e-01
     vertex -6.697019e-01  0.000000e+00  1.211731e-01
   endloop
 endfacet
 facet normal -2.180453e-01  0.000000e+00  9.759387e-01
   outer loop
     vertex -6.429951e-01 -1.587302e-02  1.271400e-01
     vertex -6.697019e-01  0.000000e+00  1.211731e-01
     vertex -6.697019e-01 -1.587302e-02  1.211731e-01
   endloop
 endfacet
 facet normal -3.541641e-01  0.000000e+00  9.351833e-01
   outer loop
     vertex -6.174035e-01 -1.587302e-02  1.368318e-01
     vertex -6.174035e-01  0.000000e+00  1.368318e-01
     vertex -6.429951e-01  0.000000e+00  1.271400e-01
   endloop
 endfacet
 facet normal -3.541641e-01  0.000000e+00  9.351833e-01
   outer loop
     vertex -6.174035e-01 -1.587302e-02  1.368318e-01
     vertex -6.429951e-01  0.000000e+00  1.271400e-01
     vertex -6.429951e-01 -1.587302e-02  1.271400e-01
   endloop
 endfacet
 facet normal -4.831326e-01  0.000000e+00  8.755472e-01
   outer loop
     vertex -5.934438e-01 -1.587302e-02  1.500529e-01
     vertex -5.934438e-01  0.000000e+00  1.500529e-01
     vertex -6.174035e-01  0.000000e+00  1.368318e-01
   endloop
 endfacet
 facet normal -4.831326e-01  0.000000e+00  8.755472e-01
   outer loop
     vertex -5.934438e-01 -1.587302e-02  1.500529e-01
     vertex -6.174035e-01  0.000000e+00  1.368318e-01
     vertex -6.174035e-01 -1.587302e-02  1.368318e-01
   endloop
 endfacet
 facet normal -6.023469e-01  0.000000e+00  7.982344e-01
   outer loop
     vertex -5.715999e-01 -1.587302e-02  1.665363e-01
     vertex -5.715999e-01  0.000000e+00  1.665363e-01
     vertex -5.934438e-01  0.000000e+00  1.500529e-01
   endloop
 endfacet
 facet normal -6.023469e-01  0.000000e+00  7.982344e-01
   outer loop
     vertex -5.715999e-01 -1.587302e-02  1.665363e-01
     vertex -5.934438e-01  0.000000e+00  1.500529e-01
     vertex -5.934438e-01 -1.587302e-02  1.500529e-01
   endloop
 endfacet
 facet normal -7.094003e-01  0.000000e+00  7.048058e-01
   outer loop
     vertex -5.523127e-01 -1.587302e-02  1.859493e-01
     vertex -5.523127e-01  0.000000e+00  1.859493e-01
     vertex -5.715999e-01  0.000000e+00  1.665363e-01
   endloop
 endfacet
 facet normal -7.094003e-01  0.000000e+00  7.048058e-01
   outer loop
     vertex -5.523127e-01 -1.587302e-02  1.859493e-01
     vertex -5.715999e-01  0.000000e+00  1.665363e-01
     vertex -5.715999e-01 -1.587302e-02  1.665363e-01
   endloop
 endfacet
 facet normal -8.021314e-01  0.000000e+00  5.971476e-01
   outer loop
     vertex -5.359715e-01 -1.587302e-02  2.078999e-01
     vertex -5.359715e-01  0.000000e+00  2.078999e-01
     vertex -5.523127e-01  0.000000e+00  1.859493e-01
   endloop
 endfacet
 facet normal -8.021314e-01  0.000000e+00  5.971476e-01
   outer loop
     vertex -5.359715e-01 -1.587302e-02  2.078999e-01
     vertex -5.523127e-01  0.000000e+00  1.859493e-01
     vertex -5.523127e-01 -1.587302e-02  1.859493e-01
   endloop
 endfacet
 facet normal -8.786679e-01  0.000000e+00  4.774334e-01
   outer loop
     vertex -5.229064e-01 -1.587302e-02  2.319449e-01
     vertex -5.229064e-01  0.000000e+00  2.319449e-01
     vertex -5.359715e-01  0.000000e+00  2.078999e-01
   endloop
 endfacet
 facet normal -8.786679e-01  0.000000e+00  4.774334e-01
   outer loop
     vertex -5.229064e-01 -1.587302e-02  2.319449e-01
     vertex -5.359715e-01  0.000000e+00  2.078999e-01
     vertex -5.359715e-01 -1.587302e-02  2.078999e-01
   endloop
 endfacet
 facet normal -9.374648e-01  0.000000e+00  3.480802e-01
   outer loop
     vertex -5.133811e-01 -1.587302e-02  2.575989e-01
     vertex -5.133811e-01  0.000000e+00  2.575989e-01
     vertex -5.229064e-01  0.000000e+00  2.319449e-01
   endloop
 endfacet
 facet normal -9.374648e-01  0.000000e+00  3.480802e-01
   outer loop
     vertex -5.133811e-01 -1.587302e-02  2.575989e-01
     vertex -5.229064e-01  0.000000e+00  2.319449e-01
     vertex -5.229064e-01 -1.587302e-02  2.319449e-01
   endloop
 endfacet
 facet normal -9.773348e-01  0.000000e+00  2.116994e-01
   outer loop
     vertex -5.075878e-01 -1.587302e-02  2.843440e-01
     vertex -5.075878e-01  0.000000e+00  2.843440e-01
     vertex -5.133811e-01  0.000000e+00  2.575989e-01
   endloop
 endfacet
 facet normal -9.773348e-01  0.000000e+00  2.116994e-01
   outer loop
     vertex -5.075878e-01 -1.587302e-02  2.843440e-01
     vertex -5.133811e-01  0.000000e+00  2.575989e-01
     vertex -5.133811e-01 -1.587302e-02  2.575989e-01
   endloop
 endfacet
 facet normal -9.974731e-01  0.000000e+00  7.104459e-02
   outer loop
     vertex -5.056437e-01 -1.587302e-02  3.116402e-01
     vertex -5.075878e-01  0.000000e+00  2.843440e-01
     vertex -5.075878e-01 -1.587302e-02  2.843440e-01
   endloop
 endfacet
 facet normal -9.974731e-01  0.000000e+00  7.104459e-02
   outer loop
     vertex -5.056437e-01 -1.587302e-02  3.116402e-01
     vertex -5.056437e-01  0.000000e+00  3.116402e-01
     vertex -5.075878e-01  0.000000e+00  2.843440e-01
   endloop
 endfacet
 facet normal  1.000000e+00  0.000000e+00  0.000000e+00
   outer loop
     vertex -1.957667e-02 -1.587302e-02  5.867725e-01
     vertex -1.957667e-02 -1.587302e-02 -3.686073e-02
     vertex -1.957667e-02  0.000000e+00 -3.686073e-02
   endloop
 endfacet
 facet normal  1.000000e+00 -0.000000e+00  0.000000e+00
   outer loop
     vertex -1.957667e-02 -1.587302e-02  5.867725e-01
     vertex -1.957667e-02  0.000000e+00 -3.686073e-02
     vertex -1.957667e-02  0.000000e+00  5.867725e-01
   endloop
 endfacet
 facet normal -9.981945e-01  0.000000e+00 -6.006430e-02
   outer loop
     vertex -5.070333e-01 -1.587302e-02  3.347343e-01
     vertex -5.056437e-01  0.000000e+00  3.116402e-01
     vertex -5.056437e-01 -1.587302e-02  3.116402e-01
   endloop
 endfacet
 facet normal -9.981945e-01  0.000000e+00 -6.006430e-02
   outer loop
     vertex -5.070333e-01 -1.587302e-02  3.347343e-01
     vertex -5.070333e-01  0.000000e+00  3.347343e-01
     vertex -5.056437e-01  0.000000e+00  3.116402e-01
   endloop
 endfacet
 facet normal -9.837897e-01  0.000000e+00 -1.793261e-01
   outer loop
     vertex -5.111822e-01 -1.587302e-02  3.574951e-01
     vertex -5.111822e-01  0.000000e+00  3.574951e-01
     vertex -5.070333e-01  0.000000e+00  3.347343e-01
   endloop
 endfacet
 facet normal -9.837897e-01  0.000000e+00 -1.793261e-01
   outer loop
     vertex -5.111822e-01 -1.587302e-02  3.574951e-01
     vertex -5.070333e-01  0.000000e+00  3.347343e-01
     vertex -5.070333e-01 -1.587302e-02  3.347343e-01
   endloop
 endfacet
 facet normal -9.551879e-01  0.000000e+00 -2.960001e-01
   outer loop
     vertex -5.180304e-01 -1.587302e-02  3.795943e-01
     vertex -5.180304e-01  0.000000e+00  3.795943e-01
     vertex -5.111822e-01  0.000000e+00  3.574951e-01
   endloop
 endfacet
 facet normal -9.551879e-01  0.000000e+00 -2.960001e-01
   outer loop
     vertex -5.180304e-01 -1.587302e-02  3.795943e-01
     vertex -5.111822e-01  0.000000e+00  3.574951e-01
     vertex -5.111822e-01 -1.587302e-02  3.574951e-01
   endloop
 endfacet
 facet normal -9.128019e-01  0.000000e+00 -4.084026e-01
   outer loop
     vertex -5.274792e-01 -1.587302e-02  4.007127e-01
     vertex -5.274792e-01  0.000000e+00  4.007127e-01
     vertex -5.180304e-01  0.000000e+00  3.795943e-01
   endloop
 endfacet
 facet normal -9.128019e-01  0.000000e+00 -4.084026e-01
   outer loop
     vertex -5.274792e-01 -1.587302e-02  4.007127e-01
     vertex -5.180304e-01  0.000000e+00  3.795943e-01
     vertex -5.180304e-01 -1.587302e-02  3.795943e-01
   endloop
 endfacet
 facet normal -4.887371e-02  0.000000e+00  9.988050e-01
   outer loop
     vertex -5.068376e-01 -1.587302e-02  4.028438e-01
     vertex -4.964726e-01 -1.587302e-02  4.033509e-01
     vertex -4.964726e-01  0.000000e+00  4.033509e-01
   endloop
 endfacet
 facet normal -4.887371e-02  0.000000e+00  9.988050e-01
   outer loop
     vertex -5.068376e-01 -1.587302e-02  4.028438e-01
     vertex -4.964726e-01  0.000000e+00  4.033509e-01
     vertex -5.068376e-01  0.000000e+00  4.028438e-01
   endloop
 endfacet
 facet normal -8.477926e-02  0.000000e+00  9.963998e-01
   outer loop
     vertex -5.171775e-01 -1.587302e-02  4.019640e-01
     vertex -5.068376e-01  0.000000e+00  4.028438e-01
     vertex -5.171775e-01  0.000000e+00  4.019640e-01
   endloop
 endfacet
 facet normal -8.477926e-02  0.000000e+00  9.963998e-01
   outer loop
     vertex -5.171775e-01 -1.587302e-02  4.019640e-01
     vertex -5.068376e-01 -1.587302e-02  4.028438e-01
     vertex -5.068376e-01  0.000000e+00  4.028438e-01
   endloop
 endfacet
 facet normal -1.205750e-01  0.000000e+00  9.927042e-01
   outer loop
     vertex -5.274792e-01 -1.587302e-02  4.007127e-01
     vertex -5.171775e-01  0.000000e+00  4.019640e-01
     vertex -5.274792e-01  0.000000e+00  4.007127e-01
   endloop
 endfacet
 facet normal -1.205750e-01  0.000000e+00  9.927042e-01
   outer loop
     vertex -5.274792e-01 -1.587302e-02  4.007127e-01
     vertex -5.171775e-01 -1.587302e-02  4.019640e-01
     vertex -5.171775e-01  0.000000e+00  4.019640e-01
   endloop
 endfacet
 facet normal -1.000000e+00  0.000000e+00  0.000000e+00
   outer loop
     vertex -4.964726e-01 -1.587302e-02  4.033509e-01
     vertex -4.964726e-01 -1.587302e-02  5.867725e-01
     vertex -4.964726e-01  0.000000e+00  5.867725e-01
   endloop
 endfacet
 facet normal -1.000000e+00  0.000000e+00  0.000000e+00
   outer loop
     vertex -4.964726e-01 -1.587302e-02  4.033509e-01
     vertex -4.964726e-01  0.000000e+00  5.867725e-01
     vertex -4.964726e-01  0.000000e+00  4.033509e-01
   endloop
 endfacet
 facet normal  0.000000e+00  0.000000e+00  1.000000e+00
   outer loop
     vertex -4.964726e-01 -1.587302e-02  5.867725e-01
     vertex -1.957667e-02 -1.587302e-02  5.867725e-01
     vertex -1.957667e-02  0.000000e+00  5.867725e-01
   endloop
 endfacet
 facet normal  0.000000e+00  0.000000e+00  1.000000e+00
   outer loop
     vertex -4.964726e-01 -1.587302e-02  5.867725e-01
     vertex -1.957667e-02  0.000000e+00  5.867725e-01
     vertex -4.964726e-01  0.000000e+00  5.867725e-01
   endloop
 endfacet
endsolid
