solid 
 facet normal -0.000000e+00  0.000000e+00 -1.000000e+00
   outer loop
     vertex  9.271606e-01 -1.587302e-02 -4.033509e-01
     vertex -1.019929e+00 -5.714286e-01 -4.033509e-01
     vertex -1.019929e+00 -1.587302e-02 -4.033509e-01
   endloop
 endfacet
 facet normal  0.000000e+00 -0.000000e+00 -1.000000e+00
   outer loop
     vertex  9.271606e-01 -1.587302e-02 -4.033509e-01
     vertex  9.271606e-01 -5.714286e-01 -4.033509e-01
     vertex -1.019929e+00 -5.714286e-01 -4.033509e-01
   endloop
 endfacet
 facet normal -1.000000e+00  0.000000e+00  0.000000e+00
   outer loop
     vertex -1.019929e+00 -1.587302e-02 -4.033509e-01
     vertex -1.019929e+00 -5.714286e-01  3.105821e-01
     vertex -1.019929e+00 -1.587302e-02  3.105821e-01
   endloop
 endfacet
 facet normal -1.000000e+00  0.000000e+00  0.000000e+00
   outer loop
     vertex -1.019929e+00 -1.587302e-02 -4.033509e-01
     vertex -1.019929e+00 -5.714286e-01 -4.033509e-01
     vertex -1.019929e+00 -5.714286e-01  3.105821e-01
   endloop
 endfacet
 facet normal  1.000000e+00  0.000000e+00  0.000000e+00
   outer loop
     vertex  9.271606e-01 -1.587302e-02  3.105821e-01
     vertex  9.271606e-01 -5.714286e-01 -4.033509e-01
     vertex  9.271606e-01 -1.587302e-02 -4.033509e-01
   endloop
 endfacet
 facet normal  1.000000e+00  0.000000e+00  0.000000e+00
   outer loop
     vertex  9.271606e-01 -1.587302e-02  3.105821e-01
     vertex  9.271606e-01 -5.714286e-01  3.105821e-01
     vertex  9.271606e-01 -5.714286e-01 -4.033509e-01
   endloop
 endfacet
 facet normal  0.000000e+00  0.000000e+00 -1.000000e+00
   outer loop
     vertex  9.271606e-01 -1.587302e-02 -4.033509e-01
     vertex -1.019929e+00 -1.587302e-02 -4.033509e-01
     vertex -1.019929e+00  0.000000e+00 -4.033509e-01
   endloop
 endfacet
 facet normal  0.000000e+00  0.000000e+00 -1.000000e+00
   outer loop
     vertex  9.271606e-01 -1.587302e-02 -4.033509e-01
     vertex -1.019929e+00  0.000000e+00 -4.033509e-01
     vertex  9.271606e-01  0.000000e+00 -4.033509e-01
   endloop
 endfacet
 facet normal  0.000000e+00 -1.000000e+00  0.000000e+00
   outer loop
     vertex -1.019929e+00 -5.714286e-01  3.105821e-01
     vertex -1.019929e+00 -5.714286e-01 -4.033509e-01
     vertex -5.980600e-01 -5.714286e-01 -2.086419e-01
   endloop
 endfacet
 facet normal -0.000000e+00 -1.000000e+00 -0.000000e+00
   outer loop
     vertex -5.980600e-01 -5.714286e-01  1.158731e-01
     vertex -1.019929e+00 -5.714286e-01  3.105821e-01
     vertex -5.980600e-01 -5.714286e-01 -2.086419e-01
   endloop
 endfacet
 facet normal  0.000000e+00 -1.000000e+00  0.000000e+00
   outer loop
     vertex  9.271606e-01 -5.714286e-01 -4.033509e-01
     vertex  5.052911e-01 -5.714286e-01 -2.086419e-01
     vertex -5.980600e-01 -5.714286e-01 -2.086419e-01
   endloop
 endfacet
 facet normal  0.000000e+00 -1.000000e+00  0.000000e+00
   outer loop
     vertex  9.271606e-01 -5.714286e-01 -4.033509e-01
     vertex -5.980600e-01 -5.714286e-01 -2.086419e-01
     vertex -1.019929e+00 -5.714286e-01 -4.033509e-01
   endloop
 endfacet
 facet normal  0.000000e+00 -1.000000e+00  0.000000e+00
   outer loop
     vertex  9.271606e-01 -5.714286e-01  3.105821e-01
     vertex  5.052911e-01 -5.714286e-01  1.158731e-01
     vertex  5.052911e-01 -5.714286e-01 -2.086419e-01
   endloop
 endfacet
 facet normal  0.000000e+00 -1.000000e+00 -0.000000e+00
   outer loop
     vertex  9.271606e-01 -5.714286e-01  3.105821e-01
     vertex  5.052911e-01 -5.714286e-01 -2.086419e-01
     vertex  9.271606e-01 -5.714286e-01 -4.033509e-01
   endloop
 endfacet
 facet normal -0.000000e+00 -1.000000e+00  0.000000e+00
   outer loop
     vertex  9.271606e-01 -5.714286e-01  3.105821e-01
     vertex -1.019929e+00 -5.714286e-01  3.105821e-01
     vertex -5.980600e-01 -5.714286e-01  1.158731e-01
   endloop
 endfacet
 facet normal  0.000000e+00 -1.000000e+00  0.000000e+00
   outer loop
     vertex  9.271606e-01 -5.714286e-01  3.105821e-01
     vertex -5.980600e-01 -5.714286e-01  1.158731e-01
     vertex  5.052911e-01 -5.714286e-01  1.158731e-01
   endloop
 endfacet
 facet normal -0.000000e+00  0.000000e+00  1.000000e+00
   outer loop
     vertex -1.019929e+00 -1.587302e-02  3.105821e-01
     vertex  9.271606e-01 -5.714286e-01  3.105821e-01
     vertex  9.271606e-01 -1.587302e-02  3.105821e-01
   endloop
 endfacet
 facet normal  0.000000e+00  0.000000e+00  1.000000e+00
   outer loop
     vertex -1.019929e+00 -1.587302e-02  3.105821e-01
     vertex -1.019929e+00 -5.714286e-01  3.105821e-01
     vertex  9.271606e-01 -5.714286e-01  3.105821e-01
   endloop
 endfacet
 facet normal -1.000000e+00  0.000000e+00  0.000000e+00
   outer loop
     vertex -1.019929e+00 -1.587302e-02 -4.033509e-01
     vertex -1.019929e+00 -1.587302e-02  3.105821e-01
     vertex -1.019929e+00  0.000000e+00  3.105821e-01
   endloop
 endfacet
 facet normal -1.000000e+00  0.000000e+00  0.000000e+00
   outer loop
     vertex -1.019929e+00 -1.587302e-02 -4.033509e-01
     vertex -1.019929e+00  0.000000e+00  3.105821e-01
     vertex -1.019929e+00  0.000000e+00 -4.033509e-01
   endloop
 endfacet
 facet normal  1.000000e+00  0.000000e+00  0.000000e+00
   outer loop
     vertex  9.271606e-01 -1.587302e-02  3.105821e-01
     vertex  9.271606e-01 -1.587302e-02 -4.033509e-01
     vertex  9.271606e-01  0.000000e+00 -4.033509e-01
   endloop
 endfacet
 facet normal  1.000000e+00 -0.000000e+00  0.000000e+00
   outer loop
     vertex  9.271606e-01 -1.587302e-02  3.105821e-01
     vertex  9.271606e-01  0.000000e+00 -4.033509e-01
     vertex  9.271606e-01  0.000000e+00  3.105821e-01
   endloop
 endfacet
 facet normal  0.000000e+00  1.000000e+00  0.000000e+00
   outer loop
     vertex -1.019929e+00 -4.510281e-17  3.105821e-01
     vertex -5.980600e-01 -4.510281e-17 -2.086419e-01
     vertex -1.019929e+00 -4.510281e-17 -4.033509e-01
   endloop
 endfacet
 facet normal  0.000000e+00  1.000000e+00  0.000000e+00
   outer loop
     vertex -5.980600e-01 -4.510281e-17  1.158731e-01
     vertex -5.980600e-01 -4.510281e-17 -2.086419e-01
     vertex -1.019929e+00 -4.510281e-17  3.105821e-01
   endloop
 endfacet
 facet normal  0.000000e+00  1.000000e+00  0.000000e+00
   outer loop
     vertex  9.271606e-01 -4.510281e-17 -4.033509e-01
     vertex -5.980600e-01 -4.510281e-17 -2.086419e-01
     vertex  5.052911e-01 -4.510281e-17 -2.086419e-01
   endloop
 endfacet
 facet normal  0.000000e+00  1.000000e+00  0.000000e+00
   outer loop
     vertex  9.271606e-01 -4.510281e-17 -4.033509e-01
     vertex -1.019929e+00 -4.510281e-17 -4.033509e-01
     vertex -5.980600e-01 -4.510281e-17 -2.086419e-01
   endloop
 endfacet
 facet normal  0.000000e+00  1.000000e+00  0.000000e+00
   outer loop
     vertex  9.271606e-01 -4.510281e-17  3.105821e-01
     vertex  5.052911e-01 -4.510281e-17 -2.086419e-01
     vertex  5.052911e-01 -4.510281e-17  1.158731e-01
   endloop
 endfacet
 facet normal  0.000000e+00  1.000000e+00  0.000000e+00
   outer loop
     vertex  9.271606e-01 -4.510281e-17  3.105821e-01
     vertex  9.271606e-01 -4.510281e-17 -4.033509e-01
     vertex  5.052911e-01 -4.510281e-17 -2.086419e-01
   endloop
 endfacet
 facet normal  0.000000e+00  1.000000e+00  0.000000e+00
   outer loop
     vertex  9.271606e-01 -4.510281e-17  3.105821e-01
     vertex -5.980600e-01 -4.510281e-17  1.158731e-01
     vertex -1.019929e+00 -4.510281e-17  3.105821e-01
   endloop
 endfacet
 facet normal  0.000000e+00  1.000000e+00  0.000000e+00
   outer loop
     vertex  9.271606e-01 -4.510281e-17  3.105821e-01
     vertex  5.052911e-01 -4.510281e-17  1.158731e-01
     vertex -5.980600e-01 -4.510281e-17  1.158731e-01
   endloop
 endfacet
 facet normal  0.000000e+00  0.000000e+00  1.000000e+00
   outer loop
     vertex  5.052911e-01 -1.587302e-02 -2.086419e-01
     vertex -5.980600e-01 -1.587302e-02 -2.086419e-01
     vertex -5.980600e-01 -5.714286e-01 -2.086419e-01
   endloop
 endfacet
 facet normal  0.000000e+00  0.000000e+00  1.000000e+00
   outer loop
     vertex  5.052911e-01 -1.587302e-02 -2.086419e-01
     vertex -5.980600e-01 -5.714286e-01 -2.086419e-01
     vertex  5.052911e-01 -5.714286e-01 -2.086419e-01
   endloop
 endfacet
 facet normal -1.000000e+00  0.000000e+00 -0.000000e+00
   outer loop
     vertex  5.052911e-01 -1.587302e-02  1.158731e-01
     vertex  5.052911e-01 -1.587302e-02 -2.086419e-01
     vertex  5.052911e-01 -5.714286e-01 -2.086419e-01
   endloop
 endfacet
 facet normal -1.000000e+00 -0.000000e+00  0.000000e+00
   outer loop
     vertex  5.052911e-01 -1.587302e-02  1.158731e-01
     vertex  5.052911e-01 -5.714286e-01 -2.086419e-01
     vertex  5.052911e-01 -5.714286e-01  1.158731e-01
   endloop
 endfacet
 facet normal  0.000000e+00  0.000000e+00 -1.000000e+00
   outer loop
     vertex -5.980600e-01 -1.587302e-02  1.158731e-01
     vertex  5.052911e-01 -1.587302e-02  1.158731e-01
     vertex  5.052911e-01 -5.714286e-01  1.158731e-01
   endloop
 endfacet
 facet normal  0.000000e+00  0.000000e+00 -1.000000e+00
   outer loop
     vertex -5.980600e-01 -1.587302e-02  1.158731e-01
     vertex  5.052911e-01 -5.714286e-01  1.158731e-01
     vertex -5.980600e-01 -5.714286e-01  1.158731e-01
   endloop
 endfacet
 facet normal  1.000000e+00  0.000000e+00 -0.000000e+00
   outer loop
     vertex -5.980600e-01 -1.587302e-02 -2.086419e-01
     vertex -5.980600e-01 -1.587302e-02  1.158731e-01
     vertex -5.980600e-01 -5.714286e-01  1.158731e-01
   endloop
 endfacet
 facet normal  1.000000e+00  0.000000e+00  0.000000e+00
   outer loop
     vertex -5.980600e-01 -1.587302e-02 -2.086419e-01
     vertex -5.980600e-01 -5.714286e-01  1.158731e-01
     vertex -5.980600e-01 -5.714286e-01 -2.086419e-01
   endloop
 endfacet
 facet normal  0.000000e+00  0.000000e+00  1.000000e+00
   outer loop
     vertex -1.019929e+00 -1.587302e-02  3.105821e-01
     vertex  9.271606e-01 -1.587302e-02  3.105821e-01
     vertex  9.271606e-01  0.000000e+00  3.105821e-01
   endloop
 endfacet
 facet normal  0.000000e+00  0.000000e+00  1.000000e+00
   outer loop
     vertex -1.019929e+00 -1.587302e-02  3.105821e-01
     vertex  9.271606e-01  0.000000e+00  3.105821e-01
     vertex -1.019929e+00  0.000000e+00  3.105821e-01
   endloop
 endfacet
 facet normal  0.000000e+00  0.000000e+00  1.000000e+00
   outer loop
     vertex  5.052911e-01 -1.587302e-02 -2.086419e-01
     vertex -5.980600e-01  0.000000e+00 -2.086419e-01
     vertex -5.980600e-01 -1.587302e-02 -2.086419e-01
   endloop
 endfacet
 facet normal  0.000000e+00 -0.000000e+00  1.000000e+00
   outer loop
     vertex  5.052911e-01 -1.587302e-02 -2.086419e-01
     vertex  5.052911e-01  0.000000e+00 -2.086419e-01
     vertex -5.980600e-01  0.000000e+00 -2.086419e-01
   endloop
 endfacet
 facet normal -1.000000e+00  0.000000e+00  0.000000e+00
   outer loop
     vertex  5.052911e-01 -1.587302e-02  1.158731e-01
     vertex  5.052911e-01  0.000000e+00 -2.086419e-01
     vertex  5.052911e-01 -1.587302e-02 -2.086419e-01
   endloop
 endfacet
 facet normal -1.000000e+00  0.000000e+00  0.000000e+00
   outer loop
     vertex  5.052911e-01 -1.587302e-02  1.158731e-01
     vertex  5.052911e-01  0.000000e+00  1.158731e-01
     vertex  5.052911e-01  0.000000e+00 -2.086419e-01
   endloop
 endfacet
 facet normal  0.000000e+00  0.000000e+00 -1.000000e+00
   outer loop
     vertex -5.980600e-01 -1.587302e-02  1.158731e-01
     vertex  5.052911e-01  0.000000e+00  1.158731e-01
     vertex  5.052911e-01 -1.587302e-02  1.158731e-01
   endloop
 endfacet
 facet normal  0.000000e+00  0.000000e+00 -1.000000e+00
   outer loop
     vertex -5.980600e-01 -1.587302e-02  1.158731e-01
     vertex -5.980600e-01  0.000000e+00  1.158731e-01
     vertex  5.052911e-01  0.000000e+00  1.158731e-01
   endloop
 endfacet
 facet normal  1.000000e+00  0.000000e+00  0.000000e+00
   outer loop
     vertex -5.980600e-01 -1.587302e-02 -2.086419e-01
     vertex -5.980600e-01  0.000000e+00  1.158731e-01
     vertex -5.980600e-01 -1.587302e-02  1.158731e-01
   endloop
 endfacet
 facet normal  1.000000e+00  0.000000e+00  0.000000e+00
   outer loop
     vertex -5.980600e-01 -1.587302e-02 -2.086419e-01
     vertex -5.980600e-01  0.000000e+00 -2.086419e-01
     vertex -5.980600e-01  0.000000e+00  1.158731e-01
   endloop
 endfacet
endsolid
