solid 
 facet normal  0.000000e+00 -1.000000e+00  0.000000e+00
   outer loop
     vertex  9.666667e-01 -3.222222e-01 -1.587302e-02
     vertex -1.001587e+00 -3.222222e-01  6.349212e-02
     vertex -1.001587e+00 -3.222222e-01 -1.587302e-02
   endloop
 endfacet
 facet normal  0.000000e+00 -1.000000e+00  0.000000e+00
   outer loop
     vertex  9.666667e-01 -3.222222e-01 -1.587302e-02
     vertex  9.666667e-01 -3.222222e-01  6.349212e-02
     vertex -1.001587e+00 -3.222222e-01  6.349212e-02
   endloop
 endfacet
 facet normal -1.000000e+00  0.000000e+00  0.000000e+00
   outer loop
     vertex -1.001587e+00 -3.222222e-01 -1.587302e-02
     vertex -1.001587e+00 -1.317461e-01  6.349212e-02
     vertex -1.001587e+00 -1.317461e-01 -1.587302e-02
   endloop
 endfacet
 facet normal -1.000000e+00  0.000000e+00  0.000000e+00
   outer loop
     vertex -1.001587e+00 -3.222222e-01 -1.587302e-02
     vertex -1.001587e+00 -3.222222e-01  6.349212e-02
     vertex -1.001587e+00 -1.317461e-01  6.349212e-02
   endloop
 endfacet
 facet normal  1.000000e+00  0.000000e+00  0.000000e+00
   outer loop
     vertex  9.666667e-01 -1.317461e-01 -1.587302e-02
     vertex  9.666667e-01 -3.222222e-01  6.349212e-02
     vertex  9.666667e-01 -3.222222e-01 -1.587302e-02
   endloop
 endfacet
 facet normal  1.000000e+00  0.000000e+00 -0.000000e+00
   outer loop
     vertex  9.666667e-01 -1.317461e-01 -1.587302e-02
     vertex  9.666667e-01 -1.317461e-01  6.349212e-02
     vertex  9.666667e-01 -3.222222e-01  6.349212e-02
   endloop
 endfacet
 facet normal -0.000000e+00 -1.000000e+00  0.000000e+00
   outer loop
     vertex  9.666667e-01 -3.222222e-01 -1.587302e-02
     vertex -1.001587e+00 -3.222222e-01 -1.587302e-02
     vertex -1.001587e+00 -3.222222e-01 -3.174603e-02
   endloop
 endfacet
 facet normal  0.000000e+00 -1.000000e+00 -0.000000e+00
   outer loop
     vertex  9.666667e-01 -3.222222e-01 -1.587302e-02
     vertex -1.001587e+00 -3.222222e-01 -3.174603e-02
     vertex  9.666667e-01 -3.222222e-01 -3.174603e-02
   endloop
 endfacet
 facet normal  0.000000e+00  0.000000e+00  1.000000e+00
   outer loop
     vertex -9.063492e-01 -1.317461e-01  6.349212e-02
     vertex -1.001587e+00 -1.317461e-01  6.349212e-02
     vertex -1.001587e+00 -3.222222e-01  6.349212e-02
   endloop
 endfacet
 facet normal  0.000000e+00  0.000000e+00  1.000000e+00
   outer loop
     vertex -9.063492e-01  5.873018e-02  6.349212e-02
     vertex -9.063492e-01 -1.317461e-01  6.349212e-02
     vertex -7.793651e-01 -6.825393e-02  6.349212e-02
   endloop
 endfacet
 facet normal  0.000000e+00  0.000000e+00  1.000000e+00
   outer loop
     vertex -7.158730e-01 -6.825393e-02  6.349212e-02
     vertex -9.063492e-01 -1.317461e-01  6.349212e-02
     vertex -1.001587e+00 -3.222222e-01  6.349212e-02
   endloop
 endfacet
 facet normal  0.000000e+00  0.000000e+00  1.000000e+00
   outer loop
     vertex -7.158730e-01 -6.825393e-02  6.349212e-02
     vertex -7.793651e-01 -6.825393e-02  6.349212e-02
     vertex -9.063492e-01 -1.317461e-01  6.349212e-02
   endloop
 endfacet
 facet normal  0.000000e+00  0.000000e+00  1.000000e+00
   outer loop
     vertex -7.793651e-01  5.873018e-02  6.349212e-02
     vertex -9.063492e-01  5.873018e-02  6.349212e-02
     vertex -7.793651e-01 -6.825393e-02  6.349212e-02
   endloop
 endfacet
 facet normal  0.000000e+00  0.000000e+00  1.000000e+00
   outer loop
     vertex  9.666667e-01 -3.222222e-01  6.349212e-02
     vertex  6.809524e-01 -6.825393e-02  6.349212e-02
     vertex -7.158730e-01 -6.825393e-02  6.349212e-02
   endloop
 endfacet
 facet normal  0.000000e+00  0.000000e+00  1.000000e+00
   outer loop
     vertex  9.666667e-01 -3.222222e-01  6.349212e-02
     vertex -7.158730e-01 -6.825393e-02  6.349212e-02
     vertex -1.001587e+00 -3.222222e-01  6.349212e-02
   endloop
 endfacet
 facet normal  0.000000e+00  0.000000e+00  1.000000e+00
   outer loop
     vertex  8.714286e-01 -1.317461e-01  6.349212e-02
     vertex  7.444445e-01 -6.825393e-02  6.349212e-02
     vertex  6.809524e-01 -6.825393e-02  6.349212e-02
   endloop
 endfacet
 facet normal  0.000000e+00  0.000000e+00  1.000000e+00
   outer loop
     vertex  8.714286e-01 -1.317461e-01  6.349212e-02
     vertex  6.809524e-01 -6.825393e-02  6.349212e-02
     vertex  9.666667e-01 -3.222222e-01  6.349212e-02
   endloop
 endfacet
 facet normal  0.000000e+00  0.000000e+00  1.000000e+00
   outer loop
     vertex  9.666667e-01 -1.317461e-01  6.349212e-02
     vertex  8.714286e-01 -1.317461e-01  6.349212e-02
     vertex  9.666667e-01 -3.222222e-01  6.349212e-02
   endloop
 endfacet
 facet normal  0.000000e+00  0.000000e+00  1.000000e+00
   outer loop
     vertex  8.714286e-01  5.873018e-02  6.349212e-02
     vertex  7.444445e-01  5.873018e-02  6.349212e-02
     vertex  7.444445e-01 -6.825393e-02  6.349212e-02
   endloop
 endfacet
 facet normal  0.000000e+00  0.000000e+00  1.000000e+00
   outer loop
     vertex  8.714286e-01  5.873018e-02  6.349212e-02
     vertex  7.444445e-01 -6.825393e-02  6.349212e-02
     vertex  8.714286e-01 -1.317461e-01  6.349212e-02
   endloop
 endfacet
 facet normal  0.000000e+00  1.000000e+00  0.000000e+00
   outer loop
     vertex -1.001587e+00 -1.317461e-01 -1.587302e-02
     vertex -9.063492e-01 -1.317461e-01  6.349212e-02
     vertex -9.063492e-01 -1.317461e-01 -1.587302e-02
   endloop
 endfacet
 facet normal  0.000000e+00  1.000000e+00  0.000000e+00
   outer loop
     vertex -1.001587e+00 -1.317461e-01 -1.587302e-02
     vertex -1.001587e+00 -1.317461e-01  6.349212e-02
     vertex -9.063492e-01 -1.317461e-01  6.349212e-02
   endloop
 endfacet
 facet normal -1.000000e+00  0.000000e+00  0.000000e+00
   outer loop
     vertex -1.001587e+00 -3.222222e-01 -1.587302e-02
     vertex -1.001587e+00 -1.317461e-01 -1.587302e-02
     vertex -1.001587e+00 -1.317461e-01 -3.174603e-02
   endloop
 endfacet
 facet normal -1.000000e+00  0.000000e+00  0.000000e+00
   outer loop
     vertex -1.001587e+00 -3.222222e-01 -1.587302e-02
     vertex -1.001587e+00 -1.317461e-01 -3.174603e-02
     vertex -1.001587e+00 -3.222222e-01 -3.174603e-02
   endloop
 endfacet
 facet normal  0.000000e+00  1.000000e+00  0.000000e+00
   outer loop
     vertex  8.714286e-01 -1.317461e-01 -1.587302e-02
     vertex  9.666667e-01 -1.317461e-01  6.349212e-02
     vertex  9.666667e-01 -1.317461e-01 -1.587302e-02
   endloop
 endfacet
 facet normal  0.000000e+00  1.000000e+00  0.000000e+00
   outer loop
     vertex  8.714286e-01 -1.317461e-01 -1.587302e-02
     vertex  8.714286e-01 -1.317461e-01  6.349212e-02
     vertex  9.666667e-01 -1.317461e-01  6.349212e-02
   endloop
 endfacet
 facet normal  1.000000e+00  0.000000e+00  0.000000e+00
   outer loop
     vertex  9.666667e-01 -1.317461e-01 -1.587302e-02
     vertex  9.666667e-01 -3.222222e-01 -1.587302e-02
     vertex  9.666667e-01 -3.222222e-01 -3.174603e-02
   endloop
 endfacet
 facet normal  1.000000e+00  0.000000e+00  0.000000e+00
   outer loop
     vertex  9.666667e-01 -1.317461e-01 -1.587302e-02
     vertex  9.666667e-01 -3.222222e-01 -3.174603e-02
     vertex  9.666667e-01 -1.317461e-01 -3.174603e-02
   endloop
 endfacet
 facet normal -0.000000e+00  0.000000e+00 -1.000000e+00
   outer loop
     vertex -9.063492e-01 -1.317461e-01 -3.174603e-02
     vertex -1.001587e+00 -3.222222e-01 -3.174603e-02
     vertex -1.001587e+00 -1.317461e-01 -3.174603e-02
   endloop
 endfacet
 facet normal  0.000000e+00  0.000000e+00 -1.000000e+00
   outer loop
     vertex -9.063492e-01  5.873018e-02 -3.174603e-02
     vertex -7.793651e-01 -6.825393e-02 -3.174603e-02
     vertex -9.063492e-01 -1.317461e-01 -3.174603e-02
   endloop
 endfacet
 facet normal  0.000000e+00  0.000000e+00 -1.000000e+00
   outer loop
     vertex -7.158730e-01 -6.825393e-02 -3.174603e-02
     vertex -1.001587e+00 -3.222222e-01 -3.174603e-02
     vertex -9.063492e-01 -1.317461e-01 -3.174603e-02
   endloop
 endfacet
 facet normal -0.000000e+00  0.000000e+00 -1.000000e+00
   outer loop
     vertex -7.158730e-01 -6.825393e-02 -3.174603e-02
     vertex -9.063492e-01 -1.317461e-01 -3.174603e-02
     vertex -7.793651e-01 -6.825393e-02 -3.174603e-02
   endloop
 endfacet
 facet normal -0.000000e+00 -0.000000e+00 -1.000000e+00
   outer loop
     vertex -7.793651e-01  5.873018e-02 -3.174603e-02
     vertex -7.793651e-01 -6.825393e-02 -3.174603e-02
     vertex -9.063492e-01  5.873018e-02 -3.174603e-02
   endloop
 endfacet
 facet normal  0.000000e+00  0.000000e+00 -1.000000e+00
   outer loop
     vertex  9.666667e-01 -3.222222e-01 -3.174603e-02
     vertex -7.158730e-01 -6.825393e-02 -3.174603e-02
     vertex  6.809524e-01 -6.825393e-02 -3.174603e-02
   endloop
 endfacet
 facet normal  0.000000e+00  0.000000e+00 -1.000000e+00
   outer loop
     vertex  9.666667e-01 -3.222222e-01 -3.174603e-02
     vertex -1.001587e+00 -3.222222e-01 -3.174603e-02
     vertex -7.158730e-01 -6.825393e-02 -3.174603e-02
   endloop
 endfacet
 facet normal  0.000000e+00  0.000000e+00 -1.000000e+00
   outer loop
     vertex  8.714286e-01 -1.317461e-01 -3.174603e-02
     vertex  6.809524e-01 -6.825393e-02 -3.174603e-02
     vertex  7.444445e-01 -6.825393e-02 -3.174603e-02
   endloop
 endfacet
 facet normal -0.000000e+00 -0.000000e+00 -1.000000e+00
   outer loop
     vertex  8.714286e-01 -1.317461e-01 -3.174603e-02
     vertex  9.666667e-01 -3.222222e-01 -3.174603e-02
     vertex  6.809524e-01 -6.825393e-02 -3.174603e-02
   endloop
 endfacet
 facet normal -0.000000e+00 -0.000000e+00 -1.000000e+00
   outer loop
     vertex  9.666667e-01 -1.317461e-01 -3.174603e-02
     vertex  9.666667e-01 -3.222222e-01 -3.174603e-02
     vertex  8.714286e-01 -1.317461e-01 -3.174603e-02
   endloop
 endfacet
 facet normal -0.000000e+00  0.000000e+00 -1.000000e+00
   outer loop
     vertex  8.714286e-01  5.873018e-02 -3.174603e-02
     vertex  7.444445e-01 -6.825393e-02 -3.174603e-02
     vertex  7.444445e-01  5.873018e-02 -3.174603e-02
   endloop
 endfacet
 facet normal  0.000000e+00 -0.000000e+00 -1.000000e+00
   outer loop
     vertex  8.714286e-01  5.873018e-02 -3.174603e-02
     vertex  8.714286e-01 -1.317461e-01 -3.174603e-02
     vertex  7.444445e-01 -6.825393e-02 -3.174603e-02
   endloop
 endfacet
 facet normal  1.000000e+00  0.000000e+00  0.000000e+00
   outer loop
     vertex  8.714286e-01  5.873018e-02 -1.587302e-02
     vertex  8.714286e-01 -1.317461e-01  6.349212e-02
     vertex  8.714286e-01 -1.317461e-01 -1.587302e-02
   endloop
 endfacet
 facet normal  1.000000e+00  0.000000e+00 -0.000000e+00
   outer loop
     vertex  8.714286e-01  5.873018e-02 -1.587302e-02
     vertex  8.714286e-01  5.873018e-02  6.349212e-02
     vertex  8.714286e-01 -1.317461e-01  6.349212e-02
   endloop
 endfacet
 facet normal  0.000000e+00  1.000000e+00  0.000000e+00
   outer loop
     vertex  7.444445e-01  5.873018e-02 -1.587302e-02
     vertex  8.714286e-01  5.873018e-02  6.349212e-02
     vertex  8.714286e-01  5.873018e-02 -1.587302e-02
   endloop
 endfacet
 facet normal  0.000000e+00  1.000000e+00  0.000000e+00
   outer loop
     vertex  7.444445e-01  5.873018e-02 -1.587302e-02
     vertex  7.444445e-01  5.873018e-02  6.349212e-02
     vertex  8.714286e-01  5.873018e-02  6.349212e-02
   endloop
 endfacet
 facet normal -1.000000e+00  0.000000e+00  0.000000e+00
   outer loop
     vertex  7.444445e-01 -6.825393e-02 -1.587302e-02
     vertex  7.444445e-01  5.873018e-02  6.349212e-02
     vertex  7.444445e-01  5.873018e-02 -1.587302e-02
   endloop
 endfacet
 facet normal -1.000000e+00  0.000000e+00  0.000000e+00
   outer loop
     vertex  7.444445e-01 -6.825393e-02 -1.587302e-02
     vertex  7.444445e-01 -6.825393e-02  6.349212e-02
     vertex  7.444445e-01  5.873018e-02  6.349212e-02
   endloop
 endfacet
 facet normal  0.000000e+00  1.000000e+00  0.000000e+00
   outer loop
     vertex  6.809524e-01 -6.825393e-02 -1.587302e-02
     vertex  7.444445e-01 -6.825393e-02  6.349212e-02
     vertex  7.444445e-01 -6.825393e-02 -1.587302e-02
   endloop
 endfacet
 facet normal  0.000000e+00  1.000000e+00  0.000000e+00
   outer loop
     vertex  6.809524e-01 -6.825393e-02 -1.587302e-02
     vertex  6.809524e-01 -6.825393e-02  6.349212e-02
     vertex  7.444445e-01 -6.825393e-02  6.349212e-02
   endloop
 endfacet
 facet normal  0.000000e+00  1.000000e+00  0.000000e+00
   outer loop
     vertex -7.158730e-01 -6.825393e-02 -1.587302e-02
     vertex  6.809524e-01 -6.825393e-02  6.349212e-02
     vertex  6.809524e-01 -6.825393e-02 -1.587302e-02
   endloop
 endfacet
 facet normal  0.000000e+00  1.000000e+00  0.000000e+00
   outer loop
     vertex -7.158730e-01 -6.825393e-02 -1.587302e-02
     vertex -7.158730e-01 -6.825393e-02  6.349212e-02
     vertex  6.809524e-01 -6.825393e-02  6.349212e-02
   endloop
 endfacet
 facet normal  0.000000e+00  1.000000e+00  0.000000e+00
   outer loop
     vertex -7.793651e-01 -6.825393e-02 -1.587302e-02
     vertex -7.158730e-01 -6.825393e-02  6.349212e-02
     vertex -7.158730e-01 -6.825393e-02 -1.587302e-02
   endloop
 endfacet
 facet normal  0.000000e+00  1.000000e+00  0.000000e+00
   outer loop
     vertex -7.793651e-01 -6.825393e-02 -1.587302e-02
     vertex -7.793651e-01 -6.825393e-02  6.349212e-02
     vertex -7.158730e-01 -6.825393e-02  6.349212e-02
   endloop
 endfacet
 facet normal  1.000000e+00  0.000000e+00  0.000000e+00
   outer loop
     vertex -7.793651e-01  5.873018e-02 -1.587302e-02
     vertex -7.793651e-01 -6.825393e-02  6.349212e-02
     vertex -7.793651e-01 -6.825393e-02 -1.587302e-02
   endloop
 endfacet
 facet normal  1.000000e+00  0.000000e+00 -0.000000e+00
   outer loop
     vertex -7.793651e-01  5.873018e-02 -1.587302e-02
     vertex -7.793651e-01  5.873018e-02  6.349212e-02
     vertex -7.793651e-01 -6.825393e-02  6.349212e-02
   endloop
 endfacet
 facet normal  0.000000e+00  1.000000e+00  0.000000e+00
   outer loop
     vertex -9.063492e-01  5.873018e-02 -1.587302e-02
     vertex -7.793651e-01  5.873018e-02  6.349212e-02
     vertex -7.793651e-01  5.873018e-02 -1.587302e-02
   endloop
 endfacet
 facet normal  0.000000e+00  1.000000e+00  0.000000e+00
   outer loop
     vertex -9.063492e-01  5.873018e-02 -1.587302e-02
     vertex -9.063492e-01  5.873018e-02  6.349212e-02
     vertex -7.793651e-01  5.873018e-02  6.349212e-02
   endloop
 endfacet
 facet normal -1.000000e+00  0.000000e+00  0.000000e+00
   outer loop
     vertex -9.063492e-01 -1.317461e-01 -1.587302e-02
     vertex -9.063492e-01  5.873018e-02  6.349212e-02
     vertex -9.063492e-01  5.873018e-02 -1.587302e-02
   endloop
 endfacet
 facet normal -1.000000e+00  0.000000e+00  0.000000e+00
   outer loop
     vertex -9.063492e-01 -1.317461e-01 -1.587302e-02
     vertex -9.063492e-01 -1.317461e-01  6.349212e-02
     vertex -9.063492e-01  5.873018e-02  6.349212e-02
   endloop
 endfacet
 facet normal -0.000000e+00  1.000000e+00  0.000000e+00
   outer loop
     vertex -1.001587e+00 -1.317461e-01 -1.587302e-02
     vertex -9.063492e-01 -1.317461e-01 -1.587302e-02
     vertex -9.063492e-01 -1.317461e-01 -3.174603e-02
   endloop
 endfacet
 facet normal  0.000000e+00  1.000000e+00  0.000000e+00
   outer loop
     vertex -1.001587e+00 -1.317461e-01 -1.587302e-02
     vertex -9.063492e-01 -1.317461e-01 -3.174603e-02
     vertex -1.001587e+00 -1.317461e-01 -3.174603e-02
   endloop
 endfacet
 facet normal -0.000000e+00  1.000000e+00  0.000000e+00
   outer loop
     vertex  8.714286e-01 -1.317461e-01 -1.587302e-02
     vertex  9.666667e-01 -1.317461e-01 -1.587302e-02
     vertex  9.666667e-01 -1.317461e-01 -3.174603e-02
   endloop
 endfacet
 facet normal  0.000000e+00  1.000000e+00  0.000000e+00
   outer loop
     vertex  8.714286e-01 -1.317461e-01 -1.587302e-02
     vertex  9.666667e-01 -1.317461e-01 -3.174603e-02
     vertex  8.714286e-01 -1.317461e-01 -3.174603e-02
   endloop
 endfacet
 facet normal  1.000000e+00  0.000000e+00  0.000000e+00
   outer loop
     vertex  8.714286e-01  5.873018e-02 -1.587302e-02
     vertex  8.714286e-01 -1.317461e-01 -1.587302e-02
     vertex  8.714286e-01 -1.317461e-01 -3.174603e-02
   endloop
 endfacet
 facet normal  1.000000e+00  0.000000e+00  0.000000e+00
   outer loop
     vertex  8.714286e-01  5.873018e-02 -1.587302e-02
     vertex  8.714286e-01 -1.317461e-01 -3.174603e-02
     vertex  8.714286e-01  5.873018e-02 -3.174603e-02
   endloop
 endfacet
 facet normal -0.000000e+00  1.000000e+00  0.000000e+00
   outer loop
     vertex  7.444445e-01  5.873018e-02 -1.587302e-02
     vertex  8.714286e-01  5.873018e-02 -1.587302e-02
     vertex  8.714286e-01  5.873018e-02 -3.174603e-02
   endloop
 endfacet
 facet normal  0.000000e+00  1.000000e+00  0.000000e+00
   outer loop
     vertex  7.444445e-01  5.873018e-02 -1.587302e-02
     vertex  8.714286e-01  5.873018e-02 -3.174603e-02
     vertex  7.444445e-01  5.873018e-02 -3.174603e-02
   endloop
 endfacet
 facet normal -1.000000e+00  0.000000e+00  0.000000e+00
   outer loop
     vertex  7.444445e-01 -6.825393e-02 -1.587302e-02
     vertex  7.444445e-01  5.873018e-02 -1.587302e-02
     vertex  7.444445e-01  5.873018e-02 -3.174603e-02
   endloop
 endfacet
 facet normal -1.000000e+00  0.000000e+00  0.000000e+00
   outer loop
     vertex  7.444445e-01 -6.825393e-02 -1.587302e-02
     vertex  7.444445e-01  5.873018e-02 -3.174603e-02
     vertex  7.444445e-01 -6.825393e-02 -3.174603e-02
   endloop
 endfacet
 facet normal -0.000000e+00  1.000000e+00  0.000000e+00
   outer loop
     vertex  6.809524e-01 -6.825393e-02 -1.587302e-02
     vertex  7.444445e-01 -6.825393e-02 -1.587302e-02
     vertex  7.444445e-01 -6.825393e-02 -3.174603e-02
   endloop
 endfacet
 facet normal  0.000000e+00  1.000000e+00  0.000000e+00
   outer loop
     vertex  6.809524e-01 -6.825393e-02 -1.587302e-02
     vertex  7.444445e-01 -6.825393e-02 -3.174603e-02
     vertex  6.809524e-01 -6.825393e-02 -3.174603e-02
   endloop
 endfacet
 facet normal -0.000000e+00  1.000000e+00  0.000000e+00
   outer loop
     vertex -7.158730e-01 -6.825393e-02 -1.587302e-02
     vertex  6.809524e-01 -6.825393e-02 -1.587302e-02
     vertex  6.809524e-01 -6.825393e-02 -3.174603e-02
   endloop
 endfacet
 facet normal  0.000000e+00  1.000000e+00  0.000000e+00
   outer loop
     vertex -7.158730e-01 -6.825393e-02 -1.587302e-02
     vertex  6.809524e-01 -6.825393e-02 -3.174603e-02
     vertex -7.158730e-01 -6.825393e-02 -3.174603e-02
   endloop
 endfacet
 facet normal -0.000000e+00  1.000000e+00  0.000000e+00
   outer loop
     vertex -7.793651e-01 -6.825393e-02 -1.587302e-02
     vertex -7.158730e-01 -6.825393e-02 -1.587302e-02
     vertex -7.158730e-01 -6.825393e-02 -3.174603e-02
   endloop
 endfacet
 facet normal  0.000000e+00  1.000000e+00  0.000000e+00
   outer loop
     vertex -7.793651e-01 -6.825393e-02 -1.587302e-02
     vertex -7.158730e-01 -6.825393e-02 -3.174603e-02
     vertex -7.793651e-01 -6.825393e-02 -3.174603e-02
   endloop
 endfacet
 facet normal  1.000000e+00  0.000000e+00  0.000000e+00
   outer loop
     vertex -7.793651e-01  5.873018e-02 -1.587302e-02
     vertex -7.793651e-01 -6.825393e-02 -1.587302e-02
     vertex -7.793651e-01 -6.825393e-02 -3.174603e-02
   endloop
 endfacet
 facet normal  1.000000e+00  0.000000e+00  0.000000e+00
   outer loop
     vertex -7.793651e-01  5.873018e-02 -1.587302e-02
     vertex -7.793651e-01 -6.825393e-02 -3.174603e-02
     vertex -7.793651e-01  5.873018e-02 -3.174603e-02
   endloop
 endfacet
 facet normal -0.000000e+00  1.000000e+00  0.000000e+00
   outer loop
     vertex -9.063492e-01  5.873018e-02 -1.587302e-02
     vertex -7.793651e-01  5.873018e-02 -1.587302e-02
     vertex -7.793651e-01  5.873018e-02 -3.174603e-02
   endloop
 endfacet
 facet normal  0.000000e+00  1.000000e+00  0.000000e+00
   outer loop
     vertex -9.063492e-01  5.873018e-02 -1.587302e-02
     vertex -7.793651e-01  5.873018e-02 -3.174603e-02
     vertex -9.063492e-01  5.873018e-02 -3.174603e-02
   endloop
 endfacet
 facet normal -1.000000e+00  0.000000e+00  0.000000e+00
   outer loop
     vertex -9.063492e-01 -1.317461e-01 -1.587302e-02
     vertex -9.063492e-01  5.873018e-02 -1.587302e-02
     vertex -9.063492e-01  5.873018e-02 -3.174603e-02
   endloop
 endfacet
 facet normal -1.000000e+00  0.000000e+00  0.000000e+00
   outer loop
     vertex -9.063492e-01 -1.317461e-01 -1.587302e-02
     vertex -9.063492e-01  5.873018e-02 -3.174603e-02
     vertex -9.063492e-01 -1.317461e-01 -3.174603e-02
   endloop
 endfacet
endsolid
