solid 
 facet normal -1.000000e+00  1.936194e-13  0.000000e+00
   outer loop
     vertex -9.680776e-01 -3.550265e-01 -1.587302e-02
     vertex -9.680776e-01 -3.498658e-01  1.587302e-01
     vertex -9.680776e-01 -3.498658e-01 -1.587302e-02
   endloop
 endfacet
 facet normal -1.000000e+00  1.936194e-13  0.000000e+00
   outer loop
     vertex -9.680776e-01 -3.550265e-01 -1.587302e-02
     vertex -9.680776e-01 -3.550265e-01  1.587302e-01
     vertex -9.680776e-01 -3.498658e-01  1.587302e-01
   endloop
 endfacet
 facet normal  5.194023e-01  8.545298e-01  0.000000e+00
   outer loop
     vertex -9.511504e-01 -3.601546e-01 -1.587302e-02
     vertex -9.680776e-01 -3.498658e-01 -1.587302e-02
     vertex -9.680776e-01 -3.498658e-01  1.587302e-01
   endloop
 endfacet
 facet normal  5.194023e-01  8.545298e-01 -0.000000e+00
   outer loop
     vertex -9.511504e-01 -3.601546e-01 -1.587302e-02
     vertex -9.680776e-01 -3.498658e-01  1.587302e-01
     vertex -9.511504e-01 -3.601546e-01  1.587302e-01
   endloop
 endfacet
 facet normal  3.542098e-01  9.351660e-01 -0.000000e+00
   outer loop
     vertex -9.326260e-01 -3.671710e-01 -1.587302e-02
     vertex -9.511504e-01 -3.601546e-01  1.587302e-01
     vertex -9.326260e-01 -3.671710e-01  1.587302e-01
   endloop
 endfacet
 facet normal  3.542098e-01  9.351660e-01  0.000000e+00
   outer loop
     vertex -9.326260e-01 -3.671710e-01 -1.587302e-02
     vertex -9.511504e-01 -3.601546e-01 -1.587302e-02
     vertex -9.511504e-01 -3.601546e-01  1.587302e-01
   endloop
 endfacet
 facet normal  1.770483e-01  9.842022e-01 -0.000000e+00
   outer loop
     vertex -9.131301e-01 -3.706781e-01 -1.587302e-02
     vertex -9.326260e-01 -3.671710e-01  1.587302e-01
     vertex -9.131301e-01 -3.706781e-01  1.587302e-01
   endloop
 endfacet
 facet normal  1.770483e-01  9.842022e-01  0.000000e+00
   outer loop
     vertex -9.131301e-01 -3.706781e-01 -1.587302e-02
     vertex -9.326260e-01 -3.671710e-01 -1.587302e-02
     vertex -9.326260e-01 -3.671710e-01  1.587302e-01
   endloop
 endfacet
 facet normal -6.095834e-03  9.999814e-01  0.000000e+00
   outer loop
     vertex -8.933218e-01 -3.705574e-01 -1.587302e-02
     vertex -9.131301e-01 -3.706781e-01  1.587302e-01
     vertex -8.933218e-01 -3.705574e-01  1.587302e-01
   endloop
 endfacet
 facet normal -6.095834e-03  9.999814e-01  0.000000e+00
   outer loop
     vertex -8.933218e-01 -3.705574e-01 -1.587302e-02
     vertex -9.131301e-01 -3.706781e-01 -1.587302e-02
     vertex -9.131301e-01 -3.706781e-01  1.587302e-01
   endloop
 endfacet
 facet normal -1.890340e-01  9.819706e-01  0.000000e+00
   outer loop
     vertex -8.738702e-01 -3.668128e-01 -1.587302e-02
     vertex -8.933218e-01 -3.705574e-01  1.587302e-01
     vertex -8.738702e-01 -3.668128e-01  1.587302e-01
   endloop
 endfacet
 facet normal -1.890340e-01  9.819706e-01  0.000000e+00
   outer loop
     vertex -8.738702e-01 -3.668128e-01 -1.587302e-02
     vertex -8.933218e-01 -3.705574e-01 -1.587302e-02
     vertex -8.933218e-01 -3.705574e-01  1.587302e-01
   endloop
 endfacet
 facet normal -3.655845e-01  9.307782e-01  0.000000e+00
   outer loop
     vertex -8.554326e-01 -3.595711e-01 -1.587302e-02
     vertex -8.738702e-01 -3.668128e-01  1.587302e-01
     vertex -8.554326e-01 -3.595711e-01  1.587302e-01
   endloop
 endfacet
 facet normal -3.655845e-01  9.307782e-01  0.000000e+00
   outer loop
     vertex -8.554326e-01 -3.595711e-01 -1.587302e-02
     vertex -8.738702e-01 -3.668128e-01 -1.587302e-02
     vertex -8.738702e-01 -3.668128e-01  1.587302e-01
   endloop
 endfacet
 facet normal -5.297816e-01  8.481341e-01  0.000000e+00
   outer loop
     vertex -8.386321e-01 -3.490767e-01 -1.587302e-02
     vertex -8.554326e-01 -3.595711e-01  1.587302e-01
     vertex -8.386321e-01 -3.490767e-01  1.587302e-01
   endloop
 endfacet
 facet normal -5.297816e-01  8.481341e-01  0.000000e+00
   outer loop
     vertex -8.386321e-01 -3.490767e-01 -1.587302e-02
     vertex -8.554326e-01 -3.595711e-01 -1.587302e-02
     vertex -8.554326e-01 -3.595711e-01  1.587302e-01
   endloop
 endfacet
 facet normal -6.760771e-01  7.368309e-01  0.000000e+00
   outer loop
     vertex -8.240364e-01 -3.356845e-01 -1.587302e-02
     vertex -8.386321e-01 -3.490767e-01  1.587302e-01
     vertex -8.240364e-01 -3.356845e-01  1.587302e-01
   endloop
 endfacet
 facet normal -6.760771e-01  7.368309e-01  0.000000e+00
   outer loop
     vertex -8.240364e-01 -3.356845e-01 -1.587302e-02
     vertex -8.386321e-01 -3.490767e-01 -1.587302e-02
     vertex -8.386321e-01 -3.490767e-01  1.587302e-01
   endloop
 endfacet
 facet normal -7.995274e-01  6.006297e-01  0.000000e+00
   outer loop
     vertex -8.121387e-01 -3.198469e-01 -1.587302e-02
     vertex -8.240364e-01 -3.356845e-01  1.587302e-01
     vertex -8.121387e-01 -3.198469e-01  1.587302e-01
   endloop
 endfacet
 facet normal -7.995274e-01  6.006297e-01  0.000000e+00
   outer loop
     vertex -8.121387e-01 -3.198469e-01 -1.587302e-02
     vertex -8.240364e-01 -3.356845e-01 -1.587302e-02
     vertex -8.240364e-01 -3.356845e-01  1.587302e-01
   endloop
 endfacet
 facet normal -8.959610e-01  4.441327e-01  0.000000e+00
   outer loop
     vertex -8.033410e-01 -3.020990e-01 -1.587302e-02
     vertex -8.121387e-01 -3.198469e-01  1.587302e-01
     vertex -8.033410e-01 -3.020990e-01  1.587302e-01
   endloop
 endfacet
 facet normal -8.959610e-01  4.441327e-01  0.000000e+00
   outer loop
     vertex -8.033410e-01 -3.020990e-01 -1.587302e-02
     vertex -8.121387e-01 -3.198469e-01 -1.587302e-02
     vertex -8.121387e-01 -3.198469e-01  1.587302e-01
   endloop
 endfacet
 facet normal -9.621195e-01  2.726282e-01  0.000000e+00
   outer loop
     vertex -7.979406e-01 -2.830406e-01 -1.587302e-02
     vertex -8.033410e-01 -3.020990e-01  1.587302e-01
     vertex -7.979406e-01 -2.830406e-01  1.587302e-01
   endloop
 endfacet
 facet normal -9.621195e-01  2.726282e-01  0.000000e+00
   outer loop
     vertex -7.979406e-01 -2.830406e-01 -1.587302e-02
     vertex -8.033410e-01 -3.020990e-01 -1.587302e-02
     vertex -8.033410e-01 -3.020990e-01  1.587302e-01
   endloop
 endfacet
 facet normal -9.957672e-01  9.191130e-02  0.000000e+00
   outer loop
     vertex -7.961199e-01 -2.633157e-01 -1.587302e-02
     vertex -7.979406e-01 -2.830406e-01  1.587302e-01
     vertex -7.961199e-01 -2.633157e-01  1.587302e-01
   endloop
 endfacet
 facet normal -9.957672e-01  9.191130e-02  0.000000e+00
   outer loop
     vertex -7.961199e-01 -2.633157e-01 -1.587302e-02
     vertex -7.979406e-01 -2.830406e-01 -1.587302e-02
     vertex -7.979406e-01 -2.830406e-01  1.587302e-01
   endloop
 endfacet
 facet normal -9.958352e-01 -9.117175e-02  0.000000e+00
   outer loop
     vertex -9.667582e-01 -3.694377e-01 -1.587302e-02
     vertex -9.680776e-01 -3.550265e-01  1.587302e-01
     vertex -9.680776e-01 -3.550265e-01 -1.587302e-02
   endloop
 endfacet
 facet normal -9.958352e-01 -9.117175e-02  0.000000e+00
   outer loop
     vertex -9.667582e-01 -3.694377e-01 -1.587302e-02
     vertex -9.667582e-01 -3.694377e-01  1.587302e-01
     vertex -9.680776e-01 -3.550265e-01  1.587302e-01
   endloop
 endfacet
 facet normal -9.483937e-01 -3.170952e-01  0.000000e+00
   outer loop
     vertex -9.621694e-01 -3.831624e-01 -1.587302e-02
     vertex -9.621694e-01 -3.831624e-01  1.587302e-01
     vertex -9.667582e-01 -3.694377e-01  1.587302e-01
   endloop
 endfacet
 facet normal -9.483937e-01 -3.170952e-01  0.000000e+00
   outer loop
     vertex -9.621694e-01 -3.831624e-01 -1.587302e-02
     vertex -9.667582e-01 -3.694377e-01  1.587302e-01
     vertex -9.667582e-01 -3.694377e-01 -1.587302e-02
   endloop
 endfacet
 facet normal -8.504103e-01 -5.261200e-01  0.000000e+00
   outer loop
     vertex -9.545556e-01 -3.954691e-01 -1.587302e-02
     vertex -9.545556e-01 -3.954691e-01  1.587302e-01
     vertex -9.621694e-01 -3.831624e-01  1.587302e-01
   endloop
 endfacet
 facet normal -8.504103e-01 -5.261200e-01  0.000000e+00
   outer loop
     vertex -9.545556e-01 -3.954691e-01 -1.587302e-02
     vertex -9.621694e-01 -3.831624e-01  1.587302e-01
     vertex -9.621694e-01 -3.831624e-01 -1.587302e-02
   endloop
 endfacet
 facet normal -7.071068e-01 -7.071068e-01  0.000000e+00
   outer loop
     vertex -9.443227e-01 -4.057020e-01 -1.587302e-02
     vertex -9.443227e-01 -4.057020e-01  1.587302e-01
     vertex -9.545556e-01 -3.954691e-01  1.587302e-01
   endloop
 endfacet
 facet normal -7.071068e-01 -7.071068e-01  0.000000e+00
   outer loop
     vertex -9.443227e-01 -4.057020e-01 -1.587302e-02
     vertex -9.545556e-01 -3.954691e-01  1.587302e-01
     vertex -9.545556e-01 -3.954691e-01 -1.587302e-02
   endloop
 endfacet
 facet normal -5.261200e-01 -8.504103e-01  0.000000e+00
   outer loop
     vertex -9.320160e-01 -4.133158e-01 -1.587302e-02
     vertex -9.320160e-01 -4.133158e-01  1.587302e-01
     vertex -9.443227e-01 -4.057020e-01  1.587302e-01
   endloop
 endfacet
 facet normal -5.261200e-01 -8.504103e-01  0.000000e+00
   outer loop
     vertex -9.320160e-01 -4.133158e-01 -1.587302e-02
     vertex -9.443227e-01 -4.057020e-01  1.587302e-01
     vertex -9.443227e-01 -4.057020e-01 -1.587302e-02
   endloop
 endfacet
 facet normal -3.170952e-01 -9.483937e-01  0.000000e+00
   outer loop
     vertex -9.182913e-01 -4.179046e-01 -1.587302e-02
     vertex -9.182913e-01 -4.179046e-01  1.587302e-01
     vertex -9.320160e-01 -4.133158e-01  1.587302e-01
   endloop
 endfacet
 facet normal -3.170952e-01 -9.483937e-01  0.000000e+00
   outer loop
     vertex -9.182913e-01 -4.179046e-01 -1.587302e-02
     vertex -9.320160e-01 -4.133158e-01  1.587302e-01
     vertex -9.320160e-01 -4.133158e-01 -1.587302e-02
   endloop
 endfacet
 facet normal -9.117175e-02 -9.958352e-01  0.000000e+00
   outer loop
     vertex -9.038801e-01 -4.192240e-01 -1.587302e-02
     vertex -9.038801e-01 -4.192240e-01  1.587302e-01
     vertex -9.182913e-01 -4.179046e-01  1.587302e-01
   endloop
 endfacet
 facet normal -9.117175e-02 -9.958352e-01  0.000000e+00
   outer loop
     vertex -9.038801e-01 -4.192240e-01 -1.587302e-02
     vertex -9.182913e-01 -4.179046e-01  1.587302e-01
     vertex -9.182913e-01 -4.179046e-01 -1.587302e-02
   endloop
 endfacet
 facet normal -1.000000e+00  1.936194e-13  0.000000e+00
   outer loop
     vertex -9.680776e-01 -3.550265e-01 -1.587302e-02
     vertex -9.680776e-01 -3.498658e-01 -1.587302e-02
     vertex -9.680776e-01 -3.498658e-01 -3.174603e-02
   endloop
 endfacet
 facet normal -1.000000e+00  1.936194e-13  0.000000e+00
   outer loop
     vertex -9.680776e-01 -3.550265e-01 -1.587302e-02
     vertex -9.680776e-01 -3.498658e-01 -3.174603e-02
     vertex -9.680776e-01 -3.550265e-01 -3.174603e-02
   endloop
 endfacet
 facet normal  0.000000e+00  0.000000e+00  1.000000e+00
   outer loop
     vertex -9.511504e-01 -3.601546e-01  1.587302e-01
     vertex -9.680776e-01 -3.498658e-01  1.587302e-01
     vertex -9.680776e-01 -3.550265e-01  1.587302e-01
   endloop
 endfacet
 facet normal  0.000000e+00  0.000000e+00  1.000000e+00
   outer loop
     vertex -9.511504e-01 -3.601546e-01  1.587302e-01
     vertex -9.680776e-01 -3.550265e-01  1.587302e-01
     vertex -9.667582e-01 -3.694377e-01  1.587302e-01
   endloop
 endfacet
 facet normal  0.000000e+00  0.000000e+00  1.000000e+00
   outer loop
     vertex -9.511504e-01 -3.601546e-01  1.587302e-01
     vertex -9.667582e-01 -3.694377e-01  1.587302e-01
     vertex -9.621694e-01 -3.831624e-01  1.587302e-01
   endloop
 endfacet
 facet normal  0.000000e+00  0.000000e+00  1.000000e+00
   outer loop
     vertex -9.326260e-01 -3.671710e-01  1.587302e-01
     vertex -9.621694e-01 -3.831624e-01  1.587302e-01
     vertex -9.545556e-01 -3.954691e-01  1.587302e-01
   endloop
 endfacet
 facet normal  0.000000e+00  0.000000e+00  1.000000e+00
   outer loop
     vertex -9.326260e-01 -3.671710e-01  1.587302e-01
     vertex -9.545556e-01 -3.954691e-01  1.587302e-01
     vertex -9.443227e-01 -4.057020e-01  1.587302e-01
   endloop
 endfacet
 facet normal  0.000000e+00  0.000000e+00  1.000000e+00
   outer loop
     vertex -9.326260e-01 -3.671710e-01  1.587302e-01
     vertex -9.511504e-01 -3.601546e-01  1.587302e-01
     vertex -9.621694e-01 -3.831624e-01  1.587302e-01
   endloop
 endfacet
 facet normal  0.000000e+00  0.000000e+00  1.000000e+00
   outer loop
     vertex -9.131301e-01 -3.706781e-01  1.587302e-01
     vertex -9.443227e-01 -4.057020e-01  1.587302e-01
     vertex -9.320160e-01 -4.133158e-01  1.587302e-01
   endloop
 endfacet
 facet normal  0.000000e+00  0.000000e+00  1.000000e+00
   outer loop
     vertex -9.131301e-01 -3.706781e-01  1.587302e-01
     vertex -9.320160e-01 -4.133158e-01  1.587302e-01
     vertex -9.182913e-01 -4.179046e-01  1.587302e-01
   endloop
 endfacet
 facet normal  0.000000e+00  0.000000e+00  1.000000e+00
   outer loop
     vertex -9.131301e-01 -3.706781e-01  1.587302e-01
     vertex -9.182913e-01 -4.179046e-01  1.587302e-01
     vertex -9.038801e-01 -4.192240e-01  1.587302e-01
   endloop
 endfacet
 facet normal  0.000000e+00  0.000000e+00  1.000000e+00
   outer loop
     vertex -9.131301e-01 -3.706781e-01  1.587302e-01
     vertex -9.326260e-01 -3.671710e-01  1.587302e-01
     vertex -9.443227e-01 -4.057020e-01  1.587302e-01
   endloop
 endfacet
 facet normal  0.000000e+00  0.000000e+00  1.000000e+00
   outer loop
     vertex -8.933218e-01 -3.705574e-01  1.587302e-01
     vertex -9.131301e-01 -3.706781e-01  1.587302e-01
     vertex -9.038801e-01 -4.192240e-01  1.587302e-01
   endloop
 endfacet
 facet normal  0.000000e+00  0.000000e+00  1.000000e+00
   outer loop
     vertex -8.738702e-01 -3.668128e-01  1.587302e-01
     vertex -8.933218e-01 -3.705574e-01  1.587302e-01
     vertex -9.038801e-01 -4.192240e-01  1.587302e-01
   endloop
 endfacet
 facet normal  0.000000e+00  0.000000e+00  1.000000e+00
   outer loop
     vertex -8.554326e-01 -3.595711e-01  1.587302e-01
     vertex -8.738702e-01 -3.668128e-01  1.587302e-01
     vertex -9.038801e-01 -4.192240e-01  1.587302e-01
   endloop
 endfacet
 facet normal  0.000000e+00  0.000000e+00  1.000000e+00
   outer loop
     vertex -8.386321e-01 -3.490767e-01  1.587302e-01
     vertex -8.554326e-01 -3.595711e-01  1.587302e-01
     vertex -9.038801e-01 -4.192240e-01  1.587302e-01
   endloop
 endfacet
 facet normal  0.000000e+00  0.000000e+00  1.000000e+00
   outer loop
     vertex -9.511504e-01 -1.664769e-01  1.587302e-01
     vertex -9.667582e-01 -1.571937e-01  1.587302e-01
     vertex -9.680776e-01 -1.716049e-01  1.587302e-01
   endloop
 endfacet
 facet normal  0.000000e+00  0.000000e+00  1.000000e+00
   outer loop
     vertex -9.511504e-01 -1.664769e-01  1.587302e-01
     vertex -9.680776e-01 -1.716049e-01  1.587302e-01
     vertex -9.680776e-01 -1.767656e-01  1.587302e-01
   endloop
 endfacet
 facet normal  0.000000e+00  0.000000e+00  1.000000e+00
   outer loop
     vertex -9.621694e-01 -1.434690e-01  1.587302e-01
     vertex -9.667582e-01 -1.571937e-01  1.587302e-01
     vertex -9.511504e-01 -1.664769e-01  1.587302e-01
   endloop
 endfacet
 facet normal  0.000000e+00  0.000000e+00  1.000000e+00
   outer loop
     vertex -9.326260e-01 -1.594604e-01  1.587302e-01
     vertex -9.621694e-01 -1.434690e-01  1.587302e-01
     vertex -9.511504e-01 -1.664769e-01  1.587302e-01
   endloop
 endfacet
 facet normal  0.000000e+00  0.000000e+00  1.000000e+00
   outer loop
     vertex -9.545556e-01 -1.311623e-01  1.587302e-01
     vertex -9.621694e-01 -1.434690e-01  1.587302e-01
     vertex -9.326260e-01 -1.594604e-01  1.587302e-01
   endloop
 endfacet
 facet normal  0.000000e+00  0.000000e+00  1.000000e+00
   outer loop
     vertex -9.443227e-01 -1.209294e-01  1.587302e-01
     vertex -9.545556e-01 -1.311623e-01  1.587302e-01
     vertex -9.326260e-01 -1.594604e-01  1.587302e-01
   endloop
 endfacet
 facet normal  0.000000e+00  0.000000e+00  1.000000e+00
   outer loop
     vertex -9.443227e-01 -1.209294e-01  1.587302e-01
     vertex -9.326260e-01 -1.594604e-01  1.587302e-01
     vertex -9.131301e-01 -1.559533e-01  1.587302e-01
   endloop
 endfacet
 facet normal  0.000000e+00  0.000000e+00  1.000000e+00
   outer loop
     vertex -9.320160e-01 -1.133156e-01  1.587302e-01
     vertex -9.443227e-01 -1.209294e-01  1.587302e-01
     vertex -9.131301e-01 -1.559533e-01  1.587302e-01
   endloop
 endfacet
 facet normal  0.000000e+00  0.000000e+00  1.000000e+00
   outer loop
     vertex -9.182913e-01 -1.087268e-01  1.587302e-01
     vertex -9.320160e-01 -1.133156e-01  1.587302e-01
     vertex -9.131301e-01 -1.559533e-01  1.587302e-01
   endloop
 endfacet
 facet normal  0.000000e+00  0.000000e+00  1.000000e+00
   outer loop
     vertex -9.038801e-01 -1.074074e-01  1.587302e-01
     vertex -9.182913e-01 -1.087268e-01  1.587302e-01
     vertex -9.131301e-01 -1.559533e-01  1.587302e-01
   endloop
 endfacet
 facet normal  0.000000e+00  0.000000e+00  1.000000e+00
   outer loop
     vertex -9.038801e-01 -1.074074e-01  1.587302e-01
     vertex -8.554326e-01 -1.670604e-01  1.587302e-01
     vertex -8.386321e-01 -1.775547e-01  1.587302e-01
   endloop
 endfacet
 facet normal  0.000000e+00  0.000000e+00  1.000000e+00
   outer loop
     vertex -9.038801e-01 -1.074074e-01  1.587302e-01
     vertex -8.738702e-01 -1.598186e-01  1.587302e-01
     vertex -8.554326e-01 -1.670604e-01  1.587302e-01
   endloop
 endfacet
 facet normal  0.000000e+00  0.000000e+00  1.000000e+00
   outer loop
     vertex -9.038801e-01 -1.074074e-01  1.587302e-01
     vertex -8.933218e-01 -1.560741e-01  1.587302e-01
     vertex -8.738702e-01 -1.598186e-01  1.587302e-01
   endloop
 endfacet
 facet normal  0.000000e+00  0.000000e+00  1.000000e+00
   outer loop
     vertex -9.038801e-01 -1.074074e-01  1.587302e-01
     vertex -9.131301e-01 -1.559533e-01  1.587302e-01
     vertex -8.933218e-01 -1.560741e-01  1.587302e-01
   endloop
 endfacet
 facet normal  0.000000e+00  0.000000e+00  1.000000e+00
   outer loop
     vertex -5.370370e-01 -4.192240e-01  1.587302e-01
     vertex -8.240364e-01 -3.356845e-01  1.587302e-01
     vertex -8.386321e-01 -3.490767e-01  1.587302e-01
   endloop
 endfacet
 facet normal  0.000000e+00  0.000000e+00  1.000000e+00
   outer loop
     vertex -5.370370e-01 -4.192240e-01  1.587302e-01
     vertex -8.121387e-01 -3.198469e-01  1.587302e-01
     vertex -8.240364e-01 -3.356845e-01  1.587302e-01
   endloop
 endfacet
 facet normal  0.000000e+00  0.000000e+00  1.000000e+00
   outer loop
     vertex -5.370370e-01 -4.192240e-01  1.587302e-01
     vertex -8.033410e-01 -3.020990e-01  1.587302e-01
     vertex -8.121387e-01 -3.198469e-01  1.587302e-01
   endloop
 endfacet
 facet normal  0.000000e+00  0.000000e+00  1.000000e+00
   outer loop
     vertex -5.370370e-01 -4.192240e-01  1.587302e-01
     vertex -7.979406e-01 -2.830406e-01  1.587302e-01
     vertex -8.033410e-01 -3.020990e-01  1.587302e-01
   endloop
 endfacet
 facet normal  0.000000e+00  0.000000e+00  1.000000e+00
   outer loop
     vertex -5.370370e-01 -4.192240e-01  1.587302e-01
     vertex -7.961199e-01 -2.633157e-01  1.587302e-01
     vertex -7.979406e-01 -2.830406e-01  1.587302e-01
   endloop
 endfacet
 facet normal  0.000000e+00  0.000000e+00  1.000000e+00
   outer loop
     vertex -5.370370e-01 -4.192240e-01  1.587302e-01
     vertex -8.386321e-01 -3.490767e-01  1.587302e-01
     vertex -9.038801e-01 -4.192240e-01  1.587302e-01
   endloop
 endfacet
 facet normal  0.000000e+00  0.000000e+00  1.000000e+00
   outer loop
     vertex -5.122525e-01 -4.201178e-01  1.587302e-01
     vertex -5.370370e-01 -4.192240e-01  1.587302e-01
     vertex -5.247005e-01 -4.212169e-01  1.587302e-01
   endloop
 endfacet
 facet normal  0.000000e+00  0.000000e+00  1.000000e+00
   outer loop
     vertex -4.816261e-01 -3.998541e-01  1.587302e-01
     vertex -5.122525e-01 -4.201178e-01  1.587302e-01
     vertex -5.004561e-01 -4.159941e-01  1.587302e-01
   endloop
 endfacet
 facet normal  0.000000e+00  0.000000e+00  1.000000e+00
   outer loop
     vertex -4.816261e-01 -3.998541e-01  1.587302e-01
     vertex -5.004561e-01 -4.159941e-01  1.587302e-01
     vertex -4.900344e-01 -4.090987e-01  1.587302e-01
   endloop
 endfacet
 facet normal  0.000000e+00  0.000000e+00  1.000000e+00
   outer loop
     vertex -4.727568e-01 -3.766937e-01  1.587302e-01
     vertex -4.816261e-01 -3.998541e-01  1.587302e-01
     vertex -4.757468e-01 -3.888271e-01  1.587302e-01
   endloop
 endfacet
 facet normal  0.000000e+00  0.000000e+00  1.000000e+00
   outer loop
     vertex -4.728395e-01 -3.641976e-01  1.587302e-01
     vertex -5.122525e-01 -4.201178e-01  1.587302e-01
     vertex -4.816261e-01 -3.998541e-01  1.587302e-01
   endloop
 endfacet
 facet normal  0.000000e+00  0.000000e+00  1.000000e+00
   outer loop
     vertex -4.728395e-01 -3.641976e-01  1.587302e-01
     vertex -4.816261e-01 -3.998541e-01  1.587302e-01
     vertex -4.727568e-01 -3.766937e-01  1.587302e-01
   endloop
 endfacet
 facet normal  0.000000e+00  0.000000e+00  1.000000e+00
   outer loop
     vertex -4.728395e-01 -3.641976e-01  1.587302e-01
     vertex -5.370370e-01 -4.192240e-01  1.587302e-01
     vertex -5.122525e-01 -4.201178e-01  1.587302e-01
   endloop
 endfacet
 facet normal  0.000000e+00  0.000000e+00  1.000000e+00
   outer loop
     vertex -4.728395e-01 -2.633157e-01  1.587302e-01
     vertex -7.961199e-01 -2.633157e-01  1.587302e-01
     vertex -5.370370e-01 -4.192240e-01  1.587302e-01
   endloop
 endfacet
 facet normal  0.000000e+00  0.000000e+00  1.000000e+00
   outer loop
     vertex -4.728395e-01 -2.633157e-01  1.587302e-01
     vertex -5.370370e-01 -4.192240e-01  1.587302e-01
     vertex -4.728395e-01 -3.641976e-01  1.587302e-01
   endloop
 endfacet
 facet normal  0.000000e+00  0.000000e+00  1.000000e+00
   outer loop
     vertex -5.370370e-01 -1.074074e-01  1.587302e-01
     vertex -7.961199e-01 -2.633157e-01  1.587302e-01
     vertex -4.728395e-01 -2.633157e-01  1.587302e-01
   endloop
 endfacet
 facet normal  0.000000e+00  0.000000e+00  1.000000e+00
   outer loop
     vertex -5.370370e-01 -1.074074e-01  1.587302e-01
     vertex -7.979406e-01 -2.435908e-01  1.587302e-01
     vertex -7.961199e-01 -2.633157e-01  1.587302e-01
   endloop
 endfacet
 facet normal  0.000000e+00  0.000000e+00  1.000000e+00
   outer loop
     vertex -5.370370e-01 -1.074074e-01  1.587302e-01
     vertex -8.033410e-01 -2.245324e-01  1.587302e-01
     vertex -7.979406e-01 -2.435908e-01  1.587302e-01
   endloop
 endfacet
 facet normal  0.000000e+00  0.000000e+00  1.000000e+00
   outer loop
     vertex -5.370370e-01 -1.074074e-01  1.587302e-01
     vertex -8.121387e-01 -2.067846e-01  1.587302e-01
     vertex -8.033410e-01 -2.245324e-01  1.587302e-01
   endloop
 endfacet
 facet normal  0.000000e+00  0.000000e+00  1.000000e+00
   outer loop
     vertex -5.370370e-01 -1.074074e-01  1.587302e-01
     vertex -8.240364e-01 -1.909469e-01  1.587302e-01
     vertex -8.121387e-01 -2.067846e-01  1.587302e-01
   endloop
 endfacet
 facet normal  0.000000e+00  0.000000e+00  1.000000e+00
   outer loop
     vertex -5.370370e-01 -1.074074e-01  1.587302e-01
     vertex -8.386321e-01 -1.775547e-01  1.587302e-01
     vertex -8.240364e-01 -1.909469e-01  1.587302e-01
   endloop
 endfacet
 facet normal  0.000000e+00  0.000000e+00  1.000000e+00
   outer loop
     vertex -5.370370e-01 -1.074074e-01  1.587302e-01
     vertex -9.038801e-01 -1.074074e-01  1.587302e-01
     vertex -8.386321e-01 -1.775547e-01  1.587302e-01
   endloop
 endfacet
 facet normal  0.000000e+00  0.000000e+00  1.000000e+00
   outer loop
     vertex -4.728395e-01 -1.624339e-01  1.587302e-01
     vertex -5.370370e-01 -1.074074e-01  1.587302e-01
     vertex -4.728395e-01 -2.633157e-01  1.587302e-01
   endloop
 endfacet
 facet normal  0.000000e+00  0.000000e+00  1.000000e+00
   outer loop
     vertex -4.900344e-01 -1.175328e-01  1.587302e-01
     vertex -4.728395e-01 -1.624339e-01  1.587302e-01
     vertex -4.727568e-01 -1.499377e-01  1.587302e-01
   endloop
 endfacet
 facet normal  0.000000e+00  0.000000e+00  1.000000e+00
   outer loop
     vertex -4.900344e-01 -1.175328e-01  1.587302e-01
     vertex -4.727568e-01 -1.499377e-01  1.587302e-01
     vertex -4.757468e-01 -1.378043e-01  1.587302e-01
   endloop
 endfacet
 facet normal  0.000000e+00  0.000000e+00  1.000000e+00
   outer loop
     vertex -4.900344e-01 -1.175328e-01  1.587302e-01
     vertex -4.757468e-01 -1.378043e-01  1.587302e-01
     vertex -4.816261e-01 -1.267773e-01  1.587302e-01
   endloop
 endfacet
 facet normal  0.000000e+00  0.000000e+00  1.000000e+00
   outer loop
     vertex -4.900344e-01 -1.175328e-01  1.587302e-01
     vertex -5.004561e-01 -1.106373e-01  1.587302e-01
     vertex -5.122526e-01 -1.065137e-01  1.587302e-01
   endloop
 endfacet
 facet normal  0.000000e+00  0.000000e+00  1.000000e+00
   outer loop
     vertex -4.900344e-01 -1.175328e-01  1.587302e-01
     vertex -5.122526e-01 -1.065137e-01  1.587302e-01
     vertex -5.247005e-01 -1.054146e-01  1.587302e-01
   endloop
 endfacet
 facet normal  0.000000e+00  0.000000e+00  1.000000e+00
   outer loop
     vertex -4.900344e-01 -1.175328e-01  1.587302e-01
     vertex -5.247005e-01 -1.054146e-01  1.587302e-01
     vertex -5.370370e-01 -1.074074e-01  1.587302e-01
   endloop
 endfacet
 facet normal  0.000000e+00  0.000000e+00  1.000000e+00
   outer loop
     vertex -4.900344e-01 -1.175328e-01  1.587302e-01
     vertex -5.370370e-01 -1.074074e-01  1.587302e-01
     vertex -4.728395e-01 -1.624339e-01  1.587302e-01
   endloop
 endfacet
 facet normal -9.957672e-01 -9.191130e-02  0.000000e+00
   outer loop
     vertex -7.979406e-01 -2.435908e-01 -1.587302e-02
     vertex -7.961199e-01 -2.633157e-01 -1.587302e-02
     vertex -7.961199e-01 -2.633157e-01  1.587302e-01
   endloop
 endfacet
 facet normal -9.957672e-01 -9.191130e-02  0.000000e+00
   outer loop
     vertex -7.979406e-01 -2.435908e-01 -1.587302e-02
     vertex -7.961199e-01 -2.633157e-01  1.587302e-01
     vertex -7.979406e-01 -2.435908e-01  1.587302e-01
   endloop
 endfacet
 facet normal -9.621195e-01 -2.726282e-01  0.000000e+00
   outer loop
     vertex -8.033410e-01 -2.245324e-01 -1.587302e-02
     vertex -7.979406e-01 -2.435908e-01  1.587302e-01
     vertex -8.033410e-01 -2.245324e-01  1.587302e-01
   endloop
 endfacet
 facet normal -9.621195e-01 -2.726282e-01  0.000000e+00
   outer loop
     vertex -8.033410e-01 -2.245324e-01 -1.587302e-02
     vertex -7.979406e-01 -2.435908e-01 -1.587302e-02
     vertex -7.979406e-01 -2.435908e-01  1.587302e-01
   endloop
 endfacet
 facet normal -8.959610e-01 -4.441327e-01  0.000000e+00
   outer loop
     vertex -8.121387e-01 -2.067846e-01 -1.587302e-02
     vertex -8.033410e-01 -2.245324e-01  1.587302e-01
     vertex -8.121387e-01 -2.067846e-01  1.587302e-01
   endloop
 endfacet
 facet normal -8.959610e-01 -4.441327e-01  0.000000e+00
   outer loop
     vertex -8.121387e-01 -2.067846e-01 -1.587302e-02
     vertex -8.033410e-01 -2.245324e-01 -1.587302e-02
     vertex -8.033410e-01 -2.245324e-01  1.587302e-01
   endloop
 endfacet
 facet normal -7.995274e-01 -6.006297e-01  0.000000e+00
   outer loop
     vertex -8.240364e-01 -1.909469e-01 -1.587302e-02
     vertex -8.121387e-01 -2.067846e-01  1.587302e-01
     vertex -8.240364e-01 -1.909469e-01  1.587302e-01
   endloop
 endfacet
 facet normal -7.995274e-01 -6.006297e-01  0.000000e+00
   outer loop
     vertex -8.240364e-01 -1.909469e-01 -1.587302e-02
     vertex -8.121387e-01 -2.067846e-01 -1.587302e-02
     vertex -8.121387e-01 -2.067846e-01  1.587302e-01
   endloop
 endfacet
 facet normal -6.760771e-01 -7.368309e-01  0.000000e+00
   outer loop
     vertex -8.386321e-01 -1.775547e-01 -1.587302e-02
     vertex -8.240364e-01 -1.909469e-01  1.587302e-01
     vertex -8.386321e-01 -1.775547e-01  1.587302e-01
   endloop
 endfacet
 facet normal -6.760771e-01 -7.368309e-01  0.000000e+00
   outer loop
     vertex -8.386321e-01 -1.775547e-01 -1.587302e-02
     vertex -8.240364e-01 -1.909469e-01 -1.587302e-02
     vertex -8.240364e-01 -1.909469e-01  1.587302e-01
   endloop
 endfacet
 facet normal -5.297816e-01 -8.481341e-01  0.000000e+00
   outer loop
     vertex -8.554326e-01 -1.670604e-01 -1.587302e-02
     vertex -8.386321e-01 -1.775547e-01  1.587302e-01
     vertex -8.554326e-01 -1.670604e-01  1.587302e-01
   endloop
 endfacet
 facet normal -5.297816e-01 -8.481341e-01  0.000000e+00
   outer loop
     vertex -8.554326e-01 -1.670604e-01 -1.587302e-02
     vertex -8.386321e-01 -1.775547e-01 -1.587302e-02
     vertex -8.386321e-01 -1.775547e-01  1.587302e-01
   endloop
 endfacet
 facet normal -3.655845e-01 -9.307782e-01  0.000000e+00
   outer loop
     vertex -8.738702e-01 -1.598186e-01 -1.587302e-02
     vertex -8.554326e-01 -1.670604e-01  1.587302e-01
     vertex -8.738702e-01 -1.598186e-01  1.587302e-01
   endloop
 endfacet
 facet normal -3.655845e-01 -9.307782e-01  0.000000e+00
   outer loop
     vertex -8.738702e-01 -1.598186e-01 -1.587302e-02
     vertex -8.554326e-01 -1.670604e-01 -1.587302e-02
     vertex -8.554326e-01 -1.670604e-01  1.587302e-01
   endloop
 endfacet
 facet normal -1.890340e-01 -9.819706e-01  0.000000e+00
   outer loop
     vertex -8.933218e-01 -1.560741e-01 -1.587302e-02
     vertex -8.738702e-01 -1.598186e-01  1.587302e-01
     vertex -8.933218e-01 -1.560741e-01  1.587302e-01
   endloop
 endfacet
 facet normal -1.890340e-01 -9.819706e-01  0.000000e+00
   outer loop
     vertex -8.933218e-01 -1.560741e-01 -1.587302e-02
     vertex -8.738702e-01 -1.598186e-01 -1.587302e-02
     vertex -8.738702e-01 -1.598186e-01  1.587302e-01
   endloop
 endfacet
 facet normal -6.095834e-03 -9.999814e-01  0.000000e+00
   outer loop
     vertex -9.131301e-01 -1.559533e-01 -1.587302e-02
     vertex -8.933218e-01 -1.560741e-01  1.587302e-01
     vertex -9.131301e-01 -1.559533e-01  1.587302e-01
   endloop
 endfacet
 facet normal  1.770483e-01 -9.842022e-01  0.000000e+00
   outer loop
     vertex -9.131301e-01 -1.559533e-01 -1.587302e-02
     vertex -9.131301e-01 -1.559533e-01  1.587302e-01
     vertex -9.326260e-01 -1.594604e-01  1.587302e-01
   endloop
 endfacet
 facet normal -6.095834e-03 -9.999814e-01  0.000000e+00
   outer loop
     vertex -9.131301e-01 -1.559533e-01 -1.587302e-02
     vertex -8.933218e-01 -1.560741e-01 -1.587302e-02
     vertex -8.933218e-01 -1.560741e-01  1.587302e-01
   endloop
 endfacet
 facet normal  1.770483e-01 -9.842022e-01  0.000000e+00
   outer loop
     vertex -9.326260e-01 -1.594604e-01 -1.587302e-02
     vertex -9.131301e-01 -1.559533e-01 -1.587302e-02
     vertex -9.326260e-01 -1.594604e-01  1.587302e-01
   endloop
 endfacet
 facet normal  3.542098e-01 -9.351660e-01  0.000000e+00
   outer loop
     vertex -9.511504e-01 -1.664769e-01 -1.587302e-02
     vertex -9.326260e-01 -1.594604e-01  1.587302e-01
     vertex -9.511504e-01 -1.664769e-01  1.587302e-01
   endloop
 endfacet
 facet normal  3.542098e-01 -9.351660e-01  0.000000e+00
   outer loop
     vertex -9.511504e-01 -1.664769e-01 -1.587302e-02
     vertex -9.326260e-01 -1.594604e-01 -1.587302e-02
     vertex -9.326260e-01 -1.594604e-01  1.587302e-01
   endloop
 endfacet
 facet normal  5.194023e-01 -8.545298e-01  0.000000e+00
   outer loop
     vertex -9.680776e-01 -1.767656e-01 -1.587302e-02
     vertex -9.511504e-01 -1.664769e-01  1.587302e-01
     vertex -9.680776e-01 -1.767656e-01  1.587302e-01
   endloop
 endfacet
 facet normal  5.194023e-01 -8.545298e-01  0.000000e+00
   outer loop
     vertex -9.680776e-01 -1.767656e-01 -1.587302e-02
     vertex -9.511504e-01 -1.664769e-01 -1.587302e-02
     vertex -9.511504e-01 -1.664769e-01  1.587302e-01
   endloop
 endfacet
 facet normal  5.194023e-01  8.545298e-01  0.000000e+00
   outer loop
     vertex -9.511504e-01 -3.601546e-01 -1.587302e-02
     vertex -9.680776e-01 -3.498658e-01 -3.174603e-02
     vertex -9.680776e-01 -3.498658e-01 -1.587302e-02
   endloop
 endfacet
 facet normal  5.194023e-01  8.545298e-01  0.000000e+00
   outer loop
     vertex -9.511504e-01 -3.601546e-01 -1.587302e-02
     vertex -9.511504e-01 -3.601546e-01 -3.174603e-02
     vertex -9.680776e-01 -3.498658e-01 -3.174603e-02
   endloop
 endfacet
 facet normal  3.542098e-01  9.351660e-01  0.000000e+00
   outer loop
     vertex -9.326260e-01 -3.671710e-01 -1.587302e-02
     vertex -9.326260e-01 -3.671710e-01 -3.174603e-02
     vertex -9.511504e-01 -3.601546e-01 -3.174603e-02
   endloop
 endfacet
 facet normal  3.542098e-01  9.351660e-01  0.000000e+00
   outer loop
     vertex -9.326260e-01 -3.671710e-01 -1.587302e-02
     vertex -9.511504e-01 -3.601546e-01 -3.174603e-02
     vertex -9.511504e-01 -3.601546e-01 -1.587302e-02
   endloop
 endfacet
 facet normal  1.770483e-01  9.842022e-01  0.000000e+00
   outer loop
     vertex -9.131301e-01 -3.706781e-01 -1.587302e-02
     vertex -9.131301e-01 -3.706781e-01 -3.174603e-02
     vertex -9.326260e-01 -3.671710e-01 -3.174603e-02
   endloop
 endfacet
 facet normal  1.770483e-01  9.842022e-01  0.000000e+00
   outer loop
     vertex -9.131301e-01 -3.706781e-01 -1.587302e-02
     vertex -9.326260e-01 -3.671710e-01 -3.174603e-02
     vertex -9.326260e-01 -3.671710e-01 -1.587302e-02
   endloop
 endfacet
 facet normal -6.095834e-03  9.999814e-01  0.000000e+00
   outer loop
     vertex -8.933218e-01 -3.705574e-01 -1.587302e-02
     vertex -8.933218e-01 -3.705574e-01 -3.174603e-02
     vertex -9.131301e-01 -3.706781e-01 -3.174603e-02
   endloop
 endfacet
 facet normal -6.095834e-03  9.999814e-01  0.000000e+00
   outer loop
     vertex -8.933218e-01 -3.705574e-01 -1.587302e-02
     vertex -9.131301e-01 -3.706781e-01 -3.174603e-02
     vertex -9.131301e-01 -3.706781e-01 -1.587302e-02
   endloop
 endfacet
 facet normal -1.890340e-01  9.819706e-01  0.000000e+00
   outer loop
     vertex -8.738702e-01 -3.668128e-01 -1.587302e-02
     vertex -8.738702e-01 -3.668128e-01 -3.174603e-02
     vertex -8.933218e-01 -3.705574e-01 -3.174603e-02
   endloop
 endfacet
 facet normal -1.890340e-01  9.819706e-01  0.000000e+00
   outer loop
     vertex -8.738702e-01 -3.668128e-01 -1.587302e-02
     vertex -8.933218e-01 -3.705574e-01 -3.174603e-02
     vertex -8.933218e-01 -3.705574e-01 -1.587302e-02
   endloop
 endfacet
 facet normal -3.655845e-01  9.307782e-01  0.000000e+00
   outer loop
     vertex -8.554326e-01 -3.595711e-01 -1.587302e-02
     vertex -8.554326e-01 -3.595711e-01 -3.174603e-02
     vertex -8.738702e-01 -3.668128e-01 -3.174603e-02
   endloop
 endfacet
 facet normal -3.655845e-01  9.307782e-01  0.000000e+00
   outer loop
     vertex -8.554326e-01 -3.595711e-01 -1.587302e-02
     vertex -8.738702e-01 -3.668128e-01 -3.174603e-02
     vertex -8.738702e-01 -3.668128e-01 -1.587302e-02
   endloop
 endfacet
 facet normal -5.297816e-01  8.481341e-01  0.000000e+00
   outer loop
     vertex -8.386321e-01 -3.490767e-01 -1.587302e-02
     vertex -8.386321e-01 -3.490767e-01 -3.174603e-02
     vertex -8.554326e-01 -3.595711e-01 -3.174603e-02
   endloop
 endfacet
 facet normal -5.297816e-01  8.481341e-01  0.000000e+00
   outer loop
     vertex -8.386321e-01 -3.490767e-01 -1.587302e-02
     vertex -8.554326e-01 -3.595711e-01 -3.174603e-02
     vertex -8.554326e-01 -3.595711e-01 -1.587302e-02
   endloop
 endfacet
 facet normal -6.760771e-01  7.368309e-01  0.000000e+00
   outer loop
     vertex -8.240364e-01 -3.356845e-01 -1.587302e-02
     vertex -8.240364e-01 -3.356845e-01 -3.174603e-02
     vertex -8.386321e-01 -3.490767e-01 -3.174603e-02
   endloop
 endfacet
 facet normal -6.760771e-01  7.368309e-01  0.000000e+00
   outer loop
     vertex -8.240364e-01 -3.356845e-01 -1.587302e-02
     vertex -8.386321e-01 -3.490767e-01 -3.174603e-02
     vertex -8.386321e-01 -3.490767e-01 -1.587302e-02
   endloop
 endfacet
 facet normal -7.995274e-01  6.006297e-01  0.000000e+00
   outer loop
     vertex -8.121387e-01 -3.198469e-01 -1.587302e-02
     vertex -8.121387e-01 -3.198469e-01 -3.174603e-02
     vertex -8.240364e-01 -3.356845e-01 -3.174603e-02
   endloop
 endfacet
 facet normal -7.995274e-01  6.006297e-01  0.000000e+00
   outer loop
     vertex -8.121387e-01 -3.198469e-01 -1.587302e-02
     vertex -8.240364e-01 -3.356845e-01 -3.174603e-02
     vertex -8.240364e-01 -3.356845e-01 -1.587302e-02
   endloop
 endfacet
 facet normal -8.959610e-01  4.441327e-01  0.000000e+00
   outer loop
     vertex -8.033410e-01 -3.020990e-01 -1.587302e-02
     vertex -8.033410e-01 -3.020990e-01 -3.174603e-02
     vertex -8.121387e-01 -3.198469e-01 -3.174603e-02
   endloop
 endfacet
 facet normal -8.959610e-01  4.441327e-01  0.000000e+00
   outer loop
     vertex -8.033410e-01 -3.020990e-01 -1.587302e-02
     vertex -8.121387e-01 -3.198469e-01 -3.174603e-02
     vertex -8.121387e-01 -3.198469e-01 -1.587302e-02
   endloop
 endfacet
 facet normal -9.621195e-01  2.726282e-01  0.000000e+00
   outer loop
     vertex -7.979406e-01 -2.830406e-01 -1.587302e-02
     vertex -7.979406e-01 -2.830406e-01 -3.174603e-02
     vertex -8.033410e-01 -3.020990e-01 -3.174603e-02
   endloop
 endfacet
 facet normal -9.621195e-01  2.726282e-01  0.000000e+00
   outer loop
     vertex -7.979406e-01 -2.830406e-01 -1.587302e-02
     vertex -8.033410e-01 -3.020990e-01 -3.174603e-02
     vertex -8.033410e-01 -3.020990e-01 -1.587302e-02
   endloop
 endfacet
 facet normal -9.957672e-01  9.191130e-02  0.000000e+00
   outer loop
     vertex -7.961199e-01 -2.633157e-01 -1.587302e-02
     vertex -7.961199e-01 -2.633157e-01 -3.174603e-02
     vertex -7.979406e-01 -2.830406e-01 -3.174603e-02
   endloop
 endfacet
 facet normal -9.957672e-01  9.191130e-02  0.000000e+00
   outer loop
     vertex -7.961199e-01 -2.633157e-01 -1.587302e-02
     vertex -7.979406e-01 -2.830406e-01 -3.174603e-02
     vertex -7.979406e-01 -2.830406e-01 -1.587302e-02
   endloop
 endfacet
 facet normal -1.513213e-16 -1.000000e+00  0.000000e+00
   outer loop
     vertex -5.370370e-01 -4.192240e-01 -1.587302e-02
     vertex -9.038801e-01 -4.192240e-01  1.587302e-01
     vertex -9.038801e-01 -4.192240e-01 -1.587302e-02
   endloop
 endfacet
 facet normal -1.513213e-16 -1.000000e+00  0.000000e+00
   outer loop
     vertex -5.370370e-01 -4.192240e-01 -1.587302e-02
     vertex -5.370370e-01 -4.192240e-01  1.587302e-01
     vertex -9.038801e-01 -4.192240e-01  1.587302e-01
   endloop
 endfacet
 facet normal -9.958352e-01 -9.117175e-02  0.000000e+00
   outer loop
     vertex -9.667582e-01 -3.694377e-01 -1.587302e-02
     vertex -9.680776e-01 -3.550265e-01 -1.587302e-02
     vertex -9.680776e-01 -3.550265e-01 -3.174603e-02
   endloop
 endfacet
 facet normal -9.958352e-01 -9.117175e-02 -0.000000e+00
   outer loop
     vertex -9.667582e-01 -3.694377e-01 -1.587302e-02
     vertex -9.680776e-01 -3.550265e-01 -3.174603e-02
     vertex -9.667582e-01 -3.694377e-01 -3.174603e-02
   endloop
 endfacet
 facet normal -9.483937e-01 -3.170952e-01 -0.000000e+00
   outer loop
     vertex -9.621694e-01 -3.831624e-01 -1.587302e-02
     vertex -9.667582e-01 -3.694377e-01 -3.174603e-02
     vertex -9.621694e-01 -3.831624e-01 -3.174603e-02
   endloop
 endfacet
 facet normal -9.483937e-01 -3.170952e-01  0.000000e+00
   outer loop
     vertex -9.621694e-01 -3.831624e-01 -1.587302e-02
     vertex -9.667582e-01 -3.694377e-01 -1.587302e-02
     vertex -9.667582e-01 -3.694377e-01 -3.174603e-02
   endloop
 endfacet
 facet normal -8.504103e-01 -5.261200e-01 -0.000000e+00
   outer loop
     vertex -9.545556e-01 -3.954691e-01 -1.587302e-02
     vertex -9.621694e-01 -3.831624e-01 -3.174603e-02
     vertex -9.545556e-01 -3.954691e-01 -3.174603e-02
   endloop
 endfacet
 facet normal -8.504103e-01 -5.261200e-01  0.000000e+00
   outer loop
     vertex -9.545556e-01 -3.954691e-01 -1.587302e-02
     vertex -9.621694e-01 -3.831624e-01 -1.587302e-02
     vertex -9.621694e-01 -3.831624e-01 -3.174603e-02
   endloop
 endfacet
 facet normal -7.071068e-01 -7.071068e-01 -0.000000e+00
   outer loop
     vertex -9.443227e-01 -4.057020e-01 -1.587302e-02
     vertex -9.545556e-01 -3.954691e-01 -3.174603e-02
     vertex -9.443227e-01 -4.057020e-01 -3.174603e-02
   endloop
 endfacet
 facet normal -7.071068e-01 -7.071068e-01  0.000000e+00
   outer loop
     vertex -9.443227e-01 -4.057020e-01 -1.587302e-02
     vertex -9.545556e-01 -3.954691e-01 -1.587302e-02
     vertex -9.545556e-01 -3.954691e-01 -3.174603e-02
   endloop
 endfacet
 facet normal -5.261200e-01 -8.504103e-01 -0.000000e+00
   outer loop
     vertex -9.320160e-01 -4.133158e-01 -1.587302e-02
     vertex -9.443227e-01 -4.057020e-01 -3.174603e-02
     vertex -9.320160e-01 -4.133158e-01 -3.174603e-02
   endloop
 endfacet
 facet normal -5.261200e-01 -8.504103e-01  0.000000e+00
   outer loop
     vertex -9.320160e-01 -4.133158e-01 -1.587302e-02
     vertex -9.443227e-01 -4.057020e-01 -1.587302e-02
     vertex -9.443227e-01 -4.057020e-01 -3.174603e-02
   endloop
 endfacet
 facet normal -3.170952e-01 -9.483937e-01 -0.000000e+00
   outer loop
     vertex -9.182913e-01 -4.179046e-01 -1.587302e-02
     vertex -9.320160e-01 -4.133158e-01 -3.174603e-02
     vertex -9.182913e-01 -4.179046e-01 -3.174603e-02
   endloop
 endfacet
 facet normal -3.170952e-01 -9.483937e-01  0.000000e+00
   outer loop
     vertex -9.182913e-01 -4.179046e-01 -1.587302e-02
     vertex -9.320160e-01 -4.133158e-01 -1.587302e-02
     vertex -9.320160e-01 -4.133158e-01 -3.174603e-02
   endloop
 endfacet
 facet normal -9.117175e-02 -9.958352e-01 -0.000000e+00
   outer loop
     vertex -9.038801e-01 -4.192240e-01 -1.587302e-02
     vertex -9.182913e-01 -4.179046e-01 -3.174603e-02
     vertex -9.038801e-01 -4.192240e-01 -3.174603e-02
   endloop
 endfacet
 facet normal -9.117175e-02 -9.958352e-01  0.000000e+00
   outer loop
     vertex -9.038801e-01 -4.192240e-01 -1.587302e-02
     vertex -9.182913e-01 -4.179046e-01 -1.587302e-02
     vertex -9.182913e-01 -4.179046e-01 -3.174603e-02
   endloop
 endfacet
 facet normal  0.000000e+00  0.000000e+00 -1.000000e+00
   outer loop
     vertex -9.511504e-01 -3.601546e-01 -3.174603e-02
     vertex -9.680776e-01 -3.550265e-01 -3.174603e-02
     vertex -9.680776e-01 -3.498658e-01 -3.174603e-02
   endloop
 endfacet
 facet normal -0.000000e+00  0.000000e+00 -1.000000e+00
   outer loop
     vertex -9.511504e-01 -3.601546e-01 -3.174603e-02
     vertex -9.667582e-01 -3.694377e-01 -3.174603e-02
     vertex -9.680776e-01 -3.550265e-01 -3.174603e-02
   endloop
 endfacet
 facet normal  0.000000e+00  0.000000e+00 -1.000000e+00
   outer loop
     vertex -9.511504e-01 -3.601546e-01 -3.174603e-02
     vertex -9.621694e-01 -3.831624e-01 -3.174603e-02
     vertex -9.667582e-01 -3.694377e-01 -3.174603e-02
   endloop
 endfacet
 facet normal  0.000000e+00  0.000000e+00 -1.000000e+00
   outer loop
     vertex -9.326260e-01 -3.671710e-01 -3.174603e-02
     vertex -9.545556e-01 -3.954691e-01 -3.174603e-02
     vertex -9.621694e-01 -3.831624e-01 -3.174603e-02
   endloop
 endfacet
 facet normal  0.000000e+00  0.000000e+00 -1.000000e+00
   outer loop
     vertex -9.326260e-01 -3.671710e-01 -3.174603e-02
     vertex -9.443227e-01 -4.057020e-01 -3.174603e-02
     vertex -9.545556e-01 -3.954691e-01 -3.174603e-02
   endloop
 endfacet
 facet normal -0.000000e+00  0.000000e+00 -1.000000e+00
   outer loop
     vertex -9.326260e-01 -3.671710e-01 -3.174603e-02
     vertex -9.621694e-01 -3.831624e-01 -3.174603e-02
     vertex -9.511504e-01 -3.601546e-01 -3.174603e-02
   endloop
 endfacet
 facet normal  0.000000e+00  0.000000e+00 -1.000000e+00
   outer loop
     vertex -9.131301e-01 -3.706781e-01 -3.174603e-02
     vertex -9.320160e-01 -4.133158e-01 -3.174603e-02
     vertex -9.443227e-01 -4.057020e-01 -3.174603e-02
   endloop
 endfacet
 facet normal  0.000000e+00  0.000000e+00 -1.000000e+00
   outer loop
     vertex -9.131301e-01 -3.706781e-01 -3.174603e-02
     vertex -9.182913e-01 -4.179046e-01 -3.174603e-02
     vertex -9.320160e-01 -4.133158e-01 -3.174603e-02
   endloop
 endfacet
 facet normal  0.000000e+00 -0.000000e+00 -1.000000e+00
   outer loop
     vertex -9.131301e-01 -3.706781e-01 -3.174603e-02
     vertex -9.038801e-01 -4.192240e-01 -3.174603e-02
     vertex -9.182913e-01 -4.179046e-01 -3.174603e-02
   endloop
 endfacet
 facet normal -0.000000e+00  0.000000e+00 -1.000000e+00
   outer loop
     vertex -9.131301e-01 -3.706781e-01 -3.174603e-02
     vertex -9.443227e-01 -4.057020e-01 -3.174603e-02
     vertex -9.326260e-01 -3.671710e-01 -3.174603e-02
   endloop
 endfacet
 facet normal  0.000000e+00  0.000000e+00 -1.000000e+00
   outer loop
     vertex -8.933218e-01 -3.705574e-01 -3.174603e-02
     vertex -9.038801e-01 -4.192240e-01 -3.174603e-02
     vertex -9.131301e-01 -3.706781e-01 -3.174603e-02
   endloop
 endfacet
 facet normal  0.000000e+00  0.000000e+00 -1.000000e+00
   outer loop
     vertex -8.738702e-01 -3.668128e-01 -3.174603e-02
     vertex -9.038801e-01 -4.192240e-01 -3.174603e-02
     vertex -8.933218e-01 -3.705574e-01 -3.174603e-02
   endloop
 endfacet
 facet normal  0.000000e+00  0.000000e+00 -1.000000e+00
   outer loop
     vertex -8.554326e-01 -3.595711e-01 -3.174603e-02
     vertex -9.038801e-01 -4.192240e-01 -3.174603e-02
     vertex -8.738702e-01 -3.668128e-01 -3.174603e-02
   endloop
 endfacet
 facet normal  0.000000e+00  0.000000e+00 -1.000000e+00
   outer loop
     vertex -8.386321e-01 -3.490767e-01 -3.174603e-02
     vertex -9.038801e-01 -4.192240e-01 -3.174603e-02
     vertex -8.554326e-01 -3.595711e-01 -3.174603e-02
   endloop
 endfacet
 facet normal -0.000000e+00  0.000000e+00 -1.000000e+00
   outer loop
     vertex -9.511504e-01 -1.664769e-01 -3.174603e-02
     vertex -9.680776e-01 -1.716049e-01 -3.174603e-02
     vertex -9.667582e-01 -1.571937e-01 -3.174603e-02
   endloop
 endfacet
 facet normal  0.000000e+00  0.000000e+00 -1.000000e+00
   outer loop
     vertex -9.511504e-01 -1.664769e-01 -3.174603e-02
     vertex -9.680776e-01 -1.767656e-01 -3.174603e-02
     vertex -9.680776e-01 -1.716049e-01 -3.174603e-02
   endloop
 endfacet
 facet normal  0.000000e+00 -0.000000e+00 -1.000000e+00
   outer loop
     vertex -9.621694e-01 -1.434690e-01 -3.174603e-02
     vertex -9.511504e-01 -1.664769e-01 -3.174603e-02
     vertex -9.667582e-01 -1.571937e-01 -3.174603e-02
   endloop
 endfacet
 facet normal -0.000000e+00  0.000000e+00 -1.000000e+00
   outer loop
     vertex -9.326260e-01 -1.594604e-01 -3.174603e-02
     vertex -9.511504e-01 -1.664769e-01 -3.174603e-02
     vertex -9.621694e-01 -1.434690e-01 -3.174603e-02
   endloop
 endfacet
 facet normal  0.000000e+00 -0.000000e+00 -1.000000e+00
   outer loop
     vertex -9.545556e-01 -1.311623e-01 -3.174603e-02
     vertex -9.326260e-01 -1.594604e-01 -3.174603e-02
     vertex -9.621694e-01 -1.434690e-01 -3.174603e-02
   endloop
 endfacet
 facet normal  0.000000e+00 -0.000000e+00 -1.000000e+00
   outer loop
     vertex -9.443227e-01 -1.209294e-01 -3.174603e-02
     vertex -9.326260e-01 -1.594604e-01 -3.174603e-02
     vertex -9.545556e-01 -1.311623e-01 -3.174603e-02
   endloop
 endfacet
 facet normal  0.000000e+00  0.000000e+00 -1.000000e+00
   outer loop
     vertex -9.443227e-01 -1.209294e-01 -3.174603e-02
     vertex -9.131301e-01 -1.559533e-01 -3.174603e-02
     vertex -9.326260e-01 -1.594604e-01 -3.174603e-02
   endloop
 endfacet
 facet normal  0.000000e+00 -0.000000e+00 -1.000000e+00
   outer loop
     vertex -9.320160e-01 -1.133156e-01 -3.174603e-02
     vertex -9.131301e-01 -1.559533e-01 -3.174603e-02
     vertex -9.443227e-01 -1.209294e-01 -3.174603e-02
   endloop
 endfacet
 facet normal  0.000000e+00 -0.000000e+00 -1.000000e+00
   outer loop
     vertex -9.182913e-01 -1.087268e-01 -3.174603e-02
     vertex -9.131301e-01 -1.559533e-01 -3.174603e-02
     vertex -9.320160e-01 -1.133156e-01 -3.174603e-02
   endloop
 endfacet
 facet normal  0.000000e+00  0.000000e+00 -1.000000e+00
   outer loop
     vertex -9.038801e-01 -1.074074e-01 -3.174603e-02
     vertex -9.131301e-01 -1.559533e-01 -3.174603e-02
     vertex -9.182913e-01 -1.087268e-01 -3.174603e-02
   endloop
 endfacet
 facet normal  0.000000e+00  0.000000e+00 -1.000000e+00
   outer loop
     vertex -9.038801e-01 -1.074074e-01 -3.174603e-02
     vertex -8.386321e-01 -1.775547e-01 -3.174603e-02
     vertex -8.554326e-01 -1.670604e-01 -3.174603e-02
   endloop
 endfacet
 facet normal  0.000000e+00  0.000000e+00 -1.000000e+00
   outer loop
     vertex -9.038801e-01 -1.074074e-01 -3.174603e-02
     vertex -8.554326e-01 -1.670604e-01 -3.174603e-02
     vertex -8.738702e-01 -1.598186e-01 -3.174603e-02
   endloop
 endfacet
 facet normal  0.000000e+00  0.000000e+00 -1.000000e+00
   outer loop
     vertex -9.038801e-01 -1.074074e-01 -3.174603e-02
     vertex -8.738702e-01 -1.598186e-01 -3.174603e-02
     vertex -8.933218e-01 -1.560741e-01 -3.174603e-02
   endloop
 endfacet
 facet normal  0.000000e+00 -0.000000e+00 -1.000000e+00
   outer loop
     vertex -9.038801e-01 -1.074074e-01 -3.174603e-02
     vertex -8.933218e-01 -1.560741e-01 -3.174603e-02
     vertex -9.131301e-01 -1.559533e-01 -3.174603e-02
   endloop
 endfacet
 facet normal  0.000000e+00  0.000000e+00 -1.000000e+00
   outer loop
     vertex -5.370370e-01 -4.192240e-01 -3.174603e-02
     vertex -8.386321e-01 -3.490767e-01 -3.174603e-02
     vertex -8.240364e-01 -3.356845e-01 -3.174603e-02
   endloop
 endfacet
 facet normal  0.000000e+00  0.000000e+00 -1.000000e+00
   outer loop
     vertex -5.370370e-01 -4.192240e-01 -3.174603e-02
     vertex -8.240364e-01 -3.356845e-01 -3.174603e-02
     vertex -8.121387e-01 -3.198469e-01 -3.174603e-02
   endloop
 endfacet
 facet normal  0.000000e+00  0.000000e+00 -1.000000e+00
   outer loop
     vertex -5.370370e-01 -4.192240e-01 -3.174603e-02
     vertex -8.121387e-01 -3.198469e-01 -3.174603e-02
     vertex -8.033410e-01 -3.020990e-01 -3.174603e-02
   endloop
 endfacet
 facet normal  0.000000e+00  0.000000e+00 -1.000000e+00
   outer loop
     vertex -5.370370e-01 -4.192240e-01 -3.174603e-02
     vertex -8.033410e-01 -3.020990e-01 -3.174603e-02
     vertex -7.979406e-01 -2.830406e-01 -3.174603e-02
   endloop
 endfacet
 facet normal  0.000000e+00  0.000000e+00 -1.000000e+00
   outer loop
     vertex -5.370370e-01 -4.192240e-01 -3.174603e-02
     vertex -7.979406e-01 -2.830406e-01 -3.174603e-02
     vertex -7.961199e-01 -2.633157e-01 -3.174603e-02
   endloop
 endfacet
 facet normal  0.000000e+00  0.000000e+00 -1.000000e+00
   outer loop
     vertex -5.370370e-01 -4.192240e-01 -3.174603e-02
     vertex -9.038801e-01 -4.192240e-01 -3.174603e-02
     vertex -8.386321e-01 -3.490767e-01 -3.174603e-02
   endloop
 endfacet
 facet normal -0.000000e+00  0.000000e+00 -1.000000e+00
   outer loop
     vertex -5.122525e-01 -4.201178e-01 -3.174603e-02
     vertex -5.247005e-01 -4.212169e-01 -3.174603e-02
     vertex -5.370370e-01 -4.192240e-01 -3.174603e-02
   endloop
 endfacet
 facet normal  0.000000e+00  0.000000e+00 -1.000000e+00
   outer loop
     vertex -4.816261e-01 -3.998541e-01 -3.174603e-02
     vertex -5.004561e-01 -4.159941e-01 -3.174603e-02
     vertex -5.122525e-01 -4.201178e-01 -3.174603e-02
   endloop
 endfacet
 facet normal  0.000000e+00  0.000000e+00 -1.000000e+00
   outer loop
     vertex -4.816261e-01 -3.998541e-01 -3.174603e-02
     vertex -4.900344e-01 -4.090987e-01 -3.174603e-02
     vertex -5.004561e-01 -4.159941e-01 -3.174603e-02
   endloop
 endfacet
 facet normal  0.000000e+00  0.000000e+00 -1.000000e+00
   outer loop
     vertex -4.727568e-01 -3.766937e-01 -3.174603e-02
     vertex -4.757468e-01 -3.888271e-01 -3.174603e-02
     vertex -4.816261e-01 -3.998541e-01 -3.174603e-02
   endloop
 endfacet
 facet normal  0.000000e+00  0.000000e+00 -1.000000e+00
   outer loop
     vertex -4.728395e-01 -3.641976e-01 -3.174603e-02
     vertex -4.816261e-01 -3.998541e-01 -3.174603e-02
     vertex -5.122525e-01 -4.201178e-01 -3.174603e-02
   endloop
 endfacet
 facet normal  0.000000e+00 -0.000000e+00 -1.000000e+00
   outer loop
     vertex -4.728395e-01 -3.641976e-01 -3.174603e-02
     vertex -4.727568e-01 -3.766937e-01 -3.174603e-02
     vertex -4.816261e-01 -3.998541e-01 -3.174603e-02
   endloop
 endfacet
 facet normal  0.000000e+00  0.000000e+00 -1.000000e+00
   outer loop
     vertex -4.728395e-01 -3.641976e-01 -3.174603e-02
     vertex -5.122525e-01 -4.201178e-01 -3.174603e-02
     vertex -5.370370e-01 -4.192240e-01 -3.174603e-02
   endloop
 endfacet
 facet normal  0.000000e+00  0.000000e+00 -1.000000e+00
   outer loop
     vertex -4.728395e-01 -2.633157e-01 -3.174603e-02
     vertex -5.370370e-01 -4.192240e-01 -3.174603e-02
     vertex -7.961199e-01 -2.633157e-01 -3.174603e-02
   endloop
 endfacet
 facet normal  0.000000e+00 -0.000000e+00 -1.000000e+00
   outer loop
     vertex -4.728395e-01 -2.633157e-01 -3.174603e-02
     vertex -4.728395e-01 -3.641976e-01 -3.174603e-02
     vertex -5.370370e-01 -4.192240e-01 -3.174603e-02
   endloop
 endfacet
 facet normal  0.000000e+00 -0.000000e+00 -1.000000e+00
   outer loop
     vertex -5.370370e-01 -1.074074e-01 -3.174603e-02
     vertex -4.728395e-01 -2.633157e-01 -3.174603e-02
     vertex -7.961199e-01 -2.633157e-01 -3.174603e-02
   endloop
 endfacet
 facet normal  0.000000e+00  0.000000e+00 -1.000000e+00
   outer loop
     vertex -5.370370e-01 -1.074074e-01 -3.174603e-02
     vertex -7.961199e-01 -2.633157e-01 -3.174603e-02
     vertex -7.979406e-01 -2.435908e-01 -3.174603e-02
   endloop
 endfacet
 facet normal  0.000000e+00  0.000000e+00 -1.000000e+00
   outer loop
     vertex -5.370370e-01 -1.074074e-01 -3.174603e-02
     vertex -7.979406e-01 -2.435908e-01 -3.174603e-02
     vertex -8.033410e-01 -2.245324e-01 -3.174603e-02
   endloop
 endfacet
 facet normal  0.000000e+00  0.000000e+00 -1.000000e+00
   outer loop
     vertex -5.370370e-01 -1.074074e-01 -3.174603e-02
     vertex -8.033410e-01 -2.245324e-01 -3.174603e-02
     vertex -8.121387e-01 -2.067846e-01 -3.174603e-02
   endloop
 endfacet
 facet normal  0.000000e+00  0.000000e+00 -1.000000e+00
   outer loop
     vertex -5.370370e-01 -1.074074e-01 -3.174603e-02
     vertex -8.121387e-01 -2.067846e-01 -3.174603e-02
     vertex -8.240364e-01 -1.909469e-01 -3.174603e-02
   endloop
 endfacet
 facet normal  0.000000e+00  0.000000e+00 -1.000000e+00
   outer loop
     vertex -5.370370e-01 -1.074074e-01 -3.174603e-02
     vertex -8.240364e-01 -1.909469e-01 -3.174603e-02
     vertex -8.386321e-01 -1.775547e-01 -3.174603e-02
   endloop
 endfacet
 facet normal -0.000000e+00  0.000000e+00 -1.000000e+00
   outer loop
     vertex -5.370370e-01 -1.074074e-01 -3.174603e-02
     vertex -8.386321e-01 -1.775547e-01 -3.174603e-02
     vertex -9.038801e-01 -1.074074e-01 -3.174603e-02
   endloop
 endfacet
 facet normal -0.000000e+00 -0.000000e+00 -1.000000e+00
   outer loop
     vertex -4.728395e-01 -1.624339e-01 -3.174603e-02
     vertex -4.728395e-01 -2.633157e-01 -3.174603e-02
     vertex -5.370370e-01 -1.074074e-01 -3.174603e-02
   endloop
 endfacet
 facet normal  0.000000e+00  0.000000e+00 -1.000000e+00
   outer loop
     vertex -4.900344e-01 -1.175328e-01 -3.174603e-02
     vertex -4.727568e-01 -1.499377e-01 -3.174603e-02
     vertex -4.728395e-01 -1.624339e-01 -3.174603e-02
   endloop
 endfacet
 facet normal  0.000000e+00  0.000000e+00 -1.000000e+00
   outer loop
     vertex -4.900344e-01 -1.175328e-01 -3.174603e-02
     vertex -4.757468e-01 -1.378043e-01 -3.174603e-02
     vertex -4.727568e-01 -1.499377e-01 -3.174603e-02
   endloop
 endfacet
 facet normal  0.000000e+00  0.000000e+00 -1.000000e+00
   outer loop
     vertex -4.900344e-01 -1.175328e-01 -3.174603e-02
     vertex -4.816261e-01 -1.267773e-01 -3.174603e-02
     vertex -4.757468e-01 -1.378043e-01 -3.174603e-02
   endloop
 endfacet
 facet normal  0.000000e+00  0.000000e+00 -1.000000e+00
   outer loop
     vertex -4.900344e-01 -1.175328e-01 -3.174603e-02
     vertex -5.122526e-01 -1.065137e-01 -3.174603e-02
     vertex -5.004561e-01 -1.106373e-01 -3.174603e-02
   endloop
 endfacet
 facet normal  0.000000e+00  0.000000e+00 -1.000000e+00
   outer loop
     vertex -4.900344e-01 -1.175328e-01 -3.174603e-02
     vertex -5.247005e-01 -1.054146e-01 -3.174603e-02
     vertex -5.122526e-01 -1.065137e-01 -3.174603e-02
   endloop
 endfacet
 facet normal  0.000000e+00  0.000000e+00 -1.000000e+00
   outer loop
     vertex -4.900344e-01 -1.175328e-01 -3.174603e-02
     vertex -5.370370e-01 -1.074074e-01 -3.174603e-02
     vertex -5.247005e-01 -1.054146e-01 -3.174603e-02
   endloop
 endfacet
 facet normal -0.000000e+00 -0.000000e+00 -1.000000e+00
   outer loop
     vertex -4.900344e-01 -1.175328e-01 -3.174603e-02
     vertex -4.728395e-01 -1.624339e-01 -3.174603e-02
     vertex -5.370370e-01 -1.074074e-01 -3.174603e-02
   endloop
 endfacet
 facet normal -1.000000e+00  5.808574e-13  0.000000e+00
   outer loop
     vertex -9.680776e-01 -1.767656e-01 -1.587302e-02
     vertex -9.680776e-01 -1.716049e-01  1.587302e-01
     vertex -9.680776e-01 -1.716049e-01 -1.587302e-02
   endloop
 endfacet
 facet normal -1.000000e+00  5.808574e-13  0.000000e+00
   outer loop
     vertex -9.680776e-01 -1.767656e-01 -1.587302e-02
     vertex -9.680776e-01 -1.767656e-01  1.587302e-01
     vertex -9.680776e-01 -1.716049e-01  1.587302e-01
   endloop
 endfacet
 facet normal -9.117073e-02  9.958353e-01  0.000000e+00
   outer loop
     vertex -9.182913e-01 -1.087268e-01 -1.587302e-02
     vertex -9.038801e-01 -1.074074e-01  1.587302e-01
     vertex -9.038801e-01 -1.074074e-01 -1.587302e-02
   endloop
 endfacet
 facet normal -9.117073e-02  9.958353e-01  0.000000e+00
   outer loop
     vertex -9.182913e-01 -1.087268e-01 -1.587302e-02
     vertex -9.182913e-01 -1.087268e-01  1.587302e-01
     vertex -9.038801e-01 -1.074074e-01  1.587302e-01
   endloop
 endfacet
 facet normal -3.170945e-01  9.483939e-01  0.000000e+00
   outer loop
     vertex -9.320160e-01 -1.133156e-01 -1.587302e-02
     vertex -9.320160e-01 -1.133156e-01  1.587302e-01
     vertex -9.182913e-01 -1.087268e-01  1.587302e-01
   endloop
 endfacet
 facet normal -3.170945e-01  9.483939e-01  0.000000e+00
   outer loop
     vertex -9.320160e-01 -1.133156e-01 -1.587302e-02
     vertex -9.182913e-01 -1.087268e-01  1.587302e-01
     vertex -9.182913e-01 -1.087268e-01 -1.587302e-02
   endloop
 endfacet
 facet normal -5.261197e-01  8.504105e-01  0.000000e+00
   outer loop
     vertex -9.443227e-01 -1.209294e-01 -1.587302e-02
     vertex -9.443227e-01 -1.209294e-01  1.587302e-01
     vertex -9.320160e-01 -1.133156e-01  1.587302e-01
   endloop
 endfacet
 facet normal -5.261197e-01  8.504105e-01  0.000000e+00
   outer loop
     vertex -9.443227e-01 -1.209294e-01 -1.587302e-02
     vertex -9.320160e-01 -1.133156e-01  1.587302e-01
     vertex -9.320160e-01 -1.133156e-01 -1.587302e-02
   endloop
 endfacet
 facet normal -7.071067e-01  7.071069e-01  0.000000e+00
   outer loop
     vertex -9.545556e-01 -1.311623e-01 -1.587302e-02
     vertex -9.545556e-01 -1.311623e-01  1.587302e-01
     vertex -9.443227e-01 -1.209294e-01  1.587302e-01
   endloop
 endfacet
 facet normal -7.071067e-01  7.071069e-01  0.000000e+00
   outer loop
     vertex -9.545556e-01 -1.311623e-01 -1.587302e-02
     vertex -9.443227e-01 -1.209294e-01  1.587302e-01
     vertex -9.443227e-01 -1.209294e-01 -1.587302e-02
   endloop
 endfacet
 facet normal -8.504104e-01  5.261199e-01  0.000000e+00
   outer loop
     vertex -9.621694e-01 -1.434690e-01 -1.587302e-02
     vertex -9.621694e-01 -1.434690e-01  1.587302e-01
     vertex -9.545556e-01 -1.311623e-01  1.587302e-01
   endloop
 endfacet
 facet normal -8.504104e-01  5.261199e-01  0.000000e+00
   outer loop
     vertex -9.621694e-01 -1.434690e-01 -1.587302e-02
     vertex -9.545556e-01 -1.311623e-01  1.587302e-01
     vertex -9.545556e-01 -1.311623e-01 -1.587302e-02
   endloop
 endfacet
 facet normal -9.483939e-01  3.170948e-01  0.000000e+00
   outer loop
     vertex -9.667582e-01 -1.571937e-01 -1.587302e-02
     vertex -9.667582e-01 -1.571937e-01  1.587302e-01
     vertex -9.621694e-01 -1.434690e-01  1.587302e-01
   endloop
 endfacet
 facet normal -9.483939e-01  3.170948e-01  0.000000e+00
   outer loop
     vertex -9.667582e-01 -1.571937e-01 -1.587302e-02
     vertex -9.621694e-01 -1.434690e-01  1.587302e-01
     vertex -9.621694e-01 -1.434690e-01 -1.587302e-02
   endloop
 endfacet
 facet normal -9.958353e-01  9.117096e-02  0.000000e+00
   outer loop
     vertex -9.680776e-01 -1.716049e-01 -1.587302e-02
     vertex -9.680776e-01 -1.716049e-01  1.587302e-01
     vertex -9.667582e-01 -1.571937e-01  1.587302e-01
   endloop
 endfacet
 facet normal -9.958353e-01  9.117096e-02  0.000000e+00
   outer loop
     vertex -9.680776e-01 -1.716049e-01 -1.587302e-02
     vertex -9.667582e-01 -1.571937e-01  1.587302e-01
     vertex -9.667582e-01 -1.571937e-01 -1.587302e-02
   endloop
 endfacet
 facet normal  0.000000e+00  1.000000e+00  0.000000e+00
   outer loop
     vertex -9.038801e-01 -1.074074e-01 -1.587302e-02
     vertex -5.370370e-01 -1.074074e-01  1.587302e-01
     vertex -5.370370e-01 -1.074074e-01 -1.587302e-02
   endloop
 endfacet
 facet normal  0.000000e+00  1.000000e+00  0.000000e+00
   outer loop
     vertex -9.038801e-01 -1.074074e-01 -1.587302e-02
     vertex -9.038801e-01 -1.074074e-01  1.587302e-01
     vertex -5.370370e-01 -1.074074e-01  1.587302e-01
   endloop
 endfacet
 facet normal  9.999781e-01 -6.612572e-03  0.000000e+00
   outer loop
     vertex -4.727568e-01 -1.499377e-01 -1.587302e-02
     vertex -4.728395e-01 -1.624339e-01  1.587302e-01
     vertex -4.728395e-01 -1.624339e-01 -1.587302e-02
   endloop
 endfacet
 facet normal  9.999781e-01 -6.612572e-03  0.000000e+00
   outer loop
     vertex -4.727568e-01 -1.499377e-01 -1.587302e-02
     vertex -4.727568e-01 -1.499377e-01  1.587302e-01
     vertex -4.728395e-01 -1.624339e-01  1.587302e-01
   endloop
 endfacet
 facet normal  9.709538e-01  2.392672e-01 -0.000000e+00
   outer loop
     vertex -4.757468e-01 -1.378043e-01 -1.587302e-02
     vertex -4.757468e-01 -1.378043e-01  1.587302e-01
     vertex -4.727568e-01 -1.499377e-01  1.587302e-01
   endloop
 endfacet
 facet normal  9.709538e-01  2.392672e-01  0.000000e+00
   outer loop
     vertex -4.757468e-01 -1.378043e-01 -1.587302e-02
     vertex -4.727568e-01 -1.499377e-01  1.587302e-01
     vertex -4.727568e-01 -1.499377e-01 -1.587302e-02
   endloop
 endfacet
 facet normal  8.824107e-01  4.704800e-01 -0.000000e+00
   outer loop
     vertex -4.816261e-01 -1.267773e-01 -1.587302e-02
     vertex -4.816261e-01 -1.267773e-01  1.587302e-01
     vertex -4.757468e-01 -1.378043e-01  1.587302e-01
   endloop
 endfacet
 facet normal  8.824107e-01  4.704800e-01  0.000000e+00
   outer loop
     vertex -4.816261e-01 -1.267773e-01 -1.587302e-02
     vertex -4.757468e-01 -1.378043e-01  1.587302e-01
     vertex -4.757468e-01 -1.378043e-01 -1.587302e-02
   endloop
 endfacet
 facet normal  7.397764e-01  6.728528e-01 -0.000000e+00
   outer loop
     vertex -4.900344e-01 -1.175328e-01 -1.587302e-02
     vertex -4.900344e-01 -1.175328e-01  1.587302e-01
     vertex -4.816261e-01 -1.267773e-01  1.587302e-01
   endloop
 endfacet
 facet normal  7.397764e-01  6.728528e-01  0.000000e+00
   outer loop
     vertex -4.900344e-01 -1.175328e-01 -1.587302e-02
     vertex -4.816261e-01 -1.267773e-01  1.587302e-01
     vertex -4.816261e-01 -1.267773e-01 -1.587302e-02
   endloop
 endfacet
 facet normal  5.517945e-01  8.339801e-01 -0.000000e+00
   outer loop
     vertex -5.004561e-01 -1.106373e-01 -1.587302e-02
     vertex -5.004561e-01 -1.106373e-01  1.587302e-01
     vertex -4.900344e-01 -1.175328e-01  1.587302e-01
   endloop
 endfacet
 facet normal  5.517945e-01  8.339801e-01  0.000000e+00
   outer loop
     vertex -5.004561e-01 -1.106373e-01 -1.587302e-02
     vertex -4.900344e-01 -1.175328e-01  1.587302e-01
     vertex -4.900344e-01 -1.175328e-01 -1.587302e-02
   endloop
 endfacet
 facet normal  3.299879e-01  9.439852e-01 -0.000000e+00
   outer loop
     vertex -5.122526e-01 -1.065137e-01 -1.587302e-02
     vertex -5.122526e-01 -1.065137e-01  1.587302e-01
     vertex -5.004561e-01 -1.106373e-01  1.587302e-01
   endloop
 endfacet
 facet normal  3.299879e-01  9.439852e-01  0.000000e+00
   outer loop
     vertex -5.122526e-01 -1.065137e-01 -1.587302e-02
     vertex -5.004561e-01 -1.106373e-01  1.587302e-01
     vertex -5.004561e-01 -1.106373e-01 -1.587302e-02
   endloop
 endfacet
 facet normal  8.795333e-02  9.961246e-01 -0.000000e+00
   outer loop
     vertex -5.247005e-01 -1.054146e-01 -1.587302e-02
     vertex -5.247005e-01 -1.054146e-01  1.587302e-01
     vertex -5.122526e-01 -1.065137e-01  1.587302e-01
   endloop
 endfacet
 facet normal  8.795333e-02  9.961246e-01  0.000000e+00
   outer loop
     vertex -5.247005e-01 -1.054146e-01 -1.587302e-02
     vertex -5.122526e-01 -1.065137e-01  1.587302e-01
     vertex -5.122526e-01 -1.065137e-01 -1.587302e-02
   endloop
 endfacet
 facet normal -1.594727e-01  9.872023e-01  0.000000e+00
   outer loop
     vertex -5.370370e-01 -1.074074e-01 -1.587302e-02
     vertex -5.370370e-01 -1.074074e-01  1.587302e-01
     vertex -5.247005e-01 -1.054146e-01  1.587302e-01
   endloop
 endfacet
 facet normal -1.594727e-01  9.872023e-01  0.000000e+00
   outer loop
     vertex -5.370370e-01 -1.074074e-01 -1.587302e-02
     vertex -5.247005e-01 -1.054146e-01  1.587302e-01
     vertex -5.247005e-01 -1.054146e-01 -1.587302e-02
   endloop
 endfacet
 facet normal  1.000000e+00  0.000000e+00  0.000000e+00
   outer loop
     vertex -4.728395e-01 -1.624339e-01 -1.587302e-02
     vertex -4.728395e-01 -2.633157e-01  1.587302e-01
     vertex -4.728395e-01 -2.633157e-01 -1.587302e-02
   endloop
 endfacet
 facet normal  1.000000e+00  0.000000e+00 -0.000000e+00
   outer loop
     vertex -4.728395e-01 -1.624339e-01 -1.587302e-02
     vertex -4.728395e-01 -1.624339e-01  1.587302e-01
     vertex -4.728395e-01 -2.633157e-01  1.587302e-01
   endloop
 endfacet
 facet normal  1.000000e+00  0.000000e+00  0.000000e+00
   outer loop
     vertex -4.728395e-01 -2.633157e-01 -1.587302e-02
     vertex -4.728395e-01 -3.641976e-01  1.587302e-01
     vertex -4.728395e-01 -3.641976e-01 -1.587302e-02
   endloop
 endfacet
 facet normal  1.000000e+00  0.000000e+00 -0.000000e+00
   outer loop
     vertex -4.728395e-01 -2.633157e-01 -1.587302e-02
     vertex -4.728395e-01 -2.633157e-01  1.587302e-01
     vertex -4.728395e-01 -3.641976e-01  1.587302e-01
   endloop
 endfacet
 facet normal -1.594731e-01 -9.872023e-01  0.000000e+00
   outer loop
     vertex -5.247005e-01 -4.212169e-01 -1.587302e-02
     vertex -5.370370e-01 -4.192240e-01  1.587302e-01
     vertex -5.370370e-01 -4.192240e-01 -1.587302e-02
   endloop
 endfacet
 facet normal -1.594731e-01 -9.872023e-01  0.000000e+00
   outer loop
     vertex -5.247005e-01 -4.212169e-01 -1.587302e-02
     vertex -5.247005e-01 -4.212169e-01  1.587302e-01
     vertex -5.370370e-01 -4.192240e-01  1.587302e-01
   endloop
 endfacet
 facet normal  8.795312e-02 -9.961246e-01  0.000000e+00
   outer loop
     vertex -5.122525e-01 -4.201178e-01 -1.587302e-02
     vertex -5.122525e-01 -4.201178e-01  1.587302e-01
     vertex -5.247005e-01 -4.212169e-01  1.587302e-01
   endloop
 endfacet
 facet normal  8.795312e-02 -9.961246e-01  0.000000e+00
   outer loop
     vertex -5.122525e-01 -4.201178e-01 -1.587302e-02
     vertex -5.247005e-01 -4.212169e-01  1.587302e-01
     vertex -5.247005e-01 -4.212169e-01 -1.587302e-02
   endloop
 endfacet
 facet normal  3.299878e-01 -9.439852e-01  0.000000e+00
   outer loop
     vertex -5.004561e-01 -4.159941e-01 -1.587302e-02
     vertex -5.004561e-01 -4.159941e-01  1.587302e-01
     vertex -5.122525e-01 -4.201178e-01  1.587302e-01
   endloop
 endfacet
 facet normal  3.299878e-01 -9.439852e-01  0.000000e+00
   outer loop
     vertex -5.004561e-01 -4.159941e-01 -1.587302e-02
     vertex -5.122525e-01 -4.201178e-01  1.587302e-01
     vertex -5.122525e-01 -4.201178e-01 -1.587302e-02
   endloop
 endfacet
 facet normal  5.517945e-01 -8.339801e-01  0.000000e+00
   outer loop
     vertex -4.900344e-01 -4.090987e-01 -1.587302e-02
     vertex -4.900344e-01 -4.090987e-01  1.587302e-01
     vertex -5.004561e-01 -4.159941e-01  1.587302e-01
   endloop
 endfacet
 facet normal  5.517945e-01 -8.339801e-01  0.000000e+00
   outer loop
     vertex -4.900344e-01 -4.090987e-01 -1.587302e-02
     vertex -5.004561e-01 -4.159941e-01  1.587302e-01
     vertex -5.004561e-01 -4.159941e-01 -1.587302e-02
   endloop
 endfacet
 facet normal  7.397766e-01 -6.728526e-01  0.000000e+00
   outer loop
     vertex -4.816261e-01 -3.998541e-01 -1.587302e-02
     vertex -4.816261e-01 -3.998541e-01  1.587302e-01
     vertex -4.900344e-01 -4.090987e-01  1.587302e-01
   endloop
 endfacet
 facet normal  7.397766e-01 -6.728526e-01  0.000000e+00
   outer loop
     vertex -4.816261e-01 -3.998541e-01 -1.587302e-02
     vertex -4.900344e-01 -4.090987e-01  1.587302e-01
     vertex -4.900344e-01 -4.090987e-01 -1.587302e-02
   endloop
 endfacet
 facet normal  8.824108e-01 -4.704797e-01  0.000000e+00
   outer loop
     vertex -4.757468e-01 -3.888271e-01 -1.587302e-02
     vertex -4.757468e-01 -3.888271e-01  1.587302e-01
     vertex -4.816261e-01 -3.998541e-01  1.587302e-01
   endloop
 endfacet
 facet normal  8.824108e-01 -4.704797e-01  0.000000e+00
   outer loop
     vertex -4.757468e-01 -3.888271e-01 -1.587302e-02
     vertex -4.816261e-01 -3.998541e-01  1.587302e-01
     vertex -4.816261e-01 -3.998541e-01 -1.587302e-02
   endloop
 endfacet
 facet normal  9.709539e-01 -2.392667e-01  0.000000e+00
   outer loop
     vertex -4.727568e-01 -3.766937e-01 -1.587302e-02
     vertex -4.727568e-01 -3.766937e-01  1.587302e-01
     vertex -4.757468e-01 -3.888271e-01  1.587302e-01
   endloop
 endfacet
 facet normal  9.709539e-01 -2.392667e-01  0.000000e+00
   outer loop
     vertex -4.727568e-01 -3.766937e-01 -1.587302e-02
     vertex -4.757468e-01 -3.888271e-01  1.587302e-01
     vertex -4.757468e-01 -3.888271e-01 -1.587302e-02
   endloop
 endfacet
 facet normal  9.999781e-01  6.613176e-03 -0.000000e+00
   outer loop
     vertex -4.728395e-01 -3.641976e-01 -1.587302e-02
     vertex -4.728395e-01 -3.641976e-01  1.587302e-01
     vertex -4.727568e-01 -3.766937e-01  1.587302e-01
   endloop
 endfacet
 facet normal  9.999781e-01  6.613176e-03  0.000000e+00
   outer loop
     vertex -4.728395e-01 -3.641976e-01 -1.587302e-02
     vertex -4.727568e-01 -3.766937e-01  1.587302e-01
     vertex -4.727568e-01 -3.766937e-01 -1.587302e-02
   endloop
 endfacet
 facet normal -9.957672e-01 -9.191130e-02  0.000000e+00
   outer loop
     vertex -7.979406e-01 -2.435908e-01 -1.587302e-02
     vertex -7.961199e-01 -2.633157e-01 -3.174603e-02
     vertex -7.961199e-01 -2.633157e-01 -1.587302e-02
   endloop
 endfacet
 facet normal -9.957672e-01 -9.191130e-02 -0.000000e+00
   outer loop
     vertex -7.979406e-01 -2.435908e-01 -1.587302e-02
     vertex -7.979406e-01 -2.435908e-01 -3.174603e-02
     vertex -7.961199e-01 -2.633157e-01 -3.174603e-02
   endloop
 endfacet
 facet normal -9.621195e-01 -2.726282e-01 -0.000000e+00
   outer loop
     vertex -8.033410e-01 -2.245324e-01 -1.587302e-02
     vertex -8.033410e-01 -2.245324e-01 -3.174603e-02
     vertex -7.979406e-01 -2.435908e-01 -3.174603e-02
   endloop
 endfacet
 facet normal -9.621195e-01 -2.726282e-01  0.000000e+00
   outer loop
     vertex -8.033410e-01 -2.245324e-01 -1.587302e-02
     vertex -7.979406e-01 -2.435908e-01 -3.174603e-02
     vertex -7.979406e-01 -2.435908e-01 -1.587302e-02
   endloop
 endfacet
 facet normal -8.959610e-01 -4.441327e-01 -0.000000e+00
   outer loop
     vertex -8.121387e-01 -2.067846e-01 -1.587302e-02
     vertex -8.121387e-01 -2.067846e-01 -3.174603e-02
     vertex -8.033410e-01 -2.245324e-01 -3.174603e-02
   endloop
 endfacet
 facet normal -8.959610e-01 -4.441327e-01  0.000000e+00
   outer loop
     vertex -8.121387e-01 -2.067846e-01 -1.587302e-02
     vertex -8.033410e-01 -2.245324e-01 -3.174603e-02
     vertex -8.033410e-01 -2.245324e-01 -1.587302e-02
   endloop
 endfacet
 facet normal -7.995274e-01 -6.006297e-01 -0.000000e+00
   outer loop
     vertex -8.240364e-01 -1.909469e-01 -1.587302e-02
     vertex -8.240364e-01 -1.909469e-01 -3.174603e-02
     vertex -8.121387e-01 -2.067846e-01 -3.174603e-02
   endloop
 endfacet
 facet normal -7.995274e-01 -6.006297e-01  0.000000e+00
   outer loop
     vertex -8.240364e-01 -1.909469e-01 -1.587302e-02
     vertex -8.121387e-01 -2.067846e-01 -3.174603e-02
     vertex -8.121387e-01 -2.067846e-01 -1.587302e-02
   endloop
 endfacet
 facet normal -6.760771e-01 -7.368309e-01 -0.000000e+00
   outer loop
     vertex -8.386321e-01 -1.775547e-01 -1.587302e-02
     vertex -8.386321e-01 -1.775547e-01 -3.174603e-02
     vertex -8.240364e-01 -1.909469e-01 -3.174603e-02
   endloop
 endfacet
 facet normal -6.760771e-01 -7.368309e-01  0.000000e+00
   outer loop
     vertex -8.386321e-01 -1.775547e-01 -1.587302e-02
     vertex -8.240364e-01 -1.909469e-01 -3.174603e-02
     vertex -8.240364e-01 -1.909469e-01 -1.587302e-02
   endloop
 endfacet
 facet normal -5.297816e-01 -8.481341e-01 -0.000000e+00
   outer loop
     vertex -8.554326e-01 -1.670604e-01 -1.587302e-02
     vertex -8.554326e-01 -1.670604e-01 -3.174603e-02
     vertex -8.386321e-01 -1.775547e-01 -3.174603e-02
   endloop
 endfacet
 facet normal -5.297816e-01 -8.481341e-01  0.000000e+00
   outer loop
     vertex -8.554326e-01 -1.670604e-01 -1.587302e-02
     vertex -8.386321e-01 -1.775547e-01 -3.174603e-02
     vertex -8.386321e-01 -1.775547e-01 -1.587302e-02
   endloop
 endfacet
 facet normal -3.655845e-01 -9.307782e-01 -0.000000e+00
   outer loop
     vertex -8.738702e-01 -1.598186e-01 -1.587302e-02
     vertex -8.738702e-01 -1.598186e-01 -3.174603e-02
     vertex -8.554326e-01 -1.670604e-01 -3.174603e-02
   endloop
 endfacet
 facet normal -3.655845e-01 -9.307782e-01  0.000000e+00
   outer loop
     vertex -8.738702e-01 -1.598186e-01 -1.587302e-02
     vertex -8.554326e-01 -1.670604e-01 -3.174603e-02
     vertex -8.554326e-01 -1.670604e-01 -1.587302e-02
   endloop
 endfacet
 facet normal -1.890340e-01 -9.819706e-01 -0.000000e+00
   outer loop
     vertex -8.933218e-01 -1.560741e-01 -1.587302e-02
     vertex -8.933218e-01 -1.560741e-01 -3.174603e-02
     vertex -8.738702e-01 -1.598186e-01 -3.174603e-02
   endloop
 endfacet
 facet normal -1.890340e-01 -9.819706e-01  0.000000e+00
   outer loop
     vertex -8.933218e-01 -1.560741e-01 -1.587302e-02
     vertex -8.738702e-01 -1.598186e-01 -3.174603e-02
     vertex -8.738702e-01 -1.598186e-01 -1.587302e-02
   endloop
 endfacet
 facet normal -6.095834e-03 -9.999814e-01 -0.000000e+00
   outer loop
     vertex -9.131301e-01 -1.559533e-01 -1.587302e-02
     vertex -9.131301e-01 -1.559533e-01 -3.174603e-02
     vertex -8.933218e-01 -1.560741e-01 -3.174603e-02
   endloop
 endfacet
 facet normal -6.095834e-03 -9.999814e-01  0.000000e+00
   outer loop
     vertex -9.131301e-01 -1.559533e-01 -1.587302e-02
     vertex -8.933218e-01 -1.560741e-01 -3.174603e-02
     vertex -8.933218e-01 -1.560741e-01 -1.587302e-02
   endloop
 endfacet
 facet normal  1.770483e-01 -9.842022e-01  0.000000e+00
   outer loop
     vertex -9.326260e-01 -1.594604e-01 -1.587302e-02
     vertex -9.326260e-01 -1.594604e-01 -3.174603e-02
     vertex -9.131301e-01 -1.559533e-01 -3.174603e-02
   endloop
 endfacet
 facet normal  1.770483e-01 -9.842022e-01  0.000000e+00
   outer loop
     vertex -9.326260e-01 -1.594604e-01 -1.587302e-02
     vertex -9.131301e-01 -1.559533e-01 -3.174603e-02
     vertex -9.131301e-01 -1.559533e-01 -1.587302e-02
   endloop
 endfacet
 facet normal  3.542098e-01 -9.351660e-01  0.000000e+00
   outer loop
     vertex -9.511504e-01 -1.664769e-01 -1.587302e-02
     vertex -9.511504e-01 -1.664769e-01 -3.174603e-02
     vertex -9.326260e-01 -1.594604e-01 -3.174603e-02
   endloop
 endfacet
 facet normal  3.542098e-01 -9.351660e-01  0.000000e+00
   outer loop
     vertex -9.511504e-01 -1.664769e-01 -1.587302e-02
     vertex -9.326260e-01 -1.594604e-01 -3.174603e-02
     vertex -9.326260e-01 -1.594604e-01 -1.587302e-02
   endloop
 endfacet
 facet normal  5.194023e-01 -8.545298e-01  0.000000e+00
   outer loop
     vertex -9.680776e-01 -1.767656e-01 -1.587302e-02
     vertex -9.680776e-01 -1.767656e-01 -3.174603e-02
     vertex -9.511504e-01 -1.664769e-01 -3.174603e-02
   endloop
 endfacet
 facet normal  5.194023e-01 -8.545298e-01  0.000000e+00
   outer loop
     vertex -9.680776e-01 -1.767656e-01 -1.587302e-02
     vertex -9.511504e-01 -1.664769e-01 -3.174603e-02
     vertex -9.511504e-01 -1.664769e-01 -1.587302e-02
   endloop
 endfacet
 facet normal -1.513213e-16 -1.000000e+00  0.000000e+00
   outer loop
     vertex -5.370370e-01 -4.192240e-01 -1.587302e-02
     vertex -9.038801e-01 -4.192240e-01 -1.587302e-02
     vertex -9.038801e-01 -4.192240e-01 -3.174603e-02
   endloop
 endfacet
 facet normal -1.513213e-16 -1.000000e+00 -0.000000e+00
   outer loop
     vertex -5.370370e-01 -4.192240e-01 -1.587302e-02
     vertex -9.038801e-01 -4.192240e-01 -3.174603e-02
     vertex -5.370370e-01 -4.192240e-01 -3.174603e-02
   endloop
 endfacet
 facet normal -1.000000e+00  5.808574e-13  0.000000e+00
   outer loop
     vertex -9.680776e-01 -1.767656e-01 -1.587302e-02
     vertex -9.680776e-01 -1.716049e-01 -1.587302e-02
     vertex -9.680776e-01 -1.716049e-01 -3.174603e-02
   endloop
 endfacet
 facet normal -1.000000e+00  5.808574e-13  0.000000e+00
   outer loop
     vertex -9.680776e-01 -1.767656e-01 -1.587302e-02
     vertex -9.680776e-01 -1.716049e-01 -3.174603e-02
     vertex -9.680776e-01 -1.767656e-01 -3.174603e-02
   endloop
 endfacet
 facet normal -9.117073e-02  9.958353e-01  0.000000e+00
   outer loop
     vertex -9.182913e-01 -1.087268e-01 -1.587302e-02
     vertex -9.038801e-01 -1.074074e-01 -1.587302e-02
     vertex -9.038801e-01 -1.074074e-01 -3.174603e-02
   endloop
 endfacet
 facet normal -9.117073e-02  9.958353e-01  0.000000e+00
   outer loop
     vertex -9.182913e-01 -1.087268e-01 -1.587302e-02
     vertex -9.038801e-01 -1.074074e-01 -3.174603e-02
     vertex -9.182913e-01 -1.087268e-01 -3.174603e-02
   endloop
 endfacet
 facet normal -3.170945e-01  9.483939e-01  0.000000e+00
   outer loop
     vertex -9.320160e-01 -1.133156e-01 -1.587302e-02
     vertex -9.182913e-01 -1.087268e-01 -3.174603e-02
     vertex -9.320160e-01 -1.133156e-01 -3.174603e-02
   endloop
 endfacet
 facet normal -3.170945e-01  9.483939e-01  0.000000e+00
   outer loop
     vertex -9.320160e-01 -1.133156e-01 -1.587302e-02
     vertex -9.182913e-01 -1.087268e-01 -1.587302e-02
     vertex -9.182913e-01 -1.087268e-01 -3.174603e-02
   endloop
 endfacet
 facet normal -5.261197e-01  8.504105e-01  0.000000e+00
   outer loop
     vertex -9.443227e-01 -1.209294e-01 -1.587302e-02
     vertex -9.320160e-01 -1.133156e-01 -3.174603e-02
     vertex -9.443227e-01 -1.209294e-01 -3.174603e-02
   endloop
 endfacet
 facet normal -5.261197e-01  8.504105e-01  0.000000e+00
   outer loop
     vertex -9.443227e-01 -1.209294e-01 -1.587302e-02
     vertex -9.320160e-01 -1.133156e-01 -1.587302e-02
     vertex -9.320160e-01 -1.133156e-01 -3.174603e-02
   endloop
 endfacet
 facet normal -7.071067e-01  7.071069e-01  0.000000e+00
   outer loop
     vertex -9.545556e-01 -1.311623e-01 -1.587302e-02
     vertex -9.443227e-01 -1.209294e-01 -3.174603e-02
     vertex -9.545556e-01 -1.311623e-01 -3.174603e-02
   endloop
 endfacet
 facet normal -7.071067e-01  7.071069e-01  0.000000e+00
   outer loop
     vertex -9.545556e-01 -1.311623e-01 -1.587302e-02
     vertex -9.443227e-01 -1.209294e-01 -1.587302e-02
     vertex -9.443227e-01 -1.209294e-01 -3.174603e-02
   endloop
 endfacet
 facet normal -8.504104e-01  5.261199e-01  0.000000e+00
   outer loop
     vertex -9.621694e-01 -1.434690e-01 -1.587302e-02
     vertex -9.545556e-01 -1.311623e-01 -3.174603e-02
     vertex -9.621694e-01 -1.434690e-01 -3.174603e-02
   endloop
 endfacet
 facet normal -8.504104e-01  5.261199e-01  0.000000e+00
   outer loop
     vertex -9.621694e-01 -1.434690e-01 -1.587302e-02
     vertex -9.545556e-01 -1.311623e-01 -1.587302e-02
     vertex -9.545556e-01 -1.311623e-01 -3.174603e-02
   endloop
 endfacet
 facet normal -9.483939e-01  3.170948e-01  0.000000e+00
   outer loop
     vertex -9.667582e-01 -1.571937e-01 -1.587302e-02
     vertex -9.621694e-01 -1.434690e-01 -3.174603e-02
     vertex -9.667582e-01 -1.571937e-01 -3.174603e-02
   endloop
 endfacet
 facet normal -9.483939e-01  3.170948e-01  0.000000e+00
   outer loop
     vertex -9.667582e-01 -1.571937e-01 -1.587302e-02
     vertex -9.621694e-01 -1.434690e-01 -1.587302e-02
     vertex -9.621694e-01 -1.434690e-01 -3.174603e-02
   endloop
 endfacet
 facet normal -9.958353e-01  9.117096e-02  0.000000e+00
   outer loop
     vertex -9.680776e-01 -1.716049e-01 -1.587302e-02
     vertex -9.667582e-01 -1.571937e-01 -3.174603e-02
     vertex -9.680776e-01 -1.716049e-01 -3.174603e-02
   endloop
 endfacet
 facet normal -9.958353e-01  9.117096e-02  0.000000e+00
   outer loop
     vertex -9.680776e-01 -1.716049e-01 -1.587302e-02
     vertex -9.667582e-01 -1.571937e-01 -1.587302e-02
     vertex -9.667582e-01 -1.571937e-01 -3.174603e-02
   endloop
 endfacet
 facet normal -0.000000e+00  1.000000e+00  0.000000e+00
   outer loop
     vertex -9.038801e-01 -1.074074e-01 -1.587302e-02
     vertex -5.370370e-01 -1.074074e-01 -1.587302e-02
     vertex -5.370370e-01 -1.074074e-01 -3.174603e-02
   endloop
 endfacet
 facet normal  0.000000e+00  1.000000e+00  0.000000e+00
   outer loop
     vertex -9.038801e-01 -1.074074e-01 -1.587302e-02
     vertex -5.370370e-01 -1.074074e-01 -3.174603e-02
     vertex -9.038801e-01 -1.074074e-01 -3.174603e-02
   endloop
 endfacet
 facet normal  9.999781e-01 -6.612572e-03  0.000000e+00
   outer loop
     vertex -4.727568e-01 -1.499377e-01 -1.587302e-02
     vertex -4.728395e-01 -1.624339e-01 -1.587302e-02
     vertex -4.728395e-01 -1.624339e-01 -3.174603e-02
   endloop
 endfacet
 facet normal  9.999781e-01 -6.612572e-03  0.000000e+00
   outer loop
     vertex -4.727568e-01 -1.499377e-01 -1.587302e-02
     vertex -4.728395e-01 -1.624339e-01 -3.174603e-02
     vertex -4.727568e-01 -1.499377e-01 -3.174603e-02
   endloop
 endfacet
 facet normal  9.709538e-01  2.392672e-01  0.000000e+00
   outer loop
     vertex -4.757468e-01 -1.378043e-01 -1.587302e-02
     vertex -4.727568e-01 -1.499377e-01 -3.174603e-02
     vertex -4.757468e-01 -1.378043e-01 -3.174603e-02
   endloop
 endfacet
 facet normal  9.709538e-01  2.392672e-01  0.000000e+00
   outer loop
     vertex -4.757468e-01 -1.378043e-01 -1.587302e-02
     vertex -4.727568e-01 -1.499377e-01 -1.587302e-02
     vertex -4.727568e-01 -1.499377e-01 -3.174603e-02
   endloop
 endfacet
 facet normal  8.824107e-01  4.704800e-01  0.000000e+00
   outer loop
     vertex -4.816261e-01 -1.267773e-01 -1.587302e-02
     vertex -4.757468e-01 -1.378043e-01 -3.174603e-02
     vertex -4.816261e-01 -1.267773e-01 -3.174603e-02
   endloop
 endfacet
 facet normal  8.824107e-01  4.704800e-01  0.000000e+00
   outer loop
     vertex -4.816261e-01 -1.267773e-01 -1.587302e-02
     vertex -4.757468e-01 -1.378043e-01 -1.587302e-02
     vertex -4.757468e-01 -1.378043e-01 -3.174603e-02
   endloop
 endfacet
 facet normal  7.397764e-01  6.728528e-01  0.000000e+00
   outer loop
     vertex -4.900344e-01 -1.175328e-01 -1.587302e-02
     vertex -4.816261e-01 -1.267773e-01 -3.174603e-02
     vertex -4.900344e-01 -1.175328e-01 -3.174603e-02
   endloop
 endfacet
 facet normal  7.397764e-01  6.728528e-01  0.000000e+00
   outer loop
     vertex -4.900344e-01 -1.175328e-01 -1.587302e-02
     vertex -4.816261e-01 -1.267773e-01 -1.587302e-02
     vertex -4.816261e-01 -1.267773e-01 -3.174603e-02
   endloop
 endfacet
 facet normal  5.517945e-01  8.339801e-01  0.000000e+00
   outer loop
     vertex -5.004561e-01 -1.106373e-01 -1.587302e-02
     vertex -4.900344e-01 -1.175328e-01 -3.174603e-02
     vertex -5.004561e-01 -1.106373e-01 -3.174603e-02
   endloop
 endfacet
 facet normal  5.517945e-01  8.339801e-01  0.000000e+00
   outer loop
     vertex -5.004561e-01 -1.106373e-01 -1.587302e-02
     vertex -4.900344e-01 -1.175328e-01 -1.587302e-02
     vertex -4.900344e-01 -1.175328e-01 -3.174603e-02
   endloop
 endfacet
 facet normal  3.299879e-01  9.439852e-01  0.000000e+00
   outer loop
     vertex -5.122526e-01 -1.065137e-01 -1.587302e-02
     vertex -5.004561e-01 -1.106373e-01 -3.174603e-02
     vertex -5.122526e-01 -1.065137e-01 -3.174603e-02
   endloop
 endfacet
 facet normal  3.299879e-01  9.439852e-01  0.000000e+00
   outer loop
     vertex -5.122526e-01 -1.065137e-01 -1.587302e-02
     vertex -5.004561e-01 -1.106373e-01 -1.587302e-02
     vertex -5.004561e-01 -1.106373e-01 -3.174603e-02
   endloop
 endfacet
 facet normal  8.795333e-02  9.961246e-01  0.000000e+00
   outer loop
     vertex -5.247005e-01 -1.054146e-01 -1.587302e-02
     vertex -5.122526e-01 -1.065137e-01 -3.174603e-02
     vertex -5.247005e-01 -1.054146e-01 -3.174603e-02
   endloop
 endfacet
 facet normal  8.795333e-02  9.961246e-01  0.000000e+00
   outer loop
     vertex -5.247005e-01 -1.054146e-01 -1.587302e-02
     vertex -5.122526e-01 -1.065137e-01 -1.587302e-02
     vertex -5.122526e-01 -1.065137e-01 -3.174603e-02
   endloop
 endfacet
 facet normal -1.594727e-01  9.872023e-01  0.000000e+00
   outer loop
     vertex -5.370370e-01 -1.074074e-01 -1.587302e-02
     vertex -5.247005e-01 -1.054146e-01 -3.174603e-02
     vertex -5.370370e-01 -1.074074e-01 -3.174603e-02
   endloop
 endfacet
 facet normal -1.594727e-01  9.872023e-01  0.000000e+00
   outer loop
     vertex -5.370370e-01 -1.074074e-01 -1.587302e-02
     vertex -5.247005e-01 -1.054146e-01 -1.587302e-02
     vertex -5.247005e-01 -1.054146e-01 -3.174603e-02
   endloop
 endfacet
 facet normal  1.000000e+00  0.000000e+00  0.000000e+00
   outer loop
     vertex -4.728395e-01 -1.624339e-01 -1.587302e-02
     vertex -4.728395e-01 -2.633157e-01 -1.587302e-02
     vertex -4.728395e-01 -2.633157e-01 -3.174603e-02
   endloop
 endfacet
 facet normal  1.000000e+00  0.000000e+00  0.000000e+00
   outer loop
     vertex -4.728395e-01 -1.624339e-01 -1.587302e-02
     vertex -4.728395e-01 -2.633157e-01 -3.174603e-02
     vertex -4.728395e-01 -1.624339e-01 -3.174603e-02
   endloop
 endfacet
 facet normal  1.000000e+00  0.000000e+00  0.000000e+00
   outer loop
     vertex -4.728395e-01 -2.633157e-01 -1.587302e-02
     vertex -4.728395e-01 -3.641976e-01 -1.587302e-02
     vertex -4.728395e-01 -3.641976e-01 -3.174603e-02
   endloop
 endfacet
 facet normal  1.000000e+00  0.000000e+00  0.000000e+00
   outer loop
     vertex -4.728395e-01 -2.633157e-01 -1.587302e-02
     vertex -4.728395e-01 -3.641976e-01 -3.174603e-02
     vertex -4.728395e-01 -2.633157e-01 -3.174603e-02
   endloop
 endfacet
 facet normal -1.594731e-01 -9.872023e-01  0.000000e+00
   outer loop
     vertex -5.247005e-01 -4.212169e-01 -1.587302e-02
     vertex -5.370370e-01 -4.192240e-01 -1.587302e-02
     vertex -5.370370e-01 -4.192240e-01 -3.174603e-02
   endloop
 endfacet
 facet normal -1.594731e-01 -9.872023e-01 -0.000000e+00
   outer loop
     vertex -5.247005e-01 -4.212169e-01 -1.587302e-02
     vertex -5.370370e-01 -4.192240e-01 -3.174603e-02
     vertex -5.247005e-01 -4.212169e-01 -3.174603e-02
   endloop
 endfacet
 facet normal  8.795312e-02 -9.961246e-01  0.000000e+00
   outer loop
     vertex -5.122525e-01 -4.201178e-01 -1.587302e-02
     vertex -5.247005e-01 -4.212169e-01 -3.174603e-02
     vertex -5.122525e-01 -4.201178e-01 -3.174603e-02
   endloop
 endfacet
 facet normal  8.795312e-02 -9.961246e-01  0.000000e+00
   outer loop
     vertex -5.122525e-01 -4.201178e-01 -1.587302e-02
     vertex -5.247005e-01 -4.212169e-01 -1.587302e-02
     vertex -5.247005e-01 -4.212169e-01 -3.174603e-02
   endloop
 endfacet
 facet normal  3.299878e-01 -9.439852e-01  0.000000e+00
   outer loop
     vertex -5.004561e-01 -4.159941e-01 -1.587302e-02
     vertex -5.122525e-01 -4.201178e-01 -3.174603e-02
     vertex -5.004561e-01 -4.159941e-01 -3.174603e-02
   endloop
 endfacet
 facet normal  3.299878e-01 -9.439852e-01  0.000000e+00
   outer loop
     vertex -5.004561e-01 -4.159941e-01 -1.587302e-02
     vertex -5.122525e-01 -4.201178e-01 -1.587302e-02
     vertex -5.122525e-01 -4.201178e-01 -3.174603e-02
   endloop
 endfacet
 facet normal  5.517945e-01 -8.339801e-01  0.000000e+00
   outer loop
     vertex -4.900344e-01 -4.090987e-01 -1.587302e-02
     vertex -5.004561e-01 -4.159941e-01 -3.174603e-02
     vertex -4.900344e-01 -4.090987e-01 -3.174603e-02
   endloop
 endfacet
 facet normal  5.517945e-01 -8.339801e-01  0.000000e+00
   outer loop
     vertex -4.900344e-01 -4.090987e-01 -1.587302e-02
     vertex -5.004561e-01 -4.159941e-01 -1.587302e-02
     vertex -5.004561e-01 -4.159941e-01 -3.174603e-02
   endloop
 endfacet
 facet normal  7.397766e-01 -6.728526e-01  0.000000e+00
   outer loop
     vertex -4.816261e-01 -3.998541e-01 -1.587302e-02
     vertex -4.900344e-01 -4.090987e-01 -3.174603e-02
     vertex -4.816261e-01 -3.998541e-01 -3.174603e-02
   endloop
 endfacet
 facet normal  7.397766e-01 -6.728526e-01  0.000000e+00
   outer loop
     vertex -4.816261e-01 -3.998541e-01 -1.587302e-02
     vertex -4.900344e-01 -4.090987e-01 -1.587302e-02
     vertex -4.900344e-01 -4.090987e-01 -3.174603e-02
   endloop
 endfacet
 facet normal  8.824108e-01 -4.704797e-01  0.000000e+00
   outer loop
     vertex -4.757468e-01 -3.888271e-01 -1.587302e-02
     vertex -4.816261e-01 -3.998541e-01 -3.174603e-02
     vertex -4.757468e-01 -3.888271e-01 -3.174603e-02
   endloop
 endfacet
 facet normal  8.824108e-01 -4.704797e-01  0.000000e+00
   outer loop
     vertex -4.757468e-01 -3.888271e-01 -1.587302e-02
     vertex -4.816261e-01 -3.998541e-01 -1.587302e-02
     vertex -4.816261e-01 -3.998541e-01 -3.174603e-02
   endloop
 endfacet
 facet normal  9.709539e-01 -2.392667e-01  0.000000e+00
   outer loop
     vertex -4.727568e-01 -3.766937e-01 -1.587302e-02
     vertex -4.757468e-01 -3.888271e-01 -3.174603e-02
     vertex -4.727568e-01 -3.766937e-01 -3.174603e-02
   endloop
 endfacet
 facet normal  9.709539e-01 -2.392667e-01  0.000000e+00
   outer loop
     vertex -4.727568e-01 -3.766937e-01 -1.587302e-02
     vertex -4.757468e-01 -3.888271e-01 -1.587302e-02
     vertex -4.757468e-01 -3.888271e-01 -3.174603e-02
   endloop
 endfacet
 facet normal  9.999781e-01  6.613176e-03  0.000000e+00
   outer loop
     vertex -4.728395e-01 -3.641976e-01 -1.587302e-02
     vertex -4.727568e-01 -3.766937e-01 -3.174603e-02
     vertex -4.728395e-01 -3.641976e-01 -3.174603e-02
   endloop
 endfacet
 facet normal  9.999781e-01  6.613176e-03  0.000000e+00
   outer loop
     vertex -4.728395e-01 -3.641976e-01 -1.587302e-02
     vertex -4.727568e-01 -3.766937e-01 -1.587302e-02
     vertex -4.727568e-01 -3.766937e-01 -3.174603e-02
   endloop
 endfacet
endsolid
