solid 
 facet normal -0.000000e+00  0.000000e+00 -1.000000e+00
   outer loop
     vertex -6.354497e-01 -1.587302e-02 -2.945323e-02
     vertex -1.007936e+00 -4.126984e-01 -2.945323e-02
     vertex -1.007936e+00 -1.587302e-02 -2.945323e-02
   endloop
 endfacet
 facet normal  0.000000e+00 -0.000000e+00 -1.000000e+00
   outer loop
     vertex -6.354497e-01 -1.587302e-02 -2.945323e-02
     vertex -6.354497e-01 -4.126984e-01 -2.945323e-02
     vertex -1.007936e+00 -4.126984e-01 -2.945323e-02
   endloop
 endfacet
 facet normal -1.000000e+00  0.000000e+00  0.000000e+00
   outer loop
     vertex -1.007936e+00 -1.587302e-02 -2.945323e-02
     vertex -1.007936e+00 -4.126984e-01  2.809525e-01
     vertex -1.007936e+00 -1.587302e-02  2.809525e-01
   endloop
 endfacet
 facet normal -1.000000e+00  0.000000e+00  0.000000e+00
   outer loop
     vertex -1.007936e+00 -1.587302e-02 -2.945323e-02
     vertex -1.007936e+00 -4.126984e-01 -2.945323e-02
     vertex -1.007936e+00 -4.126984e-01  2.809525e-01
   endloop
 endfacet
 facet normal  7.071070e-01  0.000000e+00 -7.071066e-01
   outer loop
     vertex -5.423281e-01 -1.587302e-02  6.366846e-02
     vertex -6.354497e-01 -4.126984e-01 -2.945323e-02
     vertex -6.354497e-01 -1.587302e-02 -2.945323e-02
   endloop
 endfacet
 facet normal  7.071070e-01  0.000000e+00 -7.071066e-01
   outer loop
     vertex -5.423281e-01 -1.587302e-02  6.366846e-02
     vertex -5.423281e-01 -4.126984e-01  6.366846e-02
     vertex -6.354497e-01 -4.126984e-01 -2.945323e-02
   endloop
 endfacet
 facet normal  0.000000e+00  0.000000e+00 -1.000000e+00
   outer loop
     vertex -6.354497e-01 -1.587302e-02 -2.945323e-02
     vertex -1.007936e+00 -1.587302e-02 -2.945323e-02
     vertex -1.007936e+00  0.000000e+00 -2.945323e-02
   endloop
 endfacet
 facet normal  0.000000e+00  0.000000e+00 -1.000000e+00
   outer loop
     vertex -6.354497e-01 -1.587302e-02 -2.945323e-02
     vertex -1.007936e+00  0.000000e+00 -2.945323e-02
     vertex -6.354497e-01  0.000000e+00 -2.945323e-02
   endloop
 endfacet
 facet normal  0.000000e+00 -1.000000e+00  0.000000e+00
   outer loop
     vertex -6.354497e-01 -4.126984e-01 -2.945323e-02
     vertex -1.007936e+00 -4.126984e-01  2.809525e-01
     vertex -1.007936e+00 -4.126984e-01 -2.945323e-02
   endloop
 endfacet
 facet normal -0.000000e+00 -1.000000e+00  0.000000e+00
   outer loop
     vertex -5.423281e-01 -4.126984e-01  6.366846e-02
     vertex -1.007936e+00 -4.126984e-01  2.809525e-01
     vertex -6.354497e-01 -4.126984e-01 -2.945323e-02
   endloop
 endfacet
 facet normal  0.000000e+00 -1.000000e+00  0.000000e+00
   outer loop
     vertex  9.165785e-01 -4.126984e-01  2.809525e-01
     vertex  4.509701e-01 -4.126984e-01  6.366846e-02
     vertex  5.440918e-01 -4.126984e-01 -2.945323e-02
   endloop
 endfacet
 facet normal  0.000000e+00 -1.000000e+00 -0.000000e+00
   outer loop
     vertex  9.165785e-01 -4.126984e-01  2.809525e-01
     vertex  5.440918e-01 -4.126984e-01 -2.945323e-02
     vertex  9.165785e-01 -4.126984e-01 -2.945323e-02
   endloop
 endfacet
 facet normal -0.000000e+00 -1.000000e+00  0.000000e+00
   outer loop
     vertex  9.165785e-01 -4.126984e-01  2.809525e-01
     vertex -1.007936e+00 -4.126984e-01  2.809525e-01
     vertex -5.423281e-01 -4.126984e-01  6.366846e-02
   endloop
 endfacet
 facet normal  0.000000e+00 -1.000000e+00  0.000000e+00
   outer loop
     vertex  9.165785e-01 -4.126984e-01  2.809525e-01
     vertex -5.423281e-01 -4.126984e-01  6.366846e-02
     vertex  4.509701e-01 -4.126984e-01  6.366846e-02
   endloop
 endfacet
 facet normal -0.000000e+00  0.000000e+00  1.000000e+00
   outer loop
     vertex -1.007936e+00 -1.587302e-02  2.809525e-01
     vertex  9.165785e-01 -4.126984e-01  2.809525e-01
     vertex  9.165785e-01 -1.587302e-02  2.809525e-01
   endloop
 endfacet
 facet normal  0.000000e+00  0.000000e+00  1.000000e+00
   outer loop
     vertex -1.007936e+00 -1.587302e-02  2.809525e-01
     vertex -1.007936e+00 -4.126984e-01  2.809525e-01
     vertex  9.165785e-01 -4.126984e-01  2.809525e-01
   endloop
 endfacet
 facet normal -1.000000e+00  0.000000e+00  0.000000e+00
   outer loop
     vertex -1.007936e+00 -1.587302e-02 -2.945323e-02
     vertex -1.007936e+00 -1.587302e-02  2.809525e-01
     vertex -1.007936e+00  0.000000e+00  2.809525e-01
   endloop
 endfacet
 facet normal -1.000000e+00  0.000000e+00  0.000000e+00
   outer loop
     vertex -1.007936e+00 -1.587302e-02 -2.945323e-02
     vertex -1.007936e+00  0.000000e+00  2.809525e-01
     vertex -1.007936e+00  0.000000e+00 -2.945323e-02
   endloop
 endfacet
 facet normal -0.000000e+00  0.000000e+00 -1.000000e+00
   outer loop
     vertex  4.509701e-01 -1.587302e-02  6.366846e-02
     vertex -5.423281e-01 -4.126984e-01  6.366846e-02
     vertex -5.423281e-01 -1.587302e-02  6.366846e-02
   endloop
 endfacet
 facet normal  0.000000e+00 -0.000000e+00 -1.000000e+00
   outer loop
     vertex  4.509701e-01 -1.587302e-02  6.366846e-02
     vertex  4.509701e-01 -4.126984e-01  6.366846e-02
     vertex -5.423281e-01 -4.126984e-01  6.366846e-02
   endloop
 endfacet
 facet normal  7.071070e-01  0.000000e+00 -7.071066e-01
   outer loop
     vertex -5.423281e-01 -1.587302e-02  6.366846e-02
     vertex -6.354497e-01 -1.587302e-02 -2.945323e-02
     vertex -6.354497e-01  0.000000e+00 -2.945323e-02
   endloop
 endfacet
 facet normal  7.071070e-01  0.000000e+00 -7.071066e-01
   outer loop
     vertex -5.423281e-01 -1.587302e-02  6.366846e-02
     vertex -6.354497e-01  0.000000e+00 -2.945323e-02
     vertex -5.423281e-01  0.000000e+00  6.366846e-02
   endloop
 endfacet
 facet normal  0.000000e+00  1.000000e+00  0.000000e+00
   outer loop
     vertex -6.354497e-01  1.040834e-17 -2.945323e-02
     vertex -1.007936e+00  1.040834e-17 -2.945323e-02
     vertex -1.007936e+00  1.040834e-17  2.809525e-01
   endloop
 endfacet
 facet normal  0.000000e+00  1.000000e+00  0.000000e+00
   outer loop
     vertex -5.423281e-01  1.040834e-17  6.366846e-02
     vertex -6.354497e-01  1.040834e-17 -2.945323e-02
     vertex -1.007936e+00  1.040834e-17  2.809525e-01
   endloop
 endfacet
 facet normal  0.000000e+00  1.000000e+00  0.000000e+00
   outer loop
     vertex  9.165785e-01  1.040834e-17  2.809525e-01
     vertex  5.440918e-01  1.040834e-17 -2.945323e-02
     vertex  4.509701e-01  1.040834e-17  6.366846e-02
   endloop
 endfacet
 facet normal  0.000000e+00  1.000000e+00  0.000000e+00
   outer loop
     vertex  9.165785e-01  1.040834e-17  2.809525e-01
     vertex  9.165785e-01  1.040834e-17 -2.945323e-02
     vertex  5.440918e-01  1.040834e-17 -2.945323e-02
   endloop
 endfacet
 facet normal  0.000000e+00  1.000000e+00  0.000000e+00
   outer loop
     vertex  9.165785e-01  1.040834e-17  2.809525e-01
     vertex -5.423281e-01  1.040834e-17  6.366846e-02
     vertex -1.007936e+00  1.040834e-17  2.809525e-01
   endloop
 endfacet
 facet normal  0.000000e+00  1.000000e+00  0.000000e+00
   outer loop
     vertex  9.165785e-01  1.040834e-17  2.809525e-01
     vertex  4.509701e-01  1.040834e-17  6.366846e-02
     vertex -5.423281e-01  1.040834e-17  6.366846e-02
   endloop
 endfacet
 facet normal -7.071068e-01  0.000000e+00 -7.071067e-01
   outer loop
     vertex  5.440918e-01 -1.587302e-02 -2.945323e-02
     vertex  4.509701e-01 -4.126984e-01  6.366846e-02
     vertex  4.509701e-01 -1.587302e-02  6.366846e-02
   endloop
 endfacet
 facet normal -7.071068e-01 -0.000000e+00 -7.071067e-01
   outer loop
     vertex  5.440918e-01 -1.587302e-02 -2.945323e-02
     vertex  5.440918e-01 -4.126984e-01 -2.945323e-02
     vertex  4.509701e-01 -4.126984e-01  6.366846e-02
   endloop
 endfacet
 facet normal -0.000000e+00  0.000000e+00 -1.000000e+00
   outer loop
     vertex  9.165785e-01 -1.587302e-02 -2.945323e-02
     vertex  5.440918e-01 -4.126984e-01 -2.945323e-02
     vertex  5.440918e-01 -1.587302e-02 -2.945323e-02
   endloop
 endfacet
 facet normal  0.000000e+00 -0.000000e+00 -1.000000e+00
   outer loop
     vertex  9.165785e-01 -1.587302e-02 -2.945323e-02
     vertex  9.165785e-01 -4.126984e-01 -2.945323e-02
     vertex  5.440918e-01 -4.126984e-01 -2.945323e-02
   endloop
 endfacet
 facet normal  1.000000e+00  0.000000e+00  0.000000e+00
   outer loop
     vertex  9.165785e-01 -1.587302e-02  2.809525e-01
     vertex  9.165785e-01 -4.126984e-01 -2.945323e-02
     vertex  9.165785e-01 -1.587302e-02 -2.945323e-02
   endloop
 endfacet
 facet normal  1.000000e+00  0.000000e+00  0.000000e+00
   outer loop
     vertex  9.165785e-01 -1.587302e-02  2.809525e-01
     vertex  9.165785e-01 -4.126984e-01  2.809525e-01
     vertex  9.165785e-01 -4.126984e-01 -2.945323e-02
   endloop
 endfacet
 facet normal  0.000000e+00  0.000000e+00  1.000000e+00
   outer loop
     vertex -1.007936e+00 -1.587302e-02  2.809525e-01
     vertex  9.165785e-01 -1.587302e-02  2.809525e-01
     vertex  9.165785e-01  0.000000e+00  2.809525e-01
   endloop
 endfacet
 facet normal  0.000000e+00  0.000000e+00  1.000000e+00
   outer loop
     vertex -1.007936e+00 -1.587302e-02  2.809525e-01
     vertex  9.165785e-01  0.000000e+00  2.809525e-01
     vertex -1.007936e+00  0.000000e+00  2.809525e-01
   endloop
 endfacet
 facet normal  0.000000e+00  0.000000e+00 -1.000000e+00
   outer loop
     vertex  4.509701e-01 -1.587302e-02  6.366846e-02
     vertex -5.423281e-01 -1.587302e-02  6.366846e-02
     vertex -5.423281e-01  0.000000e+00  6.366846e-02
   endloop
 endfacet
 facet normal  0.000000e+00  0.000000e+00 -1.000000e+00
   outer loop
     vertex  4.509701e-01 -1.587302e-02  6.366846e-02
     vertex -5.423281e-01  0.000000e+00  6.366846e-02
     vertex  4.509701e-01  0.000000e+00  6.366846e-02
   endloop
 endfacet
 facet normal -7.071068e-01  0.000000e+00 -7.071067e-01
   outer loop
     vertex  5.440918e-01 -1.587302e-02 -2.945323e-02
     vertex  4.509701e-01 -1.587302e-02  6.366846e-02
     vertex  4.509701e-01  0.000000e+00  6.366846e-02
   endloop
 endfacet
 facet normal -7.071068e-01  0.000000e+00 -7.071067e-01
   outer loop
     vertex  5.440918e-01 -1.587302e-02 -2.945323e-02
     vertex  4.509701e-01  0.000000e+00  6.366846e-02
     vertex  5.440918e-01  0.000000e+00 -2.945323e-02
   endloop
 endfacet
 facet normal  0.000000e+00  0.000000e+00 -1.000000e+00
   outer loop
     vertex  9.165785e-01 -1.587302e-02 -2.945323e-02
     vertex  5.440918e-01 -1.587302e-02 -2.945323e-02
     vertex  5.440918e-01  0.000000e+00 -2.945323e-02
   endloop
 endfacet
 facet normal  0.000000e+00  0.000000e+00 -1.000000e+00
   outer loop
     vertex  9.165785e-01 -1.587302e-02 -2.945323e-02
     vertex  5.440918e-01  0.000000e+00 -2.945323e-02
     vertex  9.165785e-01  0.000000e+00 -2.945323e-02
   endloop
 endfacet
 facet normal  1.000000e+00  0.000000e+00  0.000000e+00
   outer loop
     vertex  9.165785e-01 -1.587302e-02  2.809525e-01
     vertex  9.165785e-01 -1.587302e-02 -2.945323e-02
     vertex  9.165785e-01  0.000000e+00 -2.945323e-02
   endloop
 endfacet
 facet normal  1.000000e+00 -0.000000e+00  0.000000e+00
   outer loop
     vertex  9.165785e-01 -1.587302e-02  2.809525e-01
     vertex  9.165785e-01  0.000000e+00 -2.945323e-02
     vertex  9.165785e-01  0.000000e+00  2.809525e-01
   endloop
 endfacet
endsolid
