solid 
 facet normal -6.878240e-17  0.000000e+00 -1.000000e+00
   outer loop
     vertex -6.044092e-01 -1.587302e-02 -2.008818e-01
     vertex -1.007936e+00 -3.174609e-02 -2.008818e-01
     vertex -1.007936e+00 -1.587302e-02 -2.008818e-01
   endloop
 endfacet
 facet normal -6.878240e-17 -0.000000e+00 -1.000000e+00
   outer loop
     vertex -6.044092e-01 -1.587302e-02 -2.008818e-01
     vertex -6.044092e-01 -3.174609e-02 -2.008818e-01
     vertex -1.007936e+00 -3.174609e-02 -2.008818e-01
   endloop
 endfacet
 facet normal -1.000000e+00  0.000000e+00  0.000000e+00
   outer loop
     vertex -1.007936e+00 -1.587302e-02 -2.008818e-01
     vertex -1.007936e+00 -3.174609e-02  1.095239e-01
     vertex -1.007936e+00 -1.587302e-02  1.095239e-01
   endloop
 endfacet
 facet normal -1.000000e+00  0.000000e+00  0.000000e+00
   outer loop
     vertex -1.007936e+00 -1.587302e-02 -2.008818e-01
     vertex -1.007936e+00 -3.174609e-02 -2.008818e-01
     vertex -1.007936e+00 -3.174609e-02  1.095239e-01
   endloop
 endfacet
 facet normal  1.425201e-01  0.000000e+00 -9.897919e-01
   outer loop
     vertex -5.778955e-01 -1.587302e-02 -1.970641e-01
     vertex -6.044092e-01 -3.174609e-02 -2.008818e-01
     vertex -6.044092e-01 -1.587302e-02 -2.008818e-01
   endloop
 endfacet
 facet normal  1.425201e-01  0.000000e+00 -9.897919e-01
   outer loop
     vertex -5.778955e-01 -1.587302e-02 -1.970641e-01
     vertex -5.778955e-01 -3.174609e-02 -1.970641e-01
     vertex -6.044092e-01 -3.174609e-02 -2.008818e-01
   endloop
 endfacet
 facet normal  2.720068e-01  0.000000e+00 -9.622953e-01
   outer loop
     vertex -5.521183e-01 -1.587302e-02 -1.897778e-01
     vertex -5.521183e-01 -3.174609e-02 -1.897778e-01
     vertex -5.778955e-01 -3.174609e-02 -1.970641e-01
   endloop
 endfacet
 facet normal  2.720068e-01  0.000000e+00 -9.622953e-01
   outer loop
     vertex -5.521183e-01 -1.587302e-02 -1.897778e-01
     vertex -5.778955e-01 -3.174609e-02 -1.970641e-01
     vertex -5.778955e-01 -1.587302e-02 -1.970641e-01
   endloop
 endfacet
 facet normal  3.967271e-01  0.000000e+00 -9.179366e-01
   outer loop
     vertex -5.275294e-01 -1.587302e-02 -1.791506e-01
     vertex -5.275294e-01 -3.174609e-02 -1.791506e-01
     vertex -5.521183e-01 -3.174609e-02 -1.897778e-01
   endloop
 endfacet
 facet normal  3.967271e-01  0.000000e+00 -9.179366e-01
   outer loop
     vertex -5.275294e-01 -1.587302e-02 -1.791506e-01
     vertex -5.521183e-01 -3.174609e-02 -1.897778e-01
     vertex -5.521183e-01 -1.587302e-02 -1.897778e-01
   endloop
 endfacet
 facet normal  5.144956e-01  0.000000e+00 -8.574930e-01
   outer loop
     vertex -5.045596e-01 -1.587302e-02 -1.653687e-01
     vertex -5.045596e-01 -3.174609e-02 -1.653687e-01
     vertex -5.275294e-01 -3.174609e-02 -1.791506e-01
   endloop
 endfacet
 facet normal  5.144956e-01  0.000000e+00 -8.574930e-01
   outer loop
     vertex -5.045596e-01 -1.587302e-02 -1.653687e-01
     vertex -5.275294e-01 -3.174609e-02 -1.791506e-01
     vertex -5.275294e-01 -1.587302e-02 -1.791506e-01
   endloop
 endfacet
 facet normal  6.232488e-01  0.000000e+00 -7.820236e-01
   outer loop
     vertex -4.836114e-01 -1.587302e-02 -1.486737e-01
     vertex -4.836114e-01 -3.174609e-02 -1.486737e-01
     vertex -5.045596e-01 -3.174609e-02 -1.653687e-01
   endloop
 endfacet
 facet normal  6.232488e-01  0.000000e+00 -7.820236e-01
   outer loop
     vertex -4.836114e-01 -1.587302e-02 -1.486737e-01
     vertex -5.045596e-01 -3.174609e-02 -1.653687e-01
     vertex -5.045596e-01 -1.587302e-02 -1.653687e-01
   endloop
 endfacet
 facet normal  7.210808e-01  0.000000e+00 -6.928510e-01
   outer loop
     vertex -4.650519e-01 -1.587302e-02 -1.293580e-01
     vertex -4.650519e-01 -3.174609e-02 -1.293580e-01
     vertex -4.836114e-01 -3.174609e-02 -1.486737e-01
   endloop
 endfacet
 facet normal  7.210808e-01  0.000000e+00 -6.928510e-01
   outer loop
     vertex -4.650519e-01 -1.587302e-02 -1.293580e-01
     vertex -4.836114e-01 -3.174609e-02 -1.486737e-01
     vertex -4.836114e-01 -1.587302e-02 -1.486737e-01
   endloop
 endfacet
 facet normal  8.062774e-01  0.000000e+00 -5.915376e-01
   outer loop
     vertex -4.492063e-01 -1.587302e-02 -1.077601e-01
     vertex -4.492063e-01 -3.174609e-02 -1.077601e-01
     vertex -4.650519e-01 -3.174609e-02 -1.293580e-01
   endloop
 endfacet
 facet normal  8.062774e-01  0.000000e+00 -5.915376e-01
   outer loop
     vertex -4.492063e-01 -1.587302e-02 -1.077601e-01
     vertex -4.650519e-01 -3.174609e-02 -1.293580e-01
     vertex -4.650519e-01 -1.587302e-02 -1.293580e-01
   endloop
 endfacet
 facet normal -6.878240e-17  0.000000e+00 -1.000000e+00
   outer loop
     vertex -6.044092e-01 -1.587302e-02 -2.008818e-01
     vertex -1.007936e+00 -1.587302e-02 -2.008818e-01
     vertex -1.007936e+00  3.174603e-02 -2.008818e-01
   endloop
 endfacet
 facet normal -6.878240e-17  0.000000e+00 -1.000000e+00
   outer loop
     vertex -6.044092e-01 -1.587302e-02 -2.008818e-01
     vertex -1.007936e+00  3.174603e-02 -2.008818e-01
     vertex -6.044092e-01  3.174603e-02 -2.008818e-01
   endloop
 endfacet
 facet normal  0.000000e+00 -1.000000e+00 -0.000000e+00
   outer loop
     vertex -6.044092e-01 -3.174609e-02  1.095239e-01
     vertex -1.007936e+00 -3.174609e-02 -2.008818e-01
     vertex -6.044092e-01 -3.174609e-02 -2.008818e-01
   endloop
 endfacet
 facet normal -0.000000e+00 -1.000000e+00  0.000000e+00
   outer loop
     vertex -6.044092e-01 -3.174609e-02  1.095239e-01
     vertex -1.007936e+00 -3.174609e-02  1.095239e-01
     vertex -1.007936e+00 -3.174609e-02 -2.008818e-01
   endloop
 endfacet
 facet normal  0.000000e+00 -1.000000e+00 -0.000000e+00
   outer loop
     vertex -5.778955e-01 -3.174609e-02  1.057062e-01
     vertex -6.044092e-01 -3.174609e-02 -2.008818e-01
     vertex -5.778955e-01 -3.174609e-02 -1.970641e-01
   endloop
 endfacet
 facet normal -0.000000e+00 -1.000000e+00  0.000000e+00
   outer loop
     vertex -5.778955e-01 -3.174609e-02  1.057062e-01
     vertex -6.044092e-01 -3.174609e-02  1.095239e-01
     vertex -6.044092e-01 -3.174609e-02 -2.008818e-01
   endloop
 endfacet
 facet normal  0.000000e+00 -1.000000e+00 -0.000000e+00
   outer loop
     vertex -5.521183e-01 -3.174609e-02  9.841990e-02
     vertex -5.778955e-01 -3.174609e-02 -1.970641e-01
     vertex -5.521183e-01 -3.174609e-02 -1.897778e-01
   endloop
 endfacet
 facet normal  0.000000e+00 -1.000000e+00  0.000000e+00
   outer loop
     vertex -5.521183e-01 -3.174609e-02  9.841990e-02
     vertex -5.521183e-01 -3.174609e-02 -1.897778e-01
     vertex -5.275294e-01 -3.174609e-02 -1.791506e-01
   endloop
 endfacet
 facet normal -0.000000e+00 -1.000000e+00  0.000000e+00
   outer loop
     vertex -5.521183e-01 -3.174609e-02  9.841990e-02
     vertex -5.778955e-01 -3.174609e-02  1.057062e-01
     vertex -5.778955e-01 -3.174609e-02 -1.970641e-01
   endloop
 endfacet
 facet normal  0.000000e+00 -1.000000e+00  0.000000e+00
   outer loop
     vertex -5.275294e-01 -3.174609e-02  8.779271e-02
     vertex -5.275294e-01 -3.174609e-02 -1.791506e-01
     vertex -5.045596e-01 -3.174609e-02 -1.653687e-01
   endloop
 endfacet
 facet normal -0.000000e+00 -1.000000e+00 -0.000000e+00
   outer loop
     vertex -5.275294e-01 -3.174609e-02  8.779271e-02
     vertex -5.521183e-01 -3.174609e-02  9.841990e-02
     vertex -5.275294e-01 -3.174609e-02 -1.791506e-01
   endloop
 endfacet
 facet normal  0.000000e+00 -1.000000e+00  0.000000e+00
   outer loop
     vertex -5.045596e-01 -3.174609e-02  7.401084e-02
     vertex -5.045596e-01 -3.174609e-02 -1.653687e-01
     vertex -4.836114e-01 -3.174609e-02 -1.486737e-01
   endloop
 endfacet
 facet normal -0.000000e+00 -1.000000e+00 -0.000000e+00
   outer loop
     vertex -5.045596e-01 -3.174609e-02  7.401084e-02
     vertex -5.275294e-01 -3.174609e-02  8.779271e-02
     vertex -5.045596e-01 -3.174609e-02 -1.653687e-01
   endloop
 endfacet
 facet normal  0.000000e+00 -1.000000e+00  0.000000e+00
   outer loop
     vertex -4.650519e-01 -3.174609e-02  3.800008e-02
     vertex -4.650519e-01 -3.174609e-02 -1.293580e-01
     vertex -4.492063e-01 -3.174609e-02 -1.077601e-01
   endloop
 endfacet
 facet normal  0.000000e+00 -1.000000e+00  0.000000e+00
   outer loop
     vertex -4.650519e-01 -3.174609e-02  3.800008e-02
     vertex -4.492063e-01 -3.174609e-02 -1.077601e-01
     vertex -4.492063e-01 -3.174609e-02  1.640220e-02
   endloop
 endfacet
 facet normal  0.000000e+00 -1.000000e+00  0.000000e+00
   outer loop
     vertex -4.836114e-01 -3.174609e-02  5.731578e-02
     vertex -4.836114e-01 -3.174609e-02 -1.486737e-01
     vertex -4.650519e-01 -3.174609e-02 -1.293580e-01
   endloop
 endfacet
 facet normal  0.000000e+00 -1.000000e+00  0.000000e+00
   outer loop
     vertex -4.836114e-01 -3.174609e-02  5.731578e-02
     vertex -4.650519e-01 -3.174609e-02 -1.293580e-01
     vertex -4.650519e-01 -3.174609e-02  3.800008e-02
   endloop
 endfacet
 facet normal -0.000000e+00 -1.000000e+00 -0.000000e+00
   outer loop
     vertex -4.836114e-01 -3.174609e-02  5.731578e-02
     vertex -5.045596e-01 -3.174609e-02  7.401084e-02
     vertex -4.836114e-01 -3.174609e-02 -1.486737e-01
   endloop
 endfacet
 facet normal  0.000000e+00 -1.000000e+00 -0.000000e+00
   outer loop
     vertex -4.567898e-02 -3.174609e-02  1.640220e-02
     vertex -4.492063e-01 -3.174609e-02 -1.077601e-01
     vertex -4.567898e-02 -3.174609e-02 -1.077601e-01
   endloop
 endfacet
 facet normal -0.000000e+00 -1.000000e+00  0.000000e+00
   outer loop
     vertex -4.567898e-02 -3.174609e-02  1.640220e-02
     vertex -4.492063e-01 -3.174609e-02  1.640220e-02
     vertex -4.492063e-01 -3.174609e-02 -1.077601e-01
   endloop
 endfacet
 facet normal  0.000000e+00 -1.000000e+00  0.000000e+00
   outer loop
     vertex  3.578484e-01 -3.174609e-02  1.640220e-02
     vertex -4.567898e-02 -3.174609e-02 -1.077601e-01
     vertex  3.578484e-01 -3.174609e-02 -1.077601e-01
   endloop
 endfacet
 facet normal -0.000000e+00 -1.000000e+00  0.000000e+00
   outer loop
     vertex  3.578484e-01 -3.174609e-02  1.640220e-02
     vertex -4.567898e-02 -3.174609e-02  1.640220e-02
     vertex -4.567898e-02 -3.174609e-02 -1.077601e-01
   endloop
 endfacet
 facet normal  0.000000e+00 -1.000000e+00  0.000000e+00
   outer loop
     vertex  3.736940e-01 -3.174609e-02  3.800008e-02
     vertex  3.578484e-01 -3.174609e-02 -1.077601e-01
     vertex  3.736940e-01 -3.174609e-02 -1.293580e-01
   endloop
 endfacet
 facet normal  0.000000e+00 -1.000000e+00  0.000000e+00
   outer loop
     vertex  3.736940e-01 -3.174609e-02  3.800008e-02
     vertex  3.578484e-01 -3.174609e-02  1.640220e-02
     vertex  3.578484e-01 -3.174609e-02 -1.077601e-01
   endloop
 endfacet
 facet normal  0.000000e+00 -1.000000e+00  0.000000e+00
   outer loop
     vertex  3.922535e-01 -3.174609e-02  5.731578e-02
     vertex  3.736940e-01 -3.174609e-02 -1.293580e-01
     vertex  3.922535e-01 -3.174609e-02 -1.486737e-01
   endloop
 endfacet
 facet normal  0.000000e+00 -1.000000e+00  0.000000e+00
   outer loop
     vertex  3.922535e-01 -3.174609e-02  5.731578e-02
     vertex  3.736940e-01 -3.174609e-02  3.800008e-02
     vertex  3.736940e-01 -3.174609e-02 -1.293580e-01
   endloop
 endfacet
 facet normal  0.000000e+00 -1.000000e+00  0.000000e+00
   outer loop
     vertex  4.132017e-01 -3.174609e-02  7.401084e-02
     vertex  3.922535e-01 -3.174609e-02  5.731578e-02
     vertex  3.922535e-01 -3.174609e-02 -1.486737e-01
   endloop
 endfacet
 facet normal  0.000000e+00 -1.000000e+00  0.000000e+00
   outer loop
     vertex  4.132017e-01 -3.174609e-02  7.401084e-02
     vertex  3.922535e-01 -3.174609e-02 -1.486737e-01
     vertex  4.132017e-01 -3.174609e-02 -1.653687e-01
   endloop
 endfacet
 facet normal  0.000000e+00 -1.000000e+00  0.000000e+00
   outer loop
     vertex  4.361715e-01 -3.174609e-02  8.779271e-02
     vertex  4.132017e-01 -3.174609e-02 -1.653687e-01
     vertex  4.361715e-01 -3.174609e-02 -1.791506e-01
   endloop
 endfacet
 facet normal  0.000000e+00 -1.000000e+00  0.000000e+00
   outer loop
     vertex  4.361715e-01 -3.174609e-02  8.779271e-02
     vertex  4.132017e-01 -3.174609e-02  7.401084e-02
     vertex  4.132017e-01 -3.174609e-02 -1.653687e-01
   endloop
 endfacet
 facet normal  0.000000e+00 -1.000000e+00  0.000000e+00
   outer loop
     vertex  4.607604e-01 -3.174609e-02  9.841990e-02
     vertex  4.361715e-01 -3.174609e-02  8.779271e-02
     vertex  4.361715e-01 -3.174609e-02 -1.791506e-01
   endloop
 endfacet
 facet normal  0.000000e+00 -1.000000e+00  0.000000e+00
   outer loop
     vertex  4.607604e-01 -3.174609e-02  9.841990e-02
     vertex  4.361715e-01 -3.174609e-02 -1.791506e-01
     vertex  4.607604e-01 -3.174609e-02 -1.897778e-01
   endloop
 endfacet
 facet normal  0.000000e+00 -1.000000e+00 -0.000000e+00
   outer loop
     vertex  4.607604e-01 -3.174609e-02  9.841990e-02
     vertex  4.607604e-01 -3.174609e-02 -1.897778e-01
     vertex  4.865375e-01 -3.174609e-02 -1.970641e-01
   endloop
 endfacet
 facet normal  0.000000e+00 -1.000000e+00 -0.000000e+00
   outer loop
     vertex  4.865375e-01 -3.174609e-02  1.057062e-01
     vertex  4.865375e-01 -3.174609e-02 -1.970641e-01
     vertex  5.130512e-01 -3.174609e-02 -2.008818e-01
   endloop
 endfacet
 facet normal  0.000000e+00 -1.000000e+00  0.000000e+00
   outer loop
     vertex  4.865375e-01 -3.174609e-02  1.057062e-01
     vertex  4.607604e-01 -3.174609e-02  9.841990e-02
     vertex  4.865375e-01 -3.174609e-02 -1.970641e-01
   endloop
 endfacet
 facet normal  0.000000e+00 -1.000000e+00 -0.000000e+00
   outer loop
     vertex  5.130512e-01 -3.174609e-02  1.095239e-01
     vertex  4.865375e-01 -3.174609e-02  1.057062e-01
     vertex  5.130512e-01 -3.174609e-02 -2.008818e-01
   endloop
 endfacet
 facet normal -0.000000e+00 -1.000000e+00  0.000000e+00
   outer loop
     vertex  9.165785e-01 -3.174609e-02  1.095239e-01
     vertex  5.130512e-01 -3.174609e-02  1.095239e-01
     vertex  5.130512e-01 -3.174609e-02 -2.008818e-01
   endloop
 endfacet
 facet normal  0.000000e+00 -1.000000e+00 -0.000000e+00
   outer loop
     vertex  9.165785e-01 -3.174609e-02  1.095239e-01
     vertex  5.130512e-01 -3.174609e-02 -2.008818e-01
     vertex  9.165785e-01 -3.174609e-02 -2.008818e-01
   endloop
 endfacet
 facet normal -0.000000e+00  0.000000e+00  1.000000e+00
   outer loop
     vertex -1.007936e+00 -1.587302e-02  1.095239e-01
     vertex -6.044092e-01 -3.174609e-02  1.095239e-01
     vertex -6.044092e-01 -1.587302e-02  1.095239e-01
   endloop
 endfacet
 facet normal  0.000000e+00  0.000000e+00  1.000000e+00
   outer loop
     vertex -1.007936e+00 -1.587302e-02  1.095239e-01
     vertex -1.007936e+00 -3.174609e-02  1.095239e-01
     vertex -6.044092e-01 -3.174609e-02  1.095239e-01
   endloop
 endfacet
 facet normal -1.000000e+00  0.000000e+00  0.000000e+00
   outer loop
     vertex -1.007936e+00 -1.587302e-02 -2.008818e-01
     vertex -1.007936e+00 -1.587302e-02  1.095239e-01
     vertex -1.007936e+00  3.174603e-02  1.095239e-01
   endloop
 endfacet
 facet normal -1.000000e+00  0.000000e+00  0.000000e+00
   outer loop
     vertex -1.007936e+00 -1.587302e-02 -2.008818e-01
     vertex -1.007936e+00  3.174603e-02  1.095239e-01
     vertex -1.007936e+00  3.174603e-02 -2.008818e-01
   endloop
 endfacet
 facet normal -0.000000e+00  0.000000e+00 -1.000000e+00
   outer loop
     vertex -4.567898e-02 -1.587302e-02 -1.077601e-01
     vertex -4.492063e-01 -3.174609e-02 -1.077601e-01
     vertex -4.492063e-01 -1.587302e-02 -1.077601e-01
   endloop
 endfacet
 facet normal  0.000000e+00 -0.000000e+00 -1.000000e+00
   outer loop
     vertex -4.567898e-02 -1.587302e-02 -1.077601e-01
     vertex -4.567898e-02 -3.174609e-02 -1.077601e-01
     vertex -4.492063e-01 -3.174609e-02 -1.077601e-01
   endloop
 endfacet
 facet normal  1.425201e-01  0.000000e+00 -9.897919e-01
   outer loop
     vertex -5.778955e-01 -1.587302e-02 -1.970641e-01
     vertex -6.044092e-01 -1.587302e-02 -2.008818e-01
     vertex -6.044092e-01  3.174603e-02 -2.008818e-01
   endloop
 endfacet
 facet normal  1.425201e-01  0.000000e+00 -9.897919e-01
   outer loop
     vertex -5.778955e-01 -1.587302e-02 -1.970641e-01
     vertex -6.044092e-01  3.174603e-02 -2.008818e-01
     vertex -5.778955e-01  3.174603e-02 -1.970641e-01
   endloop
 endfacet
 facet normal  2.720068e-01  0.000000e+00 -9.622953e-01
   outer loop
     vertex -5.521183e-01 -1.587302e-02 -1.897778e-01
     vertex -5.778955e-01  3.174603e-02 -1.970641e-01
     vertex -5.521183e-01  3.174603e-02 -1.897778e-01
   endloop
 endfacet
 facet normal  2.720068e-01  0.000000e+00 -9.622953e-01
   outer loop
     vertex -5.521183e-01 -1.587302e-02 -1.897778e-01
     vertex -5.778955e-01 -1.587302e-02 -1.970641e-01
     vertex -5.778955e-01  3.174603e-02 -1.970641e-01
   endloop
 endfacet
 facet normal  3.967271e-01  0.000000e+00 -9.179366e-01
   outer loop
     vertex -5.275294e-01 -1.587302e-02 -1.791506e-01
     vertex -5.521183e-01  3.174603e-02 -1.897778e-01
     vertex -5.275294e-01  3.174603e-02 -1.791506e-01
   endloop
 endfacet
 facet normal  3.967271e-01  0.000000e+00 -9.179366e-01
   outer loop
     vertex -5.275294e-01 -1.587302e-02 -1.791506e-01
     vertex -5.521183e-01 -1.587302e-02 -1.897778e-01
     vertex -5.521183e-01  3.174603e-02 -1.897778e-01
   endloop
 endfacet
 facet normal  5.144956e-01  0.000000e+00 -8.574930e-01
   outer loop
     vertex -5.045596e-01 -1.587302e-02 -1.653687e-01
     vertex -5.275294e-01  3.174603e-02 -1.791506e-01
     vertex -5.045596e-01  3.174603e-02 -1.653687e-01
   endloop
 endfacet
 facet normal  5.144956e-01  0.000000e+00 -8.574930e-01
   outer loop
     vertex -5.045596e-01 -1.587302e-02 -1.653687e-01
     vertex -5.275294e-01 -1.587302e-02 -1.791506e-01
     vertex -5.275294e-01  3.174603e-02 -1.791506e-01
   endloop
 endfacet
 facet normal  6.232488e-01  0.000000e+00 -7.820236e-01
   outer loop
     vertex -4.836114e-01 -1.587302e-02 -1.486737e-01
     vertex -5.045596e-01  3.174603e-02 -1.653687e-01
     vertex -4.836114e-01  3.174603e-02 -1.486737e-01
   endloop
 endfacet
 facet normal  6.232488e-01  0.000000e+00 -7.820236e-01
   outer loop
     vertex -4.836114e-01 -1.587302e-02 -1.486737e-01
     vertex -5.045596e-01 -1.587302e-02 -1.653687e-01
     vertex -5.045596e-01  3.174603e-02 -1.653687e-01
   endloop
 endfacet
 facet normal  7.210808e-01  0.000000e+00 -6.928510e-01
   outer loop
     vertex -4.650519e-01 -1.587302e-02 -1.293580e-01
     vertex -4.836114e-01  3.174603e-02 -1.486737e-01
     vertex -4.650519e-01  3.174603e-02 -1.293580e-01
   endloop
 endfacet
 facet normal  7.210808e-01  0.000000e+00 -6.928510e-01
   outer loop
     vertex -4.650519e-01 -1.587302e-02 -1.293580e-01
     vertex -4.836114e-01 -1.587302e-02 -1.486737e-01
     vertex -4.836114e-01  3.174603e-02 -1.486737e-01
   endloop
 endfacet
 facet normal  8.062774e-01  0.000000e+00 -5.915376e-01
   outer loop
     vertex -4.492063e-01 -1.587302e-02 -1.077601e-01
     vertex -4.650519e-01  3.174603e-02 -1.293580e-01
     vertex -4.492063e-01  3.174603e-02 -1.077601e-01
   endloop
 endfacet
 facet normal  8.062774e-01  0.000000e+00 -5.915376e-01
   outer loop
     vertex -4.492063e-01 -1.587302e-02 -1.077601e-01
     vertex -4.650519e-01 -1.587302e-02 -1.293580e-01
     vertex -4.650519e-01  3.174603e-02 -1.293580e-01
   endloop
 endfacet
 facet normal  0.000000e+00  1.000000e+00  0.000000e+00
   outer loop
     vertex -6.044092e-01  3.174603e-02  1.095239e-01
     vertex -6.044092e-01  3.174603e-02 -2.008818e-01
     vertex -1.007936e+00  3.174603e-02 -2.008818e-01
   endloop
 endfacet
 facet normal  0.000000e+00  1.000000e+00  0.000000e+00
   outer loop
     vertex -6.044092e-01  3.174603e-02  1.095239e-01
     vertex -1.007936e+00  3.174603e-02 -2.008818e-01
     vertex -1.007936e+00  3.174603e-02  1.095239e-01
   endloop
 endfacet
 facet normal  0.000000e+00  1.000000e+00  0.000000e+00
   outer loop
     vertex -5.778955e-01  3.174603e-02  1.057062e-01
     vertex -5.778955e-01  3.174603e-02 -1.970641e-01
     vertex -6.044092e-01  3.174603e-02 -2.008818e-01
   endloop
 endfacet
 facet normal  0.000000e+00  1.000000e+00  0.000000e+00
   outer loop
     vertex -5.778955e-01  3.174603e-02  1.057062e-01
     vertex -6.044092e-01  3.174603e-02 -2.008818e-01
     vertex -6.044092e-01  3.174603e-02  1.095239e-01
   endloop
 endfacet
 facet normal  0.000000e+00  1.000000e+00  0.000000e+00
   outer loop
     vertex -5.521183e-01  3.174603e-02  9.841990e-02
     vertex -5.521183e-01  3.174603e-02 -1.897778e-01
     vertex -5.778955e-01  3.174603e-02 -1.970641e-01
   endloop
 endfacet
 facet normal  0.000000e+00  1.000000e+00  0.000000e+00
   outer loop
     vertex -5.521183e-01  3.174603e-02  9.841990e-02
     vertex -5.275294e-01  3.174603e-02 -1.791506e-01
     vertex -5.521183e-01  3.174603e-02 -1.897778e-01
   endloop
 endfacet
 facet normal  0.000000e+00  1.000000e+00  0.000000e+00
   outer loop
     vertex -5.521183e-01  3.174603e-02  9.841990e-02
     vertex -5.778955e-01  3.174603e-02 -1.970641e-01
     vertex -5.778955e-01  3.174603e-02  1.057062e-01
   endloop
 endfacet
 facet normal  0.000000e+00  1.000000e+00  0.000000e+00
   outer loop
     vertex -5.275294e-01  3.174603e-02  8.779271e-02
     vertex -5.045596e-01  3.174603e-02 -1.653687e-01
     vertex -5.275294e-01  3.174603e-02 -1.791506e-01
   endloop
 endfacet
 facet normal  0.000000e+00  1.000000e+00  0.000000e+00
   outer loop
     vertex -5.275294e-01  3.174603e-02  8.779271e-02
     vertex -5.275294e-01  3.174603e-02 -1.791506e-01
     vertex -5.521183e-01  3.174603e-02  9.841990e-02
   endloop
 endfacet
 facet normal  0.000000e+00  1.000000e+00  0.000000e+00
   outer loop
     vertex -5.045596e-01  3.174603e-02  7.401084e-02
     vertex -4.836114e-01  3.174603e-02 -1.486737e-01
     vertex -5.045596e-01  3.174603e-02 -1.653687e-01
   endloop
 endfacet
 facet normal  0.000000e+00  1.000000e+00  0.000000e+00
   outer loop
     vertex -5.045596e-01  3.174603e-02  7.401084e-02
     vertex -5.045596e-01  3.174603e-02 -1.653687e-01
     vertex -5.275294e-01  3.174603e-02  8.779271e-02
   endloop
 endfacet
 facet normal  0.000000e+00  1.000000e+00  0.000000e+00
   outer loop
     vertex -4.650519e-01  3.174603e-02  3.800008e-02
     vertex -4.492063e-01  3.174603e-02 -1.077601e-01
     vertex -4.650519e-01  3.174603e-02 -1.293580e-01
   endloop
 endfacet
 facet normal  0.000000e+00  1.000000e+00  0.000000e+00
   outer loop
     vertex -4.650519e-01  3.174603e-02  3.800008e-02
     vertex -4.492063e-01  3.174603e-02  1.640220e-02
     vertex -4.492063e-01  3.174603e-02 -1.077601e-01
   endloop
 endfacet
 facet normal  0.000000e+00  1.000000e+00  0.000000e+00
   outer loop
     vertex -4.836114e-01  3.174603e-02  5.731578e-02
     vertex -4.650519e-01  3.174603e-02 -1.293580e-01
     vertex -4.836114e-01  3.174603e-02 -1.486737e-01
   endloop
 endfacet
 facet normal  0.000000e+00  1.000000e+00  0.000000e+00
   outer loop
     vertex -4.836114e-01  3.174603e-02  5.731578e-02
     vertex -4.650519e-01  3.174603e-02  3.800008e-02
     vertex -4.650519e-01  3.174603e-02 -1.293580e-01
   endloop
 endfacet
 facet normal  0.000000e+00  1.000000e+00  0.000000e+00
   outer loop
     vertex -4.836114e-01  3.174603e-02  5.731578e-02
     vertex -4.836114e-01  3.174603e-02 -1.486737e-01
     vertex -5.045596e-01  3.174603e-02  7.401084e-02
   endloop
 endfacet
 facet normal  0.000000e+00  1.000000e+00  0.000000e+00
   outer loop
     vertex -4.567898e-02  3.174603e-02  1.640220e-02
     vertex -4.567898e-02  3.174603e-02 -1.077601e-01
     vertex -4.492063e-01  3.174603e-02 -1.077601e-01
   endloop
 endfacet
 facet normal  0.000000e+00  1.000000e+00  0.000000e+00
   outer loop
     vertex -4.567898e-02  3.174603e-02  1.640220e-02
     vertex -4.492063e-01  3.174603e-02 -1.077601e-01
     vertex -4.492063e-01  3.174603e-02  1.640220e-02
   endloop
 endfacet
 facet normal  0.000000e+00  1.000000e+00  0.000000e+00
   outer loop
     vertex  3.578484e-01  3.174603e-02  1.640220e-02
     vertex  3.578484e-01  3.174603e-02 -1.077601e-01
     vertex -4.567898e-02  3.174603e-02 -1.077601e-01
   endloop
 endfacet
 facet normal  0.000000e+00  1.000000e+00  0.000000e+00
   outer loop
     vertex  3.578484e-01  3.174603e-02  1.640220e-02
     vertex -4.567898e-02  3.174603e-02 -1.077601e-01
     vertex -4.567898e-02  3.174603e-02  1.640220e-02
   endloop
 endfacet
 facet normal  0.000000e+00  1.000000e+00  0.000000e+00
   outer loop
     vertex  3.736940e-01  3.174603e-02  3.800008e-02
     vertex  3.736940e-01  3.174603e-02 -1.293580e-01
     vertex  3.578484e-01  3.174603e-02 -1.077601e-01
   endloop
 endfacet
 facet normal  0.000000e+00  1.000000e+00  0.000000e+00
   outer loop
     vertex  3.736940e-01  3.174603e-02  3.800008e-02
     vertex  3.578484e-01  3.174603e-02 -1.077601e-01
     vertex  3.578484e-01  3.174603e-02  1.640220e-02
   endloop
 endfacet
 facet normal  0.000000e+00  1.000000e+00  0.000000e+00
   outer loop
     vertex  3.922535e-01  3.174603e-02  5.731578e-02
     vertex  3.922535e-01  3.174603e-02 -1.486737e-01
     vertex  3.736940e-01  3.174603e-02 -1.293580e-01
   endloop
 endfacet
 facet normal  0.000000e+00  1.000000e+00  0.000000e+00
   outer loop
     vertex  3.922535e-01  3.174603e-02  5.731578e-02
     vertex  3.736940e-01  3.174603e-02 -1.293580e-01
     vertex  3.736940e-01  3.174603e-02  3.800008e-02
   endloop
 endfacet
 facet normal  0.000000e+00  1.000000e+00  0.000000e+00
   outer loop
     vertex  4.132017e-01  3.174603e-02  7.401084e-02
     vertex  3.922535e-01  3.174603e-02 -1.486737e-01
     vertex  3.922535e-01  3.174603e-02  5.731578e-02
   endloop
 endfacet
 facet normal  0.000000e+00  1.000000e+00  0.000000e+00
   outer loop
     vertex  4.132017e-01  3.174603e-02  7.401084e-02
     vertex  4.132017e-01  3.174603e-02 -1.653687e-01
     vertex  3.922535e-01  3.174603e-02 -1.486737e-01
   endloop
 endfacet
 facet normal  0.000000e+00  1.000000e+00  0.000000e+00
   outer loop
     vertex  4.361715e-01  3.174603e-02  8.779271e-02
     vertex  4.361715e-01  3.174603e-02 -1.791506e-01
     vertex  4.132017e-01  3.174603e-02 -1.653687e-01
   endloop
 endfacet
 facet normal  0.000000e+00  1.000000e+00  0.000000e+00
   outer loop
     vertex  4.361715e-01  3.174603e-02  8.779271e-02
     vertex  4.132017e-01  3.174603e-02 -1.653687e-01
     vertex  4.132017e-01  3.174603e-02  7.401084e-02
   endloop
 endfacet
 facet normal  0.000000e+00  1.000000e+00  0.000000e+00
   outer loop
     vertex  4.607604e-01  3.174603e-02  9.841990e-02
     vertex  4.361715e-01  3.174603e-02 -1.791506e-01
     vertex  4.361715e-01  3.174603e-02  8.779271e-02
   endloop
 endfacet
 facet normal  0.000000e+00  1.000000e+00  0.000000e+00
   outer loop
     vertex  4.607604e-01  3.174603e-02  9.841990e-02
     vertex  4.607604e-01  3.174603e-02 -1.897778e-01
     vertex  4.361715e-01  3.174603e-02 -1.791506e-01
   endloop
 endfacet
 facet normal  0.000000e+00  1.000000e+00  0.000000e+00
   outer loop
     vertex  4.607604e-01  3.174603e-02  9.841990e-02
     vertex  4.865375e-01  3.174603e-02 -1.970641e-01
     vertex  4.607604e-01  3.174603e-02 -1.897778e-01
   endloop
 endfacet
 facet normal  0.000000e+00  1.000000e+00  0.000000e+00
   outer loop
     vertex  4.865375e-01  3.174603e-02  1.057062e-01
     vertex  5.130512e-01  3.174603e-02 -2.008818e-01
     vertex  4.865375e-01  3.174603e-02 -1.970641e-01
   endloop
 endfacet
 facet normal  0.000000e+00  1.000000e+00  0.000000e+00
   outer loop
     vertex  4.865375e-01  3.174603e-02  1.057062e-01
     vertex  4.865375e-01  3.174603e-02 -1.970641e-01
     vertex  4.607604e-01  3.174603e-02  9.841990e-02
   endloop
 endfacet
 facet normal  0.000000e+00  1.000000e+00  0.000000e+00
   outer loop
     vertex  5.130512e-01  3.174603e-02  1.095239e-01
     vertex  5.130512e-01  3.174603e-02 -2.008818e-01
     vertex  4.865375e-01  3.174603e-02  1.057062e-01
   endloop
 endfacet
 facet normal  0.000000e+00  1.000000e+00  0.000000e+00
   outer loop
     vertex  9.165785e-01  3.174603e-02  1.095239e-01
     vertex  5.130512e-01  3.174603e-02 -2.008818e-01
     vertex  5.130512e-01  3.174603e-02  1.095239e-01
   endloop
 endfacet
 facet normal  0.000000e+00  1.000000e+00  0.000000e+00
   outer loop
     vertex  9.165785e-01  3.174603e-02  1.095239e-01
     vertex  9.165785e-01  3.174603e-02 -2.008818e-01
     vertex  5.130512e-01  3.174603e-02 -2.008818e-01
   endloop
 endfacet
 facet normal -3.439119e-17  0.000000e+00 -1.000000e+00
   outer loop
     vertex  3.578484e-01 -1.587302e-02 -1.077601e-01
     vertex -4.567898e-02 -3.174609e-02 -1.077601e-01
     vertex -4.567898e-02 -1.587302e-02 -1.077601e-01
   endloop
 endfacet
 facet normal -3.439119e-17 -0.000000e+00 -1.000000e+00
   outer loop
     vertex  3.578484e-01 -1.587302e-02 -1.077601e-01
     vertex  3.578484e-01 -3.174609e-02 -1.077601e-01
     vertex -4.567898e-02 -3.174609e-02 -1.077601e-01
   endloop
 endfacet
 facet normal -8.062776e-01  0.000000e+00 -5.915374e-01
   outer loop
     vertex  3.736940e-01 -1.587302e-02 -1.293580e-01
     vertex  3.578484e-01 -3.174609e-02 -1.077601e-01
     vertex  3.578484e-01 -1.587302e-02 -1.077601e-01
   endloop
 endfacet
 facet normal -8.062776e-01 -0.000000e+00 -5.915374e-01
   outer loop
     vertex  3.736940e-01 -1.587302e-02 -1.293580e-01
     vertex  3.736940e-01 -3.174609e-02 -1.293580e-01
     vertex  3.578484e-01 -3.174609e-02 -1.077601e-01
   endloop
 endfacet
 facet normal -7.210809e-01 -0.000000e+00 -6.928508e-01
   outer loop
     vertex  3.922535e-01 -1.587302e-02 -1.486737e-01
     vertex  3.922535e-01 -3.174609e-02 -1.486737e-01
     vertex  3.736940e-01 -3.174609e-02 -1.293580e-01
   endloop
 endfacet
 facet normal -7.210809e-01  0.000000e+00 -6.928508e-01
   outer loop
     vertex  3.922535e-01 -1.587302e-02 -1.486737e-01
     vertex  3.736940e-01 -3.174609e-02 -1.293580e-01
     vertex  3.736940e-01 -1.587302e-02 -1.293580e-01
   endloop
 endfacet
 facet normal -6.232489e-01 -0.000000e+00 -7.820235e-01
   outer loop
     vertex  4.132017e-01 -1.587302e-02 -1.653687e-01
     vertex  4.132017e-01 -3.174609e-02 -1.653687e-01
     vertex  3.922535e-01 -3.174609e-02 -1.486737e-01
   endloop
 endfacet
 facet normal -6.232489e-01  0.000000e+00 -7.820235e-01
   outer loop
     vertex  4.132017e-01 -1.587302e-02 -1.653687e-01
     vertex  3.922535e-01 -3.174609e-02 -1.486737e-01
     vertex  3.922535e-01 -1.587302e-02 -1.486737e-01
   endloop
 endfacet
 facet normal -5.144958e-01 -0.000000e+00 -8.574929e-01
   outer loop
     vertex  4.361715e-01 -1.587302e-02 -1.791506e-01
     vertex  4.361715e-01 -3.174609e-02 -1.791506e-01
     vertex  4.132017e-01 -3.174609e-02 -1.653687e-01
   endloop
 endfacet
 facet normal -5.144958e-01  0.000000e+00 -8.574929e-01
   outer loop
     vertex  4.361715e-01 -1.587302e-02 -1.791506e-01
     vertex  4.132017e-01 -3.174609e-02 -1.653687e-01
     vertex  4.132017e-01 -1.587302e-02 -1.653687e-01
   endloop
 endfacet
 facet normal -3.967272e-01 -0.000000e+00 -9.179366e-01
   outer loop
     vertex  4.607604e-01 -1.587302e-02 -1.897778e-01
     vertex  4.607604e-01 -3.174609e-02 -1.897778e-01
     vertex  4.361715e-01 -3.174609e-02 -1.791506e-01
   endloop
 endfacet
 facet normal -3.967272e-01  0.000000e+00 -9.179366e-01
   outer loop
     vertex  4.607604e-01 -1.587302e-02 -1.897778e-01
     vertex  4.361715e-01 -3.174609e-02 -1.791506e-01
     vertex  4.361715e-01 -1.587302e-02 -1.791506e-01
   endloop
 endfacet
 facet normal -2.720068e-01 -0.000000e+00 -9.622953e-01
   outer loop
     vertex  4.865375e-01 -1.587302e-02 -1.970641e-01
     vertex  4.865375e-01 -3.174609e-02 -1.970641e-01
     vertex  4.607604e-01 -3.174609e-02 -1.897778e-01
   endloop
 endfacet
 facet normal -2.720068e-01  0.000000e+00 -9.622953e-01
   outer loop
     vertex  4.865375e-01 -1.587302e-02 -1.970641e-01
     vertex  4.607604e-01 -3.174609e-02 -1.897778e-01
     vertex  4.607604e-01 -1.587302e-02 -1.897778e-01
   endloop
 endfacet
 facet normal -1.425201e-01 -0.000000e+00 -9.897919e-01
   outer loop
     vertex  5.130512e-01 -1.587302e-02 -2.008818e-01
     vertex  5.130512e-01 -3.174609e-02 -2.008818e-01
     vertex  4.865375e-01 -3.174609e-02 -1.970641e-01
   endloop
 endfacet
 facet normal -1.425201e-01  0.000000e+00 -9.897919e-01
   outer loop
     vertex  5.130512e-01 -1.587302e-02 -2.008818e-01
     vertex  4.865375e-01 -3.174609e-02 -1.970641e-01
     vertex  4.865375e-01 -1.587302e-02 -1.970641e-01
   endloop
 endfacet
 facet normal -0.000000e+00  0.000000e+00 -1.000000e+00
   outer loop
     vertex  9.165785e-01 -1.587302e-02 -2.008818e-01
     vertex  5.130512e-01 -3.174609e-02 -2.008818e-01
     vertex  5.130512e-01 -1.587302e-02 -2.008818e-01
   endloop
 endfacet
 facet normal  0.000000e+00 -0.000000e+00 -1.000000e+00
   outer loop
     vertex  9.165785e-01 -1.587302e-02 -2.008818e-01
     vertex  9.165785e-01 -3.174609e-02 -2.008818e-01
     vertex  5.130512e-01 -3.174609e-02 -2.008818e-01
   endloop
 endfacet
 facet normal  1.000000e+00  0.000000e+00  0.000000e+00
   outer loop
     vertex  9.165785e-01 -1.587302e-02  1.095239e-01
     vertex  9.165785e-01 -3.174609e-02 -2.008818e-01
     vertex  9.165785e-01 -1.587302e-02 -2.008818e-01
   endloop
 endfacet
 facet normal  1.000000e+00  0.000000e+00  0.000000e+00
   outer loop
     vertex  9.165785e-01 -1.587302e-02  1.095239e-01
     vertex  9.165785e-01 -3.174609e-02  1.095239e-01
     vertex  9.165785e-01 -3.174609e-02 -2.008818e-01
   endloop
 endfacet
 facet normal  3.439120e-17  0.000000e+00  1.000000e+00
   outer loop
     vertex  5.130512e-01 -1.587302e-02  1.095239e-01
     vertex  9.165785e-01 -3.174609e-02  1.095239e-01
     vertex  9.165785e-01 -1.587302e-02  1.095239e-01
   endloop
 endfacet
 facet normal  3.439120e-17  0.000000e+00  1.000000e+00
   outer loop
     vertex  5.130512e-01 -1.587302e-02  1.095239e-01
     vertex  5.130512e-01 -3.174609e-02  1.095239e-01
     vertex  9.165785e-01 -3.174609e-02  1.095239e-01
   endloop
 endfacet
 facet normal -1.425201e-01  0.000000e+00  9.897919e-01
   outer loop
     vertex  4.865375e-01 -1.587302e-02  1.057062e-01
     vertex  5.130512e-01 -3.174609e-02  1.095239e-01
     vertex  5.130512e-01 -1.587302e-02  1.095239e-01
   endloop
 endfacet
 facet normal -1.425201e-01  0.000000e+00  9.897919e-01
   outer loop
     vertex  4.865375e-01 -1.587302e-02  1.057062e-01
     vertex  4.865375e-01 -3.174609e-02  1.057062e-01
     vertex  5.130512e-01 -3.174609e-02  1.095239e-01
   endloop
 endfacet
 facet normal -2.720068e-01  0.000000e+00  9.622953e-01
   outer loop
     vertex  4.607604e-01 -1.587302e-02  9.841990e-02
     vertex  4.607604e-01 -3.174609e-02  9.841990e-02
     vertex  4.865375e-01 -3.174609e-02  1.057062e-01
   endloop
 endfacet
 facet normal -2.720068e-01  0.000000e+00  9.622953e-01
   outer loop
     vertex  4.607604e-01 -1.587302e-02  9.841990e-02
     vertex  4.865375e-01 -3.174609e-02  1.057062e-01
     vertex  4.865375e-01 -1.587302e-02  1.057062e-01
   endloop
 endfacet
 facet normal -3.967272e-01  0.000000e+00  9.179366e-01
   outer loop
     vertex  4.361715e-01 -1.587302e-02  8.779271e-02
     vertex  4.361715e-01 -3.174609e-02  8.779271e-02
     vertex  4.607604e-01 -3.174609e-02  9.841990e-02
   endloop
 endfacet
 facet normal -3.967272e-01  0.000000e+00  9.179366e-01
   outer loop
     vertex  4.361715e-01 -1.587302e-02  8.779271e-02
     vertex  4.607604e-01 -3.174609e-02  9.841990e-02
     vertex  4.607604e-01 -1.587302e-02  9.841990e-02
   endloop
 endfacet
 facet normal -5.144958e-01  0.000000e+00  8.574929e-01
   outer loop
     vertex  4.132017e-01 -1.587302e-02  7.401084e-02
     vertex  4.132017e-01 -3.174609e-02  7.401084e-02
     vertex  4.361715e-01 -3.174609e-02  8.779271e-02
   endloop
 endfacet
 facet normal -5.144958e-01  0.000000e+00  8.574929e-01
   outer loop
     vertex  4.132017e-01 -1.587302e-02  7.401084e-02
     vertex  4.361715e-01 -3.174609e-02  8.779271e-02
     vertex  4.361715e-01 -1.587302e-02  8.779271e-02
   endloop
 endfacet
 facet normal -6.232489e-01  0.000000e+00  7.820235e-01
   outer loop
     vertex  3.922535e-01 -1.587302e-02  5.731578e-02
     vertex  3.922535e-01 -3.174609e-02  5.731578e-02
     vertex  4.132017e-01 -3.174609e-02  7.401084e-02
   endloop
 endfacet
 facet normal -6.232489e-01  0.000000e+00  7.820235e-01
   outer loop
     vertex  3.922535e-01 -1.587302e-02  5.731578e-02
     vertex  4.132017e-01 -3.174609e-02  7.401084e-02
     vertex  4.132017e-01 -1.587302e-02  7.401084e-02
   endloop
 endfacet
 facet normal -7.210809e-01  0.000000e+00  6.928509e-01
   outer loop
     vertex  3.736940e-01 -1.587302e-02  3.800008e-02
     vertex  3.736940e-01 -3.174609e-02  3.800008e-02
     vertex  3.922535e-01 -3.174609e-02  5.731578e-02
   endloop
 endfacet
 facet normal -7.210809e-01  0.000000e+00  6.928509e-01
   outer loop
     vertex  3.736940e-01 -1.587302e-02  3.800008e-02
     vertex  3.922535e-01 -3.174609e-02  5.731578e-02
     vertex  3.922535e-01 -1.587302e-02  5.731578e-02
   endloop
 endfacet
 facet normal -8.062775e-01  0.000000e+00  5.915374e-01
   outer loop
     vertex  3.578484e-01 -1.587302e-02  1.640220e-02
     vertex  3.578484e-01 -3.174609e-02  1.640220e-02
     vertex  3.736940e-01 -3.174609e-02  3.800008e-02
   endloop
 endfacet
 facet normal -8.062775e-01  0.000000e+00  5.915374e-01
   outer loop
     vertex  3.578484e-01 -1.587302e-02  1.640220e-02
     vertex  3.736940e-01 -3.174609e-02  3.800008e-02
     vertex  3.736940e-01 -1.587302e-02  3.800008e-02
   endloop
 endfacet
 facet normal  2.579339e-17  0.000000e+00  1.000000e+00
   outer loop
     vertex -4.567898e-02 -1.587302e-02  1.640220e-02
     vertex  3.578484e-01 -3.174609e-02  1.640220e-02
     vertex  3.578484e-01 -1.587302e-02  1.640220e-02
   endloop
 endfacet
 facet normal  2.579339e-17  0.000000e+00  1.000000e+00
   outer loop
     vertex -4.567898e-02 -1.587302e-02  1.640220e-02
     vertex -4.567898e-02 -3.174609e-02  1.640220e-02
     vertex  3.578484e-01 -3.174609e-02  1.640220e-02
   endloop
 endfacet
 facet normal  8.597800e-18  0.000000e+00  1.000000e+00
   outer loop
     vertex -4.492063e-01 -1.587302e-02  1.640220e-02
     vertex -4.567898e-02 -3.174609e-02  1.640220e-02
     vertex -4.567898e-02 -1.587302e-02  1.640220e-02
   endloop
 endfacet
 facet normal  8.597800e-18  0.000000e+00  1.000000e+00
   outer loop
     vertex -4.492063e-01 -1.587302e-02  1.640220e-02
     vertex -4.492063e-01 -3.174609e-02  1.640220e-02
     vertex -4.567898e-02 -3.174609e-02  1.640220e-02
   endloop
 endfacet
 facet normal  8.062774e-01  0.000000e+00  5.915377e-01
   outer loop
     vertex -4.650519e-01 -1.587302e-02  3.800008e-02
     vertex -4.492063e-01 -3.174609e-02  1.640220e-02
     vertex -4.492063e-01 -1.587302e-02  1.640220e-02
   endloop
 endfacet
 facet normal  8.062774e-01  0.000000e+00  5.915377e-01
   outer loop
     vertex -4.650519e-01 -1.587302e-02  3.800008e-02
     vertex -4.650519e-01 -3.174609e-02  3.800008e-02
     vertex -4.492063e-01 -3.174609e-02  1.640220e-02
   endloop
 endfacet
 facet normal  7.210807e-01  0.000000e+00  6.928510e-01
   outer loop
     vertex -4.836114e-01 -1.587302e-02  5.731578e-02
     vertex -4.836114e-01 -3.174609e-02  5.731578e-02
     vertex -4.650519e-01 -3.174609e-02  3.800008e-02
   endloop
 endfacet
 facet normal  7.210807e-01  0.000000e+00  6.928510e-01
   outer loop
     vertex -4.836114e-01 -1.587302e-02  5.731578e-02
     vertex -4.650519e-01 -3.174609e-02  3.800008e-02
     vertex -4.650519e-01 -1.587302e-02  3.800008e-02
   endloop
 endfacet
 facet normal  6.232487e-01  0.000000e+00  7.820237e-01
   outer loop
     vertex -5.045596e-01 -1.587302e-02  7.401084e-02
     vertex -5.045596e-01 -3.174609e-02  7.401084e-02
     vertex -4.836114e-01 -3.174609e-02  5.731578e-02
   endloop
 endfacet
 facet normal  6.232487e-01  0.000000e+00  7.820237e-01
   outer loop
     vertex -5.045596e-01 -1.587302e-02  7.401084e-02
     vertex -4.836114e-01 -3.174609e-02  5.731578e-02
     vertex -4.836114e-01 -1.587302e-02  5.731578e-02
   endloop
 endfacet
 facet normal  5.144956e-01  0.000000e+00  8.574930e-01
   outer loop
     vertex -5.275294e-01 -1.587302e-02  8.779271e-02
     vertex -5.275294e-01 -3.174609e-02  8.779271e-02
     vertex -5.045596e-01 -3.174609e-02  7.401084e-02
   endloop
 endfacet
 facet normal  5.144956e-01  0.000000e+00  8.574930e-01
   outer loop
     vertex -5.275294e-01 -1.587302e-02  8.779271e-02
     vertex -5.045596e-01 -3.174609e-02  7.401084e-02
     vertex -5.045596e-01 -1.587302e-02  7.401084e-02
   endloop
 endfacet
 facet normal  3.967271e-01  0.000000e+00  9.179366e-01
   outer loop
     vertex -5.521183e-01 -1.587302e-02  9.841990e-02
     vertex -5.521183e-01 -3.174609e-02  9.841990e-02
     vertex -5.275294e-01 -3.174609e-02  8.779271e-02
   endloop
 endfacet
 facet normal  3.967271e-01  0.000000e+00  9.179366e-01
   outer loop
     vertex -5.521183e-01 -1.587302e-02  9.841990e-02
     vertex -5.275294e-01 -3.174609e-02  8.779271e-02
     vertex -5.275294e-01 -1.587302e-02  8.779271e-02
   endloop
 endfacet
 facet normal  2.720068e-01  0.000000e+00  9.622953e-01
   outer loop
     vertex -5.778955e-01 -1.587302e-02  1.057062e-01
     vertex -5.778955e-01 -3.174609e-02  1.057062e-01
     vertex -5.521183e-01 -3.174609e-02  9.841990e-02
   endloop
 endfacet
 facet normal  2.720068e-01  0.000000e+00  9.622953e-01
   outer loop
     vertex -5.778955e-01 -1.587302e-02  1.057062e-01
     vertex -5.521183e-01 -3.174609e-02  9.841990e-02
     vertex -5.521183e-01 -1.587302e-02  9.841990e-02
   endloop
 endfacet
 facet normal  1.425201e-01  0.000000e+00  9.897919e-01
   outer loop
     vertex -6.044092e-01 -1.587302e-02  1.095239e-01
     vertex -6.044092e-01 -3.174609e-02  1.095239e-01
     vertex -5.778955e-01 -3.174609e-02  1.057062e-01
   endloop
 endfacet
 facet normal  1.425201e-01  0.000000e+00  9.897919e-01
   outer loop
     vertex -6.044092e-01 -1.587302e-02  1.095239e-01
     vertex -5.778955e-01 -3.174609e-02  1.057062e-01
     vertex -5.778955e-01 -1.587302e-02  1.057062e-01
   endloop
 endfacet
 facet normal  0.000000e+00  0.000000e+00  1.000000e+00
   outer loop
     vertex -1.007936e+00 -1.587302e-02  1.095239e-01
     vertex -6.044092e-01 -1.587302e-02  1.095239e-01
     vertex -6.044092e-01  3.174603e-02  1.095239e-01
   endloop
 endfacet
 facet normal  0.000000e+00  0.000000e+00  1.000000e+00
   outer loop
     vertex -1.007936e+00 -1.587302e-02  1.095239e-01
     vertex -6.044092e-01  3.174603e-02  1.095239e-01
     vertex -1.007936e+00  3.174603e-02  1.095239e-01
   endloop
 endfacet
 facet normal  0.000000e+00  0.000000e+00 -1.000000e+00
   outer loop
     vertex -4.567898e-02 -1.587302e-02 -1.077601e-01
     vertex -4.492063e-01 -1.587302e-02 -1.077601e-01
     vertex -4.492063e-01  3.174603e-02 -1.077601e-01
   endloop
 endfacet
 facet normal  0.000000e+00  0.000000e+00 -1.000000e+00
   outer loop
     vertex -4.567898e-02 -1.587302e-02 -1.077601e-01
     vertex -4.492063e-01  3.174603e-02 -1.077601e-01
     vertex -4.567898e-02  3.174603e-02 -1.077601e-01
   endloop
 endfacet
 facet normal -3.439119e-17  0.000000e+00 -1.000000e+00
   outer loop
     vertex  3.578484e-01 -1.587302e-02 -1.077601e-01
     vertex -4.567898e-02 -1.587302e-02 -1.077601e-01
     vertex -4.567898e-02  3.174603e-02 -1.077601e-01
   endloop
 endfacet
 facet normal -3.439119e-17  0.000000e+00 -1.000000e+00
   outer loop
     vertex  3.578484e-01 -1.587302e-02 -1.077601e-01
     vertex -4.567898e-02  3.174603e-02 -1.077601e-01
     vertex  3.578484e-01  3.174603e-02 -1.077601e-01
   endloop
 endfacet
 facet normal -8.062776e-01  0.000000e+00 -5.915374e-01
   outer loop
     vertex  3.736940e-01 -1.587302e-02 -1.293580e-01
     vertex  3.578484e-01 -1.587302e-02 -1.077601e-01
     vertex  3.578484e-01  3.174603e-02 -1.077601e-01
   endloop
 endfacet
 facet normal -8.062776e-01  0.000000e+00 -5.915374e-01
   outer loop
     vertex  3.736940e-01 -1.587302e-02 -1.293580e-01
     vertex  3.578484e-01  3.174603e-02 -1.077601e-01
     vertex  3.736940e-01  3.174603e-02 -1.293580e-01
   endloop
 endfacet
 facet normal -7.210809e-01  0.000000e+00 -6.928508e-01
   outer loop
     vertex  3.922535e-01 -1.587302e-02 -1.486737e-01
     vertex  3.736940e-01  3.174603e-02 -1.293580e-01
     vertex  3.922535e-01  3.174603e-02 -1.486737e-01
   endloop
 endfacet
 facet normal -7.210809e-01  0.000000e+00 -6.928508e-01
   outer loop
     vertex  3.922535e-01 -1.587302e-02 -1.486737e-01
     vertex  3.736940e-01 -1.587302e-02 -1.293580e-01
     vertex  3.736940e-01  3.174603e-02 -1.293580e-01
   endloop
 endfacet
 facet normal -6.232489e-01  0.000000e+00 -7.820235e-01
   outer loop
     vertex  4.132017e-01 -1.587302e-02 -1.653687e-01
     vertex  3.922535e-01  3.174603e-02 -1.486737e-01
     vertex  4.132017e-01  3.174603e-02 -1.653687e-01
   endloop
 endfacet
 facet normal -6.232489e-01  0.000000e+00 -7.820235e-01
   outer loop
     vertex  4.132017e-01 -1.587302e-02 -1.653687e-01
     vertex  3.922535e-01 -1.587302e-02 -1.486737e-01
     vertex  3.922535e-01  3.174603e-02 -1.486737e-01
   endloop
 endfacet
 facet normal -5.144958e-01  0.000000e+00 -8.574929e-01
   outer loop
     vertex  4.361715e-01 -1.587302e-02 -1.791506e-01
     vertex  4.132017e-01  3.174603e-02 -1.653687e-01
     vertex  4.361715e-01  3.174603e-02 -1.791506e-01
   endloop
 endfacet
 facet normal -5.144958e-01  0.000000e+00 -8.574929e-01
   outer loop
     vertex  4.361715e-01 -1.587302e-02 -1.791506e-01
     vertex  4.132017e-01 -1.587302e-02 -1.653687e-01
     vertex  4.132017e-01  3.174603e-02 -1.653687e-01
   endloop
 endfacet
 facet normal -3.967272e-01  0.000000e+00 -9.179366e-01
   outer loop
     vertex  4.607604e-01 -1.587302e-02 -1.897778e-01
     vertex  4.361715e-01  3.174603e-02 -1.791506e-01
     vertex  4.607604e-01  3.174603e-02 -1.897778e-01
   endloop
 endfacet
 facet normal -3.967272e-01  0.000000e+00 -9.179366e-01
   outer loop
     vertex  4.607604e-01 -1.587302e-02 -1.897778e-01
     vertex  4.361715e-01 -1.587302e-02 -1.791506e-01
     vertex  4.361715e-01  3.174603e-02 -1.791506e-01
   endloop
 endfacet
 facet normal -2.720068e-01  0.000000e+00 -9.622953e-01
   outer loop
     vertex  4.865375e-01 -1.587302e-02 -1.970641e-01
     vertex  4.607604e-01  3.174603e-02 -1.897778e-01
     vertex  4.865375e-01  3.174603e-02 -1.970641e-01
   endloop
 endfacet
 facet normal -2.720068e-01  0.000000e+00 -9.622953e-01
   outer loop
     vertex  4.865375e-01 -1.587302e-02 -1.970641e-01
     vertex  4.607604e-01 -1.587302e-02 -1.897778e-01
     vertex  4.607604e-01  3.174603e-02 -1.897778e-01
   endloop
 endfacet
 facet normal -1.425201e-01  0.000000e+00 -9.897919e-01
   outer loop
     vertex  5.130512e-01 -1.587302e-02 -2.008818e-01
     vertex  4.865375e-01  3.174603e-02 -1.970641e-01
     vertex  5.130512e-01  3.174603e-02 -2.008818e-01
   endloop
 endfacet
 facet normal -1.425201e-01  0.000000e+00 -9.897919e-01
   outer loop
     vertex  5.130512e-01 -1.587302e-02 -2.008818e-01
     vertex  4.865375e-01 -1.587302e-02 -1.970641e-01
     vertex  4.865375e-01  3.174603e-02 -1.970641e-01
   endloop
 endfacet
 facet normal  0.000000e+00  0.000000e+00 -1.000000e+00
   outer loop
     vertex  9.165785e-01 -1.587302e-02 -2.008818e-01
     vertex  5.130512e-01 -1.587302e-02 -2.008818e-01
     vertex  5.130512e-01  3.174603e-02 -2.008818e-01
   endloop
 endfacet
 facet normal  0.000000e+00  0.000000e+00 -1.000000e+00
   outer loop
     vertex  9.165785e-01 -1.587302e-02 -2.008818e-01
     vertex  5.130512e-01  3.174603e-02 -2.008818e-01
     vertex  9.165785e-01  3.174603e-02 -2.008818e-01
   endloop
 endfacet
 facet normal  1.000000e+00  0.000000e+00  0.000000e+00
   outer loop
     vertex  9.165785e-01 -1.587302e-02  1.095239e-01
     vertex  9.165785e-01 -1.587302e-02 -2.008818e-01
     vertex  9.165785e-01  3.174603e-02 -2.008818e-01
   endloop
 endfacet
 facet normal  1.000000e+00 -0.000000e+00  0.000000e+00
   outer loop
     vertex  9.165785e-01 -1.587302e-02  1.095239e-01
     vertex  9.165785e-01  3.174603e-02 -2.008818e-01
     vertex  9.165785e-01  3.174603e-02  1.095239e-01
   endloop
 endfacet
 facet normal  3.439120e-17  0.000000e+00  1.000000e+00
   outer loop
     vertex  5.130512e-01 -1.587302e-02  1.095239e-01
     vertex  9.165785e-01 -1.587302e-02  1.095239e-01
     vertex  9.165785e-01  3.174603e-02  1.095239e-01
   endloop
 endfacet
 facet normal  3.439120e-17 -0.000000e+00  1.000000e+00
   outer loop
     vertex  5.130512e-01 -1.587302e-02  1.095239e-01
     vertex  9.165785e-01  3.174603e-02  1.095239e-01
     vertex  5.130512e-01  3.174603e-02  1.095239e-01
   endloop
 endfacet
 facet normal -1.425201e-01  0.000000e+00  9.897919e-01
   outer loop
     vertex  4.865375e-01 -1.587302e-02  1.057062e-01
     vertex  5.130512e-01 -1.587302e-02  1.095239e-01
     vertex  5.130512e-01  3.174603e-02  1.095239e-01
   endloop
 endfacet
 facet normal -1.425201e-01  0.000000e+00  9.897919e-01
   outer loop
     vertex  4.865375e-01 -1.587302e-02  1.057062e-01
     vertex  5.130512e-01  3.174603e-02  1.095239e-01
     vertex  4.865375e-01  3.174603e-02  1.057062e-01
   endloop
 endfacet
 facet normal -2.720068e-01  0.000000e+00  9.622953e-01
   outer loop
     vertex  4.607604e-01 -1.587302e-02  9.841990e-02
     vertex  4.865375e-01  3.174603e-02  1.057062e-01
     vertex  4.607604e-01  3.174603e-02  9.841990e-02
   endloop
 endfacet
 facet normal -2.720068e-01  0.000000e+00  9.622953e-01
   outer loop
     vertex  4.607604e-01 -1.587302e-02  9.841990e-02
     vertex  4.865375e-01 -1.587302e-02  1.057062e-01
     vertex  4.865375e-01  3.174603e-02  1.057062e-01
   endloop
 endfacet
 facet normal -3.967272e-01  0.000000e+00  9.179366e-01
   outer loop
     vertex  4.361715e-01 -1.587302e-02  8.779271e-02
     vertex  4.607604e-01  3.174603e-02  9.841990e-02
     vertex  4.361715e-01  3.174603e-02  8.779271e-02
   endloop
 endfacet
 facet normal -3.967272e-01  0.000000e+00  9.179366e-01
   outer loop
     vertex  4.361715e-01 -1.587302e-02  8.779271e-02
     vertex  4.607604e-01 -1.587302e-02  9.841990e-02
     vertex  4.607604e-01  3.174603e-02  9.841990e-02
   endloop
 endfacet
 facet normal -5.144958e-01  0.000000e+00  8.574929e-01
   outer loop
     vertex  4.132017e-01 -1.587302e-02  7.401084e-02
     vertex  4.361715e-01  3.174603e-02  8.779271e-02
     vertex  4.132017e-01  3.174603e-02  7.401084e-02
   endloop
 endfacet
 facet normal -5.144958e-01  0.000000e+00  8.574929e-01
   outer loop
     vertex  4.132017e-01 -1.587302e-02  7.401084e-02
     vertex  4.361715e-01 -1.587302e-02  8.779271e-02
     vertex  4.361715e-01  3.174603e-02  8.779271e-02
   endloop
 endfacet
 facet normal -6.232489e-01  0.000000e+00  7.820235e-01
   outer loop
     vertex  3.922535e-01 -1.587302e-02  5.731578e-02
     vertex  4.132017e-01  3.174603e-02  7.401084e-02
     vertex  3.922535e-01  3.174603e-02  5.731578e-02
   endloop
 endfacet
 facet normal -6.232489e-01  0.000000e+00  7.820235e-01
   outer loop
     vertex  3.922535e-01 -1.587302e-02  5.731578e-02
     vertex  4.132017e-01 -1.587302e-02  7.401084e-02
     vertex  4.132017e-01  3.174603e-02  7.401084e-02
   endloop
 endfacet
 facet normal -7.210809e-01  0.000000e+00  6.928509e-01
   outer loop
     vertex  3.736940e-01 -1.587302e-02  3.800008e-02
     vertex  3.922535e-01  3.174603e-02  5.731578e-02
     vertex  3.736940e-01  3.174603e-02  3.800008e-02
   endloop
 endfacet
 facet normal -7.210809e-01  0.000000e+00  6.928509e-01
   outer loop
     vertex  3.736940e-01 -1.587302e-02  3.800008e-02
     vertex  3.922535e-01 -1.587302e-02  5.731578e-02
     vertex  3.922535e-01  3.174603e-02  5.731578e-02
   endloop
 endfacet
 facet normal -8.062775e-01  0.000000e+00  5.915374e-01
   outer loop
     vertex  3.578484e-01 -1.587302e-02  1.640220e-02
     vertex  3.736940e-01  3.174603e-02  3.800008e-02
     vertex  3.578484e-01  3.174603e-02  1.640220e-02
   endloop
 endfacet
 facet normal -8.062775e-01  0.000000e+00  5.915374e-01
   outer loop
     vertex  3.578484e-01 -1.587302e-02  1.640220e-02
     vertex  3.736940e-01 -1.587302e-02  3.800008e-02
     vertex  3.736940e-01  3.174603e-02  3.800008e-02
   endloop
 endfacet
 facet normal  2.579339e-17  0.000000e+00  1.000000e+00
   outer loop
     vertex -4.567898e-02 -1.587302e-02  1.640220e-02
     vertex  3.578484e-01 -1.587302e-02  1.640220e-02
     vertex  3.578484e-01  3.174603e-02  1.640220e-02
   endloop
 endfacet
 facet normal  2.579339e-17 -0.000000e+00  1.000000e+00
   outer loop
     vertex -4.567898e-02 -1.587302e-02  1.640220e-02
     vertex  3.578484e-01  3.174603e-02  1.640220e-02
     vertex -4.567898e-02  3.174603e-02  1.640220e-02
   endloop
 endfacet
 facet normal  8.597800e-18  0.000000e+00  1.000000e+00
   outer loop
     vertex -4.492063e-01 -1.587302e-02  1.640220e-02
     vertex -4.567898e-02 -1.587302e-02  1.640220e-02
     vertex -4.567898e-02  3.174603e-02  1.640220e-02
   endloop
 endfacet
 facet normal  8.597800e-18 -0.000000e+00  1.000000e+00
   outer loop
     vertex -4.492063e-01 -1.587302e-02  1.640220e-02
     vertex -4.567898e-02  3.174603e-02  1.640220e-02
     vertex -4.492063e-01  3.174603e-02  1.640220e-02
   endloop
 endfacet
 facet normal  8.062774e-01  0.000000e+00  5.915377e-01
   outer loop
     vertex -4.650519e-01 -1.587302e-02  3.800008e-02
     vertex -4.492063e-01 -1.587302e-02  1.640220e-02
     vertex -4.492063e-01  3.174603e-02  1.640220e-02
   endloop
 endfacet
 facet normal  8.062774e-01 -0.000000e+00  5.915377e-01
   outer loop
     vertex -4.650519e-01 -1.587302e-02  3.800008e-02
     vertex -4.492063e-01  3.174603e-02  1.640220e-02
     vertex -4.650519e-01  3.174603e-02  3.800008e-02
   endloop
 endfacet
 facet normal  7.210807e-01 -0.000000e+00  6.928510e-01
   outer loop
     vertex -4.836114e-01 -1.587302e-02  5.731578e-02
     vertex -4.650519e-01  3.174603e-02  3.800008e-02
     vertex -4.836114e-01  3.174603e-02  5.731578e-02
   endloop
 endfacet
 facet normal  7.210807e-01  0.000000e+00  6.928510e-01
   outer loop
     vertex -4.836114e-01 -1.587302e-02  5.731578e-02
     vertex -4.650519e-01 -1.587302e-02  3.800008e-02
     vertex -4.650519e-01  3.174603e-02  3.800008e-02
   endloop
 endfacet
 facet normal  6.232487e-01 -0.000000e+00  7.820237e-01
   outer loop
     vertex -5.045596e-01 -1.587302e-02  7.401084e-02
     vertex -4.836114e-01  3.174603e-02  5.731578e-02
     vertex -5.045596e-01  3.174603e-02  7.401084e-02
   endloop
 endfacet
 facet normal  6.232487e-01  0.000000e+00  7.820237e-01
   outer loop
     vertex -5.045596e-01 -1.587302e-02  7.401084e-02
     vertex -4.836114e-01 -1.587302e-02  5.731578e-02
     vertex -4.836114e-01  3.174603e-02  5.731578e-02
   endloop
 endfacet
 facet normal  5.144956e-01 -0.000000e+00  8.574930e-01
   outer loop
     vertex -5.275294e-01 -1.587302e-02  8.779271e-02
     vertex -5.045596e-01  3.174603e-02  7.401084e-02
     vertex -5.275294e-01  3.174603e-02  8.779271e-02
   endloop
 endfacet
 facet normal  5.144956e-01  0.000000e+00  8.574930e-01
   outer loop
     vertex -5.275294e-01 -1.587302e-02  8.779271e-02
     vertex -5.045596e-01 -1.587302e-02  7.401084e-02
     vertex -5.045596e-01  3.174603e-02  7.401084e-02
   endloop
 endfacet
 facet normal  3.967271e-01 -0.000000e+00  9.179366e-01
   outer loop
     vertex -5.521183e-01 -1.587302e-02  9.841990e-02
     vertex -5.275294e-01  3.174603e-02  8.779271e-02
     vertex -5.521183e-01  3.174603e-02  9.841990e-02
   endloop
 endfacet
 facet normal  3.967271e-01  0.000000e+00  9.179366e-01
   outer loop
     vertex -5.521183e-01 -1.587302e-02  9.841990e-02
     vertex -5.275294e-01 -1.587302e-02  8.779271e-02
     vertex -5.275294e-01  3.174603e-02  8.779271e-02
   endloop
 endfacet
 facet normal  2.720068e-01 -0.000000e+00  9.622953e-01
   outer loop
     vertex -5.778955e-01 -1.587302e-02  1.057062e-01
     vertex -5.521183e-01  3.174603e-02  9.841990e-02
     vertex -5.778955e-01  3.174603e-02  1.057062e-01
   endloop
 endfacet
 facet normal  2.720068e-01  0.000000e+00  9.622953e-01
   outer loop
     vertex -5.778955e-01 -1.587302e-02  1.057062e-01
     vertex -5.521183e-01 -1.587302e-02  9.841990e-02
     vertex -5.521183e-01  3.174603e-02  9.841990e-02
   endloop
 endfacet
 facet normal  1.425201e-01 -0.000000e+00  9.897919e-01
   outer loop
     vertex -6.044092e-01 -1.587302e-02  1.095239e-01
     vertex -5.778955e-01  3.174603e-02  1.057062e-01
     vertex -6.044092e-01  3.174603e-02  1.095239e-01
   endloop
 endfacet
 facet normal  1.425201e-01  0.000000e+00  9.897919e-01
   outer loop
     vertex -6.044092e-01 -1.587302e-02  1.095239e-01
     vertex -5.778955e-01 -1.587302e-02  1.057062e-01
     vertex -5.778955e-01  3.174603e-02  1.057062e-01
   endloop
 endfacet
endsolid
