solid 
 facet normal -9.931506e-01  1.168412e-01  0.000000e+00
   outer loop
     vertex -7.966490e-01 -9.416226e-01 -1.587302e-02
     vertex -6.470900e-01  3.296297e-01  7.301587e-01
     vertex -6.470900e-01  3.296297e-01 -1.587302e-02
   endloop
 endfacet
 facet normal -9.931506e-01  1.168412e-01  0.000000e+00
   outer loop
     vertex -7.966490e-01 -9.416226e-01 -1.587302e-02
     vertex -7.966490e-01 -9.416226e-01  7.301587e-01
     vertex -6.470900e-01  3.296297e-01  7.301587e-01
   endloop
 endfacet
 facet normal  9.549973e-01  2.966145e-01  0.000000e+00
   outer loop
     vertex -6.308692e-01  2.489854e-01 -1.587302e-02
     vertex -6.186624e-01  2.096836e-01  7.301587e-01
     vertex -6.186624e-01  2.096836e-01 -1.587302e-02
   endloop
 endfacet
 facet normal  9.549973e-01  2.966145e-01 -0.000000e+00
   outer loop
     vertex -6.308692e-01  2.489854e-01 -1.587302e-02
     vertex -6.308692e-01  2.489854e-01  7.301587e-01
     vertex -6.186624e-01  2.096836e-01  7.301587e-01
   endloop
 endfacet
 facet normal  9.730451e-01  2.306147e-01 -0.000000e+00
   outer loop
     vertex -6.403599e-01  2.890299e-01 -1.587302e-02
     vertex -6.403599e-01  2.890299e-01  7.301587e-01
     vertex -6.308692e-01  2.489854e-01  7.301587e-01
   endloop
 endfacet
 facet normal  9.730451e-01  2.306147e-01  0.000000e+00
   outer loop
     vertex -6.403599e-01  2.890299e-01 -1.587302e-02
     vertex -6.308692e-01  2.489854e-01  7.301587e-01
     vertex -6.308692e-01  2.489854e-01 -1.587302e-02
   endloop
 endfacet
 facet normal  9.865375e-01  1.635353e-01 -0.000000e+00
   outer loop
     vertex -6.470900e-01  3.296297e-01 -1.587302e-02
     vertex -6.470900e-01  3.296297e-01  7.301587e-01
     vertex -6.403599e-01  2.890299e-01  7.301587e-01
   endloop
 endfacet
 facet normal  9.865375e-01  1.635353e-01  0.000000e+00
   outer loop
     vertex -6.470900e-01  3.296297e-01 -1.587302e-02
     vertex -6.403599e-01  2.890299e-01  7.301587e-01
     vertex -6.403599e-01  2.890299e-01 -1.587302e-02
   endloop
 endfacet
 facet normal -3.713903e-01  9.284768e-01  0.000000e+00
   outer loop
     vertex -9.835979e-01 -1.016402e+00 -1.587302e-02
     vertex -7.966490e-01 -9.416226e-01  7.301587e-01
     vertex -7.966490e-01 -9.416226e-01 -1.587302e-02
   endloop
 endfacet
 facet normal -3.713903e-01  9.284768e-01  0.000000e+00
   outer loop
     vertex -9.835979e-01 -1.016402e+00 -1.587302e-02
     vertex -9.835979e-01 -1.016402e+00  7.301587e-01
     vertex -7.966490e-01 -9.416226e-01  7.301587e-01
   endloop
 endfacet
 facet normal -9.931506e-01  1.168412e-01  0.000000e+00
   outer loop
     vertex -7.966490e-01 -9.416226e-01 -1.587302e-02
     vertex -6.470900e-01  3.296297e-01 -1.587302e-02
     vertex -6.470900e-01  3.296297e-01 -3.174603e-02
   endloop
 endfacet
 facet normal -9.931506e-01  1.168412e-01  0.000000e+00
   outer loop
     vertex -7.966490e-01 -9.416226e-01 -1.587302e-02
     vertex -6.470900e-01  3.296297e-01 -3.174603e-02
     vertex -7.966490e-01 -9.416226e-01 -3.174603e-02
   endloop
 endfacet
 facet normal  0.000000e+00  0.000000e+00  1.000000e+00
   outer loop
     vertex -6.080324e-01  1.047533e-01  7.301587e-01
     vertex -6.198476e-01  1.142337e-01  7.301587e-01
     vertex -7.966490e-01 -9.416226e-01  7.301587e-01
   endloop
 endfacet
 facet normal  0.000000e+00  0.000000e+00  1.000000e+00
   outer loop
     vertex -4.463611e-01 -4.537401e-02  7.301587e-01
     vertex -4.798310e-01 -1.380513e-02  7.301587e-01
     vertex -7.966490e-01 -9.416226e-01  7.301587e-01
   endloop
 endfacet
 facet normal  0.000000e+00  0.000000e+00  1.000000e+00
   outer loop
     vertex -5.107898e-01  2.022980e-02  7.301587e-01
     vertex -6.080324e-01  1.047533e-01  7.301587e-01
     vertex -7.966490e-01 -9.416226e-01  7.301587e-01
   endloop
 endfacet
 facet normal  0.000000e+00  0.000000e+00  1.000000e+00
   outer loop
     vertex -5.107898e-01  2.022980e-02  7.301587e-01
     vertex -7.966490e-01 -9.416226e-01  7.301587e-01
     vertex -4.798310e-01 -1.380513e-02  7.301587e-01
   endloop
 endfacet
 facet normal  0.000000e+00  0.000000e+00  1.000000e+00
   outer loop
     vertex -4.105761e-01 -7.429211e-02  7.301587e-01
     vertex -4.463611e-01 -4.537401e-02  7.301587e-01
     vertex -7.966490e-01 -9.416226e-01  7.301587e-01
   endloop
 endfacet
 facet normal  0.000000e+00  0.000000e+00  1.000000e+00
   outer loop
     vertex -5.390565e-01  5.653162e-02  7.301587e-01
     vertex -5.943884e-01  9.817184e-02  7.301587e-01
     vertex -6.080324e-01  1.047533e-01  7.301587e-01
   endloop
 endfacet
 facet normal  0.000000e+00  0.000000e+00  1.000000e+00
   outer loop
     vertex -5.390565e-01  5.653162e-02  7.301587e-01
     vertex -5.796139e-01  9.482629e-02  7.301587e-01
     vertex -5.943884e-01  9.817184e-02  7.301587e-01
   endloop
 endfacet
 facet normal  0.000000e+00  0.000000e+00  1.000000e+00
   outer loop
     vertex -5.390565e-01  5.653162e-02  7.301587e-01
     vertex -6.080324e-01  1.047533e-01  7.301587e-01
     vertex -5.107898e-01  2.022980e-02  7.301587e-01
   endloop
 endfacet
 facet normal  0.000000e+00  0.000000e+00  1.000000e+00
   outer loop
     vertex -3.726852e-01 -1.003902e-01  7.301587e-01
     vertex -7.966490e-01 -9.416226e-01  7.301587e-01
     vertex -2.358024e-01 -7.172839e-01  7.301587e-01
   endloop
 endfacet
 facet normal  0.000000e+00  0.000000e+00  1.000000e+00
   outer loop
     vertex -3.726852e-01 -1.003902e-01  7.301587e-01
     vertex -4.105761e-01 -7.429211e-02  7.301587e-01
     vertex -7.966490e-01 -9.416226e-01  7.301587e-01
   endloop
 endfacet
 facet normal  0.000000e+00  0.000000e+00  1.000000e+00
   outer loop
     vertex -5.644656e-01  9.488791e-02  7.301587e-01
     vertex -5.796139e-01  9.482629e-02  7.301587e-01
     vertex -5.390565e-01  5.653162e-02  7.301587e-01
   endloop
 endfacet
 facet normal  0.000000e+00  0.000000e+00  1.000000e+00
   outer loop
     vertex -3.329103e-01 -1.235156e-01  7.301587e-01
     vertex -3.726852e-01 -1.003902e-01  7.301587e-01
     vertex -2.358024e-01 -7.172839e-01  7.301587e-01
   endloop
 endfacet
 facet normal  0.000000e+00  0.000000e+00  1.000000e+00
   outer loop
     vertex -2.914841e-01 -1.435330e-01  7.301587e-01
     vertex -3.329103e-01 -1.235156e-01  7.301587e-01
     vertex -2.358024e-01 -7.172839e-01  7.301587e-01
   endloop
 endfacet
 facet normal  0.000000e+00  0.000000e+00  1.000000e+00
   outer loop
     vertex -6.308692e-01  2.489854e-01  7.301587e-01
     vertex -6.283362e-01  1.980263e-01  7.301587e-01
     vertex -6.186624e-01  2.096836e-01  7.301587e-01
   endloop
 endfacet
 facet normal  0.000000e+00  0.000000e+00  1.000000e+00
   outer loop
     vertex -6.308692e-01  2.489854e-01  7.301587e-01
     vertex -6.351417e-01  1.844926e-01  7.301587e-01
     vertex -6.283362e-01  1.980263e-01  7.301587e-01
   endloop
 endfacet
 facet normal  0.000000e+00  0.000000e+00  1.000000e+00
   outer loop
     vertex -6.403599e-01  2.890299e-01  7.301587e-01
     vertex -6.351417e-01  1.844926e-01  7.301587e-01
     vertex -6.308692e-01  2.489854e-01  7.301587e-01
   endloop
 endfacet
 facet normal  0.000000e+00  0.000000e+00  1.000000e+00
   outer loop
     vertex -6.403599e-01  2.890299e-01  7.301587e-01
     vertex -6.387303e-01  1.697753e-01  7.301587e-01
     vertex -6.351417e-01  1.844926e-01  7.301587e-01
   endloop
 endfacet
 facet normal  0.000000e+00  0.000000e+00  1.000000e+00
   outer loop
     vertex -6.470900e-01  3.296297e-01  7.301587e-01
     vertex -6.389184e-01  1.546280e-01  7.301587e-01
     vertex -6.387303e-01  1.697753e-01  7.301587e-01
   endloop
 endfacet
 facet normal  0.000000e+00  0.000000e+00  1.000000e+00
   outer loop
     vertex -6.470900e-01  3.296297e-01  7.301587e-01
     vertex -6.387303e-01  1.697753e-01  7.301587e-01
     vertex -6.403599e-01  2.890299e-01  7.301587e-01
   endloop
 endfacet
 facet normal  0.000000e+00  0.000000e+00  1.000000e+00
   outer loop
     vertex  1.007056e-01 -2.686066e-01  7.301587e-01
     vertex -1.236331e-01 -3.433863e-01  7.301587e-01
     vertex  2.592602e-02 -4.181658e-01  7.301587e-01
   endloop
 endfacet
 facet normal  0.000000e+00  0.000000e+00  1.000000e+00
   outer loop
     vertex  1.007056e-01 -2.686066e-01  7.301587e-01
     vertex  2.592602e-02 -4.181658e-01  7.301587e-01
     vertex  1.754851e-01 -4.555556e-01  7.301587e-01
   endloop
 endfacet
 facet normal  0.000000e+00  0.000000e+00  1.000000e+00
   outer loop
     vertex  8.858907e-01 -9.790124e-01  7.301587e-01
     vertex -7.966490e-01 -9.416226e-01  7.301587e-01
     vertex -9.835979e-01 -1.016402e+00  7.301587e-01
   endloop
 endfacet
 facet normal  0.000000e+00  0.000000e+00  1.000000e+00
   outer loop
     vertex  8.858907e-01 -9.790124e-01  7.301587e-01
     vertex  1.754851e-01 -4.555556e-01  7.301587e-01
     vertex  1.380953e-01 -6.798941e-01  7.301587e-01
   endloop
 endfacet
 facet normal  0.000000e+00  0.000000e+00  1.000000e+00
   outer loop
     vertex  8.858907e-01 -9.790124e-01  7.301587e-01
     vertex  1.380953e-01 -6.798941e-01  7.301587e-01
     vertex -2.358024e-01 -7.172839e-01  7.301587e-01
   endloop
 endfacet
 facet normal  0.000000e+00  0.000000e+00  1.000000e+00
   outer loop
     vertex  8.858907e-01 -9.790124e-01  7.301587e-01
     vertex -2.358024e-01 -7.172839e-01  7.301587e-01
     vertex -7.966490e-01 -9.416226e-01  7.301587e-01
   endloop
 endfacet
 facet normal  0.000000e+00  0.000000e+00  1.000000e+00
   outer loop
     vertex  1.906797e-01 -1.432664e-01  7.301587e-01
     vertex  1.470902e-01 -1.603758e-01  7.301587e-01
     vertex  1.007056e-01 -2.686066e-01  7.301587e-01
   endloop
 endfacet
 facet normal  0.000000e+00  0.000000e+00  1.000000e+00
   outer loop
     vertex  1.906797e-01 -1.432664e-01  7.301587e-01
     vertex  1.007056e-01 -2.686066e-01  7.301587e-01
     vertex  1.754851e-01 -4.555556e-01  7.301587e-01
   endloop
 endfacet
 facet normal  0.000000e+00  0.000000e+00  1.000000e+00
   outer loop
     vertex  2.328060e-01 -1.228178e-01  7.301587e-01
     vertex  1.906797e-01 -1.432664e-01  7.301587e-01
     vertex  1.754851e-01 -4.555556e-01  7.301587e-01
   endloop
 endfacet
 facet normal  0.000000e+00  0.000000e+00  1.000000e+00
   outer loop
     vertex  2.732138e-01 -9.915390e-02  7.301587e-01
     vertex  2.328060e-01 -1.228178e-01  7.301587e-01
     vertex  1.754851e-01 -4.555556e-01  7.301587e-01
   endloop
 endfacet
 facet normal  0.000000e+00  0.000000e+00  1.000000e+00
   outer loop
     vertex  3.116582e-01 -7.241814e-02  7.301587e-01
     vertex  2.732138e-01 -9.915390e-02  7.301587e-01
     vertex  1.754851e-01 -4.555556e-01  7.301587e-01
   endloop
 endfacet
 facet normal  0.000000e+00  0.000000e+00  1.000000e+00
   outer loop
     vertex  3.479061e-01 -4.277258e-02  7.301587e-01
     vertex  3.116582e-01 -7.241814e-02  7.301587e-01
     vertex  1.754851e-01 -4.555556e-01  7.301587e-01
   endloop
 endfacet
 facet normal  0.000000e+00  0.000000e+00  1.000000e+00
   outer loop
     vertex  3.479061e-01 -4.277258e-02  7.301587e-01
     vertex  1.754851e-01 -4.555556e-01  7.301587e-01
     vertex  8.858907e-01 -9.790124e-01  7.301587e-01
   endloop
 endfacet
 facet normal  0.000000e+00  0.000000e+00  1.000000e+00
   outer loop
     vertex  3.817379e-01 -1.039692e-02  7.301587e-01
     vertex  3.479061e-01 -4.277258e-02  7.301587e-01
     vertex  8.858907e-01 -9.790124e-01  7.301587e-01
   endloop
 endfacet
 facet normal  0.000000e+00  0.000000e+00  1.000000e+00
   outer loop
     vertex  4.129484e-01  2.451260e-02  7.301587e-01
     vertex  3.817379e-01 -1.039692e-02  7.301587e-01
     vertex  8.858907e-01 -9.790124e-01  7.301587e-01
   endloop
 endfacet
 facet normal  0.000000e+00  0.000000e+00  1.000000e+00
   outer loop
     vertex  4.413485e-01  6.174439e-02  7.301587e-01
     vertex  4.129484e-01  2.451260e-02  7.301587e-01
     vertex  8.858907e-01 -9.790124e-01  7.301587e-01
   endloop
 endfacet
 facet normal  0.000000e+00  0.000000e+00  1.000000e+00
   outer loop
     vertex  4.667660e-01  1.010728e-01  7.301587e-01
     vertex  4.413485e-01  6.174439e-02  7.301587e-01
     vertex  8.858907e-01 -9.790124e-01  7.301587e-01
   endloop
 endfacet
 facet normal  0.000000e+00  0.000000e+00  1.000000e+00
   outer loop
     vertex  8.111112e-01  4.044092e-01  7.301587e-01
     vertex  5.493828e-01  3.670194e-01  7.301587e-01
     vertex  5.444046e-01  3.204578e-01  7.301587e-01
   endloop
 endfacet
 facet normal  0.000000e+00  0.000000e+00  1.000000e+00
   outer loop
     vertex  8.111112e-01  4.044092e-01  7.301587e-01
     vertex  5.444046e-01  3.204578e-01  7.301587e-01
     vertex  5.358191e-01  2.744245e-01  7.301587e-01
   endloop
 endfacet
 facet normal  0.000000e+00  0.000000e+00  1.000000e+00
   outer loop
     vertex  8.111112e-01  4.044092e-01  7.301587e-01
     vertex  5.358191e-01  2.744245e-01  7.301587e-01
     vertex  5.236784e-01  2.291987e-01  7.301587e-01
   endloop
 endfacet
 facet normal  0.000000e+00  0.000000e+00  1.000000e+00
   outer loop
     vertex  8.111112e-01  4.044092e-01  7.301587e-01
     vertex  5.236784e-01  2.291987e-01  7.301587e-01
     vertex  5.080561e-01  1.850544e-01  7.301587e-01
   endloop
 endfacet
 facet normal  0.000000e+00  0.000000e+00  1.000000e+00
   outer loop
     vertex  8.111112e-01  4.044092e-01  7.301587e-01
     vertex  5.080561e-01  1.850544e-01  7.301587e-01
     vertex  4.890469e-01  1.422593e-01  7.301587e-01
   endloop
 endfacet
 facet normal  0.000000e+00  0.000000e+00  1.000000e+00
   outer loop
     vertex  8.111112e-01  4.044092e-01  7.301587e-01
     vertex  4.890469e-01  1.422593e-01  7.301587e-01
     vertex  4.667660e-01  1.010728e-01  7.301587e-01
   endloop
 endfacet
 facet normal  0.000000e+00  0.000000e+00  1.000000e+00
   outer loop
     vertex  8.111112e-01  4.044092e-01  7.301587e-01
     vertex  4.667660e-01  1.010728e-01  7.301587e-01
     vertex  8.858907e-01 -9.790124e-01  7.301587e-01
   endloop
 endfacet
 facet normal  0.000000e+00  0.000000e+00  1.000000e+00
   outer loop
     vertex -6.470900e-01  3.296297e-01  7.301587e-01
     vertex -7.966490e-01 -9.416226e-01  7.301587e-01
     vertex -6.389184e-01  1.546280e-01  7.301587e-01
   endloop
 endfacet
 facet normal  0.000000e+00  0.000000e+00  1.000000e+00
   outer loop
     vertex -6.389184e-01  1.546280e-01  7.301587e-01
     vertex -7.966490e-01 -9.416226e-01  7.301587e-01
     vertex -6.356963e-01  1.398261e-01  7.301587e-01
   endloop
 endfacet
 facet normal  0.000000e+00  0.000000e+00  1.000000e+00
   outer loop
     vertex -6.356963e-01  1.398261e-01  7.301587e-01
     vertex -7.966490e-01 -9.416226e-01  7.301587e-01
     vertex -6.292290e-01  1.261276e-01  7.301587e-01
   endloop
 endfacet
 facet normal  0.000000e+00  0.000000e+00  1.000000e+00
   outer loop
     vertex -6.292290e-01  1.261276e-01  7.301587e-01
     vertex -7.966490e-01 -9.416226e-01  7.301587e-01
     vertex -6.198476e-01  1.142337e-01  7.301587e-01
   endloop
 endfacet
 facet normal  0.000000e+00  0.000000e+00  1.000000e+00
   outer loop
     vertex -2.358024e-01 -7.172839e-01  7.301587e-01
     vertex -1.142291e-01 -1.904662e-01  7.301587e-01
     vertex -1.597614e-01 -1.838607e-01  7.301587e-01
   endloop
 endfacet
 facet normal  0.000000e+00  0.000000e+00  1.000000e+00
   outer loop
     vertex -2.358024e-01 -7.172839e-01  7.301587e-01
     vertex -1.597614e-01 -1.838607e-01  7.301587e-01
     vertex -2.046556e-01 -1.737941e-01  7.301587e-01
   endloop
 endfacet
 facet normal  0.000000e+00 -0.000000e+00  1.000000e+00
   outer loop
     vertex -2.358024e-01 -7.172839e-01  7.301587e-01
     vertex -2.046556e-01 -1.737941e-01  7.301587e-01
     vertex -2.486490e-01 -1.603253e-01  7.301587e-01
   endloop
 endfacet
 facet normal  0.000000e+00  0.000000e+00  1.000000e+00
   outer loop
     vertex -2.358024e-01 -7.172839e-01  7.301587e-01
     vertex -2.486490e-01 -1.603253e-01  7.301587e-01
     vertex -2.914841e-01 -1.435330e-01  7.301587e-01
   endloop
 endfacet
 facet normal  7.695372e-01 -6.386020e-01  0.000000e+00
   outer loop
     vertex -6.283362e-01  1.980263e-01 -1.587302e-02
     vertex -6.186624e-01  2.096836e-01 -1.587302e-02
     vertex -6.186624e-01  2.096836e-01  7.301587e-01
   endloop
 endfacet
 facet normal  7.695372e-01 -6.386020e-01  0.000000e+00
   outer loop
     vertex -6.283362e-01  1.980263e-01 -1.587302e-02
     vertex -6.186624e-01  2.096836e-01  7.301587e-01
     vertex -6.283362e-01  1.980263e-01  7.301587e-01
   endloop
 endfacet
 facet normal  8.934060e-01 -4.492501e-01  0.000000e+00
   outer loop
     vertex -6.351417e-01  1.844926e-01 -1.587302e-02
     vertex -6.283362e-01  1.980263e-01  7.301587e-01
     vertex -6.351417e-01  1.844926e-01  7.301587e-01
   endloop
 endfacet
 facet normal  8.934060e-01 -4.492501e-01  0.000000e+00
   outer loop
     vertex -6.351417e-01  1.844926e-01 -1.587302e-02
     vertex -6.283362e-01  1.980263e-01 -1.587302e-02
     vertex -6.283362e-01  1.980263e-01  7.301587e-01
   endloop
 endfacet
 facet normal  9.715346e-01 -2.368977e-01  0.000000e+00
   outer loop
     vertex -6.387303e-01  1.697753e-01 -1.587302e-02
     vertex -6.351417e-01  1.844926e-01  7.301587e-01
     vertex -6.387303e-01  1.697753e-01  7.301587e-01
   endloop
 endfacet
 facet normal  9.715346e-01 -2.368977e-01  0.000000e+00
   outer loop
     vertex -6.387303e-01  1.697753e-01 -1.587302e-02
     vertex -6.351417e-01  1.844926e-01 -1.587302e-02
     vertex -6.351417e-01  1.844926e-01  7.301587e-01
   endloop
 endfacet
 facet normal  9.999229e-01 -1.241663e-02  0.000000e+00
   outer loop
     vertex -6.389184e-01  1.546280e-01 -1.587302e-02
     vertex -6.387303e-01  1.697753e-01  7.301587e-01
     vertex -6.389184e-01  1.546280e-01  7.301587e-01
   endloop
 endfacet
 facet normal  9.999229e-01 -1.241663e-02  0.000000e+00
   outer loop
     vertex -6.389184e-01  1.546280e-01 -1.587302e-02
     vertex -6.387303e-01  1.697753e-01 -1.587302e-02
     vertex -6.387303e-01  1.697753e-01  7.301587e-01
   endloop
 endfacet
 facet normal  9.771175e-01  2.127001e-01 -0.000000e+00
   outer loop
     vertex -6.356963e-01  1.398261e-01 -1.587302e-02
     vertex -6.389184e-01  1.546280e-01  7.301587e-01
     vertex -6.356963e-01  1.398261e-01  7.301587e-01
   endloop
 endfacet
 facet normal  9.771175e-01  2.127001e-01  0.000000e+00
   outer loop
     vertex -6.356963e-01  1.398261e-01 -1.587302e-02
     vertex -6.389184e-01  1.546280e-01 -1.587302e-02
     vertex -6.389184e-01  1.546280e-01  7.301587e-01
   endloop
 endfacet
 facet normal  9.042860e-01  4.269271e-01 -0.000000e+00
   outer loop
     vertex -6.292290e-01  1.261276e-01 -1.587302e-02
     vertex -6.356963e-01  1.398261e-01  7.301587e-01
     vertex -6.292290e-01  1.261276e-01  7.301587e-01
   endloop
 endfacet
 facet normal  9.042860e-01  4.269271e-01  0.000000e+00
   outer loop
     vertex -6.292290e-01  1.261276e-01 -1.587302e-02
     vertex -6.356963e-01  1.398261e-01 -1.587302e-02
     vertex -6.356963e-01  1.398261e-01  7.301587e-01
   endloop
 endfacet
 facet normal  7.851572e-01  6.192965e-01 -0.000000e+00
   outer loop
     vertex -6.198476e-01  1.142337e-01 -1.587302e-02
     vertex -6.292290e-01  1.261276e-01  7.301587e-01
     vertex -6.198476e-01  1.142337e-01  7.301587e-01
   endloop
 endfacet
 facet normal  7.851572e-01  6.192965e-01  0.000000e+00
   outer loop
     vertex -6.198476e-01  1.142337e-01 -1.587302e-02
     vertex -6.292290e-01  1.261276e-01 -1.587302e-02
     vertex -6.292290e-01  1.261276e-01  7.301587e-01
   endloop
 endfacet
 facet normal  6.258303e-01  7.799593e-01 -0.000000e+00
   outer loop
     vertex -6.080324e-01  1.047533e-01 -1.587302e-02
     vertex -6.198476e-01  1.142337e-01  7.301587e-01
     vertex -6.080324e-01  1.047533e-01  7.301587e-01
   endloop
 endfacet
 facet normal  6.258303e-01  7.799593e-01  0.000000e+00
   outer loop
     vertex -6.080324e-01  1.047533e-01 -1.587302e-02
     vertex -6.198476e-01  1.142337e-01 -1.587302e-02
     vertex -6.198476e-01  1.142337e-01  7.301587e-01
   endloop
 endfacet
 facet normal  4.344622e-01  9.006900e-01 -0.000000e+00
   outer loop
     vertex -5.943884e-01  9.817184e-02 -1.587302e-02
     vertex -6.080324e-01  1.047533e-01  7.301587e-01
     vertex -5.943884e-01  9.817184e-02  7.301587e-01
   endloop
 endfacet
 facet normal  2.208508e-01  9.753076e-01 -0.000000e+00
   outer loop
     vertex -5.943884e-01  9.817184e-02 -1.587302e-02
     vertex -5.943884e-01  9.817184e-02  7.301587e-01
     vertex -5.796139e-01  9.482629e-02  7.301587e-01
   endloop
 endfacet
 facet normal  4.344622e-01  9.006900e-01  0.000000e+00
   outer loop
     vertex -5.943884e-01  9.817184e-02 -1.587302e-02
     vertex -6.080324e-01  1.047533e-01 -1.587302e-02
     vertex -6.080324e-01  1.047533e-01  7.301587e-01
   endloop
 endfacet
 facet normal  2.208508e-01  9.753076e-01 -0.000000e+00
   outer loop
     vertex -5.796139e-01  9.482629e-02 -1.587302e-02
     vertex -5.943884e-01  9.817184e-02 -1.587302e-02
     vertex -5.796139e-01  9.482629e-02  7.301587e-01
   endloop
 endfacet
 facet normal -4.067694e-03  9.999917e-01  0.000000e+00
   outer loop
     vertex -5.644656e-01  9.488791e-02 -1.587302e-02
     vertex -5.796139e-01  9.482629e-02  7.301587e-01
     vertex -5.644656e-01  9.488791e-02  7.301587e-01
   endloop
 endfacet
 facet normal -4.067694e-03  9.999917e-01  0.000000e+00
   outer loop
     vertex -5.644656e-01  9.488791e-02 -1.587302e-02
     vertex -5.796139e-01  9.482629e-02 -1.587302e-02
     vertex -5.796139e-01  9.482629e-02  7.301587e-01
   endloop
 endfacet
 facet normal  9.549973e-01  2.966145e-01  0.000000e+00
   outer loop
     vertex -6.308692e-01  2.489854e-01 -1.587302e-02
     vertex -6.186624e-01  2.096836e-01 -1.587302e-02
     vertex -6.186624e-01  2.096836e-01 -3.174603e-02
   endloop
 endfacet
 facet normal  9.549973e-01  2.966145e-01  0.000000e+00
   outer loop
     vertex -6.308692e-01  2.489854e-01 -1.587302e-02
     vertex -6.186624e-01  2.096836e-01 -3.174603e-02
     vertex -6.308692e-01  2.489854e-01 -3.174603e-02
   endloop
 endfacet
 facet normal  9.730451e-01  2.306147e-01  0.000000e+00
   outer loop
     vertex -6.403599e-01  2.890299e-01 -1.587302e-02
     vertex -6.308692e-01  2.489854e-01 -3.174603e-02
     vertex -6.403599e-01  2.890299e-01 -3.174603e-02
   endloop
 endfacet
 facet normal  9.730451e-01  2.306147e-01  0.000000e+00
   outer loop
     vertex -6.403599e-01  2.890299e-01 -1.587302e-02
     vertex -6.308692e-01  2.489854e-01 -1.587302e-02
     vertex -6.308692e-01  2.489854e-01 -3.174603e-02
   endloop
 endfacet
 facet normal  9.865375e-01  1.635353e-01  0.000000e+00
   outer loop
     vertex -6.470900e-01  3.296297e-01 -1.587302e-02
     vertex -6.403599e-01  2.890299e-01 -3.174603e-02
     vertex -6.470900e-01  3.296297e-01 -3.174603e-02
   endloop
 endfacet
 facet normal  9.865375e-01  1.635353e-01  0.000000e+00
   outer loop
     vertex -6.470900e-01  3.296297e-01 -1.587302e-02
     vertex -6.403599e-01  2.890299e-01 -1.587302e-02
     vertex -6.403599e-01  2.890299e-01 -3.174603e-02
   endloop
 endfacet
 facet normal  1.999596e-02 -9.998001e-01  0.000000e+00
   outer loop
     vertex  8.858907e-01 -9.790124e-01 -1.587302e-02
     vertex -9.835979e-01 -1.016402e+00  7.301587e-01
     vertex -9.835979e-01 -1.016402e+00 -1.587302e-02
   endloop
 endfacet
 facet normal  1.999596e-02 -9.998001e-01  0.000000e+00
   outer loop
     vertex  8.858907e-01 -9.790124e-01 -1.587302e-02
     vertex  8.858907e-01 -9.790124e-01  7.301587e-01
     vertex -9.835979e-01 -1.016402e+00  7.301587e-01
   endloop
 endfacet
 facet normal -3.713903e-01  9.284768e-01  0.000000e+00
   outer loop
     vertex -9.835979e-01 -1.016402e+00 -1.587302e-02
     vertex -7.966490e-01 -9.416226e-01 -1.587302e-02
     vertex -7.966490e-01 -9.416226e-01 -3.174603e-02
   endloop
 endfacet
 facet normal -3.713903e-01  9.284768e-01  0.000000e+00
   outer loop
     vertex -9.835979e-01 -1.016402e+00 -1.587302e-02
     vertex -7.966490e-01 -9.416226e-01 -3.174603e-02
     vertex -9.835979e-01 -1.016402e+00 -3.174603e-02
   endloop
 endfacet
 facet normal -0.000000e+00  0.000000e+00 -1.000000e+00
   outer loop
     vertex -6.080324e-01  1.047533e-01 -3.174603e-02
     vertex -7.966490e-01 -9.416226e-01 -3.174603e-02
     vertex -6.198476e-01  1.142337e-01 -3.174603e-02
   endloop
 endfacet
 facet normal -0.000000e+00  0.000000e+00 -1.000000e+00
   outer loop
     vertex -4.463611e-01 -4.537401e-02 -3.174603e-02
     vertex -7.966490e-01 -9.416226e-01 -3.174603e-02
     vertex -4.798310e-01 -1.380513e-02 -3.174603e-02
   endloop
 endfacet
 facet normal -0.000000e+00  0.000000e+00 -1.000000e+00
   outer loop
     vertex -5.107898e-01  2.022980e-02 -3.174603e-02
     vertex -7.966490e-01 -9.416226e-01 -3.174603e-02
     vertex -6.080324e-01  1.047533e-01 -3.174603e-02
   endloop
 endfacet
 facet normal  0.000000e+00 -0.000000e+00 -1.000000e+00
   outer loop
     vertex -5.107898e-01  2.022980e-02 -3.174603e-02
     vertex -4.798310e-01 -1.380513e-02 -3.174603e-02
     vertex -7.966490e-01 -9.416226e-01 -3.174603e-02
   endloop
 endfacet
 facet normal -0.000000e+00  0.000000e+00 -1.000000e+00
   outer loop
     vertex -4.105761e-01 -7.429211e-02 -3.174603e-02
     vertex -7.966490e-01 -9.416226e-01 -3.174603e-02
     vertex -4.463611e-01 -4.537401e-02 -3.174603e-02
   endloop
 endfacet
 facet normal  0.000000e+00  0.000000e+00 -1.000000e+00
   outer loop
     vertex -5.390565e-01  5.653162e-02 -3.174603e-02
     vertex -6.080324e-01  1.047533e-01 -3.174603e-02
     vertex -5.943884e-01  9.817184e-02 -3.174603e-02
   endloop
 endfacet
 facet normal  0.000000e+00  0.000000e+00 -1.000000e+00
   outer loop
     vertex -5.390565e-01  5.653162e-02 -3.174603e-02
     vertex -5.943884e-01  9.817184e-02 -3.174603e-02
     vertex -5.796139e-01  9.482629e-02 -3.174603e-02
   endloop
 endfacet
 facet normal -0.000000e+00 -0.000000e+00 -1.000000e+00
   outer loop
     vertex -5.390565e-01  5.653162e-02 -3.174603e-02
     vertex -5.107898e-01  2.022980e-02 -3.174603e-02
     vertex -6.080324e-01  1.047533e-01 -3.174603e-02
   endloop
 endfacet
 facet normal  0.000000e+00 -0.000000e+00 -1.000000e+00
   outer loop
     vertex -3.726852e-01 -1.003902e-01 -3.174603e-02
     vertex -2.358024e-01 -7.172839e-01 -3.174603e-02
     vertex -7.966490e-01 -9.416226e-01 -3.174603e-02
   endloop
 endfacet
 facet normal -0.000000e+00  0.000000e+00 -1.000000e+00
   outer loop
     vertex -3.726852e-01 -1.003902e-01 -3.174603e-02
     vertex -7.966490e-01 -9.416226e-01 -3.174603e-02
     vertex -4.105761e-01 -7.429211e-02 -3.174603e-02
   endloop
 endfacet
 facet normal  0.000000e+00 -0.000000e+00 -1.000000e+00
   outer loop
     vertex -5.644656e-01  9.488791e-02 -3.174603e-02
     vertex -5.390565e-01  5.653162e-02 -3.174603e-02
     vertex -5.796139e-01  9.482629e-02 -3.174603e-02
   endloop
 endfacet
 facet normal -0.000000e+00 -0.000000e+00 -1.000000e+00
   outer loop
     vertex -3.329103e-01 -1.235156e-01 -3.174603e-02
     vertex -2.358024e-01 -7.172839e-01 -3.174603e-02
     vertex -3.726852e-01 -1.003902e-01 -3.174603e-02
   endloop
 endfacet
 facet normal -0.000000e+00 -0.000000e+00 -1.000000e+00
   outer loop
     vertex -2.914841e-01 -1.435330e-01 -3.174603e-02
     vertex -2.358024e-01 -7.172839e-01 -3.174603e-02
     vertex -3.329103e-01 -1.235156e-01 -3.174603e-02
   endloop
 endfacet
 facet normal  0.000000e+00  0.000000e+00 -1.000000e+00
   outer loop
     vertex -6.308692e-01  2.489854e-01 -3.174603e-02
     vertex -6.186624e-01  2.096836e-01 -3.174603e-02
     vertex -6.283362e-01  1.980263e-01 -3.174603e-02
   endloop
 endfacet
 facet normal  0.000000e+00 -0.000000e+00 -1.000000e+00
   outer loop
     vertex -6.308692e-01  2.489854e-01 -3.174603e-02
     vertex -6.283362e-01  1.980263e-01 -3.174603e-02
     vertex -6.351417e-01  1.844926e-01 -3.174603e-02
   endloop
 endfacet
 facet normal  0.000000e+00  0.000000e+00 -1.000000e+00
   outer loop
     vertex -6.403599e-01  2.890299e-01 -3.174603e-02
     vertex -6.308692e-01  2.489854e-01 -3.174603e-02
     vertex -6.351417e-01  1.844926e-01 -3.174603e-02
   endloop
 endfacet
 facet normal  0.000000e+00  0.000000e+00 -1.000000e+00
   outer loop
     vertex -6.403599e-01  2.890299e-01 -3.174603e-02
     vertex -6.351417e-01  1.844926e-01 -3.174603e-02
     vertex -6.387303e-01  1.697753e-01 -3.174603e-02
   endloop
 endfacet
 facet normal  0.000000e+00  0.000000e+00 -1.000000e+00
   outer loop
     vertex -6.470900e-01  3.296297e-01 -3.174603e-02
     vertex -6.387303e-01  1.697753e-01 -3.174603e-02
     vertex -6.389184e-01  1.546280e-01 -3.174603e-02
   endloop
 endfacet
 facet normal  0.000000e+00  0.000000e+00 -1.000000e+00
   outer loop
     vertex -6.470900e-01  3.296297e-01 -3.174603e-02
     vertex -6.403599e-01  2.890299e-01 -3.174603e-02
     vertex -6.387303e-01  1.697753e-01 -3.174603e-02
   endloop
 endfacet
 facet normal  0.000000e+00  0.000000e+00 -1.000000e+00
   outer loop
     vertex  1.007056e-01 -2.686066e-01 -3.174603e-02
     vertex  2.592602e-02 -4.181658e-01 -3.174603e-02
     vertex -1.236331e-01 -3.433863e-01 -3.174603e-02
   endloop
 endfacet
 facet normal  0.000000e+00 -0.000000e+00 -1.000000e+00
   outer loop
     vertex  1.007056e-01 -2.686066e-01 -3.174603e-02
     vertex  1.754851e-01 -4.555556e-01 -3.174603e-02
     vertex  2.592602e-02 -4.181658e-01 -3.174603e-02
   endloop
 endfacet
 facet normal -0.000000e+00  0.000000e+00 -1.000000e+00
   outer loop
     vertex  8.858907e-01 -9.790124e-01 -3.174603e-02
     vertex -9.835979e-01 -1.016402e+00 -3.174603e-02
     vertex -7.966490e-01 -9.416226e-01 -3.174603e-02
   endloop
 endfacet
 facet normal  0.000000e+00  0.000000e+00 -1.000000e+00
   outer loop
     vertex  8.858907e-01 -9.790124e-01 -3.174603e-02
     vertex  1.380953e-01 -6.798941e-01 -3.174603e-02
     vertex  1.754851e-01 -4.555556e-01 -3.174603e-02
   endloop
 endfacet
 facet normal  0.000000e+00  0.000000e+00 -1.000000e+00
   outer loop
     vertex  8.858907e-01 -9.790124e-01 -3.174603e-02
     vertex -2.358024e-01 -7.172839e-01 -3.174603e-02
     vertex  1.380953e-01 -6.798941e-01 -3.174603e-02
   endloop
 endfacet
 facet normal  0.000000e+00  0.000000e+00 -1.000000e+00
   outer loop
     vertex  8.858907e-01 -9.790124e-01 -3.174603e-02
     vertex -7.966490e-01 -9.416226e-01 -3.174603e-02
     vertex -2.358024e-01 -7.172839e-01 -3.174603e-02
   endloop
 endfacet
 facet normal  0.000000e+00  0.000000e+00 -1.000000e+00
   outer loop
     vertex  1.906797e-01 -1.432664e-01 -3.174603e-02
     vertex  1.007056e-01 -2.686066e-01 -3.174603e-02
     vertex  1.470902e-01 -1.603758e-01 -3.174603e-02
   endloop
 endfacet
 facet normal  0.000000e+00  0.000000e+00 -1.000000e+00
   outer loop
     vertex  1.906797e-01 -1.432664e-01 -3.174603e-02
     vertex  1.754851e-01 -4.555556e-01 -3.174603e-02
     vertex  1.007056e-01 -2.686066e-01 -3.174603e-02
   endloop
 endfacet
 facet normal  0.000000e+00  0.000000e+00 -1.000000e+00
   outer loop
     vertex  2.328060e-01 -1.228178e-01 -3.174603e-02
     vertex  1.754851e-01 -4.555556e-01 -3.174603e-02
     vertex  1.906797e-01 -1.432664e-01 -3.174603e-02
   endloop
 endfacet
 facet normal  0.000000e+00  0.000000e+00 -1.000000e+00
   outer loop
     vertex  2.732138e-01 -9.915390e-02 -3.174603e-02
     vertex  1.754851e-01 -4.555556e-01 -3.174603e-02
     vertex  2.328060e-01 -1.228178e-01 -3.174603e-02
   endloop
 endfacet
 facet normal  0.000000e+00  0.000000e+00 -1.000000e+00
   outer loop
     vertex  3.116582e-01 -7.241814e-02 -3.174603e-02
     vertex  1.754851e-01 -4.555556e-01 -3.174603e-02
     vertex  2.732138e-01 -9.915390e-02 -3.174603e-02
   endloop
 endfacet
 facet normal  0.000000e+00  0.000000e+00 -1.000000e+00
   outer loop
     vertex  3.479061e-01 -4.277258e-02 -3.174603e-02
     vertex  1.754851e-01 -4.555556e-01 -3.174603e-02
     vertex  3.116582e-01 -7.241814e-02 -3.174603e-02
   endloop
 endfacet
 facet normal  0.000000e+00 -0.000000e+00 -1.000000e+00
   outer loop
     vertex  3.479061e-01 -4.277258e-02 -3.174603e-02
     vertex  8.858907e-01 -9.790124e-01 -3.174603e-02
     vertex  1.754851e-01 -4.555556e-01 -3.174603e-02
   endloop
 endfacet
 facet normal  0.000000e+00 -0.000000e+00 -1.000000e+00
   outer loop
     vertex  3.817379e-01 -1.039692e-02 -3.174603e-02
     vertex  8.858907e-01 -9.790124e-01 -3.174603e-02
     vertex  3.479061e-01 -4.277258e-02 -3.174603e-02
   endloop
 endfacet
 facet normal  0.000000e+00 -0.000000e+00 -1.000000e+00
   outer loop
     vertex  4.129484e-01  2.451260e-02 -3.174603e-02
     vertex  8.858907e-01 -9.790124e-01 -3.174603e-02
     vertex  3.817379e-01 -1.039692e-02 -3.174603e-02
   endloop
 endfacet
 facet normal  0.000000e+00 -0.000000e+00 -1.000000e+00
   outer loop
     vertex  4.413485e-01  6.174439e-02 -3.174603e-02
     vertex  8.858907e-01 -9.790124e-01 -3.174603e-02
     vertex  4.129484e-01  2.451260e-02 -3.174603e-02
   endloop
 endfacet
 facet normal  0.000000e+00 -0.000000e+00 -1.000000e+00
   outer loop
     vertex  4.667660e-01  1.010728e-01 -3.174603e-02
     vertex  8.858907e-01 -9.790124e-01 -3.174603e-02
     vertex  4.413485e-01  6.174439e-02 -3.174603e-02
   endloop
 endfacet
 facet normal  0.000000e+00  0.000000e+00 -1.000000e+00
   outer loop
     vertex  8.111112e-01  4.044092e-01 -3.174603e-02
     vertex  5.444046e-01  3.204578e-01 -3.174603e-02
     vertex  5.493828e-01  3.670194e-01 -3.174603e-02
   endloop
 endfacet
 facet normal  0.000000e+00  0.000000e+00 -1.000000e+00
   outer loop
     vertex  8.111112e-01  4.044092e-01 -3.174603e-02
     vertex  5.358191e-01  2.744245e-01 -3.174603e-02
     vertex  5.444046e-01  3.204578e-01 -3.174603e-02
   endloop
 endfacet
 facet normal  0.000000e+00  0.000000e+00 -1.000000e+00
   outer loop
     vertex  8.111112e-01  4.044092e-01 -3.174603e-02
     vertex  5.236784e-01  2.291987e-01 -3.174603e-02
     vertex  5.358191e-01  2.744245e-01 -3.174603e-02
   endloop
 endfacet
 facet normal  0.000000e+00  0.000000e+00 -1.000000e+00
   outer loop
     vertex  8.111112e-01  4.044092e-01 -3.174603e-02
     vertex  5.080561e-01  1.850544e-01 -3.174603e-02
     vertex  5.236784e-01  2.291987e-01 -3.174603e-02
   endloop
 endfacet
 facet normal  0.000000e+00  0.000000e+00 -1.000000e+00
   outer loop
     vertex  8.111112e-01  4.044092e-01 -3.174603e-02
     vertex  4.890469e-01  1.422593e-01 -3.174603e-02
     vertex  5.080561e-01  1.850544e-01 -3.174603e-02
   endloop
 endfacet
 facet normal  0.000000e+00  0.000000e+00 -1.000000e+00
   outer loop
     vertex  8.111112e-01  4.044092e-01 -3.174603e-02
     vertex  4.667660e-01  1.010728e-01 -3.174603e-02
     vertex  4.890469e-01  1.422593e-01 -3.174603e-02
   endloop
 endfacet
 facet normal  0.000000e+00 -0.000000e+00 -1.000000e+00
   outer loop
     vertex  8.111112e-01  4.044092e-01 -3.174603e-02
     vertex  8.858907e-01 -9.790124e-01 -3.174603e-02
     vertex  4.667660e-01  1.010728e-01 -3.174603e-02
   endloop
 endfacet
 facet normal  0.000000e+00 -0.000000e+00 -1.000000e+00
   outer loop
     vertex -6.470900e-01  3.296297e-01 -3.174603e-02
     vertex -6.389184e-01  1.546280e-01 -3.174603e-02
     vertex -7.966490e-01 -9.416226e-01 -3.174603e-02
   endloop
 endfacet
 facet normal  0.000000e+00 -0.000000e+00 -1.000000e+00
   outer loop
     vertex -6.389184e-01  1.546280e-01 -3.174603e-02
     vertex -6.356963e-01  1.398261e-01 -3.174603e-02
     vertex -7.966490e-01 -9.416226e-01 -3.174603e-02
   endloop
 endfacet
 facet normal  0.000000e+00 -0.000000e+00 -1.000000e+00
   outer loop
     vertex -6.356963e-01  1.398261e-01 -3.174603e-02
     vertex -6.292290e-01  1.261276e-01 -3.174603e-02
     vertex -7.966490e-01 -9.416226e-01 -3.174603e-02
   endloop
 endfacet
 facet normal  0.000000e+00 -0.000000e+00 -1.000000e+00
   outer loop
     vertex -6.292290e-01  1.261276e-01 -3.174603e-02
     vertex -6.198476e-01  1.142337e-01 -3.174603e-02
     vertex -7.966490e-01 -9.416226e-01 -3.174603e-02
   endloop
 endfacet
 facet normal  0.000000e+00  0.000000e+00 -1.000000e+00
   outer loop
     vertex -2.358024e-01 -7.172839e-01 -3.174603e-02
     vertex -1.597614e-01 -1.838607e-01 -3.174603e-02
     vertex -1.142291e-01 -1.904662e-01 -3.174603e-02
   endloop
 endfacet
 facet normal  0.000000e+00  0.000000e+00 -1.000000e+00
   outer loop
     vertex -2.358024e-01 -7.172839e-01 -3.174603e-02
     vertex -2.046556e-01 -1.737941e-01 -3.174603e-02
     vertex -1.597614e-01 -1.838607e-01 -3.174603e-02
   endloop
 endfacet
 facet normal  0.000000e+00  0.000000e+00 -1.000000e+00
   outer loop
     vertex -2.358024e-01 -7.172839e-01 -3.174603e-02
     vertex -2.486490e-01 -1.603253e-01 -3.174603e-02
     vertex -2.046556e-01 -1.737941e-01 -3.174603e-02
   endloop
 endfacet
 facet normal  0.000000e+00  0.000000e+00 -1.000000e+00
   outer loop
     vertex -2.358024e-01 -7.172839e-01 -3.174603e-02
     vertex -2.914841e-01 -1.435330e-01 -3.174603e-02
     vertex -2.486490e-01 -1.603253e-01 -3.174603e-02
   endloop
 endfacet
 facet normal  1.435692e-01  9.896403e-01  0.000000e+00
   outer loop
     vertex -1.597614e-01 -1.838607e-01 -1.587302e-02
     vertex -1.142291e-01 -1.904662e-01  7.301587e-01
     vertex -1.142291e-01 -1.904662e-01 -1.587302e-02
   endloop
 endfacet
 facet normal  1.435692e-01  9.896403e-01 -0.000000e+00
   outer loop
     vertex -1.597614e-01 -1.838607e-01 -1.587302e-02
     vertex -1.597614e-01 -1.838607e-01  7.301587e-01
     vertex -1.142291e-01 -1.904662e-01  7.301587e-01
   endloop
 endfacet
 facet normal  2.187965e-01  9.757705e-01 -0.000000e+00
   outer loop
     vertex -2.046556e-01 -1.737941e-01 -1.587302e-02
     vertex -2.046556e-01 -1.737941e-01  7.301587e-01
     vertex -1.597614e-01 -1.838607e-01  7.301587e-01
   endloop
 endfacet
 facet normal  2.187965e-01  9.757705e-01  0.000000e+00
   outer loop
     vertex -2.046556e-01 -1.737941e-01 -1.587302e-02
     vertex -1.597614e-01 -1.838607e-01  7.301587e-01
     vertex -1.597614e-01 -1.838607e-01 -1.587302e-02
   endloop
 endfacet
 facet normal  2.927434e-01  9.561910e-01 -0.000000e+00
   outer loop
     vertex -2.486490e-01 -1.603253e-01 -1.587302e-02
     vertex -2.486490e-01 -1.603253e-01  7.301587e-01
     vertex -2.046556e-01 -1.737941e-01  7.301587e-01
   endloop
 endfacet
 facet normal  2.927434e-01  9.561910e-01  0.000000e+00
   outer loop
     vertex -2.486490e-01 -1.603253e-01 -1.587302e-02
     vertex -2.046556e-01 -1.737941e-01  7.301587e-01
     vertex -2.046556e-01 -1.737941e-01 -1.587302e-02
   endloop
 endfacet
 facet normal  3.649774e-01  9.310164e-01 -0.000000e+00
   outer loop
     vertex -2.914841e-01 -1.435330e-01 -1.587302e-02
     vertex -2.914841e-01 -1.435330e-01  7.301587e-01
     vertex -2.486490e-01 -1.603253e-01  7.301587e-01
   endloop
 endfacet
 facet normal  3.649774e-01  9.310164e-01  0.000000e+00
   outer loop
     vertex -2.914841e-01 -1.435330e-01 -1.587302e-02
     vertex -2.486490e-01 -1.603253e-01  7.301587e-01
     vertex -2.486490e-01 -1.603253e-01 -1.587302e-02
   endloop
 endfacet
 facet normal  4.350758e-01  9.003939e-01 -0.000000e+00
   outer loop
     vertex -3.329103e-01 -1.235156e-01 -1.587302e-02
     vertex -3.329103e-01 -1.235156e-01  7.301587e-01
     vertex -2.914841e-01 -1.435330e-01  7.301587e-01
   endloop
 endfacet
 facet normal  4.350758e-01  9.003939e-01  0.000000e+00
   outer loop
     vertex -3.329103e-01 -1.235156e-01 -1.587302e-02
     vertex -2.914841e-01 -1.435330e-01  7.301587e-01
     vertex -2.914841e-01 -1.435330e-01 -1.587302e-02
   endloop
 endfacet
 facet normal  5.026282e-01  8.645027e-01 -0.000000e+00
   outer loop
     vertex -3.726852e-01 -1.003902e-01 -1.587302e-02
     vertex -3.726852e-01 -1.003902e-01  7.301587e-01
     vertex -3.329103e-01 -1.235156e-01  7.301587e-01
   endloop
 endfacet
 facet normal  5.026282e-01  8.645027e-01  0.000000e+00
   outer loop
     vertex -3.726852e-01 -1.003902e-01 -1.587302e-02
     vertex -3.329103e-01 -1.235156e-01  7.301587e-01
     vertex -3.329103e-01 -1.235156e-01 -1.587302e-02
   endloop
 endfacet
 facet normal  5.672396e-01  8.235528e-01 -0.000000e+00
   outer loop
     vertex -4.105761e-01 -7.429211e-02 -1.587302e-02
     vertex -4.105761e-01 -7.429211e-02  7.301587e-01
     vertex -3.726852e-01 -1.003902e-01  7.301587e-01
   endloop
 endfacet
 facet normal  5.672396e-01  8.235528e-01  0.000000e+00
   outer loop
     vertex -4.105761e-01 -7.429211e-02 -1.587302e-02
     vertex -3.726852e-01 -1.003902e-01  7.301587e-01
     vertex -3.726852e-01 -1.003902e-01 -1.587302e-02
   endloop
 endfacet
 facet normal  6.285317e-01  7.777840e-01 -0.000000e+00
   outer loop
     vertex -4.463611e-01 -4.537401e-02 -1.587302e-02
     vertex -4.463611e-01 -4.537401e-02  7.301587e-01
     vertex -4.105761e-01 -7.429211e-02  7.301587e-01
   endloop
 endfacet
 facet normal  6.285317e-01  7.777840e-01  0.000000e+00
   outer loop
     vertex -4.463611e-01 -4.537401e-02 -1.587302e-02
     vertex -4.105761e-01 -7.429211e-02  7.301587e-01
     vertex -4.105761e-01 -7.429211e-02 -1.587302e-02
   endloop
 endfacet
 facet normal  6.861460e-01  7.274639e-01 -0.000000e+00
   outer loop
     vertex -4.798310e-01 -1.380513e-02 -1.587302e-02
     vertex -4.798310e-01 -1.380513e-02  7.301587e-01
     vertex -4.463611e-01 -4.537401e-02  7.301587e-01
   endloop
 endfacet
 facet normal  7.397452e-01  6.728871e-01 -0.000000e+00
   outer loop
     vertex -4.798310e-01 -1.380513e-02 -1.587302e-02
     vertex -5.107898e-01  2.022980e-02  7.301587e-01
     vertex -4.798310e-01 -1.380513e-02  7.301587e-01
   endloop
 endfacet
 facet normal  6.861460e-01  7.274639e-01  0.000000e+00
   outer loop
     vertex -4.798310e-01 -1.380513e-02 -1.587302e-02
     vertex -4.463611e-01 -4.537401e-02  7.301587e-01
     vertex -4.463611e-01 -4.537401e-02 -1.587302e-02
   endloop
 endfacet
 facet normal  7.397452e-01  6.728871e-01 -0.000000e+00
   outer loop
     vertex -5.107898e-01  2.022980e-02 -1.587302e-02
     vertex -5.107898e-01  2.022980e-02  7.301587e-01
     vertex -4.798310e-01 -1.380513e-02 -1.587302e-02
   endloop
 endfacet
 facet normal  7.890159e-01  6.143728e-01 -0.000000e+00
   outer loop
     vertex -5.390565e-01  5.653162e-02 -1.587302e-02
     vertex -5.390565e-01  5.653162e-02  7.301587e-01
     vertex -5.107898e-01  2.022980e-02  7.301587e-01
   endloop
 endfacet
 facet normal  8.336696e-01  5.522636e-01 -0.000000e+00
   outer loop
     vertex -5.390565e-01  5.653162e-02 -1.587302e-02
     vertex -5.644656e-01  9.488791e-02  7.301587e-01
     vertex -5.390565e-01  5.653162e-02  7.301587e-01
   endloop
 endfacet
 facet normal  7.890159e-01  6.143728e-01  0.000000e+00
   outer loop
     vertex -5.390565e-01  5.653162e-02 -1.587302e-02
     vertex -5.107898e-01  2.022980e-02  7.301587e-01
     vertex -5.107898e-01  2.022980e-02 -1.587302e-02
   endloop
 endfacet
 facet normal  8.336696e-01  5.522636e-01 -0.000000e+00
   outer loop
     vertex -5.644656e-01  9.488791e-02 -1.587302e-02
     vertex -5.644656e-01  9.488791e-02  7.301587e-01
     vertex -5.390565e-01  5.653162e-02 -1.587302e-02
   endloop
 endfacet
 facet normal  9.743912e-01 -2.248596e-01  0.000000e+00
   outer loop
     vertex -2.358024e-01 -7.172839e-01 -1.587302e-02
     vertex -1.142291e-01 -1.904662e-01 -1.587302e-02
     vertex -1.142291e-01 -1.904662e-01  7.301587e-01
   endloop
 endfacet
 facet normal  9.743912e-01 -2.248596e-01  0.000000e+00
   outer loop
     vertex -2.358024e-01 -7.172839e-01 -1.587302e-02
     vertex -1.142291e-01 -1.904662e-01  7.301587e-01
     vertex -2.358024e-01 -7.172839e-01  7.301587e-01
   endloop
 endfacet
 facet normal -9.950366e-02  9.950372e-01  0.000000e+00
   outer loop
     vertex  1.380953e-01 -6.798941e-01 -1.587302e-02
     vertex -2.358024e-01 -7.172839e-01 -1.587302e-02
     vertex -2.358024e-01 -7.172839e-01  7.301587e-01
   endloop
 endfacet
 facet normal -9.950366e-02  9.950372e-01  0.000000e+00
   outer loop
     vertex  1.380953e-01 -6.798941e-01 -1.587302e-02
     vertex -2.358024e-01 -7.172839e-01  7.301587e-01
     vertex  1.380953e-01 -6.798941e-01  7.301587e-01
   endloop
 endfacet
 facet normal -9.863939e-01  1.643989e-01  0.000000e+00
   outer loop
     vertex  1.754851e-01 -4.555556e-01 -1.587302e-02
     vertex  1.380953e-01 -6.798941e-01 -1.587302e-02
     vertex  1.380953e-01 -6.798941e-01  7.301587e-01
   endloop
 endfacet
 facet normal -9.863939e-01  1.643989e-01  0.000000e+00
   outer loop
     vertex  1.754851e-01 -4.555556e-01 -1.587302e-02
     vertex  1.380953e-01 -6.798941e-01  7.301587e-01
     vertex  1.754851e-01 -4.555556e-01  7.301587e-01
   endloop
 endfacet
 facet normal -2.425356e-01 -9.701425e-01  0.000000e+00
   outer loop
     vertex  2.592602e-02 -4.181658e-01 -1.587302e-02
     vertex  1.754851e-01 -4.555556e-01 -1.587302e-02
     vertex  1.754851e-01 -4.555556e-01  7.301587e-01
   endloop
 endfacet
 facet normal -2.425356e-01 -9.701425e-01  0.000000e+00
   outer loop
     vertex  2.592602e-02 -4.181658e-01 -1.587302e-02
     vertex  1.754851e-01 -4.555556e-01  7.301587e-01
     vertex  2.592602e-02 -4.181658e-01  7.301587e-01
   endloop
 endfacet
 facet normal -4.472135e-01 -8.944273e-01  0.000000e+00
   outer loop
     vertex -1.236331e-01 -3.433863e-01 -1.587302e-02
     vertex  2.592602e-02 -4.181658e-01 -1.587302e-02
     vertex  2.592602e-02 -4.181658e-01  7.301587e-01
   endloop
 endfacet
 facet normal -4.472135e-01 -8.944273e-01  0.000000e+00
   outer loop
     vertex -1.236331e-01 -3.433863e-01 -1.587302e-02
     vertex  2.592602e-02 -4.181658e-01  7.301587e-01
     vertex -1.236331e-01 -3.433863e-01  7.301587e-01
   endloop
 endfacet
 facet normal -3.162280e-01  9.486832e-01  0.000000e+00
   outer loop
     vertex  1.007056e-01 -2.686066e-01 -1.587302e-02
     vertex -1.236331e-01 -3.433863e-01 -1.587302e-02
     vertex -1.236331e-01 -3.433863e-01  7.301587e-01
   endloop
 endfacet
 facet normal -3.162280e-01  9.486832e-01  0.000000e+00
   outer loop
     vertex  1.007056e-01 -2.686066e-01 -1.587302e-02
     vertex -1.236331e-01 -3.433863e-01  7.301587e-01
     vertex  1.007056e-01 -2.686066e-01  7.301587e-01
   endloop
 endfacet
 facet normal -9.191450e-01  3.939193e-01  0.000000e+00
   outer loop
     vertex  1.470902e-01 -1.603758e-01 -1.587302e-02
     vertex  1.007056e-01 -2.686066e-01 -1.587302e-02
     vertex  1.007056e-01 -2.686066e-01  7.301587e-01
   endloop
 endfacet
 facet normal -9.191450e-01  3.939193e-01  0.000000e+00
   outer loop
     vertex  1.470902e-01 -1.603758e-01 -1.587302e-02
     vertex  1.007056e-01 -2.686066e-01  7.301587e-01
     vertex  1.470902e-01 -1.603758e-01  7.301587e-01
   endloop
 endfacet
 facet normal -9.943329e-01  1.063116e-01  0.000000e+00
   outer loop
     vertex  5.444046e-01  3.204578e-01 -1.587302e-02
     vertex  5.493828e-01  3.670194e-01  7.301587e-01
     vertex  5.493828e-01  3.670194e-01 -1.587302e-02
   endloop
 endfacet
 facet normal -9.943329e-01  1.063116e-01  0.000000e+00
   outer loop
     vertex  5.444046e-01  3.204578e-01 -1.587302e-02
     vertex  5.444046e-01  3.204578e-01  7.301587e-01
     vertex  5.493828e-01  3.670194e-01  7.301587e-01
   endloop
 endfacet
 facet normal -9.830487e-01  1.833448e-01  0.000000e+00
   outer loop
     vertex  5.358191e-01  2.744245e-01 -1.587302e-02
     vertex  5.358191e-01  2.744245e-01  7.301587e-01
     vertex  5.444046e-01  3.204578e-01  7.301587e-01
   endloop
 endfacet
 facet normal -9.830487e-01  1.833448e-01  0.000000e+00
   outer loop
     vertex  5.358191e-01  2.744245e-01 -1.587302e-02
     vertex  5.444046e-01  3.204578e-01  7.301587e-01
     vertex  5.444046e-01  3.204578e-01 -1.587302e-02
   endloop
 endfacet
 facet normal -9.658058e-01  2.592666e-01  0.000000e+00
   outer loop
     vertex  5.236784e-01  2.291987e-01 -1.587302e-02
     vertex  5.236784e-01  2.291987e-01  7.301587e-01
     vertex  5.358191e-01  2.744245e-01  7.301587e-01
   endloop
 endfacet
 facet normal -9.658058e-01  2.592666e-01  0.000000e+00
   outer loop
     vertex  5.236784e-01  2.291987e-01 -1.587302e-02
     vertex  5.358191e-01  2.744245e-01  7.301587e-01
     vertex  5.358191e-01  2.744245e-01 -1.587302e-02
   endloop
 endfacet
 facet normal -9.427087e-01  3.336169e-01  0.000000e+00
   outer loop
     vertex  5.080561e-01  1.850544e-01 -1.587302e-02
     vertex  5.080561e-01  1.850544e-01  7.301587e-01
     vertex  5.236784e-01  2.291987e-01  7.301587e-01
   endloop
 endfacet
 facet normal -9.427087e-01  3.336169e-01  0.000000e+00
   outer loop
     vertex  5.080561e-01  1.850544e-01 -1.587302e-02
     vertex  5.236784e-01  2.291987e-01  7.301587e-01
     vertex  5.236784e-01  2.291987e-01 -1.587302e-02
   endloop
 endfacet
 facet normal -9.138975e-01  4.059451e-01  0.000000e+00
   outer loop
     vertex  4.890469e-01  1.422593e-01 -1.587302e-02
     vertex  4.890469e-01  1.422593e-01  7.301587e-01
     vertex  5.080561e-01  1.850544e-01  7.301587e-01
   endloop
 endfacet
 facet normal -9.138975e-01  4.059451e-01  0.000000e+00
   outer loop
     vertex  4.890469e-01  1.422593e-01 -1.587302e-02
     vertex  5.080561e-01  1.850544e-01  7.301587e-01
     vertex  5.080561e-01  1.850544e-01 -1.587302e-02
   endloop
 endfacet
 facet normal -8.795467e-01  4.758126e-01  0.000000e+00
   outer loop
     vertex  4.667660e-01  1.010728e-01 -1.587302e-02
     vertex  4.667660e-01  1.010728e-01  7.301587e-01
     vertex  4.890469e-01  1.422593e-01  7.301587e-01
   endloop
 endfacet
 facet normal -8.795467e-01  4.758126e-01  0.000000e+00
   outer loop
     vertex  4.667660e-01  1.010728e-01 -1.587302e-02
     vertex  4.890469e-01  1.422593e-01  7.301587e-01
     vertex  4.890469e-01  1.422593e-01 -1.587302e-02
   endloop
 endfacet
 facet normal -8.398646e-01  5.427960e-01  0.000000e+00
   outer loop
     vertex  4.413485e-01  6.174439e-02 -1.587302e-02
     vertex  4.413485e-01  6.174439e-02  7.301587e-01
     vertex  4.667660e-01  1.010728e-01  7.301587e-01
   endloop
 endfacet
 facet normal -8.398646e-01  5.427960e-01  0.000000e+00
   outer loop
     vertex  4.413485e-01  6.174439e-02 -1.587302e-02
     vertex  4.667660e-01  1.010728e-01  7.301587e-01
     vertex  4.667660e-01  1.010728e-01 -1.587302e-02
   endloop
 endfacet
 facet normal -7.950917e-01  6.064892e-01  0.000000e+00
   outer loop
     vertex  4.129484e-01  2.451260e-02 -1.587302e-02
     vertex  4.129484e-01  2.451260e-02  7.301587e-01
     vertex  4.413485e-01  6.174439e-02  7.301587e-01
   endloop
 endfacet
 facet normal -7.950917e-01  6.064892e-01  0.000000e+00
   outer loop
     vertex  4.129484e-01  2.451260e-02 -1.587302e-02
     vertex  4.413485e-01  6.174439e-02  7.301587e-01
     vertex  4.413485e-01  6.174439e-02 -1.587302e-02
   endloop
 endfacet
 facet normal -7.454994e-01  6.665063e-01  0.000000e+00
   outer loop
     vertex  3.817379e-01 -1.039692e-02 -1.587302e-02
     vertex  3.817379e-01 -1.039692e-02  7.301587e-01
     vertex  4.129484e-01  2.451260e-02  7.301587e-01
   endloop
 endfacet
 facet normal -7.454994e-01  6.665063e-01  0.000000e+00
   outer loop
     vertex  3.817379e-01 -1.039692e-02 -1.587302e-02
     vertex  4.129484e-01  2.451260e-02  7.301587e-01
     vertex  4.129484e-01  2.451260e-02 -1.587302e-02
   endloop
 endfacet
 facet normal -6.913883e-01  7.224834e-01  0.000000e+00
   outer loop
     vertex  3.479061e-01 -4.277258e-02 -1.587302e-02
     vertex  3.479061e-01 -4.277258e-02  7.301587e-01
     vertex  3.817379e-01 -1.039692e-02  7.301587e-01
   endloop
 endfacet
 facet normal -6.330864e-01  7.740812e-01  0.000000e+00
   outer loop
     vertex  3.479061e-01 -4.277258e-02 -1.587302e-02
     vertex  3.116582e-01 -7.241814e-02  7.301587e-01
     vertex  3.479061e-01 -4.277258e-02  7.301587e-01
   endloop
 endfacet
 facet normal -6.913883e-01  7.224834e-01  0.000000e+00
   outer loop
     vertex  3.479061e-01 -4.277258e-02 -1.587302e-02
     vertex  3.817379e-01 -1.039692e-02  7.301587e-01
     vertex  3.817379e-01 -1.039692e-02 -1.587302e-02
   endloop
 endfacet
 facet normal -6.330864e-01  7.740812e-01  0.000000e+00
   outer loop
     vertex  3.116582e-01 -7.241814e-02 -1.587302e-02
     vertex  3.116582e-01 -7.241814e-02  7.301587e-01
     vertex  3.479061e-01 -4.277258e-02 -1.587302e-02
   endloop
 endfacet
 facet normal -5.709470e-01  8.209869e-01  0.000000e+00
   outer loop
     vertex  2.732138e-01 -9.915390e-02 -1.587302e-02
     vertex  2.732138e-01 -9.915390e-02  7.301587e-01
     vertex  3.116582e-01 -7.241814e-02  7.301587e-01
   endloop
 endfacet
 facet normal -5.053469e-01  8.629163e-01  0.000000e+00
   outer loop
     vertex  2.732138e-01 -9.915390e-02 -1.587302e-02
     vertex  2.328060e-01 -1.228178e-01  7.301587e-01
     vertex  2.732138e-01 -9.915390e-02  7.301587e-01
   endloop
 endfacet
 facet normal -5.709470e-01  8.209869e-01  0.000000e+00
   outer loop
     vertex  2.732138e-01 -9.915390e-02 -1.587302e-02
     vertex  3.116582e-01 -7.241814e-02  7.301587e-01
     vertex  3.116582e-01 -7.241814e-02 -1.587302e-02
   endloop
 endfacet
 facet normal -5.053469e-01  8.629163e-01  0.000000e+00
   outer loop
     vertex  2.328060e-01 -1.228178e-01 -1.587302e-02
     vertex  2.328060e-01 -1.228178e-01  7.301587e-01
     vertex  2.732138e-01 -9.915390e-02 -1.587302e-02
   endloop
 endfacet
 facet normal -4.366837e-01  8.996151e-01  0.000000e+00
   outer loop
     vertex  1.906797e-01 -1.432664e-01 -1.587302e-02
     vertex  1.906797e-01 -1.432664e-01  7.301587e-01
     vertex  2.328060e-01 -1.228178e-01  7.301587e-01
   endloop
 endfacet
 facet normal -4.366837e-01  8.996151e-01  0.000000e+00
   outer loop
     vertex  1.906797e-01 -1.432664e-01 -1.587302e-02
     vertex  2.328060e-01 -1.228178e-01  7.301587e-01
     vertex  2.328060e-01 -1.228178e-01 -1.587302e-02
   endloop
 endfacet
 facet normal -3.653735e-01  9.308610e-01  0.000000e+00
   outer loop
     vertex  1.470902e-01 -1.603758e-01 -1.587302e-02
     vertex  1.470902e-01 -1.603758e-01  7.301587e-01
     vertex  1.906797e-01 -1.432664e-01  7.301587e-01
   endloop
 endfacet
 facet normal -3.653735e-01  9.308610e-01  0.000000e+00
   outer loop
     vertex  1.470902e-01 -1.603758e-01 -1.587302e-02
     vertex  1.906797e-01 -1.432664e-01  7.301587e-01
     vertex  1.906797e-01 -1.432664e-01 -1.587302e-02
   endloop
 endfacet
 facet normal -1.414213e-01  9.899495e-01  0.000000e+00
   outer loop
     vertex  5.493828e-01  3.670194e-01 -1.587302e-02
     vertex  8.111112e-01  4.044092e-01  7.301587e-01
     vertex  8.111112e-01  4.044092e-01 -1.587302e-02
   endloop
 endfacet
 facet normal -1.414213e-01  9.899495e-01  0.000000e+00
   outer loop
     vertex  5.493828e-01  3.670194e-01 -1.587302e-02
     vertex  5.493828e-01  3.670194e-01  7.301587e-01
     vertex  8.111112e-01  4.044092e-01  7.301587e-01
   endloop
 endfacet
 facet normal  9.985423e-01  5.397523e-02  0.000000e+00
   outer loop
     vertex  8.111112e-01  4.044092e-01 -1.587302e-02
     vertex  8.858907e-01 -9.790124e-01  7.301587e-01
     vertex  8.858907e-01 -9.790124e-01 -1.587302e-02
   endloop
 endfacet
 facet normal  9.985423e-01  5.397523e-02 -0.000000e+00
   outer loop
     vertex  8.111112e-01  4.044092e-01 -1.587302e-02
     vertex  8.111112e-01  4.044092e-01  7.301587e-01
     vertex  8.858907e-01 -9.790124e-01  7.301587e-01
   endloop
 endfacet
 facet normal  7.695372e-01 -6.386020e-01  0.000000e+00
   outer loop
     vertex -6.283362e-01  1.980263e-01 -1.587302e-02
     vertex -6.186624e-01  2.096836e-01 -3.174603e-02
     vertex -6.186624e-01  2.096836e-01 -1.587302e-02
   endloop
 endfacet
 facet normal  7.695372e-01 -6.386020e-01  0.000000e+00
   outer loop
     vertex -6.283362e-01  1.980263e-01 -1.587302e-02
     vertex -6.283362e-01  1.980263e-01 -3.174603e-02
     vertex -6.186624e-01  2.096836e-01 -3.174603e-02
   endloop
 endfacet
 facet normal  8.934060e-01 -4.492501e-01  0.000000e+00
   outer loop
     vertex -6.351417e-01  1.844926e-01 -1.587302e-02
     vertex -6.351417e-01  1.844926e-01 -3.174603e-02
     vertex -6.283362e-01  1.980263e-01 -3.174603e-02
   endloop
 endfacet
 facet normal  8.934060e-01 -4.492501e-01  0.000000e+00
   outer loop
     vertex -6.351417e-01  1.844926e-01 -1.587302e-02
     vertex -6.283362e-01  1.980263e-01 -3.174603e-02
     vertex -6.283362e-01  1.980263e-01 -1.587302e-02
   endloop
 endfacet
 facet normal  9.715346e-01 -2.368977e-01  0.000000e+00
   outer loop
     vertex -6.387303e-01  1.697753e-01 -1.587302e-02
     vertex -6.387303e-01  1.697753e-01 -3.174603e-02
     vertex -6.351417e-01  1.844926e-01 -3.174603e-02
   endloop
 endfacet
 facet normal  9.715346e-01 -2.368977e-01  0.000000e+00
   outer loop
     vertex -6.387303e-01  1.697753e-01 -1.587302e-02
     vertex -6.351417e-01  1.844926e-01 -3.174603e-02
     vertex -6.351417e-01  1.844926e-01 -1.587302e-02
   endloop
 endfacet
 facet normal  9.999229e-01 -1.241663e-02  0.000000e+00
   outer loop
     vertex -6.389184e-01  1.546280e-01 -1.587302e-02
     vertex -6.389184e-01  1.546280e-01 -3.174603e-02
     vertex -6.387303e-01  1.697753e-01 -3.174603e-02
   endloop
 endfacet
 facet normal  9.999229e-01 -1.241663e-02  0.000000e+00
   outer loop
     vertex -6.389184e-01  1.546280e-01 -1.587302e-02
     vertex -6.387303e-01  1.697753e-01 -3.174603e-02
     vertex -6.387303e-01  1.697753e-01 -1.587302e-02
   endloop
 endfacet
 facet normal  9.771175e-01  2.127001e-01  0.000000e+00
   outer loop
     vertex -6.356963e-01  1.398261e-01 -1.587302e-02
     vertex -6.356963e-01  1.398261e-01 -3.174603e-02
     vertex -6.389184e-01  1.546280e-01 -3.174603e-02
   endloop
 endfacet
 facet normal  9.771175e-01  2.127001e-01  0.000000e+00
   outer loop
     vertex -6.356963e-01  1.398261e-01 -1.587302e-02
     vertex -6.389184e-01  1.546280e-01 -3.174603e-02
     vertex -6.389184e-01  1.546280e-01 -1.587302e-02
   endloop
 endfacet
 facet normal  9.042860e-01  4.269271e-01  0.000000e+00
   outer loop
     vertex -6.292290e-01  1.261276e-01 -1.587302e-02
     vertex -6.292290e-01  1.261276e-01 -3.174603e-02
     vertex -6.356963e-01  1.398261e-01 -3.174603e-02
   endloop
 endfacet
 facet normal  9.042860e-01  4.269271e-01  0.000000e+00
   outer loop
     vertex -6.292290e-01  1.261276e-01 -1.587302e-02
     vertex -6.356963e-01  1.398261e-01 -3.174603e-02
     vertex -6.356963e-01  1.398261e-01 -1.587302e-02
   endloop
 endfacet
 facet normal  7.851572e-01  6.192965e-01  0.000000e+00
   outer loop
     vertex -6.198476e-01  1.142337e-01 -1.587302e-02
     vertex -6.198476e-01  1.142337e-01 -3.174603e-02
     vertex -6.292290e-01  1.261276e-01 -3.174603e-02
   endloop
 endfacet
 facet normal  7.851572e-01  6.192965e-01  0.000000e+00
   outer loop
     vertex -6.198476e-01  1.142337e-01 -1.587302e-02
     vertex -6.292290e-01  1.261276e-01 -3.174603e-02
     vertex -6.292290e-01  1.261276e-01 -1.587302e-02
   endloop
 endfacet
 facet normal  6.258303e-01  7.799593e-01  0.000000e+00
   outer loop
     vertex -6.080324e-01  1.047533e-01 -1.587302e-02
     vertex -6.080324e-01  1.047533e-01 -3.174603e-02
     vertex -6.198476e-01  1.142337e-01 -3.174603e-02
   endloop
 endfacet
 facet normal  6.258303e-01  7.799593e-01  0.000000e+00
   outer loop
     vertex -6.080324e-01  1.047533e-01 -1.587302e-02
     vertex -6.198476e-01  1.142337e-01 -3.174603e-02
     vertex -6.198476e-01  1.142337e-01 -1.587302e-02
   endloop
 endfacet
 facet normal  4.344622e-01  9.006900e-01  0.000000e+00
   outer loop
     vertex -5.943884e-01  9.817184e-02 -1.587302e-02
     vertex -5.943884e-01  9.817184e-02 -3.174603e-02
     vertex -6.080324e-01  1.047533e-01 -3.174603e-02
   endloop
 endfacet
 facet normal  4.344622e-01  9.006900e-01  0.000000e+00
   outer loop
     vertex -5.943884e-01  9.817184e-02 -1.587302e-02
     vertex -6.080324e-01  1.047533e-01 -3.174603e-02
     vertex -6.080324e-01  1.047533e-01 -1.587302e-02
   endloop
 endfacet
 facet normal  2.208508e-01  9.753076e-01  0.000000e+00
   outer loop
     vertex -5.796139e-01  9.482629e-02 -1.587302e-02
     vertex -5.796139e-01  9.482629e-02 -3.174603e-02
     vertex -5.943884e-01  9.817184e-02 -3.174603e-02
   endloop
 endfacet
 facet normal  2.208508e-01  9.753076e-01  0.000000e+00
   outer loop
     vertex -5.796139e-01  9.482629e-02 -1.587302e-02
     vertex -5.943884e-01  9.817184e-02 -3.174603e-02
     vertex -5.943884e-01  9.817184e-02 -1.587302e-02
   endloop
 endfacet
 facet normal -4.067694e-03  9.999917e-01  0.000000e+00
   outer loop
     vertex -5.644656e-01  9.488791e-02 -1.587302e-02
     vertex -5.644656e-01  9.488791e-02 -3.174603e-02
     vertex -5.796139e-01  9.482629e-02 -3.174603e-02
   endloop
 endfacet
 facet normal -4.067694e-03  9.999917e-01  0.000000e+00
   outer loop
     vertex -5.644656e-01  9.488791e-02 -1.587302e-02
     vertex -5.796139e-01  9.482629e-02 -3.174603e-02
     vertex -5.796139e-01  9.482629e-02 -1.587302e-02
   endloop
 endfacet
 facet normal  1.999596e-02 -9.998001e-01  0.000000e+00
   outer loop
     vertex  8.858907e-01 -9.790124e-01 -1.587302e-02
     vertex -9.835979e-01 -1.016402e+00 -1.587302e-02
     vertex -9.835979e-01 -1.016402e+00 -3.174603e-02
   endloop
 endfacet
 facet normal  1.999596e-02 -9.998001e-01  0.000000e+00
   outer loop
     vertex  8.858907e-01 -9.790124e-01 -1.587302e-02
     vertex -9.835979e-01 -1.016402e+00 -3.174603e-02
     vertex  8.858907e-01 -9.790124e-01 -3.174603e-02
   endloop
 endfacet
 facet normal  1.435692e-01  9.896403e-01  0.000000e+00
   outer loop
     vertex -1.597614e-01 -1.838607e-01 -1.587302e-02
     vertex -1.142291e-01 -1.904662e-01 -1.587302e-02
     vertex -1.142291e-01 -1.904662e-01 -3.174603e-02
   endloop
 endfacet
 facet normal  1.435692e-01  9.896403e-01  0.000000e+00
   outer loop
     vertex -1.597614e-01 -1.838607e-01 -1.587302e-02
     vertex -1.142291e-01 -1.904662e-01 -3.174603e-02
     vertex -1.597614e-01 -1.838607e-01 -3.174603e-02
   endloop
 endfacet
 facet normal  2.187965e-01  9.757705e-01  0.000000e+00
   outer loop
     vertex -2.046556e-01 -1.737941e-01 -1.587302e-02
     vertex -1.597614e-01 -1.838607e-01 -3.174603e-02
     vertex -2.046556e-01 -1.737941e-01 -3.174603e-02
   endloop
 endfacet
 facet normal  2.187965e-01  9.757705e-01  0.000000e+00
   outer loop
     vertex -2.046556e-01 -1.737941e-01 -1.587302e-02
     vertex -1.597614e-01 -1.838607e-01 -1.587302e-02
     vertex -1.597614e-01 -1.838607e-01 -3.174603e-02
   endloop
 endfacet
 facet normal  2.927434e-01  9.561910e-01  0.000000e+00
   outer loop
     vertex -2.486490e-01 -1.603253e-01 -1.587302e-02
     vertex -2.046556e-01 -1.737941e-01 -3.174603e-02
     vertex -2.486490e-01 -1.603253e-01 -3.174603e-02
   endloop
 endfacet
 facet normal  2.927434e-01  9.561910e-01  0.000000e+00
   outer loop
     vertex -2.486490e-01 -1.603253e-01 -1.587302e-02
     vertex -2.046556e-01 -1.737941e-01 -1.587302e-02
     vertex -2.046556e-01 -1.737941e-01 -3.174603e-02
   endloop
 endfacet
 facet normal  3.649774e-01  9.310164e-01  0.000000e+00
   outer loop
     vertex -2.914841e-01 -1.435330e-01 -1.587302e-02
     vertex -2.486490e-01 -1.603253e-01 -3.174603e-02
     vertex -2.914841e-01 -1.435330e-01 -3.174603e-02
   endloop
 endfacet
 facet normal  3.649774e-01  9.310164e-01  0.000000e+00
   outer loop
     vertex -2.914841e-01 -1.435330e-01 -1.587302e-02
     vertex -2.486490e-01 -1.603253e-01 -1.587302e-02
     vertex -2.486490e-01 -1.603253e-01 -3.174603e-02
   endloop
 endfacet
 facet normal  4.350758e-01  9.003939e-01  0.000000e+00
   outer loop
     vertex -3.329103e-01 -1.235156e-01 -1.587302e-02
     vertex -2.914841e-01 -1.435330e-01 -3.174603e-02
     vertex -3.329103e-01 -1.235156e-01 -3.174603e-02
   endloop
 endfacet
 facet normal  4.350758e-01  9.003939e-01  0.000000e+00
   outer loop
     vertex -3.329103e-01 -1.235156e-01 -1.587302e-02
     vertex -2.914841e-01 -1.435330e-01 -1.587302e-02
     vertex -2.914841e-01 -1.435330e-01 -3.174603e-02
   endloop
 endfacet
 facet normal  5.026282e-01  8.645027e-01  0.000000e+00
   outer loop
     vertex -3.726852e-01 -1.003902e-01 -1.587302e-02
     vertex -3.329103e-01 -1.235156e-01 -3.174603e-02
     vertex -3.726852e-01 -1.003902e-01 -3.174603e-02
   endloop
 endfacet
 facet normal  5.026282e-01  8.645027e-01  0.000000e+00
   outer loop
     vertex -3.726852e-01 -1.003902e-01 -1.587302e-02
     vertex -3.329103e-01 -1.235156e-01 -1.587302e-02
     vertex -3.329103e-01 -1.235156e-01 -3.174603e-02
   endloop
 endfacet
 facet normal  5.672396e-01  8.235528e-01  0.000000e+00
   outer loop
     vertex -4.105761e-01 -7.429211e-02 -1.587302e-02
     vertex -3.726852e-01 -1.003902e-01 -3.174603e-02
     vertex -4.105761e-01 -7.429211e-02 -3.174603e-02
   endloop
 endfacet
 facet normal  5.672396e-01  8.235528e-01  0.000000e+00
   outer loop
     vertex -4.105761e-01 -7.429211e-02 -1.587302e-02
     vertex -3.726852e-01 -1.003902e-01 -1.587302e-02
     vertex -3.726852e-01 -1.003902e-01 -3.174603e-02
   endloop
 endfacet
 facet normal  6.285317e-01  7.777840e-01  0.000000e+00
   outer loop
     vertex -4.463611e-01 -4.537401e-02 -1.587302e-02
     vertex -4.105761e-01 -7.429211e-02 -3.174603e-02
     vertex -4.463611e-01 -4.537401e-02 -3.174603e-02
   endloop
 endfacet
 facet normal  6.285317e-01  7.777840e-01  0.000000e+00
   outer loop
     vertex -4.463611e-01 -4.537401e-02 -1.587302e-02
     vertex -4.105761e-01 -7.429211e-02 -1.587302e-02
     vertex -4.105761e-01 -7.429211e-02 -3.174603e-02
   endloop
 endfacet
 facet normal  6.861460e-01  7.274639e-01  0.000000e+00
   outer loop
     vertex -4.798310e-01 -1.380513e-02 -1.587302e-02
     vertex -4.463611e-01 -4.537401e-02 -3.174603e-02
     vertex -4.798310e-01 -1.380513e-02 -3.174603e-02
   endloop
 endfacet
 facet normal  6.861460e-01  7.274639e-01  0.000000e+00
   outer loop
     vertex -4.798310e-01 -1.380513e-02 -1.587302e-02
     vertex -4.463611e-01 -4.537401e-02 -1.587302e-02
     vertex -4.463611e-01 -4.537401e-02 -3.174603e-02
   endloop
 endfacet
 facet normal  7.397452e-01  6.728871e-01  0.000000e+00
   outer loop
     vertex -5.107898e-01  2.022980e-02 -1.587302e-02
     vertex -4.798310e-01 -1.380513e-02 -3.174603e-02
     vertex -5.107898e-01  2.022980e-02 -3.174603e-02
   endloop
 endfacet
 facet normal  7.397452e-01  6.728871e-01  0.000000e+00
   outer loop
     vertex -5.107898e-01  2.022980e-02 -1.587302e-02
     vertex -4.798310e-01 -1.380513e-02 -1.587302e-02
     vertex -4.798310e-01 -1.380513e-02 -3.174603e-02
   endloop
 endfacet
 facet normal  7.890159e-01  6.143728e-01  0.000000e+00
   outer loop
     vertex -5.390565e-01  5.653162e-02 -1.587302e-02
     vertex -5.107898e-01  2.022980e-02 -3.174603e-02
     vertex -5.390565e-01  5.653162e-02 -3.174603e-02
   endloop
 endfacet
 facet normal  7.890159e-01  6.143728e-01  0.000000e+00
   outer loop
     vertex -5.390565e-01  5.653162e-02 -1.587302e-02
     vertex -5.107898e-01  2.022980e-02 -1.587302e-02
     vertex -5.107898e-01  2.022980e-02 -3.174603e-02
   endloop
 endfacet
 facet normal  8.336696e-01  5.522636e-01  0.000000e+00
   outer loop
     vertex -5.644656e-01  9.488791e-02 -1.587302e-02
     vertex -5.390565e-01  5.653162e-02 -3.174603e-02
     vertex -5.644656e-01  9.488791e-02 -3.174603e-02
   endloop
 endfacet
 facet normal  8.336696e-01  5.522636e-01  0.000000e+00
   outer loop
     vertex -5.644656e-01  9.488791e-02 -1.587302e-02
     vertex -5.390565e-01  5.653162e-02 -1.587302e-02
     vertex -5.390565e-01  5.653162e-02 -3.174603e-02
   endloop
 endfacet
 facet normal  9.743912e-01 -2.248596e-01  0.000000e+00
   outer loop
     vertex -2.358024e-01 -7.172839e-01 -1.587302e-02
     vertex -1.142291e-01 -1.904662e-01 -3.174603e-02
     vertex -1.142291e-01 -1.904662e-01 -1.587302e-02
   endloop
 endfacet
 facet normal  9.743912e-01 -2.248596e-01  0.000000e+00
   outer loop
     vertex -2.358024e-01 -7.172839e-01 -1.587302e-02
     vertex -2.358024e-01 -7.172839e-01 -3.174603e-02
     vertex -1.142291e-01 -1.904662e-01 -3.174603e-02
   endloop
 endfacet
 facet normal -9.950366e-02  9.950372e-01  0.000000e+00
   outer loop
     vertex  1.380953e-01 -6.798941e-01 -1.587302e-02
     vertex -2.358024e-01 -7.172839e-01 -3.174603e-02
     vertex -2.358024e-01 -7.172839e-01 -1.587302e-02
   endloop
 endfacet
 facet normal -9.950366e-02  9.950372e-01  0.000000e+00
   outer loop
     vertex  1.380953e-01 -6.798941e-01 -1.587302e-02
     vertex  1.380953e-01 -6.798941e-01 -3.174603e-02
     vertex -2.358024e-01 -7.172839e-01 -3.174603e-02
   endloop
 endfacet
 facet normal -9.863939e-01  1.643989e-01  0.000000e+00
   outer loop
     vertex  1.754851e-01 -4.555556e-01 -1.587302e-02
     vertex  1.380953e-01 -6.798941e-01 -3.174603e-02
     vertex  1.380953e-01 -6.798941e-01 -1.587302e-02
   endloop
 endfacet
 facet normal -9.863939e-01  1.643989e-01  0.000000e+00
   outer loop
     vertex  1.754851e-01 -4.555556e-01 -1.587302e-02
     vertex  1.754851e-01 -4.555556e-01 -3.174603e-02
     vertex  1.380953e-01 -6.798941e-01 -3.174603e-02
   endloop
 endfacet
 facet normal -2.425356e-01 -9.701425e-01  0.000000e+00
   outer loop
     vertex  2.592602e-02 -4.181658e-01 -1.587302e-02
     vertex  1.754851e-01 -4.555556e-01 -3.174603e-02
     vertex  1.754851e-01 -4.555556e-01 -1.587302e-02
   endloop
 endfacet
 facet normal -2.425356e-01 -9.701425e-01 -0.000000e+00
   outer loop
     vertex  2.592602e-02 -4.181658e-01 -1.587302e-02
     vertex  2.592602e-02 -4.181658e-01 -3.174603e-02
     vertex  1.754851e-01 -4.555556e-01 -3.174603e-02
   endloop
 endfacet
 facet normal -4.472135e-01 -8.944273e-01  0.000000e+00
   outer loop
     vertex -1.236331e-01 -3.433863e-01 -1.587302e-02
     vertex  2.592602e-02 -4.181658e-01 -3.174603e-02
     vertex  2.592602e-02 -4.181658e-01 -1.587302e-02
   endloop
 endfacet
 facet normal -4.472135e-01 -8.944273e-01 -0.000000e+00
   outer loop
     vertex -1.236331e-01 -3.433863e-01 -1.587302e-02
     vertex -1.236331e-01 -3.433863e-01 -3.174603e-02
     vertex  2.592602e-02 -4.181658e-01 -3.174603e-02
   endloop
 endfacet
 facet normal -3.162280e-01  9.486832e-01  0.000000e+00
   outer loop
     vertex  1.007056e-01 -2.686066e-01 -1.587302e-02
     vertex -1.236331e-01 -3.433863e-01 -3.174603e-02
     vertex -1.236331e-01 -3.433863e-01 -1.587302e-02
   endloop
 endfacet
 facet normal -3.162280e-01  9.486832e-01  0.000000e+00
   outer loop
     vertex  1.007056e-01 -2.686066e-01 -1.587302e-02
     vertex  1.007056e-01 -2.686066e-01 -3.174603e-02
     vertex -1.236331e-01 -3.433863e-01 -3.174603e-02
   endloop
 endfacet
 facet normal -9.191450e-01  3.939193e-01  0.000000e+00
   outer loop
     vertex  1.470902e-01 -1.603758e-01 -1.587302e-02
     vertex  1.007056e-01 -2.686066e-01 -3.174603e-02
     vertex  1.007056e-01 -2.686066e-01 -1.587302e-02
   endloop
 endfacet
 facet normal -9.191450e-01  3.939193e-01  0.000000e+00
   outer loop
     vertex  1.470902e-01 -1.603758e-01 -1.587302e-02
     vertex  1.470902e-01 -1.603758e-01 -3.174603e-02
     vertex  1.007056e-01 -2.686066e-01 -3.174603e-02
   endloop
 endfacet
 facet normal -9.943329e-01  1.063116e-01  0.000000e+00
   outer loop
     vertex  5.444046e-01  3.204578e-01 -1.587302e-02
     vertex  5.493828e-01  3.670194e-01 -1.587302e-02
     vertex  5.493828e-01  3.670194e-01 -3.174603e-02
   endloop
 endfacet
 facet normal -9.943329e-01  1.063116e-01  0.000000e+00
   outer loop
     vertex  5.444046e-01  3.204578e-01 -1.587302e-02
     vertex  5.493828e-01  3.670194e-01 -3.174603e-02
     vertex  5.444046e-01  3.204578e-01 -3.174603e-02
   endloop
 endfacet
 facet normal -9.830487e-01  1.833448e-01  0.000000e+00
   outer loop
     vertex  5.358191e-01  2.744245e-01 -1.587302e-02
     vertex  5.444046e-01  3.204578e-01 -3.174603e-02
     vertex  5.358191e-01  2.744245e-01 -3.174603e-02
   endloop
 endfacet
 facet normal -9.830487e-01  1.833448e-01  0.000000e+00
   outer loop
     vertex  5.358191e-01  2.744245e-01 -1.587302e-02
     vertex  5.444046e-01  3.204578e-01 -1.587302e-02
     vertex  5.444046e-01  3.204578e-01 -3.174603e-02
   endloop
 endfacet
 facet normal -9.658058e-01  2.592666e-01  0.000000e+00
   outer loop
     vertex  5.236784e-01  2.291987e-01 -1.587302e-02
     vertex  5.358191e-01  2.744245e-01 -3.174603e-02
     vertex  5.236784e-01  2.291987e-01 -3.174603e-02
   endloop
 endfacet
 facet normal -9.658058e-01  2.592666e-01  0.000000e+00
   outer loop
     vertex  5.236784e-01  2.291987e-01 -1.587302e-02
     vertex  5.358191e-01  2.744245e-01 -1.587302e-02
     vertex  5.358191e-01  2.744245e-01 -3.174603e-02
   endloop
 endfacet
 facet normal -9.427087e-01  3.336169e-01  0.000000e+00
   outer loop
     vertex  5.080561e-01  1.850544e-01 -1.587302e-02
     vertex  5.236784e-01  2.291987e-01 -3.174603e-02
     vertex  5.080561e-01  1.850544e-01 -3.174603e-02
   endloop
 endfacet
 facet normal -9.427087e-01  3.336169e-01  0.000000e+00
   outer loop
     vertex  5.080561e-01  1.850544e-01 -1.587302e-02
     vertex  5.236784e-01  2.291987e-01 -1.587302e-02
     vertex  5.236784e-01  2.291987e-01 -3.174603e-02
   endloop
 endfacet
 facet normal -9.138975e-01  4.059451e-01  0.000000e+00
   outer loop
     vertex  4.890469e-01  1.422593e-01 -1.587302e-02
     vertex  5.080561e-01  1.850544e-01 -3.174603e-02
     vertex  4.890469e-01  1.422593e-01 -3.174603e-02
   endloop
 endfacet
 facet normal -9.138975e-01  4.059451e-01  0.000000e+00
   outer loop
     vertex  4.890469e-01  1.422593e-01 -1.587302e-02
     vertex  5.080561e-01  1.850544e-01 -1.587302e-02
     vertex  5.080561e-01  1.850544e-01 -3.174603e-02
   endloop
 endfacet
 facet normal -8.795467e-01  4.758126e-01  0.000000e+00
   outer loop
     vertex  4.667660e-01  1.010728e-01 -1.587302e-02
     vertex  4.890469e-01  1.422593e-01 -3.174603e-02
     vertex  4.667660e-01  1.010728e-01 -3.174603e-02
   endloop
 endfacet
 facet normal -8.795467e-01  4.758126e-01  0.000000e+00
   outer loop
     vertex  4.667660e-01  1.010728e-01 -1.587302e-02
     vertex  4.890469e-01  1.422593e-01 -1.587302e-02
     vertex  4.890469e-01  1.422593e-01 -3.174603e-02
   endloop
 endfacet
 facet normal -8.398646e-01  5.427960e-01  0.000000e+00
   outer loop
     vertex  4.413485e-01  6.174439e-02 -1.587302e-02
     vertex  4.667660e-01  1.010728e-01 -3.174603e-02
     vertex  4.413485e-01  6.174439e-02 -3.174603e-02
   endloop
 endfacet
 facet normal -8.398646e-01  5.427960e-01  0.000000e+00
   outer loop
     vertex  4.413485e-01  6.174439e-02 -1.587302e-02
     vertex  4.667660e-01  1.010728e-01 -1.587302e-02
     vertex  4.667660e-01  1.010728e-01 -3.174603e-02
   endloop
 endfacet
 facet normal -7.950917e-01  6.064892e-01  0.000000e+00
   outer loop
     vertex  4.129484e-01  2.451260e-02 -1.587302e-02
     vertex  4.413485e-01  6.174439e-02 -3.174603e-02
     vertex  4.129484e-01  2.451260e-02 -3.174603e-02
   endloop
 endfacet
 facet normal -7.950917e-01  6.064892e-01  0.000000e+00
   outer loop
     vertex  4.129484e-01  2.451260e-02 -1.587302e-02
     vertex  4.413485e-01  6.174439e-02 -1.587302e-02
     vertex  4.413485e-01  6.174439e-02 -3.174603e-02
   endloop
 endfacet
 facet normal -7.454994e-01  6.665063e-01  0.000000e+00
   outer loop
     vertex  3.817379e-01 -1.039692e-02 -1.587302e-02
     vertex  4.129484e-01  2.451260e-02 -3.174603e-02
     vertex  3.817379e-01 -1.039692e-02 -3.174603e-02
   endloop
 endfacet
 facet normal -7.454994e-01  6.665063e-01  0.000000e+00
   outer loop
     vertex  3.817379e-01 -1.039692e-02 -1.587302e-02
     vertex  4.129484e-01  2.451260e-02 -1.587302e-02
     vertex  4.129484e-01  2.451260e-02 -3.174603e-02
   endloop
 endfacet
 facet normal -6.913883e-01  7.224834e-01  0.000000e+00
   outer loop
     vertex  3.479061e-01 -4.277258e-02 -1.587302e-02
     vertex  3.817379e-01 -1.039692e-02 -3.174603e-02
     vertex  3.479061e-01 -4.277258e-02 -3.174603e-02
   endloop
 endfacet
 facet normal -6.913883e-01  7.224834e-01  0.000000e+00
   outer loop
     vertex  3.479061e-01 -4.277258e-02 -1.587302e-02
     vertex  3.817379e-01 -1.039692e-02 -1.587302e-02
     vertex  3.817379e-01 -1.039692e-02 -3.174603e-02
   endloop
 endfacet
 facet normal -6.330864e-01  7.740812e-01  0.000000e+00
   outer loop
     vertex  3.116582e-01 -7.241814e-02 -1.587302e-02
     vertex  3.479061e-01 -4.277258e-02 -3.174603e-02
     vertex  3.116582e-01 -7.241814e-02 -3.174603e-02
   endloop
 endfacet
 facet normal -6.330864e-01  7.740812e-01  0.000000e+00
   outer loop
     vertex  3.116582e-01 -7.241814e-02 -1.587302e-02
     vertex  3.479061e-01 -4.277258e-02 -1.587302e-02
     vertex  3.479061e-01 -4.277258e-02 -3.174603e-02
   endloop
 endfacet
 facet normal -5.709470e-01  8.209869e-01  0.000000e+00
   outer loop
     vertex  2.732138e-01 -9.915390e-02 -1.587302e-02
     vertex  3.116582e-01 -7.241814e-02 -3.174603e-02
     vertex  2.732138e-01 -9.915390e-02 -3.174603e-02
   endloop
 endfacet
 facet normal -5.709470e-01  8.209869e-01  0.000000e+00
   outer loop
     vertex  2.732138e-01 -9.915390e-02 -1.587302e-02
     vertex  3.116582e-01 -7.241814e-02 -1.587302e-02
     vertex  3.116582e-01 -7.241814e-02 -3.174603e-02
   endloop
 endfacet
 facet normal -5.053469e-01  8.629163e-01  0.000000e+00
   outer loop
     vertex  2.328060e-01 -1.228178e-01 -1.587302e-02
     vertex  2.732138e-01 -9.915390e-02 -3.174603e-02
     vertex  2.328060e-01 -1.228178e-01 -3.174603e-02
   endloop
 endfacet
 facet normal -5.053469e-01  8.629163e-01  0.000000e+00
   outer loop
     vertex  2.328060e-01 -1.228178e-01 -1.587302e-02
     vertex  2.732138e-01 -9.915390e-02 -1.587302e-02
     vertex  2.732138e-01 -9.915390e-02 -3.174603e-02
   endloop
 endfacet
 facet normal -4.366837e-01  8.996151e-01  0.000000e+00
   outer loop
     vertex  1.906797e-01 -1.432664e-01 -1.587302e-02
     vertex  2.328060e-01 -1.228178e-01 -3.174603e-02
     vertex  1.906797e-01 -1.432664e-01 -3.174603e-02
   endloop
 endfacet
 facet normal -4.366837e-01  8.996151e-01  0.000000e+00
   outer loop
     vertex  1.906797e-01 -1.432664e-01 -1.587302e-02
     vertex  2.328060e-01 -1.228178e-01 -1.587302e-02
     vertex  2.328060e-01 -1.228178e-01 -3.174603e-02
   endloop
 endfacet
 facet normal -3.653735e-01  9.308610e-01  0.000000e+00
   outer loop
     vertex  1.470902e-01 -1.603758e-01 -1.587302e-02
     vertex  1.906797e-01 -1.432664e-01 -3.174603e-02
     vertex  1.470902e-01 -1.603758e-01 -3.174603e-02
   endloop
 endfacet
 facet normal -3.653735e-01  9.308610e-01  0.000000e+00
   outer loop
     vertex  1.470902e-01 -1.603758e-01 -1.587302e-02
     vertex  1.906797e-01 -1.432664e-01 -1.587302e-02
     vertex  1.906797e-01 -1.432664e-01 -3.174603e-02
   endloop
 endfacet
 facet normal -1.414213e-01  9.899495e-01  0.000000e+00
   outer loop
     vertex  5.493828e-01  3.670194e-01 -1.587302e-02
     vertex  8.111112e-01  4.044092e-01 -1.587302e-02
     vertex  8.111112e-01  4.044092e-01 -3.174603e-02
   endloop
 endfacet
 facet normal -1.414213e-01  9.899495e-01  0.000000e+00
   outer loop
     vertex  5.493828e-01  3.670194e-01 -1.587302e-02
     vertex  8.111112e-01  4.044092e-01 -3.174603e-02
     vertex  5.493828e-01  3.670194e-01 -3.174603e-02
   endloop
 endfacet
 facet normal  9.985423e-01  5.397523e-02  0.000000e+00
   outer loop
     vertex  8.111112e-01  4.044092e-01 -1.587302e-02
     vertex  8.858907e-01 -9.790124e-01 -1.587302e-02
     vertex  8.858907e-01 -9.790124e-01 -3.174603e-02
   endloop
 endfacet
 facet normal  9.985423e-01  5.397523e-02  0.000000e+00
   outer loop
     vertex  8.111112e-01  4.044092e-01 -1.587302e-02
     vertex  8.858907e-01 -9.790124e-01 -3.174603e-02
     vertex  8.111112e-01  4.044092e-01 -3.174603e-02
   endloop
 endfacet
endsolid
