solid 
 facet normal  0.000000e+00 -7.071061e-01 -7.071075e-01
   outer loop
     vertex -1.587302e-02 -9.962962e-01  3.761904e-01
     vertex  2.539683e-01 -1.011111e+00  3.910052e-01
     vertex -1.587302e-02 -1.011111e+00  3.910052e-01
   endloop
 endfacet
 facet normal  0.000000e+00 -7.071061e-01 -7.071075e-01
   outer loop
     vertex -1.587302e-02 -9.962962e-01  3.761904e-01
     vertex  2.539683e-01 -9.962962e-01  3.761904e-01
     vertex  2.539683e-01 -1.011111e+00  3.910052e-01
   endloop
 endfacet
 facet normal  0.000000e+00 -1.000000e+00  0.000000e+00
   outer loop
     vertex -1.587302e-02 -1.011111e+00  3.910052e-01
     vertex  2.539683e-01 -1.011111e+00  4.058201e-01
     vertex -1.587302e-02 -1.011111e+00  4.058201e-01
   endloop
 endfacet
 facet normal  0.000000e+00 -1.000000e+00  0.000000e+00
   outer loop
     vertex -1.587302e-02 -1.011111e+00  3.910052e-01
     vertex  2.539683e-01 -1.011111e+00  3.910052e-01
     vertex  2.539683e-01 -1.011111e+00  4.058201e-01
   endloop
 endfacet
 facet normal  0.000000e+00  0.000000e+00 -1.000000e+00
   outer loop
     vertex -1.587302e-02 -1.074073e-01  3.761904e-01
     vertex  2.539683e-01 -9.962962e-01  3.761904e-01
     vertex -1.587302e-02 -9.962962e-01  3.761904e-01
   endloop
 endfacet
 facet normal  0.000000e+00  0.000000e+00 -1.000000e+00
   outer loop
     vertex -1.587302e-02 -1.074073e-01  3.761904e-01
     vertex  2.539683e-01 -1.074073e-01  3.761904e-01
     vertex  2.539683e-01 -9.962962e-01  3.761904e-01
   endloop
 endfacet
 facet normal  0.000000e+00 -7.071061e-01 -7.071075e-01
   outer loop
     vertex -1.587302e-02 -9.962962e-01  3.761904e-01
     vertex -1.587302e-02 -1.011111e+00  3.910052e-01
     vertex -3.174603e-02 -1.011111e+00  3.910052e-01
   endloop
 endfacet
 facet normal -0.000000e+00 -7.071061e-01 -7.071075e-01
   outer loop
     vertex -1.587302e-02 -9.962962e-01  3.761904e-01
     vertex -3.174603e-02 -1.011111e+00  3.910052e-01
     vertex -3.174603e-02 -9.962962e-01  3.761904e-01
   endloop
 endfacet
 facet normal  1.000000e+00  0.000000e+00  0.000000e+00
   outer loop
     vertex  2.539683e-01 -1.011111e+00  4.058201e-01
     vertex  2.539683e-01 -1.011111e+00  3.910052e-01
     vertex  2.539683e-01 -9.962962e-01  3.761904e-01
   endloop
 endfacet
 facet normal  1.000000e+00  0.000000e+00  0.000000e+00
   outer loop
     vertex  2.539683e-01 -9.259254e-02  4.058201e-01
     vertex  2.539683e-01 -9.962962e-01  3.761904e-01
     vertex  2.539683e-01 -1.074073e-01  3.761904e-01
   endloop
 endfacet
 facet normal  1.000000e+00  0.000000e+00  0.000000e+00
   outer loop
     vertex  2.539683e-01 -9.259254e-02  4.058201e-01
     vertex  2.539683e-01 -1.011111e+00  4.058201e-01
     vertex  2.539683e-01 -9.962962e-01  3.761904e-01
   endloop
 endfacet
 facet normal  0.000000e+00  0.000000e+00  1.000000e+00
   outer loop
     vertex -1.587302e-02 -1.011111e+00  4.058201e-01
     vertex  2.539683e-01 -9.259254e-02  4.058201e-01
     vertex -1.587302e-02 -9.259254e-02  4.058201e-01
   endloop
 endfacet
 facet normal  0.000000e+00  0.000000e+00  1.000000e+00
   outer loop
     vertex -1.587302e-02 -1.011111e+00  4.058201e-01
     vertex  2.539683e-01 -1.011111e+00  4.058201e-01
     vertex  2.539683e-01 -9.259254e-02  4.058201e-01
   endloop
 endfacet
 facet normal  0.000000e+00 -1.000000e+00  0.000000e+00
   outer loop
     vertex -1.587302e-02 -1.011111e+00  3.910052e-01
     vertex -1.587302e-02 -1.011111e+00  4.058201e-01
     vertex -3.174603e-02 -1.011111e+00  4.058201e-01
   endloop
 endfacet
 facet normal  0.000000e+00 -1.000000e+00  0.000000e+00
   outer loop
     vertex -1.587302e-02 -1.011111e+00  3.910052e-01
     vertex -3.174603e-02 -1.011111e+00  4.058201e-01
     vertex -3.174603e-02 -1.011111e+00  3.910052e-01
   endloop
 endfacet
 facet normal  0.000000e+00  8.944276e-01 -4.472129e-01
   outer loop
     vertex -1.587302e-02 -9.259254e-02  4.058201e-01
     vertex  2.539683e-01 -1.074073e-01  3.761904e-01
     vertex -1.587302e-02 -1.074073e-01  3.761904e-01
   endloop
 endfacet
 facet normal  0.000000e+00  8.944276e-01 -4.472129e-01
   outer loop
     vertex -1.587302e-02 -9.259254e-02  4.058201e-01
     vertex  2.539683e-01 -9.259254e-02  4.058201e-01
     vertex  2.539683e-01 -1.074073e-01  3.761904e-01
   endloop
 endfacet
 facet normal  0.000000e+00 -0.000000e+00 -1.000000e+00
   outer loop
     vertex -1.587302e-02 -1.074073e-01  3.761904e-01
     vertex -1.587302e-02 -9.962962e-01  3.761904e-01
     vertex -3.174603e-02 -9.962962e-01  3.761904e-01
   endloop
 endfacet
 facet normal -0.000000e+00  0.000000e+00 -1.000000e+00
   outer loop
     vertex -1.587302e-02 -1.074073e-01  3.761904e-01
     vertex -3.174603e-02 -9.962962e-01  3.761904e-01
     vertex -3.174603e-02 -1.074073e-01  3.761904e-01
   endloop
 endfacet
 facet normal -1.000000e+00  0.000000e+00  0.000000e+00
   outer loop
     vertex -3.174603e-02 -1.011111e+00  4.058201e-01
     vertex -3.174603e-02 -9.962962e-01  3.761904e-01
     vertex -3.174603e-02 -1.011111e+00  3.910052e-01
   endloop
 endfacet
 facet normal -1.000000e+00  0.000000e+00  0.000000e+00
   outer loop
     vertex -3.174603e-02 -9.259254e-02  4.058201e-01
     vertex -3.174603e-02 -1.074073e-01  3.761904e-01
     vertex -3.174603e-02 -9.962962e-01  3.761904e-01
   endloop
 endfacet
 facet normal -1.000000e+00 -0.000000e+00  0.000000e+00
   outer loop
     vertex -3.174603e-02 -9.259254e-02  4.058201e-01
     vertex -3.174603e-02 -9.962962e-01  3.761904e-01
     vertex -3.174603e-02 -1.011111e+00  4.058201e-01
   endloop
 endfacet
 facet normal  0.000000e+00 -0.000000e+00  1.000000e+00
   outer loop
     vertex -1.587302e-02 -1.011111e+00  4.058201e-01
     vertex -1.587302e-02 -9.259254e-02  4.058201e-01
     vertex -3.174603e-02 -9.259254e-02  4.058201e-01
   endloop
 endfacet
 facet normal  0.000000e+00  0.000000e+00  1.000000e+00
   outer loop
     vertex -1.587302e-02 -1.011111e+00  4.058201e-01
     vertex -3.174603e-02 -9.259254e-02  4.058201e-01
     vertex -3.174603e-02 -1.011111e+00  4.058201e-01
   endloop
 endfacet
 facet normal  0.000000e+00  8.944276e-01 -4.472129e-01
   outer loop
     vertex -1.587302e-02 -9.259254e-02  4.058201e-01
     vertex -1.587302e-02 -1.074073e-01  3.761904e-01
     vertex -3.174603e-02 -1.074073e-01  3.761904e-01
   endloop
 endfacet
 facet normal  0.000000e+00  8.944276e-01 -4.472129e-01
   outer loop
     vertex -1.587302e-02 -9.259254e-02  4.058201e-01
     vertex -3.174603e-02 -1.074073e-01  3.761904e-01
     vertex -3.174603e-02 -9.259254e-02  4.058201e-01
   endloop
 endfacet
endsolid
