solid 
 facet normal -9.998406e-01  0.000000e+00 -1.785432e-02
   outer loop
     vertex -5.158730e-01 -1.587302e-02 -2.698421e-02
     vertex -5.328043e-01 -6.349212e-02  9.211640e-01
     vertex -5.328043e-01 -1.587302e-02  9.211640e-01
   endloop
 endfacet
 facet normal -9.998406e-01 -0.000000e+00 -1.785432e-02
   outer loop
     vertex -5.158730e-01 -1.587302e-02 -2.698421e-02
     vertex -5.158730e-01 -6.349212e-02 -2.698421e-02
     vertex -5.328043e-01 -6.349212e-02  9.211640e-01
   endloop
 endfacet
 facet normal -0.000000e+00  0.000000e+00  1.000000e+00
   outer loop
     vertex -5.328043e-01 -1.587302e-02  9.211640e-01
     vertex -9.259258e-02 -6.349212e-02  9.211640e-01
     vertex -9.259258e-02 -1.587302e-02  9.211640e-01
   endloop
 endfacet
 facet normal  0.000000e+00  0.000000e+00  1.000000e+00
   outer loop
     vertex -5.328043e-01 -1.587302e-02  9.211640e-01
     vertex -5.328043e-01 -6.349212e-02  9.211640e-01
     vertex -9.259258e-02 -6.349212e-02  9.211640e-01
   endloop
 endfacet
 facet normal  3.701164e-02  0.000000e+00 -9.993148e-01
   outer loop
     vertex -5.873014e-02 -1.587302e-02 -1.005301e-02
     vertex -5.158730e-01 -6.349212e-02 -2.698421e-02
     vertex -5.158730e-01 -1.587302e-02 -2.698421e-02
   endloop
 endfacet
 facet normal  3.701164e-02  0.000000e+00 -9.993148e-01
   outer loop
     vertex -5.873014e-02 -1.587302e-02 -1.005301e-02
     vertex -5.873014e-02 -6.349212e-02 -1.005301e-02
     vertex -5.158730e-01 -6.349212e-02 -2.698421e-02
   endloop
 endfacet
 facet normal -9.998406e-01  0.000000e+00 -1.785432e-02
   outer loop
     vertex -5.158730e-01 -1.587302e-02 -2.698421e-02
     vertex -5.328043e-01 -1.587302e-02  9.211640e-01
     vertex -5.328043e-01  0.000000e+00  9.211640e-01
   endloop
 endfacet
 facet normal -9.998406e-01  0.000000e+00 -1.785432e-02
   outer loop
     vertex -5.158730e-01 -1.587302e-02 -2.698421e-02
     vertex -5.328043e-01  0.000000e+00  9.211640e-01
     vertex -5.158730e-01  0.000000e+00 -2.698421e-02
   endloop
 endfacet
 facet normal -0.000000e+00 -1.000000e+00  0.000000e+00
   outer loop
     vertex -9.259258e-02 -6.349212e-02  9.211640e-01
     vertex -5.328043e-01 -6.349212e-02  9.211640e-01
     vertex -5.158730e-01 -6.349212e-02 -2.698421e-02
   endloop
 endfacet
 facet normal  0.000000e+00 -1.000000e+00 -0.000000e+00
   outer loop
     vertex -9.259258e-02 -6.349212e-02  9.211640e-01
     vertex -5.158730e-01 -6.349212e-02 -2.698421e-02
     vertex -5.873014e-02 -6.349212e-02 -1.005301e-02
   endloop
 endfacet
 facet normal  9.993395e-01  0.000000e+00  3.633962e-02
   outer loop
     vertex -9.259258e-02 -1.587302e-02  9.211640e-01
     vertex -5.873014e-02 -6.349212e-02 -1.005301e-02
     vertex -5.873014e-02 -1.587302e-02 -1.005301e-02
   endloop
 endfacet
 facet normal  9.993395e-01  0.000000e+00  3.633962e-02
   outer loop
     vertex -9.259258e-02 -1.587302e-02  9.211640e-01
     vertex -9.259258e-02 -6.349212e-02  9.211640e-01
     vertex -5.873014e-02 -6.349212e-02 -1.005301e-02
   endloop
 endfacet
 facet normal  0.000000e+00  0.000000e+00  1.000000e+00
   outer loop
     vertex -5.328043e-01 -1.587302e-02  9.211640e-01
     vertex -9.259258e-02 -1.587302e-02  9.211640e-01
     vertex -9.259258e-02  0.000000e+00  9.211640e-01
   endloop
 endfacet
 facet normal  0.000000e+00  0.000000e+00  1.000000e+00
   outer loop
     vertex -5.328043e-01 -1.587302e-02  9.211640e-01
     vertex -9.259258e-02  0.000000e+00  9.211640e-01
     vertex -5.328043e-01  0.000000e+00  9.211640e-01
   endloop
 endfacet
 facet normal  3.701164e-02  0.000000e+00 -9.993148e-01
   outer loop
     vertex -5.873014e-02 -1.587302e-02 -1.005301e-02
     vertex -5.158730e-01 -1.587302e-02 -2.698421e-02
     vertex -5.158730e-01  0.000000e+00 -2.698421e-02
   endloop
 endfacet
 facet normal  3.701164e-02  0.000000e+00 -9.993148e-01
   outer loop
     vertex -5.873014e-02 -1.587302e-02 -1.005301e-02
     vertex -5.158730e-01  0.000000e+00 -2.698421e-02
     vertex -5.873014e-02  0.000000e+00 -1.005301e-02
   endloop
 endfacet
 facet normal  0.000000e+00  1.000000e+00  0.000000e+00
   outer loop
     vertex -9.259258e-02  3.469447e-18  9.211640e-01
     vertex -5.158730e-01  3.469447e-18 -2.698421e-02
     vertex -5.328043e-01  3.469447e-18  9.211640e-01
   endloop
 endfacet
 facet normal  0.000000e+00  1.000000e+00  0.000000e+00
   outer loop
     vertex -9.259258e-02  3.469447e-18  9.211640e-01
     vertex -5.873014e-02  3.469447e-18 -1.005301e-02
     vertex -5.158730e-01  3.469447e-18 -2.698421e-02
   endloop
 endfacet
 facet normal  9.993395e-01  0.000000e+00  3.633962e-02
   outer loop
     vertex -9.259258e-02 -1.587302e-02  9.211640e-01
     vertex -5.873014e-02 -1.587302e-02 -1.005301e-02
     vertex -5.873014e-02  0.000000e+00 -1.005301e-02
   endloop
 endfacet
 facet normal  9.993395e-01 -0.000000e+00  3.633962e-02
   outer loop
     vertex -9.259258e-02 -1.587302e-02  9.211640e-01
     vertex -5.873014e-02  0.000000e+00 -1.005301e-02
     vertex -9.259258e-02  0.000000e+00  9.211640e-01
   endloop
 endfacet
endsolid
