solid 
 facet normal  0.000000e+00 -1.000000e+00  0.000000e+00
   outer loop
     vertex  8.375662e-01 -1.024868e+00 -1.587302e-02
     vertex -9.402117e-01 -1.024868e+00  3.174609e-02
     vertex -9.402117e-01 -1.024868e+00 -1.587302e-02
   endloop
 endfacet
 facet normal  0.000000e+00 -1.000000e+00  0.000000e+00
   outer loop
     vertex  8.375662e-01 -1.024868e+00 -1.587302e-02
     vertex  8.375662e-01 -1.024868e+00  3.174609e-02
     vertex -9.402117e-01 -1.024868e+00  3.174609e-02
   endloop
 endfacet
 facet normal -1.000000e+00  0.000000e+00  0.000000e+00
   outer loop
     vertex -9.402117e-01 -1.024868e+00 -1.587302e-02
     vertex -9.402117e-01  9.222223e-01  3.174609e-02
     vertex -9.402117e-01  9.222223e-01 -1.587302e-02
   endloop
 endfacet
 facet normal -1.000000e+00  0.000000e+00  0.000000e+00
   outer loop
     vertex -9.402117e-01 -1.024868e+00 -1.587302e-02
     vertex -9.402117e-01 -1.024868e+00  3.174609e-02
     vertex -9.402117e-01  9.222223e-01  3.174609e-02
   endloop
 endfacet
 facet normal  1.000000e+00  0.000000e+00  0.000000e+00
   outer loop
     vertex  8.375662e-01  9.222223e-01 -1.587302e-02
     vertex  8.375662e-01 -1.024868e+00  3.174609e-02
     vertex  8.375662e-01 -1.024868e+00 -1.587302e-02
   endloop
 endfacet
 facet normal  1.000000e+00  0.000000e+00 -0.000000e+00
   outer loop
     vertex  8.375662e-01  9.222223e-01 -1.587302e-02
     vertex  8.375662e-01  9.222223e-01  3.174609e-02
     vertex  8.375662e-01 -1.024868e+00  3.174609e-02
   endloop
 endfacet
 facet normal -0.000000e+00 -1.000000e+00  0.000000e+00
   outer loop
     vertex  8.375662e-01 -1.024868e+00 -1.587302e-02
     vertex -9.402117e-01 -1.024868e+00 -1.587302e-02
     vertex -9.402117e-01 -1.024868e+00 -3.174603e-02
   endloop
 endfacet
 facet normal  0.000000e+00 -1.000000e+00 -0.000000e+00
   outer loop
     vertex  8.375662e-01 -1.024868e+00 -1.587302e-02
     vertex -9.402117e-01 -1.024868e+00 -3.174603e-02
     vertex  8.375662e-01 -1.024868e+00 -3.174603e-02
   endloop
 endfacet
 facet normal  0.000000e+00  0.000000e+00  1.000000e+00
   outer loop
     vertex -8.555556e-01  7.529101e-01  3.174609e-02
     vertex -9.402117e-01 -1.024868e+00  3.174609e-02
     vertex -8.555556e-01 -8.555556e-01  3.174609e-02
   endloop
 endfacet
 facet normal  0.000000e+00  0.000000e+00  1.000000e+00
   outer loop
     vertex  7.529101e-01 -8.555556e-01  3.174609e-02
     vertex -9.402117e-01 -1.024868e+00  3.174609e-02
     vertex  8.375662e-01 -1.024868e+00  3.174609e-02
   endloop
 endfacet
 facet normal  0.000000e+00  0.000000e+00  1.000000e+00
   outer loop
     vertex  7.529101e-01 -8.555556e-01  3.174609e-02
     vertex -8.555556e-01 -8.555556e-01  3.174609e-02
     vertex -9.402117e-01 -1.024868e+00  3.174609e-02
   endloop
 endfacet
 facet normal  0.000000e+00  0.000000e+00  1.000000e+00
   outer loop
     vertex -9.402117e-01  9.222223e-01  3.174609e-02
     vertex -9.402117e-01 -1.024868e+00  3.174609e-02
     vertex -8.555556e-01  7.529101e-01  3.174609e-02
   endloop
 endfacet
 facet normal  0.000000e+00  0.000000e+00  1.000000e+00
   outer loop
     vertex  7.529101e-01  7.529101e-01  3.174609e-02
     vertex  7.529101e-01 -8.555556e-01  3.174609e-02
     vertex  8.375662e-01 -1.024868e+00  3.174609e-02
   endloop
 endfacet
 facet normal  0.000000e+00  0.000000e+00  1.000000e+00
   outer loop
     vertex  8.375662e-01  9.222223e-01  3.174609e-02
     vertex -8.555556e-01  7.529101e-01  3.174609e-02
     vertex  7.529101e-01  7.529101e-01  3.174609e-02
   endloop
 endfacet
 facet normal  0.000000e+00  0.000000e+00  1.000000e+00
   outer loop
     vertex  8.375662e-01  9.222223e-01  3.174609e-02
     vertex  7.529101e-01  7.529101e-01  3.174609e-02
     vertex  8.375662e-01 -1.024868e+00  3.174609e-02
   endloop
 endfacet
 facet normal  0.000000e+00  0.000000e+00  1.000000e+00
   outer loop
     vertex  8.375662e-01  9.222223e-01  3.174609e-02
     vertex -9.402117e-01  9.222223e-01  3.174609e-02
     vertex -8.555556e-01  7.529101e-01  3.174609e-02
   endloop
 endfacet
 facet normal  0.000000e+00  1.000000e+00  0.000000e+00
   outer loop
     vertex -9.402117e-01  9.222223e-01 -1.587302e-02
     vertex  8.375662e-01  9.222223e-01  3.174609e-02
     vertex  8.375662e-01  9.222223e-01 -1.587302e-02
   endloop
 endfacet
 facet normal  0.000000e+00  1.000000e+00  0.000000e+00
   outer loop
     vertex -9.402117e-01  9.222223e-01 -1.587302e-02
     vertex -9.402117e-01  9.222223e-01  3.174609e-02
     vertex  8.375662e-01  9.222223e-01  3.174609e-02
   endloop
 endfacet
 facet normal -1.000000e+00  0.000000e+00  0.000000e+00
   outer loop
     vertex -9.402117e-01 -1.024868e+00 -1.587302e-02
     vertex -9.402117e-01  9.222223e-01 -1.587302e-02
     vertex -9.402117e-01  9.222223e-01 -3.174603e-02
   endloop
 endfacet
 facet normal -1.000000e+00  0.000000e+00  0.000000e+00
   outer loop
     vertex -9.402117e-01 -1.024868e+00 -1.587302e-02
     vertex -9.402117e-01  9.222223e-01 -3.174603e-02
     vertex -9.402117e-01 -1.024868e+00 -3.174603e-02
   endloop
 endfacet
 facet normal  1.000000e+00  0.000000e+00  0.000000e+00
   outer loop
     vertex  8.375662e-01  9.222223e-01 -1.587302e-02
     vertex  8.375662e-01 -1.024868e+00 -1.587302e-02
     vertex  8.375662e-01 -1.024868e+00 -3.174603e-02
   endloop
 endfacet
 facet normal  1.000000e+00  0.000000e+00  0.000000e+00
   outer loop
     vertex  8.375662e-01  9.222223e-01 -1.587302e-02
     vertex  8.375662e-01 -1.024868e+00 -3.174603e-02
     vertex  8.375662e-01  9.222223e-01 -3.174603e-02
   endloop
 endfacet
 facet normal  0.000000e+00 -0.000000e+00 -1.000000e+00
   outer loop
     vertex -8.555556e-01  7.529101e-01 -3.174603e-02
     vertex -8.555556e-01 -8.555556e-01 -3.174603e-02
     vertex -9.402117e-01 -1.024868e+00 -3.174603e-02
   endloop
 endfacet
 facet normal  0.000000e+00 -0.000000e+00 -1.000000e+00
   outer loop
     vertex  7.529101e-01 -8.555556e-01 -3.174603e-02
     vertex  8.375662e-01 -1.024868e+00 -3.174603e-02
     vertex -9.402117e-01 -1.024868e+00 -3.174603e-02
   endloop
 endfacet
 facet normal -0.000000e+00  0.000000e+00 -1.000000e+00
   outer loop
     vertex  7.529101e-01 -8.555556e-01 -3.174603e-02
     vertex -9.402117e-01 -1.024868e+00 -3.174603e-02
     vertex -8.555556e-01 -8.555556e-01 -3.174603e-02
   endloop
 endfacet
 facet normal  0.000000e+00  0.000000e+00 -1.000000e+00
   outer loop
     vertex -9.402117e-01  9.222223e-01 -3.174603e-02
     vertex -8.555556e-01  7.529101e-01 -3.174603e-02
     vertex -9.402117e-01 -1.024868e+00 -3.174603e-02
   endloop
 endfacet
 facet normal  0.000000e+00  0.000000e+00 -1.000000e+00
   outer loop
     vertex  7.529101e-01  7.529101e-01 -3.174603e-02
     vertex  8.375662e-01 -1.024868e+00 -3.174603e-02
     vertex  7.529101e-01 -8.555556e-01 -3.174603e-02
   endloop
 endfacet
 facet normal  0.000000e+00  0.000000e+00 -1.000000e+00
   outer loop
     vertex  8.375662e-01  9.222223e-01 -3.174603e-02
     vertex  7.529101e-01  7.529101e-01 -3.174603e-02
     vertex -8.555556e-01  7.529101e-01 -3.174603e-02
   endloop
 endfacet
 facet normal  0.000000e+00 -0.000000e+00 -1.000000e+00
   outer loop
     vertex  8.375662e-01  9.222223e-01 -3.174603e-02
     vertex  8.375662e-01 -1.024868e+00 -3.174603e-02
     vertex  7.529101e-01  7.529101e-01 -3.174603e-02
   endloop
 endfacet
 facet normal -0.000000e+00  0.000000e+00 -1.000000e+00
   outer loop
     vertex  8.375662e-01  9.222223e-01 -3.174603e-02
     vertex -8.555556e-01  7.529101e-01 -3.174603e-02
     vertex -9.402117e-01  9.222223e-01 -3.174603e-02
   endloop
 endfacet
 facet normal  1.000000e+00  0.000000e+00  0.000000e+00
   outer loop
     vertex -8.555556e-01 -8.555556e-01 -1.587302e-02
     vertex -8.555556e-01  7.529101e-01 -1.587302e-02
     vertex -8.555556e-01  7.529101e-01  3.174609e-02
   endloop
 endfacet
 facet normal  1.000000e+00  0.000000e+00  0.000000e+00
   outer loop
     vertex -8.555556e-01 -8.555556e-01 -1.587302e-02
     vertex -8.555556e-01  7.529101e-01  3.174609e-02
     vertex -8.555556e-01 -8.555556e-01  3.174609e-02
   endloop
 endfacet
 facet normal  0.000000e+00  1.000000e+00  0.000000e+00
   outer loop
     vertex  7.529101e-01 -8.555556e-01 -1.587302e-02
     vertex -8.555556e-01 -8.555556e-01 -1.587302e-02
     vertex -8.555556e-01 -8.555556e-01  3.174609e-02
   endloop
 endfacet
 facet normal  0.000000e+00  1.000000e+00 -0.000000e+00
   outer loop
     vertex  7.529101e-01 -8.555556e-01 -1.587302e-02
     vertex -8.555556e-01 -8.555556e-01  3.174609e-02
     vertex  7.529101e-01 -8.555556e-01  3.174609e-02
   endloop
 endfacet
 facet normal -1.000000e+00  0.000000e+00  0.000000e+00
   outer loop
     vertex  7.529101e-01  7.529101e-01 -1.587302e-02
     vertex  7.529101e-01 -8.555556e-01 -1.587302e-02
     vertex  7.529101e-01 -8.555556e-01  3.174609e-02
   endloop
 endfacet
 facet normal -1.000000e+00  0.000000e+00  0.000000e+00
   outer loop
     vertex  7.529101e-01  7.529101e-01 -1.587302e-02
     vertex  7.529101e-01 -8.555556e-01  3.174609e-02
     vertex  7.529101e-01  7.529101e-01  3.174609e-02
   endloop
 endfacet
 facet normal  0.000000e+00 -1.000000e+00  0.000000e+00
   outer loop
     vertex -8.555556e-01  7.529101e-01 -1.587302e-02
     vertex  7.529101e-01  7.529101e-01 -1.587302e-02
     vertex  7.529101e-01  7.529101e-01  3.174609e-02
   endloop
 endfacet
 facet normal  0.000000e+00 -1.000000e+00  0.000000e+00
   outer loop
     vertex -8.555556e-01  7.529101e-01 -1.587302e-02
     vertex  7.529101e-01  7.529101e-01  3.174609e-02
     vertex -8.555556e-01  7.529101e-01  3.174609e-02
   endloop
 endfacet
 facet normal -0.000000e+00  1.000000e+00  0.000000e+00
   outer loop
     vertex -9.402117e-01  9.222223e-01 -1.587302e-02
     vertex  8.375662e-01  9.222223e-01 -1.587302e-02
     vertex  8.375662e-01  9.222223e-01 -3.174603e-02
   endloop
 endfacet
 facet normal  0.000000e+00  1.000000e+00  0.000000e+00
   outer loop
     vertex -9.402117e-01  9.222223e-01 -1.587302e-02
     vertex  8.375662e-01  9.222223e-01 -3.174603e-02
     vertex -9.402117e-01  9.222223e-01 -3.174603e-02
   endloop
 endfacet
 facet normal  1.000000e+00 -0.000000e+00  0.000000e+00
   outer loop
     vertex -8.555556e-01 -8.555556e-01 -1.587302e-02
     vertex -8.555556e-01  7.529101e-01 -3.174603e-02
     vertex -8.555556e-01  7.529101e-01 -1.587302e-02
   endloop
 endfacet
 facet normal  1.000000e+00  0.000000e+00  0.000000e+00
   outer loop
     vertex -8.555556e-01 -8.555556e-01 -1.587302e-02
     vertex -8.555556e-01 -8.555556e-01 -3.174603e-02
     vertex -8.555556e-01  7.529101e-01 -3.174603e-02
   endloop
 endfacet
 facet normal  0.000000e+00  1.000000e+00  0.000000e+00
   outer loop
     vertex  7.529101e-01 -8.555556e-01 -1.587302e-02
     vertex -8.555556e-01 -8.555556e-01 -3.174603e-02
     vertex -8.555556e-01 -8.555556e-01 -1.587302e-02
   endloop
 endfacet
 facet normal  0.000000e+00  1.000000e+00  0.000000e+00
   outer loop
     vertex  7.529101e-01 -8.555556e-01 -1.587302e-02
     vertex  7.529101e-01 -8.555556e-01 -3.174603e-02
     vertex -8.555556e-01 -8.555556e-01 -3.174603e-02
   endloop
 endfacet
 facet normal -1.000000e+00 -0.000000e+00  0.000000e+00
   outer loop
     vertex  7.529101e-01  7.529101e-01 -1.587302e-02
     vertex  7.529101e-01 -8.555556e-01 -3.174603e-02
     vertex  7.529101e-01 -8.555556e-01 -1.587302e-02
   endloop
 endfacet
 facet normal -1.000000e+00  0.000000e+00 -0.000000e+00
   outer loop
     vertex  7.529101e-01  7.529101e-01 -1.587302e-02
     vertex  7.529101e-01  7.529101e-01 -3.174603e-02
     vertex  7.529101e-01 -8.555556e-01 -3.174603e-02
   endloop
 endfacet
 facet normal  0.000000e+00 -1.000000e+00  0.000000e+00
   outer loop
     vertex -8.555556e-01  7.529101e-01 -1.587302e-02
     vertex  7.529101e-01  7.529101e-01 -3.174603e-02
     vertex  7.529101e-01  7.529101e-01 -1.587302e-02
   endloop
 endfacet
 facet normal  0.000000e+00 -1.000000e+00  0.000000e+00
   outer loop
     vertex -8.555556e-01  7.529101e-01 -1.587302e-02
     vertex -8.555556e-01  7.529101e-01 -3.174603e-02
     vertex  7.529101e-01  7.529101e-01 -3.174603e-02
   endloop
 endfacet
endsolid
