solid 
 facet normal -6.050833e-01  0.000000e+00  7.961622e-01
   outer loop
     vertex -4.881804e-01 -5.714286e-01  3.600305e-01
     vertex -1.001587e+00 -1.587302e-02 -3.015882e-02
     vertex -1.001587e+00 -7.301587e-01 -3.015882e-02
   endloop
 endfacet
 facet normal -6.050833e-01  6.682417e-17  7.961622e-01
   outer loop
     vertex -4.881804e-01 -5.714286e-01  3.600305e-01
     vertex -1.001587e+00 -7.301587e-01 -3.015882e-02
     vertex -4.881804e-01 -7.301587e-01  3.600305e-01
   endloop
 endfacet
 facet normal -6.050833e-01 -1.952516e-16  7.961622e-01
   outer loop
     vertex -4.920632e-02 -7.301587e-01  6.936508e-01
     vertex -4.057131e-01 -5.714286e-01  4.227056e-01
     vertex -4.057131e-01 -7.301587e-01  4.227056e-01
   endloop
 endfacet
 facet normal -6.050833e-01  2.411641e-16  7.961622e-01
   outer loop
     vertex -4.920632e-02 -1.587302e-02  6.936508e-01
     vertex -4.881804e-01 -5.714286e-01  3.600305e-01
     vertex -4.057131e-01 -5.714286e-01  4.227056e-01
   endloop
 endfacet
 facet normal -6.050833e-01  8.353020e-17  7.961622e-01
   outer loop
     vertex -4.920632e-02 -1.587302e-02  6.936508e-01
     vertex -1.001587e+00 -1.587302e-02 -3.015882e-02
     vertex -4.881804e-01 -5.714286e-01  3.600305e-01
   endloop
 endfacet
 facet normal -6.050833e-01  0.000000e+00  7.961622e-01
   outer loop
     vertex -4.920632e-02 -1.587302e-02  6.936508e-01
     vertex -4.057131e-01 -5.714286e-01  4.227056e-01
     vertex -4.920632e-02 -7.301587e-01  6.936508e-01
   endloop
 endfacet
 facet normal -6.050833e-01  0.000000e+00  7.961622e-01
   outer loop
     vertex -4.920632e-02 -1.587302e-02  6.936508e-01
     vertex -1.001587e+00  0.000000e+00 -3.015882e-02
     vertex -1.001587e+00 -1.587302e-02 -3.015882e-02
   endloop
 endfacet
 facet normal -6.050833e-01  0.000000e+00  7.961622e-01
   outer loop
     vertex -4.920632e-02 -1.587302e-02  6.936508e-01
     vertex -4.920632e-02  0.000000e+00  6.936508e-01
     vertex -1.001587e+00  0.000000e+00 -3.015882e-02
   endloop
 endfacet
 facet normal  1.000000e+00  0.000000e+00 -0.000000e+00
   outer loop
     vertex -4.920632e-02 -1.587302e-02  1.412698e-01
     vertex -4.920632e-02 -1.587302e-02  6.936508e-01
     vertex -4.920632e-02 -7.301587e-01  6.936508e-01
   endloop
 endfacet
 facet normal  1.000000e+00  0.000000e+00  0.000000e+00
   outer loop
     vertex -4.920632e-02 -1.587302e-02  1.412698e-01
     vertex -4.920632e-02 -7.301587e-01  6.936508e-01
     vertex -4.920632e-02 -7.301587e-01  1.412698e-01
   endloop
 endfacet
 facet normal  0.000000e+00 -1.000000e+00  0.000000e+00
   outer loop
     vertex -4.920632e-02 -7.301587e-01  1.412698e-01
     vertex -2.354497e-01 -7.301587e-01  2.851853e-01
     vertex -1.823680e-01 -7.301587e-01  1.856570e-01
   endloop
 endfacet
 facet normal  0.000000e+00 -1.000000e+00  0.000000e+00
   outer loop
     vertex -4.920632e-02 -7.301587e-01  6.936508e-01
     vertex -4.057131e-01 -7.301587e-01  4.227056e-01
     vertex -2.354497e-01 -7.301587e-01  2.851853e-01
   endloop
 endfacet
 facet normal  0.000000e+00 -1.000000e+00 -0.000000e+00
   outer loop
     vertex -4.920632e-02 -7.301587e-01  6.936508e-01
     vertex -2.354497e-01 -7.301587e-01  2.851853e-01
     vertex -4.920632e-02 -7.301587e-01  1.412698e-01
   endloop
 endfacet
 facet normal -6.283371e-01  0.000000e+00 -7.779412e-01
   outer loop
     vertex -4.057131e-01 -7.301587e-01  4.227056e-01
     vertex -2.354497e-01 -5.714286e-01  2.851853e-01
     vertex -2.354497e-01 -7.301587e-01  2.851853e-01
   endloop
 endfacet
 facet normal -6.283371e-01 -7.115463e-16 -7.779412e-01
   outer loop
     vertex -4.057131e-01 -7.301587e-01  4.227056e-01
     vertex -4.057131e-01 -5.714286e-01  4.227056e-01
     vertex -2.354497e-01 -5.714286e-01  2.851853e-01
   endloop
 endfacet
 facet normal  0.000000e+00 -1.000000e+00 -0.000000e+00
   outer loop
     vertex -4.057131e-01 -5.714286e-01  4.227056e-01
     vertex -4.881804e-01 -5.714286e-01  3.600305e-01
     vertex -2.803720e-01 -5.714286e-01  2.161632e-01
   endloop
 endfacet
 facet normal  0.000000e+00 -1.000000e+00  0.000000e+00
   outer loop
     vertex -2.354497e-01 -5.714286e-01  2.851853e-01
     vertex -2.803720e-01 -5.714286e-01  2.161632e-01
     vertex -2.777777e-01 -5.714286e-01  2.174603e-01
   endloop
 endfacet
 facet normal  0.000000e+00 -1.000000e+00 -0.000000e+00
   outer loop
     vertex -2.354497e-01 -5.714286e-01  2.851853e-01
     vertex -2.777777e-01 -5.714286e-01  2.174603e-01
     vertex -1.823680e-01 -5.714286e-01  1.856570e-01
   endloop
 endfacet
 facet normal -0.000000e+00 -1.000000e+00  0.000000e+00
   outer loop
     vertex -2.354497e-01 -5.714286e-01  2.851853e-01
     vertex -4.057131e-01 -5.714286e-01  4.227056e-01
     vertex -2.803720e-01 -5.714286e-01  2.161632e-01
   endloop
 endfacet
 facet normal  5.692100e-01  4.323955e-16  8.221922e-01
   outer loop
     vertex -2.803720e-01 -7.301587e-01  2.161632e-01
     vertex -4.881804e-01 -5.714286e-01  3.600305e-01
     vertex -4.881804e-01 -7.301587e-01  3.600305e-01
   endloop
 endfacet
 facet normal  5.692100e-01  1.105913e-16  8.221922e-01
   outer loop
     vertex -2.803720e-01 -7.301587e-01  2.161632e-01
     vertex -2.803720e-01 -5.714286e-01  2.161632e-01
     vertex -4.881804e-01 -5.714286e-01  3.600305e-01
   endloop
 endfacet
 facet normal  0.000000e+00 -1.000000e+00  0.000000e+00
   outer loop
     vertex -4.881804e-01 -7.301587e-01  3.600305e-01
     vertex -1.001587e+00 -7.301587e-01 -3.015882e-02
     vertex -7.730159e-01 -7.301587e-01 -3.015882e-02
   endloop
 endfacet
 facet normal -0.000000e+00 -1.000000e+00  0.000000e+00
   outer loop
     vertex -2.803720e-01 -7.301587e-01  2.161632e-01
     vertex -4.881804e-01 -7.301587e-01  3.600305e-01
     vertex -7.730159e-01 -7.301587e-01 -3.015882e-02
   endloop
 endfacet
 facet normal  0.000000e+00  0.000000e+00 -1.000000e+00
   outer loop
     vertex -1.001587e+00 -1.587302e-02 -3.015882e-02
     vertex -7.730159e-01 -1.587302e-02 -3.015882e-02
     vertex -7.730159e-01 -7.301587e-01 -3.015882e-02
   endloop
 endfacet
 facet normal  0.000000e+00  0.000000e+00 -1.000000e+00
   outer loop
     vertex -1.001587e+00 -1.587302e-02 -3.015882e-02
     vertex -7.730159e-01 -7.301587e-01 -3.015882e-02
     vertex -1.001587e+00 -7.301587e-01 -3.015882e-02
   endloop
 endfacet
 facet normal  0.000000e+00  0.000000e+00 -1.000000e+00
   outer loop
     vertex -1.001587e+00 -1.587302e-02 -3.015882e-02
     vertex -7.730159e-01  0.000000e+00 -3.015882e-02
     vertex -7.730159e-01 -1.587302e-02 -3.015882e-02
   endloop
 endfacet
 facet normal  0.000000e+00  0.000000e+00 -1.000000e+00
   outer loop
     vertex -1.001587e+00 -1.587302e-02 -3.015882e-02
     vertex -1.001587e+00  0.000000e+00 -3.015882e-02
     vertex -7.730159e-01  0.000000e+00 -3.015882e-02
   endloop
 endfacet
 facet normal  1.000000e+00  0.000000e+00  0.000000e+00
   outer loop
     vertex -4.920632e-02 -1.587302e-02  1.412698e-01
     vertex -4.920632e-02  0.000000e+00  6.936508e-01
     vertex -4.920632e-02 -1.587302e-02  6.936508e-01
   endloop
 endfacet
 facet normal  1.000000e+00  0.000000e+00  0.000000e+00
   outer loop
     vertex -4.920632e-02 -1.587302e-02  1.412698e-01
     vertex -4.920632e-02  0.000000e+00  1.412698e-01
     vertex -4.920632e-02  0.000000e+00  6.936508e-01
   endloop
 endfacet
 facet normal  0.000000e+00  1.000000e+00  0.000000e+00
   outer loop
     vertex -4.920632e-02  0.000000e+00  6.936508e-01
     vertex -7.730159e-01  0.000000e+00 -3.015882e-02
     vertex -1.001587e+00  0.000000e+00 -3.015882e-02
   endloop
 endfacet
 facet normal  0.000000e+00  1.000000e+00  0.000000e+00
   outer loop
     vertex -4.920632e-02  0.000000e+00  6.936508e-01
     vertex -2.777777e-01  0.000000e+00  2.174603e-01
     vertex -7.730159e-01  0.000000e+00 -3.015882e-02
   endloop
 endfacet
 facet normal  0.000000e+00  1.000000e+00  0.000000e+00
   outer loop
     vertex -4.920632e-02  0.000000e+00  6.936508e-01
     vertex -4.920632e-02  0.000000e+00  1.412698e-01
     vertex -2.777777e-01  0.000000e+00  2.174603e-01
   endloop
 endfacet
 facet normal -3.162278e-01  1.658869e-16 -9.486833e-01
   outer loop
     vertex -1.823680e-01 -5.714286e-01  1.856570e-01
     vertex -4.920632e-02 -7.301587e-01  1.412698e-01
     vertex -1.823680e-01 -7.301587e-01  1.856570e-01
   endloop
 endfacet
 facet normal -3.162278e-01 -0.000000e+00 -9.486833e-01
   outer loop
     vertex -4.920632e-02 -1.587302e-02  1.412698e-01
     vertex -4.920632e-02 -7.301587e-01  1.412698e-01
     vertex -1.823680e-01 -5.714286e-01  1.856570e-01
   endloop
 endfacet
 facet normal -3.162278e-01 -0.000000e+00 -9.486833e-01
   outer loop
     vertex -2.777777e-01 -1.587302e-02  2.174603e-01
     vertex -1.823680e-01 -5.714286e-01  1.856570e-01
     vertex -2.777777e-01 -5.714286e-01  2.174603e-01
   endloop
 endfacet
 facet normal -3.162278e-01  1.295991e-17 -9.486833e-01
   outer loop
     vertex -2.777777e-01 -1.587302e-02  2.174603e-01
     vertex -4.920632e-02 -1.587302e-02  1.412698e-01
     vertex -1.823680e-01 -5.714286e-01  1.856570e-01
   endloop
 endfacet
 facet normal -8.823529e-01  4.844366e-17 -4.705882e-01
   outer loop
     vertex -2.354497e-01 -7.301587e-01  2.851853e-01
     vertex -1.823680e-01 -5.714286e-01  1.856570e-01
     vertex -1.823680e-01 -7.301587e-01  1.856570e-01
   endloop
 endfacet
 facet normal -8.823529e-01  0.000000e+00 -4.705882e-01
   outer loop
     vertex -2.354497e-01 -7.301587e-01  2.851853e-01
     vertex -2.354497e-01 -5.714286e-01  2.851853e-01
     vertex -1.823680e-01 -5.714286e-01  1.856570e-01
   endloop
 endfacet
 facet normal  4.472136e-01  6.349400e-16 -8.944272e-01
   outer loop
     vertex -7.730159e-01 -7.301587e-01 -3.015882e-02
     vertex -2.803720e-01 -5.714286e-01  2.161632e-01
     vertex -2.803720e-01 -7.301587e-01  2.161632e-01
   endloop
 endfacet
 facet normal  4.472136e-01  0.000000e+00 -8.944272e-01
   outer loop
     vertex -2.777777e-01 -1.587302e-02  2.174603e-01
     vertex -2.777777e-01 -5.714286e-01  2.174603e-01
     vertex -2.803720e-01 -5.714286e-01  2.161632e-01
   endloop
 endfacet
 facet normal  4.472136e-01  0.000000e+00 -8.944272e-01
   outer loop
     vertex -7.730159e-01 -1.587302e-02 -3.015882e-02
     vertex -2.777777e-01 -1.587302e-02  2.174603e-01
     vertex -2.803720e-01 -5.714286e-01  2.161632e-01
   endloop
 endfacet
 facet normal  4.472136e-01  0.000000e+00 -8.944272e-01
   outer loop
     vertex -7.730159e-01 -1.587302e-02 -3.015882e-02
     vertex -2.803720e-01 -5.714286e-01  2.161632e-01
     vertex -7.730159e-01 -7.301587e-01 -3.015882e-02
   endloop
 endfacet
 facet normal  4.472136e-01  0.000000e+00 -8.944272e-01
   outer loop
     vertex -7.730159e-01 -1.587302e-02 -3.015882e-02
     vertex -2.777777e-01  0.000000e+00  2.174603e-01
     vertex -2.777777e-01 -1.587302e-02  2.174603e-01
   endloop
 endfacet
 facet normal  4.472136e-01  0.000000e+00 -8.944272e-01
   outer loop
     vertex -7.730159e-01 -1.587302e-02 -3.015882e-02
     vertex -7.730159e-01  0.000000e+00 -3.015882e-02
     vertex -2.777777e-01  0.000000e+00  2.174603e-01
   endloop
 endfacet
 facet normal -3.162278e-01  0.000000e+00 -9.486833e-01
   outer loop
     vertex -2.777777e-01 -1.587302e-02  2.174603e-01
     vertex -4.920632e-02  0.000000e+00  1.412698e-01
     vertex -4.920632e-02 -1.587302e-02  1.412698e-01
   endloop
 endfacet
 facet normal -3.162278e-01  0.000000e+00 -9.486833e-01
   outer loop
     vertex -2.777777e-01 -1.587302e-02  2.174603e-01
     vertex -2.777777e-01  0.000000e+00  2.174603e-01
     vertex -4.920632e-02  0.000000e+00  1.412698e-01
   endloop
 endfacet
endsolid
