solid 
 facet normal -0.000000e+00  0.000000e+00 -1.000000e+00
   outer loop
     vertex  9.165785e-01 -1.587302e-02 -1.698412e-01
     vertex -1.007936e+00 -3.174609e-02 -1.698412e-01
     vertex -1.007936e+00 -1.587302e-02 -1.698412e-01
   endloop
 endfacet
 facet normal  0.000000e+00 -0.000000e+00 -1.000000e+00
   outer loop
     vertex  9.165785e-01 -1.587302e-02 -1.698412e-01
     vertex  9.165785e-01 -3.174609e-02 -1.698412e-01
     vertex -1.007936e+00 -3.174609e-02 -1.698412e-01
   endloop
 endfacet
 facet normal -1.000000e+00  0.000000e+00  0.000000e+00
   outer loop
     vertex -1.007936e+00 -1.587302e-02 -1.698412e-01
     vertex -1.007936e+00 -3.174609e-02  7.848333e-02
     vertex -1.007936e+00 -1.587302e-02  7.848333e-02
   endloop
 endfacet
 facet normal -1.000000e+00  0.000000e+00  0.000000e+00
   outer loop
     vertex -1.007936e+00 -1.587302e-02 -1.698412e-01
     vertex -1.007936e+00 -3.174609e-02 -1.698412e-01
     vertex -1.007936e+00 -3.174609e-02  7.848333e-02
   endloop
 endfacet
 facet normal  1.000000e+00  0.000000e+00  0.000000e+00
   outer loop
     vertex  9.165785e-01 -1.587302e-02  7.848333e-02
     vertex  9.165785e-01 -3.174609e-02 -1.698412e-01
     vertex  9.165785e-01 -1.587302e-02 -1.698412e-01
   endloop
 endfacet
 facet normal  1.000000e+00  0.000000e+00  0.000000e+00
   outer loop
     vertex  9.165785e-01 -1.587302e-02  7.848333e-02
     vertex  9.165785e-01 -3.174609e-02  7.848333e-02
     vertex  9.165785e-01 -3.174609e-02 -1.698412e-01
   endloop
 endfacet
 facet normal  0.000000e+00  0.000000e+00 -1.000000e+00
   outer loop
     vertex  9.165785e-01 -1.587302e-02 -1.698412e-01
     vertex -1.007936e+00 -1.587302e-02 -1.698412e-01
     vertex -1.007936e+00  3.174603e-02 -1.698412e-01
   endloop
 endfacet
 facet normal  0.000000e+00  0.000000e+00 -1.000000e+00
   outer loop
     vertex  9.165785e-01 -1.587302e-02 -1.698412e-01
     vertex -1.007936e+00  3.174603e-02 -1.698412e-01
     vertex  9.165785e-01  3.174603e-02 -1.698412e-01
   endloop
 endfacet
 facet normal  0.000000e+00 -1.000000e+00 -0.000000e+00
   outer loop
     vertex -9.055733e-01 -3.174609e-02 -1.017259e-01
     vertex -1.007936e+00 -3.174609e-02 -1.698412e-01
     vertex -8.930273e-01 -3.174609e-02 -1.170132e-01
   endloop
 endfacet
 facet normal -0.000000e+00 -1.000000e+00  0.000000e+00
   outer loop
     vertex -8.777401e-01 -3.174609e-02 -1.295592e-01
     vertex -8.930273e-01 -3.174609e-02 -1.170132e-01
     vertex -1.007936e+00 -3.174609e-02 -1.698412e-01
   endloop
 endfacet
 facet normal  0.000000e+00 -1.000000e+00 -0.000000e+00
   outer loop
     vertex -9.148958e-01 -3.174609e-02 -8.428479e-02
     vertex -1.007936e+00 -3.174609e-02 -1.698412e-01
     vertex -9.055733e-01 -3.174609e-02 -1.017259e-01
   endloop
 endfacet
 facet normal -0.000000e+00 -1.000000e+00  0.000000e+00
   outer loop
     vertex -8.602989e-01 -3.174609e-02 -1.388816e-01
     vertex -8.777401e-01 -3.174609e-02 -1.295592e-01
     vertex -1.007936e+00 -3.174609e-02 -1.698412e-01
   endloop
 endfacet
 facet normal  0.000000e+00 -1.000000e+00 -0.000000e+00
   outer loop
     vertex -9.206365e-01 -3.174609e-02 -6.536005e-02
     vertex -1.007936e+00 -3.174609e-02 -1.698412e-01
     vertex -9.148958e-01 -3.174609e-02 -8.428479e-02
   endloop
 endfacet
 facet normal -0.000000e+00 -1.000000e+00  0.000000e+00
   outer loop
     vertex -8.413742e-01 -3.174609e-02 -1.446224e-01
     vertex -8.602989e-01 -3.174609e-02 -1.388816e-01
     vertex -1.007936e+00 -3.174609e-02 -1.698412e-01
   endloop
 endfacet
 facet normal  0.000000e+00 -1.000000e+00 -0.000000e+00
   outer loop
     vertex -9.225749e-01 -3.174609e-02 -4.567898e-02
     vertex -1.007936e+00 -3.174609e-02 -1.698412e-01
     vertex -9.206365e-01 -3.174609e-02 -6.536005e-02
   endloop
 endfacet
 facet normal -0.000000e+00 -1.000000e+00  0.000000e+00
   outer loop
     vertex -8.216931e-01 -3.174609e-02 -1.465608e-01
     vertex -8.413742e-01 -3.174609e-02 -1.446224e-01
     vertex -1.007936e+00 -3.174609e-02 -1.698412e-01
   endloop
 endfacet
 facet normal  0.000000e+00 -1.000000e+00  0.000000e+00
   outer loop
     vertex -8.020120e-01 -3.174609e-02 -1.446224e-01
     vertex -8.216931e-01 -3.174609e-02 -1.465608e-01
     vertex -1.007936e+00 -3.174609e-02 -1.698412e-01
   endloop
 endfacet
 facet normal  0.000000e+00 -1.000000e+00  0.000000e+00
   outer loop
     vertex -1.007936e+00 -3.174609e-02  7.848333e-02
     vertex -9.225749e-01 -3.174609e-02 -4.567898e-02
     vertex -9.206365e-01 -3.174609e-02 -2.599791e-02
   endloop
 endfacet
 facet normal  0.000000e+00 -1.000000e+00  0.000000e+00
   outer loop
     vertex -1.007936e+00 -3.174609e-02  7.848333e-02
     vertex -1.007936e+00 -3.174609e-02 -1.698412e-01
     vertex -9.225749e-01 -3.174609e-02 -4.567898e-02
   endloop
 endfacet
 facet normal -0.000000e+00 -1.000000e+00  0.000000e+00
   outer loop
     vertex -9.148958e-01 -3.174609e-02 -7.073170e-03
     vertex -1.007936e+00 -3.174609e-02  7.848333e-02
     vertex -9.206365e-01 -3.174609e-02 -2.599791e-02
   endloop
 endfacet
 facet normal -0.000000e+00 -1.000000e+00  0.000000e+00
   outer loop
     vertex -9.055733e-01 -3.174609e-02  1.036797e-02
     vertex -1.007936e+00 -3.174609e-02  7.848333e-02
     vertex -9.148958e-01 -3.174609e-02 -7.073170e-03
   endloop
 endfacet
 facet normal -0.000000e+00 -1.000000e+00  0.000000e+00
   outer loop
     vertex -8.930273e-01 -3.174609e-02  2.565526e-02
     vertex -1.007936e+00 -3.174609e-02  7.848333e-02
     vertex -9.055733e-01 -3.174609e-02  1.036797e-02
   endloop
 endfacet
 facet normal -0.000000e+00 -1.000000e+00  0.000000e+00
   outer loop
     vertex -8.777401e-01 -3.174609e-02  3.820121e-02
     vertex -1.007936e+00 -3.174609e-02  7.848333e-02
     vertex -8.930273e-01 -3.174609e-02  2.565526e-02
   endloop
 endfacet
 facet normal -0.000000e+00 -1.000000e+00  0.000000e+00
   outer loop
     vertex -8.602989e-01 -3.174609e-02  4.752369e-02
     vertex -1.007936e+00 -3.174609e-02  7.848333e-02
     vertex -8.777401e-01 -3.174609e-02  3.820121e-02
   endloop
 endfacet
 facet normal -0.000000e+00 -1.000000e+00  0.000000e+00
   outer loop
     vertex -8.413742e-01 -3.174609e-02  5.326445e-02
     vertex -1.007936e+00 -3.174609e-02  7.848333e-02
     vertex -8.602989e-01 -3.174609e-02  4.752369e-02
   endloop
 endfacet
 facet normal -0.000000e+00 -1.000000e+00  0.000000e+00
   outer loop
     vertex -8.216931e-01 -3.174609e-02  5.520286e-02
     vertex -1.007936e+00 -3.174609e-02  7.848333e-02
     vertex -8.413742e-01 -3.174609e-02  5.326445e-02
   endloop
 endfacet
 facet normal  0.000000e+00 -1.000000e+00  0.000000e+00
   outer loop
     vertex  6.824071e-01 -3.174609e-02 -9.647969e-02
     vertex -7.503589e-01 -3.174609e-02 -1.170132e-01
     vertex -7.656462e-01 -3.174609e-02 -1.295592e-01
   endloop
 endfacet
 facet normal  0.000000e+00 -1.000000e+00  0.000000e+00
   outer loop
     vertex  6.824071e-01 -3.174609e-02 -9.647969e-02
     vertex -7.378129e-01 -3.174609e-02 -1.017259e-01
     vertex -7.503589e-01 -3.174609e-02 -1.170132e-01
   endloop
 endfacet
 facet normal  0.000000e+00 -1.000000e+00  0.000000e+00
   outer loop
     vertex  6.719836e-01 -3.174609e-02 -8.405739e-02
     vertex -7.284904e-01 -3.174609e-02 -8.428479e-02
     vertex -7.378129e-01 -3.174609e-02 -1.017259e-01
   endloop
 endfacet
 facet normal  0.000000e+00 -1.000000e+00 -0.000000e+00
   outer loop
     vertex  6.719836e-01 -3.174609e-02 -8.405739e-02
     vertex -7.378129e-01 -3.174609e-02 -1.017259e-01
     vertex  6.824071e-01 -3.174609e-02 -9.647969e-02
   endloop
 endfacet
 facet normal  0.000000e+00 -1.000000e+00  0.000000e+00
   outer loop
     vertex  6.954145e-01 -3.174609e-02 -1.061633e-01
     vertex -7.656462e-01 -3.174609e-02 -1.295592e-01
     vertex -7.830873e-01 -3.174609e-02 -1.388816e-01
   endloop
 endfacet
 facet normal -0.000000e+00 -1.000000e+00  0.000000e+00
   outer loop
     vertex  6.954145e-01 -3.174609e-02 -1.061633e-01
     vertex  6.824071e-01 -3.174609e-02 -9.647969e-02
     vertex -7.656462e-01 -3.174609e-02 -1.295592e-01
   endloop
 endfacet
 facet normal  0.000000e+00 -1.000000e+00 -0.000000e+00
   outer loop
     vertex  6.647058e-01 -3.174609e-02 -6.956610e-02
     vertex -7.284904e-01 -3.174609e-02 -8.428479e-02
     vertex  6.719836e-01 -3.174609e-02 -8.405739e-02
   endloop
 endfacet
 facet normal -0.000000e+00 -1.000000e+00  0.000000e+00
   outer loop
     vertex  6.647058e-01 -3.174609e-02 -6.956610e-02
     vertex -7.227497e-01 -3.174609e-02 -6.536005e-02
     vertex -7.284904e-01 -3.174609e-02 -8.428479e-02
   endloop
 endfacet
 facet normal  0.000000e+00 -1.000000e+00  0.000000e+00
   outer loop
     vertex  7.103044e-01 -3.174609e-02 -1.125862e-01
     vertex -7.830873e-01 -3.174609e-02 -1.388816e-01
     vertex -8.020120e-01 -3.174609e-02 -1.446224e-01
   endloop
 endfacet
 facet normal -0.000000e+00 -1.000000e+00  0.000000e+00
   outer loop
     vertex  7.103044e-01 -3.174609e-02 -1.125862e-01
     vertex  6.954145e-01 -3.174609e-02 -1.061633e-01
     vertex -7.830873e-01 -3.174609e-02 -1.388816e-01
   endloop
 endfacet
 facet normal -0.000000e+00 -1.000000e+00  0.000000e+00
   outer loop
     vertex  6.609661e-01 -3.174609e-02 -5.378706e-02
     vertex -7.208113e-01 -3.174609e-02 -4.567898e-02
     vertex -7.227497e-01 -3.174609e-02 -6.536005e-02
   endloop
 endfacet
 facet normal  0.000000e+00 -1.000000e+00 -0.000000e+00
   outer loop
     vertex  6.609661e-01 -3.174609e-02 -5.378706e-02
     vertex -7.227497e-01 -3.174609e-02 -6.536005e-02
     vertex  6.647058e-01 -3.174609e-02 -6.956610e-02
   endloop
 endfacet
 facet normal -0.000000e+00 -1.000000e+00  0.000000e+00
   outer loop
     vertex  6.609661e-01 -3.174609e-02 -3.757090e-02
     vertex -7.227497e-01 -3.174609e-02 -2.599791e-02
     vertex -7.208113e-01 -3.174609e-02 -4.567898e-02
   endloop
 endfacet
 facet normal  0.000000e+00 -1.000000e+00 -0.000000e+00
   outer loop
     vertex  6.609661e-01 -3.174609e-02 -3.757090e-02
     vertex -7.208113e-01 -3.174609e-02 -4.567898e-02
     vertex  6.609661e-01 -3.174609e-02 -5.378706e-02
   endloop
 endfacet
 facet normal -0.000000e+00 -1.000000e+00  0.000000e+00
   outer loop
     vertex  6.647058e-01 -3.174609e-02 -2.179186e-02
     vertex -7.284904e-01 -3.174609e-02 -7.073170e-03
     vertex -7.227497e-01 -3.174609e-02 -2.599791e-02
   endloop
 endfacet
 facet normal  0.000000e+00 -1.000000e+00  0.000000e+00
   outer loop
     vertex  6.647058e-01 -3.174609e-02 -2.179186e-02
     vertex -7.227497e-01 -3.174609e-02 -2.599791e-02
     vertex  6.609661e-01 -3.174609e-02 -3.757090e-02
   endloop
 endfacet
 facet normal  0.000000e+00 -1.000000e+00  0.000000e+00
   outer loop
     vertex  6.719836e-01 -3.174609e-02 -7.300569e-03
     vertex -7.378129e-01 -3.174609e-02  1.036797e-02
     vertex -7.284904e-01 -3.174609e-02 -7.073170e-03
   endloop
 endfacet
 facet normal -0.000000e+00 -1.000000e+00  0.000000e+00
   outer loop
     vertex  6.719836e-01 -3.174609e-02 -7.300569e-03
     vertex -7.284904e-01 -3.174609e-02 -7.073170e-03
     vertex  6.647058e-01 -3.174609e-02 -2.179186e-02
   endloop
 endfacet
 facet normal  0.000000e+00 -1.000000e+00  0.000000e+00
   outer loop
     vertex  6.824071e-01 -3.174609e-02  5.121726e-03
     vertex -7.503589e-01 -3.174609e-02  2.565526e-02
     vertex -7.378129e-01 -3.174609e-02  1.036797e-02
   endloop
 endfacet
 facet normal -0.000000e+00 -1.000000e+00  0.000000e+00
   outer loop
     vertex  6.824071e-01 -3.174609e-02  5.121726e-03
     vertex -7.378129e-01 -3.174609e-02  1.036797e-02
     vertex  6.719836e-01 -3.174609e-02 -7.300569e-03
   endloop
 endfacet
 facet normal  0.000000e+00 -1.000000e+00  0.000000e+00
   outer loop
     vertex  9.165785e-01 -3.174609e-02 -1.698412e-01
     vertex  7.103044e-01 -3.174609e-02 -1.125862e-01
     vertex -8.020120e-01 -3.174609e-02 -1.446224e-01
   endloop
 endfacet
 facet normal  0.000000e+00 -1.000000e+00  0.000000e+00
   outer loop
     vertex  9.165785e-01 -3.174609e-02 -1.698412e-01
     vertex  7.262742e-01 -3.174609e-02 -1.154021e-01
     vertex  7.103044e-01 -3.174609e-02 -1.125862e-01
   endloop
 endfacet
 facet normal  0.000000e+00 -1.000000e+00  0.000000e+00
   outer loop
     vertex  9.165785e-01 -3.174609e-02 -1.698412e-01
     vertex  7.424630e-01 -3.174609e-02 -1.144592e-01
     vertex  7.262742e-01 -3.174609e-02 -1.154021e-01
   endloop
 endfacet
 facet normal  0.000000e+00 -1.000000e+00  0.000000e+00
   outer loop
     vertex  9.165785e-01 -3.174609e-02 -1.698412e-01
     vertex  7.579979e-01 -3.174609e-02 -1.098084e-01
     vertex  7.424630e-01 -3.174609e-02 -1.144592e-01
   endloop
 endfacet
 facet normal  0.000000e+00 -1.000000e+00  0.000000e+00
   outer loop
     vertex  9.165785e-01 -3.174609e-02 -1.698412e-01
     vertex  7.720415e-01 -3.174609e-02 -1.017003e-01
     vertex  7.579979e-01 -3.174609e-02 -1.098084e-01
   endloop
 endfacet
 facet normal  0.000000e+00 -1.000000e+00  0.000000e+00
   outer loop
     vertex  9.165785e-01 -3.174609e-02 -1.698412e-01
     vertex  7.838367e-01 -3.174609e-02 -9.057209e-02
     vertex  7.720415e-01 -3.174609e-02 -1.017003e-01
   endloop
 endfacet
 facet normal  0.000000e+00 -1.000000e+00  0.000000e+00
   outer loop
     vertex  9.165785e-01 -3.174609e-02 -1.698412e-01
     vertex  7.927476e-01 -3.174609e-02 -7.702369e-02
     vertex  7.838367e-01 -3.174609e-02 -9.057209e-02
   endloop
 endfacet
 facet normal  0.000000e+00 -1.000000e+00  0.000000e+00
   outer loop
     vertex  9.165785e-01 -3.174609e-02 -1.698412e-01
     vertex  7.982938e-01 -3.174609e-02 -6.178549e-02
     vertex  7.927476e-01 -3.174609e-02 -7.702369e-02
   endloop
 endfacet
 facet normal  0.000000e+00 -1.000000e+00  0.000000e+00
   outer loop
     vertex  9.165785e-01 -3.174609e-02 -1.698412e-01
     vertex -8.020120e-01 -3.174609e-02 -1.446224e-01
     vertex -1.007936e+00 -3.174609e-02 -1.698412e-01
   endloop
 endfacet
 facet normal  0.000000e+00 -1.000000e+00 -0.000000e+00
   outer loop
     vertex  8.001764e-01 -3.174609e-02 -4.567898e-02
     vertex  7.982938e-01 -3.174609e-02 -6.178549e-02
     vertex  9.165785e-01 -3.174609e-02 -1.698412e-01
   endloop
 endfacet
 facet normal  0.000000e+00 -1.000000e+00  0.000000e+00
   outer loop
     vertex  9.165785e-01 -3.174609e-02  7.848333e-02
     vertex  7.982938e-01 -3.174609e-02 -2.957247e-02
     vertex  8.001764e-01 -3.174609e-02 -4.567898e-02
   endloop
 endfacet
 facet normal  0.000000e+00 -1.000000e+00  0.000000e+00
   outer loop
     vertex  9.165785e-01 -3.174609e-02  7.848333e-02
     vertex  7.927476e-01 -3.174609e-02 -1.433427e-02
     vertex  7.982938e-01 -3.174609e-02 -2.957247e-02
   endloop
 endfacet
 facet normal  0.000000e+00 -1.000000e+00  0.000000e+00
   outer loop
     vertex  9.165785e-01 -3.174609e-02  7.848333e-02
     vertex  7.838367e-01 -3.174609e-02 -7.858703e-04
     vertex  7.927476e-01 -3.174609e-02 -1.433427e-02
   endloop
 endfacet
 facet normal  0.000000e+00 -1.000000e+00  0.000000e+00
   outer loop
     vertex  9.165785e-01 -3.174609e-02  7.848333e-02
     vertex  7.720415e-01 -3.174609e-02  1.034233e-02
     vertex  7.838367e-01 -3.174609e-02 -7.858703e-04
   endloop
 endfacet
 facet normal  0.000000e+00 -1.000000e+00  0.000000e+00
   outer loop
     vertex  9.165785e-01 -3.174609e-02  7.848333e-02
     vertex  7.579979e-01 -3.174609e-02  1.845041e-02
     vertex  7.720415e-01 -3.174609e-02  1.034233e-02
   endloop
 endfacet
 facet normal  0.000000e+00 -1.000000e+00  0.000000e+00
   outer loop
     vertex  9.165785e-01 -3.174609e-02  7.848333e-02
     vertex  7.424630e-01 -3.174609e-02  2.310125e-02
     vertex  7.579979e-01 -3.174609e-02  1.845041e-02
   endloop
 endfacet
 facet normal  0.000000e+00 -1.000000e+00  0.000000e+00
   outer loop
     vertex  9.165785e-01 -3.174609e-02  7.848333e-02
     vertex  7.262742e-01 -3.174609e-02  2.404414e-02
     vertex  7.424630e-01 -3.174609e-02  2.310125e-02
   endloop
 endfacet
 facet normal  0.000000e+00 -1.000000e+00  0.000000e+00
   outer loop
     vertex  9.165785e-01 -3.174609e-02  7.848333e-02
     vertex  7.103044e-01 -3.174609e-02  2.122823e-02
     vertex  7.262742e-01 -3.174609e-02  2.404414e-02
   endloop
 endfacet
 facet normal  0.000000e+00 -1.000000e+00 -0.000000e+00
   outer loop
     vertex  9.165785e-01 -3.174609e-02  7.848333e-02
     vertex  8.001764e-01 -3.174609e-02 -4.567898e-02
     vertex  9.165785e-01 -3.174609e-02 -1.698412e-01
   endloop
 endfacet
 facet normal -0.000000e+00 -1.000000e+00  0.000000e+00
   outer loop
     vertex  9.165785e-01 -3.174609e-02  7.848333e-02
     vertex -1.007936e+00 -3.174609e-02  7.848333e-02
     vertex -8.216931e-01 -3.174609e-02  5.520286e-02
   endloop
 endfacet
 facet normal  0.000000e+00 -1.000000e+00  0.000000e+00
   outer loop
     vertex  9.165785e-01 -3.174609e-02  7.848333e-02
     vertex -8.216931e-01 -3.174609e-02  5.520286e-02
     vertex -8.020120e-01 -3.174609e-02  5.326445e-02
   endloop
 endfacet
 facet normal  0.000000e+00 -1.000000e+00  0.000000e+00
   outer loop
     vertex  9.165785e-01 -3.174609e-02  7.848333e-02
     vertex -8.020120e-01 -3.174609e-02  5.326445e-02
     vertex -7.830873e-01 -3.174609e-02  4.752369e-02
   endloop
 endfacet
 facet normal  0.000000e+00 -1.000000e+00  0.000000e+00
   outer loop
     vertex  9.165785e-01 -3.174609e-02  7.848333e-02
     vertex -7.830873e-01 -3.174609e-02  4.752369e-02
     vertex -7.656462e-01 -3.174609e-02  3.820121e-02
   endloop
 endfacet
 facet normal  0.000000e+00 -1.000000e+00  0.000000e+00
   outer loop
     vertex  9.165785e-01 -3.174609e-02  7.848333e-02
     vertex -7.656462e-01 -3.174609e-02  3.820121e-02
     vertex -7.503589e-01 -3.174609e-02  2.565526e-02
   endloop
 endfacet
 facet normal  0.000000e+00 -1.000000e+00  0.000000e+00
   outer loop
     vertex  9.165785e-01 -3.174609e-02  7.848333e-02
     vertex -7.503589e-01 -3.174609e-02  2.565526e-02
     vertex  7.103044e-01 -3.174609e-02  2.122823e-02
   endloop
 endfacet
 facet normal -0.000000e+00 -1.000000e+00  0.000000e+00
   outer loop
     vertex  7.103044e-01 -3.174609e-02  2.122823e-02
     vertex -7.503589e-01 -3.174609e-02  2.565526e-02
     vertex  6.954145e-01 -3.174609e-02  1.480534e-02
   endloop
 endfacet
 facet normal -0.000000e+00 -1.000000e+00  0.000000e+00
   outer loop
     vertex  6.954145e-01 -3.174609e-02  1.480534e-02
     vertex -7.503589e-01 -3.174609e-02  2.565526e-02
     vertex  6.824071e-01 -3.174609e-02  5.121726e-03
   endloop
 endfacet
 facet normal -0.000000e+00  0.000000e+00  1.000000e+00
   outer loop
     vertex -1.007936e+00 -1.587302e-02  7.848333e-02
     vertex  9.165785e-01 -3.174609e-02  7.848333e-02
     vertex  9.165785e-01 -1.587302e-02  7.848333e-02
   endloop
 endfacet
 facet normal  0.000000e+00  0.000000e+00  1.000000e+00
   outer loop
     vertex -1.007936e+00 -1.587302e-02  7.848333e-02
     vertex -1.007936e+00 -3.174609e-02  7.848333e-02
     vertex  9.165785e-01 -3.174609e-02  7.848333e-02
   endloop
 endfacet
 facet normal -1.000000e+00  0.000000e+00  0.000000e+00
   outer loop
     vertex -1.007936e+00 -1.587302e-02 -1.698412e-01
     vertex -1.007936e+00 -1.587302e-02  7.848333e-02
     vertex -1.007936e+00  3.174603e-02  7.848333e-02
   endloop
 endfacet
 facet normal -1.000000e+00  0.000000e+00  0.000000e+00
   outer loop
     vertex -1.007936e+00 -1.587302e-02 -1.698412e-01
     vertex -1.007936e+00  3.174603e-02  7.848333e-02
     vertex -1.007936e+00  3.174603e-02 -1.698412e-01
   endloop
 endfacet
 facet normal  1.000000e+00  0.000000e+00  0.000000e+00
   outer loop
     vertex  9.165785e-01 -1.587302e-02  7.848333e-02
     vertex  9.165785e-01 -1.587302e-02 -1.698412e-01
     vertex  9.165785e-01  3.174603e-02 -1.698412e-01
   endloop
 endfacet
 facet normal  1.000000e+00 -0.000000e+00  0.000000e+00
   outer loop
     vertex  9.165785e-01 -1.587302e-02  7.848333e-02
     vertex  9.165785e-01  3.174603e-02 -1.698412e-01
     vertex  9.165785e-01  3.174603e-02  7.848333e-02
   endloop
 endfacet
 facet normal  0.000000e+00  1.000000e+00  0.000000e+00
   outer loop
     vertex -9.055733e-01  3.174603e-02 -1.017259e-01
     vertex -8.930273e-01  3.174603e-02 -1.170132e-01
     vertex -1.007936e+00  3.174603e-02 -1.698412e-01
   endloop
 endfacet
 facet normal  0.000000e+00  1.000000e+00  0.000000e+00
   outer loop
     vertex -8.777401e-01  3.174603e-02 -1.295592e-01
     vertex -1.007936e+00  3.174603e-02 -1.698412e-01
     vertex -8.930273e-01  3.174603e-02 -1.170132e-01
   endloop
 endfacet
 facet normal  0.000000e+00  1.000000e+00  0.000000e+00
   outer loop
     vertex -9.148958e-01  3.174603e-02 -8.428479e-02
     vertex -9.055733e-01  3.174603e-02 -1.017259e-01
     vertex -1.007936e+00  3.174603e-02 -1.698412e-01
   endloop
 endfacet
 facet normal  0.000000e+00  1.000000e+00  0.000000e+00
   outer loop
     vertex -8.602989e-01  3.174603e-02 -1.388816e-01
     vertex -1.007936e+00  3.174603e-02 -1.698412e-01
     vertex -8.777401e-01  3.174603e-02 -1.295592e-01
   endloop
 endfacet
 facet normal  0.000000e+00  1.000000e+00  0.000000e+00
   outer loop
     vertex -9.206365e-01  3.174603e-02 -6.536005e-02
     vertex -9.148958e-01  3.174603e-02 -8.428479e-02
     vertex -1.007936e+00  3.174603e-02 -1.698412e-01
   endloop
 endfacet
 facet normal  0.000000e+00  1.000000e+00  0.000000e+00
   outer loop
     vertex -8.413742e-01  3.174603e-02 -1.446224e-01
     vertex -1.007936e+00  3.174603e-02 -1.698412e-01
     vertex -8.602989e-01  3.174603e-02 -1.388816e-01
   endloop
 endfacet
 facet normal  0.000000e+00  1.000000e+00  0.000000e+00
   outer loop
     vertex -9.225749e-01  3.174603e-02 -4.567898e-02
     vertex -9.206365e-01  3.174603e-02 -6.536005e-02
     vertex -1.007936e+00  3.174603e-02 -1.698412e-01
   endloop
 endfacet
 facet normal  0.000000e+00  1.000000e+00  0.000000e+00
   outer loop
     vertex -8.216931e-01  3.174603e-02 -1.465608e-01
     vertex -1.007936e+00  3.174603e-02 -1.698412e-01
     vertex -8.413742e-01  3.174603e-02 -1.446224e-01
   endloop
 endfacet
 facet normal  0.000000e+00  1.000000e+00  0.000000e+00
   outer loop
     vertex -8.020120e-01  3.174603e-02 -1.446224e-01
     vertex -1.007936e+00  3.174603e-02 -1.698412e-01
     vertex -8.216931e-01  3.174603e-02 -1.465608e-01
   endloop
 endfacet
 facet normal  0.000000e+00  1.000000e+00  0.000000e+00
   outer loop
     vertex -1.007936e+00  3.174603e-02  7.848333e-02
     vertex -9.206365e-01  3.174603e-02 -2.599791e-02
     vertex -9.225749e-01  3.174603e-02 -4.567898e-02
   endloop
 endfacet
 facet normal  0.000000e+00  1.000000e+00  0.000000e+00
   outer loop
     vertex -1.007936e+00  3.174603e-02  7.848333e-02
     vertex -9.225749e-01  3.174603e-02 -4.567898e-02
     vertex -1.007936e+00  3.174603e-02 -1.698412e-01
   endloop
 endfacet
 facet normal  0.000000e+00  1.000000e+00  0.000000e+00
   outer loop
     vertex -9.148958e-01  3.174603e-02 -7.073170e-03
     vertex -9.206365e-01  3.174603e-02 -2.599791e-02
     vertex -1.007936e+00  3.174603e-02  7.848333e-02
   endloop
 endfacet
 facet normal  0.000000e+00  1.000000e+00  0.000000e+00
   outer loop
     vertex -9.055733e-01  3.174603e-02  1.036797e-02
     vertex -9.148958e-01  3.174603e-02 -7.073170e-03
     vertex -1.007936e+00  3.174603e-02  7.848333e-02
   endloop
 endfacet
 facet normal  0.000000e+00  1.000000e+00  0.000000e+00
   outer loop
     vertex -8.930273e-01  3.174603e-02  2.565526e-02
     vertex -9.055733e-01  3.174603e-02  1.036797e-02
     vertex -1.007936e+00  3.174603e-02  7.848333e-02
   endloop
 endfacet
 facet normal  0.000000e+00  1.000000e+00  0.000000e+00
   outer loop
     vertex -8.777401e-01  3.174603e-02  3.820121e-02
     vertex -8.930273e-01  3.174603e-02  2.565526e-02
     vertex -1.007936e+00  3.174603e-02  7.848333e-02
   endloop
 endfacet
 facet normal  0.000000e+00  1.000000e+00  0.000000e+00
   outer loop
     vertex -8.602989e-01  3.174603e-02  4.752369e-02
     vertex -8.777401e-01  3.174603e-02  3.820121e-02
     vertex -1.007936e+00  3.174603e-02  7.848333e-02
   endloop
 endfacet
 facet normal  0.000000e+00  1.000000e+00  0.000000e+00
   outer loop
     vertex -8.413742e-01  3.174603e-02  5.326445e-02
     vertex -8.602989e-01  3.174603e-02  4.752369e-02
     vertex -1.007936e+00  3.174603e-02  7.848333e-02
   endloop
 endfacet
 facet normal  0.000000e+00  1.000000e+00  0.000000e+00
   outer loop
     vertex -8.216931e-01  3.174603e-02  5.520286e-02
     vertex -8.413742e-01  3.174603e-02  5.326445e-02
     vertex -1.007936e+00  3.174603e-02  7.848333e-02
   endloop
 endfacet
 facet normal  0.000000e+00  1.000000e+00  0.000000e+00
   outer loop
     vertex  6.824071e-01  3.174603e-02 -9.647969e-02
     vertex -7.656462e-01  3.174603e-02 -1.295592e-01
     vertex -7.503589e-01  3.174603e-02 -1.170132e-01
   endloop
 endfacet
 facet normal  0.000000e+00  1.000000e+00  0.000000e+00
   outer loop
     vertex  6.824071e-01  3.174603e-02 -9.647969e-02
     vertex -7.503589e-01  3.174603e-02 -1.170132e-01
     vertex -7.378129e-01  3.174603e-02 -1.017259e-01
   endloop
 endfacet
 facet normal  0.000000e+00  1.000000e+00  0.000000e+00
   outer loop
     vertex  6.719836e-01  3.174603e-02 -8.405739e-02
     vertex -7.378129e-01  3.174603e-02 -1.017259e-01
     vertex -7.284904e-01  3.174603e-02 -8.428479e-02
   endloop
 endfacet
 facet normal  0.000000e+00  1.000000e+00  0.000000e+00
   outer loop
     vertex  6.719836e-01  3.174603e-02 -8.405739e-02
     vertex  6.824071e-01  3.174603e-02 -9.647969e-02
     vertex -7.378129e-01  3.174603e-02 -1.017259e-01
   endloop
 endfacet
 facet normal  0.000000e+00  1.000000e+00  0.000000e+00
   outer loop
     vertex  6.954145e-01  3.174603e-02 -1.061633e-01
     vertex -7.830873e-01  3.174603e-02 -1.388816e-01
     vertex -7.656462e-01  3.174603e-02 -1.295592e-01
   endloop
 endfacet
 facet normal  0.000000e+00  1.000000e+00  0.000000e+00
   outer loop
     vertex  6.954145e-01  3.174603e-02 -1.061633e-01
     vertex -7.656462e-01  3.174603e-02 -1.295592e-01
     vertex  6.824071e-01  3.174603e-02 -9.647969e-02
   endloop
 endfacet
 facet normal  0.000000e+00  1.000000e+00  0.000000e+00
   outer loop
     vertex  6.647058e-01  3.174603e-02 -6.956610e-02
     vertex  6.719836e-01  3.174603e-02 -8.405739e-02
     vertex -7.284904e-01  3.174603e-02 -8.428479e-02
   endloop
 endfacet
 facet normal  0.000000e+00  1.000000e+00  0.000000e+00
   outer loop
     vertex  6.647058e-01  3.174603e-02 -6.956610e-02
     vertex -7.284904e-01  3.174603e-02 -8.428479e-02
     vertex -7.227497e-01  3.174603e-02 -6.536005e-02
   endloop
 endfacet
 facet normal  0.000000e+00  1.000000e+00  0.000000e+00
   outer loop
     vertex  7.103044e-01  3.174603e-02 -1.125862e-01
     vertex -8.020120e-01  3.174603e-02 -1.446224e-01
     vertex -7.830873e-01  3.174603e-02 -1.388816e-01
   endloop
 endfacet
 facet normal  0.000000e+00  1.000000e+00  0.000000e+00
   outer loop
     vertex  7.103044e-01  3.174603e-02 -1.125862e-01
     vertex -7.830873e-01  3.174603e-02 -1.388816e-01
     vertex  6.954145e-01  3.174603e-02 -1.061633e-01
   endloop
 endfacet
 facet normal  0.000000e+00  1.000000e+00  0.000000e+00
   outer loop
     vertex  6.609661e-01  3.174603e-02 -5.378706e-02
     vertex -7.227497e-01  3.174603e-02 -6.536005e-02
     vertex -7.208113e-01  3.174603e-02 -4.567898e-02
   endloop
 endfacet
 facet normal  0.000000e+00  1.000000e+00  0.000000e+00
   outer loop
     vertex  6.609661e-01  3.174603e-02 -5.378706e-02
     vertex  6.647058e-01  3.174603e-02 -6.956610e-02
     vertex -7.227497e-01  3.174603e-02 -6.536005e-02
   endloop
 endfacet
 facet normal  0.000000e+00  1.000000e+00  0.000000e+00
   outer loop
     vertex  6.609661e-01  3.174603e-02 -3.757090e-02
     vertex -7.208113e-01  3.174603e-02 -4.567898e-02
     vertex -7.227497e-01  3.174603e-02 -2.599791e-02
   endloop
 endfacet
 facet normal  0.000000e+00  1.000000e+00  0.000000e+00
   outer loop
     vertex  6.609661e-01  3.174603e-02 -3.757090e-02
     vertex  6.609661e-01  3.174603e-02 -5.378706e-02
     vertex -7.208113e-01  3.174603e-02 -4.567898e-02
   endloop
 endfacet
 facet normal  0.000000e+00  1.000000e+00  0.000000e+00
   outer loop
     vertex  6.647058e-01  3.174603e-02 -2.179186e-02
     vertex -7.227497e-01  3.174603e-02 -2.599791e-02
     vertex -7.284904e-01  3.174603e-02 -7.073170e-03
   endloop
 endfacet
 facet normal  0.000000e+00  1.000000e+00  0.000000e+00
   outer loop
     vertex  6.647058e-01  3.174603e-02 -2.179186e-02
     vertex  6.609661e-01  3.174603e-02 -3.757090e-02
     vertex -7.227497e-01  3.174603e-02 -2.599791e-02
   endloop
 endfacet
 facet normal  0.000000e+00  1.000000e+00  0.000000e+00
   outer loop
     vertex  6.719836e-01  3.174603e-02 -7.300569e-03
     vertex -7.284904e-01  3.174603e-02 -7.073170e-03
     vertex -7.378129e-01  3.174603e-02  1.036797e-02
   endloop
 endfacet
 facet normal  0.000000e+00  1.000000e+00  0.000000e+00
   outer loop
     vertex  6.719836e-01  3.174603e-02 -7.300569e-03
     vertex  6.647058e-01  3.174603e-02 -2.179186e-02
     vertex -7.284904e-01  3.174603e-02 -7.073170e-03
   endloop
 endfacet
 facet normal  0.000000e+00  1.000000e+00  0.000000e+00
   outer loop
     vertex  6.824071e-01  3.174603e-02  5.121726e-03
     vertex -7.378129e-01  3.174603e-02  1.036797e-02
     vertex -7.503589e-01  3.174603e-02  2.565526e-02
   endloop
 endfacet
 facet normal  0.000000e+00  1.000000e+00  0.000000e+00
   outer loop
     vertex  6.824071e-01  3.174603e-02  5.121726e-03
     vertex  6.719836e-01  3.174603e-02 -7.300569e-03
     vertex -7.378129e-01  3.174603e-02  1.036797e-02
   endloop
 endfacet
 facet normal  0.000000e+00  1.000000e+00  0.000000e+00
   outer loop
     vertex  9.165785e-01  3.174603e-02 -1.698412e-01
     vertex -8.020120e-01  3.174603e-02 -1.446224e-01
     vertex  7.103044e-01  3.174603e-02 -1.125862e-01
   endloop
 endfacet
 facet normal  0.000000e+00  1.000000e+00  0.000000e+00
   outer loop
     vertex  9.165785e-01  3.174603e-02 -1.698412e-01
     vertex  7.103044e-01  3.174603e-02 -1.125862e-01
     vertex  7.262742e-01  3.174603e-02 -1.154021e-01
   endloop
 endfacet
 facet normal  0.000000e+00  1.000000e+00  0.000000e+00
   outer loop
     vertex  9.165785e-01  3.174603e-02 -1.698412e-01
     vertex  7.262742e-01  3.174603e-02 -1.154021e-01
     vertex  7.424630e-01  3.174603e-02 -1.144592e-01
   endloop
 endfacet
 facet normal  0.000000e+00  1.000000e+00  0.000000e+00
   outer loop
     vertex  9.165785e-01  3.174603e-02 -1.698412e-01
     vertex  7.424630e-01  3.174603e-02 -1.144592e-01
     vertex  7.579979e-01  3.174603e-02 -1.098084e-01
   endloop
 endfacet
 facet normal  0.000000e+00  1.000000e+00  0.000000e+00
   outer loop
     vertex  9.165785e-01  3.174603e-02 -1.698412e-01
     vertex  7.579979e-01  3.174603e-02 -1.098084e-01
     vertex  7.720415e-01  3.174603e-02 -1.017003e-01
   endloop
 endfacet
 facet normal  0.000000e+00  1.000000e+00  0.000000e+00
   outer loop
     vertex  9.165785e-01  3.174603e-02 -1.698412e-01
     vertex  7.720415e-01  3.174603e-02 -1.017003e-01
     vertex  7.838367e-01  3.174603e-02 -9.057209e-02
   endloop
 endfacet
 facet normal  0.000000e+00  1.000000e+00  0.000000e+00
   outer loop
     vertex  9.165785e-01  3.174603e-02 -1.698412e-01
     vertex  7.838367e-01  3.174603e-02 -9.057209e-02
     vertex  7.927476e-01  3.174603e-02 -7.702369e-02
   endloop
 endfacet
 facet normal  0.000000e+00  1.000000e+00  0.000000e+00
   outer loop
     vertex  9.165785e-01  3.174603e-02 -1.698412e-01
     vertex  7.927476e-01  3.174603e-02 -7.702369e-02
     vertex  7.982938e-01  3.174603e-02 -6.178549e-02
   endloop
 endfacet
 facet normal  0.000000e+00  1.000000e+00  0.000000e+00
   outer loop
     vertex  9.165785e-01  3.174603e-02 -1.698412e-01
     vertex -1.007936e+00  3.174603e-02 -1.698412e-01
     vertex -8.020120e-01  3.174603e-02 -1.446224e-01
   endloop
 endfacet
 facet normal  0.000000e+00  1.000000e+00  0.000000e+00
   outer loop
     vertex  8.001764e-01  3.174603e-02 -4.567898e-02
     vertex  9.165785e-01  3.174603e-02 -1.698412e-01
     vertex  7.982938e-01  3.174603e-02 -6.178549e-02
   endloop
 endfacet
 facet normal  0.000000e+00  1.000000e+00  0.000000e+00
   outer loop
     vertex  9.165785e-01  3.174603e-02  7.848333e-02
     vertex  8.001764e-01  3.174603e-02 -4.567898e-02
     vertex  7.982938e-01  3.174603e-02 -2.957247e-02
   endloop
 endfacet
 facet normal  0.000000e+00  1.000000e+00  0.000000e+00
   outer loop
     vertex  9.165785e-01  3.174603e-02  7.848333e-02
     vertex  7.982938e-01  3.174603e-02 -2.957247e-02
     vertex  7.927476e-01  3.174603e-02 -1.433427e-02
   endloop
 endfacet
 facet normal  0.000000e+00  1.000000e+00  0.000000e+00
   outer loop
     vertex  9.165785e-01  3.174603e-02  7.848333e-02
     vertex  7.927476e-01  3.174603e-02 -1.433427e-02
     vertex  7.838367e-01  3.174603e-02 -7.858703e-04
   endloop
 endfacet
 facet normal  0.000000e+00  1.000000e+00  0.000000e+00
   outer loop
     vertex  9.165785e-01  3.174603e-02  7.848333e-02
     vertex  7.838367e-01  3.174603e-02 -7.858703e-04
     vertex  7.720415e-01  3.174603e-02  1.034233e-02
   endloop
 endfacet
 facet normal  0.000000e+00  1.000000e+00  0.000000e+00
   outer loop
     vertex  9.165785e-01  3.174603e-02  7.848333e-02
     vertex  7.720415e-01  3.174603e-02  1.034233e-02
     vertex  7.579979e-01  3.174603e-02  1.845041e-02
   endloop
 endfacet
 facet normal  0.000000e+00  1.000000e+00  0.000000e+00
   outer loop
     vertex  9.165785e-01  3.174603e-02  7.848333e-02
     vertex  7.579979e-01  3.174603e-02  1.845041e-02
     vertex  7.424630e-01  3.174603e-02  2.310125e-02
   endloop
 endfacet
 facet normal  0.000000e+00  1.000000e+00  0.000000e+00
   outer loop
     vertex  9.165785e-01  3.174603e-02  7.848333e-02
     vertex  7.424630e-01  3.174603e-02  2.310125e-02
     vertex  7.262742e-01  3.174603e-02  2.404414e-02
   endloop
 endfacet
 facet normal  0.000000e+00  1.000000e+00  0.000000e+00
   outer loop
     vertex  9.165785e-01  3.174603e-02  7.848333e-02
     vertex  7.262742e-01  3.174603e-02  2.404414e-02
     vertex  7.103044e-01  3.174603e-02  2.122823e-02
   endloop
 endfacet
 facet normal  0.000000e+00  1.000000e+00  0.000000e+00
   outer loop
     vertex  9.165785e-01  3.174603e-02  7.848333e-02
     vertex  9.165785e-01  3.174603e-02 -1.698412e-01
     vertex  8.001764e-01  3.174603e-02 -4.567898e-02
   endloop
 endfacet
 facet normal  0.000000e+00  1.000000e+00  0.000000e+00
   outer loop
     vertex  9.165785e-01  3.174603e-02  7.848333e-02
     vertex -8.216931e-01  3.174603e-02  5.520286e-02
     vertex -1.007936e+00  3.174603e-02  7.848333e-02
   endloop
 endfacet
 facet normal  0.000000e+00  1.000000e+00  0.000000e+00
   outer loop
     vertex  9.165785e-01  3.174603e-02  7.848333e-02
     vertex -8.020120e-01  3.174603e-02  5.326445e-02
     vertex -8.216931e-01  3.174603e-02  5.520286e-02
   endloop
 endfacet
 facet normal  0.000000e+00  1.000000e+00  0.000000e+00
   outer loop
     vertex  9.165785e-01  3.174603e-02  7.848333e-02
     vertex -7.830873e-01  3.174603e-02  4.752369e-02
     vertex -8.020120e-01  3.174603e-02  5.326445e-02
   endloop
 endfacet
 facet normal  0.000000e+00  1.000000e+00  0.000000e+00
   outer loop
     vertex  9.165785e-01  3.174603e-02  7.848333e-02
     vertex -7.656462e-01  3.174603e-02  3.820121e-02
     vertex -7.830873e-01  3.174603e-02  4.752369e-02
   endloop
 endfacet
 facet normal  0.000000e+00  1.000000e+00  0.000000e+00
   outer loop
     vertex  9.165785e-01  3.174603e-02  7.848333e-02
     vertex -7.503589e-01  3.174603e-02  2.565526e-02
     vertex -7.656462e-01  3.174603e-02  3.820121e-02
   endloop
 endfacet
 facet normal  0.000000e+00  1.000000e+00  0.000000e+00
   outer loop
     vertex  9.165785e-01  3.174603e-02  7.848333e-02
     vertex  7.103044e-01  3.174603e-02  2.122823e-02
     vertex -7.503589e-01  3.174603e-02  2.565526e-02
   endloop
 endfacet
 facet normal  0.000000e+00  1.000000e+00  0.000000e+00
   outer loop
     vertex  7.103044e-01  3.174603e-02  2.122823e-02
     vertex  6.954145e-01  3.174603e-02  1.480534e-02
     vertex -7.503589e-01  3.174603e-02  2.565526e-02
   endloop
 endfacet
 facet normal  0.000000e+00  1.000000e+00  0.000000e+00
   outer loop
     vertex  6.954145e-01  3.174603e-02  1.480534e-02
     vertex  6.824071e-01  3.174603e-02  5.121726e-03
     vertex -7.503589e-01  3.174603e-02  2.565526e-02
   endloop
 endfacet
 facet normal -9.951847e-01  0.000000e+00 -9.801714e-02
   outer loop
     vertex -7.227497e-01 -1.587302e-02 -2.599791e-02
     vertex -7.208113e-01 -1.587302e-02 -4.567898e-02
     vertex -7.208113e-01 -3.174609e-02 -4.567898e-02
   endloop
 endfacet
 facet normal -9.951847e-01 -0.000000e+00 -9.801714e-02
   outer loop
     vertex -7.227497e-01 -1.587302e-02 -2.599791e-02
     vertex -7.208113e-01 -3.174609e-02 -4.567898e-02
     vertex -7.227497e-01 -3.174609e-02 -2.599791e-02
   endloop
 endfacet
 facet normal -9.569403e-01 -0.000000e+00 -2.902847e-01
   outer loop
     vertex -7.284904e-01 -1.587302e-02 -7.073170e-03
     vertex -7.227497e-01 -3.174609e-02 -2.599791e-02
     vertex -7.284904e-01 -3.174609e-02 -7.073170e-03
   endloop
 endfacet
 facet normal -9.569403e-01  0.000000e+00 -2.902847e-01
   outer loop
     vertex -7.284904e-01 -1.587302e-02 -7.073170e-03
     vertex -7.227497e-01 -1.587302e-02 -2.599791e-02
     vertex -7.227497e-01 -3.174609e-02 -2.599791e-02
   endloop
 endfacet
 facet normal -8.819213e-01 -0.000000e+00 -4.713967e-01
   outer loop
     vertex -7.378129e-01 -1.587302e-02  1.036797e-02
     vertex -7.284904e-01 -3.174609e-02 -7.073170e-03
     vertex -7.378129e-01 -3.174609e-02  1.036797e-02
   endloop
 endfacet
 facet normal -8.819213e-01  0.000000e+00 -4.713967e-01
   outer loop
     vertex -7.378129e-01 -1.587302e-02  1.036797e-02
     vertex -7.284904e-01 -1.587302e-02 -7.073170e-03
     vertex -7.284904e-01 -3.174609e-02 -7.073170e-03
   endloop
 endfacet
 facet normal -7.730105e-01 -0.000000e+00 -6.343933e-01
   outer loop
     vertex -7.503589e-01 -1.587302e-02  2.565526e-02
     vertex -7.378129e-01 -3.174609e-02  1.036797e-02
     vertex -7.503589e-01 -3.174609e-02  2.565526e-02
   endloop
 endfacet
 facet normal -7.730105e-01  0.000000e+00 -6.343933e-01
   outer loop
     vertex -7.503589e-01 -1.587302e-02  2.565526e-02
     vertex -7.378129e-01 -1.587302e-02  1.036797e-02
     vertex -7.378129e-01 -3.174609e-02  1.036797e-02
   endloop
 endfacet
 facet normal -6.343933e-01 -0.000000e+00 -7.730105e-01
   outer loop
     vertex -7.656462e-01 -1.587302e-02  3.820121e-02
     vertex -7.503589e-01 -3.174609e-02  2.565526e-02
     vertex -7.656462e-01 -3.174609e-02  3.820121e-02
   endloop
 endfacet
 facet normal -6.343933e-01  0.000000e+00 -7.730105e-01
   outer loop
     vertex -7.656462e-01 -1.587302e-02  3.820121e-02
     vertex -7.503589e-01 -1.587302e-02  2.565526e-02
     vertex -7.503589e-01 -3.174609e-02  2.565526e-02
   endloop
 endfacet
 facet normal -4.713967e-01 -0.000000e+00 -8.819213e-01
   outer loop
     vertex -7.830873e-01 -1.587302e-02  4.752369e-02
     vertex -7.656462e-01 -3.174609e-02  3.820121e-02
     vertex -7.830873e-01 -3.174609e-02  4.752369e-02
   endloop
 endfacet
 facet normal -4.713967e-01  0.000000e+00 -8.819213e-01
   outer loop
     vertex -7.830873e-01 -1.587302e-02  4.752369e-02
     vertex -7.656462e-01 -1.587302e-02  3.820121e-02
     vertex -7.656462e-01 -3.174609e-02  3.820121e-02
   endloop
 endfacet
 facet normal -2.902847e-01 -0.000000e+00 -9.569403e-01
   outer loop
     vertex -8.020120e-01 -1.587302e-02  5.326445e-02
     vertex -7.830873e-01 -3.174609e-02  4.752369e-02
     vertex -8.020120e-01 -3.174609e-02  5.326445e-02
   endloop
 endfacet
 facet normal -2.902847e-01  0.000000e+00 -9.569403e-01
   outer loop
     vertex -8.020120e-01 -1.587302e-02  5.326445e-02
     vertex -7.830873e-01 -1.587302e-02  4.752369e-02
     vertex -7.830873e-01 -3.174609e-02  4.752369e-02
   endloop
 endfacet
 facet normal -9.801714e-02  0.000000e+00 -9.951847e-01
   outer loop
     vertex -8.216931e-01 -1.587302e-02  5.520286e-02
     vertex -8.020120e-01 -1.587302e-02  5.326445e-02
     vertex -8.020120e-01 -3.174609e-02  5.326445e-02
   endloop
 endfacet
 facet normal -9.801714e-02 -0.000000e+00 -9.951847e-01
   outer loop
     vertex -8.216931e-01 -1.587302e-02  5.520286e-02
     vertex -8.020120e-01 -3.174609e-02  5.326445e-02
     vertex -8.216931e-01 -3.174609e-02  5.520286e-02
   endloop
 endfacet
 facet normal  9.801714e-02  0.000000e+00 -9.951847e-01
   outer loop
     vertex -8.413742e-01 -1.587302e-02  5.326445e-02
     vertex -8.216931e-01 -1.587302e-02  5.520286e-02
     vertex -8.216931e-01 -3.174609e-02  5.520286e-02
   endloop
 endfacet
 facet normal  9.801714e-02  0.000000e+00 -9.951847e-01
   outer loop
     vertex -8.413742e-01 -1.587302e-02  5.326445e-02
     vertex -8.216931e-01 -3.174609e-02  5.520286e-02
     vertex -8.413742e-01 -3.174609e-02  5.326445e-02
   endloop
 endfacet
 facet normal  2.902847e-01  0.000000e+00 -9.569403e-01
   outer loop
     vertex -8.602989e-01 -1.587302e-02  4.752369e-02
     vertex -8.413742e-01 -3.174609e-02  5.326445e-02
     vertex -8.602989e-01 -3.174609e-02  4.752369e-02
   endloop
 endfacet
 facet normal  2.902847e-01  0.000000e+00 -9.569403e-01
   outer loop
     vertex -8.602989e-01 -1.587302e-02  4.752369e-02
     vertex -8.413742e-01 -1.587302e-02  5.326445e-02
     vertex -8.413742e-01 -3.174609e-02  5.326445e-02
   endloop
 endfacet
 facet normal  4.713967e-01  0.000000e+00 -8.819213e-01
   outer loop
     vertex -8.777401e-01 -1.587302e-02  3.820121e-02
     vertex -8.602989e-01 -3.174609e-02  4.752369e-02
     vertex -8.777401e-01 -3.174609e-02  3.820121e-02
   endloop
 endfacet
 facet normal  4.713967e-01  0.000000e+00 -8.819213e-01
   outer loop
     vertex -8.777401e-01 -1.587302e-02  3.820121e-02
     vertex -8.602989e-01 -1.587302e-02  4.752369e-02
     vertex -8.602989e-01 -3.174609e-02  4.752369e-02
   endloop
 endfacet
 facet normal  6.343933e-01  0.000000e+00 -7.730105e-01
   outer loop
     vertex -8.930273e-01 -1.587302e-02  2.565526e-02
     vertex -8.777401e-01 -3.174609e-02  3.820121e-02
     vertex -8.930273e-01 -3.174609e-02  2.565526e-02
   endloop
 endfacet
 facet normal  6.343933e-01  0.000000e+00 -7.730105e-01
   outer loop
     vertex -8.930273e-01 -1.587302e-02  2.565526e-02
     vertex -8.777401e-01 -1.587302e-02  3.820121e-02
     vertex -8.777401e-01 -3.174609e-02  3.820121e-02
   endloop
 endfacet
 facet normal  7.730105e-01  0.000000e+00 -6.343933e-01
   outer loop
     vertex -9.055733e-01 -1.587302e-02  1.036797e-02
     vertex -8.930273e-01 -3.174609e-02  2.565526e-02
     vertex -9.055733e-01 -3.174609e-02  1.036797e-02
   endloop
 endfacet
 facet normal  7.730105e-01  0.000000e+00 -6.343933e-01
   outer loop
     vertex -9.055733e-01 -1.587302e-02  1.036797e-02
     vertex -8.930273e-01 -1.587302e-02  2.565526e-02
     vertex -8.930273e-01 -3.174609e-02  2.565526e-02
   endloop
 endfacet
 facet normal  8.819213e-01  0.000000e+00 -4.713967e-01
   outer loop
     vertex -9.148958e-01 -1.587302e-02 -7.073170e-03
     vertex -9.055733e-01 -3.174609e-02  1.036797e-02
     vertex -9.148958e-01 -3.174609e-02 -7.073170e-03
   endloop
 endfacet
 facet normal  8.819213e-01  0.000000e+00 -4.713967e-01
   outer loop
     vertex -9.148958e-01 -1.587302e-02 -7.073170e-03
     vertex -9.055733e-01 -1.587302e-02  1.036797e-02
     vertex -9.055733e-01 -3.174609e-02  1.036797e-02
   endloop
 endfacet
 facet normal  9.569403e-01  0.000000e+00 -2.902847e-01
   outer loop
     vertex -9.206365e-01 -1.587302e-02 -2.599791e-02
     vertex -9.148958e-01 -3.174609e-02 -7.073170e-03
     vertex -9.206365e-01 -3.174609e-02 -2.599791e-02
   endloop
 endfacet
 facet normal  9.569403e-01  0.000000e+00 -2.902847e-01
   outer loop
     vertex -9.206365e-01 -1.587302e-02 -2.599791e-02
     vertex -9.148958e-01 -1.587302e-02 -7.073170e-03
     vertex -9.148958e-01 -3.174609e-02 -7.073170e-03
   endloop
 endfacet
 facet normal  9.951847e-01  0.000000e+00 -9.801714e-02
   outer loop
     vertex -9.225749e-01 -1.587302e-02 -4.567898e-02
     vertex -9.206365e-01 -3.174609e-02 -2.599791e-02
     vertex -9.225749e-01 -3.174609e-02 -4.567898e-02
   endloop
 endfacet
 facet normal  9.951847e-01  0.000000e+00 -9.801714e-02
   outer loop
     vertex -9.225749e-01 -1.587302e-02 -4.567898e-02
     vertex -9.206365e-01 -1.587302e-02 -2.599791e-02
     vertex -9.206365e-01 -3.174609e-02 -2.599791e-02
   endloop
 endfacet
 facet normal  9.951847e-01  0.000000e+00  9.801714e-02
   outer loop
     vertex -9.206365e-01 -1.587302e-02 -6.536005e-02
     vertex -9.225749e-01 -3.174609e-02 -4.567898e-02
     vertex -9.206365e-01 -3.174609e-02 -6.536005e-02
   endloop
 endfacet
 facet normal  9.951847e-01  0.000000e+00  9.801714e-02
   outer loop
     vertex -9.206365e-01 -1.587302e-02 -6.536005e-02
     vertex -9.225749e-01 -1.587302e-02 -4.567898e-02
     vertex -9.225749e-01 -3.174609e-02 -4.567898e-02
   endloop
 endfacet
 facet normal  9.569403e-01  0.000000e+00  2.902847e-01
   outer loop
     vertex -9.148958e-01 -1.587302e-02 -8.428479e-02
     vertex -9.206365e-01 -3.174609e-02 -6.536005e-02
     vertex -9.148958e-01 -3.174609e-02 -8.428479e-02
   endloop
 endfacet
 facet normal  9.569403e-01  0.000000e+00  2.902847e-01
   outer loop
     vertex -9.148958e-01 -1.587302e-02 -8.428479e-02
     vertex -9.206365e-01 -1.587302e-02 -6.536005e-02
     vertex -9.206365e-01 -3.174609e-02 -6.536005e-02
   endloop
 endfacet
 facet normal  8.819213e-01  0.000000e+00  4.713967e-01
   outer loop
     vertex -9.055733e-01 -1.587302e-02 -1.017259e-01
     vertex -9.148958e-01 -3.174609e-02 -8.428479e-02
     vertex -9.055733e-01 -3.174609e-02 -1.017259e-01
   endloop
 endfacet
 facet normal  8.819213e-01  0.000000e+00  4.713967e-01
   outer loop
     vertex -9.055733e-01 -1.587302e-02 -1.017259e-01
     vertex -9.148958e-01 -1.587302e-02 -8.428479e-02
     vertex -9.148958e-01 -3.174609e-02 -8.428479e-02
   endloop
 endfacet
 facet normal  7.730105e-01  0.000000e+00  6.343933e-01
   outer loop
     vertex -8.930273e-01 -1.587302e-02 -1.170132e-01
     vertex -9.055733e-01 -3.174609e-02 -1.017259e-01
     vertex -8.930273e-01 -3.174609e-02 -1.170132e-01
   endloop
 endfacet
 facet normal  7.730105e-01  0.000000e+00  6.343933e-01
   outer loop
     vertex -8.930273e-01 -1.587302e-02 -1.170132e-01
     vertex -9.055733e-01 -1.587302e-02 -1.017259e-01
     vertex -9.055733e-01 -3.174609e-02 -1.017259e-01
   endloop
 endfacet
 facet normal  6.343933e-01  0.000000e+00  7.730105e-01
   outer loop
     vertex -8.777401e-01 -1.587302e-02 -1.295592e-01
     vertex -8.930273e-01 -3.174609e-02 -1.170132e-01
     vertex -8.777401e-01 -3.174609e-02 -1.295592e-01
   endloop
 endfacet
 facet normal  6.343933e-01  0.000000e+00  7.730105e-01
   outer loop
     vertex -8.777401e-01 -1.587302e-02 -1.295592e-01
     vertex -8.930273e-01 -1.587302e-02 -1.170132e-01
     vertex -8.930273e-01 -3.174609e-02 -1.170132e-01
   endloop
 endfacet
 facet normal  4.713967e-01  0.000000e+00  8.819213e-01
   outer loop
     vertex -8.602989e-01 -1.587302e-02 -1.388816e-01
     vertex -8.777401e-01 -3.174609e-02 -1.295592e-01
     vertex -8.602989e-01 -3.174609e-02 -1.388816e-01
   endloop
 endfacet
 facet normal  4.713967e-01  0.000000e+00  8.819213e-01
   outer loop
     vertex -8.602989e-01 -1.587302e-02 -1.388816e-01
     vertex -8.777401e-01 -1.587302e-02 -1.295592e-01
     vertex -8.777401e-01 -3.174609e-02 -1.295592e-01
   endloop
 endfacet
 facet normal  2.902847e-01  0.000000e+00  9.569403e-01
   outer loop
     vertex -8.413742e-01 -1.587302e-02 -1.446224e-01
     vertex -8.602989e-01 -3.174609e-02 -1.388816e-01
     vertex -8.413742e-01 -3.174609e-02 -1.446224e-01
   endloop
 endfacet
 facet normal  2.902847e-01  0.000000e+00  9.569403e-01
   outer loop
     vertex -8.413742e-01 -1.587302e-02 -1.446224e-01
     vertex -8.602989e-01 -1.587302e-02 -1.388816e-01
     vertex -8.602989e-01 -3.174609e-02 -1.388816e-01
   endloop
 endfacet
 facet normal  9.801714e-02  0.000000e+00  9.951847e-01
   outer loop
     vertex -8.216931e-01 -1.587302e-02 -1.465608e-01
     vertex -8.413742e-01 -3.174609e-02 -1.446224e-01
     vertex -8.216931e-01 -3.174609e-02 -1.465608e-01
   endloop
 endfacet
 facet normal  9.801714e-02  0.000000e+00  9.951847e-01
   outer loop
     vertex -8.216931e-01 -1.587302e-02 -1.465608e-01
     vertex -8.413742e-01 -1.587302e-02 -1.446224e-01
     vertex -8.413742e-01 -3.174609e-02 -1.446224e-01
   endloop
 endfacet
 facet normal -9.801714e-02  0.000000e+00  9.951847e-01
   outer loop
     vertex -8.020120e-01 -1.587302e-02 -1.446224e-01
     vertex -8.216931e-01 -3.174609e-02 -1.465608e-01
     vertex -8.020120e-01 -3.174609e-02 -1.446224e-01
   endloop
 endfacet
 facet normal -9.801714e-02  0.000000e+00  9.951847e-01
   outer loop
     vertex -8.020120e-01 -1.587302e-02 -1.446224e-01
     vertex -8.216931e-01 -1.587302e-02 -1.465608e-01
     vertex -8.216931e-01 -3.174609e-02 -1.465608e-01
   endloop
 endfacet
 facet normal -2.902847e-01  0.000000e+00  9.569403e-01
   outer loop
     vertex -7.830873e-01 -1.587302e-02 -1.388816e-01
     vertex -8.020120e-01 -3.174609e-02 -1.446224e-01
     vertex -7.830873e-01 -3.174609e-02 -1.388816e-01
   endloop
 endfacet
 facet normal -2.902847e-01  0.000000e+00  9.569403e-01
   outer loop
     vertex -7.830873e-01 -1.587302e-02 -1.388816e-01
     vertex -8.020120e-01 -1.587302e-02 -1.446224e-01
     vertex -8.020120e-01 -3.174609e-02 -1.446224e-01
   endloop
 endfacet
 facet normal -4.713967e-01  0.000000e+00  8.819213e-01
   outer loop
     vertex -7.656462e-01 -1.587302e-02 -1.295592e-01
     vertex -7.830873e-01 -3.174609e-02 -1.388816e-01
     vertex -7.656462e-01 -3.174609e-02 -1.295592e-01
   endloop
 endfacet
 facet normal -4.713967e-01  0.000000e+00  8.819213e-01
   outer loop
     vertex -7.656462e-01 -1.587302e-02 -1.295592e-01
     vertex -7.830873e-01 -1.587302e-02 -1.388816e-01
     vertex -7.830873e-01 -3.174609e-02 -1.388816e-01
   endloop
 endfacet
 facet normal -6.343933e-01  0.000000e+00  7.730105e-01
   outer loop
     vertex -7.503589e-01 -1.587302e-02 -1.170132e-01
     vertex -7.656462e-01 -3.174609e-02 -1.295592e-01
     vertex -7.503589e-01 -3.174609e-02 -1.170132e-01
   endloop
 endfacet
 facet normal -6.343933e-01  0.000000e+00  7.730105e-01
   outer loop
     vertex -7.503589e-01 -1.587302e-02 -1.170132e-01
     vertex -7.656462e-01 -1.587302e-02 -1.295592e-01
     vertex -7.656462e-01 -3.174609e-02 -1.295592e-01
   endloop
 endfacet
 facet normal -7.730105e-01  0.000000e+00  6.343933e-01
   outer loop
     vertex -7.378129e-01 -1.587302e-02 -1.017259e-01
     vertex -7.503589e-01 -3.174609e-02 -1.170132e-01
     vertex -7.378129e-01 -3.174609e-02 -1.017259e-01
   endloop
 endfacet
 facet normal -7.730105e-01  0.000000e+00  6.343933e-01
   outer loop
     vertex -7.378129e-01 -1.587302e-02 -1.017259e-01
     vertex -7.503589e-01 -1.587302e-02 -1.170132e-01
     vertex -7.503589e-01 -3.174609e-02 -1.170132e-01
   endloop
 endfacet
 facet normal -8.819213e-01  0.000000e+00  4.713967e-01
   outer loop
     vertex -7.284904e-01 -1.587302e-02 -8.428479e-02
     vertex -7.378129e-01 -3.174609e-02 -1.017259e-01
     vertex -7.284904e-01 -3.174609e-02 -8.428479e-02
   endloop
 endfacet
 facet normal -8.819213e-01  0.000000e+00  4.713967e-01
   outer loop
     vertex -7.284904e-01 -1.587302e-02 -8.428479e-02
     vertex -7.378129e-01 -1.587302e-02 -1.017259e-01
     vertex -7.378129e-01 -3.174609e-02 -1.017259e-01
   endloop
 endfacet
 facet normal -9.569403e-01  0.000000e+00  2.902847e-01
   outer loop
     vertex -7.227497e-01 -1.587302e-02 -6.536005e-02
     vertex -7.284904e-01 -3.174609e-02 -8.428479e-02
     vertex -7.227497e-01 -3.174609e-02 -6.536005e-02
   endloop
 endfacet
 facet normal -9.951847e-01  0.000000e+00  9.801714e-02
   outer loop
     vertex -7.227497e-01 -1.587302e-02 -6.536005e-02
     vertex -7.227497e-01 -3.174609e-02 -6.536005e-02
     vertex -7.208113e-01 -3.174609e-02 -4.567898e-02
   endloop
 endfacet
 facet normal -9.569403e-01  0.000000e+00  2.902847e-01
   outer loop
     vertex -7.227497e-01 -1.587302e-02 -6.536005e-02
     vertex -7.284904e-01 -1.587302e-02 -8.428479e-02
     vertex -7.284904e-01 -3.174609e-02 -8.428479e-02
   endloop
 endfacet
 facet normal -9.951847e-01  0.000000e+00  9.801714e-02
   outer loop
     vertex -7.208113e-01 -1.587302e-02 -4.567898e-02
     vertex -7.227497e-01 -1.587302e-02 -6.536005e-02
     vertex -7.208113e-01 -3.174609e-02 -4.567898e-02
   endloop
 endfacet
 facet normal -9.932384e-01  0.000000e+00 -1.160929e-01
   outer loop
     vertex  7.982938e-01 -1.587302e-02 -2.957247e-02
     vertex  8.001764e-01 -1.587302e-02 -4.567898e-02
     vertex  8.001764e-01 -3.174609e-02 -4.567898e-02
   endloop
 endfacet
 facet normal -9.932384e-01 -0.000000e+00 -1.160929e-01
   outer loop
     vertex  7.982938e-01 -1.587302e-02 -2.957247e-02
     vertex  8.001764e-01 -3.174609e-02 -4.567898e-02
     vertex  7.982938e-01 -3.174609e-02 -2.957247e-02
   endloop
 endfacet
 facet normal -9.396926e-01 -0.000000e+00 -3.420201e-01
   outer loop
     vertex  7.927476e-01 -1.587302e-02 -1.433427e-02
     vertex  7.982938e-01 -3.174609e-02 -2.957247e-02
     vertex  7.927476e-01 -3.174609e-02 -1.433427e-02
   endloop
 endfacet
 facet normal -9.396926e-01  0.000000e+00 -3.420201e-01
   outer loop
     vertex  7.927476e-01 -1.587302e-02 -1.433427e-02
     vertex  7.982938e-01 -1.587302e-02 -2.957247e-02
     vertex  7.982938e-01 -3.174609e-02 -2.957247e-02
   endloop
 endfacet
 facet normal -8.354878e-01 -0.000000e+00 -5.495090e-01
   outer loop
     vertex  7.838367e-01 -1.587302e-02 -7.858703e-04
     vertex  7.927476e-01 -3.174609e-02 -1.433427e-02
     vertex  7.838367e-01 -3.174609e-02 -7.858703e-04
   endloop
 endfacet
 facet normal -8.354878e-01  0.000000e+00 -5.495090e-01
   outer loop
     vertex  7.838367e-01 -1.587302e-02 -7.858703e-04
     vertex  7.927476e-01 -1.587302e-02 -1.433427e-02
     vertex  7.927476e-01 -3.174609e-02 -1.433427e-02
   endloop
 endfacet
 facet normal -6.862416e-01 -0.000000e+00 -7.273736e-01
   outer loop
     vertex  7.720415e-01 -1.587302e-02  1.034233e-02
     vertex  7.838367e-01 -3.174609e-02 -7.858703e-04
     vertex  7.720415e-01 -3.174609e-02  1.034233e-02
   endloop
 endfacet
 facet normal -6.862416e-01  0.000000e+00 -7.273736e-01
   outer loop
     vertex  7.720415e-01 -1.587302e-02  1.034233e-02
     vertex  7.838367e-01 -1.587302e-02 -7.858703e-04
     vertex  7.838367e-01 -3.174609e-02 -7.858703e-04
   endloop
 endfacet
 facet normal -5.000000e-01 -0.000000e+00 -8.660254e-01
   outer loop
     vertex  7.579979e-01 -1.587302e-02  1.845041e-02
     vertex  7.720415e-01 -3.174609e-02  1.034233e-02
     vertex  7.579979e-01 -3.174609e-02  1.845041e-02
   endloop
 endfacet
 facet normal -5.000000e-01  0.000000e+00 -8.660254e-01
   outer loop
     vertex  7.579979e-01 -1.587302e-02  1.845041e-02
     vertex  7.720415e-01 -1.587302e-02  1.034233e-02
     vertex  7.720415e-01 -3.174609e-02  1.034233e-02
   endloop
 endfacet
 facet normal -2.868032e-01 -0.000000e+00 -9.579895e-01
   outer loop
     vertex  7.424630e-01 -1.587302e-02  2.310125e-02
     vertex  7.579979e-01 -3.174609e-02  1.845041e-02
     vertex  7.424630e-01 -3.174609e-02  2.310125e-02
   endloop
 endfacet
 facet normal -2.868032e-01  0.000000e+00 -9.579895e-01
   outer loop
     vertex  7.424630e-01 -1.587302e-02  2.310125e-02
     vertex  7.579979e-01 -1.587302e-02  1.845041e-02
     vertex  7.579979e-01 -3.174609e-02  1.845041e-02
   endloop
 endfacet
 facet normal -5.814483e-02 -0.000000e+00 -9.983082e-01
   outer loop
     vertex  7.262742e-01 -1.587302e-02  2.404414e-02
     vertex  7.424630e-01 -3.174609e-02  2.310125e-02
     vertex  7.262742e-01 -3.174609e-02  2.404414e-02
   endloop
 endfacet
 facet normal -5.814483e-02  0.000000e+00 -9.983082e-01
   outer loop
     vertex  7.262742e-01 -1.587302e-02  2.404414e-02
     vertex  7.424630e-01 -1.587302e-02  2.310125e-02
     vertex  7.424630e-01 -3.174609e-02  2.310125e-02
   endloop
 endfacet
 facet normal  1.736482e-01  0.000000e+00 -9.848078e-01
   outer loop
     vertex  7.103044e-01 -1.587302e-02  2.122823e-02
     vertex  7.262742e-01 -3.174609e-02  2.404414e-02
     vertex  7.103044e-01 -3.174609e-02  2.122823e-02
   endloop
 endfacet
 facet normal  1.736482e-01  0.000000e+00 -9.848078e-01
   outer loop
     vertex  7.103044e-01 -1.587302e-02  2.122823e-02
     vertex  7.262742e-01 -1.587302e-02  2.404414e-02
     vertex  7.262742e-01 -3.174609e-02  2.404414e-02
   endloop
 endfacet
 facet normal  3.960798e-01  0.000000e+00 -9.182161e-01
   outer loop
     vertex  6.954145e-01 -1.587302e-02  1.480534e-02
     vertex  7.103044e-01 -3.174609e-02  2.122823e-02
     vertex  6.954145e-01 -3.174609e-02  1.480534e-02
   endloop
 endfacet
 facet normal  3.960798e-01  0.000000e+00 -9.182161e-01
   outer loop
     vertex  6.954145e-01 -1.587302e-02  1.480534e-02
     vertex  7.103044e-01 -1.587302e-02  2.122823e-02
     vertex  7.103044e-01 -3.174609e-02  2.122823e-02
   endloop
 endfacet
 facet normal  5.971586e-01  0.000000e+00 -8.021232e-01
   outer loop
     vertex  6.824071e-01 -1.587302e-02  5.121726e-03
     vertex  6.954145e-01 -3.174609e-02  1.480534e-02
     vertex  6.824071e-01 -3.174609e-02  5.121726e-03
   endloop
 endfacet
 facet normal  5.971586e-01  0.000000e+00 -8.021232e-01
   outer loop
     vertex  6.824071e-01 -1.587302e-02  5.121726e-03
     vertex  6.954145e-01 -1.587302e-02  1.480534e-02
     vertex  6.954145e-01 -3.174609e-02  1.480534e-02
   endloop
 endfacet
 facet normal  7.660444e-01  0.000000e+00 -6.427876e-01
   outer loop
     vertex  6.719836e-01 -1.587302e-02 -7.300569e-03
     vertex  6.824071e-01 -1.587302e-02  5.121726e-03
     vertex  6.824071e-01 -3.174609e-02  5.121726e-03
   endloop
 endfacet
 facet normal  7.660444e-01  0.000000e+00 -6.427876e-01
   outer loop
     vertex  6.719836e-01 -1.587302e-02 -7.300569e-03
     vertex  6.824071e-01 -3.174609e-02  5.121726e-03
     vertex  6.719836e-01 -3.174609e-02 -7.300569e-03
   endloop
 endfacet
 facet normal  8.936326e-01  0.000000e+00 -4.487992e-01
   outer loop
     vertex  6.647058e-01 -1.587302e-02 -2.179186e-02
     vertex  6.719836e-01 -1.587302e-02 -7.300569e-03
     vertex  6.719836e-01 -3.174609e-02 -7.300569e-03
   endloop
 endfacet
 facet normal  8.936326e-01  0.000000e+00 -4.487992e-01
   outer loop
     vertex  6.647058e-01 -1.587302e-02 -2.179186e-02
     vertex  6.719836e-01 -3.174609e-02 -7.300569e-03
     vertex  6.647058e-01 -3.174609e-02 -2.179186e-02
   endloop
 endfacet
 facet normal  9.730449e-01  0.000000e+00 -2.306159e-01
   outer loop
     vertex  6.609661e-01 -1.587302e-02 -3.757090e-02
     vertex  6.647058e-01 -1.587302e-02 -2.179186e-02
     vertex  6.647058e-01 -3.174609e-02 -2.179186e-02
   endloop
 endfacet
 facet normal  9.730449e-01  0.000000e+00 -2.306159e-01
   outer loop
     vertex  6.609661e-01 -1.587302e-02 -3.757090e-02
     vertex  6.647058e-01 -3.174609e-02 -2.179186e-02
     vertex  6.609661e-01 -3.174609e-02 -3.757090e-02
   endloop
 endfacet
 facet normal  1.000000e+00  0.000000e+00  0.000000e+00
   outer loop
     vertex  6.609661e-01 -1.587302e-02 -5.378706e-02
     vertex  6.609661e-01 -3.174609e-02 -3.757090e-02
     vertex  6.609661e-01 -3.174609e-02 -5.378706e-02
   endloop
 endfacet
 facet normal  1.000000e+00  0.000000e+00 -0.000000e+00
   outer loop
     vertex  6.609661e-01 -1.587302e-02 -5.378706e-02
     vertex  6.609661e-01 -1.587302e-02 -3.757090e-02
     vertex  6.609661e-01 -3.174609e-02 -3.757090e-02
   endloop
 endfacet
 facet normal  9.730449e-01  0.000000e+00  2.306159e-01
   outer loop
     vertex  6.647058e-01 -1.587302e-02 -6.956610e-02
     vertex  6.609661e-01 -1.587302e-02 -5.378706e-02
     vertex  6.609661e-01 -3.174609e-02 -5.378706e-02
   endloop
 endfacet
 facet normal  9.730449e-01  0.000000e+00  2.306159e-01
   outer loop
     vertex  6.647058e-01 -1.587302e-02 -6.956610e-02
     vertex  6.609661e-01 -3.174609e-02 -5.378706e-02
     vertex  6.647058e-01 -3.174609e-02 -6.956610e-02
   endloop
 endfacet
 facet normal  8.936326e-01  0.000000e+00  4.487992e-01
   outer loop
     vertex  6.719836e-01 -1.587302e-02 -8.405739e-02
     vertex  6.647058e-01 -3.174609e-02 -6.956610e-02
     vertex  6.719836e-01 -3.174609e-02 -8.405739e-02
   endloop
 endfacet
 facet normal  8.936326e-01  0.000000e+00  4.487992e-01
   outer loop
     vertex  6.719836e-01 -1.587302e-02 -8.405739e-02
     vertex  6.647058e-01 -1.587302e-02 -6.956610e-02
     vertex  6.647058e-01 -3.174609e-02 -6.956610e-02
   endloop
 endfacet
 facet normal  7.660444e-01  0.000000e+00  6.427876e-01
   outer loop
     vertex  6.824071e-01 -1.587302e-02 -9.647969e-02
     vertex  6.719836e-01 -3.174609e-02 -8.405739e-02
     vertex  6.824071e-01 -3.174609e-02 -9.647969e-02
   endloop
 endfacet
 facet normal  7.660444e-01  0.000000e+00  6.427876e-01
   outer loop
     vertex  6.824071e-01 -1.587302e-02 -9.647969e-02
     vertex  6.719836e-01 -1.587302e-02 -8.405739e-02
     vertex  6.719836e-01 -3.174609e-02 -8.405739e-02
   endloop
 endfacet
 facet normal  5.971586e-01  0.000000e+00  8.021232e-01
   outer loop
     vertex  6.954145e-01 -1.587302e-02 -1.061633e-01
     vertex  6.824071e-01 -3.174609e-02 -9.647969e-02
     vertex  6.954145e-01 -3.174609e-02 -1.061633e-01
   endloop
 endfacet
 facet normal  5.971586e-01  0.000000e+00  8.021232e-01
   outer loop
     vertex  6.954145e-01 -1.587302e-02 -1.061633e-01
     vertex  6.824071e-01 -1.587302e-02 -9.647969e-02
     vertex  6.824071e-01 -3.174609e-02 -9.647969e-02
   endloop
 endfacet
 facet normal  3.960798e-01  0.000000e+00  9.182161e-01
   outer loop
     vertex  7.103044e-01 -1.587302e-02 -1.125862e-01
     vertex  6.954145e-01 -3.174609e-02 -1.061633e-01
     vertex  7.103044e-01 -3.174609e-02 -1.125862e-01
   endloop
 endfacet
 facet normal  3.960798e-01  0.000000e+00  9.182161e-01
   outer loop
     vertex  7.103044e-01 -1.587302e-02 -1.125862e-01
     vertex  6.954145e-01 -1.587302e-02 -1.061633e-01
     vertex  6.954145e-01 -3.174609e-02 -1.061633e-01
   endloop
 endfacet
 facet normal  1.736482e-01  0.000000e+00  9.848078e-01
   outer loop
     vertex  7.262742e-01 -1.587302e-02 -1.154021e-01
     vertex  7.103044e-01 -3.174609e-02 -1.125862e-01
     vertex  7.262742e-01 -3.174609e-02 -1.154021e-01
   endloop
 endfacet
 facet normal  1.736482e-01  0.000000e+00  9.848078e-01
   outer loop
     vertex  7.262742e-01 -1.587302e-02 -1.154021e-01
     vertex  7.103044e-01 -1.587302e-02 -1.125862e-01
     vertex  7.103044e-01 -3.174609e-02 -1.125862e-01
   endloop
 endfacet
 facet normal -5.814483e-02  0.000000e+00  9.983082e-01
   outer loop
     vertex  7.424630e-01 -1.587302e-02 -1.144592e-01
     vertex  7.262742e-01 -3.174609e-02 -1.154021e-01
     vertex  7.424630e-01 -3.174609e-02 -1.144592e-01
   endloop
 endfacet
 facet normal -5.814483e-02  0.000000e+00  9.983082e-01
   outer loop
     vertex  7.424630e-01 -1.587302e-02 -1.144592e-01
     vertex  7.262742e-01 -1.587302e-02 -1.154021e-01
     vertex  7.262742e-01 -3.174609e-02 -1.154021e-01
   endloop
 endfacet
 facet normal -2.868032e-01  0.000000e+00  9.579895e-01
   outer loop
     vertex  7.579979e-01 -1.587302e-02 -1.098084e-01
     vertex  7.424630e-01 -3.174609e-02 -1.144592e-01
     vertex  7.579979e-01 -3.174609e-02 -1.098084e-01
   endloop
 endfacet
 facet normal -2.868032e-01  0.000000e+00  9.579895e-01
   outer loop
     vertex  7.579979e-01 -1.587302e-02 -1.098084e-01
     vertex  7.424630e-01 -1.587302e-02 -1.144592e-01
     vertex  7.424630e-01 -3.174609e-02 -1.144592e-01
   endloop
 endfacet
 facet normal -5.000000e-01  0.000000e+00  8.660254e-01
   outer loop
     vertex  7.720415e-01 -1.587302e-02 -1.017003e-01
     vertex  7.579979e-01 -3.174609e-02 -1.098084e-01
     vertex  7.720415e-01 -3.174609e-02 -1.017003e-01
   endloop
 endfacet
 facet normal -5.000000e-01  0.000000e+00  8.660254e-01
   outer loop
     vertex  7.720415e-01 -1.587302e-02 -1.017003e-01
     vertex  7.579979e-01 -1.587302e-02 -1.098084e-01
     vertex  7.579979e-01 -3.174609e-02 -1.098084e-01
   endloop
 endfacet
 facet normal -6.862416e-01  0.000000e+00  7.273736e-01
   outer loop
     vertex  7.838367e-01 -1.587302e-02 -9.057209e-02
     vertex  7.720415e-01 -3.174609e-02 -1.017003e-01
     vertex  7.838367e-01 -3.174609e-02 -9.057209e-02
   endloop
 endfacet
 facet normal -6.862416e-01  0.000000e+00  7.273736e-01
   outer loop
     vertex  7.838367e-01 -1.587302e-02 -9.057209e-02
     vertex  7.720415e-01 -1.587302e-02 -1.017003e-01
     vertex  7.720415e-01 -3.174609e-02 -1.017003e-01
   endloop
 endfacet
 facet normal -8.354878e-01  0.000000e+00  5.495090e-01
   outer loop
     vertex  7.927476e-01 -1.587302e-02 -7.702369e-02
     vertex  7.838367e-01 -3.174609e-02 -9.057209e-02
     vertex  7.927476e-01 -3.174609e-02 -7.702369e-02
   endloop
 endfacet
 facet normal -8.354878e-01  0.000000e+00  5.495090e-01
   outer loop
     vertex  7.927476e-01 -1.587302e-02 -7.702369e-02
     vertex  7.838367e-01 -1.587302e-02 -9.057209e-02
     vertex  7.838367e-01 -3.174609e-02 -9.057209e-02
   endloop
 endfacet
 facet normal -9.396926e-01  0.000000e+00  3.420201e-01
   outer loop
     vertex  7.982938e-01 -1.587302e-02 -6.178549e-02
     vertex  7.927476e-01 -3.174609e-02 -7.702369e-02
     vertex  7.982938e-01 -3.174609e-02 -6.178549e-02
   endloop
 endfacet
 facet normal -9.396926e-01  0.000000e+00  3.420201e-01
   outer loop
     vertex  7.982938e-01 -1.587302e-02 -6.178549e-02
     vertex  7.927476e-01 -1.587302e-02 -7.702369e-02
     vertex  7.927476e-01 -3.174609e-02 -7.702369e-02
   endloop
 endfacet
 facet normal -9.932384e-01  0.000000e+00  1.160929e-01
   outer loop
     vertex  8.001764e-01 -1.587302e-02 -4.567898e-02
     vertex  7.982938e-01 -3.174609e-02 -6.178549e-02
     vertex  8.001764e-01 -3.174609e-02 -4.567898e-02
   endloop
 endfacet
 facet normal -9.932384e-01  0.000000e+00  1.160929e-01
   outer loop
     vertex  8.001764e-01 -1.587302e-02 -4.567898e-02
     vertex  7.982938e-01 -1.587302e-02 -6.178549e-02
     vertex  7.982938e-01 -3.174609e-02 -6.178549e-02
   endloop
 endfacet
 facet normal  0.000000e+00  0.000000e+00  1.000000e+00
   outer loop
     vertex -1.007936e+00 -1.587302e-02  7.848333e-02
     vertex  9.165785e-01 -1.587302e-02  7.848333e-02
     vertex  9.165785e-01  3.174603e-02  7.848333e-02
   endloop
 endfacet
 facet normal  0.000000e+00  0.000000e+00  1.000000e+00
   outer loop
     vertex -1.007936e+00 -1.587302e-02  7.848333e-02
     vertex  9.165785e-01  3.174603e-02  7.848333e-02
     vertex -1.007936e+00  3.174603e-02  7.848333e-02
   endloop
 endfacet
 facet normal -9.951847e-01  0.000000e+00 -9.801714e-02
   outer loop
     vertex -7.227497e-01 -1.587302e-02 -2.599791e-02
     vertex -7.208113e-01  3.174603e-02 -4.567898e-02
     vertex -7.208113e-01 -1.587302e-02 -4.567898e-02
   endloop
 endfacet
 facet normal -9.951847e-01  0.000000e+00 -9.801714e-02
   outer loop
     vertex -7.227497e-01 -1.587302e-02 -2.599791e-02
     vertex -7.227497e-01  3.174603e-02 -2.599791e-02
     vertex -7.208113e-01  3.174603e-02 -4.567898e-02
   endloop
 endfacet
 facet normal -9.569403e-01  0.000000e+00 -2.902847e-01
   outer loop
     vertex -7.284904e-01 -1.587302e-02 -7.073170e-03
     vertex -7.284904e-01  3.174603e-02 -7.073170e-03
     vertex -7.227497e-01  3.174603e-02 -2.599791e-02
   endloop
 endfacet
 facet normal -9.569403e-01  0.000000e+00 -2.902847e-01
   outer loop
     vertex -7.284904e-01 -1.587302e-02 -7.073170e-03
     vertex -7.227497e-01  3.174603e-02 -2.599791e-02
     vertex -7.227497e-01 -1.587302e-02 -2.599791e-02
   endloop
 endfacet
 facet normal -8.819213e-01  0.000000e+00 -4.713967e-01
   outer loop
     vertex -7.378129e-01 -1.587302e-02  1.036797e-02
     vertex -7.378129e-01  3.174603e-02  1.036797e-02
     vertex -7.284904e-01  3.174603e-02 -7.073170e-03
   endloop
 endfacet
 facet normal -8.819213e-01  0.000000e+00 -4.713967e-01
   outer loop
     vertex -7.378129e-01 -1.587302e-02  1.036797e-02
     vertex -7.284904e-01  3.174603e-02 -7.073170e-03
     vertex -7.284904e-01 -1.587302e-02 -7.073170e-03
   endloop
 endfacet
 facet normal -7.730105e-01  0.000000e+00 -6.343933e-01
   outer loop
     vertex -7.503589e-01 -1.587302e-02  2.565526e-02
     vertex -7.503589e-01  3.174603e-02  2.565526e-02
     vertex -7.378129e-01  3.174603e-02  1.036797e-02
   endloop
 endfacet
 facet normal -7.730105e-01  0.000000e+00 -6.343933e-01
   outer loop
     vertex -7.503589e-01 -1.587302e-02  2.565526e-02
     vertex -7.378129e-01  3.174603e-02  1.036797e-02
     vertex -7.378129e-01 -1.587302e-02  1.036797e-02
   endloop
 endfacet
 facet normal -6.343933e-01  0.000000e+00 -7.730105e-01
   outer loop
     vertex -7.656462e-01 -1.587302e-02  3.820121e-02
     vertex -7.656462e-01  3.174603e-02  3.820121e-02
     vertex -7.503589e-01  3.174603e-02  2.565526e-02
   endloop
 endfacet
 facet normal -6.343933e-01  0.000000e+00 -7.730105e-01
   outer loop
     vertex -7.656462e-01 -1.587302e-02  3.820121e-02
     vertex -7.503589e-01  3.174603e-02  2.565526e-02
     vertex -7.503589e-01 -1.587302e-02  2.565526e-02
   endloop
 endfacet
 facet normal -4.713967e-01  0.000000e+00 -8.819213e-01
   outer loop
     vertex -7.830873e-01 -1.587302e-02  4.752369e-02
     vertex -7.830873e-01  3.174603e-02  4.752369e-02
     vertex -7.656462e-01  3.174603e-02  3.820121e-02
   endloop
 endfacet
 facet normal -4.713967e-01  0.000000e+00 -8.819213e-01
   outer loop
     vertex -7.830873e-01 -1.587302e-02  4.752369e-02
     vertex -7.656462e-01  3.174603e-02  3.820121e-02
     vertex -7.656462e-01 -1.587302e-02  3.820121e-02
   endloop
 endfacet
 facet normal -2.902847e-01  0.000000e+00 -9.569403e-01
   outer loop
     vertex -8.020120e-01 -1.587302e-02  5.326445e-02
     vertex -8.020120e-01  3.174603e-02  5.326445e-02
     vertex -7.830873e-01  3.174603e-02  4.752369e-02
   endloop
 endfacet
 facet normal -2.902847e-01  0.000000e+00 -9.569403e-01
   outer loop
     vertex -8.020120e-01 -1.587302e-02  5.326445e-02
     vertex -7.830873e-01  3.174603e-02  4.752369e-02
     vertex -7.830873e-01 -1.587302e-02  4.752369e-02
   endloop
 endfacet
 facet normal -9.801714e-02  0.000000e+00 -9.951847e-01
   outer loop
     vertex -8.216931e-01 -1.587302e-02  5.520286e-02
     vertex -8.020120e-01  3.174603e-02  5.326445e-02
     vertex -8.020120e-01 -1.587302e-02  5.326445e-02
   endloop
 endfacet
 facet normal -9.801714e-02  0.000000e+00 -9.951847e-01
   outer loop
     vertex -8.216931e-01 -1.587302e-02  5.520286e-02
     vertex -8.216931e-01  3.174603e-02  5.520286e-02
     vertex -8.020120e-01  3.174603e-02  5.326445e-02
   endloop
 endfacet
 facet normal  9.801714e-02  0.000000e+00 -9.951847e-01
   outer loop
     vertex -8.413742e-01 -1.587302e-02  5.326445e-02
     vertex -8.216931e-01  3.174603e-02  5.520286e-02
     vertex -8.216931e-01 -1.587302e-02  5.520286e-02
   endloop
 endfacet
 facet normal  9.801714e-02  0.000000e+00 -9.951847e-01
   outer loop
     vertex -8.413742e-01 -1.587302e-02  5.326445e-02
     vertex -8.413742e-01  3.174603e-02  5.326445e-02
     vertex -8.216931e-01  3.174603e-02  5.520286e-02
   endloop
 endfacet
 facet normal  2.902847e-01  0.000000e+00 -9.569403e-01
   outer loop
     vertex -8.602989e-01 -1.587302e-02  4.752369e-02
     vertex -8.602989e-01  3.174603e-02  4.752369e-02
     vertex -8.413742e-01  3.174603e-02  5.326445e-02
   endloop
 endfacet
 facet normal  2.902847e-01  0.000000e+00 -9.569403e-01
   outer loop
     vertex -8.602989e-01 -1.587302e-02  4.752369e-02
     vertex -8.413742e-01  3.174603e-02  5.326445e-02
     vertex -8.413742e-01 -1.587302e-02  5.326445e-02
   endloop
 endfacet
 facet normal  4.713967e-01  0.000000e+00 -8.819213e-01
   outer loop
     vertex -8.777401e-01 -1.587302e-02  3.820121e-02
     vertex -8.777401e-01  3.174603e-02  3.820121e-02
     vertex -8.602989e-01  3.174603e-02  4.752369e-02
   endloop
 endfacet
 facet normal  4.713967e-01  0.000000e+00 -8.819213e-01
   outer loop
     vertex -8.777401e-01 -1.587302e-02  3.820121e-02
     vertex -8.602989e-01  3.174603e-02  4.752369e-02
     vertex -8.602989e-01 -1.587302e-02  4.752369e-02
   endloop
 endfacet
 facet normal  6.343933e-01  0.000000e+00 -7.730105e-01
   outer loop
     vertex -8.930273e-01 -1.587302e-02  2.565526e-02
     vertex -8.930273e-01  3.174603e-02  2.565526e-02
     vertex -8.777401e-01  3.174603e-02  3.820121e-02
   endloop
 endfacet
 facet normal  6.343933e-01  0.000000e+00 -7.730105e-01
   outer loop
     vertex -8.930273e-01 -1.587302e-02  2.565526e-02
     vertex -8.777401e-01  3.174603e-02  3.820121e-02
     vertex -8.777401e-01 -1.587302e-02  3.820121e-02
   endloop
 endfacet
 facet normal  7.730105e-01  0.000000e+00 -6.343933e-01
   outer loop
     vertex -9.055733e-01 -1.587302e-02  1.036797e-02
     vertex -9.055733e-01  3.174603e-02  1.036797e-02
     vertex -8.930273e-01  3.174603e-02  2.565526e-02
   endloop
 endfacet
 facet normal  7.730105e-01  0.000000e+00 -6.343933e-01
   outer loop
     vertex -9.055733e-01 -1.587302e-02  1.036797e-02
     vertex -8.930273e-01  3.174603e-02  2.565526e-02
     vertex -8.930273e-01 -1.587302e-02  2.565526e-02
   endloop
 endfacet
 facet normal  8.819213e-01  0.000000e+00 -4.713967e-01
   outer loop
     vertex -9.148958e-01 -1.587302e-02 -7.073170e-03
     vertex -9.148958e-01  3.174603e-02 -7.073170e-03
     vertex -9.055733e-01  3.174603e-02  1.036797e-02
   endloop
 endfacet
 facet normal  8.819213e-01  0.000000e+00 -4.713967e-01
   outer loop
     vertex -9.148958e-01 -1.587302e-02 -7.073170e-03
     vertex -9.055733e-01  3.174603e-02  1.036797e-02
     vertex -9.055733e-01 -1.587302e-02  1.036797e-02
   endloop
 endfacet
 facet normal  9.569403e-01  0.000000e+00 -2.902847e-01
   outer loop
     vertex -9.206365e-01 -1.587302e-02 -2.599791e-02
     vertex -9.206365e-01  3.174603e-02 -2.599791e-02
     vertex -9.148958e-01  3.174603e-02 -7.073170e-03
   endloop
 endfacet
 facet normal  9.569403e-01  0.000000e+00 -2.902847e-01
   outer loop
     vertex -9.206365e-01 -1.587302e-02 -2.599791e-02
     vertex -9.148958e-01  3.174603e-02 -7.073170e-03
     vertex -9.148958e-01 -1.587302e-02 -7.073170e-03
   endloop
 endfacet
 facet normal  9.951847e-01  0.000000e+00 -9.801714e-02
   outer loop
     vertex -9.225749e-01 -1.587302e-02 -4.567898e-02
     vertex -9.225749e-01  3.174603e-02 -4.567898e-02
     vertex -9.206365e-01  3.174603e-02 -2.599791e-02
   endloop
 endfacet
 facet normal  9.951847e-01  0.000000e+00 -9.801714e-02
   outer loop
     vertex -9.225749e-01 -1.587302e-02 -4.567898e-02
     vertex -9.206365e-01  3.174603e-02 -2.599791e-02
     vertex -9.206365e-01 -1.587302e-02 -2.599791e-02
   endloop
 endfacet
 facet normal  9.951847e-01 -0.000000e+00  9.801714e-02
   outer loop
     vertex -9.206365e-01 -1.587302e-02 -6.536005e-02
     vertex -9.206365e-01  3.174603e-02 -6.536005e-02
     vertex -9.225749e-01  3.174603e-02 -4.567898e-02
   endloop
 endfacet
 facet normal  9.951847e-01  0.000000e+00  9.801714e-02
   outer loop
     vertex -9.206365e-01 -1.587302e-02 -6.536005e-02
     vertex -9.225749e-01  3.174603e-02 -4.567898e-02
     vertex -9.225749e-01 -1.587302e-02 -4.567898e-02
   endloop
 endfacet
 facet normal  9.569403e-01 -0.000000e+00  2.902847e-01
   outer loop
     vertex -9.148958e-01 -1.587302e-02 -8.428479e-02
     vertex -9.148958e-01  3.174603e-02 -8.428479e-02
     vertex -9.206365e-01  3.174603e-02 -6.536005e-02
   endloop
 endfacet
 facet normal  8.819213e-01 -0.000000e+00  4.713967e-01
   outer loop
     vertex -9.148958e-01 -1.587302e-02 -8.428479e-02
     vertex -9.055733e-01  3.174603e-02 -1.017259e-01
     vertex -9.148958e-01  3.174603e-02 -8.428479e-02
   endloop
 endfacet
 facet normal  9.569403e-01  0.000000e+00  2.902847e-01
   outer loop
     vertex -9.148958e-01 -1.587302e-02 -8.428479e-02
     vertex -9.206365e-01  3.174603e-02 -6.536005e-02
     vertex -9.206365e-01 -1.587302e-02 -6.536005e-02
   endloop
 endfacet
 facet normal  8.819213e-01 -0.000000e+00  4.713967e-01
   outer loop
     vertex -9.055733e-01 -1.587302e-02 -1.017259e-01
     vertex -9.055733e-01  3.174603e-02 -1.017259e-01
     vertex -9.148958e-01 -1.587302e-02 -8.428479e-02
   endloop
 endfacet
 facet normal  7.730105e-01 -0.000000e+00  6.343933e-01
   outer loop
     vertex -8.930273e-01 -1.587302e-02 -1.170132e-01
     vertex -8.930273e-01  3.174603e-02 -1.170132e-01
     vertex -9.055733e-01  3.174603e-02 -1.017259e-01
   endloop
 endfacet
 facet normal  7.730105e-01  0.000000e+00  6.343933e-01
   outer loop
     vertex -8.930273e-01 -1.587302e-02 -1.170132e-01
     vertex -9.055733e-01  3.174603e-02 -1.017259e-01
     vertex -9.055733e-01 -1.587302e-02 -1.017259e-01
   endloop
 endfacet
 facet normal  6.343933e-01 -0.000000e+00  7.730105e-01
   outer loop
     vertex -8.777401e-01 -1.587302e-02 -1.295592e-01
     vertex -8.777401e-01  3.174603e-02 -1.295592e-01
     vertex -8.930273e-01  3.174603e-02 -1.170132e-01
   endloop
 endfacet
 facet normal  6.343933e-01  0.000000e+00  7.730105e-01
   outer loop
     vertex -8.777401e-01 -1.587302e-02 -1.295592e-01
     vertex -8.930273e-01  3.174603e-02 -1.170132e-01
     vertex -8.930273e-01 -1.587302e-02 -1.170132e-01
   endloop
 endfacet
 facet normal  4.713967e-01 -0.000000e+00  8.819213e-01
   outer loop
     vertex -8.602989e-01 -1.587302e-02 -1.388816e-01
     vertex -8.602989e-01  3.174603e-02 -1.388816e-01
     vertex -8.777401e-01  3.174603e-02 -1.295592e-01
   endloop
 endfacet
 facet normal  4.713967e-01  0.000000e+00  8.819213e-01
   outer loop
     vertex -8.602989e-01 -1.587302e-02 -1.388816e-01
     vertex -8.777401e-01  3.174603e-02 -1.295592e-01
     vertex -8.777401e-01 -1.587302e-02 -1.295592e-01
   endloop
 endfacet
 facet normal  2.902847e-01 -0.000000e+00  9.569403e-01
   outer loop
     vertex -8.413742e-01 -1.587302e-02 -1.446224e-01
     vertex -8.413742e-01  3.174603e-02 -1.446224e-01
     vertex -8.602989e-01  3.174603e-02 -1.388816e-01
   endloop
 endfacet
 facet normal  2.902847e-01  0.000000e+00  9.569403e-01
   outer loop
     vertex -8.413742e-01 -1.587302e-02 -1.446224e-01
     vertex -8.602989e-01  3.174603e-02 -1.388816e-01
     vertex -8.602989e-01 -1.587302e-02 -1.388816e-01
   endloop
 endfacet
 facet normal  9.801714e-02 -0.000000e+00  9.951847e-01
   outer loop
     vertex -8.216931e-01 -1.587302e-02 -1.465608e-01
     vertex -8.216931e-01  3.174603e-02 -1.465608e-01
     vertex -8.413742e-01  3.174603e-02 -1.446224e-01
   endloop
 endfacet
 facet normal  9.801714e-02  0.000000e+00  9.951847e-01
   outer loop
     vertex -8.216931e-01 -1.587302e-02 -1.465608e-01
     vertex -8.413742e-01  3.174603e-02 -1.446224e-01
     vertex -8.413742e-01 -1.587302e-02 -1.446224e-01
   endloop
 endfacet
 facet normal -9.801714e-02  0.000000e+00  9.951847e-01
   outer loop
     vertex -8.020120e-01 -1.587302e-02 -1.446224e-01
     vertex -8.020120e-01  3.174603e-02 -1.446224e-01
     vertex -8.216931e-01  3.174603e-02 -1.465608e-01
   endloop
 endfacet
 facet normal -9.801714e-02  0.000000e+00  9.951847e-01
   outer loop
     vertex -8.020120e-01 -1.587302e-02 -1.446224e-01
     vertex -8.216931e-01  3.174603e-02 -1.465608e-01
     vertex -8.216931e-01 -1.587302e-02 -1.465608e-01
   endloop
 endfacet
 facet normal -2.902847e-01  0.000000e+00  9.569403e-01
   outer loop
     vertex -7.830873e-01 -1.587302e-02 -1.388816e-01
     vertex -7.830873e-01  3.174603e-02 -1.388816e-01
     vertex -8.020120e-01  3.174603e-02 -1.446224e-01
   endloop
 endfacet
 facet normal -2.902847e-01  0.000000e+00  9.569403e-01
   outer loop
     vertex -7.830873e-01 -1.587302e-02 -1.388816e-01
     vertex -8.020120e-01  3.174603e-02 -1.446224e-01
     vertex -8.020120e-01 -1.587302e-02 -1.446224e-01
   endloop
 endfacet
 facet normal -4.713967e-01  0.000000e+00  8.819213e-01
   outer loop
     vertex -7.656462e-01 -1.587302e-02 -1.295592e-01
     vertex -7.656462e-01  3.174603e-02 -1.295592e-01
     vertex -7.830873e-01  3.174603e-02 -1.388816e-01
   endloop
 endfacet
 facet normal -4.713967e-01  0.000000e+00  8.819213e-01
   outer loop
     vertex -7.656462e-01 -1.587302e-02 -1.295592e-01
     vertex -7.830873e-01  3.174603e-02 -1.388816e-01
     vertex -7.830873e-01 -1.587302e-02 -1.388816e-01
   endloop
 endfacet
 facet normal -6.343933e-01  0.000000e+00  7.730105e-01
   outer loop
     vertex -7.503589e-01 -1.587302e-02 -1.170132e-01
     vertex -7.503589e-01  3.174603e-02 -1.170132e-01
     vertex -7.656462e-01  3.174603e-02 -1.295592e-01
   endloop
 endfacet
 facet normal -6.343933e-01  0.000000e+00  7.730105e-01
   outer loop
     vertex -7.503589e-01 -1.587302e-02 -1.170132e-01
     vertex -7.656462e-01  3.174603e-02 -1.295592e-01
     vertex -7.656462e-01 -1.587302e-02 -1.295592e-01
   endloop
 endfacet
 facet normal -7.730105e-01  0.000000e+00  6.343933e-01
   outer loop
     vertex -7.378129e-01 -1.587302e-02 -1.017259e-01
     vertex -7.378129e-01  3.174603e-02 -1.017259e-01
     vertex -7.503589e-01  3.174603e-02 -1.170132e-01
   endloop
 endfacet
 facet normal -7.730105e-01  0.000000e+00  6.343933e-01
   outer loop
     vertex -7.378129e-01 -1.587302e-02 -1.017259e-01
     vertex -7.503589e-01  3.174603e-02 -1.170132e-01
     vertex -7.503589e-01 -1.587302e-02 -1.170132e-01
   endloop
 endfacet
 facet normal -8.819213e-01  0.000000e+00  4.713967e-01
   outer loop
     vertex -7.284904e-01 -1.587302e-02 -8.428479e-02
     vertex -7.284904e-01  3.174603e-02 -8.428479e-02
     vertex -7.378129e-01  3.174603e-02 -1.017259e-01
   endloop
 endfacet
 facet normal -9.569403e-01  0.000000e+00  2.902847e-01
   outer loop
     vertex -7.284904e-01 -1.587302e-02 -8.428479e-02
     vertex -7.227497e-01  3.174603e-02 -6.536005e-02
     vertex -7.284904e-01  3.174603e-02 -8.428479e-02
   endloop
 endfacet
 facet normal -8.819213e-01  0.000000e+00  4.713967e-01
   outer loop
     vertex -7.284904e-01 -1.587302e-02 -8.428479e-02
     vertex -7.378129e-01  3.174603e-02 -1.017259e-01
     vertex -7.378129e-01 -1.587302e-02 -1.017259e-01
   endloop
 endfacet
 facet normal -9.569403e-01  0.000000e+00  2.902847e-01
   outer loop
     vertex -7.227497e-01 -1.587302e-02 -6.536005e-02
     vertex -7.227497e-01  3.174603e-02 -6.536005e-02
     vertex -7.284904e-01 -1.587302e-02 -8.428479e-02
   endloop
 endfacet
 facet normal -9.951847e-01  0.000000e+00  9.801714e-02
   outer loop
     vertex -7.208113e-01 -1.587302e-02 -4.567898e-02
     vertex -7.208113e-01  3.174603e-02 -4.567898e-02
     vertex -7.227497e-01  3.174603e-02 -6.536005e-02
   endloop
 endfacet
 facet normal -9.951847e-01  0.000000e+00  9.801714e-02
   outer loop
     vertex -7.208113e-01 -1.587302e-02 -4.567898e-02
     vertex -7.227497e-01  3.174603e-02 -6.536005e-02
     vertex -7.227497e-01 -1.587302e-02 -6.536005e-02
   endloop
 endfacet
 facet normal -9.932384e-01  0.000000e+00 -1.160929e-01
   outer loop
     vertex  7.982938e-01 -1.587302e-02 -2.957247e-02
     vertex  8.001764e-01  3.174603e-02 -4.567898e-02
     vertex  8.001764e-01 -1.587302e-02 -4.567898e-02
   endloop
 endfacet
 facet normal -9.932384e-01  0.000000e+00 -1.160929e-01
   outer loop
     vertex  7.982938e-01 -1.587302e-02 -2.957247e-02
     vertex  7.982938e-01  3.174603e-02 -2.957247e-02
     vertex  8.001764e-01  3.174603e-02 -4.567898e-02
   endloop
 endfacet
 facet normal -9.396926e-01  0.000000e+00 -3.420201e-01
   outer loop
     vertex  7.927476e-01 -1.587302e-02 -1.433427e-02
     vertex  7.927476e-01  3.174603e-02 -1.433427e-02
     vertex  7.982938e-01  3.174603e-02 -2.957247e-02
   endloop
 endfacet
 facet normal -9.396926e-01  0.000000e+00 -3.420201e-01
   outer loop
     vertex  7.927476e-01 -1.587302e-02 -1.433427e-02
     vertex  7.982938e-01  3.174603e-02 -2.957247e-02
     vertex  7.982938e-01 -1.587302e-02 -2.957247e-02
   endloop
 endfacet
 facet normal -8.354878e-01  0.000000e+00 -5.495090e-01
   outer loop
     vertex  7.838367e-01 -1.587302e-02 -7.858703e-04
     vertex  7.838367e-01  3.174603e-02 -7.858703e-04
     vertex  7.927476e-01  3.174603e-02 -1.433427e-02
   endloop
 endfacet
 facet normal -8.354878e-01  0.000000e+00 -5.495090e-01
   outer loop
     vertex  7.838367e-01 -1.587302e-02 -7.858703e-04
     vertex  7.927476e-01  3.174603e-02 -1.433427e-02
     vertex  7.927476e-01 -1.587302e-02 -1.433427e-02
   endloop
 endfacet
 facet normal -6.862416e-01  0.000000e+00 -7.273736e-01
   outer loop
     vertex  7.720415e-01 -1.587302e-02  1.034233e-02
     vertex  7.720415e-01  3.174603e-02  1.034233e-02
     vertex  7.838367e-01  3.174603e-02 -7.858703e-04
   endloop
 endfacet
 facet normal -6.862416e-01  0.000000e+00 -7.273736e-01
   outer loop
     vertex  7.720415e-01 -1.587302e-02  1.034233e-02
     vertex  7.838367e-01  3.174603e-02 -7.858703e-04
     vertex  7.838367e-01 -1.587302e-02 -7.858703e-04
   endloop
 endfacet
 facet normal -5.000000e-01  0.000000e+00 -8.660254e-01
   outer loop
     vertex  7.579979e-01 -1.587302e-02  1.845041e-02
     vertex  7.579979e-01  3.174603e-02  1.845041e-02
     vertex  7.720415e-01  3.174603e-02  1.034233e-02
   endloop
 endfacet
 facet normal -5.000000e-01  0.000000e+00 -8.660254e-01
   outer loop
     vertex  7.579979e-01 -1.587302e-02  1.845041e-02
     vertex  7.720415e-01  3.174603e-02  1.034233e-02
     vertex  7.720415e-01 -1.587302e-02  1.034233e-02
   endloop
 endfacet
 facet normal -2.868032e-01  0.000000e+00 -9.579895e-01
   outer loop
     vertex  7.424630e-01 -1.587302e-02  2.310125e-02
     vertex  7.424630e-01  3.174603e-02  2.310125e-02
     vertex  7.579979e-01  3.174603e-02  1.845041e-02
   endloop
 endfacet
 facet normal -2.868032e-01  0.000000e+00 -9.579895e-01
   outer loop
     vertex  7.424630e-01 -1.587302e-02  2.310125e-02
     vertex  7.579979e-01  3.174603e-02  1.845041e-02
     vertex  7.579979e-01 -1.587302e-02  1.845041e-02
   endloop
 endfacet
 facet normal -5.814483e-02  0.000000e+00 -9.983082e-01
   outer loop
     vertex  7.262742e-01 -1.587302e-02  2.404414e-02
     vertex  7.262742e-01  3.174603e-02  2.404414e-02
     vertex  7.424630e-01  3.174603e-02  2.310125e-02
   endloop
 endfacet
 facet normal -5.814483e-02  0.000000e+00 -9.983082e-01
   outer loop
     vertex  7.262742e-01 -1.587302e-02  2.404414e-02
     vertex  7.424630e-01  3.174603e-02  2.310125e-02
     vertex  7.424630e-01 -1.587302e-02  2.310125e-02
   endloop
 endfacet
 facet normal  1.736482e-01  0.000000e+00 -9.848078e-01
   outer loop
     vertex  7.103044e-01 -1.587302e-02  2.122823e-02
     vertex  7.103044e-01  3.174603e-02  2.122823e-02
     vertex  7.262742e-01  3.174603e-02  2.404414e-02
   endloop
 endfacet
 facet normal  1.736482e-01  0.000000e+00 -9.848078e-01
   outer loop
     vertex  7.103044e-01 -1.587302e-02  2.122823e-02
     vertex  7.262742e-01  3.174603e-02  2.404414e-02
     vertex  7.262742e-01 -1.587302e-02  2.404414e-02
   endloop
 endfacet
 facet normal  3.960798e-01  0.000000e+00 -9.182161e-01
   outer loop
     vertex  6.954145e-01 -1.587302e-02  1.480534e-02
     vertex  6.954145e-01  3.174603e-02  1.480534e-02
     vertex  7.103044e-01  3.174603e-02  2.122823e-02
   endloop
 endfacet
 facet normal  3.960798e-01  0.000000e+00 -9.182161e-01
   outer loop
     vertex  6.954145e-01 -1.587302e-02  1.480534e-02
     vertex  7.103044e-01  3.174603e-02  2.122823e-02
     vertex  7.103044e-01 -1.587302e-02  2.122823e-02
   endloop
 endfacet
 facet normal  5.971586e-01  0.000000e+00 -8.021232e-01
   outer loop
     vertex  6.824071e-01 -1.587302e-02  5.121726e-03
     vertex  6.824071e-01  3.174603e-02  5.121726e-03
     vertex  6.954145e-01  3.174603e-02  1.480534e-02
   endloop
 endfacet
 facet normal  5.971586e-01  0.000000e+00 -8.021232e-01
   outer loop
     vertex  6.824071e-01 -1.587302e-02  5.121726e-03
     vertex  6.954145e-01  3.174603e-02  1.480534e-02
     vertex  6.954145e-01 -1.587302e-02  1.480534e-02
   endloop
 endfacet
 facet normal  7.660444e-01  0.000000e+00 -6.427876e-01
   outer loop
     vertex  6.719836e-01 -1.587302e-02 -7.300569e-03
     vertex  6.824071e-01  3.174603e-02  5.121726e-03
     vertex  6.824071e-01 -1.587302e-02  5.121726e-03
   endloop
 endfacet
 facet normal  7.660444e-01  0.000000e+00 -6.427876e-01
   outer loop
     vertex  6.719836e-01 -1.587302e-02 -7.300569e-03
     vertex  6.719836e-01  3.174603e-02 -7.300569e-03
     vertex  6.824071e-01  3.174603e-02  5.121726e-03
   endloop
 endfacet
 facet normal  8.936326e-01  0.000000e+00 -4.487992e-01
   outer loop
     vertex  6.647058e-01 -1.587302e-02 -2.179186e-02
     vertex  6.719836e-01  3.174603e-02 -7.300569e-03
     vertex  6.719836e-01 -1.587302e-02 -7.300569e-03
   endloop
 endfacet
 facet normal  8.936326e-01  0.000000e+00 -4.487992e-01
   outer loop
     vertex  6.647058e-01 -1.587302e-02 -2.179186e-02
     vertex  6.647058e-01  3.174603e-02 -2.179186e-02
     vertex  6.719836e-01  3.174603e-02 -7.300569e-03
   endloop
 endfacet
 facet normal  9.730449e-01  0.000000e+00 -2.306159e-01
   outer loop
     vertex  6.609661e-01 -1.587302e-02 -3.757090e-02
     vertex  6.647058e-01  3.174603e-02 -2.179186e-02
     vertex  6.647058e-01 -1.587302e-02 -2.179186e-02
   endloop
 endfacet
 facet normal  9.730449e-01  0.000000e+00 -2.306159e-01
   outer loop
     vertex  6.609661e-01 -1.587302e-02 -3.757090e-02
     vertex  6.609661e-01  3.174603e-02 -3.757090e-02
     vertex  6.647058e-01  3.174603e-02 -2.179186e-02
   endloop
 endfacet
 facet normal  1.000000e+00  0.000000e+00  0.000000e+00
   outer loop
     vertex  6.609661e-01 -1.587302e-02 -5.378706e-02
     vertex  6.609661e-01  3.174603e-02 -5.378706e-02
     vertex  6.609661e-01  3.174603e-02 -3.757090e-02
   endloop
 endfacet
 facet normal  1.000000e+00  0.000000e+00  0.000000e+00
   outer loop
     vertex  6.609661e-01 -1.587302e-02 -5.378706e-02
     vertex  6.609661e-01  3.174603e-02 -3.757090e-02
     vertex  6.609661e-01 -1.587302e-02 -3.757090e-02
   endloop
 endfacet
 facet normal  9.730449e-01  0.000000e+00  2.306159e-01
   outer loop
     vertex  6.647058e-01 -1.587302e-02 -6.956610e-02
     vertex  6.609661e-01  3.174603e-02 -5.378706e-02
     vertex  6.609661e-01 -1.587302e-02 -5.378706e-02
   endloop
 endfacet
 facet normal  9.730449e-01 -0.000000e+00  2.306159e-01
   outer loop
     vertex  6.647058e-01 -1.587302e-02 -6.956610e-02
     vertex  6.647058e-01  3.174603e-02 -6.956610e-02
     vertex  6.609661e-01  3.174603e-02 -5.378706e-02
   endloop
 endfacet
 facet normal  8.936326e-01 -0.000000e+00  4.487992e-01
   outer loop
     vertex  6.719836e-01 -1.587302e-02 -8.405739e-02
     vertex  6.719836e-01  3.174603e-02 -8.405739e-02
     vertex  6.647058e-01  3.174603e-02 -6.956610e-02
   endloop
 endfacet
 facet normal  8.936326e-01  0.000000e+00  4.487992e-01
   outer loop
     vertex  6.719836e-01 -1.587302e-02 -8.405739e-02
     vertex  6.647058e-01  3.174603e-02 -6.956610e-02
     vertex  6.647058e-01 -1.587302e-02 -6.956610e-02
   endloop
 endfacet
 facet normal  7.660444e-01 -0.000000e+00  6.427876e-01
   outer loop
     vertex  6.824071e-01 -1.587302e-02 -9.647969e-02
     vertex  6.824071e-01  3.174603e-02 -9.647969e-02
     vertex  6.719836e-01  3.174603e-02 -8.405739e-02
   endloop
 endfacet
 facet normal  7.660444e-01  0.000000e+00  6.427876e-01
   outer loop
     vertex  6.824071e-01 -1.587302e-02 -9.647969e-02
     vertex  6.719836e-01  3.174603e-02 -8.405739e-02
     vertex  6.719836e-01 -1.587302e-02 -8.405739e-02
   endloop
 endfacet
 facet normal  5.971586e-01 -0.000000e+00  8.021232e-01
   outer loop
     vertex  6.954145e-01 -1.587302e-02 -1.061633e-01
     vertex  6.954145e-01  3.174603e-02 -1.061633e-01
     vertex  6.824071e-01  3.174603e-02 -9.647969e-02
   endloop
 endfacet
 facet normal  5.971586e-01  0.000000e+00  8.021232e-01
   outer loop
     vertex  6.954145e-01 -1.587302e-02 -1.061633e-01
     vertex  6.824071e-01  3.174603e-02 -9.647969e-02
     vertex  6.824071e-01 -1.587302e-02 -9.647969e-02
   endloop
 endfacet
 facet normal  3.960798e-01 -0.000000e+00  9.182161e-01
   outer loop
     vertex  7.103044e-01 -1.587302e-02 -1.125862e-01
     vertex  7.103044e-01  3.174603e-02 -1.125862e-01
     vertex  6.954145e-01  3.174603e-02 -1.061633e-01
   endloop
 endfacet
 facet normal  3.960798e-01  0.000000e+00  9.182161e-01
   outer loop
     vertex  7.103044e-01 -1.587302e-02 -1.125862e-01
     vertex  6.954145e-01  3.174603e-02 -1.061633e-01
     vertex  6.954145e-01 -1.587302e-02 -1.061633e-01
   endloop
 endfacet
 facet normal  1.736482e-01 -0.000000e+00  9.848078e-01
   outer loop
     vertex  7.262742e-01 -1.587302e-02 -1.154021e-01
     vertex  7.262742e-01  3.174603e-02 -1.154021e-01
     vertex  7.103044e-01  3.174603e-02 -1.125862e-01
   endloop
 endfacet
 facet normal  1.736482e-01  0.000000e+00  9.848078e-01
   outer loop
     vertex  7.262742e-01 -1.587302e-02 -1.154021e-01
     vertex  7.103044e-01  3.174603e-02 -1.125862e-01
     vertex  7.103044e-01 -1.587302e-02 -1.125862e-01
   endloop
 endfacet
 facet normal -5.814483e-02  0.000000e+00  9.983082e-01
   outer loop
     vertex  7.424630e-01 -1.587302e-02 -1.144592e-01
     vertex  7.424630e-01  3.174603e-02 -1.144592e-01
     vertex  7.262742e-01  3.174603e-02 -1.154021e-01
   endloop
 endfacet
 facet normal -5.814483e-02  0.000000e+00  9.983082e-01
   outer loop
     vertex  7.424630e-01 -1.587302e-02 -1.144592e-01
     vertex  7.262742e-01  3.174603e-02 -1.154021e-01
     vertex  7.262742e-01 -1.587302e-02 -1.154021e-01
   endloop
 endfacet
 facet normal -2.868032e-01  0.000000e+00  9.579895e-01
   outer loop
     vertex  7.579979e-01 -1.587302e-02 -1.098084e-01
     vertex  7.579979e-01  3.174603e-02 -1.098084e-01
     vertex  7.424630e-01  3.174603e-02 -1.144592e-01
   endloop
 endfacet
 facet normal -2.868032e-01  0.000000e+00  9.579895e-01
   outer loop
     vertex  7.579979e-01 -1.587302e-02 -1.098084e-01
     vertex  7.424630e-01  3.174603e-02 -1.144592e-01
     vertex  7.424630e-01 -1.587302e-02 -1.144592e-01
   endloop
 endfacet
 facet normal -5.000000e-01  0.000000e+00  8.660254e-01
   outer loop
     vertex  7.720415e-01 -1.587302e-02 -1.017003e-01
     vertex  7.720415e-01  3.174603e-02 -1.017003e-01
     vertex  7.579979e-01  3.174603e-02 -1.098084e-01
   endloop
 endfacet
 facet normal -5.000000e-01  0.000000e+00  8.660254e-01
   outer loop
     vertex  7.720415e-01 -1.587302e-02 -1.017003e-01
     vertex  7.579979e-01  3.174603e-02 -1.098084e-01
     vertex  7.579979e-01 -1.587302e-02 -1.098084e-01
   endloop
 endfacet
 facet normal -6.862416e-01  0.000000e+00  7.273736e-01
   outer loop
     vertex  7.838367e-01 -1.587302e-02 -9.057209e-02
     vertex  7.838367e-01  3.174603e-02 -9.057209e-02
     vertex  7.720415e-01  3.174603e-02 -1.017003e-01
   endloop
 endfacet
 facet normal -6.862416e-01  0.000000e+00  7.273736e-01
   outer loop
     vertex  7.838367e-01 -1.587302e-02 -9.057209e-02
     vertex  7.720415e-01  3.174603e-02 -1.017003e-01
     vertex  7.720415e-01 -1.587302e-02 -1.017003e-01
   endloop
 endfacet
 facet normal -8.354878e-01  0.000000e+00  5.495090e-01
   outer loop
     vertex  7.927476e-01 -1.587302e-02 -7.702369e-02
     vertex  7.927476e-01  3.174603e-02 -7.702369e-02
     vertex  7.838367e-01  3.174603e-02 -9.057209e-02
   endloop
 endfacet
 facet normal -8.354878e-01  0.000000e+00  5.495090e-01
   outer loop
     vertex  7.927476e-01 -1.587302e-02 -7.702369e-02
     vertex  7.838367e-01  3.174603e-02 -9.057209e-02
     vertex  7.838367e-01 -1.587302e-02 -9.057209e-02
   endloop
 endfacet
 facet normal -9.396926e-01  0.000000e+00  3.420201e-01
   outer loop
     vertex  7.982938e-01 -1.587302e-02 -6.178549e-02
     vertex  7.982938e-01  3.174603e-02 -6.178549e-02
     vertex  7.927476e-01  3.174603e-02 -7.702369e-02
   endloop
 endfacet
 facet normal -9.396926e-01  0.000000e+00  3.420201e-01
   outer loop
     vertex  7.982938e-01 -1.587302e-02 -6.178549e-02
     vertex  7.927476e-01  3.174603e-02 -7.702369e-02
     vertex  7.927476e-01 -1.587302e-02 -7.702369e-02
   endloop
 endfacet
 facet normal -9.932384e-01  0.000000e+00  1.160929e-01
   outer loop
     vertex  8.001764e-01 -1.587302e-02 -4.567898e-02
     vertex  8.001764e-01  3.174603e-02 -4.567898e-02
     vertex  7.982938e-01  3.174603e-02 -6.178549e-02
   endloop
 endfacet
 facet normal -9.932384e-01  0.000000e+00  1.160929e-01
   outer loop
     vertex  8.001764e-01 -1.587302e-02 -4.567898e-02
     vertex  7.982938e-01  3.174603e-02 -6.178549e-02
     vertex  7.982938e-01 -1.587302e-02 -6.178549e-02
   endloop
 endfacet
endsolid
