solid 
 facet normal  0.000000e+00 -1.000000e+00  0.000000e+00
   outer loop
     vertex  9.232804e-01 -2.663141e-02 -1.587302e-02
     vertex -3.051156e-02 -2.663141e-02  3.174609e-02
     vertex -3.051156e-02 -2.663141e-02 -1.587302e-02
   endloop
 endfacet
 facet normal  0.000000e+00 -1.000000e+00  0.000000e+00
   outer loop
     vertex  9.232804e-01 -2.663141e-02 -1.587302e-02
     vertex  9.232804e-01 -2.663141e-02  3.174609e-02
     vertex -3.051156e-02 -2.663141e-02  3.174609e-02
   endloop
 endfacet
 facet normal -1.000000e+00  0.000000e+00  0.000000e+00
   outer loop
     vertex -3.051156e-02 -2.663141e-02 -1.587302e-02
     vertex -3.051156e-02  6.336861e-01  3.174609e-02
     vertex -3.051156e-02  6.336861e-01 -1.587302e-02
   endloop
 endfacet
 facet normal -1.000000e+00  0.000000e+00  0.000000e+00
   outer loop
     vertex -3.051156e-02 -2.663141e-02 -1.587302e-02
     vertex -3.051156e-02 -2.663141e-02  3.174609e-02
     vertex -3.051156e-02  6.336861e-01  3.174609e-02
   endloop
 endfacet
 facet normal  1.000000e+00  0.000000e+00  0.000000e+00
   outer loop
     vertex  9.232804e-01  6.336861e-01 -1.587302e-02
     vertex  9.232804e-01 -2.663141e-02  3.174609e-02
     vertex  9.232804e-01 -2.663141e-02 -1.587302e-02
   endloop
 endfacet
 facet normal  1.000000e+00  0.000000e+00 -0.000000e+00
   outer loop
     vertex  9.232804e-01  6.336861e-01 -1.587302e-02
     vertex  9.232804e-01  6.336861e-01  3.174609e-02
     vertex  9.232804e-01 -2.663141e-02  3.174609e-02
   endloop
 endfacet
 facet normal -0.000000e+00 -1.000000e+00  0.000000e+00
   outer loop
     vertex  9.232804e-01 -2.663141e-02 -1.587302e-02
     vertex -3.051156e-02 -2.663141e-02 -1.587302e-02
     vertex -3.051156e-02 -2.663141e-02 -3.174603e-02
   endloop
 endfacet
 facet normal  0.000000e+00 -1.000000e+00 -0.000000e+00
   outer loop
     vertex  9.232804e-01 -2.663141e-02 -1.587302e-02
     vertex -3.051156e-02 -2.663141e-02 -3.174603e-02
     vertex  9.232804e-01 -2.663141e-02 -3.174603e-02
   endloop
 endfacet
 facet normal  0.000000e+00  0.000000e+00  1.000000e+00
   outer loop
     vertex  7.954136e-02  5.970018e-01  3.174609e-02
     vertex -3.051156e-02  6.336861e-01  3.174609e-02
     vertex -3.051156e-02 -2.663141e-02  3.174609e-02
   endloop
 endfacet
 facet normal  0.000000e+00  0.000000e+00  1.000000e+00
   outer loop
     vertex  7.954136e-02  5.970018e-01  3.174609e-02
     vertex -3.051156e-02 -2.663141e-02  3.174609e-02
     vertex  7.954136e-02  1.005289e-02  3.174609e-02
   endloop
 endfacet
 facet normal  0.000000e+00  0.000000e+00  1.000000e+00
   outer loop
     vertex  8.132275e-01  1.005289e-02  3.174609e-02
     vertex  7.954136e-02  1.005289e-02  3.174609e-02
     vertex -3.051156e-02 -2.663141e-02  3.174609e-02
   endloop
 endfacet
 facet normal  0.000000e+00  0.000000e+00  1.000000e+00
   outer loop
     vertex  9.232804e-01 -2.663141e-02  3.174609e-02
     vertex  8.132275e-01  1.005289e-02  3.174609e-02
     vertex -3.051156e-02 -2.663141e-02  3.174609e-02
   endloop
 endfacet
 facet normal  0.000000e+00  0.000000e+00  1.000000e+00
   outer loop
     vertex  8.132275e-01  5.970018e-01  3.174609e-02
     vertex  8.132275e-01  1.005289e-02  3.174609e-02
     vertex  9.232804e-01 -2.663141e-02  3.174609e-02
   endloop
 endfacet
 facet normal  0.000000e+00  0.000000e+00  1.000000e+00
   outer loop
     vertex  9.232804e-01  6.336861e-01  3.174609e-02
     vertex  8.132275e-01  5.970018e-01  3.174609e-02
     vertex  9.232804e-01 -2.663141e-02  3.174609e-02
   endloop
 endfacet
 facet normal  0.000000e+00  0.000000e+00  1.000000e+00
   outer loop
     vertex  9.232804e-01  6.336861e-01  3.174609e-02
     vertex -3.051156e-02  6.336861e-01  3.174609e-02
     vertex  7.954136e-02  5.970018e-01  3.174609e-02
   endloop
 endfacet
 facet normal  0.000000e+00  0.000000e+00  1.000000e+00
   outer loop
     vertex  9.232804e-01  6.336861e-01  3.174609e-02
     vertex  7.954136e-02  5.970018e-01  3.174609e-02
     vertex  8.132275e-01  5.970018e-01  3.174609e-02
   endloop
 endfacet
 facet normal  0.000000e+00  1.000000e+00  0.000000e+00
   outer loop
     vertex -3.051156e-02  6.336861e-01 -1.587302e-02
     vertex  9.232804e-01  6.336861e-01  3.174609e-02
     vertex  9.232804e-01  6.336861e-01 -1.587302e-02
   endloop
 endfacet
 facet normal  0.000000e+00  1.000000e+00  0.000000e+00
   outer loop
     vertex -3.051156e-02  6.336861e-01 -1.587302e-02
     vertex -3.051156e-02  6.336861e-01  3.174609e-02
     vertex  9.232804e-01  6.336861e-01  3.174609e-02
   endloop
 endfacet
 facet normal -1.000000e+00  0.000000e+00  0.000000e+00
   outer loop
     vertex -3.051156e-02 -2.663141e-02 -1.587302e-02
     vertex -3.051156e-02  6.336861e-01 -1.587302e-02
     vertex -3.051156e-02  6.336861e-01 -3.174603e-02
   endloop
 endfacet
 facet normal -1.000000e+00  0.000000e+00  0.000000e+00
   outer loop
     vertex -3.051156e-02 -2.663141e-02 -1.587302e-02
     vertex -3.051156e-02  6.336861e-01 -3.174603e-02
     vertex -3.051156e-02 -2.663141e-02 -3.174603e-02
   endloop
 endfacet
 facet normal  1.000000e+00  0.000000e+00  0.000000e+00
   outer loop
     vertex  9.232804e-01  6.336861e-01 -1.587302e-02
     vertex  9.232804e-01 -2.663141e-02 -1.587302e-02
     vertex  9.232804e-01 -2.663141e-02 -3.174603e-02
   endloop
 endfacet
 facet normal  1.000000e+00  0.000000e+00  0.000000e+00
   outer loop
     vertex  9.232804e-01  6.336861e-01 -1.587302e-02
     vertex  9.232804e-01 -2.663141e-02 -3.174603e-02
     vertex  9.232804e-01  6.336861e-01 -3.174603e-02
   endloop
 endfacet
 facet normal -0.000000e+00  0.000000e+00 -1.000000e+00
   outer loop
     vertex  7.954136e-02  5.970018e-01 -3.174603e-02
     vertex -3.051156e-02 -2.663141e-02 -3.174603e-02
     vertex -3.051156e-02  6.336861e-01 -3.174603e-02
   endloop
 endfacet
 facet normal  0.000000e+00 -0.000000e+00 -1.000000e+00
   outer loop
     vertex  7.954136e-02  5.970018e-01 -3.174603e-02
     vertex  7.954136e-02  1.005289e-02 -3.174603e-02
     vertex -3.051156e-02 -2.663141e-02 -3.174603e-02
   endloop
 endfacet
 facet normal -0.000000e+00  0.000000e+00 -1.000000e+00
   outer loop
     vertex  8.132275e-01  1.005289e-02 -3.174603e-02
     vertex -3.051156e-02 -2.663141e-02 -3.174603e-02
     vertex  7.954136e-02  1.005289e-02 -3.174603e-02
   endloop
 endfacet
 facet normal  0.000000e+00  0.000000e+00 -1.000000e+00
   outer loop
     vertex  9.232804e-01 -2.663141e-02 -3.174603e-02
     vertex -3.051156e-02 -2.663141e-02 -3.174603e-02
     vertex  8.132275e-01  1.005289e-02 -3.174603e-02
   endloop
 endfacet
 facet normal  0.000000e+00  0.000000e+00 -1.000000e+00
   outer loop
     vertex  8.132275e-01  5.970018e-01 -3.174603e-02
     vertex  9.232804e-01 -2.663141e-02 -3.174603e-02
     vertex  8.132275e-01  1.005289e-02 -3.174603e-02
   endloop
 endfacet
 facet normal  0.000000e+00 -0.000000e+00 -1.000000e+00
   outer loop
     vertex  9.232804e-01  6.336861e-01 -3.174603e-02
     vertex  9.232804e-01 -2.663141e-02 -3.174603e-02
     vertex  8.132275e-01  5.970018e-01 -3.174603e-02
   endloop
 endfacet
 facet normal -0.000000e+00  0.000000e+00 -1.000000e+00
   outer loop
     vertex  9.232804e-01  6.336861e-01 -3.174603e-02
     vertex  7.954136e-02  5.970018e-01 -3.174603e-02
     vertex -3.051156e-02  6.336861e-01 -3.174603e-02
   endloop
 endfacet
 facet normal  0.000000e+00  0.000000e+00 -1.000000e+00
   outer loop
     vertex  9.232804e-01  6.336861e-01 -3.174603e-02
     vertex  8.132275e-01  5.970018e-01 -3.174603e-02
     vertex  7.954136e-02  5.970018e-01 -3.174603e-02
   endloop
 endfacet
 facet normal  0.000000e+00  1.000000e+00  0.000000e+00
   outer loop
     vertex  8.132275e-01  1.005289e-02 -1.587302e-02
     vertex  7.954136e-02  1.005289e-02 -1.587302e-02
     vertex  7.954136e-02  1.005289e-02  3.174609e-02
   endloop
 endfacet
 facet normal  0.000000e+00  1.000000e+00 -0.000000e+00
   outer loop
     vertex  8.132275e-01  1.005289e-02 -1.587302e-02
     vertex  7.954136e-02  1.005289e-02  3.174609e-02
     vertex  8.132275e-01  1.005289e-02  3.174609e-02
   endloop
 endfacet
 facet normal -1.000000e+00  0.000000e+00  0.000000e+00
   outer loop
     vertex  8.132275e-01  5.970018e-01 -1.587302e-02
     vertex  8.132275e-01  1.005289e-02 -1.587302e-02
     vertex  8.132275e-01  1.005289e-02  3.174609e-02
   endloop
 endfacet
 facet normal -1.000000e+00  0.000000e+00  0.000000e+00
   outer loop
     vertex  8.132275e-01  5.970018e-01 -1.587302e-02
     vertex  8.132275e-01  1.005289e-02  3.174609e-02
     vertex  8.132275e-01  5.970018e-01  3.174609e-02
   endloop
 endfacet
 facet normal  0.000000e+00 -1.000000e+00  0.000000e+00
   outer loop
     vertex  7.954136e-02  5.970018e-01 -1.587302e-02
     vertex  8.132275e-01  5.970018e-01 -1.587302e-02
     vertex  8.132275e-01  5.970018e-01  3.174609e-02
   endloop
 endfacet
 facet normal  0.000000e+00 -1.000000e+00  0.000000e+00
   outer loop
     vertex  7.954136e-02  5.970018e-01 -1.587302e-02
     vertex  8.132275e-01  5.970018e-01  3.174609e-02
     vertex  7.954136e-02  5.970018e-01  3.174609e-02
   endloop
 endfacet
 facet normal  1.000000e+00  0.000000e+00  0.000000e+00
   outer loop
     vertex  7.954136e-02  1.005289e-02 -1.587302e-02
     vertex  7.954136e-02  5.970018e-01 -1.587302e-02
     vertex  7.954136e-02  5.970018e-01  3.174609e-02
   endloop
 endfacet
 facet normal  1.000000e+00  0.000000e+00  0.000000e+00
   outer loop
     vertex  7.954136e-02  1.005289e-02 -1.587302e-02
     vertex  7.954136e-02  5.970018e-01  3.174609e-02
     vertex  7.954136e-02  1.005289e-02  3.174609e-02
   endloop
 endfacet
 facet normal -0.000000e+00  1.000000e+00  0.000000e+00
   outer loop
     vertex -3.051156e-02  6.336861e-01 -1.587302e-02
     vertex  9.232804e-01  6.336861e-01 -1.587302e-02
     vertex  9.232804e-01  6.336861e-01 -3.174603e-02
   endloop
 endfacet
 facet normal  0.000000e+00  1.000000e+00  0.000000e+00
   outer loop
     vertex -3.051156e-02  6.336861e-01 -1.587302e-02
     vertex  9.232804e-01  6.336861e-01 -3.174603e-02
     vertex -3.051156e-02  6.336861e-01 -3.174603e-02
   endloop
 endfacet
 facet normal  0.000000e+00  1.000000e+00  0.000000e+00
   outer loop
     vertex  8.132275e-01  1.005289e-02 -1.587302e-02
     vertex  7.954136e-02  1.005289e-02 -3.174603e-02
     vertex  7.954136e-02  1.005289e-02 -1.587302e-02
   endloop
 endfacet
 facet normal  0.000000e+00  1.000000e+00  0.000000e+00
   outer loop
     vertex  8.132275e-01  1.005289e-02 -1.587302e-02
     vertex  8.132275e-01  1.005289e-02 -3.174603e-02
     vertex  7.954136e-02  1.005289e-02 -3.174603e-02
   endloop
 endfacet
 facet normal -1.000000e+00 -0.000000e+00  0.000000e+00
   outer loop
     vertex  8.132275e-01  5.970018e-01 -1.587302e-02
     vertex  8.132275e-01  1.005289e-02 -3.174603e-02
     vertex  8.132275e-01  1.005289e-02 -1.587302e-02
   endloop
 endfacet
 facet normal -1.000000e+00  0.000000e+00 -0.000000e+00
   outer loop
     vertex  8.132275e-01  5.970018e-01 -1.587302e-02
     vertex  8.132275e-01  5.970018e-01 -3.174603e-02
     vertex  8.132275e-01  1.005289e-02 -3.174603e-02
   endloop
 endfacet
 facet normal  0.000000e+00 -1.000000e+00  0.000000e+00
   outer loop
     vertex  7.954136e-02  5.970018e-01 -1.587302e-02
     vertex  8.132275e-01  5.970018e-01 -3.174603e-02
     vertex  8.132275e-01  5.970018e-01 -1.587302e-02
   endloop
 endfacet
 facet normal  0.000000e+00 -1.000000e+00  0.000000e+00
   outer loop
     vertex  7.954136e-02  5.970018e-01 -1.587302e-02
     vertex  7.954136e-02  5.970018e-01 -3.174603e-02
     vertex  8.132275e-01  5.970018e-01 -3.174603e-02
   endloop
 endfacet
 facet normal  1.000000e+00 -0.000000e+00  0.000000e+00
   outer loop
     vertex  7.954136e-02  1.005289e-02 -1.587302e-02
     vertex  7.954136e-02  5.970018e-01 -3.174603e-02
     vertex  7.954136e-02  5.970018e-01 -1.587302e-02
   endloop
 endfacet
 facet normal  1.000000e+00  0.000000e+00  0.000000e+00
   outer loop
     vertex  7.954136e-02  1.005289e-02 -1.587302e-02
     vertex  7.954136e-02  1.005289e-02 -3.174603e-02
     vertex  7.954136e-02  5.970018e-01 -3.174603e-02
   endloop
 endfacet
endsolid
