solid 
 facet normal  8.261231e-01  0.000000e+00  5.634897e-01
   outer loop
     vertex -8.931678e-01 -1.587302e-02  3.381463e-01
     vertex -8.885011e-01 -1.015873e+00  3.313044e-01
     vertex -8.885011e-01 -1.587302e-02  3.313044e-01
   endloop
 endfacet
 facet normal  8.261231e-01  0.000000e+00  5.634897e-01
   outer loop
     vertex -8.931678e-01 -1.587302e-02  3.381463e-01
     vertex -8.931678e-01 -1.015873e+00  3.381463e-01
     vertex -8.885011e-01 -1.015873e+00  3.313044e-01
   endloop
 endfacet
 facet normal  8.270061e-01  0.000000e+00  5.621929e-01
   outer loop
     vertex -8.978238e-01 -1.587302e-02  3.449954e-01
     vertex -8.978238e-01 -1.015873e+00  3.449954e-01
     vertex -8.931678e-01 -1.015873e+00  3.381463e-01
   endloop
 endfacet
 facet normal  8.270061e-01  0.000000e+00  5.621929e-01
   outer loop
     vertex -8.978238e-01 -1.587302e-02  3.449954e-01
     vertex -8.931678e-01 -1.015873e+00  3.381463e-01
     vertex -8.931678e-01 -1.587302e-02  3.381463e-01
   endloop
 endfacet
 facet normal  8.278871e-01  0.000000e+00  5.608948e-01
   outer loop
     vertex -9.024691e-01 -1.587302e-02  3.518519e-01
     vertex -9.024691e-01 -1.015873e+00  3.518519e-01
     vertex -8.978238e-01 -1.015873e+00  3.449954e-01
   endloop
 endfacet
 facet normal  8.278871e-01  0.000000e+00  5.608948e-01
   outer loop
     vertex -9.024691e-01 -1.587302e-02  3.518519e-01
     vertex -8.978238e-01 -1.015873e+00  3.449954e-01
     vertex -8.978238e-01 -1.587302e-02  3.449954e-01
   endloop
 endfacet
 facet normal -9.661406e-01  0.000000e+00  2.580161e-01
   outer loop
     vertex -8.824111e-01 -1.587302e-02  3.611298e-01
     vertex -8.784832e-01 -1.015873e+00  3.758377e-01
     vertex -8.784832e-01 -1.587302e-02  3.758377e-01
   endloop
 endfacet
 facet normal -9.661406e-01  0.000000e+00  2.580161e-01
   outer loop
     vertex -8.824111e-01 -1.587302e-02  3.611298e-01
     vertex -8.824111e-01 -1.015873e+00  3.611298e-01
     vertex -8.784832e-01 -1.015873e+00  3.758377e-01
   endloop
 endfacet
 facet normal -9.756197e-01  0.000000e+00  2.194679e-01
   outer loop
     vertex -8.857522e-01 -1.587302e-02  3.462776e-01
     vertex -8.857522e-01 -1.015873e+00  3.462776e-01
     vertex -8.824111e-01 -1.015873e+00  3.611298e-01
   endloop
 endfacet
 facet normal -9.756197e-01  0.000000e+00  2.194679e-01
   outer loop
     vertex -8.857522e-01 -1.587302e-02  3.462776e-01
     vertex -8.824111e-01 -1.015873e+00  3.611298e-01
     vertex -8.824111e-01 -1.587302e-02  3.611298e-01
   endloop
 endfacet
 facet normal -9.835614e-01  0.000000e+00  1.805740e-01
   outer loop
     vertex -8.885011e-01 -1.587302e-02  3.313044e-01
     vertex -8.885011e-01 -1.015873e+00  3.313044e-01
     vertex -8.857522e-01 -1.015873e+00  3.462776e-01
   endloop
 endfacet
 facet normal -9.835614e-01  0.000000e+00  1.805740e-01
   outer loop
     vertex -8.885011e-01 -1.587302e-02  3.313044e-01
     vertex -8.857522e-01 -1.015873e+00  3.462776e-01
     vertex -8.857522e-01 -1.587302e-02  3.462776e-01
   endloop
 endfacet
 facet normal  4.472134e-01  0.000000e+00  8.944273e-01
   outer loop
     vertex -9.984127e-01 -1.587302e-02  3.998236e-01
     vertex -9.024691e-01 -1.015873e+00  3.518519e-01
     vertex -9.024691e-01 -1.587302e-02  3.518519e-01
   endloop
 endfacet
 facet normal  4.472134e-01  0.000000e+00  8.944273e-01
   outer loop
     vertex -9.984127e-01 -1.587302e-02  3.998236e-01
     vertex -9.984127e-01 -1.015873e+00  3.998236e-01
     vertex -9.024691e-01 -1.015873e+00  3.518519e-01
   endloop
 endfacet
 facet normal  8.261231e-01  0.000000e+00  5.634897e-01
   outer loop
     vertex -8.931678e-01 -1.587302e-02  3.381463e-01
     vertex -8.885011e-01 -1.587302e-02  3.313044e-01
     vertex -8.885011e-01  0.000000e+00  3.313044e-01
   endloop
 endfacet
 facet normal  8.261231e-01 -0.000000e+00  5.634897e-01
   outer loop
     vertex -8.931678e-01 -1.587302e-02  3.381463e-01
     vertex -8.885011e-01  0.000000e+00  3.313044e-01
     vertex -8.931678e-01  0.000000e+00  3.381463e-01
   endloop
 endfacet
 facet normal  8.270061e-01 -0.000000e+00  5.621929e-01
   outer loop
     vertex -8.978238e-01 -1.587302e-02  3.449954e-01
     vertex -8.931678e-01  0.000000e+00  3.381463e-01
     vertex -8.978238e-01  0.000000e+00  3.449954e-01
   endloop
 endfacet
 facet normal  8.270061e-01  0.000000e+00  5.621929e-01
   outer loop
     vertex -8.978238e-01 -1.587302e-02  3.449954e-01
     vertex -8.931678e-01 -1.587302e-02  3.381463e-01
     vertex -8.931678e-01  0.000000e+00  3.381463e-01
   endloop
 endfacet
 facet normal  8.278871e-01 -0.000000e+00  5.608948e-01
   outer loop
     vertex -9.024691e-01 -1.587302e-02  3.518519e-01
     vertex -8.978238e-01  0.000000e+00  3.449954e-01
     vertex -9.024691e-01  0.000000e+00  3.518519e-01
   endloop
 endfacet
 facet normal  8.278871e-01  0.000000e+00  5.608948e-01
   outer loop
     vertex -9.024691e-01 -1.587302e-02  3.518519e-01
     vertex -8.978238e-01 -1.587302e-02  3.449954e-01
     vertex -8.978238e-01  0.000000e+00  3.449954e-01
   endloop
 endfacet
 facet normal  0.000000e+00 -1.000000e+00  0.000000e+00
   outer loop
     vertex -7.805011e-01 -1.015873e+00 -4.016788e-01
     vertex -9.264550e-01 -1.015873e+00 -5.116403e-01
     vertex -9.744268e-01 -1.015873e+00 -6.555556e-01
   endloop
 endfacet
 facet normal  0.000000e+00 -1.000000e+00 -0.000000e+00
   outer loop
     vertex -8.201995e-01 -1.015873e+00  4.405406e-02
     vertex -9.264550e-01 -1.015873e+00 -5.116403e-01
     vertex -7.964459e-01 -1.015873e+00  1.455958e-02
   endloop
 endfacet
 facet normal  0.000000e+00 -1.000000e+00 -0.000000e+00
   outer loop
     vertex -8.409283e-01 -1.015873e+00  7.574754e-02
     vertex -9.264550e-01 -1.015873e+00 -5.116403e-01
     vertex -8.201995e-01 -1.015873e+00  4.405406e-02
   endloop
 endfacet
 facet normal  0.000000e+00 -1.000000e+00 -0.000000e+00
   outer loop
     vertex -8.584301e-01 -1.015873e+00  1.093310e-01
     vertex -9.264550e-01 -1.015873e+00 -5.116403e-01
     vertex -8.409283e-01 -1.015873e+00  7.574754e-02
   endloop
 endfacet
 facet normal  0.000000e+00 -1.000000e+00 -0.000000e+00
   outer loop
     vertex -8.725342e-01 -1.015873e+00  1.444769e-01
     vertex -9.264550e-01 -1.015873e+00 -5.116403e-01
     vertex -8.584301e-01 -1.015873e+00  1.093310e-01
   endloop
 endfacet
 facet normal -0.000000e+00 -1.000000e+00  0.000000e+00
   outer loop
     vertex -3.035231e-01 -1.015873e+00 -3.819980e-01
     vertex -6.330335e-01 -1.015873e+00 -2.937557e-01
     vertex -7.805011e-01 -1.015873e+00 -4.016788e-01
   endloop
 endfacet
 facet normal  0.000000e+00 -1.000000e+00  0.000000e+00
   outer loop
     vertex -2.096460e-01 -1.015873e+00 -4.755898e-01
     vertex -3.035231e-01 -1.015873e+00 -3.819980e-01
     vertex -7.805011e-01 -1.015873e+00 -4.016788e-01
   endloop
 endfacet
 facet normal -0.000000e+00 -1.000000e+00  0.000000e+00
   outer loop
     vertex -2.096460e-01 -1.015873e+00 -4.755898e-01
     vertex -7.805011e-01 -1.015873e+00 -4.016788e-01
     vertex -9.744268e-01 -1.015873e+00 -6.555556e-01
   endloop
 endfacet
 facet normal  0.000000e+00 -1.000000e+00 -0.000000e+00
   outer loop
     vertex -3.950206e-01 -1.015873e+00 -2.860786e-01
     vertex -6.330335e-01 -1.015873e+00 -2.937557e-01
     vertex -3.035231e-01 -1.015873e+00 -3.819980e-01
   endloop
 endfacet
 facet normal -0.000000e+00 -1.000000e+00  0.000000e+00
   outer loop
     vertex -1.134485e-01 -1.015873e+00 -5.667948e-01
     vertex -2.096460e-01 -1.015873e+00 -4.755898e-01
     vertex -9.744268e-01 -1.015873e+00 -6.555556e-01
   endloop
 endfacet
 facet normal  0.000000e+00 -1.000000e+00 -0.000000e+00
   outer loop
     vertex -4.840807e-01 -1.015873e+00 -1.878919e-01
     vertex -6.330335e-01 -1.015873e+00 -2.937557e-01
     vertex -3.950206e-01 -1.015873e+00 -2.860786e-01
   endloop
 endfacet
 facet normal  0.000000e+00 -1.000000e+00  0.000000e+00
   outer loop
     vertex -1.499113e-02 -1.015873e+00 -6.555556e-01
     vertex -1.134485e-01 -1.015873e+00 -5.667948e-01
     vertex -9.744268e-01 -1.015873e+00 -6.555556e-01
   endloop
 endfacet
 facet normal  0.000000e+00 -1.000000e+00  0.000000e+00
   outer loop
     vertex -9.984127e-01 -1.015873e+00  3.998236e-01
     vertex -8.932585e-01 -1.015873e+00  2.558060e-01
     vertex -8.927460e-01 -1.015873e+00  2.936728e-01
   endloop
 endfacet
 facet normal  0.000000e+00 -1.000000e+00  0.000000e+00
   outer loop
     vertex -9.984127e-01 -1.015873e+00  3.998236e-01
     vertex -8.900337e-01 -1.015873e+00  2.180732e-01
     vertex -8.932585e-01 -1.015873e+00  2.558060e-01
   endloop
 endfacet
 facet normal  0.000000e+00 -1.000000e+00  0.000000e+00
   outer loop
     vertex -9.984127e-01 -1.015873e+00  3.998236e-01
     vertex -8.831031e-01 -1.015873e+00  1.808425e-01
     vertex -8.900337e-01 -1.015873e+00  2.180732e-01
   endloop
 endfacet
 facet normal  0.000000e+00 -1.000000e+00  0.000000e+00
   outer loop
     vertex -9.984127e-01 -1.015873e+00  3.998236e-01
     vertex -8.725342e-01 -1.015873e+00  1.444769e-01
     vertex -8.831031e-01 -1.015873e+00  1.808425e-01
   endloop
 endfacet
 facet normal  0.000000e+00 -1.000000e+00  0.000000e+00
   outer loop
     vertex -9.984127e-01 -1.015873e+00  3.998236e-01
     vertex -9.744268e-01 -1.015873e+00 -6.555556e-01
     vertex -9.264550e-01 -1.015873e+00 -5.116403e-01
   endloop
 endfacet
 facet normal  0.000000e+00 -1.000000e+00  0.000000e+00
   outer loop
     vertex -9.984127e-01 -1.015873e+00  3.998236e-01
     vertex -9.264550e-01 -1.015873e+00 -5.116403e-01
     vertex -8.725342e-01 -1.015873e+00  1.444769e-01
   endloop
 endfacet
 facet normal  0.000000e+00 -1.000000e+00  0.000000e+00
   outer loop
     vertex -8.931678e-01 -1.015873e+00  3.381463e-01
     vertex -8.927460e-01 -1.015873e+00  2.936728e-01
     vertex -8.885011e-01 -1.015873e+00  3.313044e-01
   endloop
 endfacet
 facet normal  0.000000e+00 -1.000000e+00  0.000000e+00
   outer loop
     vertex -8.978238e-01 -1.015873e+00  3.449954e-01
     vertex -8.927460e-01 -1.015873e+00  2.936728e-01
     vertex -8.931678e-01 -1.015873e+00  3.381463e-01
   endloop
 endfacet
 facet normal -0.000000e+00 -1.000000e+00 -0.000000e+00
   outer loop
     vertex -9.024691e-01 -1.015873e+00  3.518519e-01
     vertex -9.984127e-01 -1.015873e+00  3.998236e-01
     vertex -8.927460e-01 -1.015873e+00  2.936728e-01
   endloop
 endfacet
 facet normal  0.000000e+00 -1.000000e+00  0.000000e+00
   outer loop
     vertex -9.024691e-01 -1.015873e+00  3.518519e-01
     vertex -8.927460e-01 -1.015873e+00  2.936728e-01
     vertex -8.978238e-01 -1.015873e+00  3.449954e-01
   endloop
 endfacet
 facet normal  0.000000e+00 -1.000000e+00  0.000000e+00
   outer loop
     vertex -9.264550e-01 -1.015873e+00 -5.116403e-01
     vertex -7.094858e-01 -1.015873e+00 -5.797736e-02
     vertex -7.408178e-01 -1.015873e+00 -3.670609e-02
   endloop
 endfacet
 facet normal  0.000000e+00 -1.000000e+00  0.000000e+00
   outer loop
     vertex -9.264550e-01 -1.015873e+00 -5.116403e-01
     vertex -7.408178e-01 -1.015873e+00 -3.670609e-02
     vertex -7.698990e-01 -1.015873e+00 -1.244825e-02
   endloop
 endfacet
 facet normal  0.000000e+00 -1.000000e+00  0.000000e+00
   outer loop
     vertex -9.264550e-01 -1.015873e+00 -5.116403e-01
     vertex -7.698990e-01 -1.015873e+00 -1.244825e-02
     vertex -7.964459e-01 -1.015873e+00  1.455958e-02
   endloop
 endfacet
 facet normal -6.651901e-02  0.000000e+00  9.977852e-01
   outer loop
     vertex -8.784832e-01 -1.587302e-02  3.758377e-01
     vertex -1.589065e-01 -1.015873e+00  4.238095e-01
     vertex -1.589065e-01 -1.587302e-02  4.238095e-01
   endloop
 endfacet
 facet normal -6.651901e-02  0.000000e+00  9.977852e-01
   outer loop
     vertex -8.784832e-01 -1.587302e-02  3.758377e-01
     vertex -8.784832e-01 -1.015873e+00  3.758377e-01
     vertex -1.589065e-01 -1.015873e+00  4.238095e-01
   endloop
 endfacet
 facet normal -9.661406e-01  0.000000e+00  2.580161e-01
   outer loop
     vertex -8.824111e-01 -1.587302e-02  3.611298e-01
     vertex -8.784832e-01 -1.587302e-02  3.758377e-01
     vertex -8.784832e-01  0.000000e+00  3.758377e-01
   endloop
 endfacet
 facet normal -9.661406e-01  0.000000e+00  2.580161e-01
   outer loop
     vertex -8.824111e-01 -1.587302e-02  3.611298e-01
     vertex -8.784832e-01  0.000000e+00  3.758377e-01
     vertex -8.824111e-01  0.000000e+00  3.611298e-01
   endloop
 endfacet
 facet normal -9.756197e-01  0.000000e+00  2.194679e-01
   outer loop
     vertex -8.857522e-01 -1.587302e-02  3.462776e-01
     vertex -8.824111e-01  0.000000e+00  3.611298e-01
     vertex -8.857522e-01  0.000000e+00  3.462776e-01
   endloop
 endfacet
 facet normal -9.756197e-01  0.000000e+00  2.194679e-01
   outer loop
     vertex -8.857522e-01 -1.587302e-02  3.462776e-01
     vertex -8.824111e-01 -1.587302e-02  3.611298e-01
     vertex -8.824111e-01  0.000000e+00  3.611298e-01
   endloop
 endfacet
 facet normal -9.835614e-01  0.000000e+00  1.805740e-01
   outer loop
     vertex -8.885011e-01 -1.587302e-02  3.313044e-01
     vertex -8.857522e-01  0.000000e+00  3.462776e-01
     vertex -8.885011e-01  0.000000e+00  3.313044e-01
   endloop
 endfacet
 facet normal -9.835614e-01  0.000000e+00  1.805740e-01
   outer loop
     vertex -8.885011e-01 -1.587302e-02  3.313044e-01
     vertex -8.857522e-01 -1.587302e-02  3.462776e-01
     vertex -8.857522e-01  0.000000e+00  3.462776e-01
   endloop
 endfacet
 facet normal  0.000000e+00 -1.000000e+00  0.000000e+00
   outer loop
     vertex -7.432538e-01 -1.015873e+00  1.291234e-01
     vertex -6.670952e-01 -1.015873e+00  3.065758e-02
     vertex -6.626102e-01 -1.015873e+00  4.003529e-02
   endloop
 endfacet
 facet normal  0.000000e+00 -1.000000e+00 -0.000000e+00
   outer loop
     vertex -8.857522e-01 -1.015873e+00  3.462776e-01
     vertex -8.885011e-01 -1.015873e+00  3.313044e-01
     vertex -8.170694e-01 -1.015873e+00  2.293576e-01
   endloop
 endfacet
 facet normal  0.000000e+00 -1.000000e+00 -0.000000e+00
   outer loop
     vertex -8.824111e-01 -1.015873e+00  3.611298e-01
     vertex -8.857522e-01 -1.015873e+00  3.462776e-01
     vertex -8.170694e-01 -1.015873e+00  2.293576e-01
   endloop
 endfacet
 facet normal  0.000000e+00 -1.000000e+00 -0.000000e+00
   outer loop
     vertex -8.784832e-01 -1.015873e+00  3.758377e-01
     vertex -8.824111e-01 -1.015873e+00  3.611298e-01
     vertex -8.170694e-01 -1.015873e+00  2.293576e-01
   endloop
 endfacet
 facet normal  0.000000e+00 -1.000000e+00  0.000000e+00
   outer loop
     vertex -1.693349e-01 -1.015873e+00  9.346317e-02
     vertex -6.626102e-01 -1.015873e+00  4.003529e-02
     vertex -1.884082e-01 -1.015873e+00  6.065277e-02
   endloop
 endfacet
 facet normal  0.000000e+00 -1.000000e+00  0.000000e+00
   outer loop
     vertex -1.535980e-01 -1.015873e+00  1.279981e-01
     vertex -6.626102e-01 -1.015873e+00  4.003529e-02
     vertex -1.693349e-01 -1.015873e+00  9.346317e-02
   endloop
 endfacet
 facet normal  0.000000e+00 -1.000000e+00  0.000000e+00
   outer loop
     vertex -1.413516e-01 -1.015873e+00  1.639194e-01
     vertex -6.626102e-01 -1.015873e+00  4.003529e-02
     vertex -1.535980e-01 -1.015873e+00  1.279981e-01
   endloop
 endfacet
 facet normal  0.000000e+00 -1.000000e+00  0.000000e+00
   outer loop
     vertex -1.327156e-01 -1.015873e+00  2.008753e-01
     vertex -6.626102e-01 -1.015873e+00  4.003529e-02
     vertex -1.413516e-01 -1.015873e+00  1.639194e-01
   endloop
 endfacet
 facet normal  0.000000e+00 -1.000000e+00  0.000000e+00
   outer loop
     vertex -1.277748e-01 -1.015873e+00  2.385038e-01
     vertex -6.626102e-01 -1.015873e+00  4.003529e-02
     vertex -1.327156e-01 -1.015873e+00  2.008753e-01
   endloop
 endfacet
 facet normal  0.000000e+00 -1.000000e+00  0.000000e+00
   outer loop
     vertex -1.265773e-01 -1.015873e+00  2.764364e-01
     vertex -6.626102e-01 -1.015873e+00  4.003529e-02
     vertex -1.277748e-01 -1.015873e+00  2.385038e-01
   endloop
 endfacet
 facet normal  0.000000e+00 -1.000000e+00 -0.000000e+00
   outer loop
     vertex -1.291350e-01 -1.015873e+00  3.143016e-01
     vertex -6.626102e-01 -1.015873e+00  4.003529e-02
     vertex -1.265773e-01 -1.015873e+00  2.764364e-01
   endloop
 endfacet
 facet normal  0.000000e+00 -1.000000e+00 -0.000000e+00
   outer loop
     vertex -1.354228e-01 -1.015873e+00  3.517285e-01
     vertex -6.626102e-01 -1.015873e+00  4.003529e-02
     vertex -1.291350e-01 -1.015873e+00  3.143016e-01
   endloop
 endfacet
 facet normal  0.000000e+00 -1.000000e+00 -0.000000e+00
   outer loop
     vertex -1.453791e-01 -1.015873e+00  3.883507e-01
     vertex -6.626102e-01 -1.015873e+00  4.003529e-02
     vertex -1.354228e-01 -1.015873e+00  3.517285e-01
   endloop
 endfacet
 facet normal  0.000000e+00 -1.000000e+00  0.000000e+00
   outer loop
     vertex -1.589065e-01 -1.015873e+00  4.238095e-01
     vertex -8.170694e-01 -1.015873e+00  2.293576e-01
     vertex -7.432538e-01 -1.015873e+00  1.291234e-01
   endloop
 endfacet
 facet normal  0.000000e+00 -1.000000e+00  0.000000e+00
   outer loop
     vertex -1.589065e-01 -1.015873e+00  4.238095e-01
     vertex -7.432538e-01 -1.015873e+00  1.291234e-01
     vertex -6.626102e-01 -1.015873e+00  4.003529e-02
   endloop
 endfacet
 facet normal  0.000000e+00 -1.000000e+00  0.000000e+00
   outer loop
     vertex -1.589065e-01 -1.015873e+00  4.238095e-01
     vertex -8.784832e-01 -1.015873e+00  3.758377e-01
     vertex -8.170694e-01 -1.015873e+00  2.293576e-01
   endloop
 endfacet
 facet normal  0.000000e+00 -1.000000e+00 -0.000000e+00
   outer loop
     vertex -1.589065e-01 -1.015873e+00  4.238095e-01
     vertex -6.626102e-01 -1.015873e+00  4.003529e-02
     vertex -1.453791e-01 -1.015873e+00  3.883507e-01
   endloop
 endfacet
 facet normal -9.997418e-01  0.000000e+00 -2.272138e-02
   outer loop
     vertex -9.744268e-01 -1.587302e-02 -6.555556e-01
     vertex -9.984127e-01 -1.015873e+00  3.998236e-01
     vertex -9.984127e-01 -1.587302e-02  3.998236e-01
   endloop
 endfacet
 facet normal -9.997418e-01 -0.000000e+00 -2.272138e-02
   outer loop
     vertex -9.744268e-01 -1.587302e-02 -6.555556e-01
     vertex -9.744268e-01 -1.015873e+00 -6.555556e-01
     vertex -9.984127e-01 -1.015873e+00  3.998236e-01
   endloop
 endfacet
 facet normal  4.472134e-01  0.000000e+00  8.944273e-01
   outer loop
     vertex -9.984127e-01 -1.587302e-02  3.998236e-01
     vertex -9.024691e-01 -1.587302e-02  3.518519e-01
     vertex -9.024691e-01  0.000000e+00  3.518519e-01
   endloop
 endfacet
 facet normal  4.472134e-01 -0.000000e+00  8.944273e-01
   outer loop
     vertex -9.984127e-01 -1.587302e-02  3.998236e-01
     vertex -9.024691e-01  0.000000e+00  3.518519e-01
     vertex -9.984127e-01  0.000000e+00  3.998236e-01
   endloop
 endfacet
 facet normal  0.000000e+00  1.000000e+00  0.000000e+00
   outer loop
     vertex -7.805011e-01  6.591949e-17 -4.016788e-01
     vertex -9.744268e-01  6.591949e-17 -6.555556e-01
     vertex -9.264550e-01  6.591949e-17 -5.116403e-01
   endloop
 endfacet
 facet normal  0.000000e+00  1.000000e+00  0.000000e+00
   outer loop
     vertex -8.201995e-01  6.591949e-17  4.405406e-02
     vertex -7.964459e-01  6.591949e-17  1.455958e-02
     vertex -9.264550e-01  6.591949e-17 -5.116403e-01
   endloop
 endfacet
 facet normal  0.000000e+00  1.000000e+00  0.000000e+00
   outer loop
     vertex -8.409283e-01  6.591949e-17  7.574754e-02
     vertex -8.201995e-01  6.591949e-17  4.405406e-02
     vertex -9.264550e-01  6.591949e-17 -5.116403e-01
   endloop
 endfacet
 facet normal  0.000000e+00  1.000000e+00  0.000000e+00
   outer loop
     vertex -8.584301e-01  6.591949e-17  1.093310e-01
     vertex -8.409283e-01  6.591949e-17  7.574754e-02
     vertex -9.264550e-01  6.591949e-17 -5.116403e-01
   endloop
 endfacet
 facet normal  0.000000e+00  1.000000e+00  0.000000e+00
   outer loop
     vertex -8.725342e-01  6.591949e-17  1.444769e-01
     vertex -8.584301e-01  6.591949e-17  1.093310e-01
     vertex -9.264550e-01  6.591949e-17 -5.116403e-01
   endloop
 endfacet
 facet normal  0.000000e+00  1.000000e+00  0.000000e+00
   outer loop
     vertex -3.035231e-01  6.591949e-17 -3.819980e-01
     vertex -7.805011e-01  6.591949e-17 -4.016788e-01
     vertex -6.330335e-01  6.591949e-17 -2.937557e-01
   endloop
 endfacet
 facet normal  0.000000e+00  1.000000e+00  0.000000e+00
   outer loop
     vertex -2.096460e-01  6.591949e-17 -4.755898e-01
     vertex -7.805011e-01  6.591949e-17 -4.016788e-01
     vertex -3.035231e-01  6.591949e-17 -3.819980e-01
   endloop
 endfacet
 facet normal  0.000000e+00  1.000000e+00  0.000000e+00
   outer loop
     vertex -2.096460e-01  6.591949e-17 -4.755898e-01
     vertex -9.744268e-01  6.591949e-17 -6.555556e-01
     vertex -7.805011e-01  6.591949e-17 -4.016788e-01
   endloop
 endfacet
 facet normal  0.000000e+00  1.000000e+00  0.000000e+00
   outer loop
     vertex -3.950206e-01  6.591949e-17 -2.860786e-01
     vertex -3.035231e-01  6.591949e-17 -3.819980e-01
     vertex -6.330335e-01  6.591949e-17 -2.937557e-01
   endloop
 endfacet
 facet normal  0.000000e+00  1.000000e+00  0.000000e+00
   outer loop
     vertex -1.134485e-01  6.591949e-17 -5.667948e-01
     vertex -9.744268e-01  6.591949e-17 -6.555556e-01
     vertex -2.096460e-01  6.591949e-17 -4.755898e-01
   endloop
 endfacet
 facet normal  0.000000e+00  1.000000e+00  0.000000e+00
   outer loop
     vertex -4.840807e-01  6.591949e-17 -1.878919e-01
     vertex -3.950206e-01  6.591949e-17 -2.860786e-01
     vertex -6.330335e-01  6.591949e-17 -2.937557e-01
   endloop
 endfacet
 facet normal  0.000000e+00  1.000000e+00  0.000000e+00
   outer loop
     vertex -1.499113e-02  6.591949e-17 -6.555556e-01
     vertex -9.744268e-01  6.591949e-17 -6.555556e-01
     vertex -1.134485e-01  6.591949e-17 -5.667948e-01
   endloop
 endfacet
 facet normal  0.000000e+00  1.000000e+00  0.000000e+00
   outer loop
     vertex -9.984127e-01  6.591949e-17  3.998236e-01
     vertex -8.927460e-01  6.591949e-17  2.936728e-01
     vertex -8.932585e-01  6.591949e-17  2.558060e-01
   endloop
 endfacet
 facet normal  0.000000e+00  1.000000e+00  0.000000e+00
   outer loop
     vertex -9.984127e-01  6.591949e-17  3.998236e-01
     vertex -8.932585e-01  6.591949e-17  2.558060e-01
     vertex -8.900337e-01  6.591949e-17  2.180732e-01
   endloop
 endfacet
 facet normal  0.000000e+00  1.000000e+00  0.000000e+00
   outer loop
     vertex -9.984127e-01  6.591949e-17  3.998236e-01
     vertex -8.900337e-01  6.591949e-17  2.180732e-01
     vertex -8.831031e-01  6.591949e-17  1.808425e-01
   endloop
 endfacet
 facet normal  0.000000e+00  1.000000e+00  0.000000e+00
   outer loop
     vertex -9.984127e-01  6.591949e-17  3.998236e-01
     vertex -8.831031e-01  6.591949e-17  1.808425e-01
     vertex -8.725342e-01  6.591949e-17  1.444769e-01
   endloop
 endfacet
 facet normal  0.000000e+00  1.000000e+00  0.000000e+00
   outer loop
     vertex -9.984127e-01  6.591949e-17  3.998236e-01
     vertex -9.264550e-01  6.591949e-17 -5.116403e-01
     vertex -9.744268e-01  6.591949e-17 -6.555556e-01
   endloop
 endfacet
 facet normal  0.000000e+00  1.000000e+00  0.000000e+00
   outer loop
     vertex -9.984127e-01  6.591949e-17  3.998236e-01
     vertex -8.725342e-01  6.591949e-17  1.444769e-01
     vertex -9.264550e-01  6.591949e-17 -5.116403e-01
   endloop
 endfacet
 facet normal  0.000000e+00  1.000000e+00  0.000000e+00
   outer loop
     vertex -8.931678e-01  6.591949e-17  3.381463e-01
     vertex -8.885011e-01  6.591949e-17  3.313044e-01
     vertex -8.927460e-01  6.591949e-17  2.936728e-01
   endloop
 endfacet
 facet normal  0.000000e+00  1.000000e+00  0.000000e+00
   outer loop
     vertex -8.978238e-01  6.591949e-17  3.449954e-01
     vertex -8.931678e-01  6.591949e-17  3.381463e-01
     vertex -8.927460e-01  6.591949e-17  2.936728e-01
   endloop
 endfacet
 facet normal  0.000000e+00  1.000000e+00  0.000000e+00
   outer loop
     vertex -9.024691e-01  6.591949e-17  3.518519e-01
     vertex -8.927460e-01  6.591949e-17  2.936728e-01
     vertex -9.984127e-01  6.591949e-17  3.998236e-01
   endloop
 endfacet
 facet normal  0.000000e+00  1.000000e+00  0.000000e+00
   outer loop
     vertex -9.024691e-01  6.591949e-17  3.518519e-01
     vertex -8.978238e-01  6.591949e-17  3.449954e-01
     vertex -8.927460e-01  6.591949e-17  2.936728e-01
   endloop
 endfacet
 facet normal  0.000000e+00  1.000000e+00  0.000000e+00
   outer loop
     vertex -9.264550e-01  6.591949e-17 -5.116403e-01
     vertex -7.408178e-01  6.591949e-17 -3.670609e-02
     vertex -7.094858e-01  6.591949e-17 -5.797736e-02
   endloop
 endfacet
 facet normal  0.000000e+00  1.000000e+00  0.000000e+00
   outer loop
     vertex -9.264550e-01  6.591949e-17 -5.116403e-01
     vertex -7.698990e-01  6.591949e-17 -1.244825e-02
     vertex -7.408178e-01  6.591949e-17 -3.670609e-02
   endloop
 endfacet
 facet normal  0.000000e+00  1.000000e+00  0.000000e+00
   outer loop
     vertex -9.264550e-01  6.591949e-17 -5.116403e-01
     vertex -7.964459e-01  6.591949e-17  1.455958e-02
     vertex -7.698990e-01  6.591949e-17 -1.244825e-02
   endloop
 endfacet
 facet normal  0.000000e+00 -1.000000e+00  0.000000e+00
   outer loop
     vertex -6.670952e-01 -1.015873e+00  3.065758e-02
     vertex -7.964459e-01 -1.015873e+00  1.455958e-02
     vertex -7.698990e-01 -1.015873e+00 -1.244825e-02
   endloop
 endfacet
 facet normal  0.000000e+00 -1.000000e+00  0.000000e+00
   outer loop
     vertex -6.670952e-01 -1.015873e+00  3.065758e-02
     vertex -7.698990e-01 -1.015873e+00 -1.244825e-02
     vertex -7.408178e-01 -1.015873e+00 -3.670609e-02
   endloop
 endfacet
 facet normal  0.000000e+00 -1.000000e+00  0.000000e+00
   outer loop
     vertex -6.670952e-01 -1.015873e+00  3.065758e-02
     vertex -7.408178e-01 -1.015873e+00 -3.670609e-02
     vertex -7.094858e-01 -1.015873e+00 -5.797736e-02
   endloop
 endfacet
 facet normal -0.000000e+00 -1.000000e+00  0.000000e+00
   outer loop
     vertex -7.432538e-01 -1.015873e+00  1.291234e-01
     vertex -8.725342e-01 -1.015873e+00  1.444769e-01
     vertex -8.584301e-01 -1.015873e+00  1.093310e-01
   endloop
 endfacet
 facet normal  0.000000e+00 -1.000000e+00  0.000000e+00
   outer loop
     vertex -7.432538e-01 -1.015873e+00  1.291234e-01
     vertex -8.584301e-01 -1.015873e+00  1.093310e-01
     vertex -8.409283e-01 -1.015873e+00  7.574754e-02
   endloop
 endfacet
 facet normal  0.000000e+00 -1.000000e+00  0.000000e+00
   outer loop
     vertex -7.432538e-01 -1.015873e+00  1.291234e-01
     vertex -8.409283e-01 -1.015873e+00  7.574754e-02
     vertex -8.201995e-01 -1.015873e+00  4.405406e-02
   endloop
 endfacet
 facet normal  0.000000e+00 -1.000000e+00  0.000000e+00
   outer loop
     vertex -7.432538e-01 -1.015873e+00  1.291234e-01
     vertex -8.201995e-01 -1.015873e+00  4.405406e-02
     vertex -7.964459e-01 -1.015873e+00  1.455958e-02
   endloop
 endfacet
 facet normal  0.000000e+00 -1.000000e+00 -0.000000e+00
   outer loop
     vertex -7.432538e-01 -1.015873e+00  1.291234e-01
     vertex -7.964459e-01 -1.015873e+00  1.455958e-02
     vertex -6.670952e-01 -1.015873e+00  3.065758e-02
   endloop
 endfacet
 facet normal  0.000000e+00 -1.000000e+00  0.000000e+00
   outer loop
     vertex -8.170694e-01 -1.015873e+00  2.293576e-01
     vertex -8.927460e-01 -1.015873e+00  2.936728e-01
     vertex -8.932585e-01 -1.015873e+00  2.558060e-01
   endloop
 endfacet
 facet normal -0.000000e+00 -1.000000e+00  0.000000e+00
   outer loop
     vertex -8.170694e-01 -1.015873e+00  2.293576e-01
     vertex -8.932585e-01 -1.015873e+00  2.558060e-01
     vertex -8.900337e-01 -1.015873e+00  2.180732e-01
   endloop
 endfacet
 facet normal  0.000000e+00 -1.000000e+00  0.000000e+00
   outer loop
     vertex -8.170694e-01 -1.015873e+00  2.293576e-01
     vertex -8.900337e-01 -1.015873e+00  2.180732e-01
     vertex -8.831031e-01 -1.015873e+00  1.808425e-01
   endloop
 endfacet
 facet normal  0.000000e+00 -1.000000e+00  0.000000e+00
   outer loop
     vertex -8.170694e-01 -1.015873e+00  2.293576e-01
     vertex -8.831031e-01 -1.015873e+00  1.808425e-01
     vertex -8.725342e-01 -1.015873e+00  1.444769e-01
   endloop
 endfacet
 facet normal  0.000000e+00 -1.000000e+00 -0.000000e+00
   outer loop
     vertex -8.170694e-01 -1.015873e+00  2.293576e-01
     vertex -8.725342e-01 -1.015873e+00  1.444769e-01
     vertex -7.432538e-01 -1.015873e+00  1.291234e-01
   endloop
 endfacet
 facet normal  0.000000e+00 -1.000000e+00 -0.000000e+00
   outer loop
     vertex -8.885011e-01 -1.015873e+00  3.313044e-01
     vertex -8.927460e-01 -1.015873e+00  2.936728e-01
     vertex -8.170694e-01 -1.015873e+00  2.293576e-01
   endloop
 endfacet
 facet normal  0.000000e+00 -1.000000e+00 -0.000000e+00
   outer loop
     vertex -7.094858e-01 -1.015873e+00 -5.797736e-02
     vertex -7.805011e-01 -1.015873e+00 -4.016788e-01
     vertex -6.330335e-01 -1.015873e+00 -2.937557e-01
   endloop
 endfacet
 facet normal  0.000000e+00 -1.000000e+00  0.000000e+00
   outer loop
     vertex -7.094858e-01 -1.015873e+00 -5.797736e-02
     vertex -9.264550e-01 -1.015873e+00 -5.116403e-01
     vertex -7.805011e-01 -1.015873e+00 -4.016788e-01
   endloop
 endfacet
 facet normal -0.000000e+00 -1.000000e+00 -0.000000e+00
   outer loop
     vertex -6.797626e-01 -1.015873e+00 -7.432297e-02
     vertex -7.094858e-01 -1.015873e+00 -5.797736e-02
     vertex -6.330335e-01 -1.015873e+00 -2.937557e-01
   endloop
 endfacet
 facet normal -0.000000e+00 -1.000000e+00 -0.000000e+00
   outer loop
     vertex -6.487113e-01 -1.015873e+00 -8.797811e-02
     vertex -6.797626e-01 -1.015873e+00 -7.432297e-02
     vertex -6.330335e-01 -1.015873e+00 -2.937557e-01
   endloop
 endfacet
 facet normal -0.000000e+00 -1.000000e+00  0.000000e+00
   outer loop
     vertex -6.165748e-01 -1.015873e+00 -9.883594e-02
     vertex -6.487113e-01 -1.015873e+00 -8.797811e-02
     vertex -6.330335e-01 -1.015873e+00 -2.937557e-01
   endloop
 endfacet
 facet normal -0.000000e+00 -1.000000e+00  0.000000e+00
   outer loop
     vertex -5.836046e-01 -1.015873e+00 -1.068115e-01
     vertex -6.165748e-01 -1.015873e+00 -9.883594e-02
     vertex -6.330335e-01 -1.015873e+00 -2.937557e-01
   endloop
 endfacet
 facet normal  0.000000e+00 -1.000000e+00 -0.000000e+00
   outer loop
     vertex -5.062343e-01 -1.015873e+00 -1.626821e-01
     vertex -6.330335e-01 -1.015873e+00 -2.937557e-01
     vertex -4.840807e-01 -1.015873e+00 -1.878919e-01
   endloop
 endfacet
 facet normal -0.000000e+00 -1.000000e+00  0.000000e+00
   outer loop
     vertex -5.282272e-01 -1.015873e+00 -1.373319e-01
     vertex -5.836046e-01 -1.015873e+00 -1.068115e-01
     vertex -6.330335e-01 -1.015873e+00 -2.937557e-01
   endloop
 endfacet
 facet normal  0.000000e+00 -1.000000e+00 -0.000000e+00
   outer loop
     vertex -5.282272e-01 -1.015873e+00 -1.373319e-01
     vertex -6.330335e-01 -1.015873e+00 -2.937557e-01
     vertex -5.062343e-01 -1.015873e+00 -1.626821e-01
   endloop
 endfacet
 facet normal -0.000000e+00 -1.000000e+00 -0.000000e+00
   outer loop
     vertex -5.500585e-01 -1.015873e+00 -1.118424e-01
     vertex -5.836046e-01 -1.015873e+00 -1.068115e-01
     vertex -5.282272e-01 -1.015873e+00 -1.373319e-01
   endloop
 endfacet
 facet normal  6.695863e-01  0.000000e+00  7.427343e-01
   outer loop
     vertex -1.134485e-01 -1.587302e-02 -5.667948e-01
     vertex -1.499113e-02 -1.015873e+00 -6.555556e-01
     vertex -1.499113e-02 -1.587302e-02 -6.555556e-01
   endloop
 endfacet
 facet normal  6.695863e-01  0.000000e+00  7.427343e-01
   outer loop
     vertex -1.134485e-01 -1.587302e-02 -5.667948e-01
     vertex -1.134485e-01 -1.015873e+00 -5.667948e-01
     vertex -1.499113e-02 -1.015873e+00 -6.555556e-01
   endloop
 endfacet
 facet normal  6.880249e-01  0.000000e+00  7.256871e-01
   outer loop
     vertex -2.096460e-01 -1.587302e-02 -4.755898e-01
     vertex -2.096460e-01 -1.015873e+00 -4.755898e-01
     vertex -1.134485e-01 -1.015873e+00 -5.667948e-01
   endloop
 endfacet
 facet normal  6.880249e-01  0.000000e+00  7.256871e-01
   outer loop
     vertex -2.096460e-01 -1.587302e-02 -4.755898e-01
     vertex -1.134485e-01 -1.015873e+00 -5.667948e-01
     vertex -1.134485e-01 -1.587302e-02 -5.667948e-01
   endloop
 endfacet
 facet normal  7.060297e-01  0.000000e+00  7.081823e-01
   outer loop
     vertex -3.035231e-01 -1.587302e-02 -3.819980e-01
     vertex -3.035231e-01 -1.015873e+00 -3.819980e-01
     vertex -2.096460e-01 -1.015873e+00 -4.755898e-01
   endloop
 endfacet
 facet normal  7.060297e-01  0.000000e+00  7.081823e-01
   outer loop
     vertex -3.035231e-01 -1.587302e-02 -3.819980e-01
     vertex -2.096460e-01 -1.015873e+00 -4.755898e-01
     vertex -2.096460e-01 -1.587302e-02 -4.755898e-01
   endloop
 endfacet
 facet normal  7.235892e-01  0.000000e+00  6.902309e-01
   outer loop
     vertex -3.950206e-01 -1.587302e-02 -2.860786e-01
     vertex -3.950206e-01 -1.015873e+00 -2.860786e-01
     vertex -3.035231e-01 -1.015873e+00 -3.819980e-01
   endloop
 endfacet
 facet normal  7.235892e-01  0.000000e+00  6.902309e-01
   outer loop
     vertex -3.950206e-01 -1.587302e-02 -2.860786e-01
     vertex -3.035231e-01 -1.015873e+00 -3.819980e-01
     vertex -3.035231e-01 -1.587302e-02 -3.819980e-01
   endloop
 endfacet
 facet normal  7.406925e-01  0.000000e+00  6.718442e-01
   outer loop
     vertex -4.840807e-01 -1.587302e-02 -1.878919e-01
     vertex -4.840807e-01 -1.015873e+00 -1.878919e-01
     vertex -3.950206e-01 -1.015873e+00 -2.860786e-01
   endloop
 endfacet
 facet normal  7.406925e-01  0.000000e+00  6.718442e-01
   outer loop
     vertex -4.840807e-01 -1.587302e-02 -1.878919e-01
     vertex -3.950206e-01 -1.015873e+00 -2.860786e-01
     vertex -3.950206e-01 -1.587302e-02 -2.860786e-01
   endloop
 endfacet
 facet normal -1.157163e-16  0.000000e+00 -1.000000e+00
   outer loop
     vertex -1.499113e-02 -1.587302e-02 -6.555556e-01
     vertex -9.744268e-01 -1.015873e+00 -6.555556e-01
     vertex -9.744268e-01 -1.587302e-02 -6.555556e-01
   endloop
 endfacet
 facet normal -1.157163e-16 -0.000000e+00 -1.000000e+00
   outer loop
     vertex -1.499113e-02 -1.587302e-02 -6.555556e-01
     vertex -1.499113e-02 -1.015873e+00 -6.555556e-01
     vertex -9.744268e-01 -1.015873e+00 -6.555556e-01
   endloop
 endfacet
 facet normal  8.645356e-01  0.000000e+00 -5.025716e-01
   outer loop
     vertex -1.693349e-01 -1.587302e-02  9.346317e-02
     vertex -1.884082e-01 -1.015873e+00  6.065277e-02
     vertex -1.884082e-01 -1.587302e-02  6.065277e-02
   endloop
 endfacet
 facet normal  8.645356e-01  0.000000e+00 -5.025716e-01
   outer loop
     vertex -1.693349e-01 -1.587302e-02  9.346317e-02
     vertex -1.693349e-01 -1.015873e+00  9.346317e-02
     vertex -1.884082e-01 -1.015873e+00  6.065277e-02
   endloop
 endfacet
 facet normal  9.099768e-01  0.000000e+00 -4.146591e-01
   outer loop
     vertex -1.535980e-01 -1.587302e-02  1.279981e-01
     vertex -1.535980e-01 -1.015873e+00  1.279981e-01
     vertex -1.693349e-01 -1.015873e+00  9.346317e-02
   endloop
 endfacet
 facet normal  9.099768e-01  0.000000e+00 -4.146591e-01
   outer loop
     vertex -1.535980e-01 -1.587302e-02  1.279981e-01
     vertex -1.693349e-01 -1.015873e+00  9.346317e-02
     vertex -1.693349e-01 -1.587302e-02  9.346317e-02
   endloop
 endfacet
 facet normal  9.465062e-01  0.000000e+00 -3.226857e-01
   outer loop
     vertex -1.413516e-01 -1.587302e-02  1.639194e-01
     vertex -1.413516e-01 -1.015873e+00  1.639194e-01
     vertex -1.535980e-01 -1.015873e+00  1.279981e-01
   endloop
 endfacet
 facet normal  9.465062e-01  0.000000e+00 -3.226857e-01
   outer loop
     vertex -1.413516e-01 -1.587302e-02  1.639194e-01
     vertex -1.535980e-01 -1.015873e+00  1.279981e-01
     vertex -1.535980e-01 -1.587302e-02  1.279981e-01
   endloop
 endfacet
 facet normal  9.737659e-01  0.000000e+00 -2.275520e-01
   outer loop
     vertex -1.327156e-01 -1.587302e-02  2.008753e-01
     vertex -1.327156e-01 -1.015873e+00  2.008753e-01
     vertex -1.413516e-01 -1.015873e+00  1.639194e-01
   endloop
 endfacet
 facet normal  9.737659e-01  0.000000e+00 -2.275520e-01
   outer loop
     vertex -1.327156e-01 -1.587302e-02  2.008753e-01
     vertex -1.413516e-01 -1.015873e+00  1.639194e-01
     vertex -1.413516e-01 -1.587302e-02  1.639194e-01
   endloop
 endfacet
 facet normal  9.914891e-01  0.000000e+00 -1.301897e-01
   outer loop
     vertex -1.277748e-01 -1.587302e-02  2.385038e-01
     vertex -1.277748e-01 -1.015873e+00  2.385038e-01
     vertex -1.327156e-01 -1.015873e+00  2.008753e-01
   endloop
 endfacet
 facet normal  9.914891e-01  0.000000e+00 -1.301897e-01
   outer loop
     vertex -1.277748e-01 -1.587302e-02  2.385038e-01
     vertex -1.327156e-01 -1.015873e+00  2.008753e-01
     vertex -1.327156e-01 -1.587302e-02  2.008753e-01
   endloop
 endfacet
 facet normal  9.995021e-01  0.000000e+00 -3.155249e-02
   outer loop
     vertex -1.265773e-01 -1.587302e-02  2.764364e-01
     vertex -1.265773e-01 -1.015873e+00  2.764364e-01
     vertex -1.277748e-01 -1.015873e+00  2.385038e-01
   endloop
 endfacet
 facet normal  9.995021e-01  0.000000e+00 -3.155249e-02
   outer loop
     vertex -1.265773e-01 -1.587302e-02  2.764364e-01
     vertex -1.277748e-01 -1.015873e+00  2.385038e-01
     vertex -1.277748e-01 -1.587302e-02  2.385038e-01
   endloop
 endfacet
 facet normal  9.977265e-01  0.000000e+00  6.739377e-02
   outer loop
     vertex -1.291350e-01 -1.587302e-02  3.143016e-01
     vertex -1.291350e-01 -1.015873e+00  3.143016e-01
     vertex -1.265773e-01 -1.015873e+00  2.764364e-01
   endloop
 endfacet
 facet normal  9.977265e-01  0.000000e+00  6.739377e-02
   outer loop
     vertex -1.291350e-01 -1.587302e-02  3.143016e-01
     vertex -1.265773e-01 -1.015873e+00  2.764364e-01
     vertex -1.265773e-01 -1.587302e-02  2.764364e-01
   endloop
 endfacet
 facet normal  9.861796e-01  0.000000e+00  1.656800e-01
   outer loop
     vertex -1.354228e-01 -1.587302e-02  3.517285e-01
     vertex -1.354228e-01 -1.015873e+00  3.517285e-01
     vertex -1.291350e-01 -1.015873e+00  3.143016e-01
   endloop
 endfacet
 facet normal  9.861796e-01  0.000000e+00  1.656800e-01
   outer loop
     vertex -1.354228e-01 -1.587302e-02  3.517285e-01
     vertex -1.291350e-01 -1.015873e+00  3.143016e-01
     vertex -1.291350e-01 -1.587302e-02  3.143016e-01
   endloop
 endfacet
 facet normal  9.649745e-01  0.000000e+00  2.623436e-01
   outer loop
     vertex -1.453791e-01 -1.587302e-02  3.883507e-01
     vertex -1.453791e-01 -1.015873e+00  3.883507e-01
     vertex -1.354228e-01 -1.015873e+00  3.517285e-01
   endloop
 endfacet
 facet normal  9.649745e-01  0.000000e+00  2.623436e-01
   outer loop
     vertex -1.453791e-01 -1.587302e-02  3.883507e-01
     vertex -1.354228e-01 -1.015873e+00  3.517285e-01
     vertex -1.354228e-01 -1.587302e-02  3.517285e-01
   endloop
 endfacet
 facet normal  9.343190e-01  0.000000e+00  3.564380e-01
   outer loop
     vertex -1.589065e-01 -1.587302e-02  4.238095e-01
     vertex -1.589065e-01 -1.015873e+00  4.238095e-01
     vertex -1.453791e-01 -1.015873e+00  3.883507e-01
   endloop
 endfacet
 facet normal  9.343190e-01  0.000000e+00  3.564380e-01
   outer loop
     vertex -1.589065e-01 -1.587302e-02  4.238095e-01
     vertex -1.453791e-01 -1.015873e+00  3.883507e-01
     vertex -1.453791e-01 -1.587302e-02  3.883507e-01
   endloop
 endfacet
 facet normal -6.651901e-02  0.000000e+00  9.977852e-01
   outer loop
     vertex -8.784832e-01 -1.587302e-02  3.758377e-01
     vertex -1.589065e-01 -1.587302e-02  4.238095e-01
     vertex -1.589065e-01  0.000000e+00  4.238095e-01
   endloop
 endfacet
 facet normal -6.651901e-02  0.000000e+00  9.977852e-01
   outer loop
     vertex -8.784832e-01 -1.587302e-02  3.758377e-01
     vertex -1.589065e-01  0.000000e+00  4.238095e-01
     vertex -8.784832e-01  0.000000e+00  3.758377e-01
   endloop
 endfacet
 facet normal  0.000000e+00  1.000000e+00  0.000000e+00
   outer loop
     vertex -7.432538e-01  6.591949e-17  1.291234e-01
     vertex -6.626102e-01  6.591949e-17  4.003529e-02
     vertex -6.670952e-01  6.591949e-17  3.065758e-02
   endloop
 endfacet
 facet normal  0.000000e+00  1.000000e+00  0.000000e+00
   outer loop
     vertex -8.857522e-01  6.591949e-17  3.462776e-01
     vertex -8.170694e-01  6.591949e-17  2.293576e-01
     vertex -8.885011e-01  6.591949e-17  3.313044e-01
   endloop
 endfacet
 facet normal  0.000000e+00  1.000000e+00  0.000000e+00
   outer loop
     vertex -8.824111e-01  6.591949e-17  3.611298e-01
     vertex -8.170694e-01  6.591949e-17  2.293576e-01
     vertex -8.857522e-01  6.591949e-17  3.462776e-01
   endloop
 endfacet
 facet normal  0.000000e+00  1.000000e+00  0.000000e+00
   outer loop
     vertex -8.784832e-01  6.591949e-17  3.758377e-01
     vertex -8.170694e-01  6.591949e-17  2.293576e-01
     vertex -8.824111e-01  6.591949e-17  3.611298e-01
   endloop
 endfacet
 facet normal  0.000000e+00  1.000000e+00  0.000000e+00
   outer loop
     vertex -1.693349e-01  6.591949e-17  9.346317e-02
     vertex -1.884082e-01  6.591949e-17  6.065277e-02
     vertex -6.626102e-01  6.591949e-17  4.003529e-02
   endloop
 endfacet
 facet normal  0.000000e+00  1.000000e+00  0.000000e+00
   outer loop
     vertex -1.535980e-01  6.591949e-17  1.279981e-01
     vertex -1.693349e-01  6.591949e-17  9.346317e-02
     vertex -6.626102e-01  6.591949e-17  4.003529e-02
   endloop
 endfacet
 facet normal  0.000000e+00  1.000000e+00  0.000000e+00
   outer loop
     vertex -1.413516e-01  6.591949e-17  1.639194e-01
     vertex -1.535980e-01  6.591949e-17  1.279981e-01
     vertex -6.626102e-01  6.591949e-17  4.003529e-02
   endloop
 endfacet
 facet normal  0.000000e+00  1.000000e+00  0.000000e+00
   outer loop
     vertex -1.327156e-01  6.591949e-17  2.008753e-01
     vertex -1.413516e-01  6.591949e-17  1.639194e-01
     vertex -6.626102e-01  6.591949e-17  4.003529e-02
   endloop
 endfacet
 facet normal  0.000000e+00  1.000000e+00  0.000000e+00
   outer loop
     vertex -1.277748e-01  6.591949e-17  2.385038e-01
     vertex -1.327156e-01  6.591949e-17  2.008753e-01
     vertex -6.626102e-01  6.591949e-17  4.003529e-02
   endloop
 endfacet
 facet normal  0.000000e+00  1.000000e+00  0.000000e+00
   outer loop
     vertex -1.265773e-01  6.591949e-17  2.764364e-01
     vertex -1.277748e-01  6.591949e-17  2.385038e-01
     vertex -6.626102e-01  6.591949e-17  4.003529e-02
   endloop
 endfacet
 facet normal  0.000000e+00  1.000000e+00  0.000000e+00
   outer loop
     vertex -1.291350e-01  6.591949e-17  3.143016e-01
     vertex -1.265773e-01  6.591949e-17  2.764364e-01
     vertex -6.626102e-01  6.591949e-17  4.003529e-02
   endloop
 endfacet
 facet normal  0.000000e+00  1.000000e+00  0.000000e+00
   outer loop
     vertex -1.354228e-01  6.591949e-17  3.517285e-01
     vertex -1.291350e-01  6.591949e-17  3.143016e-01
     vertex -6.626102e-01  6.591949e-17  4.003529e-02
   endloop
 endfacet
 facet normal  0.000000e+00  1.000000e+00  0.000000e+00
   outer loop
     vertex -1.453791e-01  6.591949e-17  3.883507e-01
     vertex -1.354228e-01  6.591949e-17  3.517285e-01
     vertex -6.626102e-01  6.591949e-17  4.003529e-02
   endloop
 endfacet
 facet normal  0.000000e+00  1.000000e+00  0.000000e+00
   outer loop
     vertex -1.589065e-01  6.591949e-17  4.238095e-01
     vertex -7.432538e-01  6.591949e-17  1.291234e-01
     vertex -8.170694e-01  6.591949e-17  2.293576e-01
   endloop
 endfacet
 facet normal  0.000000e+00  1.000000e+00  0.000000e+00
   outer loop
     vertex -1.589065e-01  6.591949e-17  4.238095e-01
     vertex -6.626102e-01  6.591949e-17  4.003529e-02
     vertex -7.432538e-01  6.591949e-17  1.291234e-01
   endloop
 endfacet
 facet normal  0.000000e+00  1.000000e+00  0.000000e+00
   outer loop
     vertex -1.589065e-01  6.591949e-17  4.238095e-01
     vertex -8.170694e-01  6.591949e-17  2.293576e-01
     vertex -8.784832e-01  6.591949e-17  3.758377e-01
   endloop
 endfacet
 facet normal  0.000000e+00  1.000000e+00  0.000000e+00
   outer loop
     vertex -1.589065e-01  6.591949e-17  4.238095e-01
     vertex -1.453791e-01  6.591949e-17  3.883507e-01
     vertex -6.626102e-01  6.591949e-17  4.003529e-02
   endloop
 endfacet
 facet normal  0.000000e+00 -1.000000e+00  0.000000e+00
   outer loop
     vertex -5.118051e-01 -1.015873e+00 -1.139351e-01
     vertex -5.896230e-01 -1.015873e+00 -6.479780e-02
     vertex -5.500585e-01 -1.015873e+00 -1.118424e-01
   endloop
 endfacet
 facet normal  0.000000e+00 -1.000000e+00 -0.000000e+00
   outer loop
     vertex -6.626102e-01 -1.015873e+00  4.003529e-02
     vertex -6.670952e-01 -1.015873e+00  3.065758e-02
     vertex -6.286370e-01 -1.015873e+00 -1.729564e-02
   endloop
 endfacet
 facet normal -0.000000e+00 -1.000000e+00  0.000000e+00
   outer loop
     vertex -4.735337e-01 -1.015873e+00 -1.122006e-01
     vertex -5.896230e-01 -1.015873e+00 -6.479780e-02
     vertex -5.118051e-01 -1.015873e+00 -1.139351e-01
   endloop
 endfacet
 facet normal  0.000000e+00 -1.000000e+00  0.000000e+00
   outer loop
     vertex -4.356263e-01 -1.015873e+00 -1.066562e-01
     vertex -6.286370e-01 -1.015873e+00 -1.729564e-02
     vertex -5.896230e-01 -1.015873e+00 -6.479780e-02
   endloop
 endfacet
 facet normal -0.000000e+00 -1.000000e+00  0.000000e+00
   outer loop
     vertex -4.356263e-01 -1.015873e+00 -1.066562e-01
     vertex -5.896230e-01 -1.015873e+00 -6.479780e-02
     vertex -4.735337e-01 -1.015873e+00 -1.122006e-01
   endloop
 endfacet
 facet normal -0.000000e+00 -1.000000e+00  0.000000e+00
   outer loop
     vertex -3.984613e-01 -1.015873e+00 -9.735738e-02
     vertex -6.286370e-01 -1.015873e+00 -1.729564e-02
     vertex -4.356263e-01 -1.015873e+00 -1.066562e-01
   endloop
 endfacet
 facet normal  0.000000e+00 -1.000000e+00  0.000000e+00
   outer loop
     vertex -3.624095e-01 -1.015873e+00 -8.439682e-02
     vertex -6.626102e-01 -1.015873e+00  4.003529e-02
     vertex -6.286370e-01 -1.015873e+00 -1.729564e-02
   endloop
 endfacet
 facet normal -0.000000e+00 -1.000000e+00  0.000000e+00
   outer loop
     vertex -3.624095e-01 -1.015873e+00 -8.439682e-02
     vertex -6.286370e-01 -1.015873e+00 -1.729564e-02
     vertex -3.984613e-01 -1.015873e+00 -9.735738e-02
   endloop
 endfacet
 facet normal -0.000000e+00 -1.000000e+00  0.000000e+00
   outer loop
     vertex -3.278307e-01 -1.015873e+00 -6.790389e-02
     vertex -6.626102e-01 -1.015873e+00  4.003529e-02
     vertex -3.624095e-01 -1.015873e+00 -8.439682e-02
   endloop
 endfacet
 facet normal -0.000000e+00 -1.000000e+00  0.000000e+00
   outer loop
     vertex -2.950700e-01 -1.015873e+00 -4.804319e-02
     vertex -6.626102e-01 -1.015873e+00  4.003529e-02
     vertex -3.278307e-01 -1.015873e+00 -6.790389e-02
   endloop
 endfacet
 facet normal -0.000000e+00 -1.000000e+00  0.000000e+00
   outer loop
     vertex -2.644544e-01 -1.015873e+00 -2.501293e-02
     vertex -6.626102e-01 -1.015873e+00  4.003529e-02
     vertex -2.950700e-01 -1.015873e+00 -4.804319e-02
   endloop
 endfacet
 facet normal -0.000000e+00 -1.000000e+00  0.000000e+00
   outer loop
     vertex -2.362894e-01 -1.015873e+00  9.570605e-04
     vertex -6.626102e-01 -1.015873e+00  4.003529e-02
     vertex -2.644544e-01 -1.015873e+00 -2.501293e-02
   endloop
 endfacet
 facet normal -0.000000e+00 -1.000000e+00  0.000000e+00
   outer loop
     vertex -2.108561e-01 -1.015873e+00  2.960760e-02
     vertex -6.626102e-01 -1.015873e+00  4.003529e-02
     vertex -2.362894e-01 -1.015873e+00  9.570605e-04
   endloop
 endfacet
 facet normal  0.000000e+00 -1.000000e+00  0.000000e+00
   outer loop
     vertex -1.884082e-01 -1.015873e+00  6.065277e-02
     vertex -6.626102e-01 -1.015873e+00  4.003529e-02
     vertex -2.108561e-01 -1.015873e+00  2.960760e-02
   endloop
 endfacet
 facet normal -9.997418e-01  0.000000e+00 -2.272138e-02
   outer loop
     vertex -9.744268e-01 -1.587302e-02 -6.555556e-01
     vertex -9.984127e-01 -1.587302e-02  3.998236e-01
     vertex -9.984127e-01  0.000000e+00  3.998236e-01
   endloop
 endfacet
 facet normal -9.997418e-01  0.000000e+00 -2.272138e-02
   outer loop
     vertex -9.744268e-01 -1.587302e-02 -6.555556e-01
     vertex -9.984127e-01  0.000000e+00  3.998236e-01
     vertex -9.744268e-01  0.000000e+00 -6.555556e-01
   endloop
 endfacet
 facet normal  0.000000e+00  1.000000e+00  0.000000e+00
   outer loop
     vertex -6.670952e-01  6.591949e-17  3.065758e-02
     vertex -7.698990e-01  6.591949e-17 -1.244825e-02
     vertex -7.964459e-01  6.591949e-17  1.455958e-02
   endloop
 endfacet
 facet normal  0.000000e+00  1.000000e+00  0.000000e+00
   outer loop
     vertex -6.670952e-01  6.591949e-17  3.065758e-02
     vertex -7.408178e-01  6.591949e-17 -3.670609e-02
     vertex -7.698990e-01  6.591949e-17 -1.244825e-02
   endloop
 endfacet
 facet normal  0.000000e+00  1.000000e+00  0.000000e+00
   outer loop
     vertex -6.670952e-01  6.591949e-17  3.065758e-02
     vertex -7.094858e-01  6.591949e-17 -5.797736e-02
     vertex -7.408178e-01  6.591949e-17 -3.670609e-02
   endloop
 endfacet
 facet normal  0.000000e+00  1.000000e+00  0.000000e+00
   outer loop
     vertex -7.432538e-01  6.591949e-17  1.291234e-01
     vertex -8.584301e-01  6.591949e-17  1.093310e-01
     vertex -8.725342e-01  6.591949e-17  1.444769e-01
   endloop
 endfacet
 facet normal  0.000000e+00  1.000000e+00  0.000000e+00
   outer loop
     vertex -7.432538e-01  6.591949e-17  1.291234e-01
     vertex -8.409283e-01  6.591949e-17  7.574754e-02
     vertex -8.584301e-01  6.591949e-17  1.093310e-01
   endloop
 endfacet
 facet normal  0.000000e+00  1.000000e+00  0.000000e+00
   outer loop
     vertex -7.432538e-01  6.591949e-17  1.291234e-01
     vertex -8.201995e-01  6.591949e-17  4.405406e-02
     vertex -8.409283e-01  6.591949e-17  7.574754e-02
   endloop
 endfacet
 facet normal  0.000000e+00  1.000000e+00  0.000000e+00
   outer loop
     vertex -7.432538e-01  6.591949e-17  1.291234e-01
     vertex -7.964459e-01  6.591949e-17  1.455958e-02
     vertex -8.201995e-01  6.591949e-17  4.405406e-02
   endloop
 endfacet
 facet normal  0.000000e+00  1.000000e+00  0.000000e+00
   outer loop
     vertex -7.432538e-01  6.591949e-17  1.291234e-01
     vertex -6.670952e-01  6.591949e-17  3.065758e-02
     vertex -7.964459e-01  6.591949e-17  1.455958e-02
   endloop
 endfacet
 facet normal  0.000000e+00  1.000000e+00  0.000000e+00
   outer loop
     vertex -8.170694e-01  6.591949e-17  2.293576e-01
     vertex -8.932585e-01  6.591949e-17  2.558060e-01
     vertex -8.927460e-01  6.591949e-17  2.936728e-01
   endloop
 endfacet
 facet normal  0.000000e+00  1.000000e+00  0.000000e+00
   outer loop
     vertex -8.170694e-01  6.591949e-17  2.293576e-01
     vertex -8.900337e-01  6.591949e-17  2.180732e-01
     vertex -8.932585e-01  6.591949e-17  2.558060e-01
   endloop
 endfacet
 facet normal  0.000000e+00  1.000000e+00  0.000000e+00
   outer loop
     vertex -8.170694e-01  6.591949e-17  2.293576e-01
     vertex -8.831031e-01  6.591949e-17  1.808425e-01
     vertex -8.900337e-01  6.591949e-17  2.180732e-01
   endloop
 endfacet
 facet normal  0.000000e+00  1.000000e+00  0.000000e+00
   outer loop
     vertex -8.170694e-01  6.591949e-17  2.293576e-01
     vertex -8.725342e-01  6.591949e-17  1.444769e-01
     vertex -8.831031e-01  6.591949e-17  1.808425e-01
   endloop
 endfacet
 facet normal  0.000000e+00  1.000000e+00  0.000000e+00
   outer loop
     vertex -8.170694e-01  6.591949e-17  2.293576e-01
     vertex -7.432538e-01  6.591949e-17  1.291234e-01
     vertex -8.725342e-01  6.591949e-17  1.444769e-01
   endloop
 endfacet
 facet normal  0.000000e+00  1.000000e+00  0.000000e+00
   outer loop
     vertex -8.885011e-01  6.591949e-17  3.313044e-01
     vertex -8.170694e-01  6.591949e-17  2.293576e-01
     vertex -8.927460e-01  6.591949e-17  2.936728e-01
   endloop
 endfacet
 facet normal  0.000000e+00  1.000000e+00  0.000000e+00
   outer loop
     vertex -7.094858e-01  6.591949e-17 -5.797736e-02
     vertex -6.330335e-01  6.591949e-17 -2.937557e-01
     vertex -7.805011e-01  6.591949e-17 -4.016788e-01
   endloop
 endfacet
 facet normal  0.000000e+00  1.000000e+00  0.000000e+00
   outer loop
     vertex -7.094858e-01  6.591949e-17 -5.797736e-02
     vertex -7.805011e-01  6.591949e-17 -4.016788e-01
     vertex -9.264550e-01  6.591949e-17 -5.116403e-01
   endloop
 endfacet
 facet normal  0.000000e+00  1.000000e+00  0.000000e+00
   outer loop
     vertex -6.797626e-01  6.591949e-17 -7.432297e-02
     vertex -6.330335e-01  6.591949e-17 -2.937557e-01
     vertex -7.094858e-01  6.591949e-17 -5.797736e-02
   endloop
 endfacet
 facet normal  0.000000e+00  1.000000e+00  0.000000e+00
   outer loop
     vertex -6.487113e-01  6.591949e-17 -8.797811e-02
     vertex -6.330335e-01  6.591949e-17 -2.937557e-01
     vertex -6.797626e-01  6.591949e-17 -7.432297e-02
   endloop
 endfacet
 facet normal  0.000000e+00  1.000000e+00  0.000000e+00
   outer loop
     vertex -6.165748e-01  6.591949e-17 -9.883594e-02
     vertex -6.330335e-01  6.591949e-17 -2.937557e-01
     vertex -6.487113e-01  6.591949e-17 -8.797811e-02
   endloop
 endfacet
 facet normal  0.000000e+00  1.000000e+00  0.000000e+00
   outer loop
     vertex -5.836046e-01  6.591949e-17 -1.068115e-01
     vertex -6.330335e-01  6.591949e-17 -2.937557e-01
     vertex -6.165748e-01  6.591949e-17 -9.883594e-02
   endloop
 endfacet
 facet normal  0.000000e+00  1.000000e+00  0.000000e+00
   outer loop
     vertex -5.062343e-01  6.591949e-17 -1.626821e-01
     vertex -4.840807e-01  6.591949e-17 -1.878919e-01
     vertex -6.330335e-01  6.591949e-17 -2.937557e-01
   endloop
 endfacet
 facet normal  0.000000e+00  1.000000e+00  0.000000e+00
   outer loop
     vertex -5.282272e-01  6.591949e-17 -1.373319e-01
     vertex -6.330335e-01  6.591949e-17 -2.937557e-01
     vertex -5.836046e-01  6.591949e-17 -1.068115e-01
   endloop
 endfacet
 facet normal  0.000000e+00  1.000000e+00  0.000000e+00
   outer loop
     vertex -5.282272e-01  6.591949e-17 -1.373319e-01
     vertex -5.062343e-01  6.591949e-17 -1.626821e-01
     vertex -6.330335e-01  6.591949e-17 -2.937557e-01
   endloop
 endfacet
 facet normal  0.000000e+00  1.000000e+00  0.000000e+00
   outer loop
     vertex -5.500585e-01  6.591949e-17 -1.118424e-01
     vertex -5.282272e-01  6.591949e-17 -1.373319e-01
     vertex -5.836046e-01  6.591949e-17 -1.068115e-01
   endloop
 endfacet
 facet normal  6.695863e-01  0.000000e+00  7.427343e-01
   outer loop
     vertex -1.134485e-01 -1.587302e-02 -5.667948e-01
     vertex -1.499113e-02 -1.587302e-02 -6.555556e-01
     vertex -1.499113e-02  0.000000e+00 -6.555556e-01
   endloop
 endfacet
 facet normal  6.695863e-01 -0.000000e+00  7.427343e-01
   outer loop
     vertex -1.134485e-01 -1.587302e-02 -5.667948e-01
     vertex -1.499113e-02  0.000000e+00 -6.555556e-01
     vertex -1.134485e-01  0.000000e+00 -5.667948e-01
   endloop
 endfacet
 facet normal  6.880249e-01 -0.000000e+00  7.256871e-01
   outer loop
     vertex -2.096460e-01 -1.587302e-02 -4.755898e-01
     vertex -1.134485e-01  0.000000e+00 -5.667948e-01
     vertex -2.096460e-01  0.000000e+00 -4.755898e-01
   endloop
 endfacet
 facet normal  6.880249e-01  0.000000e+00  7.256871e-01
   outer loop
     vertex -2.096460e-01 -1.587302e-02 -4.755898e-01
     vertex -1.134485e-01 -1.587302e-02 -5.667948e-01
     vertex -1.134485e-01  0.000000e+00 -5.667948e-01
   endloop
 endfacet
 facet normal  7.060297e-01 -0.000000e+00  7.081823e-01
   outer loop
     vertex -3.035231e-01 -1.587302e-02 -3.819980e-01
     vertex -2.096460e-01  0.000000e+00 -4.755898e-01
     vertex -3.035231e-01  0.000000e+00 -3.819980e-01
   endloop
 endfacet
 facet normal  7.060297e-01  0.000000e+00  7.081823e-01
   outer loop
     vertex -3.035231e-01 -1.587302e-02 -3.819980e-01
     vertex -2.096460e-01 -1.587302e-02 -4.755898e-01
     vertex -2.096460e-01  0.000000e+00 -4.755898e-01
   endloop
 endfacet
 facet normal  7.235892e-01 -0.000000e+00  6.902309e-01
   outer loop
     vertex -3.950206e-01 -1.587302e-02 -2.860786e-01
     vertex -3.035231e-01  0.000000e+00 -3.819980e-01
     vertex -3.950206e-01  0.000000e+00 -2.860786e-01
   endloop
 endfacet
 facet normal  7.235892e-01  0.000000e+00  6.902309e-01
   outer loop
     vertex -3.950206e-01 -1.587302e-02 -2.860786e-01
     vertex -3.035231e-01 -1.587302e-02 -3.819980e-01
     vertex -3.035231e-01  0.000000e+00 -3.819980e-01
   endloop
 endfacet
 facet normal  7.406925e-01 -0.000000e+00  6.718442e-01
   outer loop
     vertex -4.840807e-01 -1.587302e-02 -1.878919e-01
     vertex -3.950206e-01  0.000000e+00 -2.860786e-01
     vertex -4.840807e-01  0.000000e+00 -1.878919e-01
   endloop
 endfacet
 facet normal  7.406925e-01  0.000000e+00  6.718442e-01
   outer loop
     vertex -4.840807e-01 -1.587302e-02 -1.878919e-01
     vertex -3.950206e-01 -1.587302e-02 -2.860786e-01
     vertex -3.950206e-01  0.000000e+00 -2.860786e-01
   endloop
 endfacet
 facet normal -1.157163e-16  0.000000e+00 -1.000000e+00
   outer loop
     vertex -1.499113e-02 -1.587302e-02 -6.555556e-01
     vertex -9.744268e-01 -1.587302e-02 -6.555556e-01
     vertex -9.744268e-01  0.000000e+00 -6.555556e-01
   endloop
 endfacet
 facet normal -1.157163e-16  0.000000e+00 -1.000000e+00
   outer loop
     vertex -1.499113e-02 -1.587302e-02 -6.555556e-01
     vertex -9.744268e-01  0.000000e+00 -6.555556e-01
     vertex -1.499113e-02  0.000000e+00 -6.555556e-01
   endloop
 endfacet
 facet normal  0.000000e+00 -1.000000e+00  0.000000e+00
   outer loop
     vertex -5.896230e-01 -1.015873e+00 -6.479780e-02
     vertex -6.487113e-01 -1.015873e+00 -8.797811e-02
     vertex -6.165748e-01 -1.015873e+00 -9.883594e-02
   endloop
 endfacet
 facet normal  0.000000e+00 -1.000000e+00 -0.000000e+00
   outer loop
     vertex -5.896230e-01 -1.015873e+00 -6.479780e-02
     vertex -6.165748e-01 -1.015873e+00 -9.883594e-02
     vertex -5.836046e-01 -1.015873e+00 -1.068115e-01
   endloop
 endfacet
 facet normal  0.000000e+00 -1.000000e+00  0.000000e+00
   outer loop
     vertex -5.896230e-01 -1.015873e+00 -6.479780e-02
     vertex -5.836046e-01 -1.015873e+00 -1.068115e-01
     vertex -5.500585e-01 -1.015873e+00 -1.118424e-01
   endloop
 endfacet
 facet normal  0.000000e+00 -1.000000e+00  0.000000e+00
   outer loop
     vertex -6.286370e-01 -1.015873e+00 -1.729564e-02
     vertex -7.094858e-01 -1.015873e+00 -5.797736e-02
     vertex -6.797626e-01 -1.015873e+00 -7.432297e-02
   endloop
 endfacet
 facet normal  0.000000e+00 -1.000000e+00  0.000000e+00
   outer loop
     vertex -6.286370e-01 -1.015873e+00 -1.729564e-02
     vertex -6.797626e-01 -1.015873e+00 -7.432297e-02
     vertex -6.487113e-01 -1.015873e+00 -8.797811e-02
   endloop
 endfacet
 facet normal  0.000000e+00 -1.000000e+00 -0.000000e+00
   outer loop
     vertex -6.286370e-01 -1.015873e+00 -1.729564e-02
     vertex -6.487113e-01 -1.015873e+00 -8.797811e-02
     vertex -5.896230e-01 -1.015873e+00 -6.479780e-02
   endloop
 endfacet
 facet normal  0.000000e+00 -1.000000e+00 -0.000000e+00
   outer loop
     vertex -6.670952e-01 -1.015873e+00  3.065758e-02
     vertex -7.094858e-01 -1.015873e+00 -5.797736e-02
     vertex -6.286370e-01 -1.015873e+00 -1.729564e-02
   endloop
 endfacet
 facet normal  0.000000e+00 -1.000000e+00 -0.000000e+00
   outer loop
     vertex -5.118051e-01 -1.015873e+00 -1.139351e-01
     vertex -5.282272e-01 -1.015873e+00 -1.373319e-01
     vertex -5.062343e-01 -1.015873e+00 -1.626821e-01
   endloop
 endfacet
 facet normal -0.000000e+00 -1.000000e+00  0.000000e+00
   outer loop
     vertex -5.118051e-01 -1.015873e+00 -1.139351e-01
     vertex -5.500585e-01 -1.015873e+00 -1.118424e-01
     vertex -5.282272e-01 -1.015873e+00 -1.373319e-01
   endloop
 endfacet
 facet normal  0.000000e+00 -1.000000e+00  0.000000e+00
   outer loop
     vertex -4.735337e-01 -1.015873e+00 -1.122006e-01
     vertex -5.062343e-01 -1.015873e+00 -1.626821e-01
     vertex -4.840807e-01 -1.015873e+00 -1.878919e-01
   endloop
 endfacet
 facet normal  0.000000e+00 -1.000000e+00  0.000000e+00
   outer loop
     vertex -4.735337e-01 -1.015873e+00 -1.122006e-01
     vertex -5.118051e-01 -1.015873e+00 -1.139351e-01
     vertex -5.062343e-01 -1.015873e+00 -1.626821e-01
   endloop
 endfacet
 facet normal  0.000000e+00 -1.000000e+00  0.000000e+00
   outer loop
     vertex -4.356263e-01 -1.015873e+00 -1.066562e-01
     vertex -4.735337e-01 -1.015873e+00 -1.122006e-01
     vertex -4.840807e-01 -1.015873e+00 -1.878919e-01
   endloop
 endfacet
 facet normal  0.000000e+00 -1.000000e+00  0.000000e+00
   outer loop
     vertex -3.984613e-01 -1.015873e+00 -9.735738e-02
     vertex -4.356263e-01 -1.015873e+00 -1.066562e-01
     vertex -4.840807e-01 -1.015873e+00 -1.878919e-01
   endloop
 endfacet
 facet normal -0.000000e+00 -1.000000e+00  0.000000e+00
   outer loop
     vertex -3.606596e-01 -1.015873e+00 -1.025034e-01
     vertex -3.984613e-01 -1.015873e+00 -9.735738e-02
     vertex -4.840807e-01 -1.015873e+00 -1.878919e-01
   endloop
 endfacet
 facet normal  0.000000e+00 -1.000000e+00 -0.000000e+00
   outer loop
     vertex -3.624095e-01 -1.015873e+00 -8.439682e-02
     vertex -3.984613e-01 -1.015873e+00 -9.735738e-02
     vertex -3.606596e-01 -1.015873e+00 -1.025034e-01
   endloop
 endfacet
 facet normal  0.000000e+00 -1.000000e+00  0.000000e+00
   outer loop
     vertex -3.278307e-01 -1.015873e+00 -6.790389e-02
     vertex -3.624095e-01 -1.015873e+00 -8.439682e-02
     vertex -3.606596e-01 -1.015873e+00 -1.025034e-01
   endloop
 endfacet
 facet normal  0.000000e+00 -1.000000e+00  0.000000e+00
   outer loop
     vertex -2.950700e-01 -1.015873e+00 -4.804319e-02
     vertex -3.278307e-01 -1.015873e+00 -6.790389e-02
     vertex -3.606596e-01 -1.015873e+00 -1.025034e-01
   endloop
 endfacet
 facet normal  0.000000e+00 -1.000000e+00  0.000000e+00
   outer loop
     vertex -2.362722e-01 -1.015873e+00 -1.852872e-02
     vertex -2.644544e-01 -1.015873e+00 -2.501293e-02
     vertex -2.950700e-01 -1.015873e+00 -4.804319e-02
   endloop
 endfacet
 facet normal  0.000000e+00 -1.000000e+00  0.000000e+00
   outer loop
     vertex -2.362722e-01 -1.015873e+00 -1.852872e-02
     vertex -2.950700e-01 -1.015873e+00 -4.804319e-02
     vertex -3.606596e-01 -1.015873e+00 -1.025034e-01
   endloop
 endfacet
 facet normal  0.000000e+00 -1.000000e+00 -0.000000e+00
   outer loop
     vertex -2.362894e-01 -1.015873e+00  9.570605e-04
     vertex -2.644544e-01 -1.015873e+00 -2.501293e-02
     vertex -2.362722e-01 -1.015873e+00 -1.852872e-02
   endloop
 endfacet
 facet normal  0.000000e+00 -1.000000e+00  0.000000e+00
   outer loop
     vertex -2.108561e-01 -1.015873e+00  2.960760e-02
     vertex -2.362894e-01 -1.015873e+00  9.570605e-04
     vertex -2.362722e-01 -1.015873e+00 -1.852872e-02
   endloop
 endfacet
 facet normal  0.000000e+00 -1.000000e+00  0.000000e+00
   outer loop
     vertex -1.109347e-01 -1.015873e+00  6.402118e-02
     vertex -1.884082e-01 -1.015873e+00  6.065277e-02
     vertex -2.108561e-01 -1.015873e+00  2.960760e-02
   endloop
 endfacet
 facet normal  0.000000e+00 -1.000000e+00  0.000000e+00
   outer loop
     vertex -1.109347e-01 -1.015873e+00  6.402118e-02
     vertex -2.108561e-01 -1.015873e+00  2.960760e-02
     vertex -2.362722e-01 -1.015873e+00 -1.852872e-02
   endloop
 endfacet
 facet normal  5.500398e-01  0.000000e+00 -8.351385e-01
   outer loop
     vertex -2.362722e-01 -1.587302e-02 -1.852872e-02
     vertex -1.109347e-01 -1.587302e-02  6.402118e-02
     vertex -1.109347e-01 -1.015873e+00  6.402118e-02
   endloop
 endfacet
 facet normal  5.500398e-01  0.000000e+00 -8.351385e-01
   outer loop
     vertex -2.362722e-01 -1.587302e-02 -1.852872e-02
     vertex -1.109347e-01 -1.015873e+00  6.402118e-02
     vertex -2.362722e-01 -1.015873e+00 -1.852872e-02
   endloop
 endfacet
 facet normal  5.595331e-01  0.000000e+00 -8.288080e-01
   outer loop
     vertex -3.606596e-01 -1.587302e-02 -1.025034e-01
     vertex -2.362722e-01 -1.015873e+00 -1.852872e-02
     vertex -3.606596e-01 -1.015873e+00 -1.025034e-01
   endloop
 endfacet
 facet normal  5.595331e-01  0.000000e+00 -8.288080e-01
   outer loop
     vertex -3.606596e-01 -1.587302e-02 -1.025034e-01
     vertex -2.362722e-01 -1.587302e-02 -1.852872e-02
     vertex -2.362722e-01 -1.015873e+00 -1.852872e-02
   endloop
 endfacet
 facet normal  5.689536e-01  0.000000e+00 -8.223696e-01
   outer loop
     vertex -4.840807e-01 -1.587302e-02 -1.878919e-01
     vertex -3.606596e-01 -1.015873e+00 -1.025034e-01
     vertex -4.840807e-01 -1.015873e+00 -1.878919e-01
   endloop
 endfacet
 facet normal  5.689536e-01  0.000000e+00 -8.223696e-01
   outer loop
     vertex -4.840807e-01 -1.587302e-02 -1.878919e-01
     vertex -3.606596e-01 -1.587302e-02 -1.025034e-01
     vertex -3.606596e-01 -1.015873e+00 -1.025034e-01
   endloop
 endfacet
 facet normal -4.343723e-02  0.000000e+00  9.990562e-01
   outer loop
     vertex -1.109347e-01 -1.587302e-02  6.402118e-02
     vertex -1.884082e-01 -1.587302e-02  6.065277e-02
     vertex -1.884082e-01 -1.015873e+00  6.065277e-02
   endloop
 endfacet
 facet normal -4.343723e-02  0.000000e+00  9.990562e-01
   outer loop
     vertex -1.109347e-01 -1.587302e-02  6.402118e-02
     vertex -1.884082e-01 -1.015873e+00  6.065277e-02
     vertex -1.109347e-01 -1.015873e+00  6.402118e-02
   endloop
 endfacet
 facet normal  8.645356e-01  0.000000e+00 -5.025716e-01
   outer loop
     vertex -1.693349e-01 -1.587302e-02  9.346317e-02
     vertex -1.884082e-01 -1.587302e-02  6.065277e-02
     vertex -1.884082e-01  0.000000e+00  6.065277e-02
   endloop
 endfacet
 facet normal  8.645356e-01  0.000000e+00 -5.025716e-01
   outer loop
     vertex -1.693349e-01 -1.587302e-02  9.346317e-02
     vertex -1.884082e-01  0.000000e+00  6.065277e-02
     vertex -1.693349e-01  0.000000e+00  9.346317e-02
   endloop
 endfacet
 facet normal  9.099768e-01  0.000000e+00 -4.146591e-01
   outer loop
     vertex -1.535980e-01 -1.587302e-02  1.279981e-01
     vertex -1.693349e-01  0.000000e+00  9.346317e-02
     vertex -1.535980e-01  0.000000e+00  1.279981e-01
   endloop
 endfacet
 facet normal  9.099768e-01  0.000000e+00 -4.146591e-01
   outer loop
     vertex -1.535980e-01 -1.587302e-02  1.279981e-01
     vertex -1.693349e-01 -1.587302e-02  9.346317e-02
     vertex -1.693349e-01  0.000000e+00  9.346317e-02
   endloop
 endfacet
 facet normal  9.465062e-01  0.000000e+00 -3.226857e-01
   outer loop
     vertex -1.413516e-01 -1.587302e-02  1.639194e-01
     vertex -1.535980e-01  0.000000e+00  1.279981e-01
     vertex -1.413516e-01  0.000000e+00  1.639194e-01
   endloop
 endfacet
 facet normal  9.465062e-01  0.000000e+00 -3.226857e-01
   outer loop
     vertex -1.413516e-01 -1.587302e-02  1.639194e-01
     vertex -1.535980e-01 -1.587302e-02  1.279981e-01
     vertex -1.535980e-01  0.000000e+00  1.279981e-01
   endloop
 endfacet
 facet normal  9.737659e-01  0.000000e+00 -2.275520e-01
   outer loop
     vertex -1.327156e-01 -1.587302e-02  2.008753e-01
     vertex -1.413516e-01  0.000000e+00  1.639194e-01
     vertex -1.327156e-01  0.000000e+00  2.008753e-01
   endloop
 endfacet
 facet normal  9.737659e-01  0.000000e+00 -2.275520e-01
   outer loop
     vertex -1.327156e-01 -1.587302e-02  2.008753e-01
     vertex -1.413516e-01 -1.587302e-02  1.639194e-01
     vertex -1.413516e-01  0.000000e+00  1.639194e-01
   endloop
 endfacet
 facet normal  9.914891e-01  0.000000e+00 -1.301897e-01
   outer loop
     vertex -1.277748e-01 -1.587302e-02  2.385038e-01
     vertex -1.327156e-01  0.000000e+00  2.008753e-01
     vertex -1.277748e-01  0.000000e+00  2.385038e-01
   endloop
 endfacet
 facet normal  9.914891e-01  0.000000e+00 -1.301897e-01
   outer loop
     vertex -1.277748e-01 -1.587302e-02  2.385038e-01
     vertex -1.327156e-01 -1.587302e-02  2.008753e-01
     vertex -1.327156e-01  0.000000e+00  2.008753e-01
   endloop
 endfacet
 facet normal  9.995021e-01  0.000000e+00 -3.155249e-02
   outer loop
     vertex -1.265773e-01 -1.587302e-02  2.764364e-01
     vertex -1.277748e-01  0.000000e+00  2.385038e-01
     vertex -1.265773e-01  0.000000e+00  2.764364e-01
   endloop
 endfacet
 facet normal  9.995021e-01  0.000000e+00 -3.155249e-02
   outer loop
     vertex -1.265773e-01 -1.587302e-02  2.764364e-01
     vertex -1.277748e-01 -1.587302e-02  2.385038e-01
     vertex -1.277748e-01  0.000000e+00  2.385038e-01
   endloop
 endfacet
 facet normal  9.977265e-01 -0.000000e+00  6.739377e-02
   outer loop
     vertex -1.291350e-01 -1.587302e-02  3.143016e-01
     vertex -1.265773e-01  0.000000e+00  2.764364e-01
     vertex -1.291350e-01  0.000000e+00  3.143016e-01
   endloop
 endfacet
 facet normal  9.977265e-01  0.000000e+00  6.739377e-02
   outer loop
     vertex -1.291350e-01 -1.587302e-02  3.143016e-01
     vertex -1.265773e-01 -1.587302e-02  2.764364e-01
     vertex -1.265773e-01  0.000000e+00  2.764364e-01
   endloop
 endfacet
 facet normal  9.861796e-01 -0.000000e+00  1.656800e-01
   outer loop
     vertex -1.354228e-01 -1.587302e-02  3.517285e-01
     vertex -1.291350e-01  0.000000e+00  3.143016e-01
     vertex -1.354228e-01  0.000000e+00  3.517285e-01
   endloop
 endfacet
 facet normal  9.861796e-01  0.000000e+00  1.656800e-01
   outer loop
     vertex -1.354228e-01 -1.587302e-02  3.517285e-01
     vertex -1.291350e-01 -1.587302e-02  3.143016e-01
     vertex -1.291350e-01  0.000000e+00  3.143016e-01
   endloop
 endfacet
 facet normal  9.649745e-01 -0.000000e+00  2.623436e-01
   outer loop
     vertex -1.453791e-01 -1.587302e-02  3.883507e-01
     vertex -1.354228e-01  0.000000e+00  3.517285e-01
     vertex -1.453791e-01  0.000000e+00  3.883507e-01
   endloop
 endfacet
 facet normal  9.649745e-01  0.000000e+00  2.623436e-01
   outer loop
     vertex -1.453791e-01 -1.587302e-02  3.883507e-01
     vertex -1.354228e-01 -1.587302e-02  3.517285e-01
     vertex -1.354228e-01  0.000000e+00  3.517285e-01
   endloop
 endfacet
 facet normal  9.343190e-01 -0.000000e+00  3.564380e-01
   outer loop
     vertex -1.589065e-01 -1.587302e-02  4.238095e-01
     vertex -1.453791e-01  0.000000e+00  3.883507e-01
     vertex -1.589065e-01  0.000000e+00  4.238095e-01
   endloop
 endfacet
 facet normal  9.343190e-01  0.000000e+00  3.564380e-01
   outer loop
     vertex -1.589065e-01 -1.587302e-02  4.238095e-01
     vertex -1.453791e-01 -1.587302e-02  3.883507e-01
     vertex -1.453791e-01  0.000000e+00  3.883507e-01
   endloop
 endfacet
 facet normal  0.000000e+00  1.000000e+00  0.000000e+00
   outer loop
     vertex -5.118051e-01  6.591949e-17 -1.139351e-01
     vertex -5.500585e-01  6.591949e-17 -1.118424e-01
     vertex -5.896230e-01  6.591949e-17 -6.479780e-02
   endloop
 endfacet
 facet normal  0.000000e+00  1.000000e+00  0.000000e+00
   outer loop
     vertex -6.626102e-01  6.591949e-17  4.003529e-02
     vertex -6.286370e-01  6.591949e-17 -1.729564e-02
     vertex -6.670952e-01  6.591949e-17  3.065758e-02
   endloop
 endfacet
 facet normal  0.000000e+00  1.000000e+00  0.000000e+00
   outer loop
     vertex -4.735337e-01  6.591949e-17 -1.122006e-01
     vertex -5.118051e-01  6.591949e-17 -1.139351e-01
     vertex -5.896230e-01  6.591949e-17 -6.479780e-02
   endloop
 endfacet
 facet normal  0.000000e+00  1.000000e+00  0.000000e+00
   outer loop
     vertex -4.356263e-01  6.591949e-17 -1.066562e-01
     vertex -5.896230e-01  6.591949e-17 -6.479780e-02
     vertex -6.286370e-01  6.591949e-17 -1.729564e-02
   endloop
 endfacet
 facet normal  0.000000e+00  1.000000e+00  0.000000e+00
   outer loop
     vertex -4.356263e-01  6.591949e-17 -1.066562e-01
     vertex -4.735337e-01  6.591949e-17 -1.122006e-01
     vertex -5.896230e-01  6.591949e-17 -6.479780e-02
   endloop
 endfacet
 facet normal  0.000000e+00  1.000000e+00  0.000000e+00
   outer loop
     vertex -3.984613e-01  6.591949e-17 -9.735738e-02
     vertex -4.356263e-01  6.591949e-17 -1.066562e-01
     vertex -6.286370e-01  6.591949e-17 -1.729564e-02
   endloop
 endfacet
 facet normal  0.000000e+00  1.000000e+00  0.000000e+00
   outer loop
     vertex -3.624095e-01  6.591949e-17 -8.439682e-02
     vertex -6.286370e-01  6.591949e-17 -1.729564e-02
     vertex -6.626102e-01  6.591949e-17  4.003529e-02
   endloop
 endfacet
 facet normal  0.000000e+00  1.000000e+00  0.000000e+00
   outer loop
     vertex -3.624095e-01  6.591949e-17 -8.439682e-02
     vertex -3.984613e-01  6.591949e-17 -9.735738e-02
     vertex -6.286370e-01  6.591949e-17 -1.729564e-02
   endloop
 endfacet
 facet normal  0.000000e+00  1.000000e+00  0.000000e+00
   outer loop
     vertex -3.278307e-01  6.591949e-17 -6.790389e-02
     vertex -3.624095e-01  6.591949e-17 -8.439682e-02
     vertex -6.626102e-01  6.591949e-17  4.003529e-02
   endloop
 endfacet
 facet normal  0.000000e+00  1.000000e+00  0.000000e+00
   outer loop
     vertex -2.950700e-01  6.591949e-17 -4.804319e-02
     vertex -3.278307e-01  6.591949e-17 -6.790389e-02
     vertex -6.626102e-01  6.591949e-17  4.003529e-02
   endloop
 endfacet
 facet normal  0.000000e+00  1.000000e+00  0.000000e+00
   outer loop
     vertex -2.644544e-01  6.591949e-17 -2.501293e-02
     vertex -2.950700e-01  6.591949e-17 -4.804319e-02
     vertex -6.626102e-01  6.591949e-17  4.003529e-02
   endloop
 endfacet
 facet normal  0.000000e+00  1.000000e+00  0.000000e+00
   outer loop
     vertex -2.362894e-01  6.591949e-17  9.570605e-04
     vertex -2.644544e-01  6.591949e-17 -2.501293e-02
     vertex -6.626102e-01  6.591949e-17  4.003529e-02
   endloop
 endfacet
 facet normal  0.000000e+00  1.000000e+00  0.000000e+00
   outer loop
     vertex -2.108561e-01  6.591949e-17  2.960760e-02
     vertex -2.362894e-01  6.591949e-17  9.570605e-04
     vertex -6.626102e-01  6.591949e-17  4.003529e-02
   endloop
 endfacet
 facet normal  0.000000e+00  1.000000e+00  0.000000e+00
   outer loop
     vertex -1.884082e-01  6.591949e-17  6.065277e-02
     vertex -2.108561e-01  6.591949e-17  2.960760e-02
     vertex -6.626102e-01  6.591949e-17  4.003529e-02
   endloop
 endfacet
 facet normal  0.000000e+00  1.000000e+00  0.000000e+00
   outer loop
     vertex -5.896230e-01  6.591949e-17 -6.479780e-02
     vertex -6.165748e-01  6.591949e-17 -9.883594e-02
     vertex -6.487113e-01  6.591949e-17 -8.797811e-02
   endloop
 endfacet
 facet normal  0.000000e+00  1.000000e+00  0.000000e+00
   outer loop
     vertex -5.896230e-01  6.591949e-17 -6.479780e-02
     vertex -5.836046e-01  6.591949e-17 -1.068115e-01
     vertex -6.165748e-01  6.591949e-17 -9.883594e-02
   endloop
 endfacet
 facet normal  0.000000e+00  1.000000e+00  0.000000e+00
   outer loop
     vertex -5.896230e-01  6.591949e-17 -6.479780e-02
     vertex -5.500585e-01  6.591949e-17 -1.118424e-01
     vertex -5.836046e-01  6.591949e-17 -1.068115e-01
   endloop
 endfacet
 facet normal  0.000000e+00  1.000000e+00  0.000000e+00
   outer loop
     vertex -6.286370e-01  6.591949e-17 -1.729564e-02
     vertex -6.797626e-01  6.591949e-17 -7.432297e-02
     vertex -7.094858e-01  6.591949e-17 -5.797736e-02
   endloop
 endfacet
 facet normal  0.000000e+00  1.000000e+00  0.000000e+00
   outer loop
     vertex -6.286370e-01  6.591949e-17 -1.729564e-02
     vertex -6.487113e-01  6.591949e-17 -8.797811e-02
     vertex -6.797626e-01  6.591949e-17 -7.432297e-02
   endloop
 endfacet
 facet normal  0.000000e+00  1.000000e+00  0.000000e+00
   outer loop
     vertex -6.286370e-01  6.591949e-17 -1.729564e-02
     vertex -5.896230e-01  6.591949e-17 -6.479780e-02
     vertex -6.487113e-01  6.591949e-17 -8.797811e-02
   endloop
 endfacet
 facet normal  0.000000e+00  1.000000e+00  0.000000e+00
   outer loop
     vertex -6.670952e-01  6.591949e-17  3.065758e-02
     vertex -6.286370e-01  6.591949e-17 -1.729564e-02
     vertex -7.094858e-01  6.591949e-17 -5.797736e-02
   endloop
 endfacet
 facet normal  0.000000e+00  1.000000e+00  0.000000e+00
   outer loop
     vertex -5.118051e-01  6.591949e-17 -1.139351e-01
     vertex -5.062343e-01  6.591949e-17 -1.626821e-01
     vertex -5.282272e-01  6.591949e-17 -1.373319e-01
   endloop
 endfacet
 facet normal  0.000000e+00  1.000000e+00  0.000000e+00
   outer loop
     vertex -5.118051e-01  6.591949e-17 -1.139351e-01
     vertex -5.282272e-01  6.591949e-17 -1.373319e-01
     vertex -5.500585e-01  6.591949e-17 -1.118424e-01
   endloop
 endfacet
 facet normal  0.000000e+00  1.000000e+00  0.000000e+00
   outer loop
     vertex -4.735337e-01  6.591949e-17 -1.122006e-01
     vertex -4.840807e-01  6.591949e-17 -1.878919e-01
     vertex -5.062343e-01  6.591949e-17 -1.626821e-01
   endloop
 endfacet
 facet normal  0.000000e+00  1.000000e+00  0.000000e+00
   outer loop
     vertex -4.735337e-01  6.591949e-17 -1.122006e-01
     vertex -5.062343e-01  6.591949e-17 -1.626821e-01
     vertex -5.118051e-01  6.591949e-17 -1.139351e-01
   endloop
 endfacet
 facet normal  0.000000e+00  1.000000e+00  0.000000e+00
   outer loop
     vertex -4.356263e-01  6.591949e-17 -1.066562e-01
     vertex -4.840807e-01  6.591949e-17 -1.878919e-01
     vertex -4.735337e-01  6.591949e-17 -1.122006e-01
   endloop
 endfacet
 facet normal  0.000000e+00  1.000000e+00  0.000000e+00
   outer loop
     vertex -3.984613e-01  6.591949e-17 -9.735738e-02
     vertex -4.840807e-01  6.591949e-17 -1.878919e-01
     vertex -4.356263e-01  6.591949e-17 -1.066562e-01
   endloop
 endfacet
 facet normal  0.000000e+00  1.000000e+00  0.000000e+00
   outer loop
     vertex -3.606596e-01  6.591949e-17 -1.025034e-01
     vertex -4.840807e-01  6.591949e-17 -1.878919e-01
     vertex -3.984613e-01  6.591949e-17 -9.735738e-02
   endloop
 endfacet
 facet normal  0.000000e+00  1.000000e+00  0.000000e+00
   outer loop
     vertex -3.624095e-01  6.591949e-17 -8.439682e-02
     vertex -3.606596e-01  6.591949e-17 -1.025034e-01
     vertex -3.984613e-01  6.591949e-17 -9.735738e-02
   endloop
 endfacet
 facet normal  0.000000e+00  1.000000e+00  0.000000e+00
   outer loop
     vertex -3.278307e-01  6.591949e-17 -6.790389e-02
     vertex -3.606596e-01  6.591949e-17 -1.025034e-01
     vertex -3.624095e-01  6.591949e-17 -8.439682e-02
   endloop
 endfacet
 facet normal  0.000000e+00  1.000000e+00  0.000000e+00
   outer loop
     vertex -2.950700e-01  6.591949e-17 -4.804319e-02
     vertex -3.606596e-01  6.591949e-17 -1.025034e-01
     vertex -3.278307e-01  6.591949e-17 -6.790389e-02
   endloop
 endfacet
 facet normal  0.000000e+00  1.000000e+00  0.000000e+00
   outer loop
     vertex -2.362722e-01  6.591949e-17 -1.852872e-02
     vertex -2.950700e-01  6.591949e-17 -4.804319e-02
     vertex -2.644544e-01  6.591949e-17 -2.501293e-02
   endloop
 endfacet
 facet normal  0.000000e+00  1.000000e+00  0.000000e+00
   outer loop
     vertex -2.362722e-01  6.591949e-17 -1.852872e-02
     vertex -3.606596e-01  6.591949e-17 -1.025034e-01
     vertex -2.950700e-01  6.591949e-17 -4.804319e-02
   endloop
 endfacet
 facet normal  0.000000e+00  1.000000e+00  0.000000e+00
   outer loop
     vertex -2.362894e-01  6.591949e-17  9.570605e-04
     vertex -2.362722e-01  6.591949e-17 -1.852872e-02
     vertex -2.644544e-01  6.591949e-17 -2.501293e-02
   endloop
 endfacet
 facet normal  0.000000e+00  1.000000e+00  0.000000e+00
   outer loop
     vertex -2.108561e-01  6.591949e-17  2.960760e-02
     vertex -2.362722e-01  6.591949e-17 -1.852872e-02
     vertex -2.362894e-01  6.591949e-17  9.570605e-04
   endloop
 endfacet
 facet normal  0.000000e+00  1.000000e+00  0.000000e+00
   outer loop
     vertex -1.109347e-01  6.591949e-17  6.402118e-02
     vertex -2.108561e-01  6.591949e-17  2.960760e-02
     vertex -1.884082e-01  6.591949e-17  6.065277e-02
   endloop
 endfacet
 facet normal  0.000000e+00  1.000000e+00  0.000000e+00
   outer loop
     vertex -1.109347e-01  6.591949e-17  6.402118e-02
     vertex -2.362722e-01  6.591949e-17 -1.852872e-02
     vertex -2.108561e-01  6.591949e-17  2.960760e-02
   endloop
 endfacet
 facet normal  5.500398e-01  0.000000e+00 -8.351385e-01
   outer loop
     vertex -2.362722e-01 -1.587302e-02 -1.852872e-02
     vertex -1.109347e-01  0.000000e+00  6.402118e-02
     vertex -1.109347e-01 -1.587302e-02  6.402118e-02
   endloop
 endfacet
 facet normal  5.500398e-01  0.000000e+00 -8.351385e-01
   outer loop
     vertex -2.362722e-01 -1.587302e-02 -1.852872e-02
     vertex -2.362722e-01  0.000000e+00 -1.852872e-02
     vertex -1.109347e-01  0.000000e+00  6.402118e-02
   endloop
 endfacet
 facet normal  5.595331e-01  0.000000e+00 -8.288080e-01
   outer loop
     vertex -3.606596e-01 -1.587302e-02 -1.025034e-01
     vertex -3.606596e-01  0.000000e+00 -1.025034e-01
     vertex -2.362722e-01  0.000000e+00 -1.852872e-02
   endloop
 endfacet
 facet normal  5.595331e-01  0.000000e+00 -8.288080e-01
   outer loop
     vertex -3.606596e-01 -1.587302e-02 -1.025034e-01
     vertex -2.362722e-01  0.000000e+00 -1.852872e-02
     vertex -2.362722e-01 -1.587302e-02 -1.852872e-02
   endloop
 endfacet
 facet normal  5.689536e-01  0.000000e+00 -8.223696e-01
   outer loop
     vertex -4.840807e-01 -1.587302e-02 -1.878919e-01
     vertex -4.840807e-01  0.000000e+00 -1.878919e-01
     vertex -3.606596e-01  0.000000e+00 -1.025034e-01
   endloop
 endfacet
 facet normal  5.689536e-01  0.000000e+00 -8.223696e-01
   outer loop
     vertex -4.840807e-01 -1.587302e-02 -1.878919e-01
     vertex -3.606596e-01  0.000000e+00 -1.025034e-01
     vertex -3.606596e-01 -1.587302e-02 -1.025034e-01
   endloop
 endfacet
 facet normal -4.343723e-02  0.000000e+00  9.990562e-01
   outer loop
     vertex -1.109347e-01 -1.587302e-02  6.402118e-02
     vertex -1.884082e-01  0.000000e+00  6.065277e-02
     vertex -1.884082e-01 -1.587302e-02  6.065277e-02
   endloop
 endfacet
 facet normal -4.343723e-02  0.000000e+00  9.990562e-01
   outer loop
     vertex -1.109347e-01 -1.587302e-02  6.402118e-02
     vertex -1.109347e-01  0.000000e+00  6.402118e-02
     vertex -1.884082e-01  0.000000e+00  6.065277e-02
   endloop
 endfacet
endsolid
