solid 
 facet normal -9.986296e-01 -5.233501e-02  0.000000e+00
   outer loop
     vertex -7.360517e-01 -1.008970e-01 -1.587302e-02
     vertex -7.380952e-01 -6.190485e-02  6.349212e-02
     vertex -7.380952e-01 -6.190485e-02 -1.587302e-02
   endloop
 endfacet
 facet normal -9.986296e-01 -5.233501e-02  0.000000e+00
   outer loop
     vertex -7.360517e-01 -1.008970e-01 -1.587302e-02
     vertex -7.360517e-01 -1.008970e-01  6.349212e-02
     vertex -7.380952e-01 -6.190485e-02  6.349212e-02
   endloop
 endfacet
 facet normal -9.880454e-01 -1.541635e-01  0.000000e+00
   outer loop
     vertex -7.300323e-01 -1.394758e-01 -1.587302e-02
     vertex -7.300323e-01 -1.394758e-01  6.349212e-02
     vertex -7.360517e-01 -1.008970e-01  6.349212e-02
   endloop
 endfacet
 facet normal -9.880454e-01 -1.541635e-01  0.000000e+00
   outer loop
     vertex -7.300323e-01 -1.394758e-01 -1.587302e-02
     vertex -7.360517e-01 -1.008970e-01  6.349212e-02
     vertex -7.360517e-01 -1.008970e-01 -1.587302e-02
   endloop
 endfacet
 facet normal -9.671054e-01 -2.543761e-01  0.000000e+00
   outer loop
     vertex -7.201000e-01 -1.772371e-01 -1.587302e-02
     vertex -7.201000e-01 -1.772371e-01  6.349212e-02
     vertex -7.300323e-01 -1.394758e-01  6.349212e-02
   endloop
 endfacet
 facet normal -9.671054e-01 -2.543761e-01  0.000000e+00
   outer loop
     vertex -7.201000e-01 -1.772371e-01 -1.587302e-02
     vertex -7.300323e-01 -1.394758e-01  6.349212e-02
     vertex -7.300323e-01 -1.394758e-01 -1.587302e-02
   endloop
 endfacet
 facet normal -9.360291e-01 -3.519227e-01  0.000000e+00
   outer loop
     vertex -7.063590e-01 -2.137849e-01 -1.587302e-02
     vertex -7.063590e-01 -2.137849e-01  6.349212e-02
     vertex -7.201000e-01 -1.772371e-01  6.349212e-02
   endloop
 endfacet
 facet normal -9.360291e-01 -3.519227e-01  0.000000e+00
   outer loop
     vertex -7.063590e-01 -2.137849e-01 -1.587302e-02
     vertex -7.201000e-01 -1.772371e-01  6.349212e-02
     vertex -7.201000e-01 -1.772371e-01 -1.587302e-02
   endloop
 endfacet
 facet normal -8.951422e-01 -4.457807e-01  0.000000e+00
   outer loop
     vertex -6.889532e-01 -2.487363e-01 -1.587302e-02
     vertex -6.889532e-01 -2.487363e-01  6.349212e-02
     vertex -7.063590e-01 -2.137849e-01  6.349212e-02
   endloop
 endfacet
 facet normal -8.951422e-01 -4.457807e-01  0.000000e+00
   outer loop
     vertex -6.889532e-01 -2.487363e-01 -1.587302e-02
     vertex -7.063590e-01 -2.137849e-01  6.349212e-02
     vertex -7.063590e-01 -2.137849e-01 -1.587302e-02
   endloop
 endfacet
 facet normal -8.448733e-01 -5.349665e-01  0.000000e+00
   outer loop
     vertex -6.680651e-01 -2.817250e-01 -1.587302e-02
     vertex -6.680651e-01 -2.817250e-01  6.349212e-02
     vertex -6.889532e-01 -2.487363e-01  6.349212e-02
   endloop
 endfacet
 facet normal -8.448733e-01 -5.349665e-01  0.000000e+00
   outer loop
     vertex -6.680651e-01 -2.817250e-01 -1.587302e-02
     vertex -6.889532e-01 -2.487363e-01  6.349212e-02
     vertex -6.889532e-01 -2.487363e-01 -1.587302e-02
   endloop
 endfacet
 facet normal -7.857492e-01 -6.185452e-01  0.000000e+00
   outer loop
     vertex -6.439136e-01 -3.124050e-01 -1.587302e-02
     vertex -6.439136e-01 -3.124050e-01  6.349212e-02
     vertex -6.680651e-01 -2.817250e-01  6.349212e-02
   endloop
 endfacet
 facet normal -7.857492e-01 -6.185452e-01  0.000000e+00
   outer loop
     vertex -6.439136e-01 -3.124050e-01 -1.587302e-02
     vertex -6.680651e-01 -2.817250e-01  6.349212e-02
     vertex -6.680651e-01 -2.817250e-01 -1.587302e-02
   endloop
 endfacet
 facet normal -7.183897e-01 -6.956409e-01  0.000000e+00
   outer loop
     vertex -6.167518e-01 -3.404550e-01 -1.587302e-02
     vertex -6.167518e-01 -3.404550e-01  6.349212e-02
     vertex -6.439136e-01 -3.124050e-01  6.349212e-02
   endloop
 endfacet
 facet normal -7.183897e-01 -6.956409e-01  0.000000e+00
   outer loop
     vertex -6.167518e-01 -3.404550e-01 -1.587302e-02
     vertex -6.439136e-01 -3.124050e-01  6.349212e-02
     vertex -6.439136e-01 -3.124050e-01 -1.587302e-02
   endloop
 endfacet
 facet normal -6.435006e-01 -7.654456e-01  0.000000e+00
   outer loop
     vertex -5.868645e-01 -3.655809e-01 -1.587302e-02
     vertex -6.167518e-01 -3.404550e-01  6.349212e-02
     vertex -6.167518e-01 -3.404550e-01 -1.587302e-02
   endloop
 endfacet
 facet normal -6.435006e-01 -7.654456e-01  0.000000e+00
   outer loop
     vertex -5.868645e-01 -3.655809e-01 -1.587302e-02
     vertex -5.868645e-01 -3.655809e-01  6.349212e-02
     vertex -6.167518e-01 -3.404550e-01  6.349212e-02
   endloop
 endfacet
 facet normal -5.618670e-01 -8.272276e-01  0.000000e+00
   outer loop
     vertex -5.545649e-01 -3.875194e-01 -1.587302e-02
     vertex -5.868645e-01 -3.655809e-01  6.349212e-02
     vertex -5.868645e-01 -3.655809e-01 -1.587302e-02
   endloop
 endfacet
 facet normal -5.618670e-01 -8.272276e-01  0.000000e+00
   outer loop
     vertex -5.545649e-01 -3.875194e-01 -1.587302e-02
     vertex -5.545649e-01 -3.875194e-01  6.349212e-02
     vertex -5.868645e-01 -3.655809e-01  6.349212e-02
   endloop
 endfacet
 facet normal -4.743444e-01 -8.803394e-01  0.000000e+00
   outer loop
     vertex -5.201915e-01 -4.060405e-01 -1.587302e-02
     vertex -5.545649e-01 -3.875194e-01  6.349212e-02
     vertex -5.545649e-01 -3.875194e-01 -1.587302e-02
   endloop
 endfacet
 facet normal -4.743444e-01 -8.803394e-01  0.000000e+00
   outer loop
     vertex -5.201915e-01 -4.060405e-01 -1.587302e-02
     vertex -5.201915e-01 -4.060405e-01  6.349212e-02
     vertex -5.545649e-01 -3.875194e-01  6.349212e-02
   endloop
 endfacet
 facet normal -3.818502e-01 -9.242242e-01  0.000000e+00
   outer loop
     vertex -4.841046e-01 -4.209500e-01 -1.587302e-02
     vertex -4.841046e-01 -4.209500e-01  6.349212e-02
     vertex -5.201915e-01 -4.060405e-01  6.349212e-02
   endloop
 endfacet
 facet normal -3.818502e-01 -9.242242e-01  0.000000e+00
   outer loop
     vertex -4.841046e-01 -4.209500e-01 -1.587302e-02
     vertex -5.201915e-01 -4.060405e-01  6.349212e-02
     vertex -5.201915e-01 -4.060405e-01 -1.587302e-02
   endloop
 endfacet
 facet normal -2.853538e-01 -9.584223e-01  0.000000e+00
   outer loop
     vertex -4.466823e-01 -4.320919e-01 -1.587302e-02
     vertex -4.466823e-01 -4.320919e-01  6.349212e-02
     vertex -4.841046e-01 -4.209500e-01  6.349212e-02
   endloop
 endfacet
 facet normal -2.853538e-01 -9.584223e-01  0.000000e+00
   outer loop
     vertex -4.466823e-01 -4.320919e-01 -1.587302e-02
     vertex -4.841046e-01 -4.209500e-01  6.349212e-02
     vertex -4.841046e-01 -4.209500e-01 -1.587302e-02
   endloop
 endfacet
 facet normal -1.858666e-01 -9.825750e-01  0.000000e+00
   outer loop
     vertex -4.083171e-01 -4.393491e-01 -1.587302e-02
     vertex -4.083171e-01 -4.393491e-01  6.349212e-02
     vertex -4.466823e-01 -4.320919e-01  6.349212e-02
   endloop
 endfacet
 facet normal -1.858666e-01 -9.825750e-01  0.000000e+00
   outer loop
     vertex -4.083171e-01 -4.393491e-01 -1.587302e-02
     vertex -4.466823e-01 -4.320919e-01  6.349212e-02
     vertex -4.466823e-01 -4.320919e-01 -1.587302e-02
   endloop
 endfacet
 facet normal -8.443127e-02 -9.964293e-01  0.000000e+00
   outer loop
     vertex -3.694109e-01 -4.426458e-01 -1.587302e-02
     vertex -3.694109e-01 -4.426458e-01  6.349212e-02
     vertex -4.083171e-01 -4.393491e-01  6.349212e-02
   endloop
 endfacet
 facet normal -8.443127e-02 -9.964293e-01  0.000000e+00
   outer loop
     vertex -3.694109e-01 -4.426458e-01 -1.587302e-02
     vertex -4.083171e-01 -4.393491e-01  6.349212e-02
     vertex -4.083171e-01 -4.393491e-01 -1.587302e-02
   endloop
 endfacet
 facet normal  1.788896e-02 -9.998400e-01  0.000000e+00
   outer loop
     vertex -3.303715e-01 -4.419473e-01 -1.587302e-02
     vertex -3.303715e-01 -4.419473e-01  6.349212e-02
     vertex -3.694109e-01 -4.426458e-01  6.349212e-02
   endloop
 endfacet
 facet normal  1.788896e-02 -9.998400e-01  0.000000e+00
   outer loop
     vertex -3.303715e-01 -4.419473e-01 -1.587302e-02
     vertex -3.694109e-01 -4.426458e-01  6.349212e-02
     vertex -3.694109e-01 -4.426458e-01 -1.587302e-02
   endloop
 endfacet
 facet normal  1.200217e-01 -9.927713e-01  0.000000e+00
   outer loop
     vertex -2.916081e-01 -4.372610e-01 -1.587302e-02
     vertex -2.916081e-01 -4.372610e-01  6.349212e-02
     vertex -3.303715e-01 -4.419473e-01  6.349212e-02
   endloop
 endfacet
 facet normal  1.200217e-01 -9.927713e-01  0.000000e+00
   outer loop
     vertex -2.916081e-01 -4.372610e-01 -1.587302e-02
     vertex -3.303715e-01 -4.419473e-01  6.349212e-02
     vertex -3.303715e-01 -4.419473e-01 -1.587302e-02
   endloop
 endfacet
 facet normal  2.208965e-01 -9.752973e-01  0.000000e+00
   outer loop
     vertex -2.535270e-01 -4.286360e-01 -1.587302e-02
     vertex -2.535270e-01 -4.286360e-01  6.349212e-02
     vertex -2.916081e-01 -4.372610e-01  6.349212e-02
   endloop
 endfacet
 facet normal  2.208965e-01 -9.752973e-01  0.000000e+00
   outer loop
     vertex -2.535270e-01 -4.286360e-01 -1.587302e-02
     vertex -2.916081e-01 -4.372610e-01  6.349212e-02
     vertex -2.916081e-01 -4.372610e-01 -1.587302e-02
   endloop
 endfacet
 facet normal  3.194560e-01 -9.476011e-01  0.000000e+00
   outer loop
     vertex -2.165273e-01 -4.161626e-01 -1.587302e-02
     vertex -2.165273e-01 -4.161626e-01  6.349212e-02
     vertex -2.535270e-01 -4.286360e-01  6.349212e-02
   endloop
 endfacet
 facet normal  3.194560e-01 -9.476011e-01  0.000000e+00
   outer loop
     vertex -2.165273e-01 -4.161626e-01 -1.587302e-02
     vertex -2.535270e-01 -4.286360e-01  6.349212e-02
     vertex -2.535270e-01 -4.286360e-01 -1.587302e-02
   endloop
 endfacet
 facet normal  4.146673e-01 -9.099731e-01  0.000000e+00
   outer loop
     vertex -1.809968e-01 -3.999716e-01 -1.587302e-02
     vertex -1.809968e-01 -3.999716e-01  6.349212e-02
     vertex -2.165273e-01 -4.161626e-01  6.349212e-02
   endloop
 endfacet
 facet normal  5.055325e-01 -8.628076e-01  0.000000e+00
   outer loop
     vertex -1.809968e-01 -3.999716e-01 -1.587302e-02
     vertex -1.473079e-01 -3.802328e-01  6.349212e-02
     vertex -1.809968e-01 -3.999716e-01  6.349212e-02
   endloop
 endfacet
 facet normal  4.146673e-01 -9.099731e-01  0.000000e+00
   outer loop
     vertex -1.809968e-01 -3.999716e-01 -1.587302e-02
     vertex -2.165273e-01 -4.161626e-01  6.349212e-02
     vertex -2.165273e-01 -4.161626e-01 -1.587302e-02
   endloop
 endfacet
 facet normal  5.055325e-01 -8.628076e-01  0.000000e+00
   outer loop
     vertex -1.473079e-01 -3.802328e-01 -1.587302e-02
     vertex -1.473079e-01 -3.802328e-01  6.349212e-02
     vertex -1.809968e-01 -3.999716e-01 -1.587302e-02
   endloop
 endfacet
 facet normal  5.910991e-01 -8.065989e-01  0.000000e+00
   outer loop
     vertex -1.158138e-01 -3.571530e-01 -1.587302e-02
     vertex -1.158138e-01 -3.571530e-01  6.349212e-02
     vertex -1.473079e-01 -3.802328e-01  6.349212e-02
   endloop
 endfacet
 facet normal  6.704704e-01 -7.419363e-01  0.000000e+00
   outer loop
     vertex -1.158138e-01 -3.571530e-01 -1.587302e-02
     vertex -8.684439e-02 -3.309740e-01  6.349212e-02
     vertex -1.158138e-01 -3.571530e-01  6.349212e-02
   endloop
 endfacet
 facet normal  5.910991e-01 -8.065989e-01  0.000000e+00
   outer loop
     vertex -1.158138e-01 -3.571530e-01 -1.587302e-02
     vertex -1.473079e-01 -3.802328e-01  6.349212e-02
     vertex -1.473079e-01 -3.802328e-01 -1.587302e-02
   endloop
 endfacet
 facet normal  6.704704e-01 -7.419363e-01  0.000000e+00
   outer loop
     vertex -8.684439e-02 -3.309740e-01 -1.587302e-02
     vertex -8.684439e-02 -3.309740e-01  6.349212e-02
     vertex -1.158138e-01 -3.571530e-01 -1.587302e-02
   endloop
 endfacet
 facet normal  7.428145e-01 -6.694973e-01  0.000000e+00
   outer loop
     vertex -6.070344e-02 -3.019703e-01 -1.587302e-02
     vertex -6.070344e-02 -3.019703e-01  6.349212e-02
     vertex -8.684439e-02 -3.309740e-01  6.349212e-02
   endloop
 endfacet
 facet normal  7.428145e-01 -6.694973e-01  0.000000e+00
   outer loop
     vertex -6.070344e-02 -3.019703e-01 -1.587302e-02
     vertex -8.684439e-02 -3.309740e-01  6.349212e-02
     vertex -8.684439e-02 -3.309740e-01 -1.587302e-02
   endloop
 endfacet
 facet normal  8.073730e-01 -5.900413e-01  0.000000e+00
   outer loop
     vertex -3.766490e-02 -2.704459e-01 -1.587302e-02
     vertex -3.766490e-02 -2.704459e-01  6.349212e-02
     vertex -6.070344e-02 -3.019703e-01  6.349212e-02
   endloop
 endfacet
 facet normal  8.634695e-01 -5.044011e-01  0.000000e+00
   outer loop
     vertex -3.766490e-02 -2.704459e-01 -1.587302e-02
     vertex -1.797023e-02 -2.367312e-01  6.349212e-02
     vertex -3.766490e-02 -2.704459e-01  6.349212e-02
   endloop
 endfacet
 facet normal  8.073730e-01 -5.900413e-01  0.000000e+00
   outer loop
     vertex -3.766490e-02 -2.704459e-01 -1.587302e-02
     vertex -6.070344e-02 -3.019703e-01  6.349212e-02
     vertex -6.070344e-02 -3.019703e-01 -1.587302e-02
   endloop
 endfacet
 facet normal  9.105158e-01 -4.134742e-01  0.000000e+00
   outer loop
     vertex -1.797023e-02 -2.367312e-01 -1.587302e-02
     vertex -1.825870e-03 -2.011796e-01  6.349212e-02
     vertex -1.797023e-02 -2.367312e-01  6.349212e-02
   endloop
 endfacet
 facet normal  8.634695e-01 -5.044011e-01  0.000000e+00
   outer loop
     vertex -1.797023e-02 -2.367312e-01 -1.587302e-02
     vertex -1.797023e-02 -2.367312e-01  6.349212e-02
     vertex -3.766490e-02 -2.704459e-01 -1.587302e-02
   endloop
 endfacet
 facet normal  9.105158e-01 -4.134742e-01  0.000000e+00
   outer loop
     vertex -1.825870e-03 -2.011796e-01 -1.587302e-02
     vertex -1.825870e-03 -2.011796e-01  6.349212e-02
     vertex -1.797023e-02 -2.367312e-01 -1.587302e-02
   endloop
 endfacet
 facet normal  9.480190e-01 -3.182136e-01  0.000000e+00
   outer loop
     vertex  1.059898e-02 -1.641635e-01 -1.587302e-02
     vertex  1.059898e-02 -1.641635e-01  6.349212e-02
     vertex -1.825870e-03 -2.011796e-01  6.349212e-02
   endloop
 endfacet
 facet normal  9.480190e-01 -3.182136e-01  0.000000e+00
   outer loop
     vertex  1.059898e-02 -1.641635e-01 -1.587302e-02
     vertex -1.825870e-03 -2.011796e-01  6.349212e-02
     vertex -1.825870e-03 -2.011796e-01 -1.587302e-02
   endloop
 endfacet
 facet normal  9.755860e-01 -2.196179e-01  0.000000e+00
   outer loop
     vertex  1.917410e-02 -1.260712e-01 -1.587302e-02
     vertex  1.917410e-02 -1.260712e-01  6.349212e-02
     vertex  1.059898e-02 -1.641635e-01  6.349212e-02
   endloop
 endfacet
 facet normal  9.755860e-01 -2.196179e-01  0.000000e+00
   outer loop
     vertex  1.917410e-02 -1.260712e-01 -1.587302e-02
     vertex  1.059898e-02 -1.641635e-01  6.349212e-02
     vertex  1.059898e-02 -1.641635e-01 -1.587302e-02
   endloop
 endfacet
 facet normal  9.929277e-01 -1.187203e-01  0.000000e+00
   outer loop
     vertex  2.380961e-02 -8.730167e-02 -1.587302e-02
     vertex  2.380961e-02 -8.730167e-02  6.349212e-02
     vertex  1.917410e-02 -1.260712e-01  6.349212e-02
   endloop
 endfacet
 facet normal  9.929277e-01 -1.187203e-01  0.000000e+00
   outer loop
     vertex  2.380961e-02 -8.730167e-02 -1.587302e-02
     vertex  1.917410e-02 -1.260712e-01  6.349212e-02
     vertex  1.917410e-02 -1.260712e-01 -1.587302e-02
   endloop
 endfacet
 facet normal -1.000000e+00  3.642919e-16  0.000000e+00
   outer loop
     vertex -7.380952e-01 -6.190485e-02 -1.587302e-02
     vertex -7.380952e-01  5.476190e-01  6.349212e-02
     vertex -7.380952e-01  5.476190e-01 -1.587302e-02
   endloop
 endfacet
 facet normal -1.000000e+00  3.642919e-16  0.000000e+00
   outer loop
     vertex -7.380952e-01 -6.190485e-02 -1.587302e-02
     vertex -7.380952e-01 -6.190485e-02  6.349212e-02
     vertex -7.380952e-01  5.476190e-01  6.349212e-02
   endloop
 endfacet
 facet normal  1.000000e+00  4.203368e-17  0.000000e+00
   outer loop
     vertex  2.380961e-02  5.730158e-01 -1.587302e-02
     vertex  2.380961e-02 -8.730167e-02  6.349212e-02
     vertex  2.380961e-02 -8.730167e-02 -1.587302e-02
   endloop
 endfacet
 facet normal  1.000000e+00  4.203368e-17 -0.000000e+00
   outer loop
     vertex  2.380961e-02  5.730158e-01 -1.587302e-02
     vertex  2.380961e-02  5.730158e-01  6.349212e-02
     vertex  2.380961e-02 -8.730167e-02  6.349212e-02
   endloop
 endfacet
 facet normal -9.986296e-01 -5.233501e-02  0.000000e+00
   outer loop
     vertex -7.360517e-01 -1.008970e-01 -1.587302e-02
     vertex -7.380952e-01 -6.190485e-02 -1.587302e-02
     vertex -7.380952e-01 -6.190485e-02 -3.174603e-02
   endloop
 endfacet
 facet normal -9.986296e-01 -5.233501e-02 -0.000000e+00
   outer loop
     vertex -7.360517e-01 -1.008970e-01 -1.587302e-02
     vertex -7.380952e-01 -6.190485e-02 -3.174603e-02
     vertex -7.360517e-01 -1.008970e-01 -3.174603e-02
   endloop
 endfacet
 facet normal -9.880454e-01 -1.541635e-01 -0.000000e+00
   outer loop
     vertex -7.300323e-01 -1.394758e-01 -1.587302e-02
     vertex -7.360517e-01 -1.008970e-01 -3.174603e-02
     vertex -7.300323e-01 -1.394758e-01 -3.174603e-02
   endloop
 endfacet
 facet normal -9.880454e-01 -1.541635e-01  0.000000e+00
   outer loop
     vertex -7.300323e-01 -1.394758e-01 -1.587302e-02
     vertex -7.360517e-01 -1.008970e-01 -1.587302e-02
     vertex -7.360517e-01 -1.008970e-01 -3.174603e-02
   endloop
 endfacet
 facet normal -9.671054e-01 -2.543761e-01 -0.000000e+00
   outer loop
     vertex -7.201000e-01 -1.772371e-01 -1.587302e-02
     vertex -7.300323e-01 -1.394758e-01 -3.174603e-02
     vertex -7.201000e-01 -1.772371e-01 -3.174603e-02
   endloop
 endfacet
 facet normal -9.671054e-01 -2.543761e-01  0.000000e+00
   outer loop
     vertex -7.201000e-01 -1.772371e-01 -1.587302e-02
     vertex -7.300323e-01 -1.394758e-01 -1.587302e-02
     vertex -7.300323e-01 -1.394758e-01 -3.174603e-02
   endloop
 endfacet
 facet normal -9.360291e-01 -3.519227e-01 -0.000000e+00
   outer loop
     vertex -7.063590e-01 -2.137849e-01 -1.587302e-02
     vertex -7.201000e-01 -1.772371e-01 -3.174603e-02
     vertex -7.063590e-01 -2.137849e-01 -3.174603e-02
   endloop
 endfacet
 facet normal -9.360291e-01 -3.519227e-01  0.000000e+00
   outer loop
     vertex -7.063590e-01 -2.137849e-01 -1.587302e-02
     vertex -7.201000e-01 -1.772371e-01 -1.587302e-02
     vertex -7.201000e-01 -1.772371e-01 -3.174603e-02
   endloop
 endfacet
 facet normal -8.951422e-01 -4.457807e-01 -0.000000e+00
   outer loop
     vertex -6.889532e-01 -2.487363e-01 -1.587302e-02
     vertex -7.063590e-01 -2.137849e-01 -3.174603e-02
     vertex -6.889532e-01 -2.487363e-01 -3.174603e-02
   endloop
 endfacet
 facet normal -8.951422e-01 -4.457807e-01  0.000000e+00
   outer loop
     vertex -6.889532e-01 -2.487363e-01 -1.587302e-02
     vertex -7.063590e-01 -2.137849e-01 -1.587302e-02
     vertex -7.063590e-01 -2.137849e-01 -3.174603e-02
   endloop
 endfacet
 facet normal -8.448733e-01 -5.349665e-01 -0.000000e+00
   outer loop
     vertex -6.680651e-01 -2.817250e-01 -1.587302e-02
     vertex -6.889532e-01 -2.487363e-01 -3.174603e-02
     vertex -6.680651e-01 -2.817250e-01 -3.174603e-02
   endloop
 endfacet
 facet normal -8.448733e-01 -5.349665e-01  0.000000e+00
   outer loop
     vertex -6.680651e-01 -2.817250e-01 -1.587302e-02
     vertex -6.889532e-01 -2.487363e-01 -1.587302e-02
     vertex -6.889532e-01 -2.487363e-01 -3.174603e-02
   endloop
 endfacet
 facet normal -7.857492e-01 -6.185452e-01 -0.000000e+00
   outer loop
     vertex -6.439136e-01 -3.124050e-01 -1.587302e-02
     vertex -6.680651e-01 -2.817250e-01 -3.174603e-02
     vertex -6.439136e-01 -3.124050e-01 -3.174603e-02
   endloop
 endfacet
 facet normal -7.857492e-01 -6.185452e-01  0.000000e+00
   outer loop
     vertex -6.439136e-01 -3.124050e-01 -1.587302e-02
     vertex -6.680651e-01 -2.817250e-01 -1.587302e-02
     vertex -6.680651e-01 -2.817250e-01 -3.174603e-02
   endloop
 endfacet
 facet normal -7.183897e-01 -6.956409e-01 -0.000000e+00
   outer loop
     vertex -6.167518e-01 -3.404550e-01 -1.587302e-02
     vertex -6.439136e-01 -3.124050e-01 -3.174603e-02
     vertex -6.167518e-01 -3.404550e-01 -3.174603e-02
   endloop
 endfacet
 facet normal -7.183897e-01 -6.956409e-01  0.000000e+00
   outer loop
     vertex -6.167518e-01 -3.404550e-01 -1.587302e-02
     vertex -6.439136e-01 -3.124050e-01 -1.587302e-02
     vertex -6.439136e-01 -3.124050e-01 -3.174603e-02
   endloop
 endfacet
 facet normal -6.435006e-01 -7.654456e-01  0.000000e+00
   outer loop
     vertex -5.868645e-01 -3.655809e-01 -1.587302e-02
     vertex -6.167518e-01 -3.404550e-01 -1.587302e-02
     vertex -6.167518e-01 -3.404550e-01 -3.174603e-02
   endloop
 endfacet
 facet normal -6.435006e-01 -7.654456e-01 -0.000000e+00
   outer loop
     vertex -5.868645e-01 -3.655809e-01 -1.587302e-02
     vertex -6.167518e-01 -3.404550e-01 -3.174603e-02
     vertex -5.868645e-01 -3.655809e-01 -3.174603e-02
   endloop
 endfacet
 facet normal -5.618670e-01 -8.272276e-01  0.000000e+00
   outer loop
     vertex -5.545649e-01 -3.875194e-01 -1.587302e-02
     vertex -5.868645e-01 -3.655809e-01 -1.587302e-02
     vertex -5.868645e-01 -3.655809e-01 -3.174603e-02
   endloop
 endfacet
 facet normal -5.618670e-01 -8.272276e-01 -0.000000e+00
   outer loop
     vertex -5.545649e-01 -3.875194e-01 -1.587302e-02
     vertex -5.868645e-01 -3.655809e-01 -3.174603e-02
     vertex -5.545649e-01 -3.875194e-01 -3.174603e-02
   endloop
 endfacet
 facet normal -4.743444e-01 -8.803394e-01  0.000000e+00
   outer loop
     vertex -5.201915e-01 -4.060405e-01 -1.587302e-02
     vertex -5.545649e-01 -3.875194e-01 -1.587302e-02
     vertex -5.545649e-01 -3.875194e-01 -3.174603e-02
   endloop
 endfacet
 facet normal -4.743444e-01 -8.803394e-01 -0.000000e+00
   outer loop
     vertex -5.201915e-01 -4.060405e-01 -1.587302e-02
     vertex -5.545649e-01 -3.875194e-01 -3.174603e-02
     vertex -5.201915e-01 -4.060405e-01 -3.174603e-02
   endloop
 endfacet
 facet normal -3.818502e-01 -9.242242e-01 -0.000000e+00
   outer loop
     vertex -4.841046e-01 -4.209500e-01 -1.587302e-02
     vertex -5.201915e-01 -4.060405e-01 -3.174603e-02
     vertex -4.841046e-01 -4.209500e-01 -3.174603e-02
   endloop
 endfacet
 facet normal -3.818502e-01 -9.242242e-01  0.000000e+00
   outer loop
     vertex -4.841046e-01 -4.209500e-01 -1.587302e-02
     vertex -5.201915e-01 -4.060405e-01 -1.587302e-02
     vertex -5.201915e-01 -4.060405e-01 -3.174603e-02
   endloop
 endfacet
 facet normal -2.853538e-01 -9.584223e-01 -0.000000e+00
   outer loop
     vertex -4.466823e-01 -4.320919e-01 -1.587302e-02
     vertex -4.841046e-01 -4.209500e-01 -3.174603e-02
     vertex -4.466823e-01 -4.320919e-01 -3.174603e-02
   endloop
 endfacet
 facet normal -2.853538e-01 -9.584223e-01  0.000000e+00
   outer loop
     vertex -4.466823e-01 -4.320919e-01 -1.587302e-02
     vertex -4.841046e-01 -4.209500e-01 -1.587302e-02
     vertex -4.841046e-01 -4.209500e-01 -3.174603e-02
   endloop
 endfacet
 facet normal -1.858666e-01 -9.825750e-01 -0.000000e+00
   outer loop
     vertex -4.083171e-01 -4.393491e-01 -1.587302e-02
     vertex -4.466823e-01 -4.320919e-01 -3.174603e-02
     vertex -4.083171e-01 -4.393491e-01 -3.174603e-02
   endloop
 endfacet
 facet normal -1.858666e-01 -9.825750e-01  0.000000e+00
   outer loop
     vertex -4.083171e-01 -4.393491e-01 -1.587302e-02
     vertex -4.466823e-01 -4.320919e-01 -1.587302e-02
     vertex -4.466823e-01 -4.320919e-01 -3.174603e-02
   endloop
 endfacet
 facet normal -8.443127e-02 -9.964293e-01 -0.000000e+00
   outer loop
     vertex -3.694109e-01 -4.426458e-01 -1.587302e-02
     vertex -4.083171e-01 -4.393491e-01 -3.174603e-02
     vertex -3.694109e-01 -4.426458e-01 -3.174603e-02
   endloop
 endfacet
 facet normal -8.443127e-02 -9.964293e-01  0.000000e+00
   outer loop
     vertex -3.694109e-01 -4.426458e-01 -1.587302e-02
     vertex -4.083171e-01 -4.393491e-01 -1.587302e-02
     vertex -4.083171e-01 -4.393491e-01 -3.174603e-02
   endloop
 endfacet
 facet normal  1.788896e-02 -9.998400e-01  0.000000e+00
   outer loop
     vertex -3.303715e-01 -4.419473e-01 -1.587302e-02
     vertex -3.694109e-01 -4.426458e-01 -3.174603e-02
     vertex -3.303715e-01 -4.419473e-01 -3.174603e-02
   endloop
 endfacet
 facet normal  1.788896e-02 -9.998400e-01  0.000000e+00
   outer loop
     vertex -3.303715e-01 -4.419473e-01 -1.587302e-02
     vertex -3.694109e-01 -4.426458e-01 -1.587302e-02
     vertex -3.694109e-01 -4.426458e-01 -3.174603e-02
   endloop
 endfacet
 facet normal  1.200217e-01 -9.927713e-01  0.000000e+00
   outer loop
     vertex -2.916081e-01 -4.372610e-01 -1.587302e-02
     vertex -3.303715e-01 -4.419473e-01 -3.174603e-02
     vertex -2.916081e-01 -4.372610e-01 -3.174603e-02
   endloop
 endfacet
 facet normal  1.200217e-01 -9.927713e-01  0.000000e+00
   outer loop
     vertex -2.916081e-01 -4.372610e-01 -1.587302e-02
     vertex -3.303715e-01 -4.419473e-01 -1.587302e-02
     vertex -3.303715e-01 -4.419473e-01 -3.174603e-02
   endloop
 endfacet
 facet normal  2.208965e-01 -9.752973e-01  0.000000e+00
   outer loop
     vertex -2.535270e-01 -4.286360e-01 -1.587302e-02
     vertex -2.916081e-01 -4.372610e-01 -3.174603e-02
     vertex -2.535270e-01 -4.286360e-01 -3.174603e-02
   endloop
 endfacet
 facet normal  2.208965e-01 -9.752973e-01  0.000000e+00
   outer loop
     vertex -2.535270e-01 -4.286360e-01 -1.587302e-02
     vertex -2.916081e-01 -4.372610e-01 -1.587302e-02
     vertex -2.916081e-01 -4.372610e-01 -3.174603e-02
   endloop
 endfacet
 facet normal  3.194560e-01 -9.476011e-01  0.000000e+00
   outer loop
     vertex -2.165273e-01 -4.161626e-01 -1.587302e-02
     vertex -2.535270e-01 -4.286360e-01 -3.174603e-02
     vertex -2.165273e-01 -4.161626e-01 -3.174603e-02
   endloop
 endfacet
 facet normal  3.194560e-01 -9.476011e-01  0.000000e+00
   outer loop
     vertex -2.165273e-01 -4.161626e-01 -1.587302e-02
     vertex -2.535270e-01 -4.286360e-01 -1.587302e-02
     vertex -2.535270e-01 -4.286360e-01 -3.174603e-02
   endloop
 endfacet
 facet normal  4.146673e-01 -9.099731e-01  0.000000e+00
   outer loop
     vertex -1.809968e-01 -3.999716e-01 -1.587302e-02
     vertex -2.165273e-01 -4.161626e-01 -3.174603e-02
     vertex -1.809968e-01 -3.999716e-01 -3.174603e-02
   endloop
 endfacet
 facet normal  4.146673e-01 -9.099731e-01  0.000000e+00
   outer loop
     vertex -1.809968e-01 -3.999716e-01 -1.587302e-02
     vertex -2.165273e-01 -4.161626e-01 -1.587302e-02
     vertex -2.165273e-01 -4.161626e-01 -3.174603e-02
   endloop
 endfacet
 facet normal  5.055325e-01 -8.628076e-01  0.000000e+00
   outer loop
     vertex -1.473079e-01 -3.802328e-01 -1.587302e-02
     vertex -1.809968e-01 -3.999716e-01 -3.174603e-02
     vertex -1.473079e-01 -3.802328e-01 -3.174603e-02
   endloop
 endfacet
 facet normal  5.055325e-01 -8.628076e-01  0.000000e+00
   outer loop
     vertex -1.473079e-01 -3.802328e-01 -1.587302e-02
     vertex -1.809968e-01 -3.999716e-01 -1.587302e-02
     vertex -1.809968e-01 -3.999716e-01 -3.174603e-02
   endloop
 endfacet
 facet normal  5.910991e-01 -8.065989e-01  0.000000e+00
   outer loop
     vertex -1.158138e-01 -3.571530e-01 -1.587302e-02
     vertex -1.473079e-01 -3.802328e-01 -3.174603e-02
     vertex -1.158138e-01 -3.571530e-01 -3.174603e-02
   endloop
 endfacet
 facet normal  5.910991e-01 -8.065989e-01  0.000000e+00
   outer loop
     vertex -1.158138e-01 -3.571530e-01 -1.587302e-02
     vertex -1.473079e-01 -3.802328e-01 -1.587302e-02
     vertex -1.473079e-01 -3.802328e-01 -3.174603e-02
   endloop
 endfacet
 facet normal  6.704704e-01 -7.419363e-01  0.000000e+00
   outer loop
     vertex -8.684439e-02 -3.309740e-01 -1.587302e-02
     vertex -1.158138e-01 -3.571530e-01 -3.174603e-02
     vertex -8.684439e-02 -3.309740e-01 -3.174603e-02
   endloop
 endfacet
 facet normal  6.704704e-01 -7.419363e-01  0.000000e+00
   outer loop
     vertex -8.684439e-02 -3.309740e-01 -1.587302e-02
     vertex -1.158138e-01 -3.571530e-01 -1.587302e-02
     vertex -1.158138e-01 -3.571530e-01 -3.174603e-02
   endloop
 endfacet
 facet normal  7.428145e-01 -6.694973e-01  0.000000e+00
   outer loop
     vertex -6.070344e-02 -3.019703e-01 -1.587302e-02
     vertex -8.684439e-02 -3.309740e-01 -3.174603e-02
     vertex -6.070344e-02 -3.019703e-01 -3.174603e-02
   endloop
 endfacet
 facet normal  7.428145e-01 -6.694973e-01  0.000000e+00
   outer loop
     vertex -6.070344e-02 -3.019703e-01 -1.587302e-02
     vertex -8.684439e-02 -3.309740e-01 -1.587302e-02
     vertex -8.684439e-02 -3.309740e-01 -3.174603e-02
   endloop
 endfacet
 facet normal  8.073730e-01 -5.900413e-01  0.000000e+00
   outer loop
     vertex -3.766490e-02 -2.704459e-01 -1.587302e-02
     vertex -6.070344e-02 -3.019703e-01 -3.174603e-02
     vertex -3.766490e-02 -2.704459e-01 -3.174603e-02
   endloop
 endfacet
 facet normal  8.073730e-01 -5.900413e-01  0.000000e+00
   outer loop
     vertex -3.766490e-02 -2.704459e-01 -1.587302e-02
     vertex -6.070344e-02 -3.019703e-01 -1.587302e-02
     vertex -6.070344e-02 -3.019703e-01 -3.174603e-02
   endloop
 endfacet
 facet normal  8.634695e-01 -5.044011e-01  0.000000e+00
   outer loop
     vertex -1.797023e-02 -2.367312e-01 -1.587302e-02
     vertex -3.766490e-02 -2.704459e-01 -3.174603e-02
     vertex -1.797023e-02 -2.367312e-01 -3.174603e-02
   endloop
 endfacet
 facet normal  8.634695e-01 -5.044011e-01  0.000000e+00
   outer loop
     vertex -1.797023e-02 -2.367312e-01 -1.587302e-02
     vertex -3.766490e-02 -2.704459e-01 -1.587302e-02
     vertex -3.766490e-02 -2.704459e-01 -3.174603e-02
   endloop
 endfacet
 facet normal  9.105158e-01 -4.134742e-01  0.000000e+00
   outer loop
     vertex -1.825870e-03 -2.011796e-01 -1.587302e-02
     vertex -1.797023e-02 -2.367312e-01 -3.174603e-02
     vertex -1.825870e-03 -2.011796e-01 -3.174603e-02
   endloop
 endfacet
 facet normal  9.105158e-01 -4.134742e-01  0.000000e+00
   outer loop
     vertex -1.825870e-03 -2.011796e-01 -1.587302e-02
     vertex -1.797023e-02 -2.367312e-01 -1.587302e-02
     vertex -1.797023e-02 -2.367312e-01 -3.174603e-02
   endloop
 endfacet
 facet normal  9.480190e-01 -3.182136e-01  0.000000e+00
   outer loop
     vertex  1.059898e-02 -1.641635e-01 -1.587302e-02
     vertex -1.825870e-03 -2.011796e-01 -3.174603e-02
     vertex  1.059898e-02 -1.641635e-01 -3.174603e-02
   endloop
 endfacet
 facet normal  9.480190e-01 -3.182136e-01  0.000000e+00
   outer loop
     vertex  1.059898e-02 -1.641635e-01 -1.587302e-02
     vertex -1.825870e-03 -2.011796e-01 -1.587302e-02
     vertex -1.825870e-03 -2.011796e-01 -3.174603e-02
   endloop
 endfacet
 facet normal  9.755860e-01 -2.196179e-01  0.000000e+00
   outer loop
     vertex  1.917410e-02 -1.260712e-01 -1.587302e-02
     vertex  1.059898e-02 -1.641635e-01 -3.174603e-02
     vertex  1.917410e-02 -1.260712e-01 -3.174603e-02
   endloop
 endfacet
 facet normal  9.755860e-01 -2.196179e-01  0.000000e+00
   outer loop
     vertex  1.917410e-02 -1.260712e-01 -1.587302e-02
     vertex  1.059898e-02 -1.641635e-01 -1.587302e-02
     vertex  1.059898e-02 -1.641635e-01 -3.174603e-02
   endloop
 endfacet
 facet normal  9.929277e-01 -1.187203e-01  0.000000e+00
   outer loop
     vertex  2.380961e-02 -8.730167e-02 -1.587302e-02
     vertex  1.917410e-02 -1.260712e-01 -3.174603e-02
     vertex  2.380961e-02 -8.730167e-02 -3.174603e-02
   endloop
 endfacet
 facet normal  9.929277e-01 -1.187203e-01  0.000000e+00
   outer loop
     vertex  2.380961e-02 -8.730167e-02 -1.587302e-02
     vertex  1.917410e-02 -1.260712e-01 -1.587302e-02
     vertex  1.917410e-02 -1.260712e-01 -3.174603e-02
   endloop
 endfacet
 facet normal  0.000000e+00  0.000000e+00  1.000000e+00
   outer loop
     vertex -7.380952e-01 -6.190485e-02  6.349212e-02
     vertex -7.360517e-01 -1.008970e-01  6.349212e-02
     vertex -7.300323e-01 -1.394758e-01  6.349212e-02
   endloop
 endfacet
 facet normal  0.000000e+00  0.000000e+00  1.000000e+00
   outer loop
     vertex -7.380952e-01 -6.190485e-02  6.349212e-02
     vertex -7.300323e-01 -1.394758e-01  6.349212e-02
     vertex -7.201000e-01 -1.772371e-01  6.349212e-02
   endloop
 endfacet
 facet normal  0.000000e+00  0.000000e+00  1.000000e+00
   outer loop
     vertex -7.380952e-01 -6.190485e-02  6.349212e-02
     vertex -7.201000e-01 -1.772371e-01  6.349212e-02
     vertex -7.063590e-01 -2.137849e-01  6.349212e-02
   endloop
 endfacet
 facet normal  0.000000e+00  0.000000e+00  1.000000e+00
   outer loop
     vertex -7.380952e-01 -6.190485e-02  6.349212e-02
     vertex -7.063590e-01 -2.137849e-01  6.349212e-02
     vertex -6.889532e-01 -2.487363e-01  6.349212e-02
   endloop
 endfacet
 facet normal  0.000000e+00  0.000000e+00  1.000000e+00
   outer loop
     vertex -7.380952e-01 -6.190485e-02  6.349212e-02
     vertex -6.889532e-01 -2.487363e-01  6.349212e-02
     vertex -6.680651e-01 -2.817250e-01  6.349212e-02
   endloop
 endfacet
 facet normal  0.000000e+00  0.000000e+00  1.000000e+00
   outer loop
     vertex -7.380952e-01 -6.190485e-02  6.349212e-02
     vertex -6.680651e-01 -2.817250e-01  6.349212e-02
     vertex -6.439136e-01 -3.124050e-01  6.349212e-02
   endloop
 endfacet
 facet normal  0.000000e+00  0.000000e+00  1.000000e+00
   outer loop
     vertex -7.380952e-01 -6.190485e-02  6.349212e-02
     vertex -6.439136e-01 -3.124050e-01  6.349212e-02
     vertex -6.167518e-01 -3.404550e-01  6.349212e-02
   endloop
 endfacet
 facet normal  0.000000e+00  0.000000e+00  1.000000e+00
   outer loop
     vertex -7.380952e-01 -6.190485e-02  6.349212e-02
     vertex -6.167518e-01 -3.404550e-01  6.349212e-02
     vertex -5.868645e-01 -3.655809e-01  6.349212e-02
   endloop
 endfacet
 facet normal  0.000000e+00  0.000000e+00  1.000000e+00
   outer loop
     vertex -2.165273e-01 -4.161626e-01  6.349212e-02
     vertex -2.916081e-01 -4.372610e-01  6.349212e-02
     vertex -2.535270e-01 -4.286360e-01  6.349212e-02
   endloop
 endfacet
 facet normal  0.000000e+00  0.000000e+00  1.000000e+00
   outer loop
     vertex -3.766490e-02 -2.704459e-01  6.349212e-02
     vertex -8.684439e-02 -3.309740e-01  6.349212e-02
     vertex -6.070344e-02 -3.019703e-01  6.349212e-02
   endloop
 endfacet
 facet normal  0.000000e+00  0.000000e+00  1.000000e+00
   outer loop
     vertex -1.825870e-03 -2.011796e-01  6.349212e-02
     vertex -8.684439e-02 -3.309740e-01  6.349212e-02
     vertex -3.766490e-02 -2.704459e-01  6.349212e-02
   endloop
 endfacet
 facet normal  0.000000e+00  0.000000e+00  1.000000e+00
   outer loop
     vertex -1.825870e-03 -2.011796e-01  6.349212e-02
     vertex -3.766490e-02 -2.704459e-01  6.349212e-02
     vertex -1.797023e-02 -2.367312e-01  6.349212e-02
   endloop
 endfacet
 facet normal  0.000000e+00  0.000000e+00  1.000000e+00
   outer loop
     vertex -7.300323e-01  6.251900e-01  6.349212e-02
     vertex -7.360517e-01  5.866111e-01  6.349212e-02
     vertex -7.380952e-01  5.476190e-01  6.349212e-02
   endloop
 endfacet
 facet normal  0.000000e+00  0.000000e+00  1.000000e+00
   outer loop
     vertex  2.380961e-02 -8.730167e-02  6.349212e-02
     vertex -5.868645e-01 -3.655809e-01  6.349212e-02
     vertex -5.545649e-01 -3.875194e-01  6.349212e-02
   endloop
 endfacet
 facet normal  0.000000e+00  0.000000e+00  1.000000e+00
   outer loop
     vertex  2.380961e-02 -8.730167e-02  6.349212e-02
     vertex -5.545649e-01 -3.875194e-01  6.349212e-02
     vertex -5.201915e-01 -4.060405e-01  6.349212e-02
   endloop
 endfacet
 facet normal  0.000000e+00  0.000000e+00  1.000000e+00
   outer loop
     vertex  2.380961e-02 -8.730167e-02  6.349212e-02
     vertex -5.201915e-01 -4.060405e-01  6.349212e-02
     vertex -4.841046e-01 -4.209500e-01  6.349212e-02
   endloop
 endfacet
 facet normal  0.000000e+00  0.000000e+00  1.000000e+00
   outer loop
     vertex  2.380961e-02 -8.730167e-02  6.349212e-02
     vertex -4.841046e-01 -4.209500e-01  6.349212e-02
     vertex -4.466823e-01 -4.320919e-01  6.349212e-02
   endloop
 endfacet
 facet normal  0.000000e+00  0.000000e+00  1.000000e+00
   outer loop
     vertex  2.380961e-02 -8.730167e-02  6.349212e-02
     vertex -4.466823e-01 -4.320919e-01  6.349212e-02
     vertex -4.083171e-01 -4.393491e-01  6.349212e-02
   endloop
 endfacet
 facet normal  0.000000e+00  0.000000e+00  1.000000e+00
   outer loop
     vertex  2.380961e-02 -8.730167e-02  6.349212e-02
     vertex -4.083171e-01 -4.393491e-01  6.349212e-02
     vertex -3.694109e-01 -4.426458e-01  6.349212e-02
   endloop
 endfacet
 facet normal  0.000000e+00  0.000000e+00  1.000000e+00
   outer loop
     vertex  2.380961e-02 -8.730167e-02  6.349212e-02
     vertex -3.694109e-01 -4.426458e-01  6.349212e-02
     vertex -3.303715e-01 -4.419473e-01  6.349212e-02
   endloop
 endfacet
 facet normal  0.000000e+00  0.000000e+00  1.000000e+00
   outer loop
     vertex  2.380961e-02 -8.730167e-02  6.349212e-02
     vertex -3.303715e-01 -4.419473e-01  6.349212e-02
     vertex -2.916081e-01 -4.372610e-01  6.349212e-02
   endloop
 endfacet
 facet normal  0.000000e+00  0.000000e+00  1.000000e+00
   outer loop
     vertex  2.380961e-02 -8.730167e-02  6.349212e-02
     vertex -8.684439e-02 -3.309740e-01  6.349212e-02
     vertex -1.825870e-03 -2.011796e-01  6.349212e-02
   endloop
 endfacet
 facet normal  0.000000e+00  0.000000e+00  1.000000e+00
   outer loop
     vertex  2.380961e-02 -8.730167e-02  6.349212e-02
     vertex -2.165273e-01 -4.161626e-01  6.349212e-02
     vertex -1.809968e-01 -3.999716e-01  6.349212e-02
   endloop
 endfacet
 facet normal  0.000000e+00  0.000000e+00  1.000000e+00
   outer loop
     vertex  2.380961e-02 -8.730167e-02  6.349212e-02
     vertex -1.809968e-01 -3.999716e-01  6.349212e-02
     vertex -1.473079e-01 -3.802328e-01  6.349212e-02
   endloop
 endfacet
 facet normal  0.000000e+00  0.000000e+00  1.000000e+00
   outer loop
     vertex  2.380961e-02 -8.730167e-02  6.349212e-02
     vertex -1.473079e-01 -3.802328e-01  6.349212e-02
     vertex -1.158138e-01 -3.571530e-01  6.349212e-02
   endloop
 endfacet
 facet normal  0.000000e+00  0.000000e+00  1.000000e+00
   outer loop
     vertex  2.380961e-02 -8.730167e-02  6.349212e-02
     vertex -1.158138e-01 -3.571530e-01  6.349212e-02
     vertex -8.684439e-02 -3.309740e-01  6.349212e-02
   endloop
 endfacet
 facet normal  0.000000e+00  0.000000e+00  1.000000e+00
   outer loop
     vertex  2.380961e-02 -8.730167e-02  6.349212e-02
     vertex -1.825870e-03 -2.011796e-01  6.349212e-02
     vertex  1.059898e-02 -1.641635e-01  6.349212e-02
   endloop
 endfacet
 facet normal  0.000000e+00  0.000000e+00  1.000000e+00
   outer loop
     vertex  2.380961e-02 -8.730167e-02  6.349212e-02
     vertex  1.059898e-02 -1.641635e-01  6.349212e-02
     vertex  1.917410e-02 -1.260712e-01  6.349212e-02
   endloop
 endfacet
 facet normal  0.000000e+00  0.000000e+00  1.000000e+00
   outer loop
     vertex  2.380961e-02 -8.730167e-02  6.349212e-02
     vertex -2.916081e-01 -4.372610e-01  6.349212e-02
     vertex -2.165273e-01 -4.161626e-01  6.349212e-02
   endloop
 endfacet
 facet normal  0.000000e+00  0.000000e+00  1.000000e+00
   outer loop
     vertex  2.380961e-02 -8.730167e-02  6.349212e-02
     vertex -7.380952e-01 -6.190485e-02  6.349212e-02
     vertex -5.868645e-01 -3.655809e-01  6.349212e-02
   endloop
 endfacet
 facet normal  0.000000e+00  0.000000e+00  1.000000e+00
   outer loop
     vertex -7.063590e-01  6.994991e-01  6.349212e-02
     vertex -7.201000e-01  6.629512e-01  6.349212e-02
     vertex -7.300323e-01  6.251900e-01  6.349212e-02
   endloop
 endfacet
 facet normal  0.000000e+00  0.000000e+00  1.000000e+00
   outer loop
     vertex -6.680651e-01  7.674391e-01  6.349212e-02
     vertex -6.889532e-01  7.344505e-01  6.349212e-02
     vertex -7.063590e-01  6.994991e-01  6.349212e-02
   endloop
 endfacet
 facet normal  0.000000e+00  0.000000e+00  1.000000e+00
   outer loop
     vertex -6.167518e-01  8.261691e-01  6.349212e-02
     vertex -6.680651e-01  7.674391e-01  6.349212e-02
     vertex -7.063590e-01  6.994991e-01  6.349212e-02
   endloop
 endfacet
 facet normal  0.000000e+00  0.000000e+00  1.000000e+00
   outer loop
     vertex -6.167518e-01  8.261691e-01  6.349212e-02
     vertex -6.439136e-01  7.981191e-01  6.349212e-02
     vertex -6.680651e-01  7.674391e-01  6.349212e-02
   endloop
 endfacet
 facet normal  0.000000e+00  0.000000e+00  1.000000e+00
   outer loop
     vertex -5.201915e-01  8.917545e-01  6.349212e-02
     vertex -5.545649e-01  8.732335e-01  6.349212e-02
     vertex -5.868645e-01  8.512950e-01  6.349212e-02
   endloop
 endfacet
 facet normal  0.000000e+00  0.000000e+00  1.000000e+00
   outer loop
     vertex -3.694109e-01  9.283599e-01  6.349212e-02
     vertex -4.083171e-01  9.250632e-01  6.349212e-02
     vertex -4.466823e-01  9.178059e-01  6.349212e-02
   endloop
 endfacet
 facet normal  0.000000e+00  0.000000e+00  1.000000e+00
   outer loop
     vertex -3.694109e-01  9.283599e-01  6.349212e-02
     vertex -4.466823e-01  9.178059e-01  6.349212e-02
     vertex -4.841045e-01  9.066641e-01  6.349212e-02
   endloop
 endfacet
 facet normal  0.000000e+00  0.000000e+00  1.000000e+00
   outer loop
     vertex -3.694109e-01  9.283599e-01  6.349212e-02
     vertex -4.841045e-01  9.066641e-01  6.349212e-02
     vertex -5.201915e-01  8.917545e-01  6.349212e-02
   endloop
 endfacet
 facet normal  0.000000e+00  0.000000e+00  1.000000e+00
   outer loop
     vertex -3.694109e-01  9.283599e-01  6.349212e-02
     vertex -5.201915e-01  8.917545e-01  6.349212e-02
     vertex -5.868645e-01  8.512950e-01  6.349212e-02
   endloop
 endfacet
 facet normal  0.000000e+00  0.000000e+00  1.000000e+00
   outer loop
     vertex -3.694109e-01  9.283599e-01  6.349212e-02
     vertex -5.868645e-01  8.512950e-01  6.349212e-02
     vertex -6.167518e-01  8.261691e-01  6.349212e-02
   endloop
 endfacet
 facet normal  0.000000e+00  0.000000e+00  1.000000e+00
   outer loop
     vertex  2.380961e-02  5.730158e-01  6.349212e-02
     vertex -7.380952e-01 -6.190485e-02  6.349212e-02
     vertex  2.380961e-02 -8.730167e-02  6.349212e-02
   endloop
 endfacet
 facet normal  0.000000e+00  0.000000e+00  1.000000e+00
   outer loop
     vertex  2.380961e-02  5.730158e-01  6.349212e-02
     vertex -7.380952e-01  5.476190e-01  6.349212e-02
     vertex -7.380952e-01 -6.190485e-02  6.349212e-02
   endloop
 endfacet
 facet normal  0.000000e+00  0.000000e+00  1.000000e+00
   outer loop
     vertex -2.535270e-01  9.143500e-01  6.349212e-02
     vertex -2.916081e-01  9.229751e-01  6.349212e-02
     vertex -3.303715e-01  9.276614e-01  6.349212e-02
   endloop
 endfacet
 facet normal  0.000000e+00  0.000000e+00  1.000000e+00
   outer loop
     vertex -1.825884e-03  6.868937e-01  6.349212e-02
     vertex  2.380961e-02  5.730158e-01  6.349212e-02
     vertex  1.917410e-02  6.117853e-01  6.349212e-02
   endloop
 endfacet
 facet normal  0.000000e+00  0.000000e+00  1.000000e+00
   outer loop
     vertex -1.825884e-03  6.868937e-01  6.349212e-02
     vertex  1.917410e-02  6.117853e-01  6.349212e-02
     vertex  1.059897e-02  6.498777e-01  6.349212e-02
   endloop
 endfacet
 facet normal  0.000000e+00  0.000000e+00  1.000000e+00
   outer loop
     vertex -2.165273e-01  9.018767e-01  6.349212e-02
     vertex -3.303715e-01  9.276614e-01  6.349212e-02
     vertex -3.694109e-01  9.283599e-01  6.349212e-02
   endloop
 endfacet
 facet normal  0.000000e+00  0.000000e+00  1.000000e+00
   outer loop
     vertex -2.165273e-01  9.018767e-01  6.349212e-02
     vertex -2.535270e-01  9.143500e-01  6.349212e-02
     vertex -3.303715e-01  9.276614e-01  6.349212e-02
   endloop
 endfacet
 facet normal  0.000000e+00  0.000000e+00  1.000000e+00
   outer loop
     vertex -1.809968e-01  8.856857e-01  6.349212e-02
     vertex -2.165273e-01  9.018767e-01  6.349212e-02
     vertex -3.694109e-01  9.283599e-01  6.349212e-02
   endloop
 endfacet
 facet normal  0.000000e+00  0.000000e+00  1.000000e+00
   outer loop
     vertex -6.070346e-02  7.876845e-01  6.349212e-02
     vertex -1.825884e-03  6.868937e-01  6.349212e-02
     vertex -1.797025e-02  7.224453e-01  6.349212e-02
   endloop
 endfacet
 facet normal  0.000000e+00  0.000000e+00  1.000000e+00
   outer loop
     vertex -6.070346e-02  7.876845e-01  6.349212e-02
     vertex -1.797025e-02  7.224453e-01  6.349212e-02
     vertex -3.766491e-02  7.561601e-01  6.349212e-02
   endloop
 endfacet
 facet normal  0.000000e+00  0.000000e+00  1.000000e+00
   outer loop
     vertex -8.684441e-02  8.166881e-01  6.349212e-02
     vertex -7.300323e-01  6.251900e-01  6.349212e-02
     vertex -7.380952e-01  5.476190e-01  6.349212e-02
   endloop
 endfacet
 facet normal  0.000000e+00  0.000000e+00  1.000000e+00
   outer loop
     vertex -8.684441e-02  8.166881e-01  6.349212e-02
     vertex -7.063590e-01  6.994991e-01  6.349212e-02
     vertex -7.300323e-01  6.251900e-01  6.349212e-02
   endloop
 endfacet
 facet normal  0.000000e+00  0.000000e+00  1.000000e+00
   outer loop
     vertex -8.684441e-02  8.166881e-01  6.349212e-02
     vertex -1.158138e-01  8.428671e-01  6.349212e-02
     vertex -1.473079e-01  8.659469e-01  6.349212e-02
   endloop
 endfacet
 facet normal  0.000000e+00  0.000000e+00  1.000000e+00
   outer loop
     vertex -8.684441e-02  8.166881e-01  6.349212e-02
     vertex -1.473079e-01  8.659469e-01  6.349212e-02
     vertex -1.809968e-01  8.856857e-01  6.349212e-02
   endloop
 endfacet
 facet normal  0.000000e+00  0.000000e+00  1.000000e+00
   outer loop
     vertex -8.684441e-02  8.166881e-01  6.349212e-02
     vertex -6.167518e-01  8.261691e-01  6.349212e-02
     vertex -7.063590e-01  6.994991e-01  6.349212e-02
   endloop
 endfacet
 facet normal  0.000000e+00  0.000000e+00  1.000000e+00
   outer loop
     vertex -8.684441e-02  8.166881e-01  6.349212e-02
     vertex -7.380952e-01  5.476190e-01  6.349212e-02
     vertex  2.380961e-02  5.730158e-01  6.349212e-02
   endloop
 endfacet
 facet normal  0.000000e+00  0.000000e+00  1.000000e+00
   outer loop
     vertex -8.684441e-02  8.166881e-01  6.349212e-02
     vertex -3.694109e-01  9.283599e-01  6.349212e-02
     vertex -6.167518e-01  8.261691e-01  6.349212e-02
   endloop
 endfacet
 facet normal  0.000000e+00  0.000000e+00  1.000000e+00
   outer loop
     vertex -8.684441e-02  8.166881e-01  6.349212e-02
     vertex -1.809968e-01  8.856857e-01  6.349212e-02
     vertex -3.694109e-01  9.283599e-01  6.349212e-02
   endloop
 endfacet
 facet normal  0.000000e+00  0.000000e+00  1.000000e+00
   outer loop
     vertex -8.684441e-02  8.166881e-01  6.349212e-02
     vertex  2.380961e-02  5.730158e-01  6.349212e-02
     vertex -1.825884e-03  6.868937e-01  6.349212e-02
   endloop
 endfacet
 facet normal  0.000000e+00  0.000000e+00  1.000000e+00
   outer loop
     vertex -8.684441e-02  8.166881e-01  6.349212e-02
     vertex -1.825884e-03  6.868937e-01  6.349212e-02
     vertex -6.070346e-02  7.876845e-01  6.349212e-02
   endloop
 endfacet
 facet normal  9.929277e-01  1.187204e-01  0.000000e+00
   outer loop
     vertex  1.917410e-02  6.117853e-01 -1.587302e-02
     vertex  2.380961e-02  5.730158e-01  6.349212e-02
     vertex  2.380961e-02  5.730158e-01 -1.587302e-02
   endloop
 endfacet
 facet normal  9.929277e-01  1.187204e-01 -0.000000e+00
   outer loop
     vertex  1.917410e-02  6.117853e-01 -1.587302e-02
     vertex  1.917410e-02  6.117853e-01  6.349212e-02
     vertex  2.380961e-02  5.730158e-01  6.349212e-02
   endloop
 endfacet
 facet normal  9.755859e-01  2.196180e-01 -0.000000e+00
   outer loop
     vertex  1.059897e-02  6.498777e-01 -1.587302e-02
     vertex  1.059897e-02  6.498777e-01  6.349212e-02
     vertex  1.917410e-02  6.117853e-01  6.349212e-02
   endloop
 endfacet
 facet normal  9.755859e-01  2.196180e-01  0.000000e+00
   outer loop
     vertex  1.059897e-02  6.498777e-01 -1.587302e-02
     vertex  1.917410e-02  6.117853e-01  6.349212e-02
     vertex  1.917410e-02  6.117853e-01 -1.587302e-02
   endloop
 endfacet
 facet normal  9.480190e-01  3.182137e-01 -0.000000e+00
   outer loop
     vertex -1.825884e-03  6.868937e-01 -1.587302e-02
     vertex -1.825884e-03  6.868937e-01  6.349212e-02
     vertex  1.059897e-02  6.498777e-01  6.349212e-02
   endloop
 endfacet
 facet normal  9.480190e-01  3.182137e-01  0.000000e+00
   outer loop
     vertex -1.825884e-03  6.868937e-01 -1.587302e-02
     vertex  1.059897e-02  6.498777e-01  6.349212e-02
     vertex  1.059897e-02  6.498777e-01 -1.587302e-02
   endloop
 endfacet
 facet normal  9.105158e-01  4.134743e-01 -0.000000e+00
   outer loop
     vertex -1.797025e-02  7.224453e-01 -1.587302e-02
     vertex -1.797025e-02  7.224453e-01  6.349212e-02
     vertex -1.825884e-03  6.868937e-01  6.349212e-02
   endloop
 endfacet
 facet normal  9.105158e-01  4.134743e-01  0.000000e+00
   outer loop
     vertex -1.797025e-02  7.224453e-01 -1.587302e-02
     vertex -1.825884e-03  6.868937e-01  6.349212e-02
     vertex -1.825884e-03  6.868937e-01 -1.587302e-02
   endloop
 endfacet
 facet normal  8.634694e-01  5.044012e-01 -0.000000e+00
   outer loop
     vertex -3.766491e-02  7.561601e-01 -1.587302e-02
     vertex -3.766491e-02  7.561601e-01  6.349212e-02
     vertex -1.797025e-02  7.224453e-01  6.349212e-02
   endloop
 endfacet
 facet normal  8.634694e-01  5.044012e-01  0.000000e+00
   outer loop
     vertex -3.766491e-02  7.561601e-01 -1.587302e-02
     vertex -1.797025e-02  7.224453e-01  6.349212e-02
     vertex -1.797025e-02  7.224453e-01 -1.587302e-02
   endloop
 endfacet
 facet normal  8.073730e-01  5.900414e-01 -0.000000e+00
   outer loop
     vertex -6.070346e-02  7.876845e-01 -1.587302e-02
     vertex -6.070346e-02  7.876845e-01  6.349212e-02
     vertex -3.766491e-02  7.561601e-01  6.349212e-02
   endloop
 endfacet
 facet normal  8.073730e-01  5.900414e-01  0.000000e+00
   outer loop
     vertex -6.070346e-02  7.876845e-01 -1.587302e-02
     vertex -3.766491e-02  7.561601e-01  6.349212e-02
     vertex -3.766491e-02  7.561601e-01 -1.587302e-02
   endloop
 endfacet
 facet normal  7.428144e-01  6.694974e-01 -0.000000e+00
   outer loop
     vertex -8.684441e-02  8.166881e-01 -1.587302e-02
     vertex -8.684441e-02  8.166881e-01  6.349212e-02
     vertex -6.070346e-02  7.876845e-01  6.349212e-02
   endloop
 endfacet
 facet normal  7.428144e-01  6.694974e-01  0.000000e+00
   outer loop
     vertex -8.684441e-02  8.166881e-01 -1.587302e-02
     vertex -6.070346e-02  7.876845e-01  6.349212e-02
     vertex -6.070346e-02  7.876845e-01 -1.587302e-02
   endloop
 endfacet
 facet normal  6.704704e-01  7.419363e-01 -0.000000e+00
   outer loop
     vertex -1.158138e-01  8.428671e-01 -1.587302e-02
     vertex -1.158138e-01  8.428671e-01  6.349212e-02
     vertex -8.684441e-02  8.166881e-01  6.349212e-02
   endloop
 endfacet
 facet normal  6.704704e-01  7.419363e-01  0.000000e+00
   outer loop
     vertex -1.158138e-01  8.428671e-01 -1.587302e-02
     vertex -8.684441e-02  8.166881e-01  6.349212e-02
     vertex -8.684441e-02  8.166881e-01 -1.587302e-02
   endloop
 endfacet
 facet normal  5.910991e-01  8.065990e-01  0.000000e+00
   outer loop
     vertex -1.473079e-01  8.659469e-01 -1.587302e-02
     vertex -1.158138e-01  8.428671e-01  6.349212e-02
     vertex -1.158138e-01  8.428671e-01 -1.587302e-02
   endloop
 endfacet
 facet normal  5.910991e-01  8.065990e-01 -0.000000e+00
   outer loop
     vertex -1.473079e-01  8.659469e-01 -1.587302e-02
     vertex -1.473079e-01  8.659469e-01  6.349212e-02
     vertex -1.158138e-01  8.428671e-01  6.349212e-02
   endloop
 endfacet
 facet normal  5.055324e-01  8.628076e-01 -0.000000e+00
   outer loop
     vertex -1.473079e-01  8.659469e-01 -1.587302e-02
     vertex -1.809968e-01  8.856857e-01  6.349212e-02
     vertex -1.473079e-01  8.659469e-01  6.349212e-02
   endloop
 endfacet
 facet normal  5.055324e-01  8.628076e-01 -0.000000e+00
   outer loop
     vertex -1.809968e-01  8.856857e-01 -1.587302e-02
     vertex -1.809968e-01  8.856857e-01  6.349212e-02
     vertex -1.473079e-01  8.659469e-01 -1.587302e-02
   endloop
 endfacet
 facet normal  4.146673e-01  9.099731e-01  0.000000e+00
   outer loop
     vertex -2.165273e-01  9.018767e-01 -1.587302e-02
     vertex -1.809968e-01  8.856857e-01  6.349212e-02
     vertex -1.809968e-01  8.856857e-01 -1.587302e-02
   endloop
 endfacet
 facet normal  4.146673e-01  9.099731e-01 -0.000000e+00
   outer loop
     vertex -2.165273e-01  9.018767e-01 -1.587302e-02
     vertex -2.165273e-01  9.018767e-01  6.349212e-02
     vertex -1.809968e-01  8.856857e-01  6.349212e-02
   endloop
 endfacet
 facet normal  3.194560e-01  9.476011e-01 -0.000000e+00
   outer loop
     vertex -2.535270e-01  9.143500e-01 -1.587302e-02
     vertex -2.535270e-01  9.143500e-01  6.349212e-02
     vertex -2.165273e-01  9.018767e-01  6.349212e-02
   endloop
 endfacet
 facet normal  3.194560e-01  9.476011e-01  0.000000e+00
   outer loop
     vertex -2.535270e-01  9.143500e-01 -1.587302e-02
     vertex -2.165273e-01  9.018767e-01  6.349212e-02
     vertex -2.165273e-01  9.018767e-01 -1.587302e-02
   endloop
 endfacet
 facet normal  2.208965e-01  9.752973e-01 -0.000000e+00
   outer loop
     vertex -2.916081e-01  9.229751e-01 -1.587302e-02
     vertex -2.916081e-01  9.229751e-01  6.349212e-02
     vertex -2.535270e-01  9.143500e-01  6.349212e-02
   endloop
 endfacet
 facet normal  2.208965e-01  9.752973e-01  0.000000e+00
   outer loop
     vertex -2.916081e-01  9.229751e-01 -1.587302e-02
     vertex -2.535270e-01  9.143500e-01  6.349212e-02
     vertex -2.535270e-01  9.143500e-01 -1.587302e-02
   endloop
 endfacet
 facet normal  1.200217e-01  9.927713e-01 -0.000000e+00
   outer loop
     vertex -3.303715e-01  9.276614e-01 -1.587302e-02
     vertex -3.303715e-01  9.276614e-01  6.349212e-02
     vertex -2.916081e-01  9.229751e-01  6.349212e-02
   endloop
 endfacet
 facet normal  1.200217e-01  9.927713e-01  0.000000e+00
   outer loop
     vertex -3.303715e-01  9.276614e-01 -1.587302e-02
     vertex -2.916081e-01  9.229751e-01  6.349212e-02
     vertex -2.916081e-01  9.229751e-01 -1.587302e-02
   endloop
 endfacet
 facet normal  1.788896e-02  9.998400e-01 -0.000000e+00
   outer loop
     vertex -3.694109e-01  9.283599e-01 -1.587302e-02
     vertex -3.694109e-01  9.283599e-01  6.349212e-02
     vertex -3.303715e-01  9.276614e-01  6.349212e-02
   endloop
 endfacet
 facet normal  1.788896e-02  9.998400e-01  0.000000e+00
   outer loop
     vertex -3.694109e-01  9.283599e-01 -1.587302e-02
     vertex -3.303715e-01  9.276614e-01  6.349212e-02
     vertex -3.303715e-01  9.276614e-01 -1.587302e-02
   endloop
 endfacet
 facet normal -8.443126e-02  9.964293e-01  0.000000e+00
   outer loop
     vertex -4.083171e-01  9.250632e-01 -1.587302e-02
     vertex -4.083171e-01  9.250632e-01  6.349212e-02
     vertex -3.694109e-01  9.283599e-01  6.349212e-02
   endloop
 endfacet
 facet normal -8.443126e-02  9.964293e-01  0.000000e+00
   outer loop
     vertex -4.083171e-01  9.250632e-01 -1.587302e-02
     vertex -3.694109e-01  9.283599e-01  6.349212e-02
     vertex -3.694109e-01  9.283599e-01 -1.587302e-02
   endloop
 endfacet
 facet normal -1.858666e-01  9.825750e-01  0.000000e+00
   outer loop
     vertex -4.466823e-01  9.178059e-01 -1.587302e-02
     vertex -4.466823e-01  9.178059e-01  6.349212e-02
     vertex -4.083171e-01  9.250632e-01  6.349212e-02
   endloop
 endfacet
 facet normal -1.858666e-01  9.825750e-01  0.000000e+00
   outer loop
     vertex -4.466823e-01  9.178059e-01 -1.587302e-02
     vertex -4.083171e-01  9.250632e-01  6.349212e-02
     vertex -4.083171e-01  9.250632e-01 -1.587302e-02
   endloop
 endfacet
 facet normal -2.853538e-01  9.584223e-01  0.000000e+00
   outer loop
     vertex -4.841045e-01  9.066641e-01 -1.587302e-02
     vertex -4.841045e-01  9.066641e-01  6.349212e-02
     vertex -4.466823e-01  9.178059e-01  6.349212e-02
   endloop
 endfacet
 facet normal -2.853538e-01  9.584223e-01  0.000000e+00
   outer loop
     vertex -4.841045e-01  9.066641e-01 -1.587302e-02
     vertex -4.466823e-01  9.178059e-01  6.349212e-02
     vertex -4.466823e-01  9.178059e-01 -1.587302e-02
   endloop
 endfacet
 facet normal -3.818502e-01  9.242242e-01  0.000000e+00
   outer loop
     vertex -5.201915e-01  8.917545e-01 -1.587302e-02
     vertex -5.201915e-01  8.917545e-01  6.349212e-02
     vertex -4.841045e-01  9.066641e-01  6.349212e-02
   endloop
 endfacet
 facet normal -3.818502e-01  9.242242e-01  0.000000e+00
   outer loop
     vertex -5.201915e-01  8.917545e-01 -1.587302e-02
     vertex -4.841045e-01  9.066641e-01  6.349212e-02
     vertex -4.841045e-01  9.066641e-01 -1.587302e-02
   endloop
 endfacet
 facet normal -4.743444e-01  8.803394e-01  0.000000e+00
   outer loop
     vertex -5.545649e-01  8.732335e-01 -1.587302e-02
     vertex -5.545649e-01  8.732335e-01  6.349212e-02
     vertex -5.201915e-01  8.917545e-01  6.349212e-02
   endloop
 endfacet
 facet normal -4.743444e-01  8.803394e-01  0.000000e+00
   outer loop
     vertex -5.545649e-01  8.732335e-01 -1.587302e-02
     vertex -5.201915e-01  8.917545e-01  6.349212e-02
     vertex -5.201915e-01  8.917545e-01 -1.587302e-02
   endloop
 endfacet
 facet normal -5.618669e-01  8.272276e-01  0.000000e+00
   outer loop
     vertex -5.868645e-01  8.512950e-01 -1.587302e-02
     vertex -5.868645e-01  8.512950e-01  6.349212e-02
     vertex -5.545649e-01  8.732335e-01  6.349212e-02
   endloop
 endfacet
 facet normal -6.435006e-01  7.654456e-01  0.000000e+00
   outer loop
     vertex -5.868645e-01  8.512950e-01 -1.587302e-02
     vertex -6.167518e-01  8.261691e-01  6.349212e-02
     vertex -5.868645e-01  8.512950e-01  6.349212e-02
   endloop
 endfacet
 facet normal -5.618669e-01  8.272276e-01  0.000000e+00
   outer loop
     vertex -5.868645e-01  8.512950e-01 -1.587302e-02
     vertex -5.545649e-01  8.732335e-01  6.349212e-02
     vertex -5.545649e-01  8.732335e-01 -1.587302e-02
   endloop
 endfacet
 facet normal -6.435006e-01  7.654456e-01  0.000000e+00
   outer loop
     vertex -6.167518e-01  8.261691e-01 -1.587302e-02
     vertex -6.167518e-01  8.261691e-01  6.349212e-02
     vertex -5.868645e-01  8.512950e-01 -1.587302e-02
   endloop
 endfacet
 facet normal -7.183896e-01  6.956410e-01  0.000000e+00
   outer loop
     vertex -6.439136e-01  7.981191e-01 -1.587302e-02
     vertex -6.439136e-01  7.981191e-01  6.349212e-02
     vertex -6.167518e-01  8.261691e-01  6.349212e-02
   endloop
 endfacet
 facet normal -7.183896e-01  6.956410e-01  0.000000e+00
   outer loop
     vertex -6.439136e-01  7.981191e-01 -1.587302e-02
     vertex -6.167518e-01  8.261691e-01  6.349212e-02
     vertex -6.167518e-01  8.261691e-01 -1.587302e-02
   endloop
 endfacet
 facet normal -7.857492e-01  6.185453e-01  0.000000e+00
   outer loop
     vertex -6.680651e-01  7.674391e-01 -1.587302e-02
     vertex -6.680651e-01  7.674391e-01  6.349212e-02
     vertex -6.439136e-01  7.981191e-01  6.349212e-02
   endloop
 endfacet
 facet normal -7.857492e-01  6.185453e-01  0.000000e+00
   outer loop
     vertex -6.680651e-01  7.674391e-01 -1.587302e-02
     vertex -6.439136e-01  7.981191e-01  6.349212e-02
     vertex -6.439136e-01  7.981191e-01 -1.587302e-02
   endloop
 endfacet
 facet normal -8.448732e-01  5.349665e-01  0.000000e+00
   outer loop
     vertex -6.889532e-01  7.344505e-01 -1.587302e-02
     vertex -6.889532e-01  7.344505e-01  6.349212e-02
     vertex -6.680651e-01  7.674391e-01  6.349212e-02
   endloop
 endfacet
 facet normal -8.448732e-01  5.349665e-01  0.000000e+00
   outer loop
     vertex -6.889532e-01  7.344505e-01 -1.587302e-02
     vertex -6.680651e-01  7.674391e-01  6.349212e-02
     vertex -6.680651e-01  7.674391e-01 -1.587302e-02
   endloop
 endfacet
 facet normal -8.951422e-01  4.457808e-01  0.000000e+00
   outer loop
     vertex -7.063590e-01  6.994991e-01 -1.587302e-02
     vertex -7.063590e-01  6.994991e-01  6.349212e-02
     vertex -6.889532e-01  7.344505e-01  6.349212e-02
   endloop
 endfacet
 facet normal -8.951422e-01  4.457808e-01  0.000000e+00
   outer loop
     vertex -7.063590e-01  6.994991e-01 -1.587302e-02
     vertex -6.889532e-01  7.344505e-01  6.349212e-02
     vertex -6.889532e-01  7.344505e-01 -1.587302e-02
   endloop
 endfacet
 facet normal -9.360290e-01  3.519228e-01  0.000000e+00
   outer loop
     vertex -7.201000e-01  6.629512e-01 -1.587302e-02
     vertex -7.201000e-01  6.629512e-01  6.349212e-02
     vertex -7.063590e-01  6.994991e-01  6.349212e-02
   endloop
 endfacet
 facet normal -9.360290e-01  3.519228e-01  0.000000e+00
   outer loop
     vertex -7.201000e-01  6.629512e-01 -1.587302e-02
     vertex -7.063590e-01  6.994991e-01  6.349212e-02
     vertex -7.063590e-01  6.994991e-01 -1.587302e-02
   endloop
 endfacet
 facet normal -9.671053e-01  2.543763e-01  0.000000e+00
   outer loop
     vertex -7.300323e-01  6.251900e-01 -1.587302e-02
     vertex -7.300323e-01  6.251900e-01  6.349212e-02
     vertex -7.201000e-01  6.629512e-01  6.349212e-02
   endloop
 endfacet
 facet normal -9.671053e-01  2.543763e-01  0.000000e+00
   outer loop
     vertex -7.300323e-01  6.251900e-01 -1.587302e-02
     vertex -7.201000e-01  6.629512e-01  6.349212e-02
     vertex -7.201000e-01  6.629512e-01 -1.587302e-02
   endloop
 endfacet
 facet normal -9.880453e-01  1.541636e-01  0.000000e+00
   outer loop
     vertex -7.360517e-01  5.866111e-01 -1.587302e-02
     vertex -7.360517e-01  5.866111e-01  6.349212e-02
     vertex -7.300323e-01  6.251900e-01  6.349212e-02
   endloop
 endfacet
 facet normal -9.880453e-01  1.541636e-01  0.000000e+00
   outer loop
     vertex -7.360517e-01  5.866111e-01 -1.587302e-02
     vertex -7.300323e-01  6.251900e-01  6.349212e-02
     vertex -7.300323e-01  6.251900e-01 -1.587302e-02
   endloop
 endfacet
 facet normal -9.986296e-01  5.233517e-02  0.000000e+00
   outer loop
     vertex -7.380952e-01  5.476190e-01 -1.587302e-02
     vertex -7.380952e-01  5.476190e-01  6.349212e-02
     vertex -7.360517e-01  5.866111e-01  6.349212e-02
   endloop
 endfacet
 facet normal -9.986296e-01  5.233517e-02  0.000000e+00
   outer loop
     vertex -7.380952e-01  5.476190e-01 -1.587302e-02
     vertex -7.360517e-01  5.866111e-01  6.349212e-02
     vertex -7.360517e-01  5.866111e-01 -1.587302e-02
   endloop
 endfacet
 facet normal -1.000000e+00  3.642919e-16  0.000000e+00
   outer loop
     vertex -7.380952e-01 -6.190485e-02 -1.587302e-02
     vertex -7.380952e-01  5.476190e-01 -1.587302e-02
     vertex -7.380952e-01  5.476190e-01 -3.174603e-02
   endloop
 endfacet
 facet normal -1.000000e+00  3.642919e-16  0.000000e+00
   outer loop
     vertex -7.380952e-01 -6.190485e-02 -1.587302e-02
     vertex -7.380952e-01  5.476190e-01 -3.174603e-02
     vertex -7.380952e-01 -6.190485e-02 -3.174603e-02
   endloop
 endfacet
 facet normal  1.000000e+00  4.203368e-17  0.000000e+00
   outer loop
     vertex  2.380961e-02  5.730158e-01 -1.587302e-02
     vertex  2.380961e-02 -8.730167e-02 -1.587302e-02
     vertex  2.380961e-02 -8.730167e-02 -3.174603e-02
   endloop
 endfacet
 facet normal  1.000000e+00  4.203368e-17  0.000000e+00
   outer loop
     vertex  2.380961e-02  5.730158e-01 -1.587302e-02
     vertex  2.380961e-02 -8.730167e-02 -3.174603e-02
     vertex  2.380961e-02  5.730158e-01 -3.174603e-02
   endloop
 endfacet
 facet normal  0.000000e+00  0.000000e+00 -1.000000e+00
   outer loop
     vertex -7.380952e-01 -6.190485e-02 -3.174603e-02
     vertex -7.300323e-01 -1.394758e-01 -3.174603e-02
     vertex -7.360517e-01 -1.008970e-01 -3.174603e-02
   endloop
 endfacet
 facet normal  0.000000e+00  0.000000e+00 -1.000000e+00
   outer loop
     vertex -7.380952e-01 -6.190485e-02 -3.174603e-02
     vertex -7.201000e-01 -1.772371e-01 -3.174603e-02
     vertex -7.300323e-01 -1.394758e-01 -3.174603e-02
   endloop
 endfacet
 facet normal  0.000000e+00  0.000000e+00 -1.000000e+00
   outer loop
     vertex -7.380952e-01 -6.190485e-02 -3.174603e-02
     vertex -7.063590e-01 -2.137849e-01 -3.174603e-02
     vertex -7.201000e-01 -1.772371e-01 -3.174603e-02
   endloop
 endfacet
 facet normal  0.000000e+00  0.000000e+00 -1.000000e+00
   outer loop
     vertex -7.380952e-01 -6.190485e-02 -3.174603e-02
     vertex -6.889532e-01 -2.487363e-01 -3.174603e-02
     vertex -7.063590e-01 -2.137849e-01 -3.174603e-02
   endloop
 endfacet
 facet normal  0.000000e+00  0.000000e+00 -1.000000e+00
   outer loop
     vertex -7.380952e-01 -6.190485e-02 -3.174603e-02
     vertex -6.680651e-01 -2.817250e-01 -3.174603e-02
     vertex -6.889532e-01 -2.487363e-01 -3.174603e-02
   endloop
 endfacet
 facet normal  0.000000e+00  0.000000e+00 -1.000000e+00
   outer loop
     vertex -7.380952e-01 -6.190485e-02 -3.174603e-02
     vertex -6.439136e-01 -3.124050e-01 -3.174603e-02
     vertex -6.680651e-01 -2.817250e-01 -3.174603e-02
   endloop
 endfacet
 facet normal  0.000000e+00  0.000000e+00 -1.000000e+00
   outer loop
     vertex -7.380952e-01 -6.190485e-02 -3.174603e-02
     vertex -6.167518e-01 -3.404550e-01 -3.174603e-02
     vertex -6.439136e-01 -3.124050e-01 -3.174603e-02
   endloop
 endfacet
 facet normal  0.000000e+00  0.000000e+00 -1.000000e+00
   outer loop
     vertex -7.380952e-01 -6.190485e-02 -3.174603e-02
     vertex -5.868645e-01 -3.655809e-01 -3.174603e-02
     vertex -6.167518e-01 -3.404550e-01 -3.174603e-02
   endloop
 endfacet
 facet normal  0.000000e+00  0.000000e+00 -1.000000e+00
   outer loop
     vertex -2.165273e-01 -4.161626e-01 -3.174603e-02
     vertex -2.535270e-01 -4.286360e-01 -3.174603e-02
     vertex -2.916081e-01 -4.372610e-01 -3.174603e-02
   endloop
 endfacet
 facet normal  0.000000e+00  0.000000e+00 -1.000000e+00
   outer loop
     vertex -3.766490e-02 -2.704459e-01 -3.174603e-02
     vertex -6.070344e-02 -3.019703e-01 -3.174603e-02
     vertex -8.684439e-02 -3.309740e-01 -3.174603e-02
   endloop
 endfacet
 facet normal  0.000000e+00  0.000000e+00 -1.000000e+00
   outer loop
     vertex -1.825870e-03 -2.011796e-01 -3.174603e-02
     vertex -3.766490e-02 -2.704459e-01 -3.174603e-02
     vertex -8.684439e-02 -3.309740e-01 -3.174603e-02
   endloop
 endfacet
 facet normal  0.000000e+00  0.000000e+00 -1.000000e+00
   outer loop
     vertex -1.825870e-03 -2.011796e-01 -3.174603e-02
     vertex -1.797023e-02 -2.367312e-01 -3.174603e-02
     vertex -3.766490e-02 -2.704459e-01 -3.174603e-02
   endloop
 endfacet
 facet normal  0.000000e+00  0.000000e+00 -1.000000e+00
   outer loop
     vertex -7.300323e-01  6.251900e-01 -3.174603e-02
     vertex -7.380952e-01  5.476190e-01 -3.174603e-02
     vertex -7.360517e-01  5.866111e-01 -3.174603e-02
   endloop
 endfacet
 facet normal  0.000000e+00  0.000000e+00 -1.000000e+00
   outer loop
     vertex  2.380961e-02 -8.730167e-02 -3.174603e-02
     vertex -5.545649e-01 -3.875194e-01 -3.174603e-02
     vertex -5.868645e-01 -3.655809e-01 -3.174603e-02
   endloop
 endfacet
 facet normal  0.000000e+00  0.000000e+00 -1.000000e+00
   outer loop
     vertex  2.380961e-02 -8.730167e-02 -3.174603e-02
     vertex -5.201915e-01 -4.060405e-01 -3.174603e-02
     vertex -5.545649e-01 -3.875194e-01 -3.174603e-02
   endloop
 endfacet
 facet normal  0.000000e+00  0.000000e+00 -1.000000e+00
   outer loop
     vertex  2.380961e-02 -8.730167e-02 -3.174603e-02
     vertex -4.841046e-01 -4.209500e-01 -3.174603e-02
     vertex -5.201915e-01 -4.060405e-01 -3.174603e-02
   endloop
 endfacet
 facet normal  0.000000e+00  0.000000e+00 -1.000000e+00
   outer loop
     vertex  2.380961e-02 -8.730167e-02 -3.174603e-02
     vertex -4.466823e-01 -4.320919e-01 -3.174603e-02
     vertex -4.841046e-01 -4.209500e-01 -3.174603e-02
   endloop
 endfacet
 facet normal  0.000000e+00  0.000000e+00 -1.000000e+00
   outer loop
     vertex  2.380961e-02 -8.730167e-02 -3.174603e-02
     vertex -4.083171e-01 -4.393491e-01 -3.174603e-02
     vertex -4.466823e-01 -4.320919e-01 -3.174603e-02
   endloop
 endfacet
 facet normal  0.000000e+00  0.000000e+00 -1.000000e+00
   outer loop
     vertex  2.380961e-02 -8.730167e-02 -3.174603e-02
     vertex -3.694109e-01 -4.426458e-01 -3.174603e-02
     vertex -4.083171e-01 -4.393491e-01 -3.174603e-02
   endloop
 endfacet
 facet normal  0.000000e+00  0.000000e+00 -1.000000e+00
   outer loop
     vertex  2.380961e-02 -8.730167e-02 -3.174603e-02
     vertex -3.303715e-01 -4.419473e-01 -3.174603e-02
     vertex -3.694109e-01 -4.426458e-01 -3.174603e-02
   endloop
 endfacet
 facet normal  0.000000e+00  0.000000e+00 -1.000000e+00
   outer loop
     vertex  2.380961e-02 -8.730167e-02 -3.174603e-02
     vertex -2.916081e-01 -4.372610e-01 -3.174603e-02
     vertex -3.303715e-01 -4.419473e-01 -3.174603e-02
   endloop
 endfacet
 facet normal  0.000000e+00  0.000000e+00 -1.000000e+00
   outer loop
     vertex  2.380961e-02 -8.730167e-02 -3.174603e-02
     vertex -1.825870e-03 -2.011796e-01 -3.174603e-02
     vertex -8.684439e-02 -3.309740e-01 -3.174603e-02
   endloop
 endfacet
 facet normal  0.000000e+00  0.000000e+00 -1.000000e+00
   outer loop
     vertex  2.380961e-02 -8.730167e-02 -3.174603e-02
     vertex -1.809968e-01 -3.999716e-01 -3.174603e-02
     vertex -2.165273e-01 -4.161626e-01 -3.174603e-02
   endloop
 endfacet
 facet normal  0.000000e+00  0.000000e+00 -1.000000e+00
   outer loop
     vertex  2.380961e-02 -8.730167e-02 -3.174603e-02
     vertex -1.473079e-01 -3.802328e-01 -3.174603e-02
     vertex -1.809968e-01 -3.999716e-01 -3.174603e-02
   endloop
 endfacet
 facet normal  0.000000e+00  0.000000e+00 -1.000000e+00
   outer loop
     vertex  2.380961e-02 -8.730167e-02 -3.174603e-02
     vertex -1.158138e-01 -3.571530e-01 -3.174603e-02
     vertex -1.473079e-01 -3.802328e-01 -3.174603e-02
   endloop
 endfacet
 facet normal  0.000000e+00  0.000000e+00 -1.000000e+00
   outer loop
     vertex  2.380961e-02 -8.730167e-02 -3.174603e-02
     vertex -8.684439e-02 -3.309740e-01 -3.174603e-02
     vertex -1.158138e-01 -3.571530e-01 -3.174603e-02
   endloop
 endfacet
 facet normal  0.000000e+00  0.000000e+00 -1.000000e+00
   outer loop
     vertex  2.380961e-02 -8.730167e-02 -3.174603e-02
     vertex  1.059898e-02 -1.641635e-01 -3.174603e-02
     vertex -1.825870e-03 -2.011796e-01 -3.174603e-02
   endloop
 endfacet
 facet normal  0.000000e+00  0.000000e+00 -1.000000e+00
   outer loop
     vertex  2.380961e-02 -8.730167e-02 -3.174603e-02
     vertex  1.917410e-02 -1.260712e-01 -3.174603e-02
     vertex  1.059898e-02 -1.641635e-01 -3.174603e-02
   endloop
 endfacet
 facet normal  0.000000e+00  0.000000e+00 -1.000000e+00
   outer loop
     vertex  2.380961e-02 -8.730167e-02 -3.174603e-02
     vertex -2.165273e-01 -4.161626e-01 -3.174603e-02
     vertex -2.916081e-01 -4.372610e-01 -3.174603e-02
   endloop
 endfacet
 facet normal -0.000000e+00  0.000000e+00 -1.000000e+00
   outer loop
     vertex  2.380961e-02 -8.730167e-02 -3.174603e-02
     vertex -5.868645e-01 -3.655809e-01 -3.174603e-02
     vertex -7.380952e-01 -6.190485e-02 -3.174603e-02
   endloop
 endfacet
 facet normal  0.000000e+00  0.000000e+00 -1.000000e+00
   outer loop
     vertex -7.063590e-01  6.994991e-01 -3.174603e-02
     vertex -7.300323e-01  6.251900e-01 -3.174603e-02
     vertex -7.201000e-01  6.629512e-01 -3.174603e-02
   endloop
 endfacet
 facet normal  0.000000e+00  0.000000e+00 -1.000000e+00
   outer loop
     vertex -6.680651e-01  7.674391e-01 -3.174603e-02
     vertex -7.063590e-01  6.994991e-01 -3.174603e-02
     vertex -6.889532e-01  7.344505e-01 -3.174603e-02
   endloop
 endfacet
 facet normal  0.000000e+00  0.000000e+00 -1.000000e+00
   outer loop
     vertex -6.167518e-01  8.261691e-01 -3.174603e-02
     vertex -7.063590e-01  6.994991e-01 -3.174603e-02
     vertex -6.680651e-01  7.674391e-01 -3.174603e-02
   endloop
 endfacet
 facet normal  0.000000e+00  0.000000e+00 -1.000000e+00
   outer loop
     vertex -6.167518e-01  8.261691e-01 -3.174603e-02
     vertex -6.680651e-01  7.674391e-01 -3.174603e-02
     vertex -6.439136e-01  7.981191e-01 -3.174603e-02
   endloop
 endfacet
 facet normal  0.000000e+00  0.000000e+00 -1.000000e+00
   outer loop
     vertex -5.201915e-01  8.917545e-01 -3.174603e-02
     vertex -5.868645e-01  8.512950e-01 -3.174603e-02
     vertex -5.545649e-01  8.732335e-01 -3.174603e-02
   endloop
 endfacet
 facet normal  0.000000e+00  0.000000e+00 -1.000000e+00
   outer loop
     vertex -3.694109e-01  9.283599e-01 -3.174603e-02
     vertex -4.466823e-01  9.178059e-01 -3.174603e-02
     vertex -4.083171e-01  9.250632e-01 -3.174603e-02
   endloop
 endfacet
 facet normal  0.000000e+00  0.000000e+00 -1.000000e+00
   outer loop
     vertex -3.694109e-01  9.283599e-01 -3.174603e-02
     vertex -4.841045e-01  9.066641e-01 -3.174603e-02
     vertex -4.466823e-01  9.178059e-01 -3.174603e-02
   endloop
 endfacet
 facet normal  0.000000e+00  0.000000e+00 -1.000000e+00
   outer loop
     vertex -3.694109e-01  9.283599e-01 -3.174603e-02
     vertex -5.201915e-01  8.917545e-01 -3.174603e-02
     vertex -4.841045e-01  9.066641e-01 -3.174603e-02
   endloop
 endfacet
 facet normal  0.000000e+00  0.000000e+00 -1.000000e+00
   outer loop
     vertex -3.694109e-01  9.283599e-01 -3.174603e-02
     vertex -5.868645e-01  8.512950e-01 -3.174603e-02
     vertex -5.201915e-01  8.917545e-01 -3.174603e-02
   endloop
 endfacet
 facet normal  0.000000e+00  0.000000e+00 -1.000000e+00
   outer loop
     vertex -3.694109e-01  9.283599e-01 -3.174603e-02
     vertex -6.167518e-01  8.261691e-01 -3.174603e-02
     vertex -5.868645e-01  8.512950e-01 -3.174603e-02
   endloop
 endfacet
 facet normal  0.000000e+00 -0.000000e+00 -1.000000e+00
   outer loop
     vertex  2.380961e-02  5.730158e-01 -3.174603e-02
     vertex  2.380961e-02 -8.730167e-02 -3.174603e-02
     vertex -7.380952e-01 -6.190485e-02 -3.174603e-02
   endloop
 endfacet
 facet normal  0.000000e+00  0.000000e+00 -1.000000e+00
   outer loop
     vertex  2.380961e-02  5.730158e-01 -3.174603e-02
     vertex -7.380952e-01 -6.190485e-02 -3.174603e-02
     vertex -7.380952e-01  5.476190e-01 -3.174603e-02
   endloop
 endfacet
 facet normal  0.000000e+00  0.000000e+00 -1.000000e+00
   outer loop
     vertex -2.535270e-01  9.143500e-01 -3.174603e-02
     vertex -3.303715e-01  9.276614e-01 -3.174603e-02
     vertex -2.916081e-01  9.229751e-01 -3.174603e-02
   endloop
 endfacet
 facet normal  0.000000e+00  0.000000e+00 -1.000000e+00
   outer loop
     vertex -1.825884e-03  6.868937e-01 -3.174603e-02
     vertex  1.917410e-02  6.117853e-01 -3.174603e-02
     vertex  2.380961e-02  5.730158e-01 -3.174603e-02
   endloop
 endfacet
 facet normal  0.000000e+00  0.000000e+00 -1.000000e+00
   outer loop
     vertex -1.825884e-03  6.868937e-01 -3.174603e-02
     vertex  1.059897e-02  6.498777e-01 -3.174603e-02
     vertex  1.917410e-02  6.117853e-01 -3.174603e-02
   endloop
 endfacet
 facet normal  0.000000e+00  0.000000e+00 -1.000000e+00
   outer loop
     vertex -2.165273e-01  9.018767e-01 -3.174603e-02
     vertex -3.694109e-01  9.283599e-01 -3.174603e-02
     vertex -3.303715e-01  9.276614e-01 -3.174603e-02
   endloop
 endfacet
 facet normal  0.000000e+00  0.000000e+00 -1.000000e+00
   outer loop
     vertex -2.165273e-01  9.018767e-01 -3.174603e-02
     vertex -3.303715e-01  9.276614e-01 -3.174603e-02
     vertex -2.535270e-01  9.143500e-01 -3.174603e-02
   endloop
 endfacet
 facet normal  0.000000e+00  0.000000e+00 -1.000000e+00
   outer loop
     vertex -1.809968e-01  8.856857e-01 -3.174603e-02
     vertex -3.694109e-01  9.283599e-01 -3.174603e-02
     vertex -2.165273e-01  9.018767e-01 -3.174603e-02
   endloop
 endfacet
 facet normal  0.000000e+00  0.000000e+00 -1.000000e+00
   outer loop
     vertex -6.070346e-02  7.876845e-01 -3.174603e-02
     vertex -1.797025e-02  7.224453e-01 -3.174603e-02
     vertex -1.825884e-03  6.868937e-01 -3.174603e-02
   endloop
 endfacet
 facet normal  0.000000e+00  0.000000e+00 -1.000000e+00
   outer loop
     vertex -6.070346e-02  7.876845e-01 -3.174603e-02
     vertex -3.766491e-02  7.561601e-01 -3.174603e-02
     vertex -1.797025e-02  7.224453e-01 -3.174603e-02
   endloop
 endfacet
 facet normal  0.000000e+00  0.000000e+00 -1.000000e+00
   outer loop
     vertex -8.684441e-02  8.166881e-01 -3.174603e-02
     vertex -7.380952e-01  5.476190e-01 -3.174603e-02
     vertex -7.300323e-01  6.251900e-01 -3.174603e-02
   endloop
 endfacet
 facet normal  0.000000e+00  0.000000e+00 -1.000000e+00
   outer loop
     vertex -8.684441e-02  8.166881e-01 -3.174603e-02
     vertex -7.300323e-01  6.251900e-01 -3.174603e-02
     vertex -7.063590e-01  6.994991e-01 -3.174603e-02
   endloop
 endfacet
 facet normal  0.000000e+00  0.000000e+00 -1.000000e+00
   outer loop
     vertex -8.684441e-02  8.166881e-01 -3.174603e-02
     vertex -1.473079e-01  8.659469e-01 -3.174603e-02
     vertex -1.158138e-01  8.428671e-01 -3.174603e-02
   endloop
 endfacet
 facet normal  0.000000e+00  0.000000e+00 -1.000000e+00
   outer loop
     vertex -8.684441e-02  8.166881e-01 -3.174603e-02
     vertex -1.809968e-01  8.856857e-01 -3.174603e-02
     vertex -1.473079e-01  8.659469e-01 -3.174603e-02
   endloop
 endfacet
 facet normal -0.000000e+00  0.000000e+00 -1.000000e+00
   outer loop
     vertex -8.684441e-02  8.166881e-01 -3.174603e-02
     vertex -7.063590e-01  6.994991e-01 -3.174603e-02
     vertex -6.167518e-01  8.261691e-01 -3.174603e-02
   endloop
 endfacet
 facet normal  0.000000e+00 -0.000000e+00 -1.000000e+00
   outer loop
     vertex -8.684441e-02  8.166881e-01 -3.174603e-02
     vertex  2.380961e-02  5.730158e-01 -3.174603e-02
     vertex -7.380952e-01  5.476190e-01 -3.174603e-02
   endloop
 endfacet
 facet normal  0.000000e+00  0.000000e+00 -1.000000e+00
   outer loop
     vertex -8.684441e-02  8.166881e-01 -3.174603e-02
     vertex -6.167518e-01  8.261691e-01 -3.174603e-02
     vertex -3.694109e-01  9.283599e-01 -3.174603e-02
   endloop
 endfacet
 facet normal  0.000000e+00  0.000000e+00 -1.000000e+00
   outer loop
     vertex -8.684441e-02  8.166881e-01 -3.174603e-02
     vertex -3.694109e-01  9.283599e-01 -3.174603e-02
     vertex -1.809968e-01  8.856857e-01 -3.174603e-02
   endloop
 endfacet
 facet normal  0.000000e+00  0.000000e+00 -1.000000e+00
   outer loop
     vertex -8.684441e-02  8.166881e-01 -3.174603e-02
     vertex -1.825884e-03  6.868937e-01 -3.174603e-02
     vertex  2.380961e-02  5.730158e-01 -3.174603e-02
   endloop
 endfacet
 facet normal  0.000000e+00  0.000000e+00 -1.000000e+00
   outer loop
     vertex -8.684441e-02  8.166881e-01 -3.174603e-02
     vertex -6.070346e-02  7.876845e-01 -3.174603e-02
     vertex -1.825884e-03  6.868937e-01 -3.174603e-02
   endloop
 endfacet
 facet normal  9.929277e-01  1.187204e-01  0.000000e+00
   outer loop
     vertex  1.917410e-02  6.117853e-01 -1.587302e-02
     vertex  2.380961e-02  5.730158e-01 -1.587302e-02
     vertex  2.380961e-02  5.730158e-01 -3.174603e-02
   endloop
 endfacet
 facet normal  9.929277e-01  1.187204e-01  0.000000e+00
   outer loop
     vertex  1.917410e-02  6.117853e-01 -1.587302e-02
     vertex  2.380961e-02  5.730158e-01 -3.174603e-02
     vertex  1.917410e-02  6.117853e-01 -3.174603e-02
   endloop
 endfacet
 facet normal  9.755859e-01  2.196180e-01  0.000000e+00
   outer loop
     vertex  1.059897e-02  6.498777e-01 -1.587302e-02
     vertex  1.917410e-02  6.117853e-01 -3.174603e-02
     vertex  1.059897e-02  6.498777e-01 -3.174603e-02
   endloop
 endfacet
 facet normal  9.755859e-01  2.196180e-01  0.000000e+00
   outer loop
     vertex  1.059897e-02  6.498777e-01 -1.587302e-02
     vertex  1.917410e-02  6.117853e-01 -1.587302e-02
     vertex  1.917410e-02  6.117853e-01 -3.174603e-02
   endloop
 endfacet
 facet normal  9.480190e-01  3.182137e-01  0.000000e+00
   outer loop
     vertex -1.825884e-03  6.868937e-01 -1.587302e-02
     vertex  1.059897e-02  6.498777e-01 -3.174603e-02
     vertex -1.825884e-03  6.868937e-01 -3.174603e-02
   endloop
 endfacet
 facet normal  9.480190e-01  3.182137e-01  0.000000e+00
   outer loop
     vertex -1.825884e-03  6.868937e-01 -1.587302e-02
     vertex  1.059897e-02  6.498777e-01 -1.587302e-02
     vertex  1.059897e-02  6.498777e-01 -3.174603e-02
   endloop
 endfacet
 facet normal  9.105158e-01  4.134743e-01  0.000000e+00
   outer loop
     vertex -1.797025e-02  7.224453e-01 -1.587302e-02
     vertex -1.825884e-03  6.868937e-01 -3.174603e-02
     vertex -1.797025e-02  7.224453e-01 -3.174603e-02
   endloop
 endfacet
 facet normal  9.105158e-01  4.134743e-01  0.000000e+00
   outer loop
     vertex -1.797025e-02  7.224453e-01 -1.587302e-02
     vertex -1.825884e-03  6.868937e-01 -1.587302e-02
     vertex -1.825884e-03  6.868937e-01 -3.174603e-02
   endloop
 endfacet
 facet normal  8.634694e-01  5.044012e-01  0.000000e+00
   outer loop
     vertex -3.766491e-02  7.561601e-01 -1.587302e-02
     vertex -1.797025e-02  7.224453e-01 -3.174603e-02
     vertex -3.766491e-02  7.561601e-01 -3.174603e-02
   endloop
 endfacet
 facet normal  8.634694e-01  5.044012e-01  0.000000e+00
   outer loop
     vertex -3.766491e-02  7.561601e-01 -1.587302e-02
     vertex -1.797025e-02  7.224453e-01 -1.587302e-02
     vertex -1.797025e-02  7.224453e-01 -3.174603e-02
   endloop
 endfacet
 facet normal  8.073730e-01  5.900414e-01  0.000000e+00
   outer loop
     vertex -6.070346e-02  7.876845e-01 -1.587302e-02
     vertex -3.766491e-02  7.561601e-01 -3.174603e-02
     vertex -6.070346e-02  7.876845e-01 -3.174603e-02
   endloop
 endfacet
 facet normal  8.073730e-01  5.900414e-01  0.000000e+00
   outer loop
     vertex -6.070346e-02  7.876845e-01 -1.587302e-02
     vertex -3.766491e-02  7.561601e-01 -1.587302e-02
     vertex -3.766491e-02  7.561601e-01 -3.174603e-02
   endloop
 endfacet
 facet normal  7.428144e-01  6.694974e-01  0.000000e+00
   outer loop
     vertex -8.684441e-02  8.166881e-01 -1.587302e-02
     vertex -6.070346e-02  7.876845e-01 -3.174603e-02
     vertex -8.684441e-02  8.166881e-01 -3.174603e-02
   endloop
 endfacet
 facet normal  7.428144e-01  6.694974e-01  0.000000e+00
   outer loop
     vertex -8.684441e-02  8.166881e-01 -1.587302e-02
     vertex -6.070346e-02  7.876845e-01 -1.587302e-02
     vertex -6.070346e-02  7.876845e-01 -3.174603e-02
   endloop
 endfacet
 facet normal  6.704704e-01  7.419363e-01  0.000000e+00
   outer loop
     vertex -1.158138e-01  8.428671e-01 -1.587302e-02
     vertex -8.684441e-02  8.166881e-01 -3.174603e-02
     vertex -1.158138e-01  8.428671e-01 -3.174603e-02
   endloop
 endfacet
 facet normal  6.704704e-01  7.419363e-01  0.000000e+00
   outer loop
     vertex -1.158138e-01  8.428671e-01 -1.587302e-02
     vertex -8.684441e-02  8.166881e-01 -1.587302e-02
     vertex -8.684441e-02  8.166881e-01 -3.174603e-02
   endloop
 endfacet
 facet normal  5.910991e-01  8.065990e-01  0.000000e+00
   outer loop
     vertex -1.473079e-01  8.659469e-01 -1.587302e-02
     vertex -1.158138e-01  8.428671e-01 -1.587302e-02
     vertex -1.158138e-01  8.428671e-01 -3.174603e-02
   endloop
 endfacet
 facet normal  5.910991e-01  8.065990e-01  0.000000e+00
   outer loop
     vertex -1.473079e-01  8.659469e-01 -1.587302e-02
     vertex -1.158138e-01  8.428671e-01 -3.174603e-02
     vertex -1.473079e-01  8.659469e-01 -3.174603e-02
   endloop
 endfacet
 facet normal  5.055324e-01  8.628076e-01  0.000000e+00
   outer loop
     vertex -1.809968e-01  8.856857e-01 -1.587302e-02
     vertex -1.473079e-01  8.659469e-01 -1.587302e-02
     vertex -1.473079e-01  8.659469e-01 -3.174603e-02
   endloop
 endfacet
 facet normal  5.055324e-01  8.628076e-01  0.000000e+00
   outer loop
     vertex -1.809968e-01  8.856857e-01 -1.587302e-02
     vertex -1.473079e-01  8.659469e-01 -3.174603e-02
     vertex -1.809968e-01  8.856857e-01 -3.174603e-02
   endloop
 endfacet
 facet normal  4.146673e-01  9.099731e-01  0.000000e+00
   outer loop
     vertex -2.165273e-01  9.018767e-01 -1.587302e-02
     vertex -1.809968e-01  8.856857e-01 -1.587302e-02
     vertex -1.809968e-01  8.856857e-01 -3.174603e-02
   endloop
 endfacet
 facet normal  4.146673e-01  9.099731e-01  0.000000e+00
   outer loop
     vertex -2.165273e-01  9.018767e-01 -1.587302e-02
     vertex -1.809968e-01  8.856857e-01 -3.174603e-02
     vertex -2.165273e-01  9.018767e-01 -3.174603e-02
   endloop
 endfacet
 facet normal  3.194560e-01  9.476011e-01  0.000000e+00
   outer loop
     vertex -2.535270e-01  9.143500e-01 -1.587302e-02
     vertex -2.165273e-01  9.018767e-01 -3.174603e-02
     vertex -2.535270e-01  9.143500e-01 -3.174603e-02
   endloop
 endfacet
 facet normal  3.194560e-01  9.476011e-01  0.000000e+00
   outer loop
     vertex -2.535270e-01  9.143500e-01 -1.587302e-02
     vertex -2.165273e-01  9.018767e-01 -1.587302e-02
     vertex -2.165273e-01  9.018767e-01 -3.174603e-02
   endloop
 endfacet
 facet normal  2.208965e-01  9.752973e-01  0.000000e+00
   outer loop
     vertex -2.916081e-01  9.229751e-01 -1.587302e-02
     vertex -2.535270e-01  9.143500e-01 -3.174603e-02
     vertex -2.916081e-01  9.229751e-01 -3.174603e-02
   endloop
 endfacet
 facet normal  2.208965e-01  9.752973e-01  0.000000e+00
   outer loop
     vertex -2.916081e-01  9.229751e-01 -1.587302e-02
     vertex -2.535270e-01  9.143500e-01 -1.587302e-02
     vertex -2.535270e-01  9.143500e-01 -3.174603e-02
   endloop
 endfacet
 facet normal  1.200217e-01  9.927713e-01  0.000000e+00
   outer loop
     vertex -3.303715e-01  9.276614e-01 -1.587302e-02
     vertex -2.916081e-01  9.229751e-01 -3.174603e-02
     vertex -3.303715e-01  9.276614e-01 -3.174603e-02
   endloop
 endfacet
 facet normal  1.200217e-01  9.927713e-01  0.000000e+00
   outer loop
     vertex -3.303715e-01  9.276614e-01 -1.587302e-02
     vertex -2.916081e-01  9.229751e-01 -1.587302e-02
     vertex -2.916081e-01  9.229751e-01 -3.174603e-02
   endloop
 endfacet
 facet normal  1.788896e-02  9.998400e-01  0.000000e+00
   outer loop
     vertex -3.694109e-01  9.283599e-01 -1.587302e-02
     vertex -3.303715e-01  9.276614e-01 -3.174603e-02
     vertex -3.694109e-01  9.283599e-01 -3.174603e-02
   endloop
 endfacet
 facet normal  1.788896e-02  9.998400e-01  0.000000e+00
   outer loop
     vertex -3.694109e-01  9.283599e-01 -1.587302e-02
     vertex -3.303715e-01  9.276614e-01 -1.587302e-02
     vertex -3.303715e-01  9.276614e-01 -3.174603e-02
   endloop
 endfacet
 facet normal -8.443126e-02  9.964293e-01  0.000000e+00
   outer loop
     vertex -4.083171e-01  9.250632e-01 -1.587302e-02
     vertex -3.694109e-01  9.283599e-01 -3.174603e-02
     vertex -4.083171e-01  9.250632e-01 -3.174603e-02
   endloop
 endfacet
 facet normal -8.443126e-02  9.964293e-01  0.000000e+00
   outer loop
     vertex -4.083171e-01  9.250632e-01 -1.587302e-02
     vertex -3.694109e-01  9.283599e-01 -1.587302e-02
     vertex -3.694109e-01  9.283599e-01 -3.174603e-02
   endloop
 endfacet
 facet normal -1.858666e-01  9.825750e-01  0.000000e+00
   outer loop
     vertex -4.466823e-01  9.178059e-01 -1.587302e-02
     vertex -4.083171e-01  9.250632e-01 -3.174603e-02
     vertex -4.466823e-01  9.178059e-01 -3.174603e-02
   endloop
 endfacet
 facet normal -1.858666e-01  9.825750e-01  0.000000e+00
   outer loop
     vertex -4.466823e-01  9.178059e-01 -1.587302e-02
     vertex -4.083171e-01  9.250632e-01 -1.587302e-02
     vertex -4.083171e-01  9.250632e-01 -3.174603e-02
   endloop
 endfacet
 facet normal -2.853538e-01  9.584223e-01  0.000000e+00
   outer loop
     vertex -4.841045e-01  9.066641e-01 -1.587302e-02
     vertex -4.466823e-01  9.178059e-01 -3.174603e-02
     vertex -4.841045e-01  9.066641e-01 -3.174603e-02
   endloop
 endfacet
 facet normal -2.853538e-01  9.584223e-01  0.000000e+00
   outer loop
     vertex -4.841045e-01  9.066641e-01 -1.587302e-02
     vertex -4.466823e-01  9.178059e-01 -1.587302e-02
     vertex -4.466823e-01  9.178059e-01 -3.174603e-02
   endloop
 endfacet
 facet normal -3.818502e-01  9.242242e-01  0.000000e+00
   outer loop
     vertex -5.201915e-01  8.917545e-01 -1.587302e-02
     vertex -4.841045e-01  9.066641e-01 -3.174603e-02
     vertex -5.201915e-01  8.917545e-01 -3.174603e-02
   endloop
 endfacet
 facet normal -3.818502e-01  9.242242e-01  0.000000e+00
   outer loop
     vertex -5.201915e-01  8.917545e-01 -1.587302e-02
     vertex -4.841045e-01  9.066641e-01 -1.587302e-02
     vertex -4.841045e-01  9.066641e-01 -3.174603e-02
   endloop
 endfacet
 facet normal -4.743444e-01  8.803394e-01  0.000000e+00
   outer loop
     vertex -5.545649e-01  8.732335e-01 -1.587302e-02
     vertex -5.201915e-01  8.917545e-01 -3.174603e-02
     vertex -5.545649e-01  8.732335e-01 -3.174603e-02
   endloop
 endfacet
 facet normal -4.743444e-01  8.803394e-01  0.000000e+00
   outer loop
     vertex -5.545649e-01  8.732335e-01 -1.587302e-02
     vertex -5.201915e-01  8.917545e-01 -1.587302e-02
     vertex -5.201915e-01  8.917545e-01 -3.174603e-02
   endloop
 endfacet
 facet normal -5.618669e-01  8.272276e-01  0.000000e+00
   outer loop
     vertex -5.868645e-01  8.512950e-01 -1.587302e-02
     vertex -5.545649e-01  8.732335e-01 -3.174603e-02
     vertex -5.868645e-01  8.512950e-01 -3.174603e-02
   endloop
 endfacet
 facet normal -5.618669e-01  8.272276e-01  0.000000e+00
   outer loop
     vertex -5.868645e-01  8.512950e-01 -1.587302e-02
     vertex -5.545649e-01  8.732335e-01 -1.587302e-02
     vertex -5.545649e-01  8.732335e-01 -3.174603e-02
   endloop
 endfacet
 facet normal -6.435006e-01  7.654456e-01  0.000000e+00
   outer loop
     vertex -6.167518e-01  8.261691e-01 -1.587302e-02
     vertex -5.868645e-01  8.512950e-01 -3.174603e-02
     vertex -6.167518e-01  8.261691e-01 -3.174603e-02
   endloop
 endfacet
 facet normal -6.435006e-01  7.654456e-01  0.000000e+00
   outer loop
     vertex -6.167518e-01  8.261691e-01 -1.587302e-02
     vertex -5.868645e-01  8.512950e-01 -1.587302e-02
     vertex -5.868645e-01  8.512950e-01 -3.174603e-02
   endloop
 endfacet
 facet normal -7.183896e-01  6.956410e-01  0.000000e+00
   outer loop
     vertex -6.439136e-01  7.981191e-01 -1.587302e-02
     vertex -6.167518e-01  8.261691e-01 -3.174603e-02
     vertex -6.439136e-01  7.981191e-01 -3.174603e-02
   endloop
 endfacet
 facet normal -7.183896e-01  6.956410e-01  0.000000e+00
   outer loop
     vertex -6.439136e-01  7.981191e-01 -1.587302e-02
     vertex -6.167518e-01  8.261691e-01 -1.587302e-02
     vertex -6.167518e-01  8.261691e-01 -3.174603e-02
   endloop
 endfacet
 facet normal -7.857492e-01  6.185453e-01  0.000000e+00
   outer loop
     vertex -6.680651e-01  7.674391e-01 -1.587302e-02
     vertex -6.439136e-01  7.981191e-01 -3.174603e-02
     vertex -6.680651e-01  7.674391e-01 -3.174603e-02
   endloop
 endfacet
 facet normal -7.857492e-01  6.185453e-01  0.000000e+00
   outer loop
     vertex -6.680651e-01  7.674391e-01 -1.587302e-02
     vertex -6.439136e-01  7.981191e-01 -1.587302e-02
     vertex -6.439136e-01  7.981191e-01 -3.174603e-02
   endloop
 endfacet
 facet normal -8.448732e-01  5.349665e-01  0.000000e+00
   outer loop
     vertex -6.889532e-01  7.344505e-01 -1.587302e-02
     vertex -6.680651e-01  7.674391e-01 -3.174603e-02
     vertex -6.889532e-01  7.344505e-01 -3.174603e-02
   endloop
 endfacet
 facet normal -8.448732e-01  5.349665e-01  0.000000e+00
   outer loop
     vertex -6.889532e-01  7.344505e-01 -1.587302e-02
     vertex -6.680651e-01  7.674391e-01 -1.587302e-02
     vertex -6.680651e-01  7.674391e-01 -3.174603e-02
   endloop
 endfacet
 facet normal -8.951422e-01  4.457808e-01  0.000000e+00
   outer loop
     vertex -7.063590e-01  6.994991e-01 -1.587302e-02
     vertex -6.889532e-01  7.344505e-01 -3.174603e-02
     vertex -7.063590e-01  6.994991e-01 -3.174603e-02
   endloop
 endfacet
 facet normal -8.951422e-01  4.457808e-01  0.000000e+00
   outer loop
     vertex -7.063590e-01  6.994991e-01 -1.587302e-02
     vertex -6.889532e-01  7.344505e-01 -1.587302e-02
     vertex -6.889532e-01  7.344505e-01 -3.174603e-02
   endloop
 endfacet
 facet normal -9.360290e-01  3.519228e-01  0.000000e+00
   outer loop
     vertex -7.201000e-01  6.629512e-01 -1.587302e-02
     vertex -7.063590e-01  6.994991e-01 -3.174603e-02
     vertex -7.201000e-01  6.629512e-01 -3.174603e-02
   endloop
 endfacet
 facet normal -9.360290e-01  3.519228e-01  0.000000e+00
   outer loop
     vertex -7.201000e-01  6.629512e-01 -1.587302e-02
     vertex -7.063590e-01  6.994991e-01 -1.587302e-02
     vertex -7.063590e-01  6.994991e-01 -3.174603e-02
   endloop
 endfacet
 facet normal -9.671053e-01  2.543763e-01  0.000000e+00
   outer loop
     vertex -7.300323e-01  6.251900e-01 -1.587302e-02
     vertex -7.201000e-01  6.629512e-01 -3.174603e-02
     vertex -7.300323e-01  6.251900e-01 -3.174603e-02
   endloop
 endfacet
 facet normal -9.671053e-01  2.543763e-01  0.000000e+00
   outer loop
     vertex -7.300323e-01  6.251900e-01 -1.587302e-02
     vertex -7.201000e-01  6.629512e-01 -1.587302e-02
     vertex -7.201000e-01  6.629512e-01 -3.174603e-02
   endloop
 endfacet
 facet normal -9.880453e-01  1.541636e-01  0.000000e+00
   outer loop
     vertex -7.360517e-01  5.866111e-01 -1.587302e-02
     vertex -7.300323e-01  6.251900e-01 -3.174603e-02
     vertex -7.360517e-01  5.866111e-01 -3.174603e-02
   endloop
 endfacet
 facet normal -9.880453e-01  1.541636e-01  0.000000e+00
   outer loop
     vertex -7.360517e-01  5.866111e-01 -1.587302e-02
     vertex -7.300323e-01  6.251900e-01 -1.587302e-02
     vertex -7.300323e-01  6.251900e-01 -3.174603e-02
   endloop
 endfacet
 facet normal -9.986296e-01  5.233517e-02  0.000000e+00
   outer loop
     vertex -7.380952e-01  5.476190e-01 -1.587302e-02
     vertex -7.360517e-01  5.866111e-01 -3.174603e-02
     vertex -7.380952e-01  5.476190e-01 -3.174603e-02
   endloop
 endfacet
 facet normal -9.986296e-01  5.233517e-02  0.000000e+00
   outer loop
     vertex -7.380952e-01  5.476190e-01 -1.587302e-02
     vertex -7.360517e-01  5.866111e-01 -1.587302e-02
     vertex -7.360517e-01  5.866111e-01 -3.174603e-02
   endloop
 endfacet
endsolid
