solid 
 facet normal  0.000000e+00 -1.000000e+00  0.000000e+00
   outer loop
     vertex  8.439154e-01 -5.751323e-01 -1.587302e-02
     vertex -8.830687e-01 -5.751323e-01  7.619048e-01
     vertex -8.830687e-01 -5.751323e-01 -1.587302e-02
   endloop
 endfacet
 facet normal  0.000000e+00 -1.000000e+00  0.000000e+00
   outer loop
     vertex  8.439154e-01 -5.751323e-01 -1.587302e-02
     vertex  8.439154e-01 -5.751323e-01  7.619048e-01
     vertex -8.830687e-01 -5.751323e-01  7.619048e-01
   endloop
 endfacet
 facet normal -8.682431e-01  4.961389e-01  0.000000e+00
   outer loop
     vertex -8.830687e-01 -5.751323e-01 -1.587302e-02
     vertex -1.957669e-02  9.359789e-01  7.619048e-01
     vertex -1.957669e-02  9.359789e-01 -1.587302e-02
   endloop
 endfacet
 facet normal -8.682431e-01  4.961389e-01  0.000000e+00
   outer loop
     vertex -8.830687e-01 -5.751323e-01 -1.587302e-02
     vertex -8.830687e-01 -5.751323e-01  7.619048e-01
     vertex -1.957669e-02  9.359789e-01  7.619048e-01
   endloop
 endfacet
 facet normal  8.682431e-01  4.961389e-01  0.000000e+00
   outer loop
     vertex -1.957669e-02  9.359789e-01 -1.587302e-02
     vertex  8.439154e-01 -5.751323e-01  7.619048e-01
     vertex  8.439154e-01 -5.751323e-01 -1.587302e-02
   endloop
 endfacet
 facet normal  8.682431e-01  4.961389e-01 -0.000000e+00
   outer loop
     vertex -1.957669e-02  9.359789e-01 -1.587302e-02
     vertex -1.957669e-02  9.359789e-01  7.619048e-01
     vertex  8.439154e-01 -5.751323e-01  7.619048e-01
   endloop
 endfacet
 facet normal -0.000000e+00 -1.000000e+00  0.000000e+00
   outer loop
     vertex  8.439154e-01 -5.751323e-01 -1.587302e-02
     vertex -8.830687e-01 -5.751323e-01 -1.587302e-02
     vertex -8.830687e-01 -5.751323e-01 -3.174603e-02
   endloop
 endfacet
 facet normal  0.000000e+00 -1.000000e+00 -0.000000e+00
   outer loop
     vertex  8.439154e-01 -5.751323e-01 -1.587302e-02
     vertex -8.830687e-01 -5.751323e-01 -3.174603e-02
     vertex  8.439154e-01 -5.751323e-01 -3.174603e-02
   endloop
 endfacet
 facet normal  0.000000e+00  0.000000e+00  1.000000e+00
   outer loop
     vertex  7.719577e-01 -5.031746e-01  7.619048e-01
     vertex -8.111111e-01 -5.031746e-01  7.619048e-01
     vertex -8.830687e-01 -5.751323e-01  7.619048e-01
   endloop
 endfacet
 facet normal  0.000000e+00  0.000000e+00  1.000000e+00
   outer loop
     vertex  8.439154e-01 -5.751323e-01  7.619048e-01
     vertex  7.719577e-01 -5.031746e-01  7.619048e-01
     vertex -8.830687e-01 -5.751323e-01  7.619048e-01
   endloop
 endfacet
 facet normal  0.000000e+00  0.000000e+00  1.000000e+00
   outer loop
     vertex -5.555552e-02  8.640212e-01  7.619048e-01
     vertex -8.830687e-01 -5.751323e-01  7.619048e-01
     vertex -8.111111e-01 -5.031746e-01  7.619048e-01
   endloop
 endfacet
 facet normal  0.000000e+00  0.000000e+00  1.000000e+00
   outer loop
     vertex -1.957669e-02  9.359789e-01  7.619048e-01
     vertex -5.555552e-02  8.640212e-01  7.619048e-01
     vertex  7.719577e-01 -5.031746e-01  7.619048e-01
   endloop
 endfacet
 facet normal  0.000000e+00  0.000000e+00  1.000000e+00
   outer loop
     vertex -1.957669e-02  9.359789e-01  7.619048e-01
     vertex  7.719577e-01 -5.031746e-01  7.619048e-01
     vertex  8.439154e-01 -5.751323e-01  7.619048e-01
   endloop
 endfacet
 facet normal  0.000000e+00  0.000000e+00  1.000000e+00
   outer loop
     vertex -1.957669e-02  9.359789e-01  7.619048e-01
     vertex -8.830687e-01 -5.751323e-01  7.619048e-01
     vertex -5.555552e-02  8.640212e-01  7.619048e-01
   endloop
 endfacet
 facet normal -8.682431e-01  4.961389e-01  0.000000e+00
   outer loop
     vertex -8.830687e-01 -5.751323e-01 -1.587302e-02
     vertex -1.957669e-02  9.359789e-01 -1.587302e-02
     vertex -1.957669e-02  9.359789e-01 -3.174603e-02
   endloop
 endfacet
 facet normal -8.682431e-01  4.961389e-01  0.000000e+00
   outer loop
     vertex -8.830687e-01 -5.751323e-01 -1.587302e-02
     vertex -1.957669e-02  9.359789e-01 -3.174603e-02
     vertex -8.830687e-01 -5.751323e-01 -3.174603e-02
   endloop
 endfacet
 facet normal  8.682431e-01  4.961389e-01  0.000000e+00
   outer loop
     vertex -1.957669e-02  9.359789e-01 -1.587302e-02
     vertex  8.439154e-01 -5.751323e-01 -1.587302e-02
     vertex  8.439154e-01 -5.751323e-01 -3.174603e-02
   endloop
 endfacet
 facet normal  8.682431e-01  4.961389e-01  0.000000e+00
   outer loop
     vertex -1.957669e-02  9.359789e-01 -1.587302e-02
     vertex  8.439154e-01 -5.751323e-01 -3.174603e-02
     vertex -1.957669e-02  9.359789e-01 -3.174603e-02
   endloop
 endfacet
 facet normal -0.000000e+00  0.000000e+00 -1.000000e+00
   outer loop
     vertex  7.719577e-01 -5.031746e-01 -3.174603e-02
     vertex -8.830687e-01 -5.751323e-01 -3.174603e-02
     vertex -8.111111e-01 -5.031746e-01 -3.174603e-02
   endloop
 endfacet
 facet normal  0.000000e+00  0.000000e+00 -1.000000e+00
   outer loop
     vertex  8.439154e-01 -5.751323e-01 -3.174603e-02
     vertex -8.830687e-01 -5.751323e-01 -3.174603e-02
     vertex  7.719577e-01 -5.031746e-01 -3.174603e-02
   endloop
 endfacet
 facet normal  0.000000e+00  0.000000e+00 -1.000000e+00
   outer loop
     vertex -5.555552e-02  8.640212e-01 -3.174603e-02
     vertex -8.111111e-01 -5.031746e-01 -3.174603e-02
     vertex -8.830687e-01 -5.751323e-01 -3.174603e-02
   endloop
 endfacet
 facet normal  0.000000e+00 -0.000000e+00 -1.000000e+00
   outer loop
     vertex -1.957669e-02  9.359789e-01 -3.174603e-02
     vertex  7.719577e-01 -5.031746e-01 -3.174603e-02
     vertex -5.555552e-02  8.640212e-01 -3.174603e-02
   endloop
 endfacet
 facet normal  0.000000e+00  0.000000e+00 -1.000000e+00
   outer loop
     vertex -1.957669e-02  9.359789e-01 -3.174603e-02
     vertex  8.439154e-01 -5.751323e-01 -3.174603e-02
     vertex  7.719577e-01 -5.031746e-01 -3.174603e-02
   endloop
 endfacet
 facet normal  0.000000e+00  0.000000e+00 -1.000000e+00
   outer loop
     vertex -1.957669e-02  9.359789e-01 -3.174603e-02
     vertex -5.555552e-02  8.640212e-01 -3.174603e-02
     vertex -8.830687e-01 -5.751323e-01 -3.174603e-02
   endloop
 endfacet
 facet normal  0.000000e+00  1.000000e+00  0.000000e+00
   outer loop
     vertex  7.719577e-01 -5.031746e-01 -1.587302e-02
     vertex -8.111111e-01 -5.031746e-01 -1.587302e-02
     vertex -8.111111e-01 -5.031746e-01  7.619048e-01
   endloop
 endfacet
 facet normal  0.000000e+00  1.000000e+00 -0.000000e+00
   outer loop
     vertex  7.719577e-01 -5.031746e-01 -1.587302e-02
     vertex -8.111111e-01 -5.031746e-01  7.619048e-01
     vertex  7.719577e-01 -5.031746e-01  7.619048e-01
   endloop
 endfacet
 facet normal -8.555001e-01 -5.178027e-01  0.000000e+00
   outer loop
     vertex -5.555552e-02  8.640212e-01 -1.587302e-02
     vertex  7.719577e-01 -5.031746e-01 -1.587302e-02
     vertex  7.719577e-01 -5.031746e-01  7.619048e-01
   endloop
 endfacet
 facet normal -8.555001e-01 -5.178027e-01  0.000000e+00
   outer loop
     vertex -5.555552e-02  8.640212e-01 -1.587302e-02
     vertex  7.719577e-01 -5.031746e-01  7.619048e-01
     vertex -5.555552e-02  8.640212e-01  7.619048e-01
   endloop
 endfacet
 facet normal  8.752415e-01 -4.836861e-01  0.000000e+00
   outer loop
     vertex -8.111111e-01 -5.031746e-01 -1.587302e-02
     vertex -5.555552e-02  8.640212e-01 -1.587302e-02
     vertex -5.555552e-02  8.640212e-01  7.619048e-01
   endloop
 endfacet
 facet normal  8.752415e-01 -4.836861e-01  0.000000e+00
   outer loop
     vertex -8.111111e-01 -5.031746e-01 -1.587302e-02
     vertex -5.555552e-02  8.640212e-01  7.619048e-01
     vertex -8.111111e-01 -5.031746e-01  7.619048e-01
   endloop
 endfacet
 facet normal  0.000000e+00  1.000000e+00  0.000000e+00
   outer loop
     vertex  7.719577e-01 -5.031746e-01 -1.587302e-02
     vertex -8.111111e-01 -5.031746e-01 -3.174603e-02
     vertex -8.111111e-01 -5.031746e-01 -1.587302e-02
   endloop
 endfacet
 facet normal  0.000000e+00  1.000000e+00  0.000000e+00
   outer loop
     vertex  7.719577e-01 -5.031746e-01 -1.587302e-02
     vertex  7.719577e-01 -5.031746e-01 -3.174603e-02
     vertex -8.111111e-01 -5.031746e-01 -3.174603e-02
   endloop
 endfacet
 facet normal -8.555001e-01 -5.178027e-01  0.000000e+00
   outer loop
     vertex -5.555552e-02  8.640212e-01 -1.587302e-02
     vertex  7.719577e-01 -5.031746e-01 -3.174603e-02
     vertex  7.719577e-01 -5.031746e-01 -1.587302e-02
   endloop
 endfacet
 facet normal -8.555001e-01 -5.178027e-01 -0.000000e+00
   outer loop
     vertex -5.555552e-02  8.640212e-01 -1.587302e-02
     vertex -5.555552e-02  8.640212e-01 -3.174603e-02
     vertex  7.719577e-01 -5.031746e-01 -3.174603e-02
   endloop
 endfacet
 facet normal  8.752415e-01 -4.836861e-01  0.000000e+00
   outer loop
     vertex -8.111111e-01 -5.031746e-01 -1.587302e-02
     vertex -5.555552e-02  8.640212e-01 -3.174603e-02
     vertex -5.555552e-02  8.640212e-01 -1.587302e-02
   endloop
 endfacet
 facet normal  8.752415e-01 -4.836861e-01  0.000000e+00
   outer loop
     vertex -8.111111e-01 -5.031746e-01 -1.587302e-02
     vertex -8.111111e-01 -5.031746e-01 -3.174603e-02
     vertex -5.555552e-02  8.640212e-01 -3.174603e-02
   endloop
 endfacet
endsolid
