solid 
 facet normal -9.667052e-01 -2.558926e-01  0.000000e+00
   outer loop
     vertex  1.345678e-01 -3.686073e-02 -1.587302e-02
     vertex -3.051156e-02  5.867725e-01  6.349207e-01
     vertex -3.051156e-02  5.867725e-01 -1.587302e-02
   endloop
 endfacet
 facet normal -9.667052e-01 -2.558926e-01  0.000000e+00
   outer loop
     vertex  1.345678e-01 -3.686073e-02 -1.587302e-02
     vertex  1.345678e-01 -3.686073e-02  6.349207e-01
     vertex -3.051156e-02  5.867725e-01  6.349207e-01
   endloop
 endfacet
 facet normal  0.000000e+00  1.000000e+00  0.000000e+00
   outer loop
     vertex -3.051156e-02  5.867725e-01 -1.587302e-02
     vertex  8.132275e-01  5.867725e-01  6.349207e-01
     vertex  8.132275e-01  5.867725e-01 -1.587302e-02
   endloop
 endfacet
 facet normal  0.000000e+00  1.000000e+00  0.000000e+00
   outer loop
     vertex -3.051156e-02  5.867725e-01 -1.587302e-02
     vertex -3.051156e-02  5.867725e-01  6.349207e-01
     vertex  8.132275e-01  5.867725e-01  6.349207e-01
   endloop
 endfacet
 facet normal  2.893895e-01 -9.572114e-01  0.000000e+00
   outer loop
     vertex  9.232804e-01  2.015873e-01 -1.587302e-02
     vertex  1.345678e-01 -3.686073e-02  6.349207e-01
     vertex  1.345678e-01 -3.686073e-02 -1.587302e-02
   endloop
 endfacet
 facet normal  2.893895e-01 -9.572114e-01  0.000000e+00
   outer loop
     vertex  9.232804e-01  2.015873e-01 -1.587302e-02
     vertex  9.232804e-01  2.015873e-01  6.349207e-01
     vertex  1.345678e-01 -3.686073e-02  6.349207e-01
   endloop
 endfacet
 facet normal -9.667052e-01 -2.558926e-01  0.000000e+00
   outer loop
     vertex  1.345678e-01 -3.686073e-02 -1.587302e-02
     vertex -3.051156e-02  5.867725e-01 -1.587302e-02
     vertex -3.051156e-02  5.867725e-01 -3.174603e-02
   endloop
 endfacet
 facet normal -9.667052e-01 -2.558926e-01 -0.000000e+00
   outer loop
     vertex  1.345678e-01 -3.686073e-02 -1.587302e-02
     vertex -3.051156e-02  5.867725e-01 -3.174603e-02
     vertex  1.345678e-01 -3.686073e-02 -3.174603e-02
   endloop
 endfacet
 facet normal  0.000000e+00  0.000000e+00  1.000000e+00
   outer loop
     vertex  8.132275e-01  5.867725e-01  6.349207e-01
     vertex -3.051156e-02  5.867725e-01  6.349207e-01
     vertex  1.345678e-01 -3.686073e-02  6.349207e-01
   endloop
 endfacet
 facet normal  0.000000e+00  0.000000e+00  1.000000e+00
   outer loop
     vertex  8.132275e-01  5.867725e-01  6.349207e-01
     vertex  1.345678e-01 -3.686073e-02  6.349207e-01
     vertex  9.232804e-01  2.015873e-01  6.349207e-01
   endloop
 endfacet
 facet normal  9.615239e-01  2.747212e-01  0.000000e+00
   outer loop
     vertex  8.132275e-01  5.867725e-01 -1.587302e-02
     vertex  9.232804e-01  2.015873e-01  6.349207e-01
     vertex  9.232804e-01  2.015873e-01 -1.587302e-02
   endloop
 endfacet
 facet normal  9.615239e-01  2.747212e-01 -0.000000e+00
   outer loop
     vertex  8.132275e-01  5.867725e-01 -1.587302e-02
     vertex  8.132275e-01  5.867725e-01  6.349207e-01
     vertex  9.232804e-01  2.015873e-01  6.349207e-01
   endloop
 endfacet
 facet normal -0.000000e+00  1.000000e+00  0.000000e+00
   outer loop
     vertex -3.051156e-02  5.867725e-01 -1.587302e-02
     vertex  8.132275e-01  5.867725e-01 -1.587302e-02
     vertex  8.132275e-01  5.867725e-01 -3.174603e-02
   endloop
 endfacet
 facet normal  0.000000e+00  1.000000e+00  0.000000e+00
   outer loop
     vertex -3.051156e-02  5.867725e-01 -1.587302e-02
     vertex  8.132275e-01  5.867725e-01 -3.174603e-02
     vertex -3.051156e-02  5.867725e-01 -3.174603e-02
   endloop
 endfacet
 facet normal  2.893895e-01 -9.572114e-01  0.000000e+00
   outer loop
     vertex  9.232804e-01  2.015873e-01 -1.587302e-02
     vertex  1.345678e-01 -3.686073e-02 -1.587302e-02
     vertex  1.345678e-01 -3.686073e-02 -3.174603e-02
   endloop
 endfacet
 facet normal  2.893895e-01 -9.572114e-01  0.000000e+00
   outer loop
     vertex  9.232804e-01  2.015873e-01 -1.587302e-02
     vertex  1.345678e-01 -3.686073e-02 -3.174603e-02
     vertex  9.232804e-01  2.015873e-01 -3.174603e-02
   endloop
 endfacet
 facet normal -0.000000e+00  0.000000e+00 -1.000000e+00
   outer loop
     vertex  8.132275e-01  5.867725e-01 -3.174603e-02
     vertex  1.345678e-01 -3.686073e-02 -3.174603e-02
     vertex -3.051156e-02  5.867725e-01 -3.174603e-02
   endloop
 endfacet
 facet normal  0.000000e+00 -0.000000e+00 -1.000000e+00
   outer loop
     vertex  8.132275e-01  5.867725e-01 -3.174603e-02
     vertex  9.232804e-01  2.015873e-01 -3.174603e-02
     vertex  1.345678e-01 -3.686073e-02 -3.174603e-02
   endloop
 endfacet
 facet normal  9.615239e-01  2.747212e-01  0.000000e+00
   outer loop
     vertex  8.132275e-01  5.867725e-01 -1.587302e-02
     vertex  9.232804e-01  2.015873e-01 -1.587302e-02
     vertex  9.232804e-01  2.015873e-01 -3.174603e-02
   endloop
 endfacet
 facet normal  9.615239e-01  2.747212e-01  0.000000e+00
   outer loop
     vertex  8.132275e-01  5.867725e-01 -1.587302e-02
     vertex  9.232804e-01  2.015873e-01 -3.174603e-02
     vertex  8.132275e-01  5.867725e-01 -3.174603e-02
   endloop
 endfacet
endsolid
