solid 
 facet normal -7.474094e-01  0.000000e+00 -6.643638e-01
   outer loop
     vertex -5.497354e-01 -1.587302e-02 -6.460319e-01
     vertex -8.206350e-01 -1.015873e+00 -3.412699e-01
     vertex -8.206350e-01 -1.587302e-02 -3.412699e-01
   endloop
 endfacet
 facet normal -7.474094e-01 -0.000000e+00 -6.643638e-01
   outer loop
     vertex -5.497354e-01 -1.587302e-02 -6.460319e-01
     vertex -5.497354e-01 -1.015873e+00 -6.460319e-01
     vertex -8.206350e-01 -1.015873e+00 -3.412699e-01
   endloop
 endfacet
 facet normal -9.912279e-01  0.000000e+00  1.321637e-01
   outer loop
     vertex -8.206350e-01 -1.587302e-02 -3.412699e-01
     vertex -7.529101e-01 -1.015873e+00  1.666667e-01
     vertex -7.529101e-01 -1.587302e-02  1.666667e-01
   endloop
 endfacet
 facet normal -9.912279e-01  0.000000e+00  1.321637e-01
   outer loop
     vertex -8.206350e-01 -1.587302e-02 -3.412699e-01
     vertex -8.206350e-01 -1.015873e+00 -3.412699e-01
     vertex -7.529101e-01 -1.015873e+00  1.666667e-01
   endloop
 endfacet
 facet normal -5.368754e-01  0.000000e+00 -8.436615e-01
   outer loop
     vertex -1.772486e-01 -1.587302e-02 -8.830689e-01
     vertex -5.497354e-01 -1.015873e+00 -6.460319e-01
     vertex -5.497354e-01 -1.587302e-02 -6.460319e-01
   endloop
 endfacet
 facet normal -5.368754e-01 -0.000000e+00 -8.436615e-01
   outer loop
     vertex -1.772486e-01 -1.587302e-02 -8.830689e-01
     vertex -1.772486e-01 -1.015873e+00 -8.830689e-01
     vertex -5.497354e-01 -1.015873e+00 -6.460319e-01
   endloop
 endfacet
 facet normal -7.474094e-01  0.000000e+00 -6.643638e-01
   outer loop
     vertex -5.497354e-01 -1.587302e-02 -6.460319e-01
     vertex -8.206350e-01 -1.587302e-02 -3.412699e-01
     vertex -8.206350e-01  0.000000e+00 -3.412699e-01
   endloop
 endfacet
 facet normal -7.474094e-01  0.000000e+00 -6.643638e-01
   outer loop
     vertex -5.497354e-01 -1.587302e-02 -6.460319e-01
     vertex -8.206350e-01  0.000000e+00 -3.412699e-01
     vertex -5.497354e-01  0.000000e+00 -6.460319e-01
   endloop
 endfacet
 facet normal -0.000000e+00 -1.000000e+00  0.000000e+00
   outer loop
     vertex -5.158730e-01 -1.015873e+00  9.894183e-02
     vertex -7.529101e-01 -1.015873e+00  1.666667e-01
     vertex -8.206350e-01 -1.015873e+00 -3.412699e-01
   endloop
 endfacet
 facet normal  0.000000e+00 -1.000000e+00 -0.000000e+00
   outer loop
     vertex -5.835978e-01 -1.015873e+00  2.343916e-01
     vertex -7.529101e-01 -1.015873e+00  1.666667e-01
     vertex -5.158730e-01 -1.015873e+00  9.894183e-02
   endloop
 endfacet
 facet normal  0.000000e+00 -1.000000e+00  0.000000e+00
   outer loop
     vertex -2.788360e-01 -1.015873e+00  6.507941e-02
     vertex -8.206350e-01 -1.015873e+00 -3.412699e-01
     vertex -5.497354e-01 -1.015873e+00 -6.460319e-01
   endloop
 endfacet
 facet normal  0.000000e+00 -1.000000e+00 -0.000000e+00
   outer loop
     vertex -2.788360e-01 -1.015873e+00  6.507941e-02
     vertex -5.497354e-01 -1.015873e+00 -6.460319e-01
     vertex -1.772486e-01 -1.015873e+00 -8.830689e-01
   endloop
 endfacet
 facet normal  0.000000e+00 -1.000000e+00  0.000000e+00
   outer loop
     vertex -2.788360e-01 -1.015873e+00  6.507941e-02
     vertex -1.772486e-01 -1.015873e+00 -8.830689e-01
     vertex  2.968255e-01 -1.015873e+00 -7.137567e-01
   endloop
 endfacet
 facet normal -0.000000e+00 -1.000000e+00  0.000000e+00
   outer loop
     vertex -2.788360e-01 -1.015873e+00  6.507941e-02
     vertex -5.158730e-01 -1.015873e+00  9.894183e-02
     vertex -8.206350e-01 -1.015873e+00 -3.412699e-01
   endloop
 endfacet
 facet normal -0.000000e+00 -1.000000e+00  0.000000e+00
   outer loop
     vertex  6.693122e-01 -1.015873e+00 -2.735450e-01
     vertex -2.788360e-01 -1.015873e+00  6.507941e-02
     vertex  2.968255e-01 -1.015873e+00 -7.137567e-01
   endloop
 endfacet
 facet normal  0.000000e+00 -1.000000e+00  0.000000e+00
   outer loop
     vertex -4.179885e-02 -1.015873e+00  6.746032e-01
     vertex -4.142857e-01 -1.015873e+00  5.052910e-01
     vertex -2.111111e-01 -1.015873e+00  3.021164e-01
   endloop
 endfacet
 facet normal -0.000000e+00 -1.000000e+00  0.000000e+00
   outer loop
     vertex  6.670330e-03 -1.015873e+00  6.566947e-01
     vertex -4.179885e-02 -1.015873e+00  6.746032e-01
     vertex -2.111111e-01 -1.015873e+00  3.021164e-01
   endloop
 endfacet
 facet normal -0.000000e+00 -1.000000e+00  0.000000e+00
   outer loop
     vertex  5.388756e-02 -1.015873e+00  6.357063e-01
     vertex  6.670330e-03 -1.015873e+00  6.566947e-01
     vertex -2.111111e-01 -1.015873e+00  3.021164e-01
   endloop
 endfacet
 facet normal -0.000000e+00 -1.000000e+00  0.000000e+00
   outer loop
     vertex  9.965740e-02 -1.015873e+00  6.117251e-01
     vertex  5.388756e-02 -1.015873e+00  6.357063e-01
     vertex -2.111111e-01 -1.015873e+00  3.021164e-01
   endloop
 endfacet
 facet normal -0.000000e+00 -1.000000e+00  0.000000e+00
   outer loop
     vertex  1.437904e-01 -1.015873e+00  5.848502e-01
     vertex  9.965740e-02 -1.015873e+00  6.117251e-01
     vertex -2.111111e-01 -1.015873e+00  3.021164e-01
   endloop
 endfacet
 facet normal  0.000000e+00 -1.000000e+00  0.000000e+00
   outer loop
     vertex  3.645504e-01 -1.015873e+00  3.698413e-01
     vertex -2.111111e-01 -1.015873e+00  3.021164e-01
     vertex -2.788360e-01 -1.015873e+00  6.507941e-02
   endloop
 endfacet
 facet normal  0.000000e+00 -1.000000e+00 -0.000000e+00
   outer loop
     vertex  3.645504e-01 -1.015873e+00  3.698413e-01
     vertex -2.788360e-01 -1.015873e+00  6.507941e-02
     vertex  6.693122e-01 -1.015873e+00 -2.735450e-01
   endloop
 endfacet
 facet normal -0.000000e+00 -1.000000e+00  0.000000e+00
   outer loop
     vertex  1.861038e-01 -1.015873e+00  5.551930e-01
     vertex  1.437904e-01 -1.015873e+00  5.848502e-01
     vertex -2.111111e-01 -1.015873e+00  3.021164e-01
   endloop
 endfacet
 facet normal  0.000000e+00 -1.000000e+00 -0.000000e+00
   outer loop
     vertex  3.337868e-01 -1.015873e+00  4.113573e-01
     vertex -2.111111e-01 -1.015873e+00  3.021164e-01
     vertex  3.645504e-01 -1.015873e+00  3.698413e-01
   endloop
 endfacet
 facet normal -0.000000e+00 -1.000000e+00  0.000000e+00
   outer loop
     vertex  2.264225e-01 -1.015873e+00  5.228761e-01
     vertex  1.861038e-01 -1.015873e+00  5.551930e-01
     vertex -2.111111e-01 -1.015873e+00  3.021164e-01
   endloop
 endfacet
 facet normal  0.000000e+00 -1.000000e+00 -0.000000e+00
   outer loop
     vertex  3.004171e-01 -1.015873e+00  4.508091e-01
     vertex -2.111111e-01 -1.015873e+00  3.021164e-01
     vertex  3.337868e-01 -1.015873e+00  4.113573e-01
   endloop
 endfacet
 facet normal -0.000000e+00 -1.000000e+00  0.000000e+00
   outer loop
     vertex  2.645796e-01 -1.015873e+00  4.880334e-01
     vertex  2.264225e-01 -1.015873e+00  5.228761e-01
     vertex -2.111111e-01 -1.015873e+00  3.021164e-01
   endloop
 endfacet
 facet normal  0.000000e+00 -1.000000e+00 -0.000000e+00
   outer loop
     vertex  2.645796e-01 -1.015873e+00  4.880334e-01
     vertex -2.111111e-01 -1.015873e+00  3.021164e-01
     vertex  3.004171e-01 -1.015873e+00  4.508091e-01
   endloop
 endfacet
 facet normal -3.713905e-01  0.000000e+00  9.284768e-01
   outer loop
     vertex -7.529101e-01 -1.587302e-02  1.666667e-01
     vertex -5.835978e-01 -1.015873e+00  2.343916e-01
     vertex -5.835978e-01 -1.587302e-02  2.343916e-01
   endloop
 endfacet
 facet normal -3.713905e-01  0.000000e+00  9.284768e-01
   outer loop
     vertex -7.529101e-01 -1.587302e-02  1.666667e-01
     vertex -7.529101e-01 -1.015873e+00  1.666667e-01
     vertex -5.835978e-01 -1.015873e+00  2.343916e-01
   endloop
 endfacet
 facet normal -9.912279e-01  0.000000e+00  1.321637e-01
   outer loop
     vertex -8.206350e-01 -1.587302e-02 -3.412699e-01
     vertex -7.529101e-01 -1.587302e-02  1.666667e-01
     vertex -7.529101e-01  0.000000e+00  1.666667e-01
   endloop
 endfacet
 facet normal -9.912279e-01  0.000000e+00  1.321637e-01
   outer loop
     vertex -8.206350e-01 -1.587302e-02 -3.412699e-01
     vertex -7.529101e-01  0.000000e+00  1.666667e-01
     vertex -8.206350e-01  0.000000e+00 -3.412699e-01
   endloop
 endfacet
 facet normal  3.363364e-01  0.000000e+00 -9.417419e-01
   outer loop
     vertex  2.968255e-01 -1.587302e-02 -7.137567e-01
     vertex -1.772486e-01 -1.015873e+00 -8.830689e-01
     vertex -1.772486e-01 -1.587302e-02 -8.830689e-01
   endloop
 endfacet
 facet normal  3.363364e-01  0.000000e+00 -9.417419e-01
   outer loop
     vertex  2.968255e-01 -1.587302e-02 -7.137567e-01
     vertex  2.968255e-01 -1.015873e+00 -7.137567e-01
     vertex -1.772486e-01 -1.015873e+00 -8.830689e-01
   endloop
 endfacet
 facet normal -5.368754e-01  0.000000e+00 -8.436615e-01
   outer loop
     vertex -1.772486e-01 -1.587302e-02 -8.830689e-01
     vertex -5.497354e-01 -1.587302e-02 -6.460319e-01
     vertex -5.497354e-01  0.000000e+00 -6.460319e-01
   endloop
 endfacet
 facet normal -5.368754e-01  0.000000e+00 -8.436615e-01
   outer loop
     vertex -1.772486e-01 -1.587302e-02 -8.830689e-01
     vertex -5.497354e-01  0.000000e+00 -6.460319e-01
     vertex -1.772486e-01  0.000000e+00 -8.830689e-01
   endloop
 endfacet
 facet normal  0.000000e+00  1.000000e+00  0.000000e+00
   outer loop
     vertex -5.158730e-01  6.591949e-17  9.894183e-02
     vertex -8.206350e-01  6.591949e-17 -3.412699e-01
     vertex -7.529101e-01  6.591949e-17  1.666667e-01
   endloop
 endfacet
 facet normal  0.000000e+00  1.000000e+00  0.000000e+00
   outer loop
     vertex -5.835978e-01  6.591949e-17  2.343916e-01
     vertex -5.158730e-01  6.591949e-17  9.894183e-02
     vertex -7.529101e-01  6.591949e-17  1.666667e-01
   endloop
 endfacet
 facet normal  0.000000e+00  1.000000e+00  0.000000e+00
   outer loop
     vertex -2.788360e-01  6.591949e-17  6.507941e-02
     vertex -5.497354e-01  6.591949e-17 -6.460319e-01
     vertex -8.206350e-01  6.591949e-17 -3.412699e-01
   endloop
 endfacet
 facet normal  0.000000e+00  1.000000e+00  0.000000e+00
   outer loop
     vertex -2.788360e-01  6.591949e-17  6.507941e-02
     vertex -1.772486e-01  6.591949e-17 -8.830689e-01
     vertex -5.497354e-01  6.591949e-17 -6.460319e-01
   endloop
 endfacet
 facet normal  0.000000e+00  1.000000e+00  0.000000e+00
   outer loop
     vertex -2.788360e-01  6.591949e-17  6.507941e-02
     vertex  2.968255e-01  6.591949e-17 -7.137567e-01
     vertex -1.772486e-01  6.591949e-17 -8.830689e-01
   endloop
 endfacet
 facet normal  0.000000e+00  1.000000e+00  0.000000e+00
   outer loop
     vertex -2.788360e-01  6.591949e-17  6.507941e-02
     vertex -8.206350e-01  6.591949e-17 -3.412699e-01
     vertex -5.158730e-01  6.591949e-17  9.894183e-02
   endloop
 endfacet
 facet normal  0.000000e+00  1.000000e+00  0.000000e+00
   outer loop
     vertex  6.693122e-01  6.591949e-17 -2.735450e-01
     vertex  2.968255e-01  6.591949e-17 -7.137567e-01
     vertex -2.788360e-01  6.591949e-17  6.507941e-02
   endloop
 endfacet
 facet normal  0.000000e+00  1.000000e+00  0.000000e+00
   outer loop
     vertex -4.179885e-02  6.591949e-17  6.746032e-01
     vertex -2.111111e-01  6.591949e-17  3.021164e-01
     vertex -4.142857e-01  6.591949e-17  5.052910e-01
   endloop
 endfacet
 facet normal  0.000000e+00  1.000000e+00  0.000000e+00
   outer loop
     vertex  6.670330e-03  6.591949e-17  6.566947e-01
     vertex -2.111111e-01  6.591949e-17  3.021164e-01
     vertex -4.179885e-02  6.591949e-17  6.746032e-01
   endloop
 endfacet
 facet normal  0.000000e+00  1.000000e+00  0.000000e+00
   outer loop
     vertex  5.388756e-02  6.591949e-17  6.357063e-01
     vertex -2.111111e-01  6.591949e-17  3.021164e-01
     vertex  6.670330e-03  6.591949e-17  6.566947e-01
   endloop
 endfacet
 facet normal  0.000000e+00  1.000000e+00  0.000000e+00
   outer loop
     vertex  9.965740e-02  6.591949e-17  6.117251e-01
     vertex -2.111111e-01  6.591949e-17  3.021164e-01
     vertex  5.388756e-02  6.591949e-17  6.357063e-01
   endloop
 endfacet
 facet normal  0.000000e+00  1.000000e+00  0.000000e+00
   outer loop
     vertex  1.437904e-01  6.591949e-17  5.848502e-01
     vertex -2.111111e-01  6.591949e-17  3.021164e-01
     vertex  9.965740e-02  6.591949e-17  6.117251e-01
   endloop
 endfacet
 facet normal  0.000000e+00  1.000000e+00  0.000000e+00
   outer loop
     vertex  3.645504e-01  6.591949e-17  3.698413e-01
     vertex -2.788360e-01  6.591949e-17  6.507941e-02
     vertex -2.111111e-01  6.591949e-17  3.021164e-01
   endloop
 endfacet
 facet normal  0.000000e+00  1.000000e+00  0.000000e+00
   outer loop
     vertex  3.645504e-01  6.591949e-17  3.698413e-01
     vertex  6.693122e-01  6.591949e-17 -2.735450e-01
     vertex -2.788360e-01  6.591949e-17  6.507941e-02
   endloop
 endfacet
 facet normal  0.000000e+00  1.000000e+00  0.000000e+00
   outer loop
     vertex  1.861038e-01  6.591949e-17  5.551930e-01
     vertex -2.111111e-01  6.591949e-17  3.021164e-01
     vertex  1.437904e-01  6.591949e-17  5.848502e-01
   endloop
 endfacet
 facet normal  0.000000e+00  1.000000e+00  0.000000e+00
   outer loop
     vertex  3.337868e-01  6.591949e-17  4.113573e-01
     vertex  3.645504e-01  6.591949e-17  3.698413e-01
     vertex -2.111111e-01  6.591949e-17  3.021164e-01
   endloop
 endfacet
 facet normal  0.000000e+00  1.000000e+00  0.000000e+00
   outer loop
     vertex  2.264225e-01  6.591949e-17  5.228761e-01
     vertex -2.111111e-01  6.591949e-17  3.021164e-01
     vertex  1.861038e-01  6.591949e-17  5.551930e-01
   endloop
 endfacet
 facet normal  0.000000e+00  1.000000e+00  0.000000e+00
   outer loop
     vertex  3.004171e-01  6.591949e-17  4.508091e-01
     vertex  3.337868e-01  6.591949e-17  4.113573e-01
     vertex -2.111111e-01  6.591949e-17  3.021164e-01
   endloop
 endfacet
 facet normal  0.000000e+00  1.000000e+00  0.000000e+00
   outer loop
     vertex  2.645796e-01  6.591949e-17  4.880334e-01
     vertex -2.111111e-01  6.591949e-17  3.021164e-01
     vertex  2.264225e-01  6.591949e-17  5.228761e-01
   endloop
 endfacet
 facet normal  0.000000e+00  1.000000e+00  0.000000e+00
   outer loop
     vertex  2.645796e-01  6.591949e-17  4.880334e-01
     vertex  3.004171e-01  6.591949e-17  4.508091e-01
     vertex -2.111111e-01  6.591949e-17  3.021164e-01
   endloop
 endfacet
 facet normal  7.633863e-01  0.000000e+00 -6.459422e-01
   outer loop
     vertex  6.693122e-01 -1.587302e-02 -2.735450e-01
     vertex  2.968255e-01 -1.015873e+00 -7.137567e-01
     vertex  2.968255e-01 -1.587302e-02 -7.137567e-01
   endloop
 endfacet
 facet normal  7.633863e-01  0.000000e+00 -6.459422e-01
   outer loop
     vertex  6.693122e-01 -1.587302e-02 -2.735450e-01
     vertex  6.693122e-01 -1.015873e+00 -2.735450e-01
     vertex  2.968255e-01 -1.015873e+00 -7.137567e-01
   endloop
 endfacet
 facet normal  9.037379e-01  0.000000e+00  4.280863e-01
   outer loop
     vertex  3.645504e-01 -1.587302e-02  3.698413e-01
     vertex  6.693122e-01 -1.015873e+00 -2.735450e-01
     vertex  6.693122e-01 -1.587302e-02 -2.735450e-01
   endloop
 endfacet
 facet normal  9.037379e-01  0.000000e+00  4.280863e-01
   outer loop
     vertex  3.645504e-01 -1.587302e-02  3.698413e-01
     vertex  3.645504e-01 -1.015873e+00  3.698413e-01
     vertex  6.693122e-01 -1.015873e+00 -2.735450e-01
   endloop
 endfacet
 facet normal  8.034555e-01  0.000000e+00  5.953648e-01
   outer loop
     vertex  3.337868e-01 -1.587302e-02  4.113573e-01
     vertex  3.645504e-01 -1.015873e+00  3.698413e-01
     vertex  3.645504e-01 -1.587302e-02  3.698413e-01
   endloop
 endfacet
 facet normal  8.034555e-01  0.000000e+00  5.953648e-01
   outer loop
     vertex  3.337868e-01 -1.587302e-02  4.113573e-01
     vertex  3.337868e-01 -1.015873e+00  4.113573e-01
     vertex  3.645504e-01 -1.015873e+00  3.698413e-01
   endloop
 endfacet
 facet normal  7.635072e-01  0.000000e+00  6.457993e-01
   outer loop
     vertex  3.004171e-01 -1.587302e-02  4.508091e-01
     vertex  3.004171e-01 -1.015873e+00  4.508091e-01
     vertex  3.337868e-01 -1.015873e+00  4.113573e-01
   endloop
 endfacet
 facet normal  7.635072e-01  0.000000e+00  6.457993e-01
   outer loop
     vertex  3.004171e-01 -1.587302e-02  4.508091e-01
     vertex  3.337868e-01 -1.015873e+00  4.113573e-01
     vertex  3.337868e-01 -1.587302e-02  4.113573e-01
   endloop
 endfacet
 facet normal  7.203983e-01  0.000000e+00  6.935606e-01
   outer loop
     vertex  2.645796e-01 -1.587302e-02  4.880334e-01
     vertex  2.645796e-01 -1.015873e+00  4.880334e-01
     vertex  3.004171e-01 -1.015873e+00  4.508091e-01
   endloop
 endfacet
 facet normal  7.203983e-01  0.000000e+00  6.935606e-01
   outer loop
     vertex  2.645796e-01 -1.587302e-02  4.880334e-01
     vertex  3.004171e-01 -1.015873e+00  4.508091e-01
     vertex  3.004171e-01 -1.587302e-02  4.508091e-01
   endloop
 endfacet
 facet normal  6.743074e-01  0.000000e+00  7.384508e-01
   outer loop
     vertex  2.264225e-01 -1.587302e-02  5.228761e-01
     vertex  2.264225e-01 -1.015873e+00  5.228761e-01
     vertex  2.645796e-01 -1.015873e+00  4.880334e-01
   endloop
 endfacet
 facet normal  6.743074e-01  0.000000e+00  7.384508e-01
   outer loop
     vertex  2.264225e-01 -1.587302e-02  5.228761e-01
     vertex  2.645796e-01 -1.015873e+00  4.880334e-01
     vertex  2.645796e-01 -1.587302e-02  4.880334e-01
   endloop
 endfacet
 facet normal  6.254251e-01  0.000000e+00  7.802842e-01
   outer loop
     vertex  1.861038e-01 -1.587302e-02  5.551930e-01
     vertex  1.861038e-01 -1.015873e+00  5.551930e-01
     vertex  2.264225e-01 -1.015873e+00  5.228761e-01
   endloop
 endfacet
 facet normal  6.254251e-01  0.000000e+00  7.802842e-01
   outer loop
     vertex  1.861038e-01 -1.587302e-02  5.551930e-01
     vertex  2.264225e-01 -1.015873e+00  5.228761e-01
     vertex  2.264225e-01 -1.587302e-02  5.228761e-01
   endloop
 endfacet
 facet normal  5.739539e-01  0.000000e+00  8.188876e-01
   outer loop
     vertex  1.437904e-01 -1.587302e-02  5.848502e-01
     vertex  1.437904e-01 -1.015873e+00  5.848502e-01
     vertex  1.861038e-01 -1.015873e+00  5.551930e-01
   endloop
 endfacet
 facet normal  5.739539e-01  0.000000e+00  8.188876e-01
   outer loop
     vertex  1.437904e-01 -1.587302e-02  5.848502e-01
     vertex  1.861038e-01 -1.015873e+00  5.551930e-01
     vertex  1.861038e-01 -1.587302e-02  5.551930e-01
   endloop
 endfacet
 facet normal  5.201068e-01  0.000000e+00  8.541013e-01
   outer loop
     vertex  9.965740e-02 -1.587302e-02  6.117251e-01
     vertex  9.965740e-02 -1.015873e+00  6.117251e-01
     vertex  1.437904e-01 -1.015873e+00  5.848502e-01
   endloop
 endfacet
 facet normal  5.201068e-01  0.000000e+00  8.541013e-01
   outer loop
     vertex  9.965740e-02 -1.587302e-02  6.117251e-01
     vertex  1.437904e-01 -1.015873e+00  5.848502e-01
     vertex  1.437904e-01 -1.587302e-02  5.848502e-01
   endloop
 endfacet
 facet normal  4.641067e-01  0.000000e+00  8.857793e-01
   outer loop
     vertex  5.388756e-02 -1.587302e-02  6.357063e-01
     vertex  5.388756e-02 -1.015873e+00  6.357063e-01
     vertex  9.965740e-02 -1.015873e+00  6.117251e-01
   endloop
 endfacet
 facet normal  4.641067e-01  0.000000e+00  8.857793e-01
   outer loop
     vertex  5.388756e-02 -1.587302e-02  6.357063e-01
     vertex  9.965740e-02 -1.015873e+00  6.117251e-01
     vertex  9.965740e-02 -1.587302e-02  6.117251e-01
   endloop
 endfacet
 facet normal  4.061854e-01  0.000000e+00  9.137907e-01
   outer loop
     vertex  6.670330e-03 -1.587302e-02  6.566947e-01
     vertex  6.670330e-03 -1.015873e+00  6.566947e-01
     vertex  5.388756e-02 -1.015873e+00  6.357063e-01
   endloop
 endfacet
 facet normal  4.061854e-01  0.000000e+00  9.137907e-01
   outer loop
     vertex  6.670330e-03 -1.587302e-02  6.566947e-01
     vertex  5.388756e-02 -1.015873e+00  6.357063e-01
     vertex  5.388756e-02 -1.587302e-02  6.357063e-01
   endloop
 endfacet
 facet normal  3.465827e-01  0.000000e+00  9.380194e-01
   outer loop
     vertex -4.179885e-02 -1.587302e-02  6.746032e-01
     vertex -4.179885e-02 -1.015873e+00  6.746032e-01
     vertex  6.670330e-03 -1.015873e+00  6.566947e-01
   endloop
 endfacet
 facet normal  3.465827e-01  0.000000e+00  9.380194e-01
   outer loop
     vertex -4.179885e-02 -1.587302e-02  6.746032e-01
     vertex  6.670330e-03 -1.015873e+00  6.566947e-01
     vertex  6.670330e-03 -1.587302e-02  6.566947e-01
   endloop
 endfacet
 facet normal -4.138029e-01  0.000000e+00  9.103665e-01
   outer loop
     vertex -4.142857e-01 -1.587302e-02  5.052910e-01
     vertex -4.179885e-02 -1.015873e+00  6.746032e-01
     vertex -4.179885e-02 -1.587302e-02  6.746032e-01
   endloop
 endfacet
 facet normal -4.138029e-01  0.000000e+00  9.103665e-01
   outer loop
     vertex -4.142857e-01 -1.587302e-02  5.052910e-01
     vertex -4.142857e-01 -1.015873e+00  5.052910e-01
     vertex -4.179885e-02 -1.015873e+00  6.746032e-01
   endloop
 endfacet
 facet normal -7.071068e-01  0.000000e+00 -7.071068e-01
   outer loop
     vertex -2.111111e-01 -1.587302e-02  3.021164e-01
     vertex -4.142857e-01 -1.015873e+00  5.052910e-01
     vertex -4.142857e-01 -1.587302e-02  5.052910e-01
   endloop
 endfacet
 facet normal -7.071068e-01 -0.000000e+00 -7.071068e-01
   outer loop
     vertex -2.111111e-01 -1.587302e-02  3.021164e-01
     vertex -2.111111e-01 -1.015873e+00  3.021164e-01
     vertex -4.142857e-01 -1.015873e+00  5.052910e-01
   endloop
 endfacet
 facet normal -9.615239e-01  0.000000e+00  2.747212e-01
   outer loop
     vertex -2.788360e-01 -1.587302e-02  6.507941e-02
     vertex -2.111111e-01 -1.015873e+00  3.021164e-01
     vertex -2.111111e-01 -1.587302e-02  3.021164e-01
   endloop
 endfacet
 facet normal -9.615239e-01  0.000000e+00  2.747212e-01
   outer loop
     vertex -2.788360e-01 -1.587302e-02  6.507941e-02
     vertex -2.788360e-01 -1.015873e+00  6.507941e-02
     vertex -2.111111e-01 -1.015873e+00  3.021164e-01
   endloop
 endfacet
 facet normal  1.414213e-01  0.000000e+00  9.899495e-01
   outer loop
     vertex -5.158730e-01 -1.587302e-02  9.894183e-02
     vertex -2.788360e-01 -1.015873e+00  6.507941e-02
     vertex -2.788360e-01 -1.587302e-02  6.507941e-02
   endloop
 endfacet
 facet normal  1.414213e-01  0.000000e+00  9.899495e-01
   outer loop
     vertex -5.158730e-01 -1.587302e-02  9.894183e-02
     vertex -5.158730e-01 -1.015873e+00  9.894183e-02
     vertex -2.788360e-01 -1.015873e+00  6.507941e-02
   endloop
 endfacet
 facet normal  8.944272e-01  0.000000e+00  4.472135e-01
   outer loop
     vertex -5.835978e-01 -1.587302e-02  2.343916e-01
     vertex -5.158730e-01 -1.015873e+00  9.894183e-02
     vertex -5.158730e-01 -1.587302e-02  9.894183e-02
   endloop
 endfacet
 facet normal  8.944272e-01  0.000000e+00  4.472135e-01
   outer loop
     vertex -5.835978e-01 -1.587302e-02  2.343916e-01
     vertex -5.835978e-01 -1.015873e+00  2.343916e-01
     vertex -5.158730e-01 -1.015873e+00  9.894183e-02
   endloop
 endfacet
 facet normal -3.713905e-01  0.000000e+00  9.284768e-01
   outer loop
     vertex -7.529101e-01 -1.587302e-02  1.666667e-01
     vertex -5.835978e-01 -1.587302e-02  2.343916e-01
     vertex -5.835978e-01  0.000000e+00  2.343916e-01
   endloop
 endfacet
 facet normal -3.713905e-01  0.000000e+00  9.284768e-01
   outer loop
     vertex -7.529101e-01 -1.587302e-02  1.666667e-01
     vertex -5.835978e-01  0.000000e+00  2.343916e-01
     vertex -7.529101e-01  0.000000e+00  1.666667e-01
   endloop
 endfacet
 facet normal  3.363364e-01  0.000000e+00 -9.417419e-01
   outer loop
     vertex  2.968255e-01 -1.587302e-02 -7.137567e-01
     vertex -1.772486e-01 -1.587302e-02 -8.830689e-01
     vertex -1.772486e-01  0.000000e+00 -8.830689e-01
   endloop
 endfacet
 facet normal  3.363364e-01  0.000000e+00 -9.417419e-01
   outer loop
     vertex  2.968255e-01 -1.587302e-02 -7.137567e-01
     vertex -1.772486e-01  0.000000e+00 -8.830689e-01
     vertex  2.968255e-01  0.000000e+00 -7.137567e-01
   endloop
 endfacet
 facet normal  7.633863e-01  0.000000e+00 -6.459422e-01
   outer loop
     vertex  6.693122e-01 -1.587302e-02 -2.735450e-01
     vertex  2.968255e-01 -1.587302e-02 -7.137567e-01
     vertex  2.968255e-01  0.000000e+00 -7.137567e-01
   endloop
 endfacet
 facet normal  7.633863e-01  0.000000e+00 -6.459422e-01
   outer loop
     vertex  6.693122e-01 -1.587302e-02 -2.735450e-01
     vertex  2.968255e-01  0.000000e+00 -7.137567e-01
     vertex  6.693122e-01  0.000000e+00 -2.735450e-01
   endloop
 endfacet
 facet normal  9.037379e-01  0.000000e+00  4.280863e-01
   outer loop
     vertex  3.645504e-01 -1.587302e-02  3.698413e-01
     vertex  6.693122e-01 -1.587302e-02 -2.735450e-01
     vertex  6.693122e-01  0.000000e+00 -2.735450e-01
   endloop
 endfacet
 facet normal  9.037379e-01 -0.000000e+00  4.280863e-01
   outer loop
     vertex  3.645504e-01 -1.587302e-02  3.698413e-01
     vertex  6.693122e-01  0.000000e+00 -2.735450e-01
     vertex  3.645504e-01  0.000000e+00  3.698413e-01
   endloop
 endfacet
 facet normal  8.034555e-01  0.000000e+00  5.953648e-01
   outer loop
     vertex  3.337868e-01 -1.587302e-02  4.113573e-01
     vertex  3.645504e-01 -1.587302e-02  3.698413e-01
     vertex  3.645504e-01  0.000000e+00  3.698413e-01
   endloop
 endfacet
 facet normal  8.034555e-01 -0.000000e+00  5.953648e-01
   outer loop
     vertex  3.337868e-01 -1.587302e-02  4.113573e-01
     vertex  3.645504e-01  0.000000e+00  3.698413e-01
     vertex  3.337868e-01  0.000000e+00  4.113573e-01
   endloop
 endfacet
 facet normal  7.635072e-01 -0.000000e+00  6.457993e-01
   outer loop
     vertex  3.004171e-01 -1.587302e-02  4.508091e-01
     vertex  3.337868e-01  0.000000e+00  4.113573e-01
     vertex  3.004171e-01  0.000000e+00  4.508091e-01
   endloop
 endfacet
 facet normal  7.635072e-01  0.000000e+00  6.457993e-01
   outer loop
     vertex  3.004171e-01 -1.587302e-02  4.508091e-01
     vertex  3.337868e-01 -1.587302e-02  4.113573e-01
     vertex  3.337868e-01  0.000000e+00  4.113573e-01
   endloop
 endfacet
 facet normal  7.203983e-01 -0.000000e+00  6.935606e-01
   outer loop
     vertex  2.645796e-01 -1.587302e-02  4.880334e-01
     vertex  3.004171e-01  0.000000e+00  4.508091e-01
     vertex  2.645796e-01  0.000000e+00  4.880334e-01
   endloop
 endfacet
 facet normal  7.203983e-01  0.000000e+00  6.935606e-01
   outer loop
     vertex  2.645796e-01 -1.587302e-02  4.880334e-01
     vertex  3.004171e-01 -1.587302e-02  4.508091e-01
     vertex  3.004171e-01  0.000000e+00  4.508091e-01
   endloop
 endfacet
 facet normal  6.743074e-01 -0.000000e+00  7.384508e-01
   outer loop
     vertex  2.264225e-01 -1.587302e-02  5.228761e-01
     vertex  2.645796e-01  0.000000e+00  4.880334e-01
     vertex  2.264225e-01  0.000000e+00  5.228761e-01
   endloop
 endfacet
 facet normal  6.743074e-01  0.000000e+00  7.384508e-01
   outer loop
     vertex  2.264225e-01 -1.587302e-02  5.228761e-01
     vertex  2.645796e-01 -1.587302e-02  4.880334e-01
     vertex  2.645796e-01  0.000000e+00  4.880334e-01
   endloop
 endfacet
 facet normal  6.254251e-01 -0.000000e+00  7.802842e-01
   outer loop
     vertex  1.861038e-01 -1.587302e-02  5.551930e-01
     vertex  2.264225e-01  0.000000e+00  5.228761e-01
     vertex  1.861038e-01  0.000000e+00  5.551930e-01
   endloop
 endfacet
 facet normal  6.254251e-01  0.000000e+00  7.802842e-01
   outer loop
     vertex  1.861038e-01 -1.587302e-02  5.551930e-01
     vertex  2.264225e-01 -1.587302e-02  5.228761e-01
     vertex  2.264225e-01  0.000000e+00  5.228761e-01
   endloop
 endfacet
 facet normal  5.739539e-01 -0.000000e+00  8.188876e-01
   outer loop
     vertex  1.437904e-01 -1.587302e-02  5.848502e-01
     vertex  1.861038e-01  0.000000e+00  5.551930e-01
     vertex  1.437904e-01  0.000000e+00  5.848502e-01
   endloop
 endfacet
 facet normal  5.739539e-01  0.000000e+00  8.188876e-01
   outer loop
     vertex  1.437904e-01 -1.587302e-02  5.848502e-01
     vertex  1.861038e-01 -1.587302e-02  5.551930e-01
     vertex  1.861038e-01  0.000000e+00  5.551930e-01
   endloop
 endfacet
 facet normal  5.201068e-01 -0.000000e+00  8.541013e-01
   outer loop
     vertex  9.965740e-02 -1.587302e-02  6.117251e-01
     vertex  1.437904e-01  0.000000e+00  5.848502e-01
     vertex  9.965740e-02  0.000000e+00  6.117251e-01
   endloop
 endfacet
 facet normal  5.201068e-01  0.000000e+00  8.541013e-01
   outer loop
     vertex  9.965740e-02 -1.587302e-02  6.117251e-01
     vertex  1.437904e-01 -1.587302e-02  5.848502e-01
     vertex  1.437904e-01  0.000000e+00  5.848502e-01
   endloop
 endfacet
 facet normal  4.641067e-01 -0.000000e+00  8.857793e-01
   outer loop
     vertex  5.388756e-02 -1.587302e-02  6.357063e-01
     vertex  9.965740e-02  0.000000e+00  6.117251e-01
     vertex  5.388756e-02  0.000000e+00  6.357063e-01
   endloop
 endfacet
 facet normal  4.641067e-01  0.000000e+00  8.857793e-01
   outer loop
     vertex  5.388756e-02 -1.587302e-02  6.357063e-01
     vertex  9.965740e-02 -1.587302e-02  6.117251e-01
     vertex  9.965740e-02  0.000000e+00  6.117251e-01
   endloop
 endfacet
 facet normal  4.061854e-01 -0.000000e+00  9.137907e-01
   outer loop
     vertex  6.670330e-03 -1.587302e-02  6.566947e-01
     vertex  5.388756e-02  0.000000e+00  6.357063e-01
     vertex  6.670330e-03  0.000000e+00  6.566947e-01
   endloop
 endfacet
 facet normal  4.061854e-01  0.000000e+00  9.137907e-01
   outer loop
     vertex  6.670330e-03 -1.587302e-02  6.566947e-01
     vertex  5.388756e-02 -1.587302e-02  6.357063e-01
     vertex  5.388756e-02  0.000000e+00  6.357063e-01
   endloop
 endfacet
 facet normal  3.465827e-01 -0.000000e+00  9.380194e-01
   outer loop
     vertex -4.179885e-02 -1.587302e-02  6.746032e-01
     vertex  6.670330e-03  0.000000e+00  6.566947e-01
     vertex -4.179885e-02  0.000000e+00  6.746032e-01
   endloop
 endfacet
 facet normal  3.465827e-01  0.000000e+00  9.380194e-01
   outer loop
     vertex -4.179885e-02 -1.587302e-02  6.746032e-01
     vertex  6.670330e-03 -1.587302e-02  6.566947e-01
     vertex  6.670330e-03  0.000000e+00  6.566947e-01
   endloop
 endfacet
 facet normal -4.138029e-01  0.000000e+00  9.103665e-01
   outer loop
     vertex -4.142857e-01 -1.587302e-02  5.052910e-01
     vertex -4.179885e-02 -1.587302e-02  6.746032e-01
     vertex -4.179885e-02  0.000000e+00  6.746032e-01
   endloop
 endfacet
 facet normal -4.138029e-01  0.000000e+00  9.103665e-01
   outer loop
     vertex -4.142857e-01 -1.587302e-02  5.052910e-01
     vertex -4.179885e-02  0.000000e+00  6.746032e-01
     vertex -4.142857e-01  0.000000e+00  5.052910e-01
   endloop
 endfacet
 facet normal -7.071068e-01  0.000000e+00 -7.071068e-01
   outer loop
     vertex -2.111111e-01 -1.587302e-02  3.021164e-01
     vertex -4.142857e-01 -1.587302e-02  5.052910e-01
     vertex -4.142857e-01  0.000000e+00  5.052910e-01
   endloop
 endfacet
 facet normal -7.071068e-01  0.000000e+00 -7.071068e-01
   outer loop
     vertex -2.111111e-01 -1.587302e-02  3.021164e-01
     vertex -4.142857e-01  0.000000e+00  5.052910e-01
     vertex -2.111111e-01  0.000000e+00  3.021164e-01
   endloop
 endfacet
 facet normal -9.615239e-01  0.000000e+00  2.747212e-01
   outer loop
     vertex -2.788360e-01 -1.587302e-02  6.507941e-02
     vertex -2.111111e-01 -1.587302e-02  3.021164e-01
     vertex -2.111111e-01  0.000000e+00  3.021164e-01
   endloop
 endfacet
 facet normal -9.615239e-01  0.000000e+00  2.747212e-01
   outer loop
     vertex -2.788360e-01 -1.587302e-02  6.507941e-02
     vertex -2.111111e-01  0.000000e+00  3.021164e-01
     vertex -2.788360e-01  0.000000e+00  6.507941e-02
   endloop
 endfacet
 facet normal  1.414213e-01  0.000000e+00  9.899495e-01
   outer loop
     vertex -5.158730e-01 -1.587302e-02  9.894183e-02
     vertex -2.788360e-01 -1.587302e-02  6.507941e-02
     vertex -2.788360e-01  0.000000e+00  6.507941e-02
   endloop
 endfacet
 facet normal  1.414213e-01 -0.000000e+00  9.899495e-01
   outer loop
     vertex -5.158730e-01 -1.587302e-02  9.894183e-02
     vertex -2.788360e-01  0.000000e+00  6.507941e-02
     vertex -5.158730e-01  0.000000e+00  9.894183e-02
   endloop
 endfacet
 facet normal  8.944272e-01  0.000000e+00  4.472135e-01
   outer loop
     vertex -5.835978e-01 -1.587302e-02  2.343916e-01
     vertex -5.158730e-01 -1.587302e-02  9.894183e-02
     vertex -5.158730e-01  0.000000e+00  9.894183e-02
   endloop
 endfacet
 facet normal  8.944272e-01 -0.000000e+00  4.472135e-01
   outer loop
     vertex -5.835978e-01 -1.587302e-02  2.343916e-01
     vertex -5.158730e-01  0.000000e+00  9.894183e-02
     vertex -5.835978e-01  0.000000e+00  2.343916e-01
   endloop
 endfacet
endsolid
