solid 
 facet normal  3.671665e-01  0.000000e+00 -9.301552e-01
   outer loop
     vertex  2.799795e-01 -2.222222e-01  9.226420e-02
     vertex -3.015882e-02 -2.222223e-01 -3.015882e-02
     vertex -3.015882e-02 -1.587302e-02 -3.015882e-02
   endloop
 endfacet
 facet normal  3.671665e-01  3.621696e-17 -9.301552e-01
   outer loop
     vertex  2.799795e-01 -1.587302e-02  9.226420e-02
     vertex  2.799795e-01 -2.222222e-01  9.226420e-02
     vertex -3.015882e-02 -1.587302e-02 -3.015882e-02
   endloop
 endfacet
 facet normal  3.671665e-01  0.000000e+00 -9.301552e-01
   outer loop
     vertex  2.799795e-01 -1.587302e-02  9.226420e-02
     vertex -3.015882e-02 -1.587302e-02 -3.015882e-02
     vertex -3.015882e-02  0.000000e+00 -3.015882e-02
   endloop
 endfacet
 facet normal  3.671665e-01  0.000000e+00 -9.301552e-01
   outer loop
     vertex  2.799795e-01 -1.587302e-02  9.226420e-02
     vertex -3.015882e-02  0.000000e+00 -3.015882e-02
     vertex  2.799795e-01  0.000000e+00  9.226420e-02
   endloop
 endfacet
 facet normal  6.000001e-01 -0.000000e+00  8.000000e-01
   outer loop
     vertex  2.799795e-01 -1.587302e-02  9.226420e-02
     vertex  2.799795e-01  0.000000e+00  9.226420e-02
     vertex  2.743681e-01  0.000000e+00  9.647272e-02
   endloop
 endfacet
 facet normal  6.000001e-01  2.152125e-16  8.000000e-01
   outer loop
     vertex  2.799795e-01 -2.222222e-01  9.226420e-02
     vertex  2.799795e-01 -1.587302e-02  9.226420e-02
     vertex  2.743681e-01 -2.222222e-01  9.647272e-02
   endloop
 endfacet
 facet normal  6.000001e-01 -0.000000e+00  8.000000e-01
   outer loop
     vertex  2.743681e-01 -2.222222e-01  9.647272e-02
     vertex  2.799795e-01 -1.587302e-02  9.226420e-02
     vertex  2.743681e-01  0.000000e+00  9.647272e-02
   endloop
 endfacet
 facet normal  9.851345e-08 -1.000000e+00  2.369078e-07
   outer loop
     vertex  2.743681e-01 -2.222222e-01  9.647272e-02
     vertex -3.015882e-02 -2.222222e-01  9.647272e-02
     vertex -3.015882e-02 -2.222223e-01 -3.015882e-02
   endloop
 endfacet
 facet normal -1.780175e-06 -1.000000e+00  4.754829e-06
   outer loop
     vertex  2.799795e-01 -2.222222e-01  9.226420e-02
     vertex  2.743681e-01 -2.222222e-01  9.647272e-02
     vertex -3.015882e-02 -2.222223e-01 -3.015882e-02
   endloop
 endfacet
 facet normal -1.000000e+00  1.681347e-17  0.000000e+00
   outer loop
     vertex -3.015882e-02 -1.587302e-02 -3.015882e-02
     vertex -3.015882e-02 -2.222222e-01  9.647272e-02
     vertex -3.015882e-02 -1.587302e-02  9.647272e-02
   endloop
 endfacet
 facet normal -1.000000e+00 -0.000000e+00 -2.739797e-17
   outer loop
     vertex -3.015882e-02 -1.587302e-02 -3.015882e-02
     vertex -3.015882e-02 -2.222223e-01 -3.015882e-02
     vertex -3.015882e-02 -2.222222e-01  9.647272e-02
   endloop
 endfacet
 facet normal  0.000000e+00  1.000000e+00  0.000000e+00
   outer loop
     vertex  2.743681e-01  0.000000e+00  9.647272e-02
     vertex -3.015882e-02  0.000000e+00 -3.015882e-02
     vertex -3.015882e-02  0.000000e+00  9.647272e-02
   endloop
 endfacet
 facet normal  0.000000e+00  1.000000e+00  0.000000e+00
   outer loop
     vertex  2.799795e-01  0.000000e+00  9.226420e-02
     vertex -3.015882e-02  0.000000e+00 -3.015882e-02
     vertex  2.743681e-01  0.000000e+00  9.647272e-02
   endloop
 endfacet
 facet normal -1.000000e+00  0.000000e+00  0.000000e+00
   outer loop
     vertex -3.015882e-02 -1.587302e-02 -3.015882e-02
     vertex -3.015882e-02 -1.587302e-02  9.647272e-02
     vertex -3.015882e-02  0.000000e+00  9.647272e-02
   endloop
 endfacet
 facet normal -1.000000e+00  0.000000e+00  0.000000e+00
   outer loop
     vertex -3.015882e-02 -1.587302e-02 -3.015882e-02
     vertex -3.015882e-02  0.000000e+00  9.647272e-02
     vertex -3.015882e-02  0.000000e+00 -3.015882e-02
   endloop
 endfacet
 facet normal  1.822865e-16  0.000000e+00  1.000000e+00
   outer loop
     vertex  2.743681e-01  0.000000e+00  9.647272e-02
     vertex -3.015882e-02  0.000000e+00  9.647272e-02
     vertex -3.015882e-02 -1.587302e-02  9.647272e-02
   endloop
 endfacet
 facet normal  9.114327e-17 -1.345078e-16  1.000000e+00
   outer loop
     vertex  2.743681e-01 -2.222222e-01  9.647272e-02
     vertex -3.015882e-02 -1.587302e-02  9.647272e-02
     vertex -3.015882e-02 -2.222222e-01  9.647272e-02
   endloop
 endfacet
 facet normal  1.822865e-16 -0.000000e+00  1.000000e+00
   outer loop
     vertex  2.743681e-01 -2.222222e-01  9.647272e-02
     vertex  2.743681e-01  0.000000e+00  9.647272e-02
     vertex -3.015882e-02 -1.587302e-02  9.647272e-02
   endloop
 endfacet
 facet normal  3.325299e-07 -1.000000e+00 -3.260010e-07
   outer loop
     vertex  1.948854e-01 -2.222222e-01  7.201059e-01
     vertex -3.015882e-02 -2.222223e-01  6.746032e-01
     vertex -3.015882e-02 -2.222222e-01  5.825789e-01
   endloop
 endfacet
 facet normal -0.000000e+00 -1.000000e+00  0.000000e+00
   outer loop
     vertex  4.333334e-01 -2.222222e-01  6.650795e-01
     vertex  1.948854e-01 -2.222222e-01  7.201059e-01
     vertex  4.037038e-01 -2.222222e-01  6.156967e-01
   endloop
 endfacet
 facet normal -0.000000e+00 -1.000000e+00  0.000000e+00
   outer loop
     vertex  5.433863e-01 -2.222222e-01  7.201059e-01
     vertex  1.948854e-01 -2.222222e-01  7.201059e-01
     vertex  4.333334e-01 -2.222222e-01  6.650795e-01
   endloop
 endfacet
 facet normal -2.234216e-07 -1.000000e+00 -1.307548e-07
   outer loop
     vertex  6.936508e-01 -2.222223e-01  9.222222e-01
     vertex  5.433863e-01 -2.222222e-01  7.201059e-01
     vertex  6.936508e-01 -2.222222e-01  6.927851e-01
   endloop
 endfacet
 facet normal  0.000000e+00 -1.000000e+00 -2.968588e-07
   outer loop
     vertex  6.936508e-01 -2.222223e-01  9.222222e-01
     vertex  1.948854e-01 -2.222222e-01  7.201059e-01
     vertex  5.433863e-01 -2.222222e-01  7.201059e-01
   endloop
 endfacet
 facet normal  6.519177e-07 -1.000000e+00 -1.905606e-06
   outer loop
     vertex  6.936508e-01 -2.222223e-01  9.222222e-01
     vertex -3.015882e-02 -2.222223e-01  6.746032e-01
     vertex  1.948854e-01 -2.222222e-01  7.201059e-01
   endloop
 endfacet
 facet normal -1.000000e+00 -0.000000e+00 -3.770144e-17
   outer loop
     vertex -3.015882e-02 -1.587302e-02  6.746032e-01
     vertex -3.015882e-02 -2.222222e-01  5.825789e-01
     vertex -3.015882e-02 -2.222223e-01  6.746032e-01
   endloop
 endfacet
 facet normal -1.000000e+00 -1.681347e-17  0.000000e+00
   outer loop
     vertex -3.015882e-02 -1.587302e-02  5.825789e-01
     vertex -3.015882e-02 -2.222222e-01  5.825789e-01
     vertex -3.015882e-02 -1.587302e-02  6.746032e-01
   endloop
 endfacet
 facet normal -3.236876e-01  0.000000e+00  9.461640e-01
   outer loop
     vertex -3.015882e-02 -1.587302e-02  6.746032e-01
     vertex  6.936508e-01 -2.222223e-01  9.222222e-01
     vertex  6.936508e-01 -1.587302e-02  9.222222e-01
   endloop
 endfacet
 facet normal -3.236876e-01  0.000000e+00  9.461640e-01
   outer loop
     vertex -3.015882e-02 -1.587302e-02  6.746032e-01
     vertex -3.015882e-02 -2.222223e-01  6.746032e-01
     vertex  6.936508e-01 -2.222223e-01  9.222222e-01
   endloop
 endfacet
 facet normal  1.000000e+00  0.000000e+00  0.000000e+00
   outer loop
     vertex  6.936508e-01 -1.587302e-02  9.222222e-01
     vertex  6.936508e-01 -2.222222e-01  6.927851e-01
     vertex  6.936508e-01 -1.587302e-02  6.927851e-01
   endloop
 endfacet
 facet normal  1.000000e+00  0.000000e+00  0.000000e+00
   outer loop
     vertex  6.936508e-01 -1.587302e-02  9.222222e-01
     vertex  6.936508e-01 -2.222223e-01  9.222222e-01
     vertex  6.936508e-01 -2.222222e-01  6.927851e-01
   endloop
 endfacet
 facet normal -1.788855e-01  0.000000e+00 -9.838699e-01
   outer loop
     vertex  6.936508e-01 -1.587302e-02  6.927851e-01
     vertex  5.433863e-01  0.000000e+00  7.201059e-01
     vertex  6.936508e-01  0.000000e+00  6.927851e-01
   endloop
 endfacet
 facet normal -1.788855e-01  0.000000e+00 -9.838699e-01
   outer loop
     vertex  5.433863e-01 -2.222222e-01  7.201059e-01
     vertex  5.433863e-01  0.000000e+00  7.201059e-01
     vertex  6.936508e-01 -1.587302e-02  6.927851e-01
   endloop
 endfacet
 facet normal -1.788855e-01  0.000000e+00 -9.838699e-01
   outer loop
     vertex  6.936508e-01 -2.222222e-01  6.927851e-01
     vertex  5.433863e-01 -2.222222e-01  7.201059e-01
     vertex  6.936508e-01 -1.587302e-02  6.927851e-01
   endloop
 endfacet
 facet normal  4.472136e-01  0.000000e+00 -8.944272e-01
   outer loop
     vertex  5.433863e-01 -2.222222e-01  7.201059e-01
     vertex  4.333334e-01 -2.222222e-01  6.650795e-01
     vertex  4.333334e-01  0.000000e+00  6.650795e-01
   endloop
 endfacet
 facet normal  4.472136e-01  0.000000e+00 -8.944272e-01
   outer loop
     vertex  5.433863e-01 -2.222222e-01  7.201059e-01
     vertex  4.333334e-01  0.000000e+00  6.650795e-01
     vertex  5.433863e-01  0.000000e+00  7.201059e-01
   endloop
 endfacet
 facet normal  8.574929e-01  0.000000e+00 -5.144959e-01
   outer loop
     vertex  4.333334e-01 -2.222222e-01  6.650795e-01
     vertex  4.037038e-01 -2.222222e-01  6.156967e-01
     vertex  4.037038e-01  0.000000e+00  6.156967e-01
   endloop
 endfacet
 facet normal  8.574929e-01  0.000000e+00 -5.144959e-01
   outer loop
     vertex  4.333334e-01 -2.222222e-01  6.650795e-01
     vertex  4.037038e-01  0.000000e+00  6.156967e-01
     vertex  4.333334e-01  0.000000e+00  6.650795e-01
   endloop
 endfacet
 facet normal -4.472136e-01  0.000000e+00 -8.944272e-01
   outer loop
     vertex  1.948854e-01 -2.222222e-01  7.201059e-01
     vertex  4.037038e-01  0.000000e+00  6.156967e-01
     vertex  4.037038e-01 -2.222222e-01  6.156967e-01
   endloop
 endfacet
 facet normal -4.472136e-01  0.000000e+00 -8.944272e-01
   outer loop
     vertex  1.948854e-01 -2.222222e-01  7.201059e-01
     vertex  1.948854e-01  0.000000e+00  7.201059e-01
     vertex  4.037038e-01  0.000000e+00  6.156967e-01
   endloop
 endfacet
 facet normal  5.214500e-01  0.000000e+00 -8.532819e-01
   outer loop
     vertex -3.015882e-02 -1.587302e-02  5.825789e-01
     vertex  1.948854e-01  0.000000e+00  7.201059e-01
     vertex  1.948854e-01 -2.222222e-01  7.201059e-01
   endloop
 endfacet
 facet normal  5.214500e-01  0.000000e+00 -8.532819e-01
   outer loop
     vertex -3.015882e-02 -1.587302e-02  5.825789e-01
     vertex -3.015882e-02  0.000000e+00  5.825789e-01
     vertex  1.948854e-01  0.000000e+00  7.201059e-01
   endloop
 endfacet
 facet normal  5.214500e-01  8.767385e-18 -8.532819e-01
   outer loop
     vertex -3.015882e-02 -2.222222e-01  5.825789e-01
     vertex -3.015882e-02 -1.587302e-02  5.825789e-01
     vertex  1.948854e-01 -2.222222e-01  7.201059e-01
   endloop
 endfacet
 facet normal -1.000000e+00  0.000000e+00  0.000000e+00
   outer loop
     vertex -3.015882e-02 -1.587302e-02  5.825789e-01
     vertex -3.015882e-02 -1.587302e-02  6.746032e-01
     vertex -3.015882e-02  0.000000e+00  6.746032e-01
   endloop
 endfacet
 facet normal -1.000000e+00  0.000000e+00  0.000000e+00
   outer loop
     vertex -3.015882e-02 -1.587302e-02  5.825789e-01
     vertex -3.015882e-02  0.000000e+00  6.746032e-01
     vertex -3.015882e-02  0.000000e+00  5.825789e-01
   endloop
 endfacet
 facet normal -3.236876e-01  0.000000e+00  9.461640e-01
   outer loop
     vertex -3.015882e-02 -1.587302e-02  6.746032e-01
     vertex  6.936508e-01 -1.587302e-02  9.222222e-01
     vertex  6.936508e-01  0.000000e+00  9.222222e-01
   endloop
 endfacet
 facet normal -3.236876e-01  0.000000e+00  9.461640e-01
   outer loop
     vertex -3.015882e-02 -1.587302e-02  6.746032e-01
     vertex  6.936508e-01  0.000000e+00  9.222222e-01
     vertex -3.015882e-02  0.000000e+00  6.746032e-01
   endloop
 endfacet
 facet normal  1.000000e+00  0.000000e+00  0.000000e+00
   outer loop
     vertex  6.936508e-01 -1.587302e-02  9.222222e-01
     vertex  6.936508e-01 -1.587302e-02  6.927851e-01
     vertex  6.936508e-01  0.000000e+00  6.927851e-01
   endloop
 endfacet
 facet normal  1.000000e+00 -0.000000e+00  0.000000e+00
   outer loop
     vertex  6.936508e-01 -1.587302e-02  9.222222e-01
     vertex  6.936508e-01  0.000000e+00  6.927851e-01
     vertex  6.936508e-01  0.000000e+00  9.222222e-01
   endloop
 endfacet
 facet normal  0.000000e+00  1.000000e+00  0.000000e+00
   outer loop
     vertex  1.948854e-01  0.000000e+00  7.201059e-01
     vertex -3.015882e-02  0.000000e+00  5.825789e-01
     vertex -3.015882e-02  0.000000e+00  6.746032e-01
   endloop
 endfacet
 facet normal  0.000000e+00  1.000000e+00  0.000000e+00
   outer loop
     vertex  4.333334e-01  0.000000e+00  6.650795e-01
     vertex  4.037038e-01  0.000000e+00  6.156967e-01
     vertex  1.948854e-01  0.000000e+00  7.201059e-01
   endloop
 endfacet
 facet normal  0.000000e+00  1.000000e+00  0.000000e+00
   outer loop
     vertex  5.433863e-01  0.000000e+00  7.201059e-01
     vertex  4.333334e-01  0.000000e+00  6.650795e-01
     vertex  1.948854e-01  0.000000e+00  7.201059e-01
   endloop
 endfacet
 facet normal  0.000000e+00  1.000000e+00  0.000000e+00
   outer loop
     vertex  6.936508e-01  0.000000e+00  9.222222e-01
     vertex  6.936508e-01  0.000000e+00  6.927851e-01
     vertex  5.433863e-01  0.000000e+00  7.201059e-01
   endloop
 endfacet
 facet normal  0.000000e+00  1.000000e+00  0.000000e+00
   outer loop
     vertex  6.936508e-01  0.000000e+00  9.222222e-01
     vertex  5.433863e-01  0.000000e+00  7.201059e-01
     vertex  1.948854e-01  0.000000e+00  7.201059e-01
   endloop
 endfacet
 facet normal  0.000000e+00  1.000000e+00  0.000000e+00
   outer loop
     vertex  6.936508e-01  0.000000e+00  9.222222e-01
     vertex  1.948854e-01  0.000000e+00  7.201059e-01
     vertex -3.015882e-02  0.000000e+00  6.746032e-01
   endloop
 endfacet
endsolid
