solid 
 facet normal -2.173399e-02  0.000000e+00 -9.997638e-01
   outer loop
     vertex  7.095238e-01 -1.587302e-02 -5.698413e-01
     vertex -7.507937e-01 -1.015873e+00 -5.380953e-01
     vertex -7.507937e-01 -1.587302e-02 -5.380953e-01
   endloop
 endfacet
 facet normal -2.173399e-02 -0.000000e+00 -9.997638e-01
   outer loop
     vertex  7.095238e-01 -1.587302e-02 -5.698413e-01
     vertex  7.095238e-01 -1.015873e+00 -5.698413e-01
     vertex -7.507937e-01 -1.015873e+00 -5.380953e-01
   endloop
 endfacet
 facet normal -8.669063e-01  0.000000e+00  4.984711e-01
   outer loop
     vertex -7.507937e-01 -1.587302e-02 -5.380953e-01
     vertex -2.063495e-02 -1.015873e+00  7.317460e-01
     vertex -2.063495e-02 -1.587302e-02  7.317460e-01
   endloop
 endfacet
 facet normal -8.669063e-01  0.000000e+00  4.984711e-01
   outer loop
     vertex -7.507937e-01 -1.587302e-02 -5.380953e-01
     vertex -7.507937e-01 -1.015873e+00 -5.380953e-01
     vertex -2.063495e-02 -1.015873e+00  7.317460e-01
   endloop
 endfacet
 facet normal  7.071068e-01  0.000000e+00 -7.071068e-01
   outer loop
     vertex  7.730159e-01 -1.587302e-02 -5.063493e-01
     vertex  7.095238e-01 -1.015873e+00 -5.698413e-01
     vertex  7.095238e-01 -1.587302e-02 -5.698413e-01
   endloop
 endfacet
 facet normal  7.071068e-01  0.000000e+00 -7.071068e-01
   outer loop
     vertex  7.730159e-01 -1.587302e-02 -5.063493e-01
     vertex  7.730159e-01 -1.015873e+00 -5.063493e-01
     vertex  7.095238e-01 -1.015873e+00 -5.698413e-01
   endloop
 endfacet
 facet normal -2.173399e-02  0.000000e+00 -9.997638e-01
   outer loop
     vertex  7.095238e-01 -1.587302e-02 -5.698413e-01
     vertex -7.507937e-01 -1.587302e-02 -5.380953e-01
     vertex -7.507937e-01  0.000000e+00 -5.380953e-01
   endloop
 endfacet
 facet normal -2.173399e-02  0.000000e+00 -9.997638e-01
   outer loop
     vertex  7.095238e-01 -1.587302e-02 -5.698413e-01
     vertex -7.507937e-01  0.000000e+00 -5.380953e-01
     vertex  7.095238e-01  0.000000e+00 -5.698413e-01
   endloop
 endfacet
 facet normal -0.000000e+00 -1.000000e+00  0.000000e+00
   outer loop
     vertex -1.428571e-01 -1.015873e+00 -2.547859e-01
     vertex -2.539683e-01 -1.015873e+00 -2.547859e-01
     vertex -7.507937e-01 -1.015873e+00 -5.380953e-01
   endloop
 endfacet
 facet normal -0.000000e+00 -1.000000e+00  0.000000e+00
   outer loop
     vertex -1.269841e-01 -1.015873e+00 -2.547859e-01
     vertex -1.428571e-01 -1.015873e+00 -2.547859e-01
     vertex -7.507937e-01 -1.015873e+00 -5.380953e-01
   endloop
 endfacet
 facet normal  0.000000e+00 -1.000000e+00 -0.000000e+00
   outer loop
     vertex -2.539683e-01 -1.015873e+00 -9.762217e-02
     vertex -7.507937e-01 -1.015873e+00 -5.380953e-01
     vertex -2.539683e-01 -1.015873e+00 -2.547859e-01
   endloop
 endfacet
 facet normal  0.000000e+00 -1.000000e+00  0.000000e+00
   outer loop
     vertex  7.095238e-01 -1.015873e+00 -5.698413e-01
     vertex -1.269841e-01 -1.015873e+00 -2.547859e-01
     vertex -7.507937e-01 -1.015873e+00 -5.380953e-01
   endloop
 endfacet
 facet normal  0.000000e+00 -1.000000e+00  0.000000e+00
   outer loop
     vertex  7.730159e-01 -1.015873e+00 -5.063493e-01
     vertex -1.269841e-01 -1.015873e+00 -9.762217e-02
     vertex -1.269841e-01 -1.015873e+00 -2.547859e-01
   endloop
 endfacet
 facet normal -0.000000e+00 -1.000000e+00  0.000000e+00
   outer loop
     vertex  7.730159e-01 -1.015873e+00 -5.063493e-01
     vertex -1.269841e-01 -1.015873e+00 -2.547859e-01
     vertex  7.095238e-01 -1.015873e+00 -5.698413e-01
   endloop
 endfacet
 facet normal  0.000000e+00 -1.000000e+00  0.000000e+00
   outer loop
     vertex -2.063495e-02 -1.015873e+00  7.317460e-01
     vertex -2.539683e-01 -1.015873e+00 -9.762217e-02
     vertex -1.428571e-01 -1.015873e+00 -9.762217e-02
   endloop
 endfacet
 facet normal  0.000000e+00 -1.000000e+00  0.000000e+00
   outer loop
     vertex -2.063495e-02 -1.015873e+00  7.317460e-01
     vertex -1.428571e-01 -1.015873e+00 -9.762217e-02
     vertex -1.269841e-01 -1.015873e+00 -9.762217e-02
   endloop
 endfacet
 facet normal  0.000000e+00 -1.000000e+00  0.000000e+00
   outer loop
     vertex -2.063495e-02 -1.015873e+00  7.317460e-01
     vertex -7.507937e-01 -1.015873e+00 -5.380953e-01
     vertex -2.539683e-01 -1.015873e+00 -9.762217e-02
   endloop
 endfacet
 facet normal  0.000000e+00 -1.000000e+00  0.000000e+00
   outer loop
     vertex  4.285717e-02 -1.015873e+00  7.634920e-01
     vertex -2.063495e-02 -1.015873e+00  7.317460e-01
     vertex -1.269841e-01 -1.015873e+00 -9.762217e-02
   endloop
 endfacet
 facet normal  0.000000e+00 -1.000000e+00 -0.000000e+00
   outer loop
     vertex  4.285717e-02 -1.015873e+00  7.634920e-01
     vertex -1.269841e-01 -1.015873e+00 -9.762217e-02
     vertex  7.730159e-01 -1.015873e+00 -5.063493e-01
   endloop
 endfacet
 facet normal -4.472133e-01  0.000000e+00  8.944274e-01
   outer loop
     vertex -2.063495e-02 -1.587302e-02  7.317460e-01
     vertex  4.285717e-02 -1.015873e+00  7.634920e-01
     vertex  4.285717e-02 -1.587302e-02  7.634920e-01
   endloop
 endfacet
 facet normal -4.472133e-01  0.000000e+00  8.944274e-01
   outer loop
     vertex -2.063495e-02 -1.587302e-02  7.317460e-01
     vertex -2.063495e-02 -1.015873e+00  7.317460e-01
     vertex  4.285717e-02 -1.015873e+00  7.634920e-01
   endloop
 endfacet
 facet normal -8.669063e-01  0.000000e+00  4.984711e-01
   outer loop
     vertex -7.507937e-01 -1.587302e-02 -5.380953e-01
     vertex -2.063495e-02 -1.587302e-02  7.317460e-01
     vertex -2.063495e-02  0.000000e+00  7.317460e-01
   endloop
 endfacet
 facet normal -8.669063e-01  0.000000e+00  4.984711e-01
   outer loop
     vertex -7.507937e-01 -1.587302e-02 -5.380953e-01
     vertex -2.063495e-02  0.000000e+00  7.317460e-01
     vertex -7.507937e-01  0.000000e+00 -5.380953e-01
   endloop
 endfacet
 facet normal  8.669063e-01  0.000000e+00  4.984711e-01
   outer loop
     vertex  4.285717e-02 -1.587302e-02  7.634920e-01
     vertex  7.730159e-01 -1.015873e+00 -5.063493e-01
     vertex  7.730159e-01 -1.587302e-02 -5.063493e-01
   endloop
 endfacet
 facet normal  8.669063e-01  0.000000e+00  4.984711e-01
   outer loop
     vertex  4.285717e-02 -1.587302e-02  7.634920e-01
     vertex  4.285717e-02 -1.015873e+00  7.634920e-01
     vertex  7.730159e-01 -1.015873e+00 -5.063493e-01
   endloop
 endfacet
 facet normal  7.071068e-01  0.000000e+00 -7.071068e-01
   outer loop
     vertex  7.730159e-01 -1.587302e-02 -5.063493e-01
     vertex  7.095238e-01 -1.587302e-02 -5.698413e-01
     vertex  7.095238e-01  0.000000e+00 -5.698413e-01
   endloop
 endfacet
 facet normal  7.071068e-01  0.000000e+00 -7.071068e-01
   outer loop
     vertex  7.730159e-01 -1.587302e-02 -5.063493e-01
     vertex  7.095238e-01  0.000000e+00 -5.698413e-01
     vertex  7.730159e-01  0.000000e+00 -5.063493e-01
   endloop
 endfacet
 facet normal  0.000000e+00  1.000000e+00  0.000000e+00
   outer loop
     vertex -2.063495e-02  0.000000e+00  7.317460e-01
     vertex  7.095238e-01  0.000000e+00 -5.698413e-01
     vertex -7.507937e-01  0.000000e+00 -5.380953e-01
   endloop
 endfacet
 facet normal  0.000000e+00  1.000000e+00  0.000000e+00
   outer loop
     vertex -2.063495e-02  0.000000e+00  7.317460e-01
     vertex  7.730159e-01  0.000000e+00 -5.063493e-01
     vertex  7.095238e-01  0.000000e+00 -5.698413e-01
   endloop
 endfacet
 facet normal  0.000000e+00  1.000000e+00  0.000000e+00
   outer loop
     vertex  4.285717e-02  0.000000e+00  7.634920e-01
     vertex  7.730159e-01  0.000000e+00 -5.063493e-01
     vertex -2.063495e-02  0.000000e+00  7.317460e-01
   endloop
 endfacet
 facet normal  0.000000e+00  4.788521e-01 -8.778956e-01
   outer loop
     vertex -1.428571e-01 -1.030864e+00 -2.629629e-01
     vertex -1.428571e-01 -1.015873e+00 -2.547859e-01
     vertex -1.269841e-01 -1.015873e+00 -2.547859e-01
   endloop
 endfacet
 facet normal  0.000000e+00  4.788521e-01 -8.778956e-01
   outer loop
     vertex -1.428571e-01 -1.030864e+00 -2.629629e-01
     vertex -1.269841e-01 -1.015873e+00 -2.547859e-01
     vertex -1.269841e-01 -1.030864e+00 -2.629629e-01
   endloop
 endfacet
 facet normal  1.000000e+00  0.000000e+00  0.000000e+00
   outer loop
     vertex -1.269841e-01 -1.015873e+00 -9.762217e-02
     vertex -1.269841e-01 -1.030864e+00 -2.629629e-01
     vertex -1.269841e-01 -1.015873e+00 -2.547859e-01
   endloop
 endfacet
 facet normal  1.000000e+00  0.000000e+00  0.000000e+00
   outer loop
     vertex -1.269841e-01 -1.015873e+00 -9.762217e-02
     vertex -1.269841e-01 -1.109877e+00 -2.925925e-01
     vertex -1.269841e-01 -1.030864e+00 -2.629629e-01
   endloop
 endfacet
 facet normal  0.000000e+00 -9.007687e-01  4.342991e-01
   outer loop
     vertex -1.428571e-01 -1.015873e+00 -9.762217e-02
     vertex -1.428571e-01 -1.109877e+00 -2.925925e-01
     vertex -1.269841e-01 -1.109877e+00 -2.925925e-01
   endloop
 endfacet
 facet normal  0.000000e+00 -9.007687e-01  4.342991e-01
   outer loop
     vertex -1.428571e-01 -1.015873e+00 -9.762217e-02
     vertex -1.269841e-01 -1.109877e+00 -2.925925e-01
     vertex -1.269841e-01 -1.015873e+00 -9.762217e-02
   endloop
 endfacet
 facet normal  0.000000e+00 -9.007687e-01  4.342991e-01
   outer loop
     vertex -1.428571e-01 -1.015873e+00 -9.762217e-02
     vertex -2.539683e-01 -1.109877e+00 -2.925925e-01
     vertex -1.428571e-01 -1.109877e+00 -2.925925e-01
   endloop
 endfacet
 facet normal  0.000000e+00 -9.007687e-01  4.342991e-01
   outer loop
     vertex -1.428571e-01 -1.015873e+00 -9.762217e-02
     vertex -2.539683e-01 -1.015873e+00 -9.762217e-02
     vertex -2.539683e-01 -1.109877e+00 -2.925925e-01
   endloop
 endfacet
 facet normal -1.000000e+00  0.000000e+00 -0.000000e+00
   outer loop
     vertex -2.539683e-01 -1.015873e+00 -9.762217e-02
     vertex -2.539683e-01 -1.015873e+00 -2.547859e-01
     vertex -2.539683e-01 -1.030864e+00 -2.629629e-01
   endloop
 endfacet
 facet normal -1.000000e+00  0.000000e+00  0.000000e+00
   outer loop
     vertex -2.539683e-01 -1.015873e+00 -9.762217e-02
     vertex -2.539683e-01 -1.030864e+00 -2.629629e-01
     vertex -2.539683e-01 -1.109877e+00 -2.925925e-01
   endloop
 endfacet
 facet normal  0.000000e+00  4.788521e-01 -8.778956e-01
   outer loop
     vertex -1.428571e-01 -1.030864e+00 -2.629629e-01
     vertex -2.539683e-01 -1.015873e+00 -2.547859e-01
     vertex -1.428571e-01 -1.015873e+00 -2.547859e-01
   endloop
 endfacet
 facet normal  0.000000e+00  4.788521e-01 -8.778956e-01
   outer loop
     vertex -1.428571e-01 -1.030864e+00 -2.629629e-01
     vertex -2.539683e-01 -1.030864e+00 -2.629629e-01
     vertex -2.539683e-01 -1.015873e+00 -2.547859e-01
   endloop
 endfacet
 facet normal -4.472133e-01  0.000000e+00  8.944274e-01
   outer loop
     vertex -2.063495e-02 -1.587302e-02  7.317460e-01
     vertex  4.285717e-02 -1.587302e-02  7.634920e-01
     vertex  4.285717e-02  0.000000e+00  7.634920e-01
   endloop
 endfacet
 facet normal -4.472133e-01  0.000000e+00  8.944274e-01
   outer loop
     vertex -2.063495e-02 -1.587302e-02  7.317460e-01
     vertex  4.285717e-02  0.000000e+00  7.634920e-01
     vertex -2.063495e-02  0.000000e+00  7.317460e-01
   endloop
 endfacet
 facet normal  8.669063e-01  0.000000e+00  4.984711e-01
   outer loop
     vertex  4.285717e-02 -1.587302e-02  7.634920e-01
     vertex  7.730159e-01 -1.587302e-02 -5.063493e-01
     vertex  7.730159e-01  0.000000e+00 -5.063493e-01
   endloop
 endfacet
 facet normal  8.669063e-01 -0.000000e+00  4.984711e-01
   outer loop
     vertex  4.285717e-02 -1.587302e-02  7.634920e-01
     vertex  7.730159e-01  0.000000e+00 -5.063493e-01
     vertex  4.285717e-02  0.000000e+00  7.634920e-01
   endloop
 endfacet
 facet normal  0.000000e+00  3.511237e-01 -9.363291e-01
   outer loop
     vertex -1.428571e-01 -1.109877e+00 -2.925925e-01
     vertex -1.428571e-01 -1.030864e+00 -2.629629e-01
     vertex -1.269841e-01 -1.030864e+00 -2.629629e-01
   endloop
 endfacet
 facet normal  0.000000e+00  3.511237e-01 -9.363291e-01
   outer loop
     vertex -1.428571e-01 -1.109877e+00 -2.925925e-01
     vertex -1.269841e-01 -1.030864e+00 -2.629629e-01
     vertex -1.269841e-01 -1.109877e+00 -2.925925e-01
   endloop
 endfacet
 facet normal  0.000000e+00  3.511237e-01 -9.363291e-01
   outer loop
     vertex -1.428571e-01 -1.109877e+00 -2.925925e-01
     vertex -2.539683e-01 -1.030864e+00 -2.629629e-01
     vertex -1.428571e-01 -1.030864e+00 -2.629629e-01
   endloop
 endfacet
 facet normal  0.000000e+00  3.511237e-01 -9.363291e-01
   outer loop
     vertex -1.428571e-01 -1.109877e+00 -2.925925e-01
     vertex -2.539683e-01 -1.109877e+00 -2.925925e-01
     vertex -2.539683e-01 -1.030864e+00 -2.629629e-01
   endloop
 endfacet
endsolid
