solid 
 facet normal -0.000000e+00  0.000000e+00 -1.000000e+00
   outer loop
     vertex -6.019400e-01 -1.587302e-02 -3.747795e-01
     vertex -1.036508e+00 -3.174604e-01 -3.747795e-01
     vertex -1.036508e+00 -1.587302e-02 -3.747795e-01
   endloop
 endfacet
 facet normal  0.000000e+00 -0.000000e+00 -1.000000e+00
   outer loop
     vertex -6.019400e-01 -1.587302e-02 -3.747795e-01
     vertex -6.019400e-01 -3.174604e-01 -3.747795e-01
     vertex -1.036508e+00 -3.174604e-01 -3.747795e-01
   endloop
 endfacet
 facet normal -1.000000e+00  0.000000e+00  0.000000e+00
   outer loop
     vertex -1.036508e+00 -1.587302e-02 -3.747795e-01
     vertex -1.036508e+00 -3.174604e-01 -2.292678e-03
     vertex -1.036508e+00 -1.587302e-02 -2.292678e-03
   endloop
 endfacet
 facet normal -1.000000e+00  0.000000e+00  0.000000e+00
   outer loop
     vertex -1.036508e+00 -1.587302e-02 -3.747795e-01
     vertex -1.036508e+00 -3.174604e-01 -3.747795e-01
     vertex -1.036508e+00 -3.174604e-01 -2.292678e-03
   endloop
 endfacet
 facet normal  1.000000e+00  0.000000e+00  0.000000e+00
   outer loop
     vertex -6.019400e-01 -1.587302e-02 -1.885361e-01
     vertex -6.019400e-01 -3.174604e-01 -3.747795e-01
     vertex -6.019400e-01 -1.587302e-02 -3.747795e-01
   endloop
 endfacet
 facet normal  1.000000e+00  0.000000e+00  0.000000e+00
   outer loop
     vertex -6.019400e-01 -1.587302e-02 -1.885361e-01
     vertex -6.019400e-01 -3.174604e-01 -1.885361e-01
     vertex -6.019400e-01 -3.174604e-01 -3.747795e-01
   endloop
 endfacet
 facet normal  0.000000e+00  0.000000e+00 -1.000000e+00
   outer loop
     vertex -6.019400e-01 -1.587302e-02 -3.747795e-01
     vertex -1.036508e+00 -1.587302e-02 -3.747795e-01
     vertex -1.036508e+00  0.000000e+00 -3.747795e-01
   endloop
 endfacet
 facet normal  0.000000e+00  0.000000e+00 -1.000000e+00
   outer loop
     vertex -6.019400e-01 -1.587302e-02 -3.747795e-01
     vertex -1.036508e+00  0.000000e+00 -3.747795e-01
     vertex -6.019400e-01  0.000000e+00 -3.747795e-01
   endloop
 endfacet
 facet normal  0.000000e+00 -1.000000e+00 -0.000000e+00
   outer loop
     vertex -6.019400e-01 -3.174604e-01 -1.885361e-01
     vertex -1.036508e+00 -3.174604e-01 -3.747795e-01
     vertex -6.019400e-01 -3.174604e-01 -3.747795e-01
   endloop
 endfacet
 facet normal -0.000000e+00 -1.000000e+00  0.000000e+00
   outer loop
     vertex -6.019400e-01 -3.174604e-01 -1.885361e-01
     vertex -1.036508e+00 -3.174604e-01 -2.292678e-03
     vertex -1.036508e+00 -3.174604e-01 -3.747795e-01
   endloop
 endfacet
 facet normal -0.000000e+00 -1.000000e+00  0.000000e+00
   outer loop
     vertex -2.915344e-01 -3.174604e-01 -2.292678e-03
     vertex -1.036508e+00 -3.174604e-01 -2.292678e-03
     vertex -6.019400e-01 -3.174604e-01 -1.885361e-01
   endloop
 endfacet
 facet normal  0.000000e+00 -1.000000e+00  0.000000e+00
   outer loop
     vertex  8.880071e-01 -3.174604e-01 -3.747795e-01
     vertex  4.534392e-01 -3.174604e-01 -1.885361e-01
     vertex  4.534392e-01 -3.174604e-01 -3.747795e-01
   endloop
 endfacet
 facet normal  0.000000e+00 -1.000000e+00 -0.000000e+00
   outer loop
     vertex  8.880071e-01 -3.174604e-01 -2.292678e-03
     vertex  4.534392e-01 -3.174604e-01 -1.885361e-01
     vertex  8.880071e-01 -3.174604e-01 -3.747795e-01
   endloop
 endfacet
 facet normal -0.000000e+00 -1.000000e+00  0.000000e+00
   outer loop
     vertex  8.880071e-01 -3.174604e-01 -2.292678e-03
     vertex  1.430336e-01 -3.174604e-01 -2.292678e-03
     vertex  4.534392e-01 -3.174604e-01 -1.885361e-01
   endloop
 endfacet
 facet normal  0.000000e+00 -1.000000e+00  0.000000e+00
   outer loop
     vertex -6.019400e-01 -3.174604e-01 -1.885361e-01
     vertex  4.534392e-01 -3.174604e-01 -1.885361e-01
     vertex  1.430336e-01 -3.174604e-01 -2.292678e-03
   endloop
 endfacet
 facet normal  0.000000e+00 -1.000000e+00  0.000000e+00
   outer loop
     vertex -6.019400e-01 -3.174604e-01 -1.885361e-01
     vertex  1.430336e-01 -3.174604e-01 -2.292678e-03
     vertex -2.915344e-01 -3.174604e-01 -2.292678e-03
   endloop
 endfacet
 facet normal -0.000000e+00  0.000000e+00  1.000000e+00
   outer loop
     vertex -1.036508e+00 -1.587302e-02 -2.292678e-03
     vertex -2.915344e-01 -3.174604e-01 -2.292678e-03
     vertex -2.915344e-01 -1.587302e-02 -2.292678e-03
   endloop
 endfacet
 facet normal  0.000000e+00  0.000000e+00  1.000000e+00
   outer loop
     vertex -1.036508e+00 -1.587302e-02 -2.292678e-03
     vertex -1.036508e+00 -3.174604e-01 -2.292678e-03
     vertex -2.915344e-01 -3.174604e-01 -2.292678e-03
   endloop
 endfacet
 facet normal -1.000000e+00  0.000000e+00  0.000000e+00
   outer loop
     vertex -1.036508e+00 -1.587302e-02 -3.747795e-01
     vertex -1.036508e+00 -1.587302e-02 -2.292678e-03
     vertex -1.036508e+00  0.000000e+00 -2.292678e-03
   endloop
 endfacet
 facet normal -1.000000e+00  0.000000e+00  0.000000e+00
   outer loop
     vertex -1.036508e+00 -1.587302e-02 -3.747795e-01
     vertex -1.036508e+00  0.000000e+00 -2.292678e-03
     vertex -1.036508e+00  0.000000e+00 -3.747795e-01
   endloop
 endfacet
 facet normal -0.000000e+00  0.000000e+00 -1.000000e+00
   outer loop
     vertex  4.534392e-01 -1.587302e-02 -1.885361e-01
     vertex -6.019400e-01 -3.174604e-01 -1.885361e-01
     vertex -6.019400e-01 -1.587302e-02 -1.885361e-01
   endloop
 endfacet
 facet normal  0.000000e+00 -0.000000e+00 -1.000000e+00
   outer loop
     vertex  4.534392e-01 -1.587302e-02 -1.885361e-01
     vertex  4.534392e-01 -3.174604e-01 -1.885361e-01
     vertex -6.019400e-01 -3.174604e-01 -1.885361e-01
   endloop
 endfacet
 facet normal  1.000000e+00  0.000000e+00  0.000000e+00
   outer loop
     vertex -6.019400e-01 -1.587302e-02 -1.885361e-01
     vertex -6.019400e-01 -1.587302e-02 -3.747795e-01
     vertex -6.019400e-01  0.000000e+00 -3.747795e-01
   endloop
 endfacet
 facet normal  1.000000e+00 -0.000000e+00  0.000000e+00
   outer loop
     vertex -6.019400e-01 -1.587302e-02 -1.885361e-01
     vertex -6.019400e-01  0.000000e+00 -3.747795e-01
     vertex -6.019400e-01  0.000000e+00 -1.885361e-01
   endloop
 endfacet
 facet normal  0.000000e+00  1.000000e+00  0.000000e+00
   outer loop
     vertex -6.019400e-01  1.040834e-17 -1.885361e-01
     vertex -6.019400e-01  1.040834e-17 -3.747795e-01
     vertex -1.036508e+00  1.040834e-17 -3.747795e-01
   endloop
 endfacet
 facet normal  0.000000e+00  1.000000e+00  0.000000e+00
   outer loop
     vertex -6.019400e-01  1.040834e-17 -1.885361e-01
     vertex -1.036508e+00  1.040834e-17 -3.747795e-01
     vertex -1.036508e+00  1.040834e-17 -2.292678e-03
   endloop
 endfacet
 facet normal  0.000000e+00  1.000000e+00  0.000000e+00
   outer loop
     vertex -2.915344e-01  1.040834e-17 -2.292678e-03
     vertex -6.019400e-01  1.040834e-17 -1.885361e-01
     vertex -1.036508e+00  1.040834e-17 -2.292678e-03
   endloop
 endfacet
 facet normal  0.000000e+00  1.000000e+00  0.000000e+00
   outer loop
     vertex  8.880071e-01  1.040834e-17 -3.747795e-01
     vertex  4.534392e-01  1.040834e-17 -3.747795e-01
     vertex  4.534392e-01  1.040834e-17 -1.885361e-01
   endloop
 endfacet
 facet normal  0.000000e+00  1.000000e+00  0.000000e+00
   outer loop
     vertex  8.880071e-01  1.040834e-17 -2.292678e-03
     vertex  8.880071e-01  1.040834e-17 -3.747795e-01
     vertex  4.534392e-01  1.040834e-17 -1.885361e-01
   endloop
 endfacet
 facet normal  0.000000e+00  1.000000e+00  0.000000e+00
   outer loop
     vertex  8.880071e-01  1.040834e-17 -2.292678e-03
     vertex  4.534392e-01  1.040834e-17 -1.885361e-01
     vertex  1.430336e-01  1.040834e-17 -2.292678e-03
   endloop
 endfacet
 facet normal  0.000000e+00  1.000000e+00  0.000000e+00
   outer loop
     vertex -6.019400e-01  1.040834e-17 -1.885361e-01
     vertex  1.430336e-01  1.040834e-17 -2.292678e-03
     vertex  4.534392e-01  1.040834e-17 -1.885361e-01
   endloop
 endfacet
 facet normal  0.000000e+00  1.000000e+00  0.000000e+00
   outer loop
     vertex -6.019400e-01  1.040834e-17 -1.885361e-01
     vertex -2.915344e-01  1.040834e-17 -2.292678e-03
     vertex  1.430336e-01  1.040834e-17 -2.292678e-03
   endloop
 endfacet
 facet normal -1.000000e+00  0.000000e+00  0.000000e+00
   outer loop
     vertex  4.534392e-01 -1.587302e-02 -3.747795e-01
     vertex  4.534392e-01 -3.174604e-01 -1.885361e-01
     vertex  4.534392e-01 -1.587302e-02 -1.885361e-01
   endloop
 endfacet
 facet normal -1.000000e+00  0.000000e+00  0.000000e+00
   outer loop
     vertex  4.534392e-01 -1.587302e-02 -3.747795e-01
     vertex  4.534392e-01 -3.174604e-01 -3.747795e-01
     vertex  4.534392e-01 -3.174604e-01 -1.885361e-01
   endloop
 endfacet
 facet normal -0.000000e+00  0.000000e+00 -1.000000e+00
   outer loop
     vertex  8.880071e-01 -1.587302e-02 -3.747795e-01
     vertex  4.534392e-01 -3.174604e-01 -3.747795e-01
     vertex  4.534392e-01 -1.587302e-02 -3.747795e-01
   endloop
 endfacet
 facet normal  0.000000e+00 -0.000000e+00 -1.000000e+00
   outer loop
     vertex  8.880071e-01 -1.587302e-02 -3.747795e-01
     vertex  8.880071e-01 -3.174604e-01 -3.747795e-01
     vertex  4.534392e-01 -3.174604e-01 -3.747795e-01
   endloop
 endfacet
 facet normal  1.000000e+00  0.000000e+00  0.000000e+00
   outer loop
     vertex  8.880071e-01 -1.587302e-02 -2.292678e-03
     vertex  8.880071e-01 -3.174604e-01 -3.747795e-01
     vertex  8.880071e-01 -1.587302e-02 -3.747795e-01
   endloop
 endfacet
 facet normal  1.000000e+00  0.000000e+00  0.000000e+00
   outer loop
     vertex  8.880071e-01 -1.587302e-02 -2.292678e-03
     vertex  8.880071e-01 -3.174604e-01 -2.292678e-03
     vertex  8.880071e-01 -3.174604e-01 -3.747795e-01
   endloop
 endfacet
 facet normal -0.000000e+00  0.000000e+00  1.000000e+00
   outer loop
     vertex  1.430336e-01 -1.587302e-02 -2.292678e-03
     vertex  8.880071e-01 -3.174604e-01 -2.292678e-03
     vertex  8.880071e-01 -1.587302e-02 -2.292678e-03
   endloop
 endfacet
 facet normal  0.000000e+00  0.000000e+00  1.000000e+00
   outer loop
     vertex  1.430336e-01 -1.587302e-02 -2.292678e-03
     vertex  1.430336e-01 -3.174604e-01 -2.292678e-03
     vertex  8.880071e-01 -3.174604e-01 -2.292678e-03
   endloop
 endfacet
 facet normal -0.000000e+00  0.000000e+00  1.000000e+00
   outer loop
     vertex -2.915344e-01 -1.587302e-02 -2.292678e-03
     vertex  1.430336e-01 -3.174604e-01 -2.292678e-03
     vertex  1.430336e-01 -1.587302e-02 -2.292678e-03
   endloop
 endfacet
 facet normal  0.000000e+00  0.000000e+00  1.000000e+00
   outer loop
     vertex -2.915344e-01 -1.587302e-02 -2.292678e-03
     vertex -2.915344e-01 -3.174604e-01 -2.292678e-03
     vertex  1.430336e-01 -3.174604e-01 -2.292678e-03
   endloop
 endfacet
 facet normal  0.000000e+00  0.000000e+00  1.000000e+00
   outer loop
     vertex -1.036508e+00 -1.587302e-02 -2.292678e-03
     vertex -2.915344e-01 -1.587302e-02 -2.292678e-03
     vertex -2.915344e-01  0.000000e+00 -2.292678e-03
   endloop
 endfacet
 facet normal  0.000000e+00  0.000000e+00  1.000000e+00
   outer loop
     vertex -1.036508e+00 -1.587302e-02 -2.292678e-03
     vertex -2.915344e-01  0.000000e+00 -2.292678e-03
     vertex -1.036508e+00  0.000000e+00 -2.292678e-03
   endloop
 endfacet
 facet normal  0.000000e+00  0.000000e+00 -1.000000e+00
   outer loop
     vertex  4.534392e-01 -1.587302e-02 -1.885361e-01
     vertex -6.019400e-01 -1.587302e-02 -1.885361e-01
     vertex -6.019400e-01  0.000000e+00 -1.885361e-01
   endloop
 endfacet
 facet normal  0.000000e+00  0.000000e+00 -1.000000e+00
   outer loop
     vertex  4.534392e-01 -1.587302e-02 -1.885361e-01
     vertex -6.019400e-01  0.000000e+00 -1.885361e-01
     vertex  4.534392e-01  0.000000e+00 -1.885361e-01
   endloop
 endfacet
 facet normal -1.000000e+00  0.000000e+00  0.000000e+00
   outer loop
     vertex  4.534392e-01 -1.587302e-02 -3.747795e-01
     vertex  4.534392e-01 -1.587302e-02 -1.885361e-01
     vertex  4.534392e-01  0.000000e+00 -1.885361e-01
   endloop
 endfacet
 facet normal -1.000000e+00  0.000000e+00  0.000000e+00
   outer loop
     vertex  4.534392e-01 -1.587302e-02 -3.747795e-01
     vertex  4.534392e-01  0.000000e+00 -1.885361e-01
     vertex  4.534392e-01  0.000000e+00 -3.747795e-01
   endloop
 endfacet
 facet normal  0.000000e+00  0.000000e+00 -1.000000e+00
   outer loop
     vertex  8.880071e-01 -1.587302e-02 -3.747795e-01
     vertex  4.534392e-01 -1.587302e-02 -3.747795e-01
     vertex  4.534392e-01  0.000000e+00 -3.747795e-01
   endloop
 endfacet
 facet normal  0.000000e+00  0.000000e+00 -1.000000e+00
   outer loop
     vertex  8.880071e-01 -1.587302e-02 -3.747795e-01
     vertex  4.534392e-01  0.000000e+00 -3.747795e-01
     vertex  8.880071e-01  0.000000e+00 -3.747795e-01
   endloop
 endfacet
 facet normal  1.000000e+00  0.000000e+00  0.000000e+00
   outer loop
     vertex  8.880071e-01 -1.587302e-02 -2.292678e-03
     vertex  8.880071e-01 -1.587302e-02 -3.747795e-01
     vertex  8.880071e-01  0.000000e+00 -3.747795e-01
   endloop
 endfacet
 facet normal  1.000000e+00 -0.000000e+00  0.000000e+00
   outer loop
     vertex  8.880071e-01 -1.587302e-02 -2.292678e-03
     vertex  8.880071e-01  0.000000e+00 -3.747795e-01
     vertex  8.880071e-01  0.000000e+00 -2.292678e-03
   endloop
 endfacet
 facet normal  0.000000e+00  0.000000e+00  1.000000e+00
   outer loop
     vertex  1.430336e-01 -1.587302e-02 -2.292678e-03
     vertex  8.880071e-01 -1.587302e-02 -2.292678e-03
     vertex  8.880071e-01  0.000000e+00 -2.292678e-03
   endloop
 endfacet
 facet normal  0.000000e+00  0.000000e+00  1.000000e+00
   outer loop
     vertex  1.430336e-01 -1.587302e-02 -2.292678e-03
     vertex  8.880071e-01  0.000000e+00 -2.292678e-03
     vertex  1.430336e-01  0.000000e+00 -2.292678e-03
   endloop
 endfacet
 facet normal  0.000000e+00  0.000000e+00  1.000000e+00
   outer loop
     vertex -2.915344e-01 -1.587302e-02 -2.292678e-03
     vertex  1.430336e-01 -1.587302e-02 -2.292678e-03
     vertex  1.430336e-01  0.000000e+00 -2.292678e-03
   endloop
 endfacet
 facet normal  0.000000e+00  0.000000e+00  1.000000e+00
   outer loop
     vertex -2.915344e-01 -1.587302e-02 -2.292678e-03
     vertex  1.430336e-01  0.000000e+00 -2.292678e-03
     vertex -2.915344e-01  0.000000e+00 -2.292678e-03
   endloop
 endfacet
endsolid
