solid 
 facet normal  9.927089e-01  0.000000e+00  1.205367e-01
   outer loop
     vertex -3.478453e-02 -1.587302e-02 -1.671265e-02
     vertex -3.298056e-02 -1.015873e+00 -3.156963e-02
     vertex -3.298056e-02 -1.587302e-02 -3.156963e-02
   endloop
 endfacet
 facet normal  9.927089e-01  0.000000e+00  1.205367e-01
   outer loop
     vertex -3.478453e-02 -1.587302e-02 -1.671265e-02
     vertex -3.478453e-02 -1.015873e+00 -1.671265e-02
     vertex -3.298056e-02 -1.015873e+00 -3.156963e-02
   endloop
 endfacet
 facet normal  9.350162e-01  0.000000e+00  3.546049e-01
   outer loop
     vertex -4.009158e-02 -1.587302e-02 -2.719093e-03
     vertex -4.009158e-02 -1.015873e+00 -2.719093e-03
     vertex -3.478453e-02 -1.015873e+00 -1.671265e-02
   endloop
 endfacet
 facet normal  9.350162e-01  0.000000e+00  3.546049e-01
   outer loop
     vertex -4.009158e-02 -1.587302e-02 -2.719093e-03
     vertex -3.478453e-02 -1.015873e+00 -1.671265e-02
     vertex -3.478453e-02 -1.587302e-02 -1.671265e-02
   endloop
 endfacet
 facet normal  8.229839e-01  0.000000e+00  5.680647e-01
   outer loop
     vertex -4.859330e-02 -1.587302e-02  9.597771e-03
     vertex -4.859330e-02 -1.015873e+00  9.597771e-03
     vertex -4.009158e-02 -1.015873e+00 -2.719093e-03
   endloop
 endfacet
 facet normal  8.229839e-01  0.000000e+00  5.680647e-01
   outer loop
     vertex -4.859330e-02 -1.587302e-02  9.597771e-03
     vertex -4.009158e-02 -1.015873e+00 -2.719093e-03
     vertex -4.009158e-02 -1.587302e-02 -2.719093e-03
   endloop
 endfacet
 facet normal  6.631227e-01  0.000000e+00  7.485107e-01
   outer loop
     vertex -5.979559e-02 -1.587302e-02  1.952214e-02
     vertex -5.979559e-02 -1.015873e+00  1.952214e-02
     vertex -4.859330e-02 -1.015873e+00  9.597771e-03
   endloop
 endfacet
 facet normal  6.631227e-01  0.000000e+00  7.485107e-01
   outer loop
     vertex -5.979559e-02 -1.587302e-02  1.952214e-02
     vertex -4.859330e-02 -1.015873e+00  9.597771e-03
     vertex -4.859330e-02 -1.587302e-02  9.597771e-03
   endloop
 endfacet
 facet normal  4.647232e-01  0.000000e+00  8.854560e-01
   outer loop
     vertex -7.304742e-02 -1.587302e-02  2.647723e-02
     vertex -7.304742e-02 -1.015873e+00  2.647723e-02
     vertex -5.979559e-02 -1.015873e+00  1.952214e-02
   endloop
 endfacet
 facet normal  4.647232e-01  0.000000e+00  8.854560e-01
   outer loop
     vertex -7.304742e-02 -1.587302e-02  2.647723e-02
     vertex -5.979559e-02 -1.015873e+00  1.952214e-02
     vertex -5.979559e-02 -1.587302e-02  1.952214e-02
   endloop
 endfacet
 facet normal  2.393157e-01  0.000000e+00  9.709418e-01
   outer loop
     vertex -8.757864e-02 -1.587302e-02  3.005886e-02
     vertex -8.757864e-02 -1.015873e+00  3.005886e-02
     vertex -7.304742e-02 -1.015873e+00  2.647723e-02
   endloop
 endfacet
 facet normal  2.393157e-01  0.000000e+00  9.709418e-01
   outer loop
     vertex -8.757864e-02 -1.587302e-02  3.005886e-02
     vertex -7.304742e-02 -1.015873e+00  2.647723e-02
     vertex -7.304742e-02 -1.587302e-02  2.647723e-02
   endloop
 endfacet
 facet normal  0.000000e+00  0.000000e+00  1.000000e+00
   outer loop
     vertex -1.025447e-01 -1.587302e-02  3.005886e-02
     vertex -1.025447e-01 -1.015873e+00  3.005886e-02
     vertex -8.757864e-02 -1.015873e+00  3.005886e-02
   endloop
 endfacet
 facet normal -0.000000e+00  0.000000e+00  1.000000e+00
   outer loop
     vertex -1.025447e-01 -1.587302e-02  3.005886e-02
     vertex -8.757864e-02 -1.015873e+00  3.005886e-02
     vertex -8.757864e-02 -1.587302e-02  3.005886e-02
   endloop
 endfacet
 facet normal -2.393157e-01  0.000000e+00  9.709418e-01
   outer loop
     vertex -1.170760e-01 -1.587302e-02  2.647723e-02
     vertex -1.170760e-01 -1.015873e+00  2.647723e-02
     vertex -1.025447e-01 -1.015873e+00  3.005886e-02
   endloop
 endfacet
 facet normal -2.393157e-01  0.000000e+00  9.709418e-01
   outer loop
     vertex -1.170760e-01 -1.587302e-02  2.647723e-02
     vertex -1.025447e-01 -1.015873e+00  3.005886e-02
     vertex -1.025447e-01 -1.587302e-02  3.005886e-02
   endloop
 endfacet
 facet normal -4.647232e-01  0.000000e+00  8.854560e-01
   outer loop
     vertex -1.303278e-01 -1.587302e-02  1.952214e-02
     vertex -1.303278e-01 -1.015873e+00  1.952214e-02
     vertex -1.170760e-01 -1.015873e+00  2.647723e-02
   endloop
 endfacet
 facet normal -4.647232e-01  0.000000e+00  8.854560e-01
   outer loop
     vertex -1.303278e-01 -1.587302e-02  1.952214e-02
     vertex -1.170760e-01 -1.015873e+00  2.647723e-02
     vertex -1.170760e-01 -1.587302e-02  2.647723e-02
   endloop
 endfacet
 facet normal -6.631227e-01  0.000000e+00  7.485107e-01
   outer loop
     vertex -1.415301e-01 -1.587302e-02  9.597771e-03
     vertex -1.415301e-01 -1.015873e+00  9.597771e-03
     vertex -1.303278e-01 -1.015873e+00  1.952214e-02
   endloop
 endfacet
 facet normal -6.631227e-01  0.000000e+00  7.485107e-01
   outer loop
     vertex -1.415301e-01 -1.587302e-02  9.597771e-03
     vertex -1.303278e-01 -1.015873e+00  1.952214e-02
     vertex -1.303278e-01 -1.587302e-02  1.952214e-02
   endloop
 endfacet
 facet normal -8.229839e-01  0.000000e+00  5.680647e-01
   outer loop
     vertex -1.500318e-01 -1.587302e-02 -2.719093e-03
     vertex -1.415301e-01 -1.015873e+00  9.597771e-03
     vertex -1.415301e-01 -1.587302e-02  9.597771e-03
   endloop
 endfacet
 facet normal -8.229839e-01  0.000000e+00  5.680647e-01
   outer loop
     vertex -1.500318e-01 -1.587302e-02 -2.719093e-03
     vertex -1.500318e-01 -1.015873e+00 -2.719093e-03
     vertex -1.415301e-01 -1.015873e+00  9.597771e-03
   endloop
 endfacet
 facet normal -9.350162e-01  0.000000e+00  3.546049e-01
   outer loop
     vertex -1.553389e-01 -1.587302e-02 -1.671265e-02
     vertex -1.500318e-01 -1.015873e+00 -2.719093e-03
     vertex -1.500318e-01 -1.587302e-02 -2.719093e-03
   endloop
 endfacet
 facet normal -9.350162e-01  0.000000e+00  3.546049e-01
   outer loop
     vertex -1.553389e-01 -1.587302e-02 -1.671265e-02
     vertex -1.553389e-01 -1.015873e+00 -1.671265e-02
     vertex -1.500318e-01 -1.015873e+00 -2.719093e-03
   endloop
 endfacet
 facet normal -9.927089e-01  0.000000e+00  1.205367e-01
   outer loop
     vertex -1.571428e-01 -1.587302e-02 -3.156963e-02
     vertex -1.553389e-01 -1.015873e+00 -1.671265e-02
     vertex -1.553389e-01 -1.587302e-02 -1.671265e-02
   endloop
 endfacet
 facet normal -9.927089e-01  0.000000e+00  1.205367e-01
   outer loop
     vertex -1.571428e-01 -1.587302e-02 -3.156963e-02
     vertex -1.571428e-01 -1.015873e+00 -3.156963e-02
     vertex -1.553389e-01 -1.015873e+00 -1.671265e-02
   endloop
 endfacet
 facet normal -9.927089e-01 -0.000000e+00 -1.205367e-01
   outer loop
     vertex -1.553389e-01 -1.587302e-02 -4.642662e-02
     vertex -1.553389e-01 -1.015873e+00 -4.642662e-02
     vertex -1.571428e-01 -1.015873e+00 -3.156963e-02
   endloop
 endfacet
 facet normal -9.927089e-01  0.000000e+00 -1.205367e-01
   outer loop
     vertex -1.553389e-01 -1.587302e-02 -4.642662e-02
     vertex -1.571428e-01 -1.015873e+00 -3.156963e-02
     vertex -1.571428e-01 -1.587302e-02 -3.156963e-02
   endloop
 endfacet
 facet normal -9.350162e-01  0.000000e+00 -3.546049e-01
   outer loop
     vertex -1.500318e-01 -1.587302e-02 -6.042017e-02
     vertex -1.553389e-01 -1.015873e+00 -4.642662e-02
     vertex -1.553389e-01 -1.587302e-02 -4.642662e-02
   endloop
 endfacet
 facet normal -9.350162e-01 -0.000000e+00 -3.546049e-01
   outer loop
     vertex -1.500318e-01 -1.587302e-02 -6.042017e-02
     vertex -1.500318e-01 -1.015873e+00 -6.042017e-02
     vertex -1.553389e-01 -1.015873e+00 -4.642662e-02
   endloop
 endfacet
 facet normal -8.229839e-01 -0.000000e+00 -5.680647e-01
   outer loop
     vertex -1.415301e-01 -1.587302e-02 -7.273704e-02
     vertex -1.415301e-01 -1.015873e+00 -7.273704e-02
     vertex -1.500318e-01 -1.015873e+00 -6.042017e-02
   endloop
 endfacet
 facet normal -8.229839e-01  0.000000e+00 -5.680647e-01
   outer loop
     vertex -1.415301e-01 -1.587302e-02 -7.273704e-02
     vertex -1.500318e-01 -1.015873e+00 -6.042017e-02
     vertex -1.500318e-01 -1.587302e-02 -6.042017e-02
   endloop
 endfacet
 facet normal -6.631227e-01 -0.000000e+00 -7.485107e-01
   outer loop
     vertex -1.303278e-01 -1.587302e-02 -8.266140e-02
     vertex -1.303278e-01 -1.015873e+00 -8.266140e-02
     vertex -1.415301e-01 -1.015873e+00 -7.273704e-02
   endloop
 endfacet
 facet normal -6.631227e-01  0.000000e+00 -7.485107e-01
   outer loop
     vertex -1.303278e-01 -1.587302e-02 -8.266140e-02
     vertex -1.415301e-01 -1.015873e+00 -7.273704e-02
     vertex -1.415301e-01 -1.587302e-02 -7.273704e-02
   endloop
 endfacet
 facet normal -4.647232e-01 -0.000000e+00 -8.854560e-01
   outer loop
     vertex -1.170760e-01 -1.587302e-02 -8.961650e-02
     vertex -1.170760e-01 -1.015873e+00 -8.961650e-02
     vertex -1.303278e-01 -1.015873e+00 -8.266140e-02
   endloop
 endfacet
 facet normal -4.647232e-01  0.000000e+00 -8.854560e-01
   outer loop
     vertex -1.170760e-01 -1.587302e-02 -8.961650e-02
     vertex -1.303278e-01 -1.015873e+00 -8.266140e-02
     vertex -1.303278e-01 -1.587302e-02 -8.266140e-02
   endloop
 endfacet
 facet normal -2.393157e-01 -0.000000e+00 -9.709418e-01
   outer loop
     vertex -1.025447e-01 -1.587302e-02 -9.319812e-02
     vertex -1.025447e-01 -1.015873e+00 -9.319812e-02
     vertex -1.170760e-01 -1.015873e+00 -8.961650e-02
   endloop
 endfacet
 facet normal -2.393157e-01  0.000000e+00 -9.709418e-01
   outer loop
     vertex -1.025447e-01 -1.587302e-02 -9.319812e-02
     vertex -1.170760e-01 -1.015873e+00 -8.961650e-02
     vertex -1.170760e-01 -1.587302e-02 -8.961650e-02
   endloop
 endfacet
 facet normal -1.854562e-15 -0.000000e+00 -1.000000e+00
   outer loop
     vertex -8.757864e-02 -1.587302e-02 -9.319812e-02
     vertex -8.757864e-02 -1.015873e+00 -9.319812e-02
     vertex -1.025447e-01 -1.015873e+00 -9.319812e-02
   endloop
 endfacet
 facet normal -1.854562e-15  0.000000e+00 -1.000000e+00
   outer loop
     vertex -8.757864e-02 -1.587302e-02 -9.319812e-02
     vertex -1.025447e-01 -1.015873e+00 -9.319812e-02
     vertex -1.025447e-01 -1.587302e-02 -9.319812e-02
   endloop
 endfacet
 facet normal  2.393157e-01  0.000000e+00 -9.709418e-01
   outer loop
     vertex -7.304742e-02 -1.587302e-02 -8.961650e-02
     vertex -7.304742e-02 -1.015873e+00 -8.961650e-02
     vertex -8.757864e-02 -1.015873e+00 -9.319812e-02
   endloop
 endfacet
 facet normal  2.393157e-01  0.000000e+00 -9.709418e-01
   outer loop
     vertex -7.304742e-02 -1.587302e-02 -8.961650e-02
     vertex -8.757864e-02 -1.015873e+00 -9.319812e-02
     vertex -8.757864e-02 -1.587302e-02 -9.319812e-02
   endloop
 endfacet
 facet normal  4.647232e-01  0.000000e+00 -8.854560e-01
   outer loop
     vertex -5.979559e-02 -1.587302e-02 -8.266140e-02
     vertex -5.979559e-02 -1.015873e+00 -8.266140e-02
     vertex -7.304742e-02 -1.015873e+00 -8.961650e-02
   endloop
 endfacet
 facet normal  4.647232e-01  0.000000e+00 -8.854560e-01
   outer loop
     vertex -5.979559e-02 -1.587302e-02 -8.266140e-02
     vertex -7.304742e-02 -1.015873e+00 -8.961650e-02
     vertex -7.304742e-02 -1.587302e-02 -8.961650e-02
   endloop
 endfacet
 facet normal  6.631227e-01  0.000000e+00 -7.485107e-01
   outer loop
     vertex -4.859330e-02 -1.587302e-02 -7.273704e-02
     vertex -4.859330e-02 -1.015873e+00 -7.273704e-02
     vertex -5.979559e-02 -1.015873e+00 -8.266140e-02
   endloop
 endfacet
 facet normal  6.631227e-01  0.000000e+00 -7.485107e-01
   outer loop
     vertex -4.859330e-02 -1.587302e-02 -7.273704e-02
     vertex -5.979559e-02 -1.015873e+00 -8.266140e-02
     vertex -5.979559e-02 -1.587302e-02 -8.266140e-02
   endloop
 endfacet
 facet normal  8.229839e-01  0.000000e+00 -5.680647e-01
   outer loop
     vertex -4.009158e-02 -1.587302e-02 -6.042017e-02
     vertex -4.009158e-02 -1.015873e+00 -6.042017e-02
     vertex -4.859330e-02 -1.015873e+00 -7.273704e-02
   endloop
 endfacet
 facet normal  8.229839e-01  0.000000e+00 -5.680647e-01
   outer loop
     vertex -4.009158e-02 -1.587302e-02 -6.042017e-02
     vertex -4.859330e-02 -1.015873e+00 -7.273704e-02
     vertex -4.859330e-02 -1.587302e-02 -7.273704e-02
   endloop
 endfacet
 facet normal  9.350162e-01  0.000000e+00 -3.546049e-01
   outer loop
     vertex -3.478453e-02 -1.587302e-02 -4.642662e-02
     vertex -3.478453e-02 -1.015873e+00 -4.642662e-02
     vertex -4.009158e-02 -1.015873e+00 -6.042017e-02
   endloop
 endfacet
 facet normal  9.350162e-01  0.000000e+00 -3.546049e-01
   outer loop
     vertex -3.478453e-02 -1.587302e-02 -4.642662e-02
     vertex -4.009158e-02 -1.015873e+00 -6.042017e-02
     vertex -4.009158e-02 -1.587302e-02 -6.042017e-02
   endloop
 endfacet
 facet normal  9.927089e-01  0.000000e+00 -1.205367e-01
   outer loop
     vertex -3.298056e-02 -1.587302e-02 -3.156963e-02
     vertex -3.298056e-02 -1.015873e+00 -3.156963e-02
     vertex -3.478453e-02 -1.015873e+00 -4.642662e-02
   endloop
 endfacet
 facet normal  9.927089e-01  0.000000e+00 -1.205367e-01
   outer loop
     vertex -3.298056e-02 -1.587302e-02 -3.156963e-02
     vertex -3.478453e-02 -1.015873e+00 -4.642662e-02
     vertex -3.478453e-02 -1.587302e-02 -4.642662e-02
   endloop
 endfacet
 facet normal  9.927089e-01  0.000000e+00  1.205367e-01
   outer loop
     vertex -3.478453e-02 -1.587302e-02 -1.671265e-02
     vertex -3.298056e-02 -1.587302e-02 -3.156963e-02
     vertex -3.298056e-02  0.000000e+00 -3.156963e-02
   endloop
 endfacet
 facet normal  9.924271e-01  2.165491e-03  1.228160e-01
   outer loop
     vertex -3.478453e-02 -1.587302e-02 -1.671265e-02
     vertex -3.298056e-02  0.000000e+00 -3.156963e-02
     vertex -3.485341e-02  0.000000e+00 -1.643592e-02
   endloop
 endfacet
 facet normal  9.325424e-01  4.249010e-03  3.610356e-01
   outer loop
     vertex -4.009158e-02 -1.587302e-02 -2.719093e-03
     vertex -3.485341e-02  0.000000e+00 -1.643592e-02
     vertex -4.035894e-02  0.000000e+00 -2.215314e-03
   endloop
 endfacet
 facet normal  9.350141e-01 -2.124525e-03  3.546041e-01
   outer loop
     vertex -4.009158e-02 -1.587302e-02 -2.719093e-03
     vertex -3.478453e-02 -1.587302e-02 -1.671265e-02
     vertex -3.485341e-02  0.000000e+00 -1.643592e-02
   endloop
 endfacet
 facet normal  8.163904e-01  6.250490e-03  5.774666e-01
   outer loop
     vertex -4.859330e-02 -1.587302e-02  9.597771e-03
     vertex -4.035894e-02  0.000000e+00 -2.215314e-03
     vertex -4.916499e-02  0.000000e+00  1.023419e-02
   endloop
 endfacet
 facet normal  8.229767e-01 -4.167057e-03  5.680598e-01
   outer loop
     vertex -4.859330e-02 -1.587302e-02  9.597771e-03
     vertex -4.009158e-02 -1.587302e-02 -2.719093e-03
     vertex -4.035894e-02  0.000000e+00 -2.215314e-03
   endloop
 endfacet
 facet normal  6.509819e-01  8.169873e-03  7.590493e-01
   outer loop
     vertex -5.979559e-02 -1.587302e-02  1.952214e-02
     vertex -4.916499e-02  0.000000e+00  1.023419e-02
     vertex -6.074024e-02  0.000000e+00  2.016145e-02
   endloop
 endfacet
 facet normal  6.631102e-01 -6.127532e-03  7.484967e-01
   outer loop
     vertex -5.979559e-02 -1.587302e-02  1.952214e-02
     vertex -4.859330e-02 -1.587302e-02  9.597771e-03
     vertex -4.916499e-02  0.000000e+00  1.023419e-02
   endloop
 endfacet
 facet normal  4.463000e-01  1.000711e-02  8.948274e-01
   outer loop
     vertex -7.304742e-02 -1.587302e-02  2.647723e-02
     vertex -6.074024e-02  0.000000e+00  2.016145e-02
     vertex -7.438628e-02  0.000000e+00  2.696749e-02
   endloop
 endfacet
 facet normal  4.647083e-01 -8.005893e-03  8.854276e-01
   outer loop
     vertex -7.304742e-02 -1.587302e-02  2.647723e-02
     vertex -5.979559e-02 -1.587302e-02  1.952214e-02
     vertex -6.074024e-02  0.000000e+00  2.016145e-02
   endloop
 endfacet
 facet normal  2.146972e-01  1.176215e-02  9.766098e-01
   outer loop
     vertex -8.757864e-02 -1.587302e-02  3.005886e-02
     vertex -7.438628e-02  0.000000e+00  2.696749e-02
     vertex -8.927979e-02  0.000000e+00  3.024166e-02
   endloop
 endfacet
 facet normal  2.393042e-01 -9.802091e-03  9.708952e-01
   outer loop
     vertex -8.757864e-02 -1.587302e-02  3.005886e-02
     vertex -7.304742e-02 -1.587302e-02  2.647723e-02
     vertex -7.438628e-02  0.000000e+00  2.696749e-02
   endloop
 endfacet
 facet normal -2.396578e-02  8.514900e-03  9.996765e-01
   outer loop
     vertex -1.025447e-01 -1.587302e-02  3.005886e-02
     vertex -8.927979e-02  0.000000e+00  3.024166e-02
     vertex -1.037989e-01  0.000000e+00  2.989359e-02
   endloop
 endfacet
 facet normal  0.000000e+00 -1.151608e-02  9.999337e-01
   outer loop
     vertex -1.025447e-01 -1.587302e-02  3.005886e-02
     vertex -8.757864e-02 -1.587302e-02  3.005886e-02
     vertex -8.927979e-02  0.000000e+00  3.024166e-02
   endloop
 endfacet
 facet normal -2.555748e-01  5.697612e-03  9.667725e-01
   outer loop
     vertex -1.170760e-01 -1.587302e-02  2.647723e-02
     vertex -1.037989e-01  0.000000e+00  2.989359e-02
     vertex -1.178399e-01  0.000000e+00  2.618174e-02
   endloop
 endfacet
 facet normal -2.393064e-01 -8.799420e-03  9.709042e-01
   outer loop
     vertex -1.170760e-01 -1.587302e-02  2.647723e-02
     vertex -1.025447e-01 -1.587302e-02  3.005886e-02
     vertex -1.037989e-01  0.000000e+00  2.989359e-02
   endloop
 endfacet
 facet normal -4.732021e-01  2.679463e-03  8.809498e-01
   outer loop
     vertex -1.303278e-01 -1.587302e-02  1.952214e-02
     vertex -1.178399e-01  0.000000e+00  2.618174e-02
     vertex -1.306342e-01  0.000000e+00  1.930925e-02
   endloop
 endfacet
 facet normal -4.647151e-01 -5.881772e-03  8.854407e-01
   outer loop
     vertex -1.303278e-01 -1.587302e-02  1.952214e-02
     vertex -1.170760e-01 -1.587302e-02  2.647723e-02
     vertex -1.178399e-01  0.000000e+00  2.618174e-02
   endloop
 endfacet
 facet normal -6.649310e-01 -5.393314e-04  7.469046e-01
   outer loop
     vertex -1.415301e-01 -1.587302e-02  9.597771e-03
     vertex -1.306342e-01  0.000000e+00  1.930925e-02
     vertex -1.414818e-01  0.000000e+00  9.652253e-03
   endloop
 endfacet
 facet normal -8.202677e-01  5.339863e-04  5.719795e-01
   outer loop
     vertex -1.415301e-01 -1.587302e-02  9.597771e-03
     vertex -1.414818e-01  0.000000e+00  9.652253e-03
     vertex -1.497888e-01  0.000000e+00 -2.260749e-03
   endloop
 endfacet
 facet normal -6.631201e-01 -2.763325e-03  7.485079e-01
   outer loop
     vertex -1.415301e-01 -1.587302e-02  9.597771e-03
     vertex -1.303278e-01 -1.587302e-02  1.952214e-02
     vertex -1.306342e-01  0.000000e+00  1.930925e-02
   endloop
 endfacet
 facet normal -8.229779e-01 -3.803888e-03  5.680606e-01
   outer loop
     vertex -1.500318e-01 -1.587302e-02 -2.719093e-03
     vertex -1.415301e-01 -1.587302e-02  9.597771e-03
     vertex -1.497888e-01  0.000000e+00 -2.260749e-03
   endloop
 endfacet
 facet normal -9.307064e-01  3.687276e-03  3.657486e-01
   outer loop
     vertex -1.500318e-01 -1.587302e-02 -2.719093e-03
     vertex -1.497888e-01  0.000000e+00 -2.260749e-03
     vertex -1.551007e-01  0.000000e+00 -1.577778e-02
   endloop
 endfacet
 facet normal -9.349943e-01 -6.856776e-03  3.545966e-01
   outer loop
     vertex -1.553389e-01 -1.587302e-02 -1.671265e-02
     vertex -1.500318e-01 -1.587302e-02 -2.719093e-03
     vertex -1.551007e-01  0.000000e+00 -1.577778e-02
   endloop
 endfacet
 facet normal -9.901995e-01  6.639845e-03  1.395025e-01
   outer loop
     vertex -1.553389e-01 -1.587302e-02 -1.671265e-02
     vertex -1.551007e-01  0.000000e+00 -1.577778e-02
     vertex -1.571268e-01  0.000000e+00 -3.015906e-02
   endloop
 endfacet
 facet normal -9.926621e-01 -9.708801e-03  1.205310e-01
   outer loop
     vertex -1.571428e-01 -1.587302e-02 -3.156963e-02
     vertex -1.553389e-01 -1.587302e-02 -1.671265e-02
     vertex -1.571268e-01  0.000000e+00 -3.015906e-02
   endloop
 endfacet
 facet normal -9.954928e-01  9.391491e-03 -9.437059e-02
   outer loop
     vertex -1.571428e-01 -1.587302e-02 -3.156963e-02
     vertex -1.571268e-01  0.000000e+00 -3.015906e-02
     vertex -1.557562e-01  0.000000e+00 -4.461755e-02
   endloop
 endfacet
 facet normal -9.926330e-01 -1.235979e-02 -1.205275e-01
   outer loop
     vertex -1.553389e-01 -1.587302e-02 -4.642662e-02
     vertex -1.571428e-01 -1.587302e-02 -3.156963e-02
     vertex -1.557562e-01  0.000000e+00 -4.461755e-02
   endloop
 endfacet
 facet normal -9.463007e-01  1.194205e-02 -3.230671e-01
   outer loop
     vertex -1.553389e-01 -1.587302e-02 -4.642662e-02
     vertex -1.557562e-01  0.000000e+00 -4.461755e-02
     vertex -1.510638e-01  0.000000e+00 -5.836194e-02
   endloop
 endfacet
 facet normal -9.349137e-01 -1.480959e-02 -3.545660e-01
   outer loop
     vertex -1.500318e-01 -1.587302e-02 -6.042017e-02
     vertex -1.553389e-01 -1.587302e-02 -4.642662e-02
     vertex -1.510638e-01  0.000000e+00 -5.836194e-02
   endloop
 endfacet
 facet normal -8.453202e-01  1.429139e-02 -5.340688e-01
   outer loop
     vertex -1.500318e-01 -1.587302e-02 -6.042017e-02
     vertex -1.510638e-01  0.000000e+00 -5.836194e-02
     vertex -1.433066e-01  0.000000e+00 -7.064004e-02
   endloop
 endfacet
 facet normal -8.228641e-01 -1.705811e-02 -5.679821e-01
   outer loop
     vertex -1.415301e-01 -1.587302e-02 -7.273704e-02
     vertex -1.500318e-01 -1.587302e-02 -6.042017e-02
     vertex -1.433066e-01  0.000000e+00 -7.064004e-02
   endloop
 endfacet
 facet normal -6.980829e-01  1.643940e-02 -7.158282e-01
   outer loop
     vertex -1.415301e-01 -1.587302e-02 -7.273704e-02
     vertex -1.433066e-01  0.000000e+00 -7.064004e-02
     vertex -1.329090e-01  0.000000e+00 -8.077989e-02
   endloop
 endfacet
 facet normal -6.630016e-01 -1.910525e-02 -7.483741e-01
   outer loop
     vertex -1.303278e-01 -1.587302e-02 -8.266140e-02
     vertex -1.415301e-01 -1.587302e-02 -7.273704e-02
     vertex -1.329090e-01  0.000000e+00 -8.077989e-02
   endloop
 endfacet
 facet normal -5.126512e-01  1.838601e-02 -8.584001e-01
   outer loop
     vertex -1.303278e-01 -1.587302e-02 -8.266140e-02
     vertex -1.329090e-01  0.000000e+00 -8.077989e-02
     vertex -1.204401e-01  0.000000e+00 -8.822654e-02
   endloop
 endfacet
 facet normal -4.646212e-01 -2.095095e-02 -8.852617e-01
   outer loop
     vertex -1.170760e-01 -1.587302e-02 -8.961650e-02
     vertex -1.303278e-01 -1.587302e-02 -8.266140e-02
     vertex -1.204401e-01  0.000000e+00 -8.822654e-02
   endloop
 endfacet
 facet normal -2.991766e-01  2.013114e-02 -9.539854e-01
   outer loop
     vertex -1.170760e-01 -1.587302e-02 -8.961650e-02
     vertex -1.204401e-01  0.000000e+00 -8.822654e-02
     vertex -1.065822e-01  0.000000e+00 -9.257245e-02
   endloop
 endfacet
 facet normal -2.392546e-01 -2.259517e-02 -9.706939e-01
   outer loop
     vertex -1.025447e-01 -1.587302e-02 -9.319812e-02
     vertex -1.170760e-01 -1.587302e-02 -8.961650e-02
     vertex -1.065822e-01  0.000000e+00 -9.257245e-02
   endloop
 endfacet
 facet normal -6.934364e-02  2.167477e-02 -9.973573e-01
   outer loop
     vertex -1.025447e-01 -1.587302e-02 -9.319812e-02
     vertex -1.065822e-01  0.000000e+00 -9.257245e-02
     vertex -9.209391e-02  0.000000e+00 -9.357979e-02
   endloop
 endfacet
 facet normal -1.854026e-15 -2.403786e-02 -9.997110e-01
   outer loop
     vertex -8.757864e-02 -1.587302e-02 -9.319812e-02
     vertex -1.025447e-01 -1.587302e-02 -9.319812e-02
     vertex -9.209391e-02  0.000000e+00 -9.357979e-02
   endloop
 endfacet
 facet normal  1.559344e-01  2.061194e-02 -9.875523e-01
   outer loop
     vertex -8.757864e-02 -1.587302e-02 -9.319812e-02
     vertex -9.209391e-02  0.000000e+00 -9.357979e-02
     vertex -7.877866e-02  0.000000e+00 -9.147731e-02
   endloop
 endfacet
 facet normal  2.392258e-01 -2.740499e-02 -9.705771e-01
   outer loop
     vertex -7.304742e-02 -1.587302e-02 -8.961650e-02
     vertex -8.757864e-02 -1.587302e-02 -9.319812e-02
     vertex -7.877866e-02  0.000000e+00 -9.147731e-02
   endloop
 endfacet
 facet normal  3.654089e-01  2.284619e-02 -9.305667e-01
   outer loop
     vertex -7.304742e-02 -1.587302e-02 -8.961650e-02
     vertex -7.877866e-02  0.000000e+00 -9.147731e-02
     vertex -6.623114e-02  0.000000e+00 -8.655023e-02
   endloop
 endfacet
 facet normal  5.576626e-01  2.281195e-02 -8.297542e-01
   outer loop
     vertex -5.979559e-02 -1.587302e-02 -8.266140e-02
     vertex -6.623114e-02  0.000000e+00 -8.655023e-02
     vertex -5.504297e-02  0.000000e+00 -7.903086e-02
   endloop
 endfacet
 facet normal  4.645343e-01 -2.850456e-02 -8.850962e-01
   outer loop
     vertex -5.979559e-02 -1.587302e-02 -8.266140e-02
     vertex -7.304742e-02 -1.587302e-02 -8.961650e-02
     vertex -6.623114e-02  0.000000e+00 -8.655023e-02
   endloop
 endfacet
 facet normal  6.628748e-01 -2.733654e-02 -7.482310e-01
   outer loop
     vertex -4.859330e-02 -1.587302e-02 -7.273704e-02
     vertex -5.979559e-02 -1.587302e-02 -8.266140e-02
     vertex -5.504297e-02  0.000000e+00 -7.903086e-02
   endloop
 endfacet
 facet normal  7.236588e-01  2.050923e-02 -6.898531e-01
   outer loop
     vertex -4.859330e-02 -1.587302e-02 -7.273704e-02
     vertex -5.504297e-02  0.000000e+00 -7.903086e-02
     vertex -4.574164e-02  0.000000e+00 -6.927373e-02
   endloop
 endfacet
 facet normal  8.555785e-01  1.593843e-02 -5.174277e-01
   outer loop
     vertex -4.009158e-02 -1.587302e-02 -6.042017e-02
     vertex -4.574164e-02  0.000000e+00 -6.927373e-02
     vertex -3.876571e-02  0.000000e+00 -5.773888e-02
   endloop
 endfacet
 facet normal  8.227488e-01 -2.390096e-02 -5.679025e-01
   outer loop
     vertex -4.009158e-02 -1.587302e-02 -6.042017e-02
     vertex -4.859330e-02 -1.587302e-02 -7.273704e-02
     vertex -4.574164e-02  0.000000e+00 -6.927373e-02
   endloop
 endfacet
 facet normal  9.471791e-01  9.100910e-03 -3.205759e-01
   outer loop
     vertex -3.478453e-02 -1.587302e-02 -4.642662e-02
     vertex -3.876571e-02  0.000000e+00 -5.773888e-02
     vertex -3.444410e-02  0.000000e+00 -4.497017e-02
   endloop
 endfacet
 facet normal  9.348614e-01 -1.819824e-02 -3.545462e-01
   outer loop
     vertex -3.478453e-02 -1.587302e-02 -4.642662e-02
     vertex -4.009158e-02 -1.587302e-02 -6.042017e-02
     vertex -3.876571e-02  0.000000e+00 -5.773888e-02
   endloop
 endfacet
 facet normal  9.940889e-01  0.000000e+00 -1.085694e-01
   outer loop
     vertex -3.298056e-02 -1.587302e-02 -3.156963e-02
     vertex -3.444410e-02  0.000000e+00 -4.497017e-02
     vertex -3.298056e-02  0.000000e+00 -3.156963e-02
   endloop
 endfacet
 facet normal  9.926569e-01 -1.022991e-02 -1.205304e-01
   outer loop
     vertex -3.298056e-02 -1.587302e-02 -3.156963e-02
     vertex -3.478453e-02 -1.587302e-02 -4.642662e-02
     vertex -3.444410e-02  0.000000e+00 -4.497017e-02
   endloop
 endfacet
 facet normal  0.000000e+00 -1.000000e+00  0.000000e+00
   outer loop
     vertex -4.859330e-02 -1.015873e+00  9.597771e-03
     vertex -3.298056e-02 -1.015873e+00 -3.156963e-02
     vertex -3.478453e-02 -1.015873e+00 -1.671265e-02
   endloop
 endfacet
 facet normal  0.000000e+00 -1.000000e+00  0.000000e+00
   outer loop
     vertex -4.859330e-02 -1.015873e+00  9.597771e-03
     vertex -3.478453e-02 -1.015873e+00 -1.671265e-02
     vertex -4.009158e-02 -1.015873e+00 -2.719093e-03
   endloop
 endfacet
 facet normal  0.000000e+00 -1.000000e+00  0.000000e+00
   outer loop
     vertex -4.859330e-02 -1.015873e+00  9.597771e-03
     vertex -5.979559e-02 -1.015873e+00  1.952214e-02
     vertex -7.304742e-02 -1.015873e+00  2.647723e-02
   endloop
 endfacet
 facet normal  0.000000e+00 -1.000000e+00  0.000000e+00
   outer loop
     vertex -4.859330e-02 -1.015873e+00  9.597771e-03
     vertex -7.304742e-02 -1.015873e+00  2.647723e-02
     vertex -8.757864e-02 -1.015873e+00  3.005886e-02
   endloop
 endfacet
 facet normal  0.000000e+00 -1.000000e+00  0.000000e+00
   outer loop
     vertex -4.859330e-02 -1.015873e+00  9.597771e-03
     vertex -8.757864e-02 -1.015873e+00  3.005886e-02
     vertex -1.025447e-01 -1.015873e+00  3.005886e-02
   endloop
 endfacet
 facet normal  0.000000e+00 -1.000000e+00  0.000000e+00
   outer loop
     vertex -4.859330e-02 -1.015873e+00  9.597771e-03
     vertex -1.025447e-01 -1.015873e+00  3.005886e-02
     vertex -1.170760e-01 -1.015873e+00  2.647723e-02
   endloop
 endfacet
 facet normal  0.000000e+00 -1.000000e+00  0.000000e+00
   outer loop
     vertex -4.859330e-02 -1.015873e+00  9.597771e-03
     vertex -1.170760e-01 -1.015873e+00  2.647723e-02
     vertex -1.303278e-01 -1.015873e+00  1.952214e-02
   endloop
 endfacet
 facet normal  0.000000e+00 -1.000000e+00  0.000000e+00
   outer loop
     vertex -4.859330e-02 -1.015873e+00  9.597771e-03
     vertex -1.303278e-01 -1.015873e+00  1.952214e-02
     vertex -1.415301e-01 -1.015873e+00  9.597771e-03
   endloop
 endfacet
 facet normal -0.000000e+00 -1.000000e+00  0.000000e+00
   outer loop
     vertex -4.859330e-02 -1.015873e+00  9.597771e-03
     vertex -1.415301e-01 -1.015873e+00  9.597771e-03
     vertex -1.500318e-01 -1.015873e+00 -2.719093e-03
   endloop
 endfacet
 facet normal  0.000000e+00 -1.000000e+00  0.000000e+00
   outer loop
     vertex -4.859330e-02 -1.015873e+00  9.597771e-03
     vertex -1.500318e-01 -1.015873e+00 -2.719093e-03
     vertex -1.553389e-01 -1.015873e+00 -1.671265e-02
   endloop
 endfacet
 facet normal  0.000000e+00 -1.000000e+00  0.000000e+00
   outer loop
     vertex -4.859330e-02 -1.015873e+00  9.597771e-03
     vertex -1.553389e-01 -1.015873e+00 -1.671265e-02
     vertex -1.571428e-01 -1.015873e+00 -3.156963e-02
   endloop
 endfacet
 facet normal  0.000000e+00 -1.000000e+00  0.000000e+00
   outer loop
     vertex -4.859330e-02 -1.015873e+00  9.597771e-03
     vertex -1.571428e-01 -1.015873e+00 -3.156963e-02
     vertex -1.553389e-01 -1.015873e+00 -4.642662e-02
   endloop
 endfacet
 facet normal  0.000000e+00 -1.000000e+00  0.000000e+00
   outer loop
     vertex -4.859330e-02 -1.015873e+00  9.597771e-03
     vertex -1.553389e-01 -1.015873e+00 -4.642662e-02
     vertex -1.500318e-01 -1.015873e+00 -6.042017e-02
   endloop
 endfacet
 facet normal  0.000000e+00 -1.000000e+00  0.000000e+00
   outer loop
     vertex -4.859330e-02 -1.015873e+00  9.597771e-03
     vertex -1.500318e-01 -1.015873e+00 -6.042017e-02
     vertex -1.415301e-01 -1.015873e+00 -7.273704e-02
   endloop
 endfacet
 facet normal  0.000000e+00 -1.000000e+00  0.000000e+00
   outer loop
     vertex -4.859330e-02 -1.015873e+00  9.597771e-03
     vertex -1.415301e-01 -1.015873e+00 -7.273704e-02
     vertex -1.303278e-01 -1.015873e+00 -8.266140e-02
   endloop
 endfacet
 facet normal  0.000000e+00 -1.000000e+00  0.000000e+00
   outer loop
     vertex -4.859330e-02 -1.015873e+00  9.597771e-03
     vertex -1.303278e-01 -1.015873e+00 -8.266140e-02
     vertex -1.170760e-01 -1.015873e+00 -8.961650e-02
   endloop
 endfacet
 facet normal  0.000000e+00 -1.000000e+00  0.000000e+00
   outer loop
     vertex -4.859330e-02 -1.015873e+00  9.597771e-03
     vertex -1.170760e-01 -1.015873e+00 -8.961650e-02
     vertex -1.025447e-01 -1.015873e+00 -9.319812e-02
   endloop
 endfacet
 facet normal  0.000000e+00 -1.000000e+00  0.000000e+00
   outer loop
     vertex -4.859330e-02 -1.015873e+00  9.597771e-03
     vertex -1.025447e-01 -1.015873e+00 -9.319812e-02
     vertex -8.757864e-02 -1.015873e+00 -9.319812e-02
   endloop
 endfacet
 facet normal  0.000000e+00 -1.000000e+00  0.000000e+00
   outer loop
     vertex -4.859330e-02 -1.015873e+00  9.597771e-03
     vertex -8.757864e-02 -1.015873e+00 -9.319812e-02
     vertex -7.304742e-02 -1.015873e+00 -8.961650e-02
   endloop
 endfacet
 facet normal  0.000000e+00 -1.000000e+00  0.000000e+00
   outer loop
     vertex -4.859330e-02 -1.015873e+00  9.597771e-03
     vertex -7.304742e-02 -1.015873e+00 -8.961650e-02
     vertex -5.979559e-02 -1.015873e+00 -8.266140e-02
   endloop
 endfacet
 facet normal  0.000000e+00 -1.000000e+00  0.000000e+00
   outer loop
     vertex -4.859330e-02 -1.015873e+00  9.597771e-03
     vertex -5.979559e-02 -1.015873e+00 -8.266140e-02
     vertex -4.859330e-02 -1.015873e+00 -7.273704e-02
   endloop
 endfacet
 facet normal  0.000000e+00 -1.000000e+00 -0.000000e+00
   outer loop
     vertex -4.859330e-02 -1.015873e+00  9.597771e-03
     vertex -4.859330e-02 -1.015873e+00 -7.273704e-02
     vertex -4.009158e-02 -1.015873e+00 -6.042017e-02
   endloop
 endfacet
 facet normal  0.000000e+00 -1.000000e+00  0.000000e+00
   outer loop
     vertex -4.859330e-02 -1.015873e+00  9.597771e-03
     vertex -4.009158e-02 -1.015873e+00 -6.042017e-02
     vertex -3.478453e-02 -1.015873e+00 -4.642662e-02
   endloop
 endfacet
 facet normal  0.000000e+00 -1.000000e+00  0.000000e+00
   outer loop
     vertex -4.859330e-02 -1.015873e+00  9.597771e-03
     vertex -3.478453e-02 -1.015873e+00 -4.642662e-02
     vertex -3.298056e-02 -1.015873e+00 -3.156963e-02
   endloop
 endfacet
 facet normal  0.000000e+00 -1.000000e+00 -0.000000e+00
   outer loop
     vertex -7.877866e-02  0.000000e+00 -9.147731e-02
     vertex -9.209391e-02  0.000000e+00 -9.357979e-02
     vertex -7.794266e-02  0.000000e+00 -1.047097e-01
   endloop
 endfacet
 facet normal  0.000000e+00 -1.000000e+00 -0.000000e+00
   outer loop
     vertex -6.623114e-02  0.000000e+00 -8.655023e-02
     vertex -7.794266e-02  0.000000e+00 -1.047097e-01
     vertex -6.175787e-02  0.000000e+00 -1.125954e-01
   endloop
 endfacet
 facet normal  0.000000e+00 -1.000000e+00  0.000000e+00
   outer loop
     vertex -6.623114e-02  0.000000e+00 -8.655023e-02
     vertex -7.877866e-02  0.000000e+00 -9.147731e-02
     vertex -7.794266e-02  0.000000e+00 -1.047097e-01
   endloop
 endfacet
 facet normal  0.000000e+00 -1.000000e+00 -0.000000e+00
   outer loop
     vertex -5.504297e-02  0.000000e+00 -7.903086e-02
     vertex -6.175787e-02  0.000000e+00 -1.125954e-01
     vertex -4.427154e-02  0.000000e+00 -1.168803e-01
   endloop
 endfacet
 facet normal  0.000000e+00 -1.000000e+00  0.000000e+00
   outer loop
     vertex -5.504297e-02  0.000000e+00 -7.903086e-02
     vertex -4.427154e-02  0.000000e+00 -1.168803e-01
     vertex -2.627454e-02  0.000000e+00 -1.173706e-01
   endloop
 endfacet
 facet normal  0.000000e+00 -1.000000e+00  0.000000e+00
   outer loop
     vertex -5.504297e-02  0.000000e+00 -7.903086e-02
     vertex -6.623114e-02  0.000000e+00 -8.655023e-02
     vertex -6.175787e-02  0.000000e+00 -1.125954e-01
   endloop
 endfacet
 facet normal  0.000000e+00 -1.000000e+00  0.000000e+00
   outer loop
     vertex -4.574164e-02  0.000000e+00 -6.927373e-02
     vertex -2.627454e-02  0.000000e+00 -1.173706e-01
     vertex -8.580850e-03  0.000000e+00 -1.140442e-01
   endloop
 endfacet
 facet normal  0.000000e+00 -1.000000e+00 -0.000000e+00
   outer loop
     vertex -4.574164e-02  0.000000e+00 -6.927373e-02
     vertex -5.504297e-02  0.000000e+00 -7.903086e-02
     vertex -2.627454e-02  0.000000e+00 -1.173706e-01
   endloop
 endfacet
 facet normal  0.000000e+00 -1.000000e+00  0.000000e+00
   outer loop
     vertex -3.876571e-02  0.000000e+00 -5.773888e-02
     vertex -8.580850e-03  0.000000e+00 -1.140442e-01
     vertex  8.009298e-03  0.000000e+00 -1.070514e-01
   endloop
 endfacet
 facet normal  0.000000e+00 -1.000000e+00 -0.000000e+00
   outer loop
     vertex -3.876571e-02  0.000000e+00 -5.773888e-02
     vertex -4.574164e-02  0.000000e+00 -6.927373e-02
     vertex -8.580850e-03  0.000000e+00 -1.140442e-01
   endloop
 endfacet
 facet normal  0.000000e+00 -1.000000e+00  0.000000e+00
   outer loop
     vertex  2.274556e-02  0.000000e+00 -9.670851e-02
     vertex -3.444410e-02  0.000000e+00 -4.497017e-02
     vertex -3.876571e-02  0.000000e+00 -5.773888e-02
   endloop
 endfacet
 facet normal -0.000000e+00 -1.000000e+00  0.000000e+00
   outer loop
     vertex  2.274556e-02  0.000000e+00 -9.670851e-02
     vertex -3.876571e-02  0.000000e+00 -5.773888e-02
     vertex  8.009298e-03  0.000000e+00 -1.070514e-01
   endloop
 endfacet
 facet normal -0.000000e+00 -1.000000e+00  0.000000e+00
   outer loop
     vertex  3.496146e-02  0.000000e+00 -8.348338e-02
     vertex -3.444410e-02  0.000000e+00 -4.497017e-02
     vertex  2.274556e-02  0.000000e+00 -9.670851e-02
   endloop
 endfacet
 facet normal  0.000000e+00 -1.000000e+00 -0.000000e+00
   outer loop
     vertex -7.494163e-02  0.000000e+00  4.054441e-02
     vertex -8.927979e-02  0.000000e+00  3.024166e-02
     vertex -7.438628e-02  0.000000e+00  2.696749e-02
   endloop
 endfacet
 facet normal -0.000000e+00 -1.000000e+00  0.000000e+00
   outer loop
     vertex  4.410448e-02  0.000000e+00 -6.797411e-02
     vertex -3.444410e-02  0.000000e+00 -4.497017e-02
     vertex  3.496146e-02  0.000000e+00 -8.348338e-02
   endloop
 endfacet
 facet normal  0.000000e+00 -1.000000e+00  0.000000e+00
   outer loop
     vertex -5.877828e-02  0.000000e+00  4.764902e-02
     vertex -7.438628e-02  0.000000e+00  2.696749e-02
     vertex -6.074024e-02  0.000000e+00  2.016145e-02
   endloop
 endfacet
 facet normal  0.000000e+00 -1.000000e+00  0.000000e+00
   outer loop
     vertex -5.877828e-02  0.000000e+00  4.764902e-02
     vertex -7.494163e-02  0.000000e+00  4.054441e-02
     vertex -7.438628e-02  0.000000e+00  2.696749e-02
   endloop
 endfacet
 facet normal  0.000000e+00 -1.000000e+00  0.000000e+00
   outer loop
     vertex  4.976111e-02  0.000000e+00 -5.088217e-02
     vertex -3.298056e-02  0.000000e+00 -3.156963e-02
     vertex -3.444410e-02  0.000000e+00 -4.497017e-02
   endloop
 endfacet
 facet normal -0.000000e+00 -1.000000e+00  0.000000e+00
   outer loop
     vertex  4.976111e-02  0.000000e+00 -5.088217e-02
     vertex -3.444410e-02  0.000000e+00 -4.497017e-02
     vertex  4.410448e-02  0.000000e+00 -6.797411e-02
   endloop
 endfacet
 facet normal  0.000000e+00 -1.000000e+00  0.000000e+00
   outer loop
     vertex -4.149281e-02  0.000000e+00  5.124647e-02
     vertex -6.074024e-02  0.000000e+00  2.016145e-02
     vertex -4.916499e-02  0.000000e+00  1.023419e-02
   endloop
 endfacet
 facet normal  0.000000e+00 -1.000000e+00  0.000000e+00
   outer loop
     vertex -4.149281e-02  0.000000e+00  5.124647e-02
     vertex -5.877828e-02  0.000000e+00  4.764902e-02
     vertex -6.074024e-02  0.000000e+00  2.016145e-02
   endloop
 endfacet
 facet normal -0.000000e+00 -1.000000e+00  0.000000e+00
   outer loop
     vertex  5.167552e-02  0.000000e+00 -3.298057e-02
     vertex -3.298056e-02  0.000000e+00 -3.156963e-02
     vertex  4.976111e-02  0.000000e+00 -5.088217e-02
   endloop
 endfacet
 facet normal -0.000000e+00 -1.000000e+00  0.000000e+00
   outer loop
     vertex -2.383707e-02  0.000000e+00  5.118029e-02
     vertex -4.149281e-02  0.000000e+00  5.124647e-02
     vertex -4.916499e-02  0.000000e+00  1.023419e-02
   endloop
 endfacet
 facet normal  0.000000e+00 -1.000000e+00 -0.000000e+00
   outer loop
     vertex  4.983437e-02  0.000000e+00 -1.542097e-02
     vertex -3.298056e-02  0.000000e+00 -3.156963e-02
     vertex  5.167552e-02  0.000000e+00 -3.298057e-02
   endloop
 endfacet
 facet normal  0.000000e+00 -1.000000e+00  0.000000e+00
   outer loop
     vertex -6.579057e-03  0.000000e+00  4.745334e-02
     vertex -4.916499e-02  0.000000e+00  1.023419e-02
     vertex -4.035894e-02  0.000000e+00 -2.215314e-03
   endloop
 endfacet
 facet normal -0.000000e+00 -1.000000e+00  0.000000e+00
   outer loop
     vertex -6.579057e-03  0.000000e+00  4.745334e-02
     vertex -2.383707e-02  0.000000e+00  5.118029e-02
     vertex -4.916499e-02  0.000000e+00  1.023419e-02
   endloop
 endfacet
 facet normal  0.000000e+00 -1.000000e+00  0.000000e+00
   outer loop
     vertex  4.439100e-02  0.000000e+00  1.374835e-03
     vertex -3.485341e-02  0.000000e+00 -1.643592e-02
     vertex -3.298056e-02  0.000000e+00 -3.156963e-02
   endloop
 endfacet
 facet normal  0.000000e+00 -1.000000e+00 -0.000000e+00
   outer loop
     vertex  4.439100e-02  0.000000e+00  1.374835e-03
     vertex -3.298056e-02  0.000000e+00 -3.156963e-02
     vertex  4.983437e-02  0.000000e+00 -1.542097e-02
   endloop
 endfacet
 facet normal -0.000000e+00 -1.000000e+00  0.000000e+00
   outer loop
     vertex  9.530568e-03  0.000000e+00  4.022774e-02
     vertex -6.579057e-03  0.000000e+00  4.745334e-02
     vertex -4.035894e-02  0.000000e+00 -2.215314e-03
   endloop
 endfacet
 facet normal  0.000000e+00 -1.000000e+00 -0.000000e+00
   outer loop
     vertex  3.558218e-02  0.000000e+00  1.667628e-02
     vertex -3.485341e-02  0.000000e+00 -1.643592e-02
     vertex  4.439100e-02  0.000000e+00  1.374835e-03
   endloop
 endfacet
 facet normal  0.000000e+00 -1.000000e+00 -0.000000e+00
   outer loop
     vertex  2.379108e-02  0.000000e+00  2.981778e-02
     vertex -3.485341e-02  0.000000e+00 -1.643592e-02
     vertex  3.558218e-02  0.000000e+00  1.667628e-02
   endloop
 endfacet
 facet normal  0.000000e+00 -1.000000e+00  0.000000e+00
   outer loop
     vertex  2.379108e-02  0.000000e+00  2.981778e-02
     vertex -4.035894e-02  0.000000e+00 -2.215314e-03
     vertex -3.485341e-02  0.000000e+00 -1.643592e-02
   endloop
 endfacet
 facet normal -0.000000e+00 -1.000000e+00  0.000000e+00
   outer loop
     vertex  2.379108e-02  0.000000e+00  2.981778e-02
     vertex  9.530568e-03  0.000000e+00  4.022774e-02
     vertex -4.035894e-02  0.000000e+00 -2.215314e-03
   endloop
 endfacet
 facet normal -0.000000e+00 -1.000000e+00 -0.000000e+00
   outer loop
     vertex -1.329090e-01  0.000000e+00 -8.077989e-02
     vertex -1.433066e-01  0.000000e+00 -7.064004e-02
     vertex -1.063492e-01  0.000000e+00 -1.458554e-01
   endloop
 endfacet
 facet normal -0.000000e+00 -1.000000e+00 -0.000000e+00
   outer loop
     vertex -1.204401e-01  0.000000e+00 -8.822654e-02
     vertex -1.329090e-01  0.000000e+00 -8.077989e-02
     vertex -1.063492e-01  0.000000e+00 -1.458554e-01
   endloop
 endfacet
 facet normal -0.000000e+00 -1.000000e+00 -0.000000e+00
   outer loop
     vertex -1.065822e-01  0.000000e+00 -9.257245e-02
     vertex -1.204401e-01  0.000000e+00 -8.822654e-02
     vertex -1.063492e-01  0.000000e+00 -1.458554e-01
   endloop
 endfacet
 facet normal  0.000000e+00 -1.000000e+00  0.000000e+00
   outer loop
     vertex -1.684303e-01  0.000000e+00 -2.733682e-02
     vertex -1.510638e-01  0.000000e+00 -5.836194e-02
     vertex -1.557562e-01  0.000000e+00 -4.461755e-02
   endloop
 endfacet
 facet normal -0.000000e+00 -1.000000e+00 -0.000000e+00
   outer loop
     vertex -1.571268e-01  0.000000e+00 -3.015906e-02
     vertex -1.684303e-01  0.000000e+00 -2.733682e-02
     vertex -1.557562e-01  0.000000e+00 -4.461755e-02
   endloop
 endfacet
 facet normal -0.000000e+00 -1.000000e+00  0.000000e+00
   outer loop
     vertex -9.209391e-02  0.000000e+00 -9.357979e-02
     vertex -1.065822e-01  0.000000e+00 -9.257245e-02
     vertex -1.063492e-01  0.000000e+00 -1.458554e-01
   endloop
 endfacet
 facet normal -0.000000e+00 -1.000000e+00  0.000000e+00
   outer loop
     vertex -7.794266e-02  0.000000e+00 -1.047097e-01
     vertex -9.209391e-02  0.000000e+00 -9.357979e-02
     vertex -1.063492e-01  0.000000e+00 -1.458554e-01
   endloop
 endfacet
 facet normal -0.000000e+00 -1.000000e+00  0.000000e+00
   outer loop
     vertex -6.175787e-02  0.000000e+00 -1.125954e-01
     vertex -7.794266e-02  0.000000e+00 -1.047097e-01
     vertex -1.063492e-01  0.000000e+00 -1.458554e-01
   endloop
 endfacet
 facet normal  0.000000e+00 -1.000000e+00  0.000000e+00
   outer loop
     vertex -1.551007e-01  0.000000e+00 -1.577778e-02
     vertex -1.684303e-01  0.000000e+00 -2.733682e-02
     vertex -1.571268e-01  0.000000e+00 -3.015906e-02
   endloop
 endfacet
 facet normal -0.000000e+00 -1.000000e+00  0.000000e+00
   outer loop
     vertex -4.427154e-02  0.000000e+00 -1.168803e-01
     vertex -6.175787e-02  0.000000e+00 -1.125954e-01
     vertex -1.063492e-01  0.000000e+00 -1.458554e-01
   endloop
 endfacet
 facet normal  0.000000e+00 -1.000000e+00  0.000000e+00
   outer loop
     vertex -1.497888e-01  0.000000e+00 -2.260749e-03
     vertex -1.684303e-01  0.000000e+00 -2.733682e-02
     vertex -1.551007e-01  0.000000e+00 -1.577778e-02
   endloop
 endfacet
 facet normal  0.000000e+00 -1.000000e+00  0.000000e+00
   outer loop
     vertex  2.910057e-02  0.000000e+00 -1.514991e-01
     vertex -2.627454e-02  0.000000e+00 -1.173706e-01
     vertex -4.427154e-02  0.000000e+00 -1.168803e-01
   endloop
 endfacet
 facet normal  0.000000e+00 -1.000000e+00  0.000000e+00
   outer loop
     vertex  2.910057e-02  0.000000e+00 -1.514991e-01
     vertex -8.580850e-03  0.000000e+00 -1.140442e-01
     vertex -2.627454e-02  0.000000e+00 -1.173706e-01
   endloop
 endfacet
 facet normal  0.000000e+00 -1.000000e+00  0.000000e+00
   outer loop
     vertex  2.910057e-02  0.000000e+00 -1.514991e-01
     vertex -4.427154e-02  0.000000e+00 -1.168803e-01
     vertex -1.063492e-01  0.000000e+00 -1.458554e-01
   endloop
 endfacet
 facet normal  0.000000e+00 -1.000000e+00 -0.000000e+00
   outer loop
     vertex  8.009298e-03  0.000000e+00 -1.070514e-01
     vertex -8.580850e-03  0.000000e+00 -1.140442e-01
     vertex  2.910057e-02  0.000000e+00 -1.514991e-01
   endloop
 endfacet
 facet normal  0.000000e+00 -1.000000e+00 -0.000000e+00
   outer loop
     vertex  2.274556e-02  0.000000e+00 -9.670851e-02
     vertex  8.009298e-03  0.000000e+00 -1.070514e-01
     vertex  2.910057e-02  0.000000e+00 -1.514991e-01
   endloop
 endfacet
 facet normal  0.000000e+00 -1.000000e+00  0.000000e+00
   outer loop
     vertex  3.496146e-02  0.000000e+00 -8.348338e-02
     vertex  2.274556e-02  0.000000e+00 -9.670851e-02
     vertex  2.910057e-02  0.000000e+00 -1.514991e-01
   endloop
 endfacet
 facet normal  0.000000e+00 -1.000000e+00  0.000000e+00
   outer loop
     vertex -7.494163e-02  0.000000e+00  4.054441e-02
     vertex -1.037989e-01  0.000000e+00  2.989359e-02
     vertex -8.927979e-02  0.000000e+00  3.024166e-02
   endloop
 endfacet
 facet normal  0.000000e+00 -1.000000e+00  0.000000e+00
   outer loop
     vertex -9.506170e-02  0.000000e+00  8.553796e-02
     vertex -7.494163e-02  0.000000e+00  4.054441e-02
     vertex -5.877828e-02  0.000000e+00  4.764902e-02
   endloop
 endfacet
 facet normal  0.000000e+00 -1.000000e+00  0.000000e+00
   outer loop
     vertex -9.506170e-02  0.000000e+00  8.553796e-02
     vertex -1.178399e-01  0.000000e+00  2.618174e-02
     vertex -1.037989e-01  0.000000e+00  2.989359e-02
   endloop
 endfacet
 facet normal  0.000000e+00 -1.000000e+00  0.000000e+00
   outer loop
     vertex -9.506170e-02  0.000000e+00  8.553796e-02
     vertex -1.306342e-01  0.000000e+00  1.930925e-02
     vertex -1.178399e-01  0.000000e+00  2.618174e-02
   endloop
 endfacet
 facet normal  0.000000e+00 -1.000000e+00  0.000000e+00
   outer loop
     vertex -9.506170e-02  0.000000e+00  8.553796e-02
     vertex -1.414818e-01  0.000000e+00  9.652253e-03
     vertex -1.306342e-01  0.000000e+00  1.930925e-02
   endloop
 endfacet
 facet normal  0.000000e+00 -1.000000e+00 -0.000000e+00
   outer loop
     vertex -9.506170e-02  0.000000e+00  8.553796e-02
     vertex -1.037989e-01  0.000000e+00  2.989359e-02
     vertex -7.494163e-02  0.000000e+00  4.054441e-02
   endloop
 endfacet
 facet normal -0.000000e+00 -1.000000e+00  0.000000e+00
   outer loop
     vertex -4.149281e-02  0.000000e+00  5.124647e-02
     vertex -9.506170e-02  0.000000e+00  8.553796e-02
     vertex -5.877828e-02  0.000000e+00  4.764902e-02
   endloop
 endfacet
 facet normal  0.000000e+00 -1.000000e+00  0.000000e+00
   outer loop
     vertex -2.383707e-02  0.000000e+00  5.118029e-02
     vertex -9.506170e-02  0.000000e+00  8.553796e-02
     vertex -4.149281e-02  0.000000e+00  5.124647e-02
   endloop
 endfacet
 facet normal  0.000000e+00 -1.000000e+00  0.000000e+00
   outer loop
     vertex  1.024692e-01  0.000000e+00 -3.862431e-02
     vertex  4.983437e-02  0.000000e+00 -1.542097e-02
     vertex  5.167552e-02  0.000000e+00 -3.298057e-02
   endloop
 endfacet
 facet normal  0.000000e+00 -1.000000e+00  0.000000e+00
   outer loop
     vertex  1.024692e-01  0.000000e+00 -3.862431e-02
     vertex  4.439100e-02  0.000000e+00  1.374835e-03
     vertex  4.983437e-02  0.000000e+00 -1.542097e-02
   endloop
 endfacet
 facet normal  0.000000e+00 -1.000000e+00  0.000000e+00
   outer loop
     vertex  1.024692e-01  0.000000e+00 -3.862431e-02
     vertex  4.410448e-02  0.000000e+00 -6.797411e-02
     vertex  3.496146e-02  0.000000e+00 -8.348338e-02
   endloop
 endfacet
 facet normal  0.000000e+00 -1.000000e+00  0.000000e+00
   outer loop
     vertex  1.024692e-01  0.000000e+00 -3.862431e-02
     vertex  4.976111e-02  0.000000e+00 -5.088217e-02
     vertex  4.410448e-02  0.000000e+00 -6.797411e-02
   endloop
 endfacet
 facet normal -0.000000e+00 -1.000000e+00  0.000000e+00
   outer loop
     vertex  1.024692e-01  0.000000e+00 -3.862431e-02
     vertex  5.167552e-02  0.000000e+00 -3.298057e-02
     vertex  4.976111e-02  0.000000e+00 -5.088217e-02
   endloop
 endfacet
 facet normal  0.000000e+00 -1.000000e+00  0.000000e+00
   outer loop
     vertex  1.024692e-01  0.000000e+00 -3.862431e-02
     vertex  3.496146e-02  0.000000e+00 -8.348338e-02
     vertex  2.910057e-02  0.000000e+00 -1.514991e-01
   endloop
 endfacet
 facet normal  0.000000e+00 -1.000000e+00 -0.000000e+00
   outer loop
     vertex  4.038805e-02  0.000000e+00  7.989421e-02
     vertex  3.558218e-02  0.000000e+00  1.667628e-02
     vertex  4.439100e-02  0.000000e+00  1.374835e-03
   endloop
 endfacet
 facet normal  0.000000e+00 -1.000000e+00  0.000000e+00
   outer loop
     vertex  4.038805e-02  0.000000e+00  7.989421e-02
     vertex  2.379108e-02  0.000000e+00  2.981778e-02
     vertex  3.558218e-02  0.000000e+00  1.667628e-02
   endloop
 endfacet
 facet normal  0.000000e+00 -1.000000e+00  0.000000e+00
   outer loop
     vertex  4.038805e-02  0.000000e+00  7.989421e-02
     vertex  9.530568e-03  0.000000e+00  4.022774e-02
     vertex  2.379108e-02  0.000000e+00  2.981778e-02
   endloop
 endfacet
 facet normal  0.000000e+00 -1.000000e+00  0.000000e+00
   outer loop
     vertex  4.038805e-02  0.000000e+00  7.989421e-02
     vertex -6.579057e-03  0.000000e+00  4.745334e-02
     vertex  9.530568e-03  0.000000e+00  4.022774e-02
   endloop
 endfacet
 facet normal  0.000000e+00 -1.000000e+00  0.000000e+00
   outer loop
     vertex  4.038805e-02  0.000000e+00  7.989421e-02
     vertex -2.383707e-02  0.000000e+00  5.118029e-02
     vertex -6.579057e-03  0.000000e+00  4.745334e-02
   endloop
 endfacet
 facet normal -0.000000e+00 -1.000000e+00  0.000000e+00
   outer loop
     vertex  4.038805e-02  0.000000e+00  7.989421e-02
     vertex -9.506170e-02  0.000000e+00  8.553796e-02
     vertex -2.383707e-02  0.000000e+00  5.118029e-02
   endloop
 endfacet
 facet normal  0.000000e+00 -1.000000e+00  0.000000e+00
   outer loop
     vertex  4.038805e-02  0.000000e+00  7.989421e-02
     vertex  4.439100e-02  0.000000e+00  1.374835e-03
     vertex  1.024692e-01  0.000000e+00 -3.862431e-02
   endloop
 endfacet
 facet normal  0.000000e+00 -1.000000e+00  0.000000e+00
   outer loop
     vertex -1.684303e-01  0.000000e+00 -2.733682e-02
     vertex -1.063492e-01  0.000000e+00 -1.458554e-01
     vertex -1.510638e-01  0.000000e+00 -5.836194e-02
   endloop
 endfacet
 facet normal  0.000000e+00 -1.000000e+00  0.000000e+00
   outer loop
     vertex -1.510638e-01  0.000000e+00 -5.836194e-02
     vertex -1.063492e-01  0.000000e+00 -1.458554e-01
     vertex -1.433066e-01  0.000000e+00 -7.064004e-02
   endloop
 endfacet
 facet normal  0.000000e+00 -1.000000e+00  0.000000e+00
   outer loop
     vertex -9.506170e-02  0.000000e+00  8.553796e-02
     vertex -1.684303e-01  0.000000e+00 -2.733682e-02
     vertex -1.497888e-01  0.000000e+00 -2.260749e-03
   endloop
 endfacet
 facet normal  0.000000e+00 -1.000000e+00  0.000000e+00
   outer loop
     vertex -9.506170e-02  0.000000e+00  8.553796e-02
     vertex -1.497888e-01  0.000000e+00 -2.260749e-03
     vertex -1.414818e-01  0.000000e+00  9.652253e-03
   endloop
 endfacet
 facet normal -8.858315e-01  0.000000e+00 -4.640070e-01
   outer loop
     vertex -1.063492e-01  0.000000e+00 -1.458554e-01
     vertex -1.684303e-01  0.000000e+00 -2.733682e-02
     vertex -1.684303e-01  1.269841e-01 -2.733682e-02
   endloop
 endfacet
 facet normal -8.858315e-01  0.000000e+00 -4.640070e-01
   outer loop
     vertex -1.063492e-01  0.000000e+00 -1.458554e-01
     vertex -1.684303e-01  1.269841e-01 -2.733682e-02
     vertex -1.063492e-01  1.269841e-01 -1.458554e-01
   endloop
 endfacet
 facet normal -8.384436e-01  0.000000e+00  5.449884e-01
   outer loop
     vertex -1.684303e-01  0.000000e+00 -2.733682e-02
     vertex -9.506170e-02  0.000000e+00  8.553796e-02
     vertex -9.506170e-02  1.269841e-01  8.553796e-02
   endloop
 endfacet
 facet normal -8.384436e-01  0.000000e+00  5.449884e-01
   outer loop
     vertex -1.684303e-01  0.000000e+00 -2.733682e-02
     vertex -9.506170e-02  1.269841e-01  8.553796e-02
     vertex -1.684303e-01  1.269841e-01 -2.733682e-02
   endloop
 endfacet
 facet normal -4.163055e-02  0.000000e+00 -9.991331e-01
   outer loop
     vertex  2.910057e-02  0.000000e+00 -1.514991e-01
     vertex -1.063492e-01  0.000000e+00 -1.458554e-01
     vertex -1.063492e-01  1.269841e-01 -1.458554e-01
   endloop
 endfacet
 facet normal -4.163055e-02  0.000000e+00 -9.991331e-01
   outer loop
     vertex  2.910057e-02  0.000000e+00 -1.514991e-01
     vertex -1.063492e-01  1.269841e-01 -1.458554e-01
     vertex  2.910057e-02  1.269841e-01 -1.514991e-01
   endloop
 endfacet
 facet normal  4.163055e-02  0.000000e+00  9.991331e-01
   outer loop
     vertex -9.506170e-02  0.000000e+00  8.553796e-02
     vertex  4.038805e-02  0.000000e+00  7.989421e-02
     vertex  4.038805e-02  1.269841e-01  7.989421e-02
   endloop
 endfacet
 facet normal  4.163055e-02 -0.000000e+00  9.991331e-01
   outer loop
     vertex -9.506170e-02  0.000000e+00  8.553796e-02
     vertex  4.038805e-02  1.269841e-01  7.989421e-02
     vertex -9.506170e-02  1.269841e-01  8.553796e-02
   endloop
 endfacet
 facet normal  8.384436e-01  0.000000e+00 -5.449883e-01
   outer loop
     vertex  1.024692e-01  0.000000e+00 -3.862431e-02
     vertex  2.910057e-02  0.000000e+00 -1.514991e-01
     vertex  2.910057e-02  1.269841e-01 -1.514991e-01
   endloop
 endfacet
 facet normal  8.384436e-01  0.000000e+00 -5.449883e-01
   outer loop
     vertex  1.024692e-01  0.000000e+00 -3.862431e-02
     vertex  2.910057e-02  1.269841e-01 -1.514991e-01
     vertex  1.024692e-01  1.269841e-01 -3.862431e-02
   endloop
 endfacet
 facet normal  8.858315e-01  0.000000e+00  4.640070e-01
   outer loop
     vertex  4.038805e-02  0.000000e+00  7.989421e-02
     vertex  1.024692e-01  0.000000e+00 -3.862431e-02
     vertex  1.024692e-01  1.269841e-01 -3.862431e-02
   endloop
 endfacet
 facet normal  8.858315e-01 -0.000000e+00  4.640070e-01
   outer loop
     vertex  4.038805e-02  0.000000e+00  7.989421e-02
     vertex  1.024692e-01  1.269841e-01 -3.862431e-02
     vertex  4.038805e-02  1.269841e-01  7.989421e-02
   endloop
 endfacet
 facet normal  0.000000e+00  1.000000e+00  0.000000e+00
   outer loop
     vertex -1.329090e-01  1.269841e-01 -8.077989e-02
     vertex -1.063492e-01  1.269841e-01 -1.458554e-01
     vertex -1.433066e-01  1.269841e-01 -7.064004e-02
   endloop
 endfacet
 facet normal  0.000000e+00  1.000000e+00  0.000000e+00
   outer loop
     vertex -1.204401e-01  1.269841e-01 -8.822654e-02
     vertex -1.063492e-01  1.269841e-01 -1.458554e-01
     vertex -1.329090e-01  1.269841e-01 -8.077989e-02
   endloop
 endfacet
 facet normal  0.000000e+00  1.000000e+00  0.000000e+00
   outer loop
     vertex -1.065822e-01  1.269841e-01 -9.257245e-02
     vertex -1.063492e-01  1.269841e-01 -1.458554e-01
     vertex -1.204401e-01  1.269841e-01 -8.822654e-02
   endloop
 endfacet
 facet normal  0.000000e+00  1.000000e+00  0.000000e+00
   outer loop
     vertex -1.684303e-01  1.269841e-01 -2.733682e-02
     vertex -1.557562e-01  1.269841e-01 -4.461755e-02
     vertex -1.510638e-01  1.269841e-01 -5.836194e-02
   endloop
 endfacet
 facet normal  0.000000e+00  1.000000e+00  0.000000e+00
   outer loop
     vertex -1.571268e-01  1.269841e-01 -3.015906e-02
     vertex -1.557562e-01  1.269841e-01 -4.461755e-02
     vertex -1.684303e-01  1.269841e-01 -2.733682e-02
   endloop
 endfacet
 facet normal  0.000000e+00  1.000000e+00  0.000000e+00
   outer loop
     vertex -9.209391e-02  1.269841e-01 -9.357979e-02
     vertex -1.063492e-01  1.269841e-01 -1.458554e-01
     vertex -1.065822e-01  1.269841e-01 -9.257245e-02
   endloop
 endfacet
 facet normal  0.000000e+00  1.000000e+00  0.000000e+00
   outer loop
     vertex -7.794266e-02  1.269841e-01 -1.047097e-01
     vertex -1.063492e-01  1.269841e-01 -1.458554e-01
     vertex -9.209391e-02  1.269841e-01 -9.357979e-02
   endloop
 endfacet
 facet normal  0.000000e+00  1.000000e+00  0.000000e+00
   outer loop
     vertex -6.175787e-02  1.269841e-01 -1.125954e-01
     vertex -1.063492e-01  1.269841e-01 -1.458554e-01
     vertex -7.794266e-02  1.269841e-01 -1.047097e-01
   endloop
 endfacet
 facet normal  0.000000e+00  1.000000e+00  0.000000e+00
   outer loop
     vertex -1.551007e-01  1.269841e-01 -1.577778e-02
     vertex -1.571268e-01  1.269841e-01 -3.015906e-02
     vertex -1.684303e-01  1.269841e-01 -2.733682e-02
   endloop
 endfacet
 facet normal  0.000000e+00  1.000000e+00  0.000000e+00
   outer loop
     vertex -4.427154e-02  1.269841e-01 -1.168803e-01
     vertex -1.063492e-01  1.269841e-01 -1.458554e-01
     vertex -6.175787e-02  1.269841e-01 -1.125954e-01
   endloop
 endfacet
 facet normal  0.000000e+00  1.000000e+00  0.000000e+00
   outer loop
     vertex -1.497888e-01  1.269841e-01 -2.260749e-03
     vertex -1.551007e-01  1.269841e-01 -1.577778e-02
     vertex -1.684303e-01  1.269841e-01 -2.733682e-02
   endloop
 endfacet
 facet normal  0.000000e+00  1.000000e+00  0.000000e+00
   outer loop
     vertex  2.910057e-02  1.269841e-01 -1.514991e-01
     vertex -4.427154e-02  1.269841e-01 -1.168803e-01
     vertex -2.627454e-02  1.269841e-01 -1.173706e-01
   endloop
 endfacet
 facet normal  0.000000e+00  1.000000e+00  0.000000e+00
   outer loop
     vertex  2.910057e-02  1.269841e-01 -1.514991e-01
     vertex -2.627454e-02  1.269841e-01 -1.173706e-01
     vertex -8.580850e-03  1.269841e-01 -1.140442e-01
   endloop
 endfacet
 facet normal  0.000000e+00  1.000000e+00  0.000000e+00
   outer loop
     vertex  2.910057e-02  1.269841e-01 -1.514991e-01
     vertex -1.063492e-01  1.269841e-01 -1.458554e-01
     vertex -4.427154e-02  1.269841e-01 -1.168803e-01
   endloop
 endfacet
 facet normal  0.000000e+00  1.000000e+00  0.000000e+00
   outer loop
     vertex  8.009298e-03  1.269841e-01 -1.070514e-01
     vertex  2.910057e-02  1.269841e-01 -1.514991e-01
     vertex -8.580850e-03  1.269841e-01 -1.140442e-01
   endloop
 endfacet
 facet normal  0.000000e+00  1.000000e+00  0.000000e+00
   outer loop
     vertex  2.274556e-02  1.269841e-01 -9.670851e-02
     vertex  2.910057e-02  1.269841e-01 -1.514991e-01
     vertex  8.009298e-03  1.269841e-01 -1.070514e-01
   endloop
 endfacet
 facet normal  0.000000e+00  1.000000e+00  0.000000e+00
   outer loop
     vertex  3.496146e-02  1.269841e-01 -8.348338e-02
     vertex  2.910057e-02  1.269841e-01 -1.514991e-01
     vertex  2.274556e-02  1.269841e-01 -9.670851e-02
   endloop
 endfacet
 facet normal  0.000000e+00  1.000000e+00  0.000000e+00
   outer loop
     vertex -7.494163e-02  1.269841e-01  4.054441e-02
     vertex -8.927979e-02  1.269841e-01  3.024166e-02
     vertex -1.037989e-01  1.269841e-01  2.989359e-02
   endloop
 endfacet
 facet normal  0.000000e+00  1.000000e+00  0.000000e+00
   outer loop
     vertex -9.506170e-02  1.269841e-01  8.553796e-02
     vertex -5.877828e-02  1.269841e-01  4.764902e-02
     vertex -7.494163e-02  1.269841e-01  4.054441e-02
   endloop
 endfacet
 facet normal  0.000000e+00  1.000000e+00  0.000000e+00
   outer loop
     vertex -9.506170e-02  1.269841e-01  8.553796e-02
     vertex -1.037989e-01  1.269841e-01  2.989359e-02
     vertex -1.178399e-01  1.269841e-01  2.618174e-02
   endloop
 endfacet
 facet normal  0.000000e+00  1.000000e+00  0.000000e+00
   outer loop
     vertex -9.506170e-02  1.269841e-01  8.553796e-02
     vertex -1.178399e-01  1.269841e-01  2.618174e-02
     vertex -1.306342e-01  1.269841e-01  1.930925e-02
   endloop
 endfacet
 facet normal  0.000000e+00  1.000000e+00  0.000000e+00
   outer loop
     vertex -9.506170e-02  1.269841e-01  8.553796e-02
     vertex -1.306342e-01  1.269841e-01  1.930925e-02
     vertex -1.414818e-01  1.269841e-01  9.652253e-03
   endloop
 endfacet
 facet normal  0.000000e+00  1.000000e+00  0.000000e+00
   outer loop
     vertex -9.506170e-02  1.269841e-01  8.553796e-02
     vertex -7.494163e-02  1.269841e-01  4.054441e-02
     vertex -1.037989e-01  1.269841e-01  2.989359e-02
   endloop
 endfacet
 facet normal  0.000000e+00  1.000000e+00  0.000000e+00
   outer loop
     vertex -4.149281e-02  1.269841e-01  5.124647e-02
     vertex -5.877828e-02  1.269841e-01  4.764902e-02
     vertex -9.506170e-02  1.269841e-01  8.553796e-02
   endloop
 endfacet
 facet normal  0.000000e+00  1.000000e+00  0.000000e+00
   outer loop
     vertex -2.383707e-02  1.269841e-01  5.118029e-02
     vertex -4.149281e-02  1.269841e-01  5.124647e-02
     vertex -9.506170e-02  1.269841e-01  8.553796e-02
   endloop
 endfacet
 facet normal  0.000000e+00  1.000000e+00  0.000000e+00
   outer loop
     vertex  1.024692e-01  1.269841e-01 -3.862431e-02
     vertex  5.167552e-02  1.269841e-01 -3.298057e-02
     vertex  4.983437e-02  1.269841e-01 -1.542097e-02
   endloop
 endfacet
 facet normal  0.000000e+00  1.000000e+00  0.000000e+00
   outer loop
     vertex  1.024692e-01  1.269841e-01 -3.862431e-02
     vertex  4.983437e-02  1.269841e-01 -1.542097e-02
     vertex  4.439100e-02  1.269841e-01  1.374835e-03
   endloop
 endfacet
 facet normal  0.000000e+00  1.000000e+00  0.000000e+00
   outer loop
     vertex  1.024692e-01  1.269841e-01 -3.862431e-02
     vertex  3.496146e-02  1.269841e-01 -8.348338e-02
     vertex  4.410448e-02  1.269841e-01 -6.797411e-02
   endloop
 endfacet
 facet normal  0.000000e+00  1.000000e+00  0.000000e+00
   outer loop
     vertex  1.024692e-01  1.269841e-01 -3.862431e-02
     vertex  4.410448e-02  1.269841e-01 -6.797411e-02
     vertex  4.976111e-02  1.269841e-01 -5.088217e-02
   endloop
 endfacet
 facet normal  0.000000e+00  1.000000e+00  0.000000e+00
   outer loop
     vertex  1.024692e-01  1.269841e-01 -3.862431e-02
     vertex  4.976111e-02  1.269841e-01 -5.088217e-02
     vertex  5.167552e-02  1.269841e-01 -3.298057e-02
   endloop
 endfacet
 facet normal  0.000000e+00  1.000000e+00  0.000000e+00
   outer loop
     vertex  1.024692e-01  1.269841e-01 -3.862431e-02
     vertex  2.910057e-02  1.269841e-01 -1.514991e-01
     vertex  3.496146e-02  1.269841e-01 -8.348338e-02
   endloop
 endfacet
 facet normal  0.000000e+00  1.000000e+00  0.000000e+00
   outer loop
     vertex  4.038805e-02  1.269841e-01  7.989421e-02
     vertex  4.439100e-02  1.269841e-01  1.374835e-03
     vertex  3.558218e-02  1.269841e-01  1.667628e-02
   endloop
 endfacet
 facet normal  0.000000e+00  1.000000e+00  0.000000e+00
   outer loop
     vertex  4.038805e-02  1.269841e-01  7.989421e-02
     vertex  3.558218e-02  1.269841e-01  1.667628e-02
     vertex  2.379108e-02  1.269841e-01  2.981778e-02
   endloop
 endfacet
 facet normal  0.000000e+00  1.000000e+00  0.000000e+00
   outer loop
     vertex  4.038805e-02  1.269841e-01  7.989421e-02
     vertex  2.379108e-02  1.269841e-01  2.981778e-02
     vertex  9.530568e-03  1.269841e-01  4.022774e-02
   endloop
 endfacet
 facet normal  0.000000e+00  1.000000e+00  0.000000e+00
   outer loop
     vertex  4.038805e-02  1.269841e-01  7.989421e-02
     vertex  9.530568e-03  1.269841e-01  4.022774e-02
     vertex -6.579057e-03  1.269841e-01  4.745334e-02
   endloop
 endfacet
 facet normal  0.000000e+00  1.000000e+00  0.000000e+00
   outer loop
     vertex  4.038805e-02  1.269841e-01  7.989421e-02
     vertex -6.579057e-03  1.269841e-01  4.745334e-02
     vertex -2.383707e-02  1.269841e-01  5.118029e-02
   endloop
 endfacet
 facet normal  0.000000e+00  1.000000e+00  0.000000e+00
   outer loop
     vertex  4.038805e-02  1.269841e-01  7.989421e-02
     vertex -2.383707e-02  1.269841e-01  5.118029e-02
     vertex -9.506170e-02  1.269841e-01  8.553796e-02
   endloop
 endfacet
 facet normal  0.000000e+00  1.000000e+00  0.000000e+00
   outer loop
     vertex  4.038805e-02  1.269841e-01  7.989421e-02
     vertex  1.024692e-01  1.269841e-01 -3.862431e-02
     vertex  4.439100e-02  1.269841e-01  1.374835e-03
   endloop
 endfacet
 facet normal  0.000000e+00  1.000000e+00  0.000000e+00
   outer loop
     vertex -1.684303e-01  1.269841e-01 -2.733682e-02
     vertex -1.510638e-01  1.269841e-01 -5.836194e-02
     vertex -1.063492e-01  1.269841e-01 -1.458554e-01
   endloop
 endfacet
 facet normal  0.000000e+00  1.000000e+00  0.000000e+00
   outer loop
     vertex -1.510638e-01  1.269841e-01 -5.836194e-02
     vertex -1.433066e-01  1.269841e-01 -7.064004e-02
     vertex -1.063492e-01  1.269841e-01 -1.458554e-01
   endloop
 endfacet
 facet normal  0.000000e+00  1.000000e+00  0.000000e+00
   outer loop
     vertex -9.506170e-02  1.269841e-01  8.553796e-02
     vertex -1.497888e-01  1.269841e-01 -2.260749e-03
     vertex -1.684303e-01  1.269841e-01 -2.733682e-02
   endloop
 endfacet
 facet normal  0.000000e+00  1.000000e+00  0.000000e+00
   outer loop
     vertex -9.506170e-02  1.269841e-01  8.553796e-02
     vertex -1.414818e-01  1.269841e-01  9.652253e-03
     vertex -1.497888e-01  1.269841e-01 -2.260749e-03
   endloop
 endfacet
 facet normal  0.000000e+00  1.000000e+00  0.000000e+00
   outer loop
     vertex -7.877866e-02  1.269841e-01 -9.147731e-02
     vertex -7.794266e-02  1.269841e-01 -1.047097e-01
     vertex -9.209391e-02  1.269841e-01 -9.357979e-02
   endloop
 endfacet
 facet normal  0.000000e+00  1.000000e+00  0.000000e+00
   outer loop
     vertex -6.623114e-02  1.269841e-01 -8.655023e-02
     vertex -6.175787e-02  1.269841e-01 -1.125954e-01
     vertex -7.794266e-02  1.269841e-01 -1.047097e-01
   endloop
 endfacet
 facet normal  0.000000e+00  1.000000e+00  0.000000e+00
   outer loop
     vertex -6.623114e-02  1.269841e-01 -8.655023e-02
     vertex -7.794266e-02  1.269841e-01 -1.047097e-01
     vertex -7.877866e-02  1.269841e-01 -9.147731e-02
   endloop
 endfacet
 facet normal  0.000000e+00  1.000000e+00  0.000000e+00
   outer loop
     vertex -5.504297e-02  1.269841e-01 -7.903086e-02
     vertex -4.427154e-02  1.269841e-01 -1.168803e-01
     vertex -6.175787e-02  1.269841e-01 -1.125954e-01
   endloop
 endfacet
 facet normal  0.000000e+00  1.000000e+00  0.000000e+00
   outer loop
     vertex -5.504297e-02  1.269841e-01 -7.903086e-02
     vertex -2.627454e-02  1.269841e-01 -1.173706e-01
     vertex -4.427154e-02  1.269841e-01 -1.168803e-01
   endloop
 endfacet
 facet normal  0.000000e+00  1.000000e+00  0.000000e+00
   outer loop
     vertex -5.504297e-02  1.269841e-01 -7.903086e-02
     vertex -6.175787e-02  1.269841e-01 -1.125954e-01
     vertex -6.623114e-02  1.269841e-01 -8.655023e-02
   endloop
 endfacet
 facet normal  0.000000e+00  1.000000e+00  0.000000e+00
   outer loop
     vertex -4.574164e-02  1.269841e-01 -6.927373e-02
     vertex -8.580850e-03  1.269841e-01 -1.140442e-01
     vertex -2.627454e-02  1.269841e-01 -1.173706e-01
   endloop
 endfacet
 facet normal  0.000000e+00  1.000000e+00  0.000000e+00
   outer loop
     vertex -4.574164e-02  1.269841e-01 -6.927373e-02
     vertex -2.627454e-02  1.269841e-01 -1.173706e-01
     vertex -5.504297e-02  1.269841e-01 -7.903086e-02
   endloop
 endfacet
 facet normal  0.000000e+00  1.000000e+00  0.000000e+00
   outer loop
     vertex -3.876571e-02  1.269841e-01 -5.773888e-02
     vertex  8.009298e-03  1.269841e-01 -1.070514e-01
     vertex -8.580850e-03  1.269841e-01 -1.140442e-01
   endloop
 endfacet
 facet normal  0.000000e+00  1.000000e+00  0.000000e+00
   outer loop
     vertex -3.876571e-02  1.269841e-01 -5.773888e-02
     vertex -8.580850e-03  1.269841e-01 -1.140442e-01
     vertex -4.574164e-02  1.269841e-01 -6.927373e-02
   endloop
 endfacet
 facet normal  0.000000e+00  1.000000e+00  0.000000e+00
   outer loop
     vertex  2.274556e-02  1.269841e-01 -9.670851e-02
     vertex -3.876571e-02  1.269841e-01 -5.773888e-02
     vertex -3.444410e-02  1.269841e-01 -4.497017e-02
   endloop
 endfacet
 facet normal  0.000000e+00  1.000000e+00  0.000000e+00
   outer loop
     vertex  2.274556e-02  1.269841e-01 -9.670851e-02
     vertex  8.009298e-03  1.269841e-01 -1.070514e-01
     vertex -3.876571e-02  1.269841e-01 -5.773888e-02
   endloop
 endfacet
 facet normal  0.000000e+00  1.000000e+00  0.000000e+00
   outer loop
     vertex  3.496146e-02  1.269841e-01 -8.348338e-02
     vertex  2.274556e-02  1.269841e-01 -9.670851e-02
     vertex -3.444410e-02  1.269841e-01 -4.497017e-02
   endloop
 endfacet
 facet normal  0.000000e+00  1.000000e+00  0.000000e+00
   outer loop
     vertex -7.494163e-02  1.269841e-01  4.054441e-02
     vertex -7.438628e-02  1.269841e-01  2.696749e-02
     vertex -8.927979e-02  1.269841e-01  3.024166e-02
   endloop
 endfacet
 facet normal  0.000000e+00  1.000000e+00  0.000000e+00
   outer loop
     vertex  4.410448e-02  1.269841e-01 -6.797411e-02
     vertex  3.496146e-02  1.269841e-01 -8.348338e-02
     vertex -3.444410e-02  1.269841e-01 -4.497017e-02
   endloop
 endfacet
 facet normal  0.000000e+00  1.000000e+00  0.000000e+00
   outer loop
     vertex -5.877828e-02  1.269841e-01  4.764902e-02
     vertex -6.074024e-02  1.269841e-01  2.016145e-02
     vertex -7.438628e-02  1.269841e-01  2.696749e-02
   endloop
 endfacet
 facet normal  0.000000e+00  1.000000e+00  0.000000e+00
   outer loop
     vertex -5.877828e-02  1.269841e-01  4.764902e-02
     vertex -7.438628e-02  1.269841e-01  2.696749e-02
     vertex -7.494163e-02  1.269841e-01  4.054441e-02
   endloop
 endfacet
 facet normal  0.000000e+00  1.000000e+00  0.000000e+00
   outer loop
     vertex  4.976111e-02  1.269841e-01 -5.088217e-02
     vertex -3.444410e-02  1.269841e-01 -4.497017e-02
     vertex -3.298056e-02  1.269841e-01 -3.156963e-02
   endloop
 endfacet
 facet normal  0.000000e+00  1.000000e+00  0.000000e+00
   outer loop
     vertex  4.976111e-02  1.269841e-01 -5.088217e-02
     vertex  4.410448e-02  1.269841e-01 -6.797411e-02
     vertex -3.444410e-02  1.269841e-01 -4.497017e-02
   endloop
 endfacet
 facet normal  0.000000e+00  1.000000e+00  0.000000e+00
   outer loop
     vertex -4.149281e-02  1.269841e-01  5.124647e-02
     vertex -4.916499e-02  1.269841e-01  1.023419e-02
     vertex -6.074024e-02  1.269841e-01  2.016145e-02
   endloop
 endfacet
 facet normal  0.000000e+00  1.000000e+00  0.000000e+00
   outer loop
     vertex -4.149281e-02  1.269841e-01  5.124647e-02
     vertex -6.074024e-02  1.269841e-01  2.016145e-02
     vertex -5.877828e-02  1.269841e-01  4.764902e-02
   endloop
 endfacet
 facet normal  0.000000e+00  1.000000e+00  0.000000e+00
   outer loop
     vertex  5.167552e-02  1.269841e-01 -3.298057e-02
     vertex  4.976111e-02  1.269841e-01 -5.088217e-02
     vertex -3.298056e-02  1.269841e-01 -3.156963e-02
   endloop
 endfacet
 facet normal  0.000000e+00  1.000000e+00  0.000000e+00
   outer loop
     vertex -2.383707e-02  1.269841e-01  5.118029e-02
     vertex -4.916499e-02  1.269841e-01  1.023419e-02
     vertex -4.149281e-02  1.269841e-01  5.124647e-02
   endloop
 endfacet
 facet normal  0.000000e+00  1.000000e+00  0.000000e+00
   outer loop
     vertex  4.983437e-02  1.269841e-01 -1.542097e-02
     vertex  5.167552e-02  1.269841e-01 -3.298057e-02
     vertex -3.298056e-02  1.269841e-01 -3.156963e-02
   endloop
 endfacet
 facet normal  0.000000e+00  1.000000e+00  0.000000e+00
   outer loop
     vertex -6.579057e-03  1.269841e-01  4.745334e-02
     vertex -4.035894e-02  1.269841e-01 -2.215314e-03
     vertex -4.916499e-02  1.269841e-01  1.023419e-02
   endloop
 endfacet
 facet normal  0.000000e+00  1.000000e+00  0.000000e+00
   outer loop
     vertex -6.579057e-03  1.269841e-01  4.745334e-02
     vertex -4.916499e-02  1.269841e-01  1.023419e-02
     vertex -2.383707e-02  1.269841e-01  5.118029e-02
   endloop
 endfacet
 facet normal  0.000000e+00  1.000000e+00  0.000000e+00
   outer loop
     vertex  4.439100e-02  1.269841e-01  1.374835e-03
     vertex -3.298056e-02  1.269841e-01 -3.156963e-02
     vertex -3.485341e-02  1.269841e-01 -1.643592e-02
   endloop
 endfacet
 facet normal  0.000000e+00  1.000000e+00  0.000000e+00
   outer loop
     vertex  4.439100e-02  1.269841e-01  1.374835e-03
     vertex  4.983437e-02  1.269841e-01 -1.542097e-02
     vertex -3.298056e-02  1.269841e-01 -3.156963e-02
   endloop
 endfacet
 facet normal  0.000000e+00  1.000000e+00  0.000000e+00
   outer loop
     vertex  9.530568e-03  1.269841e-01  4.022774e-02
     vertex -4.035894e-02  1.269841e-01 -2.215314e-03
     vertex -6.579057e-03  1.269841e-01  4.745334e-02
   endloop
 endfacet
 facet normal  0.000000e+00  1.000000e+00  0.000000e+00
   outer loop
     vertex  3.558218e-02  1.269841e-01  1.667628e-02
     vertex  4.439100e-02  1.269841e-01  1.374835e-03
     vertex -3.485341e-02  1.269841e-01 -1.643592e-02
   endloop
 endfacet
 facet normal  0.000000e+00  1.000000e+00  0.000000e+00
   outer loop
     vertex  2.379108e-02  1.269841e-01  2.981778e-02
     vertex  3.558218e-02  1.269841e-01  1.667628e-02
     vertex -3.485341e-02  1.269841e-01 -1.643592e-02
   endloop
 endfacet
 facet normal  0.000000e+00  1.000000e+00  0.000000e+00
   outer loop
     vertex  2.379108e-02  1.269841e-01  2.981778e-02
     vertex -3.485341e-02  1.269841e-01 -1.643592e-02
     vertex -4.035894e-02  1.269841e-01 -2.215314e-03
   endloop
 endfacet
 facet normal  0.000000e+00  1.000000e+00  0.000000e+00
   outer loop
     vertex  2.379108e-02  1.269841e-01  2.981778e-02
     vertex -4.035894e-02  1.269841e-01 -2.215314e-03
     vertex  9.530568e-03  1.269841e-01  4.022774e-02
   endloop
 endfacet
 facet normal  9.927089e-01 -0.000000e+00  1.205367e-01
   outer loop
     vertex -3.298056e-02  1.269841e-01 -3.156963e-02
     vertex -3.298056e-02  9.841270e-01 -3.156963e-02
     vertex -3.478453e-02  9.841270e-01 -1.671265e-02
   endloop
 endfacet
 facet normal  9.350162e-01  3.934314e-05  3.546049e-01
   outer loop
     vertex -3.485341e-02  1.269841e-01 -1.643592e-02
     vertex -3.478453e-02  9.841270e-01 -1.671265e-02
     vertex -4.009158e-02  9.841270e-01 -2.719093e-03
   endloop
 endfacet
 facet normal  9.924294e-01 -4.010178e-05  1.228163e-01
   outer loop
     vertex -3.485341e-02  1.269841e-01 -1.643592e-02
     vertex -3.298056e-02  1.269841e-01 -3.156963e-02
     vertex -3.478453e-02  9.841270e-01 -1.671265e-02
   endloop
 endfacet
 facet normal  8.229839e-01  7.716838e-05  5.680647e-01
   outer loop
     vertex -4.035894e-02  1.269841e-01 -2.215314e-03
     vertex -4.009158e-02  9.841270e-01 -2.719093e-03
     vertex -4.859330e-02  9.841270e-01  9.597771e-03
   endloop
 endfacet
 facet normal  9.325508e-01 -7.868607e-05  3.610388e-01
   outer loop
     vertex -4.035894e-02  1.269841e-01 -2.215314e-03
     vertex -3.485341e-02  1.269841e-01 -1.643592e-02
     vertex -4.009158e-02  9.841270e-01 -2.719093e-03
   endloop
 endfacet
 facet normal  6.631227e-01  1.134749e-04  7.485107e-01
   outer loop
     vertex -4.916499e-02  1.269841e-01  1.023419e-02
     vertex -4.859330e-02  9.841270e-01  9.597771e-03
     vertex -5.979559e-02  9.841270e-01  1.952214e-02
   endloop
 endfacet
 facet normal  8.164063e-01 -1.157521e-04  5.774779e-01
   outer loop
     vertex -4.916499e-02  1.269841e-01  1.023419e-02
     vertex -4.035894e-02  1.269841e-01 -2.215314e-03
     vertex -4.859330e-02  9.841270e-01  9.597771e-03
   endloop
 endfacet
 facet normal  4.647232e-01  1.482620e-04  8.854560e-01
   outer loop
     vertex -6.074024e-02  1.269841e-01  2.016145e-02
     vertex -5.979559e-02  9.841270e-01  1.952214e-02
     vertex -7.304742e-02  9.841270e-01  2.647723e-02
   endloop
 endfacet
 facet normal  6.510036e-01 -1.512990e-04  7.590746e-01
   outer loop
     vertex -6.074024e-02  1.269841e-01  2.016145e-02
     vertex -4.916499e-02  1.269841e-01  1.023419e-02
     vertex -5.979559e-02  9.841270e-01  1.952214e-02
   endloop
 endfacet
 facet normal  2.393157e-01  1.815289e-04  9.709418e-01
   outer loop
     vertex -7.438628e-02  1.269841e-01  2.696749e-02
     vertex -7.304742e-02  9.841270e-01  2.647723e-02
     vertex -8.757864e-02  9.841270e-01  3.005886e-02
   endloop
 endfacet
 facet normal  4.463224e-01 -1.853261e-04  8.948722e-01
   outer loop
     vertex -7.438628e-02  1.269841e-01  2.696749e-02
     vertex -6.074024e-02  1.269841e-01  2.016145e-02
     vertex -7.304742e-02  9.841270e-01  2.647723e-02
   endloop
 endfacet
 facet normal  0.000000e+00  2.132749e-04  1.000000e+00
   outer loop
     vertex -8.927979e-02  1.269841e-01  3.024166e-02
     vertex -8.757864e-02  9.841270e-01  3.005886e-02
     vertex -1.025447e-01  9.841270e-01  3.005886e-02
   endloop
 endfacet
 facet normal  2.147121e-01 -2.178326e-04  9.766774e-01
   outer loop
     vertex -8.927979e-02  1.269841e-01  3.024166e-02
     vertex -7.438628e-02  1.269841e-01  2.696749e-02
     vertex -8.757864e-02  9.841270e-01  3.005886e-02
   endloop
 endfacet
 facet normal -2.393157e-01  1.629585e-04  9.709418e-01
   outer loop
     vertex -1.037989e-01  1.269841e-01  2.989359e-02
     vertex -1.025447e-01  9.841270e-01  3.005886e-02
     vertex -1.170760e-01  9.841270e-01  2.647723e-02
   endloop
 endfacet
 facet normal -2.396665e-02 -1.576890e-04  9.997127e-01
   outer loop
     vertex -1.037989e-01  1.269841e-01  2.989359e-02
     vertex -8.927979e-02  1.269841e-01  3.024166e-02
     vertex -1.025447e-01  9.841270e-01  3.005886e-02
   endloop
 endfacet
 facet normal -4.647232e-01  1.089236e-04  8.854560e-01
   outer loop
     vertex -1.178399e-01  1.269841e-01  2.618174e-02
     vertex -1.170760e-01  9.841270e-01  2.647723e-02
     vertex -1.303278e-01  9.841270e-01  1.952214e-02
   endloop
 endfacet
 facet normal -2.555789e-01 -1.055130e-04  9.667882e-01
   outer loop
     vertex -1.178399e-01  1.269841e-01  2.618174e-02
     vertex -1.037989e-01  1.269841e-01  2.989359e-02
     vertex -1.170760e-01  9.841270e-01  2.647723e-02
   endloop
 endfacet
 facet normal -6.631227e-01  5.117288e-05  7.485107e-01
   outer loop
     vertex -1.306342e-01  1.269841e-01  1.930925e-02
     vertex -1.303278e-01  9.841270e-01  1.952214e-02
     vertex -1.415301e-01  9.841270e-01  9.597771e-03
   endloop
 endfacet
 facet normal -4.732038e-01 -4.961986e-05  8.809530e-01
   outer loop
     vertex -1.306342e-01  1.269841e-01  1.930925e-02
     vertex -1.178399e-01  1.269841e-01  2.618174e-02
     vertex -1.303278e-01  9.841270e-01  1.952214e-02
   endloop
 endfacet
 facet normal -6.649311e-01  9.987618e-06  7.469047e-01
   outer loop
     vertex -1.414818e-01  1.269841e-01  9.652253e-03
     vertex -1.306342e-01  1.269841e-01  1.930925e-02
     vertex -1.415301e-01  9.841270e-01  9.597771e-03
   endloop
 endfacet
 facet normal -8.202678e-01 -9.888636e-06  5.719796e-01
   outer loop
     vertex -1.497888e-01  1.269841e-01 -2.260749e-03
     vertex -1.414818e-01  1.269841e-01  9.652253e-03
     vertex -1.415301e-01  9.841270e-01  9.597771e-03
   endloop
 endfacet
 facet normal -8.229839e-01  7.044288e-05  5.680647e-01
   outer loop
     vertex -1.497888e-01  1.269841e-01 -2.260749e-03
     vertex -1.415301e-01  9.841270e-01  9.597771e-03
     vertex -1.500318e-01  9.841270e-01 -2.719093e-03
   endloop
 endfacet
 facet normal -9.307127e-01 -6.828334e-05  3.657511e-01
   outer loop
     vertex -1.551007e-01  1.269841e-01 -1.577778e-02
     vertex -1.497888e-01  1.269841e-01 -2.260749e-03
     vertex -1.500318e-01  9.841270e-01 -2.719093e-03
   endloop
 endfacet
 facet normal -9.350162e-01  1.269803e-04  3.546049e-01
   outer loop
     vertex -1.551007e-01  1.269841e-01 -1.577778e-02
     vertex -1.500318e-01  9.841270e-01 -2.719093e-03
     vertex -1.553389e-01  9.841270e-01 -1.671265e-02
   endloop
 endfacet
 facet normal -9.902213e-01 -1.229628e-04  1.395056e-01
   outer loop
     vertex -1.571268e-01  1.269841e-01 -3.015906e-02
     vertex -1.551007e-01  1.269841e-01 -1.577778e-02
     vertex -1.553389e-01  9.841270e-01 -1.671265e-02
   endloop
 endfacet
 facet normal -9.927089e-01  1.798011e-04  1.205367e-01
   outer loop
     vertex -1.571268e-01  1.269841e-01 -3.015906e-02
     vertex -1.553389e-01  9.841270e-01 -1.671265e-02
     vertex -1.571428e-01  9.841270e-01 -3.156963e-02
   endloop
 endfacet
 facet normal -9.955367e-01 -1.739242e-04 -9.437475e-02
   outer loop
     vertex -1.557562e-01  1.269841e-01 -4.461755e-02
     vertex -1.571268e-01  1.269841e-01 -3.015906e-02
     vertex -1.571428e-01  9.841270e-01 -3.156963e-02
   endloop
 endfacet
 facet normal -9.927088e-01  2.289024e-04 -1.205367e-01
   outer loop
     vertex -1.557562e-01  1.269841e-01 -4.461755e-02
     vertex -1.571428e-01  9.841270e-01 -3.156963e-02
     vertex -1.553389e-01  9.841270e-01 -4.642662e-02
   endloop
 endfacet
 facet normal -9.463682e-01 -2.211648e-04 -3.230901e-01
   outer loop
     vertex -1.510638e-01  1.269841e-01 -5.836194e-02
     vertex -1.557562e-01  1.269841e-01 -4.461755e-02
     vertex -1.553389e-01  9.841270e-01 -4.642662e-02
   endloop
 endfacet
 facet normal -9.350162e-01  2.742818e-04 -3.546049e-01
   outer loop
     vertex -1.510638e-01  1.269841e-01 -5.836194e-02
     vertex -1.553389e-01  9.841270e-01 -4.642662e-02
     vertex -1.500318e-01  9.841270e-01 -6.042017e-02
   endloop
 endfacet
 facet normal -8.229838e-01  3.159368e-04 -5.680647e-01
   outer loop
     vertex -1.433066e-01  1.269841e-01 -7.064004e-02
     vertex -1.500318e-01  9.841270e-01 -6.042017e-02
     vertex -1.415301e-01  9.841270e-01 -7.273704e-02
   endloop
 endfacet
 facet normal -8.454065e-01 -2.646823e-04 -5.341234e-01
   outer loop
     vertex -1.433066e-01  1.269841e-01 -7.064004e-02
     vertex -1.510638e-01  1.269841e-01 -5.836194e-02
     vertex -1.500318e-01  9.841270e-01 -6.042017e-02
   endloop
 endfacet
 facet normal -6.981772e-01 -3.044744e-04 -7.159249e-01
   outer loop
     vertex -1.329090e-01  1.269841e-01 -8.077989e-02
     vertex -1.433066e-01  1.269841e-01 -7.064004e-02
     vertex -1.415301e-01  9.841270e-01 -7.273704e-02
   endloop
 endfacet
 facet normal -6.631226e-01  3.538655e-04 -7.485107e-01
   outer loop
     vertex -1.329090e-01  1.269841e-01 -8.077989e-02
     vertex -1.415301e-01  9.841270e-01 -7.273704e-02
     vertex -1.303278e-01  9.841270e-01 -8.266140e-02
   endloop
 endfacet
 facet normal -4.647231e-01  3.880657e-04 -8.854560e-01
   outer loop
     vertex -1.204401e-01  1.269841e-01 -8.822654e-02
     vertex -1.303278e-01  9.841270e-01 -8.266140e-02
     vertex -1.170760e-01  9.841270e-01 -8.961650e-02
   endloop
 endfacet
 facet normal -5.127379e-01 -3.405391e-04 -8.585451e-01
   outer loop
     vertex -1.204401e-01  1.269841e-01 -8.822654e-02
     vertex -1.329090e-01  1.269841e-01 -8.077989e-02
     vertex -1.303278e-01  9.841270e-01 -8.266140e-02
   endloop
 endfacet
 facet normal -2.393156e-01  4.185358e-04 -9.709417e-01
   outer loop
     vertex -1.065822e-01  1.269841e-01 -9.257245e-02
     vertex -1.170760e-01  9.841270e-01 -8.961650e-02
     vertex -1.025447e-01  9.841270e-01 -9.319812e-02
   endloop
 endfacet
 facet normal -2.992373e-01 -3.728745e-04 -9.541787e-01
   outer loop
     vertex -1.065822e-01  1.269841e-01 -9.257245e-02
     vertex -1.204401e-01  1.269841e-01 -8.822654e-02
     vertex -1.170760e-01  9.841270e-01 -8.961650e-02
   endloop
 endfacet
 facet normal -1.850940e-15  4.452741e-04 -9.999999e-01
   outer loop
     vertex -9.209391e-02  1.269841e-01 -9.357979e-02
     vertex -1.025447e-01  9.841270e-01 -9.319812e-02
     vertex -8.757864e-02  9.841270e-01 -9.319812e-02
   endloop
 endfacet
 facet normal -6.935993e-02 -4.014788e-04 -9.975916e-01
   outer loop
     vertex -9.209391e-02  1.269841e-01 -9.357979e-02
     vertex -1.065822e-01  1.269841e-01 -9.257245e-02
     vertex -1.025447e-01  9.841270e-01 -9.319812e-02
   endloop
 endfacet
 facet normal  2.393156e-01  5.076903e-04 -9.709417e-01
   outer loop
     vertex -7.877866e-02  1.269841e-01 -9.147731e-02
     vertex -8.757864e-02  9.841270e-01 -9.319812e-02
     vertex -7.304742e-02  9.841270e-01 -8.961650e-02
   endloop
 endfacet
 facet normal  1.559675e-01 -3.817836e-04 -9.877621e-01
   outer loop
     vertex -7.877866e-02  1.269841e-01 -9.147731e-02
     vertex -9.209391e-02  1.269841e-01 -9.357979e-02
     vertex -8.757864e-02  9.841270e-01 -9.319812e-02
   endloop
 endfacet
 facet normal  4.647231e-01  5.280767e-04 -8.854559e-01
   outer loop
     vertex -6.623114e-02  1.269841e-01 -8.655023e-02
     vertex -7.304742e-02  9.841270e-01 -8.961650e-02
     vertex -5.979559e-02  9.841270e-01 -8.266140e-02
   endloop
 endfacet
 facet normal  3.655042e-01 -4.231879e-04 -9.308096e-01
   outer loop
     vertex -6.623114e-02  1.269841e-01 -8.655023e-02
     vertex -7.877866e-02  1.269841e-01 -9.147731e-02
     vertex -7.304742e-02  9.841270e-01 -8.961650e-02
   endloop
 endfacet
 facet normal  5.578077e-01 -4.225534e-04 -8.299701e-01
   outer loop
     vertex -5.504297e-02  1.269841e-01 -7.903086e-02
     vertex -6.623114e-02  1.269841e-01 -8.655023e-02
     vertex -5.979559e-02  9.841270e-01 -8.266140e-02
   endloop
 endfacet
 facet normal  6.631226e-01  5.064213e-04 -7.485107e-01
   outer loop
     vertex -5.504297e-02  1.269841e-01 -7.903086e-02
     vertex -5.979559e-02  9.841270e-01 -8.266140e-02
     vertex -4.859330e-02  9.841270e-01 -7.273704e-02
   endloop
 endfacet
 facet normal  8.229838e-01  4.427369e-04 -5.680647e-01
   outer loop
     vertex -4.574164e-02  1.269841e-01 -6.927373e-02
     vertex -4.859330e-02  9.841270e-01 -7.273704e-02
     vertex -4.009158e-02  9.841270e-01 -6.042017e-02
   endloop
 endfacet
 facet normal  7.238110e-01 -3.798803e-04 -6.899982e-01
   outer loop
     vertex -4.574164e-02  1.269841e-01 -6.927373e-02
     vertex -5.504297e-02  1.269841e-01 -7.903086e-02
     vertex -4.859330e-02  9.841270e-01 -7.273704e-02
   endloop
 endfacet
 facet normal  9.350162e-01  3.370602e-04 -3.546049e-01
   outer loop
     vertex -3.876571e-02  1.269841e-01 -5.773888e-02
     vertex -4.009158e-02  9.841270e-01 -6.042017e-02
     vertex -3.478453e-02  9.841270e-01 -4.642662e-02
   endloop
 endfacet
 facet normal  8.556872e-01 -2.951936e-04 -5.174934e-01
   outer loop
     vertex -3.876571e-02  1.269841e-01 -5.773888e-02
     vertex -4.574164e-02  1.269841e-01 -6.927373e-02
     vertex -4.009158e-02  9.841270e-01 -6.042017e-02
   endloop
 endfacet
 facet normal  9.927089e-01  1.894527e-04 -1.205367e-01
   outer loop
     vertex -3.444410e-02  1.269841e-01 -4.497017e-02
     vertex -3.478453e-02  9.841270e-01 -4.642662e-02
     vertex -3.298056e-02  9.841270e-01 -3.156963e-02
   endloop
 endfacet
 facet normal  9.472183e-01 -1.685423e-04 -3.205891e-01
   outer loop
     vertex -3.444410e-02  1.269841e-01 -4.497017e-02
     vertex -3.876571e-02  1.269841e-01 -5.773888e-02
     vertex -3.478453e-02  9.841270e-01 -4.642662e-02
   endloop
 endfacet
 facet normal  9.940889e-01  0.000000e+00 -1.085694e-01
   outer loop
     vertex -3.298056e-02  1.269841e-01 -3.156963e-02
     vertex -3.444410e-02  1.269841e-01 -4.497017e-02
     vertex -3.298056e-02  9.841270e-01 -3.156963e-02
   endloop
 endfacet
 facet normal  0.000000e+00  1.000000e+00  0.000000e+00
   outer loop
     vertex -4.859330e-02  9.841270e-01  9.597771e-03
     vertex -3.478453e-02  9.841270e-01 -1.671265e-02
     vertex -3.298056e-02  9.841270e-01 -3.156963e-02
   endloop
 endfacet
 facet normal  0.000000e+00  1.000000e+00  0.000000e+00
   outer loop
     vertex -4.859330e-02  9.841270e-01  9.597771e-03
     vertex -4.009158e-02  9.841270e-01 -2.719093e-03
     vertex -3.478453e-02  9.841270e-01 -1.671265e-02
   endloop
 endfacet
 facet normal  0.000000e+00  1.000000e+00  0.000000e+00
   outer loop
     vertex -4.859330e-02  9.841270e-01  9.597771e-03
     vertex -7.304742e-02  9.841270e-01  2.647723e-02
     vertex -5.979559e-02  9.841270e-01  1.952214e-02
   endloop
 endfacet
 facet normal  0.000000e+00  1.000000e+00  0.000000e+00
   outer loop
     vertex -4.859330e-02  9.841270e-01  9.597771e-03
     vertex -8.757864e-02  9.841270e-01  3.005886e-02
     vertex -7.304742e-02  9.841270e-01  2.647723e-02
   endloop
 endfacet
 facet normal  0.000000e+00  1.000000e+00  0.000000e+00
   outer loop
     vertex -4.859330e-02  9.841270e-01  9.597771e-03
     vertex -1.025447e-01  9.841270e-01  3.005886e-02
     vertex -8.757864e-02  9.841270e-01  3.005886e-02
   endloop
 endfacet
 facet normal  0.000000e+00  1.000000e+00  0.000000e+00
   outer loop
     vertex -4.859330e-02  9.841270e-01  9.597771e-03
     vertex -1.170760e-01  9.841270e-01  2.647723e-02
     vertex -1.025447e-01  9.841270e-01  3.005886e-02
   endloop
 endfacet
 facet normal  0.000000e+00  1.000000e+00  0.000000e+00
   outer loop
     vertex -4.859330e-02  9.841270e-01  9.597771e-03
     vertex -1.303278e-01  9.841270e-01  1.952214e-02
     vertex -1.170760e-01  9.841270e-01  2.647723e-02
   endloop
 endfacet
 facet normal  0.000000e+00  1.000000e+00  0.000000e+00
   outer loop
     vertex -4.859330e-02  9.841270e-01  9.597771e-03
     vertex -1.415301e-01  9.841270e-01  9.597771e-03
     vertex -1.303278e-01  9.841270e-01  1.952214e-02
   endloop
 endfacet
 facet normal  0.000000e+00  1.000000e+00  0.000000e+00
   outer loop
     vertex -4.859330e-02  9.841270e-01  9.597771e-03
     vertex -1.500318e-01  9.841270e-01 -2.719093e-03
     vertex -1.415301e-01  9.841270e-01  9.597771e-03
   endloop
 endfacet
 facet normal  0.000000e+00  1.000000e+00  0.000000e+00
   outer loop
     vertex -4.859330e-02  9.841270e-01  9.597771e-03
     vertex -1.553389e-01  9.841270e-01 -1.671265e-02
     vertex -1.500318e-01  9.841270e-01 -2.719093e-03
   endloop
 endfacet
 facet normal  0.000000e+00  1.000000e+00  0.000000e+00
   outer loop
     vertex -4.859330e-02  9.841270e-01  9.597771e-03
     vertex -1.571428e-01  9.841270e-01 -3.156963e-02
     vertex -1.553389e-01  9.841270e-01 -1.671265e-02
   endloop
 endfacet
 facet normal  0.000000e+00  1.000000e+00  0.000000e+00
   outer loop
     vertex -4.859330e-02  9.841270e-01  9.597771e-03
     vertex -1.553389e-01  9.841270e-01 -4.642662e-02
     vertex -1.571428e-01  9.841270e-01 -3.156963e-02
   endloop
 endfacet
 facet normal  0.000000e+00  1.000000e+00  0.000000e+00
   outer loop
     vertex -4.859330e-02  9.841270e-01  9.597771e-03
     vertex -1.500318e-01  9.841270e-01 -6.042017e-02
     vertex -1.553389e-01  9.841270e-01 -4.642662e-02
   endloop
 endfacet
 facet normal  0.000000e+00  1.000000e+00  0.000000e+00
   outer loop
     vertex -4.859330e-02  9.841270e-01  9.597771e-03
     vertex -1.415301e-01  9.841270e-01 -7.273704e-02
     vertex -1.500318e-01  9.841270e-01 -6.042017e-02
   endloop
 endfacet
 facet normal  0.000000e+00  1.000000e+00  0.000000e+00
   outer loop
     vertex -4.859330e-02  9.841270e-01  9.597771e-03
     vertex -1.303278e-01  9.841270e-01 -8.266140e-02
     vertex -1.415301e-01  9.841270e-01 -7.273704e-02
   endloop
 endfacet
 facet normal  0.000000e+00  1.000000e+00  0.000000e+00
   outer loop
     vertex -4.859330e-02  9.841270e-01  9.597771e-03
     vertex -1.170760e-01  9.841270e-01 -8.961650e-02
     vertex -1.303278e-01  9.841270e-01 -8.266140e-02
   endloop
 endfacet
 facet normal  0.000000e+00  1.000000e+00  0.000000e+00
   outer loop
     vertex -4.859330e-02  9.841270e-01  9.597771e-03
     vertex -1.025447e-01  9.841270e-01 -9.319812e-02
     vertex -1.170760e-01  9.841270e-01 -8.961650e-02
   endloop
 endfacet
 facet normal  0.000000e+00  1.000000e+00  0.000000e+00
   outer loop
     vertex -4.859330e-02  9.841270e-01  9.597771e-03
     vertex -8.757864e-02  9.841270e-01 -9.319812e-02
     vertex -1.025447e-01  9.841270e-01 -9.319812e-02
   endloop
 endfacet
 facet normal  0.000000e+00  1.000000e+00  0.000000e+00
   outer loop
     vertex -4.859330e-02  9.841270e-01  9.597771e-03
     vertex -7.304742e-02  9.841270e-01 -8.961650e-02
     vertex -8.757864e-02  9.841270e-01 -9.319812e-02
   endloop
 endfacet
 facet normal  0.000000e+00  1.000000e+00  0.000000e+00
   outer loop
     vertex -4.859330e-02  9.841270e-01  9.597771e-03
     vertex -5.979559e-02  9.841270e-01 -8.266140e-02
     vertex -7.304742e-02  9.841270e-01 -8.961650e-02
   endloop
 endfacet
 facet normal  0.000000e+00  1.000000e+00  0.000000e+00
   outer loop
     vertex -4.859330e-02  9.841270e-01  9.597771e-03
     vertex -4.859330e-02  9.841270e-01 -7.273704e-02
     vertex -5.979559e-02  9.841270e-01 -8.266140e-02
   endloop
 endfacet
 facet normal  0.000000e+00  1.000000e+00  0.000000e+00
   outer loop
     vertex -4.859330e-02  9.841270e-01  9.597771e-03
     vertex -4.009158e-02  9.841270e-01 -6.042017e-02
     vertex -4.859330e-02  9.841270e-01 -7.273704e-02
   endloop
 endfacet
 facet normal  0.000000e+00  1.000000e+00  0.000000e+00
   outer loop
     vertex -4.859330e-02  9.841270e-01  9.597771e-03
     vertex -3.478453e-02  9.841270e-01 -4.642662e-02
     vertex -4.009158e-02  9.841270e-01 -6.042017e-02
   endloop
 endfacet
 facet normal  0.000000e+00  1.000000e+00  0.000000e+00
   outer loop
     vertex -4.859330e-02  9.841270e-01  9.597771e-03
     vertex -3.298056e-02  9.841270e-01 -3.156963e-02
     vertex -3.478453e-02  9.841270e-01 -4.642662e-02
   endloop
 endfacet
endsolid
