solid 
 facet normal -0.000000e+00  0.000000e+00 -1.000000e+00
   outer loop
     vertex  7.349207e-01 -1.587302e-02 -1.019577e+00
     vertex -4.883598e-01 -9.523815e-02 -1.019577e+00
     vertex -4.883598e-01 -1.587302e-02 -1.019577e+00
   endloop
 endfacet
 facet normal  0.000000e+00 -0.000000e+00 -1.000000e+00
   outer loop
     vertex  7.349207e-01 -1.587302e-02 -1.019577e+00
     vertex  7.349207e-01 -9.523815e-02 -1.019577e+00
     vertex -4.883598e-01 -9.523815e-02 -1.019577e+00
   endloop
 endfacet
 facet normal -1.000000e+00  0.000000e+00  0.000000e+00
   outer loop
     vertex -4.883598e-01 -1.587302e-02 -1.019577e+00
     vertex -4.883598e-01 -9.523815e-02 -8.396825e-01
     vertex -4.883598e-01 -1.587302e-02 -8.396825e-01
   endloop
 endfacet
 facet normal -1.000000e+00  0.000000e+00  0.000000e+00
   outer loop
     vertex -4.883598e-01 -1.587302e-02 -1.019577e+00
     vertex -4.883598e-01 -9.523815e-02 -1.019577e+00
     vertex -4.883598e-01 -9.523815e-02 -8.396825e-01
   endloop
 endfacet
 facet normal  1.000000e+00  0.000000e+00  0.000000e+00
   outer loop
     vertex  7.349207e-01 -1.587302e-02  9.232805e-01
     vertex  7.349207e-01 -9.523815e-02 -1.019577e+00
     vertex  7.349207e-01 -1.587302e-02 -1.019577e+00
   endloop
 endfacet
 facet normal  1.000000e+00  0.000000e+00  0.000000e+00
   outer loop
     vertex  7.349207e-01 -1.587302e-02  9.232805e-01
     vertex  7.349207e-01 -9.523815e-02  9.232805e-01
     vertex  7.349207e-01 -9.523815e-02 -1.019577e+00
   endloop
 endfacet
 facet normal  0.000000e+00  0.000000e+00 -1.000000e+00
   outer loop
     vertex  7.349207e-01 -1.587302e-02 -1.019577e+00
     vertex -4.883598e-01 -1.587302e-02 -1.019577e+00
     vertex -4.883598e-01  0.000000e+00 -1.019577e+00
   endloop
 endfacet
 facet normal  0.000000e+00  0.000000e+00 -1.000000e+00
   outer loop
     vertex  7.349207e-01 -1.587302e-02 -1.019577e+00
     vertex -4.883598e-01  0.000000e+00 -1.019577e+00
     vertex  7.349207e-01  0.000000e+00 -1.019577e+00
   endloop
 endfacet
 facet normal -0.000000e+00 -1.000000e+00  0.000000e+00
   outer loop
     vertex -4.470595e-01 -9.523815e-02 -9.920340e-01
     vertex -4.567979e-01 -9.523815e-02 -9.834066e-01
     vertex -4.883598e-01 -9.523815e-02 -1.019577e+00
   endloop
 endfacet
 facet normal  0.000000e+00 -1.000000e+00 -0.000000e+00
   outer loop
     vertex -4.641886e-01 -9.523815e-02 -9.726993e-01
     vertex -4.883598e-01 -9.523815e-02 -1.019577e+00
     vertex -4.567979e-01 -9.523815e-02 -9.834066e-01
   endloop
 endfacet
 facet normal -0.000000e+00 -1.000000e+00  0.000000e+00
   outer loop
     vertex -4.355395e-01 -9.523815e-02 -9.980802e-01
     vertex -4.470595e-01 -9.523815e-02 -9.920340e-01
     vertex -4.883598e-01 -9.523815e-02 -1.019577e+00
   endloop
 endfacet
 facet normal  0.000000e+00 -1.000000e+00 -0.000000e+00
   outer loop
     vertex -4.688021e-01 -9.523815e-02 -9.605345e-01
     vertex -4.883598e-01 -9.523815e-02 -1.019577e+00
     vertex -4.641886e-01 -9.523815e-02 -9.726993e-01
   endloop
 endfacet
 facet normal -0.000000e+00 -1.000000e+00  0.000000e+00
   outer loop
     vertex -4.229072e-01 -9.523815e-02 -1.001194e+00
     vertex -4.355395e-01 -9.523815e-02 -9.980802e-01
     vertex -4.883598e-01 -9.523815e-02 -1.019577e+00
   endloop
 endfacet
 facet normal  0.000000e+00 -1.000000e+00 -0.000000e+00
   outer loop
     vertex -4.703703e-01 -9.523815e-02 -9.476190e-01
     vertex -4.883598e-01 -9.523815e-02 -1.019577e+00
     vertex -4.688021e-01 -9.523815e-02 -9.605345e-01
   endloop
 endfacet
 facet normal -0.000000e+00 -1.000000e+00  0.000000e+00
   outer loop
     vertex -4.098969e-01 -9.523815e-02 -1.001194e+00
     vertex -4.229072e-01 -9.523815e-02 -1.001194e+00
     vertex -4.883598e-01 -9.523815e-02 -1.019577e+00
   endloop
 endfacet
 facet normal  0.000000e+00 -1.000000e+00  0.000000e+00
   outer loop
     vertex -4.883598e-01 -9.523815e-02 -8.396825e-01
     vertex -4.470595e-01 -9.523815e-02 -9.032040e-01
     vertex -4.355395e-01 -9.523815e-02 -8.971578e-01
   endloop
 endfacet
 facet normal  0.000000e+00 -1.000000e+00  0.000000e+00
   outer loop
     vertex -4.883598e-01 -9.523815e-02 -8.396825e-01
     vertex -4.567979e-01 -9.523815e-02 -9.118314e-01
     vertex -4.470595e-01 -9.523815e-02 -9.032040e-01
   endloop
 endfacet
 facet normal  0.000000e+00 -1.000000e+00  0.000000e+00
   outer loop
     vertex -4.883598e-01 -9.523815e-02 -8.396825e-01
     vertex -4.641886e-01 -9.523815e-02 -9.225387e-01
     vertex -4.567979e-01 -9.523815e-02 -9.118314e-01
   endloop
 endfacet
 facet normal  0.000000e+00 -1.000000e+00  0.000000e+00
   outer loop
     vertex -4.883598e-01 -9.523815e-02 -8.396825e-01
     vertex -4.688021e-01 -9.523815e-02 -9.347036e-01
     vertex -4.641886e-01 -9.523815e-02 -9.225387e-01
   endloop
 endfacet
 facet normal  0.000000e+00 -1.000000e+00  0.000000e+00
   outer loop
     vertex -4.883598e-01 -9.523815e-02 -8.396825e-01
     vertex -4.703703e-01 -9.523815e-02 -9.476190e-01
     vertex -4.688021e-01 -9.523815e-02 -9.347036e-01
   endloop
 endfacet
 facet normal  0.000000e+00 -1.000000e+00  0.000000e+00
   outer loop
     vertex -4.883598e-01 -9.523815e-02 -8.396825e-01
     vertex -4.883598e-01 -9.523815e-02 -1.019577e+00
     vertex -4.703703e-01 -9.523815e-02 -9.476190e-01
   endloop
 endfacet
 facet normal -0.000000e+00 -1.000000e+00  0.000000e+00
   outer loop
     vertex -4.229072e-01 -9.523815e-02 -8.940443e-01
     vertex -4.883598e-01 -9.523815e-02 -8.396825e-01
     vertex -4.355395e-01 -9.523815e-02 -8.971578e-01
   endloop
 endfacet
 facet normal  0.000000e+00 -1.000000e+00  0.000000e+00
   outer loop
     vertex -4.098969e-01 -9.523815e-02 -8.940443e-01
     vertex -4.883598e-01 -9.523815e-02 -8.396825e-01
     vertex -4.229072e-01 -9.523815e-02 -8.940443e-01
   endloop
 endfacet
 facet normal  0.000000e+00 -1.000000e+00  0.000000e+00
   outer loop
     vertex -3.972647e-01 -9.523815e-02 -8.971578e-01
     vertex -4.883598e-01 -9.523815e-02 -8.396825e-01
     vertex -4.098969e-01 -9.523815e-02 -8.940443e-01
   endloop
 endfacet
 facet normal  0.000000e+00 -1.000000e+00  0.000000e+00
   outer loop
     vertex -3.857446e-01 -9.523815e-02 -9.032040e-01
     vertex -4.883598e-01 -9.523815e-02 -8.396825e-01
     vertex -3.972647e-01 -9.523815e-02 -8.971578e-01
   endloop
 endfacet
 facet normal  0.000000e+00 -1.000000e+00  0.000000e+00
   outer loop
     vertex  7.349207e-01 -9.523815e-02 -1.019577e+00
     vertex -3.640020e-01 -9.523815e-02 -9.347036e-01
     vertex -3.624338e-01 -9.523815e-02 -9.476190e-01
   endloop
 endfacet
 facet normal  0.000000e+00 -1.000000e+00  0.000000e+00
   outer loop
     vertex  7.349207e-01 -9.523815e-02 -1.019577e+00
     vertex -3.686155e-01 -9.523815e-02 -9.225387e-01
     vertex -3.640020e-01 -9.523815e-02 -9.347036e-01
   endloop
 endfacet
 facet normal  0.000000e+00 -1.000000e+00  0.000000e+00
   outer loop
     vertex  7.349207e-01 -9.523815e-02 -1.019577e+00
     vertex -3.760062e-01 -9.523815e-02 -9.118314e-01
     vertex -3.686155e-01 -9.523815e-02 -9.225387e-01
   endloop
 endfacet
 facet normal  0.000000e+00 -1.000000e+00  0.000000e+00
   outer loop
     vertex  7.349207e-01 -9.523815e-02 -1.019577e+00
     vertex -3.857446e-01 -9.523815e-02 -9.032040e-01
     vertex -3.760062e-01 -9.523815e-02 -9.118314e-01
   endloop
 endfacet
 facet normal  0.000000e+00 -1.000000e+00  0.000000e+00
   outer loop
     vertex  7.349207e-01 -9.523815e-02 -1.019577e+00
     vertex -3.972647e-01 -9.523815e-02 -9.980802e-01
     vertex -4.098969e-01 -9.523815e-02 -1.001194e+00
   endloop
 endfacet
 facet normal  0.000000e+00 -1.000000e+00  0.000000e+00
   outer loop
     vertex  7.349207e-01 -9.523815e-02 -1.019577e+00
     vertex -3.857446e-01 -9.523815e-02 -9.920340e-01
     vertex -3.972647e-01 -9.523815e-02 -9.980802e-01
   endloop
 endfacet
 facet normal  0.000000e+00 -1.000000e+00  0.000000e+00
   outer loop
     vertex  7.349207e-01 -9.523815e-02 -1.019577e+00
     vertex -3.760062e-01 -9.523815e-02 -9.834066e-01
     vertex -3.857446e-01 -9.523815e-02 -9.920340e-01
   endloop
 endfacet
 facet normal  0.000000e+00 -1.000000e+00  0.000000e+00
   outer loop
     vertex  7.349207e-01 -9.523815e-02 -1.019577e+00
     vertex -3.686155e-01 -9.523815e-02 -9.726993e-01
     vertex -3.760062e-01 -9.523815e-02 -9.834066e-01
   endloop
 endfacet
 facet normal  0.000000e+00 -1.000000e+00  0.000000e+00
   outer loop
     vertex  7.349207e-01 -9.523815e-02 -1.019577e+00
     vertex -3.640020e-01 -9.523815e-02 -9.605345e-01
     vertex -3.686155e-01 -9.523815e-02 -9.726993e-01
   endloop
 endfacet
 facet normal  0.000000e+00 -1.000000e+00  0.000000e+00
   outer loop
     vertex  7.349207e-01 -9.523815e-02 -1.019577e+00
     vertex -3.624338e-01 -9.523815e-02 -9.476190e-01
     vertex -3.640020e-01 -9.523815e-02 -9.605345e-01
   endloop
 endfacet
 facet normal  0.000000e+00 -1.000000e+00  0.000000e+00
   outer loop
     vertex  7.349207e-01 -9.523815e-02 -1.019577e+00
     vertex -4.098969e-01 -9.523815e-02 -1.001194e+00
     vertex -4.883598e-01 -9.523815e-02 -1.019577e+00
   endloop
 endfacet
 facet normal  0.000000e+00 -1.000000e+00  0.000000e+00
   outer loop
     vertex -4.883598e-01 -9.523815e-02  7.433863e-01
     vertex -4.883598e-01 -9.523815e-02 -8.396825e-01
     vertex -3.857446e-01 -9.523815e-02 -9.032040e-01
   endloop
 endfacet
 facet normal -0.000000e+00 -1.000000e+00  0.000000e+00
   outer loop
     vertex -4.470595e-01 -9.523815e-02  8.069078e-01
     vertex -4.567979e-01 -9.523815e-02  8.155352e-01
     vertex -4.883598e-01 -9.523815e-02  7.433863e-01
   endloop
 endfacet
 facet normal  0.000000e+00 -1.000000e+00 -0.000000e+00
   outer loop
     vertex -4.641886e-01 -9.523815e-02  8.262425e-01
     vertex -4.883598e-01 -9.523815e-02  7.433863e-01
     vertex -4.567979e-01 -9.523815e-02  8.155352e-01
   endloop
 endfacet
 facet normal -0.000000e+00 -1.000000e+00  0.000000e+00
   outer loop
     vertex -4.355395e-01 -9.523815e-02  8.008616e-01
     vertex -4.470595e-01 -9.523815e-02  8.069078e-01
     vertex -4.883598e-01 -9.523815e-02  7.433863e-01
   endloop
 endfacet
 facet normal  0.000000e+00 -1.000000e+00 -0.000000e+00
   outer loop
     vertex -4.688021e-01 -9.523815e-02  8.384073e-01
     vertex -4.883598e-01 -9.523815e-02  7.433863e-01
     vertex -4.641886e-01 -9.523815e-02  8.262425e-01
   endloop
 endfacet
 facet normal -0.000000e+00 -1.000000e+00  0.000000e+00
   outer loop
     vertex -4.229072e-01 -9.523815e-02  7.977480e-01
     vertex -4.355395e-01 -9.523815e-02  8.008616e-01
     vertex -4.883598e-01 -9.523815e-02  7.433863e-01
   endloop
 endfacet
 facet normal  0.000000e+00 -1.000000e+00 -0.000000e+00
   outer loop
     vertex -4.703703e-01 -9.523815e-02  8.513228e-01
     vertex -4.883598e-01 -9.523815e-02  7.433863e-01
     vertex -4.688021e-01 -9.523815e-02  8.384073e-01
   endloop
 endfacet
 facet normal -0.000000e+00 -1.000000e+00  0.000000e+00
   outer loop
     vertex -4.098969e-01 -9.523815e-02  7.977480e-01
     vertex -4.229072e-01 -9.523815e-02  7.977480e-01
     vertex -4.883598e-01 -9.523815e-02  7.433863e-01
   endloop
 endfacet
 facet normal  0.000000e+00 -1.000000e+00  0.000000e+00
   outer loop
     vertex -3.972647e-01 -9.523815e-02  8.008616e-01
     vertex -4.098969e-01 -9.523815e-02  7.977480e-01
     vertex -4.883598e-01 -9.523815e-02  7.433863e-01
   endloop
 endfacet
 facet normal  0.000000e+00 -1.000000e+00 -0.000000e+00
   outer loop
     vertex -3.857446e-01 -9.523815e-02  8.069078e-01
     vertex -4.883598e-01 -9.523815e-02  7.433863e-01
     vertex -3.857446e-01 -9.523815e-02 -9.032040e-01
   endloop
 endfacet
 facet normal  0.000000e+00 -1.000000e+00  0.000000e+00
   outer loop
     vertex -3.857446e-01 -9.523815e-02  8.069078e-01
     vertex -3.972647e-01 -9.523815e-02  8.008616e-01
     vertex -4.883598e-01 -9.523815e-02  7.433863e-01
   endloop
 endfacet
 facet normal  0.000000e+00 -1.000000e+00  0.000000e+00
   outer loop
     vertex -4.883598e-01 -9.523815e-02  9.232805e-01
     vertex -4.883598e-01 -9.523815e-02  7.433863e-01
     vertex -4.703703e-01 -9.523815e-02  8.513228e-01
   endloop
 endfacet
 facet normal  0.000000e+00 -1.000000e+00  0.000000e+00
   outer loop
     vertex -4.883598e-01 -9.523815e-02  9.232805e-01
     vertex -4.641886e-01 -9.523815e-02  8.764031e-01
     vertex -4.567979e-01 -9.523815e-02  8.871104e-01
   endloop
 endfacet
 facet normal  0.000000e+00 -1.000000e+00  0.000000e+00
   outer loop
     vertex -4.883598e-01 -9.523815e-02  9.232805e-01
     vertex -4.688021e-01 -9.523815e-02  8.642382e-01
     vertex -4.641886e-01 -9.523815e-02  8.764031e-01
   endloop
 endfacet
 facet normal  0.000000e+00 -1.000000e+00  0.000000e+00
   outer loop
     vertex -4.883598e-01 -9.523815e-02  9.232805e-01
     vertex -4.703703e-01 -9.523815e-02  8.513228e-01
     vertex -4.688021e-01 -9.523815e-02  8.642382e-01
   endloop
 endfacet
 facet normal -0.000000e+00 -1.000000e+00  0.000000e+00
   outer loop
     vertex -4.470595e-01 -9.523815e-02  8.957378e-01
     vertex -4.883598e-01 -9.523815e-02  9.232805e-01
     vertex -4.567979e-01 -9.523815e-02  8.871104e-01
   endloop
 endfacet
 facet normal -0.000000e+00 -1.000000e+00  0.000000e+00
   outer loop
     vertex -4.355395e-01 -9.523815e-02  9.017840e-01
     vertex -4.883598e-01 -9.523815e-02  9.232805e-01
     vertex -4.470595e-01 -9.523815e-02  8.957378e-01
   endloop
 endfacet
 facet normal -0.000000e+00 -1.000000e+00  0.000000e+00
   outer loop
     vertex -4.229072e-01 -9.523815e-02  9.048976e-01
     vertex -4.883598e-01 -9.523815e-02  9.232805e-01
     vertex -4.355395e-01 -9.523815e-02  9.017840e-01
   endloop
 endfacet
 facet normal  0.000000e+00 -1.000000e+00  0.000000e+00
   outer loop
     vertex -4.098969e-01 -9.523815e-02  9.048976e-01
     vertex -4.883598e-01 -9.523815e-02  9.232805e-01
     vertex -4.229072e-01 -9.523815e-02  9.048976e-01
   endloop
 endfacet
 facet normal  0.000000e+00 -1.000000e+00 -0.000000e+00
   outer loop
     vertex  1.232805e-01 -9.523815e-02  9.232805e-01
     vertex -3.857446e-01 -9.523815e-02 -9.032040e-01
     vertex  7.349207e-01 -9.523815e-02 -1.019577e+00
   endloop
 endfacet
 facet normal  0.000000e+00 -1.000000e+00  0.000000e+00
   outer loop
     vertex  1.232805e-01 -9.523815e-02  9.232805e-01
     vertex -3.857446e-01 -9.523815e-02  8.069078e-01
     vertex -3.857446e-01 -9.523815e-02 -9.032040e-01
   endloop
 endfacet
 facet normal  0.000000e+00 -1.000000e+00  0.000000e+00
   outer loop
     vertex  1.232805e-01 -9.523815e-02  9.232805e-01
     vertex -3.640020e-01 -9.523815e-02  8.642382e-01
     vertex -3.624338e-01 -9.523815e-02  8.513228e-01
   endloop
 endfacet
 facet normal  0.000000e+00 -1.000000e+00  0.000000e+00
   outer loop
     vertex  1.232805e-01 -9.523815e-02  9.232805e-01
     vertex -3.686155e-01 -9.523815e-02  8.764031e-01
     vertex -3.640020e-01 -9.523815e-02  8.642382e-01
   endloop
 endfacet
 facet normal  0.000000e+00 -1.000000e+00  0.000000e+00
   outer loop
     vertex  1.232805e-01 -9.523815e-02  9.232805e-01
     vertex -3.760062e-01 -9.523815e-02  8.871104e-01
     vertex -3.686155e-01 -9.523815e-02  8.764031e-01
   endloop
 endfacet
 facet normal  0.000000e+00 -1.000000e+00  0.000000e+00
   outer loop
     vertex  1.232805e-01 -9.523815e-02  9.232805e-01
     vertex -3.857446e-01 -9.523815e-02  8.957378e-01
     vertex -3.760062e-01 -9.523815e-02  8.871104e-01
   endloop
 endfacet
 facet normal  0.000000e+00 -1.000000e+00  0.000000e+00
   outer loop
     vertex  1.232805e-01 -9.523815e-02  9.232805e-01
     vertex -3.972647e-01 -9.523815e-02  9.017840e-01
     vertex -3.857446e-01 -9.523815e-02  8.957378e-01
   endloop
 endfacet
 facet normal  0.000000e+00 -1.000000e+00  0.000000e+00
   outer loop
     vertex  1.232805e-01 -9.523815e-02  9.232805e-01
     vertex -4.098969e-01 -9.523815e-02  9.048976e-01
     vertex -3.972647e-01 -9.523815e-02  9.017840e-01
   endloop
 endfacet
 facet normal  0.000000e+00 -1.000000e+00  0.000000e+00
   outer loop
     vertex  1.232805e-01 -9.523815e-02  9.232805e-01
     vertex -3.760062e-01 -9.523815e-02  8.155352e-01
     vertex -3.857446e-01 -9.523815e-02  8.069078e-01
   endloop
 endfacet
 facet normal  0.000000e+00 -1.000000e+00  0.000000e+00
   outer loop
     vertex  1.232805e-01 -9.523815e-02  9.232805e-01
     vertex -3.686155e-01 -9.523815e-02  8.262425e-01
     vertex -3.760062e-01 -9.523815e-02  8.155352e-01
   endloop
 endfacet
 facet normal  0.000000e+00 -1.000000e+00  0.000000e+00
   outer loop
     vertex  1.232805e-01 -9.523815e-02  9.232805e-01
     vertex -3.640020e-01 -9.523815e-02  8.384073e-01
     vertex -3.686155e-01 -9.523815e-02  8.262425e-01
   endloop
 endfacet
 facet normal  0.000000e+00 -1.000000e+00  0.000000e+00
   outer loop
     vertex  1.232805e-01 -9.523815e-02  9.232805e-01
     vertex -3.624338e-01 -9.523815e-02  8.513228e-01
     vertex -3.640020e-01 -9.523815e-02  8.384073e-01
   endloop
 endfacet
 facet normal -0.000000e+00 -1.000000e+00 -0.000000e+00
   outer loop
     vertex  7.349207e-01 -9.523815e-02  9.232805e-01
     vertex  1.232805e-01 -9.523815e-02  9.232805e-01
     vertex  7.349207e-01 -9.523815e-02 -1.019577e+00
   endloop
 endfacet
 facet normal -0.000000e+00 -1.000000e+00  0.000000e+00
   outer loop
     vertex  1.232805e-01 -9.523815e-02  9.232805e-01
     vertex -4.883598e-01 -9.523815e-02  9.232805e-01
     vertex -4.098969e-01 -9.523815e-02  9.048976e-01
   endloop
 endfacet
 facet normal -1.000000e+00  0.000000e+00  0.000000e+00
   outer loop
     vertex -4.883598e-01 -1.587302e-02 -8.396825e-01
     vertex -4.883598e-01 -9.523815e-02  7.433863e-01
     vertex -4.883598e-01 -1.587302e-02  7.433863e-01
   endloop
 endfacet
 facet normal -1.000000e+00  0.000000e+00  0.000000e+00
   outer loop
     vertex -4.883598e-01 -1.587302e-02 -8.396825e-01
     vertex -4.883598e-01 -9.523815e-02 -8.396825e-01
     vertex -4.883598e-01 -9.523815e-02  7.433863e-01
   endloop
 endfacet
 facet normal -1.000000e+00  0.000000e+00  0.000000e+00
   outer loop
     vertex -4.883598e-01 -1.587302e-02 -1.019577e+00
     vertex -4.883598e-01 -1.587302e-02 -8.396825e-01
     vertex -4.883598e-01  0.000000e+00 -8.396825e-01
   endloop
 endfacet
 facet normal -1.000000e+00  0.000000e+00  0.000000e+00
   outer loop
     vertex -4.883598e-01 -1.587302e-02 -1.019577e+00
     vertex -4.883598e-01  0.000000e+00 -8.396825e-01
     vertex -4.883598e-01  0.000000e+00 -1.019577e+00
   endloop
 endfacet
 facet normal -0.000000e+00  0.000000e+00  1.000000e+00
   outer loop
     vertex  1.232805e-01 -1.587302e-02  9.232805e-01
     vertex  7.349207e-01 -9.523815e-02  9.232805e-01
     vertex  7.349207e-01 -1.587302e-02  9.232805e-01
   endloop
 endfacet
 facet normal  0.000000e+00  0.000000e+00  1.000000e+00
   outer loop
     vertex  1.232805e-01 -1.587302e-02  9.232805e-01
     vertex  1.232805e-01 -9.523815e-02  9.232805e-01
     vertex  7.349207e-01 -9.523815e-02  9.232805e-01
   endloop
 endfacet
 facet normal  1.000000e+00  0.000000e+00  0.000000e+00
   outer loop
     vertex  7.349207e-01 -1.587302e-02  9.232805e-01
     vertex  7.349207e-01 -1.587302e-02 -1.019577e+00
     vertex  7.349207e-01  0.000000e+00 -1.019577e+00
   endloop
 endfacet
 facet normal  1.000000e+00 -0.000000e+00  0.000000e+00
   outer loop
     vertex  7.349207e-01 -1.587302e-02  9.232805e-01
     vertex  7.349207e-01  0.000000e+00 -1.019577e+00
     vertex  7.349207e-01  0.000000e+00  9.232805e-01
   endloop
 endfacet
 facet normal  0.000000e+00  1.000000e+00  0.000000e+00
   outer loop
     vertex -4.470595e-01 -3.469447e-18 -9.920340e-01
     vertex -4.883598e-01 -3.469447e-18 -1.019577e+00
     vertex -4.567979e-01 -3.469447e-18 -9.834066e-01
   endloop
 endfacet
 facet normal  0.000000e+00  1.000000e+00  0.000000e+00
   outer loop
     vertex -4.641886e-01 -3.469447e-18 -9.726993e-01
     vertex -4.567979e-01 -3.469447e-18 -9.834066e-01
     vertex -4.883598e-01 -3.469447e-18 -1.019577e+00
   endloop
 endfacet
 facet normal  0.000000e+00  1.000000e+00  0.000000e+00
   outer loop
     vertex -4.355395e-01 -3.469447e-18 -9.980802e-01
     vertex -4.883598e-01 -3.469447e-18 -1.019577e+00
     vertex -4.470595e-01 -3.469447e-18 -9.920340e-01
   endloop
 endfacet
 facet normal  0.000000e+00  1.000000e+00  0.000000e+00
   outer loop
     vertex -4.688021e-01 -3.469447e-18 -9.605345e-01
     vertex -4.641886e-01 -3.469447e-18 -9.726993e-01
     vertex -4.883598e-01 -3.469447e-18 -1.019577e+00
   endloop
 endfacet
 facet normal  0.000000e+00  1.000000e+00  0.000000e+00
   outer loop
     vertex -4.229072e-01 -3.469447e-18 -1.001194e+00
     vertex -4.883598e-01 -3.469447e-18 -1.019577e+00
     vertex -4.355395e-01 -3.469447e-18 -9.980802e-01
   endloop
 endfacet
 facet normal  0.000000e+00  1.000000e+00  0.000000e+00
   outer loop
     vertex -4.703703e-01 -3.469447e-18 -9.476190e-01
     vertex -4.688021e-01 -3.469447e-18 -9.605345e-01
     vertex -4.883598e-01 -3.469447e-18 -1.019577e+00
   endloop
 endfacet
 facet normal  0.000000e+00  1.000000e+00  0.000000e+00
   outer loop
     vertex -4.098969e-01 -3.469447e-18 -1.001194e+00
     vertex -4.883598e-01 -3.469447e-18 -1.019577e+00
     vertex -4.229072e-01 -3.469447e-18 -1.001194e+00
   endloop
 endfacet
 facet normal  0.000000e+00  1.000000e+00  0.000000e+00
   outer loop
     vertex -4.883598e-01 -3.469447e-18 -8.396825e-01
     vertex -4.355395e-01 -3.469447e-18 -8.971578e-01
     vertex -4.470595e-01 -3.469447e-18 -9.032040e-01
   endloop
 endfacet
 facet normal  0.000000e+00  1.000000e+00  0.000000e+00
   outer loop
     vertex -4.883598e-01 -3.469447e-18 -8.396825e-01
     vertex -4.470595e-01 -3.469447e-18 -9.032040e-01
     vertex -4.567979e-01 -3.469447e-18 -9.118314e-01
   endloop
 endfacet
 facet normal  0.000000e+00  1.000000e+00  0.000000e+00
   outer loop
     vertex -4.883598e-01 -3.469447e-18 -8.396825e-01
     vertex -4.567979e-01 -3.469447e-18 -9.118314e-01
     vertex -4.641886e-01 -3.469447e-18 -9.225387e-01
   endloop
 endfacet
 facet normal  0.000000e+00  1.000000e+00  0.000000e+00
   outer loop
     vertex -4.883598e-01 -3.469447e-18 -8.396825e-01
     vertex -4.641886e-01 -3.469447e-18 -9.225387e-01
     vertex -4.688021e-01 -3.469447e-18 -9.347036e-01
   endloop
 endfacet
 facet normal  0.000000e+00  1.000000e+00  0.000000e+00
   outer loop
     vertex -4.883598e-01 -3.469447e-18 -8.396825e-01
     vertex -4.688021e-01 -3.469447e-18 -9.347036e-01
     vertex -4.703703e-01 -3.469447e-18 -9.476190e-01
   endloop
 endfacet
 facet normal  0.000000e+00  1.000000e+00  0.000000e+00
   outer loop
     vertex -4.883598e-01 -3.469447e-18 -8.396825e-01
     vertex -4.703703e-01 -3.469447e-18 -9.476190e-01
     vertex -4.883598e-01 -3.469447e-18 -1.019577e+00
   endloop
 endfacet
 facet normal  0.000000e+00  1.000000e+00  0.000000e+00
   outer loop
     vertex -4.229072e-01 -3.469447e-18 -8.940443e-01
     vertex -4.355395e-01 -3.469447e-18 -8.971578e-01
     vertex -4.883598e-01 -3.469447e-18 -8.396825e-01
   endloop
 endfacet
 facet normal  0.000000e+00  1.000000e+00  0.000000e+00
   outer loop
     vertex -4.098969e-01 -3.469447e-18 -8.940443e-01
     vertex -4.229072e-01 -3.469447e-18 -8.940443e-01
     vertex -4.883598e-01 -3.469447e-18 -8.396825e-01
   endloop
 endfacet
 facet normal  0.000000e+00  1.000000e+00  0.000000e+00
   outer loop
     vertex -3.972647e-01 -3.469447e-18 -8.971578e-01
     vertex -4.098969e-01 -3.469447e-18 -8.940443e-01
     vertex -4.883598e-01 -3.469447e-18 -8.396825e-01
   endloop
 endfacet
 facet normal  0.000000e+00  1.000000e+00  0.000000e+00
   outer loop
     vertex -3.857446e-01 -3.469447e-18 -9.032040e-01
     vertex -3.972647e-01 -3.469447e-18 -8.971578e-01
     vertex -4.883598e-01 -3.469447e-18 -8.396825e-01
   endloop
 endfacet
 facet normal  0.000000e+00  1.000000e+00  0.000000e+00
   outer loop
     vertex  7.349207e-01 -3.469447e-18 -1.019577e+00
     vertex -3.624338e-01 -3.469447e-18 -9.476190e-01
     vertex -3.640020e-01 -3.469447e-18 -9.347036e-01
   endloop
 endfacet
 facet normal  0.000000e+00  1.000000e+00  0.000000e+00
   outer loop
     vertex  7.349207e-01 -3.469447e-18 -1.019577e+00
     vertex -3.640020e-01 -3.469447e-18 -9.347036e-01
     vertex -3.686155e-01 -3.469447e-18 -9.225387e-01
   endloop
 endfacet
 facet normal  0.000000e+00  1.000000e+00  0.000000e+00
   outer loop
     vertex  7.349207e-01 -3.469447e-18 -1.019577e+00
     vertex -3.686155e-01 -3.469447e-18 -9.225387e-01
     vertex -3.760062e-01 -3.469447e-18 -9.118314e-01
   endloop
 endfacet
 facet normal  0.000000e+00  1.000000e+00  0.000000e+00
   outer loop
     vertex  7.349207e-01 -3.469447e-18 -1.019577e+00
     vertex -3.760062e-01 -3.469447e-18 -9.118314e-01
     vertex -3.857446e-01 -3.469447e-18 -9.032040e-01
   endloop
 endfacet
 facet normal  0.000000e+00  1.000000e+00  0.000000e+00
   outer loop
     vertex  7.349207e-01 -3.469447e-18 -1.019577e+00
     vertex -4.098969e-01 -3.469447e-18 -1.001194e+00
     vertex -3.972647e-01 -3.469447e-18 -9.980802e-01
   endloop
 endfacet
 facet normal  0.000000e+00  1.000000e+00  0.000000e+00
   outer loop
     vertex  7.349207e-01 -3.469447e-18 -1.019577e+00
     vertex -3.972647e-01 -3.469447e-18 -9.980802e-01
     vertex -3.857446e-01 -3.469447e-18 -9.920340e-01
   endloop
 endfacet
 facet normal  0.000000e+00  1.000000e+00  0.000000e+00
   outer loop
     vertex  7.349207e-01 -3.469447e-18 -1.019577e+00
     vertex -3.857446e-01 -3.469447e-18 -9.920340e-01
     vertex -3.760062e-01 -3.469447e-18 -9.834066e-01
   endloop
 endfacet
 facet normal  0.000000e+00  1.000000e+00  0.000000e+00
   outer loop
     vertex  7.349207e-01 -3.469447e-18 -1.019577e+00
     vertex -3.760062e-01 -3.469447e-18 -9.834066e-01
     vertex -3.686155e-01 -3.469447e-18 -9.726993e-01
   endloop
 endfacet
 facet normal  0.000000e+00  1.000000e+00  0.000000e+00
   outer loop
     vertex  7.349207e-01 -3.469447e-18 -1.019577e+00
     vertex -3.686155e-01 -3.469447e-18 -9.726993e-01
     vertex -3.640020e-01 -3.469447e-18 -9.605345e-01
   endloop
 endfacet
 facet normal  0.000000e+00  1.000000e+00  0.000000e+00
   outer loop
     vertex  7.349207e-01 -3.469447e-18 -1.019577e+00
     vertex -3.640020e-01 -3.469447e-18 -9.605345e-01
     vertex -3.624338e-01 -3.469447e-18 -9.476190e-01
   endloop
 endfacet
 facet normal  0.000000e+00  1.000000e+00  0.000000e+00
   outer loop
     vertex  7.349207e-01 -3.469447e-18 -1.019577e+00
     vertex -4.883598e-01 -3.469447e-18 -1.019577e+00
     vertex -4.098969e-01 -3.469447e-18 -1.001194e+00
   endloop
 endfacet
 facet normal  0.000000e+00  1.000000e+00  0.000000e+00
   outer loop
     vertex -4.883598e-01 -3.469447e-18  7.433863e-01
     vertex -3.857446e-01 -3.469447e-18 -9.032040e-01
     vertex -4.883598e-01 -3.469447e-18 -8.396825e-01
   endloop
 endfacet
 facet normal  0.000000e+00  1.000000e+00  0.000000e+00
   outer loop
     vertex -4.470595e-01 -3.469447e-18  8.069078e-01
     vertex -4.883598e-01 -3.469447e-18  7.433863e-01
     vertex -4.567979e-01 -3.469447e-18  8.155352e-01
   endloop
 endfacet
 facet normal  0.000000e+00  1.000000e+00  0.000000e+00
   outer loop
     vertex -4.641886e-01 -3.469447e-18  8.262425e-01
     vertex -4.567979e-01 -3.469447e-18  8.155352e-01
     vertex -4.883598e-01 -3.469447e-18  7.433863e-01
   endloop
 endfacet
 facet normal  0.000000e+00  1.000000e+00  0.000000e+00
   outer loop
     vertex -4.355395e-01 -3.469447e-18  8.008616e-01
     vertex -4.883598e-01 -3.469447e-18  7.433863e-01
     vertex -4.470595e-01 -3.469447e-18  8.069078e-01
   endloop
 endfacet
 facet normal  0.000000e+00  1.000000e+00  0.000000e+00
   outer loop
     vertex -4.688021e-01 -3.469447e-18  8.384073e-01
     vertex -4.641886e-01 -3.469447e-18  8.262425e-01
     vertex -4.883598e-01 -3.469447e-18  7.433863e-01
   endloop
 endfacet
 facet normal  0.000000e+00  1.000000e+00  0.000000e+00
   outer loop
     vertex -4.229072e-01 -3.469447e-18  7.977480e-01
     vertex -4.883598e-01 -3.469447e-18  7.433863e-01
     vertex -4.355395e-01 -3.469447e-18  8.008616e-01
   endloop
 endfacet
 facet normal  0.000000e+00  1.000000e+00  0.000000e+00
   outer loop
     vertex -4.703703e-01 -3.469447e-18  8.513228e-01
     vertex -4.688021e-01 -3.469447e-18  8.384073e-01
     vertex -4.883598e-01 -3.469447e-18  7.433863e-01
   endloop
 endfacet
 facet normal  0.000000e+00  1.000000e+00  0.000000e+00
   outer loop
     vertex -4.098969e-01 -3.469447e-18  7.977480e-01
     vertex -4.883598e-01 -3.469447e-18  7.433863e-01
     vertex -4.229072e-01 -3.469447e-18  7.977480e-01
   endloop
 endfacet
 facet normal  0.000000e+00  1.000000e+00  0.000000e+00
   outer loop
     vertex -3.972647e-01 -3.469447e-18  8.008616e-01
     vertex -4.883598e-01 -3.469447e-18  7.433863e-01
     vertex -4.098969e-01 -3.469447e-18  7.977480e-01
   endloop
 endfacet
 facet normal  0.000000e+00  1.000000e+00  0.000000e+00
   outer loop
     vertex -3.857446e-01 -3.469447e-18  8.069078e-01
     vertex -3.857446e-01 -3.469447e-18 -9.032040e-01
     vertex -4.883598e-01 -3.469447e-18  7.433863e-01
   endloop
 endfacet
 facet normal  0.000000e+00  1.000000e+00  0.000000e+00
   outer loop
     vertex -3.857446e-01 -3.469447e-18  8.069078e-01
     vertex -4.883598e-01 -3.469447e-18  7.433863e-01
     vertex -3.972647e-01 -3.469447e-18  8.008616e-01
   endloop
 endfacet
 facet normal  0.000000e+00  1.000000e+00  0.000000e+00
   outer loop
     vertex -4.883598e-01 -3.469447e-18  9.232805e-01
     vertex -4.703703e-01 -3.469447e-18  8.513228e-01
     vertex -4.883598e-01 -3.469447e-18  7.433863e-01
   endloop
 endfacet
 facet normal  0.000000e+00  1.000000e+00  0.000000e+00
   outer loop
     vertex -4.883598e-01 -3.469447e-18  9.232805e-01
     vertex -4.567979e-01 -3.469447e-18  8.871104e-01
     vertex -4.641886e-01 -3.469447e-18  8.764031e-01
   endloop
 endfacet
 facet normal  0.000000e+00  1.000000e+00  0.000000e+00
   outer loop
     vertex -4.883598e-01 -3.469447e-18  9.232805e-01
     vertex -4.641886e-01 -3.469447e-18  8.764031e-01
     vertex -4.688021e-01 -3.469447e-18  8.642382e-01
   endloop
 endfacet
 facet normal  0.000000e+00  1.000000e+00  0.000000e+00
   outer loop
     vertex -4.883598e-01 -3.469447e-18  9.232805e-01
     vertex -4.688021e-01 -3.469447e-18  8.642382e-01
     vertex -4.703703e-01 -3.469447e-18  8.513228e-01
   endloop
 endfacet
 facet normal  0.000000e+00  1.000000e+00  0.000000e+00
   outer loop
     vertex -4.470595e-01 -3.469447e-18  8.957378e-01
     vertex -4.567979e-01 -3.469447e-18  8.871104e-01
     vertex -4.883598e-01 -3.469447e-18  9.232805e-01
   endloop
 endfacet
 facet normal  0.000000e+00  1.000000e+00  0.000000e+00
   outer loop
     vertex -4.355395e-01 -3.469447e-18  9.017840e-01
     vertex -4.470595e-01 -3.469447e-18  8.957378e-01
     vertex -4.883598e-01 -3.469447e-18  9.232805e-01
   endloop
 endfacet
 facet normal  0.000000e+00  1.000000e+00  0.000000e+00
   outer loop
     vertex -4.229072e-01 -3.469447e-18  9.048976e-01
     vertex -4.355395e-01 -3.469447e-18  9.017840e-01
     vertex -4.883598e-01 -3.469447e-18  9.232805e-01
   endloop
 endfacet
 facet normal  0.000000e+00  1.000000e+00  0.000000e+00
   outer loop
     vertex -4.098969e-01 -3.469447e-18  9.048976e-01
     vertex -4.229072e-01 -3.469447e-18  9.048976e-01
     vertex -4.883598e-01 -3.469447e-18  9.232805e-01
   endloop
 endfacet
 facet normal  0.000000e+00  1.000000e+00  0.000000e+00
   outer loop
     vertex  1.232805e-01 -3.469447e-18  9.232805e-01
     vertex  7.349207e-01 -3.469447e-18 -1.019577e+00
     vertex -3.857446e-01 -3.469447e-18 -9.032040e-01
   endloop
 endfacet
 facet normal  0.000000e+00  1.000000e+00  0.000000e+00
   outer loop
     vertex  1.232805e-01 -3.469447e-18  9.232805e-01
     vertex -3.857446e-01 -3.469447e-18 -9.032040e-01
     vertex -3.857446e-01 -3.469447e-18  8.069078e-01
   endloop
 endfacet
 facet normal  0.000000e+00  1.000000e+00  0.000000e+00
   outer loop
     vertex  1.232805e-01 -3.469447e-18  9.232805e-01
     vertex -3.624338e-01 -3.469447e-18  8.513228e-01
     vertex -3.640020e-01 -3.469447e-18  8.642382e-01
   endloop
 endfacet
 facet normal  0.000000e+00  1.000000e+00  0.000000e+00
   outer loop
     vertex  1.232805e-01 -3.469447e-18  9.232805e-01
     vertex -3.640020e-01 -3.469447e-18  8.642382e-01
     vertex -3.686155e-01 -3.469447e-18  8.764031e-01
   endloop
 endfacet
 facet normal  0.000000e+00  1.000000e+00  0.000000e+00
   outer loop
     vertex  1.232805e-01 -3.469447e-18  9.232805e-01
     vertex -3.686155e-01 -3.469447e-18  8.764031e-01
     vertex -3.760062e-01 -3.469447e-18  8.871104e-01
   endloop
 endfacet
 facet normal  0.000000e+00  1.000000e+00  0.000000e+00
   outer loop
     vertex  1.232805e-01 -3.469447e-18  9.232805e-01
     vertex -3.760062e-01 -3.469447e-18  8.871104e-01
     vertex -3.857446e-01 -3.469447e-18  8.957378e-01
   endloop
 endfacet
 facet normal  0.000000e+00  1.000000e+00  0.000000e+00
   outer loop
     vertex  1.232805e-01 -3.469447e-18  9.232805e-01
     vertex -3.857446e-01 -3.469447e-18  8.957378e-01
     vertex -3.972647e-01 -3.469447e-18  9.017840e-01
   endloop
 endfacet
 facet normal  0.000000e+00  1.000000e+00  0.000000e+00
   outer loop
     vertex  1.232805e-01 -3.469447e-18  9.232805e-01
     vertex -3.972647e-01 -3.469447e-18  9.017840e-01
     vertex -4.098969e-01 -3.469447e-18  9.048976e-01
   endloop
 endfacet
 facet normal  0.000000e+00  1.000000e+00  0.000000e+00
   outer loop
     vertex  1.232805e-01 -3.469447e-18  9.232805e-01
     vertex -3.857446e-01 -3.469447e-18  8.069078e-01
     vertex -3.760062e-01 -3.469447e-18  8.155352e-01
   endloop
 endfacet
 facet normal  0.000000e+00  1.000000e+00  0.000000e+00
   outer loop
     vertex  1.232805e-01 -3.469447e-18  9.232805e-01
     vertex -3.760062e-01 -3.469447e-18  8.155352e-01
     vertex -3.686155e-01 -3.469447e-18  8.262425e-01
   endloop
 endfacet
 facet normal  0.000000e+00  1.000000e+00  0.000000e+00
   outer loop
     vertex  1.232805e-01 -3.469447e-18  9.232805e-01
     vertex -3.686155e-01 -3.469447e-18  8.262425e-01
     vertex -3.640020e-01 -3.469447e-18  8.384073e-01
   endloop
 endfacet
 facet normal  0.000000e+00  1.000000e+00  0.000000e+00
   outer loop
     vertex  1.232805e-01 -3.469447e-18  9.232805e-01
     vertex -3.640020e-01 -3.469447e-18  8.384073e-01
     vertex -3.624338e-01 -3.469447e-18  8.513228e-01
   endloop
 endfacet
 facet normal  0.000000e+00  1.000000e+00  0.000000e+00
   outer loop
     vertex  7.349207e-01 -3.469447e-18  9.232805e-01
     vertex  7.349207e-01 -3.469447e-18 -1.019577e+00
     vertex  1.232805e-01 -3.469447e-18  9.232805e-01
   endloop
 endfacet
 facet normal  0.000000e+00  1.000000e+00  0.000000e+00
   outer loop
     vertex  1.232805e-01 -3.469447e-18  9.232805e-01
     vertex -4.098969e-01 -3.469447e-18  9.048976e-01
     vertex -4.883598e-01 -3.469447e-18  9.232805e-01
   endloop
 endfacet
 facet normal -1.000000e+00  0.000000e+00  0.000000e+00
   outer loop
     vertex -4.883598e-01 -1.587302e-02  7.433863e-01
     vertex -4.883598e-01 -9.523815e-02  9.232805e-01
     vertex -4.883598e-01 -1.587302e-02  9.232805e-01
   endloop
 endfacet
 facet normal -1.000000e+00  0.000000e+00  0.000000e+00
   outer loop
     vertex -4.883598e-01 -1.587302e-02  7.433863e-01
     vertex -4.883598e-01 -9.523815e-02  7.433863e-01
     vertex -4.883598e-01 -9.523815e-02  9.232805e-01
   endloop
 endfacet
 facet normal -0.000000e+00  0.000000e+00  1.000000e+00
   outer loop
     vertex -4.883598e-01 -1.587302e-02  9.232805e-01
     vertex  1.232805e-01 -9.523815e-02  9.232805e-01
     vertex  1.232805e-01 -1.587302e-02  9.232805e-01
   endloop
 endfacet
 facet normal  0.000000e+00  0.000000e+00  1.000000e+00
   outer loop
     vertex -4.883598e-01 -1.587302e-02  9.232805e-01
     vertex -4.883598e-01 -9.523815e-02  9.232805e-01
     vertex  1.232805e-01 -9.523815e-02  9.232805e-01
   endloop
 endfacet
 facet normal -9.927089e-01  0.000000e+00 -1.205367e-01
   outer loop
     vertex -3.640020e-01 -1.587302e-02 -9.347036e-01
     vertex -3.624338e-01 -1.587302e-02 -9.476190e-01
     vertex -3.624338e-01 -9.523815e-02 -9.476190e-01
   endloop
 endfacet
 facet normal -9.927089e-01 -0.000000e+00 -1.205367e-01
   outer loop
     vertex -3.640020e-01 -1.587302e-02 -9.347036e-01
     vertex -3.624338e-01 -9.523815e-02 -9.476190e-01
     vertex -3.640020e-01 -9.523815e-02 -9.347036e-01
   endloop
 endfacet
 facet normal -9.350162e-01 -0.000000e+00 -3.546049e-01
   outer loop
     vertex -3.686155e-01 -1.587302e-02 -9.225387e-01
     vertex -3.640020e-01 -9.523815e-02 -9.347036e-01
     vertex -3.686155e-01 -9.523815e-02 -9.225387e-01
   endloop
 endfacet
 facet normal -9.350162e-01  0.000000e+00 -3.546049e-01
   outer loop
     vertex -3.686155e-01 -1.587302e-02 -9.225387e-01
     vertex -3.640020e-01 -1.587302e-02 -9.347036e-01
     vertex -3.640020e-01 -9.523815e-02 -9.347036e-01
   endloop
 endfacet
 facet normal -8.229839e-01 -0.000000e+00 -5.680647e-01
   outer loop
     vertex -3.760062e-01 -1.587302e-02 -9.118314e-01
     vertex -3.686155e-01 -9.523815e-02 -9.225387e-01
     vertex -3.760062e-01 -9.523815e-02 -9.118314e-01
   endloop
 endfacet
 facet normal -8.229839e-01  0.000000e+00 -5.680647e-01
   outer loop
     vertex -3.760062e-01 -1.587302e-02 -9.118314e-01
     vertex -3.686155e-01 -1.587302e-02 -9.225387e-01
     vertex -3.686155e-01 -9.523815e-02 -9.225387e-01
   endloop
 endfacet
 facet normal -6.631227e-01 -0.000000e+00 -7.485107e-01
   outer loop
     vertex -3.857446e-01 -1.587302e-02 -9.032040e-01
     vertex -3.760062e-01 -9.523815e-02 -9.118314e-01
     vertex -3.857446e-01 -9.523815e-02 -9.032040e-01
   endloop
 endfacet
 facet normal -6.631227e-01  0.000000e+00 -7.485107e-01
   outer loop
     vertex -3.857446e-01 -1.587302e-02 -9.032040e-01
     vertex -3.760062e-01 -1.587302e-02 -9.118314e-01
     vertex -3.760062e-01 -9.523815e-02 -9.118314e-01
   endloop
 endfacet
 facet normal -4.647232e-01 -0.000000e+00 -8.854560e-01
   outer loop
     vertex -3.972647e-01 -1.587302e-02 -8.971578e-01
     vertex -3.857446e-01 -9.523815e-02 -9.032040e-01
     vertex -3.972647e-01 -9.523815e-02 -8.971578e-01
   endloop
 endfacet
 facet normal -4.647232e-01  0.000000e+00 -8.854560e-01
   outer loop
     vertex -3.972647e-01 -1.587302e-02 -8.971578e-01
     vertex -3.857446e-01 -1.587302e-02 -9.032040e-01
     vertex -3.857446e-01 -9.523815e-02 -9.032040e-01
   endloop
 endfacet
 facet normal -2.393157e-01 -0.000000e+00 -9.709418e-01
   outer loop
     vertex -4.098969e-01 -1.587302e-02 -8.940443e-01
     vertex -3.972647e-01 -9.523815e-02 -8.971578e-01
     vertex -4.098969e-01 -9.523815e-02 -8.940443e-01
   endloop
 endfacet
 facet normal -2.393157e-01  0.000000e+00 -9.709418e-01
   outer loop
     vertex -4.098969e-01 -1.587302e-02 -8.940443e-01
     vertex -3.972647e-01 -1.587302e-02 -8.971578e-01
     vertex -3.972647e-01 -9.523815e-02 -8.971578e-01
   endloop
 endfacet
 facet normal  0.000000e+00  0.000000e+00 -1.000000e+00
   outer loop
     vertex -4.229072e-01 -1.587302e-02 -8.940443e-01
     vertex -4.098969e-01 -9.523815e-02 -8.940443e-01
     vertex -4.229072e-01 -9.523815e-02 -8.940443e-01
   endloop
 endfacet
 facet normal  0.000000e+00  0.000000e+00 -1.000000e+00
   outer loop
     vertex -4.229072e-01 -1.587302e-02 -8.940443e-01
     vertex -4.098969e-01 -1.587302e-02 -8.940443e-01
     vertex -4.098969e-01 -9.523815e-02 -8.940443e-01
   endloop
 endfacet
 facet normal  2.393157e-01  0.000000e+00 -9.709418e-01
   outer loop
     vertex -4.355395e-01 -1.587302e-02 -8.971578e-01
     vertex -4.229072e-01 -9.523815e-02 -8.940443e-01
     vertex -4.355395e-01 -9.523815e-02 -8.971578e-01
   endloop
 endfacet
 facet normal  2.393157e-01  0.000000e+00 -9.709418e-01
   outer loop
     vertex -4.355395e-01 -1.587302e-02 -8.971578e-01
     vertex -4.229072e-01 -1.587302e-02 -8.940443e-01
     vertex -4.229072e-01 -9.523815e-02 -8.940443e-01
   endloop
 endfacet
 facet normal  4.647232e-01  0.000000e+00 -8.854560e-01
   outer loop
     vertex -4.470595e-01 -1.587302e-02 -9.032040e-01
     vertex -4.355395e-01 -9.523815e-02 -8.971578e-01
     vertex -4.470595e-01 -9.523815e-02 -9.032040e-01
   endloop
 endfacet
 facet normal  4.647232e-01  0.000000e+00 -8.854560e-01
   outer loop
     vertex -4.470595e-01 -1.587302e-02 -9.032040e-01
     vertex -4.355395e-01 -1.587302e-02 -8.971578e-01
     vertex -4.355395e-01 -9.523815e-02 -8.971578e-01
   endloop
 endfacet
 facet normal  6.631227e-01  0.000000e+00 -7.485107e-01
   outer loop
     vertex -4.567979e-01 -1.587302e-02 -9.118314e-01
     vertex -4.470595e-01 -9.523815e-02 -9.032040e-01
     vertex -4.567979e-01 -9.523815e-02 -9.118314e-01
   endloop
 endfacet
 facet normal  8.229839e-01  0.000000e+00 -5.680647e-01
   outer loop
     vertex -4.567979e-01 -1.587302e-02 -9.118314e-01
     vertex -4.567979e-01 -9.523815e-02 -9.118314e-01
     vertex -4.641886e-01 -9.523815e-02 -9.225387e-01
   endloop
 endfacet
 facet normal  6.631227e-01  0.000000e+00 -7.485107e-01
   outer loop
     vertex -4.567979e-01 -1.587302e-02 -9.118314e-01
     vertex -4.470595e-01 -1.587302e-02 -9.032040e-01
     vertex -4.470595e-01 -9.523815e-02 -9.032040e-01
   endloop
 endfacet
 facet normal  8.229839e-01  0.000000e+00 -5.680647e-01
   outer loop
     vertex -4.641886e-01 -1.587302e-02 -9.225387e-01
     vertex -4.567979e-01 -1.587302e-02 -9.118314e-01
     vertex -4.641886e-01 -9.523815e-02 -9.225387e-01
   endloop
 endfacet
 facet normal  9.350162e-01  0.000000e+00 -3.546049e-01
   outer loop
     vertex -4.688021e-01 -1.587302e-02 -9.347036e-01
     vertex -4.641886e-01 -1.587302e-02 -9.225387e-01
     vertex -4.641886e-01 -9.523815e-02 -9.225387e-01
   endloop
 endfacet
 facet normal  9.350162e-01  0.000000e+00 -3.546049e-01
   outer loop
     vertex -4.688021e-01 -1.587302e-02 -9.347036e-01
     vertex -4.641886e-01 -9.523815e-02 -9.225387e-01
     vertex -4.688021e-01 -9.523815e-02 -9.347036e-01
   endloop
 endfacet
 facet normal  9.927089e-01  0.000000e+00 -1.205367e-01
   outer loop
     vertex -4.703703e-01 -1.587302e-02 -9.476190e-01
     vertex -4.688021e-01 -1.587302e-02 -9.347036e-01
     vertex -4.688021e-01 -9.523815e-02 -9.347036e-01
   endloop
 endfacet
 facet normal  9.927089e-01  0.000000e+00 -1.205367e-01
   outer loop
     vertex -4.703703e-01 -1.587302e-02 -9.476190e-01
     vertex -4.688021e-01 -9.523815e-02 -9.347036e-01
     vertex -4.703703e-01 -9.523815e-02 -9.476190e-01
   endloop
 endfacet
 facet normal  9.927089e-01  0.000000e+00  1.205367e-01
   outer loop
     vertex -4.688021e-01 -1.587302e-02 -9.605345e-01
     vertex -4.703703e-01 -9.523815e-02 -9.476190e-01
     vertex -4.688021e-01 -9.523815e-02 -9.605345e-01
   endloop
 endfacet
 facet normal  9.927089e-01  0.000000e+00  1.205367e-01
   outer loop
     vertex -4.688021e-01 -1.587302e-02 -9.605345e-01
     vertex -4.703703e-01 -1.587302e-02 -9.476190e-01
     vertex -4.703703e-01 -9.523815e-02 -9.476190e-01
   endloop
 endfacet
 facet normal  9.350162e-01  0.000000e+00  3.546049e-01
   outer loop
     vertex -4.641886e-01 -1.587302e-02 -9.726993e-01
     vertex -4.688021e-01 -1.587302e-02 -9.605345e-01
     vertex -4.688021e-01 -9.523815e-02 -9.605345e-01
   endloop
 endfacet
 facet normal  9.350162e-01  0.000000e+00  3.546049e-01
   outer loop
     vertex -4.641886e-01 -1.587302e-02 -9.726993e-01
     vertex -4.688021e-01 -9.523815e-02 -9.605345e-01
     vertex -4.641886e-01 -9.523815e-02 -9.726993e-01
   endloop
 endfacet
 facet normal  8.229839e-01  0.000000e+00  5.680647e-01
   outer loop
     vertex -4.567979e-01 -1.587302e-02 -9.834066e-01
     vertex -4.641886e-01 -9.523815e-02 -9.726993e-01
     vertex -4.567979e-01 -9.523815e-02 -9.834066e-01
   endloop
 endfacet
 facet normal  8.229839e-01  0.000000e+00  5.680647e-01
   outer loop
     vertex -4.567979e-01 -1.587302e-02 -9.834066e-01
     vertex -4.641886e-01 -1.587302e-02 -9.726993e-01
     vertex -4.641886e-01 -9.523815e-02 -9.726993e-01
   endloop
 endfacet
 facet normal  6.631227e-01  0.000000e+00  7.485107e-01
   outer loop
     vertex -4.470595e-01 -1.587302e-02 -9.920340e-01
     vertex -4.567979e-01 -9.523815e-02 -9.834066e-01
     vertex -4.470595e-01 -9.523815e-02 -9.920340e-01
   endloop
 endfacet
 facet normal  6.631227e-01  0.000000e+00  7.485107e-01
   outer loop
     vertex -4.470595e-01 -1.587302e-02 -9.920340e-01
     vertex -4.567979e-01 -1.587302e-02 -9.834066e-01
     vertex -4.567979e-01 -9.523815e-02 -9.834066e-01
   endloop
 endfacet
 facet normal  4.647232e-01  0.000000e+00  8.854560e-01
   outer loop
     vertex -4.355395e-01 -1.587302e-02 -9.980802e-01
     vertex -4.470595e-01 -9.523815e-02 -9.920340e-01
     vertex -4.355395e-01 -9.523815e-02 -9.980802e-01
   endloop
 endfacet
 facet normal  4.647232e-01  0.000000e+00  8.854560e-01
   outer loop
     vertex -4.355395e-01 -1.587302e-02 -9.980802e-01
     vertex -4.470595e-01 -1.587302e-02 -9.920340e-01
     vertex -4.470595e-01 -9.523815e-02 -9.920340e-01
   endloop
 endfacet
 facet normal  2.393157e-01  0.000000e+00  9.709418e-01
   outer loop
     vertex -4.229072e-01 -1.587302e-02 -1.001194e+00
     vertex -4.355395e-01 -9.523815e-02 -9.980802e-01
     vertex -4.229072e-01 -9.523815e-02 -1.001194e+00
   endloop
 endfacet
 facet normal  2.393157e-01  0.000000e+00  9.709418e-01
   outer loop
     vertex -4.229072e-01 -1.587302e-02 -1.001194e+00
     vertex -4.355395e-01 -1.587302e-02 -9.980802e-01
     vertex -4.355395e-01 -9.523815e-02 -9.980802e-01
   endloop
 endfacet
 facet normal  0.000000e+00  0.000000e+00  1.000000e+00
   outer loop
     vertex -4.098969e-01 -1.587302e-02 -1.001194e+00
     vertex -4.229072e-01 -9.523815e-02 -1.001194e+00
     vertex -4.098969e-01 -9.523815e-02 -1.001194e+00
   endloop
 endfacet
 facet normal  0.000000e+00  0.000000e+00  1.000000e+00
   outer loop
     vertex -4.098969e-01 -1.587302e-02 -1.001194e+00
     vertex -4.229072e-01 -1.587302e-02 -1.001194e+00
     vertex -4.229072e-01 -9.523815e-02 -1.001194e+00
   endloop
 endfacet
 facet normal -2.393157e-01  0.000000e+00  9.709418e-01
   outer loop
     vertex -3.972647e-01 -1.587302e-02 -9.980802e-01
     vertex -4.098969e-01 -9.523815e-02 -1.001194e+00
     vertex -3.972647e-01 -9.523815e-02 -9.980802e-01
   endloop
 endfacet
 facet normal -2.393157e-01  0.000000e+00  9.709418e-01
   outer loop
     vertex -3.972647e-01 -1.587302e-02 -9.980802e-01
     vertex -4.098969e-01 -1.587302e-02 -1.001194e+00
     vertex -4.098969e-01 -9.523815e-02 -1.001194e+00
   endloop
 endfacet
 facet normal -4.647232e-01  0.000000e+00  8.854560e-01
   outer loop
     vertex -3.857446e-01 -1.587302e-02 -9.920340e-01
     vertex -3.972647e-01 -9.523815e-02 -9.980802e-01
     vertex -3.857446e-01 -9.523815e-02 -9.920340e-01
   endloop
 endfacet
 facet normal -6.631227e-01  0.000000e+00  7.485107e-01
   outer loop
     vertex -3.857446e-01 -1.587302e-02 -9.920340e-01
     vertex -3.857446e-01 -9.523815e-02 -9.920340e-01
     vertex -3.760062e-01 -9.523815e-02 -9.834066e-01
   endloop
 endfacet
 facet normal -4.647232e-01  0.000000e+00  8.854560e-01
   outer loop
     vertex -3.857446e-01 -1.587302e-02 -9.920340e-01
     vertex -3.972647e-01 -1.587302e-02 -9.980802e-01
     vertex -3.972647e-01 -9.523815e-02 -9.980802e-01
   endloop
 endfacet
 facet normal -6.631227e-01  0.000000e+00  7.485107e-01
   outer loop
     vertex -3.760062e-01 -1.587302e-02 -9.834066e-01
     vertex -3.857446e-01 -1.587302e-02 -9.920340e-01
     vertex -3.760062e-01 -9.523815e-02 -9.834066e-01
   endloop
 endfacet
 facet normal -8.229839e-01  0.000000e+00  5.680647e-01
   outer loop
     vertex -3.686155e-01 -1.587302e-02 -9.726993e-01
     vertex -3.760062e-01 -9.523815e-02 -9.834066e-01
     vertex -3.686155e-01 -9.523815e-02 -9.726993e-01
   endloop
 endfacet
 facet normal -8.229839e-01  0.000000e+00  5.680647e-01
   outer loop
     vertex -3.686155e-01 -1.587302e-02 -9.726993e-01
     vertex -3.760062e-01 -1.587302e-02 -9.834066e-01
     vertex -3.760062e-01 -9.523815e-02 -9.834066e-01
   endloop
 endfacet
 facet normal -9.350162e-01  0.000000e+00  3.546049e-01
   outer loop
     vertex -3.640020e-01 -1.587302e-02 -9.605345e-01
     vertex -3.686155e-01 -9.523815e-02 -9.726993e-01
     vertex -3.640020e-01 -9.523815e-02 -9.605345e-01
   endloop
 endfacet
 facet normal -9.350162e-01  0.000000e+00  3.546049e-01
   outer loop
     vertex -3.640020e-01 -1.587302e-02 -9.605345e-01
     vertex -3.686155e-01 -1.587302e-02 -9.726993e-01
     vertex -3.686155e-01 -9.523815e-02 -9.726993e-01
   endloop
 endfacet
 facet normal -9.927089e-01  0.000000e+00  1.205367e-01
   outer loop
     vertex -3.624338e-01 -1.587302e-02 -9.476190e-01
     vertex -3.640020e-01 -9.523815e-02 -9.605345e-01
     vertex -3.624338e-01 -9.523815e-02 -9.476190e-01
   endloop
 endfacet
 facet normal -9.927089e-01  0.000000e+00  1.205367e-01
   outer loop
     vertex -3.624338e-01 -1.587302e-02 -9.476190e-01
     vertex -3.640020e-01 -1.587302e-02 -9.605345e-01
     vertex -3.640020e-01 -9.523815e-02 -9.605345e-01
   endloop
 endfacet
 facet normal -9.927089e-01  0.000000e+00 -1.205367e-01
   outer loop
     vertex -3.640020e-01 -1.587302e-02  8.642382e-01
     vertex -3.624338e-01 -1.587302e-02  8.513228e-01
     vertex -3.624338e-01 -9.523815e-02  8.513228e-01
   endloop
 endfacet
 facet normal -9.927089e-01 -0.000000e+00 -1.205367e-01
   outer loop
     vertex -3.640020e-01 -1.587302e-02  8.642382e-01
     vertex -3.624338e-01 -9.523815e-02  8.513228e-01
     vertex -3.640020e-01 -9.523815e-02  8.642382e-01
   endloop
 endfacet
 facet normal -9.350162e-01 -0.000000e+00 -3.546049e-01
   outer loop
     vertex -3.686155e-01 -1.587302e-02  8.764031e-01
     vertex -3.640020e-01 -9.523815e-02  8.642382e-01
     vertex -3.686155e-01 -9.523815e-02  8.764031e-01
   endloop
 endfacet
 facet normal -9.350162e-01  0.000000e+00 -3.546049e-01
   outer loop
     vertex -3.686155e-01 -1.587302e-02  8.764031e-01
     vertex -3.640020e-01 -1.587302e-02  8.642382e-01
     vertex -3.640020e-01 -9.523815e-02  8.642382e-01
   endloop
 endfacet
 facet normal -8.229839e-01 -0.000000e+00 -5.680647e-01
   outer loop
     vertex -3.760062e-01 -1.587302e-02  8.871104e-01
     vertex -3.686155e-01 -9.523815e-02  8.764031e-01
     vertex -3.760062e-01 -9.523815e-02  8.871104e-01
   endloop
 endfacet
 facet normal -8.229839e-01  0.000000e+00 -5.680647e-01
   outer loop
     vertex -3.760062e-01 -1.587302e-02  8.871104e-01
     vertex -3.686155e-01 -1.587302e-02  8.764031e-01
     vertex -3.686155e-01 -9.523815e-02  8.764031e-01
   endloop
 endfacet
 facet normal -6.631227e-01 -0.000000e+00 -7.485107e-01
   outer loop
     vertex -3.857446e-01 -1.587302e-02  8.957378e-01
     vertex -3.760062e-01 -9.523815e-02  8.871104e-01
     vertex -3.857446e-01 -9.523815e-02  8.957378e-01
   endloop
 endfacet
 facet normal -6.631227e-01  0.000000e+00 -7.485107e-01
   outer loop
     vertex -3.857446e-01 -1.587302e-02  8.957378e-01
     vertex -3.760062e-01 -1.587302e-02  8.871104e-01
     vertex -3.760062e-01 -9.523815e-02  8.871104e-01
   endloop
 endfacet
 facet normal -4.647232e-01 -0.000000e+00 -8.854560e-01
   outer loop
     vertex -3.972647e-01 -1.587302e-02  9.017840e-01
     vertex -3.857446e-01 -9.523815e-02  8.957378e-01
     vertex -3.972647e-01 -9.523815e-02  9.017840e-01
   endloop
 endfacet
 facet normal -4.647232e-01  0.000000e+00 -8.854560e-01
   outer loop
     vertex -3.972647e-01 -1.587302e-02  9.017840e-01
     vertex -3.857446e-01 -1.587302e-02  8.957378e-01
     vertex -3.857446e-01 -9.523815e-02  8.957378e-01
   endloop
 endfacet
 facet normal -2.393157e-01 -0.000000e+00 -9.709418e-01
   outer loop
     vertex -4.098969e-01 -1.587302e-02  9.048976e-01
     vertex -3.972647e-01 -9.523815e-02  9.017840e-01
     vertex -4.098969e-01 -9.523815e-02  9.048976e-01
   endloop
 endfacet
 facet normal -2.393157e-01  0.000000e+00 -9.709418e-01
   outer loop
     vertex -4.098969e-01 -1.587302e-02  9.048976e-01
     vertex -3.972647e-01 -1.587302e-02  9.017840e-01
     vertex -3.972647e-01 -9.523815e-02  9.017840e-01
   endloop
 endfacet
 facet normal  0.000000e+00  0.000000e+00 -1.000000e+00
   outer loop
     vertex -4.229072e-01 -1.587302e-02  9.048976e-01
     vertex -4.098969e-01 -9.523815e-02  9.048976e-01
     vertex -4.229072e-01 -9.523815e-02  9.048976e-01
   endloop
 endfacet
 facet normal  0.000000e+00  0.000000e+00 -1.000000e+00
   outer loop
     vertex -4.229072e-01 -1.587302e-02  9.048976e-01
     vertex -4.098969e-01 -1.587302e-02  9.048976e-01
     vertex -4.098969e-01 -9.523815e-02  9.048976e-01
   endloop
 endfacet
 facet normal  2.393157e-01  0.000000e+00 -9.709418e-01
   outer loop
     vertex -4.355395e-01 -1.587302e-02  9.017840e-01
     vertex -4.229072e-01 -9.523815e-02  9.048976e-01
     vertex -4.355395e-01 -9.523815e-02  9.017840e-01
   endloop
 endfacet
 facet normal  2.393157e-01  0.000000e+00 -9.709418e-01
   outer loop
     vertex -4.355395e-01 -1.587302e-02  9.017840e-01
     vertex -4.229072e-01 -1.587302e-02  9.048976e-01
     vertex -4.229072e-01 -9.523815e-02  9.048976e-01
   endloop
 endfacet
 facet normal  4.647232e-01  0.000000e+00 -8.854560e-01
   outer loop
     vertex -4.470595e-01 -1.587302e-02  8.957378e-01
     vertex -4.355395e-01 -9.523815e-02  9.017840e-01
     vertex -4.470595e-01 -9.523815e-02  8.957378e-01
   endloop
 endfacet
 facet normal  4.647232e-01  0.000000e+00 -8.854560e-01
   outer loop
     vertex -4.470595e-01 -1.587302e-02  8.957378e-01
     vertex -4.355395e-01 -1.587302e-02  9.017840e-01
     vertex -4.355395e-01 -9.523815e-02  9.017840e-01
   endloop
 endfacet
 facet normal  6.631227e-01  0.000000e+00 -7.485107e-01
   outer loop
     vertex -4.567979e-01 -1.587302e-02  8.871104e-01
     vertex -4.470595e-01 -9.523815e-02  8.957378e-01
     vertex -4.567979e-01 -9.523815e-02  8.871104e-01
   endloop
 endfacet
 facet normal  8.229839e-01  0.000000e+00 -5.680647e-01
   outer loop
     vertex -4.567979e-01 -1.587302e-02  8.871104e-01
     vertex -4.567979e-01 -9.523815e-02  8.871104e-01
     vertex -4.641886e-01 -9.523815e-02  8.764031e-01
   endloop
 endfacet
 facet normal  6.631227e-01  0.000000e+00 -7.485107e-01
   outer loop
     vertex -4.567979e-01 -1.587302e-02  8.871104e-01
     vertex -4.470595e-01 -1.587302e-02  8.957378e-01
     vertex -4.470595e-01 -9.523815e-02  8.957378e-01
   endloop
 endfacet
 facet normal  8.229839e-01  0.000000e+00 -5.680647e-01
   outer loop
     vertex -4.641886e-01 -1.587302e-02  8.764031e-01
     vertex -4.567979e-01 -1.587302e-02  8.871104e-01
     vertex -4.641886e-01 -9.523815e-02  8.764031e-01
   endloop
 endfacet
 facet normal  9.350162e-01  0.000000e+00 -3.546049e-01
   outer loop
     vertex -4.688021e-01 -1.587302e-02  8.642382e-01
     vertex -4.641886e-01 -1.587302e-02  8.764031e-01
     vertex -4.641886e-01 -9.523815e-02  8.764031e-01
   endloop
 endfacet
 facet normal  9.350162e-01  0.000000e+00 -3.546049e-01
   outer loop
     vertex -4.688021e-01 -1.587302e-02  8.642382e-01
     vertex -4.641886e-01 -9.523815e-02  8.764031e-01
     vertex -4.688021e-01 -9.523815e-02  8.642382e-01
   endloop
 endfacet
 facet normal  9.927089e-01  0.000000e+00 -1.205367e-01
   outer loop
     vertex -4.703703e-01 -1.587302e-02  8.513228e-01
     vertex -4.688021e-01 -1.587302e-02  8.642382e-01
     vertex -4.688021e-01 -9.523815e-02  8.642382e-01
   endloop
 endfacet
 facet normal  9.927089e-01  0.000000e+00 -1.205367e-01
   outer loop
     vertex -4.703703e-01 -1.587302e-02  8.513228e-01
     vertex -4.688021e-01 -9.523815e-02  8.642382e-01
     vertex -4.703703e-01 -9.523815e-02  8.513228e-01
   endloop
 endfacet
 facet normal  9.927089e-01  0.000000e+00  1.205367e-01
   outer loop
     vertex -4.688021e-01 -1.587302e-02  8.384073e-01
     vertex -4.703703e-01 -9.523815e-02  8.513228e-01
     vertex -4.688021e-01 -9.523815e-02  8.384073e-01
   endloop
 endfacet
 facet normal  9.927089e-01  0.000000e+00  1.205367e-01
   outer loop
     vertex -4.688021e-01 -1.587302e-02  8.384073e-01
     vertex -4.703703e-01 -1.587302e-02  8.513228e-01
     vertex -4.703703e-01 -9.523815e-02  8.513228e-01
   endloop
 endfacet
 facet normal  9.350162e-01  0.000000e+00  3.546049e-01
   outer loop
     vertex -4.641886e-01 -1.587302e-02  8.262425e-01
     vertex -4.688021e-01 -1.587302e-02  8.384073e-01
     vertex -4.688021e-01 -9.523815e-02  8.384073e-01
   endloop
 endfacet
 facet normal  9.350162e-01  0.000000e+00  3.546049e-01
   outer loop
     vertex -4.641886e-01 -1.587302e-02  8.262425e-01
     vertex -4.688021e-01 -9.523815e-02  8.384073e-01
     vertex -4.641886e-01 -9.523815e-02  8.262425e-01
   endloop
 endfacet
 facet normal  8.229839e-01  0.000000e+00  5.680647e-01
   outer loop
     vertex -4.567979e-01 -1.587302e-02  8.155352e-01
     vertex -4.641886e-01 -9.523815e-02  8.262425e-01
     vertex -4.567979e-01 -9.523815e-02  8.155352e-01
   endloop
 endfacet
 facet normal  8.229839e-01  0.000000e+00  5.680647e-01
   outer loop
     vertex -4.567979e-01 -1.587302e-02  8.155352e-01
     vertex -4.641886e-01 -1.587302e-02  8.262425e-01
     vertex -4.641886e-01 -9.523815e-02  8.262425e-01
   endloop
 endfacet
 facet normal  6.631227e-01  0.000000e+00  7.485107e-01
   outer loop
     vertex -4.470595e-01 -1.587302e-02  8.069078e-01
     vertex -4.567979e-01 -9.523815e-02  8.155352e-01
     vertex -4.470595e-01 -9.523815e-02  8.069078e-01
   endloop
 endfacet
 facet normal  6.631227e-01  0.000000e+00  7.485107e-01
   outer loop
     vertex -4.470595e-01 -1.587302e-02  8.069078e-01
     vertex -4.567979e-01 -1.587302e-02  8.155352e-01
     vertex -4.567979e-01 -9.523815e-02  8.155352e-01
   endloop
 endfacet
 facet normal  4.647232e-01  0.000000e+00  8.854560e-01
   outer loop
     vertex -4.355395e-01 -1.587302e-02  8.008616e-01
     vertex -4.470595e-01 -9.523815e-02  8.069078e-01
     vertex -4.355395e-01 -9.523815e-02  8.008616e-01
   endloop
 endfacet
 facet normal  4.647232e-01  0.000000e+00  8.854560e-01
   outer loop
     vertex -4.355395e-01 -1.587302e-02  8.008616e-01
     vertex -4.470595e-01 -1.587302e-02  8.069078e-01
     vertex -4.470595e-01 -9.523815e-02  8.069078e-01
   endloop
 endfacet
 facet normal  2.393157e-01  0.000000e+00  9.709418e-01
   outer loop
     vertex -4.229072e-01 -1.587302e-02  7.977480e-01
     vertex -4.355395e-01 -9.523815e-02  8.008616e-01
     vertex -4.229072e-01 -9.523815e-02  7.977480e-01
   endloop
 endfacet
 facet normal  2.393157e-01  0.000000e+00  9.709418e-01
   outer loop
     vertex -4.229072e-01 -1.587302e-02  7.977480e-01
     vertex -4.355395e-01 -1.587302e-02  8.008616e-01
     vertex -4.355395e-01 -9.523815e-02  8.008616e-01
   endloop
 endfacet
 facet normal  0.000000e+00  0.000000e+00  1.000000e+00
   outer loop
     vertex -4.098969e-01 -1.587302e-02  7.977480e-01
     vertex -4.229072e-01 -9.523815e-02  7.977480e-01
     vertex -4.098969e-01 -9.523815e-02  7.977480e-01
   endloop
 endfacet
 facet normal  0.000000e+00  0.000000e+00  1.000000e+00
   outer loop
     vertex -4.098969e-01 -1.587302e-02  7.977480e-01
     vertex -4.229072e-01 -1.587302e-02  7.977480e-01
     vertex -4.229072e-01 -9.523815e-02  7.977480e-01
   endloop
 endfacet
 facet normal -2.393157e-01  0.000000e+00  9.709418e-01
   outer loop
     vertex -3.972647e-01 -1.587302e-02  8.008616e-01
     vertex -4.098969e-01 -9.523815e-02  7.977480e-01
     vertex -3.972647e-01 -9.523815e-02  8.008616e-01
   endloop
 endfacet
 facet normal -2.393157e-01  0.000000e+00  9.709418e-01
   outer loop
     vertex -3.972647e-01 -1.587302e-02  8.008616e-01
     vertex -4.098969e-01 -1.587302e-02  7.977480e-01
     vertex -4.098969e-01 -9.523815e-02  7.977480e-01
   endloop
 endfacet
 facet normal -4.647232e-01  0.000000e+00  8.854560e-01
   outer loop
     vertex -3.857446e-01 -1.587302e-02  8.069078e-01
     vertex -3.972647e-01 -9.523815e-02  8.008616e-01
     vertex -3.857446e-01 -9.523815e-02  8.069078e-01
   endloop
 endfacet
 facet normal -6.631227e-01  0.000000e+00  7.485107e-01
   outer loop
     vertex -3.857446e-01 -1.587302e-02  8.069078e-01
     vertex -3.857446e-01 -9.523815e-02  8.069078e-01
     vertex -3.760062e-01 -9.523815e-02  8.155352e-01
   endloop
 endfacet
 facet normal -4.647232e-01  0.000000e+00  8.854560e-01
   outer loop
     vertex -3.857446e-01 -1.587302e-02  8.069078e-01
     vertex -3.972647e-01 -1.587302e-02  8.008616e-01
     vertex -3.972647e-01 -9.523815e-02  8.008616e-01
   endloop
 endfacet
 facet normal -6.631227e-01  0.000000e+00  7.485107e-01
   outer loop
     vertex -3.760062e-01 -1.587302e-02  8.155352e-01
     vertex -3.857446e-01 -1.587302e-02  8.069078e-01
     vertex -3.760062e-01 -9.523815e-02  8.155352e-01
   endloop
 endfacet
 facet normal -8.229839e-01  0.000000e+00  5.680647e-01
   outer loop
     vertex -3.686155e-01 -1.587302e-02  8.262425e-01
     vertex -3.760062e-01 -9.523815e-02  8.155352e-01
     vertex -3.686155e-01 -9.523815e-02  8.262425e-01
   endloop
 endfacet
 facet normal -8.229839e-01  0.000000e+00  5.680647e-01
   outer loop
     vertex -3.686155e-01 -1.587302e-02  8.262425e-01
     vertex -3.760062e-01 -1.587302e-02  8.155352e-01
     vertex -3.760062e-01 -9.523815e-02  8.155352e-01
   endloop
 endfacet
 facet normal -9.350162e-01  0.000000e+00  3.546049e-01
   outer loop
     vertex -3.640020e-01 -1.587302e-02  8.384073e-01
     vertex -3.686155e-01 -9.523815e-02  8.262425e-01
     vertex -3.640020e-01 -9.523815e-02  8.384073e-01
   endloop
 endfacet
 facet normal -9.350162e-01  0.000000e+00  3.546049e-01
   outer loop
     vertex -3.640020e-01 -1.587302e-02  8.384073e-01
     vertex -3.686155e-01 -1.587302e-02  8.262425e-01
     vertex -3.686155e-01 -9.523815e-02  8.262425e-01
   endloop
 endfacet
 facet normal -9.927089e-01  0.000000e+00  1.205367e-01
   outer loop
     vertex -3.624338e-01 -1.587302e-02  8.513228e-01
     vertex -3.640020e-01 -9.523815e-02  8.384073e-01
     vertex -3.624338e-01 -9.523815e-02  8.513228e-01
   endloop
 endfacet
 facet normal -9.927089e-01  0.000000e+00  1.205367e-01
   outer loop
     vertex -3.624338e-01 -1.587302e-02  8.513228e-01
     vertex -3.640020e-01 -1.587302e-02  8.384073e-01
     vertex -3.640020e-01 -9.523815e-02  8.384073e-01
   endloop
 endfacet
 facet normal -1.000000e+00  0.000000e+00  0.000000e+00
   outer loop
     vertex -4.883598e-01 -1.587302e-02 -8.396825e-01
     vertex -4.883598e-01 -1.587302e-02  7.433863e-01
     vertex -4.883598e-01  0.000000e+00  7.433863e-01
   endloop
 endfacet
 facet normal -1.000000e+00  0.000000e+00  0.000000e+00
   outer loop
     vertex -4.883598e-01 -1.587302e-02 -8.396825e-01
     vertex -4.883598e-01  0.000000e+00  7.433863e-01
     vertex -4.883598e-01  0.000000e+00 -8.396825e-01
   endloop
 endfacet
 facet normal  0.000000e+00  0.000000e+00  1.000000e+00
   outer loop
     vertex  1.232805e-01 -1.587302e-02  9.232805e-01
     vertex  7.349207e-01 -1.587302e-02  9.232805e-01
     vertex  7.349207e-01  0.000000e+00  9.232805e-01
   endloop
 endfacet
 facet normal  0.000000e+00  0.000000e+00  1.000000e+00
   outer loop
     vertex  1.232805e-01 -1.587302e-02  9.232805e-01
     vertex  7.349207e-01  0.000000e+00  9.232805e-01
     vertex  1.232805e-01  0.000000e+00  9.232805e-01
   endloop
 endfacet
 facet normal -1.000000e+00  0.000000e+00  0.000000e+00
   outer loop
     vertex -4.883598e-01 -1.587302e-02  7.433863e-01
     vertex -4.883598e-01 -1.587302e-02  9.232805e-01
     vertex -4.883598e-01  0.000000e+00  9.232805e-01
   endloop
 endfacet
 facet normal -1.000000e+00  0.000000e+00  0.000000e+00
   outer loop
     vertex -4.883598e-01 -1.587302e-02  7.433863e-01
     vertex -4.883598e-01  0.000000e+00  9.232805e-01
     vertex -4.883598e-01  0.000000e+00  7.433863e-01
   endloop
 endfacet
 facet normal  0.000000e+00  0.000000e+00  1.000000e+00
   outer loop
     vertex -4.883598e-01 -1.587302e-02  9.232805e-01
     vertex  1.232805e-01 -1.587302e-02  9.232805e-01
     vertex  1.232805e-01  0.000000e+00  9.232805e-01
   endloop
 endfacet
 facet normal  0.000000e+00  0.000000e+00  1.000000e+00
   outer loop
     vertex -4.883598e-01 -1.587302e-02  9.232805e-01
     vertex  1.232805e-01  0.000000e+00  9.232805e-01
     vertex -4.883598e-01  0.000000e+00  9.232805e-01
   endloop
 endfacet
 facet normal -9.927089e-01  0.000000e+00 -1.205367e-01
   outer loop
     vertex -3.640020e-01 -1.587302e-02 -9.347036e-01
     vertex -3.624338e-01  0.000000e+00 -9.476190e-01
     vertex -3.624338e-01 -1.587302e-02 -9.476190e-01
   endloop
 endfacet
 facet normal -9.927089e-01  0.000000e+00 -1.205367e-01
   outer loop
     vertex -3.640020e-01 -1.587302e-02 -9.347036e-01
     vertex -3.640020e-01  0.000000e+00 -9.347036e-01
     vertex -3.624338e-01  0.000000e+00 -9.476190e-01
   endloop
 endfacet
 facet normal -9.350162e-01  0.000000e+00 -3.546049e-01
   outer loop
     vertex -3.686155e-01 -1.587302e-02 -9.225387e-01
     vertex -3.686155e-01  0.000000e+00 -9.225387e-01
     vertex -3.640020e-01  0.000000e+00 -9.347036e-01
   endloop
 endfacet
 facet normal -9.350162e-01  0.000000e+00 -3.546049e-01
   outer loop
     vertex -3.686155e-01 -1.587302e-02 -9.225387e-01
     vertex -3.640020e-01  0.000000e+00 -9.347036e-01
     vertex -3.640020e-01 -1.587302e-02 -9.347036e-01
   endloop
 endfacet
 facet normal -8.229839e-01  0.000000e+00 -5.680647e-01
   outer loop
     vertex -3.760062e-01 -1.587302e-02 -9.118314e-01
     vertex -3.760062e-01  0.000000e+00 -9.118314e-01
     vertex -3.686155e-01  0.000000e+00 -9.225387e-01
   endloop
 endfacet
 facet normal -8.229839e-01  0.000000e+00 -5.680647e-01
   outer loop
     vertex -3.760062e-01 -1.587302e-02 -9.118314e-01
     vertex -3.686155e-01  0.000000e+00 -9.225387e-01
     vertex -3.686155e-01 -1.587302e-02 -9.225387e-01
   endloop
 endfacet
 facet normal -6.631227e-01  0.000000e+00 -7.485107e-01
   outer loop
     vertex -3.857446e-01 -1.587302e-02 -9.032040e-01
     vertex -3.857446e-01  0.000000e+00 -9.032040e-01
     vertex -3.760062e-01  0.000000e+00 -9.118314e-01
   endloop
 endfacet
 facet normal -6.631227e-01  0.000000e+00 -7.485107e-01
   outer loop
     vertex -3.857446e-01 -1.587302e-02 -9.032040e-01
     vertex -3.760062e-01  0.000000e+00 -9.118314e-01
     vertex -3.760062e-01 -1.587302e-02 -9.118314e-01
   endloop
 endfacet
 facet normal -4.647232e-01  0.000000e+00 -8.854560e-01
   outer loop
     vertex -3.972647e-01 -1.587302e-02 -8.971578e-01
     vertex -3.972647e-01  0.000000e+00 -8.971578e-01
     vertex -3.857446e-01  0.000000e+00 -9.032040e-01
   endloop
 endfacet
 facet normal -4.647232e-01  0.000000e+00 -8.854560e-01
   outer loop
     vertex -3.972647e-01 -1.587302e-02 -8.971578e-01
     vertex -3.857446e-01  0.000000e+00 -9.032040e-01
     vertex -3.857446e-01 -1.587302e-02 -9.032040e-01
   endloop
 endfacet
 facet normal -2.393157e-01  0.000000e+00 -9.709418e-01
   outer loop
     vertex -4.098969e-01 -1.587302e-02 -8.940443e-01
     vertex -4.098969e-01  0.000000e+00 -8.940443e-01
     vertex -3.972647e-01  0.000000e+00 -8.971578e-01
   endloop
 endfacet
 facet normal -2.393157e-01  0.000000e+00 -9.709418e-01
   outer loop
     vertex -4.098969e-01 -1.587302e-02 -8.940443e-01
     vertex -3.972647e-01  0.000000e+00 -8.971578e-01
     vertex -3.972647e-01 -1.587302e-02 -8.971578e-01
   endloop
 endfacet
 facet normal  0.000000e+00  0.000000e+00 -1.000000e+00
   outer loop
     vertex -4.229072e-01 -1.587302e-02 -8.940443e-01
     vertex -4.229072e-01  0.000000e+00 -8.940443e-01
     vertex -4.098969e-01  0.000000e+00 -8.940443e-01
   endloop
 endfacet
 facet normal  0.000000e+00  0.000000e+00 -1.000000e+00
   outer loop
     vertex -4.229072e-01 -1.587302e-02 -8.940443e-01
     vertex -4.098969e-01  0.000000e+00 -8.940443e-01
     vertex -4.098969e-01 -1.587302e-02 -8.940443e-01
   endloop
 endfacet
 facet normal  2.393157e-01  0.000000e+00 -9.709418e-01
   outer loop
     vertex -4.355395e-01 -1.587302e-02 -8.971578e-01
     vertex -4.355395e-01  0.000000e+00 -8.971578e-01
     vertex -4.229072e-01  0.000000e+00 -8.940443e-01
   endloop
 endfacet
 facet normal  2.393157e-01  0.000000e+00 -9.709418e-01
   outer loop
     vertex -4.355395e-01 -1.587302e-02 -8.971578e-01
     vertex -4.229072e-01  0.000000e+00 -8.940443e-01
     vertex -4.229072e-01 -1.587302e-02 -8.940443e-01
   endloop
 endfacet
 facet normal  4.647232e-01  0.000000e+00 -8.854560e-01
   outer loop
     vertex -4.470595e-01 -1.587302e-02 -9.032040e-01
     vertex -4.470595e-01  0.000000e+00 -9.032040e-01
     vertex -4.355395e-01  0.000000e+00 -8.971578e-01
   endloop
 endfacet
 facet normal  4.647232e-01  0.000000e+00 -8.854560e-01
   outer loop
     vertex -4.470595e-01 -1.587302e-02 -9.032040e-01
     vertex -4.355395e-01  0.000000e+00 -8.971578e-01
     vertex -4.355395e-01 -1.587302e-02 -8.971578e-01
   endloop
 endfacet
 facet normal  6.631227e-01  0.000000e+00 -7.485107e-01
   outer loop
     vertex -4.567979e-01 -1.587302e-02 -9.118314e-01
     vertex -4.567979e-01  0.000000e+00 -9.118314e-01
     vertex -4.470595e-01  0.000000e+00 -9.032040e-01
   endloop
 endfacet
 facet normal  6.631227e-01  0.000000e+00 -7.485107e-01
   outer loop
     vertex -4.567979e-01 -1.587302e-02 -9.118314e-01
     vertex -4.470595e-01  0.000000e+00 -9.032040e-01
     vertex -4.470595e-01 -1.587302e-02 -9.032040e-01
   endloop
 endfacet
 facet normal  8.229839e-01  0.000000e+00 -5.680647e-01
   outer loop
     vertex -4.641886e-01 -1.587302e-02 -9.225387e-01
     vertex -4.567979e-01  0.000000e+00 -9.118314e-01
     vertex -4.567979e-01 -1.587302e-02 -9.118314e-01
   endloop
 endfacet
 facet normal  8.229839e-01  0.000000e+00 -5.680647e-01
   outer loop
     vertex -4.641886e-01 -1.587302e-02 -9.225387e-01
     vertex -4.641886e-01  0.000000e+00 -9.225387e-01
     vertex -4.567979e-01  0.000000e+00 -9.118314e-01
   endloop
 endfacet
 facet normal  9.350162e-01  0.000000e+00 -3.546049e-01
   outer loop
     vertex -4.688021e-01 -1.587302e-02 -9.347036e-01
     vertex -4.641886e-01  0.000000e+00 -9.225387e-01
     vertex -4.641886e-01 -1.587302e-02 -9.225387e-01
   endloop
 endfacet
 facet normal  9.350162e-01  0.000000e+00 -3.546049e-01
   outer loop
     vertex -4.688021e-01 -1.587302e-02 -9.347036e-01
     vertex -4.688021e-01  0.000000e+00 -9.347036e-01
     vertex -4.641886e-01  0.000000e+00 -9.225387e-01
   endloop
 endfacet
 facet normal  9.927089e-01  0.000000e+00 -1.205367e-01
   outer loop
     vertex -4.703703e-01 -1.587302e-02 -9.476190e-01
     vertex -4.688021e-01  0.000000e+00 -9.347036e-01
     vertex -4.688021e-01 -1.587302e-02 -9.347036e-01
   endloop
 endfacet
 facet normal  9.927089e-01  0.000000e+00 -1.205367e-01
   outer loop
     vertex -4.703703e-01 -1.587302e-02 -9.476190e-01
     vertex -4.703703e-01  0.000000e+00 -9.476190e-01
     vertex -4.688021e-01  0.000000e+00 -9.347036e-01
   endloop
 endfacet
 facet normal  9.927089e-01 -0.000000e+00  1.205367e-01
   outer loop
     vertex -4.688021e-01 -1.587302e-02 -9.605345e-01
     vertex -4.688021e-01  0.000000e+00 -9.605345e-01
     vertex -4.703703e-01  0.000000e+00 -9.476190e-01
   endloop
 endfacet
 facet normal  9.927089e-01  0.000000e+00  1.205367e-01
   outer loop
     vertex -4.688021e-01 -1.587302e-02 -9.605345e-01
     vertex -4.703703e-01  0.000000e+00 -9.476190e-01
     vertex -4.703703e-01 -1.587302e-02 -9.476190e-01
   endloop
 endfacet
 facet normal  9.350162e-01  0.000000e+00  3.546049e-01
   outer loop
     vertex -4.641886e-01 -1.587302e-02 -9.726993e-01
     vertex -4.688021e-01  0.000000e+00 -9.605345e-01
     vertex -4.688021e-01 -1.587302e-02 -9.605345e-01
   endloop
 endfacet
 facet normal  9.350162e-01 -0.000000e+00  3.546049e-01
   outer loop
     vertex -4.641886e-01 -1.587302e-02 -9.726993e-01
     vertex -4.641886e-01  0.000000e+00 -9.726993e-01
     vertex -4.688021e-01  0.000000e+00 -9.605345e-01
   endloop
 endfacet
 facet normal  8.229839e-01 -0.000000e+00  5.680647e-01
   outer loop
     vertex -4.567979e-01 -1.587302e-02 -9.834066e-01
     vertex -4.567979e-01  0.000000e+00 -9.834066e-01
     vertex -4.641886e-01  0.000000e+00 -9.726993e-01
   endloop
 endfacet
 facet normal  8.229839e-01  0.000000e+00  5.680647e-01
   outer loop
     vertex -4.567979e-01 -1.587302e-02 -9.834066e-01
     vertex -4.641886e-01  0.000000e+00 -9.726993e-01
     vertex -4.641886e-01 -1.587302e-02 -9.726993e-01
   endloop
 endfacet
 facet normal  6.631227e-01 -0.000000e+00  7.485107e-01
   outer loop
     vertex -4.470595e-01 -1.587302e-02 -9.920340e-01
     vertex -4.470595e-01  0.000000e+00 -9.920340e-01
     vertex -4.567979e-01  0.000000e+00 -9.834066e-01
   endloop
 endfacet
 facet normal  6.631227e-01  0.000000e+00  7.485107e-01
   outer loop
     vertex -4.470595e-01 -1.587302e-02 -9.920340e-01
     vertex -4.567979e-01  0.000000e+00 -9.834066e-01
     vertex -4.567979e-01 -1.587302e-02 -9.834066e-01
   endloop
 endfacet
 facet normal  4.647232e-01 -0.000000e+00  8.854560e-01
   outer loop
     vertex -4.355395e-01 -1.587302e-02 -9.980802e-01
     vertex -4.355395e-01  0.000000e+00 -9.980802e-01
     vertex -4.470595e-01  0.000000e+00 -9.920340e-01
   endloop
 endfacet
 facet normal  4.647232e-01  0.000000e+00  8.854560e-01
   outer loop
     vertex -4.355395e-01 -1.587302e-02 -9.980802e-01
     vertex -4.470595e-01  0.000000e+00 -9.920340e-01
     vertex -4.470595e-01 -1.587302e-02 -9.920340e-01
   endloop
 endfacet
 facet normal  2.393157e-01 -0.000000e+00  9.709418e-01
   outer loop
     vertex -4.229072e-01 -1.587302e-02 -1.001194e+00
     vertex -4.229072e-01  0.000000e+00 -1.001194e+00
     vertex -4.355395e-01  0.000000e+00 -9.980802e-01
   endloop
 endfacet
 facet normal  2.393157e-01  0.000000e+00  9.709418e-01
   outer loop
     vertex -4.229072e-01 -1.587302e-02 -1.001194e+00
     vertex -4.355395e-01  0.000000e+00 -9.980802e-01
     vertex -4.355395e-01 -1.587302e-02 -9.980802e-01
   endloop
 endfacet
 facet normal  0.000000e+00 -0.000000e+00  1.000000e+00
   outer loop
     vertex -4.098969e-01 -1.587302e-02 -1.001194e+00
     vertex -4.098969e-01  0.000000e+00 -1.001194e+00
     vertex -4.229072e-01  0.000000e+00 -1.001194e+00
   endloop
 endfacet
 facet normal  0.000000e+00  0.000000e+00  1.000000e+00
   outer loop
     vertex -4.098969e-01 -1.587302e-02 -1.001194e+00
     vertex -4.229072e-01  0.000000e+00 -1.001194e+00
     vertex -4.229072e-01 -1.587302e-02 -1.001194e+00
   endloop
 endfacet
 facet normal -2.393157e-01  0.000000e+00  9.709418e-01
   outer loop
     vertex -3.972647e-01 -1.587302e-02 -9.980802e-01
     vertex -3.972647e-01  0.000000e+00 -9.980802e-01
     vertex -4.098969e-01  0.000000e+00 -1.001194e+00
   endloop
 endfacet
 facet normal -2.393157e-01  0.000000e+00  9.709418e-01
   outer loop
     vertex -3.972647e-01 -1.587302e-02 -9.980802e-01
     vertex -4.098969e-01  0.000000e+00 -1.001194e+00
     vertex -4.098969e-01 -1.587302e-02 -1.001194e+00
   endloop
 endfacet
 facet normal -4.647232e-01  0.000000e+00  8.854560e-01
   outer loop
     vertex -3.857446e-01 -1.587302e-02 -9.920340e-01
     vertex -3.857446e-01  0.000000e+00 -9.920340e-01
     vertex -3.972647e-01  0.000000e+00 -9.980802e-01
   endloop
 endfacet
 facet normal -4.647232e-01  0.000000e+00  8.854560e-01
   outer loop
     vertex -3.857446e-01 -1.587302e-02 -9.920340e-01
     vertex -3.972647e-01  0.000000e+00 -9.980802e-01
     vertex -3.972647e-01 -1.587302e-02 -9.980802e-01
   endloop
 endfacet
 facet normal -6.631227e-01  0.000000e+00  7.485107e-01
   outer loop
     vertex -3.760062e-01 -1.587302e-02 -9.834066e-01
     vertex -3.760062e-01  0.000000e+00 -9.834066e-01
     vertex -3.857446e-01  0.000000e+00 -9.920340e-01
   endloop
 endfacet
 facet normal -6.631227e-01  0.000000e+00  7.485107e-01
   outer loop
     vertex -3.760062e-01 -1.587302e-02 -9.834066e-01
     vertex -3.857446e-01  0.000000e+00 -9.920340e-01
     vertex -3.857446e-01 -1.587302e-02 -9.920340e-01
   endloop
 endfacet
 facet normal -8.229839e-01  0.000000e+00  5.680647e-01
   outer loop
     vertex -3.686155e-01 -1.587302e-02 -9.726993e-01
     vertex -3.686155e-01  0.000000e+00 -9.726993e-01
     vertex -3.760062e-01  0.000000e+00 -9.834066e-01
   endloop
 endfacet
 facet normal -8.229839e-01  0.000000e+00  5.680647e-01
   outer loop
     vertex -3.686155e-01 -1.587302e-02 -9.726993e-01
     vertex -3.760062e-01  0.000000e+00 -9.834066e-01
     vertex -3.760062e-01 -1.587302e-02 -9.834066e-01
   endloop
 endfacet
 facet normal -9.350162e-01  0.000000e+00  3.546049e-01
   outer loop
     vertex -3.640020e-01 -1.587302e-02 -9.605345e-01
     vertex -3.640020e-01  0.000000e+00 -9.605345e-01
     vertex -3.686155e-01  0.000000e+00 -9.726993e-01
   endloop
 endfacet
 facet normal -9.350162e-01  0.000000e+00  3.546049e-01
   outer loop
     vertex -3.640020e-01 -1.587302e-02 -9.605345e-01
     vertex -3.686155e-01  0.000000e+00 -9.726993e-01
     vertex -3.686155e-01 -1.587302e-02 -9.726993e-01
   endloop
 endfacet
 facet normal -9.927089e-01  0.000000e+00  1.205367e-01
   outer loop
     vertex -3.624338e-01 -1.587302e-02 -9.476190e-01
     vertex -3.624338e-01  0.000000e+00 -9.476190e-01
     vertex -3.640020e-01  0.000000e+00 -9.605345e-01
   endloop
 endfacet
 facet normal -9.927089e-01  0.000000e+00  1.205367e-01
   outer loop
     vertex -3.624338e-01 -1.587302e-02 -9.476190e-01
     vertex -3.640020e-01  0.000000e+00 -9.605345e-01
     vertex -3.640020e-01 -1.587302e-02 -9.605345e-01
   endloop
 endfacet
 facet normal -9.927089e-01  0.000000e+00 -1.205367e-01
   outer loop
     vertex -3.640020e-01 -1.587302e-02  8.642382e-01
     vertex -3.624338e-01  0.000000e+00  8.513228e-01
     vertex -3.624338e-01 -1.587302e-02  8.513228e-01
   endloop
 endfacet
 facet normal -9.927089e-01  0.000000e+00 -1.205367e-01
   outer loop
     vertex -3.640020e-01 -1.587302e-02  8.642382e-01
     vertex -3.640020e-01  0.000000e+00  8.642382e-01
     vertex -3.624338e-01  0.000000e+00  8.513228e-01
   endloop
 endfacet
 facet normal -9.350162e-01  0.000000e+00 -3.546049e-01
   outer loop
     vertex -3.686155e-01 -1.587302e-02  8.764031e-01
     vertex -3.686155e-01  0.000000e+00  8.764031e-01
     vertex -3.640020e-01  0.000000e+00  8.642382e-01
   endloop
 endfacet
 facet normal -9.350162e-01  0.000000e+00 -3.546049e-01
   outer loop
     vertex -3.686155e-01 -1.587302e-02  8.764031e-01
     vertex -3.640020e-01  0.000000e+00  8.642382e-01
     vertex -3.640020e-01 -1.587302e-02  8.642382e-01
   endloop
 endfacet
 facet normal -8.229839e-01  0.000000e+00 -5.680647e-01
   outer loop
     vertex -3.760062e-01 -1.587302e-02  8.871104e-01
     vertex -3.760062e-01  0.000000e+00  8.871104e-01
     vertex -3.686155e-01  0.000000e+00  8.764031e-01
   endloop
 endfacet
 facet normal -8.229839e-01  0.000000e+00 -5.680647e-01
   outer loop
     vertex -3.760062e-01 -1.587302e-02  8.871104e-01
     vertex -3.686155e-01  0.000000e+00  8.764031e-01
     vertex -3.686155e-01 -1.587302e-02  8.764031e-01
   endloop
 endfacet
 facet normal -6.631227e-01  0.000000e+00 -7.485107e-01
   outer loop
     vertex -3.857446e-01 -1.587302e-02  8.957378e-01
     vertex -3.857446e-01  0.000000e+00  8.957378e-01
     vertex -3.760062e-01  0.000000e+00  8.871104e-01
   endloop
 endfacet
 facet normal -6.631227e-01  0.000000e+00 -7.485107e-01
   outer loop
     vertex -3.857446e-01 -1.587302e-02  8.957378e-01
     vertex -3.760062e-01  0.000000e+00  8.871104e-01
     vertex -3.760062e-01 -1.587302e-02  8.871104e-01
   endloop
 endfacet
 facet normal -4.647232e-01  0.000000e+00 -8.854560e-01
   outer loop
     vertex -3.972647e-01 -1.587302e-02  9.017840e-01
     vertex -3.972647e-01  0.000000e+00  9.017840e-01
     vertex -3.857446e-01  0.000000e+00  8.957378e-01
   endloop
 endfacet
 facet normal -4.647232e-01  0.000000e+00 -8.854560e-01
   outer loop
     vertex -3.972647e-01 -1.587302e-02  9.017840e-01
     vertex -3.857446e-01  0.000000e+00  8.957378e-01
     vertex -3.857446e-01 -1.587302e-02  8.957378e-01
   endloop
 endfacet
 facet normal -2.393157e-01  0.000000e+00 -9.709418e-01
   outer loop
     vertex -4.098969e-01 -1.587302e-02  9.048976e-01
     vertex -4.098969e-01  0.000000e+00  9.048976e-01
     vertex -3.972647e-01  0.000000e+00  9.017840e-01
   endloop
 endfacet
 facet normal -2.393157e-01  0.000000e+00 -9.709418e-01
   outer loop
     vertex -4.098969e-01 -1.587302e-02  9.048976e-01
     vertex -3.972647e-01  0.000000e+00  9.017840e-01
     vertex -3.972647e-01 -1.587302e-02  9.017840e-01
   endloop
 endfacet
 facet normal  0.000000e+00  0.000000e+00 -1.000000e+00
   outer loop
     vertex -4.229072e-01 -1.587302e-02  9.048976e-01
     vertex -4.229072e-01  0.000000e+00  9.048976e-01
     vertex -4.098969e-01  0.000000e+00  9.048976e-01
   endloop
 endfacet
 facet normal  0.000000e+00  0.000000e+00 -1.000000e+00
   outer loop
     vertex -4.229072e-01 -1.587302e-02  9.048976e-01
     vertex -4.098969e-01  0.000000e+00  9.048976e-01
     vertex -4.098969e-01 -1.587302e-02  9.048976e-01
   endloop
 endfacet
 facet normal  2.393157e-01  0.000000e+00 -9.709418e-01
   outer loop
     vertex -4.355395e-01 -1.587302e-02  9.017840e-01
     vertex -4.355395e-01  0.000000e+00  9.017840e-01
     vertex -4.229072e-01  0.000000e+00  9.048976e-01
   endloop
 endfacet
 facet normal  2.393157e-01  0.000000e+00 -9.709418e-01
   outer loop
     vertex -4.355395e-01 -1.587302e-02  9.017840e-01
     vertex -4.229072e-01  0.000000e+00  9.048976e-01
     vertex -4.229072e-01 -1.587302e-02  9.048976e-01
   endloop
 endfacet
 facet normal  4.647232e-01  0.000000e+00 -8.854560e-01
   outer loop
     vertex -4.470595e-01 -1.587302e-02  8.957378e-01
     vertex -4.470595e-01  0.000000e+00  8.957378e-01
     vertex -4.355395e-01  0.000000e+00  9.017840e-01
   endloop
 endfacet
 facet normal  4.647232e-01  0.000000e+00 -8.854560e-01
   outer loop
     vertex -4.470595e-01 -1.587302e-02  8.957378e-01
     vertex -4.355395e-01  0.000000e+00  9.017840e-01
     vertex -4.355395e-01 -1.587302e-02  9.017840e-01
   endloop
 endfacet
 facet normal  6.631227e-01  0.000000e+00 -7.485107e-01
   outer loop
     vertex -4.567979e-01 -1.587302e-02  8.871104e-01
     vertex -4.567979e-01  0.000000e+00  8.871104e-01
     vertex -4.470595e-01  0.000000e+00  8.957378e-01
   endloop
 endfacet
 facet normal  6.631227e-01  0.000000e+00 -7.485107e-01
   outer loop
     vertex -4.567979e-01 -1.587302e-02  8.871104e-01
     vertex -4.470595e-01  0.000000e+00  8.957378e-01
     vertex -4.470595e-01 -1.587302e-02  8.957378e-01
   endloop
 endfacet
 facet normal  8.229839e-01  0.000000e+00 -5.680647e-01
   outer loop
     vertex -4.641886e-01 -1.587302e-02  8.764031e-01
     vertex -4.567979e-01  0.000000e+00  8.871104e-01
     vertex -4.567979e-01 -1.587302e-02  8.871104e-01
   endloop
 endfacet
 facet normal  8.229839e-01  0.000000e+00 -5.680647e-01
   outer loop
     vertex -4.641886e-01 -1.587302e-02  8.764031e-01
     vertex -4.641886e-01  0.000000e+00  8.764031e-01
     vertex -4.567979e-01  0.000000e+00  8.871104e-01
   endloop
 endfacet
 facet normal  9.350162e-01  0.000000e+00 -3.546049e-01
   outer loop
     vertex -4.688021e-01 -1.587302e-02  8.642382e-01
     vertex -4.641886e-01  0.000000e+00  8.764031e-01
     vertex -4.641886e-01 -1.587302e-02  8.764031e-01
   endloop
 endfacet
 facet normal  9.350162e-01  0.000000e+00 -3.546049e-01
   outer loop
     vertex -4.688021e-01 -1.587302e-02  8.642382e-01
     vertex -4.688021e-01  0.000000e+00  8.642382e-01
     vertex -4.641886e-01  0.000000e+00  8.764031e-01
   endloop
 endfacet
 facet normal  9.927089e-01  0.000000e+00 -1.205367e-01
   outer loop
     vertex -4.703703e-01 -1.587302e-02  8.513228e-01
     vertex -4.688021e-01  0.000000e+00  8.642382e-01
     vertex -4.688021e-01 -1.587302e-02  8.642382e-01
   endloop
 endfacet
 facet normal  9.927089e-01  0.000000e+00 -1.205367e-01
   outer loop
     vertex -4.703703e-01 -1.587302e-02  8.513228e-01
     vertex -4.703703e-01  0.000000e+00  8.513228e-01
     vertex -4.688021e-01  0.000000e+00  8.642382e-01
   endloop
 endfacet
 facet normal  9.927089e-01 -0.000000e+00  1.205367e-01
   outer loop
     vertex -4.688021e-01 -1.587302e-02  8.384073e-01
     vertex -4.688021e-01  0.000000e+00  8.384073e-01
     vertex -4.703703e-01  0.000000e+00  8.513228e-01
   endloop
 endfacet
 facet normal  9.927089e-01  0.000000e+00  1.205367e-01
   outer loop
     vertex -4.688021e-01 -1.587302e-02  8.384073e-01
     vertex -4.703703e-01  0.000000e+00  8.513228e-01
     vertex -4.703703e-01 -1.587302e-02  8.513228e-01
   endloop
 endfacet
 facet normal  9.350162e-01  0.000000e+00  3.546049e-01
   outer loop
     vertex -4.641886e-01 -1.587302e-02  8.262425e-01
     vertex -4.688021e-01  0.000000e+00  8.384073e-01
     vertex -4.688021e-01 -1.587302e-02  8.384073e-01
   endloop
 endfacet
 facet normal  9.350162e-01 -0.000000e+00  3.546049e-01
   outer loop
     vertex -4.641886e-01 -1.587302e-02  8.262425e-01
     vertex -4.641886e-01  0.000000e+00  8.262425e-01
     vertex -4.688021e-01  0.000000e+00  8.384073e-01
   endloop
 endfacet
 facet normal  8.229839e-01 -0.000000e+00  5.680647e-01
   outer loop
     vertex -4.567979e-01 -1.587302e-02  8.155352e-01
     vertex -4.567979e-01  0.000000e+00  8.155352e-01
     vertex -4.641886e-01  0.000000e+00  8.262425e-01
   endloop
 endfacet
 facet normal  8.229839e-01  0.000000e+00  5.680647e-01
   outer loop
     vertex -4.567979e-01 -1.587302e-02  8.155352e-01
     vertex -4.641886e-01  0.000000e+00  8.262425e-01
     vertex -4.641886e-01 -1.587302e-02  8.262425e-01
   endloop
 endfacet
 facet normal  6.631227e-01 -0.000000e+00  7.485107e-01
   outer loop
     vertex -4.470595e-01 -1.587302e-02  8.069078e-01
     vertex -4.470595e-01  0.000000e+00  8.069078e-01
     vertex -4.567979e-01  0.000000e+00  8.155352e-01
   endloop
 endfacet
 facet normal  6.631227e-01  0.000000e+00  7.485107e-01
   outer loop
     vertex -4.470595e-01 -1.587302e-02  8.069078e-01
     vertex -4.567979e-01  0.000000e+00  8.155352e-01
     vertex -4.567979e-01 -1.587302e-02  8.155352e-01
   endloop
 endfacet
 facet normal  4.647232e-01 -0.000000e+00  8.854560e-01
   outer loop
     vertex -4.355395e-01 -1.587302e-02  8.008616e-01
     vertex -4.355395e-01  0.000000e+00  8.008616e-01
     vertex -4.470595e-01  0.000000e+00  8.069078e-01
   endloop
 endfacet
 facet normal  4.647232e-01  0.000000e+00  8.854560e-01
   outer loop
     vertex -4.355395e-01 -1.587302e-02  8.008616e-01
     vertex -4.470595e-01  0.000000e+00  8.069078e-01
     vertex -4.470595e-01 -1.587302e-02  8.069078e-01
   endloop
 endfacet
 facet normal  2.393157e-01 -0.000000e+00  9.709418e-01
   outer loop
     vertex -4.229072e-01 -1.587302e-02  7.977480e-01
     vertex -4.229072e-01  0.000000e+00  7.977480e-01
     vertex -4.355395e-01  0.000000e+00  8.008616e-01
   endloop
 endfacet
 facet normal  2.393157e-01  0.000000e+00  9.709418e-01
   outer loop
     vertex -4.229072e-01 -1.587302e-02  7.977480e-01
     vertex -4.355395e-01  0.000000e+00  8.008616e-01
     vertex -4.355395e-01 -1.587302e-02  8.008616e-01
   endloop
 endfacet
 facet normal  0.000000e+00 -0.000000e+00  1.000000e+00
   outer loop
     vertex -4.098969e-01 -1.587302e-02  7.977480e-01
     vertex -4.098969e-01  0.000000e+00  7.977480e-01
     vertex -4.229072e-01  0.000000e+00  7.977480e-01
   endloop
 endfacet
 facet normal  0.000000e+00  0.000000e+00  1.000000e+00
   outer loop
     vertex -4.098969e-01 -1.587302e-02  7.977480e-01
     vertex -4.229072e-01  0.000000e+00  7.977480e-01
     vertex -4.229072e-01 -1.587302e-02  7.977480e-01
   endloop
 endfacet
 facet normal -2.393157e-01  0.000000e+00  9.709418e-01
   outer loop
     vertex -3.972647e-01 -1.587302e-02  8.008616e-01
     vertex -3.972647e-01  0.000000e+00  8.008616e-01
     vertex -4.098969e-01  0.000000e+00  7.977480e-01
   endloop
 endfacet
 facet normal -2.393157e-01  0.000000e+00  9.709418e-01
   outer loop
     vertex -3.972647e-01 -1.587302e-02  8.008616e-01
     vertex -4.098969e-01  0.000000e+00  7.977480e-01
     vertex -4.098969e-01 -1.587302e-02  7.977480e-01
   endloop
 endfacet
 facet normal -4.647232e-01  0.000000e+00  8.854560e-01
   outer loop
     vertex -3.857446e-01 -1.587302e-02  8.069078e-01
     vertex -3.857446e-01  0.000000e+00  8.069078e-01
     vertex -3.972647e-01  0.000000e+00  8.008616e-01
   endloop
 endfacet
 facet normal -4.647232e-01  0.000000e+00  8.854560e-01
   outer loop
     vertex -3.857446e-01 -1.587302e-02  8.069078e-01
     vertex -3.972647e-01  0.000000e+00  8.008616e-01
     vertex -3.972647e-01 -1.587302e-02  8.008616e-01
   endloop
 endfacet
 facet normal -6.631227e-01  0.000000e+00  7.485107e-01
   outer loop
     vertex -3.760062e-01 -1.587302e-02  8.155352e-01
     vertex -3.760062e-01  0.000000e+00  8.155352e-01
     vertex -3.857446e-01  0.000000e+00  8.069078e-01
   endloop
 endfacet
 facet normal -6.631227e-01  0.000000e+00  7.485107e-01
   outer loop
     vertex -3.760062e-01 -1.587302e-02  8.155352e-01
     vertex -3.857446e-01  0.000000e+00  8.069078e-01
     vertex -3.857446e-01 -1.587302e-02  8.069078e-01
   endloop
 endfacet
 facet normal -8.229839e-01  0.000000e+00  5.680647e-01
   outer loop
     vertex -3.686155e-01 -1.587302e-02  8.262425e-01
     vertex -3.686155e-01  0.000000e+00  8.262425e-01
     vertex -3.760062e-01  0.000000e+00  8.155352e-01
   endloop
 endfacet
 facet normal -8.229839e-01  0.000000e+00  5.680647e-01
   outer loop
     vertex -3.686155e-01 -1.587302e-02  8.262425e-01
     vertex -3.760062e-01  0.000000e+00  8.155352e-01
     vertex -3.760062e-01 -1.587302e-02  8.155352e-01
   endloop
 endfacet
 facet normal -9.350162e-01  0.000000e+00  3.546049e-01
   outer loop
     vertex -3.640020e-01 -1.587302e-02  8.384073e-01
     vertex -3.640020e-01  0.000000e+00  8.384073e-01
     vertex -3.686155e-01  0.000000e+00  8.262425e-01
   endloop
 endfacet
 facet normal -9.350162e-01  0.000000e+00  3.546049e-01
   outer loop
     vertex -3.640020e-01 -1.587302e-02  8.384073e-01
     vertex -3.686155e-01  0.000000e+00  8.262425e-01
     vertex -3.686155e-01 -1.587302e-02  8.262425e-01
   endloop
 endfacet
 facet normal -9.927089e-01  0.000000e+00  1.205367e-01
   outer loop
     vertex -3.624338e-01 -1.587302e-02  8.513228e-01
     vertex -3.624338e-01  0.000000e+00  8.513228e-01
     vertex -3.640020e-01  0.000000e+00  8.384073e-01
   endloop
 endfacet
 facet normal -9.927089e-01  0.000000e+00  1.205367e-01
   outer loop
     vertex -3.624338e-01 -1.587302e-02  8.513228e-01
     vertex -3.640020e-01  0.000000e+00  8.384073e-01
     vertex -3.640020e-01 -1.587302e-02  8.384073e-01
   endloop
 endfacet
endsolid
