solid 
 facet normal -8.856913e-01  0.000000e+00  4.642746e-01
   outer loop
     vertex -1.502158e-01 -1.587302e-02 -8.534765e-01
     vertex -1.402116e-01 -6.349212e-02 -8.343915e-01
     vertex -1.402116e-01 -1.587302e-02 -8.343915e-01
   endloop
 endfacet
 facet normal -8.856913e-01  0.000000e+00  4.642746e-01
   outer loop
     vertex -1.502158e-01 -1.587302e-02 -8.534765e-01
     vertex -1.502158e-01 -6.349212e-02 -8.534765e-01
     vertex -1.402116e-01 -6.349212e-02 -8.343915e-01
   endloop
 endfacet
 facet normal -9.540747e-01  0.000000e+00  2.995686e-01
   outer loop
     vertex -1.566710e-01 -1.587302e-02 -8.740350e-01
     vertex -1.566710e-01 -6.349212e-02 -8.740350e-01
     vertex -1.502158e-01 -6.349212e-02 -8.534765e-01
   endloop
 endfacet
 facet normal -9.540747e-01  0.000000e+00  2.995686e-01
   outer loop
     vertex -1.566710e-01 -1.587302e-02 -8.740350e-01
     vertex -1.502158e-01 -6.349212e-02 -8.534765e-01
     vertex -1.502158e-01 -1.587302e-02 -8.534765e-01
   endloop
 endfacet
 facet normal -9.921145e-01  0.000000e+00  1.253351e-01
   outer loop
     vertex -1.593717e-01 -1.587302e-02 -8.954131e-01
     vertex -1.593717e-01 -6.349212e-02 -8.954131e-01
     vertex -1.566710e-01 -6.349212e-02 -8.740350e-01
   endloop
 endfacet
 facet normal -9.921145e-01  0.000000e+00  1.253351e-01
   outer loop
     vertex -1.593717e-01 -1.587302e-02 -8.954131e-01
     vertex -1.566710e-01 -6.349212e-02 -8.740350e-01
     vertex -1.566710e-01 -1.587302e-02 -8.740350e-01
   endloop
 endfacet
 facet normal -9.986006e-01 -0.000000e+00 -5.288469e-02
   outer loop
     vertex -1.582321e-01 -1.587302e-02 -9.169310e-01
     vertex -1.582321e-01 -6.349212e-02 -9.169310e-01
     vertex -1.593717e-01 -6.349212e-02 -8.954131e-01
   endloop
 endfacet
 facet normal -9.986006e-01  0.000000e+00 -5.288469e-02
   outer loop
     vertex -1.582321e-01 -1.587302e-02 -9.169310e-01
     vertex -1.593717e-01 -6.349212e-02 -8.954131e-01
     vertex -1.593717e-01 -1.587302e-02 -8.954131e-01
   endloop
 endfacet
 facet normal -9.733269e-01 -0.000000e+00 -2.294225e-01
   outer loop
     vertex -1.532885e-01 -1.587302e-02 -9.379044e-01
     vertex -1.532885e-01 -6.349212e-02 -9.379044e-01
     vertex -1.582321e-01 -6.349212e-02 -9.169310e-01
   endloop
 endfacet
 facet normal -9.733269e-01  0.000000e+00 -2.294225e-01
   outer loop
     vertex -1.532885e-01 -1.587302e-02 -9.379044e-01
     vertex -1.582321e-01 -6.349212e-02 -9.169310e-01
     vertex -1.582321e-01 -1.587302e-02 -9.169310e-01
   endloop
 endfacet
 facet normal -9.170972e-01 -0.000000e+00 -3.986637e-01
   outer loop
     vertex -1.446981e-01 -1.587302e-02 -9.576660e-01
     vertex -1.446981e-01 -6.349212e-02 -9.576660e-01
     vertex -1.532885e-01 -6.349212e-02 -9.379044e-01
   endloop
 endfacet
 facet normal -9.170972e-01  0.000000e+00 -3.986637e-01
   outer loop
     vertex -1.446981e-01 -1.587302e-02 -9.576660e-01
     vertex -1.532885e-01 -6.349212e-02 -9.379044e-01
     vertex -1.532885e-01 -1.587302e-02 -9.379044e-01
   endloop
 endfacet
 facet normal -8.316998e-01 -0.000000e+00 -5.552256e-01
   outer loop
     vertex -1.327340e-01 -1.587302e-02 -9.755876e-01
     vertex -1.327340e-01 -6.349212e-02 -9.755876e-01
     vertex -1.446981e-01 -6.349212e-02 -9.576660e-01
   endloop
 endfacet
 facet normal -8.316998e-01  0.000000e+00 -5.552256e-01
   outer loop
     vertex -1.327340e-01 -1.587302e-02 -9.755876e-01
     vertex -1.446981e-01 -6.349212e-02 -9.576660e-01
     vertex -1.446981e-01 -1.587302e-02 -9.576660e-01
   endloop
 endfacet
 facet normal -7.198507e-01 -0.000000e+00 -6.941289e-01
   outer loop
     vertex -1.177769e-01 -1.587302e-02 -9.910990e-01
     vertex -1.177769e-01 -6.349212e-02 -9.910990e-01
     vertex -1.327340e-01 -6.349212e-02 -9.755876e-01
   endloop
 endfacet
 facet normal -7.198507e-01  0.000000e+00 -6.941289e-01
   outer loop
     vertex -1.177769e-01 -1.587302e-02 -9.910990e-01
     vertex -1.327340e-01 -6.349212e-02 -9.755876e-01
     vertex -1.327340e-01 -1.587302e-02 -9.755876e-01
   endloop
 endfacet
 facet normal -5.851072e-01 -0.000000e+00 -8.109559e-01
   outer loop
     vertex -1.003023e-01 -1.587302e-02 -1.003707e+00
     vertex -1.003023e-01 -6.349212e-02 -1.003707e+00
     vertex -1.177769e-01 -6.349212e-02 -9.910990e-01
   endloop
 endfacet
 facet normal -5.851072e-01  0.000000e+00 -8.109559e-01
   outer loop
     vertex -1.003023e-01 -1.587302e-02 -1.003707e+00
     vertex -1.177769e-01 -6.349212e-02 -9.910990e-01
     vertex -1.177769e-01 -1.587302e-02 -9.910990e-01
   endloop
 endfacet
 facet normal -4.317548e-01 -0.000000e+00 -9.019910e-01
   outer loop
     vertex -8.086618e-02 -1.587302e-02 -1.013010e+00
     vertex -8.086618e-02 -6.349212e-02 -1.013010e+00
     vertex -1.003023e-01 -6.349212e-02 -1.003707e+00
   endloop
 endfacet
 facet normal -4.317548e-01  0.000000e+00 -9.019910e-01
   outer loop
     vertex -8.086618e-02 -1.587302e-02 -1.013010e+00
     vertex -1.003023e-01 -6.349212e-02 -1.003707e+00
     vertex -1.003023e-01 -1.587302e-02 -1.003707e+00
   endloop
 endfacet
 facet normal -2.646707e-01 -0.000000e+00 -9.643389e-01
   outer loop
     vertex -6.008653e-02 -1.587302e-02 -1.018714e+00
     vertex -6.008653e-02 -6.349212e-02 -1.018714e+00
     vertex -8.086618e-02 -6.349212e-02 -1.013010e+00
   endloop
 endfacet
 facet normal -2.646707e-01  0.000000e+00 -9.643389e-01
   outer loop
     vertex -6.008653e-02 -1.587302e-02 -1.018714e+00
     vertex -8.086618e-02 -6.349212e-02 -1.013010e+00
     vertex -8.086618e-02 -1.587302e-02 -1.013010e+00
   endloop
 endfacet
 facet normal -8.916888e-02  0.000000e+00 -9.960165e-01
   outer loop
     vertex -3.862429e-02 -1.587302e-02 -1.020635e+00
     vertex -6.008653e-02 -6.349212e-02 -1.018714e+00
     vertex -6.008653e-02 -1.587302e-02 -1.018714e+00
   endloop
 endfacet
 facet normal -8.916888e-02 -0.000000e+00 -9.960165e-01
   outer loop
     vertex -3.862429e-02 -1.587302e-02 -1.020635e+00
     vertex -3.862429e-02 -6.349212e-02 -1.020635e+00
     vertex -6.008653e-02 -6.349212e-02 -1.018714e+00
   endloop
 endfacet
 facet normal  8.916888e-02  0.000000e+00 -9.960165e-01
   outer loop
     vertex -1.716205e-02 -1.587302e-02 -1.018714e+00
     vertex -3.862429e-02 -6.349212e-02 -1.020635e+00
     vertex -3.862429e-02 -1.587302e-02 -1.020635e+00
   endloop
 endfacet
 facet normal  8.916888e-02  0.000000e+00 -9.960165e-01
   outer loop
     vertex -1.716205e-02 -1.587302e-02 -1.018714e+00
     vertex -1.716205e-02 -6.349212e-02 -1.018714e+00
     vertex -3.862429e-02 -6.349212e-02 -1.020635e+00
   endloop
 endfacet
 facet normal  2.646707e-01  0.000000e+00 -9.643389e-01
   outer loop
     vertex  3.617597e-03 -1.587302e-02 -1.013010e+00
     vertex -1.716205e-02 -6.349212e-02 -1.018714e+00
     vertex -1.716205e-02 -1.587302e-02 -1.018714e+00
   endloop
 endfacet
 facet normal  2.646707e-01  0.000000e+00 -9.643389e-01
   outer loop
     vertex  3.617597e-03 -1.587302e-02 -1.013010e+00
     vertex  3.617597e-03 -6.349212e-02 -1.013010e+00
     vertex -1.716205e-02 -6.349212e-02 -1.018714e+00
   endloop
 endfacet
 facet normal  4.317548e-01  0.000000e+00 -9.019910e-01
   outer loop
     vertex  2.305377e-02 -1.587302e-02 -1.003707e+00
     vertex  3.617597e-03 -6.349212e-02 -1.013010e+00
     vertex  3.617597e-03 -1.587302e-02 -1.013010e+00
   endloop
 endfacet
 facet normal  4.317548e-01  0.000000e+00 -9.019910e-01
   outer loop
     vertex  2.305377e-02 -1.587302e-02 -1.003707e+00
     vertex  2.305377e-02 -6.349212e-02 -1.003707e+00
     vertex  3.617597e-03 -6.349212e-02 -1.013010e+00
   endloop
 endfacet
 facet normal  5.851072e-01  0.000000e+00 -8.109559e-01
   outer loop
     vertex  2.305377e-02 -1.587302e-02 -1.003707e+00
     vertex  4.052831e-02 -6.349212e-02 -9.910990e-01
     vertex  2.305377e-02 -6.349212e-02 -1.003707e+00
   endloop
 endfacet
 facet normal  7.198507e-01  0.000000e+00 -6.941289e-01
   outer loop
     vertex  4.052831e-02 -1.587302e-02 -9.910990e-01
     vertex  5.548545e-02 -6.349212e-02 -9.755876e-01
     vertex  4.052831e-02 -6.349212e-02 -9.910990e-01
   endloop
 endfacet
 facet normal  5.851072e-01  0.000000e+00 -8.109559e-01
   outer loop
     vertex  4.052831e-02 -1.587302e-02 -9.910990e-01
     vertex  4.052831e-02 -6.349212e-02 -9.910990e-01
     vertex  2.305377e-02 -1.587302e-02 -1.003707e+00
   endloop
 endfacet
 facet normal  7.198507e-01  0.000000e+00 -6.941289e-01
   outer loop
     vertex  5.548545e-02 -1.587302e-02 -9.755876e-01
     vertex  5.548545e-02 -6.349212e-02 -9.755876e-01
     vertex  4.052831e-02 -1.587302e-02 -9.910990e-01
   endloop
 endfacet
 facet normal  8.316998e-01  0.000000e+00 -5.552256e-01
   outer loop
     vertex  6.744950e-02 -1.587302e-02 -9.576660e-01
     vertex  6.744950e-02 -6.349212e-02 -9.576660e-01
     vertex  5.548545e-02 -6.349212e-02 -9.755876e-01
   endloop
 endfacet
 facet normal  8.316998e-01  0.000000e+00 -5.552256e-01
   outer loop
     vertex  6.744950e-02 -1.587302e-02 -9.576660e-01
     vertex  5.548545e-02 -6.349212e-02 -9.755876e-01
     vertex  5.548545e-02 -1.587302e-02 -9.755876e-01
   endloop
 endfacet
 facet normal  9.170972e-01  0.000000e+00 -3.986637e-01
   outer loop
     vertex  7.603993e-02 -1.587302e-02 -9.379044e-01
     vertex  7.603993e-02 -6.349212e-02 -9.379044e-01
     vertex  6.744950e-02 -6.349212e-02 -9.576660e-01
   endloop
 endfacet
 facet normal  9.170972e-01  0.000000e+00 -3.986637e-01
   outer loop
     vertex  7.603993e-02 -1.587302e-02 -9.379044e-01
     vertex  6.744950e-02 -6.349212e-02 -9.576660e-01
     vertex  6.744950e-02 -1.587302e-02 -9.576660e-01
   endloop
 endfacet
 facet normal  9.733269e-01  0.000000e+00 -2.294225e-01
   outer loop
     vertex  8.098354e-02 -1.587302e-02 -9.169310e-01
     vertex  8.098354e-02 -6.349212e-02 -9.169310e-01
     vertex  7.603993e-02 -6.349212e-02 -9.379044e-01
   endloop
 endfacet
 facet normal  9.733269e-01  0.000000e+00 -2.294225e-01
   outer loop
     vertex  8.098354e-02 -1.587302e-02 -9.169310e-01
     vertex  7.603993e-02 -6.349212e-02 -9.379044e-01
     vertex  7.603993e-02 -1.587302e-02 -9.379044e-01
   endloop
 endfacet
 facet normal  9.986006e-01  0.000000e+00 -5.288469e-02
   outer loop
     vertex  8.212311e-02 -1.587302e-02 -8.954131e-01
     vertex  8.212311e-02 -6.349212e-02 -8.954131e-01
     vertex  8.098354e-02 -6.349212e-02 -9.169310e-01
   endloop
 endfacet
 facet normal  9.921145e-01  0.000000e+00  1.253351e-01
   outer loop
     vertex  8.212311e-02 -1.587302e-02 -8.954131e-01
     vertex  7.942238e-02 -6.349212e-02 -8.740350e-01
     vertex  8.212311e-02 -6.349212e-02 -8.954131e-01
   endloop
 endfacet
 facet normal  9.986006e-01  0.000000e+00 -5.288469e-02
   outer loop
     vertex  8.212311e-02 -1.587302e-02 -8.954131e-01
     vertex  8.098354e-02 -6.349212e-02 -9.169310e-01
     vertex  8.098354e-02 -1.587302e-02 -9.169310e-01
   endloop
 endfacet
 facet normal  9.921145e-01  0.000000e+00  1.253351e-01
   outer loop
     vertex  7.942238e-02 -1.587302e-02 -8.740350e-01
     vertex  7.942238e-02 -6.349212e-02 -8.740350e-01
     vertex  8.212311e-02 -1.587302e-02 -8.954131e-01
   endloop
 endfacet
 facet normal  9.540747e-01  0.000000e+00  2.995686e-01
   outer loop
     vertex  7.296725e-02 -1.587302e-02 -8.534765e-01
     vertex  7.296725e-02 -6.349212e-02 -8.534765e-01
     vertex  7.942238e-02 -6.349212e-02 -8.740350e-01
   endloop
 endfacet
 facet normal  9.540747e-01  0.000000e+00  2.995686e-01
   outer loop
     vertex  7.296725e-02 -1.587302e-02 -8.534765e-01
     vertex  7.942238e-02 -6.349212e-02 -8.740350e-01
     vertex  7.942238e-02 -1.587302e-02 -8.740350e-01
   endloop
 endfacet
 facet normal  8.856913e-01  0.000000e+00  4.642746e-01
   outer loop
     vertex  6.296302e-02 -1.587302e-02 -8.343915e-01
     vertex  6.296302e-02 -6.349212e-02 -8.343915e-01
     vertex  7.296725e-02 -6.349212e-02 -8.534765e-01
   endloop
 endfacet
 facet normal  8.856913e-01  0.000000e+00  4.642746e-01
   outer loop
     vertex  6.296302e-02 -1.587302e-02 -8.343915e-01
     vertex  7.296725e-02 -6.349212e-02 -8.534765e-01
     vertex  7.296725e-02 -1.587302e-02 -8.534765e-01
   endloop
 endfacet
 facet normal -9.979691e-01  0.000000e+00  6.370015e-02
   outer loop
     vertex -1.402116e-01 -1.587302e-02 -8.343915e-01
     vertex -8.941796e-02 -6.349212e-02 -3.862429e-02
     vertex -8.941796e-02 -1.587302e-02 -3.862429e-02
   endloop
 endfacet
 facet normal -9.979691e-01  0.000000e+00  6.370015e-02
   outer loop
     vertex -1.402116e-01 -1.587302e-02 -8.343915e-01
     vertex -1.402116e-01 -6.349212e-02 -8.343915e-01
     vertex -8.941796e-02 -6.349212e-02 -3.862429e-02
   endloop
 endfacet
 facet normal  9.979691e-01  0.000000e+00  6.370015e-02
   outer loop
     vertex  1.216938e-02 -1.587302e-02 -3.862429e-02
     vertex  6.296302e-02 -6.349212e-02 -8.343915e-01
     vertex  6.296302e-02 -1.587302e-02 -8.343915e-01
   endloop
 endfacet
 facet normal  9.979691e-01  0.000000e+00  6.370015e-02
   outer loop
     vertex  1.216938e-02 -1.587302e-02 -3.862429e-02
     vertex  1.216938e-02 -6.349212e-02 -3.862429e-02
     vertex  6.296302e-02 -6.349212e-02 -8.343915e-01
   endloop
 endfacet
 facet normal -8.856913e-01  0.000000e+00  4.642746e-01
   outer loop
     vertex -1.502158e-01 -1.587302e-02 -8.534765e-01
     vertex -1.402116e-01 -1.587302e-02 -8.343915e-01
     vertex -1.402116e-01  6.349206e-02 -8.343915e-01
   endloop
 endfacet
 facet normal -8.856913e-01  0.000000e+00  4.642746e-01
   outer loop
     vertex -1.502158e-01 -1.587302e-02 -8.534765e-01
     vertex -1.402116e-01  6.349206e-02 -8.343915e-01
     vertex -1.502158e-01  6.349206e-02 -8.534765e-01
   endloop
 endfacet
 facet normal -9.540747e-01  0.000000e+00  2.995686e-01
   outer loop
     vertex -1.566710e-01 -1.587302e-02 -8.740350e-01
     vertex -1.502158e-01  6.349206e-02 -8.534765e-01
     vertex -1.566710e-01  6.349206e-02 -8.740350e-01
   endloop
 endfacet
 facet normal -9.540747e-01  0.000000e+00  2.995686e-01
   outer loop
     vertex -1.566710e-01 -1.587302e-02 -8.740350e-01
     vertex -1.502158e-01 -1.587302e-02 -8.534765e-01
     vertex -1.502158e-01  6.349206e-02 -8.534765e-01
   endloop
 endfacet
 facet normal -9.921145e-01  0.000000e+00  1.253351e-01
   outer loop
     vertex -1.593717e-01 -1.587302e-02 -8.954131e-01
     vertex -1.566710e-01  6.349206e-02 -8.740350e-01
     vertex -1.593717e-01  6.349206e-02 -8.954131e-01
   endloop
 endfacet
 facet normal -9.921145e-01  0.000000e+00  1.253351e-01
   outer loop
     vertex -1.593717e-01 -1.587302e-02 -8.954131e-01
     vertex -1.566710e-01 -1.587302e-02 -8.740350e-01
     vertex -1.566710e-01  6.349206e-02 -8.740350e-01
   endloop
 endfacet
 facet normal -9.986006e-01  0.000000e+00 -5.288469e-02
   outer loop
     vertex -1.582321e-01 -1.587302e-02 -9.169310e-01
     vertex -1.593717e-01  6.349206e-02 -8.954131e-01
     vertex -1.582321e-01  6.349206e-02 -9.169310e-01
   endloop
 endfacet
 facet normal -9.986006e-01  0.000000e+00 -5.288469e-02
   outer loop
     vertex -1.582321e-01 -1.587302e-02 -9.169310e-01
     vertex -1.593717e-01 -1.587302e-02 -8.954131e-01
     vertex -1.593717e-01  6.349206e-02 -8.954131e-01
   endloop
 endfacet
 facet normal -9.733269e-01  0.000000e+00 -2.294225e-01
   outer loop
     vertex -1.532885e-01 -1.587302e-02 -9.379044e-01
     vertex -1.582321e-01  6.349206e-02 -9.169310e-01
     vertex -1.532885e-01  6.349206e-02 -9.379044e-01
   endloop
 endfacet
 facet normal -9.733269e-01  0.000000e+00 -2.294225e-01
   outer loop
     vertex -1.532885e-01 -1.587302e-02 -9.379044e-01
     vertex -1.582321e-01 -1.587302e-02 -9.169310e-01
     vertex -1.582321e-01  6.349206e-02 -9.169310e-01
   endloop
 endfacet
 facet normal -9.170972e-01  0.000000e+00 -3.986637e-01
   outer loop
     vertex -1.446981e-01 -1.587302e-02 -9.576660e-01
     vertex -1.532885e-01  6.349206e-02 -9.379044e-01
     vertex -1.446981e-01  6.349206e-02 -9.576660e-01
   endloop
 endfacet
 facet normal -9.170972e-01  0.000000e+00 -3.986637e-01
   outer loop
     vertex -1.446981e-01 -1.587302e-02 -9.576660e-01
     vertex -1.532885e-01 -1.587302e-02 -9.379044e-01
     vertex -1.532885e-01  6.349206e-02 -9.379044e-01
   endloop
 endfacet
 facet normal -8.316998e-01  0.000000e+00 -5.552256e-01
   outer loop
     vertex -1.327340e-01 -1.587302e-02 -9.755876e-01
     vertex -1.446981e-01  6.349206e-02 -9.576660e-01
     vertex -1.327340e-01  6.349206e-02 -9.755876e-01
   endloop
 endfacet
 facet normal -8.316998e-01  0.000000e+00 -5.552256e-01
   outer loop
     vertex -1.327340e-01 -1.587302e-02 -9.755876e-01
     vertex -1.446981e-01 -1.587302e-02 -9.576660e-01
     vertex -1.446981e-01  6.349206e-02 -9.576660e-01
   endloop
 endfacet
 facet normal -7.198507e-01  0.000000e+00 -6.941289e-01
   outer loop
     vertex -1.177769e-01 -1.587302e-02 -9.910990e-01
     vertex -1.327340e-01  6.349206e-02 -9.755876e-01
     vertex -1.177769e-01  6.349206e-02 -9.910990e-01
   endloop
 endfacet
 facet normal -7.198507e-01  0.000000e+00 -6.941289e-01
   outer loop
     vertex -1.177769e-01 -1.587302e-02 -9.910990e-01
     vertex -1.327340e-01 -1.587302e-02 -9.755876e-01
     vertex -1.327340e-01  6.349206e-02 -9.755876e-01
   endloop
 endfacet
 facet normal -5.851072e-01  0.000000e+00 -8.109559e-01
   outer loop
     vertex -1.003023e-01 -1.587302e-02 -1.003707e+00
     vertex -1.177769e-01  6.349206e-02 -9.910990e-01
     vertex -1.003023e-01  6.349206e-02 -1.003707e+00
   endloop
 endfacet
 facet normal -5.851072e-01  0.000000e+00 -8.109559e-01
   outer loop
     vertex -1.003023e-01 -1.587302e-02 -1.003707e+00
     vertex -1.177769e-01 -1.587302e-02 -9.910990e-01
     vertex -1.177769e-01  6.349206e-02 -9.910990e-01
   endloop
 endfacet
 facet normal -4.317548e-01  0.000000e+00 -9.019910e-01
   outer loop
     vertex -8.086618e-02 -1.587302e-02 -1.013010e+00
     vertex -1.003023e-01  6.349206e-02 -1.003707e+00
     vertex -8.086618e-02  6.349206e-02 -1.013010e+00
   endloop
 endfacet
 facet normal -4.317548e-01  0.000000e+00 -9.019910e-01
   outer loop
     vertex -8.086618e-02 -1.587302e-02 -1.013010e+00
     vertex -1.003023e-01 -1.587302e-02 -1.003707e+00
     vertex -1.003023e-01  6.349206e-02 -1.003707e+00
   endloop
 endfacet
 facet normal -2.646707e-01  0.000000e+00 -9.643389e-01
   outer loop
     vertex -6.008653e-02 -1.587302e-02 -1.018714e+00
     vertex -8.086618e-02  6.349206e-02 -1.013010e+00
     vertex -6.008653e-02  6.349206e-02 -1.018714e+00
   endloop
 endfacet
 facet normal -2.646707e-01  0.000000e+00 -9.643389e-01
   outer loop
     vertex -6.008653e-02 -1.587302e-02 -1.018714e+00
     vertex -8.086618e-02 -1.587302e-02 -1.013010e+00
     vertex -8.086618e-02  6.349206e-02 -1.013010e+00
   endloop
 endfacet
 facet normal -8.916888e-02  0.000000e+00 -9.960165e-01
   outer loop
     vertex -3.862429e-02 -1.587302e-02 -1.020635e+00
     vertex -6.008653e-02 -1.587302e-02 -1.018714e+00
     vertex -6.008653e-02  6.349206e-02 -1.018714e+00
   endloop
 endfacet
 facet normal -8.916888e-02  0.000000e+00 -9.960165e-01
   outer loop
     vertex -3.862429e-02 -1.587302e-02 -1.020635e+00
     vertex -6.008653e-02  6.349206e-02 -1.018714e+00
     vertex -3.862429e-02  6.349206e-02 -1.020635e+00
   endloop
 endfacet
 facet normal  8.916888e-02  0.000000e+00 -9.960165e-01
   outer loop
     vertex -1.716205e-02 -1.587302e-02 -1.018714e+00
     vertex -3.862429e-02 -1.587302e-02 -1.020635e+00
     vertex -3.862429e-02  6.349206e-02 -1.020635e+00
   endloop
 endfacet
 facet normal  8.916888e-02  0.000000e+00 -9.960165e-01
   outer loop
     vertex -1.716205e-02 -1.587302e-02 -1.018714e+00
     vertex -3.862429e-02  6.349206e-02 -1.020635e+00
     vertex -1.716205e-02  6.349206e-02 -1.018714e+00
   endloop
 endfacet
 facet normal  2.646707e-01  0.000000e+00 -9.643389e-01
   outer loop
     vertex  3.617597e-03 -1.587302e-02 -1.013010e+00
     vertex -1.716205e-02 -1.587302e-02 -1.018714e+00
     vertex -1.716205e-02  6.349206e-02 -1.018714e+00
   endloop
 endfacet
 facet normal  2.646707e-01  0.000000e+00 -9.643389e-01
   outer loop
     vertex  3.617597e-03 -1.587302e-02 -1.013010e+00
     vertex -1.716205e-02  6.349206e-02 -1.018714e+00
     vertex  3.617597e-03  6.349206e-02 -1.013010e+00
   endloop
 endfacet
 facet normal  4.317548e-01  0.000000e+00 -9.019910e-01
   outer loop
     vertex  2.305377e-02 -1.587302e-02 -1.003707e+00
     vertex  3.617597e-03 -1.587302e-02 -1.013010e+00
     vertex  3.617597e-03  6.349206e-02 -1.013010e+00
   endloop
 endfacet
 facet normal  4.317548e-01  0.000000e+00 -9.019910e-01
   outer loop
     vertex  2.305377e-02 -1.587302e-02 -1.003707e+00
     vertex  3.617597e-03  6.349206e-02 -1.013010e+00
     vertex  2.305377e-02  6.349206e-02 -1.003707e+00
   endloop
 endfacet
 facet normal  5.851072e-01  0.000000e+00 -8.109559e-01
   outer loop
     vertex  4.052831e-02 -1.587302e-02 -9.910990e-01
     vertex  2.305377e-02 -1.587302e-02 -1.003707e+00
     vertex  2.305377e-02  6.349206e-02 -1.003707e+00
   endloop
 endfacet
 facet normal  5.851072e-01  0.000000e+00 -8.109559e-01
   outer loop
     vertex  4.052831e-02 -1.587302e-02 -9.910990e-01
     vertex  2.305377e-02  6.349206e-02 -1.003707e+00
     vertex  4.052831e-02  6.349206e-02 -9.910990e-01
   endloop
 endfacet
 facet normal  7.198507e-01  0.000000e+00 -6.941289e-01
   outer loop
     vertex  4.052831e-02 -1.587302e-02 -9.910990e-01
     vertex  4.052831e-02  6.349206e-02 -9.910990e-01
     vertex  5.548545e-02  6.349206e-02 -9.755876e-01
   endloop
 endfacet
 facet normal  8.316998e-01  0.000000e+00 -5.552256e-01
   outer loop
     vertex  5.548545e-02 -1.587302e-02 -9.755876e-01
     vertex  5.548545e-02  6.349206e-02 -9.755876e-01
     vertex  6.744950e-02  6.349206e-02 -9.576660e-01
   endloop
 endfacet
 facet normal  7.198507e-01  0.000000e+00 -6.941289e-01
   outer loop
     vertex  5.548545e-02 -1.587302e-02 -9.755876e-01
     vertex  4.052831e-02 -1.587302e-02 -9.910990e-01
     vertex  5.548545e-02  6.349206e-02 -9.755876e-01
   endloop
 endfacet
 facet normal  8.316998e-01  0.000000e+00 -5.552256e-01
   outer loop
     vertex  6.744950e-02 -1.587302e-02 -9.576660e-01
     vertex  5.548545e-02 -1.587302e-02 -9.755876e-01
     vertex  6.744950e-02  6.349206e-02 -9.576660e-01
   endloop
 endfacet
 facet normal  9.170972e-01  0.000000e+00 -3.986637e-01
   outer loop
     vertex  7.603993e-02 -1.587302e-02 -9.379044e-01
     vertex  6.744950e-02  6.349206e-02 -9.576660e-01
     vertex  7.603993e-02  6.349206e-02 -9.379044e-01
   endloop
 endfacet
 facet normal  9.170972e-01  0.000000e+00 -3.986637e-01
   outer loop
     vertex  7.603993e-02 -1.587302e-02 -9.379044e-01
     vertex  6.744950e-02 -1.587302e-02 -9.576660e-01
     vertex  6.744950e-02  6.349206e-02 -9.576660e-01
   endloop
 endfacet
 facet normal  9.733269e-01  0.000000e+00 -2.294225e-01
   outer loop
     vertex  8.098354e-02 -1.587302e-02 -9.169310e-01
     vertex  7.603993e-02  6.349206e-02 -9.379044e-01
     vertex  8.098354e-02  6.349206e-02 -9.169310e-01
   endloop
 endfacet
 facet normal  9.733269e-01  0.000000e+00 -2.294225e-01
   outer loop
     vertex  8.098354e-02 -1.587302e-02 -9.169310e-01
     vertex  7.603993e-02 -1.587302e-02 -9.379044e-01
     vertex  7.603993e-02  6.349206e-02 -9.379044e-01
   endloop
 endfacet
 facet normal  9.986006e-01  0.000000e+00 -5.288469e-02
   outer loop
     vertex  8.212311e-02 -1.587302e-02 -8.954131e-01
     vertex  8.098354e-02  6.349206e-02 -9.169310e-01
     vertex  8.212311e-02  6.349206e-02 -8.954131e-01
   endloop
 endfacet
 facet normal  9.921145e-01 -0.000000e+00  1.253351e-01
   outer loop
     vertex  8.212311e-02 -1.587302e-02 -8.954131e-01
     vertex  8.212311e-02  6.349206e-02 -8.954131e-01
     vertex  7.942238e-02  6.349206e-02 -8.740350e-01
   endloop
 endfacet
 facet normal  9.986006e-01  0.000000e+00 -5.288469e-02
   outer loop
     vertex  8.212311e-02 -1.587302e-02 -8.954131e-01
     vertex  8.098354e-02 -1.587302e-02 -9.169310e-01
     vertex  8.098354e-02  6.349206e-02 -9.169310e-01
   endloop
 endfacet
 facet normal  9.921145e-01 -0.000000e+00  1.253351e-01
   outer loop
     vertex  7.942238e-02 -1.587302e-02 -8.740350e-01
     vertex  8.212311e-02 -1.587302e-02 -8.954131e-01
     vertex  7.942238e-02  6.349206e-02 -8.740350e-01
   endloop
 endfacet
 facet normal  9.540747e-01 -0.000000e+00  2.995686e-01
   outer loop
     vertex  7.296725e-02 -1.587302e-02 -8.534765e-01
     vertex  7.942238e-02  6.349206e-02 -8.740350e-01
     vertex  7.296725e-02  6.349206e-02 -8.534765e-01
   endloop
 endfacet
 facet normal  9.540747e-01  0.000000e+00  2.995686e-01
   outer loop
     vertex  7.296725e-02 -1.587302e-02 -8.534765e-01
     vertex  7.942238e-02 -1.587302e-02 -8.740350e-01
     vertex  7.942238e-02  6.349206e-02 -8.740350e-01
   endloop
 endfacet
 facet normal  8.856913e-01 -0.000000e+00  4.642746e-01
   outer loop
     vertex  6.296302e-02 -1.587302e-02 -8.343915e-01
     vertex  7.296725e-02  6.349206e-02 -8.534765e-01
     vertex  6.296302e-02  6.349206e-02 -8.343915e-01
   endloop
 endfacet
 facet normal  8.856913e-01  0.000000e+00  4.642746e-01
   outer loop
     vertex  6.296302e-02 -1.587302e-02 -8.343915e-01
     vertex  7.296725e-02 -1.587302e-02 -8.534765e-01
     vertex  7.296725e-02  6.349206e-02 -8.534765e-01
   endloop
 endfacet
 facet normal  0.000000e+00 -1.000000e+00  0.000000e+00
   outer loop
     vertex -1.402116e-01 -6.349212e-02 -8.343915e-01
     vertex -1.502158e-01 -6.349212e-02 -8.534765e-01
     vertex -1.566710e-01 -6.349212e-02 -8.740350e-01
   endloop
 endfacet
 facet normal  0.000000e+00 -1.000000e+00  0.000000e+00
   outer loop
     vertex -1.402116e-01 -6.349212e-02 -8.343915e-01
     vertex -1.566710e-01 -6.349212e-02 -8.740350e-01
     vertex -1.593717e-01 -6.349212e-02 -8.954131e-01
   endloop
 endfacet
 facet normal  0.000000e+00 -1.000000e+00  0.000000e+00
   outer loop
     vertex -1.402116e-01 -6.349212e-02 -8.343915e-01
     vertex -1.593717e-01 -6.349212e-02 -8.954131e-01
     vertex -1.582321e-01 -6.349212e-02 -9.169310e-01
   endloop
 endfacet
 facet normal  0.000000e+00 -1.000000e+00  0.000000e+00
   outer loop
     vertex -1.402116e-01 -6.349212e-02 -8.343915e-01
     vertex -1.582321e-01 -6.349212e-02 -9.169310e-01
     vertex -1.532885e-01 -6.349212e-02 -9.379044e-01
   endloop
 endfacet
 facet normal  0.000000e+00 -1.000000e+00  0.000000e+00
   outer loop
     vertex -1.402116e-01 -6.349212e-02 -8.343915e-01
     vertex -1.532885e-01 -6.349212e-02 -9.379044e-01
     vertex -1.446981e-01 -6.349212e-02 -9.576660e-01
   endloop
 endfacet
 facet normal  0.000000e+00 -1.000000e+00 -0.000000e+00
   outer loop
     vertex -1.402116e-01 -6.349212e-02 -8.343915e-01
     vertex -1.446981e-01 -6.349212e-02 -9.576660e-01
     vertex -1.327340e-01 -6.349212e-02 -9.755876e-01
   endloop
 endfacet
 facet normal  0.000000e+00 -1.000000e+00  0.000000e+00
   outer loop
     vertex -1.402116e-01 -6.349212e-02 -8.343915e-01
     vertex -1.327340e-01 -6.349212e-02 -9.755876e-01
     vertex -1.177769e-01 -6.349212e-02 -9.910990e-01
   endloop
 endfacet
 facet normal  0.000000e+00 -1.000000e+00  0.000000e+00
   outer loop
     vertex -1.402116e-01 -6.349212e-02 -8.343915e-01
     vertex -1.177769e-01 -6.349212e-02 -9.910990e-01
     vertex -1.003023e-01 -6.349212e-02 -1.003707e+00
   endloop
 endfacet
 facet normal  0.000000e+00 -1.000000e+00  0.000000e+00
   outer loop
     vertex  7.603993e-02 -6.349212e-02 -9.379044e-01
     vertex  5.548545e-02 -6.349212e-02 -9.755876e-01
     vertex  6.744950e-02 -6.349212e-02 -9.576660e-01
   endloop
 endfacet
 facet normal  0.000000e+00 -1.000000e+00  0.000000e+00
   outer loop
     vertex  6.296302e-02 -6.349212e-02 -8.343915e-01
     vertex -1.003023e-01 -6.349212e-02 -1.003707e+00
     vertex -8.086618e-02 -6.349212e-02 -1.013010e+00
   endloop
 endfacet
 facet normal  0.000000e+00 -1.000000e+00  0.000000e+00
   outer loop
     vertex  6.296302e-02 -6.349212e-02 -8.343915e-01
     vertex -8.086618e-02 -6.349212e-02 -1.013010e+00
     vertex -6.008653e-02 -6.349212e-02 -1.018714e+00
   endloop
 endfacet
 facet normal  0.000000e+00 -1.000000e+00  0.000000e+00
   outer loop
     vertex  6.296302e-02 -6.349212e-02 -8.343915e-01
     vertex -6.008653e-02 -6.349212e-02 -1.018714e+00
     vertex -3.862429e-02 -6.349212e-02 -1.020635e+00
   endloop
 endfacet
 facet normal  0.000000e+00 -1.000000e+00  0.000000e+00
   outer loop
     vertex  6.296302e-02 -6.349212e-02 -8.343915e-01
     vertex -3.862429e-02 -6.349212e-02 -1.020635e+00
     vertex -1.716205e-02 -6.349212e-02 -1.018714e+00
   endloop
 endfacet
 facet normal  0.000000e+00 -1.000000e+00  0.000000e+00
   outer loop
     vertex  6.296302e-02 -6.349212e-02 -8.343915e-01
     vertex -1.716205e-02 -6.349212e-02 -1.018714e+00
     vertex  3.617597e-03 -6.349212e-02 -1.013010e+00
   endloop
 endfacet
 facet normal  0.000000e+00 -1.000000e+00  0.000000e+00
   outer loop
     vertex  6.296302e-02 -6.349212e-02 -8.343915e-01
     vertex  3.617597e-03 -6.349212e-02 -1.013010e+00
     vertex  2.305377e-02 -6.349212e-02 -1.003707e+00
   endloop
 endfacet
 facet normal  0.000000e+00 -1.000000e+00  0.000000e+00
   outer loop
     vertex  6.296302e-02 -6.349212e-02 -8.343915e-01
     vertex  2.305377e-02 -6.349212e-02 -1.003707e+00
     vertex  4.052831e-02 -6.349212e-02 -9.910990e-01
   endloop
 endfacet
 facet normal  0.000000e+00 -1.000000e+00  0.000000e+00
   outer loop
     vertex  6.296302e-02 -6.349212e-02 -8.343915e-01
     vertex  4.052831e-02 -6.349212e-02 -9.910990e-01
     vertex  5.548545e-02 -6.349212e-02 -9.755876e-01
   endloop
 endfacet
 facet normal  0.000000e+00 -1.000000e+00  0.000000e+00
   outer loop
     vertex  6.296302e-02 -6.349212e-02 -8.343915e-01
     vertex  7.603993e-02 -6.349212e-02 -9.379044e-01
     vertex  8.098354e-02 -6.349212e-02 -9.169310e-01
   endloop
 endfacet
 facet normal  0.000000e+00 -1.000000e+00  0.000000e+00
   outer loop
     vertex  6.296302e-02 -6.349212e-02 -8.343915e-01
     vertex  8.098354e-02 -6.349212e-02 -9.169310e-01
     vertex  8.212311e-02 -6.349212e-02 -8.954131e-01
   endloop
 endfacet
 facet normal  0.000000e+00 -1.000000e+00  0.000000e+00
   outer loop
     vertex  6.296302e-02 -6.349212e-02 -8.343915e-01
     vertex  8.212311e-02 -6.349212e-02 -8.954131e-01
     vertex  7.942238e-02 -6.349212e-02 -8.740350e-01
   endloop
 endfacet
 facet normal  0.000000e+00 -1.000000e+00  0.000000e+00
   outer loop
     vertex  6.296302e-02 -6.349212e-02 -8.343915e-01
     vertex  7.942238e-02 -6.349212e-02 -8.740350e-01
     vertex  7.296725e-02 -6.349212e-02 -8.534765e-01
   endloop
 endfacet
 facet normal -0.000000e+00 -1.000000e+00  0.000000e+00
   outer loop
     vertex  6.296302e-02 -6.349212e-02 -8.343915e-01
     vertex -1.402116e-01 -6.349212e-02 -8.343915e-01
     vertex -1.003023e-01 -6.349212e-02 -1.003707e+00
   endloop
 endfacet
 facet normal  0.000000e+00 -1.000000e+00 -0.000000e+00
   outer loop
     vertex  6.296302e-02 -6.349212e-02 -8.343915e-01
     vertex  5.548545e-02 -6.349212e-02 -9.755876e-01
     vertex  7.603993e-02 -6.349212e-02 -9.379044e-01
   endloop
 endfacet
 facet normal  0.000000e+00 -1.000000e+00 -0.000000e+00
   outer loop
     vertex -9.036353e-02 -6.349212e-02 -1.274035e-02
     vertex -9.149908e-02 -6.349212e-02 -2.574107e-02
     vertex -8.941796e-02 -6.349212e-02 -3.862429e-02
   endloop
 endfacet
 facet normal  0.000000e+00 -1.000000e+00  0.000000e+00
   outer loop
     vertex -6.928919e-02 -6.349212e-02  1.930823e-02
     vertex -7.891020e-02 -6.349212e-02  1.049095e-02
     vertex -8.608038e-02 -6.349212e-02 -4.130299e-04
   endloop
 endfacet
 facet normal  0.000000e+00 -1.000000e+00  0.000000e+00
   outer loop
     vertex -5.780266e-02 -6.349212e-02  2.550242e-02
     vertex -6.928919e-02 -6.349212e-02  1.930823e-02
     vertex -8.608038e-02 -6.349212e-02 -4.130299e-04
   endloop
 endfacet
 facet normal -0.000000e+00 -1.000000e+00  0.000000e+00
   outer loop
     vertex  1.216938e-02 -6.349212e-02 -3.862429e-02
     vertex -8.941796e-02 -6.349212e-02 -3.862429e-02
     vertex -1.402116e-01 -6.349212e-02 -8.343915e-01
   endloop
 endfacet
 facet normal  0.000000e+00 -1.000000e+00 -0.000000e+00
   outer loop
     vertex  1.216938e-02 -6.349212e-02 -3.862429e-02
     vertex -1.402116e-01 -6.349212e-02 -8.343915e-01
     vertex  6.296302e-02 -6.349212e-02 -8.343915e-01
   endloop
 endfacet
 facet normal  0.000000e+00 -1.000000e+00  0.000000e+00
   outer loop
     vertex  1.425050e-02 -6.349212e-02 -2.574107e-02
     vertex -8.941796e-02 -6.349212e-02 -3.862429e-02
     vertex  1.216938e-02 -6.349212e-02 -3.862429e-02
   endloop
 endfacet
 facet normal -0.000000e+00 -1.000000e+00  0.000000e+00
   outer loop
     vertex  1.425050e-02 -6.349212e-02 -2.574107e-02
     vertex -9.036353e-02 -6.349212e-02 -1.274035e-02
     vertex -8.941796e-02 -6.349212e-02 -3.862429e-02
   endloop
 endfacet
 facet normal  0.000000e+00 -1.000000e+00 -0.000000e+00
   outer loop
     vertex  1.311495e-02 -6.349212e-02 -1.274035e-02
     vertex -9.036353e-02 -6.349212e-02 -1.274035e-02
     vertex  1.425050e-02 -6.349212e-02 -2.574107e-02
   endloop
 endfacet
 facet normal -0.000000e+00 -1.000000e+00  0.000000e+00
   outer loop
     vertex  1.311495e-02 -6.349212e-02 -1.274035e-02
     vertex -8.608038e-02 -6.349212e-02 -4.130299e-04
     vertex -9.036353e-02 -6.349212e-02 -1.274035e-02
   endloop
 endfacet
 facet normal  0.000000e+00 -1.000000e+00  0.000000e+00
   outer loop
     vertex -7.959391e-03 -6.349212e-02  1.930823e-02
     vertex -1.944592e-02 -6.349212e-02  2.550242e-02
     vertex -3.209918e-02 -6.349212e-02  2.869667e-02
   endloop
 endfacet
 facet normal  0.000000e+00 -1.000000e+00  0.000000e+00
   outer loop
     vertex -7.959391e-03 -6.349212e-02  1.930823e-02
     vertex -3.209918e-02 -6.349212e-02  2.869667e-02
     vertex -4.514940e-02 -6.349212e-02  2.869667e-02
   endloop
 endfacet
 facet normal -0.000000e+00 -1.000000e+00  0.000000e+00
   outer loop
     vertex  1.661615e-03 -6.349212e-02  1.049095e-02
     vertex -5.780266e-02 -6.349212e-02  2.550242e-02
     vertex -8.608038e-02 -6.349212e-02 -4.130299e-04
   endloop
 endfacet
 facet normal  0.000000e+00 -1.000000e+00 -0.000000e+00
   outer loop
     vertex  1.661615e-03 -6.349212e-02  1.049095e-02
     vertex -8.608038e-02 -6.349212e-02 -4.130299e-04
     vertex  1.311495e-02 -6.349212e-02 -1.274035e-02
   endloop
 endfacet
 facet normal  0.000000e+00 -1.000000e+00  0.000000e+00
   outer loop
     vertex  1.661615e-03 -6.349212e-02  1.049095e-02
     vertex -7.959391e-03 -6.349212e-02  1.930823e-02
     vertex -4.514940e-02 -6.349212e-02  2.869667e-02
   endloop
 endfacet
 facet normal  0.000000e+00 -1.000000e+00  0.000000e+00
   outer loop
     vertex  1.661615e-03 -6.349212e-02  1.049095e-02
     vertex  1.311495e-02 -6.349212e-02 -1.274035e-02
     vertex  8.831795e-03 -6.349212e-02 -4.130299e-04
   endloop
 endfacet
 facet normal  0.000000e+00 -1.000000e+00  0.000000e+00
   outer loop
     vertex  1.661615e-03 -6.349212e-02  1.049095e-02
     vertex -4.514940e-02 -6.349212e-02  2.869667e-02
     vertex -5.780266e-02 -6.349212e-02  2.550242e-02
   endloop
 endfacet
 facet normal  9.872027e-01  0.000000e+00 -1.594705e-01
   outer loop
     vertex  1.425050e-02 -1.587302e-02 -2.574107e-02
     vertex  1.216938e-02 -6.349212e-02 -3.862429e-02
     vertex  1.216938e-02 -1.587302e-02 -3.862429e-02
   endloop
 endfacet
 facet normal  9.872027e-01  0.000000e+00 -1.594705e-01
   outer loop
     vertex  1.425050e-02 -1.587302e-02 -2.574107e-02
     vertex  1.425050e-02 -6.349212e-02 -2.574107e-02
     vertex  1.216938e-02 -6.349212e-02 -3.862429e-02
   endloop
 endfacet
 facet normal  9.962071e-01  0.000000e+00  8.701419e-02
   outer loop
     vertex  1.311495e-02 -1.587302e-02 -1.274035e-02
     vertex  1.311495e-02 -6.349212e-02 -1.274035e-02
     vertex  1.425050e-02 -6.349212e-02 -2.574107e-02
   endloop
 endfacet
 facet normal  9.962071e-01  0.000000e+00  8.701419e-02
   outer loop
     vertex  1.311495e-02 -1.587302e-02 -1.274035e-02
     vertex  1.425050e-02 -6.349212e-02 -2.574107e-02
     vertex  1.425050e-02 -1.587302e-02 -2.574107e-02
   endloop
 endfacet
 facet normal  9.446064e-01  0.000000e+00  3.282053e-01
   outer loop
     vertex  8.831795e-03 -1.587302e-02 -4.130299e-04
     vertex  8.831795e-03 -6.349212e-02 -4.130299e-04
     vertex  1.311495e-02 -6.349212e-02 -1.274035e-02
   endloop
 endfacet
 facet normal  9.446064e-01  0.000000e+00  3.282053e-01
   outer loop
     vertex  8.831795e-03 -1.587302e-02 -4.130299e-04
     vertex  1.311495e-02 -6.349212e-02 -1.274035e-02
     vertex  1.311495e-02 -1.587302e-02 -1.274035e-02
   endloop
 endfacet
 facet normal  8.355399e-01  0.000000e+00  5.494298e-01
   outer loop
     vertex  1.661615e-03 -1.587302e-02  1.049095e-02
     vertex  1.661615e-03 -6.349212e-02  1.049095e-02
     vertex  8.831795e-03 -6.349212e-02 -4.130299e-04
   endloop
 endfacet
 facet normal  8.355399e-01  0.000000e+00  5.494298e-01
   outer loop
     vertex  1.661615e-03 -1.587302e-02  1.049095e-02
     vertex  8.831795e-03 -6.349212e-02 -4.130299e-04
     vertex  8.831795e-03 -1.587302e-02 -4.130299e-04
   endloop
 endfacet
 facet normal  6.756426e-01  0.000000e+00  7.372293e-01
   outer loop
     vertex -7.959391e-03 -1.587302e-02  1.930823e-02
     vertex -7.959391e-03 -6.349212e-02  1.930823e-02
     vertex  1.661615e-03 -6.349212e-02  1.049095e-02
   endloop
 endfacet
 facet normal  6.756426e-01  0.000000e+00  7.372293e-01
   outer loop
     vertex -7.959391e-03 -1.587302e-02  1.930823e-02
     vertex  1.661615e-03 -6.349212e-02  1.049095e-02
     vertex  1.661615e-03 -1.587302e-02  1.049095e-02
   endloop
 endfacet
 facet normal  4.746421e-01  0.000000e+00  8.801789e-01
   outer loop
     vertex -1.944592e-02 -1.587302e-02  2.550242e-02
     vertex -1.944592e-02 -6.349212e-02  2.550242e-02
     vertex -7.959391e-03 -6.349212e-02  1.930823e-02
   endloop
 endfacet
 facet normal  4.746421e-01  0.000000e+00  8.801789e-01
   outer loop
     vertex -1.944592e-02 -1.587302e-02  2.550242e-02
     vertex -7.959391e-03 -6.349212e-02  1.930823e-02
     vertex -7.959391e-03 -1.587302e-02  1.930823e-02
   endloop
 endfacet
 facet normal  2.447663e-01  0.000000e+00  9.695821e-01
   outer loop
     vertex -3.209918e-02 -1.587302e-02  2.869667e-02
     vertex -3.209918e-02 -6.349212e-02  2.869667e-02
     vertex -1.944592e-02 -6.349212e-02  2.550242e-02
   endloop
 endfacet
 facet normal  2.447663e-01  0.000000e+00  9.695821e-01
   outer loop
     vertex -3.209918e-02 -1.587302e-02  2.869667e-02
     vertex -1.944592e-02 -6.349212e-02  2.550242e-02
     vertex -1.944592e-02 -1.587302e-02  2.550242e-02
   endloop
 endfacet
 facet normal  0.000000e+00  0.000000e+00  1.000000e+00
   outer loop
     vertex -4.514940e-02 -1.587302e-02  2.869667e-02
     vertex -4.514940e-02 -6.349212e-02  2.869667e-02
     vertex -3.209918e-02 -6.349212e-02  2.869667e-02
   endloop
 endfacet
 facet normal -0.000000e+00  0.000000e+00  1.000000e+00
   outer loop
     vertex -4.514940e-02 -1.587302e-02  2.869667e-02
     vertex -3.209918e-02 -6.349212e-02  2.869667e-02
     vertex -3.209918e-02 -1.587302e-02  2.869667e-02
   endloop
 endfacet
 facet normal -2.447663e-01  0.000000e+00  9.695821e-01
   outer loop
     vertex -5.780266e-02 -1.587302e-02  2.550242e-02
     vertex -5.780266e-02 -6.349212e-02  2.550242e-02
     vertex -4.514940e-02 -6.349212e-02  2.869667e-02
   endloop
 endfacet
 facet normal -2.447663e-01  0.000000e+00  9.695821e-01
   outer loop
     vertex -5.780266e-02 -1.587302e-02  2.550242e-02
     vertex -4.514940e-02 -6.349212e-02  2.869667e-02
     vertex -4.514940e-02 -1.587302e-02  2.869667e-02
   endloop
 endfacet
 facet normal -4.746421e-01  0.000000e+00  8.801789e-01
   outer loop
     vertex -6.928919e-02 -1.587302e-02  1.930823e-02
     vertex -6.928919e-02 -6.349212e-02  1.930823e-02
     vertex -5.780266e-02 -6.349212e-02  2.550242e-02
   endloop
 endfacet
 facet normal -4.746421e-01  0.000000e+00  8.801789e-01
   outer loop
     vertex -6.928919e-02 -1.587302e-02  1.930823e-02
     vertex -5.780266e-02 -6.349212e-02  2.550242e-02
     vertex -5.780266e-02 -1.587302e-02  2.550242e-02
   endloop
 endfacet
 facet normal -6.756426e-01  0.000000e+00  7.372293e-01
   outer loop
     vertex -7.891020e-02 -1.587302e-02  1.049095e-02
     vertex -7.891020e-02 -6.349212e-02  1.049095e-02
     vertex -6.928919e-02 -6.349212e-02  1.930823e-02
   endloop
 endfacet
 facet normal -6.756426e-01  0.000000e+00  7.372293e-01
   outer loop
     vertex -7.891020e-02 -1.587302e-02  1.049095e-02
     vertex -6.928919e-02 -6.349212e-02  1.930823e-02
     vertex -6.928919e-02 -1.587302e-02  1.930823e-02
   endloop
 endfacet
 facet normal -8.355399e-01  0.000000e+00  5.494298e-01
   outer loop
     vertex -8.608038e-02 -1.587302e-02 -4.130299e-04
     vertex -8.608038e-02 -6.349212e-02 -4.130299e-04
     vertex -7.891020e-02 -6.349212e-02  1.049095e-02
   endloop
 endfacet
 facet normal -8.355399e-01  0.000000e+00  5.494298e-01
   outer loop
     vertex -8.608038e-02 -1.587302e-02 -4.130299e-04
     vertex -7.891020e-02 -6.349212e-02  1.049095e-02
     vertex -7.891020e-02 -1.587302e-02  1.049095e-02
   endloop
 endfacet
 facet normal -9.446064e-01  0.000000e+00  3.282053e-01
   outer loop
     vertex -9.036353e-02 -1.587302e-02 -1.274035e-02
     vertex -9.036353e-02 -6.349212e-02 -1.274035e-02
     vertex -8.608038e-02 -6.349212e-02 -4.130299e-04
   endloop
 endfacet
 facet normal -9.446064e-01  0.000000e+00  3.282053e-01
   outer loop
     vertex -9.036353e-02 -1.587302e-02 -1.274035e-02
     vertex -8.608038e-02 -6.349212e-02 -4.130299e-04
     vertex -8.608038e-02 -1.587302e-02 -4.130299e-04
   endloop
 endfacet
 facet normal -9.962071e-01  0.000000e+00  8.701419e-02
   outer loop
     vertex -9.149908e-02 -1.587302e-02 -2.574107e-02
     vertex -9.149908e-02 -6.349212e-02 -2.574107e-02
     vertex -9.036353e-02 -6.349212e-02 -1.274035e-02
   endloop
 endfacet
 facet normal -9.962071e-01  0.000000e+00  8.701419e-02
   outer loop
     vertex -9.149908e-02 -1.587302e-02 -2.574107e-02
     vertex -9.036353e-02 -6.349212e-02 -1.274035e-02
     vertex -9.036353e-02 -1.587302e-02 -1.274035e-02
   endloop
 endfacet
 facet normal -9.872027e-01 -0.000000e+00 -1.594705e-01
   outer loop
     vertex -8.941796e-02 -1.587302e-02 -3.862429e-02
     vertex -8.941796e-02 -6.349212e-02 -3.862429e-02
     vertex -9.149908e-02 -6.349212e-02 -2.574107e-02
   endloop
 endfacet
 facet normal -9.872027e-01  0.000000e+00 -1.594705e-01
   outer loop
     vertex -8.941796e-02 -1.587302e-02 -3.862429e-02
     vertex -9.149908e-02 -6.349212e-02 -2.574107e-02
     vertex -9.149908e-02 -1.587302e-02 -2.574107e-02
   endloop
 endfacet
 facet normal -9.979691e-01  0.000000e+00  6.370015e-02
   outer loop
     vertex -1.402116e-01 -1.587302e-02 -8.343915e-01
     vertex -8.941796e-02 -1.587302e-02 -3.862429e-02
     vertex -8.941796e-02  6.349206e-02 -3.862429e-02
   endloop
 endfacet
 facet normal -9.979691e-01  0.000000e+00  6.370015e-02
   outer loop
     vertex -1.402116e-01 -1.587302e-02 -8.343915e-01
     vertex -8.941796e-02  6.349206e-02 -3.862429e-02
     vertex -1.402116e-01  6.349206e-02 -8.343915e-01
   endloop
 endfacet
 facet normal  9.979691e-01  0.000000e+00  6.370015e-02
   outer loop
     vertex  1.216938e-02 -1.587302e-02 -3.862429e-02
     vertex  6.296302e-02 -1.587302e-02 -8.343915e-01
     vertex  6.296302e-02  6.349206e-02 -8.343915e-01
   endloop
 endfacet
 facet normal  9.979691e-01 -0.000000e+00  6.370015e-02
   outer loop
     vertex  1.216938e-02 -1.587302e-02 -3.862429e-02
     vertex  6.296302e-02  6.349206e-02 -8.343915e-01
     vertex  1.216938e-02  6.349206e-02 -3.862429e-02
   endloop
 endfacet
 facet normal  0.000000e+00  1.000000e+00  0.000000e+00
   outer loop
     vertex -1.402116e-01  6.349206e-02 -8.343915e-01
     vertex -1.566710e-01  6.349206e-02 -8.740350e-01
     vertex -1.502158e-01  6.349206e-02 -8.534765e-01
   endloop
 endfacet
 facet normal  0.000000e+00  1.000000e+00  0.000000e+00
   outer loop
     vertex -1.402116e-01  6.349206e-02 -8.343915e-01
     vertex -1.593717e-01  6.349206e-02 -8.954131e-01
     vertex -1.566710e-01  6.349206e-02 -8.740350e-01
   endloop
 endfacet
 facet normal  0.000000e+00  1.000000e+00  0.000000e+00
   outer loop
     vertex -1.402116e-01  6.349206e-02 -8.343915e-01
     vertex -1.582321e-01  6.349206e-02 -9.169310e-01
     vertex -1.593717e-01  6.349206e-02 -8.954131e-01
   endloop
 endfacet
 facet normal  0.000000e+00  1.000000e+00  0.000000e+00
   outer loop
     vertex -1.402116e-01  6.349206e-02 -8.343915e-01
     vertex -1.532885e-01  6.349206e-02 -9.379044e-01
     vertex -1.582321e-01  6.349206e-02 -9.169310e-01
   endloop
 endfacet
 facet normal  0.000000e+00  1.000000e+00  0.000000e+00
   outer loop
     vertex -1.402116e-01  6.349206e-02 -8.343915e-01
     vertex -1.446981e-01  6.349206e-02 -9.576660e-01
     vertex -1.532885e-01  6.349206e-02 -9.379044e-01
   endloop
 endfacet
 facet normal  0.000000e+00  1.000000e+00  0.000000e+00
   outer loop
     vertex -1.402116e-01  6.349206e-02 -8.343915e-01
     vertex -1.327340e-01  6.349206e-02 -9.755876e-01
     vertex -1.446981e-01  6.349206e-02 -9.576660e-01
   endloop
 endfacet
 facet normal  0.000000e+00  1.000000e+00  0.000000e+00
   outer loop
     vertex -1.402116e-01  6.349206e-02 -8.343915e-01
     vertex -1.177769e-01  6.349206e-02 -9.910990e-01
     vertex -1.327340e-01  6.349206e-02 -9.755876e-01
   endloop
 endfacet
 facet normal  0.000000e+00  1.000000e+00  0.000000e+00
   outer loop
     vertex -1.402116e-01  6.349206e-02 -8.343915e-01
     vertex -1.003023e-01  6.349206e-02 -1.003707e+00
     vertex -1.177769e-01  6.349206e-02 -9.910990e-01
   endloop
 endfacet
 facet normal  0.000000e+00  1.000000e+00  0.000000e+00
   outer loop
     vertex  7.603993e-02  6.349206e-02 -9.379044e-01
     vertex  6.744950e-02  6.349206e-02 -9.576660e-01
     vertex  5.548545e-02  6.349206e-02 -9.755876e-01
   endloop
 endfacet
 facet normal  0.000000e+00  1.000000e+00  0.000000e+00
   outer loop
     vertex  6.296302e-02  6.349206e-02 -8.343915e-01
     vertex -8.086618e-02  6.349206e-02 -1.013010e+00
     vertex -1.003023e-01  6.349206e-02 -1.003707e+00
   endloop
 endfacet
 facet normal  0.000000e+00  1.000000e+00  0.000000e+00
   outer loop
     vertex  6.296302e-02  6.349206e-02 -8.343915e-01
     vertex -6.008653e-02  6.349206e-02 -1.018714e+00
     vertex -8.086618e-02  6.349206e-02 -1.013010e+00
   endloop
 endfacet
 facet normal  0.000000e+00  1.000000e+00  0.000000e+00
   outer loop
     vertex  6.296302e-02  6.349206e-02 -8.343915e-01
     vertex -3.862429e-02  6.349206e-02 -1.020635e+00
     vertex -6.008653e-02  6.349206e-02 -1.018714e+00
   endloop
 endfacet
 facet normal  0.000000e+00  1.000000e+00  0.000000e+00
   outer loop
     vertex  6.296302e-02  6.349206e-02 -8.343915e-01
     vertex -1.716205e-02  6.349206e-02 -1.018714e+00
     vertex -3.862429e-02  6.349206e-02 -1.020635e+00
   endloop
 endfacet
 facet normal  0.000000e+00  1.000000e+00  0.000000e+00
   outer loop
     vertex  6.296302e-02  6.349206e-02 -8.343915e-01
     vertex  3.617597e-03  6.349206e-02 -1.013010e+00
     vertex -1.716205e-02  6.349206e-02 -1.018714e+00
   endloop
 endfacet
 facet normal  0.000000e+00  1.000000e+00  0.000000e+00
   outer loop
     vertex  6.296302e-02  6.349206e-02 -8.343915e-01
     vertex  2.305377e-02  6.349206e-02 -1.003707e+00
     vertex  3.617597e-03  6.349206e-02 -1.013010e+00
   endloop
 endfacet
 facet normal  0.000000e+00  1.000000e+00  0.000000e+00
   outer loop
     vertex  6.296302e-02  6.349206e-02 -8.343915e-01
     vertex  4.052831e-02  6.349206e-02 -9.910990e-01
     vertex  2.305377e-02  6.349206e-02 -1.003707e+00
   endloop
 endfacet
 facet normal  0.000000e+00  1.000000e+00  0.000000e+00
   outer loop
     vertex  6.296302e-02  6.349206e-02 -8.343915e-01
     vertex  5.548545e-02  6.349206e-02 -9.755876e-01
     vertex  4.052831e-02  6.349206e-02 -9.910990e-01
   endloop
 endfacet
 facet normal  0.000000e+00  1.000000e+00  0.000000e+00
   outer loop
     vertex  6.296302e-02  6.349206e-02 -8.343915e-01
     vertex  8.098354e-02  6.349206e-02 -9.169310e-01
     vertex  7.603993e-02  6.349206e-02 -9.379044e-01
   endloop
 endfacet
 facet normal  0.000000e+00  1.000000e+00  0.000000e+00
   outer loop
     vertex  6.296302e-02  6.349206e-02 -8.343915e-01
     vertex  8.212311e-02  6.349206e-02 -8.954131e-01
     vertex  8.098354e-02  6.349206e-02 -9.169310e-01
   endloop
 endfacet
 facet normal  0.000000e+00  1.000000e+00  0.000000e+00
   outer loop
     vertex  6.296302e-02  6.349206e-02 -8.343915e-01
     vertex  7.942238e-02  6.349206e-02 -8.740350e-01
     vertex  8.212311e-02  6.349206e-02 -8.954131e-01
   endloop
 endfacet
 facet normal  0.000000e+00  1.000000e+00  0.000000e+00
   outer loop
     vertex  6.296302e-02  6.349206e-02 -8.343915e-01
     vertex  7.296725e-02  6.349206e-02 -8.534765e-01
     vertex  7.942238e-02  6.349206e-02 -8.740350e-01
   endloop
 endfacet
 facet normal  0.000000e+00  1.000000e+00  0.000000e+00
   outer loop
     vertex  6.296302e-02  6.349206e-02 -8.343915e-01
     vertex -1.003023e-01  6.349206e-02 -1.003707e+00
     vertex -1.402116e-01  6.349206e-02 -8.343915e-01
   endloop
 endfacet
 facet normal  0.000000e+00  1.000000e+00  0.000000e+00
   outer loop
     vertex  6.296302e-02  6.349206e-02 -8.343915e-01
     vertex  7.603993e-02  6.349206e-02 -9.379044e-01
     vertex  5.548545e-02  6.349206e-02 -9.755876e-01
   endloop
 endfacet
 facet normal  0.000000e+00  1.000000e+00  0.000000e+00
   outer loop
     vertex -9.036353e-02  6.349206e-02 -1.274035e-02
     vertex -8.941796e-02  6.349206e-02 -3.862429e-02
     vertex -9.149908e-02  6.349206e-02 -2.574107e-02
   endloop
 endfacet
 facet normal  0.000000e+00  1.000000e+00  0.000000e+00
   outer loop
     vertex -6.928919e-02  6.349206e-02  1.930823e-02
     vertex -8.608038e-02  6.349206e-02 -4.130299e-04
     vertex -7.891020e-02  6.349206e-02  1.049095e-02
   endloop
 endfacet
 facet normal  0.000000e+00  1.000000e+00  0.000000e+00
   outer loop
     vertex -5.780266e-02  6.349206e-02  2.550242e-02
     vertex -8.608038e-02  6.349206e-02 -4.130299e-04
     vertex -6.928919e-02  6.349206e-02  1.930823e-02
   endloop
 endfacet
 facet normal  0.000000e+00  1.000000e+00  0.000000e+00
   outer loop
     vertex  1.216938e-02  6.349206e-02 -3.862429e-02
     vertex -1.402116e-01  6.349206e-02 -8.343915e-01
     vertex -8.941796e-02  6.349206e-02 -3.862429e-02
   endloop
 endfacet
 facet normal  0.000000e+00  1.000000e+00  0.000000e+00
   outer loop
     vertex  1.216938e-02  6.349206e-02 -3.862429e-02
     vertex  6.296302e-02  6.349206e-02 -8.343915e-01
     vertex -1.402116e-01  6.349206e-02 -8.343915e-01
   endloop
 endfacet
 facet normal  0.000000e+00  1.000000e+00  0.000000e+00
   outer loop
     vertex  1.425050e-02  6.349206e-02 -2.574107e-02
     vertex  1.216938e-02  6.349206e-02 -3.862429e-02
     vertex -8.941796e-02  6.349206e-02 -3.862429e-02
   endloop
 endfacet
 facet normal  0.000000e+00  1.000000e+00  0.000000e+00
   outer loop
     vertex  1.425050e-02  6.349206e-02 -2.574107e-02
     vertex -8.941796e-02  6.349206e-02 -3.862429e-02
     vertex -9.036353e-02  6.349206e-02 -1.274035e-02
   endloop
 endfacet
 facet normal  0.000000e+00  1.000000e+00  0.000000e+00
   outer loop
     vertex  1.311495e-02  6.349206e-02 -1.274035e-02
     vertex  1.425050e-02  6.349206e-02 -2.574107e-02
     vertex -9.036353e-02  6.349206e-02 -1.274035e-02
   endloop
 endfacet
 facet normal  0.000000e+00  1.000000e+00  0.000000e+00
   outer loop
     vertex  1.311495e-02  6.349206e-02 -1.274035e-02
     vertex -9.036353e-02  6.349206e-02 -1.274035e-02
     vertex -8.608038e-02  6.349206e-02 -4.130299e-04
   endloop
 endfacet
 facet normal  0.000000e+00  1.000000e+00  0.000000e+00
   outer loop
     vertex -7.959391e-03  6.349206e-02  1.930823e-02
     vertex -3.209918e-02  6.349206e-02  2.869667e-02
     vertex -1.944592e-02  6.349206e-02  2.550242e-02
   endloop
 endfacet
 facet normal  0.000000e+00  1.000000e+00  0.000000e+00
   outer loop
     vertex -7.959391e-03  6.349206e-02  1.930823e-02
     vertex -4.514940e-02  6.349206e-02  2.869667e-02
     vertex -3.209918e-02  6.349206e-02  2.869667e-02
   endloop
 endfacet
 facet normal  0.000000e+00  1.000000e+00  0.000000e+00
   outer loop
     vertex  1.661615e-03  6.349206e-02  1.049095e-02
     vertex -8.608038e-02  6.349206e-02 -4.130299e-04
     vertex -5.780266e-02  6.349206e-02  2.550242e-02
   endloop
 endfacet
 facet normal  0.000000e+00  1.000000e+00  0.000000e+00
   outer loop
     vertex  1.661615e-03  6.349206e-02  1.049095e-02
     vertex  1.311495e-02  6.349206e-02 -1.274035e-02
     vertex -8.608038e-02  6.349206e-02 -4.130299e-04
   endloop
 endfacet
 facet normal  0.000000e+00  1.000000e+00  0.000000e+00
   outer loop
     vertex  1.661615e-03  6.349206e-02  1.049095e-02
     vertex -4.514940e-02  6.349206e-02  2.869667e-02
     vertex -7.959391e-03  6.349206e-02  1.930823e-02
   endloop
 endfacet
 facet normal  0.000000e+00  1.000000e+00  0.000000e+00
   outer loop
     vertex  1.661615e-03  6.349206e-02  1.049095e-02
     vertex  8.831795e-03  6.349206e-02 -4.130299e-04
     vertex  1.311495e-02  6.349206e-02 -1.274035e-02
   endloop
 endfacet
 facet normal  0.000000e+00  1.000000e+00  0.000000e+00
   outer loop
     vertex  1.661615e-03  6.349206e-02  1.049095e-02
     vertex -5.780266e-02  6.349206e-02  2.550242e-02
     vertex -4.514940e-02  6.349206e-02  2.869667e-02
   endloop
 endfacet
 facet normal  9.872027e-01  0.000000e+00 -1.594705e-01
   outer loop
     vertex  1.425050e-02 -1.587302e-02 -2.574107e-02
     vertex  1.216938e-02 -1.587302e-02 -3.862429e-02
     vertex  1.216938e-02  6.349206e-02 -3.862429e-02
   endloop
 endfacet
 facet normal  9.872027e-01  0.000000e+00 -1.594705e-01
   outer loop
     vertex  1.425050e-02 -1.587302e-02 -2.574107e-02
     vertex  1.216938e-02  6.349206e-02 -3.862429e-02
     vertex  1.425050e-02  6.349206e-02 -2.574107e-02
   endloop
 endfacet
 facet normal  9.962071e-01 -0.000000e+00  8.701419e-02
   outer loop
     vertex  1.311495e-02 -1.587302e-02 -1.274035e-02
     vertex  1.425050e-02  6.349206e-02 -2.574107e-02
     vertex  1.311495e-02  6.349206e-02 -1.274035e-02
   endloop
 endfacet
 facet normal  9.962071e-01  0.000000e+00  8.701419e-02
   outer loop
     vertex  1.311495e-02 -1.587302e-02 -1.274035e-02
     vertex  1.425050e-02 -1.587302e-02 -2.574107e-02
     vertex  1.425050e-02  6.349206e-02 -2.574107e-02
   endloop
 endfacet
 facet normal  9.446064e-01 -0.000000e+00  3.282053e-01
   outer loop
     vertex  8.831795e-03 -1.587302e-02 -4.130299e-04
     vertex  1.311495e-02  6.349206e-02 -1.274035e-02
     vertex  8.831795e-03  6.349206e-02 -4.130299e-04
   endloop
 endfacet
 facet normal  9.446064e-01  0.000000e+00  3.282053e-01
   outer loop
     vertex  8.831795e-03 -1.587302e-02 -4.130299e-04
     vertex  1.311495e-02 -1.587302e-02 -1.274035e-02
     vertex  1.311495e-02  6.349206e-02 -1.274035e-02
   endloop
 endfacet
 facet normal  8.355399e-01 -0.000000e+00  5.494298e-01
   outer loop
     vertex  1.661615e-03 -1.587302e-02  1.049095e-02
     vertex  8.831795e-03  6.349206e-02 -4.130299e-04
     vertex  1.661615e-03  6.349206e-02  1.049095e-02
   endloop
 endfacet
 facet normal  8.355399e-01  0.000000e+00  5.494298e-01
   outer loop
     vertex  1.661615e-03 -1.587302e-02  1.049095e-02
     vertex  8.831795e-03 -1.587302e-02 -4.130299e-04
     vertex  8.831795e-03  6.349206e-02 -4.130299e-04
   endloop
 endfacet
 facet normal  6.756426e-01 -0.000000e+00  7.372293e-01
   outer loop
     vertex -7.959391e-03 -1.587302e-02  1.930823e-02
     vertex  1.661615e-03  6.349206e-02  1.049095e-02
     vertex -7.959391e-03  6.349206e-02  1.930823e-02
   endloop
 endfacet
 facet normal  6.756426e-01  0.000000e+00  7.372293e-01
   outer loop
     vertex -7.959391e-03 -1.587302e-02  1.930823e-02
     vertex  1.661615e-03 -1.587302e-02  1.049095e-02
     vertex  1.661615e-03  6.349206e-02  1.049095e-02
   endloop
 endfacet
 facet normal  4.746421e-01 -0.000000e+00  8.801789e-01
   outer loop
     vertex -1.944592e-02 -1.587302e-02  2.550242e-02
     vertex -7.959391e-03  6.349206e-02  1.930823e-02
     vertex -1.944592e-02  6.349206e-02  2.550242e-02
   endloop
 endfacet
 facet normal  4.746421e-01  0.000000e+00  8.801789e-01
   outer loop
     vertex -1.944592e-02 -1.587302e-02  2.550242e-02
     vertex -7.959391e-03 -1.587302e-02  1.930823e-02
     vertex -7.959391e-03  6.349206e-02  1.930823e-02
   endloop
 endfacet
 facet normal  2.447663e-01 -0.000000e+00  9.695821e-01
   outer loop
     vertex -3.209918e-02 -1.587302e-02  2.869667e-02
     vertex -1.944592e-02  6.349206e-02  2.550242e-02
     vertex -3.209918e-02  6.349206e-02  2.869667e-02
   endloop
 endfacet
 facet normal  2.447663e-01  0.000000e+00  9.695821e-01
   outer loop
     vertex -3.209918e-02 -1.587302e-02  2.869667e-02
     vertex -1.944592e-02 -1.587302e-02  2.550242e-02
     vertex -1.944592e-02  6.349206e-02  2.550242e-02
   endloop
 endfacet
 facet normal  0.000000e+00  0.000000e+00  1.000000e+00
   outer loop
     vertex -4.514940e-02 -1.587302e-02  2.869667e-02
     vertex -3.209918e-02  6.349206e-02  2.869667e-02
     vertex -4.514940e-02  6.349206e-02  2.869667e-02
   endloop
 endfacet
 facet normal  0.000000e+00  0.000000e+00  1.000000e+00
   outer loop
     vertex -4.514940e-02 -1.587302e-02  2.869667e-02
     vertex -3.209918e-02 -1.587302e-02  2.869667e-02
     vertex -3.209918e-02  6.349206e-02  2.869667e-02
   endloop
 endfacet
 facet normal -2.447663e-01  0.000000e+00  9.695821e-01
   outer loop
     vertex -5.780266e-02 -1.587302e-02  2.550242e-02
     vertex -4.514940e-02  6.349206e-02  2.869667e-02
     vertex -5.780266e-02  6.349206e-02  2.550242e-02
   endloop
 endfacet
 facet normal -2.447663e-01  0.000000e+00  9.695821e-01
   outer loop
     vertex -5.780266e-02 -1.587302e-02  2.550242e-02
     vertex -4.514940e-02 -1.587302e-02  2.869667e-02
     vertex -4.514940e-02  6.349206e-02  2.869667e-02
   endloop
 endfacet
 facet normal -4.746421e-01  0.000000e+00  8.801789e-01
   outer loop
     vertex -6.928919e-02 -1.587302e-02  1.930823e-02
     vertex -5.780266e-02  6.349206e-02  2.550242e-02
     vertex -6.928919e-02  6.349206e-02  1.930823e-02
   endloop
 endfacet
 facet normal -4.746421e-01  0.000000e+00  8.801789e-01
   outer loop
     vertex -6.928919e-02 -1.587302e-02  1.930823e-02
     vertex -5.780266e-02 -1.587302e-02  2.550242e-02
     vertex -5.780266e-02  6.349206e-02  2.550242e-02
   endloop
 endfacet
 facet normal -6.756426e-01  0.000000e+00  7.372293e-01
   outer loop
     vertex -7.891020e-02 -1.587302e-02  1.049095e-02
     vertex -6.928919e-02  6.349206e-02  1.930823e-02
     vertex -7.891020e-02  6.349206e-02  1.049095e-02
   endloop
 endfacet
 facet normal -6.756426e-01  0.000000e+00  7.372293e-01
   outer loop
     vertex -7.891020e-02 -1.587302e-02  1.049095e-02
     vertex -6.928919e-02 -1.587302e-02  1.930823e-02
     vertex -6.928919e-02  6.349206e-02  1.930823e-02
   endloop
 endfacet
 facet normal -8.355399e-01  0.000000e+00  5.494298e-01
   outer loop
     vertex -8.608038e-02 -1.587302e-02 -4.130299e-04
     vertex -7.891020e-02  6.349206e-02  1.049095e-02
     vertex -8.608038e-02  6.349206e-02 -4.130299e-04
   endloop
 endfacet
 facet normal -8.355399e-01  0.000000e+00  5.494298e-01
   outer loop
     vertex -8.608038e-02 -1.587302e-02 -4.130299e-04
     vertex -7.891020e-02 -1.587302e-02  1.049095e-02
     vertex -7.891020e-02  6.349206e-02  1.049095e-02
   endloop
 endfacet
 facet normal -9.446064e-01  0.000000e+00  3.282053e-01
   outer loop
     vertex -9.036353e-02 -1.587302e-02 -1.274035e-02
     vertex -8.608038e-02  6.349206e-02 -4.130299e-04
     vertex -9.036353e-02  6.349206e-02 -1.274035e-02
   endloop
 endfacet
 facet normal -9.446064e-01  0.000000e+00  3.282053e-01
   outer loop
     vertex -9.036353e-02 -1.587302e-02 -1.274035e-02
     vertex -8.608038e-02 -1.587302e-02 -4.130299e-04
     vertex -8.608038e-02  6.349206e-02 -4.130299e-04
   endloop
 endfacet
 facet normal -9.962071e-01  0.000000e+00  8.701419e-02
   outer loop
     vertex -9.149908e-02 -1.587302e-02 -2.574107e-02
     vertex -9.036353e-02  6.349206e-02 -1.274035e-02
     vertex -9.149908e-02  6.349206e-02 -2.574107e-02
   endloop
 endfacet
 facet normal -9.962071e-01  0.000000e+00  8.701419e-02
   outer loop
     vertex -9.149908e-02 -1.587302e-02 -2.574107e-02
     vertex -9.036353e-02 -1.587302e-02 -1.274035e-02
     vertex -9.036353e-02  6.349206e-02 -1.274035e-02
   endloop
 endfacet
 facet normal -9.872027e-01  0.000000e+00 -1.594705e-01
   outer loop
     vertex -8.941796e-02 -1.587302e-02 -3.862429e-02
     vertex -9.149908e-02  6.349206e-02 -2.574107e-02
     vertex -8.941796e-02  6.349206e-02 -3.862429e-02
   endloop
 endfacet
 facet normal -9.872027e-01  0.000000e+00 -1.594705e-01
   outer loop
     vertex -8.941796e-02 -1.587302e-02 -3.862429e-02
     vertex -9.149908e-02 -1.587302e-02 -2.574107e-02
     vertex -9.149908e-02  6.349206e-02 -2.574107e-02
   endloop
 endfacet
endsolid
