solid 
 facet normal -0.000000e+00  0.000000e+00 -1.000000e+00
   outer loop
     vertex  8.929454e-01 -1.587302e-02 -1.814815e-01
     vertex -4.615520e-01 -3.492064e-01 -1.814815e-01
     vertex -4.615520e-01 -1.587302e-02 -1.814815e-01
   endloop
 endfacet
 facet normal  0.000000e+00 -0.000000e+00 -1.000000e+00
   outer loop
     vertex  8.929454e-01 -1.587302e-02 -1.814815e-01
     vertex  8.929454e-01 -3.492064e-01 -1.814815e-01
     vertex -4.615520e-01 -3.492064e-01 -1.814815e-01
   endloop
 endfacet
 facet normal -9.987523e-01  0.000000e+00  4.993763e-02
   outer loop
     vertex -4.615520e-01 -1.587302e-02 -1.814815e-01
     vertex -4.389770e-01 -3.492064e-01  2.700176e-01
     vertex -4.389770e-01 -1.587302e-02  2.700176e-01
   endloop
 endfacet
 facet normal -9.987523e-01  0.000000e+00  4.993763e-02
   outer loop
     vertex -4.615520e-01 -1.587302e-02 -1.814815e-01
     vertex -4.615520e-01 -3.492064e-01 -1.814815e-01
     vertex -4.389770e-01 -3.492064e-01  2.700176e-01
   endloop
 endfacet
 facet normal  9.987523e-01  0.000000e+00  4.993763e-02
   outer loop
     vertex  8.703704e-01 -1.587302e-02  2.700176e-01
     vertex  8.929454e-01 -3.492064e-01 -1.814815e-01
     vertex  8.929454e-01 -1.587302e-02 -1.814815e-01
   endloop
 endfacet
 facet normal  9.987523e-01  0.000000e+00  4.993763e-02
   outer loop
     vertex  8.703704e-01 -1.587302e-02  2.700176e-01
     vertex  8.703704e-01 -3.492064e-01  2.700176e-01
     vertex  8.929454e-01 -3.492064e-01 -1.814815e-01
   endloop
 endfacet
 facet normal  0.000000e+00  0.000000e+00 -1.000000e+00
   outer loop
     vertex  8.929454e-01 -1.587302e-02 -1.814815e-01
     vertex -4.615520e-01 -1.587302e-02 -1.814815e-01
     vertex -4.615520e-01  0.000000e+00 -1.814815e-01
   endloop
 endfacet
 facet normal  0.000000e+00  0.000000e+00 -1.000000e+00
   outer loop
     vertex  8.929454e-01 -1.587302e-02 -1.814815e-01
     vertex -4.615520e-01  0.000000e+00 -1.814815e-01
     vertex  8.929454e-01  0.000000e+00 -1.814815e-01
   endloop
 endfacet
 facet normal  0.000000e+00 -1.000000e+00 -0.000000e+00
   outer loop
     vertex  8.703704e-01 -3.492064e-01  2.700176e-01
     vertex -4.615520e-01 -3.492064e-01 -1.814815e-01
     vertex  8.929454e-01 -3.492064e-01 -1.814815e-01
   endloop
 endfacet
 facet normal -0.000000e+00 -1.000000e+00  0.000000e+00
   outer loop
     vertex  8.703704e-01 -3.492064e-01  2.700176e-01
     vertex -4.389770e-01 -3.492064e-01  2.700176e-01
     vertex -4.615520e-01 -3.492064e-01 -1.814815e-01
   endloop
 endfacet
 facet normal -0.000000e+00  0.000000e+00  1.000000e+00
   outer loop
     vertex -4.389770e-01 -1.587302e-02  2.700176e-01
     vertex  8.703704e-01 -3.492064e-01  2.700176e-01
     vertex  8.703704e-01 -1.587302e-02  2.700176e-01
   endloop
 endfacet
 facet normal  0.000000e+00  0.000000e+00  1.000000e+00
   outer loop
     vertex -4.389770e-01 -1.587302e-02  2.700176e-01
     vertex -4.389770e-01 -3.492064e-01  2.700176e-01
     vertex  8.703704e-01 -3.492064e-01  2.700176e-01
   endloop
 endfacet
 facet normal -9.987523e-01  0.000000e+00  4.993763e-02
   outer loop
     vertex -4.615520e-01 -1.587302e-02 -1.814815e-01
     vertex -4.389770e-01 -1.587302e-02  2.700176e-01
     vertex -4.389770e-01  0.000000e+00  2.700176e-01
   endloop
 endfacet
 facet normal -9.987523e-01  0.000000e+00  4.993763e-02
   outer loop
     vertex -4.615520e-01 -1.587302e-02 -1.814815e-01
     vertex -4.389770e-01  0.000000e+00  2.700176e-01
     vertex -4.615520e-01  0.000000e+00 -1.814815e-01
   endloop
 endfacet
 facet normal  9.987523e-01  0.000000e+00  4.993763e-02
   outer loop
     vertex  8.703704e-01 -1.587302e-02  2.700176e-01
     vertex  8.929454e-01 -1.587302e-02 -1.814815e-01
     vertex  8.929454e-01  0.000000e+00 -1.814815e-01
   endloop
 endfacet
 facet normal  9.987523e-01 -0.000000e+00  4.993763e-02
   outer loop
     vertex  8.703704e-01 -1.587302e-02  2.700176e-01
     vertex  8.929454e-01  0.000000e+00 -1.814815e-01
     vertex  8.703704e-01  0.000000e+00  2.700176e-01
   endloop
 endfacet
 facet normal  0.000000e+00  1.000000e+00  0.000000e+00
   outer loop
     vertex  8.703704e-01  1.040834e-17  2.700176e-01
     vertex  8.929454e-01  1.040834e-17 -1.814815e-01
     vertex -4.615520e-01  1.040834e-17 -1.814815e-01
   endloop
 endfacet
 facet normal  0.000000e+00  1.000000e+00  0.000000e+00
   outer loop
     vertex  8.703704e-01  1.040834e-17  2.700176e-01
     vertex -4.615520e-01  1.040834e-17 -1.814815e-01
     vertex -4.389770e-01  1.040834e-17  2.700176e-01
   endloop
 endfacet
 facet normal  0.000000e+00  0.000000e+00  1.000000e+00
   outer loop
     vertex -4.389770e-01 -1.587302e-02  2.700176e-01
     vertex  8.703704e-01 -1.587302e-02  2.700176e-01
     vertex  8.703704e-01  0.000000e+00  2.700176e-01
   endloop
 endfacet
 facet normal  0.000000e+00  0.000000e+00  1.000000e+00
   outer loop
     vertex -4.389770e-01 -1.587302e-02  2.700176e-01
     vertex  8.703704e-01  0.000000e+00  2.700176e-01
     vertex -4.389770e-01  0.000000e+00  2.700176e-01
   endloop
 endfacet
endsolid
