solid 
 facet normal -1.000000e+00  0.000000e+00  0.000000e+00
   outer loop
     vertex -5.162257e-01 -1.587302e-02 -5.377425e-01
     vertex -5.162257e-01 -2.539683e-01  6.756614e-01
     vertex -5.162257e-01 -1.587302e-02  6.756614e-01
   endloop
 endfacet
 facet normal -1.000000e+00  0.000000e+00  0.000000e+00
   outer loop
     vertex -5.162257e-01 -1.587302e-02 -5.377425e-01
     vertex -5.162257e-01 -2.539683e-01 -5.377425e-01
     vertex -5.162257e-01 -2.539683e-01  6.756614e-01
   endloop
 endfacet
 facet normal -0.000000e+00  0.000000e+00  1.000000e+00
   outer loop
     vertex -5.162257e-01 -1.587302e-02  6.756614e-01
     vertex  2.118167e-01 -2.539683e-01  6.756614e-01
     vertex  2.118167e-01 -1.587302e-02  6.756614e-01
   endloop
 endfacet
 facet normal  0.000000e+00  0.000000e+00  1.000000e+00
   outer loop
     vertex -5.162257e-01 -1.587302e-02  6.756614e-01
     vertex -5.162257e-01 -2.539683e-01  6.756614e-01
     vertex  2.118167e-01 -2.539683e-01  6.756614e-01
   endloop
 endfacet
 facet normal -0.000000e+00  0.000000e+00 -1.000000e+00
   outer loop
     vertex  9.398590e-01 -1.587302e-02 -5.377425e-01
     vertex -5.162257e-01 -2.539683e-01 -5.377425e-01
     vertex -5.162257e-01 -1.587302e-02 -5.377425e-01
   endloop
 endfacet
 facet normal  0.000000e+00 -0.000000e+00 -1.000000e+00
   outer loop
     vertex  9.398590e-01 -1.587302e-02 -5.377425e-01
     vertex  9.398590e-01 -2.539683e-01 -5.377425e-01
     vertex -5.162257e-01 -2.539683e-01 -5.377425e-01
   endloop
 endfacet
 facet normal -1.000000e+00  0.000000e+00  0.000000e+00
   outer loop
     vertex -5.162257e-01 -1.587302e-02 -5.377425e-01
     vertex -5.162257e-01 -1.587302e-02  6.756614e-01
     vertex -5.162257e-01  2.539682e-01  6.756614e-01
   endloop
 endfacet
 facet normal -1.000000e+00  0.000000e+00  0.000000e+00
   outer loop
     vertex -5.162257e-01 -1.587302e-02 -5.377425e-01
     vertex -5.162257e-01  2.539682e-01  6.756614e-01
     vertex -5.162257e-01  2.539682e-01 -5.377425e-01
   endloop
 endfacet
 facet normal -0.000000e+00 -1.000000e+00  0.000000e+00
   outer loop
     vertex -2.432644e-01 -2.539683e-01 -3.594349e-01
     vertex -2.637075e-01 -2.539683e-01 -3.410278e-01
     vertex -5.162257e-01 -2.539683e-01 -5.377425e-01
   endloop
 endfacet
 facet normal  0.000000e+00 -1.000000e+00 -0.000000e+00
   outer loop
     vertex -2.813899e-01 -2.539683e-01 -3.199548e-01
     vertex -5.162257e-01 -2.539683e-01 -5.377425e-01
     vertex -2.637075e-01 -2.539683e-01 -3.410278e-01
   endloop
 endfacet
 facet normal -0.000000e+00 -1.000000e+00  0.000000e+00
   outer loop
     vertex -2.204585e-01 -2.539683e-01 -3.748177e-01
     vertex -2.432644e-01 -2.539683e-01 -3.594349e-01
     vertex -5.162257e-01 -2.539683e-01 -5.377425e-01
   endloop
 endfacet
 facet normal  0.000000e+00 -1.000000e+00 -0.000000e+00
   outer loop
     vertex -2.959673e-01 -2.539683e-01 -2.966259e-01
     vertex -5.162257e-01 -2.539683e-01 -5.377425e-01
     vertex -2.813899e-01 -2.539683e-01 -3.199548e-01
   endloop
 endfacet
 facet normal -0.000000e+00 -1.000000e+00  0.000000e+00
   outer loop
     vertex -1.957336e-01 -2.539683e-01 -3.868768e-01
     vertex -2.204585e-01 -2.539683e-01 -3.748177e-01
     vertex -5.162257e-01 -2.539683e-01 -5.377425e-01
   endloop
 endfacet
 facet normal  0.000000e+00 -1.000000e+00 -0.000000e+00
   outer loop
     vertex -3.071562e-01 -2.539683e-01 -2.714953e-01
     vertex -5.162257e-01 -2.539683e-01 -5.377425e-01
     vertex -2.959673e-01 -2.539683e-01 -2.966259e-01
   endloop
 endfacet
 facet normal -0.000000e+00 -1.000000e+00  0.000000e+00
   outer loop
     vertex -1.695711e-01 -2.539683e-01 -3.953775e-01
     vertex -1.957336e-01 -2.539683e-01 -3.868768e-01
     vertex -5.162257e-01 -2.539683e-01 -5.377425e-01
   endloop
 endfacet
 facet normal  0.000000e+00 -1.000000e+00 -0.000000e+00
   outer loop
     vertex -3.147387e-01 -2.539683e-01 -2.450520e-01
     vertex -5.162257e-01 -2.539683e-01 -5.377425e-01
     vertex -3.071562e-01 -2.539683e-01 -2.714953e-01
   endloop
 endfacet
 facet normal -0.000000e+00 -1.000000e+00  0.000000e+00
   outer loop
     vertex -1.424801e-01 -2.539683e-01 -4.001544e-01
     vertex -1.695711e-01 -2.539683e-01 -3.953775e-01
     vertex -5.162257e-01 -2.539683e-01 -5.377425e-01
   endloop
 endfacet
 facet normal  0.000000e+00 -1.000000e+00 -0.000000e+00
   outer loop
     vertex -3.185672e-01 -2.539683e-01 -2.178108e-01
     vertex -5.162257e-01 -2.539683e-01 -5.377425e-01
     vertex -3.147387e-01 -2.539683e-01 -2.450520e-01
   endloop
 endfacet
 facet normal -0.000000e+00 -1.000000e+00  0.000000e+00
   outer loop
     vertex -1.149880e-01 -2.539683e-01 -4.011144e-01
     vertex -1.424801e-01 -2.539683e-01 -4.001544e-01
     vertex -5.162257e-01 -2.539683e-01 -5.377425e-01
   endloop
 endfacet
 facet normal  0.000000e+00 -1.000000e+00 -0.000000e+00
   outer loop
     vertex -3.185672e-01 -2.539683e-01 -1.903019e-01
     vertex -5.162257e-01 -2.539683e-01 -5.377425e-01
     vertex -3.185672e-01 -2.539683e-01 -2.178108e-01
   endloop
 endfacet
 facet normal  0.000000e+00 -1.000000e+00  0.000000e+00
   outer loop
     vertex -8.762977e-02 -2.539683e-01 -3.982389e-01
     vertex -1.149880e-01 -2.539683e-01 -4.011144e-01
     vertex -5.162257e-01 -2.539683e-01 -5.377425e-01
   endloop
 endfacet
 facet normal  0.000000e+00 -1.000000e+00  0.000000e+00
   outer loop
     vertex -3.147387e-01 -2.539683e-01 -1.630608e-01
     vertex -5.162257e-01 -2.539683e-01 -5.377425e-01
     vertex -3.185672e-01 -2.539683e-01 -1.903019e-01
   endloop
 endfacet
 facet normal  0.000000e+00 -1.000000e+00  0.000000e+00
   outer loop
     vertex -5.162257e-01 -2.539683e-01  6.756614e-01
     vertex -1.695711e-01 -2.539683e-01 -1.273530e-02
     vertex -1.424801e-01 -2.539683e-01 -7.958425e-03
   endloop
 endfacet
 facet normal  0.000000e+00 -1.000000e+00  0.000000e+00
   outer loop
     vertex -5.162257e-01 -2.539683e-01  6.756614e-01
     vertex -1.957336e-01 -2.539683e-01 -2.123601e-02
     vertex -1.695711e-01 -2.539683e-01 -1.273530e-02
   endloop
 endfacet
 facet normal  0.000000e+00 -1.000000e+00  0.000000e+00
   outer loop
     vertex -5.162257e-01 -2.539683e-01  6.756614e-01
     vertex -2.204585e-01 -2.539683e-01 -3.329512e-02
     vertex -1.957336e-01 -2.539683e-01 -2.123601e-02
   endloop
 endfacet
 facet normal  0.000000e+00 -1.000000e+00  0.000000e+00
   outer loop
     vertex -5.162257e-01 -2.539683e-01  6.756614e-01
     vertex -2.432644e-01 -2.539683e-01 -4.867791e-02
     vertex -2.204585e-01 -2.539683e-01 -3.329512e-02
   endloop
 endfacet
 facet normal  0.000000e+00 -1.000000e+00  0.000000e+00
   outer loop
     vertex -5.162257e-01 -2.539683e-01  6.756614e-01
     vertex -2.637075e-01 -2.539683e-01 -6.708495e-02
     vertex -2.432644e-01 -2.539683e-01 -4.867791e-02
   endloop
 endfacet
 facet normal  0.000000e+00 -1.000000e+00  0.000000e+00
   outer loop
     vertex -5.162257e-01 -2.539683e-01  6.756614e-01
     vertex -2.813899e-01 -2.539683e-01 -8.815800e-02
     vertex -2.637075e-01 -2.539683e-01 -6.708495e-02
   endloop
 endfacet
 facet normal  0.000000e+00 -1.000000e+00  0.000000e+00
   outer loop
     vertex -5.162257e-01 -2.539683e-01  6.756614e-01
     vertex -2.959673e-01 -2.539683e-01 -1.114869e-01
     vertex -2.813899e-01 -2.539683e-01 -8.815800e-02
   endloop
 endfacet
 facet normal  0.000000e+00 -1.000000e+00  0.000000e+00
   outer loop
     vertex -5.162257e-01 -2.539683e-01  6.756614e-01
     vertex -3.071562e-01 -2.539683e-01 -1.366175e-01
     vertex -2.959673e-01 -2.539683e-01 -1.114869e-01
   endloop
 endfacet
 facet normal  0.000000e+00 -1.000000e+00  0.000000e+00
   outer loop
     vertex -5.162257e-01 -2.539683e-01  6.756614e-01
     vertex -3.147387e-01 -2.539683e-01 -1.630608e-01
     vertex -3.071562e-01 -2.539683e-01 -1.366175e-01
   endloop
 endfacet
 facet normal  0.000000e+00 -1.000000e+00  0.000000e+00
   outer loop
     vertex -5.162257e-01 -2.539683e-01  6.756614e-01
     vertex -5.162257e-01 -2.539683e-01 -5.377425e-01
     vertex -3.147387e-01 -2.539683e-01 -1.630608e-01
   endloop
 endfacet
 facet normal  0.000000e+00 -1.000000e+00  0.000000e+00
   outer loop
     vertex  9.398590e-01 -2.539683e-01 -5.377425e-01
     vertex -6.093800e-02 -2.539683e-01 -3.915839e-01
     vertex -8.762977e-02 -2.539683e-01 -3.982389e-01
   endloop
 endfacet
 facet normal  0.000000e+00 -1.000000e+00  0.000000e+00
   outer loop
     vertex  9.398590e-01 -2.539683e-01 -5.377425e-01
     vertex -3.543219e-02 -2.539683e-01 -3.812789e-01
     vertex -6.093800e-02 -2.539683e-01 -3.915839e-01
   endloop
 endfacet
 facet normal  0.000000e+00 -1.000000e+00  0.000000e+00
   outer loop
     vertex  9.398590e-01 -2.539683e-01 -5.377425e-01
     vertex -1.160878e-02 -2.539683e-01 -3.675245e-01
     vertex -3.543219e-02 -2.539683e-01 -3.812789e-01
   endloop
 endfacet
 facet normal  0.000000e+00 -1.000000e+00  0.000000e+00
   outer loop
     vertex  9.398590e-01 -2.539683e-01 -5.377425e-01
     vertex  1.006853e-02 -2.539683e-01 -3.505883e-01
     vertex -1.160878e-02 -2.539683e-01 -3.675245e-01
   endloop
 endfacet
 facet normal  0.000000e+00 -1.000000e+00  0.000000e+00
   outer loop
     vertex  9.398590e-01 -2.539683e-01 -5.377425e-01
     vertex  2.917782e-02 -2.539683e-01 -3.308001e-01
     vertex  1.006853e-02 -2.539683e-01 -3.505883e-01
   endloop
 endfacet
 facet normal  0.000000e+00 -1.000000e+00  0.000000e+00
   outer loop
     vertex  9.398590e-01 -2.539683e-01 -5.377425e-01
     vertex  4.534715e-02 -2.539683e-01 -3.085449e-01
     vertex  2.917782e-02 -2.539683e-01 -3.308001e-01
   endloop
 endfacet
 facet normal  0.000000e+00 -1.000000e+00  0.000000e+00
   outer loop
     vertex  9.398590e-01 -2.539683e-01 -5.377425e-01
     vertex  5.826180e-02 -2.539683e-01 -2.842560e-01
     vertex  4.534715e-02 -2.539683e-01 -3.085449e-01
   endloop
 endfacet
 facet normal  0.000000e+00 -1.000000e+00  0.000000e+00
   outer loop
     vertex  9.398590e-01 -2.539683e-01 -5.377425e-01
     vertex  6.767039e-02 -2.539683e-01 -2.584061e-01
     vertex  5.826180e-02 -2.539683e-01 -2.842560e-01
   endloop
 endfacet
 facet normal  0.000000e+00 -1.000000e+00  0.000000e+00
   outer loop
     vertex  9.398590e-01 -2.539683e-01 -5.377425e-01
     vertex  7.338982e-02 -2.539683e-01 -2.314983e-01
     vertex  6.767039e-02 -2.539683e-01 -2.584061e-01
   endloop
 endfacet
 facet normal  0.000000e+00 -1.000000e+00  0.000000e+00
   outer loop
     vertex  9.398590e-01 -2.539683e-01 -5.377425e-01
     vertex -8.762977e-02 -2.539683e-01 -3.982389e-01
     vertex -5.162257e-01 -2.539683e-01 -5.377425e-01
   endloop
 endfacet
 facet normal  0.000000e+00 -1.000000e+00  0.000000e+00
   outer loop
     vertex  9.398590e-01 -2.539683e-01 -5.238092e-02
     vertex  7.338982e-02 -2.539683e-01 -1.766145e-01
     vertex  7.530874e-02 -2.539683e-01 -2.040564e-01
   endloop
 endfacet
 facet normal  0.000000e+00 -1.000000e+00  0.000000e+00
   outer loop
     vertex  9.398590e-01 -2.539683e-01 -5.238092e-02
     vertex  6.767039e-02 -2.539683e-01 -1.497067e-01
     vertex  7.338982e-02 -2.539683e-01 -1.766145e-01
   endloop
 endfacet
 facet normal  0.000000e+00 -1.000000e+00  0.000000e+00
   outer loop
     vertex  9.398590e-01 -2.539683e-01 -5.238092e-02
     vertex  5.826180e-02 -2.539683e-01 -1.238568e-01
     vertex  6.767039e-02 -2.539683e-01 -1.497067e-01
   endloop
 endfacet
 facet normal  0.000000e+00 -1.000000e+00  0.000000e+00
   outer loop
     vertex  9.398590e-01 -2.539683e-01 -5.238092e-02
     vertex  4.534715e-02 -2.539683e-01 -9.956790e-02
     vertex  5.826180e-02 -2.539683e-01 -1.238568e-01
   endloop
 endfacet
 facet normal  0.000000e+00 -1.000000e+00  0.000000e+00
   outer loop
     vertex  9.398590e-01 -2.539683e-01 -5.238092e-02
     vertex  7.530874e-02 -2.539683e-01 -2.040564e-01
     vertex  7.338982e-02 -2.539683e-01 -2.314983e-01
   endloop
 endfacet
 facet normal  0.000000e+00 -1.000000e+00 -0.000000e+00
   outer loop
     vertex  9.398590e-01 -2.539683e-01 -5.238092e-02
     vertex  7.338982e-02 -2.539683e-01 -2.314983e-01
     vertex  9.398590e-01 -2.539683e-01 -5.377425e-01
   endloop
 endfacet
 facet normal  0.000000e+00 -1.000000e+00  0.000000e+00
   outer loop
     vertex  2.118167e-01 -2.539683e-01  6.756614e-01
     vertex  2.917782e-02 -2.539683e-01 -7.731273e-02
     vertex  4.534715e-02 -2.539683e-01 -9.956790e-02
   endloop
 endfacet
 facet normal  0.000000e+00 -1.000000e+00  0.000000e+00
   outer loop
     vertex  2.118167e-01 -2.539683e-01  6.756614e-01
     vertex  1.006853e-02 -2.539683e-01 -5.752449e-02
     vertex  2.917782e-02 -2.539683e-01 -7.731273e-02
   endloop
 endfacet
 facet normal  0.000000e+00 -1.000000e+00  0.000000e+00
   outer loop
     vertex  2.118167e-01 -2.539683e-01  6.756614e-01
     vertex -1.160878e-02 -2.539683e-01 -4.058831e-02
     vertex  1.006853e-02 -2.539683e-01 -5.752449e-02
   endloop
 endfacet
 facet normal  0.000000e+00 -1.000000e+00  0.000000e+00
   outer loop
     vertex  2.118167e-01 -2.539683e-01  6.756614e-01
     vertex -3.543219e-02 -2.539683e-01 -2.683386e-02
     vertex -1.160878e-02 -2.539683e-01 -4.058831e-02
   endloop
 endfacet
 facet normal  0.000000e+00 -1.000000e+00  0.000000e+00
   outer loop
     vertex  2.118167e-01 -2.539683e-01  6.756614e-01
     vertex -6.093800e-02 -2.539683e-01 -1.652885e-02
     vertex -3.543219e-02 -2.539683e-01 -2.683386e-02
   endloop
 endfacet
 facet normal  0.000000e+00 -1.000000e+00  0.000000e+00
   outer loop
     vertex  2.118167e-01 -2.539683e-01  6.756614e-01
     vertex -8.762977e-02 -2.539683e-01 -9.873841e-03
     vertex -6.093800e-02 -2.539683e-01 -1.652885e-02
   endloop
 endfacet
 facet normal  0.000000e+00 -1.000000e+00  0.000000e+00
   outer loop
     vertex  2.118167e-01 -2.539683e-01  6.756614e-01
     vertex -1.149880e-01 -2.539683e-01 -6.998378e-03
     vertex -8.762977e-02 -2.539683e-01 -9.873841e-03
   endloop
 endfacet
 facet normal  0.000000e+00 -1.000000e+00  0.000000e+00
   outer loop
     vertex  2.118167e-01 -2.539683e-01  6.756614e-01
     vertex -1.424801e-01 -2.539683e-01 -7.958425e-03
     vertex -1.149880e-01 -2.539683e-01 -6.998378e-03
   endloop
 endfacet
 facet normal -0.000000e+00 -1.000000e+00  0.000000e+00
   outer loop
     vertex  2.118167e-01 -2.539683e-01  6.756614e-01
     vertex -5.162257e-01 -2.539683e-01  6.756614e-01
     vertex -1.424801e-01 -2.539683e-01 -7.958425e-03
   endloop
 endfacet
 facet normal  0.000000e+00 -1.000000e+00 -0.000000e+00
   outer loop
     vertex  2.118167e-01 -2.539683e-01  6.756614e-01
     vertex  4.534715e-02 -2.539683e-01 -9.956790e-02
     vertex  9.398590e-01 -2.539683e-01 -5.238092e-02
   endloop
 endfacet
 facet normal  7.071068e-01  0.000000e+00  7.071068e-01
   outer loop
     vertex  2.118167e-01 -1.587302e-02  6.756614e-01
     vertex  9.398590e-01 -2.539683e-01 -5.238092e-02
     vertex  9.398590e-01 -1.587302e-02 -5.238092e-02
   endloop
 endfacet
 facet normal  7.071068e-01  0.000000e+00  7.071068e-01
   outer loop
     vertex  2.118167e-01 -1.587302e-02  6.756614e-01
     vertex  2.118167e-01 -2.539683e-01  6.756614e-01
     vertex  9.398590e-01 -2.539683e-01 -5.238092e-02
   endloop
 endfacet
 facet normal  0.000000e+00  0.000000e+00  1.000000e+00
   outer loop
     vertex -5.162257e-01 -1.587302e-02  6.756614e-01
     vertex  2.118167e-01 -1.587302e-02  6.756614e-01
     vertex  2.118167e-01  2.539682e-01  6.756614e-01
   endloop
 endfacet
 facet normal  0.000000e+00  0.000000e+00  1.000000e+00
   outer loop
     vertex -5.162257e-01 -1.587302e-02  6.756614e-01
     vertex  2.118167e-01  2.539682e-01  6.756614e-01
     vertex -5.162257e-01  2.539682e-01  6.756614e-01
   endloop
 endfacet
 facet normal  1.000000e+00  0.000000e+00  0.000000e+00
   outer loop
     vertex  9.398590e-01 -1.587302e-02 -5.238092e-02
     vertex  9.398590e-01 -2.539683e-01 -5.377425e-01
     vertex  9.398590e-01 -1.587302e-02 -5.377425e-01
   endloop
 endfacet
 facet normal  1.000000e+00  0.000000e+00  0.000000e+00
   outer loop
     vertex  9.398590e-01 -1.587302e-02 -5.238092e-02
     vertex  9.398590e-01 -2.539683e-01 -5.238092e-02
     vertex  9.398590e-01 -2.539683e-01 -5.377425e-01
   endloop
 endfacet
 facet normal  0.000000e+00  0.000000e+00 -1.000000e+00
   outer loop
     vertex  9.398590e-01 -1.587302e-02 -5.377425e-01
     vertex -5.162257e-01 -1.587302e-02 -5.377425e-01
     vertex -5.162257e-01  2.539682e-01 -5.377425e-01
   endloop
 endfacet
 facet normal  0.000000e+00  0.000000e+00 -1.000000e+00
   outer loop
     vertex  9.398590e-01 -1.587302e-02 -5.377425e-01
     vertex -5.162257e-01  2.539682e-01 -5.377425e-01
     vertex  9.398590e-01  2.539682e-01 -5.377425e-01
   endloop
 endfacet
 facet normal  0.000000e+00  1.000000e+00  0.000000e+00
   outer loop
     vertex -2.432644e-01  2.539682e-01 -3.594349e-01
     vertex -5.162257e-01  2.539682e-01 -5.377425e-01
     vertex -2.637075e-01  2.539682e-01 -3.410278e-01
   endloop
 endfacet
 facet normal  0.000000e+00  1.000000e+00  0.000000e+00
   outer loop
     vertex -2.813899e-01  2.539682e-01 -3.199548e-01
     vertex -2.637075e-01  2.539682e-01 -3.410278e-01
     vertex -5.162257e-01  2.539682e-01 -5.377425e-01
   endloop
 endfacet
 facet normal  0.000000e+00  1.000000e+00  0.000000e+00
   outer loop
     vertex -2.204585e-01  2.539682e-01 -3.748177e-01
     vertex -5.162257e-01  2.539682e-01 -5.377425e-01
     vertex -2.432644e-01  2.539682e-01 -3.594349e-01
   endloop
 endfacet
 facet normal  0.000000e+00  1.000000e+00  0.000000e+00
   outer loop
     vertex -2.959673e-01  2.539682e-01 -2.966259e-01
     vertex -2.813899e-01  2.539682e-01 -3.199548e-01
     vertex -5.162257e-01  2.539682e-01 -5.377425e-01
   endloop
 endfacet
 facet normal  0.000000e+00  1.000000e+00  0.000000e+00
   outer loop
     vertex -1.957336e-01  2.539682e-01 -3.868768e-01
     vertex -5.162257e-01  2.539682e-01 -5.377425e-01
     vertex -2.204585e-01  2.539682e-01 -3.748177e-01
   endloop
 endfacet
 facet normal  0.000000e+00  1.000000e+00  0.000000e+00
   outer loop
     vertex -3.071562e-01  2.539682e-01 -2.714953e-01
     vertex -2.959673e-01  2.539682e-01 -2.966259e-01
     vertex -5.162257e-01  2.539682e-01 -5.377425e-01
   endloop
 endfacet
 facet normal  0.000000e+00  1.000000e+00  0.000000e+00
   outer loop
     vertex -1.695711e-01  2.539682e-01 -3.953775e-01
     vertex -5.162257e-01  2.539682e-01 -5.377425e-01
     vertex -1.957336e-01  2.539682e-01 -3.868768e-01
   endloop
 endfacet
 facet normal  0.000000e+00  1.000000e+00  0.000000e+00
   outer loop
     vertex -3.147387e-01  2.539682e-01 -2.450520e-01
     vertex -3.071562e-01  2.539682e-01 -2.714953e-01
     vertex -5.162257e-01  2.539682e-01 -5.377425e-01
   endloop
 endfacet
 facet normal  0.000000e+00  1.000000e+00  0.000000e+00
   outer loop
     vertex -1.424801e-01  2.539682e-01 -4.001544e-01
     vertex -5.162257e-01  2.539682e-01 -5.377425e-01
     vertex -1.695711e-01  2.539682e-01 -3.953775e-01
   endloop
 endfacet
 facet normal  0.000000e+00  1.000000e+00  0.000000e+00
   outer loop
     vertex -3.185672e-01  2.539682e-01 -2.178108e-01
     vertex -3.147387e-01  2.539682e-01 -2.450520e-01
     vertex -5.162257e-01  2.539682e-01 -5.377425e-01
   endloop
 endfacet
 facet normal  0.000000e+00  1.000000e+00  0.000000e+00
   outer loop
     vertex -1.149880e-01  2.539682e-01 -4.011144e-01
     vertex -5.162257e-01  2.539682e-01 -5.377425e-01
     vertex -1.424801e-01  2.539682e-01 -4.001544e-01
   endloop
 endfacet
 facet normal  0.000000e+00  1.000000e+00  0.000000e+00
   outer loop
     vertex -3.185672e-01  2.539682e-01 -1.903019e-01
     vertex -3.185672e-01  2.539682e-01 -2.178108e-01
     vertex -5.162257e-01  2.539682e-01 -5.377425e-01
   endloop
 endfacet
 facet normal  0.000000e+00  1.000000e+00  0.000000e+00
   outer loop
     vertex -8.762977e-02  2.539682e-01 -3.982389e-01
     vertex -5.162257e-01  2.539682e-01 -5.377425e-01
     vertex -1.149880e-01  2.539682e-01 -4.011144e-01
   endloop
 endfacet
 facet normal  0.000000e+00  1.000000e+00  0.000000e+00
   outer loop
     vertex -3.147387e-01  2.539682e-01 -1.630608e-01
     vertex -3.185672e-01  2.539682e-01 -1.903019e-01
     vertex -5.162257e-01  2.539682e-01 -5.377425e-01
   endloop
 endfacet
 facet normal  0.000000e+00  1.000000e+00  0.000000e+00
   outer loop
     vertex -5.162257e-01  2.539682e-01  6.756614e-01
     vertex -1.424801e-01  2.539682e-01 -7.958425e-03
     vertex -1.695711e-01  2.539682e-01 -1.273530e-02
   endloop
 endfacet
 facet normal  0.000000e+00  1.000000e+00  0.000000e+00
   outer loop
     vertex -5.162257e-01  2.539682e-01  6.756614e-01
     vertex -1.695711e-01  2.539682e-01 -1.273530e-02
     vertex -1.957336e-01  2.539682e-01 -2.123601e-02
   endloop
 endfacet
 facet normal  0.000000e+00  1.000000e+00  0.000000e+00
   outer loop
     vertex -5.162257e-01  2.539682e-01  6.756614e-01
     vertex -1.957336e-01  2.539682e-01 -2.123601e-02
     vertex -2.204585e-01  2.539682e-01 -3.329512e-02
   endloop
 endfacet
 facet normal  0.000000e+00  1.000000e+00  0.000000e+00
   outer loop
     vertex -5.162257e-01  2.539682e-01  6.756614e-01
     vertex -2.204585e-01  2.539682e-01 -3.329512e-02
     vertex -2.432644e-01  2.539682e-01 -4.867791e-02
   endloop
 endfacet
 facet normal  0.000000e+00  1.000000e+00  0.000000e+00
   outer loop
     vertex -5.162257e-01  2.539682e-01  6.756614e-01
     vertex -2.432644e-01  2.539682e-01 -4.867791e-02
     vertex -2.637075e-01  2.539682e-01 -6.708495e-02
   endloop
 endfacet
 facet normal  0.000000e+00  1.000000e+00  0.000000e+00
   outer loop
     vertex -5.162257e-01  2.539682e-01  6.756614e-01
     vertex -2.637075e-01  2.539682e-01 -6.708495e-02
     vertex -2.813899e-01  2.539682e-01 -8.815800e-02
   endloop
 endfacet
 facet normal  0.000000e+00  1.000000e+00  0.000000e+00
   outer loop
     vertex -5.162257e-01  2.539682e-01  6.756614e-01
     vertex -2.813899e-01  2.539682e-01 -8.815800e-02
     vertex -2.959673e-01  2.539682e-01 -1.114869e-01
   endloop
 endfacet
 facet normal  0.000000e+00  1.000000e+00  0.000000e+00
   outer loop
     vertex -5.162257e-01  2.539682e-01  6.756614e-01
     vertex -2.959673e-01  2.539682e-01 -1.114869e-01
     vertex -3.071562e-01  2.539682e-01 -1.366175e-01
   endloop
 endfacet
 facet normal  0.000000e+00  1.000000e+00  0.000000e+00
   outer loop
     vertex -5.162257e-01  2.539682e-01  6.756614e-01
     vertex -3.071562e-01  2.539682e-01 -1.366175e-01
     vertex -3.147387e-01  2.539682e-01 -1.630608e-01
   endloop
 endfacet
 facet normal  0.000000e+00  1.000000e+00  0.000000e+00
   outer loop
     vertex -5.162257e-01  2.539682e-01  6.756614e-01
     vertex -3.147387e-01  2.539682e-01 -1.630608e-01
     vertex -5.162257e-01  2.539682e-01 -5.377425e-01
   endloop
 endfacet
 facet normal  0.000000e+00  1.000000e+00  0.000000e+00
   outer loop
     vertex  9.398590e-01  2.539682e-01 -5.377425e-01
     vertex -8.762977e-02  2.539682e-01 -3.982389e-01
     vertex -6.093800e-02  2.539682e-01 -3.915839e-01
   endloop
 endfacet
 facet normal  0.000000e+00  1.000000e+00  0.000000e+00
   outer loop
     vertex  9.398590e-01  2.539682e-01 -5.377425e-01
     vertex -6.093800e-02  2.539682e-01 -3.915839e-01
     vertex -3.543219e-02  2.539682e-01 -3.812789e-01
   endloop
 endfacet
 facet normal  0.000000e+00  1.000000e+00  0.000000e+00
   outer loop
     vertex  9.398590e-01  2.539682e-01 -5.377425e-01
     vertex -3.543219e-02  2.539682e-01 -3.812789e-01
     vertex -1.160878e-02  2.539682e-01 -3.675245e-01
   endloop
 endfacet
 facet normal  0.000000e+00  1.000000e+00  0.000000e+00
   outer loop
     vertex  9.398590e-01  2.539682e-01 -5.377425e-01
     vertex -1.160878e-02  2.539682e-01 -3.675245e-01
     vertex  1.006853e-02  2.539682e-01 -3.505883e-01
   endloop
 endfacet
 facet normal  0.000000e+00  1.000000e+00  0.000000e+00
   outer loop
     vertex  9.398590e-01  2.539682e-01 -5.377425e-01
     vertex  1.006853e-02  2.539682e-01 -3.505883e-01
     vertex  2.917782e-02  2.539682e-01 -3.308001e-01
   endloop
 endfacet
 facet normal  0.000000e+00  1.000000e+00  0.000000e+00
   outer loop
     vertex  9.398590e-01  2.539682e-01 -5.377425e-01
     vertex  2.917782e-02  2.539682e-01 -3.308001e-01
     vertex  4.534715e-02  2.539682e-01 -3.085449e-01
   endloop
 endfacet
 facet normal  0.000000e+00  1.000000e+00  0.000000e+00
   outer loop
     vertex  9.398590e-01  2.539682e-01 -5.377425e-01
     vertex  4.534715e-02  2.539682e-01 -3.085449e-01
     vertex  5.826180e-02  2.539682e-01 -2.842560e-01
   endloop
 endfacet
 facet normal  0.000000e+00  1.000000e+00  0.000000e+00
   outer loop
     vertex  9.398590e-01  2.539682e-01 -5.377425e-01
     vertex  5.826180e-02  2.539682e-01 -2.842560e-01
     vertex  6.767039e-02  2.539682e-01 -2.584061e-01
   endloop
 endfacet
 facet normal  0.000000e+00  1.000000e+00  0.000000e+00
   outer loop
     vertex  9.398590e-01  2.539682e-01 -5.377425e-01
     vertex  6.767039e-02  2.539682e-01 -2.584061e-01
     vertex  7.338982e-02  2.539682e-01 -2.314983e-01
   endloop
 endfacet
 facet normal  0.000000e+00  1.000000e+00  0.000000e+00
   outer loop
     vertex  9.398590e-01  2.539682e-01 -5.377425e-01
     vertex -5.162257e-01  2.539682e-01 -5.377425e-01
     vertex -8.762977e-02  2.539682e-01 -3.982389e-01
   endloop
 endfacet
 facet normal  0.000000e+00  1.000000e+00  0.000000e+00
   outer loop
     vertex  9.398590e-01  2.539682e-01 -5.238092e-02
     vertex  7.530874e-02  2.539682e-01 -2.040564e-01
     vertex  7.338982e-02  2.539682e-01 -1.766145e-01
   endloop
 endfacet
 facet normal  0.000000e+00  1.000000e+00  0.000000e+00
   outer loop
     vertex  9.398590e-01  2.539682e-01 -5.238092e-02
     vertex  7.338982e-02  2.539682e-01 -1.766145e-01
     vertex  6.767039e-02  2.539682e-01 -1.497067e-01
   endloop
 endfacet
 facet normal  0.000000e+00  1.000000e+00  0.000000e+00
   outer loop
     vertex  9.398590e-01  2.539682e-01 -5.238092e-02
     vertex  6.767039e-02  2.539682e-01 -1.497067e-01
     vertex  5.826180e-02  2.539682e-01 -1.238568e-01
   endloop
 endfacet
 facet normal  0.000000e+00  1.000000e+00  0.000000e+00
   outer loop
     vertex  9.398590e-01  2.539682e-01 -5.238092e-02
     vertex  5.826180e-02  2.539682e-01 -1.238568e-01
     vertex  4.534715e-02  2.539682e-01 -9.956790e-02
   endloop
 endfacet
 facet normal  0.000000e+00  1.000000e+00  0.000000e+00
   outer loop
     vertex  9.398590e-01  2.539682e-01 -5.238092e-02
     vertex  7.338982e-02  2.539682e-01 -2.314983e-01
     vertex  7.530874e-02  2.539682e-01 -2.040564e-01
   endloop
 endfacet
 facet normal  0.000000e+00  1.000000e+00  0.000000e+00
   outer loop
     vertex  9.398590e-01  2.539682e-01 -5.238092e-02
     vertex  9.398590e-01  2.539682e-01 -5.377425e-01
     vertex  7.338982e-02  2.539682e-01 -2.314983e-01
   endloop
 endfacet
 facet normal  0.000000e+00  1.000000e+00  0.000000e+00
   outer loop
     vertex  2.118167e-01  2.539682e-01  6.756614e-01
     vertex  4.534715e-02  2.539682e-01 -9.956790e-02
     vertex  2.917782e-02  2.539682e-01 -7.731273e-02
   endloop
 endfacet
 facet normal  0.000000e+00  1.000000e+00  0.000000e+00
   outer loop
     vertex  2.118167e-01  2.539682e-01  6.756614e-01
     vertex  2.917782e-02  2.539682e-01 -7.731273e-02
     vertex  1.006853e-02  2.539682e-01 -5.752449e-02
   endloop
 endfacet
 facet normal  0.000000e+00  1.000000e+00  0.000000e+00
   outer loop
     vertex  2.118167e-01  2.539682e-01  6.756614e-01
     vertex  1.006853e-02  2.539682e-01 -5.752449e-02
     vertex -1.160878e-02  2.539682e-01 -4.058831e-02
   endloop
 endfacet
 facet normal  0.000000e+00  1.000000e+00  0.000000e+00
   outer loop
     vertex  2.118167e-01  2.539682e-01  6.756614e-01
     vertex -1.160878e-02  2.539682e-01 -4.058831e-02
     vertex -3.543219e-02  2.539682e-01 -2.683386e-02
   endloop
 endfacet
 facet normal  0.000000e+00  1.000000e+00  0.000000e+00
   outer loop
     vertex  2.118167e-01  2.539682e-01  6.756614e-01
     vertex -3.543219e-02  2.539682e-01 -2.683386e-02
     vertex -6.093800e-02  2.539682e-01 -1.652885e-02
   endloop
 endfacet
 facet normal  0.000000e+00  1.000000e+00  0.000000e+00
   outer loop
     vertex  2.118167e-01  2.539682e-01  6.756614e-01
     vertex -6.093800e-02  2.539682e-01 -1.652885e-02
     vertex -8.762977e-02  2.539682e-01 -9.873841e-03
   endloop
 endfacet
 facet normal  0.000000e+00  1.000000e+00  0.000000e+00
   outer loop
     vertex  2.118167e-01  2.539682e-01  6.756614e-01
     vertex -8.762977e-02  2.539682e-01 -9.873841e-03
     vertex -1.149880e-01  2.539682e-01 -6.998378e-03
   endloop
 endfacet
 facet normal  0.000000e+00  1.000000e+00  0.000000e+00
   outer loop
     vertex  2.118167e-01  2.539682e-01  6.756614e-01
     vertex -1.149880e-01  2.539682e-01 -6.998378e-03
     vertex -1.424801e-01  2.539682e-01 -7.958425e-03
   endloop
 endfacet
 facet normal  0.000000e+00  1.000000e+00  0.000000e+00
   outer loop
     vertex  2.118167e-01  2.539682e-01  6.756614e-01
     vertex -1.424801e-01  2.539682e-01 -7.958425e-03
     vertex -5.162257e-01  2.539682e-01  6.756614e-01
   endloop
 endfacet
 facet normal  0.000000e+00  1.000000e+00  0.000000e+00
   outer loop
     vertex  2.118167e-01  2.539682e-01  6.756614e-01
     vertex  9.398590e-01  2.539682e-01 -5.238092e-02
     vertex  4.534715e-02  2.539682e-01 -9.956790e-02
   endloop
 endfacet
 facet normal -9.975641e-01  0.000000e+00 -6.975647e-02
   outer loop
     vertex  7.338982e-02 -1.587302e-02 -1.766145e-01
     vertex  7.530874e-02 -1.587302e-02 -2.040564e-01
     vertex  7.530874e-02 -2.539683e-01 -2.040564e-01
   endloop
 endfacet
 facet normal -9.975641e-01 -0.000000e+00 -6.975647e-02
   outer loop
     vertex  7.338982e-02 -1.587302e-02 -1.766145e-01
     vertex  7.530874e-02 -2.539683e-01 -2.040564e-01
     vertex  7.338982e-02 -2.539683e-01 -1.766145e-01
   endloop
 endfacet
 facet normal -9.781476e-01 -0.000000e+00 -2.079117e-01
   outer loop
     vertex  6.767039e-02 -1.587302e-02 -1.497067e-01
     vertex  7.338982e-02 -2.539683e-01 -1.766145e-01
     vertex  6.767039e-02 -2.539683e-01 -1.497067e-01
   endloop
 endfacet
 facet normal -9.781476e-01  0.000000e+00 -2.079117e-01
   outer loop
     vertex  6.767039e-02 -1.587302e-02 -1.497067e-01
     vertex  7.338982e-02 -1.587302e-02 -1.766145e-01
     vertex  7.338982e-02 -2.539683e-01 -1.766145e-01
   endloop
 endfacet
 facet normal -9.396926e-01 -0.000000e+00 -3.420201e-01
   outer loop
     vertex  5.826180e-02 -1.587302e-02 -1.238568e-01
     vertex  6.767039e-02 -2.539683e-01 -1.497067e-01
     vertex  5.826180e-02 -2.539683e-01 -1.238568e-01
   endloop
 endfacet
 facet normal -9.396926e-01  0.000000e+00 -3.420201e-01
   outer loop
     vertex  5.826180e-02 -1.587302e-02 -1.238568e-01
     vertex  6.767039e-02 -1.587302e-02 -1.497067e-01
     vertex  6.767039e-02 -2.539683e-01 -1.497067e-01
   endloop
 endfacet
 facet normal -8.829476e-01 -0.000000e+00 -4.694716e-01
   outer loop
     vertex  4.534715e-02 -1.587302e-02 -9.956790e-02
     vertex  5.826180e-02 -2.539683e-01 -1.238568e-01
     vertex  4.534715e-02 -2.539683e-01 -9.956790e-02
   endloop
 endfacet
 facet normal -8.829476e-01  0.000000e+00 -4.694716e-01
   outer loop
     vertex  4.534715e-02 -1.587302e-02 -9.956790e-02
     vertex  5.826180e-02 -1.587302e-02 -1.238568e-01
     vertex  5.826180e-02 -2.539683e-01 -1.238568e-01
   endloop
 endfacet
 facet normal -8.090170e-01 -0.000000e+00 -5.877853e-01
   outer loop
     vertex  2.917782e-02 -1.587302e-02 -7.731273e-02
     vertex  4.534715e-02 -2.539683e-01 -9.956790e-02
     vertex  2.917782e-02 -2.539683e-01 -7.731273e-02
   endloop
 endfacet
 facet normal -8.090170e-01  0.000000e+00 -5.877853e-01
   outer loop
     vertex  2.917782e-02 -1.587302e-02 -7.731273e-02
     vertex  4.534715e-02 -1.587302e-02 -9.956790e-02
     vertex  4.534715e-02 -2.539683e-01 -9.956790e-02
   endloop
 endfacet
 facet normal -7.193398e-01 -0.000000e+00 -6.946584e-01
   outer loop
     vertex  1.006853e-02 -1.587302e-02 -5.752449e-02
     vertex  2.917782e-02 -2.539683e-01 -7.731273e-02
     vertex  1.006853e-02 -2.539683e-01 -5.752449e-02
   endloop
 endfacet
 facet normal -7.193398e-01  0.000000e+00 -6.946584e-01
   outer loop
     vertex  1.006853e-02 -1.587302e-02 -5.752449e-02
     vertex  2.917782e-02 -1.587302e-02 -7.731273e-02
     vertex  2.917782e-02 -2.539683e-01 -7.731273e-02
   endloop
 endfacet
 facet normal -6.156615e-01 -0.000000e+00 -7.880108e-01
   outer loop
     vertex -1.160878e-02 -1.587302e-02 -4.058831e-02
     vertex  1.006853e-02 -2.539683e-01 -5.752449e-02
     vertex -1.160878e-02 -2.539683e-01 -4.058831e-02
   endloop
 endfacet
 facet normal -6.156615e-01  0.000000e+00 -7.880108e-01
   outer loop
     vertex -1.160878e-02 -1.587302e-02 -4.058831e-02
     vertex  1.006853e-02 -1.587302e-02 -5.752449e-02
     vertex  1.006853e-02 -2.539683e-01 -5.752449e-02
   endloop
 endfacet
 facet normal -5.000000e-01 -0.000000e+00 -8.660254e-01
   outer loop
     vertex -3.543219e-02 -1.587302e-02 -2.683386e-02
     vertex -1.160878e-02 -2.539683e-01 -4.058831e-02
     vertex -3.543219e-02 -2.539683e-01 -2.683386e-02
   endloop
 endfacet
 facet normal -5.000000e-01  0.000000e+00 -8.660254e-01
   outer loop
     vertex -3.543219e-02 -1.587302e-02 -2.683386e-02
     vertex -1.160878e-02 -1.587302e-02 -4.058831e-02
     vertex -1.160878e-02 -2.539683e-01 -4.058831e-02
   endloop
 endfacet
 facet normal -3.746066e-01 -0.000000e+00 -9.271839e-01
   outer loop
     vertex -6.093800e-02 -1.587302e-02 -1.652885e-02
     vertex -3.543219e-02 -2.539683e-01 -2.683386e-02
     vertex -6.093800e-02 -2.539683e-01 -1.652885e-02
   endloop
 endfacet
 facet normal -3.746066e-01  0.000000e+00 -9.271839e-01
   outer loop
     vertex -6.093800e-02 -1.587302e-02 -1.652885e-02
     vertex -3.543219e-02 -1.587302e-02 -2.683386e-02
     vertex -3.543219e-02 -2.539683e-01 -2.683386e-02
   endloop
 endfacet
 facet normal -2.419219e-01 -0.000000e+00 -9.702957e-01
   outer loop
     vertex -8.762977e-02 -1.587302e-02 -9.873841e-03
     vertex -6.093800e-02 -2.539683e-01 -1.652885e-02
     vertex -8.762977e-02 -2.539683e-01 -9.873841e-03
   endloop
 endfacet
 facet normal -2.419219e-01  0.000000e+00 -9.702957e-01
   outer loop
     vertex -8.762977e-02 -1.587302e-02 -9.873841e-03
     vertex -6.093800e-02 -1.587302e-02 -1.652885e-02
     vertex -6.093800e-02 -2.539683e-01 -1.652885e-02
   endloop
 endfacet
 facet normal -1.045285e-01 -0.000000e+00 -9.945219e-01
   outer loop
     vertex -1.149880e-01 -1.587302e-02 -6.998378e-03
     vertex -8.762977e-02 -2.539683e-01 -9.873841e-03
     vertex -1.149880e-01 -2.539683e-01 -6.998378e-03
   endloop
 endfacet
 facet normal -1.045285e-01  0.000000e+00 -9.945219e-01
   outer loop
     vertex -1.149880e-01 -1.587302e-02 -6.998378e-03
     vertex -8.762977e-02 -1.587302e-02 -9.873841e-03
     vertex -8.762977e-02 -2.539683e-01 -9.873841e-03
   endloop
 endfacet
 facet normal  3.489950e-02  0.000000e+00 -9.993908e-01
   outer loop
     vertex -1.424801e-01 -1.587302e-02 -7.958425e-03
     vertex -1.149880e-01 -2.539683e-01 -6.998378e-03
     vertex -1.424801e-01 -2.539683e-01 -7.958425e-03
   endloop
 endfacet
 facet normal  3.489950e-02  0.000000e+00 -9.993908e-01
   outer loop
     vertex -1.424801e-01 -1.587302e-02 -7.958425e-03
     vertex -1.149880e-01 -1.587302e-02 -6.998378e-03
     vertex -1.149880e-01 -2.539683e-01 -6.998378e-03
   endloop
 endfacet
 facet normal  1.736482e-01  0.000000e+00 -9.848078e-01
   outer loop
     vertex -1.695711e-01 -1.587302e-02 -1.273530e-02
     vertex -1.424801e-01 -2.539683e-01 -7.958425e-03
     vertex -1.695711e-01 -2.539683e-01 -1.273530e-02
   endloop
 endfacet
 facet normal  1.736482e-01  0.000000e+00 -9.848078e-01
   outer loop
     vertex -1.695711e-01 -1.587302e-02 -1.273530e-02
     vertex -1.424801e-01 -1.587302e-02 -7.958425e-03
     vertex -1.424801e-01 -2.539683e-01 -7.958425e-03
   endloop
 endfacet
 facet normal  3.090170e-01  0.000000e+00 -9.510565e-01
   outer loop
     vertex -1.957336e-01 -1.587302e-02 -2.123601e-02
     vertex -1.695711e-01 -2.539683e-01 -1.273530e-02
     vertex -1.957336e-01 -2.539683e-01 -2.123601e-02
   endloop
 endfacet
 facet normal  4.383711e-01  0.000000e+00 -8.987940e-01
   outer loop
     vertex -1.957336e-01 -1.587302e-02 -2.123601e-02
     vertex -1.957336e-01 -2.539683e-01 -2.123601e-02
     vertex -2.204585e-01 -2.539683e-01 -3.329512e-02
   endloop
 endfacet
 facet normal  3.090170e-01  0.000000e+00 -9.510565e-01
   outer loop
     vertex -1.957336e-01 -1.587302e-02 -2.123601e-02
     vertex -1.695711e-01 -1.587302e-02 -1.273530e-02
     vertex -1.695711e-01 -2.539683e-01 -1.273530e-02
   endloop
 endfacet
 facet normal  4.383711e-01  0.000000e+00 -8.987940e-01
   outer loop
     vertex -2.204585e-01 -1.587302e-02 -3.329512e-02
     vertex -1.957336e-01 -1.587302e-02 -2.123601e-02
     vertex -2.204585e-01 -2.539683e-01 -3.329512e-02
   endloop
 endfacet
 facet normal  5.591929e-01  0.000000e+00 -8.290376e-01
   outer loop
     vertex -2.432644e-01 -1.587302e-02 -4.867791e-02
     vertex -2.204585e-01 -2.539683e-01 -3.329512e-02
     vertex -2.432644e-01 -2.539683e-01 -4.867791e-02
   endloop
 endfacet
 facet normal  6.691306e-01  0.000000e+00 -7.431448e-01
   outer loop
     vertex -2.432644e-01 -1.587302e-02 -4.867791e-02
     vertex -2.432644e-01 -2.539683e-01 -4.867791e-02
     vertex -2.637075e-01 -2.539683e-01 -6.708495e-02
   endloop
 endfacet
 facet normal  5.591929e-01  0.000000e+00 -8.290376e-01
   outer loop
     vertex -2.432644e-01 -1.587302e-02 -4.867791e-02
     vertex -2.204585e-01 -1.587302e-02 -3.329512e-02
     vertex -2.204585e-01 -2.539683e-01 -3.329512e-02
   endloop
 endfacet
 facet normal  6.691306e-01  0.000000e+00 -7.431448e-01
   outer loop
     vertex -2.637075e-01 -1.587302e-02 -6.708495e-02
     vertex -2.432644e-01 -1.587302e-02 -4.867791e-02
     vertex -2.637075e-01 -2.539683e-01 -6.708495e-02
   endloop
 endfacet
 facet normal  7.660444e-01  0.000000e+00 -6.427876e-01
   outer loop
     vertex -2.813899e-01 -1.587302e-02 -8.815800e-02
     vertex -2.637075e-01 -2.539683e-01 -6.708495e-02
     vertex -2.813899e-01 -2.539683e-01 -8.815800e-02
   endloop
 endfacet
 facet normal  7.660444e-01  0.000000e+00 -6.427876e-01
   outer loop
     vertex -2.813899e-01 -1.587302e-02 -8.815800e-02
     vertex -2.637075e-01 -1.587302e-02 -6.708495e-02
     vertex -2.637075e-01 -2.539683e-01 -6.708495e-02
   endloop
 endfacet
 facet normal  8.480481e-01  0.000000e+00 -5.299193e-01
   outer loop
     vertex -2.959673e-01 -1.587302e-02 -1.114869e-01
     vertex -2.813899e-01 -2.539683e-01 -8.815800e-02
     vertex -2.959673e-01 -2.539683e-01 -1.114869e-01
   endloop
 endfacet
 facet normal  8.480481e-01  0.000000e+00 -5.299193e-01
   outer loop
     vertex -2.959673e-01 -1.587302e-02 -1.114869e-01
     vertex -2.813899e-01 -1.587302e-02 -8.815800e-02
     vertex -2.813899e-01 -2.539683e-01 -8.815800e-02
   endloop
 endfacet
 facet normal  9.135455e-01  0.000000e+00 -4.067366e-01
   outer loop
     vertex -3.071562e-01 -1.587302e-02 -1.366175e-01
     vertex -2.959673e-01 -2.539683e-01 -1.114869e-01
     vertex -3.071562e-01 -2.539683e-01 -1.366175e-01
   endloop
 endfacet
 facet normal  9.135455e-01  0.000000e+00 -4.067366e-01
   outer loop
     vertex -3.071562e-01 -1.587302e-02 -1.366175e-01
     vertex -2.959673e-01 -1.587302e-02 -1.114869e-01
     vertex -2.959673e-01 -2.539683e-01 -1.114869e-01
   endloop
 endfacet
 facet normal  9.612617e-01  0.000000e+00 -2.756374e-01
   outer loop
     vertex -3.147387e-01 -1.587302e-02 -1.630608e-01
     vertex -3.071562e-01 -2.539683e-01 -1.366175e-01
     vertex -3.147387e-01 -2.539683e-01 -1.630608e-01
   endloop
 endfacet
 facet normal  9.612617e-01  0.000000e+00 -2.756374e-01
   outer loop
     vertex -3.147387e-01 -1.587302e-02 -1.630608e-01
     vertex -3.071562e-01 -1.587302e-02 -1.366175e-01
     vertex -3.071562e-01 -2.539683e-01 -1.366175e-01
   endloop
 endfacet
 facet normal  9.902681e-01  0.000000e+00 -1.391731e-01
   outer loop
     vertex -3.185672e-01 -1.587302e-02 -1.903019e-01
     vertex -3.147387e-01 -2.539683e-01 -1.630608e-01
     vertex -3.185672e-01 -2.539683e-01 -1.903019e-01
   endloop
 endfacet
 facet normal  9.902681e-01  0.000000e+00 -1.391731e-01
   outer loop
     vertex -3.185672e-01 -1.587302e-02 -1.903019e-01
     vertex -3.147387e-01 -1.587302e-02 -1.630608e-01
     vertex -3.147387e-01 -2.539683e-01 -1.630608e-01
   endloop
 endfacet
 facet normal  1.000000e+00  0.000000e+00  2.017934e-15
   outer loop
     vertex -3.185672e-01 -1.587302e-02 -2.178108e-01
     vertex -3.185672e-01 -2.539683e-01 -1.903019e-01
     vertex -3.185672e-01 -2.539683e-01 -2.178108e-01
   endloop
 endfacet
 facet normal  1.000000e+00  0.000000e+00  2.017934e-15
   outer loop
     vertex -3.185672e-01 -1.587302e-02 -2.178108e-01
     vertex -3.185672e-01 -1.587302e-02 -1.903019e-01
     vertex -3.185672e-01 -2.539683e-01 -1.903019e-01
   endloop
 endfacet
 facet normal  9.902681e-01  0.000000e+00  1.391731e-01
   outer loop
     vertex -3.147387e-01 -1.587302e-02 -2.450520e-01
     vertex -3.185672e-01 -2.539683e-01 -2.178108e-01
     vertex -3.147387e-01 -2.539683e-01 -2.450520e-01
   endloop
 endfacet
 facet normal  9.612617e-01  0.000000e+00  2.756374e-01
   outer loop
     vertex -3.147387e-01 -1.587302e-02 -2.450520e-01
     vertex -3.147387e-01 -2.539683e-01 -2.450520e-01
     vertex -3.071562e-01 -2.539683e-01 -2.714953e-01
   endloop
 endfacet
 facet normal  9.902681e-01  0.000000e+00  1.391731e-01
   outer loop
     vertex -3.147387e-01 -1.587302e-02 -2.450520e-01
     vertex -3.185672e-01 -1.587302e-02 -2.178108e-01
     vertex -3.185672e-01 -2.539683e-01 -2.178108e-01
   endloop
 endfacet
 facet normal  9.612617e-01  0.000000e+00  2.756374e-01
   outer loop
     vertex -3.071562e-01 -1.587302e-02 -2.714953e-01
     vertex -3.147387e-01 -1.587302e-02 -2.450520e-01
     vertex -3.071562e-01 -2.539683e-01 -2.714953e-01
   endloop
 endfacet
 facet normal  9.135455e-01  0.000000e+00  4.067366e-01
   outer loop
     vertex -2.959673e-01 -1.587302e-02 -2.966259e-01
     vertex -3.071562e-01 -2.539683e-01 -2.714953e-01
     vertex -2.959673e-01 -2.539683e-01 -2.966259e-01
   endloop
 endfacet
 facet normal  9.135455e-01  0.000000e+00  4.067366e-01
   outer loop
     vertex -2.959673e-01 -1.587302e-02 -2.966259e-01
     vertex -3.071562e-01 -1.587302e-02 -2.714953e-01
     vertex -3.071562e-01 -2.539683e-01 -2.714953e-01
   endloop
 endfacet
 facet normal  8.480481e-01  0.000000e+00  5.299193e-01
   outer loop
     vertex -2.813899e-01 -1.587302e-02 -3.199548e-01
     vertex -2.959673e-01 -1.587302e-02 -2.966259e-01
     vertex -2.959673e-01 -2.539683e-01 -2.966259e-01
   endloop
 endfacet
 facet normal  8.480481e-01  0.000000e+00  5.299193e-01
   outer loop
     vertex -2.813899e-01 -1.587302e-02 -3.199548e-01
     vertex -2.959673e-01 -2.539683e-01 -2.966259e-01
     vertex -2.813899e-01 -2.539683e-01 -3.199548e-01
   endloop
 endfacet
 facet normal  7.660444e-01  0.000000e+00  6.427876e-01
   outer loop
     vertex -2.813899e-01 -1.587302e-02 -3.199548e-01
     vertex -2.813899e-01 -2.539683e-01 -3.199548e-01
     vertex -2.637075e-01 -2.539683e-01 -3.410278e-01
   endloop
 endfacet
 facet normal  6.691306e-01  0.000000e+00  7.431448e-01
   outer loop
     vertex -2.637075e-01 -1.587302e-02 -3.410278e-01
     vertex -2.637075e-01 -2.539683e-01 -3.410278e-01
     vertex -2.432644e-01 -2.539683e-01 -3.594349e-01
   endloop
 endfacet
 facet normal  7.660444e-01  0.000000e+00  6.427876e-01
   outer loop
     vertex -2.637075e-01 -1.587302e-02 -3.410278e-01
     vertex -2.813899e-01 -1.587302e-02 -3.199548e-01
     vertex -2.637075e-01 -2.539683e-01 -3.410278e-01
   endloop
 endfacet
 facet normal  6.691306e-01  0.000000e+00  7.431448e-01
   outer loop
     vertex -2.432644e-01 -1.587302e-02 -3.594349e-01
     vertex -2.637075e-01 -1.587302e-02 -3.410278e-01
     vertex -2.432644e-01 -2.539683e-01 -3.594349e-01
   endloop
 endfacet
 facet normal  5.591929e-01  0.000000e+00  8.290376e-01
   outer loop
     vertex -2.204585e-01 -1.587302e-02 -3.748177e-01
     vertex -2.432644e-01 -1.587302e-02 -3.594349e-01
     vertex -2.432644e-01 -2.539683e-01 -3.594349e-01
   endloop
 endfacet
 facet normal  5.591929e-01  0.000000e+00  8.290376e-01
   outer loop
     vertex -2.204585e-01 -1.587302e-02 -3.748177e-01
     vertex -2.432644e-01 -2.539683e-01 -3.594349e-01
     vertex -2.204585e-01 -2.539683e-01 -3.748177e-01
   endloop
 endfacet
 facet normal  4.383711e-01  0.000000e+00  8.987940e-01
   outer loop
     vertex -1.957336e-01 -1.587302e-02 -3.868768e-01
     vertex -2.204585e-01 -1.587302e-02 -3.748177e-01
     vertex -2.204585e-01 -2.539683e-01 -3.748177e-01
   endloop
 endfacet
 facet normal  4.383711e-01  0.000000e+00  8.987940e-01
   outer loop
     vertex -1.957336e-01 -1.587302e-02 -3.868768e-01
     vertex -2.204585e-01 -2.539683e-01 -3.748177e-01
     vertex -1.957336e-01 -2.539683e-01 -3.868768e-01
   endloop
 endfacet
 facet normal  3.090170e-01  0.000000e+00  9.510565e-01
   outer loop
     vertex -1.695711e-01 -1.587302e-02 -3.953775e-01
     vertex -1.957336e-01 -1.587302e-02 -3.868768e-01
     vertex -1.957336e-01 -2.539683e-01 -3.868768e-01
   endloop
 endfacet
 facet normal  3.090170e-01  0.000000e+00  9.510565e-01
   outer loop
     vertex -1.695711e-01 -1.587302e-02 -3.953775e-01
     vertex -1.957336e-01 -2.539683e-01 -3.868768e-01
     vertex -1.695711e-01 -2.539683e-01 -3.953775e-01
   endloop
 endfacet
 facet normal  1.736482e-01  0.000000e+00  9.848078e-01
   outer loop
     vertex -1.424801e-01 -1.587302e-02 -4.001544e-01
     vertex -1.695711e-01 -1.587302e-02 -3.953775e-01
     vertex -1.695711e-01 -2.539683e-01 -3.953775e-01
   endloop
 endfacet
 facet normal  1.736482e-01  0.000000e+00  9.848078e-01
   outer loop
     vertex -1.424801e-01 -1.587302e-02 -4.001544e-01
     vertex -1.695711e-01 -2.539683e-01 -3.953775e-01
     vertex -1.424801e-01 -2.539683e-01 -4.001544e-01
   endloop
 endfacet
 facet normal  3.489950e-02  0.000000e+00  9.993908e-01
   outer loop
     vertex -1.149880e-01 -1.587302e-02 -4.011144e-01
     vertex -1.424801e-01 -1.587302e-02 -4.001544e-01
     vertex -1.424801e-01 -2.539683e-01 -4.001544e-01
   endloop
 endfacet
 facet normal  3.489950e-02  0.000000e+00  9.993908e-01
   outer loop
     vertex -1.149880e-01 -1.587302e-02 -4.011144e-01
     vertex -1.424801e-01 -2.539683e-01 -4.001544e-01
     vertex -1.149880e-01 -2.539683e-01 -4.011144e-01
   endloop
 endfacet
 facet normal -1.045285e-01  0.000000e+00  9.945219e-01
   outer loop
     vertex -8.762977e-02 -1.587302e-02 -3.982389e-01
     vertex -1.149880e-01 -2.539683e-01 -4.011144e-01
     vertex -8.762977e-02 -2.539683e-01 -3.982389e-01
   endloop
 endfacet
 facet normal -1.045285e-01  0.000000e+00  9.945219e-01
   outer loop
     vertex -8.762977e-02 -1.587302e-02 -3.982389e-01
     vertex -1.149880e-01 -1.587302e-02 -4.011144e-01
     vertex -1.149880e-01 -2.539683e-01 -4.011144e-01
   endloop
 endfacet
 facet normal -2.419219e-01  0.000000e+00  9.702957e-01
   outer loop
     vertex -8.762977e-02 -1.587302e-02 -3.982389e-01
     vertex -8.762977e-02 -2.539683e-01 -3.982389e-01
     vertex -6.093800e-02 -2.539683e-01 -3.915839e-01
   endloop
 endfacet
 facet normal -2.419219e-01  0.000000e+00  9.702957e-01
   outer loop
     vertex -6.093800e-02 -1.587302e-02 -3.915839e-01
     vertex -8.762977e-02 -1.587302e-02 -3.982389e-01
     vertex -6.093800e-02 -2.539683e-01 -3.915839e-01
   endloop
 endfacet
 facet normal -3.746066e-01  0.000000e+00  9.271839e-01
   outer loop
     vertex -3.543219e-02 -1.587302e-02 -3.812789e-01
     vertex -6.093800e-02 -2.539683e-01 -3.915839e-01
     vertex -3.543219e-02 -2.539683e-01 -3.812789e-01
   endloop
 endfacet
 facet normal -3.746066e-01  0.000000e+00  9.271839e-01
   outer loop
     vertex -3.543219e-02 -1.587302e-02 -3.812789e-01
     vertex -6.093800e-02 -1.587302e-02 -3.915839e-01
     vertex -6.093800e-02 -2.539683e-01 -3.915839e-01
   endloop
 endfacet
 facet normal -5.000000e-01  0.000000e+00  8.660254e-01
   outer loop
     vertex -1.160878e-02 -1.587302e-02 -3.675245e-01
     vertex -3.543219e-02 -2.539683e-01 -3.812789e-01
     vertex -1.160878e-02 -2.539683e-01 -3.675245e-01
   endloop
 endfacet
 facet normal -6.156615e-01  0.000000e+00  7.880108e-01
   outer loop
     vertex -1.160878e-02 -1.587302e-02 -3.675245e-01
     vertex -1.160878e-02 -2.539683e-01 -3.675245e-01
     vertex  1.006853e-02 -2.539683e-01 -3.505883e-01
   endloop
 endfacet
 facet normal -5.000000e-01  0.000000e+00  8.660254e-01
   outer loop
     vertex -1.160878e-02 -1.587302e-02 -3.675245e-01
     vertex -3.543219e-02 -1.587302e-02 -3.812789e-01
     vertex -3.543219e-02 -2.539683e-01 -3.812789e-01
   endloop
 endfacet
 facet normal -6.156615e-01  0.000000e+00  7.880108e-01
   outer loop
     vertex  1.006853e-02 -1.587302e-02 -3.505883e-01
     vertex -1.160878e-02 -1.587302e-02 -3.675245e-01
     vertex  1.006853e-02 -2.539683e-01 -3.505883e-01
   endloop
 endfacet
 facet normal -7.193398e-01  0.000000e+00  6.946584e-01
   outer loop
     vertex  2.917782e-02 -1.587302e-02 -3.308001e-01
     vertex  1.006853e-02 -2.539683e-01 -3.505883e-01
     vertex  2.917782e-02 -2.539683e-01 -3.308001e-01
   endloop
 endfacet
 facet normal -7.193398e-01  0.000000e+00  6.946584e-01
   outer loop
     vertex  2.917782e-02 -1.587302e-02 -3.308001e-01
     vertex  1.006853e-02 -1.587302e-02 -3.505883e-01
     vertex  1.006853e-02 -2.539683e-01 -3.505883e-01
   endloop
 endfacet
 facet normal -8.090170e-01  0.000000e+00  5.877853e-01
   outer loop
     vertex  4.534715e-02 -1.587302e-02 -3.085449e-01
     vertex  2.917782e-02 -2.539683e-01 -3.308001e-01
     vertex  4.534715e-02 -2.539683e-01 -3.085449e-01
   endloop
 endfacet
 facet normal -8.090170e-01  0.000000e+00  5.877853e-01
   outer loop
     vertex  4.534715e-02 -1.587302e-02 -3.085449e-01
     vertex  2.917782e-02 -1.587302e-02 -3.308001e-01
     vertex  2.917782e-02 -2.539683e-01 -3.308001e-01
   endloop
 endfacet
 facet normal -8.829476e-01  0.000000e+00  4.694716e-01
   outer loop
     vertex  5.826180e-02 -1.587302e-02 -2.842560e-01
     vertex  4.534715e-02 -2.539683e-01 -3.085449e-01
     vertex  5.826180e-02 -2.539683e-01 -2.842560e-01
   endloop
 endfacet
 facet normal -8.829476e-01  0.000000e+00  4.694716e-01
   outer loop
     vertex  5.826180e-02 -1.587302e-02 -2.842560e-01
     vertex  4.534715e-02 -1.587302e-02 -3.085449e-01
     vertex  4.534715e-02 -2.539683e-01 -3.085449e-01
   endloop
 endfacet
 facet normal -9.396926e-01  0.000000e+00  3.420201e-01
   outer loop
     vertex  6.767039e-02 -1.587302e-02 -2.584061e-01
     vertex  5.826180e-02 -2.539683e-01 -2.842560e-01
     vertex  6.767039e-02 -2.539683e-01 -2.584061e-01
   endloop
 endfacet
 facet normal -9.781476e-01  0.000000e+00  2.079117e-01
   outer loop
     vertex  6.767039e-02 -1.587302e-02 -2.584061e-01
     vertex  6.767039e-02 -2.539683e-01 -2.584061e-01
     vertex  7.338982e-02 -2.539683e-01 -2.314983e-01
   endloop
 endfacet
 facet normal -9.396926e-01  0.000000e+00  3.420201e-01
   outer loop
     vertex  6.767039e-02 -1.587302e-02 -2.584061e-01
     vertex  5.826180e-02 -1.587302e-02 -2.842560e-01
     vertex  5.826180e-02 -2.539683e-01 -2.842560e-01
   endloop
 endfacet
 facet normal -9.781476e-01  0.000000e+00  2.079117e-01
   outer loop
     vertex  7.338982e-02 -1.587302e-02 -2.314983e-01
     vertex  6.767039e-02 -1.587302e-02 -2.584061e-01
     vertex  7.338982e-02 -2.539683e-01 -2.314983e-01
   endloop
 endfacet
 facet normal -9.975641e-01  0.000000e+00  6.975647e-02
   outer loop
     vertex  7.530874e-02 -1.587302e-02 -2.040564e-01
     vertex  7.338982e-02 -2.539683e-01 -2.314983e-01
     vertex  7.530874e-02 -2.539683e-01 -2.040564e-01
   endloop
 endfacet
 facet normal -9.975641e-01  0.000000e+00  6.975647e-02
   outer loop
     vertex  7.530874e-02 -1.587302e-02 -2.040564e-01
     vertex  7.338982e-02 -1.587302e-02 -2.314983e-01
     vertex  7.338982e-02 -2.539683e-01 -2.314983e-01
   endloop
 endfacet
 facet normal  7.071068e-01  0.000000e+00  7.071068e-01
   outer loop
     vertex  2.118167e-01 -1.587302e-02  6.756614e-01
     vertex  9.398590e-01 -1.587302e-02 -5.238092e-02
     vertex  9.398590e-01  2.539682e-01 -5.238092e-02
   endloop
 endfacet
 facet normal  7.071068e-01 -0.000000e+00  7.071068e-01
   outer loop
     vertex  2.118167e-01 -1.587302e-02  6.756614e-01
     vertex  9.398590e-01  2.539682e-01 -5.238092e-02
     vertex  2.118167e-01  2.539682e-01  6.756614e-01
   endloop
 endfacet
 facet normal  1.000000e+00  0.000000e+00  0.000000e+00
   outer loop
     vertex  9.398590e-01 -1.587302e-02 -5.238092e-02
     vertex  9.398590e-01 -1.587302e-02 -5.377425e-01
     vertex  9.398590e-01  2.539682e-01 -5.377425e-01
   endloop
 endfacet
 facet normal  1.000000e+00 -0.000000e+00  0.000000e+00
   outer loop
     vertex  9.398590e-01 -1.587302e-02 -5.238092e-02
     vertex  9.398590e-01  2.539682e-01 -5.377425e-01
     vertex  9.398590e-01  2.539682e-01 -5.238092e-02
   endloop
 endfacet
 facet normal -9.975641e-01  0.000000e+00 -6.975647e-02
   outer loop
     vertex  7.338982e-02 -1.587302e-02 -1.766145e-01
     vertex  7.530874e-02  2.539682e-01 -2.040564e-01
     vertex  7.530874e-02 -1.587302e-02 -2.040564e-01
   endloop
 endfacet
 facet normal -9.975641e-01  0.000000e+00 -6.975647e-02
   outer loop
     vertex  7.338982e-02 -1.587302e-02 -1.766145e-01
     vertex  7.338982e-02  2.539682e-01 -1.766145e-01
     vertex  7.530874e-02  2.539682e-01 -2.040564e-01
   endloop
 endfacet
 facet normal -9.781476e-01  0.000000e+00 -2.079117e-01
   outer loop
     vertex  6.767039e-02 -1.587302e-02 -1.497067e-01
     vertex  6.767039e-02  2.539682e-01 -1.497067e-01
     vertex  7.338982e-02  2.539682e-01 -1.766145e-01
   endloop
 endfacet
 facet normal -9.781476e-01  0.000000e+00 -2.079117e-01
   outer loop
     vertex  6.767039e-02 -1.587302e-02 -1.497067e-01
     vertex  7.338982e-02  2.539682e-01 -1.766145e-01
     vertex  7.338982e-02 -1.587302e-02 -1.766145e-01
   endloop
 endfacet
 facet normal -9.396926e-01  0.000000e+00 -3.420201e-01
   outer loop
     vertex  5.826180e-02 -1.587302e-02 -1.238568e-01
     vertex  5.826180e-02  2.539682e-01 -1.238568e-01
     vertex  6.767039e-02  2.539682e-01 -1.497067e-01
   endloop
 endfacet
 facet normal -9.396926e-01  0.000000e+00 -3.420201e-01
   outer loop
     vertex  5.826180e-02 -1.587302e-02 -1.238568e-01
     vertex  6.767039e-02  2.539682e-01 -1.497067e-01
     vertex  6.767039e-02 -1.587302e-02 -1.497067e-01
   endloop
 endfacet
 facet normal -8.829476e-01  0.000000e+00 -4.694716e-01
   outer loop
     vertex  4.534715e-02 -1.587302e-02 -9.956790e-02
     vertex  4.534715e-02  2.539682e-01 -9.956790e-02
     vertex  5.826180e-02  2.539682e-01 -1.238568e-01
   endloop
 endfacet
 facet normal -8.829476e-01  0.000000e+00 -4.694716e-01
   outer loop
     vertex  4.534715e-02 -1.587302e-02 -9.956790e-02
     vertex  5.826180e-02  2.539682e-01 -1.238568e-01
     vertex  5.826180e-02 -1.587302e-02 -1.238568e-01
   endloop
 endfacet
 facet normal -8.090170e-01  0.000000e+00 -5.877853e-01
   outer loop
     vertex  2.917782e-02 -1.587302e-02 -7.731273e-02
     vertex  2.917782e-02  2.539682e-01 -7.731273e-02
     vertex  4.534715e-02  2.539682e-01 -9.956790e-02
   endloop
 endfacet
 facet normal -8.090170e-01  0.000000e+00 -5.877853e-01
   outer loop
     vertex  2.917782e-02 -1.587302e-02 -7.731273e-02
     vertex  4.534715e-02  2.539682e-01 -9.956790e-02
     vertex  4.534715e-02 -1.587302e-02 -9.956790e-02
   endloop
 endfacet
 facet normal -7.193398e-01  0.000000e+00 -6.946584e-01
   outer loop
     vertex  1.006853e-02 -1.587302e-02 -5.752449e-02
     vertex  1.006853e-02  2.539682e-01 -5.752449e-02
     vertex  2.917782e-02  2.539682e-01 -7.731273e-02
   endloop
 endfacet
 facet normal -7.193398e-01  0.000000e+00 -6.946584e-01
   outer loop
     vertex  1.006853e-02 -1.587302e-02 -5.752449e-02
     vertex  2.917782e-02  2.539682e-01 -7.731273e-02
     vertex  2.917782e-02 -1.587302e-02 -7.731273e-02
   endloop
 endfacet
 facet normal -6.156615e-01  0.000000e+00 -7.880108e-01
   outer loop
     vertex -1.160878e-02 -1.587302e-02 -4.058831e-02
     vertex -1.160878e-02  2.539682e-01 -4.058831e-02
     vertex  1.006853e-02  2.539682e-01 -5.752449e-02
   endloop
 endfacet
 facet normal -6.156615e-01  0.000000e+00 -7.880108e-01
   outer loop
     vertex -1.160878e-02 -1.587302e-02 -4.058831e-02
     vertex  1.006853e-02  2.539682e-01 -5.752449e-02
     vertex  1.006853e-02 -1.587302e-02 -5.752449e-02
   endloop
 endfacet
 facet normal -5.000000e-01  0.000000e+00 -8.660254e-01
   outer loop
     vertex -3.543219e-02 -1.587302e-02 -2.683386e-02
     vertex -3.543219e-02  2.539682e-01 -2.683386e-02
     vertex -1.160878e-02  2.539682e-01 -4.058831e-02
   endloop
 endfacet
 facet normal -5.000000e-01  0.000000e+00 -8.660254e-01
   outer loop
     vertex -3.543219e-02 -1.587302e-02 -2.683386e-02
     vertex -1.160878e-02  2.539682e-01 -4.058831e-02
     vertex -1.160878e-02 -1.587302e-02 -4.058831e-02
   endloop
 endfacet
 facet normal -3.746066e-01  0.000000e+00 -9.271839e-01
   outer loop
     vertex -6.093800e-02 -1.587302e-02 -1.652885e-02
     vertex -6.093800e-02  2.539682e-01 -1.652885e-02
     vertex -3.543219e-02  2.539682e-01 -2.683386e-02
   endloop
 endfacet
 facet normal -3.746066e-01  0.000000e+00 -9.271839e-01
   outer loop
     vertex -6.093800e-02 -1.587302e-02 -1.652885e-02
     vertex -3.543219e-02  2.539682e-01 -2.683386e-02
     vertex -3.543219e-02 -1.587302e-02 -2.683386e-02
   endloop
 endfacet
 facet normal -2.419219e-01  0.000000e+00 -9.702957e-01
   outer loop
     vertex -8.762977e-02 -1.587302e-02 -9.873841e-03
     vertex -8.762977e-02  2.539682e-01 -9.873841e-03
     vertex -6.093800e-02  2.539682e-01 -1.652885e-02
   endloop
 endfacet
 facet normal -2.419219e-01  0.000000e+00 -9.702957e-01
   outer loop
     vertex -8.762977e-02 -1.587302e-02 -9.873841e-03
     vertex -6.093800e-02  2.539682e-01 -1.652885e-02
     vertex -6.093800e-02 -1.587302e-02 -1.652885e-02
   endloop
 endfacet
 facet normal -1.045285e-01  0.000000e+00 -9.945219e-01
   outer loop
     vertex -1.149880e-01 -1.587302e-02 -6.998378e-03
     vertex -1.149880e-01  2.539682e-01 -6.998378e-03
     vertex -8.762977e-02  2.539682e-01 -9.873841e-03
   endloop
 endfacet
 facet normal -1.045285e-01  0.000000e+00 -9.945219e-01
   outer loop
     vertex -1.149880e-01 -1.587302e-02 -6.998378e-03
     vertex -8.762977e-02  2.539682e-01 -9.873841e-03
     vertex -8.762977e-02 -1.587302e-02 -9.873841e-03
   endloop
 endfacet
 facet normal  3.489950e-02  0.000000e+00 -9.993908e-01
   outer loop
     vertex -1.424801e-01 -1.587302e-02 -7.958425e-03
     vertex -1.424801e-01  2.539682e-01 -7.958425e-03
     vertex -1.149880e-01  2.539682e-01 -6.998378e-03
   endloop
 endfacet
 facet normal  3.489950e-02  0.000000e+00 -9.993908e-01
   outer loop
     vertex -1.424801e-01 -1.587302e-02 -7.958425e-03
     vertex -1.149880e-01  2.539682e-01 -6.998378e-03
     vertex -1.149880e-01 -1.587302e-02 -6.998378e-03
   endloop
 endfacet
 facet normal  1.736482e-01  0.000000e+00 -9.848078e-01
   outer loop
     vertex -1.695711e-01 -1.587302e-02 -1.273530e-02
     vertex -1.695711e-01  2.539682e-01 -1.273530e-02
     vertex -1.424801e-01  2.539682e-01 -7.958425e-03
   endloop
 endfacet
 facet normal  1.736482e-01  0.000000e+00 -9.848078e-01
   outer loop
     vertex -1.695711e-01 -1.587302e-02 -1.273530e-02
     vertex -1.424801e-01  2.539682e-01 -7.958425e-03
     vertex -1.424801e-01 -1.587302e-02 -7.958425e-03
   endloop
 endfacet
 facet normal  3.090170e-01  0.000000e+00 -9.510565e-01
   outer loop
     vertex -1.957336e-01 -1.587302e-02 -2.123601e-02
     vertex -1.957336e-01  2.539682e-01 -2.123601e-02
     vertex -1.695711e-01  2.539682e-01 -1.273530e-02
   endloop
 endfacet
 facet normal  3.090170e-01  0.000000e+00 -9.510565e-01
   outer loop
     vertex -1.957336e-01 -1.587302e-02 -2.123601e-02
     vertex -1.695711e-01  2.539682e-01 -1.273530e-02
     vertex -1.695711e-01 -1.587302e-02 -1.273530e-02
   endloop
 endfacet
 facet normal  4.383711e-01  0.000000e+00 -8.987940e-01
   outer loop
     vertex -2.204585e-01 -1.587302e-02 -3.329512e-02
     vertex -2.204585e-01  2.539682e-01 -3.329512e-02
     vertex -1.957336e-01  2.539682e-01 -2.123601e-02
   endloop
 endfacet
 facet normal  4.383711e-01  0.000000e+00 -8.987940e-01
   outer loop
     vertex -2.204585e-01 -1.587302e-02 -3.329512e-02
     vertex -1.957336e-01  2.539682e-01 -2.123601e-02
     vertex -1.957336e-01 -1.587302e-02 -2.123601e-02
   endloop
 endfacet
 facet normal  5.591929e-01  0.000000e+00 -8.290376e-01
   outer loop
     vertex -2.432644e-01 -1.587302e-02 -4.867791e-02
     vertex -2.432644e-01  2.539682e-01 -4.867791e-02
     vertex -2.204585e-01  2.539682e-01 -3.329512e-02
   endloop
 endfacet
 facet normal  5.591929e-01  0.000000e+00 -8.290376e-01
   outer loop
     vertex -2.432644e-01 -1.587302e-02 -4.867791e-02
     vertex -2.204585e-01  2.539682e-01 -3.329512e-02
     vertex -2.204585e-01 -1.587302e-02 -3.329512e-02
   endloop
 endfacet
 facet normal  6.691306e-01  0.000000e+00 -7.431448e-01
   outer loop
     vertex -2.637075e-01 -1.587302e-02 -6.708495e-02
     vertex -2.637075e-01  2.539682e-01 -6.708495e-02
     vertex -2.432644e-01  2.539682e-01 -4.867791e-02
   endloop
 endfacet
 facet normal  7.660444e-01  0.000000e+00 -6.427876e-01
   outer loop
     vertex -2.637075e-01 -1.587302e-02 -6.708495e-02
     vertex -2.813899e-01  2.539682e-01 -8.815800e-02
     vertex -2.637075e-01  2.539682e-01 -6.708495e-02
   endloop
 endfacet
 facet normal  6.691306e-01  0.000000e+00 -7.431448e-01
   outer loop
     vertex -2.637075e-01 -1.587302e-02 -6.708495e-02
     vertex -2.432644e-01  2.539682e-01 -4.867791e-02
     vertex -2.432644e-01 -1.587302e-02 -4.867791e-02
   endloop
 endfacet
 facet normal  7.660444e-01  0.000000e+00 -6.427876e-01
   outer loop
     vertex -2.813899e-01 -1.587302e-02 -8.815800e-02
     vertex -2.813899e-01  2.539682e-01 -8.815800e-02
     vertex -2.637075e-01 -1.587302e-02 -6.708495e-02
   endloop
 endfacet
 facet normal  8.480481e-01  0.000000e+00 -5.299193e-01
   outer loop
     vertex -2.959673e-01 -1.587302e-02 -1.114869e-01
     vertex -2.959673e-01  2.539682e-01 -1.114869e-01
     vertex -2.813899e-01  2.539682e-01 -8.815800e-02
   endloop
 endfacet
 facet normal  8.480481e-01  0.000000e+00 -5.299193e-01
   outer loop
     vertex -2.959673e-01 -1.587302e-02 -1.114869e-01
     vertex -2.813899e-01  2.539682e-01 -8.815800e-02
     vertex -2.813899e-01 -1.587302e-02 -8.815800e-02
   endloop
 endfacet
 facet normal  9.135455e-01  0.000000e+00 -4.067366e-01
   outer loop
     vertex -3.071562e-01 -1.587302e-02 -1.366175e-01
     vertex -3.071562e-01  2.539682e-01 -1.366175e-01
     vertex -2.959673e-01  2.539682e-01 -1.114869e-01
   endloop
 endfacet
 facet normal  9.612617e-01  0.000000e+00 -2.756374e-01
   outer loop
     vertex -3.071562e-01 -1.587302e-02 -1.366175e-01
     vertex -3.147387e-01  2.539682e-01 -1.630608e-01
     vertex -3.071562e-01  2.539682e-01 -1.366175e-01
   endloop
 endfacet
 facet normal  9.135455e-01  0.000000e+00 -4.067366e-01
   outer loop
     vertex -3.071562e-01 -1.587302e-02 -1.366175e-01
     vertex -2.959673e-01  2.539682e-01 -1.114869e-01
     vertex -2.959673e-01 -1.587302e-02 -1.114869e-01
   endloop
 endfacet
 facet normal  9.612617e-01  0.000000e+00 -2.756374e-01
   outer loop
     vertex -3.147387e-01 -1.587302e-02 -1.630608e-01
     vertex -3.147387e-01  2.539682e-01 -1.630608e-01
     vertex -3.071562e-01 -1.587302e-02 -1.366175e-01
   endloop
 endfacet
 facet normal  9.902681e-01  0.000000e+00 -1.391731e-01
   outer loop
     vertex -3.185672e-01 -1.587302e-02 -1.903019e-01
     vertex -3.185672e-01  2.539682e-01 -1.903019e-01
     vertex -3.147387e-01  2.539682e-01 -1.630608e-01
   endloop
 endfacet
 facet normal  9.902681e-01  0.000000e+00 -1.391731e-01
   outer loop
     vertex -3.185672e-01 -1.587302e-02 -1.903019e-01
     vertex -3.147387e-01  2.539682e-01 -1.630608e-01
     vertex -3.147387e-01 -1.587302e-02 -1.630608e-01
   endloop
 endfacet
 facet normal  1.000000e+00 -0.000000e+00  2.017934e-15
   outer loop
     vertex -3.185672e-01 -1.587302e-02 -2.178108e-01
     vertex -3.185672e-01  2.539682e-01 -2.178108e-01
     vertex -3.185672e-01  2.539682e-01 -1.903019e-01
   endloop
 endfacet
 facet normal  1.000000e+00  0.000000e+00  2.017934e-15
   outer loop
     vertex -3.185672e-01 -1.587302e-02 -2.178108e-01
     vertex -3.185672e-01  2.539682e-01 -1.903019e-01
     vertex -3.185672e-01 -1.587302e-02 -1.903019e-01
   endloop
 endfacet
 facet normal  9.902681e-01 -0.000000e+00  1.391731e-01
   outer loop
     vertex -3.147387e-01 -1.587302e-02 -2.450520e-01
     vertex -3.147387e-01  2.539682e-01 -2.450520e-01
     vertex -3.185672e-01  2.539682e-01 -2.178108e-01
   endloop
 endfacet
 facet normal  9.902681e-01  0.000000e+00  1.391731e-01
   outer loop
     vertex -3.147387e-01 -1.587302e-02 -2.450520e-01
     vertex -3.185672e-01  2.539682e-01 -2.178108e-01
     vertex -3.185672e-01 -1.587302e-02 -2.178108e-01
   endloop
 endfacet
 facet normal  9.612617e-01 -0.000000e+00  2.756374e-01
   outer loop
     vertex -3.071562e-01 -1.587302e-02 -2.714953e-01
     vertex -3.071562e-01  2.539682e-01 -2.714953e-01
     vertex -3.147387e-01  2.539682e-01 -2.450520e-01
   endloop
 endfacet
 facet normal  9.135455e-01 -0.000000e+00  4.067366e-01
   outer loop
     vertex -3.071562e-01 -1.587302e-02 -2.714953e-01
     vertex -2.959673e-01  2.539682e-01 -2.966259e-01
     vertex -3.071562e-01  2.539682e-01 -2.714953e-01
   endloop
 endfacet
 facet normal  9.612617e-01  0.000000e+00  2.756374e-01
   outer loop
     vertex -3.071562e-01 -1.587302e-02 -2.714953e-01
     vertex -3.147387e-01  2.539682e-01 -2.450520e-01
     vertex -3.147387e-01 -1.587302e-02 -2.450520e-01
   endloop
 endfacet
 facet normal  9.135455e-01 -0.000000e+00  4.067366e-01
   outer loop
     vertex -2.959673e-01 -1.587302e-02 -2.966259e-01
     vertex -2.959673e-01  2.539682e-01 -2.966259e-01
     vertex -3.071562e-01 -1.587302e-02 -2.714953e-01
   endloop
 endfacet
 facet normal  8.480481e-01  0.000000e+00  5.299193e-01
   outer loop
     vertex -2.813899e-01 -1.587302e-02 -3.199548e-01
     vertex -2.959673e-01  2.539682e-01 -2.966259e-01
     vertex -2.959673e-01 -1.587302e-02 -2.966259e-01
   endloop
 endfacet
 facet normal  8.480481e-01 -0.000000e+00  5.299193e-01
   outer loop
     vertex -2.813899e-01 -1.587302e-02 -3.199548e-01
     vertex -2.813899e-01  2.539682e-01 -3.199548e-01
     vertex -2.959673e-01  2.539682e-01 -2.966259e-01
   endloop
 endfacet
 facet normal  7.660444e-01  0.000000e+00  6.427876e-01
   outer loop
     vertex -2.637075e-01 -1.587302e-02 -3.410278e-01
     vertex -2.813899e-01  2.539682e-01 -3.199548e-01
     vertex -2.813899e-01 -1.587302e-02 -3.199548e-01
   endloop
 endfacet
 facet normal  7.660444e-01 -0.000000e+00  6.427876e-01
   outer loop
     vertex -2.637075e-01 -1.587302e-02 -3.410278e-01
     vertex -2.637075e-01  2.539682e-01 -3.410278e-01
     vertex -2.813899e-01  2.539682e-01 -3.199548e-01
   endloop
 endfacet
 facet normal  6.691306e-01  0.000000e+00  7.431448e-01
   outer loop
     vertex -2.432644e-01 -1.587302e-02 -3.594349e-01
     vertex -2.637075e-01  2.539682e-01 -3.410278e-01
     vertex -2.637075e-01 -1.587302e-02 -3.410278e-01
   endloop
 endfacet
 facet normal  6.691306e-01 -0.000000e+00  7.431448e-01
   outer loop
     vertex -2.432644e-01 -1.587302e-02 -3.594349e-01
     vertex -2.432644e-01  2.539682e-01 -3.594349e-01
     vertex -2.637075e-01  2.539682e-01 -3.410278e-01
   endloop
 endfacet
 facet normal  5.591929e-01  0.000000e+00  8.290376e-01
   outer loop
     vertex -2.204585e-01 -1.587302e-02 -3.748177e-01
     vertex -2.432644e-01  2.539682e-01 -3.594349e-01
     vertex -2.432644e-01 -1.587302e-02 -3.594349e-01
   endloop
 endfacet
 facet normal  5.591929e-01 -0.000000e+00  8.290376e-01
   outer loop
     vertex -2.204585e-01 -1.587302e-02 -3.748177e-01
     vertex -2.204585e-01  2.539682e-01 -3.748177e-01
     vertex -2.432644e-01  2.539682e-01 -3.594349e-01
   endloop
 endfacet
 facet normal  4.383711e-01  0.000000e+00  8.987940e-01
   outer loop
     vertex -1.957336e-01 -1.587302e-02 -3.868768e-01
     vertex -2.204585e-01  2.539682e-01 -3.748177e-01
     vertex -2.204585e-01 -1.587302e-02 -3.748177e-01
   endloop
 endfacet
 facet normal  4.383711e-01 -0.000000e+00  8.987940e-01
   outer loop
     vertex -1.957336e-01 -1.587302e-02 -3.868768e-01
     vertex -1.957336e-01  2.539682e-01 -3.868768e-01
     vertex -2.204585e-01  2.539682e-01 -3.748177e-01
   endloop
 endfacet
 facet normal  3.090170e-01  0.000000e+00  9.510565e-01
   outer loop
     vertex -1.695711e-01 -1.587302e-02 -3.953775e-01
     vertex -1.957336e-01  2.539682e-01 -3.868768e-01
     vertex -1.957336e-01 -1.587302e-02 -3.868768e-01
   endloop
 endfacet
 facet normal  3.090170e-01 -0.000000e+00  9.510565e-01
   outer loop
     vertex -1.695711e-01 -1.587302e-02 -3.953775e-01
     vertex -1.695711e-01  2.539682e-01 -3.953775e-01
     vertex -1.957336e-01  2.539682e-01 -3.868768e-01
   endloop
 endfacet
 facet normal  1.736482e-01  0.000000e+00  9.848078e-01
   outer loop
     vertex -1.424801e-01 -1.587302e-02 -4.001544e-01
     vertex -1.695711e-01  2.539682e-01 -3.953775e-01
     vertex -1.695711e-01 -1.587302e-02 -3.953775e-01
   endloop
 endfacet
 facet normal  1.736482e-01 -0.000000e+00  9.848078e-01
   outer loop
     vertex -1.424801e-01 -1.587302e-02 -4.001544e-01
     vertex -1.424801e-01  2.539682e-01 -4.001544e-01
     vertex -1.695711e-01  2.539682e-01 -3.953775e-01
   endloop
 endfacet
 facet normal  3.489950e-02  0.000000e+00  9.993908e-01
   outer loop
     vertex -1.149880e-01 -1.587302e-02 -4.011144e-01
     vertex -1.424801e-01  2.539682e-01 -4.001544e-01
     vertex -1.424801e-01 -1.587302e-02 -4.001544e-01
   endloop
 endfacet
 facet normal  3.489950e-02 -0.000000e+00  9.993908e-01
   outer loop
     vertex -1.149880e-01 -1.587302e-02 -4.011144e-01
     vertex -1.149880e-01  2.539682e-01 -4.011144e-01
     vertex -1.424801e-01  2.539682e-01 -4.001544e-01
   endloop
 endfacet
 facet normal -1.045285e-01  0.000000e+00  9.945219e-01
   outer loop
     vertex -8.762977e-02 -1.587302e-02 -3.982389e-01
     vertex -8.762977e-02  2.539682e-01 -3.982389e-01
     vertex -1.149880e-01  2.539682e-01 -4.011144e-01
   endloop
 endfacet
 facet normal -1.045285e-01  0.000000e+00  9.945219e-01
   outer loop
     vertex -8.762977e-02 -1.587302e-02 -3.982389e-01
     vertex -1.149880e-01  2.539682e-01 -4.011144e-01
     vertex -1.149880e-01 -1.587302e-02 -4.011144e-01
   endloop
 endfacet
 facet normal -2.419219e-01  0.000000e+00  9.702957e-01
   outer loop
     vertex -6.093800e-02 -1.587302e-02 -3.915839e-01
     vertex -8.762977e-02  2.539682e-01 -3.982389e-01
     vertex -8.762977e-02 -1.587302e-02 -3.982389e-01
   endloop
 endfacet
 facet normal -2.419219e-01  0.000000e+00  9.702957e-01
   outer loop
     vertex -6.093800e-02 -1.587302e-02 -3.915839e-01
     vertex -6.093800e-02  2.539682e-01 -3.915839e-01
     vertex -8.762977e-02  2.539682e-01 -3.982389e-01
   endloop
 endfacet
 facet normal -3.746066e-01  0.000000e+00  9.271839e-01
   outer loop
     vertex -3.543219e-02 -1.587302e-02 -3.812789e-01
     vertex -3.543219e-02  2.539682e-01 -3.812789e-01
     vertex -6.093800e-02  2.539682e-01 -3.915839e-01
   endloop
 endfacet
 facet normal -3.746066e-01  0.000000e+00  9.271839e-01
   outer loop
     vertex -3.543219e-02 -1.587302e-02 -3.812789e-01
     vertex -6.093800e-02  2.539682e-01 -3.915839e-01
     vertex -6.093800e-02 -1.587302e-02 -3.915839e-01
   endloop
 endfacet
 facet normal -5.000000e-01  0.000000e+00  8.660254e-01
   outer loop
     vertex -1.160878e-02 -1.587302e-02 -3.675245e-01
     vertex -1.160878e-02  2.539682e-01 -3.675245e-01
     vertex -3.543219e-02  2.539682e-01 -3.812789e-01
   endloop
 endfacet
 facet normal -5.000000e-01  0.000000e+00  8.660254e-01
   outer loop
     vertex -1.160878e-02 -1.587302e-02 -3.675245e-01
     vertex -3.543219e-02  2.539682e-01 -3.812789e-01
     vertex -3.543219e-02 -1.587302e-02 -3.812789e-01
   endloop
 endfacet
 facet normal -6.156615e-01  0.000000e+00  7.880108e-01
   outer loop
     vertex  1.006853e-02 -1.587302e-02 -3.505883e-01
     vertex  1.006853e-02  2.539682e-01 -3.505883e-01
     vertex -1.160878e-02  2.539682e-01 -3.675245e-01
   endloop
 endfacet
 facet normal -6.156615e-01  0.000000e+00  7.880108e-01
   outer loop
     vertex  1.006853e-02 -1.587302e-02 -3.505883e-01
     vertex -1.160878e-02  2.539682e-01 -3.675245e-01
     vertex -1.160878e-02 -1.587302e-02 -3.675245e-01
   endloop
 endfacet
 facet normal -7.193398e-01  0.000000e+00  6.946584e-01
   outer loop
     vertex  2.917782e-02 -1.587302e-02 -3.308001e-01
     vertex  2.917782e-02  2.539682e-01 -3.308001e-01
     vertex  1.006853e-02  2.539682e-01 -3.505883e-01
   endloop
 endfacet
 facet normal -7.193398e-01  0.000000e+00  6.946584e-01
   outer loop
     vertex  2.917782e-02 -1.587302e-02 -3.308001e-01
     vertex  1.006853e-02  2.539682e-01 -3.505883e-01
     vertex  1.006853e-02 -1.587302e-02 -3.505883e-01
   endloop
 endfacet
 facet normal -8.090170e-01  0.000000e+00  5.877853e-01
   outer loop
     vertex  4.534715e-02 -1.587302e-02 -3.085449e-01
     vertex  4.534715e-02  2.539682e-01 -3.085449e-01
     vertex  2.917782e-02  2.539682e-01 -3.308001e-01
   endloop
 endfacet
 facet normal -8.090170e-01  0.000000e+00  5.877853e-01
   outer loop
     vertex  4.534715e-02 -1.587302e-02 -3.085449e-01
     vertex  2.917782e-02  2.539682e-01 -3.308001e-01
     vertex  2.917782e-02 -1.587302e-02 -3.308001e-01
   endloop
 endfacet
 facet normal -8.829476e-01  0.000000e+00  4.694716e-01
   outer loop
     vertex  5.826180e-02 -1.587302e-02 -2.842560e-01
     vertex  5.826180e-02  2.539682e-01 -2.842560e-01
     vertex  4.534715e-02  2.539682e-01 -3.085449e-01
   endloop
 endfacet
 facet normal -8.829476e-01  0.000000e+00  4.694716e-01
   outer loop
     vertex  5.826180e-02 -1.587302e-02 -2.842560e-01
     vertex  4.534715e-02  2.539682e-01 -3.085449e-01
     vertex  4.534715e-02 -1.587302e-02 -3.085449e-01
   endloop
 endfacet
 facet normal -9.396926e-01  0.000000e+00  3.420201e-01
   outer loop
     vertex  6.767039e-02 -1.587302e-02 -2.584061e-01
     vertex  6.767039e-02  2.539682e-01 -2.584061e-01
     vertex  5.826180e-02  2.539682e-01 -2.842560e-01
   endloop
 endfacet
 facet normal -9.396926e-01  0.000000e+00  3.420201e-01
   outer loop
     vertex  6.767039e-02 -1.587302e-02 -2.584061e-01
     vertex  5.826180e-02  2.539682e-01 -2.842560e-01
     vertex  5.826180e-02 -1.587302e-02 -2.842560e-01
   endloop
 endfacet
 facet normal -9.781476e-01  0.000000e+00  2.079117e-01
   outer loop
     vertex  7.338982e-02 -1.587302e-02 -2.314983e-01
     vertex  7.338982e-02  2.539682e-01 -2.314983e-01
     vertex  6.767039e-02  2.539682e-01 -2.584061e-01
   endloop
 endfacet
 facet normal -9.975641e-01  0.000000e+00  6.975647e-02
   outer loop
     vertex  7.338982e-02 -1.587302e-02 -2.314983e-01
     vertex  7.530874e-02  2.539682e-01 -2.040564e-01
     vertex  7.338982e-02  2.539682e-01 -2.314983e-01
   endloop
 endfacet
 facet normal -9.781476e-01  0.000000e+00  2.079117e-01
   outer loop
     vertex  7.338982e-02 -1.587302e-02 -2.314983e-01
     vertex  6.767039e-02  2.539682e-01 -2.584061e-01
     vertex  6.767039e-02 -1.587302e-02 -2.584061e-01
   endloop
 endfacet
 facet normal -9.975641e-01  0.000000e+00  6.975647e-02
   outer loop
     vertex  7.530874e-02 -1.587302e-02 -2.040564e-01
     vertex  7.530874e-02  2.539682e-01 -2.040564e-01
     vertex  7.338982e-02 -1.587302e-02 -2.314983e-01
   endloop
 endfacet
endsolid
