solid 
 facet normal -8.944272e-01  3.009068e-15  4.472136e-01
   outer loop
     vertex  1.031749e-02  8.097002e-01  3.174603e-02
     vertex -1.111105e-02  9.841270e-01 -1.111105e-02
     vertex  9.347495e-03  8.097002e-01  2.980604e-02
   endloop
 endfacet
 facet normal -8.944272e-01  4.629512e-14  4.472136e-01
   outer loop
     vertex  2.216932e-01  9.841270e-01  4.544975e-01
     vertex  1.031749e-02  8.097002e-01  3.174603e-02
     vertex  1.031749e-02  8.090660e-01  3.174603e-02
   endloop
 endfacet
 facet normal -8.944272e-01  0.000000e+00  4.472136e-01
   outer loop
     vertex  2.216932e-01  9.841270e-01  4.544975e-01
     vertex -1.111105e-02  9.841270e-01 -1.111105e-02
     vertex  1.031749e-02  8.097002e-01  3.174603e-02
   endloop
 endfacet
 facet normal -8.944272e-01  0.000000e+00  4.472136e-01
   outer loop
     vertex -1.111105e-02  0.000000e+00 -1.111105e-02
     vertex  1.031749e-02  8.090660e-01  3.174603e-02
     vertex  9.347495e-03  8.097002e-01  2.980604e-02
   endloop
 endfacet
 facet normal -8.944272e-01  0.000000e+00  4.472136e-01
   outer loop
     vertex  2.216932e-01  0.000000e+00  4.544975e-01
     vertex  2.216932e-01  9.841270e-01  4.544975e-01
     vertex  1.031749e-02  8.090660e-01  3.174603e-02
   endloop
 endfacet
 facet normal -8.944272e-01  0.000000e+00  4.472136e-01
   outer loop
     vertex  2.216932e-01  0.000000e+00  4.544975e-01
     vertex  1.031749e-02  8.090660e-01  3.174603e-02
     vertex -1.111105e-02  0.000000e+00 -1.111105e-02
   endloop
 endfacet
 facet normal -8.944272e-01  0.000000e+00  4.472136e-01
   outer loop
     vertex -1.111105e-02  0.000000e+00 -1.111105e-02
     vertex  9.347495e-03  8.097002e-01  2.980604e-02
     vertex -1.111105e-02  9.841270e-01 -1.111105e-02
   endloop
 endfacet
 facet normal  0.000000e+00 -1.000000e+00 -0.000000e+00
   outer loop
     vertex  2.216932e-01  0.000000e+00  4.544975e-01
     vertex -1.111105e-02  0.000000e+00 -1.111105e-02
     vertex  2.216932e-01  0.000000e+00 -1.111105e-02
   endloop
 endfacet
 facet normal  1.633867e-17  0.000000e+00 -1.000000e+00
   outer loop
     vertex  9.347495e-03  8.097002e-01 -1.111105e-02
     vertex  2.216932e-01  9.841270e-01 -1.111105e-02
     vertex  2.216932e-01  8.097002e-01 -1.111105e-02
   endloop
 endfacet
 facet normal  0.000000e+00  1.989056e-17 -1.000000e+00
   outer loop
     vertex  9.347495e-03  8.097002e-01 -1.111105e-02
     vertex -1.111105e-02  9.841270e-01 -1.111105e-02
     vertex  2.216932e-01  9.841270e-01 -1.111105e-02
   endloop
 endfacet
 facet normal  0.000000e+00  0.000000e+00 -1.000000e+00
   outer loop
     vertex -1.111105e-02  0.000000e+00 -1.111105e-02
     vertex  2.216932e-01  6.708588e-01 -1.111105e-02
     vertex  2.216932e-01  0.000000e+00 -1.111105e-02
   endloop
 endfacet
 facet normal  1.331703e-17 -4.621333e-18 -1.000000e+00
   outer loop
     vertex -1.111105e-02  0.000000e+00 -1.111105e-02
     vertex  9.347495e-03  8.097002e-01 -1.111105e-02
     vertex  2.216932e-01  6.708588e-01 -1.111105e-02
   endloop
 endfacet
 facet normal -1.695842e-16 -0.000000e+00 -1.000000e+00
   outer loop
     vertex -1.111105e-02  9.841270e-01 -1.111105e-02
     vertex  9.347495e-03  8.097002e-01 -1.111105e-02
     vertex -1.111105e-02  0.000000e+00 -1.111105e-02
   endloop
 endfacet
 facet normal  1.000000e+00 -0.000000e+00  0.000000e+00
   outer loop
     vertex  2.216932e-01  8.097002e-01  3.174603e-02
     vertex  2.216932e-01  9.841270e-01 -1.111105e-02
     vertex  2.216932e-01  9.841270e-01  4.544975e-01
   endloop
 endfacet
 facet normal  1.000000e+00  0.000000e+00  0.000000e+00
   outer loop
     vertex  2.216932e-01  8.097002e-01 -1.111105e-02
     vertex  2.216932e-01  9.841270e-01 -1.111105e-02
     vertex  2.216932e-01  8.097002e-01  3.174603e-02
   endloop
 endfacet
 facet normal  1.000000e+00  0.000000e+00  0.000000e+00
   outer loop
     vertex  2.216932e-01  6.708588e-01  3.174603e-02
     vertex  2.216932e-01  8.097002e-01  3.174603e-02
     vertex  2.216932e-01  9.841270e-01  4.544975e-01
   endloop
 endfacet
 facet normal  1.000000e+00 -0.000000e+00  0.000000e+00
   outer loop
     vertex  2.216932e-01  0.000000e+00  4.544975e-01
     vertex  2.216932e-01  6.708588e-01  3.174603e-02
     vertex  2.216932e-01  9.841270e-01  4.544975e-01
   endloop
 endfacet
 facet normal  1.000000e+00  0.000000e+00  0.000000e+00
   outer loop
     vertex  2.216932e-01  0.000000e+00 -1.111105e-02
     vertex  2.216932e-01  6.708588e-01 -1.111105e-02
     vertex  2.216932e-01  6.708588e-01  3.174603e-02
   endloop
 endfacet
 facet normal  1.000000e+00  0.000000e+00  0.000000e+00
   outer loop
     vertex  2.216932e-01  0.000000e+00 -1.111105e-02
     vertex  2.216932e-01  6.708588e-01  3.174603e-02
     vertex  2.216932e-01  0.000000e+00  4.544975e-01
   endloop
 endfacet
 facet normal  0.000000e+00  1.000000e+00  0.000000e+00
   outer loop
     vertex  2.216932e-01  9.841270e-01  4.544975e-01
     vertex  2.216932e-01  9.841270e-01 -1.111105e-02
     vertex -1.111105e-02  9.841270e-01 -1.111105e-02
   endloop
 endfacet
 facet normal  0.000000e+00 -1.000000e+00  0.000000e+00
   outer loop
     vertex  1.031749e-02  8.097002e-01  3.174603e-02
     vertex  2.216932e-01  8.097002e-01 -1.111105e-02
     vertex  2.216932e-01  8.097002e-01  3.174603e-02
   endloop
 endfacet
 facet normal  0.000000e+00 -1.000000e+00  0.000000e+00
   outer loop
     vertex  9.347495e-03  8.097002e-01 -1.111105e-02
     vertex  1.031749e-02  8.097002e-01  3.174603e-02
     vertex  9.347495e-03  8.097002e-01  2.980604e-02
   endloop
 endfacet
 facet normal  0.000000e+00 -1.000000e+00  0.000000e+00
   outer loop
     vertex  9.347495e-03  8.097002e-01 -1.111105e-02
     vertex  2.216932e-01  8.097002e-01 -1.111105e-02
     vertex  1.031749e-02  8.097002e-01  3.174603e-02
   endloop
 endfacet
 facet normal -0.000000e+00  0.000000e+00 -1.000000e+00
   outer loop
     vertex  2.216932e-01  8.097002e-01  3.174603e-02
     vertex  1.031749e-02  8.090660e-01  3.174603e-02
     vertex  1.031749e-02  8.097002e-01  3.174603e-02
   endloop
 endfacet
 facet normal  0.000000e+00  0.000000e+00 -1.000000e+00
   outer loop
     vertex  2.216932e-01  6.708588e-01  3.174603e-02
     vertex  1.031749e-02  8.090660e-01  3.174603e-02
     vertex  2.216932e-01  8.097002e-01  3.174603e-02
   endloop
 endfacet
 facet normal  5.472494e-01  8.369696e-01 -0.000000e+00
   outer loop
     vertex  9.347495e-03  8.097002e-01 -1.111105e-02
     vertex  9.347495e-03  8.097002e-01  2.980604e-02
     vertex  1.031749e-02  8.090660e-01  3.174603e-02
   endloop
 endfacet
 facet normal  5.472494e-01  8.369696e-01 -0.000000e+00
   outer loop
     vertex  2.216932e-01  6.708588e-01 -1.111105e-02
     vertex  1.031749e-02  8.090660e-01  3.174603e-02
     vertex  2.216932e-01  6.708588e-01  3.174603e-02
   endloop
 endfacet
 facet normal  5.472494e-01  8.369696e-01  0.000000e+00
   outer loop
     vertex  2.216932e-01  6.708588e-01 -1.111105e-02
     vertex  9.347495e-03  8.097002e-01 -1.111105e-02
     vertex  1.031749e-02  8.090660e-01  3.174603e-02
   endloop
 endfacet
 facet normal  0.000000e+00  0.000000e+00 -1.000000e+00
   outer loop
     vertex  2.216932e-01  0.000000e+00 -1.111105e-02
     vertex  2.216932e-01  6.708588e-01 -1.111105e-02
     vertex  4.544975e-01  5.186406e-01 -1.111105e-02
   endloop
 endfacet
 facet normal  0.000000e+00  0.000000e+00 -1.000000e+00
   outer loop
     vertex  4.544975e-01  0.000000e+00 -1.111105e-02
     vertex  2.216932e-01  0.000000e+00 -1.111105e-02
     vertex  4.544975e-01  5.186406e-01 -1.111105e-02
   endloop
 endfacet
 facet normal  0.000000e+00 -1.000000e+00 -0.000000e+00
   outer loop
     vertex  4.544975e-01  0.000000e+00  4.544975e-01
     vertex  2.216932e-01  0.000000e+00 -1.111105e-02
     vertex  4.544975e-01  0.000000e+00 -1.111105e-02
   endloop
 endfacet
 facet normal  1.000000e+00  0.000000e+00  0.000000e+00
   outer loop
     vertex  4.544975e-01  8.097002e-01  3.174603e-02
     vertex  4.544975e-01  8.097002e-01 -1.111105e-02
     vertex  4.544975e-01  9.841270e-01 -1.111105e-02
   endloop
 endfacet
 facet normal  1.000000e+00  0.000000e+00  0.000000e+00
   outer loop
     vertex  4.544975e-01  9.841270e-01  4.544975e-01
     vertex  4.544975e-01  8.097002e-01  3.174603e-02
     vertex  4.544975e-01  9.841270e-01 -1.111105e-02
   endloop
 endfacet
 facet normal  1.000000e+00  1.907209e-16 -7.869124e-17
   outer loop
     vertex  4.544975e-01  5.186406e-01  3.174603e-02
     vertex  4.544975e-01  8.097002e-01  3.174603e-02
     vertex  4.544975e-01  9.841270e-01  4.544975e-01
   endloop
 endfacet
 facet normal  1.000000e+00  0.000000e+00 -1.295262e-15
   outer loop
     vertex  4.544975e-01  0.000000e+00 -1.111105e-02
     vertex  4.544975e-01  5.186406e-01 -1.111105e-02
     vertex  4.544975e-01  5.186406e-01  3.174603e-02
   endloop
 endfacet
 facet normal  1.000000e+00 -0.000000e+00  1.313092e-16
   outer loop
     vertex  4.544975e-01  0.000000e+00  4.544975e-01
     vertex  4.544975e-01  5.186406e-01  3.174603e-02
     vertex  4.544975e-01  9.841270e-01  4.544975e-01
   endloop
 endfacet
 facet normal  1.000000e+00 -1.070320e-16  0.000000e+00
   outer loop
     vertex  4.544975e-01  0.000000e+00  4.544975e-01
     vertex  4.544975e-01  0.000000e+00 -1.111105e-02
     vertex  4.544975e-01  5.186406e-01  3.174603e-02
   endloop
 endfacet
 facet normal  5.472494e-01  8.369696e-01  0.000000e+00
   outer loop
     vertex  4.544975e-01  5.186406e-01 -1.111105e-02
     vertex  2.216932e-01  6.708588e-01 -1.111105e-02
     vertex  2.431217e-01  6.568478e-01  3.174603e-02
   endloop
 endfacet
 facet normal  5.472494e-01  8.369696e-01  1.459359e-15
   outer loop
     vertex  4.544975e-01  5.186406e-01 -1.111105e-02
     vertex  2.431217e-01  6.568478e-01  3.174603e-02
     vertex  4.544975e-01  5.186406e-01  3.174603e-02
   endloop
 endfacet
 facet normal -8.944272e-01  7.641896e-17  4.472136e-01
   outer loop
     vertex  2.431217e-01  8.097002e-01  3.174603e-02
     vertex  4.544975e-01  9.841270e-01  4.544975e-01
     vertex  2.216932e-01  9.841270e-01 -1.111105e-02
   endloop
 endfacet
 facet normal -8.944272e-01  0.000000e+00  4.472136e-01
   outer loop
     vertex  2.216932e-01  8.097002e-01 -1.111105e-02
     vertex  2.431217e-01  8.097002e-01  3.174603e-02
     vertex  2.216932e-01  9.841270e-01 -1.111105e-02
   endloop
 endfacet
 facet normal -8.944272e-01  0.000000e+00  4.472136e-01
   outer loop
     vertex  2.431217e-01  6.568478e-01  3.174603e-02
     vertex  4.544975e-01  9.841270e-01  4.544975e-01
     vertex  2.431217e-01  8.097002e-01  3.174603e-02
   endloop
 endfacet
 facet normal -8.944272e-01  0.000000e+00  4.472136e-01
   outer loop
     vertex  4.544975e-01  0.000000e+00  4.544975e-01
     vertex  4.544975e-01  9.841270e-01  4.544975e-01
     vertex  2.431217e-01  6.568478e-01  3.174603e-02
   endloop
 endfacet
 facet normal -8.944272e-01  0.000000e+00  4.472136e-01
   outer loop
     vertex  2.216932e-01  0.000000e+00 -1.111105e-02
     vertex  2.431217e-01  6.568478e-01  3.174603e-02
     vertex  2.216932e-01  6.708588e-01 -1.111105e-02
   endloop
 endfacet
 facet normal -8.944272e-01 -2.029316e-17  4.472136e-01
   outer loop
     vertex  2.216932e-01  0.000000e+00 -1.111105e-02
     vertex  4.544975e-01  0.000000e+00  4.544975e-01
     vertex  2.431217e-01  6.568478e-01  3.174603e-02
   endloop
 endfacet
 facet normal  0.000000e+00  1.000000e+00  0.000000e+00
   outer loop
     vertex  4.544975e-01  9.841270e-01  4.544975e-01
     vertex  4.544975e-01  9.841270e-01 -1.111105e-02
     vertex  2.216932e-01  9.841270e-01 -1.111105e-02
   endloop
 endfacet
 facet normal  0.000000e+00  0.000000e+00 -1.000000e+00
   outer loop
     vertex  4.544975e-01  8.097002e-01 -1.111105e-02
     vertex  2.216932e-01  8.097002e-01 -1.111105e-02
     vertex  2.216932e-01  9.841270e-01 -1.111105e-02
   endloop
 endfacet
 facet normal  0.000000e+00  0.000000e+00 -1.000000e+00
   outer loop
     vertex  4.544975e-01  8.097002e-01 -1.111105e-02
     vertex  2.216932e-01  9.841270e-01 -1.111105e-02
     vertex  4.544975e-01  9.841270e-01 -1.111105e-02
   endloop
 endfacet
 facet normal  0.000000e+00 -1.000000e+00  0.000000e+00
   outer loop
     vertex  2.431217e-01  8.097002e-01  3.174603e-02
     vertex  4.544975e-01  8.097002e-01 -1.111105e-02
     vertex  4.544975e-01  8.097002e-01  3.174603e-02
   endloop
 endfacet
 facet normal  0.000000e+00 -1.000000e+00  0.000000e+00
   outer loop
     vertex  2.216932e-01  8.097002e-01 -1.111105e-02
     vertex  4.544975e-01  8.097002e-01 -1.111105e-02
     vertex  2.431217e-01  8.097002e-01  3.174603e-02
   endloop
 endfacet
 facet normal -0.000000e+00  0.000000e+00 -1.000000e+00
   outer loop
     vertex  4.544975e-01  8.097002e-01  3.174603e-02
     vertex  2.431217e-01  6.568478e-01  3.174603e-02
     vertex  2.431217e-01  8.097002e-01  3.174603e-02
   endloop
 endfacet
 facet normal  0.000000e+00  0.000000e+00 -1.000000e+00
   outer loop
     vertex  4.544975e-01  5.186406e-01  3.174603e-02
     vertex  2.431217e-01  6.568478e-01  3.174603e-02
     vertex  4.544975e-01  8.097002e-01  3.174603e-02
   endloop
 endfacet
endsolid
