solid 
 facet normal -0.000000e+00  0.000000e+00 -1.000000e+00
   outer loop
     vertex  6.084660e-02 -1.587302e-02 -1.008289e+00
     vertex -6.686067e-01 -1.587302e-01 -1.008289e+00
     vertex -6.686067e-01 -1.587302e-02 -1.008289e+00
   endloop
 endfacet
 facet normal  0.000000e+00 -0.000000e+00 -1.000000e+00
   outer loop
     vertex  6.084660e-02 -1.587302e-02 -1.008289e+00
     vertex  6.084660e-02 -1.587302e-01 -1.008289e+00
     vertex -6.686067e-01 -1.587302e-01 -1.008289e+00
   endloop
 endfacet
 facet normal -9.952285e-01  0.000000e+00  9.757143e-02
   outer loop
     vertex -6.686067e-01 -1.587302e-02 -1.008289e+00
     vertex -5.028219e-01 -1.587302e-01  6.827161e-01
     vertex -5.028219e-01 -1.587302e-02  6.827161e-01
   endloop
 endfacet
 facet normal -9.952285e-01  0.000000e+00  9.757143e-02
   outer loop
     vertex -6.686067e-01 -1.587302e-02 -1.008289e+00
     vertex -6.686067e-01 -1.587302e-01 -1.008289e+00
     vertex -5.028219e-01 -1.587302e-01  6.827161e-01
   endloop
 endfacet
 facet normal  1.000000e+00  0.000000e+00  0.000000e+00
   outer loop
     vertex  6.084660e-02 -1.587302e-02  9.148148e-01
     vertex  6.084660e-02 -1.587302e-01 -1.008289e+00
     vertex  6.084660e-02 -1.587302e-02 -1.008289e+00
   endloop
 endfacet
 facet normal  1.000000e+00  0.000000e+00  0.000000e+00
   outer loop
     vertex  6.084660e-02 -1.587302e-02  9.148148e-01
     vertex  6.084660e-02 -1.587302e-01  9.148148e-01
     vertex  6.084660e-02 -1.587302e-01 -1.008289e+00
   endloop
 endfacet
 facet normal  0.000000e+00  0.000000e+00 -1.000000e+00
   outer loop
     vertex  6.084660e-02 -1.587302e-02 -1.008289e+00
     vertex -6.686067e-01 -1.587302e-02 -1.008289e+00
     vertex -6.686067e-01  0.000000e+00 -1.008289e+00
   endloop
 endfacet
 facet normal  0.000000e+00  0.000000e+00 -1.000000e+00
   outer loop
     vertex  6.084660e-02 -1.587302e-02 -1.008289e+00
     vertex -6.686067e-01  0.000000e+00 -1.008289e+00
     vertex  6.084660e-02  0.000000e+00 -1.008289e+00
   endloop
 endfacet
 facet normal -0.000000e+00 -1.000000e+00  0.000000e+00
   outer loop
     vertex -4.932090e-01 -1.587302e-01  5.159787e-01
     vertex -5.006878e-01 -1.587302e-01  5.226043e-01
     vertex -6.686067e-01 -1.587302e-01 -1.008289e+00
   endloop
 endfacet
 facet normal  0.000000e+00 -1.000000e+00 -0.000000e+00
   outer loop
     vertex -5.063637e-01 -1.587302e-01  5.308272e-01
     vertex -6.686067e-01 -1.587302e-01 -1.008289e+00
     vertex -5.006878e-01 -1.587302e-01  5.226043e-01
   endloop
 endfacet
 facet normal -0.000000e+00 -1.000000e+00  0.000000e+00
   outer loop
     vertex -4.843619e-01 -1.587302e-01  5.113354e-01
     vertex -4.932090e-01 -1.587302e-01  5.159787e-01
     vertex -6.686067e-01 -1.587302e-01 -1.008289e+00
   endloop
 endfacet
 facet normal  0.000000e+00 -1.000000e+00 -0.000000e+00
   outer loop
     vertex -5.099068e-01 -1.587302e-01  5.401695e-01
     vertex -6.686067e-01 -1.587302e-01 -1.008289e+00
     vertex -5.063637e-01 -1.587302e-01  5.308272e-01
   endloop
 endfacet
 facet normal -0.000000e+00 -1.000000e+00  0.000000e+00
   outer loop
     vertex -4.746607e-01 -1.587302e-01  5.089442e-01
     vertex -4.843619e-01 -1.587302e-01  5.113354e-01
     vertex -6.686067e-01 -1.587302e-01 -1.008289e+00
   endloop
 endfacet
 facet normal  0.000000e+00 -1.000000e+00 -0.000000e+00
   outer loop
     vertex -4.646691e-01 -1.587302e-01  5.089442e-01
     vertex -6.686067e-01 -1.587302e-01 -1.008289e+00
     vertex  6.084660e-02 -1.587302e-01 -1.008289e+00
   endloop
 endfacet
 facet normal -0.000000e+00 -1.000000e+00  0.000000e+00
   outer loop
     vertex -4.646691e-01 -1.587302e-01  5.089442e-01
     vertex -4.746607e-01 -1.587302e-01  5.089442e-01
     vertex -6.686067e-01 -1.587302e-01 -1.008289e+00
   endloop
 endfacet
 facet normal  0.000000e+00 -1.000000e+00 -0.000000e+00
   outer loop
     vertex -4.549679e-01 -1.587302e-01  5.113354e-01
     vertex -4.646691e-01 -1.587302e-01  5.089442e-01
     vertex  6.084660e-02 -1.587302e-01 -1.008289e+00
   endloop
 endfacet
 facet normal  0.000000e+00 -1.000000e+00 -0.000000e+00
   outer loop
     vertex -4.461208e-01 -1.587302e-01  5.159787e-01
     vertex -4.549679e-01 -1.587302e-01  5.113354e-01
     vertex  6.084660e-02 -1.587302e-01 -1.008289e+00
   endloop
 endfacet
 facet normal  0.000000e+00 -1.000000e+00  0.000000e+00
   outer loop
     vertex -5.028219e-01 -1.587302e-01  6.827161e-01
     vertex -4.646691e-01 -1.587302e-01  5.912323e-01
     vertex -4.549679e-01 -1.587302e-01  5.888411e-01
   endloop
 endfacet
 facet normal  0.000000e+00 -1.000000e+00  0.000000e+00
   outer loop
     vertex -5.028219e-01 -1.587302e-01  6.827161e-01
     vertex -4.746607e-01 -1.587302e-01  5.912323e-01
     vertex -4.646691e-01 -1.587302e-01  5.912323e-01
   endloop
 endfacet
 facet normal  0.000000e+00 -1.000000e+00  0.000000e+00
   outer loop
     vertex -5.028219e-01 -1.587302e-01  6.827161e-01
     vertex -4.843619e-01 -1.587302e-01  5.888411e-01
     vertex -4.746607e-01 -1.587302e-01  5.912323e-01
   endloop
 endfacet
 facet normal  0.000000e+00 -1.000000e+00  0.000000e+00
   outer loop
     vertex -5.028219e-01 -1.587302e-01  6.827161e-01
     vertex -4.932090e-01 -1.587302e-01  5.841978e-01
     vertex -4.843619e-01 -1.587302e-01  5.888411e-01
   endloop
 endfacet
 facet normal  0.000000e+00 -1.000000e+00  0.000000e+00
   outer loop
     vertex -5.028219e-01 -1.587302e-01  6.827161e-01
     vertex -5.006878e-01 -1.587302e-01  5.775722e-01
     vertex -4.932090e-01 -1.587302e-01  5.841978e-01
   endloop
 endfacet
 facet normal  0.000000e+00 -1.000000e+00 -0.000000e+00
   outer loop
     vertex -5.028219e-01 -1.587302e-01  6.827161e-01
     vertex -5.063637e-01 -1.587302e-01  5.693493e-01
     vertex -5.006878e-01 -1.587302e-01  5.775722e-01
   endloop
 endfacet
 facet normal  0.000000e+00 -1.000000e+00  0.000000e+00
   outer loop
     vertex -5.028219e-01 -1.587302e-01  6.827161e-01
     vertex -5.099068e-01 -1.587302e-01  5.600070e-01
     vertex -5.063637e-01 -1.587302e-01  5.693493e-01
   endloop
 endfacet
 facet normal  0.000000e+00 -1.000000e+00  0.000000e+00
   outer loop
     vertex -5.028219e-01 -1.587302e-01  6.827161e-01
     vertex -5.111111e-01 -1.587302e-01  5.500882e-01
     vertex -5.099068e-01 -1.587302e-01  5.600070e-01
   endloop
 endfacet
 facet normal  0.000000e+00 -1.000000e+00 -0.000000e+00
   outer loop
     vertex -4.879685e-01 -1.587302e-01  7.137014e-01
     vertex -5.028219e-01 -1.587302e-01  6.827161e-01
     vertex -4.549679e-01 -1.587302e-01  5.888411e-01
   endloop
 endfacet
 facet normal  0.000000e+00 -1.000000e+00  0.000000e+00
   outer loop
     vertex -4.879685e-01 -1.587302e-01  7.137014e-01
     vertex -4.549679e-01 -1.587302e-01  5.888411e-01
     vertex -4.461208e-01 -1.587302e-01  5.841978e-01
   endloop
 endfacet
 facet normal  0.000000e+00 -1.000000e+00 -0.000000e+00
   outer loop
     vertex -4.697219e-01 -1.587302e-01  7.428180e-01
     vertex -4.879685e-01 -1.587302e-01  7.137014e-01
     vertex -4.461208e-01 -1.587302e-01  5.841978e-01
   endloop
 endfacet
 facet normal  0.000000e+00 -1.000000e+00  0.000000e+00
   outer loop
     vertex -2.893368e-01 -1.587302e-01  5.999118e-01
     vertex -4.282187e-01 -1.587302e-01  5.500882e-01
     vertex -4.294231e-01 -1.587302e-01  5.401695e-01
   endloop
 endfacet
 facet normal -0.000000e+00 -1.000000e+00  0.000000e+00
   outer loop
     vertex -2.848495e-01 -1.587302e-01  5.959364e-01
     vertex -2.893368e-01 -1.587302e-01  5.999118e-01
     vertex -4.294231e-01 -1.587302e-01  5.401695e-01
   endloop
 endfacet
 facet normal  0.000000e+00 -1.000000e+00 -0.000000e+00
   outer loop
     vertex -2.927423e-01 -1.587302e-01  6.048456e-01
     vertex -4.282187e-01 -1.587302e-01  5.500882e-01
     vertex -2.893368e-01 -1.587302e-01  5.999118e-01
   endloop
 endfacet
 facet normal  0.000000e+00 -1.000000e+00  0.000000e+00
   outer loop
     vertex -2.927423e-01 -1.587302e-01  6.048456e-01
     vertex -4.294231e-01 -1.587302e-01  5.600070e-01
     vertex -4.282187e-01 -1.587302e-01  5.500882e-01
   endloop
 endfacet
 facet normal -0.000000e+00 -1.000000e+00  0.000000e+00
   outer loop
     vertex -2.795413e-01 -1.587302e-01  5.931504e-01
     vertex -2.848495e-01 -1.587302e-01  5.959364e-01
     vertex -4.294231e-01 -1.587302e-01  5.401695e-01
   endloop
 endfacet
 facet normal  0.000000e+00 -1.000000e+00  0.000000e+00
   outer loop
     vertex -2.795413e-01 -1.587302e-01  5.931504e-01
     vertex -4.294231e-01 -1.587302e-01  5.401695e-01
     vertex -4.329661e-01 -1.587302e-01  5.308272e-01
   endloop
 endfacet
 facet normal  0.000000e+00 -1.000000e+00 -0.000000e+00
   outer loop
     vertex -2.948682e-01 -1.587302e-01  6.104509e-01
     vertex -4.294231e-01 -1.587302e-01  5.600070e-01
     vertex -2.927423e-01 -1.587302e-01  6.048456e-01
   endloop
 endfacet
 facet normal  0.000000e+00 -1.000000e+00  0.000000e+00
   outer loop
     vertex -2.948682e-01 -1.587302e-01  6.104509e-01
     vertex -4.329661e-01 -1.587302e-01  5.693493e-01
     vertex -4.294231e-01 -1.587302e-01  5.600070e-01
   endloop
 endfacet
 facet normal -0.000000e+00 -1.000000e+00  0.000000e+00
   outer loop
     vertex -2.737205e-01 -1.587302e-01  5.917157e-01
     vertex -2.795413e-01 -1.587302e-01  5.931504e-01
     vertex -4.329661e-01 -1.587302e-01  5.308272e-01
   endloop
 endfacet
 facet normal  0.000000e+00 -1.000000e+00  0.000000e+00
   outer loop
     vertex -2.737205e-01 -1.587302e-01  5.917157e-01
     vertex -4.329661e-01 -1.587302e-01  5.308272e-01
     vertex -4.386420e-01 -1.587302e-01  5.226043e-01
   endloop
 endfacet
 facet normal  0.000000e+00 -1.000000e+00  0.000000e+00
   outer loop
     vertex -2.955908e-01 -1.587302e-01  6.164022e-01
     vertex -4.386420e-01 -1.587302e-01  5.775722e-01
     vertex -4.329661e-01 -1.587302e-01  5.693493e-01
   endloop
 endfacet
 facet normal  0.000000e+00 -1.000000e+00 -0.000000e+00
   outer loop
     vertex -2.955908e-01 -1.587302e-01  6.164022e-01
     vertex -4.329661e-01 -1.587302e-01  5.693493e-01
     vertex -2.948682e-01 -1.587302e-01  6.104509e-01
   endloop
 endfacet
 facet normal  0.000000e+00 -1.000000e+00  0.000000e+00
   outer loop
     vertex -2.677256e-01 -1.587302e-01  5.917157e-01
     vertex -4.386420e-01 -1.587302e-01  5.226043e-01
     vertex -4.461208e-01 -1.587302e-01  5.159787e-01
   endloop
 endfacet
 facet normal -0.000000e+00 -1.000000e+00  0.000000e+00
   outer loop
     vertex -2.677256e-01 -1.587302e-01  5.917157e-01
     vertex -2.737205e-01 -1.587302e-01  5.917157e-01
     vertex -4.386420e-01 -1.587302e-01  5.226043e-01
   endloop
 endfacet
 facet normal  0.000000e+00 -1.000000e+00  0.000000e+00
   outer loop
     vertex -2.948682e-01 -1.587302e-01  6.223534e-01
     vertex -4.461208e-01 -1.587302e-01  5.841978e-01
     vertex -4.386420e-01 -1.587302e-01  5.775722e-01
   endloop
 endfacet
 facet normal  0.000000e+00 -1.000000e+00  0.000000e+00
   outer loop
     vertex -2.948682e-01 -1.587302e-01  6.223534e-01
     vertex -4.386420e-01 -1.587302e-01  5.775722e-01
     vertex -2.955908e-01 -1.587302e-01  6.164022e-01
   endloop
 endfacet
 facet normal  0.000000e+00 -1.000000e+00  0.000000e+00
   outer loop
     vertex -2.619048e-01 -1.587302e-01  5.931504e-01
     vertex -2.677256e-01 -1.587302e-01  5.917157e-01
     vertex -4.461208e-01 -1.587302e-01  5.159787e-01
   endloop
 endfacet
 facet normal  0.000000e+00 -1.000000e+00 -0.000000e+00
   outer loop
     vertex -2.619048e-01 -1.587302e-01  5.931504e-01
     vertex -4.461208e-01 -1.587302e-01  5.159787e-01
     vertex  6.084660e-02 -1.587302e-01 -1.008289e+00
   endloop
 endfacet
 facet normal  0.000000e+00 -1.000000e+00  0.000000e+00
   outer loop
     vertex -2.927423e-01 -1.587302e-01  6.279588e-01
     vertex -4.461208e-01 -1.587302e-01  5.841978e-01
     vertex -2.948682e-01 -1.587302e-01  6.223534e-01
   endloop
 endfacet
 facet normal -0.000000e+00 -1.000000e+00  0.000000e+00
   outer loop
     vertex -2.927423e-01 -1.587302e-01  6.279588e-01
     vertex -4.697219e-01 -1.587302e-01  7.428180e-01
     vertex -4.461208e-01 -1.587302e-01  5.841978e-01
   endloop
 endfacet
 facet normal  0.000000e+00 -1.000000e+00 -0.000000e+00
   outer loop
     vertex -2.565966e-01 -1.587302e-01  5.959364e-01
     vertex -2.619048e-01 -1.587302e-01  5.931504e-01
     vertex  6.084660e-02 -1.587302e-01 -1.008289e+00
   endloop
 endfacet
 facet normal  0.000000e+00 -1.000000e+00  0.000000e+00
   outer loop
     vertex -2.893368e-01 -1.587302e-01  6.328925e-01
     vertex -4.483139e-01 -1.587302e-01  7.696957e-01
     vertex -4.697219e-01 -1.587302e-01  7.428180e-01
   endloop
 endfacet
 facet normal -0.000000e+00 -1.000000e+00  0.000000e+00
   outer loop
     vertex -2.893368e-01 -1.587302e-01  6.328925e-01
     vertex -4.697219e-01 -1.587302e-01  7.428180e-01
     vertex -2.927423e-01 -1.587302e-01  6.279588e-01
   endloop
 endfacet
 facet normal  0.000000e+00 -1.000000e+00 -0.000000e+00
   outer loop
     vertex -2.521093e-01 -1.587302e-01  5.999118e-01
     vertex -2.565966e-01 -1.587302e-01  5.959364e-01
     vertex  6.084660e-02 -1.587302e-01 -1.008289e+00
   endloop
 endfacet
 facet normal  0.000000e+00 -1.000000e+00 -0.000000e+00
   outer loop
     vertex -2.487038e-01 -1.587302e-01  6.048456e-01
     vertex -2.521093e-01 -1.587302e-01  5.999118e-01
     vertex  6.084660e-02 -1.587302e-01 -1.008289e+00
   endloop
 endfacet
 facet normal  0.000000e+00 -1.000000e+00  0.000000e+00
   outer loop
     vertex -4.240166e-01 -1.587302e-01  7.939929e-01
     vertex -2.893368e-01 -1.587302e-01  6.328925e-01
     vertex -2.848495e-01 -1.587302e-01  6.368679e-01
   endloop
 endfacet
 facet normal  0.000000e+00 -1.000000e+00 -0.000000e+00
   outer loop
     vertex -4.240166e-01 -1.587302e-01  7.939929e-01
     vertex -4.483139e-01 -1.587302e-01  7.696957e-01
     vertex -2.893368e-01 -1.587302e-01  6.328925e-01
   endloop
 endfacet
 facet normal  0.000000e+00 -1.000000e+00  0.000000e+00
   outer loop
     vertex -3.971389e-01 -1.587302e-01  8.154009e-01
     vertex -2.848495e-01 -1.587302e-01  6.368679e-01
     vertex -2.795413e-01 -1.587302e-01  6.396539e-01
   endloop
 endfacet
 facet normal  0.000000e+00 -1.000000e+00 -0.000000e+00
   outer loop
     vertex -3.971389e-01 -1.587302e-01  8.154009e-01
     vertex -4.240166e-01 -1.587302e-01  7.939929e-01
     vertex -2.848495e-01 -1.587302e-01  6.368679e-01
   endloop
 endfacet
 facet normal  0.000000e+00 -1.000000e+00 -0.000000e+00
   outer loop
     vertex -3.680224e-01 -1.587302e-01  8.336475e-01
     vertex -3.971389e-01 -1.587302e-01  8.154009e-01
     vertex -2.795413e-01 -1.587302e-01  6.396539e-01
   endloop
 endfacet
 facet normal  0.000000e+00 -1.000000e+00  0.000000e+00
   outer loop
     vertex -3.370371e-01 -1.587302e-01  8.485009e-01
     vertex -2.619048e-01 -1.587302e-01  6.396539e-01
     vertex -2.565966e-01 -1.587302e-01  6.368679e-01
   endloop
 endfacet
 facet normal  0.000000e+00 -1.000000e+00  0.000000e+00
   outer loop
     vertex -3.370371e-01 -1.587302e-01  8.485009e-01
     vertex -2.677256e-01 -1.587302e-01  6.410886e-01
     vertex -2.619048e-01 -1.587302e-01  6.396539e-01
   endloop
 endfacet
 facet normal  0.000000e+00 -1.000000e+00  0.000000e+00
   outer loop
     vertex -3.370371e-01 -1.587302e-01  8.485009e-01
     vertex -2.737205e-01 -1.587302e-01  6.410886e-01
     vertex -2.677256e-01 -1.587302e-01  6.410886e-01
   endloop
 endfacet
 facet normal  0.000000e+00 -1.000000e+00  0.000000e+00
   outer loop
     vertex -3.370371e-01 -1.587302e-01  8.485009e-01
     vertex -2.795413e-01 -1.587302e-01  6.396539e-01
     vertex -2.737205e-01 -1.587302e-01  6.410886e-01
   endloop
 endfacet
 facet normal  0.000000e+00 -1.000000e+00 -0.000000e+00
   outer loop
     vertex -3.370371e-01 -1.587302e-01  8.485009e-01
     vertex -3.680224e-01 -1.587302e-01  8.336475e-01
     vertex -2.795413e-01 -1.587302e-01  6.396539e-01
   endloop
 endfacet
 facet normal  0.000000e+00 -1.000000e+00 -0.000000e+00
   outer loop
     vertex -3.038801e-01 -1.587302e-01  9.148148e-01
     vertex -3.370371e-01 -1.587302e-01  8.485009e-01
     vertex -2.565966e-01 -1.587302e-01  6.368679e-01
   endloop
 endfacet
 facet normal  0.000000e+00 -1.000000e+00  0.000000e+00
   outer loop
     vertex  6.084660e-02 -1.587302e-01  9.148148e-01
     vertex -2.465779e-01 -1.587302e-01  6.223534e-01
     vertex -2.458553e-01 -1.587302e-01  6.164022e-01
   endloop
 endfacet
 facet normal  0.000000e+00 -1.000000e+00  0.000000e+00
   outer loop
     vertex  6.084660e-02 -1.587302e-01  9.148148e-01
     vertex -2.487038e-01 -1.587302e-01  6.279588e-01
     vertex -2.465779e-01 -1.587302e-01  6.223534e-01
   endloop
 endfacet
 facet normal  0.000000e+00 -1.000000e+00  0.000000e+00
   outer loop
     vertex  6.084660e-02 -1.587302e-01  9.148148e-01
     vertex -2.521093e-01 -1.587302e-01  6.328925e-01
     vertex -2.487038e-01 -1.587302e-01  6.279588e-01
   endloop
 endfacet
 facet normal  0.000000e+00 -1.000000e+00  0.000000e+00
   outer loop
     vertex  6.084660e-02 -1.587302e-01  9.148148e-01
     vertex -2.565966e-01 -1.587302e-01  6.368679e-01
     vertex -2.521093e-01 -1.587302e-01  6.328925e-01
   endloop
 endfacet
 facet normal  0.000000e+00 -1.000000e+00  0.000000e+00
   outer loop
     vertex  6.084660e-02 -1.587302e-01  9.148148e-01
     vertex -2.465779e-01 -1.587302e-01  6.104509e-01
     vertex -2.487038e-01 -1.587302e-01  6.048456e-01
   endloop
 endfacet
 facet normal  0.000000e+00 -1.000000e+00 -0.000000e+00
   outer loop
     vertex  6.084660e-02 -1.587302e-01  9.148148e-01
     vertex -2.487038e-01 -1.587302e-01  6.048456e-01
     vertex  6.084660e-02 -1.587302e-01 -1.008289e+00
   endloop
 endfacet
 facet normal  0.000000e+00 -1.000000e+00  0.000000e+00
   outer loop
     vertex  6.084660e-02 -1.587302e-01  9.148148e-01
     vertex -2.458553e-01 -1.587302e-01  6.164022e-01
     vertex -2.465779e-01 -1.587302e-01  6.104509e-01
   endloop
 endfacet
 facet normal -0.000000e+00 -1.000000e+00  0.000000e+00
   outer loop
     vertex  6.084660e-02 -1.587302e-01  9.148148e-01
     vertex -3.038801e-01 -1.587302e-01  9.148148e-01
     vertex -2.565966e-01 -1.587302e-01  6.368679e-01
   endloop
 endfacet
 facet normal  0.000000e+00 -1.000000e+00  0.000000e+00
   outer loop
     vertex -5.028219e-01 -1.587302e-01  6.827161e-01
     vertex -6.686067e-01 -1.587302e-01 -1.008289e+00
     vertex -5.111111e-01 -1.587302e-01  5.500882e-01
   endloop
 endfacet
 facet normal  0.000000e+00 -1.000000e+00 -0.000000e+00
   outer loop
     vertex -5.111111e-01 -1.587302e-01  5.500882e-01
     vertex -6.686067e-01 -1.587302e-01 -1.008289e+00
     vertex -5.099068e-01 -1.587302e-01  5.401695e-01
   endloop
 endfacet
 facet normal -4.322674e-01  0.000000e+00  9.017455e-01
   outer loop
     vertex -3.680224e-01 -1.587302e-02  8.336475e-01
     vertex -3.370371e-01 -1.587302e-01  8.485009e-01
     vertex -3.370371e-01 -1.587302e-02  8.485009e-01
   endloop
 endfacet
 facet normal -4.322674e-01  0.000000e+00  9.017455e-01
   outer loop
     vertex -3.680224e-01 -1.587302e-02  8.336475e-01
     vertex -3.680224e-01 -1.587302e-01  8.336475e-01
     vertex -3.370371e-01 -1.587302e-01  8.485009e-01
   endloop
 endfacet
 facet normal -5.310195e-01  0.000000e+00  8.473596e-01
   outer loop
     vertex -3.971389e-01 -1.587302e-02  8.154009e-01
     vertex -3.971389e-01 -1.587302e-01  8.154009e-01
     vertex -3.680224e-01 -1.587302e-01  8.336475e-01
   endloop
 endfacet
 facet normal -5.310195e-01  0.000000e+00  8.473596e-01
   outer loop
     vertex -3.971389e-01 -1.587302e-02  8.154009e-01
     vertex -3.680224e-01 -1.587302e-01  8.336475e-01
     vertex -3.680224e-01 -1.587302e-02  8.336475e-01
   endloop
 endfacet
 facet normal -6.230224e-01  0.000000e+00  7.822040e-01
   outer loop
     vertex -4.240166e-01 -1.587302e-02  7.939929e-01
     vertex -4.240166e-01 -1.587302e-01  7.939929e-01
     vertex -3.971389e-01 -1.587302e-01  8.154009e-01
   endloop
 endfacet
 facet normal -6.230224e-01  0.000000e+00  7.822040e-01
   outer loop
     vertex -4.240166e-01 -1.587302e-02  7.939929e-01
     vertex -3.971389e-01 -1.587302e-01  8.154009e-01
     vertex -3.971389e-01 -1.587302e-02  8.154009e-01
   endloop
 endfacet
 facet normal -7.071068e-01  0.000000e+00  7.071067e-01
   outer loop
     vertex -4.483139e-01 -1.587302e-02  7.696957e-01
     vertex -4.483139e-01 -1.587302e-01  7.696957e-01
     vertex -4.240166e-01 -1.587302e-01  7.939929e-01
   endloop
 endfacet
 facet normal -7.071068e-01  0.000000e+00  7.071067e-01
   outer loop
     vertex -4.483139e-01 -1.587302e-02  7.696957e-01
     vertex -4.240166e-01 -1.587302e-01  7.939929e-01
     vertex -4.240166e-01 -1.587302e-02  7.939929e-01
   endloop
 endfacet
 facet normal -7.822041e-01  0.000000e+00  6.230223e-01
   outer loop
     vertex -4.697219e-01 -1.587302e-02  7.428180e-01
     vertex -4.697219e-01 -1.587302e-01  7.428180e-01
     vertex -4.483139e-01 -1.587302e-01  7.696957e-01
   endloop
 endfacet
 facet normal -7.822041e-01  0.000000e+00  6.230223e-01
   outer loop
     vertex -4.697219e-01 -1.587302e-02  7.428180e-01
     vertex -4.483139e-01 -1.587302e-01  7.696957e-01
     vertex -4.483139e-01 -1.587302e-02  7.696957e-01
   endloop
 endfacet
 facet normal -8.473597e-01  0.000000e+00  5.310193e-01
   outer loop
     vertex -4.879685e-01 -1.587302e-02  7.137014e-01
     vertex -4.879685e-01 -1.587302e-01  7.137014e-01
     vertex -4.697219e-01 -1.587302e-01  7.428180e-01
   endloop
 endfacet
 facet normal -8.473597e-01  0.000000e+00  5.310193e-01
   outer loop
     vertex -4.879685e-01 -1.587302e-02  7.137014e-01
     vertex -4.697219e-01 -1.587302e-01  7.428180e-01
     vertex -4.697219e-01 -1.587302e-02  7.428180e-01
   endloop
 endfacet
 facet normal -9.017455e-01  0.000000e+00  4.322673e-01
   outer loop
     vertex -5.028219e-01 -1.587302e-02  6.827161e-01
     vertex -5.028219e-01 -1.587302e-01  6.827161e-01
     vertex -4.879685e-01 -1.587302e-01  7.137014e-01
   endloop
 endfacet
 facet normal -9.017455e-01  0.000000e+00  4.322673e-01
   outer loop
     vertex -5.028219e-01 -1.587302e-02  6.827161e-01
     vertex -4.879685e-01 -1.587302e-01  7.137014e-01
     vertex -4.879685e-01 -1.587302e-02  7.137014e-01
   endloop
 endfacet
 facet normal -9.952285e-01  0.000000e+00  9.757143e-02
   outer loop
     vertex -6.686067e-01 -1.587302e-02 -1.008289e+00
     vertex -5.028219e-01 -1.587302e-02  6.827161e-01
     vertex -5.028219e-01  0.000000e+00  6.827161e-01
   endloop
 endfacet
 facet normal -9.952285e-01  0.000000e+00  9.757143e-02
   outer loop
     vertex -6.686067e-01 -1.587302e-02 -1.008289e+00
     vertex -5.028219e-01  0.000000e+00  6.827161e-01
     vertex -6.686067e-01  0.000000e+00 -1.008289e+00
   endloop
 endfacet
 facet normal -0.000000e+00  0.000000e+00  1.000000e+00
   outer loop
     vertex -3.038801e-01 -1.587302e-02  9.148148e-01
     vertex  6.084660e-02 -1.587302e-01  9.148148e-01
     vertex  6.084660e-02 -1.587302e-02  9.148148e-01
   endloop
 endfacet
 facet normal  0.000000e+00  0.000000e+00  1.000000e+00
   outer loop
     vertex -3.038801e-01 -1.587302e-02  9.148148e-01
     vertex -3.038801e-01 -1.587302e-01  9.148148e-01
     vertex  6.084660e-02 -1.587302e-01  9.148148e-01
   endloop
 endfacet
 facet normal  1.000000e+00  0.000000e+00  0.000000e+00
   outer loop
     vertex  6.084660e-02 -1.587302e-02  9.148148e-01
     vertex  6.084660e-02 -1.587302e-02 -1.008289e+00
     vertex  6.084660e-02  0.000000e+00 -1.008289e+00
   endloop
 endfacet
 facet normal  1.000000e+00 -0.000000e+00  0.000000e+00
   outer loop
     vertex  6.084660e-02 -1.587302e-02  9.148148e-01
     vertex  6.084660e-02  0.000000e+00 -1.008289e+00
     vertex  6.084660e-02  0.000000e+00  9.148148e-01
   endloop
 endfacet
 facet normal  0.000000e+00  1.000000e+00  0.000000e+00
   outer loop
     vertex -4.932090e-01  1.040834e-17  5.159787e-01
     vertex -6.686067e-01  1.040834e-17 -1.008289e+00
     vertex -5.006878e-01  1.040834e-17  5.226043e-01
   endloop
 endfacet
 facet normal  0.000000e+00  1.000000e+00  0.000000e+00
   outer loop
     vertex -5.063637e-01  1.040834e-17  5.308272e-01
     vertex -5.006878e-01  1.040834e-17  5.226043e-01
     vertex -6.686067e-01  1.040834e-17 -1.008289e+00
   endloop
 endfacet
 facet normal  0.000000e+00  1.000000e+00  0.000000e+00
   outer loop
     vertex -4.843619e-01  1.040834e-17  5.113354e-01
     vertex -6.686067e-01  1.040834e-17 -1.008289e+00
     vertex -4.932090e-01  1.040834e-17  5.159787e-01
   endloop
 endfacet
 facet normal  0.000000e+00  1.000000e+00  0.000000e+00
   outer loop
     vertex -5.099068e-01  1.040834e-17  5.401695e-01
     vertex -5.063637e-01  1.040834e-17  5.308272e-01
     vertex -6.686067e-01  1.040834e-17 -1.008289e+00
   endloop
 endfacet
 facet normal  0.000000e+00  1.000000e+00  0.000000e+00
   outer loop
     vertex -4.746607e-01  1.040834e-17  5.089442e-01
     vertex -6.686067e-01  1.040834e-17 -1.008289e+00
     vertex -4.843619e-01  1.040834e-17  5.113354e-01
   endloop
 endfacet
 facet normal  0.000000e+00  1.000000e+00  0.000000e+00
   outer loop
     vertex -4.646691e-01  1.040834e-17  5.089442e-01
     vertex  6.084660e-02  1.040834e-17 -1.008289e+00
     vertex -6.686067e-01  1.040834e-17 -1.008289e+00
   endloop
 endfacet
 facet normal  0.000000e+00  1.000000e+00  0.000000e+00
   outer loop
     vertex -4.646691e-01  1.040834e-17  5.089442e-01
     vertex -6.686067e-01  1.040834e-17 -1.008289e+00
     vertex -4.746607e-01  1.040834e-17  5.089442e-01
   endloop
 endfacet
 facet normal  0.000000e+00  1.000000e+00  0.000000e+00
   outer loop
     vertex -4.549679e-01  1.040834e-17  5.113354e-01
     vertex  6.084660e-02  1.040834e-17 -1.008289e+00
     vertex -4.646691e-01  1.040834e-17  5.089442e-01
   endloop
 endfacet
 facet normal  0.000000e+00  1.000000e+00  0.000000e+00
   outer loop
     vertex -4.461208e-01  1.040834e-17  5.159787e-01
     vertex  6.084660e-02  1.040834e-17 -1.008289e+00
     vertex -4.549679e-01  1.040834e-17  5.113354e-01
   endloop
 endfacet
 facet normal  0.000000e+00  1.000000e+00  0.000000e+00
   outer loop
     vertex -5.028219e-01  1.040834e-17  6.827161e-01
     vertex -4.549679e-01  1.040834e-17  5.888411e-01
     vertex -4.646691e-01  1.040834e-17  5.912323e-01
   endloop
 endfacet
 facet normal  0.000000e+00  1.000000e+00  0.000000e+00
   outer loop
     vertex -5.028219e-01  1.040834e-17  6.827161e-01
     vertex -4.646691e-01  1.040834e-17  5.912323e-01
     vertex -4.746607e-01  1.040834e-17  5.912323e-01
   endloop
 endfacet
 facet normal  0.000000e+00  1.000000e+00  0.000000e+00
   outer loop
     vertex -5.028219e-01  1.040834e-17  6.827161e-01
     vertex -4.746607e-01  1.040834e-17  5.912323e-01
     vertex -4.843619e-01  1.040834e-17  5.888411e-01
   endloop
 endfacet
 facet normal  0.000000e+00  1.000000e+00  0.000000e+00
   outer loop
     vertex -5.028219e-01  1.040834e-17  6.827161e-01
     vertex -4.843619e-01  1.040834e-17  5.888411e-01
     vertex -4.932090e-01  1.040834e-17  5.841978e-01
   endloop
 endfacet
 facet normal  0.000000e+00  1.000000e+00  0.000000e+00
   outer loop
     vertex -5.028219e-01  1.040834e-17  6.827161e-01
     vertex -4.932090e-01  1.040834e-17  5.841978e-01
     vertex -5.006878e-01  1.040834e-17  5.775722e-01
   endloop
 endfacet
 facet normal  0.000000e+00  1.000000e+00  0.000000e+00
   outer loop
     vertex -5.028219e-01  1.040834e-17  6.827161e-01
     vertex -5.006878e-01  1.040834e-17  5.775722e-01
     vertex -5.063637e-01  1.040834e-17  5.693493e-01
   endloop
 endfacet
 facet normal  0.000000e+00  1.000000e+00  0.000000e+00
   outer loop
     vertex -5.028219e-01  1.040834e-17  6.827161e-01
     vertex -5.063637e-01  1.040834e-17  5.693493e-01
     vertex -5.099068e-01  1.040834e-17  5.600070e-01
   endloop
 endfacet
 facet normal  0.000000e+00  1.000000e+00  0.000000e+00
   outer loop
     vertex -5.028219e-01  1.040834e-17  6.827161e-01
     vertex -5.099068e-01  1.040834e-17  5.600070e-01
     vertex -5.111111e-01  1.040834e-17  5.500882e-01
   endloop
 endfacet
 facet normal  0.000000e+00  1.000000e+00  0.000000e+00
   outer loop
     vertex -4.879685e-01  1.040834e-17  7.137014e-01
     vertex -4.549679e-01  1.040834e-17  5.888411e-01
     vertex -5.028219e-01  1.040834e-17  6.827161e-01
   endloop
 endfacet
 facet normal  0.000000e+00  1.000000e+00  0.000000e+00
   outer loop
     vertex -4.879685e-01  1.040834e-17  7.137014e-01
     vertex -4.461208e-01  1.040834e-17  5.841978e-01
     vertex -4.549679e-01  1.040834e-17  5.888411e-01
   endloop
 endfacet
 facet normal  0.000000e+00  1.000000e+00  0.000000e+00
   outer loop
     vertex -4.697219e-01  1.040834e-17  7.428180e-01
     vertex -4.461208e-01  1.040834e-17  5.841978e-01
     vertex -4.879685e-01  1.040834e-17  7.137014e-01
   endloop
 endfacet
 facet normal  0.000000e+00  1.000000e+00  0.000000e+00
   outer loop
     vertex -2.893368e-01  1.040834e-17  5.999118e-01
     vertex -4.294231e-01  1.040834e-17  5.401695e-01
     vertex -4.282187e-01  1.040834e-17  5.500882e-01
   endloop
 endfacet
 facet normal  0.000000e+00  1.000000e+00  0.000000e+00
   outer loop
     vertex -2.848495e-01  1.040834e-17  5.959364e-01
     vertex -4.294231e-01  1.040834e-17  5.401695e-01
     vertex -2.893368e-01  1.040834e-17  5.999118e-01
   endloop
 endfacet
 facet normal  0.000000e+00  1.000000e+00  0.000000e+00
   outer loop
     vertex -2.927423e-01  1.040834e-17  6.048456e-01
     vertex -2.893368e-01  1.040834e-17  5.999118e-01
     vertex -4.282187e-01  1.040834e-17  5.500882e-01
   endloop
 endfacet
 facet normal  0.000000e+00  1.000000e+00  0.000000e+00
   outer loop
     vertex -2.927423e-01  1.040834e-17  6.048456e-01
     vertex -4.282187e-01  1.040834e-17  5.500882e-01
     vertex -4.294231e-01  1.040834e-17  5.600070e-01
   endloop
 endfacet
 facet normal  0.000000e+00  1.000000e+00  0.000000e+00
   outer loop
     vertex -2.795413e-01  1.040834e-17  5.931504e-01
     vertex -4.294231e-01  1.040834e-17  5.401695e-01
     vertex -2.848495e-01  1.040834e-17  5.959364e-01
   endloop
 endfacet
 facet normal  0.000000e+00  1.000000e+00  0.000000e+00
   outer loop
     vertex -2.795413e-01  1.040834e-17  5.931504e-01
     vertex -4.329661e-01  1.040834e-17  5.308272e-01
     vertex -4.294231e-01  1.040834e-17  5.401695e-01
   endloop
 endfacet
 facet normal  0.000000e+00  1.000000e+00  0.000000e+00
   outer loop
     vertex -2.948682e-01  1.040834e-17  6.104509e-01
     vertex -2.927423e-01  1.040834e-17  6.048456e-01
     vertex -4.294231e-01  1.040834e-17  5.600070e-01
   endloop
 endfacet
 facet normal  0.000000e+00  1.000000e+00  0.000000e+00
   outer loop
     vertex -2.948682e-01  1.040834e-17  6.104509e-01
     vertex -4.294231e-01  1.040834e-17  5.600070e-01
     vertex -4.329661e-01  1.040834e-17  5.693493e-01
   endloop
 endfacet
 facet normal  0.000000e+00  1.000000e+00  0.000000e+00
   outer loop
     vertex -2.737205e-01  1.040834e-17  5.917157e-01
     vertex -4.329661e-01  1.040834e-17  5.308272e-01
     vertex -2.795413e-01  1.040834e-17  5.931504e-01
   endloop
 endfacet
 facet normal  0.000000e+00  1.000000e+00  0.000000e+00
   outer loop
     vertex -2.737205e-01  1.040834e-17  5.917157e-01
     vertex -4.386420e-01  1.040834e-17  5.226043e-01
     vertex -4.329661e-01  1.040834e-17  5.308272e-01
   endloop
 endfacet
 facet normal  0.000000e+00  1.000000e+00  0.000000e+00
   outer loop
     vertex -2.955908e-01  1.040834e-17  6.164022e-01
     vertex -4.329661e-01  1.040834e-17  5.693493e-01
     vertex -4.386420e-01  1.040834e-17  5.775722e-01
   endloop
 endfacet
 facet normal  0.000000e+00  1.000000e+00  0.000000e+00
   outer loop
     vertex -2.955908e-01  1.040834e-17  6.164022e-01
     vertex -2.948682e-01  1.040834e-17  6.104509e-01
     vertex -4.329661e-01  1.040834e-17  5.693493e-01
   endloop
 endfacet
 facet normal  0.000000e+00  1.000000e+00  0.000000e+00
   outer loop
     vertex -2.677256e-01  1.040834e-17  5.917157e-01
     vertex -4.461208e-01  1.040834e-17  5.159787e-01
     vertex -4.386420e-01  1.040834e-17  5.226043e-01
   endloop
 endfacet
 facet normal  0.000000e+00  1.000000e+00  0.000000e+00
   outer loop
     vertex -2.677256e-01  1.040834e-17  5.917157e-01
     vertex -4.386420e-01  1.040834e-17  5.226043e-01
     vertex -2.737205e-01  1.040834e-17  5.917157e-01
   endloop
 endfacet
 facet normal  0.000000e+00  1.000000e+00  0.000000e+00
   outer loop
     vertex -2.948682e-01  1.040834e-17  6.223534e-01
     vertex -4.386420e-01  1.040834e-17  5.775722e-01
     vertex -4.461208e-01  1.040834e-17  5.841978e-01
   endloop
 endfacet
 facet normal  0.000000e+00  1.000000e+00  0.000000e+00
   outer loop
     vertex -2.948682e-01  1.040834e-17  6.223534e-01
     vertex -2.955908e-01  1.040834e-17  6.164022e-01
     vertex -4.386420e-01  1.040834e-17  5.775722e-01
   endloop
 endfacet
 facet normal  0.000000e+00  1.000000e+00  0.000000e+00
   outer loop
     vertex -2.619048e-01  1.040834e-17  5.931504e-01
     vertex -4.461208e-01  1.040834e-17  5.159787e-01
     vertex -2.677256e-01  1.040834e-17  5.917157e-01
   endloop
 endfacet
 facet normal  0.000000e+00  1.000000e+00  0.000000e+00
   outer loop
     vertex -2.619048e-01  1.040834e-17  5.931504e-01
     vertex  6.084660e-02  1.040834e-17 -1.008289e+00
     vertex -4.461208e-01  1.040834e-17  5.159787e-01
   endloop
 endfacet
 facet normal  0.000000e+00  1.000000e+00  0.000000e+00
   outer loop
     vertex -2.927423e-01  1.040834e-17  6.279588e-01
     vertex -2.948682e-01  1.040834e-17  6.223534e-01
     vertex -4.461208e-01  1.040834e-17  5.841978e-01
   endloop
 endfacet
 facet normal  0.000000e+00  1.000000e+00  0.000000e+00
   outer loop
     vertex -2.927423e-01  1.040834e-17  6.279588e-01
     vertex -4.461208e-01  1.040834e-17  5.841978e-01
     vertex -4.697219e-01  1.040834e-17  7.428180e-01
   endloop
 endfacet
 facet normal  0.000000e+00  1.000000e+00  0.000000e+00
   outer loop
     vertex -2.565966e-01  1.040834e-17  5.959364e-01
     vertex  6.084660e-02  1.040834e-17 -1.008289e+00
     vertex -2.619048e-01  1.040834e-17  5.931504e-01
   endloop
 endfacet
 facet normal  0.000000e+00  1.000000e+00  0.000000e+00
   outer loop
     vertex -2.893368e-01  1.040834e-17  6.328925e-01
     vertex -4.697219e-01  1.040834e-17  7.428180e-01
     vertex -4.483139e-01  1.040834e-17  7.696957e-01
   endloop
 endfacet
 facet normal  0.000000e+00  1.000000e+00  0.000000e+00
   outer loop
     vertex -2.893368e-01  1.040834e-17  6.328925e-01
     vertex -2.927423e-01  1.040834e-17  6.279588e-01
     vertex -4.697219e-01  1.040834e-17  7.428180e-01
   endloop
 endfacet
 facet normal  0.000000e+00  1.000000e+00  0.000000e+00
   outer loop
     vertex -2.521093e-01  1.040834e-17  5.999118e-01
     vertex  6.084660e-02  1.040834e-17 -1.008289e+00
     vertex -2.565966e-01  1.040834e-17  5.959364e-01
   endloop
 endfacet
 facet normal  0.000000e+00  1.000000e+00  0.000000e+00
   outer loop
     vertex -2.487038e-01  1.040834e-17  6.048456e-01
     vertex  6.084660e-02  1.040834e-17 -1.008289e+00
     vertex -2.521093e-01  1.040834e-17  5.999118e-01
   endloop
 endfacet
 facet normal  0.000000e+00  1.000000e+00  0.000000e+00
   outer loop
     vertex -4.240166e-01  1.040834e-17  7.939929e-01
     vertex -2.848495e-01  1.040834e-17  6.368679e-01
     vertex -2.893368e-01  1.040834e-17  6.328925e-01
   endloop
 endfacet
 facet normal  0.000000e+00  1.000000e+00  0.000000e+00
   outer loop
     vertex -4.240166e-01  1.040834e-17  7.939929e-01
     vertex -2.893368e-01  1.040834e-17  6.328925e-01
     vertex -4.483139e-01  1.040834e-17  7.696957e-01
   endloop
 endfacet
 facet normal  0.000000e+00  1.000000e+00  0.000000e+00
   outer loop
     vertex -3.971389e-01  1.040834e-17  8.154009e-01
     vertex -2.795413e-01  1.040834e-17  6.396539e-01
     vertex -2.848495e-01  1.040834e-17  6.368679e-01
   endloop
 endfacet
 facet normal  0.000000e+00  1.000000e+00  0.000000e+00
   outer loop
     vertex -3.971389e-01  1.040834e-17  8.154009e-01
     vertex -2.848495e-01  1.040834e-17  6.368679e-01
     vertex -4.240166e-01  1.040834e-17  7.939929e-01
   endloop
 endfacet
 facet normal  0.000000e+00  1.000000e+00  0.000000e+00
   outer loop
     vertex -3.680224e-01  1.040834e-17  8.336475e-01
     vertex -2.795413e-01  1.040834e-17  6.396539e-01
     vertex -3.971389e-01  1.040834e-17  8.154009e-01
   endloop
 endfacet
 facet normal  0.000000e+00  1.000000e+00  0.000000e+00
   outer loop
     vertex -3.370371e-01  1.040834e-17  8.485009e-01
     vertex -2.565966e-01  1.040834e-17  6.368679e-01
     vertex -2.619048e-01  1.040834e-17  6.396539e-01
   endloop
 endfacet
 facet normal  0.000000e+00  1.000000e+00  0.000000e+00
   outer loop
     vertex -3.370371e-01  1.040834e-17  8.485009e-01
     vertex -2.619048e-01  1.040834e-17  6.396539e-01
     vertex -2.677256e-01  1.040834e-17  6.410886e-01
   endloop
 endfacet
 facet normal  0.000000e+00  1.000000e+00  0.000000e+00
   outer loop
     vertex -3.370371e-01  1.040834e-17  8.485009e-01
     vertex -2.677256e-01  1.040834e-17  6.410886e-01
     vertex -2.737205e-01  1.040834e-17  6.410886e-01
   endloop
 endfacet
 facet normal  0.000000e+00  1.000000e+00  0.000000e+00
   outer loop
     vertex -3.370371e-01  1.040834e-17  8.485009e-01
     vertex -2.737205e-01  1.040834e-17  6.410886e-01
     vertex -2.795413e-01  1.040834e-17  6.396539e-01
   endloop
 endfacet
 facet normal  0.000000e+00  1.000000e+00  0.000000e+00
   outer loop
     vertex -3.370371e-01  1.040834e-17  8.485009e-01
     vertex -2.795413e-01  1.040834e-17  6.396539e-01
     vertex -3.680224e-01  1.040834e-17  8.336475e-01
   endloop
 endfacet
 facet normal  0.000000e+00  1.000000e+00  0.000000e+00
   outer loop
     vertex -3.038801e-01  1.040834e-17  9.148148e-01
     vertex -2.565966e-01  1.040834e-17  6.368679e-01
     vertex -3.370371e-01  1.040834e-17  8.485009e-01
   endloop
 endfacet
 facet normal  0.000000e+00  1.000000e+00  0.000000e+00
   outer loop
     vertex  6.084660e-02  1.040834e-17  9.148148e-01
     vertex -2.458553e-01  1.040834e-17  6.164022e-01
     vertex -2.465779e-01  1.040834e-17  6.223534e-01
   endloop
 endfacet
 facet normal  0.000000e+00  1.000000e+00  0.000000e+00
   outer loop
     vertex  6.084660e-02  1.040834e-17  9.148148e-01
     vertex -2.465779e-01  1.040834e-17  6.223534e-01
     vertex -2.487038e-01  1.040834e-17  6.279588e-01
   endloop
 endfacet
 facet normal  0.000000e+00  1.000000e+00  0.000000e+00
   outer loop
     vertex  6.084660e-02  1.040834e-17  9.148148e-01
     vertex -2.487038e-01  1.040834e-17  6.279588e-01
     vertex -2.521093e-01  1.040834e-17  6.328925e-01
   endloop
 endfacet
 facet normal  0.000000e+00  1.000000e+00  0.000000e+00
   outer loop
     vertex  6.084660e-02  1.040834e-17  9.148148e-01
     vertex -2.521093e-01  1.040834e-17  6.328925e-01
     vertex -2.565966e-01  1.040834e-17  6.368679e-01
   endloop
 endfacet
 facet normal  0.000000e+00  1.000000e+00  0.000000e+00
   outer loop
     vertex  6.084660e-02  1.040834e-17  9.148148e-01
     vertex -2.487038e-01  1.040834e-17  6.048456e-01
     vertex -2.465779e-01  1.040834e-17  6.104509e-01
   endloop
 endfacet
 facet normal  0.000000e+00  1.000000e+00  0.000000e+00
   outer loop
     vertex  6.084660e-02  1.040834e-17  9.148148e-01
     vertex  6.084660e-02  1.040834e-17 -1.008289e+00
     vertex -2.487038e-01  1.040834e-17  6.048456e-01
   endloop
 endfacet
 facet normal  0.000000e+00  1.000000e+00  0.000000e+00
   outer loop
     vertex  6.084660e-02  1.040834e-17  9.148148e-01
     vertex -2.465779e-01  1.040834e-17  6.104509e-01
     vertex -2.458553e-01  1.040834e-17  6.164022e-01
   endloop
 endfacet
 facet normal  0.000000e+00  1.000000e+00  0.000000e+00
   outer loop
     vertex  6.084660e-02  1.040834e-17  9.148148e-01
     vertex -2.565966e-01  1.040834e-17  6.368679e-01
     vertex -3.038801e-01  1.040834e-17  9.148148e-01
   endloop
 endfacet
 facet normal  0.000000e+00  1.000000e+00  0.000000e+00
   outer loop
     vertex -5.028219e-01  1.040834e-17  6.827161e-01
     vertex -5.111111e-01  1.040834e-17  5.500882e-01
     vertex -6.686067e-01  1.040834e-17 -1.008289e+00
   endloop
 endfacet
 facet normal  0.000000e+00  1.000000e+00  0.000000e+00
   outer loop
     vertex -5.111111e-01  1.040834e-17  5.500882e-01
     vertex -5.099068e-01  1.040834e-17  5.401695e-01
     vertex -6.686067e-01  1.040834e-17 -1.008289e+00
   endloop
 endfacet
 facet normal -8.944272e-01  0.000000e+00  4.472136e-01
   outer loop
     vertex -3.370371e-01 -1.587302e-02  8.485009e-01
     vertex -3.038801e-01 -1.587302e-01  9.148148e-01
     vertex -3.038801e-01 -1.587302e-02  9.148148e-01
   endloop
 endfacet
 facet normal -8.944272e-01  0.000000e+00  4.472136e-01
   outer loop
     vertex -3.370371e-01 -1.587302e-02  8.485009e-01
     vertex -3.370371e-01 -1.587302e-01  8.485009e-01
     vertex -3.038801e-01 -1.587302e-01  9.148148e-01
   endloop
 endfacet
 facet normal -9.927089e-01  0.000000e+00 -1.205367e-01
   outer loop
     vertex -4.294231e-01 -1.587302e-02  5.600070e-01
     vertex -4.282187e-01 -1.587302e-02  5.500882e-01
     vertex -4.282187e-01 -1.587302e-01  5.500882e-01
   endloop
 endfacet
 facet normal -9.927089e-01 -0.000000e+00 -1.205367e-01
   outer loop
     vertex -4.294231e-01 -1.587302e-02  5.600070e-01
     vertex -4.282187e-01 -1.587302e-01  5.500882e-01
     vertex -4.294231e-01 -1.587302e-01  5.600070e-01
   endloop
 endfacet
 facet normal -9.350162e-01 -0.000000e+00 -3.546049e-01
   outer loop
     vertex -4.329661e-01 -1.587302e-02  5.693493e-01
     vertex -4.294231e-01 -1.587302e-01  5.600070e-01
     vertex -4.329661e-01 -1.587302e-01  5.693493e-01
   endloop
 endfacet
 facet normal -9.350162e-01  0.000000e+00 -3.546049e-01
   outer loop
     vertex -4.329661e-01 -1.587302e-02  5.693493e-01
     vertex -4.294231e-01 -1.587302e-02  5.600070e-01
     vertex -4.294231e-01 -1.587302e-01  5.600070e-01
   endloop
 endfacet
 facet normal -8.229839e-01 -0.000000e+00 -5.680647e-01
   outer loop
     vertex -4.386420e-01 -1.587302e-02  5.775722e-01
     vertex -4.329661e-01 -1.587302e-01  5.693493e-01
     vertex -4.386420e-01 -1.587302e-01  5.775722e-01
   endloop
 endfacet
 facet normal -8.229839e-01  0.000000e+00 -5.680647e-01
   outer loop
     vertex -4.386420e-01 -1.587302e-02  5.775722e-01
     vertex -4.329661e-01 -1.587302e-02  5.693493e-01
     vertex -4.329661e-01 -1.587302e-01  5.693493e-01
   endloop
 endfacet
 facet normal -6.631227e-01 -0.000000e+00 -7.485107e-01
   outer loop
     vertex -4.461208e-01 -1.587302e-02  5.841978e-01
     vertex -4.386420e-01 -1.587302e-01  5.775722e-01
     vertex -4.461208e-01 -1.587302e-01  5.841978e-01
   endloop
 endfacet
 facet normal -6.631227e-01  0.000000e+00 -7.485107e-01
   outer loop
     vertex -4.461208e-01 -1.587302e-02  5.841978e-01
     vertex -4.386420e-01 -1.587302e-02  5.775722e-01
     vertex -4.386420e-01 -1.587302e-01  5.775722e-01
   endloop
 endfacet
 facet normal -4.647232e-01 -0.000000e+00 -8.854560e-01
   outer loop
     vertex -4.549679e-01 -1.587302e-02  5.888411e-01
     vertex -4.461208e-01 -1.587302e-01  5.841978e-01
     vertex -4.549679e-01 -1.587302e-01  5.888411e-01
   endloop
 endfacet
 facet normal -4.647232e-01  0.000000e+00 -8.854560e-01
   outer loop
     vertex -4.549679e-01 -1.587302e-02  5.888411e-01
     vertex -4.461208e-01 -1.587302e-02  5.841978e-01
     vertex -4.461208e-01 -1.587302e-01  5.841978e-01
   endloop
 endfacet
 facet normal -2.393157e-01 -0.000000e+00 -9.709418e-01
   outer loop
     vertex -4.646691e-01 -1.587302e-02  5.912323e-01
     vertex -4.549679e-01 -1.587302e-01  5.888411e-01
     vertex -4.646691e-01 -1.587302e-01  5.912323e-01
   endloop
 endfacet
 facet normal -2.393157e-01  0.000000e+00 -9.709418e-01
   outer loop
     vertex -4.646691e-01 -1.587302e-02  5.912323e-01
     vertex -4.549679e-01 -1.587302e-02  5.888411e-01
     vertex -4.549679e-01 -1.587302e-01  5.888411e-01
   endloop
 endfacet
 facet normal  0.000000e+00  0.000000e+00 -1.000000e+00
   outer loop
     vertex -4.746607e-01 -1.587302e-02  5.912323e-01
     vertex -4.646691e-01 -1.587302e-01  5.912323e-01
     vertex -4.746607e-01 -1.587302e-01  5.912323e-01
   endloop
 endfacet
 facet normal  0.000000e+00  0.000000e+00 -1.000000e+00
   outer loop
     vertex -4.746607e-01 -1.587302e-02  5.912323e-01
     vertex -4.646691e-01 -1.587302e-02  5.912323e-01
     vertex -4.646691e-01 -1.587302e-01  5.912323e-01
   endloop
 endfacet
 facet normal  2.393157e-01  0.000000e+00 -9.709418e-01
   outer loop
     vertex -4.843619e-01 -1.587302e-02  5.888411e-01
     vertex -4.746607e-01 -1.587302e-01  5.912323e-01
     vertex -4.843619e-01 -1.587302e-01  5.888411e-01
   endloop
 endfacet
 facet normal  2.393157e-01  0.000000e+00 -9.709418e-01
   outer loop
     vertex -4.843619e-01 -1.587302e-02  5.888411e-01
     vertex -4.746607e-01 -1.587302e-02  5.912323e-01
     vertex -4.746607e-01 -1.587302e-01  5.912323e-01
   endloop
 endfacet
 facet normal  4.647232e-01  0.000000e+00 -8.854560e-01
   outer loop
     vertex -4.932090e-01 -1.587302e-02  5.841978e-01
     vertex -4.843619e-01 -1.587302e-01  5.888411e-01
     vertex -4.932090e-01 -1.587302e-01  5.841978e-01
   endloop
 endfacet
 facet normal  4.647232e-01  0.000000e+00 -8.854560e-01
   outer loop
     vertex -4.932090e-01 -1.587302e-02  5.841978e-01
     vertex -4.843619e-01 -1.587302e-02  5.888411e-01
     vertex -4.843619e-01 -1.587302e-01  5.888411e-01
   endloop
 endfacet
 facet normal  6.631227e-01  0.000000e+00 -7.485107e-01
   outer loop
     vertex -5.006878e-01 -1.587302e-02  5.775722e-01
     vertex -4.932090e-01 -1.587302e-01  5.841978e-01
     vertex -5.006878e-01 -1.587302e-01  5.775722e-01
   endloop
 endfacet
 facet normal  6.631227e-01  0.000000e+00 -7.485107e-01
   outer loop
     vertex -5.006878e-01 -1.587302e-02  5.775722e-01
     vertex -4.932090e-01 -1.587302e-02  5.841978e-01
     vertex -4.932090e-01 -1.587302e-01  5.841978e-01
   endloop
 endfacet
 facet normal  8.229839e-01  0.000000e+00 -5.680647e-01
   outer loop
     vertex -5.063637e-01 -1.587302e-02  5.693493e-01
     vertex -5.006878e-01 -1.587302e-02  5.775722e-01
     vertex -5.006878e-01 -1.587302e-01  5.775722e-01
   endloop
 endfacet
 facet normal  8.229839e-01  0.000000e+00 -5.680647e-01
   outer loop
     vertex -5.063637e-01 -1.587302e-02  5.693493e-01
     vertex -5.006878e-01 -1.587302e-01  5.775722e-01
     vertex -5.063637e-01 -1.587302e-01  5.693493e-01
   endloop
 endfacet
 facet normal  9.350162e-01  0.000000e+00 -3.546049e-01
   outer loop
     vertex -5.099068e-01 -1.587302e-02  5.600070e-01
     vertex -5.063637e-01 -1.587302e-02  5.693493e-01
     vertex -5.063637e-01 -1.587302e-01  5.693493e-01
   endloop
 endfacet
 facet normal  9.350162e-01  0.000000e+00 -3.546049e-01
   outer loop
     vertex -5.099068e-01 -1.587302e-02  5.600070e-01
     vertex -5.063637e-01 -1.587302e-01  5.693493e-01
     vertex -5.099068e-01 -1.587302e-01  5.600070e-01
   endloop
 endfacet
 facet normal  9.927089e-01  0.000000e+00 -1.205367e-01
   outer loop
     vertex -5.111111e-01 -1.587302e-02  5.500882e-01
     vertex -5.099068e-01 -1.587302e-02  5.600070e-01
     vertex -5.099068e-01 -1.587302e-01  5.600070e-01
   endloop
 endfacet
 facet normal  9.927089e-01  0.000000e+00 -1.205367e-01
   outer loop
     vertex -5.111111e-01 -1.587302e-02  5.500882e-01
     vertex -5.099068e-01 -1.587302e-01  5.600070e-01
     vertex -5.111111e-01 -1.587302e-01  5.500882e-01
   endloop
 endfacet
 facet normal  9.927089e-01  0.000000e+00  1.205367e-01
   outer loop
     vertex -5.099068e-01 -1.587302e-02  5.401695e-01
     vertex -5.111111e-01 -1.587302e-01  5.500882e-01
     vertex -5.099068e-01 -1.587302e-01  5.401695e-01
   endloop
 endfacet
 facet normal  9.927089e-01  0.000000e+00  1.205367e-01
   outer loop
     vertex -5.099068e-01 -1.587302e-02  5.401695e-01
     vertex -5.111111e-01 -1.587302e-02  5.500882e-01
     vertex -5.111111e-01 -1.587302e-01  5.500882e-01
   endloop
 endfacet
 facet normal  9.350162e-01  0.000000e+00  3.546049e-01
   outer loop
     vertex -5.063637e-01 -1.587302e-02  5.308272e-01
     vertex -5.099068e-01 -1.587302e-02  5.401695e-01
     vertex -5.099068e-01 -1.587302e-01  5.401695e-01
   endloop
 endfacet
 facet normal  9.350162e-01  0.000000e+00  3.546049e-01
   outer loop
     vertex -5.063637e-01 -1.587302e-02  5.308272e-01
     vertex -5.099068e-01 -1.587302e-01  5.401695e-01
     vertex -5.063637e-01 -1.587302e-01  5.308272e-01
   endloop
 endfacet
 facet normal  8.229839e-01  0.000000e+00  5.680647e-01
   outer loop
     vertex -5.006878e-01 -1.587302e-02  5.226043e-01
     vertex -5.063637e-01 -1.587302e-01  5.308272e-01
     vertex -5.006878e-01 -1.587302e-01  5.226043e-01
   endloop
 endfacet
 facet normal  8.229839e-01  0.000000e+00  5.680647e-01
   outer loop
     vertex -5.006878e-01 -1.587302e-02  5.226043e-01
     vertex -5.063637e-01 -1.587302e-02  5.308272e-01
     vertex -5.063637e-01 -1.587302e-01  5.308272e-01
   endloop
 endfacet
 facet normal  6.631227e-01  0.000000e+00  7.485107e-01
   outer loop
     vertex -4.932090e-01 -1.587302e-02  5.159787e-01
     vertex -5.006878e-01 -1.587302e-01  5.226043e-01
     vertex -4.932090e-01 -1.587302e-01  5.159787e-01
   endloop
 endfacet
 facet normal  6.631227e-01  0.000000e+00  7.485107e-01
   outer loop
     vertex -4.932090e-01 -1.587302e-02  5.159787e-01
     vertex -5.006878e-01 -1.587302e-02  5.226043e-01
     vertex -5.006878e-01 -1.587302e-01  5.226043e-01
   endloop
 endfacet
 facet normal  4.647232e-01  0.000000e+00  8.854560e-01
   outer loop
     vertex -4.843619e-01 -1.587302e-02  5.113354e-01
     vertex -4.932090e-01 -1.587302e-01  5.159787e-01
     vertex -4.843619e-01 -1.587302e-01  5.113354e-01
   endloop
 endfacet
 facet normal  4.647232e-01  0.000000e+00  8.854560e-01
   outer loop
     vertex -4.843619e-01 -1.587302e-02  5.113354e-01
     vertex -4.932090e-01 -1.587302e-02  5.159787e-01
     vertex -4.932090e-01 -1.587302e-01  5.159787e-01
   endloop
 endfacet
 facet normal  2.393157e-01  0.000000e+00  9.709418e-01
   outer loop
     vertex -4.746607e-01 -1.587302e-02  5.089442e-01
     vertex -4.843619e-01 -1.587302e-01  5.113354e-01
     vertex -4.746607e-01 -1.587302e-01  5.089442e-01
   endloop
 endfacet
 facet normal  1.111159e-14  0.000000e+00  1.000000e+00
   outer loop
     vertex -4.746607e-01 -1.587302e-02  5.089442e-01
     vertex -4.746607e-01 -1.587302e-01  5.089442e-01
     vertex -4.646691e-01 -1.587302e-01  5.089442e-01
   endloop
 endfacet
 facet normal  2.393157e-01  0.000000e+00  9.709418e-01
   outer loop
     vertex -4.746607e-01 -1.587302e-02  5.089442e-01
     vertex -4.843619e-01 -1.587302e-02  5.113354e-01
     vertex -4.843619e-01 -1.587302e-01  5.113354e-01
   endloop
 endfacet
 facet normal  1.111159e-14  0.000000e+00  1.000000e+00
   outer loop
     vertex -4.646691e-01 -1.587302e-02  5.089442e-01
     vertex -4.746607e-01 -1.587302e-02  5.089442e-01
     vertex -4.646691e-01 -1.587302e-01  5.089442e-01
   endloop
 endfacet
 facet normal -2.393157e-01  0.000000e+00  9.709418e-01
   outer loop
     vertex -4.549679e-01 -1.587302e-02  5.113354e-01
     vertex -4.646691e-01 -1.587302e-01  5.089442e-01
     vertex -4.549679e-01 -1.587302e-01  5.113354e-01
   endloop
 endfacet
 facet normal -4.647232e-01  0.000000e+00  8.854560e-01
   outer loop
     vertex -4.549679e-01 -1.587302e-02  5.113354e-01
     vertex -4.549679e-01 -1.587302e-01  5.113354e-01
     vertex -4.461208e-01 -1.587302e-01  5.159787e-01
   endloop
 endfacet
 facet normal -2.393157e-01  0.000000e+00  9.709418e-01
   outer loop
     vertex -4.549679e-01 -1.587302e-02  5.113354e-01
     vertex -4.646691e-01 -1.587302e-02  5.089442e-01
     vertex -4.646691e-01 -1.587302e-01  5.089442e-01
   endloop
 endfacet
 facet normal -4.647232e-01  0.000000e+00  8.854560e-01
   outer loop
     vertex -4.461208e-01 -1.587302e-02  5.159787e-01
     vertex -4.549679e-01 -1.587302e-02  5.113354e-01
     vertex -4.461208e-01 -1.587302e-01  5.159787e-01
   endloop
 endfacet
 facet normal -6.631227e-01  0.000000e+00  7.485107e-01
   outer loop
     vertex -4.386420e-01 -1.587302e-02  5.226043e-01
     vertex -4.461208e-01 -1.587302e-01  5.159787e-01
     vertex -4.386420e-01 -1.587302e-01  5.226043e-01
   endloop
 endfacet
 facet normal -8.229839e-01  0.000000e+00  5.680647e-01
   outer loop
     vertex -4.386420e-01 -1.587302e-02  5.226043e-01
     vertex -4.386420e-01 -1.587302e-01  5.226043e-01
     vertex -4.329661e-01 -1.587302e-01  5.308272e-01
   endloop
 endfacet
 facet normal -6.631227e-01  0.000000e+00  7.485107e-01
   outer loop
     vertex -4.386420e-01 -1.587302e-02  5.226043e-01
     vertex -4.461208e-01 -1.587302e-02  5.159787e-01
     vertex -4.461208e-01 -1.587302e-01  5.159787e-01
   endloop
 endfacet
 facet normal -8.229839e-01  0.000000e+00  5.680647e-01
   outer loop
     vertex -4.329661e-01 -1.587302e-02  5.308272e-01
     vertex -4.386420e-01 -1.587302e-02  5.226043e-01
     vertex -4.329661e-01 -1.587302e-01  5.308272e-01
   endloop
 endfacet
 facet normal -9.350162e-01  0.000000e+00  3.546049e-01
   outer loop
     vertex -4.294231e-01 -1.587302e-02  5.401695e-01
     vertex -4.329661e-01 -1.587302e-01  5.308272e-01
     vertex -4.294231e-01 -1.587302e-01  5.401695e-01
   endloop
 endfacet
 facet normal -9.927089e-01  0.000000e+00  1.205367e-01
   outer loop
     vertex -4.294231e-01 -1.587302e-02  5.401695e-01
     vertex -4.294231e-01 -1.587302e-01  5.401695e-01
     vertex -4.282187e-01 -1.587302e-01  5.500882e-01
   endloop
 endfacet
 facet normal -9.350162e-01  0.000000e+00  3.546049e-01
   outer loop
     vertex -4.294231e-01 -1.587302e-02  5.401695e-01
     vertex -4.329661e-01 -1.587302e-02  5.308272e-01
     vertex -4.329661e-01 -1.587302e-01  5.308272e-01
   endloop
 endfacet
 facet normal -9.927089e-01  0.000000e+00  1.205367e-01
   outer loop
     vertex -4.282187e-01 -1.587302e-02  5.500882e-01
     vertex -4.294231e-01 -1.587302e-02  5.401695e-01
     vertex -4.282187e-01 -1.587302e-01  5.500882e-01
   endloop
 endfacet
 facet normal -9.927089e-01  0.000000e+00 -1.205367e-01
   outer loop
     vertex -2.465779e-01 -1.587302e-02  6.223534e-01
     vertex -2.458553e-01 -1.587302e-02  6.164022e-01
     vertex -2.458553e-01 -1.587302e-01  6.164022e-01
   endloop
 endfacet
 facet normal -9.927089e-01 -0.000000e+00 -1.205367e-01
   outer loop
     vertex -2.465779e-01 -1.587302e-02  6.223534e-01
     vertex -2.458553e-01 -1.587302e-01  6.164022e-01
     vertex -2.465779e-01 -1.587302e-01  6.223534e-01
   endloop
 endfacet
 facet normal -9.350162e-01 -0.000000e+00 -3.546049e-01
   outer loop
     vertex -2.487038e-01 -1.587302e-02  6.279588e-01
     vertex -2.465779e-01 -1.587302e-01  6.223534e-01
     vertex -2.487038e-01 -1.587302e-01  6.279588e-01
   endloop
 endfacet
 facet normal -9.350162e-01  0.000000e+00 -3.546049e-01
   outer loop
     vertex -2.487038e-01 -1.587302e-02  6.279588e-01
     vertex -2.465779e-01 -1.587302e-02  6.223534e-01
     vertex -2.465779e-01 -1.587302e-01  6.223534e-01
   endloop
 endfacet
 facet normal -8.229839e-01 -0.000000e+00 -5.680647e-01
   outer loop
     vertex -2.521093e-01 -1.587302e-02  6.328925e-01
     vertex -2.487038e-01 -1.587302e-01  6.279588e-01
     vertex -2.521093e-01 -1.587302e-01  6.328925e-01
   endloop
 endfacet
 facet normal -8.229839e-01  0.000000e+00 -5.680647e-01
   outer loop
     vertex -2.521093e-01 -1.587302e-02  6.328925e-01
     vertex -2.487038e-01 -1.587302e-02  6.279588e-01
     vertex -2.487038e-01 -1.587302e-01  6.279588e-01
   endloop
 endfacet
 facet normal -6.631227e-01 -0.000000e+00 -7.485107e-01
   outer loop
     vertex -2.565966e-01 -1.587302e-02  6.368679e-01
     vertex -2.521093e-01 -1.587302e-01  6.328925e-01
     vertex -2.565966e-01 -1.587302e-01  6.368679e-01
   endloop
 endfacet
 facet normal -6.631227e-01  0.000000e+00 -7.485107e-01
   outer loop
     vertex -2.565966e-01 -1.587302e-02  6.368679e-01
     vertex -2.521093e-01 -1.587302e-02  6.328925e-01
     vertex -2.521093e-01 -1.587302e-01  6.328925e-01
   endloop
 endfacet
 facet normal -4.647232e-01 -0.000000e+00 -8.854560e-01
   outer loop
     vertex -2.619048e-01 -1.587302e-02  6.396539e-01
     vertex -2.565966e-01 -1.587302e-01  6.368679e-01
     vertex -2.619048e-01 -1.587302e-01  6.396539e-01
   endloop
 endfacet
 facet normal -4.647232e-01  0.000000e+00 -8.854560e-01
   outer loop
     vertex -2.619048e-01 -1.587302e-02  6.396539e-01
     vertex -2.565966e-01 -1.587302e-02  6.368679e-01
     vertex -2.565966e-01 -1.587302e-01  6.368679e-01
   endloop
 endfacet
 facet normal -2.393157e-01 -0.000000e+00 -9.709418e-01
   outer loop
     vertex -2.677256e-01 -1.587302e-02  6.410886e-01
     vertex -2.619048e-01 -1.587302e-01  6.396539e-01
     vertex -2.677256e-01 -1.587302e-01  6.410886e-01
   endloop
 endfacet
 facet normal -2.393157e-01  0.000000e+00 -9.709418e-01
   outer loop
     vertex -2.677256e-01 -1.587302e-02  6.410886e-01
     vertex -2.619048e-01 -1.587302e-02  6.396539e-01
     vertex -2.619048e-01 -1.587302e-01  6.396539e-01
   endloop
 endfacet
 facet normal  0.000000e+00  0.000000e+00 -1.000000e+00
   outer loop
     vertex -2.737205e-01 -1.587302e-02  6.410886e-01
     vertex -2.677256e-01 -1.587302e-01  6.410886e-01
     vertex -2.737205e-01 -1.587302e-01  6.410886e-01
   endloop
 endfacet
 facet normal  0.000000e+00  0.000000e+00 -1.000000e+00
   outer loop
     vertex -2.737205e-01 -1.587302e-02  6.410886e-01
     vertex -2.677256e-01 -1.587302e-02  6.410886e-01
     vertex -2.677256e-01 -1.587302e-01  6.410886e-01
   endloop
 endfacet
 facet normal  2.393157e-01  0.000000e+00 -9.709418e-01
   outer loop
     vertex -2.795413e-01 -1.587302e-02  6.396539e-01
     vertex -2.737205e-01 -1.587302e-01  6.410886e-01
     vertex -2.795413e-01 -1.587302e-01  6.396539e-01
   endloop
 endfacet
 facet normal  2.393157e-01  0.000000e+00 -9.709418e-01
   outer loop
     vertex -2.795413e-01 -1.587302e-02  6.396539e-01
     vertex -2.737205e-01 -1.587302e-02  6.410886e-01
     vertex -2.737205e-01 -1.587302e-01  6.410886e-01
   endloop
 endfacet
 facet normal  4.647232e-01  0.000000e+00 -8.854560e-01
   outer loop
     vertex -2.848495e-01 -1.587302e-02  6.368679e-01
     vertex -2.795413e-01 -1.587302e-01  6.396539e-01
     vertex -2.848495e-01 -1.587302e-01  6.368679e-01
   endloop
 endfacet
 facet normal  4.647232e-01  0.000000e+00 -8.854560e-01
   outer loop
     vertex -2.848495e-01 -1.587302e-02  6.368679e-01
     vertex -2.795413e-01 -1.587302e-02  6.396539e-01
     vertex -2.795413e-01 -1.587302e-01  6.396539e-01
   endloop
 endfacet
 facet normal  6.631227e-01  0.000000e+00 -7.485107e-01
   outer loop
     vertex -2.893368e-01 -1.587302e-02  6.328925e-01
     vertex -2.848495e-01 -1.587302e-01  6.368679e-01
     vertex -2.893368e-01 -1.587302e-01  6.328925e-01
   endloop
 endfacet
 facet normal  6.631227e-01  0.000000e+00 -7.485107e-01
   outer loop
     vertex -2.893368e-01 -1.587302e-02  6.328925e-01
     vertex -2.848495e-01 -1.587302e-02  6.368679e-01
     vertex -2.848495e-01 -1.587302e-01  6.368679e-01
   endloop
 endfacet
 facet normal  8.229839e-01  0.000000e+00 -5.680647e-01
   outer loop
     vertex -2.927423e-01 -1.587302e-02  6.279588e-01
     vertex -2.893368e-01 -1.587302e-01  6.328925e-01
     vertex -2.927423e-01 -1.587302e-01  6.279588e-01
   endloop
 endfacet
 facet normal  8.229839e-01  0.000000e+00 -5.680647e-01
   outer loop
     vertex -2.927423e-01 -1.587302e-02  6.279588e-01
     vertex -2.893368e-01 -1.587302e-02  6.328925e-01
     vertex -2.893368e-01 -1.587302e-01  6.328925e-01
   endloop
 endfacet
 facet normal  9.350162e-01  0.000000e+00 -3.546049e-01
   outer loop
     vertex -2.948682e-01 -1.587302e-02  6.223534e-01
     vertex -2.927423e-01 -1.587302e-02  6.279588e-01
     vertex -2.927423e-01 -1.587302e-01  6.279588e-01
   endloop
 endfacet
 facet normal  9.350162e-01  0.000000e+00 -3.546049e-01
   outer loop
     vertex -2.948682e-01 -1.587302e-02  6.223534e-01
     vertex -2.927423e-01 -1.587302e-01  6.279588e-01
     vertex -2.948682e-01 -1.587302e-01  6.223534e-01
   endloop
 endfacet
 facet normal  9.927089e-01  0.000000e+00 -1.205367e-01
   outer loop
     vertex -2.955908e-01 -1.587302e-02  6.164022e-01
     vertex -2.948682e-01 -1.587302e-02  6.223534e-01
     vertex -2.948682e-01 -1.587302e-01  6.223534e-01
   endloop
 endfacet
 facet normal  9.927089e-01  0.000000e+00 -1.205367e-01
   outer loop
     vertex -2.955908e-01 -1.587302e-02  6.164022e-01
     vertex -2.948682e-01 -1.587302e-01  6.223534e-01
     vertex -2.955908e-01 -1.587302e-01  6.164022e-01
   endloop
 endfacet
 facet normal  9.927089e-01  0.000000e+00  1.205367e-01
   outer loop
     vertex -2.948682e-01 -1.587302e-02  6.104509e-01
     vertex -2.955908e-01 -1.587302e-01  6.164022e-01
     vertex -2.948682e-01 -1.587302e-01  6.104509e-01
   endloop
 endfacet
 facet normal  9.927089e-01  0.000000e+00  1.205367e-01
   outer loop
     vertex -2.948682e-01 -1.587302e-02  6.104509e-01
     vertex -2.955908e-01 -1.587302e-02  6.164022e-01
     vertex -2.955908e-01 -1.587302e-01  6.164022e-01
   endloop
 endfacet
 facet normal  9.350162e-01  0.000000e+00  3.546049e-01
   outer loop
     vertex -2.927423e-01 -1.587302e-02  6.048456e-01
     vertex -2.948682e-01 -1.587302e-01  6.104509e-01
     vertex -2.927423e-01 -1.587302e-01  6.048456e-01
   endloop
 endfacet
 facet normal  9.350162e-01  0.000000e+00  3.546049e-01
   outer loop
     vertex -2.927423e-01 -1.587302e-02  6.048456e-01
     vertex -2.948682e-01 -1.587302e-02  6.104509e-01
     vertex -2.948682e-01 -1.587302e-01  6.104509e-01
   endloop
 endfacet
 facet normal  8.229839e-01  0.000000e+00  5.680647e-01
   outer loop
     vertex -2.893368e-01 -1.587302e-02  5.999118e-01
     vertex -2.927423e-01 -1.587302e-01  6.048456e-01
     vertex -2.893368e-01 -1.587302e-01  5.999118e-01
   endloop
 endfacet
 facet normal  8.229839e-01  0.000000e+00  5.680647e-01
   outer loop
     vertex -2.893368e-01 -1.587302e-02  5.999118e-01
     vertex -2.927423e-01 -1.587302e-02  6.048456e-01
     vertex -2.927423e-01 -1.587302e-01  6.048456e-01
   endloop
 endfacet
 facet normal  6.631227e-01  0.000000e+00  7.485107e-01
   outer loop
     vertex -2.848495e-01 -1.587302e-02  5.959364e-01
     vertex -2.893368e-01 -1.587302e-01  5.999118e-01
     vertex -2.848495e-01 -1.587302e-01  5.959364e-01
   endloop
 endfacet
 facet normal  6.631227e-01  0.000000e+00  7.485107e-01
   outer loop
     vertex -2.848495e-01 -1.587302e-02  5.959364e-01
     vertex -2.893368e-01 -1.587302e-02  5.999118e-01
     vertex -2.893368e-01 -1.587302e-01  5.999118e-01
   endloop
 endfacet
 facet normal  4.647232e-01  0.000000e+00  8.854560e-01
   outer loop
     vertex -2.795413e-01 -1.587302e-02  5.931504e-01
     vertex -2.848495e-01 -1.587302e-01  5.959364e-01
     vertex -2.795413e-01 -1.587302e-01  5.931504e-01
   endloop
 endfacet
 facet normal  4.647232e-01  0.000000e+00  8.854560e-01
   outer loop
     vertex -2.795413e-01 -1.587302e-02  5.931504e-01
     vertex -2.848495e-01 -1.587302e-02  5.959364e-01
     vertex -2.848495e-01 -1.587302e-01  5.959364e-01
   endloop
 endfacet
 facet normal  2.393157e-01  0.000000e+00  9.709418e-01
   outer loop
     vertex -2.737205e-01 -1.587302e-02  5.917157e-01
     vertex -2.795413e-01 -1.587302e-01  5.931504e-01
     vertex -2.737205e-01 -1.587302e-01  5.917157e-01
   endloop
 endfacet
 facet normal  2.393157e-01  0.000000e+00  9.709418e-01
   outer loop
     vertex -2.737205e-01 -1.587302e-02  5.917157e-01
     vertex -2.795413e-01 -1.587302e-02  5.931504e-01
     vertex -2.795413e-01 -1.587302e-01  5.931504e-01
   endloop
 endfacet
 facet normal  0.000000e+00  0.000000e+00  1.000000e+00
   outer loop
     vertex -2.677256e-01 -1.587302e-02  5.917157e-01
     vertex -2.737205e-01 -1.587302e-01  5.917157e-01
     vertex -2.677256e-01 -1.587302e-01  5.917157e-01
   endloop
 endfacet
 facet normal  0.000000e+00  0.000000e+00  1.000000e+00
   outer loop
     vertex -2.677256e-01 -1.587302e-02  5.917157e-01
     vertex -2.737205e-01 -1.587302e-02  5.917157e-01
     vertex -2.737205e-01 -1.587302e-01  5.917157e-01
   endloop
 endfacet
 facet normal -2.393157e-01  0.000000e+00  9.709418e-01
   outer loop
     vertex -2.619048e-01 -1.587302e-02  5.931504e-01
     vertex -2.677256e-01 -1.587302e-01  5.917157e-01
     vertex -2.619048e-01 -1.587302e-01  5.931504e-01
   endloop
 endfacet
 facet normal -2.393157e-01  0.000000e+00  9.709418e-01
   outer loop
     vertex -2.619048e-01 -1.587302e-02  5.931504e-01
     vertex -2.677256e-01 -1.587302e-02  5.917157e-01
     vertex -2.677256e-01 -1.587302e-01  5.917157e-01
   endloop
 endfacet
 facet normal -4.647232e-01  0.000000e+00  8.854560e-01
   outer loop
     vertex -2.565966e-01 -1.587302e-02  5.959364e-01
     vertex -2.619048e-01 -1.587302e-01  5.931504e-01
     vertex -2.565966e-01 -1.587302e-01  5.959364e-01
   endloop
 endfacet
 facet normal -4.647232e-01  0.000000e+00  8.854560e-01
   outer loop
     vertex -2.565966e-01 -1.587302e-02  5.959364e-01
     vertex -2.619048e-01 -1.587302e-02  5.931504e-01
     vertex -2.619048e-01 -1.587302e-01  5.931504e-01
   endloop
 endfacet
 facet normal -6.631227e-01  0.000000e+00  7.485107e-01
   outer loop
     vertex -2.521093e-01 -1.587302e-02  5.999118e-01
     vertex -2.565966e-01 -1.587302e-01  5.959364e-01
     vertex -2.521093e-01 -1.587302e-01  5.999118e-01
   endloop
 endfacet
 facet normal -6.631227e-01  0.000000e+00  7.485107e-01
   outer loop
     vertex -2.521093e-01 -1.587302e-02  5.999118e-01
     vertex -2.565966e-01 -1.587302e-02  5.959364e-01
     vertex -2.565966e-01 -1.587302e-01  5.959364e-01
   endloop
 endfacet
 facet normal -8.229839e-01  0.000000e+00  5.680647e-01
   outer loop
     vertex -2.487038e-01 -1.587302e-02  6.048456e-01
     vertex -2.521093e-01 -1.587302e-01  5.999118e-01
     vertex -2.487038e-01 -1.587302e-01  6.048456e-01
   endloop
 endfacet
 facet normal -9.350162e-01  0.000000e+00  3.546049e-01
   outer loop
     vertex -2.487038e-01 -1.587302e-02  6.048456e-01
     vertex -2.487038e-01 -1.587302e-01  6.048456e-01
     vertex -2.465779e-01 -1.587302e-01  6.104509e-01
   endloop
 endfacet
 facet normal -8.229839e-01  0.000000e+00  5.680647e-01
   outer loop
     vertex -2.487038e-01 -1.587302e-02  6.048456e-01
     vertex -2.521093e-01 -1.587302e-02  5.999118e-01
     vertex -2.521093e-01 -1.587302e-01  5.999118e-01
   endloop
 endfacet
 facet normal -9.350162e-01  0.000000e+00  3.546049e-01
   outer loop
     vertex -2.465779e-01 -1.587302e-02  6.104509e-01
     vertex -2.487038e-01 -1.587302e-02  6.048456e-01
     vertex -2.465779e-01 -1.587302e-01  6.104509e-01
   endloop
 endfacet
 facet normal -9.927089e-01  0.000000e+00  1.205367e-01
   outer loop
     vertex -2.458553e-01 -1.587302e-02  6.164022e-01
     vertex -2.465779e-01 -1.587302e-01  6.104509e-01
     vertex -2.458553e-01 -1.587302e-01  6.164022e-01
   endloop
 endfacet
 facet normal -9.927089e-01  0.000000e+00  1.205367e-01
   outer loop
     vertex -2.458553e-01 -1.587302e-02  6.164022e-01
     vertex -2.465779e-01 -1.587302e-02  6.104509e-01
     vertex -2.465779e-01 -1.587302e-01  6.104509e-01
   endloop
 endfacet
 facet normal -4.322674e-01  0.000000e+00  9.017455e-01
   outer loop
     vertex -3.680224e-01 -1.587302e-02  8.336475e-01
     vertex -3.370371e-01 -1.587302e-02  8.485009e-01
     vertex -3.370371e-01  0.000000e+00  8.485009e-01
   endloop
 endfacet
 facet normal -4.322674e-01  0.000000e+00  9.017455e-01
   outer loop
     vertex -3.680224e-01 -1.587302e-02  8.336475e-01
     vertex -3.370371e-01  0.000000e+00  8.485009e-01
     vertex -3.680224e-01  0.000000e+00  8.336475e-01
   endloop
 endfacet
 facet normal -5.310195e-01  0.000000e+00  8.473596e-01
   outer loop
     vertex -3.971389e-01 -1.587302e-02  8.154009e-01
     vertex -3.680224e-01  0.000000e+00  8.336475e-01
     vertex -3.971389e-01  0.000000e+00  8.154009e-01
   endloop
 endfacet
 facet normal -5.310195e-01  0.000000e+00  8.473596e-01
   outer loop
     vertex -3.971389e-01 -1.587302e-02  8.154009e-01
     vertex -3.680224e-01 -1.587302e-02  8.336475e-01
     vertex -3.680224e-01  0.000000e+00  8.336475e-01
   endloop
 endfacet
 facet normal -6.230224e-01  0.000000e+00  7.822040e-01
   outer loop
     vertex -4.240166e-01 -1.587302e-02  7.939929e-01
     vertex -3.971389e-01  0.000000e+00  8.154009e-01
     vertex -4.240166e-01  0.000000e+00  7.939929e-01
   endloop
 endfacet
 facet normal -6.230224e-01  0.000000e+00  7.822040e-01
   outer loop
     vertex -4.240166e-01 -1.587302e-02  7.939929e-01
     vertex -3.971389e-01 -1.587302e-02  8.154009e-01
     vertex -3.971389e-01  0.000000e+00  8.154009e-01
   endloop
 endfacet
 facet normal -7.071068e-01  0.000000e+00  7.071067e-01
   outer loop
     vertex -4.483139e-01 -1.587302e-02  7.696957e-01
     vertex -4.240166e-01  0.000000e+00  7.939929e-01
     vertex -4.483139e-01  0.000000e+00  7.696957e-01
   endloop
 endfacet
 facet normal -7.071068e-01  0.000000e+00  7.071067e-01
   outer loop
     vertex -4.483139e-01 -1.587302e-02  7.696957e-01
     vertex -4.240166e-01 -1.587302e-02  7.939929e-01
     vertex -4.240166e-01  0.000000e+00  7.939929e-01
   endloop
 endfacet
 facet normal -7.822041e-01  0.000000e+00  6.230223e-01
   outer loop
     vertex -4.697219e-01 -1.587302e-02  7.428180e-01
     vertex -4.483139e-01  0.000000e+00  7.696957e-01
     vertex -4.697219e-01  0.000000e+00  7.428180e-01
   endloop
 endfacet
 facet normal -7.822041e-01  0.000000e+00  6.230223e-01
   outer loop
     vertex -4.697219e-01 -1.587302e-02  7.428180e-01
     vertex -4.483139e-01 -1.587302e-02  7.696957e-01
     vertex -4.483139e-01  0.000000e+00  7.696957e-01
   endloop
 endfacet
 facet normal -8.473597e-01  0.000000e+00  5.310193e-01
   outer loop
     vertex -4.879685e-01 -1.587302e-02  7.137014e-01
     vertex -4.697219e-01  0.000000e+00  7.428180e-01
     vertex -4.879685e-01  0.000000e+00  7.137014e-01
   endloop
 endfacet
 facet normal -8.473597e-01  0.000000e+00  5.310193e-01
   outer loop
     vertex -4.879685e-01 -1.587302e-02  7.137014e-01
     vertex -4.697219e-01 -1.587302e-02  7.428180e-01
     vertex -4.697219e-01  0.000000e+00  7.428180e-01
   endloop
 endfacet
 facet normal -9.017455e-01  0.000000e+00  4.322673e-01
   outer loop
     vertex -5.028219e-01 -1.587302e-02  6.827161e-01
     vertex -4.879685e-01  0.000000e+00  7.137014e-01
     vertex -5.028219e-01  0.000000e+00  6.827161e-01
   endloop
 endfacet
 facet normal -9.017455e-01  0.000000e+00  4.322673e-01
   outer loop
     vertex -5.028219e-01 -1.587302e-02  6.827161e-01
     vertex -4.879685e-01 -1.587302e-02  7.137014e-01
     vertex -4.879685e-01  0.000000e+00  7.137014e-01
   endloop
 endfacet
 facet normal  0.000000e+00  0.000000e+00  1.000000e+00
   outer loop
     vertex -3.038801e-01 -1.587302e-02  9.148148e-01
     vertex  6.084660e-02 -1.587302e-02  9.148148e-01
     vertex  6.084660e-02  0.000000e+00  9.148148e-01
   endloop
 endfacet
 facet normal  0.000000e+00  0.000000e+00  1.000000e+00
   outer loop
     vertex -3.038801e-01 -1.587302e-02  9.148148e-01
     vertex  6.084660e-02  0.000000e+00  9.148148e-01
     vertex -3.038801e-01  0.000000e+00  9.148148e-01
   endloop
 endfacet
 facet normal -8.944272e-01  0.000000e+00  4.472136e-01
   outer loop
     vertex -3.370371e-01 -1.587302e-02  8.485009e-01
     vertex -3.038801e-01 -1.587302e-02  9.148148e-01
     vertex -3.038801e-01  0.000000e+00  9.148148e-01
   endloop
 endfacet
 facet normal -8.944272e-01  0.000000e+00  4.472136e-01
   outer loop
     vertex -3.370371e-01 -1.587302e-02  8.485009e-01
     vertex -3.038801e-01  0.000000e+00  9.148148e-01
     vertex -3.370371e-01  0.000000e+00  8.485009e-01
   endloop
 endfacet
 facet normal -9.927089e-01  0.000000e+00 -1.205367e-01
   outer loop
     vertex -4.294231e-01 -1.587302e-02  5.600070e-01
     vertex -4.282187e-01  0.000000e+00  5.500882e-01
     vertex -4.282187e-01 -1.587302e-02  5.500882e-01
   endloop
 endfacet
 facet normal -9.927089e-01  0.000000e+00 -1.205367e-01
   outer loop
     vertex -4.294231e-01 -1.587302e-02  5.600070e-01
     vertex -4.294231e-01  0.000000e+00  5.600070e-01
     vertex -4.282187e-01  0.000000e+00  5.500882e-01
   endloop
 endfacet
 facet normal -9.350162e-01  0.000000e+00 -3.546049e-01
   outer loop
     vertex -4.329661e-01 -1.587302e-02  5.693493e-01
     vertex -4.329661e-01  0.000000e+00  5.693493e-01
     vertex -4.294231e-01  0.000000e+00  5.600070e-01
   endloop
 endfacet
 facet normal -9.350162e-01  0.000000e+00 -3.546049e-01
   outer loop
     vertex -4.329661e-01 -1.587302e-02  5.693493e-01
     vertex -4.294231e-01  0.000000e+00  5.600070e-01
     vertex -4.294231e-01 -1.587302e-02  5.600070e-01
   endloop
 endfacet
 facet normal -8.229839e-01  0.000000e+00 -5.680647e-01
   outer loop
     vertex -4.386420e-01 -1.587302e-02  5.775722e-01
     vertex -4.386420e-01  0.000000e+00  5.775722e-01
     vertex -4.329661e-01  0.000000e+00  5.693493e-01
   endloop
 endfacet
 facet normal -8.229839e-01  0.000000e+00 -5.680647e-01
   outer loop
     vertex -4.386420e-01 -1.587302e-02  5.775722e-01
     vertex -4.329661e-01  0.000000e+00  5.693493e-01
     vertex -4.329661e-01 -1.587302e-02  5.693493e-01
   endloop
 endfacet
 facet normal -6.631227e-01  0.000000e+00 -7.485107e-01
   outer loop
     vertex -4.461208e-01 -1.587302e-02  5.841978e-01
     vertex -4.461208e-01  0.000000e+00  5.841978e-01
     vertex -4.386420e-01  0.000000e+00  5.775722e-01
   endloop
 endfacet
 facet normal -6.631227e-01  0.000000e+00 -7.485107e-01
   outer loop
     vertex -4.461208e-01 -1.587302e-02  5.841978e-01
     vertex -4.386420e-01  0.000000e+00  5.775722e-01
     vertex -4.386420e-01 -1.587302e-02  5.775722e-01
   endloop
 endfacet
 facet normal -4.647232e-01  0.000000e+00 -8.854560e-01
   outer loop
     vertex -4.549679e-01 -1.587302e-02  5.888411e-01
     vertex -4.549679e-01  0.000000e+00  5.888411e-01
     vertex -4.461208e-01  0.000000e+00  5.841978e-01
   endloop
 endfacet
 facet normal -4.647232e-01  0.000000e+00 -8.854560e-01
   outer loop
     vertex -4.549679e-01 -1.587302e-02  5.888411e-01
     vertex -4.461208e-01  0.000000e+00  5.841978e-01
     vertex -4.461208e-01 -1.587302e-02  5.841978e-01
   endloop
 endfacet
 facet normal -2.393157e-01  0.000000e+00 -9.709418e-01
   outer loop
     vertex -4.646691e-01 -1.587302e-02  5.912323e-01
     vertex -4.646691e-01  0.000000e+00  5.912323e-01
     vertex -4.549679e-01  0.000000e+00  5.888411e-01
   endloop
 endfacet
 facet normal -2.393157e-01  0.000000e+00 -9.709418e-01
   outer loop
     vertex -4.646691e-01 -1.587302e-02  5.912323e-01
     vertex -4.549679e-01  0.000000e+00  5.888411e-01
     vertex -4.549679e-01 -1.587302e-02  5.888411e-01
   endloop
 endfacet
 facet normal  0.000000e+00  0.000000e+00 -1.000000e+00
   outer loop
     vertex -4.746607e-01 -1.587302e-02  5.912323e-01
     vertex -4.746607e-01  0.000000e+00  5.912323e-01
     vertex -4.646691e-01  0.000000e+00  5.912323e-01
   endloop
 endfacet
 facet normal  0.000000e+00  0.000000e+00 -1.000000e+00
   outer loop
     vertex -4.746607e-01 -1.587302e-02  5.912323e-01
     vertex -4.646691e-01  0.000000e+00  5.912323e-01
     vertex -4.646691e-01 -1.587302e-02  5.912323e-01
   endloop
 endfacet
 facet normal  2.393157e-01  0.000000e+00 -9.709418e-01
   outer loop
     vertex -4.843619e-01 -1.587302e-02  5.888411e-01
     vertex -4.843619e-01  0.000000e+00  5.888411e-01
     vertex -4.746607e-01  0.000000e+00  5.912323e-01
   endloop
 endfacet
 facet normal  2.393157e-01  0.000000e+00 -9.709418e-01
   outer loop
     vertex -4.843619e-01 -1.587302e-02  5.888411e-01
     vertex -4.746607e-01  0.000000e+00  5.912323e-01
     vertex -4.746607e-01 -1.587302e-02  5.912323e-01
   endloop
 endfacet
 facet normal  4.647232e-01  0.000000e+00 -8.854560e-01
   outer loop
     vertex -4.932090e-01 -1.587302e-02  5.841978e-01
     vertex -4.932090e-01  0.000000e+00  5.841978e-01
     vertex -4.843619e-01  0.000000e+00  5.888411e-01
   endloop
 endfacet
 facet normal  4.647232e-01  0.000000e+00 -8.854560e-01
   outer loop
     vertex -4.932090e-01 -1.587302e-02  5.841978e-01
     vertex -4.843619e-01  0.000000e+00  5.888411e-01
     vertex -4.843619e-01 -1.587302e-02  5.888411e-01
   endloop
 endfacet
 facet normal  6.631227e-01  0.000000e+00 -7.485107e-01
   outer loop
     vertex -5.006878e-01 -1.587302e-02  5.775722e-01
     vertex -5.006878e-01  0.000000e+00  5.775722e-01
     vertex -4.932090e-01  0.000000e+00  5.841978e-01
   endloop
 endfacet
 facet normal  6.631227e-01  0.000000e+00 -7.485107e-01
   outer loop
     vertex -5.006878e-01 -1.587302e-02  5.775722e-01
     vertex -4.932090e-01  0.000000e+00  5.841978e-01
     vertex -4.932090e-01 -1.587302e-02  5.841978e-01
   endloop
 endfacet
 facet normal  8.229839e-01  0.000000e+00 -5.680647e-01
   outer loop
     vertex -5.063637e-01 -1.587302e-02  5.693493e-01
     vertex -5.006878e-01  0.000000e+00  5.775722e-01
     vertex -5.006878e-01 -1.587302e-02  5.775722e-01
   endloop
 endfacet
 facet normal  8.229839e-01  0.000000e+00 -5.680647e-01
   outer loop
     vertex -5.063637e-01 -1.587302e-02  5.693493e-01
     vertex -5.063637e-01  0.000000e+00  5.693493e-01
     vertex -5.006878e-01  0.000000e+00  5.775722e-01
   endloop
 endfacet
 facet normal  9.350162e-01  0.000000e+00 -3.546049e-01
   outer loop
     vertex -5.099068e-01 -1.587302e-02  5.600070e-01
     vertex -5.063637e-01  0.000000e+00  5.693493e-01
     vertex -5.063637e-01 -1.587302e-02  5.693493e-01
   endloop
 endfacet
 facet normal  9.350162e-01  0.000000e+00 -3.546049e-01
   outer loop
     vertex -5.099068e-01 -1.587302e-02  5.600070e-01
     vertex -5.099068e-01  0.000000e+00  5.600070e-01
     vertex -5.063637e-01  0.000000e+00  5.693493e-01
   endloop
 endfacet
 facet normal  9.927089e-01  0.000000e+00 -1.205367e-01
   outer loop
     vertex -5.111111e-01 -1.587302e-02  5.500882e-01
     vertex -5.099068e-01  0.000000e+00  5.600070e-01
     vertex -5.099068e-01 -1.587302e-02  5.600070e-01
   endloop
 endfacet
 facet normal  9.927089e-01  0.000000e+00 -1.205367e-01
   outer loop
     vertex -5.111111e-01 -1.587302e-02  5.500882e-01
     vertex -5.111111e-01  0.000000e+00  5.500882e-01
     vertex -5.099068e-01  0.000000e+00  5.600070e-01
   endloop
 endfacet
 facet normal  9.927089e-01 -0.000000e+00  1.205367e-01
   outer loop
     vertex -5.099068e-01 -1.587302e-02  5.401695e-01
     vertex -5.099068e-01  0.000000e+00  5.401695e-01
     vertex -5.111111e-01  0.000000e+00  5.500882e-01
   endloop
 endfacet
 facet normal  9.927089e-01  0.000000e+00  1.205367e-01
   outer loop
     vertex -5.099068e-01 -1.587302e-02  5.401695e-01
     vertex -5.111111e-01  0.000000e+00  5.500882e-01
     vertex -5.111111e-01 -1.587302e-02  5.500882e-01
   endloop
 endfacet
 facet normal  9.350162e-01  0.000000e+00  3.546049e-01
   outer loop
     vertex -5.063637e-01 -1.587302e-02  5.308272e-01
     vertex -5.099068e-01  0.000000e+00  5.401695e-01
     vertex -5.099068e-01 -1.587302e-02  5.401695e-01
   endloop
 endfacet
 facet normal  9.350162e-01 -0.000000e+00  3.546049e-01
   outer loop
     vertex -5.063637e-01 -1.587302e-02  5.308272e-01
     vertex -5.063637e-01  0.000000e+00  5.308272e-01
     vertex -5.099068e-01  0.000000e+00  5.401695e-01
   endloop
 endfacet
 facet normal  8.229839e-01 -0.000000e+00  5.680647e-01
   outer loop
     vertex -5.006878e-01 -1.587302e-02  5.226043e-01
     vertex -5.006878e-01  0.000000e+00  5.226043e-01
     vertex -5.063637e-01  0.000000e+00  5.308272e-01
   endloop
 endfacet
 facet normal  8.229839e-01  0.000000e+00  5.680647e-01
   outer loop
     vertex -5.006878e-01 -1.587302e-02  5.226043e-01
     vertex -5.063637e-01  0.000000e+00  5.308272e-01
     vertex -5.063637e-01 -1.587302e-02  5.308272e-01
   endloop
 endfacet
 facet normal  6.631227e-01 -0.000000e+00  7.485107e-01
   outer loop
     vertex -4.932090e-01 -1.587302e-02  5.159787e-01
     vertex -4.932090e-01  0.000000e+00  5.159787e-01
     vertex -5.006878e-01  0.000000e+00  5.226043e-01
   endloop
 endfacet
 facet normal  6.631227e-01  0.000000e+00  7.485107e-01
   outer loop
     vertex -4.932090e-01 -1.587302e-02  5.159787e-01
     vertex -5.006878e-01  0.000000e+00  5.226043e-01
     vertex -5.006878e-01 -1.587302e-02  5.226043e-01
   endloop
 endfacet
 facet normal  4.647232e-01 -0.000000e+00  8.854560e-01
   outer loop
     vertex -4.843619e-01 -1.587302e-02  5.113354e-01
     vertex -4.843619e-01  0.000000e+00  5.113354e-01
     vertex -4.932090e-01  0.000000e+00  5.159787e-01
   endloop
 endfacet
 facet normal  4.647232e-01  0.000000e+00  8.854560e-01
   outer loop
     vertex -4.843619e-01 -1.587302e-02  5.113354e-01
     vertex -4.932090e-01  0.000000e+00  5.159787e-01
     vertex -4.932090e-01 -1.587302e-02  5.159787e-01
   endloop
 endfacet
 facet normal  2.393157e-01 -0.000000e+00  9.709418e-01
   outer loop
     vertex -4.746607e-01 -1.587302e-02  5.089442e-01
     vertex -4.746607e-01  0.000000e+00  5.089442e-01
     vertex -4.843619e-01  0.000000e+00  5.113354e-01
   endloop
 endfacet
 facet normal  2.393157e-01  0.000000e+00  9.709418e-01
   outer loop
     vertex -4.746607e-01 -1.587302e-02  5.089442e-01
     vertex -4.843619e-01  0.000000e+00  5.113354e-01
     vertex -4.843619e-01 -1.587302e-02  5.113354e-01
   endloop
 endfacet
 facet normal  1.111159e-14 -0.000000e+00  1.000000e+00
   outer loop
     vertex -4.646691e-01 -1.587302e-02  5.089442e-01
     vertex -4.646691e-01  0.000000e+00  5.089442e-01
     vertex -4.746607e-01  0.000000e+00  5.089442e-01
   endloop
 endfacet
 facet normal  1.111159e-14  0.000000e+00  1.000000e+00
   outer loop
     vertex -4.646691e-01 -1.587302e-02  5.089442e-01
     vertex -4.746607e-01  0.000000e+00  5.089442e-01
     vertex -4.746607e-01 -1.587302e-02  5.089442e-01
   endloop
 endfacet
 facet normal -2.393157e-01  0.000000e+00  9.709418e-01
   outer loop
     vertex -4.549679e-01 -1.587302e-02  5.113354e-01
     vertex -4.549679e-01  0.000000e+00  5.113354e-01
     vertex -4.646691e-01  0.000000e+00  5.089442e-01
   endloop
 endfacet
 facet normal -2.393157e-01  0.000000e+00  9.709418e-01
   outer loop
     vertex -4.549679e-01 -1.587302e-02  5.113354e-01
     vertex -4.646691e-01  0.000000e+00  5.089442e-01
     vertex -4.646691e-01 -1.587302e-02  5.089442e-01
   endloop
 endfacet
 facet normal -4.647232e-01  0.000000e+00  8.854560e-01
   outer loop
     vertex -4.461208e-01 -1.587302e-02  5.159787e-01
     vertex -4.461208e-01  0.000000e+00  5.159787e-01
     vertex -4.549679e-01  0.000000e+00  5.113354e-01
   endloop
 endfacet
 facet normal -4.647232e-01  0.000000e+00  8.854560e-01
   outer loop
     vertex -4.461208e-01 -1.587302e-02  5.159787e-01
     vertex -4.549679e-01  0.000000e+00  5.113354e-01
     vertex -4.549679e-01 -1.587302e-02  5.113354e-01
   endloop
 endfacet
 facet normal -6.631227e-01  0.000000e+00  7.485107e-01
   outer loop
     vertex -4.386420e-01 -1.587302e-02  5.226043e-01
     vertex -4.386420e-01  0.000000e+00  5.226043e-01
     vertex -4.461208e-01  0.000000e+00  5.159787e-01
   endloop
 endfacet
 facet normal -6.631227e-01  0.000000e+00  7.485107e-01
   outer loop
     vertex -4.386420e-01 -1.587302e-02  5.226043e-01
     vertex -4.461208e-01  0.000000e+00  5.159787e-01
     vertex -4.461208e-01 -1.587302e-02  5.159787e-01
   endloop
 endfacet
 facet normal -8.229839e-01  0.000000e+00  5.680647e-01
   outer loop
     vertex -4.329661e-01 -1.587302e-02  5.308272e-01
     vertex -4.329661e-01  0.000000e+00  5.308272e-01
     vertex -4.386420e-01  0.000000e+00  5.226043e-01
   endloop
 endfacet
 facet normal -8.229839e-01  0.000000e+00  5.680647e-01
   outer loop
     vertex -4.329661e-01 -1.587302e-02  5.308272e-01
     vertex -4.386420e-01  0.000000e+00  5.226043e-01
     vertex -4.386420e-01 -1.587302e-02  5.226043e-01
   endloop
 endfacet
 facet normal -9.350162e-01  0.000000e+00  3.546049e-01
   outer loop
     vertex -4.294231e-01 -1.587302e-02  5.401695e-01
     vertex -4.294231e-01  0.000000e+00  5.401695e-01
     vertex -4.329661e-01  0.000000e+00  5.308272e-01
   endloop
 endfacet
 facet normal -9.350162e-01  0.000000e+00  3.546049e-01
   outer loop
     vertex -4.294231e-01 -1.587302e-02  5.401695e-01
     vertex -4.329661e-01  0.000000e+00  5.308272e-01
     vertex -4.329661e-01 -1.587302e-02  5.308272e-01
   endloop
 endfacet
 facet normal -9.927089e-01  0.000000e+00  1.205367e-01
   outer loop
     vertex -4.282187e-01 -1.587302e-02  5.500882e-01
     vertex -4.282187e-01  0.000000e+00  5.500882e-01
     vertex -4.294231e-01  0.000000e+00  5.401695e-01
   endloop
 endfacet
 facet normal -9.927089e-01  0.000000e+00  1.205367e-01
   outer loop
     vertex -4.282187e-01 -1.587302e-02  5.500882e-01
     vertex -4.294231e-01  0.000000e+00  5.401695e-01
     vertex -4.294231e-01 -1.587302e-02  5.401695e-01
   endloop
 endfacet
 facet normal -9.927089e-01  0.000000e+00 -1.205367e-01
   outer loop
     vertex -2.465779e-01 -1.587302e-02  6.223534e-01
     vertex -2.458553e-01  0.000000e+00  6.164022e-01
     vertex -2.458553e-01 -1.587302e-02  6.164022e-01
   endloop
 endfacet
 facet normal -9.927089e-01  0.000000e+00 -1.205367e-01
   outer loop
     vertex -2.465779e-01 -1.587302e-02  6.223534e-01
     vertex -2.465779e-01  0.000000e+00  6.223534e-01
     vertex -2.458553e-01  0.000000e+00  6.164022e-01
   endloop
 endfacet
 facet normal -9.350162e-01  0.000000e+00 -3.546049e-01
   outer loop
     vertex -2.487038e-01 -1.587302e-02  6.279588e-01
     vertex -2.487038e-01  0.000000e+00  6.279588e-01
     vertex -2.465779e-01  0.000000e+00  6.223534e-01
   endloop
 endfacet
 facet normal -9.350162e-01  0.000000e+00 -3.546049e-01
   outer loop
     vertex -2.487038e-01 -1.587302e-02  6.279588e-01
     vertex -2.465779e-01  0.000000e+00  6.223534e-01
     vertex -2.465779e-01 -1.587302e-02  6.223534e-01
   endloop
 endfacet
 facet normal -8.229839e-01  0.000000e+00 -5.680647e-01
   outer loop
     vertex -2.521093e-01 -1.587302e-02  6.328925e-01
     vertex -2.521093e-01  0.000000e+00  6.328925e-01
     vertex -2.487038e-01  0.000000e+00  6.279588e-01
   endloop
 endfacet
 facet normal -8.229839e-01  0.000000e+00 -5.680647e-01
   outer loop
     vertex -2.521093e-01 -1.587302e-02  6.328925e-01
     vertex -2.487038e-01  0.000000e+00  6.279588e-01
     vertex -2.487038e-01 -1.587302e-02  6.279588e-01
   endloop
 endfacet
 facet normal -6.631227e-01  0.000000e+00 -7.485107e-01
   outer loop
     vertex -2.565966e-01 -1.587302e-02  6.368679e-01
     vertex -2.565966e-01  0.000000e+00  6.368679e-01
     vertex -2.521093e-01  0.000000e+00  6.328925e-01
   endloop
 endfacet
 facet normal -6.631227e-01  0.000000e+00 -7.485107e-01
   outer loop
     vertex -2.565966e-01 -1.587302e-02  6.368679e-01
     vertex -2.521093e-01  0.000000e+00  6.328925e-01
     vertex -2.521093e-01 -1.587302e-02  6.328925e-01
   endloop
 endfacet
 facet normal -4.647232e-01  0.000000e+00 -8.854560e-01
   outer loop
     vertex -2.619048e-01 -1.587302e-02  6.396539e-01
     vertex -2.619048e-01  0.000000e+00  6.396539e-01
     vertex -2.565966e-01  0.000000e+00  6.368679e-01
   endloop
 endfacet
 facet normal -4.647232e-01  0.000000e+00 -8.854560e-01
   outer loop
     vertex -2.619048e-01 -1.587302e-02  6.396539e-01
     vertex -2.565966e-01  0.000000e+00  6.368679e-01
     vertex -2.565966e-01 -1.587302e-02  6.368679e-01
   endloop
 endfacet
 facet normal -2.393157e-01  0.000000e+00 -9.709418e-01
   outer loop
     vertex -2.677256e-01 -1.587302e-02  6.410886e-01
     vertex -2.677256e-01  0.000000e+00  6.410886e-01
     vertex -2.619048e-01  0.000000e+00  6.396539e-01
   endloop
 endfacet
 facet normal -2.393157e-01  0.000000e+00 -9.709418e-01
   outer loop
     vertex -2.677256e-01 -1.587302e-02  6.410886e-01
     vertex -2.619048e-01  0.000000e+00  6.396539e-01
     vertex -2.619048e-01 -1.587302e-02  6.396539e-01
   endloop
 endfacet
 facet normal  0.000000e+00  0.000000e+00 -1.000000e+00
   outer loop
     vertex -2.737205e-01 -1.587302e-02  6.410886e-01
     vertex -2.737205e-01  0.000000e+00  6.410886e-01
     vertex -2.677256e-01  0.000000e+00  6.410886e-01
   endloop
 endfacet
 facet normal  0.000000e+00  0.000000e+00 -1.000000e+00
   outer loop
     vertex -2.737205e-01 -1.587302e-02  6.410886e-01
     vertex -2.677256e-01  0.000000e+00  6.410886e-01
     vertex -2.677256e-01 -1.587302e-02  6.410886e-01
   endloop
 endfacet
 facet normal  2.393157e-01  0.000000e+00 -9.709418e-01
   outer loop
     vertex -2.795413e-01 -1.587302e-02  6.396539e-01
     vertex -2.795413e-01  0.000000e+00  6.396539e-01
     vertex -2.737205e-01  0.000000e+00  6.410886e-01
   endloop
 endfacet
 facet normal  2.393157e-01  0.000000e+00 -9.709418e-01
   outer loop
     vertex -2.795413e-01 -1.587302e-02  6.396539e-01
     vertex -2.737205e-01  0.000000e+00  6.410886e-01
     vertex -2.737205e-01 -1.587302e-02  6.410886e-01
   endloop
 endfacet
 facet normal  4.647232e-01  0.000000e+00 -8.854560e-01
   outer loop
     vertex -2.848495e-01 -1.587302e-02  6.368679e-01
     vertex -2.848495e-01  0.000000e+00  6.368679e-01
     vertex -2.795413e-01  0.000000e+00  6.396539e-01
   endloop
 endfacet
 facet normal  4.647232e-01  0.000000e+00 -8.854560e-01
   outer loop
     vertex -2.848495e-01 -1.587302e-02  6.368679e-01
     vertex -2.795413e-01  0.000000e+00  6.396539e-01
     vertex -2.795413e-01 -1.587302e-02  6.396539e-01
   endloop
 endfacet
 facet normal  6.631227e-01  0.000000e+00 -7.485107e-01
   outer loop
     vertex -2.893368e-01 -1.587302e-02  6.328925e-01
     vertex -2.893368e-01  0.000000e+00  6.328925e-01
     vertex -2.848495e-01  0.000000e+00  6.368679e-01
   endloop
 endfacet
 facet normal  6.631227e-01  0.000000e+00 -7.485107e-01
   outer loop
     vertex -2.893368e-01 -1.587302e-02  6.328925e-01
     vertex -2.848495e-01  0.000000e+00  6.368679e-01
     vertex -2.848495e-01 -1.587302e-02  6.368679e-01
   endloop
 endfacet
 facet normal  8.229839e-01  0.000000e+00 -5.680647e-01
   outer loop
     vertex -2.927423e-01 -1.587302e-02  6.279588e-01
     vertex -2.927423e-01  0.000000e+00  6.279588e-01
     vertex -2.893368e-01  0.000000e+00  6.328925e-01
   endloop
 endfacet
 facet normal  8.229839e-01  0.000000e+00 -5.680647e-01
   outer loop
     vertex -2.927423e-01 -1.587302e-02  6.279588e-01
     vertex -2.893368e-01  0.000000e+00  6.328925e-01
     vertex -2.893368e-01 -1.587302e-02  6.328925e-01
   endloop
 endfacet
 facet normal  9.350162e-01  0.000000e+00 -3.546049e-01
   outer loop
     vertex -2.948682e-01 -1.587302e-02  6.223534e-01
     vertex -2.927423e-01  0.000000e+00  6.279588e-01
     vertex -2.927423e-01 -1.587302e-02  6.279588e-01
   endloop
 endfacet
 facet normal  9.350162e-01  0.000000e+00 -3.546049e-01
   outer loop
     vertex -2.948682e-01 -1.587302e-02  6.223534e-01
     vertex -2.948682e-01  0.000000e+00  6.223534e-01
     vertex -2.927423e-01  0.000000e+00  6.279588e-01
   endloop
 endfacet
 facet normal  9.927089e-01  0.000000e+00 -1.205367e-01
   outer loop
     vertex -2.955908e-01 -1.587302e-02  6.164022e-01
     vertex -2.948682e-01  0.000000e+00  6.223534e-01
     vertex -2.948682e-01 -1.587302e-02  6.223534e-01
   endloop
 endfacet
 facet normal  9.927089e-01  0.000000e+00 -1.205367e-01
   outer loop
     vertex -2.955908e-01 -1.587302e-02  6.164022e-01
     vertex -2.955908e-01  0.000000e+00  6.164022e-01
     vertex -2.948682e-01  0.000000e+00  6.223534e-01
   endloop
 endfacet
 facet normal  9.927089e-01 -0.000000e+00  1.205367e-01
   outer loop
     vertex -2.948682e-01 -1.587302e-02  6.104509e-01
     vertex -2.948682e-01  0.000000e+00  6.104509e-01
     vertex -2.955908e-01  0.000000e+00  6.164022e-01
   endloop
 endfacet
 facet normal  9.927089e-01  0.000000e+00  1.205367e-01
   outer loop
     vertex -2.948682e-01 -1.587302e-02  6.104509e-01
     vertex -2.955908e-01  0.000000e+00  6.164022e-01
     vertex -2.955908e-01 -1.587302e-02  6.164022e-01
   endloop
 endfacet
 facet normal  9.350162e-01 -0.000000e+00  3.546049e-01
   outer loop
     vertex -2.927423e-01 -1.587302e-02  6.048456e-01
     vertex -2.927423e-01  0.000000e+00  6.048456e-01
     vertex -2.948682e-01  0.000000e+00  6.104509e-01
   endloop
 endfacet
 facet normal  9.350162e-01  0.000000e+00  3.546049e-01
   outer loop
     vertex -2.927423e-01 -1.587302e-02  6.048456e-01
     vertex -2.948682e-01  0.000000e+00  6.104509e-01
     vertex -2.948682e-01 -1.587302e-02  6.104509e-01
   endloop
 endfacet
 facet normal  8.229839e-01 -0.000000e+00  5.680647e-01
   outer loop
     vertex -2.893368e-01 -1.587302e-02  5.999118e-01
     vertex -2.893368e-01  0.000000e+00  5.999118e-01
     vertex -2.927423e-01  0.000000e+00  6.048456e-01
   endloop
 endfacet
 facet normal  8.229839e-01  0.000000e+00  5.680647e-01
   outer loop
     vertex -2.893368e-01 -1.587302e-02  5.999118e-01
     vertex -2.927423e-01  0.000000e+00  6.048456e-01
     vertex -2.927423e-01 -1.587302e-02  6.048456e-01
   endloop
 endfacet
 facet normal  6.631227e-01 -0.000000e+00  7.485107e-01
   outer loop
     vertex -2.848495e-01 -1.587302e-02  5.959364e-01
     vertex -2.848495e-01  0.000000e+00  5.959364e-01
     vertex -2.893368e-01  0.000000e+00  5.999118e-01
   endloop
 endfacet
 facet normal  6.631227e-01  0.000000e+00  7.485107e-01
   outer loop
     vertex -2.848495e-01 -1.587302e-02  5.959364e-01
     vertex -2.893368e-01  0.000000e+00  5.999118e-01
     vertex -2.893368e-01 -1.587302e-02  5.999118e-01
   endloop
 endfacet
 facet normal  4.647232e-01 -0.000000e+00  8.854560e-01
   outer loop
     vertex -2.795413e-01 -1.587302e-02  5.931504e-01
     vertex -2.795413e-01  0.000000e+00  5.931504e-01
     vertex -2.848495e-01  0.000000e+00  5.959364e-01
   endloop
 endfacet
 facet normal  4.647232e-01  0.000000e+00  8.854560e-01
   outer loop
     vertex -2.795413e-01 -1.587302e-02  5.931504e-01
     vertex -2.848495e-01  0.000000e+00  5.959364e-01
     vertex -2.848495e-01 -1.587302e-02  5.959364e-01
   endloop
 endfacet
 facet normal  2.393157e-01 -0.000000e+00  9.709418e-01
   outer loop
     vertex -2.737205e-01 -1.587302e-02  5.917157e-01
     vertex -2.737205e-01  0.000000e+00  5.917157e-01
     vertex -2.795413e-01  0.000000e+00  5.931504e-01
   endloop
 endfacet
 facet normal  2.393157e-01  0.000000e+00  9.709418e-01
   outer loop
     vertex -2.737205e-01 -1.587302e-02  5.917157e-01
     vertex -2.795413e-01  0.000000e+00  5.931504e-01
     vertex -2.795413e-01 -1.587302e-02  5.931504e-01
   endloop
 endfacet
 facet normal  0.000000e+00 -0.000000e+00  1.000000e+00
   outer loop
     vertex -2.677256e-01 -1.587302e-02  5.917157e-01
     vertex -2.677256e-01  0.000000e+00  5.917157e-01
     vertex -2.737205e-01  0.000000e+00  5.917157e-01
   endloop
 endfacet
 facet normal  0.000000e+00  0.000000e+00  1.000000e+00
   outer loop
     vertex -2.677256e-01 -1.587302e-02  5.917157e-01
     vertex -2.737205e-01  0.000000e+00  5.917157e-01
     vertex -2.737205e-01 -1.587302e-02  5.917157e-01
   endloop
 endfacet
 facet normal -2.393157e-01  0.000000e+00  9.709418e-01
   outer loop
     vertex -2.619048e-01 -1.587302e-02  5.931504e-01
     vertex -2.619048e-01  0.000000e+00  5.931504e-01
     vertex -2.677256e-01  0.000000e+00  5.917157e-01
   endloop
 endfacet
 facet normal -2.393157e-01  0.000000e+00  9.709418e-01
   outer loop
     vertex -2.619048e-01 -1.587302e-02  5.931504e-01
     vertex -2.677256e-01  0.000000e+00  5.917157e-01
     vertex -2.677256e-01 -1.587302e-02  5.917157e-01
   endloop
 endfacet
 facet normal -4.647232e-01  0.000000e+00  8.854560e-01
   outer loop
     vertex -2.565966e-01 -1.587302e-02  5.959364e-01
     vertex -2.565966e-01  0.000000e+00  5.959364e-01
     vertex -2.619048e-01  0.000000e+00  5.931504e-01
   endloop
 endfacet
 facet normal -4.647232e-01  0.000000e+00  8.854560e-01
   outer loop
     vertex -2.565966e-01 -1.587302e-02  5.959364e-01
     vertex -2.619048e-01  0.000000e+00  5.931504e-01
     vertex -2.619048e-01 -1.587302e-02  5.931504e-01
   endloop
 endfacet
 facet normal -6.631227e-01  0.000000e+00  7.485107e-01
   outer loop
     vertex -2.521093e-01 -1.587302e-02  5.999118e-01
     vertex -2.521093e-01  0.000000e+00  5.999118e-01
     vertex -2.565966e-01  0.000000e+00  5.959364e-01
   endloop
 endfacet
 facet normal -6.631227e-01  0.000000e+00  7.485107e-01
   outer loop
     vertex -2.521093e-01 -1.587302e-02  5.999118e-01
     vertex -2.565966e-01  0.000000e+00  5.959364e-01
     vertex -2.565966e-01 -1.587302e-02  5.959364e-01
   endloop
 endfacet
 facet normal -8.229839e-01  0.000000e+00  5.680647e-01
   outer loop
     vertex -2.487038e-01 -1.587302e-02  6.048456e-01
     vertex -2.487038e-01  0.000000e+00  6.048456e-01
     vertex -2.521093e-01  0.000000e+00  5.999118e-01
   endloop
 endfacet
 facet normal -8.229839e-01  0.000000e+00  5.680647e-01
   outer loop
     vertex -2.487038e-01 -1.587302e-02  6.048456e-01
     vertex -2.521093e-01  0.000000e+00  5.999118e-01
     vertex -2.521093e-01 -1.587302e-02  5.999118e-01
   endloop
 endfacet
 facet normal -9.350162e-01  0.000000e+00  3.546049e-01
   outer loop
     vertex -2.465779e-01 -1.587302e-02  6.104509e-01
     vertex -2.465779e-01  0.000000e+00  6.104509e-01
     vertex -2.487038e-01  0.000000e+00  6.048456e-01
   endloop
 endfacet
 facet normal -9.350162e-01  0.000000e+00  3.546049e-01
   outer loop
     vertex -2.465779e-01 -1.587302e-02  6.104509e-01
     vertex -2.487038e-01  0.000000e+00  6.048456e-01
     vertex -2.487038e-01 -1.587302e-02  6.048456e-01
   endloop
 endfacet
 facet normal -9.927089e-01  0.000000e+00  1.205367e-01
   outer loop
     vertex -2.458553e-01 -1.587302e-02  6.164022e-01
     vertex -2.458553e-01  0.000000e+00  6.164022e-01
     vertex -2.465779e-01  0.000000e+00  6.104509e-01
   endloop
 endfacet
 facet normal -9.927089e-01  0.000000e+00  1.205367e-01
   outer loop
     vertex -2.458553e-01 -1.587302e-02  6.164022e-01
     vertex -2.465779e-01  0.000000e+00  6.104509e-01
     vertex -2.465779e-01 -1.587302e-02  6.104509e-01
   endloop
 endfacet
endsolid
