solid 
 facet normal  1.063568e-17  0.000000e+00 -1.000000e+00
   outer loop
     vertex  6.229631e-01 -3.174606e-02 -3.544986e-02
     vertex -2.945334e-02 -3.174609e-02 -3.544986e-02
     vertex -2.945334e-02 -1.587302e-02 -3.544986e-02
   endloop
 endfacet
 facet normal -0.000000e+00 -4.371495e-16 -1.000000e+00
   outer loop
     vertex  6.229631e-01 -1.587302e-02 -3.544986e-02
     vertex  6.229631e-01 -3.174606e-02 -3.544986e-02
     vertex -2.945334e-02 -1.587302e-02 -3.544986e-02
   endloop
 endfacet
 facet normal  0.000000e+00  0.000000e+00 -1.000000e+00
   outer loop
     vertex  6.229631e-01 -1.587302e-02 -3.544986e-02
     vertex -2.945334e-02 -1.587302e-02 -3.544986e-02
     vertex -2.945334e-02  0.000000e+00 -3.544986e-02
   endloop
 endfacet
 facet normal  1.063568e-17  4.371503e-16 -1.000000e+00
   outer loop
     vertex  6.229631e-01 -1.587302e-02 -3.544986e-02
     vertex -2.945334e-02  0.000000e+00 -3.544986e-02
     vertex  6.229631e-01  0.000000e+00 -3.544986e-02
   endloop
 endfacet
 facet normal  7.808688e-01  0.000000e+00  6.246950e-01
   outer loop
     vertex  6.229631e-01 -1.587302e-02 -3.544986e-02
     vertex  2.720837e-01  0.000000e+00  4.031494e-01
     vertex  2.720837e-01 -1.587302e-02  4.031494e-01
   endloop
 endfacet
 facet normal  7.808688e-01 -2.730856e-16  6.246950e-01
   outer loop
     vertex  6.229631e-01 -1.587302e-02 -3.544986e-02
     vertex  6.229631e-01  0.000000e+00 -3.544986e-02
     vertex  2.720837e-01  0.000000e+00  4.031494e-01
   endloop
 endfacet
 facet normal  7.808688e-01  0.000000e+00  6.246950e-01
   outer loop
     vertex  6.229631e-01 -3.174606e-02 -3.544986e-02
     vertex  2.720837e-01 -1.587302e-02  4.031494e-01
     vertex  2.720837e-01 -3.174606e-02  4.031494e-01
   endloop
 endfacet
 facet normal  7.808688e-01  2.730851e-16  6.246950e-01
   outer loop
     vertex  6.229631e-01 -3.174606e-02 -3.544986e-02
     vertex  6.229631e-01 -1.587302e-02 -3.544986e-02
     vertex  2.720837e-01 -1.587302e-02  4.031494e-01
   endloop
 endfacet
 facet normal  4.598290e-08 -1.000000e+00  3.678632e-08
   outer loop
     vertex  2.720837e-01 -3.174606e-02  4.031494e-01
     vertex -2.945334e-02 -3.174609e-02 -3.544986e-02
     vertex  6.229631e-01 -3.174606e-02 -3.544986e-02
   endloop
 endfacet
 facet normal -8.240419e-01  0.000000e+00  5.665288e-01
   outer loop
     vertex -2.945334e-02 -1.587302e-02 -3.544986e-02
     vertex  2.720837e-01 -3.174606e-02  4.031494e-01
     vertex  2.720837e-01 -1.587302e-02  4.031494e-01
   endloop
 endfacet
 facet normal -8.240419e-01  0.000000e+00  5.665288e-01
   outer loop
     vertex -2.945334e-02 -1.587302e-02 -3.544986e-02
     vertex -2.945334e-02 -3.174609e-02 -3.544986e-02
     vertex  2.720837e-01 -3.174606e-02  4.031494e-01
   endloop
 endfacet
 facet normal  0.000000e+00  1.000000e+00  0.000000e+00
   outer loop
     vertex  2.720837e-01  0.000000e+00  4.031494e-01
     vertex  6.229631e-01  0.000000e+00 -3.544986e-02
     vertex -2.945334e-02  0.000000e+00 -3.544986e-02
   endloop
 endfacet
 facet normal -8.240419e-01  0.000000e+00  5.665288e-01
   outer loop
     vertex -2.945334e-02 -1.587302e-02 -3.544986e-02
     vertex  2.720837e-01 -1.587302e-02  4.031494e-01
     vertex  2.720837e-01  0.000000e+00  4.031494e-01
   endloop
 endfacet
 facet normal -8.240419e-01  0.000000e+00  5.665288e-01
   outer loop
     vertex -2.945334e-02 -1.587302e-02 -3.544986e-02
     vertex  2.720837e-01  0.000000e+00  4.031494e-01
     vertex -2.945334e-02  0.000000e+00 -3.544986e-02
   endloop
 endfacet
 facet normal -0.000000e+00  0.000000e+00 -1.000000e+00
   outer loop
     vertex  9.229277e-01 -1.587302e-02 -3.544986e-02
     vertex  6.661376e-01 -3.174606e-02 -3.544986e-02
     vertex  6.661376e-01 -1.587302e-02 -3.544986e-02
   endloop
 endfacet
 facet normal  0.000000e+00 -0.000000e+00 -1.000000e+00
   outer loop
     vertex  9.229277e-01 -1.587302e-02 -3.544986e-02
     vertex  9.229277e-01 -3.174609e-02 -3.544986e-02
     vertex  6.661376e-01 -3.174606e-02 -3.544986e-02
   endloop
 endfacet
 facet normal  0.000000e+00  0.000000e+00 -1.000000e+00
   outer loop
     vertex  9.229277e-01 -1.587302e-02 -3.544986e-02
     vertex  6.661376e-01 -1.587302e-02 -3.544986e-02
     vertex  6.661376e-01  0.000000e+00 -3.544986e-02
   endloop
 endfacet
 facet normal  0.000000e+00  0.000000e+00 -1.000000e+00
   outer loop
     vertex  9.229277e-01 -1.587302e-02 -3.544986e-02
     vertex  6.661376e-01  0.000000e+00 -3.544986e-02
     vertex  9.229277e-01  0.000000e+00 -3.544986e-02
   endloop
 endfacet
 facet normal  8.240419e-01  0.000000e+00  5.665288e-01
   outer loop
     vertex  6.661376e-01 -3.174606e-02  3.380629e-01
     vertex  9.229277e-01 -3.174609e-02 -3.544986e-02
     vertex  9.229277e-01 -1.587302e-02 -3.544986e-02
   endloop
 endfacet
 facet normal  8.240419e-01  0.000000e+00  5.665288e-01
   outer loop
     vertex  6.661376e-01 -1.587302e-02  3.380629e-01
     vertex  6.661376e-01 -3.174606e-02  3.380629e-01
     vertex  9.229277e-01 -1.587302e-02 -3.544986e-02
   endloop
 endfacet
 facet normal -1.168270e-07 -1.000000e+00 -0.000000e+00
   outer loop
     vertex  6.661376e-01 -3.174606e-02  3.380629e-01
     vertex  6.661376e-01 -3.174606e-02 -3.544986e-02
     vertex  9.229277e-01 -3.174609e-02 -3.544986e-02
   endloop
 endfacet
 facet normal -1.000000e+00  0.000000e+00  0.000000e+00
   outer loop
     vertex  6.661376e-01 -1.587302e-02  3.380629e-01
     vertex  6.661376e-01  0.000000e+00 -3.544986e-02
     vertex  6.661376e-01 -1.587302e-02 -3.544986e-02
   endloop
 endfacet
 facet normal -1.000000e+00  0.000000e+00  0.000000e+00
   outer loop
     vertex  6.661376e-01 -1.587302e-02  3.380629e-01
     vertex  6.661376e-01  0.000000e+00  3.380629e-01
     vertex  6.661376e-01  0.000000e+00 -3.544986e-02
   endloop
 endfacet
 facet normal -1.000000e+00  0.000000e+00  0.000000e+00
   outer loop
     vertex  6.661376e-01 -3.174606e-02  3.380629e-01
     vertex  6.661376e-01 -1.587302e-02 -3.544986e-02
     vertex  6.661376e-01 -3.174606e-02 -3.544986e-02
   endloop
 endfacet
 facet normal -1.000000e+00  0.000000e+00  0.000000e+00
   outer loop
     vertex  6.661376e-01 -3.174606e-02  3.380629e-01
     vertex  6.661376e-01 -1.587302e-02  3.380629e-01
     vertex  6.661376e-01 -1.587302e-02 -3.544986e-02
   endloop
 endfacet
 facet normal  8.240419e-01  0.000000e+00  5.665288e-01
   outer loop
     vertex  6.661376e-01 -1.587302e-02  3.380629e-01
     vertex  9.229277e-01 -1.587302e-02 -3.544986e-02
     vertex  9.229277e-01  0.000000e+00 -3.544986e-02
   endloop
 endfacet
 facet normal  8.240419e-01 -0.000000e+00  5.665288e-01
   outer loop
     vertex  6.661376e-01 -1.587302e-02  3.380629e-01
     vertex  9.229277e-01  0.000000e+00 -3.544986e-02
     vertex  6.661376e-01  0.000000e+00  3.380629e-01
   endloop
 endfacet
 facet normal  0.000000e+00  1.000000e+00  0.000000e+00
   outer loop
     vertex  6.661376e-01  0.000000e+00  3.380629e-01
     vertex  9.229277e-01  0.000000e+00 -3.544986e-02
     vertex  6.661376e-01  0.000000e+00 -3.544986e-02
   endloop
 endfacet
 facet normal  1.231487e-22 -1.000000e+00 -5.558838e-07
   outer loop
     vertex  5.720237e-01 -3.174606e-02  4.749559e-01
     vertex  3.585537e-01 -3.174609e-02  5.289240e-01
     vertex  3.214507e-01 -3.174606e-02  4.749559e-01
   endloop
 endfacet
 facet normal -0.000000e+00 -1.000000e+00 -5.558838e-07
   outer loop
     vertex  5.349206e-01 -3.174609e-02  5.289240e-01
     vertex  3.585537e-01 -3.174609e-02  5.289240e-01
     vertex  5.720237e-01 -3.174606e-02  4.749559e-01
   endloop
 endfacet
 facet normal -8.240419e-01  0.000000e+00  5.665288e-01
   outer loop
     vertex  3.214507e-01 -3.174606e-02  4.749559e-01
     vertex  3.585537e-01 -3.174609e-02  5.289240e-01
     vertex  3.585537e-01 -1.587302e-02  5.289240e-01
   endloop
 endfacet
 facet normal -8.240419e-01  3.782410e-15  5.665288e-01
   outer loop
     vertex  3.214507e-01 -1.587302e-02  4.749559e-01
     vertex  3.214507e-01 -3.174606e-02  4.749559e-01
     vertex  3.585537e-01 -1.587302e-02  5.289240e-01
   endloop
 endfacet
 facet normal -0.000000e+00  0.000000e+00  1.000000e+00
   outer loop
     vertex  3.585537e-01 -1.587302e-02  5.289240e-01
     vertex  5.349206e-01 -3.174609e-02  5.289240e-01
     vertex  5.349206e-01 -1.587302e-02  5.289240e-01
   endloop
 endfacet
 facet normal  0.000000e+00  0.000000e+00  1.000000e+00
   outer loop
     vertex  3.585537e-01 -1.587302e-02  5.289240e-01
     vertex  3.585537e-01 -3.174609e-02  5.289240e-01
     vertex  5.349206e-01 -3.174609e-02  5.289240e-01
   endloop
 endfacet
 facet normal  8.240419e-01  0.000000e+00  5.665288e-01
   outer loop
     vertex  5.349206e-01 -1.587302e-02  5.289240e-01
     vertex  5.720237e-01 -3.174606e-02  4.749559e-01
     vertex  5.720237e-01 -1.587302e-02  4.749559e-01
   endloop
 endfacet
 facet normal  8.240419e-01  0.000000e+00  5.665288e-01
   outer loop
     vertex  5.349206e-01 -1.587302e-02  5.289240e-01
     vertex  5.349206e-01 -3.174609e-02  5.289240e-01
     vertex  5.720237e-01 -3.174606e-02  4.749559e-01
   endloop
 endfacet
 facet normal  0.000000e+00  0.000000e+00 -1.000000e+00
   outer loop
     vertex  3.214507e-01 -1.587302e-02  4.749559e-01
     vertex  5.720237e-01  0.000000e+00  4.749559e-01
     vertex  5.720237e-01 -1.587302e-02  4.749559e-01
   endloop
 endfacet
 facet normal  2.215368e-16 -3.497203e-15 -1.000000e+00
   outer loop
     vertex  3.214507e-01 -1.587302e-02  4.749559e-01
     vertex  3.214507e-01  0.000000e+00  4.749559e-01
     vertex  5.720237e-01  0.000000e+00  4.749559e-01
   endloop
 endfacet
 facet normal  2.215368e-16  0.000000e+00 -1.000000e+00
   outer loop
     vertex  3.214507e-01 -3.174606e-02  4.749559e-01
     vertex  5.720237e-01 -1.587302e-02  4.749559e-01
     vertex  5.720237e-01 -3.174606e-02  4.749559e-01
   endloop
 endfacet
 facet normal  0.000000e+00  3.497196e-15 -1.000000e+00
   outer loop
     vertex  3.214507e-01 -3.174606e-02  4.749559e-01
     vertex  3.214507e-01 -1.587302e-02  4.749559e-01
     vertex  5.720237e-01 -1.587302e-02  4.749559e-01
   endloop
 endfacet
 facet normal -8.240419e-01  0.000000e+00  5.665288e-01
   outer loop
     vertex  3.214507e-01 -1.587302e-02  4.749559e-01
     vertex  3.585537e-01 -1.587302e-02  5.289240e-01
     vertex  3.585537e-01  0.000000e+00  5.289240e-01
   endloop
 endfacet
 facet normal -8.240419e-01 -3.782417e-15  5.665288e-01
   outer loop
     vertex  3.214507e-01 -1.587302e-02  4.749559e-01
     vertex  3.585537e-01  0.000000e+00  5.289240e-01
     vertex  3.214507e-01  0.000000e+00  4.749559e-01
   endloop
 endfacet
 facet normal  0.000000e+00  0.000000e+00  1.000000e+00
   outer loop
     vertex  3.585537e-01 -1.587302e-02  5.289240e-01
     vertex  5.349206e-01 -1.587302e-02  5.289240e-01
     vertex  5.349206e-01  0.000000e+00  5.289240e-01
   endloop
 endfacet
 facet normal  0.000000e+00  0.000000e+00  1.000000e+00
   outer loop
     vertex  3.585537e-01 -1.587302e-02  5.289240e-01
     vertex  5.349206e-01  0.000000e+00  5.289240e-01
     vertex  3.585537e-01  0.000000e+00  5.289240e-01
   endloop
 endfacet
 facet normal  8.240419e-01  0.000000e+00  5.665288e-01
   outer loop
     vertex  5.349206e-01 -1.587302e-02  5.289240e-01
     vertex  5.720237e-01 -1.587302e-02  4.749559e-01
     vertex  5.720237e-01  0.000000e+00  4.749559e-01
   endloop
 endfacet
 facet normal  8.240419e-01 -0.000000e+00  5.665288e-01
   outer loop
     vertex  5.349206e-01 -1.587302e-02  5.289240e-01
     vertex  5.720237e-01  0.000000e+00  4.749559e-01
     vertex  5.349206e-01  0.000000e+00  5.289240e-01
   endloop
 endfacet
 facet normal  0.000000e+00  1.000000e+00  0.000000e+00
   outer loop
     vertex  5.720237e-01  0.000000e+00  4.749559e-01
     vertex  3.214507e-01  0.000000e+00  4.749559e-01
     vertex  3.585537e-01  0.000000e+00  5.289240e-01
   endloop
 endfacet
 facet normal  0.000000e+00  1.000000e+00  0.000000e+00
   outer loop
     vertex  5.349206e-01  0.000000e+00  5.289240e-01
     vertex  5.720237e-01  0.000000e+00  4.749559e-01
     vertex  3.585537e-01  0.000000e+00  5.289240e-01
   endloop
 endfacet
endsolid
