solid 
 facet normal  0.000000e+00 -1.000000e+00  0.000000e+00
   outer loop
     vertex -6.613754e-02 -3.650790e-02 -1.587302e-02
     vertex -7.460314e-02 -3.650790e-02  9.841270e-01
     vertex -7.460314e-02 -3.650790e-02 -1.587302e-02
   endloop
 endfacet
 facet normal  0.000000e+00 -1.000000e+00  0.000000e+00
   outer loop
     vertex -6.613754e-02 -3.650790e-02 -1.587302e-02
     vertex -6.613754e-02 -3.650790e-02  9.841270e-01
     vertex -7.460314e-02 -3.650790e-02  9.841270e-01
   endloop
 endfacet
 facet normal -1.000000e+00  0.000000e+00  0.000000e+00
   outer loop
     vertex -7.460314e-02 -3.650790e-02 -1.587302e-02
     vertex -7.460314e-02 -2.522042e-02  9.841270e-01
     vertex -7.460314e-02 -2.522042e-02 -1.587302e-02
   endloop
 endfacet
 facet normal -1.000000e+00  0.000000e+00  0.000000e+00
   outer loop
     vertex -7.460314e-02 -3.650790e-02 -1.587302e-02
     vertex -7.460314e-02 -3.650790e-02  9.841270e-01
     vertex -7.460314e-02 -2.522042e-02  9.841270e-01
   endloop
 endfacet
 facet normal  1.000000e+00  0.000000e+00  0.000000e+00
   outer loop
     vertex -6.613754e-02 -2.945323e-02 -1.587302e-02
     vertex -6.613754e-02 -3.650790e-02  9.841270e-01
     vertex -6.613754e-02 -3.650790e-02 -1.587302e-02
   endloop
 endfacet
 facet normal  1.000000e+00  0.000000e+00 -0.000000e+00
   outer loop
     vertex -6.613754e-02 -2.945323e-02 -1.587302e-02
     vertex -6.613754e-02 -2.945323e-02  9.841270e-01
     vertex -6.613754e-02 -3.650790e-02  9.841270e-01
   endloop
 endfacet
 facet normal -0.000000e+00 -1.000000e+00  0.000000e+00
   outer loop
     vertex -6.613754e-02 -3.650790e-02 -1.587302e-02
     vertex -7.460314e-02 -3.650790e-02 -1.587302e-02
     vertex -7.460314e-02 -3.650790e-02 -3.174603e-02
   endloop
 endfacet
 facet normal  0.000000e+00 -1.000000e+00 -0.000000e+00
   outer loop
     vertex -6.613754e-02 -3.650790e-02 -1.587302e-02
     vertex -7.460314e-02 -3.650790e-02 -3.174603e-02
     vertex -6.613754e-02 -3.650790e-02 -3.174603e-02
   endloop
 endfacet
 facet normal  0.000000e+00  0.000000e+00  1.000000e+00
   outer loop
     vertex -6.613754e-02 -2.945323e-02  9.841270e-01
     vertex -7.460314e-02 -3.650790e-02  9.841270e-01
     vertex -6.613754e-02 -3.650790e-02  9.841270e-01
   endloop
 endfacet
 facet normal  0.000000e+00  0.000000e+00  1.000000e+00
   outer loop
     vertex -6.613754e-02 -2.945323e-02  9.841270e-01
     vertex -7.460314e-02 -2.522042e-02  9.841270e-01
     vertex -7.460314e-02 -3.650790e-02  9.841270e-01
   endloop
 endfacet
 facet normal  0.000000e+00  0.000000e+00  1.000000e+00
   outer loop
     vertex  1.287481e-02 -3.650790e-02  9.841270e-01
     vertex  4.409205e-03 -2.945323e-02  9.841270e-01
     vertex  4.409205e-03 -3.650790e-02  9.841270e-01
   endloop
 endfacet
 facet normal  0.000000e+00  0.000000e+00  1.000000e+00
   outer loop
     vertex  1.287481e-02 -2.522042e-02  9.841270e-01
     vertex  4.409205e-03 -2.945323e-02  9.841270e-01
     vertex  1.287481e-02 -3.650790e-02  9.841270e-01
   endloop
 endfacet
 facet normal  0.000000e+00  0.000000e+00  1.000000e+00
   outer loop
     vertex  1.287481e-02 -2.522042e-02  9.841270e-01
     vertex -7.460314e-02 -2.522042e-02  9.841270e-01
     vertex -6.613754e-02 -2.945323e-02  9.841270e-01
   endloop
 endfacet
 facet normal  0.000000e+00  0.000000e+00  1.000000e+00
   outer loop
     vertex  1.287481e-02 -2.522042e-02  9.841270e-01
     vertex -6.613754e-02 -2.945323e-02  9.841270e-01
     vertex  4.409205e-03 -2.945323e-02  9.841270e-01
   endloop
 endfacet
 facet normal  0.000000e+00  1.000000e+00  0.000000e+00
   outer loop
     vertex -7.460314e-02 -2.522042e-02 -1.587302e-02
     vertex  1.287481e-02 -2.522042e-02  9.841270e-01
     vertex  1.287481e-02 -2.522042e-02 -1.587302e-02
   endloop
 endfacet
 facet normal  0.000000e+00  1.000000e+00  0.000000e+00
   outer loop
     vertex -7.460314e-02 -2.522042e-02 -1.587302e-02
     vertex -7.460314e-02 -2.522042e-02  9.841270e-01
     vertex  1.287481e-02 -2.522042e-02  9.841270e-01
   endloop
 endfacet
 facet normal -1.000000e+00  0.000000e+00  0.000000e+00
   outer loop
     vertex -7.460314e-02 -3.650790e-02 -1.587302e-02
     vertex -7.460314e-02 -2.522042e-02 -1.587302e-02
     vertex -7.460314e-02 -2.522042e-02 -3.174603e-02
   endloop
 endfacet
 facet normal -1.000000e+00  0.000000e+00  0.000000e+00
   outer loop
     vertex -7.460314e-02 -3.650790e-02 -1.587302e-02
     vertex -7.460314e-02 -2.522042e-02 -3.174603e-02
     vertex -7.460314e-02 -3.650790e-02 -3.174603e-02
   endloop
 endfacet
 facet normal  0.000000e+00 -1.000000e+00  0.000000e+00
   outer loop
     vertex  4.409205e-03 -2.945323e-02 -1.587302e-02
     vertex -6.613754e-02 -2.945323e-02  9.841270e-01
     vertex -6.613754e-02 -2.945323e-02 -1.587302e-02
   endloop
 endfacet
 facet normal  0.000000e+00 -1.000000e+00  0.000000e+00
   outer loop
     vertex  4.409205e-03 -2.945323e-02 -1.587302e-02
     vertex  4.409205e-03 -2.945323e-02  9.841270e-01
     vertex -6.613754e-02 -2.945323e-02  9.841270e-01
   endloop
 endfacet
 facet normal  1.000000e+00  0.000000e+00  0.000000e+00
   outer loop
     vertex -6.613754e-02 -2.945323e-02 -1.587302e-02
     vertex -6.613754e-02 -3.650790e-02 -1.587302e-02
     vertex -6.613754e-02 -3.650790e-02 -3.174603e-02
   endloop
 endfacet
 facet normal  1.000000e+00  0.000000e+00  0.000000e+00
   outer loop
     vertex -6.613754e-02 -2.945323e-02 -1.587302e-02
     vertex -6.613754e-02 -3.650790e-02 -3.174603e-02
     vertex -6.613754e-02 -2.945323e-02 -3.174603e-02
   endloop
 endfacet
 facet normal  0.000000e+00 -0.000000e+00 -1.000000e+00
   outer loop
     vertex -6.613754e-02 -2.945323e-02 -3.174603e-02
     vertex -6.613754e-02 -3.650790e-02 -3.174603e-02
     vertex -7.460314e-02 -3.650790e-02 -3.174603e-02
   endloop
 endfacet
 facet normal -0.000000e+00  0.000000e+00 -1.000000e+00
   outer loop
     vertex -6.613754e-02 -2.945323e-02 -3.174603e-02
     vertex -7.460314e-02 -3.650790e-02 -3.174603e-02
     vertex -7.460314e-02 -2.522042e-02 -3.174603e-02
   endloop
 endfacet
 facet normal  0.000000e+00  0.000000e+00 -1.000000e+00
   outer loop
     vertex  1.287481e-02 -3.650790e-02 -3.174603e-02
     vertex  4.409205e-03 -3.650790e-02 -3.174603e-02
     vertex  4.409205e-03 -2.945323e-02 -3.174603e-02
   endloop
 endfacet
 facet normal  0.000000e+00 -0.000000e+00 -1.000000e+00
   outer loop
     vertex  1.287481e-02 -2.522042e-02 -3.174603e-02
     vertex  1.287481e-02 -3.650790e-02 -3.174603e-02
     vertex  4.409205e-03 -2.945323e-02 -3.174603e-02
   endloop
 endfacet
 facet normal -0.000000e+00  0.000000e+00 -1.000000e+00
   outer loop
     vertex  1.287481e-02 -2.522042e-02 -3.174603e-02
     vertex -6.613754e-02 -2.945323e-02 -3.174603e-02
     vertex -7.460314e-02 -2.522042e-02 -3.174603e-02
   endloop
 endfacet
 facet normal  0.000000e+00  0.000000e+00 -1.000000e+00
   outer loop
     vertex  1.287481e-02 -2.522042e-02 -3.174603e-02
     vertex  4.409205e-03 -2.945323e-02 -3.174603e-02
     vertex -6.613754e-02 -2.945323e-02 -3.174603e-02
   endloop
 endfacet
 facet normal -1.000000e+00  0.000000e+00  0.000000e+00
   outer loop
     vertex  4.409205e-03 -3.650790e-02 -1.587302e-02
     vertex  4.409205e-03 -2.945323e-02  9.841270e-01
     vertex  4.409205e-03 -2.945323e-02 -1.587302e-02
   endloop
 endfacet
 facet normal -1.000000e+00  0.000000e+00  0.000000e+00
   outer loop
     vertex  4.409205e-03 -3.650790e-02 -1.587302e-02
     vertex  4.409205e-03 -3.650790e-02  9.841270e-01
     vertex  4.409205e-03 -2.945323e-02  9.841270e-01
   endloop
 endfacet
 facet normal  0.000000e+00 -1.000000e+00  0.000000e+00
   outer loop
     vertex  1.287481e-02 -3.650790e-02 -1.587302e-02
     vertex  4.409205e-03 -3.650790e-02  9.841270e-01
     vertex  4.409205e-03 -3.650790e-02 -1.587302e-02
   endloop
 endfacet
 facet normal  0.000000e+00 -1.000000e+00  0.000000e+00
   outer loop
     vertex  1.287481e-02 -3.650790e-02 -1.587302e-02
     vertex  1.287481e-02 -3.650790e-02  9.841270e-01
     vertex  4.409205e-03 -3.650790e-02  9.841270e-01
   endloop
 endfacet
 facet normal  1.000000e+00  0.000000e+00  0.000000e+00
   outer loop
     vertex  1.287481e-02 -2.522042e-02 -1.587302e-02
     vertex  1.287481e-02 -3.650790e-02  9.841270e-01
     vertex  1.287481e-02 -3.650790e-02 -1.587302e-02
   endloop
 endfacet
 facet normal  1.000000e+00  0.000000e+00 -0.000000e+00
   outer loop
     vertex  1.287481e-02 -2.522042e-02 -1.587302e-02
     vertex  1.287481e-02 -2.522042e-02  9.841270e-01
     vertex  1.287481e-02 -3.650790e-02  9.841270e-01
   endloop
 endfacet
 facet normal -0.000000e+00  1.000000e+00  0.000000e+00
   outer loop
     vertex -7.460314e-02 -2.522042e-02 -1.587302e-02
     vertex  1.287481e-02 -2.522042e-02 -1.587302e-02
     vertex  1.287481e-02 -2.522042e-02 -3.174603e-02
   endloop
 endfacet
 facet normal  0.000000e+00  1.000000e+00  0.000000e+00
   outer loop
     vertex -7.460314e-02 -2.522042e-02 -1.587302e-02
     vertex  1.287481e-02 -2.522042e-02 -3.174603e-02
     vertex -7.460314e-02 -2.522042e-02 -3.174603e-02
   endloop
 endfacet
 facet normal -0.000000e+00 -1.000000e+00  0.000000e+00
   outer loop
     vertex  4.409205e-03 -2.945323e-02 -1.587302e-02
     vertex -6.613754e-02 -2.945323e-02 -1.587302e-02
     vertex -6.613754e-02 -2.945323e-02 -3.174603e-02
   endloop
 endfacet
 facet normal  0.000000e+00 -1.000000e+00 -0.000000e+00
   outer loop
     vertex  4.409205e-03 -2.945323e-02 -1.587302e-02
     vertex -6.613754e-02 -2.945323e-02 -3.174603e-02
     vertex  4.409205e-03 -2.945323e-02 -3.174603e-02
   endloop
 endfacet
 facet normal -1.000000e+00  0.000000e+00  0.000000e+00
   outer loop
     vertex  4.409205e-03 -3.650790e-02 -1.587302e-02
     vertex  4.409205e-03 -2.945323e-02 -1.587302e-02
     vertex  4.409205e-03 -2.945323e-02 -3.174603e-02
   endloop
 endfacet
 facet normal -1.000000e+00  0.000000e+00  0.000000e+00
   outer loop
     vertex  4.409205e-03 -3.650790e-02 -1.587302e-02
     vertex  4.409205e-03 -2.945323e-02 -3.174603e-02
     vertex  4.409205e-03 -3.650790e-02 -3.174603e-02
   endloop
 endfacet
 facet normal -0.000000e+00 -1.000000e+00  0.000000e+00
   outer loop
     vertex  1.287481e-02 -3.650790e-02 -1.587302e-02
     vertex  4.409205e-03 -3.650790e-02 -1.587302e-02
     vertex  4.409205e-03 -3.650790e-02 -3.174603e-02
   endloop
 endfacet
 facet normal  0.000000e+00 -1.000000e+00 -0.000000e+00
   outer loop
     vertex  1.287481e-02 -3.650790e-02 -1.587302e-02
     vertex  4.409205e-03 -3.650790e-02 -3.174603e-02
     vertex  1.287481e-02 -3.650790e-02 -3.174603e-02
   endloop
 endfacet
 facet normal  1.000000e+00  0.000000e+00  0.000000e+00
   outer loop
     vertex  1.287481e-02 -2.522042e-02 -1.587302e-02
     vertex  1.287481e-02 -3.650790e-02 -1.587302e-02
     vertex  1.287481e-02 -3.650790e-02 -3.174603e-02
   endloop
 endfacet
 facet normal  1.000000e+00  0.000000e+00  0.000000e+00
   outer loop
     vertex  1.287481e-02 -2.522042e-02 -1.587302e-02
     vertex  1.287481e-02 -3.650790e-02 -3.174603e-02
     vertex  1.287481e-02 -2.522042e-02 -3.174603e-02
   endloop
 endfacet
endsolid
