solid 
 facet normal -0.000000e+00  0.000000e+00 -1.000000e+00
   outer loop
     vertex  8.746032e-01 -1.587302e-02 -5.158730e-01
     vertex -9.666666e-01 -1.015873e+00 -5.158730e-01
     vertex -9.666666e-01 -1.587302e-02 -5.158730e-01
   endloop
 endfacet
 facet normal  0.000000e+00 -0.000000e+00 -1.000000e+00
   outer loop
     vertex  8.746032e-01 -1.587302e-02 -5.158730e-01
     vertex  8.746032e-01 -1.015873e+00 -5.158730e-01
     vertex -9.666666e-01 -1.015873e+00 -5.158730e-01
   endloop
 endfacet
 facet normal -7.071068e-01  0.000000e+00  7.071068e-01
   outer loop
     vertex -9.666666e-01 -1.587302e-02 -5.158730e-01
     vertex -1.412698e-01 -1.015873e+00  3.095238e-01
     vertex -1.412698e-01 -1.587302e-02  3.095238e-01
   endloop
 endfacet
 facet normal -7.071068e-01  0.000000e+00  7.071068e-01
   outer loop
     vertex -9.666666e-01 -1.587302e-02 -5.158730e-01
     vertex -9.666666e-01 -1.015873e+00 -5.158730e-01
     vertex -1.412698e-01 -1.015873e+00  3.095238e-01
   endloop
 endfacet
 facet normal  7.071068e-01  0.000000e+00  7.071068e-01
   outer loop
     vertex  4.920644e-02 -1.587302e-02  3.095238e-01
     vertex  8.746032e-01 -1.015873e+00 -5.158730e-01
     vertex  8.746032e-01 -1.587302e-02 -5.158730e-01
   endloop
 endfacet
 facet normal  7.071068e-01  0.000000e+00  7.071068e-01
   outer loop
     vertex  4.920644e-02 -1.587302e-02  3.095238e-01
     vertex  4.920644e-02 -1.015873e+00  3.095238e-01
     vertex  8.746032e-01 -1.015873e+00 -5.158730e-01
   endloop
 endfacet
 facet normal  0.000000e+00  0.000000e+00 -1.000000e+00
   outer loop
     vertex  8.746032e-01 -1.587302e-02 -5.158730e-01
     vertex -9.666666e-01 -1.587302e-02 -5.158730e-01
     vertex -9.666666e-01  0.000000e+00 -5.158730e-01
   endloop
 endfacet
 facet normal  0.000000e+00  0.000000e+00 -1.000000e+00
   outer loop
     vertex  8.746032e-01 -1.587302e-02 -5.158730e-01
     vertex -9.666666e-01  0.000000e+00 -5.158730e-01
     vertex  8.746032e-01  0.000000e+00 -5.158730e-01
   endloop
 endfacet
 facet normal  0.000000e+00 -1.000000e+00  0.000000e+00
   outer loop
     vertex  8.746032e-01 -1.015873e+00 -5.158730e-01
     vertex -1.412698e-01 -1.015873e+00  3.095238e-01
     vertex -9.666666e-01 -1.015873e+00 -5.158730e-01
   endloop
 endfacet
 facet normal -0.000000e+00 -1.000000e+00 -0.000000e+00
   outer loop
     vertex  4.920644e-02 -1.015873e+00  3.095238e-01
     vertex -1.412698e-01 -1.015873e+00  3.095238e-01
     vertex  8.746032e-01 -1.015873e+00 -5.158730e-01
   endloop
 endfacet
 facet normal -0.000000e+00  0.000000e+00  1.000000e+00
   outer loop
     vertex -1.412698e-01 -1.587302e-02  3.095238e-01
     vertex  4.920644e-02 -1.015873e+00  3.095238e-01
     vertex  4.920644e-02 -1.587302e-02  3.095238e-01
   endloop
 endfacet
 facet normal  0.000000e+00  0.000000e+00  1.000000e+00
   outer loop
     vertex -1.412698e-01 -1.587302e-02  3.095238e-01
     vertex -1.412698e-01 -1.015873e+00  3.095238e-01
     vertex  4.920644e-02 -1.015873e+00  3.095238e-01
   endloop
 endfacet
 facet normal -7.071068e-01  0.000000e+00  7.071068e-01
   outer loop
     vertex -9.666666e-01 -1.587302e-02 -5.158730e-01
     vertex -1.412698e-01 -1.587302e-02  3.095238e-01
     vertex -1.412698e-01  0.000000e+00  3.095238e-01
   endloop
 endfacet
 facet normal -7.071068e-01  0.000000e+00  7.071068e-01
   outer loop
     vertex -9.666666e-01 -1.587302e-02 -5.158730e-01
     vertex -1.412698e-01  0.000000e+00  3.095238e-01
     vertex -9.666666e-01  0.000000e+00 -5.158730e-01
   endloop
 endfacet
 facet normal  7.071068e-01  0.000000e+00  7.071068e-01
   outer loop
     vertex  4.920644e-02 -1.587302e-02  3.095238e-01
     vertex  8.746032e-01 -1.587302e-02 -5.158730e-01
     vertex  8.746032e-01  0.000000e+00 -5.158730e-01
   endloop
 endfacet
 facet normal  7.071068e-01 -0.000000e+00  7.071068e-01
   outer loop
     vertex  4.920644e-02 -1.587302e-02  3.095238e-01
     vertex  8.746032e-01  0.000000e+00 -5.158730e-01
     vertex  4.920644e-02  0.000000e+00  3.095238e-01
   endloop
 endfacet
 facet normal  0.000000e+00  1.000000e+00  0.000000e+00
   outer loop
     vertex  8.746032e-01  6.591949e-17 -5.158730e-01
     vertex -9.666666e-01  6.591949e-17 -5.158730e-01
     vertex -1.412698e-01  6.591949e-17  3.095238e-01
   endloop
 endfacet
 facet normal  0.000000e+00  1.000000e+00  0.000000e+00
   outer loop
     vertex  4.920644e-02  6.591949e-17  3.095238e-01
     vertex  8.746032e-01  6.591949e-17 -5.158730e-01
     vertex -1.412698e-01  6.591949e-17  3.095238e-01
   endloop
 endfacet
 facet normal  0.000000e+00  0.000000e+00  1.000000e+00
   outer loop
     vertex -1.412698e-01 -1.587302e-02  3.095238e-01
     vertex  4.920644e-02 -1.587302e-02  3.095238e-01
     vertex  4.920644e-02  0.000000e+00  3.095238e-01
   endloop
 endfacet
 facet normal  0.000000e+00  0.000000e+00  1.000000e+00
   outer loop
     vertex -1.412698e-01 -1.587302e-02  3.095238e-01
     vertex  4.920644e-02  0.000000e+00  3.095238e-01
     vertex -1.412698e-01  0.000000e+00  3.095238e-01
   endloop
 endfacet
 facet normal  5.328133e-01 -8.462328e-01  0.000000e+00
   outer loop
     vertex -2.156966e-01 -5.867725e-01  3.333334e-01
     vertex -7.109347e-01 -8.985891e-01  3.492064e-01
     vertex -7.109347e-01 -8.985891e-01  3.333334e-01
   endloop
 endfacet
 facet normal  5.328133e-01 -8.462328e-01  0.000000e+00
   outer loop
     vertex -2.156966e-01 -5.867725e-01  3.333334e-01
     vertex -2.156966e-01 -5.867725e-01  3.492064e-01
     vertex -7.109347e-01 -8.985891e-01  3.492064e-01
   endloop
 endfacet
 facet normal -9.734172e-01  2.290391e-01  0.000000e+00
   outer loop
     vertex -7.109347e-01 -8.985891e-01  3.333334e-01
     vertex -6.375661e-01 -5.867725e-01  3.492064e-01
     vertex -6.375661e-01 -5.867725e-01  3.333334e-01
   endloop
 endfacet
 facet normal -9.734172e-01  2.290391e-01  0.000000e+00
   outer loop
     vertex -7.109347e-01 -8.985891e-01  3.333334e-01
     vertex -7.109347e-01 -8.985891e-01  3.492064e-01
     vertex -6.375661e-01 -5.867725e-01  3.492064e-01
   endloop
 endfacet
 facet normal  0.000000e+00  1.000000e+00  0.000000e+00
   outer loop
     vertex -6.375661e-01 -5.867725e-01  3.333334e-01
     vertex -2.156966e-01 -5.867725e-01  3.492064e-01
     vertex -2.156966e-01 -5.867725e-01  3.333334e-01
   endloop
 endfacet
 facet normal  0.000000e+00  1.000000e+00  0.000000e+00
   outer loop
     vertex -6.375661e-01 -5.867725e-01  3.333334e-01
     vertex -6.375661e-01 -5.867725e-01  3.492064e-01
     vertex -2.156966e-01 -5.867725e-01  3.492064e-01
   endloop
 endfacet
 facet normal  5.328133e-01 -8.462328e-01  0.000000e+00
   outer loop
     vertex -2.156966e-01 -5.867725e-01  3.333334e-01
     vertex -7.109347e-01 -8.985891e-01  3.333334e-01
     vertex -7.109347e-01 -8.985891e-01  3.174604e-01
   endloop
 endfacet
 facet normal  5.328133e-01 -8.462328e-01  0.000000e+00
   outer loop
     vertex -2.156966e-01 -5.867725e-01  3.333334e-01
     vertex -7.109347e-01 -8.985891e-01  3.174604e-01
     vertex -2.156966e-01 -5.867725e-01  3.174604e-01
   endloop
 endfacet
 facet normal  0.000000e+00  0.000000e+00  1.000000e+00
   outer loop
     vertex -2.156966e-01 -5.867725e-01  3.492064e-01
     vertex -6.375661e-01 -5.867725e-01  3.492064e-01
     vertex -7.109347e-01 -8.985891e-01  3.492064e-01
   endloop
 endfacet
 facet normal -9.734172e-01  2.290391e-01  0.000000e+00
   outer loop
     vertex -7.109347e-01 -8.985891e-01  3.333334e-01
     vertex -6.375661e-01 -5.867725e-01  3.333334e-01
     vertex -6.375661e-01 -5.867725e-01  3.174604e-01
   endloop
 endfacet
 facet normal -9.734172e-01  2.290391e-01  0.000000e+00
   outer loop
     vertex -7.109347e-01 -8.985891e-01  3.333334e-01
     vertex -6.375661e-01 -5.867725e-01  3.174604e-01
     vertex -7.109347e-01 -8.985891e-01  3.174604e-01
   endloop
 endfacet
 facet normal -0.000000e+00  1.000000e+00  0.000000e+00
   outer loop
     vertex -6.375661e-01 -5.867725e-01  3.333334e-01
     vertex -2.156966e-01 -5.867725e-01  3.333334e-01
     vertex -2.156966e-01 -5.867725e-01  3.174604e-01
   endloop
 endfacet
 facet normal  0.000000e+00  1.000000e+00  0.000000e+00
   outer loop
     vertex -6.375661e-01 -5.867725e-01  3.333334e-01
     vertex -2.156966e-01 -5.867725e-01  3.174604e-01
     vertex -6.375661e-01 -5.867725e-01  3.174604e-01
   endloop
 endfacet
 facet normal -0.000000e+00  0.000000e+00 -1.000000e+00
   outer loop
     vertex -2.156966e-01 -5.867725e-01  3.174604e-01
     vertex -7.109347e-01 -8.985891e-01  3.174604e-01
     vertex -6.375661e-01 -5.867725e-01  3.174604e-01
   endloop
 endfacet
endsolid
