solid 
 facet normal -0.000000e+00  0.000000e+00 -1.000000e+00
   outer loop
     vertex  5.867725e-01 -1.587302e-02 -3.051156e-02
     vertex -3.686073e-02 -3.174604e-01 -3.051156e-02
     vertex -3.686073e-02 -1.587302e-02 -3.051156e-02
   endloop
 endfacet
 facet normal  0.000000e+00 -0.000000e+00 -1.000000e+00
   outer loop
     vertex  5.867725e-01 -1.587302e-02 -3.051156e-02
     vertex  5.867725e-01 -3.174604e-01 -3.051156e-02
     vertex -3.686073e-02 -3.174604e-01 -3.051156e-02
   endloop
 endfacet
 facet normal -1.000000e+00  0.000000e+00  0.000000e+00
   outer loop
     vertex -3.686073e-02 -1.587302e-02 -3.051156e-02
     vertex -3.686073e-02 -3.174604e-01  9.232804e-01
     vertex -3.686073e-02 -1.587302e-02  9.232804e-01
   endloop
 endfacet
 facet normal -1.000000e+00  0.000000e+00  0.000000e+00
   outer loop
     vertex -3.686073e-02 -1.587302e-02 -3.051156e-02
     vertex -3.686073e-02 -3.174604e-01 -3.051156e-02
     vertex -3.686073e-02 -3.174604e-01  9.232804e-01
   endloop
 endfacet
 facet normal  1.000000e+00  0.000000e+00  0.000000e+00
   outer loop
     vertex  5.867725e-01 -1.587302e-02  2.813051e-01
     vertex  5.867725e-01 -3.174604e-01 -3.051156e-02
     vertex  5.867725e-01 -1.587302e-02 -3.051156e-02
   endloop
 endfacet
 facet normal  1.000000e+00  0.000000e+00  0.000000e+00
   outer loop
     vertex  5.867725e-01 -1.587302e-02  2.813051e-01
     vertex  5.867725e-01 -3.174604e-01  2.813051e-01
     vertex  5.867725e-01 -3.174604e-01 -3.051156e-02
   endloop
 endfacet
 facet normal  0.000000e+00  0.000000e+00 -1.000000e+00
   outer loop
     vertex  5.867725e-01 -1.587302e-02 -3.051156e-02
     vertex -3.686073e-02 -1.587302e-02 -3.051156e-02
     vertex -3.686073e-02  0.000000e+00 -3.051156e-02
   endloop
 endfacet
 facet normal  0.000000e+00  0.000000e+00 -1.000000e+00
   outer loop
     vertex  5.867725e-01 -1.587302e-02 -3.051156e-02
     vertex -3.686073e-02  0.000000e+00 -3.051156e-02
     vertex  5.867725e-01  0.000000e+00 -3.051156e-02
   endloop
 endfacet
 facet normal  0.000000e+00 -1.000000e+00 -0.000000e+00
   outer loop
     vertex  2.749559e-01 -3.174604e-01  2.813051e-01
     vertex -3.686073e-02 -3.174604e-01 -3.051156e-02
     vertex  5.867725e-01 -3.174604e-01 -3.051156e-02
   endloop
 endfacet
 facet normal  0.000000e+00 -1.000000e+00 -0.000000e+00
   outer loop
     vertex  1.185828e-01 -3.174604e-01  6.531995e-01
     vertex -3.686073e-02 -3.174604e-01 -3.051156e-02
     vertex  2.749559e-01 -3.174604e-01  2.813051e-01
   endloop
 endfacet
 facet normal -0.000000e+00 -1.000000e+00  0.000000e+00
   outer loop
     vertex  1.185828e-01 -3.174604e-01  6.531995e-01
     vertex  1.049795e-01 -3.174604e-01  6.647542e-01
     vertex -3.686073e-02 -3.174604e-01 -3.051156e-02
   endloop
 endfacet
 facet normal  0.000000e+00 -1.000000e+00 -0.000000e+00
   outer loop
     vertex  9.417824e-02 -3.174604e-01  6.789631e-01
     vertex -3.686073e-02 -3.174604e-01 -3.051156e-02
     vertex  1.049795e-01 -3.174604e-01  6.647542e-01
   endloop
 endfacet
 facet normal -0.000000e+00 -1.000000e+00 -0.000000e+00
   outer loop
     vertex  1.343519e-01 -3.174604e-01  6.448393e-01
     vertex  1.185828e-01 -3.174604e-01  6.531995e-01
     vertex  2.749559e-01 -3.174604e-01  2.813051e-01
   endloop
 endfacet
 facet normal  0.000000e+00 -1.000000e+00 -0.000000e+00
   outer loop
     vertex  8.668397e-02 -3.174604e-01  6.951617e-01
     vertex -3.686073e-02 -3.174604e-01 -3.051156e-02
     vertex  9.417824e-02 -3.174604e-01  6.789631e-01
   endloop
 endfacet
 facet normal -0.000000e+00 -1.000000e+00 -0.000000e+00
   outer loop
     vertex  1.515495e-01 -3.174604e-01  6.400644e-01
     vertex  1.343519e-01 -3.174604e-01  6.448393e-01
     vertex  2.749559e-01 -3.174604e-01  2.813051e-01
   endloop
 endfacet
 facet normal -0.000000e+00 -1.000000e+00 -0.000000e+00
   outer loop
     vertex  1.693716e-01 -3.174604e-01  6.390981e-01
     vertex  1.515495e-01 -3.174604e-01  6.400644e-01
     vertex  2.749559e-01 -3.174604e-01  2.813051e-01
   endloop
 endfacet
 facet normal  0.000000e+00 -1.000000e+00 -0.000000e+00
   outer loop
     vertex  1.869847e-01 -3.174604e-01  6.419856e-01
     vertex  1.693716e-01 -3.174604e-01  6.390981e-01
     vertex  2.749559e-01 -3.174604e-01  2.813051e-01
   endloop
 endfacet
 facet normal  0.000000e+00 -1.000000e+00 -0.000000e+00
   outer loop
     vertex  2.035652e-01 -3.174604e-01  6.485919e-01
     vertex  1.869847e-01 -3.174604e-01  6.419856e-01
     vertex  2.749559e-01 -3.174604e-01  2.813051e-01
   endloop
 endfacet
 facet normal -0.000000e+00 -1.000000e+00 -0.000000e+00
   outer loop
     vertex  5.867725e-01 -3.174604e-01  2.813051e-01
     vertex  2.749559e-01 -3.174604e-01  2.813051e-01
     vertex  5.867725e-01 -3.174604e-01 -3.051156e-02
   endloop
 endfacet
 facet normal  0.000000e+00 -1.000000e+00 -0.000000e+00
   outer loop
     vertex  2.183380e-01 -3.174604e-01  6.586081e-01
     vertex  2.035652e-01 -3.174604e-01  6.485919e-01
     vertex  2.749559e-01 -3.174604e-01  2.813051e-01
   endloop
 endfacet
 facet normal  0.000000e+00 -1.000000e+00  0.000000e+00
   outer loop
     vertex -3.686073e-02 -3.174604e-01  9.232804e-01
     vertex  9.417824e-02 -3.174604e-01  7.640704e-01
     vertex  1.049795e-01 -3.174604e-01  7.782792e-01
   endloop
 endfacet
 facet normal  0.000000e+00 -1.000000e+00  0.000000e+00
   outer loop
     vertex -3.686073e-02 -3.174604e-01  9.232804e-01
     vertex  8.668397e-02 -3.174604e-01  7.478718e-01
     vertex  9.417824e-02 -3.174604e-01  7.640704e-01
   endloop
 endfacet
 facet normal  0.000000e+00 -1.000000e+00  0.000000e+00
   outer loop
     vertex -3.686073e-02 -3.174604e-01  9.232804e-01
     vertex  8.284713e-02 -3.174604e-01  7.304408e-01
     vertex  8.668397e-02 -3.174604e-01  7.478718e-01
   endloop
 endfacet
 facet normal  0.000000e+00 -1.000000e+00  0.000000e+00
   outer loop
     vertex -3.686073e-02 -3.174604e-01  9.232804e-01
     vertex  8.284713e-02 -3.174604e-01  7.125926e-01
     vertex  8.284713e-02 -3.174604e-01  7.304408e-01
   endloop
 endfacet
 facet normal  0.000000e+00 -1.000000e+00  0.000000e+00
   outer loop
     vertex -3.686073e-02 -3.174604e-01  9.232804e-01
     vertex  8.668397e-02 -3.174604e-01  6.951617e-01
     vertex  8.284713e-02 -3.174604e-01  7.125926e-01
   endloop
 endfacet
 facet normal  0.000000e+00 -1.000000e+00  0.000000e+00
   outer loop
     vertex -3.686073e-02 -3.174604e-01  9.232804e-01
     vertex -3.686073e-02 -3.174604e-01 -3.051156e-02
     vertex  8.668397e-02 -3.174604e-01  6.951617e-01
   endloop
 endfacet
 facet normal  0.000000e+00 -1.000000e+00 -0.000000e+00
   outer loop
     vertex  2.306122e-01 -3.174604e-01  6.715658e-01
     vertex  2.183380e-01 -3.174604e-01  6.586081e-01
     vertex  2.749559e-01 -3.174604e-01  2.813051e-01
   endloop
 endfacet
 facet normal -0.000000e+00 -1.000000e+00  0.000000e+00
   outer loop
     vertex  1.185828e-01 -3.174604e-01  7.898339e-01
     vertex -3.686073e-02 -3.174604e-01  9.232804e-01
     vertex  1.049795e-01 -3.174604e-01  7.782792e-01
   endloop
 endfacet
 facet normal -0.000000e+00 -1.000000e+00  0.000000e+00
   outer loop
     vertex  1.343519e-01 -3.174604e-01  7.981942e-01
     vertex -3.686073e-02 -3.174604e-01  9.232804e-01
     vertex  1.185828e-01 -3.174604e-01  7.898339e-01
   endloop
 endfacet
 facet normal -0.000000e+00 -1.000000e+00  0.000000e+00
   outer loop
     vertex  1.515495e-01 -3.174604e-01  8.029691e-01
     vertex -3.686073e-02 -3.174604e-01  9.232804e-01
     vertex  1.343519e-01 -3.174604e-01  7.981942e-01
   endloop
 endfacet
 facet normal  0.000000e+00 -1.000000e+00  0.000000e+00
   outer loop
     vertex  2.749559e-01 -3.174604e-01  9.232804e-01
     vertex  2.455129e-01 -3.174604e-01  7.392603e-01
     vertex  2.474426e-01 -3.174604e-01  7.215167e-01
   endloop
 endfacet
 facet normal  0.000000e+00 -1.000000e+00  0.000000e+00
   outer loop
     vertex  2.749559e-01 -3.174604e-01  9.232804e-01
     vertex  2.398139e-01 -3.174604e-01  7.561742e-01
     vertex  2.455129e-01 -3.174604e-01  7.392603e-01
   endloop
 endfacet
 facet normal  0.000000e+00 -1.000000e+00  0.000000e+00
   outer loop
     vertex  2.749559e-01 -3.174604e-01  9.232804e-01
     vertex  2.306122e-01 -3.174604e-01  7.714676e-01
     vertex  2.398139e-01 -3.174604e-01  7.561742e-01
   endloop
 endfacet
 facet normal  0.000000e+00 -1.000000e+00  0.000000e+00
   outer loop
     vertex  2.749559e-01 -3.174604e-01  9.232804e-01
     vertex  2.183380e-01 -3.174604e-01  7.844253e-01
     vertex  2.306122e-01 -3.174604e-01  7.714676e-01
   endloop
 endfacet
 facet normal  0.000000e+00 -1.000000e+00  0.000000e+00
   outer loop
     vertex  2.749559e-01 -3.174604e-01  9.232804e-01
     vertex  2.035652e-01 -3.174604e-01  7.944415e-01
     vertex  2.183380e-01 -3.174604e-01  7.844253e-01
   endloop
 endfacet
 facet normal  0.000000e+00 -1.000000e+00  0.000000e+00
   outer loop
     vertex  2.749559e-01 -3.174604e-01  9.232804e-01
     vertex  1.869847e-01 -3.174604e-01  8.010478e-01
     vertex  2.035652e-01 -3.174604e-01  7.944415e-01
   endloop
 endfacet
 facet normal  0.000000e+00 -1.000000e+00  0.000000e+00
   outer loop
     vertex  2.749559e-01 -3.174604e-01  9.232804e-01
     vertex  1.693716e-01 -3.174604e-01  8.039353e-01
     vertex  1.869847e-01 -3.174604e-01  8.010478e-01
   endloop
 endfacet
 facet normal  0.000000e+00 -1.000000e+00  0.000000e+00
   outer loop
     vertex  2.749559e-01 -3.174604e-01  9.232804e-01
     vertex  1.515495e-01 -3.174604e-01  8.029691e-01
     vertex  1.693716e-01 -3.174604e-01  8.039353e-01
   endloop
 endfacet
 facet normal -0.000000e+00 -1.000000e+00  0.000000e+00
   outer loop
     vertex  2.749559e-01 -3.174604e-01  9.232804e-01
     vertex -3.686073e-02 -3.174604e-01  9.232804e-01
     vertex  1.515495e-01 -3.174604e-01  8.029691e-01
   endloop
 endfacet
 facet normal  0.000000e+00 -1.000000e+00  0.000000e+00
   outer loop
     vertex  2.749559e-01 -3.174604e-01  2.813051e-01
     vertex  2.749559e-01 -3.174604e-01  9.232804e-01
     vertex  2.474426e-01 -3.174604e-01  7.215167e-01
   endloop
 endfacet
 facet normal  0.000000e+00 -1.000000e+00  0.000000e+00
   outer loop
     vertex  2.749559e-01 -3.174604e-01  2.813051e-01
     vertex  2.474426e-01 -3.174604e-01  7.215167e-01
     vertex  2.455129e-01 -3.174604e-01  7.037731e-01
   endloop
 endfacet
 facet normal  0.000000e+00 -1.000000e+00  0.000000e+00
   outer loop
     vertex  2.749559e-01 -3.174604e-01  2.813051e-01
     vertex  2.455129e-01 -3.174604e-01  7.037731e-01
     vertex  2.398139e-01 -3.174604e-01  6.868592e-01
   endloop
 endfacet
 facet normal  0.000000e+00 -1.000000e+00  0.000000e+00
   outer loop
     vertex  2.749559e-01 -3.174604e-01  2.813051e-01
     vertex  2.398139e-01 -3.174604e-01  6.868592e-01
     vertex  2.306122e-01 -3.174604e-01  6.715658e-01
   endloop
 endfacet
 facet normal -0.000000e+00  0.000000e+00  1.000000e+00
   outer loop
     vertex -3.686073e-02 -1.587302e-02  9.232804e-01
     vertex  2.749559e-01 -3.174604e-01  9.232804e-01
     vertex  2.749559e-01 -1.587302e-02  9.232804e-01
   endloop
 endfacet
 facet normal  0.000000e+00  0.000000e+00  1.000000e+00
   outer loop
     vertex -3.686073e-02 -1.587302e-02  9.232804e-01
     vertex -3.686073e-02 -3.174604e-01  9.232804e-01
     vertex  2.749559e-01 -3.174604e-01  9.232804e-01
   endloop
 endfacet
 facet normal -1.000000e+00  0.000000e+00  0.000000e+00
   outer loop
     vertex -3.686073e-02 -1.587302e-02 -3.051156e-02
     vertex -3.686073e-02 -1.587302e-02  9.232804e-01
     vertex -3.686073e-02  0.000000e+00  9.232804e-01
   endloop
 endfacet
 facet normal -1.000000e+00  0.000000e+00  0.000000e+00
   outer loop
     vertex -3.686073e-02 -1.587302e-02 -3.051156e-02
     vertex -3.686073e-02  0.000000e+00  9.232804e-01
     vertex -3.686073e-02  0.000000e+00 -3.051156e-02
   endloop
 endfacet
 facet normal -0.000000e+00  0.000000e+00  1.000000e+00
   outer loop
     vertex  2.749559e-01 -1.587302e-02  2.813051e-01
     vertex  5.867725e-01 -3.174604e-01  2.813051e-01
     vertex  5.867725e-01 -1.587302e-02  2.813051e-01
   endloop
 endfacet
 facet normal  0.000000e+00  0.000000e+00  1.000000e+00
   outer loop
     vertex  2.749559e-01 -1.587302e-02  2.813051e-01
     vertex  2.749559e-01 -3.174604e-01  2.813051e-01
     vertex  5.867725e-01 -3.174604e-01  2.813051e-01
   endloop
 endfacet
 facet normal  1.000000e+00  0.000000e+00  0.000000e+00
   outer loop
     vertex  5.867725e-01 -1.587302e-02  2.813051e-01
     vertex  5.867725e-01 -1.587302e-02 -3.051156e-02
     vertex  5.867725e-01  0.000000e+00 -3.051156e-02
   endloop
 endfacet
 facet normal  1.000000e+00 -0.000000e+00  0.000000e+00
   outer loop
     vertex  5.867725e-01 -1.587302e-02  2.813051e-01
     vertex  5.867725e-01  0.000000e+00 -3.051156e-02
     vertex  5.867725e-01  0.000000e+00  2.813051e-01
   endloop
 endfacet
 facet normal  0.000000e+00  1.000000e+00  0.000000e+00
   outer loop
     vertex  2.749559e-01  1.040834e-17  2.813051e-01
     vertex  5.867725e-01  1.040834e-17 -3.051156e-02
     vertex -3.686073e-02  1.040834e-17 -3.051156e-02
   endloop
 endfacet
 facet normal  0.000000e+00  1.000000e+00  0.000000e+00
   outer loop
     vertex  1.185828e-01  1.040834e-17  6.531995e-01
     vertex  2.749559e-01  1.040834e-17  2.813051e-01
     vertex -3.686073e-02  1.040834e-17 -3.051156e-02
   endloop
 endfacet
 facet normal  0.000000e+00  1.000000e+00  0.000000e+00
   outer loop
     vertex  1.185828e-01  1.040834e-17  6.531995e-01
     vertex -3.686073e-02  1.040834e-17 -3.051156e-02
     vertex  1.049795e-01  1.040834e-17  6.647542e-01
   endloop
 endfacet
 facet normal  0.000000e+00  1.000000e+00  0.000000e+00
   outer loop
     vertex  9.417824e-02  1.040834e-17  6.789631e-01
     vertex  1.049795e-01  1.040834e-17  6.647542e-01
     vertex -3.686073e-02  1.040834e-17 -3.051156e-02
   endloop
 endfacet
 facet normal  0.000000e+00  1.000000e+00  0.000000e+00
   outer loop
     vertex  1.343519e-01  1.040834e-17  6.448393e-01
     vertex  2.749559e-01  1.040834e-17  2.813051e-01
     vertex  1.185828e-01  1.040834e-17  6.531995e-01
   endloop
 endfacet
 facet normal  0.000000e+00  1.000000e+00  0.000000e+00
   outer loop
     vertex  8.668397e-02  1.040834e-17  6.951617e-01
     vertex  9.417824e-02  1.040834e-17  6.789631e-01
     vertex -3.686073e-02  1.040834e-17 -3.051156e-02
   endloop
 endfacet
 facet normal  0.000000e+00  1.000000e+00  0.000000e+00
   outer loop
     vertex  1.515495e-01  1.040834e-17  6.400644e-01
     vertex  2.749559e-01  1.040834e-17  2.813051e-01
     vertex  1.343519e-01  1.040834e-17  6.448393e-01
   endloop
 endfacet
 facet normal  0.000000e+00  1.000000e+00  0.000000e+00
   outer loop
     vertex  1.693716e-01  1.040834e-17  6.390981e-01
     vertex  2.749559e-01  1.040834e-17  2.813051e-01
     vertex  1.515495e-01  1.040834e-17  6.400644e-01
   endloop
 endfacet
 facet normal  0.000000e+00  1.000000e+00  0.000000e+00
   outer loop
     vertex  1.869847e-01  1.040834e-17  6.419856e-01
     vertex  2.749559e-01  1.040834e-17  2.813051e-01
     vertex  1.693716e-01  1.040834e-17  6.390981e-01
   endloop
 endfacet
 facet normal  0.000000e+00  1.000000e+00  0.000000e+00
   outer loop
     vertex  2.035652e-01  1.040834e-17  6.485919e-01
     vertex  2.749559e-01  1.040834e-17  2.813051e-01
     vertex  1.869847e-01  1.040834e-17  6.419856e-01
   endloop
 endfacet
 facet normal  0.000000e+00  1.000000e+00  0.000000e+00
   outer loop
     vertex  5.867725e-01  1.040834e-17  2.813051e-01
     vertex  5.867725e-01  1.040834e-17 -3.051156e-02
     vertex  2.749559e-01  1.040834e-17  2.813051e-01
   endloop
 endfacet
 facet normal  0.000000e+00  1.000000e+00  0.000000e+00
   outer loop
     vertex  2.183380e-01  1.040834e-17  6.586081e-01
     vertex  2.749559e-01  1.040834e-17  2.813051e-01
     vertex  2.035652e-01  1.040834e-17  6.485919e-01
   endloop
 endfacet
 facet normal  0.000000e+00  1.000000e+00  0.000000e+00
   outer loop
     vertex -3.686073e-02  1.040834e-17  9.232804e-01
     vertex  1.049795e-01  1.040834e-17  7.782792e-01
     vertex  9.417824e-02  1.040834e-17  7.640704e-01
   endloop
 endfacet
 facet normal  0.000000e+00  1.000000e+00  0.000000e+00
   outer loop
     vertex -3.686073e-02  1.040834e-17  9.232804e-01
     vertex  9.417824e-02  1.040834e-17  7.640704e-01
     vertex  8.668397e-02  1.040834e-17  7.478718e-01
   endloop
 endfacet
 facet normal  0.000000e+00  1.000000e+00  0.000000e+00
   outer loop
     vertex -3.686073e-02  1.040834e-17  9.232804e-01
     vertex  8.668397e-02  1.040834e-17  7.478718e-01
     vertex  8.284713e-02  1.040834e-17  7.304408e-01
   endloop
 endfacet
 facet normal  0.000000e+00  1.000000e+00  0.000000e+00
   outer loop
     vertex -3.686073e-02  1.040834e-17  9.232804e-01
     vertex  8.284713e-02  1.040834e-17  7.304408e-01
     vertex  8.284713e-02  1.040834e-17  7.125926e-01
   endloop
 endfacet
 facet normal  0.000000e+00  1.000000e+00  0.000000e+00
   outer loop
     vertex -3.686073e-02  1.040834e-17  9.232804e-01
     vertex  8.284713e-02  1.040834e-17  7.125926e-01
     vertex  8.668397e-02  1.040834e-17  6.951617e-01
   endloop
 endfacet
 facet normal  0.000000e+00  1.000000e+00  0.000000e+00
   outer loop
     vertex -3.686073e-02  1.040834e-17  9.232804e-01
     vertex  8.668397e-02  1.040834e-17  6.951617e-01
     vertex -3.686073e-02  1.040834e-17 -3.051156e-02
   endloop
 endfacet
 facet normal  0.000000e+00  1.000000e+00  0.000000e+00
   outer loop
     vertex  2.306122e-01  1.040834e-17  6.715658e-01
     vertex  2.749559e-01  1.040834e-17  2.813051e-01
     vertex  2.183380e-01  1.040834e-17  6.586081e-01
   endloop
 endfacet
 facet normal  0.000000e+00  1.000000e+00  0.000000e+00
   outer loop
     vertex  1.185828e-01  1.040834e-17  7.898339e-01
     vertex  1.049795e-01  1.040834e-17  7.782792e-01
     vertex -3.686073e-02  1.040834e-17  9.232804e-01
   endloop
 endfacet
 facet normal  0.000000e+00  1.000000e+00  0.000000e+00
   outer loop
     vertex  1.343519e-01  1.040834e-17  7.981942e-01
     vertex  1.185828e-01  1.040834e-17  7.898339e-01
     vertex -3.686073e-02  1.040834e-17  9.232804e-01
   endloop
 endfacet
 facet normal  0.000000e+00  1.000000e+00  0.000000e+00
   outer loop
     vertex  1.515495e-01  1.040834e-17  8.029691e-01
     vertex  1.343519e-01  1.040834e-17  7.981942e-01
     vertex -3.686073e-02  1.040834e-17  9.232804e-01
   endloop
 endfacet
 facet normal  0.000000e+00  1.000000e+00  0.000000e+00
   outer loop
     vertex  2.749559e-01  1.040834e-17  9.232804e-01
     vertex  2.474426e-01  1.040834e-17  7.215167e-01
     vertex  2.455129e-01  1.040834e-17  7.392603e-01
   endloop
 endfacet
 facet normal  0.000000e+00  1.000000e+00  0.000000e+00
   outer loop
     vertex  2.749559e-01  1.040834e-17  9.232804e-01
     vertex  2.455129e-01  1.040834e-17  7.392603e-01
     vertex  2.398139e-01  1.040834e-17  7.561742e-01
   endloop
 endfacet
 facet normal  0.000000e+00  1.000000e+00  0.000000e+00
   outer loop
     vertex  2.749559e-01  1.040834e-17  9.232804e-01
     vertex  2.398139e-01  1.040834e-17  7.561742e-01
     vertex  2.306122e-01  1.040834e-17  7.714676e-01
   endloop
 endfacet
 facet normal  0.000000e+00  1.000000e+00  0.000000e+00
   outer loop
     vertex  2.749559e-01  1.040834e-17  9.232804e-01
     vertex  2.306122e-01  1.040834e-17  7.714676e-01
     vertex  2.183380e-01  1.040834e-17  7.844253e-01
   endloop
 endfacet
 facet normal  0.000000e+00  1.000000e+00  0.000000e+00
   outer loop
     vertex  2.749559e-01  1.040834e-17  9.232804e-01
     vertex  2.183380e-01  1.040834e-17  7.844253e-01
     vertex  2.035652e-01  1.040834e-17  7.944415e-01
   endloop
 endfacet
 facet normal  0.000000e+00  1.000000e+00  0.000000e+00
   outer loop
     vertex  2.749559e-01  1.040834e-17  9.232804e-01
     vertex  2.035652e-01  1.040834e-17  7.944415e-01
     vertex  1.869847e-01  1.040834e-17  8.010478e-01
   endloop
 endfacet
 facet normal  0.000000e+00  1.000000e+00  0.000000e+00
   outer loop
     vertex  2.749559e-01  1.040834e-17  9.232804e-01
     vertex  1.869847e-01  1.040834e-17  8.010478e-01
     vertex  1.693716e-01  1.040834e-17  8.039353e-01
   endloop
 endfacet
 facet normal  0.000000e+00  1.000000e+00  0.000000e+00
   outer loop
     vertex  2.749559e-01  1.040834e-17  9.232804e-01
     vertex  1.693716e-01  1.040834e-17  8.039353e-01
     vertex  1.515495e-01  1.040834e-17  8.029691e-01
   endloop
 endfacet
 facet normal  0.000000e+00  1.000000e+00  0.000000e+00
   outer loop
     vertex  2.749559e-01  1.040834e-17  9.232804e-01
     vertex  1.515495e-01  1.040834e-17  8.029691e-01
     vertex -3.686073e-02  1.040834e-17  9.232804e-01
   endloop
 endfacet
 facet normal  0.000000e+00  1.000000e+00 -0.000000e+00
   outer loop
     vertex  2.749559e-01  1.040834e-17  2.813051e-01
     vertex  2.474426e-01  1.040834e-17  7.215167e-01
     vertex  2.749559e-01  1.040834e-17  9.232804e-01
   endloop
 endfacet
 facet normal  0.000000e+00  1.000000e+00  0.000000e+00
   outer loop
     vertex  2.749559e-01  1.040834e-17  2.813051e-01
     vertex  2.455129e-01  1.040834e-17  7.037731e-01
     vertex  2.474426e-01  1.040834e-17  7.215167e-01
   endloop
 endfacet
 facet normal  0.000000e+00  1.000000e+00  0.000000e+00
   outer loop
     vertex  2.749559e-01  1.040834e-17  2.813051e-01
     vertex  2.398139e-01  1.040834e-17  6.868592e-01
     vertex  2.455129e-01  1.040834e-17  7.037731e-01
   endloop
 endfacet
 facet normal  0.000000e+00  1.000000e+00  0.000000e+00
   outer loop
     vertex  2.749559e-01  1.040834e-17  2.813051e-01
     vertex  2.306122e-01  1.040834e-17  6.715658e-01
     vertex  2.398139e-01  1.040834e-17  6.868592e-01
   endloop
 endfacet
 facet normal  1.000000e+00  0.000000e+00  0.000000e+00
   outer loop
     vertex  2.749559e-01 -1.587302e-02  9.232804e-01
     vertex  2.749559e-01 -3.174604e-01  2.813051e-01
     vertex  2.749559e-01 -1.587302e-02  2.813051e-01
   endloop
 endfacet
 facet normal  1.000000e+00  0.000000e+00  0.000000e+00
   outer loop
     vertex  2.749559e-01 -1.587302e-02  9.232804e-01
     vertex  2.749559e-01 -3.174604e-01  9.232804e-01
     vertex  2.749559e-01 -3.174604e-01  2.813051e-01
   endloop
 endfacet
 facet normal -9.941380e-01  0.000000e+00 -1.081190e-01
   outer loop
     vertex  2.455129e-01 -1.587302e-02  7.392603e-01
     vertex  2.474426e-01 -1.587302e-02  7.215167e-01
     vertex  2.474426e-01 -3.174604e-01  7.215167e-01
   endloop
 endfacet
 facet normal -9.941380e-01 -0.000000e+00 -1.081190e-01
   outer loop
     vertex  2.455129e-01 -1.587302e-02  7.392603e-01
     vertex  2.474426e-01 -3.174604e-01  7.215167e-01
     vertex  2.455129e-01 -3.174604e-01  7.392603e-01
   endloop
 endfacet
 facet normal -9.476532e-01 -0.000000e+00 -3.193015e-01
   outer loop
     vertex  2.398139e-01 -1.587302e-02  7.561742e-01
     vertex  2.455129e-01 -3.174604e-01  7.392603e-01
     vertex  2.398139e-01 -3.174604e-01  7.561742e-01
   endloop
 endfacet
 facet normal -9.476532e-01  0.000000e+00 -3.193015e-01
   outer loop
     vertex  2.398139e-01 -1.587302e-02  7.561742e-01
     vertex  2.455129e-01 -1.587302e-02  7.392603e-01
     vertex  2.455129e-01 -3.174604e-01  7.392603e-01
   endloop
 endfacet
 facet normal -8.568572e-01 -0.000000e+00 -5.155539e-01
   outer loop
     vertex  2.306122e-01 -1.587302e-02  7.714676e-01
     vertex  2.398139e-01 -3.174604e-01  7.561742e-01
     vertex  2.306122e-01 -3.174604e-01  7.714676e-01
   endloop
 endfacet
 facet normal -8.568572e-01  0.000000e+00 -5.155539e-01
   outer loop
     vertex  2.306122e-01 -1.587302e-02  7.714676e-01
     vertex  2.398139e-01 -1.587302e-02  7.561742e-01
     vertex  2.398139e-01 -3.174604e-01  7.561742e-01
   endloop
 endfacet
 facet normal -7.259955e-01 -0.000000e+00 -6.876995e-01
   outer loop
     vertex  2.183380e-01 -1.587302e-02  7.844253e-01
     vertex  2.306122e-01 -3.174604e-01  7.714676e-01
     vertex  2.183380e-01 -3.174604e-01  7.844253e-01
   endloop
 endfacet
 facet normal -7.259955e-01  0.000000e+00 -6.876995e-01
   outer loop
     vertex  2.183380e-01 -1.587302e-02  7.844253e-01
     vertex  2.306122e-01 -1.587302e-02  7.714676e-01
     vertex  2.306122e-01 -3.174604e-01  7.714676e-01
   endloop
 endfacet
 facet normal -5.611871e-01 -0.000000e+00 -8.276890e-01
   outer loop
     vertex  2.035652e-01 -1.587302e-02  7.944415e-01
     vertex  2.183380e-01 -3.174604e-01  7.844253e-01
     vertex  2.035652e-01 -3.174604e-01  7.944415e-01
   endloop
 endfacet
 facet normal -5.611871e-01  0.000000e+00 -8.276890e-01
   outer loop
     vertex  2.035652e-01 -1.587302e-02  7.944415e-01
     vertex  2.183380e-01 -1.587302e-02  7.844253e-01
     vertex  2.183380e-01 -3.174604e-01  7.844253e-01
   endloop
 endfacet
 facet normal -3.701382e-01 -0.000000e+00 -9.289767e-01
   outer loop
     vertex  1.869847e-01 -1.587302e-02  8.010478e-01
     vertex  2.035652e-01 -3.174604e-01  7.944415e-01
     vertex  1.869847e-01 -3.174604e-01  8.010478e-01
   endloop
 endfacet
 facet normal -3.701382e-01  0.000000e+00 -9.289767e-01
   outer loop
     vertex  1.869847e-01 -1.587302e-02  8.010478e-01
     vertex  2.035652e-01 -1.587302e-02  7.944415e-01
     vertex  2.035652e-01 -3.174604e-01  7.944415e-01
   endloop
 endfacet
 facet normal -1.617820e-01 -0.000000e+00 -9.868265e-01
   outer loop
     vertex  1.693716e-01 -1.587302e-02  8.039353e-01
     vertex  1.869847e-01 -3.174604e-01  8.010478e-01
     vertex  1.693716e-01 -3.174604e-01  8.039353e-01
   endloop
 endfacet
 facet normal -1.617820e-01  0.000000e+00 -9.868265e-01
   outer loop
     vertex  1.693716e-01 -1.587302e-02  8.039353e-01
     vertex  1.869847e-01 -1.587302e-02  8.010478e-01
     vertex  1.869847e-01 -3.174604e-01  8.010478e-01
   endloop
 endfacet
 facet normal  5.413891e-02  0.000000e+00 -9.985334e-01
   outer loop
     vertex  1.515495e-01 -1.587302e-02  8.029691e-01
     vertex  1.693716e-01 -3.174604e-01  8.039353e-01
     vertex  1.515495e-01 -3.174604e-01  8.029691e-01
   endloop
 endfacet
 facet normal  5.413891e-02  0.000000e+00 -9.985334e-01
   outer loop
     vertex  1.515495e-01 -1.587302e-02  8.029691e-01
     vertex  1.693716e-01 -1.587302e-02  8.039353e-01
     vertex  1.693716e-01 -3.174604e-01  8.039353e-01
   endloop
 endfacet
 facet normal  2.675283e-01  0.000000e+00 -9.635500e-01
   outer loop
     vertex  1.343519e-01 -1.587302e-02  7.981942e-01
     vertex  1.515495e-01 -3.174604e-01  8.029691e-01
     vertex  1.343519e-01 -3.174604e-01  7.981942e-01
   endloop
 endfacet
 facet normal  2.675283e-01  0.000000e+00 -9.635500e-01
   outer loop
     vertex  1.343519e-01 -1.587302e-02  7.981942e-01
     vertex  1.515495e-01 -1.587302e-02  8.029691e-01
     vertex  1.515495e-01 -3.174604e-01  8.029691e-01
   endloop
 endfacet
 facet normal  4.684084e-01  0.000000e+00 -8.835120e-01
   outer loop
     vertex  1.185828e-01 -1.587302e-02  7.898339e-01
     vertex  1.343519e-01 -1.587302e-02  7.981942e-01
     vertex  1.343519e-01 -3.174604e-01  7.981942e-01
   endloop
 endfacet
 facet normal  4.684084e-01  0.000000e+00 -8.835120e-01
   outer loop
     vertex  1.185828e-01 -1.587302e-02  7.898339e-01
     vertex  1.343519e-01 -3.174604e-01  7.981942e-01
     vertex  1.185828e-01 -3.174604e-01  7.898339e-01
   endloop
 endfacet
 facet normal  6.473863e-01  0.000000e+00 -7.621621e-01
   outer loop
     vertex  1.185828e-01 -1.587302e-02  7.898339e-01
     vertex  1.185828e-01 -3.174604e-01  7.898339e-01
     vertex  1.049795e-01 -3.174604e-01  7.782792e-01
   endloop
 endfacet
 facet normal  6.473863e-01  0.000000e+00 -7.621621e-01
   outer loop
     vertex  1.049795e-01 -1.587302e-02  7.782792e-01
     vertex  1.185828e-01 -1.587302e-02  7.898339e-01
     vertex  1.049795e-01 -3.174604e-01  7.782792e-01
   endloop
 endfacet
 facet normal  7.960931e-01  0.000000e+00 -6.051742e-01
   outer loop
     vertex  9.417824e-02 -1.587302e-02  7.640704e-01
     vertex  1.049795e-01 -1.587302e-02  7.782792e-01
     vertex  1.049795e-01 -3.174604e-01  7.782792e-01
   endloop
 endfacet
 facet normal  7.960931e-01  0.000000e+00 -6.051742e-01
   outer loop
     vertex  9.417824e-02 -1.587302e-02  7.640704e-01
     vertex  1.049795e-01 -3.174604e-01  7.782792e-01
     vertex  9.417824e-02 -3.174604e-01  7.640704e-01
   endloop
 endfacet
 facet normal  9.075754e-01  0.000000e+00 -4.198891e-01
   outer loop
     vertex  9.417824e-02 -1.587302e-02  7.640704e-01
     vertex  9.417824e-02 -3.174604e-01  7.640704e-01
     vertex  8.668397e-02 -3.174604e-01  7.478718e-01
   endloop
 endfacet
 facet normal  9.075754e-01  0.000000e+00 -4.198891e-01
   outer loop
     vertex  8.668397e-02 -1.587302e-02  7.478718e-01
     vertex  9.417824e-02 -1.587302e-02  7.640704e-01
     vertex  8.668397e-02 -3.174604e-01  7.478718e-01
   endloop
 endfacet
 facet normal  9.766206e-01  0.000000e+00 -2.149704e-01
   outer loop
     vertex  8.284713e-02 -1.587302e-02  7.304408e-01
     vertex  8.668397e-02 -3.174604e-01  7.478718e-01
     vertex  8.284713e-02 -3.174604e-01  7.304408e-01
   endloop
 endfacet
 facet normal  9.766206e-01  0.000000e+00 -2.149704e-01
   outer loop
     vertex  8.284713e-02 -1.587302e-02  7.304408e-01
     vertex  8.668397e-02 -1.587302e-02  7.478718e-01
     vertex  8.668397e-02 -3.174604e-01  7.478718e-01
   endloop
 endfacet
 facet normal  1.000000e+00  0.000000e+00  1.555089e-15
   outer loop
     vertex  8.284713e-02 -1.587302e-02  7.125926e-01
     vertex  8.284713e-02 -3.174604e-01  7.304408e-01
     vertex  8.284713e-02 -3.174604e-01  7.125926e-01
   endloop
 endfacet
 facet normal  1.000000e+00  0.000000e+00  1.555089e-15
   outer loop
     vertex  8.284713e-02 -1.587302e-02  7.125926e-01
     vertex  8.284713e-02 -1.587302e-02  7.304408e-01
     vertex  8.284713e-02 -3.174604e-01  7.304408e-01
   endloop
 endfacet
 facet normal  9.766206e-01  0.000000e+00  2.149704e-01
   outer loop
     vertex  8.668397e-02 -1.587302e-02  6.951617e-01
     vertex  8.284713e-02 -3.174604e-01  7.125926e-01
     vertex  8.668397e-02 -3.174604e-01  6.951617e-01
   endloop
 endfacet
 facet normal  9.766206e-01  0.000000e+00  2.149704e-01
   outer loop
     vertex  8.668397e-02 -1.587302e-02  6.951617e-01
     vertex  8.284713e-02 -1.587302e-02  7.125926e-01
     vertex  8.284713e-02 -3.174604e-01  7.125926e-01
   endloop
 endfacet
 facet normal  9.075754e-01  0.000000e+00  4.198891e-01
   outer loop
     vertex  9.417824e-02 -1.587302e-02  6.789631e-01
     vertex  8.668397e-02 -3.174604e-01  6.951617e-01
     vertex  9.417824e-02 -3.174604e-01  6.789631e-01
   endloop
 endfacet
 facet normal  9.075754e-01  0.000000e+00  4.198891e-01
   outer loop
     vertex  9.417824e-02 -1.587302e-02  6.789631e-01
     vertex  8.668397e-02 -1.587302e-02  6.951617e-01
     vertex  8.668397e-02 -3.174604e-01  6.951617e-01
   endloop
 endfacet
 facet normal  7.960931e-01  0.000000e+00  6.051742e-01
   outer loop
     vertex  1.049795e-01 -1.587302e-02  6.647542e-01
     vertex  9.417824e-02 -3.174604e-01  6.789631e-01
     vertex  1.049795e-01 -3.174604e-01  6.647542e-01
   endloop
 endfacet
 facet normal  7.960931e-01  0.000000e+00  6.051742e-01
   outer loop
     vertex  1.049795e-01 -1.587302e-02  6.647542e-01
     vertex  9.417824e-02 -1.587302e-02  6.789631e-01
     vertex  9.417824e-02 -3.174604e-01  6.789631e-01
   endloop
 endfacet
 facet normal  6.473863e-01  0.000000e+00  7.621621e-01
   outer loop
     vertex  1.185828e-01 -1.587302e-02  6.531995e-01
     vertex  1.049795e-01 -3.174604e-01  6.647542e-01
     vertex  1.185828e-01 -3.174604e-01  6.531995e-01
   endloop
 endfacet
 facet normal  6.473863e-01  0.000000e+00  7.621621e-01
   outer loop
     vertex  1.185828e-01 -1.587302e-02  6.531995e-01
     vertex  1.049795e-01 -1.587302e-02  6.647542e-01
     vertex  1.049795e-01 -3.174604e-01  6.647542e-01
   endloop
 endfacet
 facet normal  4.684084e-01  0.000000e+00  8.835120e-01
   outer loop
     vertex  1.343519e-01 -1.587302e-02  6.448393e-01
     vertex  1.185828e-01 -3.174604e-01  6.531995e-01
     vertex  1.343519e-01 -3.174604e-01  6.448393e-01
   endloop
 endfacet
 facet normal  4.684084e-01  0.000000e+00  8.835120e-01
   outer loop
     vertex  1.343519e-01 -1.587302e-02  6.448393e-01
     vertex  1.185828e-01 -1.587302e-02  6.531995e-01
     vertex  1.185828e-01 -3.174604e-01  6.531995e-01
   endloop
 endfacet
 facet normal  2.675283e-01  0.000000e+00  9.635500e-01
   outer loop
     vertex  1.515495e-01 -1.587302e-02  6.400644e-01
     vertex  1.343519e-01 -3.174604e-01  6.448393e-01
     vertex  1.515495e-01 -3.174604e-01  6.400644e-01
   endloop
 endfacet
 facet normal  5.413891e-02  0.000000e+00  9.985334e-01
   outer loop
     vertex  1.515495e-01 -1.587302e-02  6.400644e-01
     vertex  1.515495e-01 -3.174604e-01  6.400644e-01
     vertex  1.693716e-01 -3.174604e-01  6.390981e-01
   endloop
 endfacet
 facet normal  2.675283e-01  0.000000e+00  9.635500e-01
   outer loop
     vertex  1.515495e-01 -1.587302e-02  6.400644e-01
     vertex  1.343519e-01 -1.587302e-02  6.448393e-01
     vertex  1.343519e-01 -3.174604e-01  6.448393e-01
   endloop
 endfacet
 facet normal  5.413891e-02  0.000000e+00  9.985334e-01
   outer loop
     vertex  1.693716e-01 -1.587302e-02  6.390981e-01
     vertex  1.515495e-01 -1.587302e-02  6.400644e-01
     vertex  1.693716e-01 -3.174604e-01  6.390981e-01
   endloop
 endfacet
 facet normal -1.617820e-01  0.000000e+00  9.868265e-01
   outer loop
     vertex  1.869847e-01 -1.587302e-02  6.419856e-01
     vertex  1.693716e-01 -3.174604e-01  6.390981e-01
     vertex  1.869847e-01 -3.174604e-01  6.419856e-01
   endloop
 endfacet
 facet normal -1.617820e-01  0.000000e+00  9.868265e-01
   outer loop
     vertex  1.869847e-01 -1.587302e-02  6.419856e-01
     vertex  1.693716e-01 -1.587302e-02  6.390981e-01
     vertex  1.693716e-01 -3.174604e-01  6.390981e-01
   endloop
 endfacet
 facet normal -3.701382e-01  0.000000e+00  9.289767e-01
   outer loop
     vertex  2.035652e-01 -1.587302e-02  6.485919e-01
     vertex  1.869847e-01 -3.174604e-01  6.419856e-01
     vertex  2.035652e-01 -3.174604e-01  6.485919e-01
   endloop
 endfacet
 facet normal -3.701382e-01  0.000000e+00  9.289767e-01
   outer loop
     vertex  2.035652e-01 -1.587302e-02  6.485919e-01
     vertex  1.869847e-01 -1.587302e-02  6.419856e-01
     vertex  1.869847e-01 -3.174604e-01  6.419856e-01
   endloop
 endfacet
 facet normal -5.611871e-01  0.000000e+00  8.276890e-01
   outer loop
     vertex  2.183380e-01 -1.587302e-02  6.586081e-01
     vertex  2.035652e-01 -3.174604e-01  6.485919e-01
     vertex  2.183380e-01 -3.174604e-01  6.586081e-01
   endloop
 endfacet
 facet normal -7.259955e-01  0.000000e+00  6.876995e-01
   outer loop
     vertex  2.183380e-01 -1.587302e-02  6.586081e-01
     vertex  2.183380e-01 -3.174604e-01  6.586081e-01
     vertex  2.306122e-01 -3.174604e-01  6.715658e-01
   endloop
 endfacet
 facet normal -5.611871e-01  0.000000e+00  8.276890e-01
   outer loop
     vertex  2.183380e-01 -1.587302e-02  6.586081e-01
     vertex  2.035652e-01 -1.587302e-02  6.485919e-01
     vertex  2.035652e-01 -3.174604e-01  6.485919e-01
   endloop
 endfacet
 facet normal -7.259955e-01  0.000000e+00  6.876995e-01
   outer loop
     vertex  2.306122e-01 -1.587302e-02  6.715658e-01
     vertex  2.183380e-01 -1.587302e-02  6.586081e-01
     vertex  2.306122e-01 -3.174604e-01  6.715658e-01
   endloop
 endfacet
 facet normal -8.568572e-01  0.000000e+00  5.155539e-01
   outer loop
     vertex  2.398139e-01 -1.587302e-02  6.868592e-01
     vertex  2.306122e-01 -3.174604e-01  6.715658e-01
     vertex  2.398139e-01 -3.174604e-01  6.868592e-01
   endloop
 endfacet
 facet normal -8.568572e-01  0.000000e+00  5.155539e-01
   outer loop
     vertex  2.398139e-01 -1.587302e-02  6.868592e-01
     vertex  2.306122e-01 -1.587302e-02  6.715658e-01
     vertex  2.306122e-01 -3.174604e-01  6.715658e-01
   endloop
 endfacet
 facet normal -9.476532e-01  0.000000e+00  3.193015e-01
   outer loop
     vertex  2.455129e-01 -1.587302e-02  7.037731e-01
     vertex  2.398139e-01 -3.174604e-01  6.868592e-01
     vertex  2.455129e-01 -3.174604e-01  7.037731e-01
   endloop
 endfacet
 facet normal -9.476532e-01  0.000000e+00  3.193015e-01
   outer loop
     vertex  2.455129e-01 -1.587302e-02  7.037731e-01
     vertex  2.398139e-01 -1.587302e-02  6.868592e-01
     vertex  2.398139e-01 -3.174604e-01  6.868592e-01
   endloop
 endfacet
 facet normal -9.941380e-01  0.000000e+00  1.081190e-01
   outer loop
     vertex  2.474426e-01 -1.587302e-02  7.215167e-01
     vertex  2.455129e-01 -3.174604e-01  7.037731e-01
     vertex  2.474426e-01 -3.174604e-01  7.215167e-01
   endloop
 endfacet
 facet normal -9.941380e-01  0.000000e+00  1.081190e-01
   outer loop
     vertex  2.474426e-01 -1.587302e-02  7.215167e-01
     vertex  2.455129e-01 -1.587302e-02  7.037731e-01
     vertex  2.455129e-01 -3.174604e-01  7.037731e-01
   endloop
 endfacet
 facet normal  0.000000e+00  0.000000e+00  1.000000e+00
   outer loop
     vertex -3.686073e-02 -1.587302e-02  9.232804e-01
     vertex  2.749559e-01 -1.587302e-02  9.232804e-01
     vertex  2.749559e-01  0.000000e+00  9.232804e-01
   endloop
 endfacet
 facet normal  0.000000e+00  0.000000e+00  1.000000e+00
   outer loop
     vertex -3.686073e-02 -1.587302e-02  9.232804e-01
     vertex  2.749559e-01  0.000000e+00  9.232804e-01
     vertex -3.686073e-02  0.000000e+00  9.232804e-01
   endloop
 endfacet
 facet normal  0.000000e+00  0.000000e+00  1.000000e+00
   outer loop
     vertex  2.749559e-01 -1.587302e-02  2.813051e-01
     vertex  5.867725e-01 -1.587302e-02  2.813051e-01
     vertex  5.867725e-01  0.000000e+00  2.813051e-01
   endloop
 endfacet
 facet normal  0.000000e+00  0.000000e+00  1.000000e+00
   outer loop
     vertex  2.749559e-01 -1.587302e-02  2.813051e-01
     vertex  5.867725e-01  0.000000e+00  2.813051e-01
     vertex  2.749559e-01  0.000000e+00  2.813051e-01
   endloop
 endfacet
 facet normal  1.000000e+00  0.000000e+00  0.000000e+00
   outer loop
     vertex  2.749559e-01 -1.587302e-02  9.232804e-01
     vertex  2.749559e-01 -1.587302e-02  2.813051e-01
     vertex  2.749559e-01  0.000000e+00  2.813051e-01
   endloop
 endfacet
 facet normal  1.000000e+00 -0.000000e+00  0.000000e+00
   outer loop
     vertex  2.749559e-01 -1.587302e-02  9.232804e-01
     vertex  2.749559e-01  0.000000e+00  2.813051e-01
     vertex  2.749559e-01  0.000000e+00  9.232804e-01
   endloop
 endfacet
 facet normal -9.941380e-01  0.000000e+00 -1.081190e-01
   outer loop
     vertex  2.455129e-01 -1.587302e-02  7.392603e-01
     vertex  2.474426e-01  0.000000e+00  7.215167e-01
     vertex  2.474426e-01 -1.587302e-02  7.215167e-01
   endloop
 endfacet
 facet normal -9.941380e-01  0.000000e+00 -1.081190e-01
   outer loop
     vertex  2.455129e-01 -1.587302e-02  7.392603e-01
     vertex  2.455129e-01  0.000000e+00  7.392603e-01
     vertex  2.474426e-01  0.000000e+00  7.215167e-01
   endloop
 endfacet
 facet normal -9.476532e-01  0.000000e+00 -3.193015e-01
   outer loop
     vertex  2.398139e-01 -1.587302e-02  7.561742e-01
     vertex  2.398139e-01  0.000000e+00  7.561742e-01
     vertex  2.455129e-01  0.000000e+00  7.392603e-01
   endloop
 endfacet
 facet normal -9.476532e-01  0.000000e+00 -3.193015e-01
   outer loop
     vertex  2.398139e-01 -1.587302e-02  7.561742e-01
     vertex  2.455129e-01  0.000000e+00  7.392603e-01
     vertex  2.455129e-01 -1.587302e-02  7.392603e-01
   endloop
 endfacet
 facet normal -8.568572e-01  0.000000e+00 -5.155539e-01
   outer loop
     vertex  2.306122e-01 -1.587302e-02  7.714676e-01
     vertex  2.306122e-01  0.000000e+00  7.714676e-01
     vertex  2.398139e-01  0.000000e+00  7.561742e-01
   endloop
 endfacet
 facet normal -8.568572e-01  0.000000e+00 -5.155539e-01
   outer loop
     vertex  2.306122e-01 -1.587302e-02  7.714676e-01
     vertex  2.398139e-01  0.000000e+00  7.561742e-01
     vertex  2.398139e-01 -1.587302e-02  7.561742e-01
   endloop
 endfacet
 facet normal -7.259955e-01  0.000000e+00 -6.876995e-01
   outer loop
     vertex  2.183380e-01 -1.587302e-02  7.844253e-01
     vertex  2.183380e-01  0.000000e+00  7.844253e-01
     vertex  2.306122e-01  0.000000e+00  7.714676e-01
   endloop
 endfacet
 facet normal -7.259955e-01  0.000000e+00 -6.876995e-01
   outer loop
     vertex  2.183380e-01 -1.587302e-02  7.844253e-01
     vertex  2.306122e-01  0.000000e+00  7.714676e-01
     vertex  2.306122e-01 -1.587302e-02  7.714676e-01
   endloop
 endfacet
 facet normal -5.611871e-01  0.000000e+00 -8.276890e-01
   outer loop
     vertex  2.035652e-01 -1.587302e-02  7.944415e-01
     vertex  2.035652e-01  0.000000e+00  7.944415e-01
     vertex  2.183380e-01  0.000000e+00  7.844253e-01
   endloop
 endfacet
 facet normal -5.611871e-01  0.000000e+00 -8.276890e-01
   outer loop
     vertex  2.035652e-01 -1.587302e-02  7.944415e-01
     vertex  2.183380e-01  0.000000e+00  7.844253e-01
     vertex  2.183380e-01 -1.587302e-02  7.844253e-01
   endloop
 endfacet
 facet normal -3.701382e-01  0.000000e+00 -9.289767e-01
   outer loop
     vertex  1.869847e-01 -1.587302e-02  8.010478e-01
     vertex  1.869847e-01  0.000000e+00  8.010478e-01
     vertex  2.035652e-01  0.000000e+00  7.944415e-01
   endloop
 endfacet
 facet normal -3.701382e-01  0.000000e+00 -9.289767e-01
   outer loop
     vertex  1.869847e-01 -1.587302e-02  8.010478e-01
     vertex  2.035652e-01  0.000000e+00  7.944415e-01
     vertex  2.035652e-01 -1.587302e-02  7.944415e-01
   endloop
 endfacet
 facet normal -1.617820e-01  0.000000e+00 -9.868265e-01
   outer loop
     vertex  1.693716e-01 -1.587302e-02  8.039353e-01
     vertex  1.693716e-01  0.000000e+00  8.039353e-01
     vertex  1.869847e-01  0.000000e+00  8.010478e-01
   endloop
 endfacet
 facet normal -1.617820e-01  0.000000e+00 -9.868265e-01
   outer loop
     vertex  1.693716e-01 -1.587302e-02  8.039353e-01
     vertex  1.869847e-01  0.000000e+00  8.010478e-01
     vertex  1.869847e-01 -1.587302e-02  8.010478e-01
   endloop
 endfacet
 facet normal  5.413891e-02  0.000000e+00 -9.985334e-01
   outer loop
     vertex  1.515495e-01 -1.587302e-02  8.029691e-01
     vertex  1.515495e-01  0.000000e+00  8.029691e-01
     vertex  1.693716e-01  0.000000e+00  8.039353e-01
   endloop
 endfacet
 facet normal  5.413891e-02  0.000000e+00 -9.985334e-01
   outer loop
     vertex  1.515495e-01 -1.587302e-02  8.029691e-01
     vertex  1.693716e-01  0.000000e+00  8.039353e-01
     vertex  1.693716e-01 -1.587302e-02  8.039353e-01
   endloop
 endfacet
 facet normal  2.675283e-01  0.000000e+00 -9.635500e-01
   outer loop
     vertex  1.343519e-01 -1.587302e-02  7.981942e-01
     vertex  1.343519e-01  0.000000e+00  7.981942e-01
     vertex  1.515495e-01  0.000000e+00  8.029691e-01
   endloop
 endfacet
 facet normal  2.675283e-01  0.000000e+00 -9.635500e-01
   outer loop
     vertex  1.343519e-01 -1.587302e-02  7.981942e-01
     vertex  1.515495e-01  0.000000e+00  8.029691e-01
     vertex  1.515495e-01 -1.587302e-02  8.029691e-01
   endloop
 endfacet
 facet normal  4.684084e-01  0.000000e+00 -8.835120e-01
   outer loop
     vertex  1.185828e-01 -1.587302e-02  7.898339e-01
     vertex  1.343519e-01  0.000000e+00  7.981942e-01
     vertex  1.343519e-01 -1.587302e-02  7.981942e-01
   endloop
 endfacet
 facet normal  4.684084e-01  0.000000e+00 -8.835120e-01
   outer loop
     vertex  1.185828e-01 -1.587302e-02  7.898339e-01
     vertex  1.185828e-01  0.000000e+00  7.898339e-01
     vertex  1.343519e-01  0.000000e+00  7.981942e-01
   endloop
 endfacet
 facet normal  6.473863e-01  0.000000e+00 -7.621621e-01
   outer loop
     vertex  1.049795e-01 -1.587302e-02  7.782792e-01
     vertex  1.185828e-01  0.000000e+00  7.898339e-01
     vertex  1.185828e-01 -1.587302e-02  7.898339e-01
   endloop
 endfacet
 facet normal  6.473863e-01  0.000000e+00 -7.621621e-01
   outer loop
     vertex  1.049795e-01 -1.587302e-02  7.782792e-01
     vertex  1.049795e-01  0.000000e+00  7.782792e-01
     vertex  1.185828e-01  0.000000e+00  7.898339e-01
   endloop
 endfacet
 facet normal  7.960931e-01  0.000000e+00 -6.051742e-01
   outer loop
     vertex  9.417824e-02 -1.587302e-02  7.640704e-01
     vertex  9.417824e-02  0.000000e+00  7.640704e-01
     vertex  1.049795e-01  0.000000e+00  7.782792e-01
   endloop
 endfacet
 facet normal  7.960931e-01  0.000000e+00 -6.051742e-01
   outer loop
     vertex  9.417824e-02 -1.587302e-02  7.640704e-01
     vertex  1.049795e-01  0.000000e+00  7.782792e-01
     vertex  1.049795e-01 -1.587302e-02  7.782792e-01
   endloop
 endfacet
 facet normal  9.075754e-01  0.000000e+00 -4.198891e-01
   outer loop
     vertex  8.668397e-02 -1.587302e-02  7.478718e-01
     vertex  8.668397e-02  0.000000e+00  7.478718e-01
     vertex  9.417824e-02  0.000000e+00  7.640704e-01
   endloop
 endfacet
 facet normal  9.075754e-01  0.000000e+00 -4.198891e-01
   outer loop
     vertex  8.668397e-02 -1.587302e-02  7.478718e-01
     vertex  9.417824e-02  0.000000e+00  7.640704e-01
     vertex  9.417824e-02 -1.587302e-02  7.640704e-01
   endloop
 endfacet
 facet normal  9.766206e-01  0.000000e+00 -2.149704e-01
   outer loop
     vertex  8.284713e-02 -1.587302e-02  7.304408e-01
     vertex  8.284713e-02  0.000000e+00  7.304408e-01
     vertex  8.668397e-02  0.000000e+00  7.478718e-01
   endloop
 endfacet
 facet normal  9.766206e-01  0.000000e+00 -2.149704e-01
   outer loop
     vertex  8.284713e-02 -1.587302e-02  7.304408e-01
     vertex  8.668397e-02  0.000000e+00  7.478718e-01
     vertex  8.668397e-02 -1.587302e-02  7.478718e-01
   endloop
 endfacet
 facet normal  1.000000e+00 -0.000000e+00  1.555089e-15
   outer loop
     vertex  8.284713e-02 -1.587302e-02  7.125926e-01
     vertex  8.284713e-02  0.000000e+00  7.125926e-01
     vertex  8.284713e-02  0.000000e+00  7.304408e-01
   endloop
 endfacet
 facet normal  1.000000e+00  0.000000e+00  1.555089e-15
   outer loop
     vertex  8.284713e-02 -1.587302e-02  7.125926e-01
     vertex  8.284713e-02  0.000000e+00  7.304408e-01
     vertex  8.284713e-02 -1.587302e-02  7.304408e-01
   endloop
 endfacet
 facet normal  9.766206e-01 -0.000000e+00  2.149704e-01
   outer loop
     vertex  8.668397e-02 -1.587302e-02  6.951617e-01
     vertex  8.668397e-02  0.000000e+00  6.951617e-01
     vertex  8.284713e-02  0.000000e+00  7.125926e-01
   endloop
 endfacet
 facet normal  9.766206e-01  0.000000e+00  2.149704e-01
   outer loop
     vertex  8.668397e-02 -1.587302e-02  6.951617e-01
     vertex  8.284713e-02  0.000000e+00  7.125926e-01
     vertex  8.284713e-02 -1.587302e-02  7.125926e-01
   endloop
 endfacet
 facet normal  9.075754e-01 -0.000000e+00  4.198891e-01
   outer loop
     vertex  9.417824e-02 -1.587302e-02  6.789631e-01
     vertex  9.417824e-02  0.000000e+00  6.789631e-01
     vertex  8.668397e-02  0.000000e+00  6.951617e-01
   endloop
 endfacet
 facet normal  9.075754e-01  0.000000e+00  4.198891e-01
   outer loop
     vertex  9.417824e-02 -1.587302e-02  6.789631e-01
     vertex  8.668397e-02  0.000000e+00  6.951617e-01
     vertex  8.668397e-02 -1.587302e-02  6.951617e-01
   endloop
 endfacet
 facet normal  7.960931e-01 -0.000000e+00  6.051742e-01
   outer loop
     vertex  1.049795e-01 -1.587302e-02  6.647542e-01
     vertex  1.049795e-01  0.000000e+00  6.647542e-01
     vertex  9.417824e-02  0.000000e+00  6.789631e-01
   endloop
 endfacet
 facet normal  7.960931e-01  0.000000e+00  6.051742e-01
   outer loop
     vertex  1.049795e-01 -1.587302e-02  6.647542e-01
     vertex  9.417824e-02  0.000000e+00  6.789631e-01
     vertex  9.417824e-02 -1.587302e-02  6.789631e-01
   endloop
 endfacet
 facet normal  6.473863e-01 -0.000000e+00  7.621621e-01
   outer loop
     vertex  1.185828e-01 -1.587302e-02  6.531995e-01
     vertex  1.185828e-01  0.000000e+00  6.531995e-01
     vertex  1.049795e-01  0.000000e+00  6.647542e-01
   endloop
 endfacet
 facet normal  6.473863e-01  0.000000e+00  7.621621e-01
   outer loop
     vertex  1.185828e-01 -1.587302e-02  6.531995e-01
     vertex  1.049795e-01  0.000000e+00  6.647542e-01
     vertex  1.049795e-01 -1.587302e-02  6.647542e-01
   endloop
 endfacet
 facet normal  4.684084e-01 -0.000000e+00  8.835120e-01
   outer loop
     vertex  1.343519e-01 -1.587302e-02  6.448393e-01
     vertex  1.343519e-01  0.000000e+00  6.448393e-01
     vertex  1.185828e-01  0.000000e+00  6.531995e-01
   endloop
 endfacet
 facet normal  4.684084e-01  0.000000e+00  8.835120e-01
   outer loop
     vertex  1.343519e-01 -1.587302e-02  6.448393e-01
     vertex  1.185828e-01  0.000000e+00  6.531995e-01
     vertex  1.185828e-01 -1.587302e-02  6.531995e-01
   endloop
 endfacet
 facet normal  2.675283e-01 -0.000000e+00  9.635500e-01
   outer loop
     vertex  1.515495e-01 -1.587302e-02  6.400644e-01
     vertex  1.515495e-01  0.000000e+00  6.400644e-01
     vertex  1.343519e-01  0.000000e+00  6.448393e-01
   endloop
 endfacet
 facet normal  2.675283e-01  0.000000e+00  9.635500e-01
   outer loop
     vertex  1.515495e-01 -1.587302e-02  6.400644e-01
     vertex  1.343519e-01  0.000000e+00  6.448393e-01
     vertex  1.343519e-01 -1.587302e-02  6.448393e-01
   endloop
 endfacet
 facet normal  5.413891e-02 -0.000000e+00  9.985334e-01
   outer loop
     vertex  1.693716e-01 -1.587302e-02  6.390981e-01
     vertex  1.693716e-01  0.000000e+00  6.390981e-01
     vertex  1.515495e-01  0.000000e+00  6.400644e-01
   endloop
 endfacet
 facet normal  5.413891e-02  0.000000e+00  9.985334e-01
   outer loop
     vertex  1.693716e-01 -1.587302e-02  6.390981e-01
     vertex  1.515495e-01  0.000000e+00  6.400644e-01
     vertex  1.515495e-01 -1.587302e-02  6.400644e-01
   endloop
 endfacet
 facet normal -1.617820e-01  0.000000e+00  9.868265e-01
   outer loop
     vertex  1.869847e-01 -1.587302e-02  6.419856e-01
     vertex  1.869847e-01  0.000000e+00  6.419856e-01
     vertex  1.693716e-01  0.000000e+00  6.390981e-01
   endloop
 endfacet
 facet normal -1.617820e-01  0.000000e+00  9.868265e-01
   outer loop
     vertex  1.869847e-01 -1.587302e-02  6.419856e-01
     vertex  1.693716e-01  0.000000e+00  6.390981e-01
     vertex  1.693716e-01 -1.587302e-02  6.390981e-01
   endloop
 endfacet
 facet normal -3.701382e-01  0.000000e+00  9.289767e-01
   outer loop
     vertex  2.035652e-01 -1.587302e-02  6.485919e-01
     vertex  2.035652e-01  0.000000e+00  6.485919e-01
     vertex  1.869847e-01  0.000000e+00  6.419856e-01
   endloop
 endfacet
 facet normal -3.701382e-01  0.000000e+00  9.289767e-01
   outer loop
     vertex  2.035652e-01 -1.587302e-02  6.485919e-01
     vertex  1.869847e-01  0.000000e+00  6.419856e-01
     vertex  1.869847e-01 -1.587302e-02  6.419856e-01
   endloop
 endfacet
 facet normal -5.611871e-01  0.000000e+00  8.276890e-01
   outer loop
     vertex  2.183380e-01 -1.587302e-02  6.586081e-01
     vertex  2.183380e-01  0.000000e+00  6.586081e-01
     vertex  2.035652e-01  0.000000e+00  6.485919e-01
   endloop
 endfacet
 facet normal -5.611871e-01  0.000000e+00  8.276890e-01
   outer loop
     vertex  2.183380e-01 -1.587302e-02  6.586081e-01
     vertex  2.035652e-01  0.000000e+00  6.485919e-01
     vertex  2.035652e-01 -1.587302e-02  6.485919e-01
   endloop
 endfacet
 facet normal -7.259955e-01  0.000000e+00  6.876995e-01
   outer loop
     vertex  2.306122e-01 -1.587302e-02  6.715658e-01
     vertex  2.306122e-01  0.000000e+00  6.715658e-01
     vertex  2.183380e-01  0.000000e+00  6.586081e-01
   endloop
 endfacet
 facet normal -7.259955e-01  0.000000e+00  6.876995e-01
   outer loop
     vertex  2.306122e-01 -1.587302e-02  6.715658e-01
     vertex  2.183380e-01  0.000000e+00  6.586081e-01
     vertex  2.183380e-01 -1.587302e-02  6.586081e-01
   endloop
 endfacet
 facet normal -8.568572e-01  0.000000e+00  5.155539e-01
   outer loop
     vertex  2.398139e-01 -1.587302e-02  6.868592e-01
     vertex  2.398139e-01  0.000000e+00  6.868592e-01
     vertex  2.306122e-01  0.000000e+00  6.715658e-01
   endloop
 endfacet
 facet normal -8.568572e-01  0.000000e+00  5.155539e-01
   outer loop
     vertex  2.398139e-01 -1.587302e-02  6.868592e-01
     vertex  2.306122e-01  0.000000e+00  6.715658e-01
     vertex  2.306122e-01 -1.587302e-02  6.715658e-01
   endloop
 endfacet
 facet normal -9.476532e-01  0.000000e+00  3.193015e-01
   outer loop
     vertex  2.455129e-01 -1.587302e-02  7.037731e-01
     vertex  2.455129e-01  0.000000e+00  7.037731e-01
     vertex  2.398139e-01  0.000000e+00  6.868592e-01
   endloop
 endfacet
 facet normal -9.476532e-01  0.000000e+00  3.193015e-01
   outer loop
     vertex  2.455129e-01 -1.587302e-02  7.037731e-01
     vertex  2.398139e-01  0.000000e+00  6.868592e-01
     vertex  2.398139e-01 -1.587302e-02  6.868592e-01
   endloop
 endfacet
 facet normal -9.941380e-01  0.000000e+00  1.081190e-01
   outer loop
     vertex  2.474426e-01 -1.587302e-02  7.215167e-01
     vertex  2.474426e-01  0.000000e+00  7.215167e-01
     vertex  2.455129e-01  0.000000e+00  7.037731e-01
   endloop
 endfacet
 facet normal -9.941380e-01  0.000000e+00  1.081190e-01
   outer loop
     vertex  2.474426e-01 -1.587302e-02  7.215167e-01
     vertex  2.455129e-01  0.000000e+00  7.037731e-01
     vertex  2.455129e-01 -1.587302e-02  7.037731e-01
   endloop
 endfacet
endsolid
