solid 
 facet normal -0.000000e+00  0.000000e+00 -1.000000e+00
   outer loop
     vertex  6.054674e-01 -1.587302e-02 -4.358026e-01
     vertex -5.797179e-01 -7.301587e-01 -4.358026e-01
     vertex -5.797179e-01 -1.587302e-02 -4.358026e-01
   endloop
 endfacet
 facet normal  0.000000e+00 -0.000000e+00 -1.000000e+00
   outer loop
     vertex  6.054674e-01 -1.587302e-02 -4.358026e-01
     vertex  6.054674e-01 -7.301587e-01 -4.358026e-01
     vertex -5.797179e-01 -7.301587e-01 -4.358026e-01
   endloop
 endfacet
 facet normal -1.000000e+00  0.000000e+00  0.000000e+00
   outer loop
     vertex -5.797179e-01 -1.587302e-02 -4.358026e-01
     vertex -5.797179e-01 -7.301587e-01  9.186948e-01
     vertex -5.797179e-01 -1.587302e-02  9.186948e-01
   endloop
 endfacet
 facet normal -1.000000e+00  0.000000e+00  0.000000e+00
   outer loop
     vertex -5.797179e-01 -1.587302e-02 -4.358026e-01
     vertex -5.797179e-01 -7.301587e-01 -4.358026e-01
     vertex -5.797179e-01 -7.301587e-01  9.186948e-01
   endloop
 endfacet
 facet normal  1.000000e+00  0.000000e+00  0.000000e+00
   outer loop
     vertex  6.054674e-01 -1.587302e-02  9.186948e-01
     vertex  6.054674e-01 -7.301587e-01 -4.358026e-01
     vertex  6.054674e-01 -1.587302e-02 -4.358026e-01
   endloop
 endfacet
 facet normal  1.000000e+00  0.000000e+00  0.000000e+00
   outer loop
     vertex  6.054674e-01 -1.587302e-02  9.186948e-01
     vertex  6.054674e-01 -7.301587e-01  9.186948e-01
     vertex  6.054674e-01 -7.301587e-01 -4.358026e-01
   endloop
 endfacet
 facet normal  0.000000e+00  0.000000e+00 -1.000000e+00
   outer loop
     vertex  6.054674e-01 -1.587302e-02 -4.358026e-01
     vertex -5.797179e-01 -1.587302e-02 -4.358026e-01
     vertex -5.797179e-01  0.000000e+00 -4.358026e-01
   endloop
 endfacet
 facet normal  0.000000e+00  0.000000e+00 -1.000000e+00
   outer loop
     vertex  6.054674e-01 -1.587302e-02 -4.358026e-01
     vertex -5.797179e-01  0.000000e+00 -4.358026e-01
     vertex  6.054674e-01  0.000000e+00 -4.358026e-01
   endloop
 endfacet
 facet normal  0.000000e+00 -1.000000e+00  0.000000e+00
   outer loop
     vertex  6.054674e-01 -7.301587e-01 -4.358026e-01
     vertex  3.797178e-01 -7.301587e-01 -2.100531e-01
     vertex -3.539683e-01 -7.301587e-01 -2.100531e-01
   endloop
 endfacet
 facet normal  0.000000e+00 -1.000000e+00  0.000000e+00
   outer loop
     vertex  6.054674e-01 -7.301587e-01 -4.358026e-01
     vertex -3.539683e-01 -7.301587e-01 -2.100531e-01
     vertex -5.797179e-01 -7.301587e-01 -4.358026e-01
   endloop
 endfacet
 facet normal  0.000000e+00 -1.000000e+00  0.000000e+00
   outer loop
     vertex -5.797179e-01 -7.301587e-01  9.186948e-01
     vertex -5.797179e-01 -7.301587e-01 -4.358026e-01
     vertex -3.539683e-01 -7.301587e-01 -2.100531e-01
   endloop
 endfacet
 facet normal -0.000000e+00 -1.000000e+00 -0.000000e+00
   outer loop
     vertex -3.539683e-01 -7.301587e-01  9.186948e-01
     vertex -5.797179e-01 -7.301587e-01  9.186948e-01
     vertex -3.539683e-01 -7.301587e-01 -2.100531e-01
   endloop
 endfacet
 facet normal -0.000000e+00 -1.000000e+00  0.000000e+00
   outer loop
     vertex  6.054674e-01 -7.301587e-01  9.186948e-01
     vertex  3.797178e-01 -7.301587e-01  9.186948e-01
     vertex  3.797178e-01 -7.301587e-01 -2.100531e-01
   endloop
 endfacet
 facet normal  0.000000e+00 -1.000000e+00 -0.000000e+00
   outer loop
     vertex  6.054674e-01 -7.301587e-01  9.186948e-01
     vertex  3.797178e-01 -7.301587e-01 -2.100531e-01
     vertex  6.054674e-01 -7.301587e-01 -4.358026e-01
   endloop
 endfacet
 facet normal -0.000000e+00  0.000000e+00  1.000000e+00
   outer loop
     vertex -5.797179e-01 -1.587302e-02  9.186948e-01
     vertex -3.539683e-01 -7.301587e-01  9.186948e-01
     vertex -3.539683e-01 -1.587302e-02  9.186948e-01
   endloop
 endfacet
 facet normal  0.000000e+00  0.000000e+00  1.000000e+00
   outer loop
     vertex -5.797179e-01 -1.587302e-02  9.186948e-01
     vertex -5.797179e-01 -7.301587e-01  9.186948e-01
     vertex -3.539683e-01 -7.301587e-01  9.186948e-01
   endloop
 endfacet
 facet normal -1.000000e+00  0.000000e+00  0.000000e+00
   outer loop
     vertex -5.797179e-01 -1.587302e-02 -4.358026e-01
     vertex -5.797179e-01 -1.587302e-02  9.186948e-01
     vertex -5.797179e-01  0.000000e+00  9.186948e-01
   endloop
 endfacet
 facet normal -1.000000e+00  0.000000e+00  0.000000e+00
   outer loop
     vertex -5.797179e-01 -1.587302e-02 -4.358026e-01
     vertex -5.797179e-01  0.000000e+00  9.186948e-01
     vertex -5.797179e-01  0.000000e+00 -4.358026e-01
   endloop
 endfacet
 facet normal -0.000000e+00  0.000000e+00  1.000000e+00
   outer loop
     vertex  3.797178e-01 -1.587302e-02  9.186948e-01
     vertex  6.054674e-01 -7.301587e-01  9.186948e-01
     vertex  6.054674e-01 -1.587302e-02  9.186948e-01
   endloop
 endfacet
 facet normal  0.000000e+00  0.000000e+00  1.000000e+00
   outer loop
     vertex  3.797178e-01 -1.587302e-02  9.186948e-01
     vertex  3.797178e-01 -7.301587e-01  9.186948e-01
     vertex  6.054674e-01 -7.301587e-01  9.186948e-01
   endloop
 endfacet
 facet normal  1.000000e+00  0.000000e+00  0.000000e+00
   outer loop
     vertex  6.054674e-01 -1.587302e-02  9.186948e-01
     vertex  6.054674e-01 -1.587302e-02 -4.358026e-01
     vertex  6.054674e-01  0.000000e+00 -4.358026e-01
   endloop
 endfacet
 facet normal  1.000000e+00 -0.000000e+00  0.000000e+00
   outer loop
     vertex  6.054674e-01 -1.587302e-02  9.186948e-01
     vertex  6.054674e-01  0.000000e+00 -4.358026e-01
     vertex  6.054674e-01  0.000000e+00  9.186948e-01
   endloop
 endfacet
 facet normal  0.000000e+00  1.000000e+00  0.000000e+00
   outer loop
     vertex  6.054674e-01 -4.510281e-17 -4.358026e-01
     vertex -3.539683e-01 -4.510281e-17 -2.100531e-01
     vertex  3.797178e-01 -4.510281e-17 -2.100531e-01
   endloop
 endfacet
 facet normal  0.000000e+00  1.000000e+00  0.000000e+00
   outer loop
     vertex  6.054674e-01 -4.510281e-17 -4.358026e-01
     vertex -5.797179e-01 -4.510281e-17 -4.358026e-01
     vertex -3.539683e-01 -4.510281e-17 -2.100531e-01
   endloop
 endfacet
 facet normal  0.000000e+00  1.000000e+00  0.000000e+00
   outer loop
     vertex -5.797179e-01 -4.510281e-17  9.186948e-01
     vertex -3.539683e-01 -4.510281e-17 -2.100531e-01
     vertex -5.797179e-01 -4.510281e-17 -4.358026e-01
   endloop
 endfacet
 facet normal  0.000000e+00  1.000000e+00  0.000000e+00
   outer loop
     vertex -3.539683e-01 -4.510281e-17  9.186948e-01
     vertex -3.539683e-01 -4.510281e-17 -2.100531e-01
     vertex -5.797179e-01 -4.510281e-17  9.186948e-01
   endloop
 endfacet
 facet normal  0.000000e+00  1.000000e+00  0.000000e+00
   outer loop
     vertex  6.054674e-01 -4.510281e-17  9.186948e-01
     vertex  3.797178e-01 -4.510281e-17 -2.100531e-01
     vertex  3.797178e-01 -4.510281e-17  9.186948e-01
   endloop
 endfacet
 facet normal  0.000000e+00  1.000000e+00  0.000000e+00
   outer loop
     vertex  6.054674e-01 -4.510281e-17  9.186948e-01
     vertex  6.054674e-01 -4.510281e-17 -4.358026e-01
     vertex  3.797178e-01 -4.510281e-17 -2.100531e-01
   endloop
 endfacet
 facet normal -1.000000e+00  0.000000e+00  0.000000e+00
   outer loop
     vertex  3.797178e-01 -1.587302e-02 -2.100531e-01
     vertex  3.797178e-01 -7.301587e-01  9.186948e-01
     vertex  3.797178e-01 -1.587302e-02  9.186948e-01
   endloop
 endfacet
 facet normal -1.000000e+00  0.000000e+00  0.000000e+00
   outer loop
     vertex  3.797178e-01 -1.587302e-02 -2.100531e-01
     vertex  3.797178e-01 -7.301587e-01 -2.100531e-01
     vertex  3.797178e-01 -7.301587e-01  9.186948e-01
   endloop
 endfacet
 facet normal -0.000000e+00  0.000000e+00  1.000000e+00
   outer loop
     vertex -3.539683e-01 -1.587302e-02 -2.100531e-01
     vertex  3.797178e-01 -7.301587e-01 -2.100531e-01
     vertex  3.797178e-01 -1.587302e-02 -2.100531e-01
   endloop
 endfacet
 facet normal  0.000000e+00  0.000000e+00  1.000000e+00
   outer loop
     vertex -3.539683e-01 -1.587302e-02 -2.100531e-01
     vertex -3.539683e-01 -7.301587e-01 -2.100531e-01
     vertex  3.797178e-01 -7.301587e-01 -2.100531e-01
   endloop
 endfacet
 facet normal  1.000000e+00  0.000000e+00  0.000000e+00
   outer loop
     vertex -3.539683e-01 -1.587302e-02  9.186948e-01
     vertex -3.539683e-01 -7.301587e-01 -2.100531e-01
     vertex -3.539683e-01 -1.587302e-02 -2.100531e-01
   endloop
 endfacet
 facet normal  1.000000e+00  0.000000e+00  0.000000e+00
   outer loop
     vertex -3.539683e-01 -1.587302e-02  9.186948e-01
     vertex -3.539683e-01 -7.301587e-01  9.186948e-01
     vertex -3.539683e-01 -7.301587e-01 -2.100531e-01
   endloop
 endfacet
 facet normal  0.000000e+00  0.000000e+00  1.000000e+00
   outer loop
     vertex -5.797179e-01 -1.587302e-02  9.186948e-01
     vertex -3.539683e-01 -1.587302e-02  9.186948e-01
     vertex -3.539683e-01  0.000000e+00  9.186948e-01
   endloop
 endfacet
 facet normal  0.000000e+00  0.000000e+00  1.000000e+00
   outer loop
     vertex -5.797179e-01 -1.587302e-02  9.186948e-01
     vertex -3.539683e-01  0.000000e+00  9.186948e-01
     vertex -5.797179e-01  0.000000e+00  9.186948e-01
   endloop
 endfacet
 facet normal  0.000000e+00  0.000000e+00  1.000000e+00
   outer loop
     vertex  3.797178e-01 -1.587302e-02  9.186948e-01
     vertex  6.054674e-01 -1.587302e-02  9.186948e-01
     vertex  6.054674e-01  0.000000e+00  9.186948e-01
   endloop
 endfacet
 facet normal  0.000000e+00  0.000000e+00  1.000000e+00
   outer loop
     vertex  3.797178e-01 -1.587302e-02  9.186948e-01
     vertex  6.054674e-01  0.000000e+00  9.186948e-01
     vertex  3.797178e-01  0.000000e+00  9.186948e-01
   endloop
 endfacet
 facet normal -1.000000e+00  0.000000e+00  0.000000e+00
   outer loop
     vertex  3.797178e-01 -1.587302e-02 -2.100531e-01
     vertex  3.797178e-01 -1.587302e-02  9.186948e-01
     vertex  3.797178e-01  0.000000e+00  9.186948e-01
   endloop
 endfacet
 facet normal -1.000000e+00  0.000000e+00  0.000000e+00
   outer loop
     vertex  3.797178e-01 -1.587302e-02 -2.100531e-01
     vertex  3.797178e-01  0.000000e+00  9.186948e-01
     vertex  3.797178e-01  0.000000e+00 -2.100531e-01
   endloop
 endfacet
 facet normal  0.000000e+00  0.000000e+00  1.000000e+00
   outer loop
     vertex -3.539683e-01 -1.587302e-02 -2.100531e-01
     vertex  3.797178e-01 -1.587302e-02 -2.100531e-01
     vertex  3.797178e-01  0.000000e+00 -2.100531e-01
   endloop
 endfacet
 facet normal  0.000000e+00  0.000000e+00  1.000000e+00
   outer loop
     vertex -3.539683e-01 -1.587302e-02 -2.100531e-01
     vertex  3.797178e-01  0.000000e+00 -2.100531e-01
     vertex -3.539683e-01  0.000000e+00 -2.100531e-01
   endloop
 endfacet
 facet normal  1.000000e+00  0.000000e+00  0.000000e+00
   outer loop
     vertex -3.539683e-01 -1.587302e-02  9.186948e-01
     vertex -3.539683e-01 -1.587302e-02 -2.100531e-01
     vertex -3.539683e-01  0.000000e+00 -2.100531e-01
   endloop
 endfacet
 facet normal  1.000000e+00 -0.000000e+00  0.000000e+00
   outer loop
     vertex -3.539683e-01 -1.587302e-02  9.186948e-01
     vertex -3.539683e-01  0.000000e+00 -2.100531e-01
     vertex -3.539683e-01  0.000000e+00  9.186948e-01
   endloop
 endfacet
endsolid
