solid 
 facet normal -0.000000e+00  0.000000e+00 -1.000000e+00
   outer loop
     vertex  8.234568e-01 -1.587302e-02 -2.698416e-02
     vertex -1.007936e+00 -6.349212e-02 -2.698416e-02
     vertex -1.007936e+00 -1.587302e-02 -2.698416e-02
   endloop
 endfacet
 facet normal  0.000000e+00 -0.000000e+00 -1.000000e+00
   outer loop
     vertex  8.234568e-01 -1.587302e-02 -2.698416e-02
     vertex  8.234568e-01 -6.349212e-02 -2.698416e-02
     vertex -1.007936e+00 -6.349212e-02 -2.698416e-02
   endloop
 endfacet
 facet normal -1.000000e+00  0.000000e+00  0.000000e+00
   outer loop
     vertex -1.007936e+00 -1.587302e-02 -2.698416e-02
     vertex -1.007936e+00 -6.349212e-02  2.213404e-01
     vertex -1.007936e+00 -1.587302e-02  2.213404e-01
   endloop
 endfacet
 facet normal -1.000000e+00  0.000000e+00  0.000000e+00
   outer loop
     vertex -1.007936e+00 -1.587302e-02 -2.698416e-02
     vertex -1.007936e+00 -6.349212e-02 -2.698416e-02
     vertex -1.007936e+00 -6.349212e-02  2.213404e-01
   endloop
 endfacet
 facet normal  7.071067e-01  0.000000e+00 -7.071068e-01
   outer loop
     vertex  9.165785e-01 -1.587302e-02  6.613754e-02
     vertex  8.234568e-01 -6.349212e-02 -2.698416e-02
     vertex  8.234568e-01 -1.587302e-02 -2.698416e-02
   endloop
 endfacet
 facet normal  7.071067e-01  0.000000e+00 -7.071068e-01
   outer loop
     vertex  9.165785e-01 -1.587302e-02  6.613754e-02
     vertex  9.165785e-01 -6.349212e-02  6.613754e-02
     vertex  8.234568e-01 -6.349212e-02 -2.698416e-02
   endloop
 endfacet
 facet normal  0.000000e+00  0.000000e+00 -1.000000e+00
   outer loop
     vertex  8.234568e-01 -1.587302e-02 -2.698416e-02
     vertex -1.007936e+00 -1.587302e-02 -2.698416e-02
     vertex -1.007936e+00  0.000000e+00 -2.698416e-02
   endloop
 endfacet
 facet normal  0.000000e+00  0.000000e+00 -1.000000e+00
   outer loop
     vertex  8.234568e-01 -1.587302e-02 -2.698416e-02
     vertex -1.007936e+00  0.000000e+00 -2.698416e-02
     vertex  8.234568e-01  0.000000e+00 -2.698416e-02
   endloop
 endfacet
 facet normal  0.000000e+00 -1.000000e+00 -0.000000e+00
   outer loop
     vertex  8.234568e-01 -6.349212e-02  2.213404e-01
     vertex -1.007936e+00 -6.349212e-02 -2.698416e-02
     vertex  8.234568e-01 -6.349212e-02 -2.698416e-02
   endloop
 endfacet
 facet normal -0.000000e+00 -1.000000e+00  0.000000e+00
   outer loop
     vertex  8.234568e-01 -6.349212e-02  2.213404e-01
     vertex -1.007936e+00 -6.349212e-02  2.213404e-01
     vertex -1.007936e+00 -6.349212e-02 -2.698416e-02
   endloop
 endfacet
 facet normal  0.000000e+00 -1.000000e+00 -0.000000e+00
   outer loop
     vertex  9.165785e-01 -6.349212e-02  1.282187e-01
     vertex  8.234568e-01 -6.349212e-02 -2.698416e-02
     vertex  9.165785e-01 -6.349212e-02  6.613754e-02
   endloop
 endfacet
 facet normal -0.000000e+00 -1.000000e+00  0.000000e+00
   outer loop
     vertex  9.165785e-01 -6.349212e-02  1.282187e-01
     vertex  8.234568e-01 -6.349212e-02  2.213404e-01
     vertex  8.234568e-01 -6.349212e-02 -2.698416e-02
   endloop
 endfacet
 facet normal -0.000000e+00  0.000000e+00  1.000000e+00
   outer loop
     vertex -1.007936e+00 -1.587302e-02  2.213404e-01
     vertex  8.234568e-01 -6.349212e-02  2.213404e-01
     vertex  8.234568e-01 -1.587302e-02  2.213404e-01
   endloop
 endfacet
 facet normal  0.000000e+00  0.000000e+00  1.000000e+00
   outer loop
     vertex -1.007936e+00 -1.587302e-02  2.213404e-01
     vertex -1.007936e+00 -6.349212e-02  2.213404e-01
     vertex  8.234568e-01 -6.349212e-02  2.213404e-01
   endloop
 endfacet
 facet normal -1.000000e+00  0.000000e+00  0.000000e+00
   outer loop
     vertex -1.007936e+00 -1.587302e-02 -2.698416e-02
     vertex -1.007936e+00 -1.587302e-02  2.213404e-01
     vertex -1.007936e+00  0.000000e+00  2.213404e-01
   endloop
 endfacet
 facet normal -1.000000e+00  0.000000e+00  0.000000e+00
   outer loop
     vertex -1.007936e+00 -1.587302e-02 -2.698416e-02
     vertex -1.007936e+00  0.000000e+00  2.213404e-01
     vertex -1.007936e+00  0.000000e+00 -2.698416e-02
   endloop
 endfacet
 facet normal  1.000000e+00  0.000000e+00  0.000000e+00
   outer loop
     vertex  9.165785e-01 -1.587302e-02  1.282187e-01
     vertex  9.165785e-01 -6.349212e-02  6.613754e-02
     vertex  9.165785e-01 -1.587302e-02  6.613754e-02
   endloop
 endfacet
 facet normal  1.000000e+00  0.000000e+00  0.000000e+00
   outer loop
     vertex  9.165785e-01 -1.587302e-02  1.282187e-01
     vertex  9.165785e-01 -6.349212e-02  1.282187e-01
     vertex  9.165785e-01 -6.349212e-02  6.613754e-02
   endloop
 endfacet
 facet normal  7.071067e-01  0.000000e+00 -7.071068e-01
   outer loop
     vertex  9.165785e-01 -1.587302e-02  6.613754e-02
     vertex  8.234568e-01 -1.587302e-02 -2.698416e-02
     vertex  8.234568e-01  0.000000e+00 -2.698416e-02
   endloop
 endfacet
 facet normal  7.071067e-01  0.000000e+00 -7.071068e-01
   outer loop
     vertex  9.165785e-01 -1.587302e-02  6.613754e-02
     vertex  8.234568e-01  0.000000e+00 -2.698416e-02
     vertex  9.165785e-01  0.000000e+00  6.613754e-02
   endloop
 endfacet
 facet normal  0.000000e+00  1.000000e+00  0.000000e+00
   outer loop
     vertex  8.234568e-01  3.469447e-18  2.213404e-01
     vertex  8.234568e-01  3.469447e-18 -2.698416e-02
     vertex -1.007936e+00  3.469447e-18 -2.698416e-02
   endloop
 endfacet
 facet normal  0.000000e+00  1.000000e+00  0.000000e+00
   outer loop
     vertex  8.234568e-01  3.469447e-18  2.213404e-01
     vertex -1.007936e+00  3.469447e-18 -2.698416e-02
     vertex -1.007936e+00  3.469447e-18  2.213404e-01
   endloop
 endfacet
 facet normal  0.000000e+00  1.000000e+00  0.000000e+00
   outer loop
     vertex  9.165785e-01  3.469447e-18  1.282187e-01
     vertex  9.165785e-01  3.469447e-18  6.613754e-02
     vertex  8.234568e-01  3.469447e-18 -2.698416e-02
   endloop
 endfacet
 facet normal  0.000000e+00  1.000000e+00  0.000000e+00
   outer loop
     vertex  9.165785e-01  3.469447e-18  1.282187e-01
     vertex  8.234568e-01  3.469447e-18 -2.698416e-02
     vertex  8.234568e-01  3.469447e-18  2.213404e-01
   endloop
 endfacet
 facet normal  7.071067e-01  0.000000e+00  7.071068e-01
   outer loop
     vertex  8.234568e-01 -1.587302e-02  2.213404e-01
     vertex  9.165785e-01 -6.349212e-02  1.282187e-01
     vertex  9.165785e-01 -1.587302e-02  1.282187e-01
   endloop
 endfacet
 facet normal  7.071067e-01  0.000000e+00  7.071068e-01
   outer loop
     vertex  8.234568e-01 -1.587302e-02  2.213404e-01
     vertex  8.234568e-01 -6.349212e-02  2.213404e-01
     vertex  9.165785e-01 -6.349212e-02  1.282187e-01
   endloop
 endfacet
 facet normal  0.000000e+00  0.000000e+00  1.000000e+00
   outer loop
     vertex -1.007936e+00 -1.587302e-02  2.213404e-01
     vertex  8.234568e-01 -1.587302e-02  2.213404e-01
     vertex  8.234568e-01  0.000000e+00  2.213404e-01
   endloop
 endfacet
 facet normal  0.000000e+00  0.000000e+00  1.000000e+00
   outer loop
     vertex -1.007936e+00 -1.587302e-02  2.213404e-01
     vertex  8.234568e-01  0.000000e+00  2.213404e-01
     vertex -1.007936e+00  0.000000e+00  2.213404e-01
   endloop
 endfacet
 facet normal  1.000000e+00  0.000000e+00  0.000000e+00
   outer loop
     vertex  9.165785e-01 -1.587302e-02  1.282187e-01
     vertex  9.165785e-01 -1.587302e-02  6.613754e-02
     vertex  9.165785e-01  0.000000e+00  6.613754e-02
   endloop
 endfacet
 facet normal  1.000000e+00 -0.000000e+00  0.000000e+00
   outer loop
     vertex  9.165785e-01 -1.587302e-02  1.282187e-01
     vertex  9.165785e-01  0.000000e+00  6.613754e-02
     vertex  9.165785e-01  0.000000e+00  1.282187e-01
   endloop
 endfacet
 facet normal  7.071067e-01  0.000000e+00  7.071068e-01
   outer loop
     vertex  8.234568e-01 -1.587302e-02  2.213404e-01
     vertex  9.165785e-01 -1.587302e-02  1.282187e-01
     vertex  9.165785e-01  0.000000e+00  1.282187e-01
   endloop
 endfacet
 facet normal  7.071067e-01 -0.000000e+00  7.071068e-01
   outer loop
     vertex  8.234568e-01 -1.587302e-02  2.213404e-01
     vertex  9.165785e-01  0.000000e+00  1.282187e-01
     vertex  8.234568e-01  0.000000e+00  2.213404e-01
   endloop
 endfacet
endsolid
