solid 
 facet normal  0.000000e+00 -1.000000e+00  0.000000e+00
   outer loop
     vertex  1.317461e-01 -1.835979e-01 -1.587302e-02
     vertex  1.317461e-01 -1.835979e-01  9.012356e-02
     vertex  1.249994e-02 -1.835979e-01 -1.587302e-02
   endloop
 endfacet
 facet normal  0.000000e+00 -1.000000e+00  0.000000e+00
   outer loop
     vertex  1.317461e-01 -1.835979e-01 -3.174603e-02
     vertex  1.249994e-02 -1.835979e-01 -1.587302e-02
     vertex -5.357198e-03 -1.835979e-01 -3.174603e-02
   endloop
 endfacet
 facet normal -0.000000e+00 -1.000000e+00 -0.000000e+00
   outer loop
     vertex  1.317461e-01 -1.835979e-01 -1.587302e-02
     vertex  1.249994e-02 -1.835979e-01 -1.587302e-02
     vertex  1.317461e-01 -1.835979e-01 -3.174603e-02
   endloop
 endfacet
 facet normal  1.000000e+00  0.000000e+00  0.000000e+00
   outer loop
     vertex  1.317461e-01  1.719577e-01 -1.587302e-02
     vertex  1.317461e-01 -1.835979e-01  9.012356e-02
     vertex  1.317461e-01 -1.835979e-01 -1.587302e-02
   endloop
 endfacet
 facet normal  1.000000e+00  0.000000e+00 -0.000000e+00
   outer loop
     vertex  1.317461e-01  1.719577e-01 -1.587302e-02
     vertex  1.317461e-01  1.719577e-01  9.012356e-02
     vertex  1.317461e-01 -1.835979e-01  9.012356e-02
   endloop
 endfacet
 facet normal  6.643639e-01 -1.884982e-16 -7.474093e-01
   outer loop
     vertex  1.249994e-02  1.719577e-01 -1.587302e-02
     vertex -5.357198e-03  1.719577e-01 -3.174603e-02
     vertex -1.000000e-01  4.126985e-01 -1.158730e-01
   endloop
 endfacet
 facet normal  6.643639e-01  0.000000e+00 -7.474093e-01
   outer loop
     vertex  2.428571e-01  4.126985e-01  1.888889e-01
     vertex  1.249994e-02  1.719577e-01 -1.587302e-02
     vertex -1.000000e-01  4.126985e-01 -1.158730e-01
   endloop
 endfacet
 facet normal  6.643639e-01  0.000000e+00 -7.474093e-01
   outer loop
     vertex  1.317461e-01  1.719577e-01  9.012356e-02
     vertex  1.249994e-02  1.719577e-01 -1.587302e-02
     vertex  2.428571e-01  4.126985e-01  1.888889e-01
   endloop
 endfacet
 facet normal  6.643639e-01  0.000000e+00 -7.474093e-01
   outer loop
     vertex -1.000000e-01 -2.380952e-01 -1.158730e-01
     vertex -1.000000e-01  4.126985e-01 -1.158730e-01
     vertex -5.357198e-03  1.719577e-01 -3.174603e-02
   endloop
 endfacet
 facet normal  6.643639e-01  5.186194e-17 -7.474093e-01
   outer loop
     vertex -5.357198e-03 -1.835979e-01 -3.174603e-02
     vertex -1.000000e-01 -2.380952e-01 -1.158730e-01
     vertex -5.357198e-03  1.719577e-01 -3.174603e-02
   endloop
 endfacet
 facet normal  6.643639e-01 -1.332298e-15 -7.474093e-01
   outer loop
     vertex  1.249994e-02 -1.835979e-01 -1.587302e-02
     vertex -1.000000e-01 -2.380952e-01 -1.158730e-01
     vertex -5.357198e-03 -1.835979e-01 -3.174603e-02
   endloop
 endfacet
 facet normal  6.643639e-01  0.000000e+00 -7.474093e-01
   outer loop
     vertex  2.428571e-01 -2.380952e-01  1.888889e-01
     vertex  1.317461e-01 -1.835979e-01  9.012356e-02
     vertex  1.317461e-01  1.719577e-01  9.012356e-02
   endloop
 endfacet
 facet normal  6.643639e-01  0.000000e+00 -7.474093e-01
   outer loop
     vertex  2.428571e-01 -2.380952e-01  1.888889e-01
     vertex  1.317461e-01  1.719577e-01  9.012356e-02
     vertex  2.428571e-01  4.126985e-01  1.888889e-01
   endloop
 endfacet
 facet normal  6.643639e-01  0.000000e+00 -7.474093e-01
   outer loop
     vertex  2.428571e-01 -2.380952e-01  1.888889e-01
     vertex -1.000000e-01 -2.380952e-01 -1.158730e-01
     vertex  1.249994e-02 -1.835979e-01 -1.587302e-02
   endloop
 endfacet
 facet normal  6.643639e-01  0.000000e+00 -7.474093e-01
   outer loop
     vertex  2.428571e-01 -2.380952e-01  1.888889e-01
     vertex  1.249994e-02 -1.835979e-01 -1.587302e-02
     vertex  1.317461e-01 -1.835979e-01  9.012356e-02
   endloop
 endfacet
 facet normal  1.000000e+00  0.000000e+00  0.000000e+00
   outer loop
     vertex  1.317461e-01  1.719577e-01 -1.587302e-02
     vertex  1.317461e-01 -1.835979e-01 -1.587302e-02
     vertex  1.317461e-01 -1.835979e-01 -3.174603e-02
   endloop
 endfacet
 facet normal  1.000000e+00  0.000000e+00  0.000000e+00
   outer loop
     vertex  1.317461e-01  1.719577e-01 -1.587302e-02
     vertex  1.317461e-01 -1.835979e-01 -3.174603e-02
     vertex  1.317461e-01  1.719577e-01 -3.174603e-02
   endloop
 endfacet
 facet normal -0.000000e+00  0.000000e+00 -1.000000e+00
   outer loop
     vertex  1.317461e-01  1.719577e-01 -3.174603e-02
     vertex -5.357198e-03 -1.835979e-01 -3.174603e-02
     vertex -5.357198e-03  1.719577e-01 -3.174603e-02
   endloop
 endfacet
 facet normal  0.000000e+00 -0.000000e+00 -1.000000e+00
   outer loop
     vertex  1.317461e-01  1.719577e-01 -3.174603e-02
     vertex  1.317461e-01 -1.835979e-01 -3.174603e-02
     vertex -5.357198e-03 -1.835979e-01 -3.174603e-02
   endloop
 endfacet
 facet normal  0.000000e+00  1.000000e+00  0.000000e+00
   outer loop
     vertex  1.249994e-02  1.719577e-01 -1.587302e-02
     vertex  1.317461e-01  1.719577e-01  9.012356e-02
     vertex  1.317461e-01  1.719577e-01 -1.587302e-02
   endloop
 endfacet
 facet normal -4.355609e-01  0.000000e+00 -9.001592e-01
   outer loop
     vertex -1.000000e-01 -2.380952e-01 -1.158730e-01
     vertex -4.936508e-01 -2.380952e-01  7.460324e-02
     vertex -4.936508e-01  4.126985e-01  7.460324e-02
   endloop
 endfacet
 facet normal -4.355609e-01  0.000000e+00 -9.001592e-01
   outer loop
     vertex -1.000000e-01 -2.380952e-01 -1.158730e-01
     vertex -4.936508e-01  4.126985e-01  7.460324e-02
     vertex -1.000000e-01  4.126985e-01 -1.158730e-01
   endloop
 endfacet
 facet normal  6.643639e-01  0.000000e+00 -7.474093e-01
   outer loop
     vertex  2.428571e-01 -2.380952e-01  1.888889e-01
     vertex -1.000000e-01 -8.571429e-01 -1.158730e-01
     vertex -1.000000e-01 -2.380952e-01 -1.158730e-01
   endloop
 endfacet
 facet normal  6.643639e-01  0.000000e+00 -7.474093e-01
   outer loop
     vertex  2.428571e-01 -2.380952e-01  1.888889e-01
     vertex  2.428571e-01 -8.571429e-01  1.888889e-01
     vertex -1.000000e-01 -8.571429e-01 -1.158730e-01
   endloop
 endfacet
 facet normal  0.000000e+00  1.000000e+00  0.000000e+00
   outer loop
     vertex  2.428571e-01  4.126985e-01  1.888889e-01
     vertex -1.000000e-01  4.126985e-01 -1.158730e-01
     vertex -4.936508e-01  4.126985e-01  7.460324e-02
   endloop
 endfacet
 facet normal -1.533373e-01  0.000000e+00  9.881739e-01
   outer loop
     vertex  2.428571e-01 -2.380952e-01  1.888889e-01
     vertex  2.428571e-01  4.126985e-01  1.888889e-01
     vertex  1.317461e-01  1.719577e-01  1.716476e-01
   endloop
 endfacet
 facet normal -1.533373e-01  0.000000e+00  9.881739e-01
   outer loop
     vertex  1.317461e-01 -1.835979e-01  1.716476e-01
     vertex  2.428571e-01 -2.380952e-01  1.888889e-01
     vertex  1.317461e-01  1.719577e-01  1.716476e-01
   endloop
 endfacet
 facet normal -1.533373e-01 -1.740240e-16  9.881739e-01
   outer loop
     vertex -2.576719e-01  1.719577e-01  1.112206e-01
     vertex  2.428571e-01  4.126985e-01  1.888889e-01
     vertex -4.936508e-01  4.126985e-01  7.460324e-02
   endloop
 endfacet
 facet normal -1.533373e-01  1.097108e-16  9.881739e-01
   outer loop
     vertex -2.576719e-01  1.719577e-01  1.112206e-01
     vertex  1.317461e-01  1.719577e-01  1.716476e-01
     vertex  2.428571e-01  4.126985e-01  1.888889e-01
   endloop
 endfacet
 facet normal -1.533373e-01  0.000000e+00  9.881739e-01
   outer loop
     vertex -4.936508e-01 -2.380952e-01  7.460324e-02
     vertex -2.576719e-01 -1.835979e-01  1.112206e-01
     vertex -2.576719e-01  1.719577e-01  1.112206e-01
   endloop
 endfacet
 facet normal -1.533373e-01  0.000000e+00  9.881739e-01
   outer loop
     vertex -4.936508e-01 -2.380952e-01  7.460324e-02
     vertex -2.576719e-01  1.719577e-01  1.112206e-01
     vertex -4.936508e-01  4.126985e-01  7.460324e-02
   endloop
 endfacet
 facet normal -1.533373e-01  0.000000e+00  9.881739e-01
   outer loop
     vertex -4.936508e-01 -2.380952e-01  7.460324e-02
     vertex  2.428571e-01 -2.380952e-01  1.888889e-01
     vertex  1.317461e-01 -1.835979e-01  1.716476e-01
   endloop
 endfacet
 facet normal -1.533373e-01  1.292386e-15  9.881739e-01
   outer loop
     vertex -4.936508e-01 -2.380952e-01  7.460324e-02
     vertex  1.317461e-01 -1.835979e-01  1.716476e-01
     vertex -2.576719e-01 -1.835979e-01  1.112206e-01
   endloop
 endfacet
 facet normal -0.000000e+00  1.000000e+00  0.000000e+00
   outer loop
     vertex  1.249994e-02  1.719577e-01 -1.587302e-02
     vertex  1.317461e-01  1.719577e-01 -1.587302e-02
     vertex  1.317461e-01  1.719577e-01 -3.174603e-02
   endloop
 endfacet
 facet normal  0.000000e+00  1.000000e+00  0.000000e+00
   outer loop
     vertex -5.357198e-03  1.719577e-01 -3.174603e-02
     vertex  1.249994e-02  1.719577e-01 -1.587302e-02
     vertex  1.317461e-01  1.719577e-01 -3.174603e-02
   endloop
 endfacet
 facet normal -4.355609e-01  0.000000e+00 -9.001592e-01
   outer loop
     vertex -1.000000e-01 -2.380952e-01 -1.158730e-01
     vertex -4.936508e-01 -8.571429e-01  7.460324e-02
     vertex -4.936508e-01 -2.380952e-01  7.460324e-02
   endloop
 endfacet
 facet normal -4.355609e-01 -0.000000e+00 -9.001592e-01
   outer loop
     vertex -1.000000e-01 -2.380952e-01 -1.158730e-01
     vertex -1.000000e-01 -8.571429e-01 -1.158730e-01
     vertex -4.936508e-01 -8.571429e-01  7.460324e-02
   endloop
 endfacet
 facet normal -1.533373e-01  0.000000e+00  9.881739e-01
   outer loop
     vertex -4.936508e-01 -2.380952e-01  7.460324e-02
     vertex  2.428571e-01 -8.571429e-01  1.888889e-01
     vertex  2.428571e-01 -2.380952e-01  1.888889e-01
   endloop
 endfacet
 facet normal -1.533373e-01  0.000000e+00  9.881739e-01
   outer loop
     vertex -4.936508e-01 -2.380952e-01  7.460324e-02
     vertex -4.936508e-01 -8.571429e-01  7.460324e-02
     vertex  2.428571e-01 -8.571429e-01  1.888889e-01
   endloop
 endfacet
 facet normal  0.000000e+00 -1.000000e+00  0.000000e+00
   outer loop
     vertex  2.428571e-01 -8.571429e-01  1.888889e-01
     vertex -4.936508e-01 -8.571429e-01  7.460324e-02
     vertex -1.000000e-01 -8.571429e-01 -1.158730e-01
   endloop
 endfacet
 facet normal -0.000000e+00 -1.000000e+00  0.000000e+00
   outer loop
     vertex  1.317461e-01 -1.835979e-01  1.716476e-01
     vertex -2.576719e-01 -1.835979e-01  2.222223e-01
     vertex -2.576719e-01 -1.835979e-01  1.112206e-01
   endloop
 endfacet
 facet normal  0.000000e+00 -1.000000e+00  0.000000e+00
   outer loop
     vertex  1.317461e-01 -1.835979e-01  1.716476e-01
     vertex  1.317461e-01 -1.835979e-01  2.222223e-01
     vertex -2.576719e-01 -1.835979e-01  2.222223e-01
   endloop
 endfacet
 facet normal  1.000000e+00  0.000000e+00  0.000000e+00
   outer loop
     vertex  1.317461e-01  1.719577e-01  1.716476e-01
     vertex  1.317461e-01 -1.835979e-01  2.222223e-01
     vertex  1.317461e-01 -1.835979e-01  1.716476e-01
   endloop
 endfacet
 facet normal  1.000000e+00  0.000000e+00 -0.000000e+00
   outer loop
     vertex  1.317461e-01  1.719577e-01  1.716476e-01
     vertex  1.317461e-01  1.719577e-01  2.222223e-01
     vertex  1.317461e-01 -1.835979e-01  2.222223e-01
   endloop
 endfacet
 facet normal -0.000000e+00  1.000000e+00  0.000000e+00
   outer loop
     vertex -2.576719e-01  1.719577e-01  2.222223e-01
     vertex  1.317461e-01  1.719577e-01  2.222223e-01
     vertex  1.317461e-01  1.719577e-01  1.716476e-01
   endloop
 endfacet
 facet normal  0.000000e+00  1.000000e+00  0.000000e+00
   outer loop
     vertex -2.576719e-01  1.719577e-01  1.112206e-01
     vertex -2.576719e-01  1.719577e-01  2.222223e-01
     vertex  1.317461e-01  1.719577e-01  1.716476e-01
   endloop
 endfacet
 facet normal -1.000000e+00  0.000000e+00  0.000000e+00
   outer loop
     vertex -2.576719e-01 -1.835979e-01  1.112206e-01
     vertex -2.576719e-01  1.719577e-01  2.222223e-01
     vertex -2.576719e-01  1.719577e-01  1.112206e-01
   endloop
 endfacet
 facet normal -1.000000e+00  0.000000e+00  0.000000e+00
   outer loop
     vertex -2.576719e-01 -1.835979e-01  1.112206e-01
     vertex -2.576719e-01 -1.835979e-01  2.222223e-01
     vertex -2.576719e-01  1.719577e-01  2.222223e-01
   endloop
 endfacet
 facet normal  0.000000e+00  0.000000e+00  1.000000e+00
   outer loop
     vertex  1.317461e-01  1.719577e-01  2.222223e-01
     vertex -2.576719e-01 -1.835979e-01  2.222223e-01
     vertex  1.317461e-01 -1.835979e-01  2.222223e-01
   endloop
 endfacet
 facet normal  0.000000e+00  0.000000e+00  1.000000e+00
   outer loop
     vertex  1.317461e-01  1.719577e-01  2.222223e-01
     vertex -2.576719e-01  1.719577e-01  2.222223e-01
     vertex -2.576719e-01 -1.835979e-01  2.222223e-01
   endloop
 endfacet
endsolid
