solid 
 facet normal -0.000000e+00  0.000000e+00 -1.000000e+00
   outer loop
     vertex  7.088183e-01 -1.587302e-02 -1.019224e+00
     vertex -1.026631e+00 -9.523815e-02 -1.019224e+00
     vertex -1.026631e+00 -1.587302e-02 -1.019224e+00
   endloop
 endfacet
 facet normal  0.000000e+00 -0.000000e+00 -1.000000e+00
   outer loop
     vertex  7.088183e-01 -1.587302e-02 -1.019224e+00
     vertex  7.088183e-01 -9.523815e-02 -1.019224e+00
     vertex -1.026631e+00 -9.523815e-02 -1.019224e+00
   endloop
 endfacet
 facet normal -1.000000e+00  0.000000e+00  0.000000e+00
   outer loop
     vertex -1.026631e+00 -1.587302e-02 -1.019224e+00
     vertex -1.026631e+00 -9.523815e-02 -6.432098e-01
     vertex -1.026631e+00 -1.587302e-02 -6.432098e-01
   endloop
 endfacet
 facet normal -1.000000e+00  0.000000e+00  0.000000e+00
   outer loop
     vertex -1.026631e+00 -1.587302e-02 -1.019224e+00
     vertex -1.026631e+00 -9.523815e-02 -1.019224e+00
     vertex -1.026631e+00 -9.523815e-02 -6.432098e-01
   endloop
 endfacet
 facet normal  1.000000e+00  0.000000e+00  0.000000e+00
   outer loop
     vertex  7.088183e-01 -1.587302e-02 -7.589065e-01
     vertex  7.088183e-01 -9.523815e-02 -1.019224e+00
     vertex  7.088183e-01 -1.587302e-02 -1.019224e+00
   endloop
 endfacet
 facet normal  1.000000e+00  0.000000e+00  0.000000e+00
   outer loop
     vertex  7.088183e-01 -1.587302e-02 -7.589065e-01
     vertex  7.088183e-01 -9.523815e-02 -7.589065e-01
     vertex  7.088183e-01 -9.523815e-02 -1.019224e+00
   endloop
 endfacet
 facet normal  0.000000e+00  0.000000e+00 -1.000000e+00
   outer loop
     vertex  7.088183e-01 -1.587302e-02 -1.019224e+00
     vertex -1.026631e+00 -1.587302e-02 -1.019224e+00
     vertex -1.026631e+00  9.523809e-02 -1.019224e+00
   endloop
 endfacet
 facet normal  0.000000e+00  0.000000e+00 -1.000000e+00
   outer loop
     vertex  7.088183e-01 -1.587302e-02 -1.019224e+00
     vertex -1.026631e+00  9.523809e-02 -1.019224e+00
     vertex  7.088183e-01  9.523809e-02 -1.019224e+00
   endloop
 endfacet
 facet normal  0.000000e+00 -1.000000e+00  0.000000e+00
   outer loop
     vertex -9.109348e-01 -9.523815e-02 -4.985890e-01
     vertex -9.320272e-01 -9.523815e-02 -5.053097e-01
     vertex -9.519087e-01 -9.523815e-02 -5.150454e-01
   endloop
 endfacet
 facet normal  0.000000e+00 -1.000000e+00  0.000000e+00
   outer loop
     vertex -9.109348e-01 -9.523815e-02 -4.985890e-01
     vertex -9.519087e-01 -9.523815e-02 -5.150454e-01
     vertex -9.701510e-01 -9.523815e-02 -5.275862e-01
   endloop
 endfacet
 facet normal  0.000000e+00 -1.000000e+00  0.000000e+00
   outer loop
     vertex -9.109348e-01 -9.523815e-02 -4.985890e-01
     vertex -9.701510e-01 -9.523815e-02 -5.275862e-01
     vertex -9.863613e-01 -9.523815e-02 -5.426621e-01
   endloop
 endfacet
 facet normal  0.000000e+00 -1.000000e+00  0.000000e+00
   outer loop
     vertex -9.109348e-01 -9.523815e-02 -4.985890e-01
     vertex -9.863613e-01 -9.523815e-02 -5.426621e-01
     vertex -1.000190e+00 -9.523815e-02 -5.599484e-01
   endloop
 endfacet
 facet normal  0.000000e+00 -1.000000e+00  0.000000e+00
   outer loop
     vertex -9.109348e-01 -9.523815e-02 -4.985890e-01
     vertex -1.000190e+00 -9.523815e-02 -5.599484e-01
     vertex -1.011340e+00 -9.523815e-02 -5.790726e-01
   endloop
 endfacet
 facet normal  0.000000e+00 -1.000000e+00  0.000000e+00
   outer loop
     vertex -9.109348e-01 -9.523815e-02 -4.985890e-01
     vertex -1.011340e+00 -9.523815e-02 -5.790726e-01
     vertex -1.019571e+00 -9.523815e-02 -5.996229e-01
   endloop
 endfacet
 facet normal  0.000000e+00 -1.000000e+00  0.000000e+00
   outer loop
     vertex -9.109348e-01 -9.523815e-02 -4.985890e-01
     vertex -1.019571e+00 -9.523815e-02 -5.996229e-01
     vertex -1.024705e+00 -9.523815e-02 -6.211566e-01
   endloop
 endfacet
 facet normal  0.000000e+00 -1.000000e+00  0.000000e+00
   outer loop
     vertex -9.109348e-01 -9.523815e-02 -4.985890e-01
     vertex -1.024705e+00 -9.523815e-02 -6.211566e-01
     vertex -1.026631e+00 -9.523815e-02 -6.432098e-01
   endloop
 endfacet
 facet normal  0.000000e+00 -1.000000e+00  0.000000e+00
   outer loop
     vertex -9.109348e-01 -9.523815e-02 -4.985890e-01
     vertex -1.026631e+00 -9.523815e-02 -6.432098e-01
     vertex -1.026631e+00 -9.523815e-02 -1.019224e+00
   endloop
 endfacet
 facet normal  0.000000e+00 -1.000000e+00 -0.000000e+00
   outer loop
     vertex  3.906525e-01 -9.523815e-02 -4.985890e-01
     vertex -1.026631e+00 -9.523815e-02 -1.019224e+00
     vertex  7.088183e-01 -9.523815e-02 -1.019224e+00
   endloop
 endfacet
 facet normal  0.000000e+00 -1.000000e+00  0.000000e+00
   outer loop
     vertex  3.906525e-01 -9.523815e-02 -4.985890e-01
     vertex -9.109348e-01 -9.523815e-02 -4.985890e-01
     vertex -1.026631e+00 -9.523815e-02 -1.019224e+00
   endloop
 endfacet
 facet normal -0.000000e+00 -1.000000e+00 -0.000000e+00
   outer loop
     vertex  4.308635e-01 -9.523815e-02 -5.116722e-01
     vertex  3.906525e-01 -9.523815e-02 -4.985890e-01
     vertex  7.088183e-01 -9.523815e-02 -1.019224e+00
   endloop
 endfacet
 facet normal -0.000000e+00 -1.000000e+00 -0.000000e+00
   outer loop
     vertex  4.698599e-01 -9.523815e-02 -5.280238e-01
     vertex  4.308635e-01 -9.523815e-02 -5.116722e-01
     vertex  7.088183e-01 -9.523815e-02 -1.019224e+00
   endloop
 endfacet
 facet normal -0.000000e+00 -1.000000e+00 -0.000000e+00
   outer loop
     vertex  5.073765e-01 -9.523815e-02 -5.475326e-01
     vertex  4.698599e-01 -9.523815e-02 -5.280238e-01
     vertex  7.088183e-01 -9.523815e-02 -1.019224e+00
   endloop
 endfacet
 facet normal  0.000000e+00 -1.000000e+00  0.000000e+00
   outer loop
     vertex  6.880317e-01 -9.523815e-02 -7.220825e-01
     vertex  7.088183e-01 -9.523815e-02 -1.019224e+00
     vertex  7.088183e-01 -9.523815e-02 -7.589065e-01
   endloop
 endfacet
 facet normal -0.000000e+00 -1.000000e+00 -0.000000e+00
   outer loop
     vertex  5.431583e-01 -9.523815e-02 -5.700661e-01
     vertex  5.073765e-01 -9.523815e-02 -5.475326e-01
     vertex  7.088183e-01 -9.523815e-02 -1.019224e+00
   endloop
 endfacet
 facet normal  0.000000e+00 -1.000000e+00  0.000000e+00
   outer loop
     vertex  6.642818e-01 -9.523815e-02 -6.870963e-01
     vertex  7.088183e-01 -9.523815e-02 -1.019224e+00
     vertex  6.880317e-01 -9.523815e-02 -7.220825e-01
   endloop
 endfacet
 facet normal -0.000000e+00 -1.000000e+00 -0.000000e+00
   outer loop
     vertex  5.769619e-01 -9.523815e-02 -5.954710e-01
     vertex  5.431583e-01 -9.523815e-02 -5.700661e-01
     vertex  7.088183e-01 -9.523815e-02 -1.019224e+00
   endloop
 endfacet
 facet normal  0.000000e+00 -1.000000e+00  0.000000e+00
   outer loop
     vertex  6.377302e-01 -9.523815e-02 -6.541857e-01
     vertex  7.088183e-01 -9.523815e-02 -1.019224e+00
     vertex  6.642818e-01 -9.523815e-02 -6.870963e-01
   endloop
 endfacet
 facet normal -0.000000e+00 -1.000000e+00 -0.000000e+00
   outer loop
     vertex  6.085575e-01 -9.523815e-02 -6.235746e-01
     vertex  5.769619e-01 -9.523815e-02 -5.954710e-01
     vertex  7.088183e-01 -9.523815e-02 -1.019224e+00
   endloop
 endfacet
 facet normal  0.000000e+00 -1.000000e+00  0.000000e+00
   outer loop
     vertex  6.085575e-01 -9.523815e-02 -6.235746e-01
     vertex  7.088183e-01 -9.523815e-02 -1.019224e+00
     vertex  6.377302e-01 -9.523815e-02 -6.541857e-01
   endloop
 endfacet
 facet normal -3.035933e-01  0.000000e+00  9.528017e-01
   outer loop
     vertex -9.320272e-01 -1.587302e-02 -5.053097e-01
     vertex -9.109348e-01 -9.523815e-02 -4.985890e-01
     vertex -9.109348e-01 -1.587302e-02 -4.985890e-01
   endloop
 endfacet
 facet normal -3.035933e-01  0.000000e+00  9.528017e-01
   outer loop
     vertex -9.320272e-01 -1.587302e-02 -5.053097e-01
     vertex -9.320272e-01 -9.523815e-02 -5.053097e-01
     vertex -9.109348e-01 -9.523815e-02 -4.985890e-01
   endloop
 endfacet
 facet normal -4.397858e-01  0.000000e+00  8.981027e-01
   outer loop
     vertex -9.519087e-01 -1.587302e-02 -5.150454e-01
     vertex -9.519087e-01 -9.523815e-02 -5.150454e-01
     vertex -9.320272e-01 -9.523815e-02 -5.053097e-01
   endloop
 endfacet
 facet normal -4.397858e-01  0.000000e+00  8.981027e-01
   outer loop
     vertex -9.519087e-01 -1.587302e-02 -5.150454e-01
     vertex -9.320272e-01 -9.523815e-02 -5.053097e-01
     vertex -9.320272e-01 -1.587302e-02 -5.053097e-01
   endloop
 endfacet
 facet normal -5.665051e-01  0.000000e+00  8.240582e-01
   outer loop
     vertex -9.701510e-01 -1.587302e-02 -5.275862e-01
     vertex -9.701510e-01 -9.523815e-02 -5.275862e-01
     vertex -9.519087e-01 -9.523815e-02 -5.150454e-01
   endloop
 endfacet
 facet normal -5.665051e-01  0.000000e+00  8.240582e-01
   outer loop
     vertex -9.701510e-01 -1.587302e-02 -5.275862e-01
     vertex -9.519087e-01 -9.523815e-02 -5.150454e-01
     vertex -9.519087e-01 -1.587302e-02 -5.150454e-01
   endloop
 endfacet
 facet normal -6.810218e-01  0.000000e+00  7.322632e-01
   outer loop
     vertex -9.863613e-01 -1.587302e-02 -5.426621e-01
     vertex -9.863613e-01 -9.523815e-02 -5.426621e-01
     vertex -9.701510e-01 -9.523815e-02 -5.275862e-01
   endloop
 endfacet
 facet normal -6.810218e-01  0.000000e+00  7.322632e-01
   outer loop
     vertex -9.863613e-01 -1.587302e-02 -5.426621e-01
     vertex -9.701510e-01 -9.523815e-02 -5.275862e-01
     vertex -9.701510e-01 -1.587302e-02 -5.275862e-01
   endloop
 endfacet
 facet normal -7.808689e-01  0.000000e+00  6.246949e-01
   outer loop
     vertex -1.000190e+00 -1.587302e-02 -5.599484e-01
     vertex -1.000190e+00 -9.523815e-02 -5.599484e-01
     vertex -9.863613e-01 -9.523815e-02 -5.426621e-01
   endloop
 endfacet
 facet normal -7.808689e-01  0.000000e+00  6.246949e-01
   outer loop
     vertex -1.000190e+00 -1.587302e-02 -5.599484e-01
     vertex -9.863613e-01 -9.523815e-02 -5.426621e-01
     vertex -9.863613e-01 -1.587302e-02 -5.426621e-01
   endloop
 endfacet
 facet normal -8.638958e-01  0.000000e+00  5.036705e-01
   outer loop
     vertex -1.011340e+00 -1.587302e-02 -5.790726e-01
     vertex -1.011340e+00 -9.523815e-02 -5.790726e-01
     vertex -1.000190e+00 -9.523815e-02 -5.599484e-01
   endloop
 endfacet
 facet normal -8.638958e-01  0.000000e+00  5.036705e-01
   outer loop
     vertex -1.011340e+00 -1.587302e-02 -5.790726e-01
     vertex -1.000190e+00 -9.523815e-02 -5.599484e-01
     vertex -1.000190e+00 -1.587302e-02 -5.599484e-01
   endloop
 endfacet
 facet normal -9.283141e-01  0.000000e+00  3.717968e-01
   outer loop
     vertex -1.019571e+00 -1.587302e-02 -5.996229e-01
     vertex -1.019571e+00 -9.523815e-02 -5.996229e-01
     vertex -1.011340e+00 -9.523815e-02 -5.790726e-01
   endloop
 endfacet
 facet normal -9.283141e-01  0.000000e+00  3.717968e-01
   outer loop
     vertex -1.019571e+00 -1.587302e-02 -5.996229e-01
     vertex -1.011340e+00 -9.523815e-02 -5.790726e-01
     vertex -1.011340e+00 -1.587302e-02 -5.790726e-01
   endloop
 endfacet
 facet normal -9.727362e-01  0.000000e+00  2.319145e-01
   outer loop
     vertex -1.024705e+00 -1.587302e-02 -6.211566e-01
     vertex -1.024705e+00 -9.523815e-02 -6.211566e-01
     vertex -1.019571e+00 -9.523815e-02 -5.996229e-01
   endloop
 endfacet
 facet normal -9.727362e-01  0.000000e+00  2.319145e-01
   outer loop
     vertex -1.024705e+00 -1.587302e-02 -6.211566e-01
     vertex -1.019571e+00 -9.523815e-02 -5.996229e-01
     vertex -1.019571e+00 -1.587302e-02 -5.996229e-01
   endloop
 endfacet
 facet normal -9.962051e-01  0.000000e+00  8.703667e-02
   outer loop
     vertex -1.026631e+00 -1.587302e-02 -6.432098e-01
     vertex -1.026631e+00 -9.523815e-02 -6.432098e-01
     vertex -1.024705e+00 -9.523815e-02 -6.211566e-01
   endloop
 endfacet
 facet normal -9.962051e-01  0.000000e+00  8.703667e-02
   outer loop
     vertex -1.026631e+00 -1.587302e-02 -6.432098e-01
     vertex -1.024705e+00 -9.523815e-02 -6.211566e-01
     vertex -1.024705e+00 -1.587302e-02 -6.211566e-01
   endloop
 endfacet
 facet normal -1.000000e+00  0.000000e+00  0.000000e+00
   outer loop
     vertex -1.026631e+00 -1.587302e-02 -1.019224e+00
     vertex -1.026631e+00 -1.587302e-02 -6.432098e-01
     vertex -1.026631e+00  9.523809e-02 -6.432098e-01
   endloop
 endfacet
 facet normal -1.000000e+00  0.000000e+00  0.000000e+00
   outer loop
     vertex -1.026631e+00 -1.587302e-02 -1.019224e+00
     vertex -1.026631e+00  9.523809e-02 -6.432098e-01
     vertex -1.026631e+00  9.523809e-02 -1.019224e+00
   endloop
 endfacet
 facet normal  8.708354e-01  0.000000e+00  4.915747e-01
   outer loop
     vertex  6.880317e-01 -1.587302e-02 -7.220825e-01
     vertex  7.088183e-01 -9.523815e-02 -7.589065e-01
     vertex  7.088183e-01 -1.587302e-02 -7.589065e-01
   endloop
 endfacet
 facet normal  8.708354e-01  0.000000e+00  4.915747e-01
   outer loop
     vertex  6.880317e-01 -1.587302e-02 -7.220825e-01
     vertex  6.880317e-01 -9.523815e-02 -7.220825e-01
     vertex  7.088183e-01 -9.523815e-02 -7.589065e-01
   endloop
 endfacet
 facet normal  8.273746e-01  0.000000e+00  5.616504e-01
   outer loop
     vertex  6.642818e-01 -1.587302e-02 -6.870963e-01
     vertex  6.642818e-01 -9.523815e-02 -6.870963e-01
     vertex  6.880317e-01 -9.523815e-02 -7.220825e-01
   endloop
 endfacet
 facet normal  8.273746e-01  0.000000e+00  5.616504e-01
   outer loop
     vertex  6.642818e-01 -1.587302e-02 -6.870963e-01
     vertex  6.880317e-01 -9.523815e-02 -7.220825e-01
     vertex  6.880317e-01 -1.587302e-02 -7.220825e-01
   endloop
 endfacet
 facet normal  7.782882e-01  0.000000e+00  6.279073e-01
   outer loop
     vertex  6.377302e-01 -1.587302e-02 -6.541857e-01
     vertex  6.377302e-01 -9.523815e-02 -6.541857e-01
     vertex  6.642818e-01 -9.523815e-02 -6.870963e-01
   endloop
 endfacet
 facet normal  7.782882e-01  0.000000e+00  6.279073e-01
   outer loop
     vertex  6.377302e-01 -1.587302e-02 -6.541857e-01
     vertex  6.642818e-01 -9.523815e-02 -6.870963e-01
     vertex  6.642818e-01 -1.587302e-02 -6.870963e-01
   endloop
 endfacet
 facet normal  7.239098e-01  0.000000e+00  6.898947e-01
   outer loop
     vertex  6.085575e-01 -1.587302e-02 -6.235746e-01
     vertex  6.085575e-01 -9.523815e-02 -6.235746e-01
     vertex  6.377302e-01 -9.523815e-02 -6.541857e-01
   endloop
 endfacet
 facet normal  7.239098e-01  0.000000e+00  6.898947e-01
   outer loop
     vertex  6.085575e-01 -1.587302e-02 -6.235746e-01
     vertex  6.377302e-01 -9.523815e-02 -6.541857e-01
     vertex  6.377302e-01 -1.587302e-02 -6.541857e-01
   endloop
 endfacet
 facet normal  6.646092e-01  0.000000e+00  7.471912e-01
   outer loop
     vertex  5.769619e-01 -1.587302e-02 -5.954710e-01
     vertex  5.769619e-01 -9.523815e-02 -5.954710e-01
     vertex  6.085575e-01 -9.523815e-02 -6.235746e-01
   endloop
 endfacet
 facet normal  6.646092e-01  0.000000e+00  7.471912e-01
   outer loop
     vertex  5.769619e-01 -1.587302e-02 -5.954710e-01
     vertex  6.085575e-01 -9.523815e-02 -6.235746e-01
     vertex  6.085575e-01 -1.587302e-02 -6.235746e-01
   endloop
 endfacet
 facet normal  6.007896e-01  0.000000e+00  7.994072e-01
   outer loop
     vertex  5.431583e-01 -1.587302e-02 -5.700661e-01
     vertex  5.431583e-01 -9.523815e-02 -5.700661e-01
     vertex  5.769619e-01 -9.523815e-02 -5.954710e-01
   endloop
 endfacet
 facet normal  6.007896e-01  0.000000e+00  7.994072e-01
   outer loop
     vertex  5.431583e-01 -1.587302e-02 -5.700661e-01
     vertex  5.769619e-01 -9.523815e-02 -5.954710e-01
     vertex  5.769619e-01 -1.587302e-02 -5.954710e-01
   endloop
 endfacet
 facet normal  5.328850e-01  0.000000e+00  8.461877e-01
   outer loop
     vertex  5.073765e-01 -1.587302e-02 -5.475326e-01
     vertex  5.073765e-01 -9.523815e-02 -5.475326e-01
     vertex  5.431583e-01 -9.523815e-02 -5.700661e-01
   endloop
 endfacet
 facet normal  5.328850e-01  0.000000e+00  8.461877e-01
   outer loop
     vertex  5.073765e-01 -1.587302e-02 -5.475326e-01
     vertex  5.431583e-01 -9.523815e-02 -5.700661e-01
     vertex  5.431583e-01 -1.587302e-02 -5.700661e-01
   endloop
 endfacet
 facet normal  4.613571e-01  0.000000e+00  8.872146e-01
   outer loop
     vertex  4.698599e-01 -1.587302e-02 -5.280238e-01
     vertex  4.698599e-01 -9.523815e-02 -5.280238e-01
     vertex  5.073765e-01 -9.523815e-02 -5.475326e-01
   endloop
 endfacet
 facet normal  4.613571e-01  0.000000e+00  8.872146e-01
   outer loop
     vertex  4.698599e-01 -1.587302e-02 -5.280238e-01
     vertex  5.073765e-01 -9.523815e-02 -5.475326e-01
     vertex  5.073765e-01 -1.587302e-02 -5.475326e-01
   endloop
 endfacet
 facet normal  3.866921e-01  0.000000e+00  9.222089e-01
   outer loop
     vertex  4.308635e-01 -1.587302e-02 -5.116722e-01
     vertex  4.308635e-01 -9.523815e-02 -5.116722e-01
     vertex  4.698599e-01 -9.523815e-02 -5.280238e-01
   endloop
 endfacet
 facet normal  3.866921e-01  0.000000e+00  9.222089e-01
   outer loop
     vertex  4.308635e-01 -1.587302e-02 -5.116722e-01
     vertex  4.698599e-01 -9.523815e-02 -5.280238e-01
     vertex  4.698599e-01 -1.587302e-02 -5.280238e-01
   endloop
 endfacet
 facet normal  3.093979e-01  0.000000e+00  9.509327e-01
   outer loop
     vertex  3.906525e-01 -1.587302e-02 -4.985890e-01
     vertex  3.906525e-01 -9.523815e-02 -4.985890e-01
     vertex  4.308635e-01 -9.523815e-02 -5.116722e-01
   endloop
 endfacet
 facet normal  3.093979e-01  0.000000e+00  9.509327e-01
   outer loop
     vertex  3.906525e-01 -1.587302e-02 -4.985890e-01
     vertex  4.308635e-01 -9.523815e-02 -5.116722e-01
     vertex  4.308635e-01 -1.587302e-02 -5.116722e-01
   endloop
 endfacet
 facet normal  1.000000e+00  0.000000e+00  0.000000e+00
   outer loop
     vertex  7.088183e-01 -1.587302e-02 -7.589065e-01
     vertex  7.088183e-01 -1.587302e-02 -1.019224e+00
     vertex  7.088183e-01  9.523809e-02 -1.019224e+00
   endloop
 endfacet
 facet normal  1.000000e+00 -0.000000e+00  0.000000e+00
   outer loop
     vertex  7.088183e-01 -1.587302e-02 -7.589065e-01
     vertex  7.088183e-01  9.523809e-02 -1.019224e+00
     vertex  7.088183e-01  9.523809e-02 -7.589065e-01
   endloop
 endfacet
 facet normal  0.000000e+00  1.000000e+00  0.000000e+00
   outer loop
     vertex -9.109348e-01  9.523809e-02 -4.985890e-01
     vertex -9.519087e-01  9.523809e-02 -5.150454e-01
     vertex -9.320272e-01  9.523809e-02 -5.053097e-01
   endloop
 endfacet
 facet normal  0.000000e+00  1.000000e+00  0.000000e+00
   outer loop
     vertex -9.109348e-01  9.523809e-02 -4.985890e-01
     vertex -9.701510e-01  9.523809e-02 -5.275862e-01
     vertex -9.519087e-01  9.523809e-02 -5.150454e-01
   endloop
 endfacet
 facet normal  0.000000e+00  1.000000e+00  0.000000e+00
   outer loop
     vertex -9.109348e-01  9.523809e-02 -4.985890e-01
     vertex -9.863613e-01  9.523809e-02 -5.426621e-01
     vertex -9.701510e-01  9.523809e-02 -5.275862e-01
   endloop
 endfacet
 facet normal  0.000000e+00  1.000000e+00  0.000000e+00
   outer loop
     vertex -9.109348e-01  9.523809e-02 -4.985890e-01
     vertex -1.000190e+00  9.523809e-02 -5.599484e-01
     vertex -9.863613e-01  9.523809e-02 -5.426621e-01
   endloop
 endfacet
 facet normal  0.000000e+00  1.000000e+00  0.000000e+00
   outer loop
     vertex -9.109348e-01  9.523809e-02 -4.985890e-01
     vertex -1.011340e+00  9.523809e-02 -5.790726e-01
     vertex -1.000190e+00  9.523809e-02 -5.599484e-01
   endloop
 endfacet
 facet normal  0.000000e+00  1.000000e+00  0.000000e+00
   outer loop
     vertex -9.109348e-01  9.523809e-02 -4.985890e-01
     vertex -1.019571e+00  9.523809e-02 -5.996229e-01
     vertex -1.011340e+00  9.523809e-02 -5.790726e-01
   endloop
 endfacet
 facet normal  0.000000e+00  1.000000e+00  0.000000e+00
   outer loop
     vertex -9.109348e-01  9.523809e-02 -4.985890e-01
     vertex -1.024705e+00  9.523809e-02 -6.211566e-01
     vertex -1.019571e+00  9.523809e-02 -5.996229e-01
   endloop
 endfacet
 facet normal  0.000000e+00  1.000000e+00  0.000000e+00
   outer loop
     vertex -9.109348e-01  9.523809e-02 -4.985890e-01
     vertex -1.026631e+00  9.523809e-02 -6.432098e-01
     vertex -1.024705e+00  9.523809e-02 -6.211566e-01
   endloop
 endfacet
 facet normal  0.000000e+00  1.000000e+00  0.000000e+00
   outer loop
     vertex -9.109348e-01  9.523809e-02 -4.985890e-01
     vertex -1.026631e+00  9.523809e-02 -1.019224e+00
     vertex -1.026631e+00  9.523809e-02 -6.432098e-01
   endloop
 endfacet
 facet normal  0.000000e+00  1.000000e+00  0.000000e+00
   outer loop
     vertex  3.906525e-01  9.523809e-02 -4.985890e-01
     vertex  7.088183e-01  9.523809e-02 -1.019224e+00
     vertex -1.026631e+00  9.523809e-02 -1.019224e+00
   endloop
 endfacet
 facet normal  0.000000e+00  1.000000e+00  0.000000e+00
   outer loop
     vertex  3.906525e-01  9.523809e-02 -4.985890e-01
     vertex -1.026631e+00  9.523809e-02 -1.019224e+00
     vertex -9.109348e-01  9.523809e-02 -4.985890e-01
   endloop
 endfacet
 facet normal  0.000000e+00  1.000000e+00  0.000000e+00
   outer loop
     vertex  4.308635e-01  9.523809e-02 -5.116722e-01
     vertex  7.088183e-01  9.523809e-02 -1.019224e+00
     vertex  3.906525e-01  9.523809e-02 -4.985890e-01
   endloop
 endfacet
 facet normal  0.000000e+00  1.000000e+00  0.000000e+00
   outer loop
     vertex  4.698599e-01  9.523809e-02 -5.280238e-01
     vertex  7.088183e-01  9.523809e-02 -1.019224e+00
     vertex  4.308635e-01  9.523809e-02 -5.116722e-01
   endloop
 endfacet
 facet normal  0.000000e+00  1.000000e+00  0.000000e+00
   outer loop
     vertex  5.073765e-01  9.523809e-02 -5.475326e-01
     vertex  7.088183e-01  9.523809e-02 -1.019224e+00
     vertex  4.698599e-01  9.523809e-02 -5.280238e-01
   endloop
 endfacet
 facet normal  0.000000e+00  1.000000e+00  0.000000e+00
   outer loop
     vertex  6.880317e-01  9.523809e-02 -7.220825e-01
     vertex  7.088183e-01  9.523809e-02 -7.589065e-01
     vertex  7.088183e-01  9.523809e-02 -1.019224e+00
   endloop
 endfacet
 facet normal  0.000000e+00  1.000000e+00  0.000000e+00
   outer loop
     vertex  5.431583e-01  9.523809e-02 -5.700661e-01
     vertex  7.088183e-01  9.523809e-02 -1.019224e+00
     vertex  5.073765e-01  9.523809e-02 -5.475326e-01
   endloop
 endfacet
 facet normal  0.000000e+00  1.000000e+00  0.000000e+00
   outer loop
     vertex  6.642818e-01  9.523809e-02 -6.870963e-01
     vertex  6.880317e-01  9.523809e-02 -7.220825e-01
     vertex  7.088183e-01  9.523809e-02 -1.019224e+00
   endloop
 endfacet
 facet normal  0.000000e+00  1.000000e+00  0.000000e+00
   outer loop
     vertex  5.769619e-01  9.523809e-02 -5.954710e-01
     vertex  7.088183e-01  9.523809e-02 -1.019224e+00
     vertex  5.431583e-01  9.523809e-02 -5.700661e-01
   endloop
 endfacet
 facet normal  0.000000e+00  1.000000e+00  0.000000e+00
   outer loop
     vertex  6.377302e-01  9.523809e-02 -6.541857e-01
     vertex  6.642818e-01  9.523809e-02 -6.870963e-01
     vertex  7.088183e-01  9.523809e-02 -1.019224e+00
   endloop
 endfacet
 facet normal  0.000000e+00  1.000000e+00  0.000000e+00
   outer loop
     vertex  6.085575e-01  9.523809e-02 -6.235746e-01
     vertex  7.088183e-01  9.523809e-02 -1.019224e+00
     vertex  5.769619e-01  9.523809e-02 -5.954710e-01
   endloop
 endfacet
 facet normal  0.000000e+00  1.000000e+00  0.000000e+00
   outer loop
     vertex  6.085575e-01  9.523809e-02 -6.235746e-01
     vertex  6.377302e-01  9.523809e-02 -6.541857e-01
     vertex  7.088183e-01  9.523809e-02 -1.019224e+00
   endloop
 endfacet
 facet normal -4.264881e-17  0.000000e+00  1.000000e+00
   outer loop
     vertex -9.109348e-01 -1.587302e-02 -4.985890e-01
     vertex  3.906525e-01 -9.523815e-02 -4.985890e-01
     vertex  3.906525e-01 -1.587302e-02 -4.985890e-01
   endloop
 endfacet
 facet normal -4.264881e-17  0.000000e+00  1.000000e+00
   outer loop
     vertex -9.109348e-01 -1.587302e-02 -4.985890e-01
     vertex -9.109348e-01 -9.523815e-02 -4.985890e-01
     vertex  3.906525e-01 -9.523815e-02 -4.985890e-01
   endloop
 endfacet
 facet normal -3.035933e-01  0.000000e+00  9.528017e-01
   outer loop
     vertex -9.320272e-01 -1.587302e-02 -5.053097e-01
     vertex -9.109348e-01 -1.587302e-02 -4.985890e-01
     vertex -9.109348e-01  9.523809e-02 -4.985890e-01
   endloop
 endfacet
 facet normal -3.035933e-01  0.000000e+00  9.528017e-01
   outer loop
     vertex -9.320272e-01 -1.587302e-02 -5.053097e-01
     vertex -9.109348e-01  9.523809e-02 -4.985890e-01
     vertex -9.320272e-01  9.523809e-02 -5.053097e-01
   endloop
 endfacet
 facet normal -4.397858e-01  0.000000e+00  8.981027e-01
   outer loop
     vertex -9.519087e-01 -1.587302e-02 -5.150454e-01
     vertex -9.320272e-01  9.523809e-02 -5.053097e-01
     vertex -9.519087e-01  9.523809e-02 -5.150454e-01
   endloop
 endfacet
 facet normal -4.397858e-01  0.000000e+00  8.981027e-01
   outer loop
     vertex -9.519087e-01 -1.587302e-02 -5.150454e-01
     vertex -9.320272e-01 -1.587302e-02 -5.053097e-01
     vertex -9.320272e-01  9.523809e-02 -5.053097e-01
   endloop
 endfacet
 facet normal -5.665051e-01  0.000000e+00  8.240582e-01
   outer loop
     vertex -9.701510e-01 -1.587302e-02 -5.275862e-01
     vertex -9.519087e-01  9.523809e-02 -5.150454e-01
     vertex -9.701510e-01  9.523809e-02 -5.275862e-01
   endloop
 endfacet
 facet normal -5.665051e-01  0.000000e+00  8.240582e-01
   outer loop
     vertex -9.701510e-01 -1.587302e-02 -5.275862e-01
     vertex -9.519087e-01 -1.587302e-02 -5.150454e-01
     vertex -9.519087e-01  9.523809e-02 -5.150454e-01
   endloop
 endfacet
 facet normal -6.810218e-01  0.000000e+00  7.322632e-01
   outer loop
     vertex -9.863613e-01 -1.587302e-02 -5.426621e-01
     vertex -9.701510e-01  9.523809e-02 -5.275862e-01
     vertex -9.863613e-01  9.523809e-02 -5.426621e-01
   endloop
 endfacet
 facet normal -6.810218e-01  0.000000e+00  7.322632e-01
   outer loop
     vertex -9.863613e-01 -1.587302e-02 -5.426621e-01
     vertex -9.701510e-01 -1.587302e-02 -5.275862e-01
     vertex -9.701510e-01  9.523809e-02 -5.275862e-01
   endloop
 endfacet
 facet normal -7.808689e-01  0.000000e+00  6.246949e-01
   outer loop
     vertex -1.000190e+00 -1.587302e-02 -5.599484e-01
     vertex -9.863613e-01  9.523809e-02 -5.426621e-01
     vertex -1.000190e+00  9.523809e-02 -5.599484e-01
   endloop
 endfacet
 facet normal -7.808689e-01  0.000000e+00  6.246949e-01
   outer loop
     vertex -1.000190e+00 -1.587302e-02 -5.599484e-01
     vertex -9.863613e-01 -1.587302e-02 -5.426621e-01
     vertex -9.863613e-01  9.523809e-02 -5.426621e-01
   endloop
 endfacet
 facet normal -8.638958e-01  0.000000e+00  5.036705e-01
   outer loop
     vertex -1.011340e+00 -1.587302e-02 -5.790726e-01
     vertex -1.000190e+00  9.523809e-02 -5.599484e-01
     vertex -1.011340e+00  9.523809e-02 -5.790726e-01
   endloop
 endfacet
 facet normal -8.638958e-01  0.000000e+00  5.036705e-01
   outer loop
     vertex -1.011340e+00 -1.587302e-02 -5.790726e-01
     vertex -1.000190e+00 -1.587302e-02 -5.599484e-01
     vertex -1.000190e+00  9.523809e-02 -5.599484e-01
   endloop
 endfacet
 facet normal -9.283141e-01  0.000000e+00  3.717968e-01
   outer loop
     vertex -1.019571e+00 -1.587302e-02 -5.996229e-01
     vertex -1.011340e+00  9.523809e-02 -5.790726e-01
     vertex -1.019571e+00  9.523809e-02 -5.996229e-01
   endloop
 endfacet
 facet normal -9.283141e-01  0.000000e+00  3.717968e-01
   outer loop
     vertex -1.019571e+00 -1.587302e-02 -5.996229e-01
     vertex -1.011340e+00 -1.587302e-02 -5.790726e-01
     vertex -1.011340e+00  9.523809e-02 -5.790726e-01
   endloop
 endfacet
 facet normal -9.727362e-01  0.000000e+00  2.319145e-01
   outer loop
     vertex -1.024705e+00 -1.587302e-02 -6.211566e-01
     vertex -1.019571e+00  9.523809e-02 -5.996229e-01
     vertex -1.024705e+00  9.523809e-02 -6.211566e-01
   endloop
 endfacet
 facet normal -9.727362e-01  0.000000e+00  2.319145e-01
   outer loop
     vertex -1.024705e+00 -1.587302e-02 -6.211566e-01
     vertex -1.019571e+00 -1.587302e-02 -5.996229e-01
     vertex -1.019571e+00  9.523809e-02 -5.996229e-01
   endloop
 endfacet
 facet normal -9.962051e-01  0.000000e+00  8.703667e-02
   outer loop
     vertex -1.026631e+00 -1.587302e-02 -6.432098e-01
     vertex -1.024705e+00  9.523809e-02 -6.211566e-01
     vertex -1.026631e+00  9.523809e-02 -6.432098e-01
   endloop
 endfacet
 facet normal -9.962051e-01  0.000000e+00  8.703667e-02
   outer loop
     vertex -1.026631e+00 -1.587302e-02 -6.432098e-01
     vertex -1.024705e+00 -1.587302e-02 -6.211566e-01
     vertex -1.024705e+00  9.523809e-02 -6.211566e-01
   endloop
 endfacet
 facet normal  8.708354e-01  0.000000e+00  4.915747e-01
   outer loop
     vertex  6.880317e-01 -1.587302e-02 -7.220825e-01
     vertex  7.088183e-01 -1.587302e-02 -7.589065e-01
     vertex  7.088183e-01  9.523809e-02 -7.589065e-01
   endloop
 endfacet
 facet normal  8.708354e-01 -0.000000e+00  4.915747e-01
   outer loop
     vertex  6.880317e-01 -1.587302e-02 -7.220825e-01
     vertex  7.088183e-01  9.523809e-02 -7.589065e-01
     vertex  6.880317e-01  9.523809e-02 -7.220825e-01
   endloop
 endfacet
 facet normal  8.273746e-01 -0.000000e+00  5.616504e-01
   outer loop
     vertex  6.642818e-01 -1.587302e-02 -6.870963e-01
     vertex  6.880317e-01  9.523809e-02 -7.220825e-01
     vertex  6.642818e-01  9.523809e-02 -6.870963e-01
   endloop
 endfacet
 facet normal  8.273746e-01  0.000000e+00  5.616504e-01
   outer loop
     vertex  6.642818e-01 -1.587302e-02 -6.870963e-01
     vertex  6.880317e-01 -1.587302e-02 -7.220825e-01
     vertex  6.880317e-01  9.523809e-02 -7.220825e-01
   endloop
 endfacet
 facet normal  7.782882e-01 -0.000000e+00  6.279073e-01
   outer loop
     vertex  6.377302e-01 -1.587302e-02 -6.541857e-01
     vertex  6.642818e-01  9.523809e-02 -6.870963e-01
     vertex  6.377302e-01  9.523809e-02 -6.541857e-01
   endloop
 endfacet
 facet normal  7.782882e-01  0.000000e+00  6.279073e-01
   outer loop
     vertex  6.377302e-01 -1.587302e-02 -6.541857e-01
     vertex  6.642818e-01 -1.587302e-02 -6.870963e-01
     vertex  6.642818e-01  9.523809e-02 -6.870963e-01
   endloop
 endfacet
 facet normal  7.239098e-01 -0.000000e+00  6.898947e-01
   outer loop
     vertex  6.085575e-01 -1.587302e-02 -6.235746e-01
     vertex  6.377302e-01  9.523809e-02 -6.541857e-01
     vertex  6.085575e-01  9.523809e-02 -6.235746e-01
   endloop
 endfacet
 facet normal  7.239098e-01  0.000000e+00  6.898947e-01
   outer loop
     vertex  6.085575e-01 -1.587302e-02 -6.235746e-01
     vertex  6.377302e-01 -1.587302e-02 -6.541857e-01
     vertex  6.377302e-01  9.523809e-02 -6.541857e-01
   endloop
 endfacet
 facet normal  6.646092e-01 -0.000000e+00  7.471912e-01
   outer loop
     vertex  5.769619e-01 -1.587302e-02 -5.954710e-01
     vertex  6.085575e-01  9.523809e-02 -6.235746e-01
     vertex  5.769619e-01  9.523809e-02 -5.954710e-01
   endloop
 endfacet
 facet normal  6.646092e-01  0.000000e+00  7.471912e-01
   outer loop
     vertex  5.769619e-01 -1.587302e-02 -5.954710e-01
     vertex  6.085575e-01 -1.587302e-02 -6.235746e-01
     vertex  6.085575e-01  9.523809e-02 -6.235746e-01
   endloop
 endfacet
 facet normal  6.007896e-01 -0.000000e+00  7.994072e-01
   outer loop
     vertex  5.431583e-01 -1.587302e-02 -5.700661e-01
     vertex  5.769619e-01  9.523809e-02 -5.954710e-01
     vertex  5.431583e-01  9.523809e-02 -5.700661e-01
   endloop
 endfacet
 facet normal  6.007896e-01  0.000000e+00  7.994072e-01
   outer loop
     vertex  5.431583e-01 -1.587302e-02 -5.700661e-01
     vertex  5.769619e-01 -1.587302e-02 -5.954710e-01
     vertex  5.769619e-01  9.523809e-02 -5.954710e-01
   endloop
 endfacet
 facet normal  5.328850e-01 -0.000000e+00  8.461877e-01
   outer loop
     vertex  5.073765e-01 -1.587302e-02 -5.475326e-01
     vertex  5.431583e-01  9.523809e-02 -5.700661e-01
     vertex  5.073765e-01  9.523809e-02 -5.475326e-01
   endloop
 endfacet
 facet normal  5.328850e-01  0.000000e+00  8.461877e-01
   outer loop
     vertex  5.073765e-01 -1.587302e-02 -5.475326e-01
     vertex  5.431583e-01 -1.587302e-02 -5.700661e-01
     vertex  5.431583e-01  9.523809e-02 -5.700661e-01
   endloop
 endfacet
 facet normal  4.613571e-01 -0.000000e+00  8.872146e-01
   outer loop
     vertex  4.698599e-01 -1.587302e-02 -5.280238e-01
     vertex  5.073765e-01  9.523809e-02 -5.475326e-01
     vertex  4.698599e-01  9.523809e-02 -5.280238e-01
   endloop
 endfacet
 facet normal  4.613571e-01  0.000000e+00  8.872146e-01
   outer loop
     vertex  4.698599e-01 -1.587302e-02 -5.280238e-01
     vertex  5.073765e-01 -1.587302e-02 -5.475326e-01
     vertex  5.073765e-01  9.523809e-02 -5.475326e-01
   endloop
 endfacet
 facet normal  3.866921e-01 -0.000000e+00  9.222089e-01
   outer loop
     vertex  4.308635e-01 -1.587302e-02 -5.116722e-01
     vertex  4.698599e-01  9.523809e-02 -5.280238e-01
     vertex  4.308635e-01  9.523809e-02 -5.116722e-01
   endloop
 endfacet
 facet normal  3.866921e-01  0.000000e+00  9.222089e-01
   outer loop
     vertex  4.308635e-01 -1.587302e-02 -5.116722e-01
     vertex  4.698599e-01 -1.587302e-02 -5.280238e-01
     vertex  4.698599e-01  9.523809e-02 -5.280238e-01
   endloop
 endfacet
 facet normal  3.093979e-01 -0.000000e+00  9.509327e-01
   outer loop
     vertex  3.906525e-01 -1.587302e-02 -4.985890e-01
     vertex  4.308635e-01  9.523809e-02 -5.116722e-01
     vertex  3.906525e-01  9.523809e-02 -4.985890e-01
   endloop
 endfacet
 facet normal  3.093979e-01  0.000000e+00  9.509327e-01
   outer loop
     vertex  3.906525e-01 -1.587302e-02 -4.985890e-01
     vertex  4.308635e-01 -1.587302e-02 -5.116722e-01
     vertex  4.308635e-01  9.523809e-02 -5.116722e-01
   endloop
 endfacet
 facet normal -4.264881e-17  0.000000e+00  1.000000e+00
   outer loop
     vertex -9.109348e-01 -1.587302e-02 -4.985890e-01
     vertex  3.906525e-01 -1.587302e-02 -4.985890e-01
     vertex  3.906525e-01  9.523809e-02 -4.985890e-01
   endloop
 endfacet
 facet normal -4.264881e-17  0.000000e+00  1.000000e+00
   outer loop
     vertex -9.109348e-01 -1.587302e-02 -4.985890e-01
     vertex  3.906525e-01  9.523809e-02 -4.985890e-01
     vertex -9.109348e-01  9.523809e-02 -4.985890e-01
   endloop
 endfacet
endsolid
