solid 
 facet normal -0.000000e+00  0.000000e+00 -1.000000e+00
   outer loop
     vertex -4.068783e-01 -1.587302e-02 -2.502645e-01
     vertex -8.047619e-01 -1.015873e+00 -2.502645e-01
     vertex -8.047619e-01 -1.587302e-02 -2.502645e-01
   endloop
 endfacet
 facet normal  0.000000e+00 -0.000000e+00 -1.000000e+00
   outer loop
     vertex -4.068783e-01 -1.587302e-02 -2.502645e-01
     vertex -4.068783e-01 -1.015873e+00 -2.502645e-01
     vertex -8.047619e-01 -1.015873e+00 -2.502645e-01
   endloop
 endfacet
 facet normal -1.000000e+00  0.000000e+00  0.000000e+00
   outer loop
     vertex -8.047619e-01 -1.587302e-02 -2.502645e-01
     vertex -8.047619e-01 -1.015873e+00  2.139331e-01
     vertex -8.047619e-01 -1.587302e-02  2.139331e-01
   endloop
 endfacet
 facet normal -1.000000e+00  0.000000e+00  0.000000e+00
   outer loop
     vertex -8.047619e-01 -1.587302e-02 -2.502645e-01
     vertex -8.047619e-01 -1.015873e+00 -2.502645e-01
     vertex -8.047619e-01 -1.015873e+00  2.139331e-01
   endloop
 endfacet
 facet normal -1.000000e+00  0.000000e+00  0.000000e+00
   outer loop
     vertex -4.068783e-01 -1.587302e-02 -7.807760e-01
     vertex -4.068783e-01 -1.015873e+00 -2.502645e-01
     vertex -4.068783e-01 -1.587302e-02 -2.502645e-01
   endloop
 endfacet
 facet normal -1.000000e+00  0.000000e+00  0.000000e+00
   outer loop
     vertex -4.068783e-01 -1.587302e-02 -7.807760e-01
     vertex -4.068783e-01 -1.015873e+00 -7.807760e-01
     vertex -4.068783e-01 -1.015873e+00 -2.502645e-01
   endloop
 endfacet
 facet normal  0.000000e+00  0.000000e+00 -1.000000e+00
   outer loop
     vertex -4.068783e-01 -1.587302e-02 -2.502645e-01
     vertex -8.047619e-01 -1.587302e-02 -2.502645e-01
     vertex -8.047619e-01  0.000000e+00 -2.502645e-01
   endloop
 endfacet
 facet normal  0.000000e+00  0.000000e+00 -1.000000e+00
   outer loop
     vertex -4.068783e-01 -1.587302e-02 -2.502645e-01
     vertex -8.047619e-01  0.000000e+00 -2.502645e-01
     vertex -4.068783e-01  0.000000e+00 -2.502645e-01
   endloop
 endfacet
 facet normal  0.000000e+00 -1.000000e+00 -0.000000e+00
   outer loop
     vertex -4.068783e-01 -1.015873e+00  2.139331e-01
     vertex -8.047619e-01 -1.015873e+00 -2.502645e-01
     vertex -4.068783e-01 -1.015873e+00 -2.502645e-01
   endloop
 endfacet
 facet normal -0.000000e+00 -1.000000e+00  0.000000e+00
   outer loop
     vertex -4.068783e-01 -1.015873e+00  2.139331e-01
     vertex -8.047619e-01 -1.015873e+00  2.139331e-01
     vertex -8.047619e-01 -1.015873e+00 -2.502645e-01
   endloop
 endfacet
 facet normal  0.000000e+00 -1.000000e+00  0.000000e+00
   outer loop
     vertex  1.236332e-01 -1.015873e+00 -2.502645e-01
     vertex -4.068783e-01 -1.015873e+00  2.139331e-01
     vertex -4.068783e-01 -1.015873e+00 -2.502645e-01
   endloop
 endfacet
 facet normal  0.000000e+00 -1.000000e+00 -0.000000e+00
   outer loop
     vertex  6.541446e-01 -1.015873e+00  7.112875e-01
     vertex  1.236332e-01 -1.015873e+00 -2.502645e-01
     vertex  6.541446e-01 -1.015873e+00 -2.502645e-01
   endloop
 endfacet
 facet normal -0.000000e+00 -1.000000e+00  0.000000e+00
   outer loop
     vertex  6.541446e-01 -1.015873e+00  7.112875e-01
     vertex -4.068783e-01 -1.015873e+00  7.112875e-01
     vertex -4.068783e-01 -1.015873e+00  2.139331e-01
   endloop
 endfacet
 facet normal  0.000000e+00 -1.000000e+00  0.000000e+00
   outer loop
     vertex  6.541446e-01 -1.015873e+00  7.112875e-01
     vertex -4.068783e-01 -1.015873e+00  2.139331e-01
     vertex  1.236332e-01 -1.015873e+00 -2.502645e-01
   endloop
 endfacet
 facet normal -0.000000e+00  0.000000e+00  1.000000e+00
   outer loop
     vertex -8.047619e-01 -1.587302e-02  2.139331e-01
     vertex -4.068783e-01 -1.015873e+00  2.139331e-01
     vertex -4.068783e-01 -1.587302e-02  2.139331e-01
   endloop
 endfacet
 facet normal  0.000000e+00  0.000000e+00  1.000000e+00
   outer loop
     vertex -8.047619e-01 -1.587302e-02  2.139331e-01
     vertex -8.047619e-01 -1.015873e+00  2.139331e-01
     vertex -4.068783e-01 -1.015873e+00  2.139331e-01
   endloop
 endfacet
 facet normal -1.000000e+00  0.000000e+00  0.000000e+00
   outer loop
     vertex -8.047619e-01 -1.587302e-02 -2.502645e-01
     vertex -8.047619e-01 -1.587302e-02  2.139331e-01
     vertex -8.047619e-01  0.000000e+00  2.139331e-01
   endloop
 endfacet
 facet normal -1.000000e+00  0.000000e+00  0.000000e+00
   outer loop
     vertex -8.047619e-01 -1.587302e-02 -2.502645e-01
     vertex -8.047619e-01  0.000000e+00  2.139331e-01
     vertex -8.047619e-01  0.000000e+00 -2.502645e-01
   endloop
 endfacet
 facet normal -0.000000e+00  0.000000e+00 -1.000000e+00
   outer loop
     vertex  1.236332e-01 -1.587302e-02 -7.807760e-01
     vertex -4.068783e-01 -1.015873e+00 -7.807760e-01
     vertex -4.068783e-01 -1.587302e-02 -7.807760e-01
   endloop
 endfacet
 facet normal  0.000000e+00 -0.000000e+00 -1.000000e+00
   outer loop
     vertex  1.236332e-01 -1.587302e-02 -7.807760e-01
     vertex  1.236332e-01 -1.015873e+00 -7.807760e-01
     vertex -4.068783e-01 -1.015873e+00 -7.807760e-01
   endloop
 endfacet
 facet normal -1.000000e+00  0.000000e+00  0.000000e+00
   outer loop
     vertex -4.068783e-01 -1.587302e-02 -7.807760e-01
     vertex -4.068783e-01 -1.587302e-02 -2.502645e-01
     vertex -4.068783e-01  0.000000e+00 -2.502645e-01
   endloop
 endfacet
 facet normal -1.000000e+00  0.000000e+00  0.000000e+00
   outer loop
     vertex -4.068783e-01 -1.587302e-02 -7.807760e-01
     vertex -4.068783e-01  0.000000e+00 -2.502645e-01
     vertex -4.068783e-01  0.000000e+00 -7.807760e-01
   endloop
 endfacet
 facet normal  0.000000e+00 -1.000000e+00 -0.000000e+00
   outer loop
     vertex  1.236332e-01 -1.015873e+00 -2.502645e-01
     vertex -4.068783e-01 -1.015873e+00 -7.807760e-01
     vertex  1.236332e-01 -1.015873e+00 -7.807760e-01
   endloop
 endfacet
 facet normal -0.000000e+00 -1.000000e+00  0.000000e+00
   outer loop
     vertex  1.236332e-01 -1.015873e+00 -2.502645e-01
     vertex -4.068783e-01 -1.015873e+00 -2.502645e-01
     vertex -4.068783e-01 -1.015873e+00 -7.807760e-01
   endloop
 endfacet
 facet normal  0.000000e+00  1.000000e+00  0.000000e+00
   outer loop
     vertex -4.068783e-01  6.591949e-17  2.139331e-01
     vertex -4.068783e-01  6.591949e-17 -2.502645e-01
     vertex -8.047619e-01  6.591949e-17 -2.502645e-01
   endloop
 endfacet
 facet normal  0.000000e+00  1.000000e+00  0.000000e+00
   outer loop
     vertex -4.068783e-01  6.591949e-17  2.139331e-01
     vertex -8.047619e-01  6.591949e-17 -2.502645e-01
     vertex -8.047619e-01  6.591949e-17  2.139331e-01
   endloop
 endfacet
 facet normal  0.000000e+00  1.000000e+00  0.000000e+00
   outer loop
     vertex  1.236332e-01  6.591949e-17 -2.502645e-01
     vertex -4.068783e-01  6.591949e-17 -2.502645e-01
     vertex -4.068783e-01  6.591949e-17  2.139331e-01
   endloop
 endfacet
 facet normal  0.000000e+00  1.000000e+00  0.000000e+00
   outer loop
     vertex  6.541446e-01  6.591949e-17  7.112875e-01
     vertex  6.541446e-01  6.591949e-17 -2.502645e-01
     vertex  1.236332e-01  6.591949e-17 -2.502645e-01
   endloop
 endfacet
 facet normal  0.000000e+00  1.000000e+00  0.000000e+00
   outer loop
     vertex  6.541446e-01  6.591949e-17  7.112875e-01
     vertex -4.068783e-01  6.591949e-17  2.139331e-01
     vertex -4.068783e-01  6.591949e-17  7.112875e-01
   endloop
 endfacet
 facet normal  0.000000e+00  1.000000e+00  0.000000e+00
   outer loop
     vertex  6.541446e-01  6.591949e-17  7.112875e-01
     vertex  1.236332e-01  6.591949e-17 -2.502645e-01
     vertex -4.068783e-01  6.591949e-17  2.139331e-01
   endloop
 endfacet
 facet normal -0.000000e+00  0.000000e+00 -1.000000e+00
   outer loop
     vertex  6.541446e-01 -1.587302e-02 -2.502645e-01
     vertex  1.236332e-01 -1.015873e+00 -2.502645e-01
     vertex  1.236332e-01 -1.587302e-02 -2.502645e-01
   endloop
 endfacet
 facet normal  0.000000e+00 -0.000000e+00 -1.000000e+00
   outer loop
     vertex  6.541446e-01 -1.587302e-02 -2.502645e-01
     vertex  6.541446e-01 -1.015873e+00 -2.502645e-01
     vertex  1.236332e-01 -1.015873e+00 -2.502645e-01
   endloop
 endfacet
 facet normal  1.000000e+00  0.000000e+00  0.000000e+00
   outer loop
     vertex  6.541446e-01 -1.587302e-02  7.112875e-01
     vertex  6.541446e-01 -1.015873e+00 -2.502645e-01
     vertex  6.541446e-01 -1.587302e-02 -2.502645e-01
   endloop
 endfacet
 facet normal  1.000000e+00  0.000000e+00  0.000000e+00
   outer loop
     vertex  6.541446e-01 -1.587302e-02  7.112875e-01
     vertex  6.541446e-01 -1.015873e+00  7.112875e-01
     vertex  6.541446e-01 -1.015873e+00 -2.502645e-01
   endloop
 endfacet
 facet normal -0.000000e+00  0.000000e+00  1.000000e+00
   outer loop
     vertex -4.068783e-01 -1.587302e-02  7.112875e-01
     vertex  6.541446e-01 -1.015873e+00  7.112875e-01
     vertex  6.541446e-01 -1.587302e-02  7.112875e-01
   endloop
 endfacet
 facet normal  0.000000e+00  0.000000e+00  1.000000e+00
   outer loop
     vertex -4.068783e-01 -1.587302e-02  7.112875e-01
     vertex -4.068783e-01 -1.015873e+00  7.112875e-01
     vertex  6.541446e-01 -1.015873e+00  7.112875e-01
   endloop
 endfacet
 facet normal -1.000000e+00  0.000000e+00  0.000000e+00
   outer loop
     vertex -4.068783e-01 -1.587302e-02  2.139331e-01
     vertex -4.068783e-01 -1.015873e+00  7.112875e-01
     vertex -4.068783e-01 -1.587302e-02  7.112875e-01
   endloop
 endfacet
 facet normal -1.000000e+00  0.000000e+00  0.000000e+00
   outer loop
     vertex -4.068783e-01 -1.587302e-02  2.139331e-01
     vertex -4.068783e-01 -1.015873e+00  2.139331e-01
     vertex -4.068783e-01 -1.015873e+00  7.112875e-01
   endloop
 endfacet
 facet normal  0.000000e+00  0.000000e+00  1.000000e+00
   outer loop
     vertex -8.047619e-01 -1.587302e-02  2.139331e-01
     vertex -4.068783e-01 -1.587302e-02  2.139331e-01
     vertex -4.068783e-01  0.000000e+00  2.139331e-01
   endloop
 endfacet
 facet normal  0.000000e+00  0.000000e+00  1.000000e+00
   outer loop
     vertex -8.047619e-01 -1.587302e-02  2.139331e-01
     vertex -4.068783e-01  0.000000e+00  2.139331e-01
     vertex -8.047619e-01  0.000000e+00  2.139331e-01
   endloop
 endfacet
 facet normal  1.000000e+00  0.000000e+00  0.000000e+00
   outer loop
     vertex  1.236332e-01 -1.587302e-02 -2.502645e-01
     vertex  1.236332e-01 -1.015873e+00 -7.807760e-01
     vertex  1.236332e-01 -1.587302e-02 -7.807760e-01
   endloop
 endfacet
 facet normal  1.000000e+00  0.000000e+00  0.000000e+00
   outer loop
     vertex  1.236332e-01 -1.587302e-02 -2.502645e-01
     vertex  1.236332e-01 -1.015873e+00 -2.502645e-01
     vertex  1.236332e-01 -1.015873e+00 -7.807760e-01
   endloop
 endfacet
 facet normal  0.000000e+00  0.000000e+00 -1.000000e+00
   outer loop
     vertex  1.236332e-01 -1.587302e-02 -7.807760e-01
     vertex -4.068783e-01 -1.587302e-02 -7.807760e-01
     vertex -4.068783e-01  0.000000e+00 -7.807760e-01
   endloop
 endfacet
 facet normal  0.000000e+00  0.000000e+00 -1.000000e+00
   outer loop
     vertex  1.236332e-01 -1.587302e-02 -7.807760e-01
     vertex -4.068783e-01  0.000000e+00 -7.807760e-01
     vertex  1.236332e-01  0.000000e+00 -7.807760e-01
   endloop
 endfacet
 facet normal  0.000000e+00  1.000000e+00  0.000000e+00
   outer loop
     vertex  1.236332e-01  6.591949e-17 -2.502645e-01
     vertex  1.236332e-01  6.591949e-17 -7.807760e-01
     vertex -4.068783e-01  6.591949e-17 -7.807760e-01
   endloop
 endfacet
 facet normal  0.000000e+00  1.000000e+00  0.000000e+00
   outer loop
     vertex  1.236332e-01  6.591949e-17 -2.502645e-01
     vertex -4.068783e-01  6.591949e-17 -7.807760e-01
     vertex -4.068783e-01  6.591949e-17 -2.502645e-01
   endloop
 endfacet
 facet normal  0.000000e+00  0.000000e+00 -1.000000e+00
   outer loop
     vertex  6.541446e-01 -1.587302e-02 -2.502645e-01
     vertex  1.236332e-01 -1.587302e-02 -2.502645e-01
     vertex  1.236332e-01  0.000000e+00 -2.502645e-01
   endloop
 endfacet
 facet normal  0.000000e+00  0.000000e+00 -1.000000e+00
   outer loop
     vertex  6.541446e-01 -1.587302e-02 -2.502645e-01
     vertex  1.236332e-01  0.000000e+00 -2.502645e-01
     vertex  6.541446e-01  0.000000e+00 -2.502645e-01
   endloop
 endfacet
 facet normal  1.000000e+00  0.000000e+00  0.000000e+00
   outer loop
     vertex  6.541446e-01 -1.587302e-02  7.112875e-01
     vertex  6.541446e-01 -1.587302e-02 -2.502645e-01
     vertex  6.541446e-01  0.000000e+00 -2.502645e-01
   endloop
 endfacet
 facet normal  1.000000e+00 -0.000000e+00  0.000000e+00
   outer loop
     vertex  6.541446e-01 -1.587302e-02  7.112875e-01
     vertex  6.541446e-01  0.000000e+00 -2.502645e-01
     vertex  6.541446e-01  0.000000e+00  7.112875e-01
   endloop
 endfacet
 facet normal  0.000000e+00  0.000000e+00  1.000000e+00
   outer loop
     vertex -4.068783e-01 -1.587302e-02  7.112875e-01
     vertex  6.541446e-01 -1.587302e-02  7.112875e-01
     vertex  6.541446e-01  0.000000e+00  7.112875e-01
   endloop
 endfacet
 facet normal  0.000000e+00  0.000000e+00  1.000000e+00
   outer loop
     vertex -4.068783e-01 -1.587302e-02  7.112875e-01
     vertex  6.541446e-01  0.000000e+00  7.112875e-01
     vertex -4.068783e-01  0.000000e+00  7.112875e-01
   endloop
 endfacet
 facet normal -1.000000e+00  0.000000e+00  0.000000e+00
   outer loop
     vertex -4.068783e-01 -1.587302e-02  2.139331e-01
     vertex -4.068783e-01 -1.587302e-02  7.112875e-01
     vertex -4.068783e-01  0.000000e+00  7.112875e-01
   endloop
 endfacet
 facet normal -1.000000e+00  0.000000e+00  0.000000e+00
   outer loop
     vertex -4.068783e-01 -1.587302e-02  2.139331e-01
     vertex -4.068783e-01  0.000000e+00  7.112875e-01
     vertex -4.068783e-01  0.000000e+00  2.139331e-01
   endloop
 endfacet
 facet normal  1.000000e+00  0.000000e+00  0.000000e+00
   outer loop
     vertex  1.236332e-01 -1.587302e-02 -2.502645e-01
     vertex  1.236332e-01 -1.587302e-02 -7.807760e-01
     vertex  1.236332e-01  0.000000e+00 -7.807760e-01
   endloop
 endfacet
 facet normal  1.000000e+00 -0.000000e+00  0.000000e+00
   outer loop
     vertex  1.236332e-01 -1.587302e-02 -2.502645e-01
     vertex  1.236332e-01  0.000000e+00 -7.807760e-01
     vertex  1.236332e-01  0.000000e+00 -2.502645e-01
   endloop
 endfacet
endsolid
