solid 
 facet normal  0.000000e+00 -1.000000e+00  0.000000e+00
   outer loop
     vertex  9.416226e-01 -3.686073e-02 -1.587302e-02
     vertex -4.885370e-02 -3.686073e-02  2.857143e-01
     vertex -4.885370e-02 -3.686073e-02 -1.587302e-02
   endloop
 endfacet
 facet normal  0.000000e+00 -1.000000e+00  0.000000e+00
   outer loop
     vertex  9.416226e-01 -3.686073e-02 -1.587302e-02
     vertex  9.416226e-01 -3.686073e-02  2.857143e-01
     vertex -4.885370e-02 -3.686073e-02  2.857143e-01
   endloop
 endfacet
 facet normal -1.000000e+00  0.000000e+00  0.000000e+00
   outer loop
     vertex -4.885370e-02 -3.686073e-02 -1.587302e-02
     vertex -4.885370e-02  5.867725e-01  2.857143e-01
     vertex -4.885370e-02  5.867725e-01 -1.587302e-02
   endloop
 endfacet
 facet normal -1.000000e+00  0.000000e+00  0.000000e+00
   outer loop
     vertex -4.885370e-02 -3.686073e-02 -1.587302e-02
     vertex -4.885370e-02 -3.686073e-02  2.857143e-01
     vertex -4.885370e-02  5.867725e-01  2.857143e-01
   endloop
 endfacet
 facet normal  1.000000e+00  0.000000e+00  0.000000e+00
   outer loop
     vertex  9.416226e-01  5.867725e-01 -1.587302e-02
     vertex  9.416226e-01 -3.686073e-02  2.857143e-01
     vertex  9.416226e-01 -3.686073e-02 -1.587302e-02
   endloop
 endfacet
 facet normal  1.000000e+00  0.000000e+00 -0.000000e+00
   outer loop
     vertex  9.416226e-01  5.867725e-01 -1.587302e-02
     vertex  9.416226e-01  5.867725e-01  2.857143e-01
     vertex  9.416226e-01 -3.686073e-02  2.857143e-01
   endloop
 endfacet
 facet normal -0.000000e+00 -1.000000e+00  0.000000e+00
   outer loop
     vertex  9.416226e-01 -3.686073e-02 -1.587302e-02
     vertex -4.885370e-02 -3.686073e-02 -1.587302e-02
     vertex -4.885370e-02 -3.686073e-02 -3.174603e-02
   endloop
 endfacet
 facet normal  0.000000e+00 -1.000000e+00 -0.000000e+00
   outer loop
     vertex  9.416226e-01 -3.686073e-02 -1.587302e-02
     vertex -4.885370e-02 -3.686073e-02 -3.174603e-02
     vertex  9.416226e-01 -3.686073e-02 -3.174603e-02
   endloop
 endfacet
 facet normal  0.000000e+00  0.000000e+00  1.000000e+00
   outer loop
     vertex -4.885370e-02  5.867725e-01  2.857143e-01
     vertex -4.885370e-02 -3.686073e-02  2.857143e-01
     vertex  4.285705e-02  3.850088e-01  2.857143e-01
   endloop
 endfacet
 facet normal  0.000000e+00  0.000000e+00  1.000000e+00
   outer loop
     vertex  8.499117e-01  7.319219e-02  2.857143e-01
     vertex -4.885370e-02 -3.686073e-02  2.857143e-01
     vertex  9.416226e-01 -3.686073e-02  2.857143e-01
   endloop
 endfacet
 facet normal  0.000000e+00  0.000000e+00  1.000000e+00
   outer loop
     vertex  8.499117e-01  7.319219e-02  2.857143e-01
     vertex  4.285705e-02  3.850088e-01  2.857143e-01
     vertex -4.885370e-02 -3.686073e-02  2.857143e-01
   endloop
 endfacet
 facet normal  0.000000e+00  0.000000e+00  1.000000e+00
   outer loop
     vertex  8.499117e-01  4.767196e-01  2.857143e-01
     vertex -4.885370e-02  5.867725e-01  2.857143e-01
     vertex  4.285705e-02  3.850088e-01  2.857143e-01
   endloop
 endfacet
 facet normal  0.000000e+00  0.000000e+00  1.000000e+00
   outer loop
     vertex  8.499117e-01  4.767196e-01  2.857143e-01
     vertex  8.499117e-01  7.319219e-02  2.857143e-01
     vertex  9.416226e-01 -3.686073e-02  2.857143e-01
   endloop
 endfacet
 facet normal  0.000000e+00  0.000000e+00  1.000000e+00
   outer loop
     vertex  9.416226e-01  5.867725e-01  2.857143e-01
     vertex  8.499117e-01  4.767196e-01  2.857143e-01
     vertex  9.416226e-01 -3.686073e-02  2.857143e-01
   endloop
 endfacet
 facet normal  0.000000e+00  0.000000e+00  1.000000e+00
   outer loop
     vertex  9.416226e-01  5.867725e-01  2.857143e-01
     vertex -4.885370e-02  5.867725e-01  2.857143e-01
     vertex  8.499117e-01  4.767196e-01  2.857143e-01
   endloop
 endfacet
 facet normal  0.000000e+00  1.000000e+00  0.000000e+00
   outer loop
     vertex -4.885370e-02  5.867725e-01 -1.587302e-02
     vertex  9.416226e-01  5.867725e-01  2.857143e-01
     vertex  9.416226e-01  5.867725e-01 -1.587302e-02
   endloop
 endfacet
 facet normal  0.000000e+00  1.000000e+00  0.000000e+00
   outer loop
     vertex -4.885370e-02  5.867725e-01 -1.587302e-02
     vertex -4.885370e-02  5.867725e-01  2.857143e-01
     vertex  9.416226e-01  5.867725e-01  2.857143e-01
   endloop
 endfacet
 facet normal -1.000000e+00  0.000000e+00  0.000000e+00
   outer loop
     vertex -4.885370e-02 -3.686073e-02 -1.587302e-02
     vertex -4.885370e-02  5.867725e-01 -1.587302e-02
     vertex -4.885370e-02  5.867725e-01 -3.174603e-02
   endloop
 endfacet
 facet normal -1.000000e+00  0.000000e+00  0.000000e+00
   outer loop
     vertex -4.885370e-02 -3.686073e-02 -1.587302e-02
     vertex -4.885370e-02  5.867725e-01 -3.174603e-02
     vertex -4.885370e-02 -3.686073e-02 -3.174603e-02
   endloop
 endfacet
 facet normal  1.000000e+00  0.000000e+00  0.000000e+00
   outer loop
     vertex  9.416226e-01  5.867725e-01 -1.587302e-02
     vertex  9.416226e-01 -3.686073e-02 -1.587302e-02
     vertex  9.416226e-01 -3.686073e-02 -3.174603e-02
   endloop
 endfacet
 facet normal  1.000000e+00  0.000000e+00  0.000000e+00
   outer loop
     vertex  9.416226e-01  5.867725e-01 -1.587302e-02
     vertex  9.416226e-01 -3.686073e-02 -3.174603e-02
     vertex  9.416226e-01  5.867725e-01 -3.174603e-02
   endloop
 endfacet
 facet normal  0.000000e+00  0.000000e+00 -1.000000e+00
   outer loop
     vertex -4.885370e-02  5.867725e-01 -3.174603e-02
     vertex  4.285705e-02  3.850088e-01 -3.174603e-02
     vertex -4.885370e-02 -3.686073e-02 -3.174603e-02
   endloop
 endfacet
 facet normal  0.000000e+00 -0.000000e+00 -1.000000e+00
   outer loop
     vertex  8.499117e-01  7.319219e-02 -3.174603e-02
     vertex  9.416226e-01 -3.686073e-02 -3.174603e-02
     vertex -4.885370e-02 -3.686073e-02 -3.174603e-02
   endloop
 endfacet
 facet normal -0.000000e+00  0.000000e+00 -1.000000e+00
   outer loop
     vertex  8.499117e-01  7.319219e-02 -3.174603e-02
     vertex -4.885370e-02 -3.686073e-02 -3.174603e-02
     vertex  4.285705e-02  3.850088e-01 -3.174603e-02
   endloop
 endfacet
 facet normal -0.000000e+00  0.000000e+00 -1.000000e+00
   outer loop
     vertex  8.499117e-01  4.767196e-01 -3.174603e-02
     vertex  4.285705e-02  3.850088e-01 -3.174603e-02
     vertex -4.885370e-02  5.867725e-01 -3.174603e-02
   endloop
 endfacet
 facet normal  0.000000e+00  0.000000e+00 -1.000000e+00
   outer loop
     vertex  8.499117e-01  4.767196e-01 -3.174603e-02
     vertex  9.416226e-01 -3.686073e-02 -3.174603e-02
     vertex  8.499117e-01  7.319219e-02 -3.174603e-02
   endloop
 endfacet
 facet normal  0.000000e+00 -0.000000e+00 -1.000000e+00
   outer loop
     vertex  9.416226e-01  5.867725e-01 -3.174603e-02
     vertex  9.416226e-01 -3.686073e-02 -3.174603e-02
     vertex  8.499117e-01  4.767196e-01 -3.174603e-02
   endloop
 endfacet
 facet normal -0.000000e+00  0.000000e+00 -1.000000e+00
   outer loop
     vertex  9.416226e-01  5.867725e-01 -3.174603e-02
     vertex  8.499117e-01  4.767196e-01 -3.174603e-02
     vertex -4.885370e-02  5.867725e-01 -3.174603e-02
   endloop
 endfacet
 facet normal  0.000000e+00  0.000000e+00  1.000000e+00
   outer loop
     vertex  8.499117e-01  4.767196e-01  2.857143e-01
     vertex  4.285705e-02  3.850088e-01  2.857143e-01
     vertex  8.499117e-01  7.319219e-02  2.857143e-01
   endloop
 endfacet
 facet normal -0.000000e+00  1.000000e+00  0.000000e+00
   outer loop
     vertex -4.885370e-02  5.867725e-01 -1.587302e-02
     vertex  9.416226e-01  5.867725e-01 -1.587302e-02
     vertex  9.416226e-01  5.867725e-01 -3.174603e-02
   endloop
 endfacet
 facet normal  0.000000e+00  1.000000e+00  0.000000e+00
   outer loop
     vertex -4.885370e-02  5.867725e-01 -1.587302e-02
     vertex  9.416226e-01  5.867725e-01 -3.174603e-02
     vertex -4.885370e-02  5.867725e-01 -3.174603e-02
   endloop
 endfacet
 facet normal  0.000000e+00 -0.000000e+00 -1.000000e+00
   outer loop
     vertex  8.499117e-01  4.767196e-01 -3.174603e-02
     vertex  8.499117e-01  7.319219e-02 -3.174603e-02
     vertex  4.285705e-02  3.850088e-01 -3.174603e-02
   endloop
 endfacet
endsolid
