solid 
 facet normal -0.000000e+00  0.000000e+00 -1.000000e+00
   outer loop
     vertex  9.232805e-01 -1.587302e-02 -6.238095e-01
     vertex -1.019577e+00 -1.904762e-01 -6.238095e-01
     vertex -1.019577e+00 -1.587302e-02 -6.238095e-01
   endloop
 endfacet
 facet normal  0.000000e+00 -0.000000e+00 -1.000000e+00
   outer loop
     vertex  9.232805e-01 -1.587302e-02 -6.238095e-01
     vertex  9.232805e-01 -1.904762e-01 -6.238095e-01
     vertex -1.019577e+00 -1.904762e-01 -6.238095e-01
   endloop
 endfacet
 facet normal -1.000000e+00  0.000000e+00  0.000000e+00
   outer loop
     vertex -1.019577e+00 -1.587302e-02 -6.238095e-01
     vertex -1.019577e+00 -1.904762e-01  5.275133e-01
     vertex -1.019577e+00 -1.587302e-02  5.275133e-01
   endloop
 endfacet
 facet normal -1.000000e+00  0.000000e+00  0.000000e+00
   outer loop
     vertex -1.019577e+00 -1.587302e-02 -6.238095e-01
     vertex -1.019577e+00 -1.904762e-01 -6.238095e-01
     vertex -1.019577e+00 -1.904762e-01  5.275133e-01
   endloop
 endfacet
 facet normal  1.000000e+00  0.000000e+00  0.000000e+00
   outer loop
     vertex  9.232805e-01 -1.587302e-02  5.275133e-01
     vertex  9.232805e-01 -1.904762e-01 -6.238095e-01
     vertex  9.232805e-01 -1.587302e-02 -6.238095e-01
   endloop
 endfacet
 facet normal  1.000000e+00  0.000000e+00  0.000000e+00
   outer loop
     vertex  9.232805e-01 -1.587302e-02  5.275133e-01
     vertex  9.232805e-01 -1.904762e-01  5.275133e-01
     vertex  9.232805e-01 -1.904762e-01 -6.238095e-01
   endloop
 endfacet
 facet normal  0.000000e+00  0.000000e+00 -1.000000e+00
   outer loop
     vertex  9.232805e-01 -1.587302e-02 -6.238095e-01
     vertex -1.019577e+00 -1.587302e-02 -6.238095e-01
     vertex -1.019577e+00  0.000000e+00 -6.238095e-01
   endloop
 endfacet
 facet normal  0.000000e+00  0.000000e+00 -1.000000e+00
   outer loop
     vertex  9.232805e-01 -1.587302e-02 -6.238095e-01
     vertex -1.019577e+00  0.000000e+00 -6.238095e-01
     vertex  9.232805e-01  0.000000e+00 -6.238095e-01
   endloop
 endfacet
 facet normal -0.000000e+00 -1.000000e+00  0.000000e+00
   outer loop
     vertex -5.878306e-01 -1.904762e-01 -4.439153e-01
     vertex -9.476190e-01 -1.904762e-01 -4.439153e-01
     vertex -1.019577e+00 -1.904762e-01 -6.238095e-01
   endloop
 endfacet
 facet normal  0.000000e+00 -1.000000e+00  0.000000e+00
   outer loop
     vertex -1.019577e+00 -1.904762e-01  5.275133e-01
     vertex -9.476190e-01 -1.904762e-01 -4.439153e-01
     vertex -9.476190e-01 -1.904762e-01  3.476191e-01
   endloop
 endfacet
 facet normal  0.000000e+00 -1.000000e+00  0.000000e+00
   outer loop
     vertex -1.019577e+00 -1.904762e-01  5.275133e-01
     vertex -1.019577e+00 -1.904762e-01 -6.238095e-01
     vertex -9.476190e-01 -1.904762e-01 -4.439153e-01
   endloop
 endfacet
 facet normal  0.000000e+00 -1.000000e+00  0.000000e+00
   outer loop
     vertex -5.878306e-01 -1.904762e-01  3.476191e-01
     vertex -1.019577e+00 -1.904762e-01  5.275133e-01
     vertex -9.476190e-01 -1.904762e-01  3.476191e-01
   endloop
 endfacet
 facet normal -0.000000e+00 -1.000000e+00  0.000000e+00
   outer loop
     vertex  1.003090e-01 -1.904762e-01 -3.209365e-01
     vertex  7.957994e-02 -1.904762e-01 -3.008889e-01
     vertex -5.878306e-01 -1.904762e-01 -4.439153e-01
   endloop
 endfacet
 facet normal  0.000000e+00 -1.000000e+00 -0.000000e+00
   outer loop
     vertex  6.170793e-02 -1.904762e-01 -2.782573e-01
     vertex -5.878306e-01 -1.904762e-01 -4.439153e-01
     vertex  7.957994e-02 -1.904762e-01 -3.008889e-01
   endloop
 endfacet
 facet normal -0.000000e+00 -1.000000e+00  0.000000e+00
   outer loop
     vertex  1.235252e-01 -1.904762e-01 -3.380423e-01
     vertex  1.003090e-01 -1.904762e-01 -3.209365e-01
     vertex -5.878306e-01 -1.904762e-01 -4.439153e-01
   endloop
 endfacet
 facet normal  0.000000e+00 -1.000000e+00 -0.000000e+00
   outer loop
     vertex  4.701189e-02 -1.904762e-01 -2.534455e-01
     vertex -5.878306e-01 -1.904762e-01 -4.439153e-01
     vertex  6.170793e-02 -1.904762e-01 -2.782573e-01
   endloop
 endfacet
 facet normal -0.000000e+00 -1.000000e+00  0.000000e+00
   outer loop
     vertex  1.488142e-01 -1.904762e-01 -3.519011e-01
     vertex  1.235252e-01 -1.904762e-01 -3.380423e-01
     vertex -5.878306e-01 -1.904762e-01 -4.439153e-01
   endloop
 endfacet
 facet normal  0.000000e+00 -1.000000e+00 -0.000000e+00
   outer loop
     vertex  3.575405e-02 -1.904762e-01 -2.268963e-01
     vertex -5.878306e-01 -1.904762e-01 -4.439153e-01
     vertex  4.701189e-02 -1.904762e-01 -2.534455e-01
   endloop
 endfacet
 facet normal -0.000000e+00 -1.000000e+00  0.000000e+00
   outer loop
     vertex  1.757247e-01 -1.904762e-01 -3.622655e-01
     vertex  1.488142e-01 -1.904762e-01 -3.519011e-01
     vertex -5.878306e-01 -1.904762e-01 -4.439153e-01
   endloop
 endfacet
 facet normal -0.000000e+00 -1.000000e+00  0.000000e+00
   outer loop
     vertex  2.813533e-02 -1.904762e-01 -1.990835e-01
     vertex -5.878306e-01 -1.904762e-01 -4.814812e-02
     vertex -5.878306e-01 -1.904762e-01 -4.439153e-01
   endloop
 endfacet
 facet normal  0.000000e+00 -1.000000e+00 -0.000000e+00
   outer loop
     vertex  2.813533e-02 -1.904762e-01 -1.990835e-01
     vertex -5.878306e-01 -1.904762e-01 -4.439153e-01
     vertex  3.575405e-02 -1.904762e-01 -2.268963e-01
   endloop
 endfacet
 facet normal -0.000000e+00 -1.000000e+00  0.000000e+00
   outer loop
     vertex  2.037766e-01 -1.904762e-01 -3.689506e-01
     vertex  1.757247e-01 -1.904762e-01 -3.622655e-01
     vertex -5.878306e-01 -1.904762e-01 -4.439153e-01
   endloop
 endfacet
 facet normal -0.000000e+00 -1.000000e+00 -0.000000e+00
   outer loop
     vertex  2.429167e-02 -1.904762e-01 -1.705033e-01
     vertex -5.878306e-01 -1.904762e-01 -4.814812e-02
     vertex  2.813533e-02 -1.904762e-01 -1.990835e-01
   endloop
 endfacet
 facet normal -0.000000e+00 -1.000000e+00 -0.000000e+00
   outer loop
     vertex  2.429167e-02 -1.904762e-01 -1.416659e-01
     vertex -5.878306e-01 -1.904762e-01 -4.814812e-02
     vertex  2.429167e-02 -1.904762e-01 -1.705033e-01
   endloop
 endfacet
 facet normal -0.000000e+00 -1.000000e+00  0.000000e+00
   outer loop
     vertex  2.813533e-02 -1.904762e-01 -1.130857e-01
     vertex -5.878306e-01 -1.904762e-01 -4.814812e-02
     vertex  2.429167e-02 -1.904762e-01 -1.416659e-01
   endloop
 endfacet
 facet normal -0.000000e+00 -1.000000e+00  0.000000e+00
   outer loop
     vertex  3.575405e-02 -1.904762e-01 -8.527290e-02
     vertex -5.878306e-01 -1.904762e-01 -4.814812e-02
     vertex  2.813533e-02 -1.904762e-01 -1.130857e-01
   endloop
 endfacet
 facet normal -0.000000e+00 -1.000000e+00  0.000000e+00
   outer loop
     vertex  4.701189e-02 -1.904762e-01 -5.872370e-02
     vertex -5.878306e-01 -1.904762e-01 -4.814812e-02
     vertex  3.575405e-02 -1.904762e-01 -8.527290e-02
   endloop
 endfacet
 facet normal  0.000000e+00 -1.000000e+00  0.000000e+00
   outer loop
     vertex  6.170793e-02 -1.904762e-01 -3.391191e-02
     vertex -5.878306e-01 -1.904762e-01 -4.814812e-02
     vertex  4.701189e-02 -1.904762e-01 -5.872370e-02
   endloop
 endfacet
 facet normal -0.000000e+00 -1.000000e+00  0.000000e+00
   outer loop
     vertex  6.170793e-02 -1.904762e-01 -3.391191e-02
     vertex -5.878306e-01 -1.904762e-01  3.476191e-01
     vertex -5.878306e-01 -1.904762e-01 -4.814812e-02
   endloop
 endfacet
 facet normal -0.000000e+00 -1.000000e+00  0.000000e+00
   outer loop
     vertex  7.957994e-02 -1.904762e-01 -1.128029e-02
     vertex -5.878306e-01 -1.904762e-01  3.476191e-01
     vertex  6.170793e-02 -1.904762e-01 -3.391191e-02
   endloop
 endfacet
 facet normal -0.000000e+00 -1.000000e+00  0.000000e+00
   outer loop
     vertex  1.003090e-01 -1.904762e-01  8.767289e-03
     vertex -5.878306e-01 -1.904762e-01  3.476191e-01
     vertex  7.957994e-02 -1.904762e-01 -1.128029e-02
   endloop
 endfacet
 facet normal -0.000000e+00 -1.000000e+00  0.000000e+00
   outer loop
     vertex  1.235252e-01 -1.904762e-01  2.587308e-02
     vertex -5.878306e-01 -1.904762e-01  3.476191e-01
     vertex  1.003090e-01 -1.904762e-01  8.767289e-03
   endloop
 endfacet
 facet normal -0.000000e+00 -1.000000e+00  0.000000e+00
   outer loop
     vertex  1.488142e-01 -1.904762e-01  3.973184e-02
     vertex -5.878306e-01 -1.904762e-01  3.476191e-01
     vertex  1.235252e-01 -1.904762e-01  2.587308e-02
   endloop
 endfacet
 facet normal -0.000000e+00 -1.000000e+00  0.000000e+00
   outer loop
     vertex  1.757247e-01 -1.904762e-01  5.009624e-02
     vertex -5.878306e-01 -1.904762e-01  3.476191e-01
     vertex  1.488142e-01 -1.904762e-01  3.973184e-02
   endloop
 endfacet
 facet normal -0.000000e+00 -1.000000e+00  0.000000e+00
   outer loop
     vertex  2.037766e-01 -1.904762e-01  5.678135e-02
     vertex -5.878306e-01 -1.904762e-01  3.476191e-01
     vertex  1.757247e-01 -1.904762e-01  5.009624e-02
   endloop
 endfacet
 facet normal  0.000000e+00 -1.000000e+00  0.000000e+00
   outer loop
     vertex  9.232805e-01 -1.904762e-01 -6.238095e-01
     vertex  2.324692e-01 -1.904762e-01 -3.718371e-01
     vertex  2.037766e-01 -1.904762e-01 -3.689506e-01
   endloop
 endfacet
 facet normal  0.000000e+00 -1.000000e+00  0.000000e+00
   outer loop
     vertex  9.232805e-01 -1.904762e-01 -6.238095e-01
     vertex  2.612906e-01 -1.904762e-01 -3.708735e-01
     vertex  2.324692e-01 -1.904762e-01 -3.718371e-01
   endloop
 endfacet
 facet normal  0.000000e+00 -1.000000e+00  0.000000e+00
   outer loop
     vertex  9.232805e-01 -1.904762e-01 -6.238095e-01
     vertex  2.897263e-01 -1.904762e-01 -3.660770e-01
     vertex  2.612906e-01 -1.904762e-01 -3.708735e-01
   endloop
 endfacet
 facet normal  0.000000e+00 -1.000000e+00  0.000000e+00
   outer loop
     vertex  9.232805e-01 -1.904762e-01 -6.238095e-01
     vertex  3.172691e-01 -1.904762e-01 -3.575331e-01
     vertex  2.897263e-01 -1.904762e-01 -3.660770e-01
   endloop
 endfacet
 facet normal  0.000000e+00 -1.000000e+00  0.000000e+00
   outer loop
     vertex  9.232805e-01 -1.904762e-01 -6.238095e-01
     vertex  3.434273e-01 -1.904762e-01 -3.453944e-01
     vertex  3.172691e-01 -1.904762e-01 -3.575331e-01
   endloop
 endfacet
 facet normal  0.000000e+00 -1.000000e+00  0.000000e+00
   outer loop
     vertex  9.232805e-01 -1.904762e-01 -6.238095e-01
     vertex  3.677341e-01 -1.904762e-01 -3.298775e-01
     vertex  3.434273e-01 -1.904762e-01 -3.453944e-01
   endloop
 endfacet
 facet normal  0.000000e+00 -1.000000e+00  0.000000e+00
   outer loop
     vertex  9.232805e-01 -1.904762e-01 -6.238095e-01
     vertex  3.897559e-01 -1.904762e-01 -3.112593e-01
     vertex  3.677341e-01 -1.904762e-01 -3.298775e-01
   endloop
 endfacet
 facet normal  0.000000e+00 -1.000000e+00  0.000000e+00
   outer loop
     vertex  9.232805e-01 -1.904762e-01 -6.238095e-01
     vertex  4.090996e-01 -1.904762e-01 -2.898719e-01
     vertex  3.897559e-01 -1.904762e-01 -3.112593e-01
   endloop
 endfacet
 facet normal  0.000000e+00 -1.000000e+00  0.000000e+00
   outer loop
     vertex  9.232805e-01 -1.904762e-01 -6.238095e-01
     vertex  4.254201e-01 -1.904762e-01 -2.660971e-01
     vertex  4.090996e-01 -1.904762e-01 -2.898719e-01
   endloop
 endfacet
 facet normal  0.000000e+00 -1.000000e+00  0.000000e+00
   outer loop
     vertex  9.232805e-01 -1.904762e-01 -6.238095e-01
     vertex  4.384261e-01 -1.904762e-01 -2.403591e-01
     vertex  4.254201e-01 -1.904762e-01 -2.660971e-01
   endloop
 endfacet
 facet normal  0.000000e+00 -1.000000e+00  0.000000e+00
   outer loop
     vertex  9.232805e-01 -1.904762e-01 -6.238095e-01
     vertex  4.478855e-01 -1.904762e-01 -2.131173e-01
     vertex  4.384261e-01 -1.904762e-01 -2.403591e-01
   endloop
 endfacet
 facet normal  0.000000e+00 -1.000000e+00  0.000000e+00
   outer loop
     vertex  9.232805e-01 -1.904762e-01 -6.238095e-01
     vertex  4.536295e-01 -1.904762e-01 -1.848577e-01
     vertex  4.478855e-01 -1.904762e-01 -2.131173e-01
   endloop
 endfacet
 facet normal  0.000000e+00 -1.000000e+00  0.000000e+00
   outer loop
     vertex  9.232805e-01 -1.904762e-01 -6.238095e-01
     vertex -5.878306e-01 -1.904762e-01 -4.439153e-01
     vertex -1.019577e+00 -1.904762e-01 -6.238095e-01
   endloop
 endfacet
 facet normal  0.000000e+00 -1.000000e+00  0.000000e+00
   outer loop
     vertex  9.232805e-01 -1.904762e-01 -6.238095e-01
     vertex  2.037766e-01 -1.904762e-01 -3.689506e-01
     vertex -5.878306e-01 -1.904762e-01 -4.439153e-01
   endloop
 endfacet
 facet normal  0.000000e+00 -1.000000e+00 -0.000000e+00
   outer loop
     vertex  4.555556e-01 -1.904762e-01 -1.560846e-01
     vertex  4.536295e-01 -1.904762e-01 -1.848577e-01
     vertex  9.232805e-01 -1.904762e-01 -6.238095e-01
   endloop
 endfacet
 facet normal  0.000000e+00 -1.000000e+00  0.000000e+00
   outer loop
     vertex  4.536295e-01 -1.904762e-01 -1.273116e-01
     vertex  4.555556e-01 -1.904762e-01 -1.560846e-01
     vertex  9.232805e-01 -1.904762e-01 -6.238095e-01
   endloop
 endfacet
 facet normal  0.000000e+00 -1.000000e+00  0.000000e+00
   outer loop
     vertex  9.232805e-01 -1.904762e-01  5.275133e-01
     vertex  4.478855e-01 -1.904762e-01 -9.905196e-02
     vertex  4.536295e-01 -1.904762e-01 -1.273116e-01
   endloop
 endfacet
 facet normal  0.000000e+00 -1.000000e+00  0.000000e+00
   outer loop
     vertex  9.232805e-01 -1.904762e-01  5.275133e-01
     vertex  4.384261e-01 -1.904762e-01 -7.181011e-02
     vertex  4.478855e-01 -1.904762e-01 -9.905196e-02
   endloop
 endfacet
 facet normal  0.000000e+00 -1.000000e+00  0.000000e+00
   outer loop
     vertex  9.232805e-01 -1.904762e-01  5.275133e-01
     vertex  4.254201e-01 -1.904762e-01 -4.607213e-02
     vertex  4.384261e-01 -1.904762e-01 -7.181011e-02
   endloop
 endfacet
 facet normal  0.000000e+00 -1.000000e+00  0.000000e+00
   outer loop
     vertex  9.232805e-01 -1.904762e-01  5.275133e-01
     vertex  4.090996e-01 -1.904762e-01 -2.229734e-02
     vertex  4.254201e-01 -1.904762e-01 -4.607213e-02
   endloop
 endfacet
 facet normal  0.000000e+00 -1.000000e+00  0.000000e+00
   outer loop
     vertex  9.232805e-01 -1.904762e-01  5.275133e-01
     vertex  3.897559e-01 -1.904762e-01 -9.099776e-04
     vertex  4.090996e-01 -1.904762e-01 -2.229734e-02
   endloop
 endfacet
 facet normal  0.000000e+00 -1.000000e+00  0.000000e+00
   outer loop
     vertex  9.232805e-01 -1.904762e-01  5.275133e-01
     vertex  3.677341e-01 -1.904762e-01  1.770829e-02
     vertex  3.897559e-01 -1.904762e-01 -9.099776e-04
   endloop
 endfacet
 facet normal  0.000000e+00 -1.000000e+00  0.000000e+00
   outer loop
     vertex  9.232805e-01 -1.904762e-01  5.275133e-01
     vertex  3.434273e-01 -1.904762e-01  3.322521e-02
     vertex  3.677341e-01 -1.904762e-01  1.770829e-02
   endloop
 endfacet
 facet normal  0.000000e+00 -1.000000e+00  0.000000e+00
   outer loop
     vertex  9.232805e-01 -1.904762e-01  5.275133e-01
     vertex  3.172691e-01 -1.904762e-01  4.536390e-02
     vertex  3.434273e-01 -1.904762e-01  3.322521e-02
   endloop
 endfacet
 facet normal  0.000000e+00 -1.000000e+00  0.000000e+00
   outer loop
     vertex  9.232805e-01 -1.904762e-01  5.275133e-01
     vertex  2.897263e-01 -1.904762e-01  5.390773e-02
     vertex  3.172691e-01 -1.904762e-01  4.536390e-02
   endloop
 endfacet
 facet normal  0.000000e+00 -1.000000e+00  0.000000e+00
   outer loop
     vertex  9.232805e-01 -1.904762e-01  5.275133e-01
     vertex  2.612906e-01 -1.904762e-01  5.870425e-02
     vertex  2.897263e-01 -1.904762e-01  5.390773e-02
   endloop
 endfacet
 facet normal  0.000000e+00 -1.000000e+00  0.000000e+00
   outer loop
     vertex  9.232805e-01 -1.904762e-01  5.275133e-01
     vertex  2.324692e-01 -1.904762e-01  5.966785e-02
     vertex  2.612906e-01 -1.904762e-01  5.870425e-02
   endloop
 endfacet
 facet normal  0.000000e+00 -1.000000e+00  0.000000e+00
   outer loop
     vertex  9.232805e-01 -1.904762e-01  5.275133e-01
     vertex  2.037766e-01 -1.904762e-01  5.678135e-02
     vertex  2.324692e-01 -1.904762e-01  5.966785e-02
   endloop
 endfacet
 facet normal  0.000000e+00 -1.000000e+00  0.000000e+00
   outer loop
     vertex  9.232805e-01 -1.904762e-01  5.275133e-01
     vertex -5.878306e-01 -1.904762e-01  3.476191e-01
     vertex  2.037766e-01 -1.904762e-01  5.678135e-02
   endloop
 endfacet
 facet normal  0.000000e+00 -1.000000e+00 -0.000000e+00
   outer loop
     vertex  9.232805e-01 -1.904762e-01  5.275133e-01
     vertex  4.536295e-01 -1.904762e-01 -1.273116e-01
     vertex  9.232805e-01 -1.904762e-01 -6.238095e-01
   endloop
 endfacet
 facet normal -0.000000e+00 -1.000000e+00  0.000000e+00
   outer loop
     vertex  9.232805e-01 -1.904762e-01  5.275133e-01
     vertex -1.019577e+00 -1.904762e-01  5.275133e-01
     vertex -5.878306e-01 -1.904762e-01  3.476191e-01
   endloop
 endfacet
 facet normal -0.000000e+00  0.000000e+00  1.000000e+00
   outer loop
     vertex -1.019577e+00 -1.587302e-02  5.275133e-01
     vertex  9.232805e-01 -1.904762e-01  5.275133e-01
     vertex  9.232805e-01 -1.587302e-02  5.275133e-01
   endloop
 endfacet
 facet normal  0.000000e+00  0.000000e+00  1.000000e+00
   outer loop
     vertex -1.019577e+00 -1.587302e-02  5.275133e-01
     vertex -1.019577e+00 -1.904762e-01  5.275133e-01
     vertex  9.232805e-01 -1.904762e-01  5.275133e-01
   endloop
 endfacet
 facet normal -1.000000e+00  0.000000e+00  0.000000e+00
   outer loop
     vertex -1.019577e+00 -1.587302e-02 -6.238095e-01
     vertex -1.019577e+00 -1.587302e-02  5.275133e-01
     vertex -1.019577e+00  0.000000e+00  5.275133e-01
   endloop
 endfacet
 facet normal -1.000000e+00  0.000000e+00  0.000000e+00
   outer loop
     vertex -1.019577e+00 -1.587302e-02 -6.238095e-01
     vertex -1.019577e+00  0.000000e+00  5.275133e-01
     vertex -1.019577e+00  0.000000e+00 -6.238095e-01
   endloop
 endfacet
 facet normal  1.000000e+00  0.000000e+00  0.000000e+00
   outer loop
     vertex  9.232805e-01 -1.587302e-02  5.275133e-01
     vertex  9.232805e-01 -1.587302e-02 -6.238095e-01
     vertex  9.232805e-01  0.000000e+00 -6.238095e-01
   endloop
 endfacet
 facet normal  1.000000e+00 -0.000000e+00  0.000000e+00
   outer loop
     vertex  9.232805e-01 -1.587302e-02  5.275133e-01
     vertex  9.232805e-01  0.000000e+00 -6.238095e-01
     vertex  9.232805e-01  0.000000e+00  5.275133e-01
   endloop
 endfacet
 facet normal  0.000000e+00  1.000000e+00  0.000000e+00
   outer loop
     vertex -5.878306e-01  1.040834e-17 -4.439153e-01
     vertex -1.019577e+00  1.040834e-17 -6.238095e-01
     vertex -9.476190e-01  1.040834e-17 -4.439153e-01
   endloop
 endfacet
 facet normal  0.000000e+00  1.000000e+00  0.000000e+00
   outer loop
     vertex -1.019577e+00  1.040834e-17  5.275133e-01
     vertex -9.476190e-01  1.040834e-17  3.476191e-01
     vertex -9.476190e-01  1.040834e-17 -4.439153e-01
   endloop
 endfacet
 facet normal  0.000000e+00  1.000000e+00  0.000000e+00
   outer loop
     vertex -1.019577e+00  1.040834e-17  5.275133e-01
     vertex -9.476190e-01  1.040834e-17 -4.439153e-01
     vertex -1.019577e+00  1.040834e-17 -6.238095e-01
   endloop
 endfacet
 facet normal  0.000000e+00  1.000000e+00  0.000000e+00
   outer loop
     vertex -5.878306e-01  1.040834e-17  3.476191e-01
     vertex -9.476190e-01  1.040834e-17  3.476191e-01
     vertex -1.019577e+00  1.040834e-17  5.275133e-01
   endloop
 endfacet
 facet normal  0.000000e+00  1.000000e+00  0.000000e+00
   outer loop
     vertex  1.003090e-01  1.040834e-17 -3.209365e-01
     vertex -5.878306e-01  1.040834e-17 -4.439153e-01
     vertex  7.957994e-02  1.040834e-17 -3.008889e-01
   endloop
 endfacet
 facet normal  0.000000e+00  1.000000e+00  0.000000e+00
   outer loop
     vertex  6.170793e-02  1.040834e-17 -2.782573e-01
     vertex  7.957994e-02  1.040834e-17 -3.008889e-01
     vertex -5.878306e-01  1.040834e-17 -4.439153e-01
   endloop
 endfacet
 facet normal  0.000000e+00  1.000000e+00  0.000000e+00
   outer loop
     vertex  1.235252e-01  1.040834e-17 -3.380423e-01
     vertex -5.878306e-01  1.040834e-17 -4.439153e-01
     vertex  1.003090e-01  1.040834e-17 -3.209365e-01
   endloop
 endfacet
 facet normal  0.000000e+00  1.000000e+00  0.000000e+00
   outer loop
     vertex  4.701189e-02  1.040834e-17 -2.534455e-01
     vertex  6.170793e-02  1.040834e-17 -2.782573e-01
     vertex -5.878306e-01  1.040834e-17 -4.439153e-01
   endloop
 endfacet
 facet normal  0.000000e+00  1.000000e+00  0.000000e+00
   outer loop
     vertex  1.488142e-01  1.040834e-17 -3.519011e-01
     vertex -5.878306e-01  1.040834e-17 -4.439153e-01
     vertex  1.235252e-01  1.040834e-17 -3.380423e-01
   endloop
 endfacet
 facet normal  0.000000e+00  1.000000e+00  0.000000e+00
   outer loop
     vertex  3.575405e-02  1.040834e-17 -2.268963e-01
     vertex  4.701189e-02  1.040834e-17 -2.534455e-01
     vertex -5.878306e-01  1.040834e-17 -4.439153e-01
   endloop
 endfacet
 facet normal  0.000000e+00  1.000000e+00  0.000000e+00
   outer loop
     vertex  1.757247e-01  1.040834e-17 -3.622655e-01
     vertex -5.878306e-01  1.040834e-17 -4.439153e-01
     vertex  1.488142e-01  1.040834e-17 -3.519011e-01
   endloop
 endfacet
 facet normal  0.000000e+00  1.000000e+00  0.000000e+00
   outer loop
     vertex  2.813533e-02  1.040834e-17 -1.990835e-01
     vertex -5.878306e-01  1.040834e-17 -4.439153e-01
     vertex -5.878306e-01  1.040834e-17 -4.814812e-02
   endloop
 endfacet
 facet normal  0.000000e+00  1.000000e+00  0.000000e+00
   outer loop
     vertex  2.813533e-02  1.040834e-17 -1.990835e-01
     vertex  3.575405e-02  1.040834e-17 -2.268963e-01
     vertex -5.878306e-01  1.040834e-17 -4.439153e-01
   endloop
 endfacet
 facet normal  0.000000e+00  1.000000e+00  0.000000e+00
   outer loop
     vertex  2.037766e-01  1.040834e-17 -3.689506e-01
     vertex -5.878306e-01  1.040834e-17 -4.439153e-01
     vertex  1.757247e-01  1.040834e-17 -3.622655e-01
   endloop
 endfacet
 facet normal  0.000000e+00  1.000000e+00  0.000000e+00
   outer loop
     vertex  2.429167e-02  1.040834e-17 -1.705033e-01
     vertex  2.813533e-02  1.040834e-17 -1.990835e-01
     vertex -5.878306e-01  1.040834e-17 -4.814812e-02
   endloop
 endfacet
 facet normal  0.000000e+00  1.000000e+00  0.000000e+00
   outer loop
     vertex  2.429167e-02  1.040834e-17 -1.416659e-01
     vertex  2.429167e-02  1.040834e-17 -1.705033e-01
     vertex -5.878306e-01  1.040834e-17 -4.814812e-02
   endloop
 endfacet
 facet normal  0.000000e+00  1.000000e+00  0.000000e+00
   outer loop
     vertex  2.813533e-02  1.040834e-17 -1.130857e-01
     vertex  2.429167e-02  1.040834e-17 -1.416659e-01
     vertex -5.878306e-01  1.040834e-17 -4.814812e-02
   endloop
 endfacet
 facet normal  0.000000e+00  1.000000e+00  0.000000e+00
   outer loop
     vertex  3.575405e-02  1.040834e-17 -8.527290e-02
     vertex  2.813533e-02  1.040834e-17 -1.130857e-01
     vertex -5.878306e-01  1.040834e-17 -4.814812e-02
   endloop
 endfacet
 facet normal  0.000000e+00  1.000000e+00  0.000000e+00
   outer loop
     vertex  4.701189e-02  1.040834e-17 -5.872370e-02
     vertex  3.575405e-02  1.040834e-17 -8.527290e-02
     vertex -5.878306e-01  1.040834e-17 -4.814812e-02
   endloop
 endfacet
 facet normal  0.000000e+00  1.000000e+00  0.000000e+00
   outer loop
     vertex  6.170793e-02  1.040834e-17 -3.391191e-02
     vertex  4.701189e-02  1.040834e-17 -5.872370e-02
     vertex -5.878306e-01  1.040834e-17 -4.814812e-02
   endloop
 endfacet
 facet normal  0.000000e+00  1.000000e+00  0.000000e+00
   outer loop
     vertex  6.170793e-02  1.040834e-17 -3.391191e-02
     vertex -5.878306e-01  1.040834e-17 -4.814812e-02
     vertex -5.878306e-01  1.040834e-17  3.476191e-01
   endloop
 endfacet
 facet normal  0.000000e+00  1.000000e+00  0.000000e+00
   outer loop
     vertex  7.957994e-02  1.040834e-17 -1.128029e-02
     vertex  6.170793e-02  1.040834e-17 -3.391191e-02
     vertex -5.878306e-01  1.040834e-17  3.476191e-01
   endloop
 endfacet
 facet normal  0.000000e+00  1.000000e+00  0.000000e+00
   outer loop
     vertex  1.003090e-01  1.040834e-17  8.767289e-03
     vertex  7.957994e-02  1.040834e-17 -1.128029e-02
     vertex -5.878306e-01  1.040834e-17  3.476191e-01
   endloop
 endfacet
 facet normal  0.000000e+00  1.000000e+00  0.000000e+00
   outer loop
     vertex  1.235252e-01  1.040834e-17  2.587308e-02
     vertex  1.003090e-01  1.040834e-17  8.767289e-03
     vertex -5.878306e-01  1.040834e-17  3.476191e-01
   endloop
 endfacet
 facet normal  0.000000e+00  1.000000e+00  0.000000e+00
   outer loop
     vertex  1.488142e-01  1.040834e-17  3.973184e-02
     vertex  1.235252e-01  1.040834e-17  2.587308e-02
     vertex -5.878306e-01  1.040834e-17  3.476191e-01
   endloop
 endfacet
 facet normal  0.000000e+00  1.000000e+00  0.000000e+00
   outer loop
     vertex  1.757247e-01  1.040834e-17  5.009624e-02
     vertex  1.488142e-01  1.040834e-17  3.973184e-02
     vertex -5.878306e-01  1.040834e-17  3.476191e-01
   endloop
 endfacet
 facet normal  0.000000e+00  1.000000e+00  0.000000e+00
   outer loop
     vertex  2.037766e-01  1.040834e-17  5.678135e-02
     vertex  1.757247e-01  1.040834e-17  5.009624e-02
     vertex -5.878306e-01  1.040834e-17  3.476191e-01
   endloop
 endfacet
 facet normal  0.000000e+00  1.000000e+00  0.000000e+00
   outer loop
     vertex  9.232805e-01  1.040834e-17 -6.238095e-01
     vertex  2.037766e-01  1.040834e-17 -3.689506e-01
     vertex  2.324692e-01  1.040834e-17 -3.718371e-01
   endloop
 endfacet
 facet normal  0.000000e+00  1.000000e+00  0.000000e+00
   outer loop
     vertex  9.232805e-01  1.040834e-17 -6.238095e-01
     vertex  2.324692e-01  1.040834e-17 -3.718371e-01
     vertex  2.612906e-01  1.040834e-17 -3.708735e-01
   endloop
 endfacet
 facet normal  0.000000e+00  1.000000e+00  0.000000e+00
   outer loop
     vertex  9.232805e-01  1.040834e-17 -6.238095e-01
     vertex  2.612906e-01  1.040834e-17 -3.708735e-01
     vertex  2.897263e-01  1.040834e-17 -3.660770e-01
   endloop
 endfacet
 facet normal  0.000000e+00  1.000000e+00  0.000000e+00
   outer loop
     vertex  9.232805e-01  1.040834e-17 -6.238095e-01
     vertex  2.897263e-01  1.040834e-17 -3.660770e-01
     vertex  3.172691e-01  1.040834e-17 -3.575331e-01
   endloop
 endfacet
 facet normal  0.000000e+00  1.000000e+00  0.000000e+00
   outer loop
     vertex  9.232805e-01  1.040834e-17 -6.238095e-01
     vertex  3.172691e-01  1.040834e-17 -3.575331e-01
     vertex  3.434273e-01  1.040834e-17 -3.453944e-01
   endloop
 endfacet
 facet normal  0.000000e+00  1.000000e+00  0.000000e+00
   outer loop
     vertex  9.232805e-01  1.040834e-17 -6.238095e-01
     vertex  3.434273e-01  1.040834e-17 -3.453944e-01
     vertex  3.677341e-01  1.040834e-17 -3.298775e-01
   endloop
 endfacet
 facet normal  0.000000e+00  1.000000e+00  0.000000e+00
   outer loop
     vertex  9.232805e-01  1.040834e-17 -6.238095e-01
     vertex  3.677341e-01  1.040834e-17 -3.298775e-01
     vertex  3.897559e-01  1.040834e-17 -3.112593e-01
   endloop
 endfacet
 facet normal  0.000000e+00  1.000000e+00  0.000000e+00
   outer loop
     vertex  9.232805e-01  1.040834e-17 -6.238095e-01
     vertex  3.897559e-01  1.040834e-17 -3.112593e-01
     vertex  4.090996e-01  1.040834e-17 -2.898719e-01
   endloop
 endfacet
 facet normal  0.000000e+00  1.000000e+00  0.000000e+00
   outer loop
     vertex  9.232805e-01  1.040834e-17 -6.238095e-01
     vertex  4.090996e-01  1.040834e-17 -2.898719e-01
     vertex  4.254201e-01  1.040834e-17 -2.660971e-01
   endloop
 endfacet
 facet normal  0.000000e+00  1.000000e+00  0.000000e+00
   outer loop
     vertex  9.232805e-01  1.040834e-17 -6.238095e-01
     vertex  4.254201e-01  1.040834e-17 -2.660971e-01
     vertex  4.384261e-01  1.040834e-17 -2.403591e-01
   endloop
 endfacet
 facet normal  0.000000e+00  1.000000e+00  0.000000e+00
   outer loop
     vertex  9.232805e-01  1.040834e-17 -6.238095e-01
     vertex  4.384261e-01  1.040834e-17 -2.403591e-01
     vertex  4.478855e-01  1.040834e-17 -2.131173e-01
   endloop
 endfacet
 facet normal  0.000000e+00  1.000000e+00  0.000000e+00
   outer loop
     vertex  9.232805e-01  1.040834e-17 -6.238095e-01
     vertex  4.478855e-01  1.040834e-17 -2.131173e-01
     vertex  4.536295e-01  1.040834e-17 -1.848577e-01
   endloop
 endfacet
 facet normal  0.000000e+00  1.000000e+00  0.000000e+00
   outer loop
     vertex  9.232805e-01  1.040834e-17 -6.238095e-01
     vertex -1.019577e+00  1.040834e-17 -6.238095e-01
     vertex -5.878306e-01  1.040834e-17 -4.439153e-01
   endloop
 endfacet
 facet normal  0.000000e+00  1.000000e+00  0.000000e+00
   outer loop
     vertex  9.232805e-01  1.040834e-17 -6.238095e-01
     vertex -5.878306e-01  1.040834e-17 -4.439153e-01
     vertex  2.037766e-01  1.040834e-17 -3.689506e-01
   endloop
 endfacet
 facet normal  0.000000e+00  1.000000e+00  0.000000e+00
   outer loop
     vertex  4.555556e-01  1.040834e-17 -1.560846e-01
     vertex  9.232805e-01  1.040834e-17 -6.238095e-01
     vertex  4.536295e-01  1.040834e-17 -1.848577e-01
   endloop
 endfacet
 facet normal  0.000000e+00  1.000000e+00  0.000000e+00
   outer loop
     vertex  4.536295e-01  1.040834e-17 -1.273116e-01
     vertex  9.232805e-01  1.040834e-17 -6.238095e-01
     vertex  4.555556e-01  1.040834e-17 -1.560846e-01
   endloop
 endfacet
 facet normal  0.000000e+00  1.000000e+00  0.000000e+00
   outer loop
     vertex  9.232805e-01  1.040834e-17  5.275133e-01
     vertex  4.536295e-01  1.040834e-17 -1.273116e-01
     vertex  4.478855e-01  1.040834e-17 -9.905196e-02
   endloop
 endfacet
 facet normal  0.000000e+00  1.000000e+00  0.000000e+00
   outer loop
     vertex  9.232805e-01  1.040834e-17  5.275133e-01
     vertex  4.478855e-01  1.040834e-17 -9.905196e-02
     vertex  4.384261e-01  1.040834e-17 -7.181011e-02
   endloop
 endfacet
 facet normal  0.000000e+00  1.000000e+00  0.000000e+00
   outer loop
     vertex  9.232805e-01  1.040834e-17  5.275133e-01
     vertex  4.384261e-01  1.040834e-17 -7.181011e-02
     vertex  4.254201e-01  1.040834e-17 -4.607213e-02
   endloop
 endfacet
 facet normal  0.000000e+00  1.000000e+00  0.000000e+00
   outer loop
     vertex  9.232805e-01  1.040834e-17  5.275133e-01
     vertex  4.254201e-01  1.040834e-17 -4.607213e-02
     vertex  4.090996e-01  1.040834e-17 -2.229734e-02
   endloop
 endfacet
 facet normal  0.000000e+00  1.000000e+00  0.000000e+00
   outer loop
     vertex  9.232805e-01  1.040834e-17  5.275133e-01
     vertex  4.090996e-01  1.040834e-17 -2.229734e-02
     vertex  3.897559e-01  1.040834e-17 -9.099776e-04
   endloop
 endfacet
 facet normal  0.000000e+00  1.000000e+00  0.000000e+00
   outer loop
     vertex  9.232805e-01  1.040834e-17  5.275133e-01
     vertex  3.897559e-01  1.040834e-17 -9.099776e-04
     vertex  3.677341e-01  1.040834e-17  1.770829e-02
   endloop
 endfacet
 facet normal  0.000000e+00  1.000000e+00  0.000000e+00
   outer loop
     vertex  9.232805e-01  1.040834e-17  5.275133e-01
     vertex  3.677341e-01  1.040834e-17  1.770829e-02
     vertex  3.434273e-01  1.040834e-17  3.322521e-02
   endloop
 endfacet
 facet normal  0.000000e+00  1.000000e+00  0.000000e+00
   outer loop
     vertex  9.232805e-01  1.040834e-17  5.275133e-01
     vertex  3.434273e-01  1.040834e-17  3.322521e-02
     vertex  3.172691e-01  1.040834e-17  4.536390e-02
   endloop
 endfacet
 facet normal  0.000000e+00  1.000000e+00  0.000000e+00
   outer loop
     vertex  9.232805e-01  1.040834e-17  5.275133e-01
     vertex  3.172691e-01  1.040834e-17  4.536390e-02
     vertex  2.897263e-01  1.040834e-17  5.390773e-02
   endloop
 endfacet
 facet normal  0.000000e+00  1.000000e+00  0.000000e+00
   outer loop
     vertex  9.232805e-01  1.040834e-17  5.275133e-01
     vertex  2.897263e-01  1.040834e-17  5.390773e-02
     vertex  2.612906e-01  1.040834e-17  5.870425e-02
   endloop
 endfacet
 facet normal  0.000000e+00  1.000000e+00  0.000000e+00
   outer loop
     vertex  9.232805e-01  1.040834e-17  5.275133e-01
     vertex  2.612906e-01  1.040834e-17  5.870425e-02
     vertex  2.324692e-01  1.040834e-17  5.966785e-02
   endloop
 endfacet
 facet normal  0.000000e+00  1.000000e+00  0.000000e+00
   outer loop
     vertex  9.232805e-01  1.040834e-17  5.275133e-01
     vertex  2.324692e-01  1.040834e-17  5.966785e-02
     vertex  2.037766e-01  1.040834e-17  5.678135e-02
   endloop
 endfacet
 facet normal  0.000000e+00  1.000000e+00  0.000000e+00
   outer loop
     vertex  9.232805e-01  1.040834e-17  5.275133e-01
     vertex  2.037766e-01  1.040834e-17  5.678135e-02
     vertex -5.878306e-01  1.040834e-17  3.476191e-01
   endloop
 endfacet
 facet normal  0.000000e+00  1.000000e+00  0.000000e+00
   outer loop
     vertex  9.232805e-01  1.040834e-17  5.275133e-01
     vertex  9.232805e-01  1.040834e-17 -6.238095e-01
     vertex  4.536295e-01  1.040834e-17 -1.273116e-01
   endloop
 endfacet
 facet normal  0.000000e+00  1.000000e+00  0.000000e+00
   outer loop
     vertex  9.232805e-01  1.040834e-17  5.275133e-01
     vertex -5.878306e-01  1.040834e-17  3.476191e-01
     vertex -1.019577e+00  1.040834e-17  5.275133e-01
   endloop
 endfacet
 facet normal -9.977669e-01  0.000000e+00 -6.679263e-02
   outer loop
     vertex  4.536295e-01 -1.587302e-02 -1.273116e-01
     vertex  4.555556e-01 -1.587302e-02 -1.560846e-01
     vertex  4.555556e-01 -1.904762e-01 -1.560846e-01
   endloop
 endfacet
 facet normal -9.977669e-01 -0.000000e+00 -6.679263e-02
   outer loop
     vertex  4.536295e-01 -1.587302e-02 -1.273116e-01
     vertex  4.555556e-01 -1.904762e-01 -1.560846e-01
     vertex  4.536295e-01 -1.904762e-01 -1.273116e-01
   endloop
 endfacet
 facet normal -9.799617e-01  0.000000e+00 -1.991860e-01
   outer loop
     vertex  4.478855e-01 -1.587302e-02 -9.905196e-02
     vertex  4.536295e-01 -1.587302e-02 -1.273116e-01
     vertex  4.536295e-01 -1.904762e-01 -1.273116e-01
   endloop
 endfacet
 facet normal -9.799617e-01 -0.000000e+00 -1.991860e-01
   outer loop
     vertex  4.478855e-01 -1.587302e-02 -9.905196e-02
     vertex  4.536295e-01 -1.904762e-01 -1.273116e-01
     vertex  4.478855e-01 -1.904762e-01 -9.905196e-02
   endloop
 endfacet
 facet normal -9.446691e-01 -0.000000e+00 -3.280249e-01
   outer loop
     vertex  4.384261e-01 -1.587302e-02 -7.181011e-02
     vertex  4.478855e-01 -1.904762e-01 -9.905196e-02
     vertex  4.384261e-01 -1.904762e-01 -7.181011e-02
   endloop
 endfacet
 facet normal -9.446691e-01  0.000000e+00 -3.280249e-01
   outer loop
     vertex  4.384261e-01 -1.587302e-02 -7.181011e-02
     vertex  4.478855e-01 -1.587302e-02 -9.905196e-02
     vertex  4.478855e-01 -1.904762e-01 -9.905196e-02
   endloop
 endfacet
 facet normal -8.925188e-01 -0.000000e+00 -4.510101e-01
   outer loop
     vertex  4.254201e-01 -1.587302e-02 -4.607213e-02
     vertex  4.384261e-01 -1.904762e-01 -7.181011e-02
     vertex  4.254201e-01 -1.904762e-01 -4.607213e-02
   endloop
 endfacet
 facet normal -8.925188e-01  0.000000e+00 -4.510101e-01
   outer loop
     vertex  4.254201e-01 -1.587302e-02 -4.607213e-02
     vertex  4.384261e-01 -1.587302e-02 -7.181011e-02
     vertex  4.384261e-01 -1.904762e-01 -7.181011e-02
   endloop
 endfacet
 facet normal -8.244416e-01 -0.000000e+00 -5.659471e-01
   outer loop
     vertex  4.090996e-01 -1.587302e-02 -2.229734e-02
     vertex  4.254201e-01 -1.904762e-01 -4.607213e-02
     vertex  4.090996e-01 -1.904762e-01 -2.229734e-02
   endloop
 endfacet
 facet normal -8.244416e-01  0.000000e+00 -5.659471e-01
   outer loop
     vertex  4.090996e-01 -1.587302e-02 -2.229734e-02
     vertex  4.254201e-01 -1.587302e-02 -4.607213e-02
     vertex  4.254201e-01 -1.904762e-01 -4.607213e-02
   endloop
 endfacet
 facet normal -7.416521e-01 -0.000000e+00 -6.707847e-01
   outer loop
     vertex  3.897559e-01 -1.587302e-02 -9.099776e-04
     vertex  4.090996e-01 -1.904762e-01 -2.229734e-02
     vertex  3.897559e-01 -1.904762e-01 -9.099776e-04
   endloop
 endfacet
 facet normal -7.416521e-01  0.000000e+00 -6.707847e-01
   outer loop
     vertex  3.897559e-01 -1.587302e-02 -9.099776e-04
     vertex  4.090996e-01 -1.587302e-02 -2.229734e-02
     vertex  4.090996e-01 -1.904762e-01 -2.229734e-02
   endloop
 endfacet
 facet normal -6.456279e-01 -0.000000e+00 -7.636522e-01
   outer loop
     vertex  3.677341e-01 -1.587302e-02  1.770829e-02
     vertex  3.897559e-01 -1.904762e-01 -9.099776e-04
     vertex  3.677341e-01 -1.904762e-01  1.770829e-02
   endloop
 endfacet
 facet normal -6.456279e-01  0.000000e+00 -7.636522e-01
   outer loop
     vertex  3.677341e-01 -1.587302e-02  1.770829e-02
     vertex  3.897559e-01 -1.587302e-02 -9.099776e-04
     vertex  3.897559e-01 -1.904762e-01 -9.099776e-04
   endloop
 endfacet
 facet normal -5.380824e-01 -0.000000e+00 -8.428923e-01
   outer loop
     vertex  3.434273e-01 -1.587302e-02  3.322521e-02
     vertex  3.677341e-01 -1.904762e-01  1.770829e-02
     vertex  3.434273e-01 -1.904762e-01  3.322521e-02
   endloop
 endfacet
 facet normal -5.380824e-01  0.000000e+00 -8.428923e-01
   outer loop
     vertex  3.434273e-01 -1.587302e-02  3.322521e-02
     vertex  3.677341e-01 -1.587302e-02  1.770829e-02
     vertex  3.677341e-01 -1.904762e-01  1.770829e-02
   endloop
 endfacet
 facet normal -4.209348e-01 -0.000000e+00 -9.070909e-01
   outer loop
     vertex  3.172691e-01 -1.587302e-02  4.536390e-02
     vertex  3.434273e-01 -1.904762e-01  3.322521e-02
     vertex  3.172691e-01 -1.904762e-01  4.536390e-02
   endloop
 endfacet
 facet normal -4.209348e-01  0.000000e+00 -9.070909e-01
   outer loop
     vertex  3.172691e-01 -1.587302e-02  4.536390e-02
     vertex  3.434273e-01 -1.587302e-02  3.322521e-02
     vertex  3.434273e-01 -1.904762e-01  3.322521e-02
   endloop
 endfacet
 facet normal -2.962756e-01 -0.000000e+00 -9.551025e-01
   outer loop
     vertex  2.897263e-01 -1.587302e-02  5.390773e-02
     vertex  3.172691e-01 -1.904762e-01  4.536390e-02
     vertex  2.897263e-01 -1.904762e-01  5.390773e-02
   endloop
 endfacet
 facet normal -2.962756e-01  0.000000e+00 -9.551025e-01
   outer loop
     vertex  2.897263e-01 -1.587302e-02  5.390773e-02
     vertex  3.172691e-01 -1.587302e-02  4.536390e-02
     vertex  3.172691e-01 -1.904762e-01  4.536390e-02
   endloop
 endfacet
 facet normal -1.663294e-01 -0.000000e+00 -9.860703e-01
   outer loop
     vertex  2.612906e-01 -1.587302e-02  5.870425e-02
     vertex  2.897263e-01 -1.904762e-01  5.390773e-02
     vertex  2.612906e-01 -1.904762e-01  5.870425e-02
   endloop
 endfacet
 facet normal -3.341498e-02 -0.000000e+00 -9.994416e-01
   outer loop
     vertex  2.612906e-01 -1.587302e-02  5.870425e-02
     vertex  2.612906e-01 -1.904762e-01  5.870425e-02
     vertex  2.324692e-01 -1.904762e-01  5.966785e-02
   endloop
 endfacet
 facet normal -1.663294e-01  0.000000e+00 -9.860703e-01
   outer loop
     vertex  2.612906e-01 -1.587302e-02  5.870425e-02
     vertex  2.897263e-01 -1.587302e-02  5.390773e-02
     vertex  2.897263e-01 -1.904762e-01  5.390773e-02
   endloop
 endfacet
 facet normal -3.341498e-02 -0.000000e+00 -9.994416e-01
   outer loop
     vertex  2.324692e-01 -1.587302e-02  5.966785e-02
     vertex  2.612906e-01 -1.587302e-02  5.870425e-02
     vertex  2.324692e-01 -1.904762e-01  5.966785e-02
   endloop
 endfacet
 facet normal  1.000957e-01  0.000000e+00 -9.949778e-01
   outer loop
     vertex  2.037766e-01 -1.587302e-02  5.678135e-02
     vertex  2.324692e-01 -1.904762e-01  5.966785e-02
     vertex  2.037766e-01 -1.904762e-01  5.678135e-02
   endloop
 endfacet
 facet normal  2.318202e-01  0.000000e+00 -9.727587e-01
   outer loop
     vertex  2.037766e-01 -1.587302e-02  5.678135e-02
     vertex  2.037766e-01 -1.904762e-01  5.678135e-02
     vertex  1.757247e-01 -1.904762e-01  5.009624e-02
   endloop
 endfacet
 facet normal  1.000957e-01  0.000000e+00 -9.949778e-01
   outer loop
     vertex  2.037766e-01 -1.587302e-02  5.678135e-02
     vertex  2.324692e-01 -1.587302e-02  5.966785e-02
     vertex  2.324692e-01 -1.904762e-01  5.966785e-02
   endloop
 endfacet
 facet normal  2.318202e-01  0.000000e+00 -9.727587e-01
   outer loop
     vertex  1.757247e-01 -1.587302e-02  5.009624e-02
     vertex  2.037766e-01 -1.587302e-02  5.678135e-02
     vertex  1.757247e-01 -1.904762e-01  5.009624e-02
   endloop
 endfacet
 facet normal  3.594078e-01  0.000000e+00 -9.331806e-01
   outer loop
     vertex  1.488142e-01 -1.587302e-02  3.973184e-02
     vertex  1.757247e-01 -1.904762e-01  5.009624e-02
     vertex  1.488142e-01 -1.904762e-01  3.973184e-02
   endloop
 endfacet
 facet normal  4.805818e-01  0.000000e+00 -8.769499e-01
   outer loop
     vertex  1.488142e-01 -1.587302e-02  3.973184e-02
     vertex  1.488142e-01 -1.904762e-01  3.973184e-02
     vertex  1.235252e-01 -1.904762e-01  2.587308e-02
   endloop
 endfacet
 facet normal  3.594078e-01  0.000000e+00 -9.331806e-01
   outer loop
     vertex  1.488142e-01 -1.587302e-02  3.973184e-02
     vertex  1.757247e-01 -1.587302e-02  5.009624e-02
     vertex  1.757247e-01 -1.904762e-01  5.009624e-02
   endloop
 endfacet
 facet normal  5.931797e-01  0.000000e+00 -8.050701e-01
   outer loop
     vertex  1.235252e-01 -1.587302e-02  2.587308e-02
     vertex  1.235252e-01 -1.904762e-01  2.587308e-02
     vertex  1.003090e-01 -1.904762e-01  8.767289e-03
   endloop
 endfacet
 facet normal  4.805818e-01  0.000000e+00 -8.769499e-01
   outer loop
     vertex  1.235252e-01 -1.587302e-02  2.587308e-02
     vertex  1.488142e-01 -1.587302e-02  3.973184e-02
     vertex  1.235252e-01 -1.904762e-01  2.587308e-02
   endloop
 endfacet
 facet normal  5.931797e-01  0.000000e+00 -8.050701e-01
   outer loop
     vertex  1.003090e-01 -1.587302e-02  8.767289e-03
     vertex  1.235252e-01 -1.587302e-02  2.587308e-02
     vertex  1.003090e-01 -1.904762e-01  8.767289e-03
   endloop
 endfacet
 facet normal  6.951924e-01  0.000000e+00 -7.188237e-01
   outer loop
     vertex  7.957994e-02 -1.587302e-02 -1.128029e-02
     vertex  1.003090e-01 -1.904762e-01  8.767289e-03
     vertex  7.957994e-02 -1.904762e-01 -1.128029e-02
   endloop
 endfacet
 facet normal  7.847994e-01  0.000000e+00 -6.197499e-01
   outer loop
     vertex  7.957994e-02 -1.587302e-02 -1.128029e-02
     vertex  7.957994e-02 -1.904762e-01 -1.128029e-02
     vertex  6.170793e-02 -1.904762e-01 -3.391191e-02
   endloop
 endfacet
 facet normal  6.951924e-01  0.000000e+00 -7.188237e-01
   outer loop
     vertex  7.957994e-02 -1.587302e-02 -1.128029e-02
     vertex  1.003090e-01 -1.587302e-02  8.767289e-03
     vertex  1.003090e-01 -1.904762e-01  8.767289e-03
   endloop
 endfacet
 facet normal  7.847994e-01  0.000000e+00 -6.197499e-01
   outer loop
     vertex  6.170793e-02 -1.587302e-02 -3.391191e-02
     vertex  7.957994e-02 -1.587302e-02 -1.128029e-02
     vertex  6.170793e-02 -1.904762e-01 -3.391191e-02
   endloop
 endfacet
 facet normal  8.604016e-01  0.000000e+00 -5.096166e-01
   outer loop
     vertex  4.701189e-02 -1.587302e-02 -5.872370e-02
     vertex  6.170793e-02 -1.904762e-01 -3.391191e-02
     vertex  4.701189e-02 -1.904762e-01 -5.872370e-02
   endloop
 endfacet
 facet normal  8.604016e-01  0.000000e+00 -5.096166e-01
   outer loop
     vertex  4.701189e-02 -1.587302e-02 -5.872370e-02
     vertex  6.170793e-02 -1.587302e-02 -3.391191e-02
     vertex  6.170793e-02 -1.904762e-01 -3.391191e-02
   endloop
 endfacet
 facet normal  9.206499e-01  0.000000e+00 -3.903893e-01
   outer loop
     vertex  3.575405e-02 -1.587302e-02 -8.527290e-02
     vertex  4.701189e-02 -1.904762e-01 -5.872370e-02
     vertex  3.575405e-02 -1.904762e-01 -8.527290e-02
   endloop
 endfacet
 facet normal  9.644692e-01  0.000000e+00 -2.641954e-01
   outer loop
     vertex  3.575405e-02 -1.587302e-02 -8.527290e-02
     vertex  3.575405e-02 -1.904762e-01 -8.527290e-02
     vertex  2.813533e-02 -1.904762e-01 -1.130857e-01
   endloop
 endfacet
 facet normal  9.206499e-01  0.000000e+00 -3.903893e-01
   outer loop
     vertex  3.575405e-02 -1.587302e-02 -8.527290e-02
     vertex  4.701189e-02 -1.587302e-02 -5.872370e-02
     vertex  4.701189e-02 -1.904762e-01 -5.872370e-02
   endloop
 endfacet
 facet normal  9.910775e-01  0.000000e+00 -1.332870e-01
   outer loop
     vertex  2.813533e-02 -1.587302e-02 -1.130857e-01
     vertex  2.813533e-02 -1.904762e-01 -1.130857e-01
     vertex  2.429167e-02 -1.904762e-01 -1.416659e-01
   endloop
 endfacet
 facet normal  9.644692e-01  0.000000e+00 -2.641954e-01
   outer loop
     vertex  2.813533e-02 -1.587302e-02 -1.130857e-01
     vertex  3.575405e-02 -1.587302e-02 -8.527290e-02
     vertex  2.813533e-02 -1.904762e-01 -1.130857e-01
   endloop
 endfacet
 facet normal  9.910775e-01  0.000000e+00 -1.332870e-01
   outer loop
     vertex  2.429167e-02 -1.587302e-02 -1.416659e-01
     vertex  2.813533e-02 -1.587302e-02 -1.130857e-01
     vertex  2.429167e-02 -1.904762e-01 -1.416659e-01
   endloop
 endfacet
 facet normal  1.000000e+00  0.000000e+00  9.624835e-16
   outer loop
     vertex  2.429167e-02 -1.587302e-02 -1.705033e-01
     vertex  2.429167e-02 -1.904762e-01 -1.416659e-01
     vertex  2.429167e-02 -1.904762e-01 -1.705033e-01
   endloop
 endfacet
 facet normal  1.000000e+00  0.000000e+00  9.624835e-16
   outer loop
     vertex  2.429167e-02 -1.587302e-02 -1.705033e-01
     vertex  2.429167e-02 -1.587302e-02 -1.416659e-01
     vertex  2.429167e-02 -1.904762e-01 -1.416659e-01
   endloop
 endfacet
 facet normal  9.910775e-01  0.000000e+00  1.332870e-01
   outer loop
     vertex  2.813533e-02 -1.587302e-02 -1.990835e-01
     vertex  2.429167e-02 -1.904762e-01 -1.705033e-01
     vertex  2.813533e-02 -1.904762e-01 -1.990835e-01
   endloop
 endfacet
 facet normal  9.910775e-01  0.000000e+00  1.332870e-01
   outer loop
     vertex  2.813533e-02 -1.587302e-02 -1.990835e-01
     vertex  2.429167e-02 -1.587302e-02 -1.705033e-01
     vertex  2.429167e-02 -1.904762e-01 -1.705033e-01
   endloop
 endfacet
 facet normal  9.644692e-01  0.000000e+00  2.641954e-01
   outer loop
     vertex  3.575405e-02 -1.587302e-02 -2.268963e-01
     vertex  2.813533e-02 -1.587302e-02 -1.990835e-01
     vertex  2.813533e-02 -1.904762e-01 -1.990835e-01
   endloop
 endfacet
 facet normal  9.644692e-01  0.000000e+00  2.641954e-01
   outer loop
     vertex  3.575405e-02 -1.587302e-02 -2.268963e-01
     vertex  2.813533e-02 -1.904762e-01 -1.990835e-01
     vertex  3.575405e-02 -1.904762e-01 -2.268963e-01
   endloop
 endfacet
 facet normal  9.206499e-01  0.000000e+00  3.903893e-01
   outer loop
     vertex  4.701189e-02 -1.587302e-02 -2.534455e-01
     vertex  3.575405e-02 -1.587302e-02 -2.268963e-01
     vertex  3.575405e-02 -1.904762e-01 -2.268963e-01
   endloop
 endfacet
 facet normal  9.206499e-01  0.000000e+00  3.903893e-01
   outer loop
     vertex  4.701189e-02 -1.587302e-02 -2.534455e-01
     vertex  3.575405e-02 -1.904762e-01 -2.268963e-01
     vertex  4.701189e-02 -1.904762e-01 -2.534455e-01
   endloop
 endfacet
 facet normal  8.604016e-01  0.000000e+00  5.096166e-01
   outer loop
     vertex  4.701189e-02 -1.587302e-02 -2.534455e-01
     vertex  4.701189e-02 -1.904762e-01 -2.534455e-01
     vertex  6.170793e-02 -1.904762e-01 -2.782573e-01
   endloop
 endfacet
 facet normal  8.604016e-01  0.000000e+00  5.096166e-01
   outer loop
     vertex  6.170793e-02 -1.587302e-02 -2.782573e-01
     vertex  4.701189e-02 -1.587302e-02 -2.534455e-01
     vertex  6.170793e-02 -1.904762e-01 -2.782573e-01
   endloop
 endfacet
 facet normal  7.847994e-01  0.000000e+00  6.197499e-01
   outer loop
     vertex  7.957994e-02 -1.587302e-02 -3.008889e-01
     vertex  6.170793e-02 -1.587302e-02 -2.782573e-01
     vertex  6.170793e-02 -1.904762e-01 -2.782573e-01
   endloop
 endfacet
 facet normal  7.847994e-01  0.000000e+00  6.197499e-01
   outer loop
     vertex  7.957994e-02 -1.587302e-02 -3.008889e-01
     vertex  6.170793e-02 -1.904762e-01 -2.782573e-01
     vertex  7.957994e-02 -1.904762e-01 -3.008889e-01
   endloop
 endfacet
 facet normal  6.951924e-01  0.000000e+00  7.188237e-01
   outer loop
     vertex  1.003090e-01 -1.587302e-02 -3.209365e-01
     vertex  7.957994e-02 -1.587302e-02 -3.008889e-01
     vertex  7.957994e-02 -1.904762e-01 -3.008889e-01
   endloop
 endfacet
 facet normal  6.951924e-01  0.000000e+00  7.188237e-01
   outer loop
     vertex  1.003090e-01 -1.587302e-02 -3.209365e-01
     vertex  7.957994e-02 -1.904762e-01 -3.008889e-01
     vertex  1.003090e-01 -1.904762e-01 -3.209365e-01
   endloop
 endfacet
 facet normal  5.931797e-01  0.000000e+00  8.050701e-01
   outer loop
     vertex  1.235252e-01 -1.587302e-02 -3.380423e-01
     vertex  1.003090e-01 -1.587302e-02 -3.209365e-01
     vertex  1.003090e-01 -1.904762e-01 -3.209365e-01
   endloop
 endfacet
 facet normal  5.931797e-01  0.000000e+00  8.050701e-01
   outer loop
     vertex  1.235252e-01 -1.587302e-02 -3.380423e-01
     vertex  1.003090e-01 -1.904762e-01 -3.209365e-01
     vertex  1.235252e-01 -1.904762e-01 -3.380423e-01
   endloop
 endfacet
 facet normal  4.805818e-01  0.000000e+00  8.769499e-01
   outer loop
     vertex  1.488142e-01 -1.587302e-02 -3.519011e-01
     vertex  1.235252e-01 -1.587302e-02 -3.380423e-01
     vertex  1.235252e-01 -1.904762e-01 -3.380423e-01
   endloop
 endfacet
 facet normal  4.805818e-01  0.000000e+00  8.769499e-01
   outer loop
     vertex  1.488142e-01 -1.587302e-02 -3.519011e-01
     vertex  1.235252e-01 -1.904762e-01 -3.380423e-01
     vertex  1.488142e-01 -1.904762e-01 -3.519011e-01
   endloop
 endfacet
 facet normal  3.594078e-01  0.000000e+00  9.331806e-01
   outer loop
     vertex  1.757247e-01 -1.587302e-02 -3.622655e-01
     vertex  1.488142e-01 -1.587302e-02 -3.519011e-01
     vertex  1.488142e-01 -1.904762e-01 -3.519011e-01
   endloop
 endfacet
 facet normal  3.594078e-01  0.000000e+00  9.331806e-01
   outer loop
     vertex  1.757247e-01 -1.587302e-02 -3.622655e-01
     vertex  1.488142e-01 -1.904762e-01 -3.519011e-01
     vertex  1.757247e-01 -1.904762e-01 -3.622655e-01
   endloop
 endfacet
 facet normal  2.318202e-01  0.000000e+00  9.727587e-01
   outer loop
     vertex  2.037766e-01 -1.587302e-02 -3.689506e-01
     vertex  1.757247e-01 -1.587302e-02 -3.622655e-01
     vertex  1.757247e-01 -1.904762e-01 -3.622655e-01
   endloop
 endfacet
 facet normal  2.318202e-01  0.000000e+00  9.727587e-01
   outer loop
     vertex  2.037766e-01 -1.587302e-02 -3.689506e-01
     vertex  1.757247e-01 -1.904762e-01 -3.622655e-01
     vertex  2.037766e-01 -1.904762e-01 -3.689506e-01
   endloop
 endfacet
 facet normal  1.000957e-01  0.000000e+00  9.949778e-01
   outer loop
     vertex  2.324692e-01 -1.587302e-02 -3.718371e-01
     vertex  2.037766e-01 -1.587302e-02 -3.689506e-01
     vertex  2.037766e-01 -1.904762e-01 -3.689506e-01
   endloop
 endfacet
 facet normal  1.000957e-01  0.000000e+00  9.949778e-01
   outer loop
     vertex  2.324692e-01 -1.587302e-02 -3.718371e-01
     vertex  2.037766e-01 -1.904762e-01 -3.689506e-01
     vertex  2.324692e-01 -1.904762e-01 -3.718371e-01
   endloop
 endfacet
 facet normal -3.341498e-02  0.000000e+00  9.994416e-01
   outer loop
     vertex  2.612906e-01 -1.587302e-02 -3.708735e-01
     vertex  2.324692e-01 -1.904762e-01 -3.718371e-01
     vertex  2.612906e-01 -1.904762e-01 -3.708735e-01
   endloop
 endfacet
 facet normal -1.663294e-01  0.000000e+00  9.860703e-01
   outer loop
     vertex  2.612906e-01 -1.587302e-02 -3.708735e-01
     vertex  2.612906e-01 -1.904762e-01 -3.708735e-01
     vertex  2.897263e-01 -1.904762e-01 -3.660770e-01
   endloop
 endfacet
 facet normal -3.341498e-02  0.000000e+00  9.994416e-01
   outer loop
     vertex  2.612906e-01 -1.587302e-02 -3.708735e-01
     vertex  2.324692e-01 -1.587302e-02 -3.718371e-01
     vertex  2.324692e-01 -1.904762e-01 -3.718371e-01
   endloop
 endfacet
 facet normal -2.962756e-01  0.000000e+00  9.551025e-01
   outer loop
     vertex  2.897263e-01 -1.587302e-02 -3.660770e-01
     vertex  2.897263e-01 -1.904762e-01 -3.660770e-01
     vertex  3.172691e-01 -1.904762e-01 -3.575331e-01
   endloop
 endfacet
 facet normal -1.663294e-01  0.000000e+00  9.860703e-01
   outer loop
     vertex  2.897263e-01 -1.587302e-02 -3.660770e-01
     vertex  2.612906e-01 -1.587302e-02 -3.708735e-01
     vertex  2.897263e-01 -1.904762e-01 -3.660770e-01
   endloop
 endfacet
 facet normal -2.962756e-01  0.000000e+00  9.551025e-01
   outer loop
     vertex  3.172691e-01 -1.587302e-02 -3.575331e-01
     vertex  2.897263e-01 -1.587302e-02 -3.660770e-01
     vertex  3.172691e-01 -1.904762e-01 -3.575331e-01
   endloop
 endfacet
 facet normal -4.209348e-01  0.000000e+00  9.070909e-01
   outer loop
     vertex  3.434273e-01 -1.587302e-02 -3.453944e-01
     vertex  3.172691e-01 -1.904762e-01 -3.575331e-01
     vertex  3.434273e-01 -1.904762e-01 -3.453944e-01
   endloop
 endfacet
 facet normal -4.209348e-01  0.000000e+00  9.070909e-01
   outer loop
     vertex  3.434273e-01 -1.587302e-02 -3.453944e-01
     vertex  3.172691e-01 -1.587302e-02 -3.575331e-01
     vertex  3.172691e-01 -1.904762e-01 -3.575331e-01
   endloop
 endfacet
 facet normal -5.380824e-01  0.000000e+00  8.428923e-01
   outer loop
     vertex  3.677341e-01 -1.587302e-02 -3.298775e-01
     vertex  3.434273e-01 -1.904762e-01 -3.453944e-01
     vertex  3.677341e-01 -1.904762e-01 -3.298775e-01
   endloop
 endfacet
 facet normal -6.456279e-01  0.000000e+00  7.636522e-01
   outer loop
     vertex  3.677341e-01 -1.587302e-02 -3.298775e-01
     vertex  3.677341e-01 -1.904762e-01 -3.298775e-01
     vertex  3.897559e-01 -1.904762e-01 -3.112593e-01
   endloop
 endfacet
 facet normal -5.380824e-01  0.000000e+00  8.428923e-01
   outer loop
     vertex  3.677341e-01 -1.587302e-02 -3.298775e-01
     vertex  3.434273e-01 -1.587302e-02 -3.453944e-01
     vertex  3.434273e-01 -1.904762e-01 -3.453944e-01
   endloop
 endfacet
 facet normal -6.456279e-01  0.000000e+00  7.636522e-01
   outer loop
     vertex  3.897559e-01 -1.587302e-02 -3.112593e-01
     vertex  3.677341e-01 -1.587302e-02 -3.298775e-01
     vertex  3.897559e-01 -1.904762e-01 -3.112593e-01
   endloop
 endfacet
 facet normal -7.416521e-01  0.000000e+00  6.707847e-01
   outer loop
     vertex  4.090996e-01 -1.587302e-02 -2.898719e-01
     vertex  3.897559e-01 -1.904762e-01 -3.112593e-01
     vertex  4.090996e-01 -1.904762e-01 -2.898719e-01
   endloop
 endfacet
 facet normal -8.244416e-01  0.000000e+00  5.659471e-01
   outer loop
     vertex  4.090996e-01 -1.587302e-02 -2.898719e-01
     vertex  4.090996e-01 -1.904762e-01 -2.898719e-01
     vertex  4.254201e-01 -1.904762e-01 -2.660971e-01
   endloop
 endfacet
 facet normal -7.416521e-01  0.000000e+00  6.707847e-01
   outer loop
     vertex  4.090996e-01 -1.587302e-02 -2.898719e-01
     vertex  3.897559e-01 -1.587302e-02 -3.112593e-01
     vertex  3.897559e-01 -1.904762e-01 -3.112593e-01
   endloop
 endfacet
 facet normal -8.925188e-01  0.000000e+00  4.510101e-01
   outer loop
     vertex  4.254201e-01 -1.587302e-02 -2.660971e-01
     vertex  4.254201e-01 -1.904762e-01 -2.660971e-01
     vertex  4.384261e-01 -1.904762e-01 -2.403591e-01
   endloop
 endfacet
 facet normal -8.244416e-01  0.000000e+00  5.659471e-01
   outer loop
     vertex  4.254201e-01 -1.587302e-02 -2.660971e-01
     vertex  4.090996e-01 -1.587302e-02 -2.898719e-01
     vertex  4.254201e-01 -1.904762e-01 -2.660971e-01
   endloop
 endfacet
 facet normal -8.925188e-01  0.000000e+00  4.510101e-01
   outer loop
     vertex  4.384261e-01 -1.587302e-02 -2.403591e-01
     vertex  4.254201e-01 -1.587302e-02 -2.660971e-01
     vertex  4.384261e-01 -1.904762e-01 -2.403591e-01
   endloop
 endfacet
 facet normal -9.446691e-01  0.000000e+00  3.280249e-01
   outer loop
     vertex  4.478855e-01 -1.587302e-02 -2.131173e-01
     vertex  4.384261e-01 -1.904762e-01 -2.403591e-01
     vertex  4.478855e-01 -1.904762e-01 -2.131173e-01
   endloop
 endfacet
 facet normal -9.799617e-01  0.000000e+00  1.991860e-01
   outer loop
     vertex  4.478855e-01 -1.587302e-02 -2.131173e-01
     vertex  4.478855e-01 -1.904762e-01 -2.131173e-01
     vertex  4.536295e-01 -1.904762e-01 -1.848577e-01
   endloop
 endfacet
 facet normal -9.446691e-01  0.000000e+00  3.280249e-01
   outer loop
     vertex  4.478855e-01 -1.587302e-02 -2.131173e-01
     vertex  4.384261e-01 -1.587302e-02 -2.403591e-01
     vertex  4.384261e-01 -1.904762e-01 -2.403591e-01
   endloop
 endfacet
 facet normal -9.799617e-01  0.000000e+00  1.991860e-01
   outer loop
     vertex  4.536295e-01 -1.587302e-02 -1.848577e-01
     vertex  4.478855e-01 -1.587302e-02 -2.131173e-01
     vertex  4.536295e-01 -1.904762e-01 -1.848577e-01
   endloop
 endfacet
 facet normal -9.977669e-01  0.000000e+00  6.679263e-02
   outer loop
     vertex  4.555556e-01 -1.587302e-02 -1.560846e-01
     vertex  4.536295e-01 -1.904762e-01 -1.848577e-01
     vertex  4.555556e-01 -1.904762e-01 -1.560846e-01
   endloop
 endfacet
 facet normal -9.977669e-01  0.000000e+00  6.679263e-02
   outer loop
     vertex  4.555556e-01 -1.587302e-02 -1.560846e-01
     vertex  4.536295e-01 -1.587302e-02 -1.848577e-01
     vertex  4.536295e-01 -1.904762e-01 -1.848577e-01
   endloop
 endfacet
 facet normal  0.000000e+00  0.000000e+00  1.000000e+00
   outer loop
     vertex -5.878306e-01 -1.587302e-02 -4.439153e-01
     vertex -9.476190e-01 -1.587302e-02 -4.439153e-01
     vertex -9.476190e-01 -1.904762e-01 -4.439153e-01
   endloop
 endfacet
 facet normal  0.000000e+00  0.000000e+00  1.000000e+00
   outer loop
     vertex -5.878306e-01 -1.587302e-02 -4.439153e-01
     vertex -9.476190e-01 -1.904762e-01 -4.439153e-01
     vertex -5.878306e-01 -1.904762e-01 -4.439153e-01
   endloop
 endfacet
 facet normal  1.000000e+00  0.000000e+00 -0.000000e+00
   outer loop
     vertex -9.476190e-01 -1.587302e-02 -4.439153e-01
     vertex -9.476190e-01 -1.587302e-02  3.476191e-01
     vertex -9.476190e-01 -1.904762e-01  3.476191e-01
   endloop
 endfacet
 facet normal  1.000000e+00  0.000000e+00  0.000000e+00
   outer loop
     vertex -9.476190e-01 -1.587302e-02 -4.439153e-01
     vertex -9.476190e-01 -1.904762e-01  3.476191e-01
     vertex -9.476190e-01 -1.904762e-01 -4.439153e-01
   endloop
 endfacet
 facet normal -1.000000e+00  0.000000e+00 -0.000000e+00
   outer loop
     vertex -5.878306e-01 -1.587302e-02 -4.814812e-02
     vertex -5.878306e-01 -1.587302e-02 -4.439153e-01
     vertex -5.878306e-01 -1.904762e-01 -4.439153e-01
   endloop
 endfacet
 facet normal -1.000000e+00 -0.000000e+00  0.000000e+00
   outer loop
     vertex -5.878306e-01 -1.587302e-02 -4.814812e-02
     vertex -5.878306e-01 -1.904762e-01 -4.439153e-01
     vertex -5.878306e-01 -1.904762e-01 -4.814812e-02
   endloop
 endfacet
 facet normal  0.000000e+00  0.000000e+00 -1.000000e+00
   outer loop
     vertex -9.476190e-01 -1.587302e-02  3.476191e-01
     vertex -5.878306e-01 -1.587302e-02  3.476191e-01
     vertex -5.878306e-01 -1.904762e-01  3.476191e-01
   endloop
 endfacet
 facet normal  0.000000e+00  0.000000e+00 -1.000000e+00
   outer loop
     vertex -9.476190e-01 -1.587302e-02  3.476191e-01
     vertex -5.878306e-01 -1.904762e-01  3.476191e-01
     vertex -9.476190e-01 -1.904762e-01  3.476191e-01
   endloop
 endfacet
 facet normal -1.000000e+00  0.000000e+00 -0.000000e+00
   outer loop
     vertex -5.878306e-01 -1.587302e-02  3.476191e-01
     vertex -5.878306e-01 -1.587302e-02 -4.814812e-02
     vertex -5.878306e-01 -1.904762e-01 -4.814812e-02
   endloop
 endfacet
 facet normal -1.000000e+00 -0.000000e+00  0.000000e+00
   outer loop
     vertex -5.878306e-01 -1.587302e-02  3.476191e-01
     vertex -5.878306e-01 -1.904762e-01 -4.814812e-02
     vertex -5.878306e-01 -1.904762e-01  3.476191e-01
   endloop
 endfacet
 facet normal  0.000000e+00  0.000000e+00  1.000000e+00
   outer loop
     vertex -1.019577e+00 -1.587302e-02  5.275133e-01
     vertex  9.232805e-01 -1.587302e-02  5.275133e-01
     vertex  9.232805e-01  0.000000e+00  5.275133e-01
   endloop
 endfacet
 facet normal  0.000000e+00  0.000000e+00  1.000000e+00
   outer loop
     vertex -1.019577e+00 -1.587302e-02  5.275133e-01
     vertex  9.232805e-01  0.000000e+00  5.275133e-01
     vertex -1.019577e+00  0.000000e+00  5.275133e-01
   endloop
 endfacet
 facet normal -9.977669e-01  0.000000e+00 -6.679263e-02
   outer loop
     vertex  4.536295e-01 -1.587302e-02 -1.273116e-01
     vertex  4.555556e-01  0.000000e+00 -1.560846e-01
     vertex  4.555556e-01 -1.587302e-02 -1.560846e-01
   endloop
 endfacet
 facet normal -9.977669e-01  0.000000e+00 -6.679263e-02
   outer loop
     vertex  4.536295e-01 -1.587302e-02 -1.273116e-01
     vertex  4.536295e-01  0.000000e+00 -1.273116e-01
     vertex  4.555556e-01  0.000000e+00 -1.560846e-01
   endloop
 endfacet
 facet normal -9.799617e-01  0.000000e+00 -1.991860e-01
   outer loop
     vertex  4.478855e-01 -1.587302e-02 -9.905196e-02
     vertex  4.536295e-01  0.000000e+00 -1.273116e-01
     vertex  4.536295e-01 -1.587302e-02 -1.273116e-01
   endloop
 endfacet
 facet normal -9.799617e-01  0.000000e+00 -1.991860e-01
   outer loop
     vertex  4.478855e-01 -1.587302e-02 -9.905196e-02
     vertex  4.478855e-01  0.000000e+00 -9.905196e-02
     vertex  4.536295e-01  0.000000e+00 -1.273116e-01
   endloop
 endfacet
 facet normal -9.446691e-01  0.000000e+00 -3.280249e-01
   outer loop
     vertex  4.384261e-01 -1.587302e-02 -7.181011e-02
     vertex  4.384261e-01  0.000000e+00 -7.181011e-02
     vertex  4.478855e-01  0.000000e+00 -9.905196e-02
   endloop
 endfacet
 facet normal -9.446691e-01  0.000000e+00 -3.280249e-01
   outer loop
     vertex  4.384261e-01 -1.587302e-02 -7.181011e-02
     vertex  4.478855e-01  0.000000e+00 -9.905196e-02
     vertex  4.478855e-01 -1.587302e-02 -9.905196e-02
   endloop
 endfacet
 facet normal -8.925188e-01  0.000000e+00 -4.510101e-01
   outer loop
     vertex  4.254201e-01 -1.587302e-02 -4.607213e-02
     vertex  4.254201e-01  0.000000e+00 -4.607213e-02
     vertex  4.384261e-01  0.000000e+00 -7.181011e-02
   endloop
 endfacet
 facet normal -8.925188e-01  0.000000e+00 -4.510101e-01
   outer loop
     vertex  4.254201e-01 -1.587302e-02 -4.607213e-02
     vertex  4.384261e-01  0.000000e+00 -7.181011e-02
     vertex  4.384261e-01 -1.587302e-02 -7.181011e-02
   endloop
 endfacet
 facet normal -8.244416e-01  0.000000e+00 -5.659471e-01
   outer loop
     vertex  4.090996e-01 -1.587302e-02 -2.229734e-02
     vertex  4.090996e-01  0.000000e+00 -2.229734e-02
     vertex  4.254201e-01  0.000000e+00 -4.607213e-02
   endloop
 endfacet
 facet normal -8.244416e-01  0.000000e+00 -5.659471e-01
   outer loop
     vertex  4.090996e-01 -1.587302e-02 -2.229734e-02
     vertex  4.254201e-01  0.000000e+00 -4.607213e-02
     vertex  4.254201e-01 -1.587302e-02 -4.607213e-02
   endloop
 endfacet
 facet normal -7.416521e-01  0.000000e+00 -6.707847e-01
   outer loop
     vertex  3.897559e-01 -1.587302e-02 -9.099776e-04
     vertex  3.897559e-01  0.000000e+00 -9.099776e-04
     vertex  4.090996e-01  0.000000e+00 -2.229734e-02
   endloop
 endfacet
 facet normal -7.416521e-01  0.000000e+00 -6.707847e-01
   outer loop
     vertex  3.897559e-01 -1.587302e-02 -9.099776e-04
     vertex  4.090996e-01  0.000000e+00 -2.229734e-02
     vertex  4.090996e-01 -1.587302e-02 -2.229734e-02
   endloop
 endfacet
 facet normal -6.456279e-01  0.000000e+00 -7.636522e-01
   outer loop
     vertex  3.677341e-01 -1.587302e-02  1.770829e-02
     vertex  3.677341e-01  0.000000e+00  1.770829e-02
     vertex  3.897559e-01  0.000000e+00 -9.099776e-04
   endloop
 endfacet
 facet normal -6.456279e-01  0.000000e+00 -7.636522e-01
   outer loop
     vertex  3.677341e-01 -1.587302e-02  1.770829e-02
     vertex  3.897559e-01  0.000000e+00 -9.099776e-04
     vertex  3.897559e-01 -1.587302e-02 -9.099776e-04
   endloop
 endfacet
 facet normal -5.380824e-01  0.000000e+00 -8.428923e-01
   outer loop
     vertex  3.434273e-01 -1.587302e-02  3.322521e-02
     vertex  3.434273e-01  0.000000e+00  3.322521e-02
     vertex  3.677341e-01  0.000000e+00  1.770829e-02
   endloop
 endfacet
 facet normal -5.380824e-01  0.000000e+00 -8.428923e-01
   outer loop
     vertex  3.434273e-01 -1.587302e-02  3.322521e-02
     vertex  3.677341e-01  0.000000e+00  1.770829e-02
     vertex  3.677341e-01 -1.587302e-02  1.770829e-02
   endloop
 endfacet
 facet normal -4.209348e-01  0.000000e+00 -9.070909e-01
   outer loop
     vertex  3.172691e-01 -1.587302e-02  4.536390e-02
     vertex  3.172691e-01  0.000000e+00  4.536390e-02
     vertex  3.434273e-01  0.000000e+00  3.322521e-02
   endloop
 endfacet
 facet normal -4.209348e-01  0.000000e+00 -9.070909e-01
   outer loop
     vertex  3.172691e-01 -1.587302e-02  4.536390e-02
     vertex  3.434273e-01  0.000000e+00  3.322521e-02
     vertex  3.434273e-01 -1.587302e-02  3.322521e-02
   endloop
 endfacet
 facet normal -2.962756e-01  0.000000e+00 -9.551025e-01
   outer loop
     vertex  2.897263e-01 -1.587302e-02  5.390773e-02
     vertex  2.897263e-01  0.000000e+00  5.390773e-02
     vertex  3.172691e-01  0.000000e+00  4.536390e-02
   endloop
 endfacet
 facet normal -2.962756e-01  0.000000e+00 -9.551025e-01
   outer loop
     vertex  2.897263e-01 -1.587302e-02  5.390773e-02
     vertex  3.172691e-01  0.000000e+00  4.536390e-02
     vertex  3.172691e-01 -1.587302e-02  4.536390e-02
   endloop
 endfacet
 facet normal -1.663294e-01  0.000000e+00 -9.860703e-01
   outer loop
     vertex  2.612906e-01 -1.587302e-02  5.870425e-02
     vertex  2.612906e-01  0.000000e+00  5.870425e-02
     vertex  2.897263e-01  0.000000e+00  5.390773e-02
   endloop
 endfacet
 facet normal -1.663294e-01  0.000000e+00 -9.860703e-01
   outer loop
     vertex  2.612906e-01 -1.587302e-02  5.870425e-02
     vertex  2.897263e-01  0.000000e+00  5.390773e-02
     vertex  2.897263e-01 -1.587302e-02  5.390773e-02
   endloop
 endfacet
 facet normal -3.341498e-02  0.000000e+00 -9.994416e-01
   outer loop
     vertex  2.324692e-01 -1.587302e-02  5.966785e-02
     vertex  2.324692e-01  0.000000e+00  5.966785e-02
     vertex  2.612906e-01  0.000000e+00  5.870425e-02
   endloop
 endfacet
 facet normal -3.341498e-02  0.000000e+00 -9.994416e-01
   outer loop
     vertex  2.324692e-01 -1.587302e-02  5.966785e-02
     vertex  2.612906e-01  0.000000e+00  5.870425e-02
     vertex  2.612906e-01 -1.587302e-02  5.870425e-02
   endloop
 endfacet
 facet normal  1.000957e-01  0.000000e+00 -9.949778e-01
   outer loop
     vertex  2.037766e-01 -1.587302e-02  5.678135e-02
     vertex  2.037766e-01  0.000000e+00  5.678135e-02
     vertex  2.324692e-01  0.000000e+00  5.966785e-02
   endloop
 endfacet
 facet normal  1.000957e-01  0.000000e+00 -9.949778e-01
   outer loop
     vertex  2.037766e-01 -1.587302e-02  5.678135e-02
     vertex  2.324692e-01  0.000000e+00  5.966785e-02
     vertex  2.324692e-01 -1.587302e-02  5.966785e-02
   endloop
 endfacet
 facet normal  2.318202e-01  0.000000e+00 -9.727587e-01
   outer loop
     vertex  1.757247e-01 -1.587302e-02  5.009624e-02
     vertex  1.757247e-01  0.000000e+00  5.009624e-02
     vertex  2.037766e-01  0.000000e+00  5.678135e-02
   endloop
 endfacet
 facet normal  2.318202e-01  0.000000e+00 -9.727587e-01
   outer loop
     vertex  1.757247e-01 -1.587302e-02  5.009624e-02
     vertex  2.037766e-01  0.000000e+00  5.678135e-02
     vertex  2.037766e-01 -1.587302e-02  5.678135e-02
   endloop
 endfacet
 facet normal  3.594078e-01  0.000000e+00 -9.331806e-01
   outer loop
     vertex  1.488142e-01 -1.587302e-02  3.973184e-02
     vertex  1.488142e-01  0.000000e+00  3.973184e-02
     vertex  1.757247e-01  0.000000e+00  5.009624e-02
   endloop
 endfacet
 facet normal  3.594078e-01  0.000000e+00 -9.331806e-01
   outer loop
     vertex  1.488142e-01 -1.587302e-02  3.973184e-02
     vertex  1.757247e-01  0.000000e+00  5.009624e-02
     vertex  1.757247e-01 -1.587302e-02  5.009624e-02
   endloop
 endfacet
 facet normal  4.805818e-01  0.000000e+00 -8.769499e-01
   outer loop
     vertex  1.235252e-01 -1.587302e-02  2.587308e-02
     vertex  1.235252e-01  0.000000e+00  2.587308e-02
     vertex  1.488142e-01  0.000000e+00  3.973184e-02
   endloop
 endfacet
 facet normal  4.805818e-01  0.000000e+00 -8.769499e-01
   outer loop
     vertex  1.235252e-01 -1.587302e-02  2.587308e-02
     vertex  1.488142e-01  0.000000e+00  3.973184e-02
     vertex  1.488142e-01 -1.587302e-02  3.973184e-02
   endloop
 endfacet
 facet normal  5.931797e-01  0.000000e+00 -8.050701e-01
   outer loop
     vertex  1.003090e-01 -1.587302e-02  8.767289e-03
     vertex  1.003090e-01  0.000000e+00  8.767289e-03
     vertex  1.235252e-01  0.000000e+00  2.587308e-02
   endloop
 endfacet
 facet normal  5.931797e-01  0.000000e+00 -8.050701e-01
   outer loop
     vertex  1.003090e-01 -1.587302e-02  8.767289e-03
     vertex  1.235252e-01  0.000000e+00  2.587308e-02
     vertex  1.235252e-01 -1.587302e-02  2.587308e-02
   endloop
 endfacet
 facet normal  6.951924e-01  0.000000e+00 -7.188237e-01
   outer loop
     vertex  7.957994e-02 -1.587302e-02 -1.128029e-02
     vertex  7.957994e-02  0.000000e+00 -1.128029e-02
     vertex  1.003090e-01  0.000000e+00  8.767289e-03
   endloop
 endfacet
 facet normal  6.951924e-01  0.000000e+00 -7.188237e-01
   outer loop
     vertex  7.957994e-02 -1.587302e-02 -1.128029e-02
     vertex  1.003090e-01  0.000000e+00  8.767289e-03
     vertex  1.003090e-01 -1.587302e-02  8.767289e-03
   endloop
 endfacet
 facet normal  7.847994e-01  0.000000e+00 -6.197499e-01
   outer loop
     vertex  6.170793e-02 -1.587302e-02 -3.391191e-02
     vertex  6.170793e-02  0.000000e+00 -3.391191e-02
     vertex  7.957994e-02  0.000000e+00 -1.128029e-02
   endloop
 endfacet
 facet normal  7.847994e-01  0.000000e+00 -6.197499e-01
   outer loop
     vertex  6.170793e-02 -1.587302e-02 -3.391191e-02
     vertex  7.957994e-02  0.000000e+00 -1.128029e-02
     vertex  7.957994e-02 -1.587302e-02 -1.128029e-02
   endloop
 endfacet
 facet normal  8.604016e-01  0.000000e+00 -5.096166e-01
   outer loop
     vertex  4.701189e-02 -1.587302e-02 -5.872370e-02
     vertex  4.701189e-02  0.000000e+00 -5.872370e-02
     vertex  6.170793e-02  0.000000e+00 -3.391191e-02
   endloop
 endfacet
 facet normal  8.604016e-01  0.000000e+00 -5.096166e-01
   outer loop
     vertex  4.701189e-02 -1.587302e-02 -5.872370e-02
     vertex  6.170793e-02  0.000000e+00 -3.391191e-02
     vertex  6.170793e-02 -1.587302e-02 -3.391191e-02
   endloop
 endfacet
 facet normal  9.206499e-01  0.000000e+00 -3.903893e-01
   outer loop
     vertex  3.575405e-02 -1.587302e-02 -8.527290e-02
     vertex  3.575405e-02  0.000000e+00 -8.527290e-02
     vertex  4.701189e-02  0.000000e+00 -5.872370e-02
   endloop
 endfacet
 facet normal  9.206499e-01  0.000000e+00 -3.903893e-01
   outer loop
     vertex  3.575405e-02 -1.587302e-02 -8.527290e-02
     vertex  4.701189e-02  0.000000e+00 -5.872370e-02
     vertex  4.701189e-02 -1.587302e-02 -5.872370e-02
   endloop
 endfacet
 facet normal  9.644692e-01  0.000000e+00 -2.641954e-01
   outer loop
     vertex  2.813533e-02 -1.587302e-02 -1.130857e-01
     vertex  2.813533e-02  0.000000e+00 -1.130857e-01
     vertex  3.575405e-02  0.000000e+00 -8.527290e-02
   endloop
 endfacet
 facet normal  9.644692e-01  0.000000e+00 -2.641954e-01
   outer loop
     vertex  2.813533e-02 -1.587302e-02 -1.130857e-01
     vertex  3.575405e-02  0.000000e+00 -8.527290e-02
     vertex  3.575405e-02 -1.587302e-02 -8.527290e-02
   endloop
 endfacet
 facet normal  9.910775e-01  0.000000e+00 -1.332870e-01
   outer loop
     vertex  2.429167e-02 -1.587302e-02 -1.416659e-01
     vertex  2.429167e-02  0.000000e+00 -1.416659e-01
     vertex  2.813533e-02  0.000000e+00 -1.130857e-01
   endloop
 endfacet
 facet normal  9.910775e-01  0.000000e+00 -1.332870e-01
   outer loop
     vertex  2.429167e-02 -1.587302e-02 -1.416659e-01
     vertex  2.813533e-02  0.000000e+00 -1.130857e-01
     vertex  2.813533e-02 -1.587302e-02 -1.130857e-01
   endloop
 endfacet
 facet normal  1.000000e+00 -0.000000e+00  9.624835e-16
   outer loop
     vertex  2.429167e-02 -1.587302e-02 -1.705033e-01
     vertex  2.429167e-02  0.000000e+00 -1.705033e-01
     vertex  2.429167e-02  0.000000e+00 -1.416659e-01
   endloop
 endfacet
 facet normal  1.000000e+00  0.000000e+00  9.624835e-16
   outer loop
     vertex  2.429167e-02 -1.587302e-02 -1.705033e-01
     vertex  2.429167e-02  0.000000e+00 -1.416659e-01
     vertex  2.429167e-02 -1.587302e-02 -1.416659e-01
   endloop
 endfacet
 facet normal  9.910775e-01 -0.000000e+00  1.332870e-01
   outer loop
     vertex  2.813533e-02 -1.587302e-02 -1.990835e-01
     vertex  2.813533e-02  0.000000e+00 -1.990835e-01
     vertex  2.429167e-02  0.000000e+00 -1.705033e-01
   endloop
 endfacet
 facet normal  9.910775e-01  0.000000e+00  1.332870e-01
   outer loop
     vertex  2.813533e-02 -1.587302e-02 -1.990835e-01
     vertex  2.429167e-02  0.000000e+00 -1.705033e-01
     vertex  2.429167e-02 -1.587302e-02 -1.705033e-01
   endloop
 endfacet
 facet normal  9.644692e-01  0.000000e+00  2.641954e-01
   outer loop
     vertex  3.575405e-02 -1.587302e-02 -2.268963e-01
     vertex  2.813533e-02  0.000000e+00 -1.990835e-01
     vertex  2.813533e-02 -1.587302e-02 -1.990835e-01
   endloop
 endfacet
 facet normal  9.644692e-01 -0.000000e+00  2.641954e-01
   outer loop
     vertex  3.575405e-02 -1.587302e-02 -2.268963e-01
     vertex  3.575405e-02  0.000000e+00 -2.268963e-01
     vertex  2.813533e-02  0.000000e+00 -1.990835e-01
   endloop
 endfacet
 facet normal  9.206499e-01  0.000000e+00  3.903893e-01
   outer loop
     vertex  4.701189e-02 -1.587302e-02 -2.534455e-01
     vertex  3.575405e-02  0.000000e+00 -2.268963e-01
     vertex  3.575405e-02 -1.587302e-02 -2.268963e-01
   endloop
 endfacet
 facet normal  9.206499e-01 -0.000000e+00  3.903893e-01
   outer loop
     vertex  4.701189e-02 -1.587302e-02 -2.534455e-01
     vertex  4.701189e-02  0.000000e+00 -2.534455e-01
     vertex  3.575405e-02  0.000000e+00 -2.268963e-01
   endloop
 endfacet
 facet normal  8.604016e-01  0.000000e+00  5.096166e-01
   outer loop
     vertex  6.170793e-02 -1.587302e-02 -2.782573e-01
     vertex  4.701189e-02  0.000000e+00 -2.534455e-01
     vertex  4.701189e-02 -1.587302e-02 -2.534455e-01
   endloop
 endfacet
 facet normal  8.604016e-01 -0.000000e+00  5.096166e-01
   outer loop
     vertex  6.170793e-02 -1.587302e-02 -2.782573e-01
     vertex  6.170793e-02  0.000000e+00 -2.782573e-01
     vertex  4.701189e-02  0.000000e+00 -2.534455e-01
   endloop
 endfacet
 facet normal  7.847994e-01  0.000000e+00  6.197499e-01
   outer loop
     vertex  7.957994e-02 -1.587302e-02 -3.008889e-01
     vertex  6.170793e-02  0.000000e+00 -2.782573e-01
     vertex  6.170793e-02 -1.587302e-02 -2.782573e-01
   endloop
 endfacet
 facet normal  7.847994e-01 -0.000000e+00  6.197499e-01
   outer loop
     vertex  7.957994e-02 -1.587302e-02 -3.008889e-01
     vertex  7.957994e-02  0.000000e+00 -3.008889e-01
     vertex  6.170793e-02  0.000000e+00 -2.782573e-01
   endloop
 endfacet
 facet normal  6.951924e-01  0.000000e+00  7.188237e-01
   outer loop
     vertex  1.003090e-01 -1.587302e-02 -3.209365e-01
     vertex  7.957994e-02  0.000000e+00 -3.008889e-01
     vertex  7.957994e-02 -1.587302e-02 -3.008889e-01
   endloop
 endfacet
 facet normal  6.951924e-01 -0.000000e+00  7.188237e-01
   outer loop
     vertex  1.003090e-01 -1.587302e-02 -3.209365e-01
     vertex  1.003090e-01  0.000000e+00 -3.209365e-01
     vertex  7.957994e-02  0.000000e+00 -3.008889e-01
   endloop
 endfacet
 facet normal  5.931797e-01  0.000000e+00  8.050701e-01
   outer loop
     vertex  1.235252e-01 -1.587302e-02 -3.380423e-01
     vertex  1.003090e-01  0.000000e+00 -3.209365e-01
     vertex  1.003090e-01 -1.587302e-02 -3.209365e-01
   endloop
 endfacet
 facet normal  5.931797e-01 -0.000000e+00  8.050701e-01
   outer loop
     vertex  1.235252e-01 -1.587302e-02 -3.380423e-01
     vertex  1.235252e-01  0.000000e+00 -3.380423e-01
     vertex  1.003090e-01  0.000000e+00 -3.209365e-01
   endloop
 endfacet
 facet normal  4.805818e-01  0.000000e+00  8.769499e-01
   outer loop
     vertex  1.488142e-01 -1.587302e-02 -3.519011e-01
     vertex  1.235252e-01  0.000000e+00 -3.380423e-01
     vertex  1.235252e-01 -1.587302e-02 -3.380423e-01
   endloop
 endfacet
 facet normal  4.805818e-01 -0.000000e+00  8.769499e-01
   outer loop
     vertex  1.488142e-01 -1.587302e-02 -3.519011e-01
     vertex  1.488142e-01  0.000000e+00 -3.519011e-01
     vertex  1.235252e-01  0.000000e+00 -3.380423e-01
   endloop
 endfacet
 facet normal  3.594078e-01  0.000000e+00  9.331806e-01
   outer loop
     vertex  1.757247e-01 -1.587302e-02 -3.622655e-01
     vertex  1.488142e-01  0.000000e+00 -3.519011e-01
     vertex  1.488142e-01 -1.587302e-02 -3.519011e-01
   endloop
 endfacet
 facet normal  3.594078e-01 -0.000000e+00  9.331806e-01
   outer loop
     vertex  1.757247e-01 -1.587302e-02 -3.622655e-01
     vertex  1.757247e-01  0.000000e+00 -3.622655e-01
     vertex  1.488142e-01  0.000000e+00 -3.519011e-01
   endloop
 endfacet
 facet normal  2.318202e-01 -0.000000e+00  9.727587e-01
   outer loop
     vertex  2.037766e-01 -1.587302e-02 -3.689506e-01
     vertex  2.037766e-01  0.000000e+00 -3.689506e-01
     vertex  1.757247e-01  0.000000e+00 -3.622655e-01
   endloop
 endfacet
 facet normal  2.318202e-01  0.000000e+00  9.727587e-01
   outer loop
     vertex  2.037766e-01 -1.587302e-02 -3.689506e-01
     vertex  1.757247e-01  0.000000e+00 -3.622655e-01
     vertex  1.757247e-01 -1.587302e-02 -3.622655e-01
   endloop
 endfacet
 facet normal  1.000957e-01  0.000000e+00  9.949778e-01
   outer loop
     vertex  2.324692e-01 -1.587302e-02 -3.718371e-01
     vertex  2.037766e-01  0.000000e+00 -3.689506e-01
     vertex  2.037766e-01 -1.587302e-02 -3.689506e-01
   endloop
 endfacet
 facet normal  1.000957e-01 -0.000000e+00  9.949778e-01
   outer loop
     vertex  2.324692e-01 -1.587302e-02 -3.718371e-01
     vertex  2.324692e-01  0.000000e+00 -3.718371e-01
     vertex  2.037766e-01  0.000000e+00 -3.689506e-01
   endloop
 endfacet
 facet normal -3.341498e-02  0.000000e+00  9.994416e-01
   outer loop
     vertex  2.612906e-01 -1.587302e-02 -3.708735e-01
     vertex  2.612906e-01  0.000000e+00 -3.708735e-01
     vertex  2.324692e-01  0.000000e+00 -3.718371e-01
   endloop
 endfacet
 facet normal -3.341498e-02  0.000000e+00  9.994416e-01
   outer loop
     vertex  2.612906e-01 -1.587302e-02 -3.708735e-01
     vertex  2.324692e-01  0.000000e+00 -3.718371e-01
     vertex  2.324692e-01 -1.587302e-02 -3.718371e-01
   endloop
 endfacet
 facet normal -1.663294e-01  0.000000e+00  9.860703e-01
   outer loop
     vertex  2.897263e-01 -1.587302e-02 -3.660770e-01
     vertex  2.897263e-01  0.000000e+00 -3.660770e-01
     vertex  2.612906e-01  0.000000e+00 -3.708735e-01
   endloop
 endfacet
 facet normal -1.663294e-01  0.000000e+00  9.860703e-01
   outer loop
     vertex  2.897263e-01 -1.587302e-02 -3.660770e-01
     vertex  2.612906e-01  0.000000e+00 -3.708735e-01
     vertex  2.612906e-01 -1.587302e-02 -3.708735e-01
   endloop
 endfacet
 facet normal -2.962756e-01  0.000000e+00  9.551025e-01
   outer loop
     vertex  3.172691e-01 -1.587302e-02 -3.575331e-01
     vertex  3.172691e-01  0.000000e+00 -3.575331e-01
     vertex  2.897263e-01  0.000000e+00 -3.660770e-01
   endloop
 endfacet
 facet normal -2.962756e-01  0.000000e+00  9.551025e-01
   outer loop
     vertex  3.172691e-01 -1.587302e-02 -3.575331e-01
     vertex  2.897263e-01  0.000000e+00 -3.660770e-01
     vertex  2.897263e-01 -1.587302e-02 -3.660770e-01
   endloop
 endfacet
 facet normal -4.209348e-01  0.000000e+00  9.070909e-01
   outer loop
     vertex  3.434273e-01 -1.587302e-02 -3.453944e-01
     vertex  3.434273e-01  0.000000e+00 -3.453944e-01
     vertex  3.172691e-01  0.000000e+00 -3.575331e-01
   endloop
 endfacet
 facet normal -4.209348e-01  0.000000e+00  9.070909e-01
   outer loop
     vertex  3.434273e-01 -1.587302e-02 -3.453944e-01
     vertex  3.172691e-01  0.000000e+00 -3.575331e-01
     vertex  3.172691e-01 -1.587302e-02 -3.575331e-01
   endloop
 endfacet
 facet normal -5.380824e-01  0.000000e+00  8.428923e-01
   outer loop
     vertex  3.677341e-01 -1.587302e-02 -3.298775e-01
     vertex  3.677341e-01  0.000000e+00 -3.298775e-01
     vertex  3.434273e-01  0.000000e+00 -3.453944e-01
   endloop
 endfacet
 facet normal -5.380824e-01  0.000000e+00  8.428923e-01
   outer loop
     vertex  3.677341e-01 -1.587302e-02 -3.298775e-01
     vertex  3.434273e-01  0.000000e+00 -3.453944e-01
     vertex  3.434273e-01 -1.587302e-02 -3.453944e-01
   endloop
 endfacet
 facet normal -6.456279e-01  0.000000e+00  7.636522e-01
   outer loop
     vertex  3.897559e-01 -1.587302e-02 -3.112593e-01
     vertex  3.897559e-01  0.000000e+00 -3.112593e-01
     vertex  3.677341e-01  0.000000e+00 -3.298775e-01
   endloop
 endfacet
 facet normal -6.456279e-01  0.000000e+00  7.636522e-01
   outer loop
     vertex  3.897559e-01 -1.587302e-02 -3.112593e-01
     vertex  3.677341e-01  0.000000e+00 -3.298775e-01
     vertex  3.677341e-01 -1.587302e-02 -3.298775e-01
   endloop
 endfacet
 facet normal -7.416521e-01  0.000000e+00  6.707847e-01
   outer loop
     vertex  4.090996e-01 -1.587302e-02 -2.898719e-01
     vertex  4.090996e-01  0.000000e+00 -2.898719e-01
     vertex  3.897559e-01  0.000000e+00 -3.112593e-01
   endloop
 endfacet
 facet normal -7.416521e-01  0.000000e+00  6.707847e-01
   outer loop
     vertex  4.090996e-01 -1.587302e-02 -2.898719e-01
     vertex  3.897559e-01  0.000000e+00 -3.112593e-01
     vertex  3.897559e-01 -1.587302e-02 -3.112593e-01
   endloop
 endfacet
 facet normal -8.244416e-01  0.000000e+00  5.659471e-01
   outer loop
     vertex  4.254201e-01 -1.587302e-02 -2.660971e-01
     vertex  4.254201e-01  0.000000e+00 -2.660971e-01
     vertex  4.090996e-01  0.000000e+00 -2.898719e-01
   endloop
 endfacet
 facet normal -8.244416e-01  0.000000e+00  5.659471e-01
   outer loop
     vertex  4.254201e-01 -1.587302e-02 -2.660971e-01
     vertex  4.090996e-01  0.000000e+00 -2.898719e-01
     vertex  4.090996e-01 -1.587302e-02 -2.898719e-01
   endloop
 endfacet
 facet normal -8.925188e-01  0.000000e+00  4.510101e-01
   outer loop
     vertex  4.384261e-01 -1.587302e-02 -2.403591e-01
     vertex  4.384261e-01  0.000000e+00 -2.403591e-01
     vertex  4.254201e-01  0.000000e+00 -2.660971e-01
   endloop
 endfacet
 facet normal -8.925188e-01  0.000000e+00  4.510101e-01
   outer loop
     vertex  4.384261e-01 -1.587302e-02 -2.403591e-01
     vertex  4.254201e-01  0.000000e+00 -2.660971e-01
     vertex  4.254201e-01 -1.587302e-02 -2.660971e-01
   endloop
 endfacet
 facet normal -9.446691e-01  0.000000e+00  3.280249e-01
   outer loop
     vertex  4.478855e-01 -1.587302e-02 -2.131173e-01
     vertex  4.478855e-01  0.000000e+00 -2.131173e-01
     vertex  4.384261e-01  0.000000e+00 -2.403591e-01
   endloop
 endfacet
 facet normal -9.446691e-01  0.000000e+00  3.280249e-01
   outer loop
     vertex  4.478855e-01 -1.587302e-02 -2.131173e-01
     vertex  4.384261e-01  0.000000e+00 -2.403591e-01
     vertex  4.384261e-01 -1.587302e-02 -2.403591e-01
   endloop
 endfacet
 facet normal -9.799617e-01  0.000000e+00  1.991860e-01
   outer loop
     vertex  4.536295e-01 -1.587302e-02 -1.848577e-01
     vertex  4.536295e-01  0.000000e+00 -1.848577e-01
     vertex  4.478855e-01  0.000000e+00 -2.131173e-01
   endloop
 endfacet
 facet normal -9.799617e-01  0.000000e+00  1.991860e-01
   outer loop
     vertex  4.536295e-01 -1.587302e-02 -1.848577e-01
     vertex  4.478855e-01  0.000000e+00 -2.131173e-01
     vertex  4.478855e-01 -1.587302e-02 -2.131173e-01
   endloop
 endfacet
 facet normal -9.977669e-01  0.000000e+00  6.679263e-02
   outer loop
     vertex  4.555556e-01 -1.587302e-02 -1.560846e-01
     vertex  4.555556e-01  0.000000e+00 -1.560846e-01
     vertex  4.536295e-01  0.000000e+00 -1.848577e-01
   endloop
 endfacet
 facet normal -9.977669e-01  0.000000e+00  6.679263e-02
   outer loop
     vertex  4.555556e-01 -1.587302e-02 -1.560846e-01
     vertex  4.536295e-01  0.000000e+00 -1.848577e-01
     vertex  4.536295e-01 -1.587302e-02 -1.848577e-01
   endloop
 endfacet
 facet normal  0.000000e+00  0.000000e+00  1.000000e+00
   outer loop
     vertex -5.878306e-01 -1.587302e-02 -4.439153e-01
     vertex -9.476190e-01  0.000000e+00 -4.439153e-01
     vertex -9.476190e-01 -1.587302e-02 -4.439153e-01
   endloop
 endfacet
 facet normal  0.000000e+00 -0.000000e+00  1.000000e+00
   outer loop
     vertex -5.878306e-01 -1.587302e-02 -4.439153e-01
     vertex -5.878306e-01  0.000000e+00 -4.439153e-01
     vertex -9.476190e-01  0.000000e+00 -4.439153e-01
   endloop
 endfacet
 facet normal  1.000000e+00  0.000000e+00  0.000000e+00
   outer loop
     vertex -9.476190e-01 -1.587302e-02 -4.439153e-01
     vertex -9.476190e-01  0.000000e+00  3.476191e-01
     vertex -9.476190e-01 -1.587302e-02  3.476191e-01
   endloop
 endfacet
 facet normal  1.000000e+00  0.000000e+00  0.000000e+00
   outer loop
     vertex -9.476190e-01 -1.587302e-02 -4.439153e-01
     vertex -9.476190e-01  0.000000e+00 -4.439153e-01
     vertex -9.476190e-01  0.000000e+00  3.476191e-01
   endloop
 endfacet
 facet normal -1.000000e+00  0.000000e+00  0.000000e+00
   outer loop
     vertex -5.878306e-01 -1.587302e-02 -4.814812e-02
     vertex -5.878306e-01  0.000000e+00 -4.439153e-01
     vertex -5.878306e-01 -1.587302e-02 -4.439153e-01
   endloop
 endfacet
 facet normal -1.000000e+00  0.000000e+00  0.000000e+00
   outer loop
     vertex -5.878306e-01 -1.587302e-02 -4.814812e-02
     vertex -5.878306e-01  0.000000e+00 -4.814812e-02
     vertex -5.878306e-01  0.000000e+00 -4.439153e-01
   endloop
 endfacet
 facet normal  0.000000e+00  0.000000e+00 -1.000000e+00
   outer loop
     vertex -9.476190e-01 -1.587302e-02  3.476191e-01
     vertex -5.878306e-01  0.000000e+00  3.476191e-01
     vertex -5.878306e-01 -1.587302e-02  3.476191e-01
   endloop
 endfacet
 facet normal  0.000000e+00  0.000000e+00 -1.000000e+00
   outer loop
     vertex -9.476190e-01 -1.587302e-02  3.476191e-01
     vertex -9.476190e-01  0.000000e+00  3.476191e-01
     vertex -5.878306e-01  0.000000e+00  3.476191e-01
   endloop
 endfacet
 facet normal -1.000000e+00  0.000000e+00  0.000000e+00
   outer loop
     vertex -5.878306e-01 -1.587302e-02  3.476191e-01
     vertex -5.878306e-01  0.000000e+00 -4.814812e-02
     vertex -5.878306e-01 -1.587302e-02 -4.814812e-02
   endloop
 endfacet
 facet normal -1.000000e+00  0.000000e+00  0.000000e+00
   outer loop
     vertex -5.878306e-01 -1.587302e-02  3.476191e-01
     vertex -5.878306e-01  0.000000e+00  3.476191e-01
     vertex -5.878306e-01  0.000000e+00 -4.814812e-02
   endloop
 endfacet
endsolid
