solid 
 facet normal  5.432513e-01  0.000000e+00 -8.395701e-01
   outer loop
     vertex -8.306876e-02 -1.587302e-02  1.366843e-01
     vertex -5.388007e-01 -1.904762e-01 -1.582011e-01
     vertex -5.388007e-01 -1.587302e-02 -1.582011e-01
   endloop
 endfacet
 facet normal  5.432513e-01  0.000000e+00 -8.395701e-01
   outer loop
     vertex -8.306876e-02 -1.587302e-02  1.366843e-01
     vertex -8.306876e-02 -1.904762e-01  1.366843e-01
     vertex -5.388007e-01 -1.904762e-01 -1.582011e-01
   endloop
 endfacet
 facet normal -7.739573e-01  0.000000e+00  6.332378e-01
   outer loop
     vertex -5.388007e-01 -1.587302e-02 -1.582011e-01
     vertex -2.975309e-01 -1.904762e-01  1.366843e-01
     vertex -2.975309e-01 -1.587302e-02  1.366843e-01
   endloop
 endfacet
 facet normal -7.739573e-01  0.000000e+00  6.332378e-01
   outer loop
     vertex -5.388007e-01 -1.587302e-02 -1.582011e-01
     vertex -5.388007e-01 -1.904762e-01 -1.582011e-01
     vertex -2.975309e-01 -1.904762e-01  1.366843e-01
   endloop
 endfacet
 facet normal  9.284767e-01  0.000000e+00  3.713906e-01
   outer loop
     vertex -1.902998e-01 -1.587302e-02  4.047619e-01
     vertex -8.306876e-02 -1.904762e-01  1.366843e-01
     vertex -8.306876e-02 -1.587302e-02  1.366843e-01
   endloop
 endfacet
 facet normal  9.284767e-01  0.000000e+00  3.713906e-01
   outer loop
     vertex -1.902998e-01 -1.587302e-02  4.047619e-01
     vertex -1.902998e-01 -1.904762e-01  4.047619e-01
     vertex -8.306876e-02 -1.904762e-01  1.366843e-01
   endloop
 endfacet
 facet normal  5.432513e-01  0.000000e+00 -8.395701e-01
   outer loop
     vertex -8.306876e-02 -1.587302e-02  1.366843e-01
     vertex -5.388007e-01 -1.587302e-02 -1.582011e-01
     vertex -5.388007e-01  1.904762e-01 -1.582011e-01
   endloop
 endfacet
 facet normal  5.432513e-01  0.000000e+00 -8.395701e-01
   outer loop
     vertex -8.306876e-02 -1.587302e-02  1.366843e-01
     vertex -5.388007e-01  1.904762e-01 -1.582011e-01
     vertex -8.306876e-02  1.904762e-01  1.366843e-01
   endloop
 endfacet
 facet normal -0.000000e+00 -1.000000e+00  0.000000e+00
   outer loop
     vertex -8.306876e-02 -1.904762e-01  1.366843e-01
     vertex -2.975309e-01 -1.904762e-01  1.366843e-01
     vertex -5.388007e-01 -1.904762e-01 -1.582011e-01
   endloop
 endfacet
 facet normal  0.000000e+00 -1.000000e+00 -0.000000e+00
   outer loop
     vertex -1.902998e-01 -1.904762e-01  4.047619e-01
     vertex -2.975309e-01 -1.904762e-01  1.366843e-01
     vertex -8.306876e-02 -1.904762e-01  1.366843e-01
   endloop
 endfacet
 facet normal -9.284767e-01  0.000000e+00  3.713907e-01
   outer loop
     vertex -2.975309e-01 -1.587302e-02  1.366843e-01
     vertex -1.902998e-01 -1.904762e-01  4.047619e-01
     vertex -1.902998e-01 -1.587302e-02  4.047619e-01
   endloop
 endfacet
 facet normal -9.284767e-01  0.000000e+00  3.713907e-01
   outer loop
     vertex -2.975309e-01 -1.587302e-02  1.366843e-01
     vertex -2.975309e-01 -1.904762e-01  1.366843e-01
     vertex -1.902998e-01 -1.904762e-01  4.047619e-01
   endloop
 endfacet
 facet normal -7.739573e-01  0.000000e+00  6.332378e-01
   outer loop
     vertex -5.388007e-01 -1.587302e-02 -1.582011e-01
     vertex -2.975309e-01 -1.587302e-02  1.366843e-01
     vertex -2.975309e-01  1.904762e-01  1.366843e-01
   endloop
 endfacet
 facet normal -7.739573e-01  0.000000e+00  6.332378e-01
   outer loop
     vertex -5.388007e-01 -1.587302e-02 -1.582011e-01
     vertex -2.975309e-01  1.904762e-01  1.366843e-01
     vertex -5.388007e-01  1.904762e-01 -1.582011e-01
   endloop
 endfacet
 facet normal  9.284767e-01  0.000000e+00  3.713906e-01
   outer loop
     vertex -1.902998e-01 -1.587302e-02  4.047619e-01
     vertex -8.306876e-02 -1.587302e-02  1.366843e-01
     vertex -8.306876e-02  1.904762e-01  1.366843e-01
   endloop
 endfacet
 facet normal  9.284767e-01 -0.000000e+00  3.713906e-01
   outer loop
     vertex -1.902998e-01 -1.587302e-02  4.047619e-01
     vertex -8.306876e-02  1.904762e-01  1.366843e-01
     vertex -1.902998e-01  1.904762e-01  4.047619e-01
   endloop
 endfacet
 facet normal  0.000000e+00  1.000000e+00  0.000000e+00
   outer loop
     vertex -8.306876e-02  1.904762e-01  1.366843e-01
     vertex -5.388007e-01  1.904762e-01 -1.582011e-01
     vertex -2.975309e-01  1.904762e-01  1.366843e-01
   endloop
 endfacet
 facet normal  0.000000e+00  1.000000e+00  0.000000e+00
   outer loop
     vertex -1.902998e-01  1.904762e-01  4.047619e-01
     vertex -8.306876e-02  1.904762e-01  1.366843e-01
     vertex -2.975309e-01  1.904762e-01  1.366843e-01
   endloop
 endfacet
 facet normal -9.284767e-01  0.000000e+00  3.713907e-01
   outer loop
     vertex -2.975309e-01 -1.587302e-02  1.366843e-01
     vertex -1.902998e-01 -1.587302e-02  4.047619e-01
     vertex -1.902998e-01  1.904762e-01  4.047619e-01
   endloop
 endfacet
 facet normal -9.284767e-01  0.000000e+00  3.713907e-01
   outer loop
     vertex -2.975309e-01 -1.587302e-02  1.366843e-01
     vertex -1.902998e-01  1.904762e-01  4.047619e-01
     vertex -2.975309e-01  1.904762e-01  1.366843e-01
   endloop
 endfacet
 facet normal -8.000000e-01  0.000000e+00 -6.000000e-01
   outer loop
     vertex  2.118166e-01 -1.587302e-02  2.707230e-01
     vertex -2.945323e-02 -1.904762e-01  5.924162e-01
     vertex -2.945323e-02 -1.587302e-02  5.924162e-01
   endloop
 endfacet
 facet normal -8.000000e-01 -0.000000e+00 -6.000000e-01
   outer loop
     vertex  2.118166e-01 -1.587302e-02  2.707230e-01
     vertex  2.118166e-01 -1.904762e-01  2.707230e-01
     vertex -2.945323e-02 -1.904762e-01  5.924162e-01
   endloop
 endfacet
 facet normal -3.162277e-01  0.000000e+00  9.486833e-01
   outer loop
     vertex -2.945323e-02 -1.587302e-02  5.924162e-01
     vertex  2.922399e-01 -1.904762e-01  6.996472e-01
     vertex  2.922399e-01 -1.587302e-02  6.996472e-01
   endloop
 endfacet
 facet normal -3.162277e-01  0.000000e+00  9.486833e-01
   outer loop
     vertex -2.945323e-02 -1.587302e-02  5.924162e-01
     vertex -2.945323e-02 -1.904762e-01  5.924162e-01
     vertex  2.922399e-01 -1.904762e-01  6.996472e-01
   endloop
 endfacet
 facet normal  8.000001e-01  0.000000e+00 -5.999999e-01
   outer loop
     vertex  4.530865e-01 -1.587302e-02  5.924162e-01
     vertex  2.118166e-01 -1.904762e-01  2.707230e-01
     vertex  2.118166e-01 -1.587302e-02  2.707230e-01
   endloop
 endfacet
 facet normal  8.000001e-01  0.000000e+00 -5.999999e-01
   outer loop
     vertex  4.530865e-01 -1.587302e-02  5.924162e-01
     vertex  4.530865e-01 -1.904762e-01  5.924162e-01
     vertex  2.118166e-01 -1.904762e-01  2.707230e-01
   endloop
 endfacet
 facet normal -8.000000e-01  0.000000e+00 -6.000000e-01
   outer loop
     vertex  2.118166e-01 -1.587302e-02  2.707230e-01
     vertex -2.945323e-02 -1.587302e-02  5.924162e-01
     vertex -2.945323e-02  1.904762e-01  5.924162e-01
   endloop
 endfacet
 facet normal -8.000000e-01  0.000000e+00 -6.000000e-01
   outer loop
     vertex  2.118166e-01 -1.587302e-02  2.707230e-01
     vertex -2.945323e-02  1.904762e-01  5.924162e-01
     vertex  2.118166e-01  1.904762e-01  2.707230e-01
   endloop
 endfacet
 facet normal  0.000000e+00 -1.000000e+00  0.000000e+00
   outer loop
     vertex  2.922399e-01 -1.904762e-01  6.996472e-01
     vertex -2.945323e-02 -1.904762e-01  5.924162e-01
     vertex  2.118166e-01 -1.904762e-01  2.707230e-01
   endloop
 endfacet
 facet normal -0.000000e+00 -1.000000e+00  0.000000e+00
   outer loop
     vertex  4.530865e-01 -1.904762e-01  5.924162e-01
     vertex  2.922399e-01 -1.904762e-01  6.996472e-01
     vertex  2.118166e-01 -1.904762e-01  2.707230e-01
   endloop
 endfacet
 facet normal  5.547001e-01  0.000000e+00  8.320503e-01
   outer loop
     vertex  2.922399e-01 -1.587302e-02  6.996472e-01
     vertex  4.530865e-01 -1.904762e-01  5.924162e-01
     vertex  4.530865e-01 -1.587302e-02  5.924162e-01
   endloop
 endfacet
 facet normal  5.547001e-01  0.000000e+00  8.320503e-01
   outer loop
     vertex  2.922399e-01 -1.587302e-02  6.996472e-01
     vertex  2.922399e-01 -1.904762e-01  6.996472e-01
     vertex  4.530865e-01 -1.904762e-01  5.924162e-01
   endloop
 endfacet
 facet normal -3.162277e-01  0.000000e+00  9.486833e-01
   outer loop
     vertex -2.945323e-02 -1.587302e-02  5.924162e-01
     vertex  2.922399e-01 -1.587302e-02  6.996472e-01
     vertex  2.922399e-01  1.904762e-01  6.996472e-01
   endloop
 endfacet
 facet normal -3.162277e-01  0.000000e+00  9.486833e-01
   outer loop
     vertex -2.945323e-02 -1.587302e-02  5.924162e-01
     vertex  2.922399e-01  1.904762e-01  6.996472e-01
     vertex -2.945323e-02  1.904762e-01  5.924162e-01
   endloop
 endfacet
 facet normal  8.000001e-01  0.000000e+00 -5.999999e-01
   outer loop
     vertex  4.530865e-01 -1.587302e-02  5.924162e-01
     vertex  2.118166e-01 -1.587302e-02  2.707230e-01
     vertex  2.118166e-01  1.904762e-01  2.707230e-01
   endloop
 endfacet
 facet normal  8.000001e-01  0.000000e+00 -5.999999e-01
   outer loop
     vertex  4.530865e-01 -1.587302e-02  5.924162e-01
     vertex  2.118166e-01  1.904762e-01  2.707230e-01
     vertex  4.530865e-01  1.904762e-01  5.924162e-01
   endloop
 endfacet
 facet normal  0.000000e+00  1.000000e+00  0.000000e+00
   outer loop
     vertex  2.922399e-01  1.904762e-01  6.996472e-01
     vertex  2.118166e-01  1.904762e-01  2.707230e-01
     vertex -2.945323e-02  1.904762e-01  5.924162e-01
   endloop
 endfacet
 facet normal  0.000000e+00  1.000000e+00  0.000000e+00
   outer loop
     vertex  4.530865e-01  1.904762e-01  5.924162e-01
     vertex  2.118166e-01  1.904762e-01  2.707230e-01
     vertex  2.922399e-01  1.904762e-01  6.996472e-01
   endloop
 endfacet
 facet normal  5.547001e-01  0.000000e+00  8.320503e-01
   outer loop
     vertex  2.922399e-01 -1.587302e-02  6.996472e-01
     vertex  4.530865e-01 -1.587302e-02  5.924162e-01
     vertex  4.530865e-01  1.904762e-01  5.924162e-01
   endloop
 endfacet
 facet normal  5.547001e-01 -0.000000e+00  8.320503e-01
   outer loop
     vertex  2.922399e-01 -1.587302e-02  6.996472e-01
     vertex  4.530865e-01  1.904762e-01  5.924162e-01
     vertex  2.922399e-01  1.904762e-01  6.996472e-01
   endloop
 endfacet
 facet normal -0.000000e+00  0.000000e+00 -1.000000e+00
   outer loop
     vertex  9.088184e-01 -1.587302e-02 -1.313933e-01
     vertex  5.871252e-01 -1.904762e-01 -1.313933e-01
     vertex  5.871252e-01 -1.587302e-02 -1.313933e-01
   endloop
 endfacet
 facet normal  0.000000e+00 -0.000000e+00 -1.000000e+00
   outer loop
     vertex  9.088184e-01 -1.587302e-02 -1.313933e-01
     vertex  9.088184e-01 -1.904762e-01 -1.313933e-01
     vertex  5.871252e-01 -1.904762e-01 -1.313933e-01
   endloop
 endfacet
 facet normal -9.922779e-01  0.000000e+00 -1.240346e-01
   outer loop
     vertex  5.871252e-01 -1.587302e-02 -1.313933e-01
     vertex  5.603175e-01 -1.904762e-01  8.306874e-02
     vertex  5.603175e-01 -1.587302e-02  8.306874e-02
   endloop
 endfacet
 facet normal -9.922779e-01 -0.000000e+00 -1.240346e-01
   outer loop
     vertex  5.871252e-01 -1.587302e-02 -1.313933e-01
     vertex  5.871252e-01 -1.904762e-01 -1.313933e-01
     vertex  5.603175e-01 -1.904762e-01  8.306874e-02
   endloop
 endfacet
 facet normal  1.000000e+00  0.000000e+00  0.000000e+00
   outer loop
     vertex  9.088184e-01 -1.587302e-02  8.306874e-02
     vertex  9.088184e-01 -1.904762e-01 -1.313933e-01
     vertex  9.088184e-01 -1.587302e-02 -1.313933e-01
   endloop
 endfacet
 facet normal  1.000000e+00  0.000000e+00  0.000000e+00
   outer loop
     vertex  9.088184e-01 -1.587302e-02  8.306874e-02
     vertex  9.088184e-01 -1.904762e-01  8.306874e-02
     vertex  9.088184e-01 -1.904762e-01 -1.313933e-01
   endloop
 endfacet
 facet normal  0.000000e+00  0.000000e+00 -1.000000e+00
   outer loop
     vertex  9.088184e-01 -1.587302e-02 -1.313933e-01
     vertex  5.871252e-01 -1.587302e-02 -1.313933e-01
     vertex  5.871252e-01  1.904762e-01 -1.313933e-01
   endloop
 endfacet
 facet normal  0.000000e+00  0.000000e+00 -1.000000e+00
   outer loop
     vertex  9.088184e-01 -1.587302e-02 -1.313933e-01
     vertex  5.871252e-01  1.904762e-01 -1.313933e-01
     vertex  9.088184e-01  1.904762e-01 -1.313933e-01
   endloop
 endfacet
 facet normal  0.000000e+00 -1.000000e+00 -0.000000e+00
   outer loop
     vertex  9.088184e-01 -1.904762e-01  8.306874e-02
     vertex  5.871252e-01 -1.904762e-01 -1.313933e-01
     vertex  9.088184e-01 -1.904762e-01 -1.313933e-01
   endloop
 endfacet
 facet normal -0.000000e+00 -1.000000e+00  0.000000e+00
   outer loop
     vertex  9.088184e-01 -1.904762e-01  8.306874e-02
     vertex  5.603175e-01 -1.904762e-01  8.306874e-02
     vertex  5.871252e-01 -1.904762e-01 -1.313933e-01
   endloop
 endfacet
 facet normal  0.000000e+00 -1.000000e+00 -0.000000e+00
   outer loop
     vertex  6.675485e-01 -1.904762e-01  3.511464e-01
     vertex  5.603175e-01 -1.904762e-01  8.306874e-02
     vertex  9.088184e-01 -1.904762e-01  8.306874e-02
   endloop
 endfacet
 facet normal -9.284767e-01  0.000000e+00  3.713906e-01
   outer loop
     vertex  5.603175e-01 -1.587302e-02  8.306874e-02
     vertex  6.675485e-01 -1.904762e-01  3.511464e-01
     vertex  6.675485e-01 -1.587302e-02  3.511464e-01
   endloop
 endfacet
 facet normal -9.284767e-01  0.000000e+00  3.713906e-01
   outer loop
     vertex  5.603175e-01 -1.587302e-02  8.306874e-02
     vertex  5.603175e-01 -1.904762e-01  8.306874e-02
     vertex  6.675485e-01 -1.904762e-01  3.511464e-01
   endloop
 endfacet
 facet normal -9.922779e-01  0.000000e+00 -1.240346e-01
   outer loop
     vertex  5.871252e-01 -1.587302e-02 -1.313933e-01
     vertex  5.603175e-01 -1.587302e-02  8.306874e-02
     vertex  5.603175e-01  1.904762e-01  8.306874e-02
   endloop
 endfacet
 facet normal -9.922779e-01  0.000000e+00 -1.240346e-01
   outer loop
     vertex  5.871252e-01 -1.587302e-02 -1.313933e-01
     vertex  5.603175e-01  1.904762e-01  8.306874e-02
     vertex  5.871252e-01  1.904762e-01 -1.313933e-01
   endloop
 endfacet
 facet normal  7.432942e-01  0.000000e+00  6.689646e-01
   outer loop
     vertex  6.675485e-01 -1.587302e-02  3.511464e-01
     vertex  9.088184e-01 -1.904762e-01  8.306874e-02
     vertex  9.088184e-01 -1.587302e-02  8.306874e-02
   endloop
 endfacet
 facet normal  7.432942e-01  0.000000e+00  6.689646e-01
   outer loop
     vertex  6.675485e-01 -1.587302e-02  3.511464e-01
     vertex  6.675485e-01 -1.904762e-01  3.511464e-01
     vertex  9.088184e-01 -1.904762e-01  8.306874e-02
   endloop
 endfacet
 facet normal  1.000000e+00  0.000000e+00  0.000000e+00
   outer loop
     vertex  9.088184e-01 -1.587302e-02  8.306874e-02
     vertex  9.088184e-01 -1.587302e-02 -1.313933e-01
     vertex  9.088184e-01  1.904762e-01 -1.313933e-01
   endloop
 endfacet
 facet normal  1.000000e+00 -0.000000e+00  0.000000e+00
   outer loop
     vertex  9.088184e-01 -1.587302e-02  8.306874e-02
     vertex  9.088184e-01  1.904762e-01 -1.313933e-01
     vertex  9.088184e-01  1.904762e-01  8.306874e-02
   endloop
 endfacet
 facet normal  0.000000e+00  1.000000e+00  0.000000e+00
   outer loop
     vertex  9.088184e-01  1.904762e-01  8.306874e-02
     vertex  9.088184e-01  1.904762e-01 -1.313933e-01
     vertex  5.871252e-01  1.904762e-01 -1.313933e-01
   endloop
 endfacet
 facet normal  0.000000e+00  1.000000e+00  0.000000e+00
   outer loop
     vertex  9.088184e-01  1.904762e-01  8.306874e-02
     vertex  5.871252e-01  1.904762e-01 -1.313933e-01
     vertex  5.603175e-01  1.904762e-01  8.306874e-02
   endloop
 endfacet
 facet normal  0.000000e+00  1.000000e+00  0.000000e+00
   outer loop
     vertex  6.675485e-01  1.904762e-01  3.511464e-01
     vertex  9.088184e-01  1.904762e-01  8.306874e-02
     vertex  5.603175e-01  1.904762e-01  8.306874e-02
   endloop
 endfacet
 facet normal -9.284767e-01  0.000000e+00  3.713906e-01
   outer loop
     vertex  5.603175e-01 -1.587302e-02  8.306874e-02
     vertex  6.675485e-01 -1.587302e-02  3.511464e-01
     vertex  6.675485e-01  1.904762e-01  3.511464e-01
   endloop
 endfacet
 facet normal -9.284767e-01  0.000000e+00  3.713906e-01
   outer loop
     vertex  5.603175e-01 -1.587302e-02  8.306874e-02
     vertex  6.675485e-01  1.904762e-01  3.511464e-01
     vertex  5.603175e-01  1.904762e-01  8.306874e-02
   endloop
 endfacet
 facet normal  7.432942e-01  0.000000e+00  6.689646e-01
   outer loop
     vertex  6.675485e-01 -1.587302e-02  3.511464e-01
     vertex  9.088184e-01 -1.587302e-02  8.306874e-02
     vertex  9.088184e-01  1.904762e-01  8.306874e-02
   endloop
 endfacet
 facet normal  7.432942e-01 -0.000000e+00  6.689646e-01
   outer loop
     vertex  6.675485e-01 -1.587302e-02  3.511464e-01
     vertex  9.088184e-01  1.904762e-01  8.306874e-02
     vertex  6.675485e-01  1.904762e-01  3.511464e-01
   endloop
 endfacet
endsolid
