solid 
 facet normal -0.000000e+00  0.000000e+00 -1.000000e+00
   outer loop
     vertex  8.767197e-01 -1.587302e-02 -5.292770e-01
     vertex -1.030864e+00 -5.079365e-01 -5.292770e-01
     vertex -1.030864e+00 -1.587302e-02 -5.292770e-01
   endloop
 endfacet
 facet normal  0.000000e+00 -0.000000e+00 -1.000000e+00
   outer loop
     vertex  8.767197e-01 -1.587302e-02 -5.292770e-01
     vertex  8.767197e-01 -5.079365e-01 -5.292770e-01
     vertex -1.030864e+00 -5.079365e-01 -5.292770e-01
   endloop
 endfacet
 facet normal -1.000000e+00  0.000000e+00  0.000000e+00
   outer loop
     vertex -1.030864e+00 -1.587302e-02 -5.292770e-01
     vertex -1.030864e+00 -5.079365e-01  7.179894e-01
     vertex -1.030864e+00 -1.587302e-02  7.179894e-01
   endloop
 endfacet
 facet normal -1.000000e+00  0.000000e+00  0.000000e+00
   outer loop
     vertex -1.030864e+00 -1.587302e-02 -5.292770e-01
     vertex -1.030864e+00 -5.079365e-01 -5.292770e-01
     vertex -1.030864e+00 -5.079365e-01  7.179894e-01
   endloop
 endfacet
 facet normal  1.000000e+00  0.000000e+00  0.000000e+00
   outer loop
     vertex  8.767197e-01 -1.587302e-02  1.310406e-01
     vertex  8.767197e-01 -5.079365e-01 -5.292770e-01
     vertex  8.767197e-01 -1.587302e-02 -5.292770e-01
   endloop
 endfacet
 facet normal  1.000000e+00  0.000000e+00  0.000000e+00
   outer loop
     vertex  8.767197e-01 -1.587302e-02  1.310406e-01
     vertex  8.767197e-01 -5.079365e-01  1.310406e-01
     vertex  8.767197e-01 -5.079365e-01 -5.292770e-01
   endloop
 endfacet
 facet normal  0.000000e+00  0.000000e+00 -1.000000e+00
   outer loop
     vertex  8.767197e-01 -1.587302e-02 -5.292770e-01
     vertex -1.030864e+00 -1.587302e-02 -5.292770e-01
     vertex -1.030864e+00  0.000000e+00 -5.292770e-01
   endloop
 endfacet
 facet normal  0.000000e+00  0.000000e+00 -1.000000e+00
   outer loop
     vertex  8.767197e-01 -1.587302e-02 -5.292770e-01
     vertex -1.030864e+00  0.000000e+00 -5.292770e-01
     vertex  8.767197e-01  0.000000e+00 -5.292770e-01
   endloop
 endfacet
 facet normal -0.000000e+00 -1.000000e+00  0.000000e+00
   outer loop
     vertex -6.273368e-01 -5.079365e-01  3.878307e-01
     vertex -1.030864e+00 -5.079365e-01  7.179894e-01
     vertex -1.030864e+00 -5.079365e-01 -5.292770e-01
   endloop
 endfacet
 facet normal  0.000000e+00 -1.000000e+00 -0.000000e+00
   outer loop
     vertex -6.273368e-01 -5.079365e-01  3.878307e-01
     vertex -1.030864e+00 -5.079365e-01 -5.292770e-01
     vertex -3.338624e-01 -5.079365e-01 -2.358025e-01
   endloop
 endfacet
 facet normal -0.000000e+00 -1.000000e+00 -0.000000e+00
   outer loop
     vertex -7.740741e-01 -5.079365e-01  7.179894e-01
     vertex -1.030864e+00 -5.079365e-01  7.179894e-01
     vertex -6.273368e-01 -5.079365e-01  3.878307e-01
   endloop
 endfacet
 facet normal  0.000000e+00 -1.000000e+00  0.000000e+00
   outer loop
     vertex  8.767197e-01 -5.079365e-01 -5.292770e-01
     vertex  1.797179e-01 -5.079365e-01  1.310406e-01
     vertex -3.338624e-01 -5.079365e-01 -2.358025e-01
   endloop
 endfacet
 facet normal  0.000000e+00 -1.000000e+00  0.000000e+00
   outer loop
     vertex  8.767197e-01 -5.079365e-01 -5.292770e-01
     vertex -3.338624e-01 -5.079365e-01 -2.358025e-01
     vertex -1.030864e+00 -5.079365e-01 -5.292770e-01
   endloop
 endfacet
 facet normal -0.000000e+00 -1.000000e+00 -0.000000e+00
   outer loop
     vertex  8.767197e-01 -5.079365e-01  1.310406e-01
     vertex  1.797179e-01 -5.079365e-01  1.310406e-01
     vertex  8.767197e-01 -5.079365e-01 -5.292770e-01
   endloop
 endfacet
 facet normal -0.000000e+00  0.000000e+00  1.000000e+00
   outer loop
     vertex -1.030864e+00 -1.587302e-02  7.179894e-01
     vertex -7.740741e-01 -5.079365e-01  7.179894e-01
     vertex -7.740741e-01 -1.587302e-02  7.179894e-01
   endloop
 endfacet
 facet normal  0.000000e+00  0.000000e+00  1.000000e+00
   outer loop
     vertex -1.030864e+00 -1.587302e-02  7.179894e-01
     vertex -1.030864e+00 -5.079365e-01  7.179894e-01
     vertex -7.740741e-01 -5.079365e-01  7.179894e-01
   endloop
 endfacet
 facet normal -1.000000e+00  0.000000e+00  0.000000e+00
   outer loop
     vertex -1.030864e+00 -1.587302e-02 -5.292770e-01
     vertex -1.030864e+00 -1.587302e-02  7.179894e-01
     vertex -1.030864e+00  0.000000e+00  7.179894e-01
   endloop
 endfacet
 facet normal -1.000000e+00  0.000000e+00  0.000000e+00
   outer loop
     vertex -1.030864e+00 -1.587302e-02 -5.292770e-01
     vertex -1.030864e+00  0.000000e+00  7.179894e-01
     vertex -1.030864e+00  0.000000e+00 -5.292770e-01
   endloop
 endfacet
 facet normal -0.000000e+00  0.000000e+00  1.000000e+00
   outer loop
     vertex  1.797179e-01 -1.587302e-02  1.310406e-01
     vertex  8.767197e-01 -5.079365e-01  1.310406e-01
     vertex  8.767197e-01 -1.587302e-02  1.310406e-01
   endloop
 endfacet
 facet normal  0.000000e+00  0.000000e+00  1.000000e+00
   outer loop
     vertex  1.797179e-01 -1.587302e-02  1.310406e-01
     vertex  1.797179e-01 -5.079365e-01  1.310406e-01
     vertex  8.767197e-01 -5.079365e-01  1.310406e-01
   endloop
 endfacet
 facet normal  1.000000e+00  0.000000e+00  0.000000e+00
   outer loop
     vertex  8.767197e-01 -1.587302e-02  1.310406e-01
     vertex  8.767197e-01 -1.587302e-02 -5.292770e-01
     vertex  8.767197e-01  0.000000e+00 -5.292770e-01
   endloop
 endfacet
 facet normal  1.000000e+00 -0.000000e+00  0.000000e+00
   outer loop
     vertex  8.767197e-01 -1.587302e-02  1.310406e-01
     vertex  8.767197e-01  0.000000e+00 -5.292770e-01
     vertex  8.767197e-01  0.000000e+00  1.310406e-01
   endloop
 endfacet
 facet normal  0.000000e+00  1.000000e+00  0.000000e+00
   outer loop
     vertex -6.273368e-01 -4.510281e-17  3.878307e-01
     vertex -1.030864e+00 -4.510281e-17 -5.292770e-01
     vertex -1.030864e+00 -4.510281e-17  7.179894e-01
   endloop
 endfacet
 facet normal  0.000000e+00  1.000000e+00  0.000000e+00
   outer loop
     vertex -6.273368e-01 -4.510281e-17  3.878307e-01
     vertex -3.338624e-01 -4.510281e-17 -2.358025e-01
     vertex -1.030864e+00 -4.510281e-17 -5.292770e-01
   endloop
 endfacet
 facet normal  0.000000e+00  1.000000e+00  0.000000e+00
   outer loop
     vertex -7.740741e-01 -4.510281e-17  7.179894e-01
     vertex -6.273368e-01 -4.510281e-17  3.878307e-01
     vertex -1.030864e+00 -4.510281e-17  7.179894e-01
   endloop
 endfacet
 facet normal  0.000000e+00  1.000000e+00  0.000000e+00
   outer loop
     vertex  8.767197e-01 -4.510281e-17 -5.292770e-01
     vertex -3.338624e-01 -4.510281e-17 -2.358025e-01
     vertex  1.797179e-01 -4.510281e-17  1.310406e-01
   endloop
 endfacet
 facet normal  0.000000e+00  1.000000e+00  0.000000e+00
   outer loop
     vertex  8.767197e-01 -4.510281e-17 -5.292770e-01
     vertex -1.030864e+00 -4.510281e-17 -5.292770e-01
     vertex -3.338624e-01 -4.510281e-17 -2.358025e-01
   endloop
 endfacet
 facet normal  0.000000e+00  1.000000e+00  0.000000e+00
   outer loop
     vertex  8.767197e-01 -4.510281e-17  1.310406e-01
     vertex  8.767197e-01 -4.510281e-17 -5.292770e-01
     vertex  1.797179e-01 -4.510281e-17  1.310406e-01
   endloop
 endfacet
 facet normal -5.812382e-01  0.000000e+00  8.137335e-01
   outer loop
     vertex -3.338624e-01 -1.587302e-02 -2.358025e-01
     vertex  1.797179e-01 -5.079365e-01  1.310406e-01
     vertex  1.797179e-01 -1.587302e-02  1.310406e-01
   endloop
 endfacet
 facet normal -5.812382e-01  0.000000e+00  8.137335e-01
   outer loop
     vertex -3.338624e-01 -1.587302e-02 -2.358025e-01
     vertex -3.338624e-01 -5.079365e-01 -2.358025e-01
     vertex  1.797179e-01 -5.079365e-01  1.310406e-01
   endloop
 endfacet
 facet normal  9.048187e-01  0.000000e+00  4.257970e-01
   outer loop
     vertex -6.273368e-01 -1.587302e-02  3.878307e-01
     vertex -3.338624e-01 -5.079365e-01 -2.358025e-01
     vertex -3.338624e-01 -1.587302e-02 -2.358025e-01
   endloop
 endfacet
 facet normal  9.048187e-01  0.000000e+00  4.257970e-01
   outer loop
     vertex -6.273368e-01 -1.587302e-02  3.878307e-01
     vertex -6.273368e-01 -5.079365e-01  3.878307e-01
     vertex -3.338624e-01 -5.079365e-01 -2.358025e-01
   endloop
 endfacet
 facet normal  9.138115e-01  0.000000e+00  4.061386e-01
   outer loop
     vertex -7.740741e-01 -1.587302e-02  7.179894e-01
     vertex -6.273368e-01 -5.079365e-01  3.878307e-01
     vertex -6.273368e-01 -1.587302e-02  3.878307e-01
   endloop
 endfacet
 facet normal  9.138115e-01  0.000000e+00  4.061386e-01
   outer loop
     vertex -7.740741e-01 -1.587302e-02  7.179894e-01
     vertex -7.740741e-01 -5.079365e-01  7.179894e-01
     vertex -6.273368e-01 -5.079365e-01  3.878307e-01
   endloop
 endfacet
 facet normal  0.000000e+00  0.000000e+00  1.000000e+00
   outer loop
     vertex -1.030864e+00 -1.587302e-02  7.179894e-01
     vertex -7.740741e-01 -1.587302e-02  7.179894e-01
     vertex -7.740741e-01  0.000000e+00  7.179894e-01
   endloop
 endfacet
 facet normal  0.000000e+00  0.000000e+00  1.000000e+00
   outer loop
     vertex -1.030864e+00 -1.587302e-02  7.179894e-01
     vertex -7.740741e-01  0.000000e+00  7.179894e-01
     vertex -1.030864e+00  0.000000e+00  7.179894e-01
   endloop
 endfacet
 facet normal  0.000000e+00  0.000000e+00  1.000000e+00
   outer loop
     vertex  1.797179e-01 -1.587302e-02  1.310406e-01
     vertex  8.767197e-01 -1.587302e-02  1.310406e-01
     vertex  8.767197e-01  0.000000e+00  1.310406e-01
   endloop
 endfacet
 facet normal  0.000000e+00  0.000000e+00  1.000000e+00
   outer loop
     vertex  1.797179e-01 -1.587302e-02  1.310406e-01
     vertex  8.767197e-01  0.000000e+00  1.310406e-01
     vertex  1.797179e-01  0.000000e+00  1.310406e-01
   endloop
 endfacet
 facet normal -5.812382e-01  0.000000e+00  8.137335e-01
   outer loop
     vertex -3.338624e-01 -1.587302e-02 -2.358025e-01
     vertex  1.797179e-01 -1.587302e-02  1.310406e-01
     vertex  1.797179e-01  0.000000e+00  1.310406e-01
   endloop
 endfacet
 facet normal -5.812382e-01  0.000000e+00  8.137335e-01
   outer loop
     vertex -3.338624e-01 -1.587302e-02 -2.358025e-01
     vertex  1.797179e-01  0.000000e+00  1.310406e-01
     vertex -3.338624e-01  0.000000e+00 -2.358025e-01
   endloop
 endfacet
 facet normal  9.048187e-01  0.000000e+00  4.257970e-01
   outer loop
     vertex -6.273368e-01 -1.587302e-02  3.878307e-01
     vertex -3.338624e-01 -1.587302e-02 -2.358025e-01
     vertex -3.338624e-01  0.000000e+00 -2.358025e-01
   endloop
 endfacet
 facet normal  9.048187e-01 -0.000000e+00  4.257970e-01
   outer loop
     vertex -6.273368e-01 -1.587302e-02  3.878307e-01
     vertex -3.338624e-01  0.000000e+00 -2.358025e-01
     vertex -6.273368e-01  0.000000e+00  3.878307e-01
   endloop
 endfacet
 facet normal  9.138115e-01  0.000000e+00  4.061386e-01
   outer loop
     vertex -7.740741e-01 -1.587302e-02  7.179894e-01
     vertex -6.273368e-01 -1.587302e-02  3.878307e-01
     vertex -6.273368e-01  0.000000e+00  3.878307e-01
   endloop
 endfacet
 facet normal  9.138115e-01 -0.000000e+00  4.061386e-01
   outer loop
     vertex -7.740741e-01 -1.587302e-02  7.179894e-01
     vertex -6.273368e-01  0.000000e+00  3.878307e-01
     vertex -7.740741e-01  0.000000e+00  7.179894e-01
   endloop
 endfacet
endsolid
