solid 
 facet normal  0.000000e+00 -1.000000e+00  0.000000e+00
   outer loop
     vertex  4.477954e-01 -3.227510e-02 -1.587302e-02
     vertex -3.333339e-02 -3.227510e-02  1.269842e-01
     vertex -3.333339e-02 -3.227510e-02 -1.587302e-02
   endloop
 endfacet
 facet normal  0.000000e+00 -1.000000e+00  0.000000e+00
   outer loop
     vertex  4.477954e-01 -3.227510e-02 -1.587302e-02
     vertex  4.477954e-01 -3.227510e-02  1.269842e-01
     vertex -3.333339e-02 -3.227510e-02  1.269842e-01
   endloop
 endfacet
 facet normal -1.000000e+00  0.000000e+00  0.000000e+00
   outer loop
     vertex -3.333339e-02 -3.227510e-02 -1.587302e-02
     vertex -3.333339e-02  1.850089e-01  1.269842e-01
     vertex -3.333339e-02  1.850089e-01 -1.587302e-02
   endloop
 endfacet
 facet normal -1.000000e+00  0.000000e+00  0.000000e+00
   outer loop
     vertex -3.333339e-02 -3.227510e-02 -1.587302e-02
     vertex -3.333339e-02 -3.227510e-02  1.269842e-01
     vertex -3.333339e-02  1.850089e-01  1.269842e-01
   endloop
 endfacet
 facet normal  0.000000e+00 -1.000000e+00  0.000000e+00
   outer loop
     vertex  9.289241e-01 -3.227510e-02 -1.587302e-02
     vertex  4.477954e-01 -3.227510e-02  1.269842e-01
     vertex  4.477954e-01 -3.227510e-02 -1.587302e-02
   endloop
 endfacet
 facet normal  0.000000e+00 -1.000000e+00  0.000000e+00
   outer loop
     vertex  9.289241e-01 -3.227510e-02 -1.587302e-02
     vertex  9.289241e-01 -3.227510e-02  1.269842e-01
     vertex  4.477954e-01 -3.227510e-02  1.269842e-01
   endloop
 endfacet
 facet normal -0.000000e+00 -1.000000e+00  0.000000e+00
   outer loop
     vertex  4.477954e-01 -3.227510e-02 -1.587302e-02
     vertex -3.333339e-02 -3.227510e-02 -1.587302e-02
     vertex -3.333339e-02 -3.227510e-02 -3.174603e-02
   endloop
 endfacet
 facet normal  0.000000e+00 -1.000000e+00 -0.000000e+00
   outer loop
     vertex  4.477954e-01 -3.227510e-02 -1.587302e-02
     vertex -3.333339e-02 -3.227510e-02 -3.174603e-02
     vertex  4.477954e-01 -3.227510e-02 -3.174603e-02
   endloop
 endfacet
 facet normal  0.000000e+00  0.000000e+00  1.000000e+00
   outer loop
     vertex  4.477954e-01  1.850089e-01  1.269842e-01
     vertex -3.333339e-02 -3.227510e-02  1.269842e-01
     vertex  4.477954e-01 -3.227510e-02  1.269842e-01
   endloop
 endfacet
 facet normal  0.000000e+00  0.000000e+00  1.000000e+00
   outer loop
     vertex  4.477954e-01  1.850089e-01  1.269842e-01
     vertex -3.333339e-02  1.850089e-01  1.269842e-01
     vertex -3.333339e-02 -3.227510e-02  1.269842e-01
   endloop
 endfacet
 facet normal  5.768846e-17  1.000000e+00  0.000000e+00
   outer loop
     vertex -3.333339e-02  1.850089e-01 -1.587302e-02
     vertex  4.477954e-01  1.850089e-01  1.269842e-01
     vertex  4.477954e-01  1.850089e-01 -1.587302e-02
   endloop
 endfacet
 facet normal  5.768846e-17  1.000000e+00 -0.000000e+00
   outer loop
     vertex -3.333339e-02  1.850089e-01 -1.587302e-02
     vertex -3.333339e-02  1.850089e-01  1.269842e-01
     vertex  4.477954e-01  1.850089e-01  1.269842e-01
   endloop
 endfacet
 facet normal -1.000000e+00  0.000000e+00  0.000000e+00
   outer loop
     vertex -3.333339e-02 -3.227510e-02 -1.587302e-02
     vertex -3.333339e-02  1.850089e-01 -1.587302e-02
     vertex -3.333339e-02  1.850089e-01 -3.174603e-02
   endloop
 endfacet
 facet normal -1.000000e+00  0.000000e+00  0.000000e+00
   outer loop
     vertex -3.333339e-02 -3.227510e-02 -1.587302e-02
     vertex -3.333339e-02  1.850089e-01 -3.174603e-02
     vertex -3.333339e-02 -3.227510e-02 -3.174603e-02
   endloop
 endfacet
 facet normal  1.000000e+00  0.000000e+00  0.000000e+00
   outer loop
     vertex  9.289241e-01  1.850089e-01 -1.587302e-02
     vertex  9.289241e-01 -3.227510e-02  1.269842e-01
     vertex  9.289241e-01 -3.227510e-02 -1.587302e-02
   endloop
 endfacet
 facet normal  1.000000e+00  0.000000e+00 -0.000000e+00
   outer loop
     vertex  9.289241e-01  1.850089e-01 -1.587302e-02
     vertex  9.289241e-01  1.850089e-01  1.269842e-01
     vertex  9.289241e-01 -3.227510e-02  1.269842e-01
   endloop
 endfacet
 facet normal -0.000000e+00 -1.000000e+00  0.000000e+00
   outer loop
     vertex  9.289241e-01 -3.227510e-02 -1.587302e-02
     vertex  4.477954e-01 -3.227510e-02 -1.587302e-02
     vertex  4.477954e-01 -3.227510e-02 -3.174603e-02
   endloop
 endfacet
 facet normal  0.000000e+00 -1.000000e+00 -0.000000e+00
   outer loop
     vertex  9.289241e-01 -3.227510e-02 -1.587302e-02
     vertex  4.477954e-01 -3.227510e-02 -3.174603e-02
     vertex  9.289241e-01 -3.227510e-02 -3.174603e-02
   endloop
 endfacet
 facet normal  0.000000e+00  0.000000e+00  1.000000e+00
   outer loop
     vertex  9.289241e-01  1.850089e-01  1.269842e-01
     vertex  4.477954e-01 -3.227510e-02  1.269842e-01
     vertex  9.289241e-01 -3.227510e-02  1.269842e-01
   endloop
 endfacet
 facet normal  0.000000e+00  0.000000e+00  1.000000e+00
   outer loop
     vertex  9.289241e-01  1.850089e-01  1.269842e-01
     vertex  4.477954e-01  1.850089e-01  1.269842e-01
     vertex  4.477954e-01 -3.227510e-02  1.269842e-01
   endloop
 endfacet
 facet normal  0.000000e+00 -0.000000e+00 -1.000000e+00
   outer loop
     vertex  4.477954e-01  1.850089e-01 -3.174603e-02
     vertex  4.477954e-01 -3.227510e-02 -3.174603e-02
     vertex -3.333339e-02 -3.227510e-02 -3.174603e-02
   endloop
 endfacet
 facet normal -0.000000e+00  0.000000e+00 -1.000000e+00
   outer loop
     vertex  4.477954e-01  1.850089e-01 -3.174603e-02
     vertex -3.333339e-02 -3.227510e-02 -3.174603e-02
     vertex -3.333339e-02  1.850089e-01 -3.174603e-02
   endloop
 endfacet
 facet normal -5.768845e-17  1.000000e+00  0.000000e+00
   outer loop
     vertex  4.477954e-01  1.850089e-01 -1.587302e-02
     vertex  9.289241e-01  1.850089e-01  1.269842e-01
     vertex  9.289241e-01  1.850089e-01 -1.587302e-02
   endloop
 endfacet
 facet normal -5.768845e-17  1.000000e+00  0.000000e+00
   outer loop
     vertex  4.477954e-01  1.850089e-01 -1.587302e-02
     vertex  4.477954e-01  1.850089e-01  1.269842e-01
     vertex  9.289241e-01  1.850089e-01  1.269842e-01
   endloop
 endfacet
 facet normal  5.768846e-17  1.000000e+00  0.000000e+00
   outer loop
     vertex -3.333339e-02  1.850089e-01 -1.587302e-02
     vertex  4.477954e-01  1.850089e-01 -1.587302e-02
     vertex  4.477954e-01  1.850089e-01 -3.174603e-02
   endloop
 endfacet
 facet normal  5.768846e-17  1.000000e+00  0.000000e+00
   outer loop
     vertex -3.333339e-02  1.850089e-01 -1.587302e-02
     vertex  4.477954e-01  1.850089e-01 -3.174603e-02
     vertex -3.333339e-02  1.850089e-01 -3.174603e-02
   endloop
 endfacet
 facet normal  1.000000e+00  0.000000e+00  0.000000e+00
   outer loop
     vertex  9.289241e-01  1.850089e-01 -1.587302e-02
     vertex  9.289241e-01 -3.227510e-02 -1.587302e-02
     vertex  9.289241e-01 -3.227510e-02 -3.174603e-02
   endloop
 endfacet
 facet normal  1.000000e+00  0.000000e+00  0.000000e+00
   outer loop
     vertex  9.289241e-01  1.850089e-01 -1.587302e-02
     vertex  9.289241e-01 -3.227510e-02 -3.174603e-02
     vertex  9.289241e-01  1.850089e-01 -3.174603e-02
   endloop
 endfacet
 facet normal  0.000000e+00 -0.000000e+00 -1.000000e+00
   outer loop
     vertex  9.289241e-01  1.850089e-01 -3.174603e-02
     vertex  9.289241e-01 -3.227510e-02 -3.174603e-02
     vertex  4.477954e-01 -3.227510e-02 -3.174603e-02
   endloop
 endfacet
 facet normal  0.000000e+00  0.000000e+00 -1.000000e+00
   outer loop
     vertex  9.289241e-01  1.850089e-01 -3.174603e-02
     vertex  4.477954e-01 -3.227510e-02 -3.174603e-02
     vertex  4.477954e-01  1.850089e-01 -3.174603e-02
   endloop
 endfacet
 facet normal -5.768845e-17  1.000000e+00  0.000000e+00
   outer loop
     vertex  4.477954e-01  1.850089e-01 -1.587302e-02
     vertex  9.289241e-01  1.850089e-01 -1.587302e-02
     vertex  9.289241e-01  1.850089e-01 -3.174603e-02
   endloop
 endfacet
 facet normal -5.768845e-17  1.000000e+00  0.000000e+00
   outer loop
     vertex  4.477954e-01  1.850089e-01 -1.587302e-02
     vertex  9.289241e-01  1.850089e-01 -3.174603e-02
     vertex  4.477954e-01  1.850089e-01 -3.174603e-02
   endloop
 endfacet
endsolid
