solid 
 facet normal -0.000000e+00 -1.000000e+00  0.000000e+00
   outer loop
     vertex -4.880070e-01 -6.844797e-01  2.857143e-01
     vertex -1.020988e+00 -6.844797e-01  2.857143e-01
     vertex -1.020988e+00 -6.844797e-01 -1.587302e-02
   endloop
 endfacet
 facet normal  0.000000e+00 -1.000000e+00  0.000000e+00
   outer loop
     vertex  9.232805e-01 -6.844797e-01 -1.587302e-02
     vertex  9.232805e-01 -6.844797e-01  2.857143e-01
     vertex  4.121693e-01 -6.844797e-01  2.857143e-01
   endloop
 endfacet
 facet normal  0.000000e+00 -1.000000e+00  0.000000e+00
   outer loop
     vertex  9.232805e-01 -6.844797e-01 -1.587302e-02
     vertex -4.880070e-01 -6.844797e-01  2.857143e-01
     vertex -1.020988e+00 -6.844797e-01 -1.587302e-02
   endloop
 endfacet
 facet normal  0.000000e+00 -1.000000e+00  0.000000e+00
   outer loop
     vertex  9.232805e-01 -6.844797e-01 -1.587302e-02
     vertex  4.121693e-01 -6.844797e-01  2.857143e-01
     vertex -4.880070e-01 -6.844797e-01  2.857143e-01
   endloop
 endfacet
 facet normal -1.000000e+00  0.000000e+00  0.000000e+00
   outer loop
     vertex -1.020988e+00 -6.844797e-01 -1.587302e-02
     vertex -1.020988e+00  5.867726e-01  2.857143e-01
     vertex -1.020988e+00  5.867726e-01 -1.587302e-02
   endloop
 endfacet
 facet normal -1.000000e+00  0.000000e+00  0.000000e+00
   outer loop
     vertex -1.020988e+00 -6.844797e-01 -1.587302e-02
     vertex -1.020988e+00 -6.844797e-01  2.857143e-01
     vertex -1.020988e+00  5.867726e-01  2.857143e-01
   endloop
 endfacet
 facet normal  1.000000e+00  0.000000e+00  0.000000e+00
   outer loop
     vertex  9.232805e-01  5.867726e-01 -1.587302e-02
     vertex  9.232805e-01 -6.844797e-01  2.857143e-01
     vertex  9.232805e-01 -6.844797e-01 -1.587302e-02
   endloop
 endfacet
 facet normal  1.000000e+00  0.000000e+00 -0.000000e+00
   outer loop
     vertex  9.232805e-01  5.867726e-01 -1.587302e-02
     vertex  9.232805e-01  5.867726e-01  2.857143e-01
     vertex  9.232805e-01 -6.844797e-01  2.857143e-01
   endloop
 endfacet
 facet normal -0.000000e+00 -1.000000e+00  0.000000e+00
   outer loop
     vertex  9.232805e-01 -6.844797e-01 -1.587302e-02
     vertex -1.020988e+00 -6.844797e-01 -1.587302e-02
     vertex -1.020988e+00 -6.844797e-01 -3.174603e-02
   endloop
 endfacet
 facet normal  0.000000e+00 -1.000000e+00 -0.000000e+00
   outer loop
     vertex  9.232805e-01 -6.844797e-01 -1.587302e-02
     vertex -1.020988e+00 -6.844797e-01 -3.174603e-02
     vertex  9.232805e-01 -6.844797e-01 -3.174603e-02
   endloop
 endfacet
 facet normal  0.000000e+00  0.000000e+00  1.000000e+00
   outer loop
     vertex -4.880070e-01 -5.088183e-01  2.857143e-01
     vertex -1.020988e+00 -6.844797e-01  2.857143e-01
     vertex -4.880070e-01 -6.844797e-01  2.857143e-01
   endloop
 endfacet
 facet normal  0.000000e+00  0.000000e+00  1.000000e+00
   outer loop
     vertex -1.020988e+00  5.867726e-01  2.857143e-01
     vertex -1.020988e+00 -6.844797e-01  2.857143e-01
     vertex -4.880070e-01 -5.088183e-01  2.857143e-01
   endloop
 endfacet
 facet normal  0.000000e+00  0.000000e+00  1.000000e+00
   outer loop
     vertex  9.232805e-01 -6.844797e-01  2.857143e-01
     vertex  4.121693e-01 -5.088183e-01  2.857143e-01
     vertex  4.121693e-01 -6.844797e-01  2.857143e-01
   endloop
 endfacet
 facet normal  0.000000e+00  0.000000e+00  1.000000e+00
   outer loop
     vertex  9.232805e-01  5.867726e-01  2.857143e-01
     vertex -4.880070e-01 -5.088183e-01  2.857143e-01
     vertex  4.121693e-01 -5.088183e-01  2.857143e-01
   endloop
 endfacet
 facet normal  0.000000e+00  0.000000e+00  1.000000e+00
   outer loop
     vertex  9.232805e-01  5.867726e-01  2.857143e-01
     vertex -1.020988e+00  5.867726e-01  2.857143e-01
     vertex -4.880070e-01 -5.088183e-01  2.857143e-01
   endloop
 endfacet
 facet normal  0.000000e+00  0.000000e+00  1.000000e+00
   outer loop
     vertex  9.232805e-01  5.867726e-01  2.857143e-01
     vertex  4.121693e-01 -5.088183e-01  2.857143e-01
     vertex  9.232805e-01 -6.844797e-01  2.857143e-01
   endloop
 endfacet
 facet normal -0.000000e+00  0.000000e+00 -1.000000e+00
   outer loop
     vertex  4.121693e-01 -6.844797e-01  2.857143e-01
     vertex -4.880070e-01 -8.813051e-01  2.857143e-01
     vertex -4.880070e-01 -6.844797e-01  2.857143e-01
   endloop
 endfacet
 facet normal  0.000000e+00  0.000000e+00 -1.000000e+00
   outer loop
     vertex  4.121693e-01 -6.844797e-01  2.857143e-01
     vertex  4.121693e-01 -8.813051e-01  2.857143e-01
     vertex -4.880070e-01 -8.813051e-01  2.857143e-01
   endloop
 endfacet
 facet normal  0.000000e+00  1.000000e+00  0.000000e+00
   outer loop
     vertex -1.020988e+00  5.867726e-01 -1.587302e-02
     vertex  9.232805e-01  5.867726e-01  2.857143e-01
     vertex  9.232805e-01  5.867726e-01 -1.587302e-02
   endloop
 endfacet
 facet normal  0.000000e+00  1.000000e+00  0.000000e+00
   outer loop
     vertex -1.020988e+00  5.867726e-01 -1.587302e-02
     vertex -1.020988e+00  5.867726e-01  2.857143e-01
     vertex  9.232805e-01  5.867726e-01  2.857143e-01
   endloop
 endfacet
 facet normal -1.000000e+00  0.000000e+00  0.000000e+00
   outer loop
     vertex -1.020988e+00 -6.844797e-01 -1.587302e-02
     vertex -1.020988e+00  5.867726e-01 -1.587302e-02
     vertex -1.020988e+00  5.867726e-01 -3.174603e-02
   endloop
 endfacet
 facet normal -1.000000e+00  0.000000e+00  0.000000e+00
   outer loop
     vertex -1.020988e+00 -6.844797e-01 -1.587302e-02
     vertex -1.020988e+00  5.867726e-01 -3.174603e-02
     vertex -1.020988e+00 -6.844797e-01 -3.174603e-02
   endloop
 endfacet
 facet normal  1.000000e+00  0.000000e+00  0.000000e+00
   outer loop
     vertex  9.232805e-01  5.867726e-01 -1.587302e-02
     vertex  9.232805e-01 -6.844797e-01 -1.587302e-02
     vertex  9.232805e-01 -6.844797e-01 -3.174603e-02
   endloop
 endfacet
 facet normal  1.000000e+00  0.000000e+00  0.000000e+00
   outer loop
     vertex  9.232805e-01  5.867726e-01 -1.587302e-02
     vertex  9.232805e-01 -6.844797e-01 -3.174603e-02
     vertex  9.232805e-01  5.867726e-01 -3.174603e-02
   endloop
 endfacet
 facet normal  0.000000e+00 -0.000000e+00 -1.000000e+00
   outer loop
     vertex  9.232805e-01  5.867726e-01 -3.174603e-02
     vertex  9.232805e-01 -6.844797e-01 -3.174603e-02
     vertex -1.020988e+00 -6.844797e-01 -3.174603e-02
   endloop
 endfacet
 facet normal -0.000000e+00  0.000000e+00 -1.000000e+00
   outer loop
     vertex  9.232805e-01  5.867726e-01 -3.174603e-02
     vertex -1.020988e+00 -6.844797e-01 -3.174603e-02
     vertex -1.020988e+00  5.867726e-01 -3.174603e-02
   endloop
 endfacet
 facet normal  1.000000e+00 -2.820325e-16  0.000000e+00
   outer loop
     vertex  4.121693e-01 -6.844797e-01  2.857143e-01
     vertex  4.121693e-01 -8.813051e-01  3.015873e-01
     vertex  4.121693e-01 -8.813051e-01  2.857143e-01
   endloop
 endfacet
 facet normal  1.000000e+00  3.160123e-16  0.000000e+00
   outer loop
     vertex  4.121693e-01 -5.088183e-01  3.015873e-01
     vertex  4.121693e-01 -6.844797e-01  2.857143e-01
     vertex  4.121693e-01 -5.088183e-01  2.857143e-01
   endloop
 endfacet
 facet normal  1.000000e+00  0.000000e+00  3.497203e-15
   outer loop
     vertex  4.121693e-01 -5.088183e-01  3.015873e-01
     vertex  4.121693e-01 -8.813051e-01  3.015873e-01
     vertex  4.121693e-01 -6.844797e-01  2.857143e-01
   endloop
 endfacet
 facet normal -0.000000e+00  1.000000e+00  0.000000e+00
   outer loop
     vertex -4.880070e-01 -5.088183e-01  3.015873e-01
     vertex  4.121693e-01 -5.088183e-01  3.015873e-01
     vertex  4.121693e-01 -5.088183e-01  2.857143e-01
   endloop
 endfacet
 facet normal  0.000000e+00  1.000000e+00  0.000000e+00
   outer loop
     vertex -4.880070e-01 -5.088183e-01  3.015873e-01
     vertex  4.121693e-01 -5.088183e-01  2.857143e-01
     vertex -4.880070e-01 -5.088183e-01  2.857143e-01
   endloop
 endfacet
 facet normal -1.000000e+00 -3.160123e-16  0.000000e+00
   outer loop
     vertex -4.880070e-01 -6.844797e-01  2.857143e-01
     vertex -4.880070e-01 -5.088183e-01  3.015873e-01
     vertex -4.880070e-01 -5.088183e-01  2.857143e-01
   endloop
 endfacet
 facet normal -1.000000e+00  2.820325e-16  0.000000e+00
   outer loop
     vertex -4.880070e-01 -8.813051e-01  3.015873e-01
     vertex -4.880070e-01 -6.844797e-01  2.857143e-01
     vertex -4.880070e-01 -8.813051e-01  2.857143e-01
   endloop
 endfacet
 facet normal -1.000000e+00  0.000000e+00 -3.497203e-15
   outer loop
     vertex -4.880070e-01 -8.813051e-01  3.015873e-01
     vertex -4.880070e-01 -5.088183e-01  3.015873e-01
     vertex -4.880070e-01 -6.844797e-01  2.857143e-01
   endloop
 endfacet
 facet normal -0.000000e+00 -1.000000e+00  0.000000e+00
   outer loop
     vertex  4.121693e-01 -8.813051e-01  3.015873e-01
     vertex -4.880070e-01 -8.813051e-01  3.015873e-01
     vertex -4.880070e-01 -8.813051e-01  2.857143e-01
   endloop
 endfacet
 facet normal  0.000000e+00 -1.000000e+00 -0.000000e+00
   outer loop
     vertex  4.121693e-01 -8.813051e-01  3.015873e-01
     vertex -4.880070e-01 -8.813051e-01  2.857143e-01
     vertex  4.121693e-01 -8.813051e-01  2.857143e-01
   endloop
 endfacet
 facet normal -0.000000e+00  1.000000e+00  0.000000e+00
   outer loop
     vertex -1.020988e+00  5.867726e-01 -1.587302e-02
     vertex  9.232805e-01  5.867726e-01 -1.587302e-02
     vertex  9.232805e-01  5.867726e-01 -3.174603e-02
   endloop
 endfacet
 facet normal  0.000000e+00  1.000000e+00  0.000000e+00
   outer loop
     vertex -1.020988e+00  5.867726e-01 -1.587302e-02
     vertex  9.232805e-01  5.867726e-01 -3.174603e-02
     vertex -1.020988e+00  5.867726e-01 -3.174603e-02
   endloop
 endfacet
 facet normal  1.000000e+00  0.000000e+00  0.000000e+00
   outer loop
     vertex  4.121693e-01 -5.088183e-01  3.015873e-01
     vertex  4.121693e-01 -8.813051e-01  5.079366e-01
     vertex  4.121693e-01 -8.813051e-01  3.015873e-01
   endloop
 endfacet
 facet normal  1.000000e+00  0.000000e+00 -0.000000e+00
   outer loop
     vertex  4.121693e-01 -5.088183e-01  3.015873e-01
     vertex  4.121693e-01 -5.088183e-01  5.079366e-01
     vertex  4.121693e-01 -8.813051e-01  5.079366e-01
   endloop
 endfacet
 facet normal  0.000000e+00  1.000000e+00  0.000000e+00
   outer loop
     vertex -4.880070e-01 -5.088183e-01  3.015873e-01
     vertex  4.121693e-01 -5.088183e-01  5.079366e-01
     vertex  4.121693e-01 -5.088183e-01  3.015873e-01
   endloop
 endfacet
 facet normal  0.000000e+00  1.000000e+00  0.000000e+00
   outer loop
     vertex -4.880070e-01 -5.088183e-01  3.015873e-01
     vertex -4.880070e-01 -5.088183e-01  5.079366e-01
     vertex  4.121693e-01 -5.088183e-01  5.079366e-01
   endloop
 endfacet
 facet normal -1.000000e+00  0.000000e+00  0.000000e+00
   outer loop
     vertex -4.880070e-01 -8.813051e-01  3.015873e-01
     vertex -4.880070e-01 -5.088183e-01  5.079366e-01
     vertex -4.880070e-01 -5.088183e-01  3.015873e-01
   endloop
 endfacet
 facet normal -1.000000e+00  0.000000e+00  0.000000e+00
   outer loop
     vertex -4.880070e-01 -8.813051e-01  3.015873e-01
     vertex -4.880070e-01 -8.813051e-01  5.079366e-01
     vertex -4.880070e-01 -5.088183e-01  5.079366e-01
   endloop
 endfacet
 facet normal  0.000000e+00 -1.000000e+00  0.000000e+00
   outer loop
     vertex  4.121693e-01 -8.813051e-01  3.015873e-01
     vertex -4.880070e-01 -8.813051e-01  5.079366e-01
     vertex -4.880070e-01 -8.813051e-01  3.015873e-01
   endloop
 endfacet
 facet normal  0.000000e+00 -1.000000e+00  0.000000e+00
   outer loop
     vertex  4.121693e-01 -8.813051e-01  3.015873e-01
     vertex  4.121693e-01 -8.813051e-01  5.079366e-01
     vertex -4.880070e-01 -8.813051e-01  5.079366e-01
   endloop
 endfacet
 facet normal  0.000000e+00  0.000000e+00  1.000000e+00
   outer loop
     vertex  4.121693e-01 -5.088183e-01  5.079366e-01
     vertex -4.880070e-01 -8.813051e-01  5.079366e-01
     vertex  4.121693e-01 -8.813051e-01  5.079366e-01
   endloop
 endfacet
 facet normal  0.000000e+00  0.000000e+00  1.000000e+00
   outer loop
     vertex  4.121693e-01 -5.088183e-01  5.079366e-01
     vertex -4.880070e-01 -5.088183e-01  5.079366e-01
     vertex -4.880070e-01 -8.813051e-01  5.079366e-01
   endloop
 endfacet
endsolid
