solid 
 facet normal -0.000000e+00  0.000000e+00 -1.000000e+00
   outer loop
     vertex  4.890652e-01 -1.587302e-02 -4.382717e-01
     vertex -1.034744e+00 -8.888889e-01 -4.382717e-01
     vertex -1.034744e+00 -1.587302e-02 -4.382717e-01
   endloop
 endfacet
 facet normal  0.000000e+00 -0.000000e+00 -1.000000e+00
   outer loop
     vertex  4.890652e-01 -1.587302e-02 -4.382717e-01
     vertex  4.890652e-01 -8.888889e-01 -4.382717e-01
     vertex -1.034744e+00 -8.888889e-01 -4.382717e-01
   endloop
 endfacet
 facet normal -1.000000e+00  0.000000e+00  0.000000e+00
   outer loop
     vertex -1.034744e+00 -1.587302e-02 -4.382717e-01
     vertex -1.034744e+00 -8.888889e-01 -9.964730e-02
     vertex -1.034744e+00 -1.587302e-02 -9.964730e-02
   endloop
 endfacet
 facet normal -1.000000e+00  0.000000e+00  0.000000e+00
   outer loop
     vertex -1.034744e+00 -1.587302e-02 -4.382717e-01
     vertex -1.034744e+00 -8.888889e-01 -4.382717e-01
     vertex -1.034744e+00 -8.888889e-01 -9.964730e-02
   endloop
 endfacet
 facet normal  1.000000e+00  0.000000e+00  0.000000e+00
   outer loop
     vertex  4.890652e-01 -1.587302e-02  5.211640e-01
     vertex  4.890652e-01 -8.888889e-01 -4.382717e-01
     vertex  4.890652e-01 -1.587302e-02 -4.382717e-01
   endloop
 endfacet
 facet normal  1.000000e+00  0.000000e+00  0.000000e+00
   outer loop
     vertex  4.890652e-01 -1.587302e-02  5.211640e-01
     vertex  4.890652e-01 -8.888889e-01  5.211640e-01
     vertex  4.890652e-01 -8.888889e-01 -4.382717e-01
   endloop
 endfacet
 facet normal  0.000000e+00  0.000000e+00 -1.000000e+00
   outer loop
     vertex  4.890652e-01 -1.587302e-02 -4.382717e-01
     vertex -1.034744e+00 -1.587302e-02 -4.382717e-01
     vertex -1.034744e+00  0.000000e+00 -4.382717e-01
   endloop
 endfacet
 facet normal  0.000000e+00  0.000000e+00 -1.000000e+00
   outer loop
     vertex  4.890652e-01 -1.587302e-02 -4.382717e-01
     vertex -1.034744e+00  0.000000e+00 -4.382717e-01
     vertex  4.890652e-01  0.000000e+00 -4.382717e-01
   endloop
 endfacet
 facet normal -0.000000e+00 -1.000000e+00  0.000000e+00
   outer loop
     vertex -6.396825e-01 -8.888889e-01 -9.964730e-02
     vertex -1.034744e+00 -8.888889e-01 -9.964730e-02
     vertex -1.034744e+00 -8.888889e-01 -4.382717e-01
   endloop
 endfacet
 facet normal  0.000000e+00 -1.000000e+00  0.000000e+00
   outer loop
     vertex  4.890652e-01 -8.888889e-01 -4.382717e-01
     vertex -6.396825e-01 -8.888889e-01 -9.964730e-02
     vertex -1.034744e+00 -8.888889e-01 -4.382717e-01
   endloop
 endfacet
 facet normal  0.000000e+00 -1.000000e+00 -0.000000e+00
   outer loop
     vertex  9.400356e-02 -8.888889e-01  1.825397e-01
     vertex -6.396825e-01 -8.888889e-01 -9.964730e-02
     vertex  4.890652e-01 -8.888889e-01 -4.382717e-01
   endloop
 endfacet
 facet normal  0.000000e+00 -1.000000e+00 -0.000000e+00
   outer loop
     vertex  4.890652e-01 -8.888889e-01  5.211640e-01
     vertex  9.400356e-02 -8.888889e-01  1.825397e-01
     vertex  4.890652e-01 -8.888889e-01 -4.382717e-01
   endloop
 endfacet
 facet normal -0.000000e+00  0.000000e+00  1.000000e+00
   outer loop
     vertex -1.034744e+00 -1.587302e-02 -9.964730e-02
     vertex -6.396825e-01 -8.888889e-01 -9.964730e-02
     vertex -6.396825e-01 -1.587302e-02 -9.964730e-02
   endloop
 endfacet
 facet normal  0.000000e+00  0.000000e+00  1.000000e+00
   outer loop
     vertex -1.034744e+00 -1.587302e-02 -9.964730e-02
     vertex -1.034744e+00 -8.888889e-01 -9.964730e-02
     vertex -6.396825e-01 -8.888889e-01 -9.964730e-02
   endloop
 endfacet
 facet normal -1.000000e+00  0.000000e+00  0.000000e+00
   outer loop
     vertex -1.034744e+00 -1.587302e-02 -4.382717e-01
     vertex -1.034744e+00 -1.587302e-02 -9.964730e-02
     vertex -1.034744e+00  0.000000e+00 -9.964730e-02
   endloop
 endfacet
 facet normal -1.000000e+00  0.000000e+00  0.000000e+00
   outer loop
     vertex -1.034744e+00 -1.587302e-02 -4.382717e-01
     vertex -1.034744e+00  0.000000e+00 -9.964730e-02
     vertex -1.034744e+00  0.000000e+00 -4.382717e-01
   endloop
 endfacet
 facet normal -6.507914e-01  0.000000e+00  7.592566e-01
   outer loop
     vertex  9.400356e-02 -1.587302e-02  1.825397e-01
     vertex  4.890652e-01 -8.888889e-01  5.211640e-01
     vertex  4.890652e-01 -1.587302e-02  5.211640e-01
   endloop
 endfacet
 facet normal -6.507914e-01  0.000000e+00  7.592566e-01
   outer loop
     vertex  9.400356e-02 -1.587302e-02  1.825397e-01
     vertex  9.400356e-02 -8.888889e-01  1.825397e-01
     vertex  4.890652e-01 -8.888889e-01  5.211640e-01
   endloop
 endfacet
 facet normal  1.000000e+00  0.000000e+00  0.000000e+00
   outer loop
     vertex  4.890652e-01 -1.587302e-02  5.211640e-01
     vertex  4.890652e-01 -1.587302e-02 -4.382717e-01
     vertex  4.890652e-01  0.000000e+00 -4.382717e-01
   endloop
 endfacet
 facet normal  1.000000e+00 -0.000000e+00  0.000000e+00
   outer loop
     vertex  4.890652e-01 -1.587302e-02  5.211640e-01
     vertex  4.890652e-01  0.000000e+00 -4.382717e-01
     vertex  4.890652e-01  0.000000e+00  5.211640e-01
   endloop
 endfacet
 facet normal  0.000000e+00  1.000000e+00  0.000000e+00
   outer loop
     vertex -6.396825e-01 -4.510281e-17 -9.964730e-02
     vertex -1.034744e+00 -4.510281e-17 -4.382717e-01
     vertex -1.034744e+00 -4.510281e-17 -9.964730e-02
   endloop
 endfacet
 facet normal  0.000000e+00  1.000000e+00  0.000000e+00
   outer loop
     vertex  4.890652e-01 -4.510281e-17 -4.382717e-01
     vertex -1.034744e+00 -4.510281e-17 -4.382717e-01
     vertex -6.396825e-01 -4.510281e-17 -9.964730e-02
   endloop
 endfacet
 facet normal  0.000000e+00  1.000000e+00  0.000000e+00
   outer loop
     vertex  9.400356e-02 -4.510281e-17  1.825397e-01
     vertex  4.890652e-01 -4.510281e-17 -4.382717e-01
     vertex -6.396825e-01 -4.510281e-17 -9.964730e-02
   endloop
 endfacet
 facet normal  0.000000e+00  1.000000e+00  0.000000e+00
   outer loop
     vertex  4.890652e-01 -4.510281e-17  5.211640e-01
     vertex  4.890652e-01 -4.510281e-17 -4.382717e-01
     vertex  9.400356e-02 -4.510281e-17  1.825397e-01
   endloop
 endfacet
 facet normal -3.589791e-01  0.000000e+00  9.333456e-01
   outer loop
     vertex -6.396825e-01 -1.587302e-02 -9.964730e-02
     vertex  9.400356e-02 -8.888889e-01  1.825397e-01
     vertex  9.400356e-02 -1.587302e-02  1.825397e-01
   endloop
 endfacet
 facet normal -3.589791e-01  0.000000e+00  9.333456e-01
   outer loop
     vertex -6.396825e-01 -1.587302e-02 -9.964730e-02
     vertex -6.396825e-01 -8.888889e-01 -9.964730e-02
     vertex  9.400356e-02 -8.888889e-01  1.825397e-01
   endloop
 endfacet
 facet normal  0.000000e+00  0.000000e+00  1.000000e+00
   outer loop
     vertex -1.034744e+00 -1.587302e-02 -9.964730e-02
     vertex -6.396825e-01 -1.587302e-02 -9.964730e-02
     vertex -6.396825e-01  0.000000e+00 -9.964730e-02
   endloop
 endfacet
 facet normal  0.000000e+00  0.000000e+00  1.000000e+00
   outer loop
     vertex -1.034744e+00 -1.587302e-02 -9.964730e-02
     vertex -6.396825e-01  0.000000e+00 -9.964730e-02
     vertex -1.034744e+00  0.000000e+00 -9.964730e-02
   endloop
 endfacet
 facet normal -6.507914e-01  0.000000e+00  7.592566e-01
   outer loop
     vertex  9.400356e-02 -1.587302e-02  1.825397e-01
     vertex  4.890652e-01 -1.587302e-02  5.211640e-01
     vertex  4.890652e-01  0.000000e+00  5.211640e-01
   endloop
 endfacet
 facet normal -6.507914e-01  0.000000e+00  7.592566e-01
   outer loop
     vertex  9.400356e-02 -1.587302e-02  1.825397e-01
     vertex  4.890652e-01  0.000000e+00  5.211640e-01
     vertex  9.400356e-02  0.000000e+00  1.825397e-01
   endloop
 endfacet
 facet normal -3.589791e-01  0.000000e+00  9.333456e-01
   outer loop
     vertex -6.396825e-01 -1.587302e-02 -9.964730e-02
     vertex  9.400356e-02 -1.587302e-02  1.825397e-01
     vertex  9.400356e-02  0.000000e+00  1.825397e-01
   endloop
 endfacet
 facet normal -3.589791e-01  0.000000e+00  9.333456e-01
   outer loop
     vertex -6.396825e-01 -1.587302e-02 -9.964730e-02
     vertex  9.400356e-02  0.000000e+00  1.825397e-01
     vertex -6.396825e-01  0.000000e+00 -9.964730e-02
   endloop
 endfacet
endsolid
