solid 
 facet normal  0.000000e+00 -1.000000e+00  0.000000e+00
   outer loop
     vertex -4.850087e-02 -3.544986e-02 -1.587302e-02
     vertex -1.000882e+00 -3.544986e-02  1.269842e-01
     vertex -1.000882e+00 -3.544986e-02 -1.587302e-02
   endloop
 endfacet
 facet normal  0.000000e+00 -1.000000e+00  0.000000e+00
   outer loop
     vertex -4.850087e-02 -3.544986e-02 -1.587302e-02
     vertex -4.850087e-02 -3.544986e-02  1.269842e-01
     vertex -1.000882e+00 -3.544986e-02  1.269842e-01
   endloop
 endfacet
 facet normal -1.000000e+00  0.000000e+00  0.000000e+00
   outer loop
     vertex -1.000882e+00 -3.544986e-02 -1.587302e-02
     vertex -1.000882e+00  5.289240e-01  1.269842e-01
     vertex -1.000882e+00  5.289240e-01 -1.587302e-02
   endloop
 endfacet
 facet normal -1.000000e+00  0.000000e+00  0.000000e+00
   outer loop
     vertex -1.000882e+00 -3.544986e-02 -1.587302e-02
     vertex -1.000882e+00 -3.544986e-02  1.269842e-01
     vertex -1.000882e+00  5.289240e-01  1.269842e-01
   endloop
 endfacet
 facet normal  1.000000e+00  0.000000e+00  0.000000e+00
   outer loop
     vertex -4.850087e-02  5.289240e-01 -1.587302e-02
     vertex -4.850087e-02 -3.544986e-02  1.269842e-01
     vertex -4.850087e-02 -3.544986e-02 -1.587302e-02
   endloop
 endfacet
 facet normal  1.000000e+00  0.000000e+00 -0.000000e+00
   outer loop
     vertex -4.850087e-02  5.289240e-01 -1.587302e-02
     vertex -4.850087e-02  5.289240e-01  1.269842e-01
     vertex -4.850087e-02 -3.544986e-02  1.269842e-01
   endloop
 endfacet
 facet normal -0.000000e+00 -1.000000e+00  0.000000e+00
   outer loop
     vertex -4.850087e-02 -3.544986e-02 -1.587302e-02
     vertex -1.000882e+00 -3.544986e-02 -1.587302e-02
     vertex -1.000882e+00 -3.544986e-02 -3.174603e-02
   endloop
 endfacet
 facet normal  0.000000e+00 -1.000000e+00 -0.000000e+00
   outer loop
     vertex -4.850087e-02 -3.544986e-02 -1.587302e-02
     vertex -1.000882e+00 -3.544986e-02 -3.174603e-02
     vertex -4.850087e-02 -3.544986e-02 -3.174603e-02
   endloop
 endfacet
 facet normal  0.000000e+00  0.000000e+00  1.000000e+00
   outer loop
     vertex -8.520666e-01  3.479152e-01  1.269842e-01
     vertex -8.608184e-01  3.556686e-01  1.269842e-01
     vertex -1.000882e+00 -3.544986e-02  1.269842e-01
   endloop
 endfacet
 facet normal  0.000000e+00  0.000000e+00  1.000000e+00
   outer loop
     vertex -8.674604e-01  3.652911e-01  1.269842e-01
     vertex -1.000882e+00 -3.544986e-02  1.269842e-01
     vertex -8.608184e-01  3.556686e-01  1.269842e-01
   endloop
 endfacet
 facet normal  0.000000e+00  0.000000e+00  1.000000e+00
   outer loop
     vertex -8.417137e-01  3.424815e-01  1.269842e-01
     vertex -8.520666e-01  3.479152e-01  1.269842e-01
     vertex -1.000882e+00 -3.544986e-02  1.269842e-01
   endloop
 endfacet
 facet normal  0.000000e+00  0.000000e+00  1.000000e+00
   outer loop
     vertex -8.303611e-01  3.396833e-01  1.269842e-01
     vertex -8.417137e-01  3.424815e-01  1.269842e-01
     vertex -1.000882e+00 -3.544986e-02  1.269842e-01
   endloop
 endfacet
 facet normal  0.000000e+00  0.000000e+00  1.000000e+00
   outer loop
     vertex -8.186689e-01  3.396833e-01  1.269842e-01
     vertex -8.303611e-01  3.396833e-01  1.269842e-01
     vertex -1.000882e+00 -3.544986e-02  1.269842e-01
   endloop
 endfacet
 facet normal  0.000000e+00  0.000000e+00  1.000000e+00
   outer loop
     vertex -1.000882e+00  5.289240e-01  1.269842e-01
     vertex -8.730159e-01  3.878306e-01  1.269842e-01
     vertex -8.716065e-01  3.994376e-01  1.269842e-01
   endloop
 endfacet
 facet normal  0.000000e+00  0.000000e+00  1.000000e+00
   outer loop
     vertex -1.000882e+00  5.289240e-01  1.269842e-01
     vertex -8.716065e-01  3.762236e-01  1.269842e-01
     vertex -8.730159e-01  3.878306e-01  1.269842e-01
   endloop
 endfacet
 facet normal  0.000000e+00  0.000000e+00  1.000000e+00
   outer loop
     vertex -1.000882e+00  5.289240e-01  1.269842e-01
     vertex -8.674604e-01  3.652911e-01  1.269842e-01
     vertex -8.716065e-01  3.762236e-01  1.269842e-01
   endloop
 endfacet
 facet normal  0.000000e+00  0.000000e+00  1.000000e+00
   outer loop
     vertex -1.000882e+00  5.289240e-01  1.269842e-01
     vertex -1.000882e+00 -3.544986e-02  1.269842e-01
     vertex -8.674604e-01  3.652911e-01  1.269842e-01
   endloop
 endfacet
 facet normal  0.000000e+00  0.000000e+00  1.000000e+00
   outer loop
     vertex -8.073164e-01  3.424815e-01  1.269842e-01
     vertex -8.186689e-01  3.396833e-01  1.269842e-01
     vertex -1.000882e+00 -3.544986e-02  1.269842e-01
   endloop
 endfacet
 facet normal  0.000000e+00  0.000000e+00  1.000000e+00
   outer loop
     vertex -8.674604e-01  4.103701e-01  1.269842e-01
     vertex -1.000882e+00  5.289240e-01  1.269842e-01
     vertex -8.716065e-01  3.994376e-01  1.269842e-01
   endloop
 endfacet
 facet normal  0.000000e+00  0.000000e+00  1.000000e+00
   outer loop
     vertex -8.608184e-01  4.199926e-01  1.269842e-01
     vertex -1.000882e+00  5.289240e-01  1.269842e-01
     vertex -8.674604e-01  4.103701e-01  1.269842e-01
   endloop
 endfacet
 facet normal  0.000000e+00  0.000000e+00  1.000000e+00
   outer loop
     vertex -8.520666e-01  4.277461e-01  1.269842e-01
     vertex -1.000882e+00  5.289240e-01  1.269842e-01
     vertex -8.608184e-01  4.199926e-01  1.269842e-01
   endloop
 endfacet
 facet normal  0.000000e+00  0.000000e+00  1.000000e+00
   outer loop
     vertex -8.417137e-01  4.331797e-01  1.269842e-01
     vertex -1.000882e+00  5.289240e-01  1.269842e-01
     vertex -8.520666e-01  4.277461e-01  1.269842e-01
   endloop
 endfacet
 facet normal  0.000000e+00  0.000000e+00  1.000000e+00
   outer loop
     vertex -8.303611e-01  4.359779e-01  1.269842e-01
     vertex -1.000882e+00  5.289240e-01  1.269842e-01
     vertex -8.417137e-01  4.331797e-01  1.269842e-01
   endloop
 endfacet
 facet normal  0.000000e+00  0.000000e+00  1.000000e+00
   outer loop
     vertex -8.186689e-01  4.359779e-01  1.269842e-01
     vertex -1.000882e+00  5.289240e-01  1.269842e-01
     vertex -8.303611e-01  4.359779e-01  1.269842e-01
   endloop
 endfacet
 facet normal  0.000000e+00  0.000000e+00  1.000000e+00
   outer loop
     vertex -8.073164e-01  4.331797e-01  1.269842e-01
     vertex -1.000882e+00  5.289240e-01  1.269842e-01
     vertex -8.186689e-01  4.359779e-01  1.269842e-01
   endloop
 endfacet
 facet normal  0.000000e+00  0.000000e+00  1.000000e+00
   outer loop
     vertex -2.826833e-01  3.771219e-02  1.269842e-01
     vertex -2.898439e-01  4.405589e-02  1.269842e-01
     vertex -1.000882e+00 -3.544986e-02  1.269842e-01
   endloop
 endfacet
 facet normal  0.000000e+00  0.000000e+00  1.000000e+00
   outer loop
     vertex -2.952782e-01  5.192888e-02  1.269842e-01
     vertex -1.000882e+00 -3.544986e-02  1.269842e-01
     vertex -2.898439e-01  4.405589e-02  1.269842e-01
   endloop
 endfacet
 facet normal  0.000000e+00  0.000000e+00  1.000000e+00
   outer loop
     vertex -2.742127e-01  3.326646e-02  1.269842e-01
     vertex -2.826833e-01  3.771219e-02  1.269842e-01
     vertex -1.000882e+00 -3.544986e-02  1.269842e-01
   endloop
 endfacet
 facet normal  0.000000e+00  0.000000e+00  1.000000e+00
   outer loop
     vertex -2.986705e-01  6.087362e-02  1.269842e-01
     vertex -1.000882e+00 -3.544986e-02  1.269842e-01
     vertex -2.952782e-01  5.192888e-02  1.269842e-01
   endloop
 endfacet
 facet normal  0.000000e+00  0.000000e+00  1.000000e+00
   outer loop
     vertex -2.649243e-01  3.097707e-02  1.269842e-01
     vertex -2.742127e-01  3.326646e-02  1.269842e-01
     vertex -1.000882e+00 -3.544986e-02  1.269842e-01
   endloop
 endfacet
 facet normal  0.000000e+00  0.000000e+00  1.000000e+00
   outer loop
     vertex -2.998236e-01  7.037028e-02  1.269842e-01
     vertex -1.000882e+00 -3.544986e-02  1.269842e-01
     vertex -2.986705e-01  6.087362e-02  1.269842e-01
   endloop
 endfacet
 facet normal  0.000000e+00  0.000000e+00  1.000000e+00
   outer loop
     vertex -2.998236e-01  7.037028e-02  1.269842e-01
     vertex -7.969634e-01  3.479152e-01  1.269842e-01
     vertex -8.073164e-01  3.424815e-01  1.269842e-01
   endloop
 endfacet
 facet normal  0.000000e+00  0.000000e+00  1.000000e+00
   outer loop
     vertex -2.998236e-01  7.037028e-02  1.269842e-01
     vertex -8.073164e-01  3.424815e-01  1.269842e-01
     vertex -1.000882e+00 -3.544986e-02  1.269842e-01
   endloop
 endfacet
 facet normal  0.000000e+00  0.000000e+00  1.000000e+00
   outer loop
     vertex -2.986705e-01  7.986693e-02  1.269842e-01
     vertex -7.969634e-01  3.479152e-01  1.269842e-01
     vertex -2.998236e-01  7.037028e-02  1.269842e-01
   endloop
 endfacet
 facet normal  0.000000e+00  0.000000e+00  1.000000e+00
   outer loop
     vertex -2.986705e-01  7.986693e-02  1.269842e-01
     vertex -7.882116e-01  3.556686e-01  1.269842e-01
     vertex -7.969634e-01  3.479152e-01  1.269842e-01
   endloop
 endfacet
 facet normal  0.000000e+00  0.000000e+00  1.000000e+00
   outer loop
     vertex -2.952782e-01  8.881167e-02  1.269842e-01
     vertex -7.815696e-01  3.652911e-01  1.269842e-01
     vertex -7.882116e-01  3.556686e-01  1.269842e-01
   endloop
 endfacet
 facet normal  0.000000e+00  0.000000e+00  1.000000e+00
   outer loop
     vertex -2.952782e-01  8.881167e-02  1.269842e-01
     vertex -7.882116e-01  3.556686e-01  1.269842e-01
     vertex -2.986705e-01  7.986693e-02  1.269842e-01
   endloop
 endfacet
 facet normal  0.000000e+00  0.000000e+00  1.000000e+00
   outer loop
     vertex -2.898439e-01  9.668467e-02  1.269842e-01
     vertex -7.815696e-01  3.652911e-01  1.269842e-01
     vertex -2.952782e-01  8.881167e-02  1.269842e-01
   endloop
 endfacet
 facet normal  0.000000e+00  0.000000e+00  1.000000e+00
   outer loop
     vertex -2.898439e-01  9.668467e-02  1.269842e-01
     vertex -7.774235e-01  3.762236e-01  1.269842e-01
     vertex -7.815696e-01  3.652911e-01  1.269842e-01
   endloop
 endfacet
 facet normal  0.000000e+00  0.000000e+00  1.000000e+00
   outer loop
     vertex -2.826833e-01  1.030284e-01  1.269842e-01
     vertex -7.774235e-01  3.762236e-01  1.269842e-01
     vertex -2.898439e-01  9.668467e-02  1.269842e-01
   endloop
 endfacet
 facet normal  0.000000e+00  0.000000e+00  1.000000e+00
   outer loop
     vertex -2.826833e-01  1.030284e-01  1.269842e-01
     vertex -7.760141e-01  3.878306e-01  1.269842e-01
     vertex -7.774235e-01  3.762236e-01  1.269842e-01
   endloop
 endfacet
 facet normal  0.000000e+00  0.000000e+00  1.000000e+00
   outer loop
     vertex -2.742127e-01  1.074741e-01  1.269842e-01
     vertex -7.774235e-01  3.994376e-01  1.269842e-01
     vertex -7.760141e-01  3.878306e-01  1.269842e-01
   endloop
 endfacet
 facet normal  0.000000e+00  0.000000e+00  1.000000e+00
   outer loop
     vertex -2.742127e-01  1.074741e-01  1.269842e-01
     vertex -7.760141e-01  3.878306e-01  1.269842e-01
     vertex -2.826833e-01  1.030284e-01  1.269842e-01
   endloop
 endfacet
 facet normal  0.000000e+00  0.000000e+00  1.000000e+00
   outer loop
     vertex -4.850087e-02 -3.544986e-02  1.269842e-01
     vertex -2.216116e-01  7.986693e-02  1.269842e-01
     vertex -2.204585e-01  7.037028e-02  1.269842e-01
   endloop
 endfacet
 facet normal  0.000000e+00  0.000000e+00  1.000000e+00
   outer loop
     vertex -4.850087e-02 -3.544986e-02  1.269842e-01
     vertex -2.250039e-01  8.881167e-02  1.269842e-01
     vertex -2.216116e-01  7.986693e-02  1.269842e-01
   endloop
 endfacet
 facet normal  0.000000e+00  0.000000e+00  1.000000e+00
   outer loop
     vertex -4.850087e-02 -3.544986e-02  1.269842e-01
     vertex -2.649243e-01  3.097707e-02  1.269842e-01
     vertex -1.000882e+00 -3.544986e-02  1.269842e-01
   endloop
 endfacet
 facet normal  0.000000e+00  0.000000e+00  1.000000e+00
   outer loop
     vertex -4.850087e-02 -3.544986e-02  1.269842e-01
     vertex -2.553579e-01  3.097707e-02  1.269842e-01
     vertex -2.649243e-01  3.097707e-02  1.269842e-01
   endloop
 endfacet
 facet normal  0.000000e+00  0.000000e+00  1.000000e+00
   outer loop
     vertex -4.850087e-02 -3.544986e-02  1.269842e-01
     vertex -2.460695e-01  3.326646e-02  1.269842e-01
     vertex -2.553579e-01  3.097707e-02  1.269842e-01
   endloop
 endfacet
 facet normal  0.000000e+00  0.000000e+00  1.000000e+00
   outer loop
     vertex -4.850087e-02 -3.544986e-02  1.269842e-01
     vertex -2.375988e-01  3.771219e-02  1.269842e-01
     vertex -2.460695e-01  3.326646e-02  1.269842e-01
   endloop
 endfacet
 facet normal  0.000000e+00  0.000000e+00  1.000000e+00
   outer loop
     vertex -4.850087e-02 -3.544986e-02  1.269842e-01
     vertex -2.304383e-01  4.405589e-02  1.269842e-01
     vertex -2.375988e-01  3.771219e-02  1.269842e-01
   endloop
 endfacet
 facet normal  0.000000e+00  0.000000e+00  1.000000e+00
   outer loop
     vertex -4.850087e-02 -3.544986e-02  1.269842e-01
     vertex -2.250039e-01  5.192888e-02  1.269842e-01
     vertex -2.304383e-01  4.405589e-02  1.269842e-01
   endloop
 endfacet
 facet normal  0.000000e+00  0.000000e+00  1.000000e+00
   outer loop
     vertex -4.850087e-02 -3.544986e-02  1.269842e-01
     vertex -2.216116e-01  6.087362e-02  1.269842e-01
     vertex -2.250039e-01  5.192888e-02  1.269842e-01
   endloop
 endfacet
 facet normal  0.000000e+00  0.000000e+00  1.000000e+00
   outer loop
     vertex -4.850087e-02 -3.544986e-02  1.269842e-01
     vertex -2.204585e-01  7.037028e-02  1.269842e-01
     vertex -2.216116e-01  6.087362e-02  1.269842e-01
   endloop
 endfacet
 facet normal  0.000000e+00  0.000000e+00  1.000000e+00
   outer loop
     vertex -4.850087e-02  5.289240e-01  1.269842e-01
     vertex -2.304383e-01  9.668467e-02  1.269842e-01
     vertex -2.250039e-01  8.881167e-02  1.269842e-01
   endloop
 endfacet
 facet normal  0.000000e+00  0.000000e+00  1.000000e+00
   outer loop
     vertex -4.850087e-02  5.289240e-01  1.269842e-01
     vertex -2.375988e-01  1.030284e-01  1.269842e-01
     vertex -2.304383e-01  9.668467e-02  1.269842e-01
   endloop
 endfacet
 facet normal  0.000000e+00  0.000000e+00  1.000000e+00
   outer loop
     vertex -4.850087e-02  5.289240e-01  1.269842e-01
     vertex -2.460695e-01  1.074741e-01  1.269842e-01
     vertex -2.375988e-01  1.030284e-01  1.269842e-01
   endloop
 endfacet
 facet normal  0.000000e+00  0.000000e+00  1.000000e+00
   outer loop
     vertex -4.850087e-02  5.289240e-01  1.269842e-01
     vertex -2.553579e-01  1.097635e-01  1.269842e-01
     vertex -2.460695e-01  1.074741e-01  1.269842e-01
   endloop
 endfacet
 facet normal  0.000000e+00  0.000000e+00  1.000000e+00
   outer loop
     vertex -4.850087e-02  5.289240e-01  1.269842e-01
     vertex -2.649243e-01  1.097635e-01  1.269842e-01
     vertex -2.553579e-01  1.097635e-01  1.269842e-01
   endloop
 endfacet
 facet normal  0.000000e+00  0.000000e+00  1.000000e+00
   outer loop
     vertex -4.850087e-02  5.289240e-01  1.269842e-01
     vertex -2.742127e-01  1.074741e-01  1.269842e-01
     vertex -2.649243e-01  1.097635e-01  1.269842e-01
   endloop
 endfacet
 facet normal  0.000000e+00  0.000000e+00  1.000000e+00
   outer loop
     vertex -4.850087e-02  5.289240e-01  1.269842e-01
     vertex -7.815696e-01  4.103701e-01  1.269842e-01
     vertex -7.774235e-01  3.994376e-01  1.269842e-01
   endloop
 endfacet
 facet normal  0.000000e+00  0.000000e+00  1.000000e+00
   outer loop
     vertex -4.850087e-02  5.289240e-01  1.269842e-01
     vertex -7.882116e-01  4.199926e-01  1.269842e-01
     vertex -7.815696e-01  4.103701e-01  1.269842e-01
   endloop
 endfacet
 facet normal  0.000000e+00  0.000000e+00  1.000000e+00
   outer loop
     vertex -4.850087e-02  5.289240e-01  1.269842e-01
     vertex -7.969634e-01  4.277461e-01  1.269842e-01
     vertex -7.882116e-01  4.199926e-01  1.269842e-01
   endloop
 endfacet
 facet normal  0.000000e+00  0.000000e+00  1.000000e+00
   outer loop
     vertex -4.850087e-02  5.289240e-01  1.269842e-01
     vertex -7.774235e-01  3.994376e-01  1.269842e-01
     vertex -2.742127e-01  1.074741e-01  1.269842e-01
   endloop
 endfacet
 facet normal  0.000000e+00  0.000000e+00  1.000000e+00
   outer loop
     vertex -4.850087e-02  5.289240e-01  1.269842e-01
     vertex -2.250039e-01  8.881167e-02  1.269842e-01
     vertex -4.850087e-02 -3.544986e-02  1.269842e-01
   endloop
 endfacet
 facet normal  0.000000e+00  0.000000e+00  1.000000e+00
   outer loop
     vertex -4.850087e-02  5.289240e-01  1.269842e-01
     vertex -1.000882e+00  5.289240e-01  1.269842e-01
     vertex -8.073164e-01  4.331797e-01  1.269842e-01
   endloop
 endfacet
 facet normal  0.000000e+00  0.000000e+00  1.000000e+00
   outer loop
     vertex -4.850087e-02  5.289240e-01  1.269842e-01
     vertex -8.073164e-01  4.331797e-01  1.269842e-01
     vertex -7.969634e-01  4.277461e-01  1.269842e-01
   endloop
 endfacet
 facet normal  0.000000e+00  1.000000e+00  0.000000e+00
   outer loop
     vertex -1.000882e+00  5.289240e-01 -1.587302e-02
     vertex -4.850087e-02  5.289240e-01  1.269842e-01
     vertex -4.850087e-02  5.289240e-01 -1.587302e-02
   endloop
 endfacet
 facet normal  0.000000e+00  1.000000e+00  0.000000e+00
   outer loop
     vertex -1.000882e+00  5.289240e-01 -1.587302e-02
     vertex -1.000882e+00  5.289240e-01  1.269842e-01
     vertex -4.850087e-02  5.289240e-01  1.269842e-01
   endloop
 endfacet
 facet normal -1.000000e+00  0.000000e+00  0.000000e+00
   outer loop
     vertex -1.000882e+00 -3.544986e-02 -1.587302e-02
     vertex -1.000882e+00  5.289240e-01 -1.587302e-02
     vertex -1.000882e+00  5.289240e-01 -3.174603e-02
   endloop
 endfacet
 facet normal -1.000000e+00  0.000000e+00  0.000000e+00
   outer loop
     vertex -1.000882e+00 -3.544986e-02 -1.587302e-02
     vertex -1.000882e+00  5.289240e-01 -3.174603e-02
     vertex -1.000882e+00 -3.544986e-02 -3.174603e-02
   endloop
 endfacet
 facet normal  1.000000e+00  0.000000e+00  0.000000e+00
   outer loop
     vertex -4.850087e-02  5.289240e-01 -1.587302e-02
     vertex -4.850087e-02 -3.544986e-02 -1.587302e-02
     vertex -4.850087e-02 -3.544986e-02 -3.174603e-02
   endloop
 endfacet
 facet normal  1.000000e+00  0.000000e+00  0.000000e+00
   outer loop
     vertex -4.850087e-02  5.289240e-01 -1.587302e-02
     vertex -4.850087e-02 -3.544986e-02 -3.174603e-02
     vertex -4.850087e-02  5.289240e-01 -3.174603e-02
   endloop
 endfacet
 facet normal -0.000000e+00  0.000000e+00 -1.000000e+00
   outer loop
     vertex -8.520666e-01  3.479152e-01 -3.174603e-02
     vertex -1.000882e+00 -3.544986e-02 -3.174603e-02
     vertex -8.608184e-01  3.556686e-01 -3.174603e-02
   endloop
 endfacet
 facet normal  0.000000e+00 -0.000000e+00 -1.000000e+00
   outer loop
     vertex -8.674604e-01  3.652911e-01 -3.174603e-02
     vertex -8.608184e-01  3.556686e-01 -3.174603e-02
     vertex -1.000882e+00 -3.544986e-02 -3.174603e-02
   endloop
 endfacet
 facet normal -0.000000e+00  0.000000e+00 -1.000000e+00
   outer loop
     vertex -8.417137e-01  3.424815e-01 -3.174603e-02
     vertex -1.000882e+00 -3.544986e-02 -3.174603e-02
     vertex -8.520666e-01  3.479152e-01 -3.174603e-02
   endloop
 endfacet
 facet normal -0.000000e+00  0.000000e+00 -1.000000e+00
   outer loop
     vertex -8.303611e-01  3.396833e-01 -3.174603e-02
     vertex -1.000882e+00 -3.544986e-02 -3.174603e-02
     vertex -8.417137e-01  3.424815e-01 -3.174603e-02
   endloop
 endfacet
 facet normal -0.000000e+00  0.000000e+00 -1.000000e+00
   outer loop
     vertex -8.186689e-01  3.396833e-01 -3.174603e-02
     vertex -1.000882e+00 -3.544986e-02 -3.174603e-02
     vertex -8.303611e-01  3.396833e-01 -3.174603e-02
   endloop
 endfacet
 facet normal  0.000000e+00  0.000000e+00 -1.000000e+00
   outer loop
     vertex -1.000882e+00  5.289240e-01 -3.174603e-02
     vertex -8.716065e-01  3.994376e-01 -3.174603e-02
     vertex -8.730159e-01  3.878306e-01 -3.174603e-02
   endloop
 endfacet
 facet normal  0.000000e+00  0.000000e+00 -1.000000e+00
   outer loop
     vertex -1.000882e+00  5.289240e-01 -3.174603e-02
     vertex -8.730159e-01  3.878306e-01 -3.174603e-02
     vertex -8.716065e-01  3.762236e-01 -3.174603e-02
   endloop
 endfacet
 facet normal  0.000000e+00  0.000000e+00 -1.000000e+00
   outer loop
     vertex -1.000882e+00  5.289240e-01 -3.174603e-02
     vertex -8.716065e-01  3.762236e-01 -3.174603e-02
     vertex -8.674604e-01  3.652911e-01 -3.174603e-02
   endloop
 endfacet
 facet normal  0.000000e+00  0.000000e+00 -1.000000e+00
   outer loop
     vertex -1.000882e+00  5.289240e-01 -3.174603e-02
     vertex -8.674604e-01  3.652911e-01 -3.174603e-02
     vertex -1.000882e+00 -3.544986e-02 -3.174603e-02
   endloop
 endfacet
 facet normal  0.000000e+00  0.000000e+00 -1.000000e+00
   outer loop
     vertex -8.073164e-01  3.424815e-01 -3.174603e-02
     vertex -1.000882e+00 -3.544986e-02 -3.174603e-02
     vertex -8.186689e-01  3.396833e-01 -3.174603e-02
   endloop
 endfacet
 facet normal -0.000000e+00  0.000000e+00 -1.000000e+00
   outer loop
     vertex -8.674604e-01  4.103701e-01 -3.174603e-02
     vertex -8.716065e-01  3.994376e-01 -3.174603e-02
     vertex -1.000882e+00  5.289240e-01 -3.174603e-02
   endloop
 endfacet
 facet normal -0.000000e+00  0.000000e+00 -1.000000e+00
   outer loop
     vertex -8.608184e-01  4.199926e-01 -3.174603e-02
     vertex -8.674604e-01  4.103701e-01 -3.174603e-02
     vertex -1.000882e+00  5.289240e-01 -3.174603e-02
   endloop
 endfacet
 facet normal -0.000000e+00  0.000000e+00 -1.000000e+00
   outer loop
     vertex -8.520666e-01  4.277461e-01 -3.174603e-02
     vertex -8.608184e-01  4.199926e-01 -3.174603e-02
     vertex -1.000882e+00  5.289240e-01 -3.174603e-02
   endloop
 endfacet
 facet normal -0.000000e+00  0.000000e+00 -1.000000e+00
   outer loop
     vertex -8.417137e-01  4.331797e-01 -3.174603e-02
     vertex -8.520666e-01  4.277461e-01 -3.174603e-02
     vertex -1.000882e+00  5.289240e-01 -3.174603e-02
   endloop
 endfacet
 facet normal -0.000000e+00  0.000000e+00 -1.000000e+00
   outer loop
     vertex -8.303611e-01  4.359779e-01 -3.174603e-02
     vertex -8.417137e-01  4.331797e-01 -3.174603e-02
     vertex -1.000882e+00  5.289240e-01 -3.174603e-02
   endloop
 endfacet
 facet normal  0.000000e+00  0.000000e+00 -1.000000e+00
   outer loop
     vertex -8.186689e-01  4.359779e-01 -3.174603e-02
     vertex -8.303611e-01  4.359779e-01 -3.174603e-02
     vertex -1.000882e+00  5.289240e-01 -3.174603e-02
   endloop
 endfacet
 facet normal  0.000000e+00  0.000000e+00 -1.000000e+00
   outer loop
     vertex -8.073164e-01  4.331797e-01 -3.174603e-02
     vertex -8.186689e-01  4.359779e-01 -3.174603e-02
     vertex -1.000882e+00  5.289240e-01 -3.174603e-02
   endloop
 endfacet
 facet normal -0.000000e+00  0.000000e+00 -1.000000e+00
   outer loop
     vertex -2.826833e-01  3.771219e-02 -3.174603e-02
     vertex -1.000882e+00 -3.544986e-02 -3.174603e-02
     vertex -2.898439e-01  4.405589e-02 -3.174603e-02
   endloop
 endfacet
 facet normal  0.000000e+00 -0.000000e+00 -1.000000e+00
   outer loop
     vertex -2.952782e-01  5.192888e-02 -3.174603e-02
     vertex -2.898439e-01  4.405589e-02 -3.174603e-02
     vertex -1.000882e+00 -3.544986e-02 -3.174603e-02
   endloop
 endfacet
 facet normal -0.000000e+00  0.000000e+00 -1.000000e+00
   outer loop
     vertex -2.742127e-01  3.326646e-02 -3.174603e-02
     vertex -1.000882e+00 -3.544986e-02 -3.174603e-02
     vertex -2.826833e-01  3.771219e-02 -3.174603e-02
   endloop
 endfacet
 facet normal  0.000000e+00 -0.000000e+00 -1.000000e+00
   outer loop
     vertex -2.986705e-01  6.087362e-02 -3.174603e-02
     vertex -2.952782e-01  5.192888e-02 -3.174603e-02
     vertex -1.000882e+00 -3.544986e-02 -3.174603e-02
   endloop
 endfacet
 facet normal -0.000000e+00  0.000000e+00 -1.000000e+00
   outer loop
     vertex -2.649243e-01  3.097707e-02 -3.174603e-02
     vertex -1.000882e+00 -3.544986e-02 -3.174603e-02
     vertex -2.742127e-01  3.326646e-02 -3.174603e-02
   endloop
 endfacet
 facet normal  0.000000e+00 -0.000000e+00 -1.000000e+00
   outer loop
     vertex -2.998236e-01  7.037028e-02 -3.174603e-02
     vertex -2.986705e-01  6.087362e-02 -3.174603e-02
     vertex -1.000882e+00 -3.544986e-02 -3.174603e-02
   endloop
 endfacet
 facet normal  0.000000e+00  0.000000e+00 -1.000000e+00
   outer loop
     vertex -2.998236e-01  7.037028e-02 -3.174603e-02
     vertex -8.073164e-01  3.424815e-01 -3.174603e-02
     vertex -7.969634e-01  3.479152e-01 -3.174603e-02
   endloop
 endfacet
 facet normal -0.000000e+00  0.000000e+00 -1.000000e+00
   outer loop
     vertex -2.998236e-01  7.037028e-02 -3.174603e-02
     vertex -1.000882e+00 -3.544986e-02 -3.174603e-02
     vertex -8.073164e-01  3.424815e-01 -3.174603e-02
   endloop
 endfacet
 facet normal -0.000000e+00  0.000000e+00 -1.000000e+00
   outer loop
     vertex -2.986705e-01  7.986693e-02 -3.174603e-02
     vertex -2.998236e-01  7.037028e-02 -3.174603e-02
     vertex -7.969634e-01  3.479152e-01 -3.174603e-02
   endloop
 endfacet
 facet normal  0.000000e+00  0.000000e+00 -1.000000e+00
   outer loop
     vertex -2.986705e-01  7.986693e-02 -3.174603e-02
     vertex -7.969634e-01  3.479152e-01 -3.174603e-02
     vertex -7.882116e-01  3.556686e-01 -3.174603e-02
   endloop
 endfacet
 facet normal  0.000000e+00  0.000000e+00 -1.000000e+00
   outer loop
     vertex -2.952782e-01  8.881167e-02 -3.174603e-02
     vertex -7.882116e-01  3.556686e-01 -3.174603e-02
     vertex -7.815696e-01  3.652911e-01 -3.174603e-02
   endloop
 endfacet
 facet normal -0.000000e+00  0.000000e+00 -1.000000e+00
   outer loop
     vertex -2.952782e-01  8.881167e-02 -3.174603e-02
     vertex -2.986705e-01  7.986693e-02 -3.174603e-02
     vertex -7.882116e-01  3.556686e-01 -3.174603e-02
   endloop
 endfacet
 facet normal -0.000000e+00  0.000000e+00 -1.000000e+00
   outer loop
     vertex -2.898439e-01  9.668467e-02 -3.174603e-02
     vertex -2.952782e-01  8.881167e-02 -3.174603e-02
     vertex -7.815696e-01  3.652911e-01 -3.174603e-02
   endloop
 endfacet
 facet normal  0.000000e+00  0.000000e+00 -1.000000e+00
   outer loop
     vertex -2.898439e-01  9.668467e-02 -3.174603e-02
     vertex -7.815696e-01  3.652911e-01 -3.174603e-02
     vertex -7.774235e-01  3.762236e-01 -3.174603e-02
   endloop
 endfacet
 facet normal -0.000000e+00  0.000000e+00 -1.000000e+00
   outer loop
     vertex -2.826833e-01  1.030284e-01 -3.174603e-02
     vertex -2.898439e-01  9.668467e-02 -3.174603e-02
     vertex -7.774235e-01  3.762236e-01 -3.174603e-02
   endloop
 endfacet
 facet normal  0.000000e+00  0.000000e+00 -1.000000e+00
   outer loop
     vertex -2.826833e-01  1.030284e-01 -3.174603e-02
     vertex -7.774235e-01  3.762236e-01 -3.174603e-02
     vertex -7.760141e-01  3.878306e-01 -3.174603e-02
   endloop
 endfacet
 facet normal  0.000000e+00  0.000000e+00 -1.000000e+00
   outer loop
     vertex -2.742127e-01  1.074741e-01 -3.174603e-02
     vertex -7.760141e-01  3.878306e-01 -3.174603e-02
     vertex -7.774235e-01  3.994376e-01 -3.174603e-02
   endloop
 endfacet
 facet normal -0.000000e+00  0.000000e+00 -1.000000e+00
   outer loop
     vertex -2.742127e-01  1.074741e-01 -3.174603e-02
     vertex -2.826833e-01  1.030284e-01 -3.174603e-02
     vertex -7.760141e-01  3.878306e-01 -3.174603e-02
   endloop
 endfacet
 facet normal  0.000000e+00  0.000000e+00 -1.000000e+00
   outer loop
     vertex -4.850087e-02 -3.544986e-02 -3.174603e-02
     vertex -2.204585e-01  7.037028e-02 -3.174603e-02
     vertex -2.216116e-01  7.986693e-02 -3.174603e-02
   endloop
 endfacet
 facet normal  0.000000e+00  0.000000e+00 -1.000000e+00
   outer loop
     vertex -4.850087e-02 -3.544986e-02 -3.174603e-02
     vertex -2.216116e-01  7.986693e-02 -3.174603e-02
     vertex -2.250039e-01  8.881167e-02 -3.174603e-02
   endloop
 endfacet
 facet normal  0.000000e+00  0.000000e+00 -1.000000e+00
   outer loop
     vertex -4.850087e-02 -3.544986e-02 -3.174603e-02
     vertex -1.000882e+00 -3.544986e-02 -3.174603e-02
     vertex -2.649243e-01  3.097707e-02 -3.174603e-02
   endloop
 endfacet
 facet normal  0.000000e+00  0.000000e+00 -1.000000e+00
   outer loop
     vertex -4.850087e-02 -3.544986e-02 -3.174603e-02
     vertex -2.649243e-01  3.097707e-02 -3.174603e-02
     vertex -2.553579e-01  3.097707e-02 -3.174603e-02
   endloop
 endfacet
 facet normal  0.000000e+00  0.000000e+00 -1.000000e+00
   outer loop
     vertex -4.850087e-02 -3.544986e-02 -3.174603e-02
     vertex -2.553579e-01  3.097707e-02 -3.174603e-02
     vertex -2.460695e-01  3.326646e-02 -3.174603e-02
   endloop
 endfacet
 facet normal  0.000000e+00  0.000000e+00 -1.000000e+00
   outer loop
     vertex -4.850087e-02 -3.544986e-02 -3.174603e-02
     vertex -2.460695e-01  3.326646e-02 -3.174603e-02
     vertex -2.375988e-01  3.771219e-02 -3.174603e-02
   endloop
 endfacet
 facet normal  0.000000e+00  0.000000e+00 -1.000000e+00
   outer loop
     vertex -4.850087e-02 -3.544986e-02 -3.174603e-02
     vertex -2.375988e-01  3.771219e-02 -3.174603e-02
     vertex -2.304383e-01  4.405589e-02 -3.174603e-02
   endloop
 endfacet
 facet normal  0.000000e+00  0.000000e+00 -1.000000e+00
   outer loop
     vertex -4.850087e-02 -3.544986e-02 -3.174603e-02
     vertex -2.304383e-01  4.405589e-02 -3.174603e-02
     vertex -2.250039e-01  5.192888e-02 -3.174603e-02
   endloop
 endfacet
 facet normal  0.000000e+00  0.000000e+00 -1.000000e+00
   outer loop
     vertex -4.850087e-02 -3.544986e-02 -3.174603e-02
     vertex -2.250039e-01  5.192888e-02 -3.174603e-02
     vertex -2.216116e-01  6.087362e-02 -3.174603e-02
   endloop
 endfacet
 facet normal  0.000000e+00  0.000000e+00 -1.000000e+00
   outer loop
     vertex -4.850087e-02 -3.544986e-02 -3.174603e-02
     vertex -2.216116e-01  6.087362e-02 -3.174603e-02
     vertex -2.204585e-01  7.037028e-02 -3.174603e-02
   endloop
 endfacet
 facet normal  0.000000e+00  0.000000e+00 -1.000000e+00
   outer loop
     vertex -4.850087e-02  5.289240e-01 -3.174603e-02
     vertex -2.250039e-01  8.881167e-02 -3.174603e-02
     vertex -2.304383e-01  9.668467e-02 -3.174603e-02
   endloop
 endfacet
 facet normal  0.000000e+00  0.000000e+00 -1.000000e+00
   outer loop
     vertex -4.850087e-02  5.289240e-01 -3.174603e-02
     vertex -2.304383e-01  9.668467e-02 -3.174603e-02
     vertex -2.375988e-01  1.030284e-01 -3.174603e-02
   endloop
 endfacet
 facet normal  0.000000e+00  0.000000e+00 -1.000000e+00
   outer loop
     vertex -4.850087e-02  5.289240e-01 -3.174603e-02
     vertex -2.375988e-01  1.030284e-01 -3.174603e-02
     vertex -2.460695e-01  1.074741e-01 -3.174603e-02
   endloop
 endfacet
 facet normal  0.000000e+00  0.000000e+00 -1.000000e+00
   outer loop
     vertex -4.850087e-02  5.289240e-01 -3.174603e-02
     vertex -2.460695e-01  1.074741e-01 -3.174603e-02
     vertex -2.553579e-01  1.097635e-01 -3.174603e-02
   endloop
 endfacet
 facet normal  0.000000e+00  0.000000e+00 -1.000000e+00
   outer loop
     vertex -4.850087e-02  5.289240e-01 -3.174603e-02
     vertex -2.553579e-01  1.097635e-01 -3.174603e-02
     vertex -2.649243e-01  1.097635e-01 -3.174603e-02
   endloop
 endfacet
 facet normal  0.000000e+00  0.000000e+00 -1.000000e+00
   outer loop
     vertex -4.850087e-02  5.289240e-01 -3.174603e-02
     vertex -2.649243e-01  1.097635e-01 -3.174603e-02
     vertex -2.742127e-01  1.074741e-01 -3.174603e-02
   endloop
 endfacet
 facet normal  0.000000e+00  0.000000e+00 -1.000000e+00
   outer loop
     vertex -4.850087e-02  5.289240e-01 -3.174603e-02
     vertex -7.774235e-01  3.994376e-01 -3.174603e-02
     vertex -7.815696e-01  4.103701e-01 -3.174603e-02
   endloop
 endfacet
 facet normal  0.000000e+00  0.000000e+00 -1.000000e+00
   outer loop
     vertex -4.850087e-02  5.289240e-01 -3.174603e-02
     vertex -7.815696e-01  4.103701e-01 -3.174603e-02
     vertex -7.882116e-01  4.199926e-01 -3.174603e-02
   endloop
 endfacet
 facet normal  0.000000e+00  0.000000e+00 -1.000000e+00
   outer loop
     vertex -4.850087e-02  5.289240e-01 -3.174603e-02
     vertex -7.882116e-01  4.199926e-01 -3.174603e-02
     vertex -7.969634e-01  4.277461e-01 -3.174603e-02
   endloop
 endfacet
 facet normal  0.000000e+00  0.000000e+00 -1.000000e+00
   outer loop
     vertex -4.850087e-02  5.289240e-01 -3.174603e-02
     vertex -2.742127e-01  1.074741e-01 -3.174603e-02
     vertex -7.774235e-01  3.994376e-01 -3.174603e-02
   endloop
 endfacet
 facet normal  0.000000e+00 -0.000000e+00 -1.000000e+00
   outer loop
     vertex -4.850087e-02  5.289240e-01 -3.174603e-02
     vertex -4.850087e-02 -3.544986e-02 -3.174603e-02
     vertex -2.250039e-01  8.881167e-02 -3.174603e-02
   endloop
 endfacet
 facet normal -0.000000e+00  0.000000e+00 -1.000000e+00
   outer loop
     vertex -4.850087e-02  5.289240e-01 -3.174603e-02
     vertex -8.073164e-01  4.331797e-01 -3.174603e-02
     vertex -1.000882e+00  5.289240e-01 -3.174603e-02
   endloop
 endfacet
 facet normal  0.000000e+00  0.000000e+00 -1.000000e+00
   outer loop
     vertex -4.850087e-02  5.289240e-01 -3.174603e-02
     vertex -7.969634e-01  4.277461e-01 -3.174603e-02
     vertex -8.073164e-01  4.331797e-01 -3.174603e-02
   endloop
 endfacet
 facet normal -9.927089e-01 -1.205367e-01  0.000000e+00
   outer loop
     vertex -2.216116e-01  7.986693e-02 -1.587302e-02
     vertex -2.204585e-01  7.037028e-02 -1.587302e-02
     vertex -2.204585e-01  7.037028e-02  1.269842e-01
   endloop
 endfacet
 facet normal -9.927089e-01 -1.205367e-01  0.000000e+00
   outer loop
     vertex -2.216116e-01  7.986693e-02 -1.587302e-02
     vertex -2.204585e-01  7.037028e-02  1.269842e-01
     vertex -2.216116e-01  7.986693e-02  1.269842e-01
   endloop
 endfacet
 facet normal -9.350162e-01 -3.546049e-01  0.000000e+00
   outer loop
     vertex -2.250039e-01  8.881167e-02 -1.587302e-02
     vertex -2.216116e-01  7.986693e-02  1.269842e-01
     vertex -2.250039e-01  8.881167e-02  1.269842e-01
   endloop
 endfacet
 facet normal -9.350162e-01 -3.546049e-01  0.000000e+00
   outer loop
     vertex -2.250039e-01  8.881167e-02 -1.587302e-02
     vertex -2.216116e-01  7.986693e-02 -1.587302e-02
     vertex -2.216116e-01  7.986693e-02  1.269842e-01
   endloop
 endfacet
 facet normal -8.229839e-01 -5.680647e-01  0.000000e+00
   outer loop
     vertex -2.304383e-01  9.668467e-02 -1.587302e-02
     vertex -2.250039e-01  8.881167e-02  1.269842e-01
     vertex -2.304383e-01  9.668467e-02  1.269842e-01
   endloop
 endfacet
 facet normal -8.229839e-01 -5.680647e-01  0.000000e+00
   outer loop
     vertex -2.304383e-01  9.668467e-02 -1.587302e-02
     vertex -2.250039e-01  8.881167e-02 -1.587302e-02
     vertex -2.250039e-01  8.881167e-02  1.269842e-01
   endloop
 endfacet
 facet normal -6.631227e-01 -7.485107e-01  0.000000e+00
   outer loop
     vertex -2.375988e-01  1.030284e-01 -1.587302e-02
     vertex -2.304383e-01  9.668467e-02  1.269842e-01
     vertex -2.375988e-01  1.030284e-01  1.269842e-01
   endloop
 endfacet
 facet normal -6.631227e-01 -7.485107e-01  0.000000e+00
   outer loop
     vertex -2.375988e-01  1.030284e-01 -1.587302e-02
     vertex -2.304383e-01  9.668467e-02 -1.587302e-02
     vertex -2.304383e-01  9.668467e-02  1.269842e-01
   endloop
 endfacet
 facet normal -4.647232e-01 -8.854560e-01  0.000000e+00
   outer loop
     vertex -2.460695e-01  1.074741e-01 -1.587302e-02
     vertex -2.375988e-01  1.030284e-01  1.269842e-01
     vertex -2.460695e-01  1.074741e-01  1.269842e-01
   endloop
 endfacet
 facet normal -4.647232e-01 -8.854560e-01  0.000000e+00
   outer loop
     vertex -2.460695e-01  1.074741e-01 -1.587302e-02
     vertex -2.375988e-01  1.030284e-01 -1.587302e-02
     vertex -2.375988e-01  1.030284e-01  1.269842e-01
   endloop
 endfacet
 facet normal -2.393157e-01 -9.709418e-01  0.000000e+00
   outer loop
     vertex -2.553579e-01  1.097635e-01 -1.587302e-02
     vertex -2.460695e-01  1.074741e-01  1.269842e-01
     vertex -2.553579e-01  1.097635e-01  1.269842e-01
   endloop
 endfacet
 facet normal -2.393157e-01 -9.709418e-01  0.000000e+00
   outer loop
     vertex -2.553579e-01  1.097635e-01 -1.587302e-02
     vertex -2.460695e-01  1.074741e-01 -1.587302e-02
     vertex -2.460695e-01  1.074741e-01  1.269842e-01
   endloop
 endfacet
 facet normal  0.000000e+00 -1.000000e+00  0.000000e+00
   outer loop
     vertex -2.649243e-01  1.097635e-01 -1.587302e-02
     vertex -2.553579e-01  1.097635e-01  1.269842e-01
     vertex -2.649243e-01  1.097635e-01  1.269842e-01
   endloop
 endfacet
 facet normal  0.000000e+00 -1.000000e+00  0.000000e+00
   outer loop
     vertex -2.649243e-01  1.097635e-01 -1.587302e-02
     vertex -2.553579e-01  1.097635e-01 -1.587302e-02
     vertex -2.553579e-01  1.097635e-01  1.269842e-01
   endloop
 endfacet
 facet normal  2.393157e-01 -9.709418e-01  0.000000e+00
   outer loop
     vertex -2.742127e-01  1.074741e-01 -1.587302e-02
     vertex -2.649243e-01  1.097635e-01  1.269842e-01
     vertex -2.742127e-01  1.074741e-01  1.269842e-01
   endloop
 endfacet
 facet normal  2.393157e-01 -9.709418e-01  0.000000e+00
   outer loop
     vertex -2.742127e-01  1.074741e-01 -1.587302e-02
     vertex -2.649243e-01  1.097635e-01 -1.587302e-02
     vertex -2.649243e-01  1.097635e-01  1.269842e-01
   endloop
 endfacet
 facet normal  4.647232e-01 -8.854560e-01  0.000000e+00
   outer loop
     vertex -2.826833e-01  1.030284e-01 -1.587302e-02
     vertex -2.742127e-01  1.074741e-01  1.269842e-01
     vertex -2.826833e-01  1.030284e-01  1.269842e-01
   endloop
 endfacet
 facet normal  4.647232e-01 -8.854560e-01  0.000000e+00
   outer loop
     vertex -2.826833e-01  1.030284e-01 -1.587302e-02
     vertex -2.742127e-01  1.074741e-01 -1.587302e-02
     vertex -2.742127e-01  1.074741e-01  1.269842e-01
   endloop
 endfacet
 facet normal  6.631227e-01 -7.485107e-01  0.000000e+00
   outer loop
     vertex -2.898439e-01  9.668467e-02 -1.587302e-02
     vertex -2.826833e-01  1.030284e-01  1.269842e-01
     vertex -2.898439e-01  9.668467e-02  1.269842e-01
   endloop
 endfacet
 facet normal  6.631227e-01 -7.485107e-01  0.000000e+00
   outer loop
     vertex -2.898439e-01  9.668467e-02 -1.587302e-02
     vertex -2.826833e-01  1.030284e-01 -1.587302e-02
     vertex -2.826833e-01  1.030284e-01  1.269842e-01
   endloop
 endfacet
 facet normal  8.229839e-01 -5.680647e-01  0.000000e+00
   outer loop
     vertex -2.952782e-01  8.881167e-02 -1.587302e-02
     vertex -2.898439e-01  9.668467e-02 -1.587302e-02
     vertex -2.898439e-01  9.668467e-02  1.269842e-01
   endloop
 endfacet
 facet normal  8.229839e-01 -5.680647e-01  0.000000e+00
   outer loop
     vertex -2.952782e-01  8.881167e-02 -1.587302e-02
     vertex -2.898439e-01  9.668467e-02  1.269842e-01
     vertex -2.952782e-01  8.881167e-02  1.269842e-01
   endloop
 endfacet
 facet normal  9.350162e-01 -3.546049e-01  0.000000e+00
   outer loop
     vertex -2.986705e-01  7.986693e-02 -1.587302e-02
     vertex -2.952782e-01  8.881167e-02 -1.587302e-02
     vertex -2.952782e-01  8.881167e-02  1.269842e-01
   endloop
 endfacet
 facet normal  9.350162e-01 -3.546049e-01  0.000000e+00
   outer loop
     vertex -2.986705e-01  7.986693e-02 -1.587302e-02
     vertex -2.952782e-01  8.881167e-02  1.269842e-01
     vertex -2.986705e-01  7.986693e-02  1.269842e-01
   endloop
 endfacet
 facet normal  9.927089e-01 -1.205367e-01  0.000000e+00
   outer loop
     vertex -2.998236e-01  7.037028e-02 -1.587302e-02
     vertex -2.986705e-01  7.986693e-02 -1.587302e-02
     vertex -2.986705e-01  7.986693e-02  1.269842e-01
   endloop
 endfacet
 facet normal  9.927089e-01 -1.205367e-01  0.000000e+00
   outer loop
     vertex -2.998236e-01  7.037028e-02 -1.587302e-02
     vertex -2.986705e-01  7.986693e-02  1.269842e-01
     vertex -2.998236e-01  7.037028e-02  1.269842e-01
   endloop
 endfacet
 facet normal  9.927089e-01  1.205367e-01 -0.000000e+00
   outer loop
     vertex -2.986705e-01  6.087362e-02 -1.587302e-02
     vertex -2.998236e-01  7.037028e-02  1.269842e-01
     vertex -2.986705e-01  6.087362e-02  1.269842e-01
   endloop
 endfacet
 facet normal  9.927089e-01  1.205367e-01  0.000000e+00
   outer loop
     vertex -2.986705e-01  6.087362e-02 -1.587302e-02
     vertex -2.998236e-01  7.037028e-02 -1.587302e-02
     vertex -2.998236e-01  7.037028e-02  1.269842e-01
   endloop
 endfacet
 facet normal  9.350162e-01  3.546049e-01  0.000000e+00
   outer loop
     vertex -2.952782e-01  5.192888e-02 -1.587302e-02
     vertex -2.986705e-01  6.087362e-02 -1.587302e-02
     vertex -2.986705e-01  6.087362e-02  1.269842e-01
   endloop
 endfacet
 facet normal  9.350162e-01  3.546049e-01 -0.000000e+00
   outer loop
     vertex -2.952782e-01  5.192888e-02 -1.587302e-02
     vertex -2.986705e-01  6.087362e-02  1.269842e-01
     vertex -2.952782e-01  5.192888e-02  1.269842e-01
   endloop
 endfacet
 facet normal  8.229839e-01  5.680647e-01 -0.000000e+00
   outer loop
     vertex -2.898439e-01  4.405589e-02 -1.587302e-02
     vertex -2.952782e-01  5.192888e-02  1.269842e-01
     vertex -2.898439e-01  4.405589e-02  1.269842e-01
   endloop
 endfacet
 facet normal  8.229839e-01  5.680647e-01  0.000000e+00
   outer loop
     vertex -2.898439e-01  4.405589e-02 -1.587302e-02
     vertex -2.952782e-01  5.192888e-02 -1.587302e-02
     vertex -2.952782e-01  5.192888e-02  1.269842e-01
   endloop
 endfacet
 facet normal  6.631227e-01  7.485107e-01 -0.000000e+00
   outer loop
     vertex -2.826833e-01  3.771219e-02 -1.587302e-02
     vertex -2.898439e-01  4.405589e-02  1.269842e-01
     vertex -2.826833e-01  3.771219e-02  1.269842e-01
   endloop
 endfacet
 facet normal  6.631227e-01  7.485107e-01  0.000000e+00
   outer loop
     vertex -2.826833e-01  3.771219e-02 -1.587302e-02
     vertex -2.898439e-01  4.405589e-02 -1.587302e-02
     vertex -2.898439e-01  4.405589e-02  1.269842e-01
   endloop
 endfacet
 facet normal  4.647232e-01  8.854560e-01 -0.000000e+00
   outer loop
     vertex -2.742127e-01  3.326646e-02 -1.587302e-02
     vertex -2.826833e-01  3.771219e-02  1.269842e-01
     vertex -2.742127e-01  3.326646e-02  1.269842e-01
   endloop
 endfacet
 facet normal  4.647232e-01  8.854560e-01  0.000000e+00
   outer loop
     vertex -2.742127e-01  3.326646e-02 -1.587302e-02
     vertex -2.826833e-01  3.771219e-02 -1.587302e-02
     vertex -2.826833e-01  3.771219e-02  1.269842e-01
   endloop
 endfacet
 facet normal  2.393157e-01  9.709418e-01 -0.000000e+00
   outer loop
     vertex -2.649243e-01  3.097707e-02 -1.587302e-02
     vertex -2.742127e-01  3.326646e-02  1.269842e-01
     vertex -2.649243e-01  3.097707e-02  1.269842e-01
   endloop
 endfacet
 facet normal  2.393157e-01  9.709418e-01  0.000000e+00
   outer loop
     vertex -2.649243e-01  3.097707e-02 -1.587302e-02
     vertex -2.742127e-01  3.326646e-02 -1.587302e-02
     vertex -2.742127e-01  3.326646e-02  1.269842e-01
   endloop
 endfacet
 facet normal  2.901360e-15  1.000000e+00 -0.000000e+00
   outer loop
     vertex -2.553579e-01  3.097707e-02 -1.587302e-02
     vertex -2.649243e-01  3.097707e-02  1.269842e-01
     vertex -2.553579e-01  3.097707e-02  1.269842e-01
   endloop
 endfacet
 facet normal  2.901360e-15  1.000000e+00  0.000000e+00
   outer loop
     vertex -2.553579e-01  3.097707e-02 -1.587302e-02
     vertex -2.649243e-01  3.097707e-02 -1.587302e-02
     vertex -2.649243e-01  3.097707e-02  1.269842e-01
   endloop
 endfacet
 facet normal -2.393157e-01  9.709418e-01  0.000000e+00
   outer loop
     vertex -2.460695e-01  3.326646e-02 -1.587302e-02
     vertex -2.553579e-01  3.097707e-02  1.269842e-01
     vertex -2.460695e-01  3.326646e-02  1.269842e-01
   endloop
 endfacet
 facet normal -4.647232e-01  8.854560e-01  0.000000e+00
   outer loop
     vertex -2.460695e-01  3.326646e-02 -1.587302e-02
     vertex -2.460695e-01  3.326646e-02  1.269842e-01
     vertex -2.375988e-01  3.771219e-02  1.269842e-01
   endloop
 endfacet
 facet normal -2.393157e-01  9.709418e-01  0.000000e+00
   outer loop
     vertex -2.460695e-01  3.326646e-02 -1.587302e-02
     vertex -2.553579e-01  3.097707e-02 -1.587302e-02
     vertex -2.553579e-01  3.097707e-02  1.269842e-01
   endloop
 endfacet
 facet normal -4.647232e-01  8.854560e-01  0.000000e+00
   outer loop
     vertex -2.375988e-01  3.771219e-02 -1.587302e-02
     vertex -2.460695e-01  3.326646e-02 -1.587302e-02
     vertex -2.375988e-01  3.771219e-02  1.269842e-01
   endloop
 endfacet
 facet normal -6.631227e-01  7.485107e-01  0.000000e+00
   outer loop
     vertex -2.304383e-01  4.405589e-02 -1.587302e-02
     vertex -2.375988e-01  3.771219e-02  1.269842e-01
     vertex -2.304383e-01  4.405589e-02  1.269842e-01
   endloop
 endfacet
 facet normal -6.631227e-01  7.485107e-01  0.000000e+00
   outer loop
     vertex -2.304383e-01  4.405589e-02 -1.587302e-02
     vertex -2.375988e-01  3.771219e-02 -1.587302e-02
     vertex -2.375988e-01  3.771219e-02  1.269842e-01
   endloop
 endfacet
 facet normal -8.229839e-01  5.680647e-01  0.000000e+00
   outer loop
     vertex -2.250039e-01  5.192888e-02 -1.587302e-02
     vertex -2.304383e-01  4.405589e-02  1.269842e-01
     vertex -2.250039e-01  5.192888e-02  1.269842e-01
   endloop
 endfacet
 facet normal -8.229839e-01  5.680647e-01  0.000000e+00
   outer loop
     vertex -2.250039e-01  5.192888e-02 -1.587302e-02
     vertex -2.304383e-01  4.405589e-02 -1.587302e-02
     vertex -2.304383e-01  4.405589e-02  1.269842e-01
   endloop
 endfacet
 facet normal -9.350162e-01  3.546049e-01  0.000000e+00
   outer loop
     vertex -2.216116e-01  6.087362e-02 -1.587302e-02
     vertex -2.250039e-01  5.192888e-02  1.269842e-01
     vertex -2.216116e-01  6.087362e-02  1.269842e-01
   endloop
 endfacet
 facet normal -9.927089e-01  1.205367e-01  0.000000e+00
   outer loop
     vertex -2.216116e-01  6.087362e-02 -1.587302e-02
     vertex -2.216116e-01  6.087362e-02  1.269842e-01
     vertex -2.204585e-01  7.037028e-02  1.269842e-01
   endloop
 endfacet
 facet normal -9.350162e-01  3.546049e-01  0.000000e+00
   outer loop
     vertex -2.216116e-01  6.087362e-02 -1.587302e-02
     vertex -2.250039e-01  5.192888e-02 -1.587302e-02
     vertex -2.250039e-01  5.192888e-02  1.269842e-01
   endloop
 endfacet
 facet normal -9.927089e-01  1.205367e-01  0.000000e+00
   outer loop
     vertex -2.204585e-01  7.037028e-02 -1.587302e-02
     vertex -2.216116e-01  6.087362e-02 -1.587302e-02
     vertex -2.204585e-01  7.037028e-02  1.269842e-01
   endloop
 endfacet
 facet normal -9.927089e-01 -1.205367e-01  0.000000e+00
   outer loop
     vertex -7.774235e-01  3.994376e-01 -1.587302e-02
     vertex -7.760141e-01  3.878306e-01 -1.587302e-02
     vertex -7.760141e-01  3.878306e-01  1.269842e-01
   endloop
 endfacet
 facet normal -9.927089e-01 -1.205367e-01  0.000000e+00
   outer loop
     vertex -7.774235e-01  3.994376e-01 -1.587302e-02
     vertex -7.760141e-01  3.878306e-01  1.269842e-01
     vertex -7.774235e-01  3.994376e-01  1.269842e-01
   endloop
 endfacet
 facet normal -9.350162e-01 -3.546049e-01  0.000000e+00
   outer loop
     vertex -7.815696e-01  4.103701e-01 -1.587302e-02
     vertex -7.774235e-01  3.994376e-01  1.269842e-01
     vertex -7.815696e-01  4.103701e-01  1.269842e-01
   endloop
 endfacet
 facet normal -9.350162e-01 -3.546049e-01  0.000000e+00
   outer loop
     vertex -7.815696e-01  4.103701e-01 -1.587302e-02
     vertex -7.774235e-01  3.994376e-01 -1.587302e-02
     vertex -7.774235e-01  3.994376e-01  1.269842e-01
   endloop
 endfacet
 facet normal -8.229839e-01 -5.680647e-01  0.000000e+00
   outer loop
     vertex -7.882116e-01  4.199926e-01 -1.587302e-02
     vertex -7.815696e-01  4.103701e-01  1.269842e-01
     vertex -7.882116e-01  4.199926e-01  1.269842e-01
   endloop
 endfacet
 facet normal -8.229839e-01 -5.680647e-01  0.000000e+00
   outer loop
     vertex -7.882116e-01  4.199926e-01 -1.587302e-02
     vertex -7.815696e-01  4.103701e-01 -1.587302e-02
     vertex -7.815696e-01  4.103701e-01  1.269842e-01
   endloop
 endfacet
 facet normal -6.631227e-01 -7.485107e-01  0.000000e+00
   outer loop
     vertex -7.969634e-01  4.277461e-01 -1.587302e-02
     vertex -7.882116e-01  4.199926e-01  1.269842e-01
     vertex -7.969634e-01  4.277461e-01  1.269842e-01
   endloop
 endfacet
 facet normal -6.631227e-01 -7.485107e-01  0.000000e+00
   outer loop
     vertex -7.969634e-01  4.277461e-01 -1.587302e-02
     vertex -7.882116e-01  4.199926e-01 -1.587302e-02
     vertex -7.882116e-01  4.199926e-01  1.269842e-01
   endloop
 endfacet
 facet normal -4.647232e-01 -8.854560e-01  0.000000e+00
   outer loop
     vertex -8.073164e-01  4.331797e-01 -1.587302e-02
     vertex -7.969634e-01  4.277461e-01  1.269842e-01
     vertex -8.073164e-01  4.331797e-01  1.269842e-01
   endloop
 endfacet
 facet normal -4.647232e-01 -8.854560e-01  0.000000e+00
   outer loop
     vertex -8.073164e-01  4.331797e-01 -1.587302e-02
     vertex -7.969634e-01  4.277461e-01 -1.587302e-02
     vertex -7.969634e-01  4.277461e-01  1.269842e-01
   endloop
 endfacet
 facet normal -2.393157e-01 -9.709418e-01  0.000000e+00
   outer loop
     vertex -8.186689e-01  4.359779e-01 -1.587302e-02
     vertex -8.073164e-01  4.331797e-01  1.269842e-01
     vertex -8.186689e-01  4.359779e-01  1.269842e-01
   endloop
 endfacet
 facet normal -2.393157e-01 -9.709418e-01  0.000000e+00
   outer loop
     vertex -8.186689e-01  4.359779e-01 -1.587302e-02
     vertex -8.073164e-01  4.331797e-01 -1.587302e-02
     vertex -8.073164e-01  4.331797e-01  1.269842e-01
   endloop
 endfacet
 facet normal  0.000000e+00 -1.000000e+00  0.000000e+00
   outer loop
     vertex -8.303611e-01  4.359779e-01 -1.587302e-02
     vertex -8.186689e-01  4.359779e-01  1.269842e-01
     vertex -8.303611e-01  4.359779e-01  1.269842e-01
   endloop
 endfacet
 facet normal  0.000000e+00 -1.000000e+00  0.000000e+00
   outer loop
     vertex -8.303611e-01  4.359779e-01 -1.587302e-02
     vertex -8.186689e-01  4.359779e-01 -1.587302e-02
     vertex -8.186689e-01  4.359779e-01  1.269842e-01
   endloop
 endfacet
 facet normal  2.393157e-01 -9.709418e-01  0.000000e+00
   outer loop
     vertex -8.417137e-01  4.331797e-01 -1.587302e-02
     vertex -8.303611e-01  4.359779e-01  1.269842e-01
     vertex -8.417137e-01  4.331797e-01  1.269842e-01
   endloop
 endfacet
 facet normal  2.393157e-01 -9.709418e-01  0.000000e+00
   outer loop
     vertex -8.417137e-01  4.331797e-01 -1.587302e-02
     vertex -8.303611e-01  4.359779e-01 -1.587302e-02
     vertex -8.303611e-01  4.359779e-01  1.269842e-01
   endloop
 endfacet
 facet normal  4.647232e-01 -8.854560e-01  0.000000e+00
   outer loop
     vertex -8.520666e-01  4.277461e-01 -1.587302e-02
     vertex -8.417137e-01  4.331797e-01  1.269842e-01
     vertex -8.520666e-01  4.277461e-01  1.269842e-01
   endloop
 endfacet
 facet normal  4.647232e-01 -8.854560e-01  0.000000e+00
   outer loop
     vertex -8.520666e-01  4.277461e-01 -1.587302e-02
     vertex -8.417137e-01  4.331797e-01 -1.587302e-02
     vertex -8.417137e-01  4.331797e-01  1.269842e-01
   endloop
 endfacet
 facet normal  6.631227e-01 -7.485107e-01  0.000000e+00
   outer loop
     vertex -8.608184e-01  4.199926e-01 -1.587302e-02
     vertex -8.520666e-01  4.277461e-01  1.269842e-01
     vertex -8.608184e-01  4.199926e-01  1.269842e-01
   endloop
 endfacet
 facet normal  6.631227e-01 -7.485107e-01  0.000000e+00
   outer loop
     vertex -8.608184e-01  4.199926e-01 -1.587302e-02
     vertex -8.520666e-01  4.277461e-01 -1.587302e-02
     vertex -8.520666e-01  4.277461e-01  1.269842e-01
   endloop
 endfacet
 facet normal  8.229839e-01 -5.680647e-01  0.000000e+00
   outer loop
     vertex -8.674604e-01  4.103701e-01 -1.587302e-02
     vertex -8.608184e-01  4.199926e-01 -1.587302e-02
     vertex -8.608184e-01  4.199926e-01  1.269842e-01
   endloop
 endfacet
 facet normal  8.229839e-01 -5.680647e-01  0.000000e+00
   outer loop
     vertex -8.674604e-01  4.103701e-01 -1.587302e-02
     vertex -8.608184e-01  4.199926e-01  1.269842e-01
     vertex -8.674604e-01  4.103701e-01  1.269842e-01
   endloop
 endfacet
 facet normal  9.350162e-01 -3.546049e-01  0.000000e+00
   outer loop
     vertex -8.716065e-01  3.994376e-01 -1.587302e-02
     vertex -8.674604e-01  4.103701e-01 -1.587302e-02
     vertex -8.674604e-01  4.103701e-01  1.269842e-01
   endloop
 endfacet
 facet normal  9.350162e-01 -3.546049e-01  0.000000e+00
   outer loop
     vertex -8.716065e-01  3.994376e-01 -1.587302e-02
     vertex -8.674604e-01  4.103701e-01  1.269842e-01
     vertex -8.716065e-01  3.994376e-01  1.269842e-01
   endloop
 endfacet
 facet normal  9.927089e-01 -1.205367e-01  0.000000e+00
   outer loop
     vertex -8.730159e-01  3.878306e-01 -1.587302e-02
     vertex -8.716065e-01  3.994376e-01 -1.587302e-02
     vertex -8.716065e-01  3.994376e-01  1.269842e-01
   endloop
 endfacet
 facet normal  9.927089e-01 -1.205367e-01  0.000000e+00
   outer loop
     vertex -8.730159e-01  3.878306e-01 -1.587302e-02
     vertex -8.716065e-01  3.994376e-01  1.269842e-01
     vertex -8.730159e-01  3.878306e-01  1.269842e-01
   endloop
 endfacet
 facet normal  9.927089e-01  1.205367e-01 -0.000000e+00
   outer loop
     vertex -8.716065e-01  3.762236e-01 -1.587302e-02
     vertex -8.730159e-01  3.878306e-01  1.269842e-01
     vertex -8.716065e-01  3.762236e-01  1.269842e-01
   endloop
 endfacet
 facet normal  9.927089e-01  1.205367e-01  0.000000e+00
   outer loop
     vertex -8.716065e-01  3.762236e-01 -1.587302e-02
     vertex -8.730159e-01  3.878306e-01 -1.587302e-02
     vertex -8.730159e-01  3.878306e-01  1.269842e-01
   endloop
 endfacet
 facet normal  9.350162e-01  3.546049e-01  0.000000e+00
   outer loop
     vertex -8.674604e-01  3.652911e-01 -1.587302e-02
     vertex -8.716065e-01  3.762236e-01 -1.587302e-02
     vertex -8.716065e-01  3.762236e-01  1.269842e-01
   endloop
 endfacet
 facet normal  9.350162e-01  3.546049e-01 -0.000000e+00
   outer loop
     vertex -8.674604e-01  3.652911e-01 -1.587302e-02
     vertex -8.716065e-01  3.762236e-01  1.269842e-01
     vertex -8.674604e-01  3.652911e-01  1.269842e-01
   endloop
 endfacet
 facet normal  8.229839e-01  5.680647e-01 -0.000000e+00
   outer loop
     vertex -8.608184e-01  3.556686e-01 -1.587302e-02
     vertex -8.674604e-01  3.652911e-01  1.269842e-01
     vertex -8.608184e-01  3.556686e-01  1.269842e-01
   endloop
 endfacet
 facet normal  8.229839e-01  5.680647e-01  0.000000e+00
   outer loop
     vertex -8.608184e-01  3.556686e-01 -1.587302e-02
     vertex -8.674604e-01  3.652911e-01 -1.587302e-02
     vertex -8.674604e-01  3.652911e-01  1.269842e-01
   endloop
 endfacet
 facet normal  6.631227e-01  7.485107e-01 -0.000000e+00
   outer loop
     vertex -8.520666e-01  3.479152e-01 -1.587302e-02
     vertex -8.608184e-01  3.556686e-01  1.269842e-01
     vertex -8.520666e-01  3.479152e-01  1.269842e-01
   endloop
 endfacet
 facet normal  6.631227e-01  7.485107e-01  0.000000e+00
   outer loop
     vertex -8.520666e-01  3.479152e-01 -1.587302e-02
     vertex -8.608184e-01  3.556686e-01 -1.587302e-02
     vertex -8.608184e-01  3.556686e-01  1.269842e-01
   endloop
 endfacet
 facet normal  4.647232e-01  8.854560e-01 -0.000000e+00
   outer loop
     vertex -8.417137e-01  3.424815e-01 -1.587302e-02
     vertex -8.520666e-01  3.479152e-01  1.269842e-01
     vertex -8.417137e-01  3.424815e-01  1.269842e-01
   endloop
 endfacet
 facet normal  4.647232e-01  8.854560e-01  0.000000e+00
   outer loop
     vertex -8.417137e-01  3.424815e-01 -1.587302e-02
     vertex -8.520666e-01  3.479152e-01 -1.587302e-02
     vertex -8.520666e-01  3.479152e-01  1.269842e-01
   endloop
 endfacet
 facet normal  2.393157e-01  9.709418e-01 -0.000000e+00
   outer loop
     vertex -8.303611e-01  3.396833e-01 -1.587302e-02
     vertex -8.417137e-01  3.424815e-01  1.269842e-01
     vertex -8.303611e-01  3.396833e-01  1.269842e-01
   endloop
 endfacet
 facet normal  2.393157e-01  9.709418e-01  0.000000e+00
   outer loop
     vertex -8.303611e-01  3.396833e-01 -1.587302e-02
     vertex -8.417137e-01  3.424815e-01 -1.587302e-02
     vertex -8.417137e-01  3.424815e-01  1.269842e-01
   endloop
 endfacet
 facet normal  0.000000e+00  1.000000e+00 -0.000000e+00
   outer loop
     vertex -8.186689e-01  3.396833e-01 -1.587302e-02
     vertex -8.303611e-01  3.396833e-01  1.269842e-01
     vertex -8.186689e-01  3.396833e-01  1.269842e-01
   endloop
 endfacet
 facet normal  0.000000e+00  1.000000e+00  0.000000e+00
   outer loop
     vertex -8.186689e-01  3.396833e-01 -1.587302e-02
     vertex -8.303611e-01  3.396833e-01 -1.587302e-02
     vertex -8.303611e-01  3.396833e-01  1.269842e-01
   endloop
 endfacet
 facet normal -2.393157e-01  9.709418e-01  0.000000e+00
   outer loop
     vertex -8.073164e-01  3.424815e-01 -1.587302e-02
     vertex -8.186689e-01  3.396833e-01  1.269842e-01
     vertex -8.073164e-01  3.424815e-01  1.269842e-01
   endloop
 endfacet
 facet normal -2.393157e-01  9.709418e-01  0.000000e+00
   outer loop
     vertex -8.073164e-01  3.424815e-01 -1.587302e-02
     vertex -8.186689e-01  3.396833e-01 -1.587302e-02
     vertex -8.186689e-01  3.396833e-01  1.269842e-01
   endloop
 endfacet
 facet normal -4.647232e-01  8.854560e-01  0.000000e+00
   outer loop
     vertex -7.969634e-01  3.479152e-01 -1.587302e-02
     vertex -8.073164e-01  3.424815e-01  1.269842e-01
     vertex -7.969634e-01  3.479152e-01  1.269842e-01
   endloop
 endfacet
 facet normal -4.647232e-01  8.854560e-01  0.000000e+00
   outer loop
     vertex -7.969634e-01  3.479152e-01 -1.587302e-02
     vertex -8.073164e-01  3.424815e-01 -1.587302e-02
     vertex -8.073164e-01  3.424815e-01  1.269842e-01
   endloop
 endfacet
 facet normal -6.631227e-01  7.485107e-01  0.000000e+00
   outer loop
     vertex -7.882116e-01  3.556686e-01 -1.587302e-02
     vertex -7.969634e-01  3.479152e-01  1.269842e-01
     vertex -7.882116e-01  3.556686e-01  1.269842e-01
   endloop
 endfacet
 facet normal -6.631227e-01  7.485107e-01  0.000000e+00
   outer loop
     vertex -7.882116e-01  3.556686e-01 -1.587302e-02
     vertex -7.969634e-01  3.479152e-01 -1.587302e-02
     vertex -7.969634e-01  3.479152e-01  1.269842e-01
   endloop
 endfacet
 facet normal -8.229839e-01  5.680647e-01  0.000000e+00
   outer loop
     vertex -7.815696e-01  3.652911e-01 -1.587302e-02
     vertex -7.882116e-01  3.556686e-01  1.269842e-01
     vertex -7.815696e-01  3.652911e-01  1.269842e-01
   endloop
 endfacet
 facet normal -8.229839e-01  5.680647e-01  0.000000e+00
   outer loop
     vertex -7.815696e-01  3.652911e-01 -1.587302e-02
     vertex -7.882116e-01  3.556686e-01 -1.587302e-02
     vertex -7.882116e-01  3.556686e-01  1.269842e-01
   endloop
 endfacet
 facet normal -9.350162e-01  3.546049e-01  0.000000e+00
   outer loop
     vertex -7.774235e-01  3.762236e-01 -1.587302e-02
     vertex -7.815696e-01  3.652911e-01  1.269842e-01
     vertex -7.774235e-01  3.762236e-01  1.269842e-01
   endloop
 endfacet
 facet normal -9.927089e-01  1.205367e-01  0.000000e+00
   outer loop
     vertex -7.774235e-01  3.762236e-01 -1.587302e-02
     vertex -7.774235e-01  3.762236e-01  1.269842e-01
     vertex -7.760141e-01  3.878306e-01  1.269842e-01
   endloop
 endfacet
 facet normal -9.350162e-01  3.546049e-01  0.000000e+00
   outer loop
     vertex -7.774235e-01  3.762236e-01 -1.587302e-02
     vertex -7.815696e-01  3.652911e-01 -1.587302e-02
     vertex -7.815696e-01  3.652911e-01  1.269842e-01
   endloop
 endfacet
 facet normal -9.927089e-01  1.205367e-01  0.000000e+00
   outer loop
     vertex -7.760141e-01  3.878306e-01 -1.587302e-02
     vertex -7.774235e-01  3.762236e-01 -1.587302e-02
     vertex -7.760141e-01  3.878306e-01  1.269842e-01
   endloop
 endfacet
 facet normal -0.000000e+00  1.000000e+00  0.000000e+00
   outer loop
     vertex -1.000882e+00  5.289240e-01 -1.587302e-02
     vertex -4.850087e-02  5.289240e-01 -1.587302e-02
     vertex -4.850087e-02  5.289240e-01 -3.174603e-02
   endloop
 endfacet
 facet normal  0.000000e+00  1.000000e+00  0.000000e+00
   outer loop
     vertex -1.000882e+00  5.289240e-01 -1.587302e-02
     vertex -4.850087e-02  5.289240e-01 -3.174603e-02
     vertex -1.000882e+00  5.289240e-01 -3.174603e-02
   endloop
 endfacet
 facet normal -9.927089e-01 -1.205367e-01  0.000000e+00
   outer loop
     vertex -2.216116e-01  7.986693e-02 -1.587302e-02
     vertex -2.204585e-01  7.037028e-02 -3.174603e-02
     vertex -2.204585e-01  7.037028e-02 -1.587302e-02
   endloop
 endfacet
 facet normal -9.927089e-01 -1.205367e-01 -0.000000e+00
   outer loop
     vertex -2.216116e-01  7.986693e-02 -1.587302e-02
     vertex -2.216116e-01  7.986693e-02 -3.174603e-02
     vertex -2.204585e-01  7.037028e-02 -3.174603e-02
   endloop
 endfacet
 facet normal -9.350162e-01 -3.546049e-01 -0.000000e+00
   outer loop
     vertex -2.250039e-01  8.881167e-02 -1.587302e-02
     vertex -2.250039e-01  8.881167e-02 -3.174603e-02
     vertex -2.216116e-01  7.986693e-02 -3.174603e-02
   endloop
 endfacet
 facet normal -9.350162e-01 -3.546049e-01  0.000000e+00
   outer loop
     vertex -2.250039e-01  8.881167e-02 -1.587302e-02
     vertex -2.216116e-01  7.986693e-02 -3.174603e-02
     vertex -2.216116e-01  7.986693e-02 -1.587302e-02
   endloop
 endfacet
 facet normal -8.229839e-01 -5.680647e-01 -0.000000e+00
   outer loop
     vertex -2.304383e-01  9.668467e-02 -1.587302e-02
     vertex -2.304383e-01  9.668467e-02 -3.174603e-02
     vertex -2.250039e-01  8.881167e-02 -3.174603e-02
   endloop
 endfacet
 facet normal -8.229839e-01 -5.680647e-01  0.000000e+00
   outer loop
     vertex -2.304383e-01  9.668467e-02 -1.587302e-02
     vertex -2.250039e-01  8.881167e-02 -3.174603e-02
     vertex -2.250039e-01  8.881167e-02 -1.587302e-02
   endloop
 endfacet
 facet normal -6.631227e-01 -7.485107e-01 -0.000000e+00
   outer loop
     vertex -2.375988e-01  1.030284e-01 -1.587302e-02
     vertex -2.375988e-01  1.030284e-01 -3.174603e-02
     vertex -2.304383e-01  9.668467e-02 -3.174603e-02
   endloop
 endfacet
 facet normal -6.631227e-01 -7.485107e-01  0.000000e+00
   outer loop
     vertex -2.375988e-01  1.030284e-01 -1.587302e-02
     vertex -2.304383e-01  9.668467e-02 -3.174603e-02
     vertex -2.304383e-01  9.668467e-02 -1.587302e-02
   endloop
 endfacet
 facet normal -4.647232e-01 -8.854560e-01 -0.000000e+00
   outer loop
     vertex -2.460695e-01  1.074741e-01 -1.587302e-02
     vertex -2.460695e-01  1.074741e-01 -3.174603e-02
     vertex -2.375988e-01  1.030284e-01 -3.174603e-02
   endloop
 endfacet
 facet normal -4.647232e-01 -8.854560e-01  0.000000e+00
   outer loop
     vertex -2.460695e-01  1.074741e-01 -1.587302e-02
     vertex -2.375988e-01  1.030284e-01 -3.174603e-02
     vertex -2.375988e-01  1.030284e-01 -1.587302e-02
   endloop
 endfacet
 facet normal -2.393157e-01 -9.709418e-01 -0.000000e+00
   outer loop
     vertex -2.553579e-01  1.097635e-01 -1.587302e-02
     vertex -2.553579e-01  1.097635e-01 -3.174603e-02
     vertex -2.460695e-01  1.074741e-01 -3.174603e-02
   endloop
 endfacet
 facet normal -2.393157e-01 -9.709418e-01  0.000000e+00
   outer loop
     vertex -2.553579e-01  1.097635e-01 -1.587302e-02
     vertex -2.460695e-01  1.074741e-01 -3.174603e-02
     vertex -2.460695e-01  1.074741e-01 -1.587302e-02
   endloop
 endfacet
 facet normal  0.000000e+00 -1.000000e+00  0.000000e+00
   outer loop
     vertex -2.649243e-01  1.097635e-01 -1.587302e-02
     vertex -2.649243e-01  1.097635e-01 -3.174603e-02
     vertex -2.553579e-01  1.097635e-01 -3.174603e-02
   endloop
 endfacet
 facet normal  0.000000e+00 -1.000000e+00  0.000000e+00
   outer loop
     vertex -2.649243e-01  1.097635e-01 -1.587302e-02
     vertex -2.553579e-01  1.097635e-01 -3.174603e-02
     vertex -2.553579e-01  1.097635e-01 -1.587302e-02
   endloop
 endfacet
 facet normal  2.393157e-01 -9.709418e-01  0.000000e+00
   outer loop
     vertex -2.742127e-01  1.074741e-01 -1.587302e-02
     vertex -2.742127e-01  1.074741e-01 -3.174603e-02
     vertex -2.649243e-01  1.097635e-01 -3.174603e-02
   endloop
 endfacet
 facet normal  2.393157e-01 -9.709418e-01  0.000000e+00
   outer loop
     vertex -2.742127e-01  1.074741e-01 -1.587302e-02
     vertex -2.649243e-01  1.097635e-01 -3.174603e-02
     vertex -2.649243e-01  1.097635e-01 -1.587302e-02
   endloop
 endfacet
 facet normal  4.647232e-01 -8.854560e-01  0.000000e+00
   outer loop
     vertex -2.826833e-01  1.030284e-01 -1.587302e-02
     vertex -2.826833e-01  1.030284e-01 -3.174603e-02
     vertex -2.742127e-01  1.074741e-01 -3.174603e-02
   endloop
 endfacet
 facet normal  4.647232e-01 -8.854560e-01  0.000000e+00
   outer loop
     vertex -2.826833e-01  1.030284e-01 -1.587302e-02
     vertex -2.742127e-01  1.074741e-01 -3.174603e-02
     vertex -2.742127e-01  1.074741e-01 -1.587302e-02
   endloop
 endfacet
 facet normal  6.631227e-01 -7.485107e-01  0.000000e+00
   outer loop
     vertex -2.898439e-01  9.668467e-02 -1.587302e-02
     vertex -2.898439e-01  9.668467e-02 -3.174603e-02
     vertex -2.826833e-01  1.030284e-01 -3.174603e-02
   endloop
 endfacet
 facet normal  6.631227e-01 -7.485107e-01  0.000000e+00
   outer loop
     vertex -2.898439e-01  9.668467e-02 -1.587302e-02
     vertex -2.826833e-01  1.030284e-01 -3.174603e-02
     vertex -2.826833e-01  1.030284e-01 -1.587302e-02
   endloop
 endfacet
 facet normal  8.229839e-01 -5.680647e-01  0.000000e+00
   outer loop
     vertex -2.952782e-01  8.881167e-02 -1.587302e-02
     vertex -2.898439e-01  9.668467e-02 -3.174603e-02
     vertex -2.898439e-01  9.668467e-02 -1.587302e-02
   endloop
 endfacet
 facet normal  8.229839e-01 -5.680647e-01  0.000000e+00
   outer loop
     vertex -2.952782e-01  8.881167e-02 -1.587302e-02
     vertex -2.952782e-01  8.881167e-02 -3.174603e-02
     vertex -2.898439e-01  9.668467e-02 -3.174603e-02
   endloop
 endfacet
 facet normal  9.350162e-01 -3.546049e-01  0.000000e+00
   outer loop
     vertex -2.986705e-01  7.986693e-02 -1.587302e-02
     vertex -2.952782e-01  8.881167e-02 -3.174603e-02
     vertex -2.952782e-01  8.881167e-02 -1.587302e-02
   endloop
 endfacet
 facet normal  9.350162e-01 -3.546049e-01  0.000000e+00
   outer loop
     vertex -2.986705e-01  7.986693e-02 -1.587302e-02
     vertex -2.986705e-01  7.986693e-02 -3.174603e-02
     vertex -2.952782e-01  8.881167e-02 -3.174603e-02
   endloop
 endfacet
 facet normal  9.927089e-01 -1.205367e-01  0.000000e+00
   outer loop
     vertex -2.998236e-01  7.037028e-02 -1.587302e-02
     vertex -2.986705e-01  7.986693e-02 -3.174603e-02
     vertex -2.986705e-01  7.986693e-02 -1.587302e-02
   endloop
 endfacet
 facet normal  9.927089e-01 -1.205367e-01  0.000000e+00
   outer loop
     vertex -2.998236e-01  7.037028e-02 -1.587302e-02
     vertex -2.998236e-01  7.037028e-02 -3.174603e-02
     vertex -2.986705e-01  7.986693e-02 -3.174603e-02
   endloop
 endfacet
 facet normal  9.927089e-01  1.205367e-01  0.000000e+00
   outer loop
     vertex -2.986705e-01  6.087362e-02 -1.587302e-02
     vertex -2.986705e-01  6.087362e-02 -3.174603e-02
     vertex -2.998236e-01  7.037028e-02 -3.174603e-02
   endloop
 endfacet
 facet normal  9.927089e-01  1.205367e-01  0.000000e+00
   outer loop
     vertex -2.986705e-01  6.087362e-02 -1.587302e-02
     vertex -2.998236e-01  7.037028e-02 -3.174603e-02
     vertex -2.998236e-01  7.037028e-02 -1.587302e-02
   endloop
 endfacet
 facet normal  9.350162e-01  3.546049e-01  0.000000e+00
   outer loop
     vertex -2.952782e-01  5.192888e-02 -1.587302e-02
     vertex -2.986705e-01  6.087362e-02 -3.174603e-02
     vertex -2.986705e-01  6.087362e-02 -1.587302e-02
   endloop
 endfacet
 facet normal  9.350162e-01  3.546049e-01  0.000000e+00
   outer loop
     vertex -2.952782e-01  5.192888e-02 -1.587302e-02
     vertex -2.952782e-01  5.192888e-02 -3.174603e-02
     vertex -2.986705e-01  6.087362e-02 -3.174603e-02
   endloop
 endfacet
 facet normal  8.229839e-01  5.680647e-01  0.000000e+00
   outer loop
     vertex -2.898439e-01  4.405589e-02 -1.587302e-02
     vertex -2.898439e-01  4.405589e-02 -3.174603e-02
     vertex -2.952782e-01  5.192888e-02 -3.174603e-02
   endloop
 endfacet
 facet normal  8.229839e-01  5.680647e-01  0.000000e+00
   outer loop
     vertex -2.898439e-01  4.405589e-02 -1.587302e-02
     vertex -2.952782e-01  5.192888e-02 -3.174603e-02
     vertex -2.952782e-01  5.192888e-02 -1.587302e-02
   endloop
 endfacet
 facet normal  6.631227e-01  7.485107e-01  0.000000e+00
   outer loop
     vertex -2.826833e-01  3.771219e-02 -1.587302e-02
     vertex -2.826833e-01  3.771219e-02 -3.174603e-02
     vertex -2.898439e-01  4.405589e-02 -3.174603e-02
   endloop
 endfacet
 facet normal  6.631227e-01  7.485107e-01  0.000000e+00
   outer loop
     vertex -2.826833e-01  3.771219e-02 -1.587302e-02
     vertex -2.898439e-01  4.405589e-02 -3.174603e-02
     vertex -2.898439e-01  4.405589e-02 -1.587302e-02
   endloop
 endfacet
 facet normal  4.647232e-01  8.854560e-01  0.000000e+00
   outer loop
     vertex -2.742127e-01  3.326646e-02 -1.587302e-02
     vertex -2.742127e-01  3.326646e-02 -3.174603e-02
     vertex -2.826833e-01  3.771219e-02 -3.174603e-02
   endloop
 endfacet
 facet normal  4.647232e-01  8.854560e-01  0.000000e+00
   outer loop
     vertex -2.742127e-01  3.326646e-02 -1.587302e-02
     vertex -2.826833e-01  3.771219e-02 -3.174603e-02
     vertex -2.826833e-01  3.771219e-02 -1.587302e-02
   endloop
 endfacet
 facet normal  2.393157e-01  9.709418e-01  0.000000e+00
   outer loop
     vertex -2.649243e-01  3.097707e-02 -1.587302e-02
     vertex -2.649243e-01  3.097707e-02 -3.174603e-02
     vertex -2.742127e-01  3.326646e-02 -3.174603e-02
   endloop
 endfacet
 facet normal  2.393157e-01  9.709418e-01  0.000000e+00
   outer loop
     vertex -2.649243e-01  3.097707e-02 -1.587302e-02
     vertex -2.742127e-01  3.326646e-02 -3.174603e-02
     vertex -2.742127e-01  3.326646e-02 -1.587302e-02
   endloop
 endfacet
 facet normal  2.901360e-15  1.000000e+00  0.000000e+00
   outer loop
     vertex -2.553579e-01  3.097707e-02 -1.587302e-02
     vertex -2.553579e-01  3.097707e-02 -3.174603e-02
     vertex -2.649243e-01  3.097707e-02 -3.174603e-02
   endloop
 endfacet
 facet normal  2.901360e-15  1.000000e+00  0.000000e+00
   outer loop
     vertex -2.553579e-01  3.097707e-02 -1.587302e-02
     vertex -2.649243e-01  3.097707e-02 -3.174603e-02
     vertex -2.649243e-01  3.097707e-02 -1.587302e-02
   endloop
 endfacet
 facet normal -2.393157e-01  9.709418e-01  0.000000e+00
   outer loop
     vertex -2.460695e-01  3.326646e-02 -1.587302e-02
     vertex -2.460695e-01  3.326646e-02 -3.174603e-02
     vertex -2.553579e-01  3.097707e-02 -3.174603e-02
   endloop
 endfacet
 facet normal -2.393157e-01  9.709418e-01  0.000000e+00
   outer loop
     vertex -2.460695e-01  3.326646e-02 -1.587302e-02
     vertex -2.553579e-01  3.097707e-02 -3.174603e-02
     vertex -2.553579e-01  3.097707e-02 -1.587302e-02
   endloop
 endfacet
 facet normal -4.647232e-01  8.854560e-01  0.000000e+00
   outer loop
     vertex -2.375988e-01  3.771219e-02 -1.587302e-02
     vertex -2.375988e-01  3.771219e-02 -3.174603e-02
     vertex -2.460695e-01  3.326646e-02 -3.174603e-02
   endloop
 endfacet
 facet normal -4.647232e-01  8.854560e-01  0.000000e+00
   outer loop
     vertex -2.375988e-01  3.771219e-02 -1.587302e-02
     vertex -2.460695e-01  3.326646e-02 -3.174603e-02
     vertex -2.460695e-01  3.326646e-02 -1.587302e-02
   endloop
 endfacet
 facet normal -6.631227e-01  7.485107e-01  0.000000e+00
   outer loop
     vertex -2.304383e-01  4.405589e-02 -1.587302e-02
     vertex -2.304383e-01  4.405589e-02 -3.174603e-02
     vertex -2.375988e-01  3.771219e-02 -3.174603e-02
   endloop
 endfacet
 facet normal -6.631227e-01  7.485107e-01  0.000000e+00
   outer loop
     vertex -2.304383e-01  4.405589e-02 -1.587302e-02
     vertex -2.375988e-01  3.771219e-02 -3.174603e-02
     vertex -2.375988e-01  3.771219e-02 -1.587302e-02
   endloop
 endfacet
 facet normal -8.229839e-01  5.680647e-01  0.000000e+00
   outer loop
     vertex -2.250039e-01  5.192888e-02 -1.587302e-02
     vertex -2.250039e-01  5.192888e-02 -3.174603e-02
     vertex -2.304383e-01  4.405589e-02 -3.174603e-02
   endloop
 endfacet
 facet normal -8.229839e-01  5.680647e-01  0.000000e+00
   outer loop
     vertex -2.250039e-01  5.192888e-02 -1.587302e-02
     vertex -2.304383e-01  4.405589e-02 -3.174603e-02
     vertex -2.304383e-01  4.405589e-02 -1.587302e-02
   endloop
 endfacet
 facet normal -9.350162e-01  3.546049e-01  0.000000e+00
   outer loop
     vertex -2.216116e-01  6.087362e-02 -1.587302e-02
     vertex -2.216116e-01  6.087362e-02 -3.174603e-02
     vertex -2.250039e-01  5.192888e-02 -3.174603e-02
   endloop
 endfacet
 facet normal -9.350162e-01  3.546049e-01  0.000000e+00
   outer loop
     vertex -2.216116e-01  6.087362e-02 -1.587302e-02
     vertex -2.250039e-01  5.192888e-02 -3.174603e-02
     vertex -2.250039e-01  5.192888e-02 -1.587302e-02
   endloop
 endfacet
 facet normal -9.927089e-01  1.205367e-01  0.000000e+00
   outer loop
     vertex -2.204585e-01  7.037028e-02 -1.587302e-02
     vertex -2.204585e-01  7.037028e-02 -3.174603e-02
     vertex -2.216116e-01  6.087362e-02 -3.174603e-02
   endloop
 endfacet
 facet normal -9.927089e-01  1.205367e-01  0.000000e+00
   outer loop
     vertex -2.204585e-01  7.037028e-02 -1.587302e-02
     vertex -2.216116e-01  6.087362e-02 -3.174603e-02
     vertex -2.216116e-01  6.087362e-02 -1.587302e-02
   endloop
 endfacet
 facet normal -9.927089e-01 -1.205367e-01  0.000000e+00
   outer loop
     vertex -7.774235e-01  3.994376e-01 -1.587302e-02
     vertex -7.760141e-01  3.878306e-01 -3.174603e-02
     vertex -7.760141e-01  3.878306e-01 -1.587302e-02
   endloop
 endfacet
 facet normal -9.927089e-01 -1.205367e-01 -0.000000e+00
   outer loop
     vertex -7.774235e-01  3.994376e-01 -1.587302e-02
     vertex -7.774235e-01  3.994376e-01 -3.174603e-02
     vertex -7.760141e-01  3.878306e-01 -3.174603e-02
   endloop
 endfacet
 facet normal -9.350162e-01 -3.546049e-01 -0.000000e+00
   outer loop
     vertex -7.815696e-01  4.103701e-01 -1.587302e-02
     vertex -7.815696e-01  4.103701e-01 -3.174603e-02
     vertex -7.774235e-01  3.994376e-01 -3.174603e-02
   endloop
 endfacet
 facet normal -9.350162e-01 -3.546049e-01  0.000000e+00
   outer loop
     vertex -7.815696e-01  4.103701e-01 -1.587302e-02
     vertex -7.774235e-01  3.994376e-01 -3.174603e-02
     vertex -7.774235e-01  3.994376e-01 -1.587302e-02
   endloop
 endfacet
 facet normal -8.229839e-01 -5.680647e-01 -0.000000e+00
   outer loop
     vertex -7.882116e-01  4.199926e-01 -1.587302e-02
     vertex -7.882116e-01  4.199926e-01 -3.174603e-02
     vertex -7.815696e-01  4.103701e-01 -3.174603e-02
   endloop
 endfacet
 facet normal -8.229839e-01 -5.680647e-01  0.000000e+00
   outer loop
     vertex -7.882116e-01  4.199926e-01 -1.587302e-02
     vertex -7.815696e-01  4.103701e-01 -3.174603e-02
     vertex -7.815696e-01  4.103701e-01 -1.587302e-02
   endloop
 endfacet
 facet normal -6.631227e-01 -7.485107e-01 -0.000000e+00
   outer loop
     vertex -7.969634e-01  4.277461e-01 -1.587302e-02
     vertex -7.969634e-01  4.277461e-01 -3.174603e-02
     vertex -7.882116e-01  4.199926e-01 -3.174603e-02
   endloop
 endfacet
 facet normal -6.631227e-01 -7.485107e-01  0.000000e+00
   outer loop
     vertex -7.969634e-01  4.277461e-01 -1.587302e-02
     vertex -7.882116e-01  4.199926e-01 -3.174603e-02
     vertex -7.882116e-01  4.199926e-01 -1.587302e-02
   endloop
 endfacet
 facet normal -4.647232e-01 -8.854560e-01 -0.000000e+00
   outer loop
     vertex -8.073164e-01  4.331797e-01 -1.587302e-02
     vertex -8.073164e-01  4.331797e-01 -3.174603e-02
     vertex -7.969634e-01  4.277461e-01 -3.174603e-02
   endloop
 endfacet
 facet normal -4.647232e-01 -8.854560e-01  0.000000e+00
   outer loop
     vertex -8.073164e-01  4.331797e-01 -1.587302e-02
     vertex -7.969634e-01  4.277461e-01 -3.174603e-02
     vertex -7.969634e-01  4.277461e-01 -1.587302e-02
   endloop
 endfacet
 facet normal -2.393157e-01 -9.709418e-01 -0.000000e+00
   outer loop
     vertex -8.186689e-01  4.359779e-01 -1.587302e-02
     vertex -8.186689e-01  4.359779e-01 -3.174603e-02
     vertex -8.073164e-01  4.331797e-01 -3.174603e-02
   endloop
 endfacet
 facet normal -2.393157e-01 -9.709418e-01  0.000000e+00
   outer loop
     vertex -8.186689e-01  4.359779e-01 -1.587302e-02
     vertex -8.073164e-01  4.331797e-01 -3.174603e-02
     vertex -8.073164e-01  4.331797e-01 -1.587302e-02
   endloop
 endfacet
 facet normal  0.000000e+00 -1.000000e+00  0.000000e+00
   outer loop
     vertex -8.303611e-01  4.359779e-01 -1.587302e-02
     vertex -8.303611e-01  4.359779e-01 -3.174603e-02
     vertex -8.186689e-01  4.359779e-01 -3.174603e-02
   endloop
 endfacet
 facet normal  0.000000e+00 -1.000000e+00  0.000000e+00
   outer loop
     vertex -8.303611e-01  4.359779e-01 -1.587302e-02
     vertex -8.186689e-01  4.359779e-01 -3.174603e-02
     vertex -8.186689e-01  4.359779e-01 -1.587302e-02
   endloop
 endfacet
 facet normal  2.393157e-01 -9.709418e-01  0.000000e+00
   outer loop
     vertex -8.417137e-01  4.331797e-01 -1.587302e-02
     vertex -8.417137e-01  4.331797e-01 -3.174603e-02
     vertex -8.303611e-01  4.359779e-01 -3.174603e-02
   endloop
 endfacet
 facet normal  2.393157e-01 -9.709418e-01  0.000000e+00
   outer loop
     vertex -8.417137e-01  4.331797e-01 -1.587302e-02
     vertex -8.303611e-01  4.359779e-01 -3.174603e-02
     vertex -8.303611e-01  4.359779e-01 -1.587302e-02
   endloop
 endfacet
 facet normal  4.647232e-01 -8.854560e-01  0.000000e+00
   outer loop
     vertex -8.520666e-01  4.277461e-01 -1.587302e-02
     vertex -8.520666e-01  4.277461e-01 -3.174603e-02
     vertex -8.417137e-01  4.331797e-01 -3.174603e-02
   endloop
 endfacet
 facet normal  4.647232e-01 -8.854560e-01  0.000000e+00
   outer loop
     vertex -8.520666e-01  4.277461e-01 -1.587302e-02
     vertex -8.417137e-01  4.331797e-01 -3.174603e-02
     vertex -8.417137e-01  4.331797e-01 -1.587302e-02
   endloop
 endfacet
 facet normal  6.631227e-01 -7.485107e-01  0.000000e+00
   outer loop
     vertex -8.608184e-01  4.199926e-01 -1.587302e-02
     vertex -8.608184e-01  4.199926e-01 -3.174603e-02
     vertex -8.520666e-01  4.277461e-01 -3.174603e-02
   endloop
 endfacet
 facet normal  6.631227e-01 -7.485107e-01  0.000000e+00
   outer loop
     vertex -8.608184e-01  4.199926e-01 -1.587302e-02
     vertex -8.520666e-01  4.277461e-01 -3.174603e-02
     vertex -8.520666e-01  4.277461e-01 -1.587302e-02
   endloop
 endfacet
 facet normal  8.229839e-01 -5.680647e-01  0.000000e+00
   outer loop
     vertex -8.674604e-01  4.103701e-01 -1.587302e-02
     vertex -8.608184e-01  4.199926e-01 -3.174603e-02
     vertex -8.608184e-01  4.199926e-01 -1.587302e-02
   endloop
 endfacet
 facet normal  8.229839e-01 -5.680647e-01  0.000000e+00
   outer loop
     vertex -8.674604e-01  4.103701e-01 -1.587302e-02
     vertex -8.674604e-01  4.103701e-01 -3.174603e-02
     vertex -8.608184e-01  4.199926e-01 -3.174603e-02
   endloop
 endfacet
 facet normal  9.350162e-01 -3.546049e-01  0.000000e+00
   outer loop
     vertex -8.716065e-01  3.994376e-01 -1.587302e-02
     vertex -8.674604e-01  4.103701e-01 -3.174603e-02
     vertex -8.674604e-01  4.103701e-01 -1.587302e-02
   endloop
 endfacet
 facet normal  9.350162e-01 -3.546049e-01  0.000000e+00
   outer loop
     vertex -8.716065e-01  3.994376e-01 -1.587302e-02
     vertex -8.716065e-01  3.994376e-01 -3.174603e-02
     vertex -8.674604e-01  4.103701e-01 -3.174603e-02
   endloop
 endfacet
 facet normal  9.927089e-01 -1.205367e-01  0.000000e+00
   outer loop
     vertex -8.730159e-01  3.878306e-01 -1.587302e-02
     vertex -8.716065e-01  3.994376e-01 -3.174603e-02
     vertex -8.716065e-01  3.994376e-01 -1.587302e-02
   endloop
 endfacet
 facet normal  9.927089e-01 -1.205367e-01  0.000000e+00
   outer loop
     vertex -8.730159e-01  3.878306e-01 -1.587302e-02
     vertex -8.730159e-01  3.878306e-01 -3.174603e-02
     vertex -8.716065e-01  3.994376e-01 -3.174603e-02
   endloop
 endfacet
 facet normal  9.927089e-01  1.205367e-01  0.000000e+00
   outer loop
     vertex -8.716065e-01  3.762236e-01 -1.587302e-02
     vertex -8.716065e-01  3.762236e-01 -3.174603e-02
     vertex -8.730159e-01  3.878306e-01 -3.174603e-02
   endloop
 endfacet
 facet normal  9.927089e-01  1.205367e-01  0.000000e+00
   outer loop
     vertex -8.716065e-01  3.762236e-01 -1.587302e-02
     vertex -8.730159e-01  3.878306e-01 -3.174603e-02
     vertex -8.730159e-01  3.878306e-01 -1.587302e-02
   endloop
 endfacet
 facet normal  9.350162e-01  3.546049e-01  0.000000e+00
   outer loop
     vertex -8.674604e-01  3.652911e-01 -1.587302e-02
     vertex -8.716065e-01  3.762236e-01 -3.174603e-02
     vertex -8.716065e-01  3.762236e-01 -1.587302e-02
   endloop
 endfacet
 facet normal  9.350162e-01  3.546049e-01  0.000000e+00
   outer loop
     vertex -8.674604e-01  3.652911e-01 -1.587302e-02
     vertex -8.674604e-01  3.652911e-01 -3.174603e-02
     vertex -8.716065e-01  3.762236e-01 -3.174603e-02
   endloop
 endfacet
 facet normal  8.229839e-01  5.680647e-01  0.000000e+00
   outer loop
     vertex -8.608184e-01  3.556686e-01 -1.587302e-02
     vertex -8.608184e-01  3.556686e-01 -3.174603e-02
     vertex -8.674604e-01  3.652911e-01 -3.174603e-02
   endloop
 endfacet
 facet normal  8.229839e-01  5.680647e-01  0.000000e+00
   outer loop
     vertex -8.608184e-01  3.556686e-01 -1.587302e-02
     vertex -8.674604e-01  3.652911e-01 -3.174603e-02
     vertex -8.674604e-01  3.652911e-01 -1.587302e-02
   endloop
 endfacet
 facet normal  6.631227e-01  7.485107e-01  0.000000e+00
   outer loop
     vertex -8.520666e-01  3.479152e-01 -1.587302e-02
     vertex -8.520666e-01  3.479152e-01 -3.174603e-02
     vertex -8.608184e-01  3.556686e-01 -3.174603e-02
   endloop
 endfacet
 facet normal  6.631227e-01  7.485107e-01  0.000000e+00
   outer loop
     vertex -8.520666e-01  3.479152e-01 -1.587302e-02
     vertex -8.608184e-01  3.556686e-01 -3.174603e-02
     vertex -8.608184e-01  3.556686e-01 -1.587302e-02
   endloop
 endfacet
 facet normal  4.647232e-01  8.854560e-01  0.000000e+00
   outer loop
     vertex -8.417137e-01  3.424815e-01 -1.587302e-02
     vertex -8.417137e-01  3.424815e-01 -3.174603e-02
     vertex -8.520666e-01  3.479152e-01 -3.174603e-02
   endloop
 endfacet
 facet normal  4.647232e-01  8.854560e-01  0.000000e+00
   outer loop
     vertex -8.417137e-01  3.424815e-01 -1.587302e-02
     vertex -8.520666e-01  3.479152e-01 -3.174603e-02
     vertex -8.520666e-01  3.479152e-01 -1.587302e-02
   endloop
 endfacet
 facet normal  2.393157e-01  9.709418e-01  0.000000e+00
   outer loop
     vertex -8.303611e-01  3.396833e-01 -1.587302e-02
     vertex -8.303611e-01  3.396833e-01 -3.174603e-02
     vertex -8.417137e-01  3.424815e-01 -3.174603e-02
   endloop
 endfacet
 facet normal  2.393157e-01  9.709418e-01  0.000000e+00
   outer loop
     vertex -8.303611e-01  3.396833e-01 -1.587302e-02
     vertex -8.417137e-01  3.424815e-01 -3.174603e-02
     vertex -8.417137e-01  3.424815e-01 -1.587302e-02
   endloop
 endfacet
 facet normal  0.000000e+00  1.000000e+00  0.000000e+00
   outer loop
     vertex -8.186689e-01  3.396833e-01 -1.587302e-02
     vertex -8.186689e-01  3.396833e-01 -3.174603e-02
     vertex -8.303611e-01  3.396833e-01 -3.174603e-02
   endloop
 endfacet
 facet normal  0.000000e+00  1.000000e+00  0.000000e+00
   outer loop
     vertex -8.186689e-01  3.396833e-01 -1.587302e-02
     vertex -8.303611e-01  3.396833e-01 -3.174603e-02
     vertex -8.303611e-01  3.396833e-01 -1.587302e-02
   endloop
 endfacet
 facet normal -2.393157e-01  9.709418e-01  0.000000e+00
   outer loop
     vertex -8.073164e-01  3.424815e-01 -1.587302e-02
     vertex -8.073164e-01  3.424815e-01 -3.174603e-02
     vertex -8.186689e-01  3.396833e-01 -3.174603e-02
   endloop
 endfacet
 facet normal -2.393157e-01  9.709418e-01  0.000000e+00
   outer loop
     vertex -8.073164e-01  3.424815e-01 -1.587302e-02
     vertex -8.186689e-01  3.396833e-01 -3.174603e-02
     vertex -8.186689e-01  3.396833e-01 -1.587302e-02
   endloop
 endfacet
 facet normal -4.647232e-01  8.854560e-01  0.000000e+00
   outer loop
     vertex -7.969634e-01  3.479152e-01 -1.587302e-02
     vertex -7.969634e-01  3.479152e-01 -3.174603e-02
     vertex -8.073164e-01  3.424815e-01 -3.174603e-02
   endloop
 endfacet
 facet normal -4.647232e-01  8.854560e-01  0.000000e+00
   outer loop
     vertex -7.969634e-01  3.479152e-01 -1.587302e-02
     vertex -8.073164e-01  3.424815e-01 -3.174603e-02
     vertex -8.073164e-01  3.424815e-01 -1.587302e-02
   endloop
 endfacet
 facet normal -6.631227e-01  7.485107e-01  0.000000e+00
   outer loop
     vertex -7.882116e-01  3.556686e-01 -1.587302e-02
     vertex -7.882116e-01  3.556686e-01 -3.174603e-02
     vertex -7.969634e-01  3.479152e-01 -3.174603e-02
   endloop
 endfacet
 facet normal -6.631227e-01  7.485107e-01  0.000000e+00
   outer loop
     vertex -7.882116e-01  3.556686e-01 -1.587302e-02
     vertex -7.969634e-01  3.479152e-01 -3.174603e-02
     vertex -7.969634e-01  3.479152e-01 -1.587302e-02
   endloop
 endfacet
 facet normal -8.229839e-01  5.680647e-01  0.000000e+00
   outer loop
     vertex -7.815696e-01  3.652911e-01 -1.587302e-02
     vertex -7.815696e-01  3.652911e-01 -3.174603e-02
     vertex -7.882116e-01  3.556686e-01 -3.174603e-02
   endloop
 endfacet
 facet normal -8.229839e-01  5.680647e-01  0.000000e+00
   outer loop
     vertex -7.815696e-01  3.652911e-01 -1.587302e-02
     vertex -7.882116e-01  3.556686e-01 -3.174603e-02
     vertex -7.882116e-01  3.556686e-01 -1.587302e-02
   endloop
 endfacet
 facet normal -9.350162e-01  3.546049e-01  0.000000e+00
   outer loop
     vertex -7.774235e-01  3.762236e-01 -1.587302e-02
     vertex -7.774235e-01  3.762236e-01 -3.174603e-02
     vertex -7.815696e-01  3.652911e-01 -3.174603e-02
   endloop
 endfacet
 facet normal -9.350162e-01  3.546049e-01  0.000000e+00
   outer loop
     vertex -7.774235e-01  3.762236e-01 -1.587302e-02
     vertex -7.815696e-01  3.652911e-01 -3.174603e-02
     vertex -7.815696e-01  3.652911e-01 -1.587302e-02
   endloop
 endfacet
 facet normal -9.927089e-01  1.205367e-01  0.000000e+00
   outer loop
     vertex -7.760141e-01  3.878306e-01 -1.587302e-02
     vertex -7.760141e-01  3.878306e-01 -3.174603e-02
     vertex -7.774235e-01  3.762236e-01 -3.174603e-02
   endloop
 endfacet
 facet normal -9.927089e-01  1.205367e-01  0.000000e+00
   outer loop
     vertex -7.760141e-01  3.878306e-01 -1.587302e-02
     vertex -7.774235e-01  3.762236e-01 -3.174603e-02
     vertex -7.774235e-01  3.762236e-01 -1.587302e-02
   endloop
 endfacet
endsolid
