solid 
 facet normal  3.671665e-01  0.000000e+00 -9.301552e-01
   outer loop
     vertex  6.936508e-01 -1.587302e-02  2.555555e-01
     vertex -3.015882e-02 -2.222223e-01 -3.015882e-02
     vertex -3.015882e-02 -1.587302e-02 -3.015882e-02
   endloop
 endfacet
 facet normal  3.671665e-01  0.000000e+00 -9.301552e-01
   outer loop
     vertex  6.936508e-01 -1.587302e-02  2.555555e-01
     vertex  6.936508e-01 -2.222223e-01  2.555555e-01
     vertex -3.015882e-02 -2.222223e-01 -3.015882e-02
   endloop
 endfacet
 facet normal -1.000000e+00  0.000000e+00  0.000000e+00
   outer loop
     vertex -3.015882e-02 -1.587302e-02 -3.015882e-02
     vertex -3.015882e-02 -2.222223e-01  6.746032e-01
     vertex -3.015882e-02 -1.587302e-02  6.746032e-01
   endloop
 endfacet
 facet normal -1.000000e+00  0.000000e+00  0.000000e+00
   outer loop
     vertex -3.015882e-02 -1.587302e-02 -3.015882e-02
     vertex -3.015882e-02 -2.222223e-01 -3.015882e-02
     vertex -3.015882e-02 -2.222223e-01  6.746032e-01
   endloop
 endfacet
 facet normal  1.000000e+00  0.000000e+00  0.000000e+00
   outer loop
     vertex  6.936508e-01 -1.587302e-02  9.222222e-01
     vertex  6.936508e-01 -2.222223e-01  2.555555e-01
     vertex  6.936508e-01 -1.587302e-02  2.555555e-01
   endloop
 endfacet
 facet normal  1.000000e+00  0.000000e+00  0.000000e+00
   outer loop
     vertex  6.936508e-01 -1.587302e-02  9.222222e-01
     vertex  6.936508e-01 -2.222223e-01  9.222222e-01
     vertex  6.936508e-01 -2.222223e-01  2.555555e-01
   endloop
 endfacet
 facet normal  3.671665e-01  0.000000e+00 -9.301552e-01
   outer loop
     vertex  6.936508e-01 -1.587302e-02  2.555555e-01
     vertex -3.015882e-02 -1.587302e-02 -3.015882e-02
     vertex -3.015882e-02  0.000000e+00 -3.015882e-02
   endloop
 endfacet
 facet normal  3.671665e-01  0.000000e+00 -9.301552e-01
   outer loop
     vertex  6.936508e-01 -1.587302e-02  2.555555e-01
     vertex -3.015882e-02  0.000000e+00 -3.015882e-02
     vertex  6.936508e-01  0.000000e+00  2.555555e-01
   endloop
 endfacet
 facet normal  0.000000e+00 -1.000000e+00  0.000000e+00
   outer loop
     vertex  1.322345e-01 -2.222223e-01  7.301587e-01
     vertex -3.015882e-02 -2.222223e-01  6.746032e-01
     vertex -3.015882e-02 -2.222223e-01 -3.015882e-02
   endloop
 endfacet
 facet normal  0.000000e+00 -1.000000e+00 -0.000000e+00
   outer loop
     vertex  3.402119e-01 -2.222223e-01  7.301587e-01
     vertex -3.015882e-02 -2.222223e-01 -3.015882e-02
     vertex  6.936508e-01 -2.222223e-01  2.555555e-01
   endloop
 endfacet
 facet normal -0.000000e+00 -1.000000e+00  0.000000e+00
   outer loop
     vertex  3.402119e-01 -2.222223e-01  7.301587e-01
     vertex  1.322345e-01 -2.222223e-01  7.301587e-01
     vertex -3.015882e-02 -2.222223e-01 -3.015882e-02
   endloop
 endfacet
 facet normal  0.000000e+00 -1.000000e+00  0.000000e+00
   outer loop
     vertex  6.936508e-01 -2.222223e-01  9.222222e-01
     vertex  3.402119e-01 -2.222223e-01  8.013089e-01
     vertex  3.402119e-01 -2.222223e-01  7.301587e-01
   endloop
 endfacet
 facet normal  0.000000e+00 -1.000000e+00 -0.000000e+00
   outer loop
     vertex  6.936508e-01 -2.222223e-01  9.222222e-01
     vertex  3.402119e-01 -2.222223e-01  7.301587e-01
     vertex  6.936508e-01 -2.222223e-01  2.555555e-01
   endloop
 endfacet
 facet normal -3.236876e-01  0.000000e+00  9.461640e-01
   outer loop
     vertex  3.402119e-01 -2.222223e-01  8.013089e-01
     vertex  6.936508e-01 -2.222223e-01  9.222222e-01
     vertex  6.936508e-01 -1.587302e-02  9.222222e-01
   endloop
 endfacet
 facet normal -3.236876e-01  1.883270e-16  9.461640e-01
   outer loop
     vertex  2.037037e-01 -1.539682e-01  7.546088e-01
     vertex  3.402119e-01 -2.222223e-01  8.013089e-01
     vertex  6.936508e-01 -1.587302e-02  9.222222e-01
   endloop
 endfacet
 facet normal -3.236876e-01 -1.233661e-15  9.461640e-01
   outer loop
     vertex -3.015882e-02 -2.222223e-01  6.746032e-01
     vertex  1.322345e-01 -2.222223e-01  7.301587e-01
     vertex  1.322345e-01 -1.976438e-01  7.301587e-01
   endloop
 endfacet
 facet normal -3.236876e-01  3.268992e-16  9.461640e-01
   outer loop
     vertex -3.015882e-02 -1.587302e-02  6.746032e-01
     vertex  1.322345e-01 -1.976438e-01  7.301587e-01
     vertex  2.037037e-01 -1.539682e-01  7.546088e-01
   endloop
 endfacet
 facet normal -3.236876e-01  0.000000e+00  9.461640e-01
   outer loop
     vertex -3.015882e-02 -1.587302e-02  6.746032e-01
     vertex -3.015882e-02 -2.222223e-01  6.746032e-01
     vertex  1.322345e-01 -1.976438e-01  7.301587e-01
   endloop
 endfacet
 facet normal -3.236876e-01  3.284157e-16  9.461640e-01
   outer loop
     vertex -3.015882e-02 -1.587302e-02  6.746032e-01
     vertex  2.037037e-01 -1.539682e-01  7.546088e-01
     vertex  6.936508e-01 -1.587302e-02  9.222222e-01
   endloop
 endfacet
 facet normal -1.000000e+00  0.000000e+00  0.000000e+00
   outer loop
     vertex -3.015882e-02 -1.587302e-02 -3.015882e-02
     vertex -3.015882e-02 -1.587302e-02  6.746032e-01
     vertex -3.015882e-02  0.000000e+00  6.746032e-01
   endloop
 endfacet
 facet normal -1.000000e+00  0.000000e+00  0.000000e+00
   outer loop
     vertex -3.015882e-02 -1.587302e-02 -3.015882e-02
     vertex -3.015882e-02  0.000000e+00  6.746032e-01
     vertex -3.015882e-02  0.000000e+00 -3.015882e-02
   endloop
 endfacet
 facet normal  1.000000e+00  0.000000e+00  0.000000e+00
   outer loop
     vertex  6.936508e-01 -1.587302e-02  9.222222e-01
     vertex  6.936508e-01 -1.587302e-02  2.555555e-01
     vertex  6.936508e-01  0.000000e+00  2.555555e-01
   endloop
 endfacet
 facet normal  1.000000e+00 -0.000000e+00  0.000000e+00
   outer loop
     vertex  6.936508e-01 -1.587302e-02  9.222222e-01
     vertex  6.936508e-01  0.000000e+00  2.555555e-01
     vertex  6.936508e-01  0.000000e+00  9.222222e-01
   endloop
 endfacet
 facet normal  0.000000e+00  1.000000e+00  0.000000e+00
   outer loop
     vertex  6.936508e-01  0.000000e+00  2.555555e-01
     vertex -3.015882e-02  0.000000e+00 -3.015882e-02
     vertex -3.015882e-02  0.000000e+00  6.746032e-01
   endloop
 endfacet
 facet normal  0.000000e+00  1.000000e+00  0.000000e+00
   outer loop
     vertex  6.936508e-01  0.000000e+00  9.222222e-01
     vertex  6.936508e-01  0.000000e+00  2.555555e-01
     vertex -3.015882e-02  0.000000e+00  6.746032e-01
   endloop
 endfacet
 facet normal  0.000000e+00  0.000000e+00  1.000000e+00
   outer loop
     vertex  2.037037e-01 -1.539682e-01  7.301587e-01
     vertex  1.322345e-01 -1.976438e-01  7.301587e-01
     vertex  1.322345e-01 -2.222223e-01  7.301587e-01
   endloop
 endfacet
 facet normal  0.000000e+00  0.000000e+00  1.000000e+00
   outer loop
     vertex  3.402119e-01 -2.222223e-01  7.301587e-01
     vertex  2.037037e-01 -1.539682e-01  7.301587e-01
     vertex  1.322345e-01 -2.222223e-01  7.301587e-01
   endloop
 endfacet
 facet normal -4.472136e-01 -8.944272e-01  0.000000e+00
   outer loop
     vertex  2.037037e-01 -1.539682e-01  7.546088e-01
     vertex  3.402119e-01 -2.222223e-01  7.301587e-01
     vertex  3.402119e-01 -2.222223e-01  8.013089e-01
   endloop
 endfacet
 facet normal -4.472136e-01 -8.944272e-01 -0.000000e+00
   outer loop
     vertex  2.037037e-01 -1.539682e-01  7.546088e-01
     vertex  2.037037e-01 -1.539682e-01  7.301587e-01
     vertex  3.402119e-01 -2.222223e-01  7.301587e-01
   endloop
 endfacet
 facet normal -3.236876e-01  0.000000e+00  9.461640e-01
   outer loop
     vertex -3.015882e-02 -1.587302e-02  6.746032e-01
     vertex  6.936508e-01 -1.587302e-02  9.222222e-01
     vertex  6.936508e-01  0.000000e+00  9.222222e-01
   endloop
 endfacet
 facet normal -3.236876e-01  0.000000e+00  9.461640e-01
   outer loop
     vertex -3.015882e-02 -1.587302e-02  6.746032e-01
     vertex  6.936508e-01  0.000000e+00  9.222222e-01
     vertex -3.015882e-02  0.000000e+00  6.746032e-01
   endloop
 endfacet
 facet normal  5.214500e-01 -8.532818e-01  0.000000e+00
   outer loop
     vertex  1.322345e-01 -1.976438e-01  7.301587e-01
     vertex  2.037037e-01 -1.539682e-01  7.301587e-01
     vertex  2.037037e-01 -1.539682e-01  7.546088e-01
   endloop
 endfacet
endsolid
