solid 
 facet normal -9.096880e-01  0.000000e+00  4.152923e-01
   outer loop
     vertex -1.319606e-01 -6.349209e-02 -3.159903e-01
     vertex -1.835979e-01 -1.587302e-02 -4.291006e-01
     vertex -1.835979e-01 -6.349212e-02 -4.291006e-01
   endloop
 endfacet
 facet normal -9.096880e-01  0.000000e+00  4.152923e-01
   outer loop
     vertex -5.820076e-03 -1.587302e-02 -3.968254e-02
     vertex -1.319606e-01 -6.349209e-02 -3.159903e-01
     vertex -5.820076e-03 -6.349212e-02 -3.968254e-02
   endloop
 endfacet
 facet normal -9.096880e-01 -4.799598e-14  4.152923e-01
   outer loop
     vertex -5.820076e-03 -1.587302e-02 -3.968254e-02
     vertex -1.835979e-01 -1.587302e-02 -4.291006e-01
     vertex -1.319606e-01 -6.349209e-02 -3.159903e-01
   endloop
 endfacet
 facet normal  0.000000e+00  0.000000e+00 -1.000000e+00
   outer loop
     vertex -1.835979e-01 -1.587302e-02 -4.291006e-01
     vertex  1.719577e-01 -1.587302e-02 -4.291006e-01
     vertex  1.719577e-01 -6.349212e-02 -4.291006e-01
   endloop
 endfacet
 facet normal  0.000000e+00  0.000000e+00 -1.000000e+00
   outer loop
     vertex -1.835979e-01 -1.587302e-02 -4.291006e-01
     vertex  1.719577e-01 -6.349212e-02 -4.291006e-01
     vertex -1.835979e-01 -6.349212e-02 -4.291006e-01
   endloop
 endfacet
 facet normal  9.096880e-01  0.000000e+00  4.152923e-01
   outer loop
     vertex  1.097071e-01 -6.349209e-02 -2.927420e-01
     vertex -5.820076e-03 -1.587302e-02 -3.968254e-02
     vertex -5.820076e-03 -6.349212e-02 -3.968254e-02
   endloop
 endfacet
 facet normal  9.096880e-01  0.000000e+00  4.152923e-01
   outer loop
     vertex  1.719577e-01 -1.587302e-02 -4.291006e-01
     vertex  1.097071e-01 -6.349209e-02 -2.927420e-01
     vertex  1.719577e-01 -6.349212e-02 -4.291006e-01
   endloop
 endfacet
 facet normal  9.096880e-01  3.114632e-14  4.152923e-01
   outer loop
     vertex  1.719577e-01 -1.587302e-02 -4.291006e-01
     vertex -5.820076e-03 -1.587302e-02 -3.968254e-02
     vertex  1.097071e-01 -6.349209e-02 -2.927420e-01
   endloop
 endfacet
 facet normal -9.096880e-01  0.000000e+00  4.152923e-01
   outer loop
     vertex -5.820076e-03 -1.587302e-02 -3.968254e-02
     vertex -1.835979e-01  0.000000e+00 -4.291006e-01
     vertex -1.835979e-01 -1.587302e-02 -4.291006e-01
   endloop
 endfacet
 facet normal -9.096880e-01  0.000000e+00  4.152923e-01
   outer loop
     vertex -5.820076e-03 -1.587302e-02 -3.968254e-02
     vertex -5.820076e-03  0.000000e+00 -3.968254e-02
     vertex -1.835979e-01  0.000000e+00 -4.291006e-01
   endloop
 endfacet
 facet normal  9.337824e-07 -1.000000e+00 -1.654844e-07
   outer loop
     vertex -1.018749e-01 -6.349206e-02 -3.244898e-01
     vertex -1.319606e-01 -6.349209e-02 -3.159903e-01
     vertex -1.835979e-01 -6.349212e-02 -4.291006e-01
   endloop
 endfacet
 facet normal  8.503434e-08 -1.000000e+00  4.975657e-07
   outer loop
     vertex -7.105848e-02 -6.349206e-02 -3.297563e-01
     vertex -1.018749e-01 -6.349206e-02 -3.244898e-01
     vertex -1.835979e-01 -6.349212e-02 -4.291006e-01
   endloop
 endfacet
 facet normal  3.506874e-08 -1.000000e+00  5.541679e-07
   outer loop
     vertex -3.985767e-02 -6.349206e-02 -3.317308e-01
     vertex -7.105848e-02 -6.349206e-02 -3.297563e-01
     vertex -1.835979e-01 -6.349212e-02 -4.291006e-01
   endloop
 endfacet
 facet normal -2.774997e-08 -1.000000e+00  6.469027e-07
   outer loop
     vertex -8.623184e-03 -6.349206e-02 -3.303909e-01
     vertex -3.985767e-02 -6.349206e-02 -3.317308e-01
     vertex -1.835979e-01 -6.349212e-02 -4.291006e-01
   endloop
 endfacet
 facet normal -7.036975e-08 -1.000000e+00  4.689771e-07
   outer loop
     vertex  1.719577e-01 -6.349212e-02 -4.291006e-01
     vertex  2.229392e-02 -6.349206e-02 -3.257518e-01
     vertex -8.623184e-03 -6.349206e-02 -3.303909e-01
   endloop
 endfacet
 facet normal -1.080349e-07 -1.000000e+00  4.144326e-07
   outer loop
     vertex  1.719577e-01 -6.349212e-02 -4.291006e-01
     vertex  5.254614e-02 -6.349206e-02 -3.178656e-01
     vertex  2.229392e-02 -6.349206e-02 -3.257518e-01
   endloop
 endfacet
 facet normal  0.000000e+00 -1.000000e+00  5.977126e-07
   outer loop
     vertex  1.719577e-01 -6.349212e-02 -4.291006e-01
     vertex -8.623184e-03 -6.349206e-02 -3.303909e-01
     vertex -1.835979e-01 -6.349212e-02 -4.291006e-01
   endloop
 endfacet
 facet normal -1.425215e-07 -1.000000e+00  3.774109e-07
   outer loop
     vertex  8.179344e-02 -6.349206e-02 -3.068210e-01
     vertex  5.254614e-02 -6.349206e-02 -3.178656e-01
     vertex  1.719577e-01 -6.349212e-02 -4.291006e-01
   endloop
 endfacet
 facet normal -9.477263e-07 -1.000000e+00 -2.163162e-07
   outer loop
     vertex  1.097071e-01 -6.349209e-02 -2.927420e-01
     vertex  8.179344e-02 -6.349206e-02 -3.068210e-01
     vertex  1.719577e-01 -6.349212e-02 -4.291006e-01
   endloop
 endfacet
 facet normal -9.337842e-07  1.000000e+00 -3.097194e-07
   outer loop
     vertex -5.820076e-03 -6.349212e-02 -3.968254e-02
     vertex  1.357329e-01 -6.349206e-02 -2.759607e-01
     vertex  1.097071e-01 -6.349209e-02 -2.927420e-01
   endloop
 endfacet
 facet normal -1.356090e-07  1.000000e+00  1.684630e-07
   outer loop
     vertex -5.820076e-03 -6.349212e-02 -3.968254e-02
     vertex  1.598554e-01 -6.349206e-02 -2.565427e-01
     vertex  1.357329e-01 -6.349206e-02 -2.759607e-01
   endloop
 endfacet
 facet normal -1.537853e-07  1.000000e+00  1.545769e-07
   outer loop
     vertex -5.820076e-03 -6.349212e-02 -3.968254e-02
     vertex  1.818085e-01 -6.349206e-02 -2.347020e-01
     vertex  1.598554e-01 -6.349206e-02 -2.565427e-01
   endloop
 endfacet
 facet normal  1.321371e-07  1.000000e+00 -1.298136e-07
   outer loop
     vertex -5.820076e-03 -6.349212e-02 -3.968254e-02
     vertex -2.587818e-01 -6.349206e-02  1.573258e-01
     vertex -2.349531e-01 -6.349206e-02  1.815810e-01
   endloop
 endfacet
 facet normal  1.452389e-07  1.000000e+00 -1.129907e-07
   outer loop
     vertex -5.820076e-03 -6.349212e-02 -3.968254e-02
     vertex -2.796600e-01 -6.349206e-02  1.304889e-01
     vertex -2.587818e-01 -6.349206e-02  1.573258e-01
   endloop
 endfacet
 facet normal  1.564199e-07  1.000000e+00 -9.499821e-08
   outer loop
     vertex -5.820076e-03 -6.349212e-02 -3.968254e-02
     vertex -2.973101e-01 -6.349206e-02  1.014270e-01
     vertex -2.796600e-01 -6.349206e-02  1.304889e-01
   endloop
 endfacet
 facet normal  1.656011e-07  1.000000e+00 -7.603263e-08
   outer loop
     vertex -5.820076e-03 -6.349212e-02 -3.968254e-02
     vertex -3.114975e-01 -6.349206e-02  7.052651e-02
     vertex -2.973101e-01 -6.349206e-02  1.014270e-01
   endloop
 endfacet
 facet normal  1.727190e-07  1.000000e+00 -5.629039e-08
   outer loop
     vertex -5.820076e-03 -6.349212e-02 -3.968254e-02
     vertex -3.220335e-01 -6.349206e-02  3.819830e-02
     vertex -3.114975e-01 -6.349206e-02  7.052651e-02
   endloop
 endfacet
 facet normal  1.777243e-07  1.000000e+00 -3.596791e-08
   outer loop
     vertex -5.820076e-03 -6.349212e-02 -3.968254e-02
     vertex -3.287780e-01 -6.349206e-02  4.872174e-03
     vertex -3.220335e-01 -6.349206e-02  3.819830e-02
   endloop
 endfacet
 facet normal  1.805808e-07  1.000000e+00 -1.526174e-08
   outer loop
     vertex -5.820076e-03 -6.349212e-02 -3.968254e-02
     vertex -3.316415e-01 -6.349206e-02 -2.900880e-02
     vertex -3.287780e-01 -6.349206e-02  4.872174e-03
   endloop
 endfacet
 facet normal  1.812653e-07  1.000000e+00  5.630933e-09
   outer loop
     vertex -5.820076e-03 -6.349212e-02 -3.968254e-02
     vertex -3.305857e-01 -6.349206e-02 -6.299417e-02
     vertex -3.316415e-01 -6.349206e-02 -2.900880e-02
   endloop
 endfacet
 facet normal  1.797665e-07  1.000000e+00  2.651179e-08
   outer loop
     vertex -5.820076e-03 -6.349212e-02 -3.968254e-02
     vertex -3.256248e-01 -6.349206e-02 -9.663209e-02
     vertex -3.305857e-01 -6.349206e-02 -6.299417e-02
   endloop
 endfacet
 facet normal  1.760858e-07  1.000000e+00  4.718077e-08
   outer loop
     vertex -5.820076e-03 -6.349212e-02 -3.968254e-02
     vertex -3.168247e-01 -6.349206e-02 -1.294753e-01
     vertex -3.256248e-01 -6.349206e-02 -9.663209e-02
   endloop
 endfacet
 facet normal  1.702379e-07  1.000000e+00  6.743552e-08
   outer loop
     vertex -5.820076e-03 -6.349212e-02 -3.968254e-02
     vertex -3.043025e-01 -6.349206e-02 -1.610872e-01
     vertex -3.168247e-01 -6.349206e-02 -1.294753e-01
   endloop
 endfacet
 facet normal  1.622513e-07  1.000000e+00  8.707105e-08
   outer loop
     vertex -5.820076e-03 -6.349212e-02 -3.968254e-02
     vertex -2.882245e-01 -6.349206e-02 -1.910475e-01
     vertex -3.043025e-01 -6.349206e-02 -1.610872e-01
   endloop
 endfacet
 facet normal  1.521702e-07  1.000000e+00  1.058796e-07
   outer loop
     vertex -5.820076e-03 -6.349212e-02 -3.968254e-02
     vertex -2.688046e-01 -6.349206e-02 -2.189578e-01
     vertex -2.882245e-01 -6.349206e-02 -1.910475e-01
   endloop
 endfacet
 facet normal  1.400557e-07  1.000000e+00  1.236507e-07
   outer loop
     vertex -5.820076e-03 -6.349212e-02 -3.968254e-02
     vertex -2.463009e-01 -6.349206e-02 -2.444472e-01
     vertex -2.688046e-01 -6.349206e-02 -2.189578e-01
   endloop
 endfacet
 facet normal  1.259883e-07  1.000000e+00  1.401719e-07
   outer loop
     vertex -5.820076e-03 -6.349212e-02 -3.968254e-02
     vertex -2.210127e-01 -6.349206e-02 -2.671765e-01
     vertex -2.463009e-01 -6.349206e-02 -2.444472e-01
   endloop
 endfacet
 facet normal  1.100694e-07  1.000000e+00  1.552299e-07
   outer loop
     vertex -5.820076e-03 -6.349212e-02 -3.968254e-02
     vertex -1.932761e-01 -6.349206e-02 -2.868438e-01
     vertex -2.210127e-01 -6.349206e-02 -2.671765e-01
   endloop
 endfacet
 facet normal  9.242465e-08  1.000000e+00  1.686124e-07
   outer loop
     vertex -5.820076e-03 -6.349212e-02 -3.968254e-02
     vertex -1.634599e-01 -6.349206e-02 -3.031875e-01
     vertex -1.932761e-01 -6.349206e-02 -2.868438e-01
   endloop
 endfacet
 facet normal  8.265535e-07  1.000000e+00 -2.705746e-07
   outer loop
     vertex -5.820076e-03 -6.349212e-02 -3.968254e-02
     vertex -1.319606e-01 -6.349209e-02 -3.159903e-01
     vertex -1.634599e-01 -6.349206e-02 -3.031875e-01
   endloop
 endfacet
 facet normal -1.703863e-07  1.000000e+00  1.386049e-07
   outer loop
     vertex  2.013502e-01 -6.349206e-02 -2.106795e-01
     vertex  1.818085e-01 -6.349206e-02 -2.347020e-01
     vertex -5.820076e-03 -6.349212e-02 -3.968254e-02
   endloop
 endfacet
 facet normal  1.172107e-07  1.000000e+00 -1.452709e-07
   outer loop
     vertex -2.084908e-01 -6.349206e-02  2.029319e-01
     vertex -5.820076e-03 -6.349212e-02 -3.968254e-02
     vertex -2.349531e-01 -6.349206e-02  1.815810e-01
   endloop
 endfacet
 facet normal -1.851415e-07  1.000000e+00  1.207284e-07
   outer loop
     vertex  2.182649e-01 -6.349206e-02 -1.847402e-01
     vertex  2.013502e-01 -6.349206e-02 -2.106795e-01
     vertex -5.820076e-03 -6.349212e-02 -3.968254e-02
   endloop
 endfacet
 facet normal  1.005747e-07  1.000000e+00 -1.591680e-07
   outer loop
     vertex -1.797465e-01 -6.349206e-02  2.210948e-01
     vertex -5.820076e-03 -6.349212e-02 -3.968254e-02
     vertex -2.084908e-01 -6.349206e-02  2.029319e-01
   endloop
 endfacet
 facet normal -1.978026e-07  1.000000e+00  1.011695e-07
   outer loop
     vertex  2.323661e-01 -6.349206e-02 -1.571700e-01
     vertex  2.182649e-01 -6.349206e-02 -1.847402e-01
     vertex -5.820076e-03 -6.349212e-02 -3.968254e-02
   endloop
 endfacet
 facet normal  8.236531e-08  1.000000e+00 -1.713128e-07
   outer loop
     vertex -1.491026e-01 -6.349206e-02  2.358281e-01
     vertex -5.820076e-03 -6.349212e-02 -3.968254e-02
     vertex -1.797465e-01 -6.349206e-02  2.210948e-01
   endloop
 endfacet
 facet normal -2.081518e-07  1.000000e+00  8.018824e-08
   outer loop
     vertex  2.434983e-01 -6.349206e-02 -1.282732e-01
     vertex  2.323661e-01 -6.349206e-02 -1.571700e-01
     vertex -5.820076e-03 -6.349212e-02 -3.968254e-02
   endloop
 endfacet
 facet normal  6.274139e-08  1.000000e+00 -1.815184e-07
   outer loop
     vertex -1.169664e-01 -6.349206e-02  2.469359e-01
     vertex -5.820076e-03 -6.349212e-02 -3.968254e-02
     vertex -1.491026e-01 -6.349206e-02  2.358281e-01
   endloop
 endfacet
 facet normal -2.160085e-07  1.000000e+00  5.807745e-08
   outer loop
     vertex  2.515387e-01 -6.349206e-02 -9.836819e-02
     vertex  2.434983e-01 -6.349206e-02 -1.282732e-01
     vertex -5.820076e-03 -6.349212e-02 -3.968254e-02
   endloop
 endfacet
 facet normal  4.188674e-08  1.000000e+00 -1.896056e-07
   outer loop
     vertex -8.376513e-02 -6.349206e-02  2.542705e-01
     vertex -5.820076e-03 -6.349212e-02 -3.968254e-02
     vertex -1.169664e-01 -6.349206e-02  2.469359e-01
   endloop
 endfacet
 facet normal -2.212351e-07  1.000000e+00  3.515665e-08
   outer loop
     vertex  2.563988e-01 -6.349206e-02 -6.778493e-02
     vertex  2.515387e-01 -6.349206e-02 -9.836819e-02
     vertex -5.820076e-03 -6.349212e-02 -3.968254e-02
   endloop
 endfacet
 facet normal  2.001150e-08  1.000000e+00 -1.954060e-07
   outer loop
     vertex -4.994028e-02 -6.349206e-02  2.577345e-01
     vertex -5.820076e-03 -6.349212e-02 -3.968254e-02
     vertex -8.376513e-02 -6.349206e-02  2.542705e-01
   endloop
 endfacet
 facet normal -2.237421e-07  1.000000e+00  1.176422e-08
   outer loop
     vertex  2.580247e-01 -6.349206e-02 -3.686064e-02
     vertex  2.563988e-01 -6.349206e-02 -6.778493e-02
     vertex -5.820076e-03 -6.349212e-02 -3.968254e-02
   endloop
 endfacet
 facet normal -2.646731e-09  1.000000e+00 -1.987673e-07
   outer loop
     vertex -1.594153e-02 -6.349206e-02  2.572818e-01
     vertex -5.820076e-03 -6.349212e-02 -3.968254e-02
     vertex -4.994028e-02 -6.349206e-02  2.577345e-01
   endloop
 endfacet
 facet normal -2.234783e-07  1.000000e+00 -1.290555e-08
   outer loop
     vertex  2.560644e-01 -6.349206e-02 -2.915430e-03
     vertex  2.580247e-01 -6.349206e-02 -3.686064e-02
     vertex -5.820076e-03 -6.349212e-02 -3.968254e-02
   endloop
 endfacet
 facet normal -2.582250e-08  1.000000e+00 -1.995572e-07
   outer loop
     vertex  1.777910e-02 -6.349206e-02  2.529184e-01
     vertex -5.820076e-03 -6.349212e-02 -3.968254e-02
     vertex -1.594153e-02 -6.349206e-02  2.572818e-01
   endloop
 endfacet
 facet normal -2.198937e-07  1.000000e+00 -3.843784e-08
   outer loop
     vertex  2.502096e-01 -6.349206e-02  3.057847e-02
     vertex  2.560644e-01 -6.349206e-02 -2.915430e-03
     vertex -5.820076e-03 -6.349212e-02 -3.968254e-02
   endloop
 endfacet
 facet normal -4.922308e-08  1.000000e+00 -1.976698e-07
   outer loop
     vertex  5.077327e-02 -6.349206e-02  2.447023e-01
     vertex -5.820076e-03 -6.349212e-02 -3.968254e-02
     vertex  1.777910e-02 -6.349206e-02  2.529184e-01
   endloop
 endfacet
 facet normal -2.130919e-07  1.000000e+00 -6.322343e-08
   outer loop
     vertex  2.405382e-01 -6.349206e-02  6.317575e-02
     vertex  2.502096e-01 -6.349206e-02  3.057847e-02
     vertex -5.820076e-03 -6.349212e-02 -3.968254e-02
   endloop
 endfacet
 facet normal -7.253029e-08  1.000000e+00 -1.930316e-07
   outer loop
     vertex  8.260233e-02 -6.349206e-02  2.327427e-01
     vertex -5.820076e-03 -6.349212e-02 -3.968254e-02
     vertex  5.077327e-02 -6.349206e-02  2.447023e-01
   endloop
 endfacet
 facet normal -2.032335e-07  1.000000e+00 -8.683550e-08
   outer loop
     vertex  2.271786e-01 -6.349206e-02  9.444302e-02
     vertex  2.405382e-01 -6.349206e-02  6.317575e-02
     vertex -5.820076e-03 -6.349212e-02 -3.968254e-02
   endloop
 endfacet
 facet normal -9.540370e-08  1.000000e+00 -1.856075e-07
   outer loop
     vertex  1.128431e-01 -6.349206e-02  2.171987e-01
     vertex -5.820076e-03 -6.349212e-02 -3.968254e-02
     vertex  8.260233e-02 -6.349206e-02  2.327427e-01
   endloop
 endfacet
 facet normal -1.905411e-07  1.000000e+00 -1.088843e-07
   outer loop
     vertex  2.103086e-01 -6.349206e-02  1.239646e-01
     vertex  2.271786e-01 -6.349206e-02  9.444302e-02
     vertex -5.820076e-03 -6.349212e-02 -3.968254e-02
   endloop
 endfacet
 facet normal -1.174854e-07  1.000000e+00 -1.754071e-07
   outer loop
     vertex  1.410935e-01 -6.349206e-02  1.982770e-01
     vertex -5.820076e-03 -6.349212e-02 -3.968254e-02
     vertex  1.128431e-01 -6.349206e-02  2.171987e-01
   endloop
 endfacet
 facet normal -1.752899e-07  1.000000e+00 -1.290265e-07
   outer loop
     vertex  1.901524e-01 -6.349206e-02  1.513479e-01
     vertex  2.103086e-01 -6.349206e-02  1.239646e-01
     vertex -5.820076e-03 -6.349212e-02 -3.968254e-02
   endloop
 endfacet
 facet normal -1.384068e-07  1.000000e+00 -1.624905e-07
   outer loop
     vertex  1.669780e-01 -6.349206e-02  1.762290e-01
     vertex -5.820076e-03 -6.349212e-02 -3.968254e-02
     vertex  1.410935e-01 -6.349206e-02  1.982770e-01
   endloop
 endfacet
 facet normal -1.577964e-07  1.000000e+00 -1.469726e-07
   outer loop
     vertex  1.669780e-01 -6.349206e-02  1.762290e-01
     vertex  1.901524e-01 -6.349206e-02  1.513479e-01
     vertex -5.820076e-03 -6.349212e-02 -3.968254e-02
   endloop
 endfacet
 facet normal  0.000000e+00  0.000000e+00 -1.000000e+00
   outer loop
     vertex -1.835979e-01 -1.587302e-02 -4.291006e-01
     vertex  1.719577e-01  0.000000e+00 -4.291006e-01
     vertex  1.719577e-01 -1.587302e-02 -4.291006e-01
   endloop
 endfacet
 facet normal  0.000000e+00  0.000000e+00 -1.000000e+00
   outer loop
     vertex -1.835979e-01 -1.587302e-02 -4.291006e-01
     vertex -1.835979e-01  0.000000e+00 -4.291006e-01
     vertex  1.719577e-01  0.000000e+00 -4.291006e-01
   endloop
 endfacet
 facet normal  9.096880e-01  0.000000e+00  4.152923e-01
   outer loop
     vertex  1.719577e-01 -1.587302e-02 -4.291006e-01
     vertex -5.820076e-03  0.000000e+00 -3.968254e-02
     vertex -5.820076e-03 -1.587302e-02 -3.968254e-02
   endloop
 endfacet
 facet normal  9.096880e-01 -0.000000e+00  4.152923e-01
   outer loop
     vertex  1.719577e-01 -1.587302e-02 -4.291006e-01
     vertex  1.719577e-01  0.000000e+00 -4.291006e-01
     vertex -5.820076e-03  0.000000e+00 -3.968254e-02
   endloop
 endfacet
 facet normal  0.000000e+00  1.000000e+00  0.000000e+00
   outer loop
     vertex -5.820076e-03  0.000000e+00 -3.968254e-02
     vertex  1.719577e-01  0.000000e+00 -4.291006e-01
     vertex -1.835979e-01  0.000000e+00 -4.291006e-01
   endloop
 endfacet
 facet normal  9.983367e-01 -0.000000e+00  5.765251e-02
   outer loop
     vertex  2.580247e-01 -7.936507e-02 -3.686064e-02
     vertex  2.580247e-01 -6.349206e-02 -3.686064e-02
     vertex  2.560644e-01 -6.349206e-02 -2.915430e-03
   endloop
 endfacet
 facet normal  9.983076e-01 -1.056373e-03  5.814480e-02
   outer loop
     vertex  2.560308e-01 -7.936507e-02 -2.626536e-03
     vertex  2.580247e-01 -7.936507e-02 -3.686064e-02
     vertex  2.560644e-01 -6.349206e-02 -2.915430e-03
   endloop
 endfacet
 facet normal  9.850630e-01  1.047352e-03  1.721909e-01
   outer loop
     vertex  2.560308e-01 -7.936507e-02 -2.626536e-03
     vertex  2.560644e-01 -6.349206e-02 -2.915430e-03
     vertex  2.502096e-01 -6.349206e-02  3.057847e-02
   endloop
 endfacet
 facet normal  9.848056e-01 -2.094700e-03  1.736478e-01
   outer loop
     vertex  2.500761e-01 -7.936507e-02  3.114461e-02
     vertex  2.560308e-01 -7.936507e-02 -2.626536e-03
     vertex  2.502096e-01 -6.349206e-02  3.057847e-02
   endloop
 endfacet
 facet normal  9.586917e-01  2.076658e-03  2.844396e-01
   outer loop
     vertex  2.500761e-01 -7.936507e-02  3.114461e-02
     vertex  2.502096e-01 -6.349206e-02  3.057847e-02
     vertex  2.405382e-01 -6.349206e-02  6.317575e-02
   endloop
 endfacet
 facet normal  9.579849e-01 -3.114977e-03  2.868018e-01
   outer loop
     vertex  2.402410e-01 -7.936507e-02  6.399610e-02
     vertex  2.500761e-01 -7.936507e-02  3.114461e-02
     vertex  2.405382e-01 -6.349206e-02  6.317575e-02
   endloop
 endfacet
 facet normal  9.195735e-01  3.087913e-03  3.929058e-01
   outer loop
     vertex  2.402410e-01 -7.936507e-02  6.399610e-02
     vertex  2.405382e-01 -6.349206e-02  6.317575e-02
     vertex  2.271786e-01 -6.349206e-02  9.444302e-02
   endloop
 endfacet
 facet normal  9.182083e-01 -4.117201e-03  3.960764e-01
   outer loop
     vertex  2.266586e-01 -7.936507e-02  9.548367e-02
     vertex  2.402410e-01 -7.936507e-02  6.399610e-02
     vertex  2.271786e-01 -6.349206e-02  9.444302e-02
   endloop
 endfacet
 facet normal  8.682288e-01  4.081114e-03  4.961473e-01
   outer loop
     vertex  2.266586e-01 -7.936507e-02  9.548367e-02
     vertex  2.271786e-01 -6.349206e-02  9.444302e-02
     vertex  2.103086e-01 -6.349206e-02  1.239646e-01
   endloop
 endfacet
 facet normal  8.660141e-01 -5.101367e-03  4.999935e-01
   outer loop
     vertex  2.095125e-01 -7.936507e-02  1.251815e-01
     vertex  2.266586e-01 -7.936507e-02  9.548367e-02
     vertex  2.103086e-01 -6.349206e-02  1.239646e-01
   endloop
 endfacet
 facet normal  8.053404e-01  5.056259e-03  5.927910e-01
   outer loop
     vertex  2.095125e-01 -7.936507e-02  1.251815e-01
     vertex  2.103086e-01 -6.349206e-02  1.239646e-01
     vertex  1.901524e-01 -6.349206e-02  1.513479e-01
   endloop
 endfacet
 facet normal  8.021084e-01 -6.067474e-03  5.971476e-01
   outer loop
     vertex  1.890347e-01 -7.936507e-02  1.526880e-01
     vertex  2.095125e-01 -7.936507e-02  1.251815e-01
     vertex  1.901524e-01 -6.349206e-02  1.513479e-01
   endloop
 endfacet
 facet normal  7.317449e-01  6.013343e-03  6.815521e-01
   outer loop
     vertex  1.890347e-01 -7.936507e-02  1.526880e-01
     vertex  1.901524e-01 -6.349206e-02  1.513479e-01
     vertex  1.669780e-01 -6.349206e-02  1.762290e-01
   endloop
 endfacet
 facet normal  7.273557e-01 -7.015517e-03  6.862248e-01
   outer loop
     vertex  1.655020e-01 -7.936507e-02  1.776312e-01
     vertex  1.890347e-01 -7.936507e-02  1.526880e-01
     vertex  1.669780e-01 -6.349206e-02  1.762290e-01
   endloop
 endfacet
 facet normal  6.484209e-01  6.952364e-03  7.612503e-01
   outer loop
     vertex  1.655020e-01 -7.936507e-02  1.776312e-01
     vertex  1.669780e-01 -6.349206e-02  1.762290e-01
     vertex  1.410935e-01 -6.349206e-02  1.982770e-01
   endloop
 endfacet
 facet normal  6.427673e-01 -7.945495e-03  7.660203e-01
   outer loop
     vertex  1.392327e-01 -7.936507e-02  1.996738e-01
     vertex  1.655020e-01 -7.936507e-02  1.776312e-01
     vertex  1.410935e-01 -6.349206e-02  1.982770e-01
   endloop
 endfacet
 facet normal  5.564766e-01  7.873319e-03  8.308260e-01
   outer loop
     vertex  1.392327e-01 -7.936507e-02  1.996738e-01
     vertex  1.410935e-01 -6.349206e-02  1.982770e-01
     vertex  1.128431e-01 -6.349206e-02  2.171987e-01
   endloop
 endfacet
 facet normal  5.494874e-01 -8.857405e-03  8.354550e-01
   outer loop
     vertex  1.105820e-01 -7.936507e-02  2.185176e-01
     vertex  1.392327e-01 -7.936507e-02  1.996738e-01
     vertex  1.128431e-01 -6.349206e-02  2.171987e-01
   endloop
 endfacet
 facet normal  4.571349e-01  8.776208e-03  8.893541e-01
   outer loop
     vertex  1.105820e-01 -7.936507e-02  2.185176e-01
     vertex  1.128431e-01 -6.349206e-02  2.171987e-01
     vertex  8.260233e-02 -6.349206e-02  2.327427e-01
   endloop
 endfacet
 facet normal  4.487778e-01 -9.751246e-03  8.935902e-01
   outer loop
     vertex  7.993749e-02 -7.936507e-02  2.339079e-01
     vertex  1.105820e-01 -7.936507e-02  2.185176e-01
     vertex  8.260233e-02 -6.349206e-02  2.327427e-01
   endloop
 endfacet
 facet normal  3.517167e-01  9.661027e-03  9.360566e-01
   outer loop
     vertex  7.993749e-02 -7.936507e-02  2.339079e-01
     vertex  8.260233e-02 -6.349206e-02  2.327427e-01
     vertex  5.077327e-02 -6.349206e-02  2.447023e-01
   endloop
 endfacet
 facet normal  3.420008e-01 -1.062702e-02  9.396396e-01
   outer loop
     vertex  4.771344e-02 -7.936507e-02  2.456365e-01
     vertex  7.993749e-02 -7.936507e-02  2.339079e-01
     vertex  5.077327e-02 -6.349206e-02  2.447023e-01
   endloop
 endfacet
 facet normal  2.416240e-01  1.052777e-02  9.703128e-01
   outer loop
     vertex  4.771344e-02 -7.936507e-02  2.456365e-01
     vertex  5.077327e-02 -6.349206e-02  2.447023e-01
     vertex  1.777910e-02 -6.349206e-02  2.529184e-01
   endloop
 endfacet
 facet normal  2.306007e-01 -1.148471e-02  9.729807e-01
   outer loop
     vertex  1.434567e-02 -7.936507e-02  2.535448e-01
     vertex  4.771344e-02 -7.936507e-02  2.456365e-01
     vertex  1.777910e-02 -6.349206e-02  2.529184e-01
   endloop
 endfacet
 facet normal  1.283208e-01  1.137645e-02  9.916675e-01
   outer loop
     vertex  1.434567e-02 -7.936507e-02  2.535448e-01
     vertex  1.777910e-02 -6.349206e-02  2.529184e-01
     vertex -1.594153e-02 -6.349206e-02  2.572818e-01
   endloop
 endfacet
 facet normal  1.331356e-02  1.220705e-02  9.998369e-01
   outer loop
     vertex -1.971458e-02 -7.936507e-02  2.575258e-01
     vertex -1.594153e-02 -6.349206e-02  2.572818e-01
     vertex -4.994028e-02 -6.349206e-02  2.577345e-01
   endloop
 endfacet
 facet normal  1.160841e-01 -1.232434e-02  9.931629e-01
   outer loop
     vertex -1.971458e-02 -7.936507e-02  2.575258e-01
     vertex  1.434567e-02 -7.936507e-02  2.535448e-01
     vertex -1.594153e-02 -6.349206e-02  2.572818e-01
   endloop
 endfacet
 facet normal -1.018684e-01  1.301958e-02  9.947127e-01
   outer loop
     vertex -5.400670e-02 -7.936507e-02  2.575258e-01
     vertex -4.994028e-02 -6.349206e-02  2.577345e-01
     vertex -8.376513e-02 -6.349206e-02  2.542705e-01
   endloop
 endfacet
 facet normal  0.000000e+00 -1.314589e-02  9.999136e-01
   outer loop
     vertex -5.400670e-02 -7.936507e-02  2.575258e-01
     vertex -1.971458e-02 -7.936507e-02  2.575258e-01
     vertex -4.994028e-02 -6.349206e-02  2.577345e-01
   endloop
 endfacet
 facet normal -2.156935e-01  1.381403e-02  9.763634e-01
   outer loop
     vertex -8.806695e-02 -7.936507e-02  2.535448e-01
     vertex -8.376513e-02 -6.349206e-02  2.542705e-01
     vertex -1.169664e-01 -6.349206e-02  2.469359e-01
   endloop
 endfacet
 facet normal -1.160816e-01 -1.394936e-02  9.931417e-01
   outer loop
     vertex -8.806695e-02 -7.936507e-02  2.535448e-01
     vertex -5.400670e-02 -7.936507e-02  2.575258e-01
     vertex -8.376513e-02 -6.349206e-02  2.542705e-01
   endloop
 endfacet
 facet normal -3.266484e-01  1.459041e-02  9.450333e-01
   outer loop
     vertex -1.214347e-01 -7.936507e-02  2.456365e-01
     vertex -1.169664e-01 -6.349206e-02  2.469359e-01
     vertex -1.491026e-01 -6.349206e-02  2.358281e-01
   endloop
 endfacet
 facet normal -2.305908e-01 -1.473476e-02  9.729392e-01
   outer loop
     vertex -1.214347e-01 -7.936507e-02  2.456365e-01
     vertex -8.806695e-02 -7.936507e-02  2.535448e-01
     vertex -1.169664e-01 -6.349206e-02  2.469359e-01
   endloop
 endfacet
 facet normal -4.332579e-01  1.534871e-02  9.011393e-01
   outer loop
     vertex -1.536588e-01 -7.936507e-02  2.339079e-01
     vertex -1.491026e-01 -6.349206e-02  2.358281e-01
     vertex -1.797465e-01 -6.349206e-02  2.210948e-01
   endloop
 endfacet
 facet normal -3.419790e-01 -1.550208e-02  9.395797e-01
   outer loop
     vertex -1.536588e-01 -7.936507e-02  2.339079e-01
     vertex -1.214347e-01 -7.936507e-02  2.456365e-01
     vertex -1.491026e-01 -6.349206e-02  2.358281e-01
   endloop
 endfacet
 facet normal -5.341046e-01  1.608893e-02  8.452653e-01
   outer loop
     vertex -1.843033e-01 -7.936507e-02  2.185176e-01
     vertex -1.797465e-01 -6.349206e-02  2.210948e-01
     vertex -2.084908e-01 -6.349206e-02  2.029319e-01
   endloop
 endfacet
 facet normal -4.487399e-01 -1.625132e-02  8.935146e-01
   outer loop
     vertex -1.843033e-01 -7.936507e-02  2.185176e-01
     vertex -1.536588e-01 -7.936507e-02  2.339079e-01
     vertex -1.797465e-01 -6.349206e-02  2.210948e-01
   endloop
 endfacet
 facet normal -6.278478e-01  1.681108e-02  7.781546e-01
   outer loop
     vertex -2.129540e-01 -7.936507e-02  1.996738e-01
     vertex -2.084908e-01 -6.349206e-02  2.029319e-01
     vertex -2.349531e-01 -6.349206e-02  1.815810e-01
   endloop
 endfacet
 facet normal -5.494297e-01 -1.698249e-02  8.353673e-01
   outer loop
     vertex -2.129540e-01 -7.936507e-02  1.996738e-01
     vertex -1.843033e-01 -7.936507e-02  2.185176e-01
     vertex -2.084908e-01 -6.349206e-02  2.029319e-01
   endloop
 endfacet
 facet normal -7.132414e-01  1.751515e-02  7.006996e-01
   outer loop
     vertex -2.392233e-01 -7.936507e-02  1.776312e-01
     vertex -2.349531e-01 -6.349206e-02  1.815810e-01
     vertex -2.587818e-01 -6.349206e-02  1.573258e-01
   endloop
 endfacet
 facet normal -6.426870e-01 -1.769558e-02  7.659245e-01
   outer loop
     vertex -2.392233e-01 -7.936507e-02  1.776312e-01
     vertex -2.129540e-01 -7.936507e-02  1.996738e-01
     vertex -2.349531e-01 -6.349206e-02  1.815810e-01
   endloop
 endfacet
 facet normal -7.891501e-01  1.820115e-02  6.139306e-01
   outer loop
     vertex -2.627559e-01 -7.936507e-02  1.526880e-01
     vertex -2.587818e-01 -6.349206e-02  1.573258e-01
     vertex -2.796600e-01 -6.349206e-02  1.304889e-01
   endloop
 endfacet
 facet normal -7.272506e-01 -1.839059e-02  6.861256e-01
   outer loop
     vertex -2.627559e-01 -7.936507e-02  1.526880e-01
     vertex -2.392233e-01 -7.936507e-02  1.776312e-01
     vertex -2.587818e-01 -6.349206e-02  1.573258e-01
   endloop
 endfacet
 facet normal -8.019774e-01 -1.906753e-02  5.970500e-01
   outer loop
     vertex -2.832338e-01 -7.936507e-02  1.251815e-01
     vertex -2.627559e-01 -7.936507e-02  1.526880e-01
     vertex -2.796600e-01 -6.349206e-02  1.304889e-01
   endloop
 endfacet
 facet normal -8.545651e-01  1.886907e-02  5.190014e-01
   outer loop
     vertex -2.832338e-01 -7.936507e-02  1.251815e-01
     vertex -2.796600e-01 -6.349206e-02  1.304889e-01
     vertex -2.973101e-01 -6.349206e-02  1.014270e-01
   endloop
 endfacet
 facet normal -8.658569e-01 -1.972639e-02  4.999027e-01
   outer loop
     vertex -3.003798e-01 -7.936507e-02  9.548367e-02
     vertex -2.832338e-01 -7.936507e-02  1.251815e-01
     vertex -2.973101e-01 -6.349206e-02  1.014270e-01
   endloop
 endfacet
 facet normal -9.086169e-01  1.951892e-02  4.171743e-01
   outer loop
     vertex -3.003798e-01 -7.936507e-02  9.548367e-02
     vertex -2.973101e-01 -6.349206e-02  1.014270e-01
     vertex -3.114975e-01 -6.349206e-02  7.052651e-02
   endloop
 endfacet
 facet normal -9.180256e-01 -2.036718e-02  3.959976e-01
   outer loop
     vertex -3.139622e-01 -7.936507e-02  6.399610e-02
     vertex -3.003798e-01 -7.936507e-02  9.548367e-02
     vertex -3.114975e-01 -6.349206e-02  7.052651e-02
   endloop
 endfacet
 facet normal -9.505871e-01  2.015069e-02  3.098033e-01
   outer loop
     vertex -3.139622e-01 -7.936507e-02  6.399610e-02
     vertex -3.114975e-01 -6.349206e-02  7.052651e-02
     vertex -3.220335e-01 -6.349206e-02  3.819830e-02
   endloop
 endfacet
 facet normal -9.577785e-01 -2.098989e-02  2.867400e-01
   outer loop
     vertex -3.237973e-01 -7.936507e-02  3.114461e-02
     vertex -3.139622e-01 -7.936507e-02  6.399610e-02
     vertex -3.220335e-01 -6.349206e-02  3.819830e-02
   endloop
 endfacet
 facet normal -9.799181e-01  2.076438e-02  1.983162e-01
   outer loop
     vertex -3.237973e-01 -7.936507e-02  3.114461e-02
     vertex -3.220335e-01 -6.349206e-02  3.819830e-02
     vertex -3.287780e-01 -6.349206e-02  4.872174e-03
   endloop
 endfacet
 facet normal -9.845781e-01 -2.159453e-02  1.736077e-01
   outer loop
     vertex -3.297521e-01 -7.936507e-02 -2.626536e-03
     vertex -3.237973e-01 -7.936507e-02  3.114461e-02
     vertex -3.287780e-01 -6.349206e-02  4.872174e-03
   endloop
 endfacet
 facet normal -9.962203e-01  2.136001e-02  8.419530e-02
   outer loop
     vertex -3.297521e-01 -7.936507e-02 -2.626536e-03
     vertex -3.287780e-01 -6.349206e-02  4.872174e-03
     vertex -3.316415e-01 -6.349206e-02 -2.900880e-02
   endloop
 endfacet
 facet normal -9.980625e-01 -2.218110e-02  5.813052e-02
   outer loop
     vertex -3.317460e-01 -7.936507e-02 -3.686064e-02
     vertex -3.297521e-01 -7.936507e-02 -2.626536e-03
     vertex -3.316415e-01 -6.349206e-02 -2.900880e-02
   endloop
 endfacet
 facet normal -9.992773e-01  2.193756e-02 -3.104215e-02
   outer loop
     vertex -3.317460e-01 -7.936507e-02 -3.686064e-02
     vertex -3.316415e-01 -6.349206e-02 -2.900880e-02
     vertex -3.305857e-01 -6.349206e-02 -6.299417e-02
   endloop
 endfacet
 facet normal -9.980498e-01 -2.274960e-02 -5.812978e-02
   outer loop
     vertex -3.297521e-01 -7.936507e-02 -7.109474e-02
     vertex -3.317460e-01 -7.936507e-02 -3.686064e-02
     vertex -3.305857e-01 -6.349206e-02 -6.299417e-02
   endloop
 endfacet
 facet normal -9.890488e-01  2.249704e-02 -1.458640e-01
   outer loop
     vertex -3.297521e-01 -7.936507e-02 -7.109474e-02
     vertex -3.305857e-01 -6.349206e-02 -6.299417e-02
     vertex -3.256248e-01 -6.349206e-02 -9.663209e-02
   endloop
 endfacet
 facet normal -9.845404e-01 -2.330002e-02 -1.736010e-01
   outer loop
     vertex -3.237973e-01 -7.936507e-02 -1.048659e-01
     vertex -3.297521e-01 -7.936507e-02 -7.109474e-02
     vertex -3.256248e-01 -6.349206e-02 -9.663209e-02
   endloop
 endfacet
 facet normal -9.656712e-01  2.303845e-02 -2.587438e-01
   outer loop
     vertex -3.237973e-01 -7.936507e-02 -1.048659e-01
     vertex -3.256248e-01 -6.349206e-02 -9.663209e-02
     vertex -3.168247e-01 -6.349206e-02 -1.294753e-01
   endloop
 endfacet
 facet normal -9.577174e-01 -2.383237e-02 -2.867218e-01
   outer loop
     vertex -3.139622e-01 -7.936507e-02 -1.377174e-01
     vertex -3.237973e-01 -7.936507e-02 -1.048659e-01
     vertex -3.168247e-01 -6.349206e-02 -1.294753e-01
   endloop
 endfacet
 facet normal -9.294556e-01  2.356178e-02 -3.681808e-01
   outer loop
     vertex -3.139622e-01 -7.936507e-02 -1.377174e-01
     vertex -3.168247e-01 -6.349206e-02 -1.294753e-01
     vertex -3.043025e-01 -6.349206e-02 -1.610872e-01
   endloop
 endfacet
 facet normal -9.179439e-01 -2.434666e-02 -3.959624e-01
   outer loop
     vertex -3.003798e-01 -7.936507e-02 -1.692050e-01
     vertex -3.139622e-01 -7.936507e-02 -1.377174e-01
     vertex -3.043025e-01 -6.349206e-02 -1.610872e-01
   endloop
 endfacet
 facet normal -8.808839e-01  2.406706e-02 -4.727202e-01
   outer loop
     vertex -3.003798e-01 -7.936507e-02 -1.692050e-01
     vertex -3.043025e-01 -6.349206e-02 -1.610872e-01
     vertex -2.882245e-01 -6.349206e-02 -1.910475e-01
   endloop
 endfacet
 facet normal -8.657581e-01 -2.484288e-02 -4.998457e-01
   outer loop
     vertex -2.832338e-01 -7.936507e-02 -1.989028e-01
     vertex -3.003798e-01 -7.936507e-02 -1.692050e-01
     vertex -2.882245e-01 -6.349206e-02 -1.910475e-01
   endloop
 endfacet
 facet normal -8.206020e-01  2.455426e-02 -5.709724e-01
   outer loop
     vertex -2.832338e-01 -7.936507e-02 -1.989028e-01
     vertex -2.882245e-01 -6.349206e-02 -1.910475e-01
     vertex -2.688046e-01 -6.349206e-02 -2.189578e-01
   endloop
 endfacet
 facet normal -8.018660e-01 -2.532103e-02 -5.969671e-01
   outer loop
     vertex -2.627559e-01 -7.936507e-02 -2.264093e-01
     vertex -2.832338e-01 -7.936507e-02 -1.989028e-01
     vertex -2.688046e-01 -6.349206e-02 -2.189578e-01
   endloop
 endfacet
 facet normal -7.494117e-01  2.502340e-02 -6.616312e-01
   outer loop
     vertex -2.627559e-01 -7.936507e-02 -2.264093e-01
     vertex -2.688046e-01 -6.349206e-02 -2.189578e-01
     vertex -2.463009e-01 -6.349206e-02 -2.444472e-01
   endloop
 endfacet
 facet normal -7.271319e-01 -2.578112e-02 -6.860135e-01
   outer loop
     vertex -2.392233e-01 -7.936507e-02 -2.513525e-01
     vertex -2.627559e-01 -7.936507e-02 -2.264093e-01
     vertex -2.463009e-01 -6.349206e-02 -2.444472e-01
   endloop
 endfacet
 facet normal -6.682598e-01  2.547447e-02 -7.434917e-01
   outer loop
     vertex -2.392233e-01 -7.936507e-02 -2.513525e-01
     vertex -2.463009e-01 -6.349206e-02 -2.444472e-01
     vertex -2.210127e-01 -6.349206e-02 -2.671765e-01
   endloop
 endfacet
 facet normal -6.425666e-01 -2.622314e-02 -7.657810e-01
   outer loop
     vertex -2.129540e-01 -7.936507e-02 -2.733950e-01
     vertex -2.392233e-01 -7.936507e-02 -2.513525e-01
     vertex -2.210127e-01 -6.349206e-02 -2.671765e-01
   endloop
 endfacet
 facet normal -5.782253e-01  2.590748e-02 -8.154657e-01
   outer loop
     vertex -2.129540e-01 -7.936507e-02 -2.733950e-01
     vertex -2.210127e-01 -6.349206e-02 -2.671765e-01
     vertex -1.932761e-01 -6.349206e-02 -2.868438e-01
   endloop
 endfacet
 facet normal -5.493138e-01 -2.664710e-02 -8.351911e-01
   outer loop
     vertex -1.843033e-01 -7.936507e-02 -2.922389e-01
     vertex -2.129540e-01 -7.936507e-02 -2.733950e-01
     vertex -1.932761e-01 -6.349206e-02 -2.868438e-01
   endloop
 endfacet
 facet normal -4.805054e-01  2.632242e-02 -8.765967e-01
   outer loop
     vertex -1.843033e-01 -7.936507e-02 -2.922389e-01
     vertex -1.932761e-01 -6.349206e-02 -2.868438e-01
     vertex -1.634599e-01 -6.349206e-02 -3.031875e-01
   endloop
 endfacet
 facet normal -4.486349e-01 -2.705299e-02 -8.933056e-01
   outer loop
     vertex -1.536588e-01 -7.936507e-02 -3.076291e-01
     vertex -1.843033e-01 -7.936507e-02 -2.922389e-01
     vertex -1.634599e-01 -6.349206e-02 -3.031875e-01
   endloop
 endfacet
 facet normal -3.763993e-01  2.671932e-02 -9.260722e-01
   outer loop
     vertex -1.536588e-01 -7.936507e-02 -3.076291e-01
     vertex -1.634599e-01 -6.349206e-02 -3.031875e-01
     vertex -1.319606e-01 -6.349209e-02 -3.159903e-01
   endloop
 endfacet
 facet normal -3.418913e-01 -2.744088e-02 -9.393388e-01
   outer loop
     vertex -1.214347e-01 -7.936507e-02 -3.193577e-01
     vertex -1.536588e-01 -7.936507e-02 -3.076291e-01
     vertex -1.319606e-01 -6.349209e-02 -3.159903e-01
   endloop
 endfacet
 facet normal -2.717903e-01  2.386561e-02 -9.620605e-01
   outer loop
     vertex -1.214347e-01 -7.936507e-02 -3.193577e-01
     vertex -1.319606e-01 -6.349209e-02 -3.159903e-01
     vertex -1.018749e-01 -6.349206e-02 -3.244898e-01
   endloop
 endfacet
 facet normal -2.305092e-01 -3.040975e-02 -9.725949e-01
   outer loop
     vertex -8.806695e-02 -7.936507e-02 -3.272660e-01
     vertex -1.214347e-01 -7.936507e-02 -3.193577e-01
     vertex -1.018749e-01 -6.349206e-02 -3.244898e-01
   endloop
 endfacet
 facet normal -1.684020e-01  2.585343e-02 -9.853793e-01
   outer loop
     vertex -8.806695e-02 -7.936507e-02 -3.272660e-01
     vertex -1.018749e-01 -6.349206e-02 -3.244898e-01
     vertex -7.105848e-02 -6.349206e-02 -3.297563e-01
   endloop
 endfacet
 facet normal -1.160356e-01 -3.141501e-02 -9.927481e-01
   outer loop
     vertex -5.400670e-02 -7.936507e-02 -3.312471e-01
     vertex -8.806695e-02 -7.936507e-02 -3.272660e-01
     vertex -7.105848e-02 -6.349206e-02 -3.297563e-01
   endloop
 endfacet
 facet normal -6.313432e-02  2.587707e-02 -9.976695e-01
   outer loop
     vertex -5.400670e-02 -7.936507e-02 -3.312471e-01
     vertex -7.105848e-02 -6.349206e-02 -3.297563e-01
     vertex -3.985767e-02 -6.349206e-02 -3.317308e-01
   endloop
 endfacet
 facet normal -3.236044e-15 -3.045701e-02 -9.995361e-01
   outer loop
     vertex -1.971458e-02 -7.936507e-02 -3.312471e-01
     vertex -5.400670e-02 -7.936507e-02 -3.312471e-01
     vertex -3.985767e-02 -6.349206e-02 -3.317308e-01
   endloop
 endfacet
 facet normal  4.284498e-02  2.393650e-02 -9.987950e-01
   outer loop
     vertex -1.971458e-02 -7.936507e-02 -3.312471e-01
     vertex -3.985767e-02 -6.349206e-02 -3.317308e-01
     vertex -8.623184e-03 -6.349206e-02 -3.303909e-01
   endloop
 endfacet
 facet normal  1.160489e-01 -2.753536e-02 -9.928618e-01
   outer loop
     vertex  1.434567e-02 -7.936507e-02 -3.272660e-01
     vertex -1.971458e-02 -7.936507e-02 -3.312471e-01
     vertex -8.623184e-03 -6.349206e-02 -3.303909e-01
   endloop
 endfacet
 facet normal  1.483585e-01  2.003111e-02 -9.887308e-01
   outer loop
     vertex  1.434567e-02 -7.936507e-02 -3.272660e-01
     vertex -8.623184e-03 -6.349206e-02 -3.303909e-01
     vertex  2.229392e-02 -6.349206e-02 -3.257518e-01
   endloop
 endfacet
 facet normal  2.305567e-01 -2.264899e-02 -9.727953e-01
   outer loop
     vertex  4.771344e-02 -7.936507e-02 -3.193577e-01
     vertex  1.434567e-02 -7.936507e-02 -3.272660e-01
     vertex  2.229392e-02 -6.349206e-02 -3.257518e-01
   endloop
 endfacet
 facet normal  2.522261e-01  1.416006e-02 -9.675647e-01
   outer loop
     vertex  4.771344e-02 -7.936507e-02 -3.193577e-01
     vertex  2.229392e-02 -6.349206e-02 -3.257518e-01
     vertex  5.254614e-02 -6.349206e-02 -3.178656e-01
   endloop
 endfacet
 facet normal  3.419775e-01 -1.579669e-02 -9.395754e-01
   outer loop
     vertex  7.993749e-02 -7.936507e-02 -3.076291e-01
     vertex  4.771344e-02 -7.936507e-02 -3.193577e-01
     vertex  5.254614e-02 -6.349206e-02 -3.178656e-01
   endloop
 endfacet
 facet normal  3.532722e-01  6.322903e-03 -9.354992e-01
   outer loop
     vertex  7.993749e-02 -7.936507e-02 -3.076291e-01
     vertex  5.254614e-02 -6.349206e-02 -3.178656e-01
     vertex  8.179344e-02 -6.349206e-02 -3.068210e-01
   endloop
 endfacet
 facet normal  4.503336e-01 -3.479384e-03 -8.928536e-01
   outer loop
     vertex  1.105820e-01 -7.936507e-02 -2.922389e-01
     vertex  8.179344e-02 -6.349206e-02 -3.068210e-01
     vertex  1.097071e-01 -6.349209e-02 -2.927420e-01
   endloop
 endfacet
 facet normal  5.419063e-01  3.230107e-03 -8.404327e-01
   outer loop
     vertex  1.105820e-01 -7.936507e-02 -2.922389e-01
     vertex  1.097071e-01 -6.349209e-02 -2.927420e-01
     vertex  1.357329e-01 -6.349206e-02 -2.759607e-01
   endloop
 endfacet
 facet normal  4.487883e-01 -6.977932e-03 -8.936109e-01
   outer loop
     vertex  1.105820e-01 -7.936507e-02 -2.922389e-01
     vertex  7.993749e-02 -7.936507e-02 -3.076291e-01
     vertex  8.179344e-02 -6.349206e-02 -3.068210e-01
   endloop
 endfacet
 facet normal  6.270089e-01  1.234465e-02 -7.789142e-01
   outer loop
     vertex  1.392327e-01 -7.936507e-02 -2.733950e-01
     vertex  1.357329e-01 -6.349206e-02 -2.759607e-01
     vertex  1.598554e-01 -6.349206e-02 -2.565427e-01
   endloop
 endfacet
 facet normal  5.494560e-01 -1.388620e-02 -8.354073e-01
   outer loop
     vertex  1.392327e-01 -7.936507e-02 -2.733950e-01
     vertex  1.105820e-01 -7.936507e-02 -2.922389e-01
     vertex  1.357329e-01 -6.349206e-02 -2.759607e-01
   endloop
 endfacet
 facet normal  7.051607e-01  1.908995e-02 -7.087905e-01
   outer loop
     vertex  1.655020e-01 -7.936507e-02 -2.513525e-01
     vertex  1.598554e-01 -6.349206e-02 -2.565427e-01
     vertex  1.818085e-01 -6.349206e-02 -2.347020e-01
   endloop
 endfacet
 facet normal  6.426347e-01 -2.181413e-02 -7.658622e-01
   outer loop
     vertex  1.655020e-01 -7.936507e-02 -2.513525e-01
     vertex  1.392327e-01 -7.936507e-02 -2.733950e-01
     vertex  1.598554e-01 -6.349206e-02 -2.565427e-01
   endloop
 endfacet
 facet normal  7.755303e-01  2.346629e-02 -6.308741e-01
   outer loop
     vertex  1.890347e-01 -7.936507e-02 -2.264093e-01
     vertex  1.818085e-01 -6.349206e-02 -2.347020e-01
     vertex  2.013502e-01 -6.349206e-02 -2.106795e-01
   endloop
 endfacet
 facet normal  7.271011e-01 -2.737273e-02 -6.859845e-01
   outer loop
     vertex  1.890347e-01 -7.936507e-02 -2.264093e-01
     vertex  1.655020e-01 -7.936507e-02 -2.513525e-01
     vertex  1.818085e-01 -6.349206e-02 -2.347020e-01
   endloop
 endfacet
 facet normal  8.373719e-01  2.547475e-02 -5.460396e-01
   outer loop
     vertex  2.095125e-01 -7.936507e-02 -1.989028e-01
     vertex  2.013502e-01 -6.349206e-02 -2.106795e-01
     vertex  2.182649e-01 -6.349206e-02 -1.847402e-01
   endloop
 endfacet
 facet normal  8.017485e-01 -3.056355e-02 -5.968796e-01
   outer loop
     vertex  2.095125e-01 -7.936507e-02 -1.989028e-01
     vertex  1.890347e-01 -7.936507e-02 -2.264093e-01
     vertex  2.013502e-01 -6.349206e-02 -2.106795e-01
   endloop
 endfacet
 facet normal  8.900254e-01  2.511604e-02 -4.552187e-01
   outer loop
     vertex  2.266586e-01 -7.936507e-02 -1.692050e-01
     vertex  2.182649e-01 -6.349206e-02 -1.847402e-01
     vertex  2.323661e-01 -6.349206e-02 -1.571700e-01
   endloop
 endfacet
 facet normal  8.655987e-01 -3.138798e-02 -4.997536e-01
   outer loop
     vertex  2.266586e-01 -7.936507e-02 -1.692050e-01
     vertex  2.095125e-01 -7.936507e-02 -1.989028e-01
     vertex  2.182649e-01 -6.349206e-02 -1.847402e-01
   endloop
 endfacet
 facet normal  9.329165e-01  2.239002e-02 -3.593960e-01
   outer loop
     vertex  2.402410e-01 -7.936507e-02 -1.377174e-01
     vertex  2.323661e-01 -6.349206e-02 -1.571700e-01
     vertex  2.434983e-01 -6.349206e-02 -1.282732e-01
   endloop
 endfacet
 facet normal  9.178070e-01 -2.984644e-02 -3.959033e-01
   outer loop
     vertex  2.402410e-01 -7.936507e-02 -1.377174e-01
     vertex  2.266586e-01 -7.936507e-02 -1.692050e-01
     vertex  2.323661e-01 -6.349206e-02 -1.571700e-01
   endloop
 endfacet
 facet normal  9.655595e-01  1.729580e-02 -2.596067e-01
   outer loop
     vertex  2.500761e-01 -7.936507e-02 -1.048659e-01
     vertex  2.434983e-01 -6.349206e-02 -1.282732e-01
     vertex  2.515387e-01 -6.349206e-02 -9.836819e-02
   endloop
 endfacet
 facet normal  9.576672e-01 -2.593816e-02 -2.867067e-01
   outer loop
     vertex  2.500761e-01 -7.936507e-02 -1.048659e-01
     vertex  2.402410e-01 -7.936507e-02 -1.377174e-01
     vertex  2.434983e-01 -6.349206e-02 -1.282732e-01
   endloop
 endfacet
 facet normal  9.875602e-01  9.832378e-03 -1.569340e-01
   outer loop
     vertex  2.560308e-01 -7.936507e-02 -7.109474e-02
     vertex  2.515387e-01 -6.349206e-02 -9.836819e-02
     vertex  2.563988e-01 -6.349206e-02 -6.778493e-02
   endloop
 endfacet
 facet normal  9.846174e-01 -1.966159e-02 -1.736146e-01
   outer loop
     vertex  2.560308e-01 -7.936507e-02 -7.109474e-02
     vertex  2.500761e-01 -7.936507e-02 -1.048659e-01
     vertex  2.515387e-01 -6.349206e-02 -9.836819e-02
   endloop
 endfacet
 facet normal  9.986206e-01  0.000000e+00 -5.250686e-02
   outer loop
     vertex  2.580247e-01 -7.936507e-02 -3.686064e-02
     vertex  2.563988e-01 -6.349206e-02 -6.778493e-02
     vertex  2.580247e-01 -6.349206e-02 -3.686064e-02
   endloop
 endfacet
 facet normal  9.982476e-01 -1.101540e-02 -5.814130e-02
   outer loop
     vertex  2.580247e-01 -7.936507e-02 -3.686064e-02
     vertex  2.560308e-01 -7.936507e-02 -7.109474e-02
     vertex  2.563988e-01 -6.349206e-02 -6.778493e-02
   endloop
 endfacet
 facet normal  9.983082e-01  0.000000e+00  5.814483e-02
   outer loop
     vertex  2.560308e-01 -7.936507e-02 -2.626536e-03
     vertex  2.580247e-01 -1.079365e+00 -3.686064e-02
     vertex  2.580247e-01 -7.936507e-02 -3.686064e-02
   endloop
 endfacet
 facet normal  9.983082e-01  0.000000e+00  5.814483e-02
   outer loop
     vertex  2.560308e-01 -7.936507e-02 -2.626536e-03
     vertex  2.560308e-01 -1.079365e+00 -2.626536e-03
     vertex  2.580247e-01 -1.079365e+00 -3.686064e-02
   endloop
 endfacet
 facet normal  9.848078e-01  0.000000e+00  1.736482e-01
   outer loop
     vertex  2.500761e-01 -7.936507e-02  3.114461e-02
     vertex  2.500761e-01 -1.079365e+00  3.114461e-02
     vertex  2.560308e-01 -1.079365e+00 -2.626536e-03
   endloop
 endfacet
 facet normal  9.848078e-01  0.000000e+00  1.736482e-01
   outer loop
     vertex  2.500761e-01 -7.936507e-02  3.114461e-02
     vertex  2.560308e-01 -1.079365e+00 -2.626536e-03
     vertex  2.560308e-01 -7.936507e-02 -2.626536e-03
   endloop
 endfacet
 facet normal  9.579895e-01  0.000000e+00  2.868032e-01
   outer loop
     vertex  2.402410e-01 -7.936507e-02  6.399610e-02
     vertex  2.402410e-01 -1.079365e+00  6.399610e-02
     vertex  2.500761e-01 -1.079365e+00  3.114461e-02
   endloop
 endfacet
 facet normal  9.579895e-01  0.000000e+00  2.868032e-01
   outer loop
     vertex  2.402410e-01 -7.936507e-02  6.399610e-02
     vertex  2.500761e-01 -1.079365e+00  3.114461e-02
     vertex  2.500761e-01 -7.936507e-02  3.114461e-02
   endloop
 endfacet
 facet normal  9.182161e-01  0.000000e+00  3.960798e-01
   outer loop
     vertex  2.266586e-01 -7.936507e-02  9.548367e-02
     vertex  2.266586e-01 -1.079365e+00  9.548367e-02
     vertex  2.402410e-01 -1.079365e+00  6.399610e-02
   endloop
 endfacet
 facet normal  9.182161e-01  0.000000e+00  3.960798e-01
   outer loop
     vertex  2.266586e-01 -7.936507e-02  9.548367e-02
     vertex  2.402410e-01 -1.079365e+00  6.399610e-02
     vertex  2.402410e-01 -7.936507e-02  6.399610e-02
   endloop
 endfacet
 facet normal  8.660254e-01  0.000000e+00  5.000000e-01
   outer loop
     vertex  2.095125e-01 -7.936507e-02  1.251815e-01
     vertex  2.095125e-01 -1.079365e+00  1.251815e-01
     vertex  2.266586e-01 -1.079365e+00  9.548367e-02
   endloop
 endfacet
 facet normal  8.660254e-01  0.000000e+00  5.000000e-01
   outer loop
     vertex  2.095125e-01 -7.936507e-02  1.251815e-01
     vertex  2.266586e-01 -1.079365e+00  9.548367e-02
     vertex  2.266586e-01 -7.936507e-02  9.548367e-02
   endloop
 endfacet
 facet normal  8.021232e-01  0.000000e+00  5.971586e-01
   outer loop
     vertex  1.890347e-01 -7.936507e-02  1.526880e-01
     vertex  1.890347e-01 -1.079365e+00  1.526880e-01
     vertex  2.095125e-01 -1.079365e+00  1.251815e-01
   endloop
 endfacet
 facet normal  8.021232e-01  0.000000e+00  5.971586e-01
   outer loop
     vertex  1.890347e-01 -7.936507e-02  1.526880e-01
     vertex  2.095125e-01 -1.079365e+00  1.251815e-01
     vertex  2.095125e-01 -7.936507e-02  1.251815e-01
   endloop
 endfacet
 facet normal  7.273736e-01  0.000000e+00  6.862416e-01
   outer loop
     vertex  1.655020e-01 -7.936507e-02  1.776312e-01
     vertex  1.655020e-01 -1.079365e+00  1.776312e-01
     vertex  1.890347e-01 -1.079365e+00  1.526880e-01
   endloop
 endfacet
 facet normal  7.273736e-01  0.000000e+00  6.862416e-01
   outer loop
     vertex  1.655020e-01 -7.936507e-02  1.776312e-01
     vertex  1.890347e-01 -1.079365e+00  1.526880e-01
     vertex  1.890347e-01 -7.936507e-02  1.526880e-01
   endloop
 endfacet
 facet normal  6.427876e-01  0.000000e+00  7.660444e-01
   outer loop
     vertex  1.392327e-01 -7.936507e-02  1.996738e-01
     vertex  1.392327e-01 -1.079365e+00  1.996738e-01
     vertex  1.655020e-01 -1.079365e+00  1.776312e-01
   endloop
 endfacet
 facet normal  6.427876e-01  0.000000e+00  7.660444e-01
   outer loop
     vertex  1.392327e-01 -7.936507e-02  1.996738e-01
     vertex  1.655020e-01 -1.079365e+00  1.776312e-01
     vertex  1.655020e-01 -7.936507e-02  1.776312e-01
   endloop
 endfacet
 facet normal  5.495090e-01  0.000000e+00  8.354878e-01
   outer loop
     vertex  1.105820e-01 -7.936507e-02  2.185176e-01
     vertex  1.105820e-01 -1.079365e+00  2.185176e-01
     vertex  1.392327e-01 -1.079365e+00  1.996738e-01
   endloop
 endfacet
 facet normal  5.495090e-01  0.000000e+00  8.354878e-01
   outer loop
     vertex  1.105820e-01 -7.936507e-02  2.185176e-01
     vertex  1.392327e-01 -1.079365e+00  1.996738e-01
     vertex  1.392327e-01 -7.936507e-02  1.996738e-01
   endloop
 endfacet
 facet normal  4.487992e-01  0.000000e+00  8.936326e-01
   outer loop
     vertex  7.993749e-02 -7.936507e-02  2.339079e-01
     vertex  7.993749e-02 -1.079365e+00  2.339079e-01
     vertex  1.105820e-01 -1.079365e+00  2.185176e-01
   endloop
 endfacet
 facet normal  4.487992e-01  0.000000e+00  8.936326e-01
   outer loop
     vertex  7.993749e-02 -7.936507e-02  2.339079e-01
     vertex  1.105820e-01 -1.079365e+00  2.185176e-01
     vertex  1.105820e-01 -7.936507e-02  2.185176e-01
   endloop
 endfacet
 facet normal  3.420201e-01  0.000000e+00  9.396926e-01
   outer loop
     vertex  4.771344e-02 -7.936507e-02  2.456365e-01
     vertex  4.771344e-02 -1.079365e+00  2.456365e-01
     vertex  7.993749e-02 -1.079365e+00  2.339079e-01
   endloop
 endfacet
 facet normal  3.420201e-01  0.000000e+00  9.396926e-01
   outer loop
     vertex  4.771344e-02 -7.936507e-02  2.456365e-01
     vertex  7.993749e-02 -1.079365e+00  2.339079e-01
     vertex  7.993749e-02 -7.936507e-02  2.339079e-01
   endloop
 endfacet
 facet normal  2.306159e-01  0.000000e+00  9.730449e-01
   outer loop
     vertex  1.434567e-02 -7.936507e-02  2.535448e-01
     vertex  1.434567e-02 -1.079365e+00  2.535448e-01
     vertex  4.771344e-02 -1.079365e+00  2.456365e-01
   endloop
 endfacet
 facet normal  2.306159e-01  0.000000e+00  9.730449e-01
   outer loop
     vertex  1.434567e-02 -7.936507e-02  2.535448e-01
     vertex  4.771344e-02 -1.079365e+00  2.456365e-01
     vertex  4.771344e-02 -7.936507e-02  2.456365e-01
   endloop
 endfacet
 facet normal  1.160929e-01  0.000000e+00  9.932384e-01
   outer loop
     vertex -1.971458e-02 -7.936507e-02  2.575258e-01
     vertex -1.971458e-02 -1.079365e+00  2.575258e-01
     vertex  1.434567e-02 -1.079365e+00  2.535448e-01
   endloop
 endfacet
 facet normal  1.160929e-01  0.000000e+00  9.932384e-01
   outer loop
     vertex -1.971458e-02 -7.936507e-02  2.575258e-01
     vertex  1.434567e-02 -1.079365e+00  2.535448e-01
     vertex  1.434567e-02 -7.936507e-02  2.535448e-01
   endloop
 endfacet
 facet normal  0.000000e+00  0.000000e+00  1.000000e+00
   outer loop
     vertex -5.400670e-02 -7.936507e-02  2.575258e-01
     vertex -5.400670e-02 -1.079365e+00  2.575258e-01
     vertex -1.971458e-02 -1.079365e+00  2.575258e-01
   endloop
 endfacet
 facet normal -1.160929e-01  0.000000e+00  9.932384e-01
   outer loop
     vertex -5.400670e-02 -7.936507e-02  2.575258e-01
     vertex -8.806695e-02 -1.079365e+00  2.535448e-01
     vertex -5.400670e-02 -1.079365e+00  2.575258e-01
   endloop
 endfacet
 facet normal -0.000000e+00  0.000000e+00  1.000000e+00
   outer loop
     vertex -5.400670e-02 -7.936507e-02  2.575258e-01
     vertex -1.971458e-02 -1.079365e+00  2.575258e-01
     vertex -1.971458e-02 -7.936507e-02  2.575258e-01
   endloop
 endfacet
 facet normal -1.160929e-01  0.000000e+00  9.932384e-01
   outer loop
     vertex -8.806695e-02 -7.936507e-02  2.535448e-01
     vertex -8.806695e-02 -1.079365e+00  2.535448e-01
     vertex -5.400670e-02 -7.936507e-02  2.575258e-01
   endloop
 endfacet
 facet normal -2.306159e-01  0.000000e+00  9.730449e-01
   outer loop
     vertex -1.214347e-01 -7.936507e-02  2.456365e-01
     vertex -1.214347e-01 -1.079365e+00  2.456365e-01
     vertex -8.806695e-02 -1.079365e+00  2.535448e-01
   endloop
 endfacet
 facet normal -3.420201e-01  0.000000e+00  9.396926e-01
   outer loop
     vertex -1.214347e-01 -7.936507e-02  2.456365e-01
     vertex -1.536588e-01 -1.079365e+00  2.339079e-01
     vertex -1.214347e-01 -1.079365e+00  2.456365e-01
   endloop
 endfacet
 facet normal -2.306159e-01  0.000000e+00  9.730449e-01
   outer loop
     vertex -1.214347e-01 -7.936507e-02  2.456365e-01
     vertex -8.806695e-02 -1.079365e+00  2.535448e-01
     vertex -8.806695e-02 -7.936507e-02  2.535448e-01
   endloop
 endfacet
 facet normal -3.420201e-01  0.000000e+00  9.396926e-01
   outer loop
     vertex -1.536588e-01 -7.936507e-02  2.339079e-01
     vertex -1.536588e-01 -1.079365e+00  2.339079e-01
     vertex -1.214347e-01 -7.936507e-02  2.456365e-01
   endloop
 endfacet
 facet normal -4.487992e-01  0.000000e+00  8.936326e-01
   outer loop
     vertex -1.843033e-01 -7.936507e-02  2.185176e-01
     vertex -1.843033e-01 -1.079365e+00  2.185176e-01
     vertex -1.536588e-01 -1.079365e+00  2.339079e-01
   endloop
 endfacet
 facet normal -5.495090e-01  0.000000e+00  8.354878e-01
   outer loop
     vertex -1.843033e-01 -7.936507e-02  2.185176e-01
     vertex -2.129540e-01 -1.079365e+00  1.996738e-01
     vertex -1.843033e-01 -1.079365e+00  2.185176e-01
   endloop
 endfacet
 facet normal -4.487992e-01  0.000000e+00  8.936326e-01
   outer loop
     vertex -1.843033e-01 -7.936507e-02  2.185176e-01
     vertex -1.536588e-01 -1.079365e+00  2.339079e-01
     vertex -1.536588e-01 -7.936507e-02  2.339079e-01
   endloop
 endfacet
 facet normal -5.495090e-01  0.000000e+00  8.354878e-01
   outer loop
     vertex -2.129540e-01 -7.936507e-02  1.996738e-01
     vertex -2.129540e-01 -1.079365e+00  1.996738e-01
     vertex -1.843033e-01 -7.936507e-02  2.185176e-01
   endloop
 endfacet
 facet normal -6.427876e-01  0.000000e+00  7.660444e-01
   outer loop
     vertex -2.392233e-01 -7.936507e-02  1.776312e-01
     vertex -2.392233e-01 -1.079365e+00  1.776312e-01
     vertex -2.129540e-01 -1.079365e+00  1.996738e-01
   endloop
 endfacet
 facet normal -7.273736e-01  0.000000e+00  6.862416e-01
   outer loop
     vertex -2.392233e-01 -7.936507e-02  1.776312e-01
     vertex -2.627559e-01 -1.079365e+00  1.526880e-01
     vertex -2.392233e-01 -1.079365e+00  1.776312e-01
   endloop
 endfacet
 facet normal -6.427876e-01  0.000000e+00  7.660444e-01
   outer loop
     vertex -2.392233e-01 -7.936507e-02  1.776312e-01
     vertex -2.129540e-01 -1.079365e+00  1.996738e-01
     vertex -2.129540e-01 -7.936507e-02  1.996738e-01
   endloop
 endfacet
 facet normal -7.273736e-01  0.000000e+00  6.862416e-01
   outer loop
     vertex -2.627559e-01 -7.936507e-02  1.526880e-01
     vertex -2.627559e-01 -1.079365e+00  1.526880e-01
     vertex -2.392233e-01 -7.936507e-02  1.776312e-01
   endloop
 endfacet
 facet normal -8.021232e-01  0.000000e+00  5.971586e-01
   outer loop
     vertex -2.832338e-01 -7.936507e-02  1.251815e-01
     vertex -2.627559e-01 -1.079365e+00  1.526880e-01
     vertex -2.627559e-01 -7.936507e-02  1.526880e-01
   endloop
 endfacet
 facet normal -8.021232e-01  0.000000e+00  5.971586e-01
   outer loop
     vertex -2.832338e-01 -7.936507e-02  1.251815e-01
     vertex -2.832338e-01 -1.079365e+00  1.251815e-01
     vertex -2.627559e-01 -1.079365e+00  1.526880e-01
   endloop
 endfacet
 facet normal -8.660254e-01  0.000000e+00  5.000000e-01
   outer loop
     vertex -3.003798e-01 -7.936507e-02  9.548367e-02
     vertex -2.832338e-01 -1.079365e+00  1.251815e-01
     vertex -2.832338e-01 -7.936507e-02  1.251815e-01
   endloop
 endfacet
 facet normal -8.660254e-01  0.000000e+00  5.000000e-01
   outer loop
     vertex -3.003798e-01 -7.936507e-02  9.548367e-02
     vertex -3.003798e-01 -1.079365e+00  9.548367e-02
     vertex -2.832338e-01 -1.079365e+00  1.251815e-01
   endloop
 endfacet
 facet normal -9.182161e-01  0.000000e+00  3.960798e-01
   outer loop
     vertex -3.139622e-01 -7.936507e-02  6.399610e-02
     vertex -3.003798e-01 -1.079365e+00  9.548367e-02
     vertex -3.003798e-01 -7.936507e-02  9.548367e-02
   endloop
 endfacet
 facet normal -9.182161e-01  0.000000e+00  3.960798e-01
   outer loop
     vertex -3.139622e-01 -7.936507e-02  6.399610e-02
     vertex -3.139622e-01 -1.079365e+00  6.399610e-02
     vertex -3.003798e-01 -1.079365e+00  9.548367e-02
   endloop
 endfacet
 facet normal -9.579895e-01  0.000000e+00  2.868032e-01
   outer loop
     vertex -3.139622e-01 -7.936507e-02  6.399610e-02
     vertex -3.237973e-01 -1.079365e+00  3.114461e-02
     vertex -3.139622e-01 -1.079365e+00  6.399610e-02
   endloop
 endfacet
 facet normal -9.579895e-01  0.000000e+00  2.868032e-01
   outer loop
     vertex -3.237973e-01 -7.936507e-02  3.114461e-02
     vertex -3.237973e-01 -1.079365e+00  3.114461e-02
     vertex -3.139622e-01 -7.936507e-02  6.399610e-02
   endloop
 endfacet
 facet normal -9.848078e-01  0.000000e+00  1.736482e-01
   outer loop
     vertex -3.237973e-01 -7.936507e-02  3.114461e-02
     vertex -3.297521e-01 -1.079365e+00 -2.626536e-03
     vertex -3.237973e-01 -1.079365e+00  3.114461e-02
   endloop
 endfacet
 facet normal -9.848078e-01  0.000000e+00  1.736482e-01
   outer loop
     vertex -3.297521e-01 -7.936507e-02 -2.626536e-03
     vertex -3.297521e-01 -1.079365e+00 -2.626536e-03
     vertex -3.237973e-01 -7.936507e-02  3.114461e-02
   endloop
 endfacet
 facet normal -9.983082e-01  0.000000e+00  5.814483e-02
   outer loop
     vertex -3.317460e-01 -7.936507e-02 -3.686064e-02
     vertex -3.297521e-01 -1.079365e+00 -2.626536e-03
     vertex -3.297521e-01 -7.936507e-02 -2.626536e-03
   endloop
 endfacet
 facet normal -9.983082e-01  0.000000e+00  5.814483e-02
   outer loop
     vertex -3.317460e-01 -7.936507e-02 -3.686064e-02
     vertex -3.317460e-01 -1.079365e+00 -3.686064e-02
     vertex -3.297521e-01 -1.079365e+00 -2.626536e-03
   endloop
 endfacet
 facet normal -9.983082e-01  0.000000e+00 -5.814483e-02
   outer loop
     vertex -3.297521e-01 -7.936507e-02 -7.109474e-02
     vertex -3.317460e-01 -1.079365e+00 -3.686064e-02
     vertex -3.317460e-01 -7.936507e-02 -3.686064e-02
   endloop
 endfacet
 facet normal -9.983082e-01 -0.000000e+00 -5.814483e-02
   outer loop
     vertex -3.297521e-01 -7.936507e-02 -7.109474e-02
     vertex -3.297521e-01 -1.079365e+00 -7.109474e-02
     vertex -3.317460e-01 -1.079365e+00 -3.686064e-02
   endloop
 endfacet
 facet normal -9.848078e-01 -0.000000e+00 -1.736482e-01
   outer loop
     vertex -3.297521e-01 -7.936507e-02 -7.109474e-02
     vertex -3.237973e-01 -1.079365e+00 -1.048659e-01
     vertex -3.297521e-01 -1.079365e+00 -7.109474e-02
   endloop
 endfacet
 facet normal -9.848078e-01 -0.000000e+00 -1.736482e-01
   outer loop
     vertex -3.237973e-01 -7.936507e-02 -1.048659e-01
     vertex -3.237973e-01 -1.079365e+00 -1.048659e-01
     vertex -3.297521e-01 -7.936507e-02 -7.109474e-02
   endloop
 endfacet
 facet normal -9.579895e-01 -0.000000e+00 -2.868032e-01
   outer loop
     vertex -3.139622e-01 -7.936507e-02 -1.377174e-01
     vertex -3.139622e-01 -1.079365e+00 -1.377174e-01
     vertex -3.237973e-01 -1.079365e+00 -1.048659e-01
   endloop
 endfacet
 facet normal -9.579895e-01  0.000000e+00 -2.868032e-01
   outer loop
     vertex -3.139622e-01 -7.936507e-02 -1.377174e-01
     vertex -3.237973e-01 -1.079365e+00 -1.048659e-01
     vertex -3.237973e-01 -7.936507e-02 -1.048659e-01
   endloop
 endfacet
 facet normal -9.182161e-01 -0.000000e+00 -3.960798e-01
   outer loop
     vertex -3.003798e-01 -7.936507e-02 -1.692050e-01
     vertex -3.003798e-01 -1.079365e+00 -1.692050e-01
     vertex -3.139622e-01 -1.079365e+00 -1.377174e-01
   endloop
 endfacet
 facet normal -9.182161e-01  0.000000e+00 -3.960798e-01
   outer loop
     vertex -3.003798e-01 -7.936507e-02 -1.692050e-01
     vertex -3.139622e-01 -1.079365e+00 -1.377174e-01
     vertex -3.139622e-01 -7.936507e-02 -1.377174e-01
   endloop
 endfacet
 facet normal -8.660254e-01 -0.000000e+00 -5.000000e-01
   outer loop
     vertex -2.832338e-01 -7.936507e-02 -1.989028e-01
     vertex -2.832338e-01 -1.079365e+00 -1.989028e-01
     vertex -3.003798e-01 -1.079365e+00 -1.692050e-01
   endloop
 endfacet
 facet normal -8.660254e-01  0.000000e+00 -5.000000e-01
   outer loop
     vertex -2.832338e-01 -7.936507e-02 -1.989028e-01
     vertex -3.003798e-01 -1.079365e+00 -1.692050e-01
     vertex -3.003798e-01 -7.936507e-02 -1.692050e-01
   endloop
 endfacet
 facet normal -8.021232e-01 -0.000000e+00 -5.971586e-01
   outer loop
     vertex -2.627559e-01 -7.936507e-02 -2.264093e-01
     vertex -2.627559e-01 -1.079365e+00 -2.264093e-01
     vertex -2.832338e-01 -1.079365e+00 -1.989028e-01
   endloop
 endfacet
 facet normal -8.021232e-01  0.000000e+00 -5.971586e-01
   outer loop
     vertex -2.627559e-01 -7.936507e-02 -2.264093e-01
     vertex -2.832338e-01 -1.079365e+00 -1.989028e-01
     vertex -2.832338e-01 -7.936507e-02 -1.989028e-01
   endloop
 endfacet
 facet normal -7.273736e-01 -0.000000e+00 -6.862416e-01
   outer loop
     vertex -2.392233e-01 -7.936507e-02 -2.513525e-01
     vertex -2.392233e-01 -1.079365e+00 -2.513525e-01
     vertex -2.627559e-01 -1.079365e+00 -2.264093e-01
   endloop
 endfacet
 facet normal -7.273736e-01  0.000000e+00 -6.862416e-01
   outer loop
     vertex -2.392233e-01 -7.936507e-02 -2.513525e-01
     vertex -2.627559e-01 -1.079365e+00 -2.264093e-01
     vertex -2.627559e-01 -7.936507e-02 -2.264093e-01
   endloop
 endfacet
 facet normal -6.427876e-01 -0.000000e+00 -7.660444e-01
   outer loop
     vertex -2.129540e-01 -7.936507e-02 -2.733950e-01
     vertex -2.129540e-01 -1.079365e+00 -2.733950e-01
     vertex -2.392233e-01 -1.079365e+00 -2.513525e-01
   endloop
 endfacet
 facet normal -6.427876e-01  0.000000e+00 -7.660444e-01
   outer loop
     vertex -2.129540e-01 -7.936507e-02 -2.733950e-01
     vertex -2.392233e-01 -1.079365e+00 -2.513525e-01
     vertex -2.392233e-01 -7.936507e-02 -2.513525e-01
   endloop
 endfacet
 facet normal -5.495090e-01 -0.000000e+00 -8.354878e-01
   outer loop
     vertex -1.843033e-01 -7.936507e-02 -2.922389e-01
     vertex -1.843033e-01 -1.079365e+00 -2.922389e-01
     vertex -2.129540e-01 -1.079365e+00 -2.733950e-01
   endloop
 endfacet
 facet normal -5.495090e-01  0.000000e+00 -8.354878e-01
   outer loop
     vertex -1.843033e-01 -7.936507e-02 -2.922389e-01
     vertex -2.129540e-01 -1.079365e+00 -2.733950e-01
     vertex -2.129540e-01 -7.936507e-02 -2.733950e-01
   endloop
 endfacet
 facet normal -4.487992e-01 -0.000000e+00 -8.936326e-01
   outer loop
     vertex -1.536588e-01 -7.936507e-02 -3.076291e-01
     vertex -1.536588e-01 -1.079365e+00 -3.076291e-01
     vertex -1.843033e-01 -1.079365e+00 -2.922389e-01
   endloop
 endfacet
 facet normal -4.487992e-01  0.000000e+00 -8.936326e-01
   outer loop
     vertex -1.536588e-01 -7.936507e-02 -3.076291e-01
     vertex -1.843033e-01 -1.079365e+00 -2.922389e-01
     vertex -1.843033e-01 -7.936507e-02 -2.922389e-01
   endloop
 endfacet
 facet normal -3.420201e-01 -0.000000e+00 -9.396926e-01
   outer loop
     vertex -1.214347e-01 -7.936507e-02 -3.193577e-01
     vertex -1.214347e-01 -1.079365e+00 -3.193577e-01
     vertex -1.536588e-01 -1.079365e+00 -3.076291e-01
   endloop
 endfacet
 facet normal -3.420201e-01  0.000000e+00 -9.396926e-01
   outer loop
     vertex -1.214347e-01 -7.936507e-02 -3.193577e-01
     vertex -1.536588e-01 -1.079365e+00 -3.076291e-01
     vertex -1.536588e-01 -7.936507e-02 -3.076291e-01
   endloop
 endfacet
 facet normal -2.306159e-01 -0.000000e+00 -9.730449e-01
   outer loop
     vertex -8.806695e-02 -7.936507e-02 -3.272660e-01
     vertex -8.806695e-02 -1.079365e+00 -3.272660e-01
     vertex -1.214347e-01 -1.079365e+00 -3.193577e-01
   endloop
 endfacet
 facet normal -2.306159e-01  0.000000e+00 -9.730449e-01
   outer loop
     vertex -8.806695e-02 -7.936507e-02 -3.272660e-01
     vertex -1.214347e-01 -1.079365e+00 -3.193577e-01
     vertex -1.214347e-01 -7.936507e-02 -3.193577e-01
   endloop
 endfacet
 facet normal -1.160929e-01 -0.000000e+00 -9.932384e-01
   outer loop
     vertex -5.400670e-02 -7.936507e-02 -3.312471e-01
     vertex -5.400670e-02 -1.079365e+00 -3.312471e-01
     vertex -8.806695e-02 -1.079365e+00 -3.272660e-01
   endloop
 endfacet
 facet normal -3.237546e-15 -0.000000e+00 -1.000000e+00
   outer loop
     vertex -5.400670e-02 -7.936507e-02 -3.312471e-01
     vertex -1.971458e-02 -1.079365e+00 -3.312471e-01
     vertex -5.400670e-02 -1.079365e+00 -3.312471e-01
   endloop
 endfacet
 facet normal -1.160929e-01  0.000000e+00 -9.932384e-01
   outer loop
     vertex -5.400670e-02 -7.936507e-02 -3.312471e-01
     vertex -8.806695e-02 -1.079365e+00 -3.272660e-01
     vertex -8.806695e-02 -7.936507e-02 -3.272660e-01
   endloop
 endfacet
 facet normal -3.237546e-15 -0.000000e+00 -1.000000e+00
   outer loop
     vertex -1.971458e-02 -7.936507e-02 -3.312471e-01
     vertex -1.971458e-02 -1.079365e+00 -3.312471e-01
     vertex -5.400670e-02 -7.936507e-02 -3.312471e-01
   endloop
 endfacet
 facet normal  1.160929e-01  0.000000e+00 -9.932384e-01
   outer loop
     vertex  1.434567e-02 -7.936507e-02 -3.272660e-01
     vertex  1.434567e-02 -1.079365e+00 -3.272660e-01
     vertex -1.971458e-02 -1.079365e+00 -3.312471e-01
   endloop
 endfacet
 facet normal  1.160929e-01  0.000000e+00 -9.932384e-01
   outer loop
     vertex  1.434567e-02 -7.936507e-02 -3.272660e-01
     vertex -1.971458e-02 -1.079365e+00 -3.312471e-01
     vertex -1.971458e-02 -7.936507e-02 -3.312471e-01
   endloop
 endfacet
 facet normal  2.306159e-01  0.000000e+00 -9.730449e-01
   outer loop
     vertex  4.771344e-02 -7.936507e-02 -3.193577e-01
     vertex  4.771344e-02 -1.079365e+00 -3.193577e-01
     vertex  1.434567e-02 -1.079365e+00 -3.272660e-01
   endloop
 endfacet
 facet normal  2.306159e-01  0.000000e+00 -9.730449e-01
   outer loop
     vertex  4.771344e-02 -7.936507e-02 -3.193577e-01
     vertex  1.434567e-02 -1.079365e+00 -3.272660e-01
     vertex  1.434567e-02 -7.936507e-02 -3.272660e-01
   endloop
 endfacet
 facet normal  3.420201e-01  0.000000e+00 -9.396926e-01
   outer loop
     vertex  7.993749e-02 -7.936507e-02 -3.076291e-01
     vertex  7.993749e-02 -1.079365e+00 -3.076291e-01
     vertex  4.771344e-02 -1.079365e+00 -3.193577e-01
   endloop
 endfacet
 facet normal  4.487992e-01  0.000000e+00 -8.936326e-01
   outer loop
     vertex  7.993749e-02 -7.936507e-02 -3.076291e-01
     vertex  1.105820e-01 -1.079365e+00 -2.922389e-01
     vertex  7.993749e-02 -1.079365e+00 -3.076291e-01
   endloop
 endfacet
 facet normal  3.420201e-01  0.000000e+00 -9.396926e-01
   outer loop
     vertex  7.993749e-02 -7.936507e-02 -3.076291e-01
     vertex  4.771344e-02 -1.079365e+00 -3.193577e-01
     vertex  4.771344e-02 -7.936507e-02 -3.193577e-01
   endloop
 endfacet
 facet normal  4.487992e-01  0.000000e+00 -8.936326e-01
   outer loop
     vertex  1.105820e-01 -7.936507e-02 -2.922389e-01
     vertex  1.105820e-01 -1.079365e+00 -2.922389e-01
     vertex  7.993749e-02 -7.936507e-02 -3.076291e-01
   endloop
 endfacet
 facet normal  5.495090e-01  0.000000e+00 -8.354878e-01
   outer loop
     vertex  1.392327e-01 -7.936507e-02 -2.733950e-01
     vertex  1.392327e-01 -1.079365e+00 -2.733950e-01
     vertex  1.105820e-01 -1.079365e+00 -2.922389e-01
   endloop
 endfacet
 facet normal  6.427876e-01  0.000000e+00 -7.660444e-01
   outer loop
     vertex  1.392327e-01 -7.936507e-02 -2.733950e-01
     vertex  1.655020e-01 -1.079365e+00 -2.513525e-01
     vertex  1.392327e-01 -1.079365e+00 -2.733950e-01
   endloop
 endfacet
 facet normal  5.495090e-01  0.000000e+00 -8.354878e-01
   outer loop
     vertex  1.392327e-01 -7.936507e-02 -2.733950e-01
     vertex  1.105820e-01 -1.079365e+00 -2.922389e-01
     vertex  1.105820e-01 -7.936507e-02 -2.922389e-01
   endloop
 endfacet
 facet normal  6.427876e-01  0.000000e+00 -7.660444e-01
   outer loop
     vertex  1.655020e-01 -7.936507e-02 -2.513525e-01
     vertex  1.655020e-01 -1.079365e+00 -2.513525e-01
     vertex  1.392327e-01 -7.936507e-02 -2.733950e-01
   endloop
 endfacet
 facet normal  7.273736e-01  0.000000e+00 -6.862416e-01
   outer loop
     vertex  1.655020e-01 -7.936507e-02 -2.513525e-01
     vertex  1.890347e-01 -1.079365e+00 -2.264093e-01
     vertex  1.655020e-01 -1.079365e+00 -2.513525e-01
   endloop
 endfacet
 facet normal  7.273736e-01  0.000000e+00 -6.862416e-01
   outer loop
     vertex  1.890347e-01 -7.936507e-02 -2.264093e-01
     vertex  1.890347e-01 -1.079365e+00 -2.264093e-01
     vertex  1.655020e-01 -7.936507e-02 -2.513525e-01
   endloop
 endfacet
 facet normal  8.021232e-01  0.000000e+00 -5.971586e-01
   outer loop
     vertex  2.095125e-01 -7.936507e-02 -1.989028e-01
     vertex  1.890347e-01 -1.079365e+00 -2.264093e-01
     vertex  1.890347e-01 -7.936507e-02 -2.264093e-01
   endloop
 endfacet
 facet normal  8.021232e-01  0.000000e+00 -5.971586e-01
   outer loop
     vertex  2.095125e-01 -7.936507e-02 -1.989028e-01
     vertex  2.095125e-01 -1.079365e+00 -1.989028e-01
     vertex  1.890347e-01 -1.079365e+00 -2.264093e-01
   endloop
 endfacet
 facet normal  8.660254e-01  0.000000e+00 -5.000000e-01
   outer loop
     vertex  2.266586e-01 -7.936507e-02 -1.692050e-01
     vertex  2.095125e-01 -1.079365e+00 -1.989028e-01
     vertex  2.095125e-01 -7.936507e-02 -1.989028e-01
   endloop
 endfacet
 facet normal  8.660254e-01  0.000000e+00 -5.000000e-01
   outer loop
     vertex  2.266586e-01 -7.936507e-02 -1.692050e-01
     vertex  2.266586e-01 -1.079365e+00 -1.692050e-01
     vertex  2.095125e-01 -1.079365e+00 -1.989028e-01
   endloop
 endfacet
 facet normal  9.182161e-01  0.000000e+00 -3.960798e-01
   outer loop
     vertex  2.266586e-01 -7.936507e-02 -1.692050e-01
     vertex  2.402410e-01 -1.079365e+00 -1.377174e-01
     vertex  2.266586e-01 -1.079365e+00 -1.692050e-01
   endloop
 endfacet
 facet normal  9.182161e-01  0.000000e+00 -3.960798e-01
   outer loop
     vertex  2.402410e-01 -7.936507e-02 -1.377174e-01
     vertex  2.402410e-01 -1.079365e+00 -1.377174e-01
     vertex  2.266586e-01 -7.936507e-02 -1.692050e-01
   endloop
 endfacet
 facet normal  9.579895e-01  0.000000e+00 -2.868032e-01
   outer loop
     vertex  2.500761e-01 -7.936507e-02 -1.048659e-01
     vertex  2.402410e-01 -1.079365e+00 -1.377174e-01
     vertex  2.402410e-01 -7.936507e-02 -1.377174e-01
   endloop
 endfacet
 facet normal  9.579895e-01  0.000000e+00 -2.868032e-01
   outer loop
     vertex  2.500761e-01 -7.936507e-02 -1.048659e-01
     vertex  2.500761e-01 -1.079365e+00 -1.048659e-01
     vertex  2.402410e-01 -1.079365e+00 -1.377174e-01
   endloop
 endfacet
 facet normal  9.848078e-01  0.000000e+00 -1.736482e-01
   outer loop
     vertex  2.560308e-01 -7.936507e-02 -7.109474e-02
     vertex  2.500761e-01 -1.079365e+00 -1.048659e-01
     vertex  2.500761e-01 -7.936507e-02 -1.048659e-01
   endloop
 endfacet
 facet normal  9.848078e-01  0.000000e+00 -1.736482e-01
   outer loop
     vertex  2.560308e-01 -7.936507e-02 -7.109474e-02
     vertex  2.560308e-01 -1.079365e+00 -7.109474e-02
     vertex  2.500761e-01 -1.079365e+00 -1.048659e-01
   endloop
 endfacet
 facet normal  9.983082e-01  0.000000e+00 -5.814483e-02
   outer loop
     vertex  2.580247e-01 -7.936507e-02 -3.686064e-02
     vertex  2.560308e-01 -1.079365e+00 -7.109474e-02
     vertex  2.560308e-01 -7.936507e-02 -7.109474e-02
   endloop
 endfacet
 facet normal  9.983082e-01  0.000000e+00 -5.814483e-02
   outer loop
     vertex  2.580247e-01 -7.936507e-02 -3.686064e-02
     vertex  2.580247e-01 -1.079365e+00 -3.686064e-02
     vertex  2.560308e-01 -1.079365e+00 -7.109474e-02
   endloop
 endfacet
 facet normal  0.000000e+00 -1.000000e+00  0.000000e+00
   outer loop
     vertex  1.890347e-01 -1.079365e+00 -2.264093e-01
     vertex  1.105820e-01 -1.079365e+00 -2.922389e-01
     vertex  1.392327e-01 -1.079365e+00 -2.733950e-01
   endloop
 endfacet
 facet normal  0.000000e+00 -1.000000e+00  0.000000e+00
   outer loop
     vertex  1.890347e-01 -1.079365e+00 -2.264093e-01
     vertex  1.392327e-01 -1.079365e+00 -2.733950e-01
     vertex  1.655020e-01 -1.079365e+00 -2.513525e-01
   endloop
 endfacet
 facet normal  0.000000e+00 -1.000000e+00  0.000000e+00
   outer loop
     vertex -1.843033e-01 -1.079365e+00  2.185176e-01
     vertex -2.129540e-01 -1.079365e+00  1.996738e-01
     vertex -2.392233e-01 -1.079365e+00  1.776312e-01
   endloop
 endfacet
 facet normal  0.000000e+00 -1.000000e+00  0.000000e+00
   outer loop
     vertex  2.500761e-01 -1.079365e+00  3.114461e-02
     vertex  2.580247e-01 -1.079365e+00 -3.686064e-02
     vertex  2.560308e-01 -1.079365e+00 -2.626536e-03
   endloop
 endfacet
 facet normal  0.000000e+00 -1.000000e+00  0.000000e+00
   outer loop
     vertex  1.105820e-01 -1.079365e+00  2.185176e-01
     vertex  7.993749e-02 -1.079365e+00  2.339079e-01
     vertex  4.771344e-02 -1.079365e+00  2.456365e-01
   endloop
 endfacet
 facet normal  0.000000e+00 -1.000000e+00  0.000000e+00
   outer loop
     vertex  1.890347e-01 -1.079365e+00  1.526880e-01
     vertex  2.402410e-01 -1.079365e+00  6.399610e-02
     vertex  2.266586e-01 -1.079365e+00  9.548367e-02
   endloop
 endfacet
 facet normal  0.000000e+00 -1.000000e+00  0.000000e+00
   outer loop
     vertex  1.890347e-01 -1.079365e+00  1.526880e-01
     vertex  2.266586e-01 -1.079365e+00  9.548367e-02
     vertex  2.095125e-01 -1.079365e+00  1.251815e-01
   endloop
 endfacet
 facet normal  0.000000e+00 -1.000000e+00  0.000000e+00
   outer loop
     vertex  1.655020e-01 -1.079365e+00  1.776312e-01
     vertex -1.843033e-01 -1.079365e+00  2.185176e-01
     vertex -2.392233e-01 -1.079365e+00  1.776312e-01
   endloop
 endfacet
 facet normal  0.000000e+00 -1.000000e+00  0.000000e+00
   outer loop
     vertex  1.655020e-01 -1.079365e+00  1.776312e-01
     vertex  2.500761e-01 -1.079365e+00  3.114461e-02
     vertex  2.402410e-01 -1.079365e+00  6.399610e-02
   endloop
 endfacet
 facet normal  0.000000e+00 -1.000000e+00  0.000000e+00
   outer loop
     vertex  1.655020e-01 -1.079365e+00  1.776312e-01
     vertex  1.392327e-01 -1.079365e+00  1.996738e-01
     vertex  1.105820e-01 -1.079365e+00  2.185176e-01
   endloop
 endfacet
 facet normal  0.000000e+00 -1.000000e+00  0.000000e+00
   outer loop
     vertex  1.655020e-01 -1.079365e+00  1.776312e-01
     vertex  4.771344e-02 -1.079365e+00  2.456365e-01
     vertex  1.434567e-02 -1.079365e+00  2.535448e-01
   endloop
 endfacet
 facet normal  0.000000e+00 -1.000000e+00  0.000000e+00
   outer loop
     vertex  1.655020e-01 -1.079365e+00  1.776312e-01
     vertex  1.434567e-02 -1.079365e+00  2.535448e-01
     vertex -1.971458e-02 -1.079365e+00  2.575258e-01
   endloop
 endfacet
 facet normal  0.000000e+00 -1.000000e+00 -0.000000e+00
   outer loop
     vertex  1.655020e-01 -1.079365e+00  1.776312e-01
     vertex  1.105820e-01 -1.079365e+00 -2.922389e-01
     vertex  1.890347e-01 -1.079365e+00 -2.264093e-01
   endloop
 endfacet
 facet normal  0.000000e+00 -1.000000e+00  0.000000e+00
   outer loop
     vertex  1.655020e-01 -1.079365e+00  1.776312e-01
     vertex -1.971458e-02 -1.079365e+00  2.575258e-01
     vertex -5.400670e-02 -1.079365e+00  2.575258e-01
   endloop
 endfacet
 facet normal  0.000000e+00 -1.000000e+00  0.000000e+00
   outer loop
     vertex  1.655020e-01 -1.079365e+00  1.776312e-01
     vertex -5.400670e-02 -1.079365e+00  2.575258e-01
     vertex -8.806695e-02 -1.079365e+00  2.535448e-01
   endloop
 endfacet
 facet normal  0.000000e+00 -1.000000e+00  0.000000e+00
   outer loop
     vertex  1.655020e-01 -1.079365e+00  1.776312e-01
     vertex -8.806695e-02 -1.079365e+00  2.535448e-01
     vertex -1.214347e-01 -1.079365e+00  2.456365e-01
   endloop
 endfacet
 facet normal  0.000000e+00 -1.000000e+00  0.000000e+00
   outer loop
     vertex  1.655020e-01 -1.079365e+00  1.776312e-01
     vertex -1.214347e-01 -1.079365e+00  2.456365e-01
     vertex -1.536588e-01 -1.079365e+00  2.339079e-01
   endloop
 endfacet
 facet normal  0.000000e+00 -1.000000e+00  0.000000e+00
   outer loop
     vertex  1.655020e-01 -1.079365e+00  1.776312e-01
     vertex -1.536588e-01 -1.079365e+00  2.339079e-01
     vertex -1.843033e-01 -1.079365e+00  2.185176e-01
   endloop
 endfacet
 facet normal -0.000000e+00 -1.000000e+00  0.000000e+00
   outer loop
     vertex  1.655020e-01 -1.079365e+00  1.776312e-01
     vertex -2.392233e-01 -1.079365e+00  1.776312e-01
     vertex -2.627559e-01 -1.079365e+00  1.526880e-01
   endloop
 endfacet
 facet normal  0.000000e+00 -1.000000e+00  0.000000e+00
   outer loop
     vertex  1.655020e-01 -1.079365e+00  1.776312e-01
     vertex -2.627559e-01 -1.079365e+00  1.526880e-01
     vertex -2.832338e-01 -1.079365e+00  1.251815e-01
   endloop
 endfacet
 facet normal  0.000000e+00 -1.000000e+00  0.000000e+00
   outer loop
     vertex  1.655020e-01 -1.079365e+00  1.776312e-01
     vertex -2.832338e-01 -1.079365e+00  1.251815e-01
     vertex -3.003798e-01 -1.079365e+00  9.548367e-02
   endloop
 endfacet
 facet normal  0.000000e+00 -1.000000e+00  0.000000e+00
   outer loop
     vertex  1.655020e-01 -1.079365e+00  1.776312e-01
     vertex -3.003798e-01 -1.079365e+00  9.548367e-02
     vertex -3.139622e-01 -1.079365e+00  6.399610e-02
   endloop
 endfacet
 facet normal  0.000000e+00 -1.000000e+00  0.000000e+00
   outer loop
     vertex  1.655020e-01 -1.079365e+00  1.776312e-01
     vertex -3.139622e-01 -1.079365e+00  6.399610e-02
     vertex -3.237973e-01 -1.079365e+00  3.114461e-02
   endloop
 endfacet
 facet normal  0.000000e+00 -1.000000e+00  0.000000e+00
   outer loop
     vertex  1.655020e-01 -1.079365e+00  1.776312e-01
     vertex -3.237973e-01 -1.079365e+00  3.114461e-02
     vertex -3.297521e-01 -1.079365e+00 -2.626536e-03
   endloop
 endfacet
 facet normal  0.000000e+00 -1.000000e+00  0.000000e+00
   outer loop
     vertex  1.655020e-01 -1.079365e+00  1.776312e-01
     vertex -3.297521e-01 -1.079365e+00 -2.626536e-03
     vertex -3.317460e-01 -1.079365e+00 -3.686064e-02
   endloop
 endfacet
 facet normal  0.000000e+00 -1.000000e+00  0.000000e+00
   outer loop
     vertex  1.655020e-01 -1.079365e+00  1.776312e-01
     vertex -3.317460e-01 -1.079365e+00 -3.686064e-02
     vertex -3.297521e-01 -1.079365e+00 -7.109474e-02
   endloop
 endfacet
 facet normal  0.000000e+00 -1.000000e+00  0.000000e+00
   outer loop
     vertex  1.655020e-01 -1.079365e+00  1.776312e-01
     vertex -3.297521e-01 -1.079365e+00 -7.109474e-02
     vertex -3.237973e-01 -1.079365e+00 -1.048659e-01
   endloop
 endfacet
 facet normal  0.000000e+00 -1.000000e+00  0.000000e+00
   outer loop
     vertex  1.655020e-01 -1.079365e+00  1.776312e-01
     vertex -3.237973e-01 -1.079365e+00 -1.048659e-01
     vertex -3.139622e-01 -1.079365e+00 -1.377174e-01
   endloop
 endfacet
 facet normal  0.000000e+00 -1.000000e+00  0.000000e+00
   outer loop
     vertex  1.655020e-01 -1.079365e+00  1.776312e-01
     vertex -3.139622e-01 -1.079365e+00 -1.377174e-01
     vertex -3.003798e-01 -1.079365e+00 -1.692050e-01
   endloop
 endfacet
 facet normal  0.000000e+00 -1.000000e+00  0.000000e+00
   outer loop
     vertex  1.655020e-01 -1.079365e+00  1.776312e-01
     vertex -3.003798e-01 -1.079365e+00 -1.692050e-01
     vertex -2.832338e-01 -1.079365e+00 -1.989028e-01
   endloop
 endfacet
 facet normal  0.000000e+00 -1.000000e+00  0.000000e+00
   outer loop
     vertex  1.655020e-01 -1.079365e+00  1.776312e-01
     vertex -2.832338e-01 -1.079365e+00 -1.989028e-01
     vertex -2.627559e-01 -1.079365e+00 -2.264093e-01
   endloop
 endfacet
 facet normal  0.000000e+00 -1.000000e+00  0.000000e+00
   outer loop
     vertex  1.655020e-01 -1.079365e+00  1.776312e-01
     vertex  2.580247e-01 -1.079365e+00 -3.686064e-02
     vertex  2.500761e-01 -1.079365e+00  3.114461e-02
   endloop
 endfacet
 facet normal  0.000000e+00 -1.000000e+00  0.000000e+00
   outer loop
     vertex  1.655020e-01 -1.079365e+00  1.776312e-01
     vertex -2.627559e-01 -1.079365e+00 -2.264093e-01
     vertex -2.392233e-01 -1.079365e+00 -2.513525e-01
   endloop
 endfacet
 facet normal  0.000000e+00 -1.000000e+00  0.000000e+00
   outer loop
     vertex  1.655020e-01 -1.079365e+00  1.776312e-01
     vertex -2.392233e-01 -1.079365e+00 -2.513525e-01
     vertex -2.129540e-01 -1.079365e+00 -2.733950e-01
   endloop
 endfacet
 facet normal  0.000000e+00 -1.000000e+00  0.000000e+00
   outer loop
     vertex  1.655020e-01 -1.079365e+00  1.776312e-01
     vertex -2.129540e-01 -1.079365e+00 -2.733950e-01
     vertex -1.843033e-01 -1.079365e+00 -2.922389e-01
   endloop
 endfacet
 facet normal  0.000000e+00 -1.000000e+00  0.000000e+00
   outer loop
     vertex  1.655020e-01 -1.079365e+00  1.776312e-01
     vertex -1.843033e-01 -1.079365e+00 -2.922389e-01
     vertex -1.536588e-01 -1.079365e+00 -3.076291e-01
   endloop
 endfacet
 facet normal  0.000000e+00 -1.000000e+00  0.000000e+00
   outer loop
     vertex  1.655020e-01 -1.079365e+00  1.776312e-01
     vertex -1.536588e-01 -1.079365e+00 -3.076291e-01
     vertex -1.214347e-01 -1.079365e+00 -3.193577e-01
   endloop
 endfacet
 facet normal  0.000000e+00 -1.000000e+00  0.000000e+00
   outer loop
     vertex  1.655020e-01 -1.079365e+00  1.776312e-01
     vertex -1.214347e-01 -1.079365e+00 -3.193577e-01
     vertex -8.806695e-02 -1.079365e+00 -3.272660e-01
   endloop
 endfacet
 facet normal  0.000000e+00 -1.000000e+00  0.000000e+00
   outer loop
     vertex  1.655020e-01 -1.079365e+00  1.776312e-01
     vertex -8.806695e-02 -1.079365e+00 -3.272660e-01
     vertex -5.400670e-02 -1.079365e+00 -3.312471e-01
   endloop
 endfacet
 facet normal  0.000000e+00 -1.000000e+00  0.000000e+00
   outer loop
     vertex  1.655020e-01 -1.079365e+00  1.776312e-01
     vertex -5.400670e-02 -1.079365e+00 -3.312471e-01
     vertex -1.971458e-02 -1.079365e+00 -3.312471e-01
   endloop
 endfacet
 facet normal  0.000000e+00 -1.000000e+00  0.000000e+00
   outer loop
     vertex  1.655020e-01 -1.079365e+00  1.776312e-01
     vertex  1.105820e-01 -1.079365e+00  2.185176e-01
     vertex  4.771344e-02 -1.079365e+00  2.456365e-01
   endloop
 endfacet
 facet normal  0.000000e+00 -1.000000e+00  0.000000e+00
   outer loop
     vertex  1.655020e-01 -1.079365e+00  1.776312e-01
     vertex -1.971458e-02 -1.079365e+00 -3.312471e-01
     vertex  1.434567e-02 -1.079365e+00 -3.272660e-01
   endloop
 endfacet
 facet normal  0.000000e+00 -1.000000e+00  0.000000e+00
   outer loop
     vertex  1.655020e-01 -1.079365e+00  1.776312e-01
     vertex  1.434567e-02 -1.079365e+00 -3.272660e-01
     vertex  4.771344e-02 -1.079365e+00 -3.193577e-01
   endloop
 endfacet
 facet normal  0.000000e+00 -1.000000e+00  0.000000e+00
   outer loop
     vertex  1.655020e-01 -1.079365e+00  1.776312e-01
     vertex  4.771344e-02 -1.079365e+00 -3.193577e-01
     vertex  7.993749e-02 -1.079365e+00 -3.076291e-01
   endloop
 endfacet
 facet normal  0.000000e+00 -1.000000e+00  0.000000e+00
   outer loop
     vertex  1.655020e-01 -1.079365e+00  1.776312e-01
     vertex  2.402410e-01 -1.079365e+00  6.399610e-02
     vertex  1.890347e-01 -1.079365e+00  1.526880e-01
   endloop
 endfacet
 facet normal  0.000000e+00 -1.000000e+00  0.000000e+00
   outer loop
     vertex  1.655020e-01 -1.079365e+00  1.776312e-01
     vertex  7.993749e-02 -1.079365e+00 -3.076291e-01
     vertex  1.105820e-01 -1.079365e+00 -2.922389e-01
   endloop
 endfacet
 facet normal  0.000000e+00 -1.000000e+00  0.000000e+00
   outer loop
     vertex  1.655020e-01 -1.079365e+00  1.776312e-01
     vertex  1.890347e-01 -1.079365e+00 -2.264093e-01
     vertex  2.095125e-01 -1.079365e+00 -1.989028e-01
   endloop
 endfacet
 facet normal  0.000000e+00 -1.000000e+00  0.000000e+00
   outer loop
     vertex  1.655020e-01 -1.079365e+00  1.776312e-01
     vertex  2.095125e-01 -1.079365e+00 -1.989028e-01
     vertex  2.266586e-01 -1.079365e+00 -1.692050e-01
   endloop
 endfacet
 facet normal  0.000000e+00 -1.000000e+00  0.000000e+00
   outer loop
     vertex  1.655020e-01 -1.079365e+00  1.776312e-01
     vertex  2.266586e-01 -1.079365e+00 -1.692050e-01
     vertex  2.402410e-01 -1.079365e+00 -1.377174e-01
   endloop
 endfacet
 facet normal  0.000000e+00 -1.000000e+00  0.000000e+00
   outer loop
     vertex  1.655020e-01 -1.079365e+00  1.776312e-01
     vertex  2.402410e-01 -1.079365e+00 -1.377174e-01
     vertex  2.500761e-01 -1.079365e+00 -1.048659e-01
   endloop
 endfacet
 facet normal  0.000000e+00 -1.000000e+00  0.000000e+00
   outer loop
     vertex  1.655020e-01 -1.079365e+00  1.776312e-01
     vertex  2.500761e-01 -1.079365e+00 -1.048659e-01
     vertex  2.560308e-01 -1.079365e+00 -7.109474e-02
   endloop
 endfacet
 facet normal  0.000000e+00 -1.000000e+00  0.000000e+00
   outer loop
     vertex  1.655020e-01 -1.079365e+00  1.776312e-01
     vertex  2.560308e-01 -1.079365e+00 -7.109474e-02
     vertex  2.580247e-01 -1.079365e+00 -3.686064e-02
   endloop
 endfacet
endsolid
