solid 
 facet normal -0.000000e+00  0.000000e+00 -1.000000e+00
   outer loop
     vertex  9.289241e-01 -1.587302e-02 -4.532631e-02
     vertex -3.333339e-02 -8.571429e-01 -4.532631e-02
     vertex -3.333339e-02 -1.587302e-02 -4.532631e-02
   endloop
 endfacet
 facet normal  0.000000e+00 -0.000000e+00 -1.000000e+00
   outer loop
     vertex  9.289241e-01 -1.587302e-02 -4.532631e-02
     vertex  9.289241e-01 -8.571429e-01 -4.532631e-02
     vertex -3.333339e-02 -8.571429e-01 -4.532631e-02
   endloop
 endfacet
 facet normal -1.000000e+00  0.000000e+00  0.000000e+00
   outer loop
     vertex -3.333339e-02 -1.587302e-02 -4.532631e-02
     vertex -3.333339e-02 -8.571429e-01  1.409171e-01
     vertex -3.333339e-02 -1.587302e-02  1.409171e-01
   endloop
 endfacet
 facet normal -1.000000e+00  0.000000e+00  0.000000e+00
   outer loop
     vertex -3.333339e-02 -1.587302e-02 -4.532631e-02
     vertex -3.333339e-02 -8.571429e-01 -4.532631e-02
     vertex -3.333339e-02 -8.571429e-01  1.409171e-01
   endloop
 endfacet
 facet normal  1.000000e+00  0.000000e+00  0.000000e+00
   outer loop
     vertex  9.289241e-01 -1.587302e-02  1.409171e-01
     vertex  9.289241e-01 -8.571429e-01 -4.532631e-02
     vertex  9.289241e-01 -1.587302e-02 -4.532631e-02
   endloop
 endfacet
 facet normal  1.000000e+00  0.000000e+00  0.000000e+00
   outer loop
     vertex  9.289241e-01 -1.587302e-02  1.409171e-01
     vertex  9.289241e-01 -8.571429e-01  1.409171e-01
     vertex  9.289241e-01 -8.571429e-01 -4.532631e-02
   endloop
 endfacet
 facet normal  0.000000e+00  0.000000e+00 -1.000000e+00
   outer loop
     vertex  9.289241e-01 -1.587302e-02 -4.532631e-02
     vertex -3.333339e-02 -1.587302e-02 -4.532631e-02
     vertex -3.333339e-02  0.000000e+00 -4.532631e-02
   endloop
 endfacet
 facet normal  0.000000e+00  0.000000e+00 -1.000000e+00
   outer loop
     vertex  9.289241e-01 -1.587302e-02 -4.532631e-02
     vertex -3.333339e-02  0.000000e+00 -4.532631e-02
     vertex  9.289241e-01  0.000000e+00 -4.532631e-02
   endloop
 endfacet
 facet normal  0.000000e+00 -1.000000e+00 -0.000000e+00
   outer loop
     vertex  9.289241e-01 -8.571429e-01  1.409171e-01
     vertex -3.333339e-02 -8.571429e-01 -4.532631e-02
     vertex  9.289241e-01 -8.571429e-01 -4.532631e-02
   endloop
 endfacet
 facet normal -0.000000e+00 -1.000000e+00  0.000000e+00
   outer loop
     vertex  9.289241e-01 -8.571429e-01  1.409171e-01
     vertex -3.333339e-02 -8.571429e-01  1.409171e-01
     vertex -3.333339e-02 -8.571429e-01 -4.532631e-02
   endloop
 endfacet
 facet normal -0.000000e+00  0.000000e+00  1.000000e+00
   outer loop
     vertex -3.333339e-02 -1.587302e-02  1.409171e-01
     vertex  9.289241e-01 -8.571429e-01  1.409171e-01
     vertex  9.289241e-01 -1.587302e-02  1.409171e-01
   endloop
 endfacet
 facet normal  0.000000e+00  0.000000e+00  1.000000e+00
   outer loop
     vertex -3.333339e-02 -1.587302e-02  1.409171e-01
     vertex -3.333339e-02 -8.571429e-01  1.409171e-01
     vertex  9.289241e-01 -8.571429e-01  1.409171e-01
   endloop
 endfacet
 facet normal -1.000000e+00  0.000000e+00  0.000000e+00
   outer loop
     vertex -3.333339e-02 -1.587302e-02 -4.532631e-02
     vertex -3.333339e-02 -1.587302e-02  1.409171e-01
     vertex -3.333339e-02  0.000000e+00  1.409171e-01
   endloop
 endfacet
 facet normal -1.000000e+00  0.000000e+00  0.000000e+00
   outer loop
     vertex -3.333339e-02 -1.587302e-02 -4.532631e-02
     vertex -3.333339e-02  0.000000e+00  1.409171e-01
     vertex -3.333339e-02  0.000000e+00 -4.532631e-02
   endloop
 endfacet
 facet normal  1.000000e+00  0.000000e+00  0.000000e+00
   outer loop
     vertex  9.289241e-01 -1.587302e-02  1.409171e-01
     vertex  9.289241e-01 -1.587302e-02 -4.532631e-02
     vertex  9.289241e-01  0.000000e+00 -4.532631e-02
   endloop
 endfacet
 facet normal  1.000000e+00 -0.000000e+00  0.000000e+00
   outer loop
     vertex  9.289241e-01 -1.587302e-02  1.409171e-01
     vertex  9.289241e-01  0.000000e+00 -4.532631e-02
     vertex  9.289241e-01  0.000000e+00  1.409171e-01
   endloop
 endfacet
 facet normal  0.000000e+00  1.000000e+00  0.000000e+00
   outer loop
     vertex  9.289241e-01 -4.510281e-17  1.409171e-01
     vertex  9.289241e-01 -4.510281e-17 -4.532631e-02
     vertex -3.333339e-02 -4.510281e-17 -4.532631e-02
   endloop
 endfacet
 facet normal  0.000000e+00  1.000000e+00  0.000000e+00
   outer loop
     vertex  9.289241e-01 -4.510281e-17  1.409171e-01
     vertex -3.333339e-02 -4.510281e-17 -4.532631e-02
     vertex -3.333339e-02 -4.510281e-17  1.409171e-01
   endloop
 endfacet
 facet normal  0.000000e+00  0.000000e+00  1.000000e+00
   outer loop
     vertex -3.333339e-02 -1.587302e-02  1.409171e-01
     vertex  9.289241e-01 -1.587302e-02  1.409171e-01
     vertex  9.289241e-01  0.000000e+00  1.409171e-01
   endloop
 endfacet
 facet normal  0.000000e+00  0.000000e+00  1.000000e+00
   outer loop
     vertex -3.333339e-02 -1.587302e-02  1.409171e-01
     vertex  9.289241e-01  0.000000e+00  1.409171e-01
     vertex -3.333339e-02  0.000000e+00  1.409171e-01
   endloop
 endfacet
 facet normal  0.000000e+00 -1.000000e+00  0.000000e+00
   outer loop
     vertex  4.079366e-01 -6.047619e-01  2.380953e-01
     vertex  1.851851e-02 -6.047619e-01  5.079366e-01
     vertex  1.851851e-02 -6.047619e-01  2.380953e-01
   endloop
 endfacet
 facet normal  0.000000e+00 -1.000000e+00  0.000000e+00
   outer loop
     vertex  4.079366e-01 -6.047619e-01  2.380953e-01
     vertex  4.079366e-01 -6.047619e-01  5.079366e-01
     vertex  1.851851e-02 -6.047619e-01  5.079366e-01
   endloop
 endfacet
 facet normal -1.000000e+00  0.000000e+00  0.000000e+00
   outer loop
     vertex  1.851851e-02 -6.047619e-01  2.380953e-01
     vertex  1.851851e-02 -2.322751e-01  5.079366e-01
     vertex  1.851851e-02 -2.322751e-01  2.380953e-01
   endloop
 endfacet
 facet normal -1.000000e+00  0.000000e+00  0.000000e+00
   outer loop
     vertex  1.851851e-02 -6.047619e-01  2.380953e-01
     vertex  1.851851e-02 -6.047619e-01  5.079366e-01
     vertex  1.851851e-02 -2.322751e-01  5.079366e-01
   endloop
 endfacet
 facet normal  1.000000e+00  0.000000e+00  0.000000e+00
   outer loop
     vertex  4.079366e-01 -2.322751e-01  2.380953e-01
     vertex  4.079366e-01 -6.047619e-01  5.079366e-01
     vertex  4.079366e-01 -6.047619e-01  2.380953e-01
   endloop
 endfacet
 facet normal  1.000000e+00  0.000000e+00 -0.000000e+00
   outer loop
     vertex  4.079366e-01 -2.322751e-01  2.380953e-01
     vertex  4.079366e-01 -2.322751e-01  5.079366e-01
     vertex  4.079366e-01 -6.047619e-01  5.079366e-01
   endloop
 endfacet
 facet normal -0.000000e+00 -1.000000e+00  0.000000e+00
   outer loop
     vertex  4.079366e-01 -6.047619e-01  2.380953e-01
     vertex  1.851851e-02 -6.047619e-01  2.380953e-01
     vertex  1.851851e-02 -6.047619e-01  2.222223e-01
   endloop
 endfacet
 facet normal  0.000000e+00 -1.000000e+00 -0.000000e+00
   outer loop
     vertex  4.079366e-01 -6.047619e-01  2.380953e-01
     vertex  1.851851e-02 -6.047619e-01  2.222223e-01
     vertex  4.079366e-01 -6.047619e-01  2.222223e-01
   endloop
 endfacet
 facet normal  0.000000e+00  0.000000e+00  1.000000e+00
   outer loop
     vertex  4.079366e-01 -2.322751e-01  5.079366e-01
     vertex  1.851851e-02 -6.047619e-01  5.079366e-01
     vertex  4.079366e-01 -6.047619e-01  5.079366e-01
   endloop
 endfacet
 facet normal  0.000000e+00  0.000000e+00  1.000000e+00
   outer loop
     vertex  4.079366e-01 -2.322751e-01  5.079366e-01
     vertex  1.851851e-02 -2.322751e-01  5.079366e-01
     vertex  1.851851e-02 -6.047619e-01  5.079366e-01
   endloop
 endfacet
 facet normal  0.000000e+00  1.000000e+00  0.000000e+00
   outer loop
     vertex  1.851851e-02 -2.322751e-01  2.380953e-01
     vertex  4.079366e-01 -2.322751e-01  5.079366e-01
     vertex  4.079366e-01 -2.322751e-01  2.380953e-01
   endloop
 endfacet
 facet normal  0.000000e+00  1.000000e+00  0.000000e+00
   outer loop
     vertex  1.851851e-02 -2.322751e-01  2.380953e-01
     vertex  1.851851e-02 -2.322751e-01  5.079366e-01
     vertex  4.079366e-01 -2.322751e-01  5.079366e-01
   endloop
 endfacet
 facet normal -1.000000e+00  0.000000e+00  0.000000e+00
   outer loop
     vertex  1.851851e-02 -6.047619e-01  2.380953e-01
     vertex  1.851851e-02 -2.322751e-01  2.380953e-01
     vertex  1.851851e-02 -2.322751e-01  2.222223e-01
   endloop
 endfacet
 facet normal -1.000000e+00  0.000000e+00  0.000000e+00
   outer loop
     vertex  1.851851e-02 -6.047619e-01  2.380953e-01
     vertex  1.851851e-02 -2.322751e-01  2.222223e-01
     vertex  1.851851e-02 -6.047619e-01  2.222223e-01
   endloop
 endfacet
 facet normal  1.000000e+00  0.000000e+00  0.000000e+00
   outer loop
     vertex  4.079366e-01 -2.322751e-01  2.380953e-01
     vertex  4.079366e-01 -6.047619e-01  2.380953e-01
     vertex  4.079366e-01 -6.047619e-01  2.222223e-01
   endloop
 endfacet
 facet normal  1.000000e+00  0.000000e+00  0.000000e+00
   outer loop
     vertex  4.079366e-01 -2.322751e-01  2.380953e-01
     vertex  4.079366e-01 -6.047619e-01  2.222223e-01
     vertex  4.079366e-01 -2.322751e-01  2.222223e-01
   endloop
 endfacet
 facet normal  0.000000e+00 -0.000000e+00 -1.000000e+00
   outer loop
     vertex  4.079366e-01 -2.322751e-01  2.222223e-01
     vertex  4.079366e-01 -6.047619e-01  2.222223e-01
     vertex  1.851851e-02 -6.047619e-01  2.222223e-01
   endloop
 endfacet
 facet normal -0.000000e+00  0.000000e+00 -1.000000e+00
   outer loop
     vertex  4.079366e-01 -2.322751e-01  2.222223e-01
     vertex  1.851851e-02 -6.047619e-01  2.222223e-01
     vertex  1.851851e-02 -2.322751e-01  2.222223e-01
   endloop
 endfacet
 facet normal -0.000000e+00  1.000000e+00  0.000000e+00
   outer loop
     vertex  1.851851e-02 -2.322751e-01  2.380953e-01
     vertex  4.079366e-01 -2.322751e-01  2.380953e-01
     vertex  4.079366e-01 -2.322751e-01  2.222223e-01
   endloop
 endfacet
 facet normal  0.000000e+00  1.000000e+00  0.000000e+00
   outer loop
     vertex  1.851851e-02 -2.322751e-01  2.380953e-01
     vertex  4.079366e-01 -2.322751e-01  2.222223e-01
     vertex  1.851851e-02 -2.322751e-01  2.222223e-01
   endloop
 endfacet
endsolid
