solid 
 facet normal -0.000000e+00  0.000000e+00 -1.000000e+00
   outer loop
     vertex -6.608465e-01 -1.587302e-02  2.345672e-02
     vertex -1.068607e+00 -2.857143e-01  2.345672e-02
     vertex -1.068607e+00 -1.587302e-02  2.345672e-02
   endloop
 endfacet
 facet normal  0.000000e+00 -0.000000e+00 -1.000000e+00
   outer loop
     vertex -6.608465e-01 -1.587302e-02  2.345672e-02
     vertex -6.608465e-01 -2.857143e-01  2.345672e-02
     vertex -1.068607e+00 -2.857143e-01  2.345672e-02
   endloop
 endfacet
 facet normal -1.000000e+00  0.000000e+00  0.000000e+00
   outer loop
     vertex -1.068607e+00 -1.587302e-02  2.345672e-02
     vertex -1.068607e+00 -2.857143e-01  6.470899e-01
     vertex -1.068607e+00 -1.587302e-02  6.470899e-01
   endloop
 endfacet
 facet normal -1.000000e+00  0.000000e+00  0.000000e+00
   outer loop
     vertex -1.068607e+00 -1.587302e-02  2.345672e-02
     vertex -1.068607e+00 -2.857143e-01  2.345672e-02
     vertex -1.068607e+00 -2.857143e-01  6.470899e-01
   endloop
 endfacet
 facet normal  1.000000e+00  0.000000e+00  0.000000e+00
   outer loop
     vertex -6.608465e-01 -1.587302e-02  2.273368e-01
     vertex -6.608465e-01 -2.857143e-01  2.345672e-02
     vertex -6.608465e-01 -1.587302e-02  2.345672e-02
   endloop
 endfacet
 facet normal  1.000000e+00  0.000000e+00  0.000000e+00
   outer loop
     vertex -6.608465e-01 -1.587302e-02  2.273368e-01
     vertex -6.608465e-01 -2.857143e-01  2.273368e-01
     vertex -6.608465e-01 -2.857143e-01  2.345672e-02
   endloop
 endfacet
 facet normal  0.000000e+00  0.000000e+00 -1.000000e+00
   outer loop
     vertex -6.608465e-01 -1.587302e-02  2.345672e-02
     vertex -1.068607e+00 -1.587302e-02  2.345672e-02
     vertex -1.068607e+00  0.000000e+00  2.345672e-02
   endloop
 endfacet
 facet normal  0.000000e+00  0.000000e+00 -1.000000e+00
   outer loop
     vertex -6.608465e-01 -1.587302e-02  2.345672e-02
     vertex -1.068607e+00  0.000000e+00  2.345672e-02
     vertex -6.608465e-01  0.000000e+00  2.345672e-02
   endloop
 endfacet
 facet normal  0.000000e+00 -1.000000e+00 -0.000000e+00
   outer loop
     vertex -8.647266e-01 -2.857143e-01  2.273368e-01
     vertex -1.068607e+00 -2.857143e-01  2.345672e-02
     vertex -6.608465e-01 -2.857143e-01  2.345672e-02
   endloop
 endfacet
 facet normal -0.000000e+00 -1.000000e+00 -0.000000e+00
   outer loop
     vertex -6.608465e-01 -2.857143e-01  2.273368e-01
     vertex -8.647266e-01 -2.857143e-01  2.273368e-01
     vertex -6.608465e-01 -2.857143e-01  2.345672e-02
   endloop
 endfacet
 facet normal  0.000000e+00 -1.000000e+00 -0.000000e+00
   outer loop
     vertex -9.639354e-01 -2.857143e-01  5.356522e-01
     vertex -1.068607e+00 -2.857143e-01  2.345672e-02
     vertex -8.647266e-01 -2.857143e-01  2.273368e-01
   endloop
 endfacet
 facet normal -0.000000e+00 -1.000000e+00  0.000000e+00
   outer loop
     vertex -9.639354e-01 -2.857143e-01  5.356522e-01
     vertex -9.725917e-01 -2.857143e-01  5.433211e-01
     vertex -1.068607e+00 -2.857143e-01  2.345672e-02
   endloop
 endfacet
 facet normal  0.000000e+00 -1.000000e+00 -0.000000e+00
   outer loop
     vertex -9.791612e-01 -2.857143e-01  5.528386e-01
     vertex -1.068607e+00 -2.857143e-01  2.345672e-02
     vertex -9.725917e-01 -2.857143e-01  5.433211e-01
   endloop
 endfacet
 facet normal -0.000000e+00 -1.000000e+00 -0.000000e+00
   outer loop
     vertex -9.536953e-01 -2.857143e-01  5.302778e-01
     vertex -9.639354e-01 -2.857143e-01  5.356522e-01
     vertex -8.647266e-01 -2.857143e-01  2.273368e-01
   endloop
 endfacet
 facet normal  0.000000e+00 -1.000000e+00  0.000000e+00
   outer loop
     vertex -1.068607e+00 -2.857143e-01  6.470899e-01
     vertex -1.068607e+00 -2.857143e-01  2.345672e-02
     vertex -9.791612e-01 -2.857143e-01  5.528386e-01
   endloop
 endfacet
 facet normal -0.000000e+00 -1.000000e+00 -0.000000e+00
   outer loop
     vertex -9.832621e-01 -2.857143e-01  5.636518e-01
     vertex -1.068607e+00 -2.857143e-01  6.470899e-01
     vertex -9.791612e-01 -2.857143e-01  5.528386e-01
   endloop
 endfacet
 facet normal -0.000000e+00 -1.000000e+00 -0.000000e+00
   outer loop
     vertex -9.424666e-01 -2.857143e-01  5.275102e-01
     vertex -9.536953e-01 -2.857143e-01  5.302778e-01
     vertex -8.647266e-01 -2.857143e-01  2.273368e-01
   endloop
 endfacet
 facet normal -0.000000e+00 -1.000000e+00 -0.000000e+00
   outer loop
     vertex -9.846561e-01 -2.857143e-01  5.751322e-01
     vertex -1.068607e+00 -2.857143e-01  6.470899e-01
     vertex -9.832621e-01 -2.857143e-01  5.636518e-01
   endloop
 endfacet
 facet normal -0.000000e+00 -1.000000e+00 -0.000000e+00
   outer loop
     vertex -9.309019e-01 -2.857143e-01  5.275102e-01
     vertex -9.424666e-01 -2.857143e-01  5.275102e-01
     vertex -8.647266e-01 -2.857143e-01  2.273368e-01
   endloop
 endfacet
 facet normal -0.000000e+00 -1.000000e+00  0.000000e+00
   outer loop
     vertex -9.832621e-01 -2.857143e-01  5.866126e-01
     vertex -1.068607e+00 -2.857143e-01  6.470899e-01
     vertex -9.846561e-01 -2.857143e-01  5.751322e-01
   endloop
 endfacet
 facet normal  0.000000e+00 -1.000000e+00 -0.000000e+00
   outer loop
     vertex -9.196733e-01 -2.857143e-01  5.302778e-01
     vertex -9.309019e-01 -2.857143e-01  5.275102e-01
     vertex -8.647266e-01 -2.857143e-01  2.273368e-01
   endloop
 endfacet
 facet normal -0.000000e+00 -1.000000e+00  0.000000e+00
   outer loop
     vertex -9.791612e-01 -2.857143e-01  5.974258e-01
     vertex -1.068607e+00 -2.857143e-01  6.470899e-01
     vertex -9.832621e-01 -2.857143e-01  5.866126e-01
   endloop
 endfacet
 facet normal  0.000000e+00 -1.000000e+00 -0.000000e+00
   outer loop
     vertex -9.094332e-01 -2.857143e-01  5.356522e-01
     vertex -9.196733e-01 -2.857143e-01  5.302778e-01
     vertex -8.647266e-01 -2.857143e-01  2.273368e-01
   endloop
 endfacet
 facet normal -0.000000e+00 -1.000000e+00  0.000000e+00
   outer loop
     vertex -9.725917e-01 -2.857143e-01  6.069434e-01
     vertex -1.068607e+00 -2.857143e-01  6.470899e-01
     vertex -9.791612e-01 -2.857143e-01  5.974258e-01
   endloop
 endfacet
 facet normal  0.000000e+00 -1.000000e+00 -0.000000e+00
   outer loop
     vertex -9.007769e-01 -2.857143e-01  5.433211e-01
     vertex -9.094332e-01 -2.857143e-01  5.356522e-01
     vertex -8.647266e-01 -2.857143e-01  2.273368e-01
   endloop
 endfacet
 facet normal -0.000000e+00 -1.000000e+00  0.000000e+00
   outer loop
     vertex -9.639354e-01 -2.857143e-01  6.146122e-01
     vertex -1.068607e+00 -2.857143e-01  6.470899e-01
     vertex -9.725917e-01 -2.857143e-01  6.069434e-01
   endloop
 endfacet
 facet normal -0.000000e+00 -1.000000e+00  0.000000e+00
   outer loop
     vertex -9.536953e-01 -2.857143e-01  6.199866e-01
     vertex -1.068607e+00 -2.857143e-01  6.470899e-01
     vertex -9.639354e-01 -2.857143e-01  6.146122e-01
   endloop
 endfacet
 facet normal -0.000000e+00 -1.000000e+00  0.000000e+00
   outer loop
     vertex -9.424666e-01 -2.857143e-01  6.227542e-01
     vertex -1.068607e+00 -2.857143e-01  6.470899e-01
     vertex -9.536953e-01 -2.857143e-01  6.199866e-01
   endloop
 endfacet
 facet normal  0.000000e+00 -1.000000e+00  0.000000e+00
   outer loop
     vertex -8.647266e-01 -2.857143e-01  6.470899e-01
     vertex -8.901065e-01 -2.857143e-01  5.866126e-01
     vertex -8.887125e-01 -2.857143e-01  5.751322e-01
   endloop
 endfacet
 facet normal  0.000000e+00 -1.000000e+00  0.000000e+00
   outer loop
     vertex -8.647266e-01 -2.857143e-01  6.470899e-01
     vertex -8.942074e-01 -2.857143e-01  5.974258e-01
     vertex -8.901065e-01 -2.857143e-01  5.866126e-01
   endloop
 endfacet
 facet normal  0.000000e+00 -1.000000e+00  0.000000e+00
   outer loop
     vertex -8.647266e-01 -2.857143e-01  6.470899e-01
     vertex -9.007769e-01 -2.857143e-01  6.069434e-01
     vertex -8.942074e-01 -2.857143e-01  5.974258e-01
   endloop
 endfacet
 facet normal  0.000000e+00 -1.000000e+00  0.000000e+00
   outer loop
     vertex -8.647266e-01 -2.857143e-01  6.470899e-01
     vertex -9.094332e-01 -2.857143e-01  6.146122e-01
     vertex -9.007769e-01 -2.857143e-01  6.069434e-01
   endloop
 endfacet
 facet normal  0.000000e+00 -1.000000e+00  0.000000e+00
   outer loop
     vertex -8.647266e-01 -2.857143e-01  6.470899e-01
     vertex -9.196733e-01 -2.857143e-01  6.199866e-01
     vertex -9.094332e-01 -2.857143e-01  6.146122e-01
   endloop
 endfacet
 facet normal  0.000000e+00 -1.000000e+00  0.000000e+00
   outer loop
     vertex -8.647266e-01 -2.857143e-01  6.470899e-01
     vertex -9.309019e-01 -2.857143e-01  6.227542e-01
     vertex -9.196733e-01 -2.857143e-01  6.199866e-01
   endloop
 endfacet
 facet normal  0.000000e+00 -1.000000e+00  0.000000e+00
   outer loop
     vertex -8.647266e-01 -2.857143e-01  6.470899e-01
     vertex -9.424666e-01 -2.857143e-01  6.227542e-01
     vertex -9.309019e-01 -2.857143e-01  6.227542e-01
   endloop
 endfacet
 facet normal  0.000000e+00 -1.000000e+00  0.000000e+00
   outer loop
     vertex -8.647266e-01 -2.857143e-01  6.470899e-01
     vertex -8.887125e-01 -2.857143e-01  5.751322e-01
     vertex -8.901065e-01 -2.857143e-01  5.636518e-01
   endloop
 endfacet
 facet normal -0.000000e+00 -1.000000e+00  0.000000e+00
   outer loop
     vertex -8.647266e-01 -2.857143e-01  6.470899e-01
     vertex -1.068607e+00 -2.857143e-01  6.470899e-01
     vertex -9.424666e-01 -2.857143e-01  6.227542e-01
   endloop
 endfacet
 facet normal  0.000000e+00 -1.000000e+00  0.000000e+00
   outer loop
     vertex -8.647266e-01 -2.857143e-01  2.273368e-01
     vertex -8.647266e-01 -2.857143e-01  6.470899e-01
     vertex -8.901065e-01 -2.857143e-01  5.636518e-01
   endloop
 endfacet
 facet normal  0.000000e+00 -1.000000e+00  0.000000e+00
   outer loop
     vertex -8.647266e-01 -2.857143e-01  2.273368e-01
     vertex -8.901065e-01 -2.857143e-01  5.636518e-01
     vertex -8.942074e-01 -2.857143e-01  5.528386e-01
   endloop
 endfacet
 facet normal  0.000000e+00 -1.000000e+00  0.000000e+00
   outer loop
     vertex -8.647266e-01 -2.857143e-01  2.273368e-01
     vertex -8.942074e-01 -2.857143e-01  5.528386e-01
     vertex -9.007769e-01 -2.857143e-01  5.433211e-01
   endloop
 endfacet
 facet normal -0.000000e+00  0.000000e+00  1.000000e+00
   outer loop
     vertex -1.068607e+00 -1.587302e-02  6.470899e-01
     vertex -8.647266e-01 -2.857143e-01  6.470899e-01
     vertex -8.647266e-01 -1.587302e-02  6.470899e-01
   endloop
 endfacet
 facet normal  0.000000e+00  0.000000e+00  1.000000e+00
   outer loop
     vertex -1.068607e+00 -1.587302e-02  6.470899e-01
     vertex -1.068607e+00 -2.857143e-01  6.470899e-01
     vertex -8.647266e-01 -2.857143e-01  6.470899e-01
   endloop
 endfacet
 facet normal -1.000000e+00  0.000000e+00  0.000000e+00
   outer loop
     vertex -1.068607e+00 -1.587302e-02  2.345672e-02
     vertex -1.068607e+00 -1.587302e-02  6.470899e-01
     vertex -1.068607e+00  0.000000e+00  6.470899e-01
   endloop
 endfacet
 facet normal -1.000000e+00  0.000000e+00  0.000000e+00
   outer loop
     vertex -1.068607e+00 -1.587302e-02  2.345672e-02
     vertex -1.068607e+00  0.000000e+00  6.470899e-01
     vertex -1.068607e+00  0.000000e+00  2.345672e-02
   endloop
 endfacet
 facet normal -0.000000e+00  0.000000e+00  1.000000e+00
   outer loop
     vertex -8.647266e-01 -1.587302e-02  2.273368e-01
     vertex -6.608465e-01 -2.857143e-01  2.273368e-01
     vertex -6.608465e-01 -1.587302e-02  2.273368e-01
   endloop
 endfacet
 facet normal  0.000000e+00  0.000000e+00  1.000000e+00
   outer loop
     vertex -8.647266e-01 -1.587302e-02  2.273368e-01
     vertex -8.647266e-01 -2.857143e-01  2.273368e-01
     vertex -6.608465e-01 -2.857143e-01  2.273368e-01
   endloop
 endfacet
 facet normal  1.000000e+00  0.000000e+00  0.000000e+00
   outer loop
     vertex -6.608465e-01 -1.587302e-02  2.273368e-01
     vertex -6.608465e-01 -1.587302e-02  2.345672e-02
     vertex -6.608465e-01  0.000000e+00  2.345672e-02
   endloop
 endfacet
 facet normal  1.000000e+00 -0.000000e+00  0.000000e+00
   outer loop
     vertex -6.608465e-01 -1.587302e-02  2.273368e-01
     vertex -6.608465e-01  0.000000e+00  2.345672e-02
     vertex -6.608465e-01  0.000000e+00  2.273368e-01
   endloop
 endfacet
 facet normal  0.000000e+00  1.000000e+00  0.000000e+00
   outer loop
     vertex -8.647266e-01  1.040834e-17  2.273368e-01
     vertex -6.608465e-01  1.040834e-17  2.345672e-02
     vertex -1.068607e+00  1.040834e-17  2.345672e-02
   endloop
 endfacet
 facet normal  0.000000e+00  1.000000e+00  0.000000e+00
   outer loop
     vertex -6.608465e-01  1.040834e-17  2.273368e-01
     vertex -6.608465e-01  1.040834e-17  2.345672e-02
     vertex -8.647266e-01  1.040834e-17  2.273368e-01
   endloop
 endfacet
 facet normal  0.000000e+00  1.000000e+00  0.000000e+00
   outer loop
     vertex -9.639354e-01  1.040834e-17  5.356522e-01
     vertex -8.647266e-01  1.040834e-17  2.273368e-01
     vertex -1.068607e+00  1.040834e-17  2.345672e-02
   endloop
 endfacet
 facet normal  0.000000e+00  1.000000e+00  0.000000e+00
   outer loop
     vertex -9.639354e-01  1.040834e-17  5.356522e-01
     vertex -1.068607e+00  1.040834e-17  2.345672e-02
     vertex -9.725917e-01  1.040834e-17  5.433211e-01
   endloop
 endfacet
 facet normal  0.000000e+00  1.000000e+00  0.000000e+00
   outer loop
     vertex -9.791612e-01  1.040834e-17  5.528386e-01
     vertex -9.725917e-01  1.040834e-17  5.433211e-01
     vertex -1.068607e+00  1.040834e-17  2.345672e-02
   endloop
 endfacet
 facet normal  0.000000e+00  1.000000e+00  0.000000e+00
   outer loop
     vertex -9.536953e-01  1.040834e-17  5.302778e-01
     vertex -8.647266e-01  1.040834e-17  2.273368e-01
     vertex -9.639354e-01  1.040834e-17  5.356522e-01
   endloop
 endfacet
 facet normal  0.000000e+00  1.000000e+00  0.000000e+00
   outer loop
     vertex -1.068607e+00  1.040834e-17  6.470899e-01
     vertex -9.791612e-01  1.040834e-17  5.528386e-01
     vertex -1.068607e+00  1.040834e-17  2.345672e-02
   endloop
 endfacet
 facet normal  0.000000e+00  1.000000e+00  0.000000e+00
   outer loop
     vertex -9.832621e-01  1.040834e-17  5.636518e-01
     vertex -9.791612e-01  1.040834e-17  5.528386e-01
     vertex -1.068607e+00  1.040834e-17  6.470899e-01
   endloop
 endfacet
 facet normal  0.000000e+00  1.000000e+00  0.000000e+00
   outer loop
     vertex -9.424666e-01  1.040834e-17  5.275102e-01
     vertex -8.647266e-01  1.040834e-17  2.273368e-01
     vertex -9.536953e-01  1.040834e-17  5.302778e-01
   endloop
 endfacet
 facet normal  0.000000e+00  1.000000e+00  0.000000e+00
   outer loop
     vertex -9.846561e-01  1.040834e-17  5.751322e-01
     vertex -9.832621e-01  1.040834e-17  5.636518e-01
     vertex -1.068607e+00  1.040834e-17  6.470899e-01
   endloop
 endfacet
 facet normal  0.000000e+00  1.000000e+00  0.000000e+00
   outer loop
     vertex -9.309019e-01  1.040834e-17  5.275102e-01
     vertex -8.647266e-01  1.040834e-17  2.273368e-01
     vertex -9.424666e-01  1.040834e-17  5.275102e-01
   endloop
 endfacet
 facet normal  0.000000e+00  1.000000e+00  0.000000e+00
   outer loop
     vertex -9.832621e-01  1.040834e-17  5.866126e-01
     vertex -9.846561e-01  1.040834e-17  5.751322e-01
     vertex -1.068607e+00  1.040834e-17  6.470899e-01
   endloop
 endfacet
 facet normal  0.000000e+00  1.000000e+00  0.000000e+00
   outer loop
     vertex -9.196733e-01  1.040834e-17  5.302778e-01
     vertex -8.647266e-01  1.040834e-17  2.273368e-01
     vertex -9.309019e-01  1.040834e-17  5.275102e-01
   endloop
 endfacet
 facet normal  0.000000e+00  1.000000e+00  0.000000e+00
   outer loop
     vertex -9.791612e-01  1.040834e-17  5.974258e-01
     vertex -9.832621e-01  1.040834e-17  5.866126e-01
     vertex -1.068607e+00  1.040834e-17  6.470899e-01
   endloop
 endfacet
 facet normal  0.000000e+00  1.000000e+00  0.000000e+00
   outer loop
     vertex -9.094332e-01  1.040834e-17  5.356522e-01
     vertex -8.647266e-01  1.040834e-17  2.273368e-01
     vertex -9.196733e-01  1.040834e-17  5.302778e-01
   endloop
 endfacet
 facet normal  0.000000e+00  1.000000e+00  0.000000e+00
   outer loop
     vertex -9.725917e-01  1.040834e-17  6.069434e-01
     vertex -9.791612e-01  1.040834e-17  5.974258e-01
     vertex -1.068607e+00  1.040834e-17  6.470899e-01
   endloop
 endfacet
 facet normal  0.000000e+00  1.000000e+00  0.000000e+00
   outer loop
     vertex -9.007769e-01  1.040834e-17  5.433211e-01
     vertex -8.647266e-01  1.040834e-17  2.273368e-01
     vertex -9.094332e-01  1.040834e-17  5.356522e-01
   endloop
 endfacet
 facet normal  0.000000e+00  1.000000e+00  0.000000e+00
   outer loop
     vertex -9.639354e-01  1.040834e-17  6.146122e-01
     vertex -9.725917e-01  1.040834e-17  6.069434e-01
     vertex -1.068607e+00  1.040834e-17  6.470899e-01
   endloop
 endfacet
 facet normal  0.000000e+00  1.000000e+00  0.000000e+00
   outer loop
     vertex -9.536953e-01  1.040834e-17  6.199866e-01
     vertex -9.639354e-01  1.040834e-17  6.146122e-01
     vertex -1.068607e+00  1.040834e-17  6.470899e-01
   endloop
 endfacet
 facet normal  0.000000e+00  1.000000e+00  0.000000e+00
   outer loop
     vertex -9.424666e-01  1.040834e-17  6.227542e-01
     vertex -9.536953e-01  1.040834e-17  6.199866e-01
     vertex -1.068607e+00  1.040834e-17  6.470899e-01
   endloop
 endfacet
 facet normal  0.000000e+00  1.000000e+00  0.000000e+00
   outer loop
     vertex -8.647266e-01  1.040834e-17  6.470899e-01
     vertex -8.887125e-01  1.040834e-17  5.751322e-01
     vertex -8.901065e-01  1.040834e-17  5.866126e-01
   endloop
 endfacet
 facet normal  0.000000e+00  1.000000e+00  0.000000e+00
   outer loop
     vertex -8.647266e-01  1.040834e-17  6.470899e-01
     vertex -8.901065e-01  1.040834e-17  5.866126e-01
     vertex -8.942074e-01  1.040834e-17  5.974258e-01
   endloop
 endfacet
 facet normal  0.000000e+00  1.000000e+00  0.000000e+00
   outer loop
     vertex -8.647266e-01  1.040834e-17  6.470899e-01
     vertex -8.942074e-01  1.040834e-17  5.974258e-01
     vertex -9.007769e-01  1.040834e-17  6.069434e-01
   endloop
 endfacet
 facet normal  0.000000e+00  1.000000e+00  0.000000e+00
   outer loop
     vertex -8.647266e-01  1.040834e-17  6.470899e-01
     vertex -9.007769e-01  1.040834e-17  6.069434e-01
     vertex -9.094332e-01  1.040834e-17  6.146122e-01
   endloop
 endfacet
 facet normal  0.000000e+00  1.000000e+00  0.000000e+00
   outer loop
     vertex -8.647266e-01  1.040834e-17  6.470899e-01
     vertex -9.094332e-01  1.040834e-17  6.146122e-01
     vertex -9.196733e-01  1.040834e-17  6.199866e-01
   endloop
 endfacet
 facet normal  0.000000e+00  1.000000e+00  0.000000e+00
   outer loop
     vertex -8.647266e-01  1.040834e-17  6.470899e-01
     vertex -9.196733e-01  1.040834e-17  6.199866e-01
     vertex -9.309019e-01  1.040834e-17  6.227542e-01
   endloop
 endfacet
 facet normal  0.000000e+00  1.000000e+00  0.000000e+00
   outer loop
     vertex -8.647266e-01  1.040834e-17  6.470899e-01
     vertex -9.309019e-01  1.040834e-17  6.227542e-01
     vertex -9.424666e-01  1.040834e-17  6.227542e-01
   endloop
 endfacet
 facet normal  0.000000e+00  1.000000e+00  0.000000e+00
   outer loop
     vertex -8.647266e-01  1.040834e-17  6.470899e-01
     vertex -8.901065e-01  1.040834e-17  5.636518e-01
     vertex -8.887125e-01  1.040834e-17  5.751322e-01
   endloop
 endfacet
 facet normal  0.000000e+00  1.000000e+00  0.000000e+00
   outer loop
     vertex -8.647266e-01  1.040834e-17  6.470899e-01
     vertex -9.424666e-01  1.040834e-17  6.227542e-01
     vertex -1.068607e+00  1.040834e-17  6.470899e-01
   endloop
 endfacet
 facet normal  0.000000e+00  1.000000e+00 -0.000000e+00
   outer loop
     vertex -8.647266e-01  1.040834e-17  2.273368e-01
     vertex -8.901065e-01  1.040834e-17  5.636518e-01
     vertex -8.647266e-01  1.040834e-17  6.470899e-01
   endloop
 endfacet
 facet normal  0.000000e+00  1.000000e+00  0.000000e+00
   outer loop
     vertex -8.647266e-01  1.040834e-17  2.273368e-01
     vertex -8.942074e-01  1.040834e-17  5.528386e-01
     vertex -8.901065e-01  1.040834e-17  5.636518e-01
   endloop
 endfacet
 facet normal  0.000000e+00  1.000000e+00  0.000000e+00
   outer loop
     vertex -8.647266e-01  1.040834e-17  2.273368e-01
     vertex -9.007769e-01  1.040834e-17  5.433211e-01
     vertex -8.942074e-01  1.040834e-17  5.528386e-01
   endloop
 endfacet
 facet normal  1.000000e+00  0.000000e+00  0.000000e+00
   outer loop
     vertex -8.647266e-01 -1.587302e-02  6.470899e-01
     vertex -8.647266e-01 -2.857143e-01  2.273368e-01
     vertex -8.647266e-01 -1.587302e-02  2.273368e-01
   endloop
 endfacet
 facet normal  1.000000e+00  0.000000e+00  0.000000e+00
   outer loop
     vertex -8.647266e-01 -1.587302e-02  6.470899e-01
     vertex -8.647266e-01 -2.857143e-01  6.470899e-01
     vertex -8.647266e-01 -2.857143e-01  2.273368e-01
   endloop
 endfacet
 facet normal -9.927089e-01  0.000000e+00 -1.205367e-01
   outer loop
     vertex -8.901065e-01 -1.587302e-02  5.866126e-01
     vertex -8.887125e-01 -1.587302e-02  5.751322e-01
     vertex -8.887125e-01 -2.857143e-01  5.751322e-01
   endloop
 endfacet
 facet normal -9.927089e-01 -0.000000e+00 -1.205367e-01
   outer loop
     vertex -8.901065e-01 -1.587302e-02  5.866126e-01
     vertex -8.887125e-01 -2.857143e-01  5.751322e-01
     vertex -8.901065e-01 -2.857143e-01  5.866126e-01
   endloop
 endfacet
 facet normal -9.350162e-01 -0.000000e+00 -3.546049e-01
   outer loop
     vertex -8.942074e-01 -1.587302e-02  5.974258e-01
     vertex -8.901065e-01 -2.857143e-01  5.866126e-01
     vertex -8.942074e-01 -2.857143e-01  5.974258e-01
   endloop
 endfacet
 facet normal -9.350162e-01  0.000000e+00 -3.546049e-01
   outer loop
     vertex -8.942074e-01 -1.587302e-02  5.974258e-01
     vertex -8.901065e-01 -1.587302e-02  5.866126e-01
     vertex -8.901065e-01 -2.857143e-01  5.866126e-01
   endloop
 endfacet
 facet normal -8.229839e-01 -0.000000e+00 -5.680647e-01
   outer loop
     vertex -9.007769e-01 -1.587302e-02  6.069434e-01
     vertex -8.942074e-01 -2.857143e-01  5.974258e-01
     vertex -9.007769e-01 -2.857143e-01  6.069434e-01
   endloop
 endfacet
 facet normal -8.229839e-01  0.000000e+00 -5.680647e-01
   outer loop
     vertex -9.007769e-01 -1.587302e-02  6.069434e-01
     vertex -8.942074e-01 -1.587302e-02  5.974258e-01
     vertex -8.942074e-01 -2.857143e-01  5.974258e-01
   endloop
 endfacet
 facet normal -6.631227e-01 -0.000000e+00 -7.485107e-01
   outer loop
     vertex -9.094332e-01 -1.587302e-02  6.146122e-01
     vertex -9.007769e-01 -2.857143e-01  6.069434e-01
     vertex -9.094332e-01 -2.857143e-01  6.146122e-01
   endloop
 endfacet
 facet normal -6.631227e-01  0.000000e+00 -7.485107e-01
   outer loop
     vertex -9.094332e-01 -1.587302e-02  6.146122e-01
     vertex -9.007769e-01 -1.587302e-02  6.069434e-01
     vertex -9.007769e-01 -2.857143e-01  6.069434e-01
   endloop
 endfacet
 facet normal -4.647232e-01 -0.000000e+00 -8.854560e-01
   outer loop
     vertex -9.196733e-01 -1.587302e-02  6.199866e-01
     vertex -9.094332e-01 -2.857143e-01  6.146122e-01
     vertex -9.196733e-01 -2.857143e-01  6.199866e-01
   endloop
 endfacet
 facet normal -4.647232e-01  0.000000e+00 -8.854560e-01
   outer loop
     vertex -9.196733e-01 -1.587302e-02  6.199866e-01
     vertex -9.094332e-01 -1.587302e-02  6.146122e-01
     vertex -9.094332e-01 -2.857143e-01  6.146122e-01
   endloop
 endfacet
 facet normal -2.393157e-01 -0.000000e+00 -9.709418e-01
   outer loop
     vertex -9.309019e-01 -1.587302e-02  6.227542e-01
     vertex -9.196733e-01 -2.857143e-01  6.199866e-01
     vertex -9.309019e-01 -2.857143e-01  6.227542e-01
   endloop
 endfacet
 facet normal -2.393157e-01  0.000000e+00 -9.709418e-01
   outer loop
     vertex -9.309019e-01 -1.587302e-02  6.227542e-01
     vertex -9.196733e-01 -1.587302e-02  6.199866e-01
     vertex -9.196733e-01 -2.857143e-01  6.199866e-01
   endloop
 endfacet
 facet normal  0.000000e+00  0.000000e+00 -1.000000e+00
   outer loop
     vertex -9.424666e-01 -1.587302e-02  6.227542e-01
     vertex -9.309019e-01 -2.857143e-01  6.227542e-01
     vertex -9.424666e-01 -2.857143e-01  6.227542e-01
   endloop
 endfacet
 facet normal  0.000000e+00  0.000000e+00 -1.000000e+00
   outer loop
     vertex -9.424666e-01 -1.587302e-02  6.227542e-01
     vertex -9.309019e-01 -1.587302e-02  6.227542e-01
     vertex -9.309019e-01 -2.857143e-01  6.227542e-01
   endloop
 endfacet
 facet normal  2.393157e-01  0.000000e+00 -9.709418e-01
   outer loop
     vertex -9.536953e-01 -1.587302e-02  6.199866e-01
     vertex -9.424666e-01 -2.857143e-01  6.227542e-01
     vertex -9.536953e-01 -2.857143e-01  6.199866e-01
   endloop
 endfacet
 facet normal  2.393157e-01  0.000000e+00 -9.709418e-01
   outer loop
     vertex -9.536953e-01 -1.587302e-02  6.199866e-01
     vertex -9.424666e-01 -1.587302e-02  6.227542e-01
     vertex -9.424666e-01 -2.857143e-01  6.227542e-01
   endloop
 endfacet
 facet normal  4.647232e-01  0.000000e+00 -8.854560e-01
   outer loop
     vertex -9.639354e-01 -1.587302e-02  6.146122e-01
     vertex -9.536953e-01 -2.857143e-01  6.199866e-01
     vertex -9.639354e-01 -2.857143e-01  6.146122e-01
   endloop
 endfacet
 facet normal  4.647232e-01  0.000000e+00 -8.854560e-01
   outer loop
     vertex -9.639354e-01 -1.587302e-02  6.146122e-01
     vertex -9.536953e-01 -1.587302e-02  6.199866e-01
     vertex -9.536953e-01 -2.857143e-01  6.199866e-01
   endloop
 endfacet
 facet normal  6.631227e-01  0.000000e+00 -7.485107e-01
   outer loop
     vertex -9.725917e-01 -1.587302e-02  6.069434e-01
     vertex -9.639354e-01 -2.857143e-01  6.146122e-01
     vertex -9.725917e-01 -2.857143e-01  6.069434e-01
   endloop
 endfacet
 facet normal  6.631227e-01  0.000000e+00 -7.485107e-01
   outer loop
     vertex -9.725917e-01 -1.587302e-02  6.069434e-01
     vertex -9.639354e-01 -1.587302e-02  6.146122e-01
     vertex -9.639354e-01 -2.857143e-01  6.146122e-01
   endloop
 endfacet
 facet normal  8.229839e-01  0.000000e+00 -5.680647e-01
   outer loop
     vertex -9.791612e-01 -1.587302e-02  5.974258e-01
     vertex -9.725917e-01 -1.587302e-02  6.069434e-01
     vertex -9.725917e-01 -2.857143e-01  6.069434e-01
   endloop
 endfacet
 facet normal  8.229839e-01  0.000000e+00 -5.680647e-01
   outer loop
     vertex -9.791612e-01 -1.587302e-02  5.974258e-01
     vertex -9.725917e-01 -2.857143e-01  6.069434e-01
     vertex -9.791612e-01 -2.857143e-01  5.974258e-01
   endloop
 endfacet
 facet normal  9.350162e-01  0.000000e+00 -3.546049e-01
   outer loop
     vertex -9.791612e-01 -1.587302e-02  5.974258e-01
     vertex -9.791612e-01 -2.857143e-01  5.974258e-01
     vertex -9.832621e-01 -2.857143e-01  5.866126e-01
   endloop
 endfacet
 facet normal  9.350162e-01  0.000000e+00 -3.546049e-01
   outer loop
     vertex -9.832621e-01 -1.587302e-02  5.866126e-01
     vertex -9.791612e-01 -1.587302e-02  5.974258e-01
     vertex -9.832621e-01 -2.857143e-01  5.866126e-01
   endloop
 endfacet
 facet normal  9.927089e-01  0.000000e+00 -1.205367e-01
   outer loop
     vertex -9.832621e-01 -1.587302e-02  5.866126e-01
     vertex -9.832621e-01 -2.857143e-01  5.866126e-01
     vertex -9.846561e-01 -2.857143e-01  5.751322e-01
   endloop
 endfacet
 facet normal  9.927089e-01  0.000000e+00 -1.205367e-01
   outer loop
     vertex -9.846561e-01 -1.587302e-02  5.751322e-01
     vertex -9.832621e-01 -1.587302e-02  5.866126e-01
     vertex -9.846561e-01 -2.857143e-01  5.751322e-01
   endloop
 endfacet
 facet normal  9.927089e-01  0.000000e+00  1.205367e-01
   outer loop
     vertex -9.832621e-01 -1.587302e-02  5.636518e-01
     vertex -9.846561e-01 -1.587302e-02  5.751322e-01
     vertex -9.846561e-01 -2.857143e-01  5.751322e-01
   endloop
 endfacet
 facet normal  9.927089e-01  0.000000e+00  1.205367e-01
   outer loop
     vertex -9.832621e-01 -1.587302e-02  5.636518e-01
     vertex -9.846561e-01 -2.857143e-01  5.751322e-01
     vertex -9.832621e-01 -2.857143e-01  5.636518e-01
   endloop
 endfacet
 facet normal  9.350162e-01  0.000000e+00  3.546049e-01
   outer loop
     vertex -9.791612e-01 -1.587302e-02  5.528386e-01
     vertex -9.832621e-01 -1.587302e-02  5.636518e-01
     vertex -9.832621e-01 -2.857143e-01  5.636518e-01
   endloop
 endfacet
 facet normal  9.350162e-01  0.000000e+00  3.546049e-01
   outer loop
     vertex -9.791612e-01 -1.587302e-02  5.528386e-01
     vertex -9.832621e-01 -2.857143e-01  5.636518e-01
     vertex -9.791612e-01 -2.857143e-01  5.528386e-01
   endloop
 endfacet
 facet normal  8.229839e-01  0.000000e+00  5.680647e-01
   outer loop
     vertex -9.725917e-01 -1.587302e-02  5.433211e-01
     vertex -9.791612e-01 -2.857143e-01  5.528386e-01
     vertex -9.725917e-01 -2.857143e-01  5.433211e-01
   endloop
 endfacet
 facet normal  8.229839e-01  0.000000e+00  5.680647e-01
   outer loop
     vertex -9.725917e-01 -1.587302e-02  5.433211e-01
     vertex -9.791612e-01 -1.587302e-02  5.528386e-01
     vertex -9.791612e-01 -2.857143e-01  5.528386e-01
   endloop
 endfacet
 facet normal  6.631227e-01  0.000000e+00  7.485107e-01
   outer loop
     vertex -9.639354e-01 -1.587302e-02  5.356522e-01
     vertex -9.725917e-01 -2.857143e-01  5.433211e-01
     vertex -9.639354e-01 -2.857143e-01  5.356522e-01
   endloop
 endfacet
 facet normal  6.631227e-01  0.000000e+00  7.485107e-01
   outer loop
     vertex -9.639354e-01 -1.587302e-02  5.356522e-01
     vertex -9.725917e-01 -1.587302e-02  5.433211e-01
     vertex -9.725917e-01 -2.857143e-01  5.433211e-01
   endloop
 endfacet
 facet normal  4.647232e-01  0.000000e+00  8.854560e-01
   outer loop
     vertex -9.536953e-01 -1.587302e-02  5.302778e-01
     vertex -9.639354e-01 -2.857143e-01  5.356522e-01
     vertex -9.536953e-01 -2.857143e-01  5.302778e-01
   endloop
 endfacet
 facet normal  4.647232e-01  0.000000e+00  8.854560e-01
   outer loop
     vertex -9.536953e-01 -1.587302e-02  5.302778e-01
     vertex -9.639354e-01 -1.587302e-02  5.356522e-01
     vertex -9.639354e-01 -2.857143e-01  5.356522e-01
   endloop
 endfacet
 facet normal  2.393157e-01  0.000000e+00  9.709418e-01
   outer loop
     vertex -9.424666e-01 -1.587302e-02  5.275102e-01
     vertex -9.536953e-01 -2.857143e-01  5.302778e-01
     vertex -9.424666e-01 -2.857143e-01  5.275102e-01
   endloop
 endfacet
 facet normal  0.000000e+00  0.000000e+00  1.000000e+00
   outer loop
     vertex -9.424666e-01 -1.587302e-02  5.275102e-01
     vertex -9.424666e-01 -2.857143e-01  5.275102e-01
     vertex -9.309019e-01 -2.857143e-01  5.275102e-01
   endloop
 endfacet
 facet normal  2.393157e-01  0.000000e+00  9.709418e-01
   outer loop
     vertex -9.424666e-01 -1.587302e-02  5.275102e-01
     vertex -9.536953e-01 -1.587302e-02  5.302778e-01
     vertex -9.536953e-01 -2.857143e-01  5.302778e-01
   endloop
 endfacet
 facet normal  0.000000e+00  0.000000e+00  1.000000e+00
   outer loop
     vertex -9.309019e-01 -1.587302e-02  5.275102e-01
     vertex -9.424666e-01 -1.587302e-02  5.275102e-01
     vertex -9.309019e-01 -2.857143e-01  5.275102e-01
   endloop
 endfacet
 facet normal -2.393157e-01  0.000000e+00  9.709418e-01
   outer loop
     vertex -9.196733e-01 -1.587302e-02  5.302778e-01
     vertex -9.309019e-01 -2.857143e-01  5.275102e-01
     vertex -9.196733e-01 -2.857143e-01  5.302778e-01
   endloop
 endfacet
 facet normal -2.393157e-01  0.000000e+00  9.709418e-01
   outer loop
     vertex -9.196733e-01 -1.587302e-02  5.302778e-01
     vertex -9.309019e-01 -1.587302e-02  5.275102e-01
     vertex -9.309019e-01 -2.857143e-01  5.275102e-01
   endloop
 endfacet
 facet normal -4.647232e-01  0.000000e+00  8.854560e-01
   outer loop
     vertex -9.094332e-01 -1.587302e-02  5.356522e-01
     vertex -9.196733e-01 -2.857143e-01  5.302778e-01
     vertex -9.094332e-01 -2.857143e-01  5.356522e-01
   endloop
 endfacet
 facet normal -6.631227e-01  0.000000e+00  7.485107e-01
   outer loop
     vertex -9.094332e-01 -1.587302e-02  5.356522e-01
     vertex -9.094332e-01 -2.857143e-01  5.356522e-01
     vertex -9.007769e-01 -2.857143e-01  5.433211e-01
   endloop
 endfacet
 facet normal -4.647232e-01  0.000000e+00  8.854560e-01
   outer loop
     vertex -9.094332e-01 -1.587302e-02  5.356522e-01
     vertex -9.196733e-01 -1.587302e-02  5.302778e-01
     vertex -9.196733e-01 -2.857143e-01  5.302778e-01
   endloop
 endfacet
 facet normal -6.631227e-01  0.000000e+00  7.485107e-01
   outer loop
     vertex -9.007769e-01 -1.587302e-02  5.433211e-01
     vertex -9.094332e-01 -1.587302e-02  5.356522e-01
     vertex -9.007769e-01 -2.857143e-01  5.433211e-01
   endloop
 endfacet
 facet normal -8.229839e-01  0.000000e+00  5.680647e-01
   outer loop
     vertex -8.942074e-01 -1.587302e-02  5.528386e-01
     vertex -9.007769e-01 -2.857143e-01  5.433211e-01
     vertex -8.942074e-01 -2.857143e-01  5.528386e-01
   endloop
 endfacet
 facet normal -9.350162e-01  0.000000e+00  3.546049e-01
   outer loop
     vertex -8.942074e-01 -1.587302e-02  5.528386e-01
     vertex -8.942074e-01 -2.857143e-01  5.528386e-01
     vertex -8.901065e-01 -2.857143e-01  5.636518e-01
   endloop
 endfacet
 facet normal -8.229839e-01  0.000000e+00  5.680647e-01
   outer loop
     vertex -8.942074e-01 -1.587302e-02  5.528386e-01
     vertex -9.007769e-01 -1.587302e-02  5.433211e-01
     vertex -9.007769e-01 -2.857143e-01  5.433211e-01
   endloop
 endfacet
 facet normal -9.927089e-01  0.000000e+00  1.205367e-01
   outer loop
     vertex -8.901065e-01 -1.587302e-02  5.636518e-01
     vertex -8.901065e-01 -2.857143e-01  5.636518e-01
     vertex -8.887125e-01 -2.857143e-01  5.751322e-01
   endloop
 endfacet
 facet normal -9.350162e-01  0.000000e+00  3.546049e-01
   outer loop
     vertex -8.901065e-01 -1.587302e-02  5.636518e-01
     vertex -8.942074e-01 -1.587302e-02  5.528386e-01
     vertex -8.901065e-01 -2.857143e-01  5.636518e-01
   endloop
 endfacet
 facet normal -9.927089e-01  0.000000e+00  1.205367e-01
   outer loop
     vertex -8.887125e-01 -1.587302e-02  5.751322e-01
     vertex -8.901065e-01 -1.587302e-02  5.636518e-01
     vertex -8.887125e-01 -2.857143e-01  5.751322e-01
   endloop
 endfacet
 facet normal  0.000000e+00  0.000000e+00  1.000000e+00
   outer loop
     vertex -1.068607e+00 -1.587302e-02  6.470899e-01
     vertex -8.647266e-01 -1.587302e-02  6.470899e-01
     vertex -8.647266e-01  0.000000e+00  6.470899e-01
   endloop
 endfacet
 facet normal  0.000000e+00  0.000000e+00  1.000000e+00
   outer loop
     vertex -1.068607e+00 -1.587302e-02  6.470899e-01
     vertex -8.647266e-01  0.000000e+00  6.470899e-01
     vertex -1.068607e+00  0.000000e+00  6.470899e-01
   endloop
 endfacet
 facet normal  0.000000e+00  0.000000e+00  1.000000e+00
   outer loop
     vertex -8.647266e-01 -1.587302e-02  2.273368e-01
     vertex -6.608465e-01 -1.587302e-02  2.273368e-01
     vertex -6.608465e-01  0.000000e+00  2.273368e-01
   endloop
 endfacet
 facet normal  0.000000e+00  0.000000e+00  1.000000e+00
   outer loop
     vertex -8.647266e-01 -1.587302e-02  2.273368e-01
     vertex -6.608465e-01  0.000000e+00  2.273368e-01
     vertex -8.647266e-01  0.000000e+00  2.273368e-01
   endloop
 endfacet
 facet normal  1.000000e+00  0.000000e+00  0.000000e+00
   outer loop
     vertex -8.647266e-01 -1.587302e-02  6.470899e-01
     vertex -8.647266e-01 -1.587302e-02  2.273368e-01
     vertex -8.647266e-01  0.000000e+00  2.273368e-01
   endloop
 endfacet
 facet normal  1.000000e+00 -0.000000e+00  0.000000e+00
   outer loop
     vertex -8.647266e-01 -1.587302e-02  6.470899e-01
     vertex -8.647266e-01  0.000000e+00  2.273368e-01
     vertex -8.647266e-01  0.000000e+00  6.470899e-01
   endloop
 endfacet
 facet normal -9.927089e-01  0.000000e+00 -1.205367e-01
   outer loop
     vertex -8.901065e-01 -1.587302e-02  5.866126e-01
     vertex -8.887125e-01  0.000000e+00  5.751322e-01
     vertex -8.887125e-01 -1.587302e-02  5.751322e-01
   endloop
 endfacet
 facet normal -9.927089e-01  0.000000e+00 -1.205367e-01
   outer loop
     vertex -8.901065e-01 -1.587302e-02  5.866126e-01
     vertex -8.901065e-01  0.000000e+00  5.866126e-01
     vertex -8.887125e-01  0.000000e+00  5.751322e-01
   endloop
 endfacet
 facet normal -9.350162e-01  0.000000e+00 -3.546049e-01
   outer loop
     vertex -8.942074e-01 -1.587302e-02  5.974258e-01
     vertex -8.942074e-01  0.000000e+00  5.974258e-01
     vertex -8.901065e-01  0.000000e+00  5.866126e-01
   endloop
 endfacet
 facet normal -9.350162e-01  0.000000e+00 -3.546049e-01
   outer loop
     vertex -8.942074e-01 -1.587302e-02  5.974258e-01
     vertex -8.901065e-01  0.000000e+00  5.866126e-01
     vertex -8.901065e-01 -1.587302e-02  5.866126e-01
   endloop
 endfacet
 facet normal -8.229839e-01  0.000000e+00 -5.680647e-01
   outer loop
     vertex -9.007769e-01 -1.587302e-02  6.069434e-01
     vertex -9.007769e-01  0.000000e+00  6.069434e-01
     vertex -8.942074e-01  0.000000e+00  5.974258e-01
   endloop
 endfacet
 facet normal -8.229839e-01  0.000000e+00 -5.680647e-01
   outer loop
     vertex -9.007769e-01 -1.587302e-02  6.069434e-01
     vertex -8.942074e-01  0.000000e+00  5.974258e-01
     vertex -8.942074e-01 -1.587302e-02  5.974258e-01
   endloop
 endfacet
 facet normal -6.631227e-01  0.000000e+00 -7.485107e-01
   outer loop
     vertex -9.094332e-01 -1.587302e-02  6.146122e-01
     vertex -9.094332e-01  0.000000e+00  6.146122e-01
     vertex -9.007769e-01  0.000000e+00  6.069434e-01
   endloop
 endfacet
 facet normal -6.631227e-01  0.000000e+00 -7.485107e-01
   outer loop
     vertex -9.094332e-01 -1.587302e-02  6.146122e-01
     vertex -9.007769e-01  0.000000e+00  6.069434e-01
     vertex -9.007769e-01 -1.587302e-02  6.069434e-01
   endloop
 endfacet
 facet normal -4.647232e-01  0.000000e+00 -8.854560e-01
   outer loop
     vertex -9.196733e-01 -1.587302e-02  6.199866e-01
     vertex -9.196733e-01  0.000000e+00  6.199866e-01
     vertex -9.094332e-01  0.000000e+00  6.146122e-01
   endloop
 endfacet
 facet normal -4.647232e-01  0.000000e+00 -8.854560e-01
   outer loop
     vertex -9.196733e-01 -1.587302e-02  6.199866e-01
     vertex -9.094332e-01  0.000000e+00  6.146122e-01
     vertex -9.094332e-01 -1.587302e-02  6.146122e-01
   endloop
 endfacet
 facet normal -2.393157e-01  0.000000e+00 -9.709418e-01
   outer loop
     vertex -9.309019e-01 -1.587302e-02  6.227542e-01
     vertex -9.309019e-01  0.000000e+00  6.227542e-01
     vertex -9.196733e-01  0.000000e+00  6.199866e-01
   endloop
 endfacet
 facet normal -2.393157e-01  0.000000e+00 -9.709418e-01
   outer loop
     vertex -9.309019e-01 -1.587302e-02  6.227542e-01
     vertex -9.196733e-01  0.000000e+00  6.199866e-01
     vertex -9.196733e-01 -1.587302e-02  6.199866e-01
   endloop
 endfacet
 facet normal  0.000000e+00  0.000000e+00 -1.000000e+00
   outer loop
     vertex -9.424666e-01 -1.587302e-02  6.227542e-01
     vertex -9.424666e-01  0.000000e+00  6.227542e-01
     vertex -9.309019e-01  0.000000e+00  6.227542e-01
   endloop
 endfacet
 facet normal  0.000000e+00  0.000000e+00 -1.000000e+00
   outer loop
     vertex -9.424666e-01 -1.587302e-02  6.227542e-01
     vertex -9.309019e-01  0.000000e+00  6.227542e-01
     vertex -9.309019e-01 -1.587302e-02  6.227542e-01
   endloop
 endfacet
 facet normal  2.393157e-01  0.000000e+00 -9.709418e-01
   outer loop
     vertex -9.536953e-01 -1.587302e-02  6.199866e-01
     vertex -9.536953e-01  0.000000e+00  6.199866e-01
     vertex -9.424666e-01  0.000000e+00  6.227542e-01
   endloop
 endfacet
 facet normal  2.393157e-01  0.000000e+00 -9.709418e-01
   outer loop
     vertex -9.536953e-01 -1.587302e-02  6.199866e-01
     vertex -9.424666e-01  0.000000e+00  6.227542e-01
     vertex -9.424666e-01 -1.587302e-02  6.227542e-01
   endloop
 endfacet
 facet normal  4.647232e-01  0.000000e+00 -8.854560e-01
   outer loop
     vertex -9.639354e-01 -1.587302e-02  6.146122e-01
     vertex -9.639354e-01  0.000000e+00  6.146122e-01
     vertex -9.536953e-01  0.000000e+00  6.199866e-01
   endloop
 endfacet
 facet normal  4.647232e-01  0.000000e+00 -8.854560e-01
   outer loop
     vertex -9.639354e-01 -1.587302e-02  6.146122e-01
     vertex -9.536953e-01  0.000000e+00  6.199866e-01
     vertex -9.536953e-01 -1.587302e-02  6.199866e-01
   endloop
 endfacet
 facet normal  6.631227e-01  0.000000e+00 -7.485107e-01
   outer loop
     vertex -9.725917e-01 -1.587302e-02  6.069434e-01
     vertex -9.725917e-01  0.000000e+00  6.069434e-01
     vertex -9.639354e-01  0.000000e+00  6.146122e-01
   endloop
 endfacet
 facet normal  6.631227e-01  0.000000e+00 -7.485107e-01
   outer loop
     vertex -9.725917e-01 -1.587302e-02  6.069434e-01
     vertex -9.639354e-01  0.000000e+00  6.146122e-01
     vertex -9.639354e-01 -1.587302e-02  6.146122e-01
   endloop
 endfacet
 facet normal  8.229839e-01  0.000000e+00 -5.680647e-01
   outer loop
     vertex -9.791612e-01 -1.587302e-02  5.974258e-01
     vertex -9.725917e-01  0.000000e+00  6.069434e-01
     vertex -9.725917e-01 -1.587302e-02  6.069434e-01
   endloop
 endfacet
 facet normal  8.229839e-01  0.000000e+00 -5.680647e-01
   outer loop
     vertex -9.791612e-01 -1.587302e-02  5.974258e-01
     vertex -9.791612e-01  0.000000e+00  5.974258e-01
     vertex -9.725917e-01  0.000000e+00  6.069434e-01
   endloop
 endfacet
 facet normal  9.350162e-01  0.000000e+00 -3.546049e-01
   outer loop
     vertex -9.832621e-01 -1.587302e-02  5.866126e-01
     vertex -9.791612e-01  0.000000e+00  5.974258e-01
     vertex -9.791612e-01 -1.587302e-02  5.974258e-01
   endloop
 endfacet
 facet normal  9.350162e-01  0.000000e+00 -3.546049e-01
   outer loop
     vertex -9.832621e-01 -1.587302e-02  5.866126e-01
     vertex -9.832621e-01  0.000000e+00  5.866126e-01
     vertex -9.791612e-01  0.000000e+00  5.974258e-01
   endloop
 endfacet
 facet normal  9.927089e-01  0.000000e+00 -1.205367e-01
   outer loop
     vertex -9.846561e-01 -1.587302e-02  5.751322e-01
     vertex -9.832621e-01  0.000000e+00  5.866126e-01
     vertex -9.832621e-01 -1.587302e-02  5.866126e-01
   endloop
 endfacet
 facet normal  9.927089e-01  0.000000e+00 -1.205367e-01
   outer loop
     vertex -9.846561e-01 -1.587302e-02  5.751322e-01
     vertex -9.846561e-01  0.000000e+00  5.751322e-01
     vertex -9.832621e-01  0.000000e+00  5.866126e-01
   endloop
 endfacet
 facet normal  9.927089e-01 -0.000000e+00  1.205367e-01
   outer loop
     vertex -9.832621e-01 -1.587302e-02  5.636518e-01
     vertex -9.832621e-01  0.000000e+00  5.636518e-01
     vertex -9.846561e-01  0.000000e+00  5.751322e-01
   endloop
 endfacet
 facet normal  9.927089e-01  0.000000e+00  1.205367e-01
   outer loop
     vertex -9.832621e-01 -1.587302e-02  5.636518e-01
     vertex -9.846561e-01  0.000000e+00  5.751322e-01
     vertex -9.846561e-01 -1.587302e-02  5.751322e-01
   endloop
 endfacet
 facet normal  9.350162e-01  0.000000e+00  3.546049e-01
   outer loop
     vertex -9.791612e-01 -1.587302e-02  5.528386e-01
     vertex -9.832621e-01  0.000000e+00  5.636518e-01
     vertex -9.832621e-01 -1.587302e-02  5.636518e-01
   endloop
 endfacet
 facet normal  9.350162e-01 -0.000000e+00  3.546049e-01
   outer loop
     vertex -9.791612e-01 -1.587302e-02  5.528386e-01
     vertex -9.791612e-01  0.000000e+00  5.528386e-01
     vertex -9.832621e-01  0.000000e+00  5.636518e-01
   endloop
 endfacet
 facet normal  8.229839e-01 -0.000000e+00  5.680647e-01
   outer loop
     vertex -9.725917e-01 -1.587302e-02  5.433211e-01
     vertex -9.725917e-01  0.000000e+00  5.433211e-01
     vertex -9.791612e-01  0.000000e+00  5.528386e-01
   endloop
 endfacet
 facet normal  8.229839e-01  0.000000e+00  5.680647e-01
   outer loop
     vertex -9.725917e-01 -1.587302e-02  5.433211e-01
     vertex -9.791612e-01  0.000000e+00  5.528386e-01
     vertex -9.791612e-01 -1.587302e-02  5.528386e-01
   endloop
 endfacet
 facet normal  6.631227e-01 -0.000000e+00  7.485107e-01
   outer loop
     vertex -9.639354e-01 -1.587302e-02  5.356522e-01
     vertex -9.639354e-01  0.000000e+00  5.356522e-01
     vertex -9.725917e-01  0.000000e+00  5.433211e-01
   endloop
 endfacet
 facet normal  6.631227e-01  0.000000e+00  7.485107e-01
   outer loop
     vertex -9.639354e-01 -1.587302e-02  5.356522e-01
     vertex -9.725917e-01  0.000000e+00  5.433211e-01
     vertex -9.725917e-01 -1.587302e-02  5.433211e-01
   endloop
 endfacet
 facet normal  4.647232e-01 -0.000000e+00  8.854560e-01
   outer loop
     vertex -9.536953e-01 -1.587302e-02  5.302778e-01
     vertex -9.536953e-01  0.000000e+00  5.302778e-01
     vertex -9.639354e-01  0.000000e+00  5.356522e-01
   endloop
 endfacet
 facet normal  4.647232e-01  0.000000e+00  8.854560e-01
   outer loop
     vertex -9.536953e-01 -1.587302e-02  5.302778e-01
     vertex -9.639354e-01  0.000000e+00  5.356522e-01
     vertex -9.639354e-01 -1.587302e-02  5.356522e-01
   endloop
 endfacet
 facet normal  2.393157e-01 -0.000000e+00  9.709418e-01
   outer loop
     vertex -9.424666e-01 -1.587302e-02  5.275102e-01
     vertex -9.424666e-01  0.000000e+00  5.275102e-01
     vertex -9.536953e-01  0.000000e+00  5.302778e-01
   endloop
 endfacet
 facet normal  2.393157e-01  0.000000e+00  9.709418e-01
   outer loop
     vertex -9.424666e-01 -1.587302e-02  5.275102e-01
     vertex -9.536953e-01  0.000000e+00  5.302778e-01
     vertex -9.536953e-01 -1.587302e-02  5.302778e-01
   endloop
 endfacet
 facet normal  0.000000e+00 -0.000000e+00  1.000000e+00
   outer loop
     vertex -9.309019e-01 -1.587302e-02  5.275102e-01
     vertex -9.309019e-01  0.000000e+00  5.275102e-01
     vertex -9.424666e-01  0.000000e+00  5.275102e-01
   endloop
 endfacet
 facet normal  0.000000e+00  0.000000e+00  1.000000e+00
   outer loop
     vertex -9.309019e-01 -1.587302e-02  5.275102e-01
     vertex -9.424666e-01  0.000000e+00  5.275102e-01
     vertex -9.424666e-01 -1.587302e-02  5.275102e-01
   endloop
 endfacet
 facet normal -2.393157e-01  0.000000e+00  9.709418e-01
   outer loop
     vertex -9.196733e-01 -1.587302e-02  5.302778e-01
     vertex -9.196733e-01  0.000000e+00  5.302778e-01
     vertex -9.309019e-01  0.000000e+00  5.275102e-01
   endloop
 endfacet
 facet normal -2.393157e-01  0.000000e+00  9.709418e-01
   outer loop
     vertex -9.196733e-01 -1.587302e-02  5.302778e-01
     vertex -9.309019e-01  0.000000e+00  5.275102e-01
     vertex -9.309019e-01 -1.587302e-02  5.275102e-01
   endloop
 endfacet
 facet normal -4.647232e-01  0.000000e+00  8.854560e-01
   outer loop
     vertex -9.094332e-01 -1.587302e-02  5.356522e-01
     vertex -9.094332e-01  0.000000e+00  5.356522e-01
     vertex -9.196733e-01  0.000000e+00  5.302778e-01
   endloop
 endfacet
 facet normal -4.647232e-01  0.000000e+00  8.854560e-01
   outer loop
     vertex -9.094332e-01 -1.587302e-02  5.356522e-01
     vertex -9.196733e-01  0.000000e+00  5.302778e-01
     vertex -9.196733e-01 -1.587302e-02  5.302778e-01
   endloop
 endfacet
 facet normal -6.631227e-01  0.000000e+00  7.485107e-01
   outer loop
     vertex -9.007769e-01 -1.587302e-02  5.433211e-01
     vertex -9.007769e-01  0.000000e+00  5.433211e-01
     vertex -9.094332e-01  0.000000e+00  5.356522e-01
   endloop
 endfacet
 facet normal -6.631227e-01  0.000000e+00  7.485107e-01
   outer loop
     vertex -9.007769e-01 -1.587302e-02  5.433211e-01
     vertex -9.094332e-01  0.000000e+00  5.356522e-01
     vertex -9.094332e-01 -1.587302e-02  5.356522e-01
   endloop
 endfacet
 facet normal -8.229839e-01  0.000000e+00  5.680647e-01
   outer loop
     vertex -8.942074e-01 -1.587302e-02  5.528386e-01
     vertex -8.942074e-01  0.000000e+00  5.528386e-01
     vertex -9.007769e-01  0.000000e+00  5.433211e-01
   endloop
 endfacet
 facet normal -8.229839e-01  0.000000e+00  5.680647e-01
   outer loop
     vertex -8.942074e-01 -1.587302e-02  5.528386e-01
     vertex -9.007769e-01  0.000000e+00  5.433211e-01
     vertex -9.007769e-01 -1.587302e-02  5.433211e-01
   endloop
 endfacet
 facet normal -9.350162e-01  0.000000e+00  3.546049e-01
   outer loop
     vertex -8.901065e-01 -1.587302e-02  5.636518e-01
     vertex -8.901065e-01  0.000000e+00  5.636518e-01
     vertex -8.942074e-01  0.000000e+00  5.528386e-01
   endloop
 endfacet
 facet normal -9.350162e-01  0.000000e+00  3.546049e-01
   outer loop
     vertex -8.901065e-01 -1.587302e-02  5.636518e-01
     vertex -8.942074e-01  0.000000e+00  5.528386e-01
     vertex -8.942074e-01 -1.587302e-02  5.528386e-01
   endloop
 endfacet
 facet normal -9.927089e-01  0.000000e+00  1.205367e-01
   outer loop
     vertex -8.887125e-01 -1.587302e-02  5.751322e-01
     vertex -8.887125e-01  0.000000e+00  5.751322e-01
     vertex -8.901065e-01  0.000000e+00  5.636518e-01
   endloop
 endfacet
 facet normal -9.927089e-01  0.000000e+00  1.205367e-01
   outer loop
     vertex -8.887125e-01 -1.587302e-02  5.751322e-01
     vertex -8.901065e-01  0.000000e+00  5.636518e-01
     vertex -8.901065e-01 -1.587302e-02  5.636518e-01
   endloop
 endfacet
endsolid
