solid 
 facet normal  0.000000e+00  0.000000e+00  1.000000e+00
   outer loop
     vertex -3.818341e-01 -1.587302e-02  3.416227e-01
     vertex -6.287478e-01 -1.587302e-02  3.416227e-01
     vertex -6.287478e-01 -1.015873e+00  3.416227e-01
   endloop
 endfacet
 facet normal  0.000000e+00  0.000000e+00  1.000000e+00
   outer loop
     vertex -3.818341e-01 -1.587302e-02  3.416227e-01
     vertex -6.287478e-01 -1.015873e+00  3.416227e-01
     vertex -3.818341e-01 -1.015873e+00  3.416227e-01
   endloop
 endfacet
 facet normal -1.000000e+00  0.000000e+00 -0.000000e+00
   outer loop
     vertex -6.287478e-01 -1.587302e-02  3.416227e-01
     vertex -6.287478e-01 -1.587302e-02 -2.756613e-01
     vertex -6.287478e-01 -1.015873e+00 -2.756613e-01
   endloop
 endfacet
 facet normal -1.000000e+00 -0.000000e+00  0.000000e+00
   outer loop
     vertex -6.287478e-01 -1.587302e-02  3.416227e-01
     vertex -6.287478e-01 -1.015873e+00 -2.756613e-01
     vertex -6.287478e-01 -1.015873e+00  3.416227e-01
   endloop
 endfacet
 facet normal -1.000000e+00  0.000000e+00 -0.000000e+00
   outer loop
     vertex -3.818341e-01 -1.587302e-02  7.119930e-01
     vertex -3.818341e-01 -1.587302e-02  3.416227e-01
     vertex -3.818341e-01 -1.015873e+00  3.416227e-01
   endloop
 endfacet
 facet normal -1.000000e+00 -0.000000e+00  0.000000e+00
   outer loop
     vertex -3.818341e-01 -1.587302e-02  7.119930e-01
     vertex -3.818341e-01 -1.015873e+00  3.416227e-01
     vertex -3.818341e-01 -1.015873e+00  7.119930e-01
   endloop
 endfacet
 facet normal  0.000000e+00  0.000000e+00  1.000000e+00
   outer loop
     vertex -3.818341e-01 -1.587302e-02  3.416227e-01
     vertex -6.287478e-01  0.000000e+00  3.416227e-01
     vertex -6.287478e-01 -1.587302e-02  3.416227e-01
   endloop
 endfacet
 facet normal  0.000000e+00 -0.000000e+00  1.000000e+00
   outer loop
     vertex -3.818341e-01 -1.587302e-02  3.416227e-01
     vertex -3.818341e-01  0.000000e+00  3.416227e-01
     vertex -6.287478e-01  0.000000e+00  3.416227e-01
   endloop
 endfacet
 facet normal -0.000000e+00 -1.000000e+00  0.000000e+00
   outer loop
     vertex -3.818341e-01 -1.015873e+00  3.416227e-01
     vertex -6.287478e-01 -1.015873e+00  3.416227e-01
     vertex -6.287478e-01 -1.015873e+00 -2.756613e-01
   endloop
 endfacet
 facet normal  0.000000e+00 -1.000000e+00 -0.000000e+00
   outer loop
     vertex -3.818341e-01 -1.015873e+00  3.416227e-01
     vertex -6.287478e-01 -1.015873e+00 -2.756613e-01
     vertex -1.349206e-01 -1.015873e+00 -2.756613e-01
   endloop
 endfacet
 facet normal -0.000000e+00 -1.000000e+00  0.000000e+00
   outer loop
     vertex -1.349206e-01 -1.015873e+00  7.119930e-01
     vertex -3.818341e-01 -1.015873e+00  7.119930e-01
     vertex -3.818341e-01 -1.015873e+00  3.416227e-01
   endloop
 endfacet
 facet normal  0.000000e+00 -1.000000e+00 -0.000000e+00
   outer loop
     vertex -1.349206e-01 -1.015873e+00  7.119930e-01
     vertex -3.818341e-01 -1.015873e+00  3.416227e-01
     vertex -1.349206e-01 -1.015873e+00 -2.756613e-01
   endloop
 endfacet
 facet normal  0.000000e+00  0.000000e+00 -1.000000e+00
   outer loop
     vertex -6.287478e-01 -1.587302e-02 -2.756613e-01
     vertex -1.349206e-01 -1.587302e-02 -2.756613e-01
     vertex -1.349206e-01 -1.015873e+00 -2.756613e-01
   endloop
 endfacet
 facet normal  0.000000e+00  0.000000e+00 -1.000000e+00
   outer loop
     vertex -6.287478e-01 -1.587302e-02 -2.756613e-01
     vertex -1.349206e-01 -1.015873e+00 -2.756613e-01
     vertex -6.287478e-01 -1.015873e+00 -2.756613e-01
   endloop
 endfacet
 facet normal -1.000000e+00  0.000000e+00  0.000000e+00
   outer loop
     vertex -6.287478e-01 -1.587302e-02  3.416227e-01
     vertex -6.287478e-01  0.000000e+00 -2.756613e-01
     vertex -6.287478e-01 -1.587302e-02 -2.756613e-01
   endloop
 endfacet
 facet normal -1.000000e+00  0.000000e+00  0.000000e+00
   outer loop
     vertex -6.287478e-01 -1.587302e-02  3.416227e-01
     vertex -6.287478e-01  0.000000e+00  3.416227e-01
     vertex -6.287478e-01  0.000000e+00 -2.756613e-01
   endloop
 endfacet
 facet normal  0.000000e+00  0.000000e+00  1.000000e+00
   outer loop
     vertex -1.349206e-01 -1.587302e-02  7.119930e-01
     vertex -3.818341e-01 -1.587302e-02  7.119930e-01
     vertex -3.818341e-01 -1.015873e+00  7.119930e-01
   endloop
 endfacet
 facet normal  0.000000e+00  0.000000e+00  1.000000e+00
   outer loop
     vertex -1.349206e-01 -1.587302e-02  7.119930e-01
     vertex -3.818341e-01 -1.015873e+00  7.119930e-01
     vertex -1.349206e-01 -1.015873e+00  7.119930e-01
   endloop
 endfacet
 facet normal -1.000000e+00  0.000000e+00  0.000000e+00
   outer loop
     vertex -3.818341e-01 -1.587302e-02  7.119930e-01
     vertex -3.818341e-01  0.000000e+00  3.416227e-01
     vertex -3.818341e-01 -1.587302e-02  3.416227e-01
   endloop
 endfacet
 facet normal -1.000000e+00  0.000000e+00  0.000000e+00
   outer loop
     vertex -3.818341e-01 -1.587302e-02  7.119930e-01
     vertex -3.818341e-01  0.000000e+00  7.119930e-01
     vertex -3.818341e-01  0.000000e+00  3.416227e-01
   endloop
 endfacet
 facet normal  0.000000e+00  1.000000e+00  0.000000e+00
   outer loop
     vertex -3.818341e-01  6.591949e-17  3.416227e-01
     vertex -6.287478e-01  6.591949e-17 -2.756613e-01
     vertex -6.287478e-01  6.591949e-17  3.416227e-01
   endloop
 endfacet
 facet normal  0.000000e+00  1.000000e+00  0.000000e+00
   outer loop
     vertex -3.818341e-01  6.591949e-17  3.416227e-01
     vertex -1.349206e-01  6.591949e-17 -2.756613e-01
     vertex -6.287478e-01  6.591949e-17 -2.756613e-01
   endloop
 endfacet
 facet normal  0.000000e+00  1.000000e+00  0.000000e+00
   outer loop
     vertex -1.349206e-01  6.591949e-17  7.119930e-01
     vertex -3.818341e-01  6.591949e-17  3.416227e-01
     vertex -3.818341e-01  6.591949e-17  7.119930e-01
   endloop
 endfacet
 facet normal  0.000000e+00  1.000000e+00  0.000000e+00
   outer loop
     vertex -1.349206e-01  6.591949e-17  7.119930e-01
     vertex -1.349206e-01  6.591949e-17 -2.756613e-01
     vertex -3.818341e-01  6.591949e-17  3.416227e-01
   endloop
 endfacet
 facet normal  1.000000e+00  0.000000e+00  0.000000e+00
   outer loop
     vertex -1.349206e-01 -1.015873e+00 -2.756613e-01
     vertex -1.349206e-01 -6.111112e-01  1.850089e-01
     vertex -1.349206e-01 -1.015873e+00  7.119930e-01
   endloop
 endfacet
 facet normal  1.000000e+00  0.000000e+00  0.000000e+00
   outer loop
     vertex -1.349206e-01 -1.587302e-02  7.119930e-01
     vertex -1.349206e-01 -1.015873e+00  7.119930e-01
     vertex -1.349206e-01 -6.111112e-01  1.850089e-01
   endloop
 endfacet
 facet normal  1.000000e+00  0.000000e+00 -0.000000e+00
   outer loop
     vertex -1.349206e-01 -6.111112e-01 -1.253968e-01
     vertex -1.349206e-01 -6.111112e-01  1.850089e-01
     vertex -1.349206e-01 -1.015873e+00 -2.756613e-01
   endloop
 endfacet
 facet normal  1.000000e+00  0.000000e+00 -0.000000e+00
   outer loop
     vertex -1.349206e-01 -3.007055e-01  1.850089e-01
     vertex -1.349206e-01 -1.587302e-02  7.119930e-01
     vertex -1.349206e-01 -6.111112e-01  1.850089e-01
   endloop
 endfacet
 facet normal  1.000000e+00  0.000000e+00  0.000000e+00
   outer loop
     vertex -1.349206e-01 -1.587302e-02 -2.756613e-01
     vertex -1.349206e-01 -3.007055e-01 -1.253968e-01
     vertex -1.349206e-01 -6.111112e-01 -1.253968e-01
   endloop
 endfacet
 facet normal  1.000000e+00  0.000000e+00  0.000000e+00
   outer loop
     vertex -1.349206e-01 -1.587302e-02 -2.756613e-01
     vertex -1.349206e-01 -3.007055e-01  1.850089e-01
     vertex -1.349206e-01 -3.007055e-01 -1.253968e-01
   endloop
 endfacet
 facet normal  1.000000e+00  0.000000e+00  0.000000e+00
   outer loop
     vertex -1.349206e-01 -1.587302e-02 -2.756613e-01
     vertex -1.349206e-01 -6.111112e-01 -1.253968e-01
     vertex -1.349206e-01 -1.015873e+00 -2.756613e-01
   endloop
 endfacet
 facet normal  1.000000e+00  0.000000e+00 -0.000000e+00
   outer loop
     vertex -1.349206e-01 -1.587302e-02 -2.756613e-01
     vertex -1.349206e-01 -1.587302e-02  7.119930e-01
     vertex -1.349206e-01 -3.007055e-01  1.850089e-01
   endloop
 endfacet
 facet normal  0.000000e+00  0.000000e+00 -1.000000e+00
   outer loop
     vertex -6.287478e-01 -1.587302e-02 -2.756613e-01
     vertex -1.349206e-01  0.000000e+00 -2.756613e-01
     vertex -1.349206e-01 -1.587302e-02 -2.756613e-01
   endloop
 endfacet
 facet normal  0.000000e+00  0.000000e+00 -1.000000e+00
   outer loop
     vertex -6.287478e-01 -1.587302e-02 -2.756613e-01
     vertex -6.287478e-01  0.000000e+00 -2.756613e-01
     vertex -1.349206e-01  0.000000e+00 -2.756613e-01
   endloop
 endfacet
 facet normal  0.000000e+00  0.000000e+00  1.000000e+00
   outer loop
     vertex -1.349206e-01 -1.587302e-02  7.119930e-01
     vertex -3.818341e-01  0.000000e+00  7.119930e-01
     vertex -3.818341e-01 -1.587302e-02  7.119930e-01
   endloop
 endfacet
 facet normal  0.000000e+00 -0.000000e+00  1.000000e+00
   outer loop
     vertex -1.349206e-01 -1.587302e-02  7.119930e-01
     vertex -1.349206e-01  0.000000e+00  7.119930e-01
     vertex -3.818341e-01  0.000000e+00  7.119930e-01
   endloop
 endfacet
 facet normal  1.000000e+00  0.000000e+00  0.000000e+00
   outer loop
     vertex -1.349206e-01 -1.587302e-02 -2.756613e-01
     vertex -1.349206e-01  0.000000e+00  7.119930e-01
     vertex -1.349206e-01 -1.587302e-02  7.119930e-01
   endloop
 endfacet
 facet normal  1.000000e+00  0.000000e+00  0.000000e+00
   outer loop
     vertex -1.349206e-01 -1.587302e-02 -2.756613e-01
     vertex -1.349206e-01  0.000000e+00 -2.756613e-01
     vertex -1.349206e-01  0.000000e+00  7.119930e-01
   endloop
 endfacet
 facet normal  0.000000e+00  0.000000e+00 -1.000000e+00
   outer loop
     vertex -1.349206e-01 -3.007055e-01 -1.253968e-01
     vertex  2.222223e-01 -6.111112e-01 -1.253968e-01
     vertex -1.349206e-01 -6.111112e-01 -1.253968e-01
   endloop
 endfacet
 facet normal  0.000000e+00  0.000000e+00 -1.000000e+00
   outer loop
     vertex -1.349206e-01 -3.007055e-01 -1.253968e-01
     vertex  2.222223e-01 -3.007055e-01 -1.253968e-01
     vertex  2.222223e-01 -6.111112e-01 -1.253968e-01
   endloop
 endfacet
 facet normal  0.000000e+00  1.000000e+00  0.000000e+00
   outer loop
     vertex -1.349206e-01 -3.007055e-01  1.850089e-01
     vertex  2.222223e-01 -3.007055e-01 -1.253968e-01
     vertex -1.349206e-01 -3.007055e-01 -1.253968e-01
   endloop
 endfacet
 facet normal -0.000000e+00  1.000000e+00  0.000000e+00
   outer loop
     vertex -1.349206e-01 -3.007055e-01  1.850089e-01
     vertex  2.222223e-01 -3.007055e-01  1.850089e-01
     vertex  2.222223e-01 -3.007055e-01 -1.253968e-01
   endloop
 endfacet
 facet normal  0.000000e+00  0.000000e+00  1.000000e+00
   outer loop
     vertex -1.349206e-01 -6.111112e-01  1.850089e-01
     vertex  2.222223e-01 -3.007055e-01  1.850089e-01
     vertex -1.349206e-01 -3.007055e-01  1.850089e-01
   endloop
 endfacet
 facet normal  0.000000e+00  0.000000e+00  1.000000e+00
   outer loop
     vertex -1.349206e-01 -6.111112e-01  1.850089e-01
     vertex  2.222223e-01 -6.111112e-01  1.850089e-01
     vertex  2.222223e-01 -3.007055e-01  1.850089e-01
   endloop
 endfacet
 facet normal  0.000000e+00 -1.000000e+00  0.000000e+00
   outer loop
     vertex -1.349206e-01 -6.111112e-01 -1.253968e-01
     vertex  2.222223e-01 -6.111112e-01  1.850089e-01
     vertex -1.349206e-01 -6.111112e-01  1.850089e-01
   endloop
 endfacet
 facet normal  0.000000e+00 -1.000000e+00  0.000000e+00
   outer loop
     vertex -1.349206e-01 -6.111112e-01 -1.253968e-01
     vertex  2.222223e-01 -6.111112e-01 -1.253968e-01
     vertex  2.222223e-01 -6.111112e-01  1.850089e-01
   endloop
 endfacet
 facet normal  1.000000e+00  0.000000e+00  0.000000e+00
   outer loop
     vertex  2.222223e-01 -3.007055e-01  1.850089e-01
     vertex  2.222223e-01 -6.111112e-01  1.850089e-01
     vertex  2.222223e-01 -6.111112e-01 -1.253968e-01
   endloop
 endfacet
 facet normal  1.000000e+00  0.000000e+00  0.000000e+00
   outer loop
     vertex  2.222223e-01 -3.007055e-01  1.850089e-01
     vertex  2.222223e-01 -6.111112e-01 -1.253968e-01
     vertex  2.222223e-01 -3.007055e-01 -1.253968e-01
   endloop
 endfacet
endsolid
