solid 
 facet normal -5.413900e-02  0.000000e+00 -9.985334e-01
   outer loop
     vertex -7.305007e-01 -1.587302e-02 -3.689971e-01
     vertex -6.954145e-01 -1.587302e-02 -3.708994e-01
     vertex -6.954145e-01 -2.222223e-01 -3.708994e-01
   endloop
 endfacet
 facet normal -5.413900e-02 -0.000000e+00 -9.985334e-01
   outer loop
     vertex -7.305007e-01 -1.587302e-02 -3.689971e-01
     vertex -6.954145e-01 -2.222223e-01 -3.708994e-01
     vertex -7.305007e-01 -2.222223e-01 -3.689971e-01
   endloop
 endfacet
 facet normal -1.617821e-01 -0.000000e+00 -9.868265e-01
   outer loop
     vertex -7.651756e-01 -1.587302e-02 -3.633125e-01
     vertex -7.305007e-01 -2.222223e-01 -3.689971e-01
     vertex -7.651756e-01 -2.222223e-01 -3.633125e-01
   endloop
 endfacet
 facet normal -1.617821e-01  0.000000e+00 -9.868265e-01
   outer loop
     vertex -7.651756e-01 -1.587302e-02 -3.633125e-01
     vertex -7.305007e-01 -1.587302e-02 -3.689971e-01
     vertex -7.305007e-01 -2.222223e-01 -3.689971e-01
   endloop
 endfacet
 facet normal -2.675284e-01 -0.000000e+00 -9.635500e-01
   outer loop
     vertex -7.990326e-01 -1.587302e-02 -3.539121e-01
     vertex -7.651756e-01 -2.222223e-01 -3.633125e-01
     vertex -7.990326e-01 -2.222223e-01 -3.539121e-01
   endloop
 endfacet
 facet normal -2.675284e-01  0.000000e+00 -9.635500e-01
   outer loop
     vertex -7.990326e-01 -1.587302e-02 -3.539121e-01
     vertex -7.651756e-01 -1.587302e-02 -3.633125e-01
     vertex -7.651756e-01 -2.222223e-01 -3.633125e-01
   endloop
 endfacet
 facet normal -3.701382e-01 -0.000000e+00 -9.289767e-01
   outer loop
     vertex -8.316748e-01 -1.587302e-02 -3.409063e-01
     vertex -7.990326e-01 -2.222223e-01 -3.539121e-01
     vertex -8.316748e-01 -2.222223e-01 -3.409063e-01
   endloop
 endfacet
 facet normal -3.701382e-01  0.000000e+00 -9.289767e-01
   outer loop
     vertex -8.316748e-01 -1.587302e-02 -3.409063e-01
     vertex -7.990326e-01 -1.587302e-02 -3.539121e-01
     vertex -7.990326e-01 -2.222223e-01 -3.539121e-01
   endloop
 endfacet
 facet normal -4.684085e-01 -0.000000e+00 -8.835120e-01
   outer loop
     vertex -8.627194e-01 -1.587302e-02 -3.244474e-01
     vertex -8.316748e-01 -2.222223e-01 -3.409063e-01
     vertex -8.627194e-01 -2.222223e-01 -3.244474e-01
   endloop
 endfacet
 facet normal -4.684085e-01  0.000000e+00 -8.835120e-01
   outer loop
     vertex -8.627194e-01 -1.587302e-02 -3.244474e-01
     vertex -8.316748e-01 -1.587302e-02 -3.409063e-01
     vertex -8.316748e-01 -2.222223e-01 -3.409063e-01
   endloop
 endfacet
 facet normal -5.611871e-01 -0.000000e+00 -8.276890e-01
   outer loop
     vertex -8.918026e-01 -1.587302e-02 -3.047286e-01
     vertex -8.627194e-01 -2.222223e-01 -3.244474e-01
     vertex -8.918026e-01 -2.222223e-01 -3.047286e-01
   endloop
 endfacet
 facet normal -5.611871e-01  0.000000e+00 -8.276890e-01
   outer loop
     vertex -8.918026e-01 -1.587302e-02 -3.047286e-01
     vertex -8.627194e-01 -1.587302e-02 -3.244474e-01
     vertex -8.627194e-01 -2.222223e-01 -3.244474e-01
   endloop
 endfacet
 facet normal -6.473863e-01 -0.000000e+00 -7.621620e-01
   outer loop
     vertex -9.185833e-01 -1.587302e-02 -2.819809e-01
     vertex -8.918026e-01 -2.222223e-01 -3.047286e-01
     vertex -9.185833e-01 -2.222223e-01 -2.819809e-01
   endloop
 endfacet
 facet normal -6.473863e-01  0.000000e+00 -7.621620e-01
   outer loop
     vertex -9.185833e-01 -1.587302e-02 -2.819809e-01
     vertex -8.918026e-01 -1.587302e-02 -3.047286e-01
     vertex -8.918026e-01 -2.222223e-01 -3.047286e-01
   endloop
 endfacet
 facet normal -7.259955e-01 -0.000000e+00 -6.876994e-01
   outer loop
     vertex -9.427475e-01 -1.587302e-02 -2.564710e-01
     vertex -9.185833e-01 -2.222223e-01 -2.819809e-01
     vertex -9.427475e-01 -2.222223e-01 -2.564710e-01
   endloop
 endfacet
 facet normal -7.259955e-01  0.000000e+00 -6.876994e-01
   outer loop
     vertex -9.427475e-01 -1.587302e-02 -2.564710e-01
     vertex -9.185833e-01 -1.587302e-02 -2.819809e-01
     vertex -9.185833e-01 -2.222223e-01 -2.819809e-01
   endloop
 endfacet
 facet normal -7.960931e-01 -0.000000e+00 -6.051742e-01
   outer loop
     vertex -9.640120e-01 -1.587302e-02 -2.284980e-01
     vertex -9.427475e-01 -2.222223e-01 -2.564710e-01
     vertex -9.640120e-01 -2.222223e-01 -2.284980e-01
   endloop
 endfacet
 facet normal -7.960931e-01  0.000000e+00 -6.051742e-01
   outer loop
     vertex -9.640120e-01 -1.587302e-02 -2.284980e-01
     vertex -9.427475e-01 -1.587302e-02 -2.564710e-01
     vertex -9.427475e-01 -2.222223e-01 -2.564710e-01
   endloop
 endfacet
 facet normal -8.568572e-01  0.000000e+00 -5.155538e-01
   outer loop
     vertex -9.821274e-01 -1.587302e-02 -1.983900e-01
     vertex -9.640120e-01 -1.587302e-02 -2.284980e-01
     vertex -9.640120e-01 -2.222223e-01 -2.284980e-01
   endloop
 endfacet
 facet normal -8.568572e-01 -0.000000e+00 -5.155538e-01
   outer loop
     vertex -9.821274e-01 -1.587302e-02 -1.983900e-01
     vertex -9.640120e-01 -2.222223e-01 -2.284980e-01
     vertex -9.821274e-01 -2.222223e-01 -1.983900e-01
   endloop
 endfacet
 facet normal -9.075754e-01 -0.000000e+00 -4.198891e-01
   outer loop
     vertex -9.821274e-01 -1.587302e-02 -1.983900e-01
     vertex -9.821274e-01 -2.222223e-01 -1.983900e-01
     vertex -9.968814e-01 -2.222223e-01 -1.664998e-01
   endloop
 endfacet
 facet normal -9.075754e-01 -0.000000e+00 -4.198891e-01
   outer loop
     vertex -9.968814e-01 -1.587302e-02 -1.664998e-01
     vertex -9.821274e-01 -1.587302e-02 -1.983900e-01
     vertex -9.968814e-01 -2.222223e-01 -1.664998e-01
   endloop
 endfacet
 facet normal -9.476532e-01  0.000000e+00 -3.193015e-01
   outer loop
     vertex -1.008101e+00 -1.587302e-02 -1.332014e-01
     vertex -9.968814e-01 -1.587302e-02 -1.664998e-01
     vertex -9.968814e-01 -2.222223e-01 -1.664998e-01
   endloop
 endfacet
 facet normal -9.476532e-01 -0.000000e+00 -3.193015e-01
   outer loop
     vertex -1.008101e+00 -1.587302e-02 -1.332014e-01
     vertex -9.968814e-01 -2.222223e-01 -1.664998e-01
     vertex -1.008101e+00 -2.222223e-01 -1.332014e-01
   endloop
 endfacet
 facet normal -9.766206e-01  0.000000e+00 -2.149704e-01
   outer loop
     vertex -1.015654e+00 -1.587302e-02 -9.888511e-02
     vertex -1.008101e+00 -1.587302e-02 -1.332014e-01
     vertex -1.008101e+00 -2.222223e-01 -1.332014e-01
   endloop
 endfacet
 facet normal -9.766206e-01 -0.000000e+00 -2.149704e-01
   outer loop
     vertex -1.015654e+00 -1.587302e-02 -9.888511e-02
     vertex -1.008101e+00 -2.222223e-01 -1.332014e-01
     vertex -1.015654e+00 -2.222223e-01 -9.888511e-02
   endloop
 endfacet
 facet normal -9.941380e-01 -0.000000e+00 -1.081190e-01
   outer loop
     vertex -1.015654e+00 -1.587302e-02 -9.888511e-02
     vertex -1.015654e+00 -2.222223e-01 -9.888511e-02
     vertex -1.019454e+00 -2.222223e-01 -6.395331e-02
   endloop
 endfacet
 facet normal -9.941380e-01 -0.000000e+00 -1.081190e-01
   outer loop
     vertex -1.019454e+00 -1.587302e-02 -6.395331e-02
     vertex -1.015654e+00 -1.587302e-02 -9.888511e-02
     vertex -1.019454e+00 -2.222223e-01 -6.395331e-02
   endloop
 endfacet
 facet normal -1.000000e+00 -0.000000e+00  0.000000e+00
   outer loop
     vertex -1.019454e+00 -1.587302e-02 -2.881554e-02
     vertex -1.019454e+00 -2.222223e-01 -6.395331e-02
     vertex -1.019454e+00 -2.222223e-01 -2.881554e-02
   endloop
 endfacet
 facet normal -1.000000e+00  0.000000e+00 -0.000000e+00
   outer loop
     vertex -1.019454e+00 -1.587302e-02 -2.881554e-02
     vertex -1.019454e+00 -1.587302e-02 -6.395331e-02
     vertex -1.019454e+00 -2.222223e-01 -6.395331e-02
   endloop
 endfacet
 facet normal -9.941380e-01  0.000000e+00  1.081190e-01
   outer loop
     vertex -1.015654e+00 -1.587302e-02  6.116260e-03
     vertex -1.019454e+00 -2.222223e-01 -2.881554e-02
     vertex -1.015654e+00 -2.222223e-01  6.116260e-03
   endloop
 endfacet
 facet normal -9.941380e-01  0.000000e+00  1.081190e-01
   outer loop
     vertex -1.015654e+00 -1.587302e-02  6.116260e-03
     vertex -1.019454e+00 -1.587302e-02 -2.881554e-02
     vertex -1.019454e+00 -2.222223e-01 -2.881554e-02
   endloop
 endfacet
 facet normal -9.766206e-01  0.000000e+00  2.149704e-01
   outer loop
     vertex -1.008101e+00 -1.587302e-02  4.043253e-02
     vertex -1.015654e+00 -2.222223e-01  6.116260e-03
     vertex -1.008101e+00 -2.222223e-01  4.043253e-02
   endloop
 endfacet
 facet normal -9.766206e-01  0.000000e+00  2.149704e-01
   outer loop
     vertex -1.008101e+00 -1.587302e-02  4.043253e-02
     vertex -1.015654e+00 -1.587302e-02  6.116260e-03
     vertex -1.015654e+00 -2.222223e-01  6.116260e-03
   endloop
 endfacet
 facet normal -9.476532e-01  0.000000e+00  3.193015e-01
   outer loop
     vertex -9.968814e-01 -1.587302e-02  7.373096e-02
     vertex -1.008101e+00 -2.222223e-01  4.043253e-02
     vertex -9.968814e-01 -2.222223e-01  7.373096e-02
   endloop
 endfacet
 facet normal -9.476532e-01  0.000000e+00  3.193015e-01
   outer loop
     vertex -9.968814e-01 -1.587302e-02  7.373096e-02
     vertex -1.008101e+00 -1.587302e-02  4.043253e-02
     vertex -1.008101e+00 -2.222223e-01  4.043253e-02
   endloop
 endfacet
 facet normal -9.075754e-01  0.000000e+00  4.198891e-01
   outer loop
     vertex -9.821274e-01 -1.587302e-02  1.056211e-01
     vertex -9.968814e-01 -2.222223e-01  7.373096e-02
     vertex -9.821274e-01 -2.222223e-01  1.056211e-01
   endloop
 endfacet
 facet normal -9.075754e-01  0.000000e+00  4.198891e-01
   outer loop
     vertex -9.821274e-01 -1.587302e-02  1.056211e-01
     vertex -9.968814e-01 -1.587302e-02  7.373096e-02
     vertex -9.968814e-01 -2.222223e-01  7.373096e-02
   endloop
 endfacet
 facet normal -8.568572e-01  0.000000e+00  5.155538e-01
   outer loop
     vertex -9.640120e-01 -1.587302e-02  1.357292e-01
     vertex -9.821274e-01 -2.222223e-01  1.056211e-01
     vertex -9.640120e-01 -2.222223e-01  1.357292e-01
   endloop
 endfacet
 facet normal -7.960931e-01  0.000000e+00  6.051742e-01
   outer loop
     vertex -9.640120e-01 -1.587302e-02  1.357292e-01
     vertex -9.640120e-01 -2.222223e-01  1.357292e-01
     vertex -9.427475e-01 -2.222223e-01  1.637021e-01
   endloop
 endfacet
 facet normal -8.568572e-01  0.000000e+00  5.155538e-01
   outer loop
     vertex -9.640120e-01 -1.587302e-02  1.357292e-01
     vertex -9.821274e-01 -1.587302e-02  1.056211e-01
     vertex -9.821274e-01 -2.222223e-01  1.056211e-01
   endloop
 endfacet
 facet normal -7.259955e-01  0.000000e+00  6.876994e-01
   outer loop
     vertex -9.427475e-01 -1.587302e-02  1.637021e-01
     vertex -9.427475e-01 -2.222223e-01  1.637021e-01
     vertex -9.185833e-01 -2.222223e-01  1.892120e-01
   endloop
 endfacet
 facet normal -7.960931e-01  0.000000e+00  6.051742e-01
   outer loop
     vertex -9.427475e-01 -1.587302e-02  1.637021e-01
     vertex -9.640120e-01 -1.587302e-02  1.357292e-01
     vertex -9.427475e-01 -2.222223e-01  1.637021e-01
   endloop
 endfacet
 facet normal -7.259955e-01  0.000000e+00  6.876994e-01
   outer loop
     vertex -9.185833e-01 -1.587302e-02  1.892120e-01
     vertex -9.427475e-01 -1.587302e-02  1.637021e-01
     vertex -9.185833e-01 -2.222223e-01  1.892120e-01
   endloop
 endfacet
 facet normal -6.473863e-01  0.000000e+00  7.621620e-01
   outer loop
     vertex -8.918026e-01 -1.587302e-02  2.119597e-01
     vertex -9.185833e-01 -2.222223e-01  1.892120e-01
     vertex -8.918026e-01 -2.222223e-01  2.119597e-01
   endloop
 endfacet
 facet normal -6.473863e-01  0.000000e+00  7.621620e-01
   outer loop
     vertex -8.918026e-01 -1.587302e-02  2.119597e-01
     vertex -9.185833e-01 -1.587302e-02  1.892120e-01
     vertex -9.185833e-01 -2.222223e-01  1.892120e-01
   endloop
 endfacet
 facet normal -5.611871e-01  0.000000e+00  8.276890e-01
   outer loop
     vertex -8.627194e-01 -1.587302e-02  2.316786e-01
     vertex -8.918026e-01 -2.222223e-01  2.119597e-01
     vertex -8.627194e-01 -2.222223e-01  2.316786e-01
   endloop
 endfacet
 facet normal -5.611871e-01  0.000000e+00  8.276890e-01
   outer loop
     vertex -8.627194e-01 -1.587302e-02  2.316786e-01
     vertex -8.918026e-01 -1.587302e-02  2.119597e-01
     vertex -8.918026e-01 -2.222223e-01  2.119597e-01
   endloop
 endfacet
 facet normal -4.684085e-01  0.000000e+00  8.835120e-01
   outer loop
     vertex -8.316748e-01 -1.587302e-02  2.481374e-01
     vertex -8.627194e-01 -2.222223e-01  2.316786e-01
     vertex -8.316748e-01 -2.222223e-01  2.481374e-01
   endloop
 endfacet
 facet normal -4.684085e-01  0.000000e+00  8.835120e-01
   outer loop
     vertex -8.316748e-01 -1.587302e-02  2.481374e-01
     vertex -8.627194e-01 -1.587302e-02  2.316786e-01
     vertex -8.627194e-01 -2.222223e-01  2.316786e-01
   endloop
 endfacet
 facet normal -3.701382e-01  0.000000e+00  9.289767e-01
   outer loop
     vertex -7.990326e-01 -1.587302e-02  2.611433e-01
     vertex -8.316748e-01 -2.222223e-01  2.481374e-01
     vertex -7.990326e-01 -2.222223e-01  2.611433e-01
   endloop
 endfacet
 facet normal -3.701382e-01  0.000000e+00  9.289767e-01
   outer loop
     vertex -7.990326e-01 -1.587302e-02  2.611433e-01
     vertex -8.316748e-01 -1.587302e-02  2.481374e-01
     vertex -8.316748e-01 -2.222223e-01  2.481374e-01
   endloop
 endfacet
 facet normal -2.675284e-01  0.000000e+00  9.635500e-01
   outer loop
     vertex -7.651756e-01 -1.587302e-02  2.705436e-01
     vertex -7.990326e-01 -2.222223e-01  2.611433e-01
     vertex -7.651756e-01 -2.222223e-01  2.705436e-01
   endloop
 endfacet
 facet normal -2.675284e-01  0.000000e+00  9.635500e-01
   outer loop
     vertex -7.651756e-01 -1.587302e-02  2.705436e-01
     vertex -7.990326e-01 -1.587302e-02  2.611433e-01
     vertex -7.990326e-01 -2.222223e-01  2.611433e-01
   endloop
 endfacet
 facet normal -1.617821e-01  0.000000e+00  9.868265e-01
   outer loop
     vertex -7.305007e-01 -1.587302e-02  2.762283e-01
     vertex -7.651756e-01 -2.222223e-01  2.705436e-01
     vertex -7.305007e-01 -2.222223e-01  2.762283e-01
   endloop
 endfacet
 facet normal -1.617821e-01  0.000000e+00  9.868265e-01
   outer loop
     vertex -7.305007e-01 -1.587302e-02  2.762283e-01
     vertex -7.651756e-01 -1.587302e-02  2.705436e-01
     vertex -7.651756e-01 -2.222223e-01  2.705436e-01
   endloop
 endfacet
 facet normal -5.413900e-02  0.000000e+00  9.985334e-01
   outer loop
     vertex -6.954145e-01 -1.587302e-02  2.781306e-01
     vertex -7.305007e-01 -2.222223e-01  2.762283e-01
     vertex -6.954145e-01 -2.222223e-01  2.781306e-01
   endloop
 endfacet
 facet normal -5.413900e-02  0.000000e+00  9.985334e-01
   outer loop
     vertex -6.954145e-01 -1.587302e-02  2.781306e-01
     vertex -7.305007e-01 -1.587302e-02  2.762283e-01
     vertex -7.305007e-01 -2.222223e-01  2.762283e-01
   endloop
 endfacet
 facet normal  0.000000e+00  0.000000e+00 -1.000000e+00
   outer loop
     vertex -6.954145e-01 -1.587302e-02 -3.708994e-01
     vertex  6.026456e-01 -1.587302e-02 -3.708994e-01
     vertex  6.026456e-01 -2.222223e-01 -3.708994e-01
   endloop
 endfacet
 facet normal  0.000000e+00  0.000000e+00 -1.000000e+00
   outer loop
     vertex -6.954145e-01 -1.587302e-02 -3.708994e-01
     vertex  6.026456e-01 -2.222223e-01 -3.708994e-01
     vertex -6.954145e-01 -2.222223e-01 -3.708994e-01
   endloop
 endfacet
 facet normal  0.000000e+00  0.000000e+00  1.000000e+00
   outer loop
     vertex  6.026456e-01 -1.587302e-02  2.781306e-01
     vertex -6.954145e-01 -1.587302e-02  2.781306e-01
     vertex -6.954145e-01 -2.222223e-01  2.781306e-01
   endloop
 endfacet
 facet normal  0.000000e+00  0.000000e+00  1.000000e+00
   outer loop
     vertex  6.026456e-01 -1.587302e-02  2.781306e-01
     vertex -6.954145e-01 -2.222223e-01  2.781306e-01
     vertex  6.026456e-01 -2.222223e-01  2.781306e-01
   endloop
 endfacet
 facet normal -5.413900e-02  0.000000e+00 -9.985334e-01
   outer loop
     vertex -7.305007e-01 -1.587302e-02 -3.689971e-01
     vertex -6.954145e-01  0.000000e+00 -3.708994e-01
     vertex -6.954145e-01 -1.587302e-02 -3.708994e-01
   endloop
 endfacet
 facet normal -5.413900e-02  0.000000e+00 -9.985334e-01
   outer loop
     vertex -7.305007e-01 -1.587302e-02 -3.689971e-01
     vertex -7.305007e-01  0.000000e+00 -3.689971e-01
     vertex -6.954145e-01  0.000000e+00 -3.708994e-01
   endloop
 endfacet
 facet normal -1.617821e-01  0.000000e+00 -9.868265e-01
   outer loop
     vertex -7.651756e-01 -1.587302e-02 -3.633125e-01
     vertex -7.651756e-01  0.000000e+00 -3.633125e-01
     vertex -7.305007e-01  0.000000e+00 -3.689971e-01
   endloop
 endfacet
 facet normal -1.617821e-01  0.000000e+00 -9.868265e-01
   outer loop
     vertex -7.651756e-01 -1.587302e-02 -3.633125e-01
     vertex -7.305007e-01  0.000000e+00 -3.689971e-01
     vertex -7.305007e-01 -1.587302e-02 -3.689971e-01
   endloop
 endfacet
 facet normal -2.675284e-01  0.000000e+00 -9.635500e-01
   outer loop
     vertex -7.990326e-01 -1.587302e-02 -3.539121e-01
     vertex -7.990326e-01  0.000000e+00 -3.539121e-01
     vertex -7.651756e-01  0.000000e+00 -3.633125e-01
   endloop
 endfacet
 facet normal -2.675284e-01  0.000000e+00 -9.635500e-01
   outer loop
     vertex -7.990326e-01 -1.587302e-02 -3.539121e-01
     vertex -7.651756e-01  0.000000e+00 -3.633125e-01
     vertex -7.651756e-01 -1.587302e-02 -3.633125e-01
   endloop
 endfacet
 facet normal -3.701382e-01  0.000000e+00 -9.289767e-01
   outer loop
     vertex -8.316748e-01 -1.587302e-02 -3.409063e-01
     vertex -8.316748e-01  0.000000e+00 -3.409063e-01
     vertex -7.990326e-01  0.000000e+00 -3.539121e-01
   endloop
 endfacet
 facet normal -3.701382e-01  0.000000e+00 -9.289767e-01
   outer loop
     vertex -8.316748e-01 -1.587302e-02 -3.409063e-01
     vertex -7.990326e-01  0.000000e+00 -3.539121e-01
     vertex -7.990326e-01 -1.587302e-02 -3.539121e-01
   endloop
 endfacet
 facet normal -4.684085e-01  0.000000e+00 -8.835120e-01
   outer loop
     vertex -8.627194e-01 -1.587302e-02 -3.244474e-01
     vertex -8.627194e-01  0.000000e+00 -3.244474e-01
     vertex -8.316748e-01  0.000000e+00 -3.409063e-01
   endloop
 endfacet
 facet normal -4.684085e-01  0.000000e+00 -8.835120e-01
   outer loop
     vertex -8.627194e-01 -1.587302e-02 -3.244474e-01
     vertex -8.316748e-01  0.000000e+00 -3.409063e-01
     vertex -8.316748e-01 -1.587302e-02 -3.409063e-01
   endloop
 endfacet
 facet normal -5.611871e-01  0.000000e+00 -8.276890e-01
   outer loop
     vertex -8.918026e-01 -1.587302e-02 -3.047286e-01
     vertex -8.918026e-01  0.000000e+00 -3.047286e-01
     vertex -8.627194e-01  0.000000e+00 -3.244474e-01
   endloop
 endfacet
 facet normal -5.611871e-01  0.000000e+00 -8.276890e-01
   outer loop
     vertex -8.918026e-01 -1.587302e-02 -3.047286e-01
     vertex -8.627194e-01  0.000000e+00 -3.244474e-01
     vertex -8.627194e-01 -1.587302e-02 -3.244474e-01
   endloop
 endfacet
 facet normal -6.473863e-01  0.000000e+00 -7.621620e-01
   outer loop
     vertex -9.185833e-01 -1.587302e-02 -2.819809e-01
     vertex -9.185833e-01  0.000000e+00 -2.819809e-01
     vertex -8.918026e-01  0.000000e+00 -3.047286e-01
   endloop
 endfacet
 facet normal -6.473863e-01  0.000000e+00 -7.621620e-01
   outer loop
     vertex -9.185833e-01 -1.587302e-02 -2.819809e-01
     vertex -8.918026e-01  0.000000e+00 -3.047286e-01
     vertex -8.918026e-01 -1.587302e-02 -3.047286e-01
   endloop
 endfacet
 facet normal -7.259955e-01  0.000000e+00 -6.876994e-01
   outer loop
     vertex -9.427475e-01 -1.587302e-02 -2.564710e-01
     vertex -9.427475e-01  0.000000e+00 -2.564710e-01
     vertex -9.185833e-01  0.000000e+00 -2.819809e-01
   endloop
 endfacet
 facet normal -7.259955e-01  0.000000e+00 -6.876994e-01
   outer loop
     vertex -9.427475e-01 -1.587302e-02 -2.564710e-01
     vertex -9.185833e-01  0.000000e+00 -2.819809e-01
     vertex -9.185833e-01 -1.587302e-02 -2.819809e-01
   endloop
 endfacet
 facet normal -7.960931e-01  0.000000e+00 -6.051742e-01
   outer loop
     vertex -9.640120e-01 -1.587302e-02 -2.284980e-01
     vertex -9.640120e-01  0.000000e+00 -2.284980e-01
     vertex -9.427475e-01  0.000000e+00 -2.564710e-01
   endloop
 endfacet
 facet normal -7.960931e-01  0.000000e+00 -6.051742e-01
   outer loop
     vertex -9.640120e-01 -1.587302e-02 -2.284980e-01
     vertex -9.427475e-01  0.000000e+00 -2.564710e-01
     vertex -9.427475e-01 -1.587302e-02 -2.564710e-01
   endloop
 endfacet
 facet normal -8.568572e-01  0.000000e+00 -5.155538e-01
   outer loop
     vertex -9.821274e-01 -1.587302e-02 -1.983900e-01
     vertex -9.640120e-01  0.000000e+00 -2.284980e-01
     vertex -9.640120e-01 -1.587302e-02 -2.284980e-01
   endloop
 endfacet
 facet normal -8.568572e-01  0.000000e+00 -5.155538e-01
   outer loop
     vertex -9.821274e-01 -1.587302e-02 -1.983900e-01
     vertex -9.821274e-01  0.000000e+00 -1.983900e-01
     vertex -9.640120e-01  0.000000e+00 -2.284980e-01
   endloop
 endfacet
 facet normal -9.075754e-01  0.000000e+00 -4.198891e-01
   outer loop
     vertex -9.968814e-01 -1.587302e-02 -1.664998e-01
     vertex -9.821274e-01  0.000000e+00 -1.983900e-01
     vertex -9.821274e-01 -1.587302e-02 -1.983900e-01
   endloop
 endfacet
 facet normal -9.075754e-01  0.000000e+00 -4.198891e-01
   outer loop
     vertex -9.968814e-01 -1.587302e-02 -1.664998e-01
     vertex -9.968814e-01  0.000000e+00 -1.664998e-01
     vertex -9.821274e-01  0.000000e+00 -1.983900e-01
   endloop
 endfacet
 facet normal -9.476532e-01  0.000000e+00 -3.193015e-01
   outer loop
     vertex -1.008101e+00 -1.587302e-02 -1.332014e-01
     vertex -1.008101e+00  0.000000e+00 -1.332014e-01
     vertex -9.968814e-01  0.000000e+00 -1.664998e-01
   endloop
 endfacet
 facet normal -9.476532e-01  0.000000e+00 -3.193015e-01
   outer loop
     vertex -1.008101e+00 -1.587302e-02 -1.332014e-01
     vertex -9.968814e-01  0.000000e+00 -1.664998e-01
     vertex -9.968814e-01 -1.587302e-02 -1.664998e-01
   endloop
 endfacet
 facet normal -9.766206e-01  0.000000e+00 -2.149704e-01
   outer loop
     vertex -1.015654e+00 -1.587302e-02 -9.888511e-02
     vertex -1.015654e+00  0.000000e+00 -9.888511e-02
     vertex -1.008101e+00  0.000000e+00 -1.332014e-01
   endloop
 endfacet
 facet normal -9.766206e-01  0.000000e+00 -2.149704e-01
   outer loop
     vertex -1.015654e+00 -1.587302e-02 -9.888511e-02
     vertex -1.008101e+00  0.000000e+00 -1.332014e-01
     vertex -1.008101e+00 -1.587302e-02 -1.332014e-01
   endloop
 endfacet
 facet normal -9.941380e-01  0.000000e+00 -1.081190e-01
   outer loop
     vertex -1.019454e+00 -1.587302e-02 -6.395331e-02
     vertex -1.019454e+00  0.000000e+00 -6.395331e-02
     vertex -1.015654e+00  0.000000e+00 -9.888511e-02
   endloop
 endfacet
 facet normal -9.941380e-01  0.000000e+00 -1.081190e-01
   outer loop
     vertex -1.019454e+00 -1.587302e-02 -6.395331e-02
     vertex -1.015654e+00  0.000000e+00 -9.888511e-02
     vertex -1.015654e+00 -1.587302e-02 -9.888511e-02
   endloop
 endfacet
 facet normal -1.000000e+00  0.000000e+00  0.000000e+00
   outer loop
     vertex -1.019454e+00 -1.587302e-02 -2.881554e-02
     vertex -1.019454e+00  0.000000e+00 -2.881554e-02
     vertex -1.019454e+00  0.000000e+00 -6.395331e-02
   endloop
 endfacet
 facet normal -1.000000e+00  0.000000e+00  0.000000e+00
   outer loop
     vertex -1.019454e+00 -1.587302e-02 -2.881554e-02
     vertex -1.019454e+00  0.000000e+00 -6.395331e-02
     vertex -1.019454e+00 -1.587302e-02 -6.395331e-02
   endloop
 endfacet
 facet normal -9.941380e-01  0.000000e+00  1.081190e-01
   outer loop
     vertex -1.015654e+00 -1.587302e-02  6.116260e-03
     vertex -1.015654e+00  0.000000e+00  6.116260e-03
     vertex -1.019454e+00  0.000000e+00 -2.881554e-02
   endloop
 endfacet
 facet normal -9.941380e-01  0.000000e+00  1.081190e-01
   outer loop
     vertex -1.015654e+00 -1.587302e-02  6.116260e-03
     vertex -1.019454e+00  0.000000e+00 -2.881554e-02
     vertex -1.019454e+00 -1.587302e-02 -2.881554e-02
   endloop
 endfacet
 facet normal -9.766206e-01  0.000000e+00  2.149704e-01
   outer loop
     vertex -1.008101e+00 -1.587302e-02  4.043253e-02
     vertex -1.008101e+00  0.000000e+00  4.043253e-02
     vertex -1.015654e+00  0.000000e+00  6.116260e-03
   endloop
 endfacet
 facet normal -9.766206e-01  0.000000e+00  2.149704e-01
   outer loop
     vertex -1.008101e+00 -1.587302e-02  4.043253e-02
     vertex -1.015654e+00  0.000000e+00  6.116260e-03
     vertex -1.015654e+00 -1.587302e-02  6.116260e-03
   endloop
 endfacet
 facet normal -9.476532e-01  0.000000e+00  3.193015e-01
   outer loop
     vertex -9.968814e-01 -1.587302e-02  7.373096e-02
     vertex -9.968814e-01  0.000000e+00  7.373096e-02
     vertex -1.008101e+00  0.000000e+00  4.043253e-02
   endloop
 endfacet
 facet normal -9.476532e-01  0.000000e+00  3.193015e-01
   outer loop
     vertex -9.968814e-01 -1.587302e-02  7.373096e-02
     vertex -1.008101e+00  0.000000e+00  4.043253e-02
     vertex -1.008101e+00 -1.587302e-02  4.043253e-02
   endloop
 endfacet
 facet normal -9.075754e-01  0.000000e+00  4.198891e-01
   outer loop
     vertex -9.821274e-01 -1.587302e-02  1.056211e-01
     vertex -9.821274e-01  0.000000e+00  1.056211e-01
     vertex -9.968814e-01  0.000000e+00  7.373096e-02
   endloop
 endfacet
 facet normal -9.075754e-01  0.000000e+00  4.198891e-01
   outer loop
     vertex -9.821274e-01 -1.587302e-02  1.056211e-01
     vertex -9.968814e-01  0.000000e+00  7.373096e-02
     vertex -9.968814e-01 -1.587302e-02  7.373096e-02
   endloop
 endfacet
 facet normal -8.568572e-01  0.000000e+00  5.155538e-01
   outer loop
     vertex -9.640120e-01 -1.587302e-02  1.357292e-01
     vertex -9.640120e-01  0.000000e+00  1.357292e-01
     vertex -9.821274e-01  0.000000e+00  1.056211e-01
   endloop
 endfacet
 facet normal -8.568572e-01  0.000000e+00  5.155538e-01
   outer loop
     vertex -9.640120e-01 -1.587302e-02  1.357292e-01
     vertex -9.821274e-01  0.000000e+00  1.056211e-01
     vertex -9.821274e-01 -1.587302e-02  1.056211e-01
   endloop
 endfacet
 facet normal -7.960931e-01  0.000000e+00  6.051742e-01
   outer loop
     vertex -9.427475e-01 -1.587302e-02  1.637021e-01
     vertex -9.427475e-01  0.000000e+00  1.637021e-01
     vertex -9.640120e-01  0.000000e+00  1.357292e-01
   endloop
 endfacet
 facet normal -7.960931e-01  0.000000e+00  6.051742e-01
   outer loop
     vertex -9.427475e-01 -1.587302e-02  1.637021e-01
     vertex -9.640120e-01  0.000000e+00  1.357292e-01
     vertex -9.640120e-01 -1.587302e-02  1.357292e-01
   endloop
 endfacet
 facet normal -7.259955e-01  0.000000e+00  6.876994e-01
   outer loop
     vertex -9.185833e-01 -1.587302e-02  1.892120e-01
     vertex -9.185833e-01  0.000000e+00  1.892120e-01
     vertex -9.427475e-01  0.000000e+00  1.637021e-01
   endloop
 endfacet
 facet normal -7.259955e-01  0.000000e+00  6.876994e-01
   outer loop
     vertex -9.185833e-01 -1.587302e-02  1.892120e-01
     vertex -9.427475e-01  0.000000e+00  1.637021e-01
     vertex -9.427475e-01 -1.587302e-02  1.637021e-01
   endloop
 endfacet
 facet normal -6.473863e-01  0.000000e+00  7.621620e-01
   outer loop
     vertex -8.918026e-01 -1.587302e-02  2.119597e-01
     vertex -8.918026e-01  0.000000e+00  2.119597e-01
     vertex -9.185833e-01  0.000000e+00  1.892120e-01
   endloop
 endfacet
 facet normal -6.473863e-01  0.000000e+00  7.621620e-01
   outer loop
     vertex -8.918026e-01 -1.587302e-02  2.119597e-01
     vertex -9.185833e-01  0.000000e+00  1.892120e-01
     vertex -9.185833e-01 -1.587302e-02  1.892120e-01
   endloop
 endfacet
 facet normal -5.611871e-01  0.000000e+00  8.276890e-01
   outer loop
     vertex -8.627194e-01 -1.587302e-02  2.316786e-01
     vertex -8.627194e-01  0.000000e+00  2.316786e-01
     vertex -8.918026e-01  0.000000e+00  2.119597e-01
   endloop
 endfacet
 facet normal -5.611871e-01  0.000000e+00  8.276890e-01
   outer loop
     vertex -8.627194e-01 -1.587302e-02  2.316786e-01
     vertex -8.918026e-01  0.000000e+00  2.119597e-01
     vertex -8.918026e-01 -1.587302e-02  2.119597e-01
   endloop
 endfacet
 facet normal -4.684085e-01  0.000000e+00  8.835120e-01
   outer loop
     vertex -8.316748e-01 -1.587302e-02  2.481374e-01
     vertex -8.316748e-01  0.000000e+00  2.481374e-01
     vertex -8.627194e-01  0.000000e+00  2.316786e-01
   endloop
 endfacet
 facet normal -4.684085e-01  0.000000e+00  8.835120e-01
   outer loop
     vertex -8.316748e-01 -1.587302e-02  2.481374e-01
     vertex -8.627194e-01  0.000000e+00  2.316786e-01
     vertex -8.627194e-01 -1.587302e-02  2.316786e-01
   endloop
 endfacet
 facet normal -3.701382e-01  0.000000e+00  9.289767e-01
   outer loop
     vertex -7.990326e-01 -1.587302e-02  2.611433e-01
     vertex -7.990326e-01  0.000000e+00  2.611433e-01
     vertex -8.316748e-01  0.000000e+00  2.481374e-01
   endloop
 endfacet
 facet normal -3.701382e-01  0.000000e+00  9.289767e-01
   outer loop
     vertex -7.990326e-01 -1.587302e-02  2.611433e-01
     vertex -8.316748e-01  0.000000e+00  2.481374e-01
     vertex -8.316748e-01 -1.587302e-02  2.481374e-01
   endloop
 endfacet
 facet normal -2.675284e-01  0.000000e+00  9.635500e-01
   outer loop
     vertex -7.651756e-01 -1.587302e-02  2.705436e-01
     vertex -7.651756e-01  0.000000e+00  2.705436e-01
     vertex -7.990326e-01  0.000000e+00  2.611433e-01
   endloop
 endfacet
 facet normal -2.675284e-01  0.000000e+00  9.635500e-01
   outer loop
     vertex -7.651756e-01 -1.587302e-02  2.705436e-01
     vertex -7.990326e-01  0.000000e+00  2.611433e-01
     vertex -7.990326e-01 -1.587302e-02  2.611433e-01
   endloop
 endfacet
 facet normal -1.617821e-01  0.000000e+00  9.868265e-01
   outer loop
     vertex -7.305007e-01 -1.587302e-02  2.762283e-01
     vertex -7.305007e-01  0.000000e+00  2.762283e-01
     vertex -7.651756e-01  0.000000e+00  2.705436e-01
   endloop
 endfacet
 facet normal -1.617821e-01  0.000000e+00  9.868265e-01
   outer loop
     vertex -7.305007e-01 -1.587302e-02  2.762283e-01
     vertex -7.651756e-01  0.000000e+00  2.705436e-01
     vertex -7.651756e-01 -1.587302e-02  2.705436e-01
   endloop
 endfacet
 facet normal -5.413900e-02  0.000000e+00  9.985334e-01
   outer loop
     vertex -6.954145e-01 -1.587302e-02  2.781306e-01
     vertex -6.954145e-01  0.000000e+00  2.781306e-01
     vertex -7.305007e-01  0.000000e+00  2.762283e-01
   endloop
 endfacet
 facet normal -5.413900e-02  0.000000e+00  9.985334e-01
   outer loop
     vertex -6.954145e-01 -1.587302e-02  2.781306e-01
     vertex -7.305007e-01  0.000000e+00  2.762283e-01
     vertex -7.305007e-01 -1.587302e-02  2.762283e-01
   endloop
 endfacet
 facet normal  0.000000e+00 -1.000000e+00  0.000000e+00
   outer loop
     vertex -9.821274e-01 -2.222223e-01 -1.983900e-01
     vertex -9.640120e-01 -2.222223e-01 -2.284980e-01
     vertex -9.427475e-01 -2.222223e-01 -2.564710e-01
   endloop
 endfacet
 facet normal  0.000000e+00 -1.000000e+00  0.000000e+00
   outer loop
     vertex -6.954145e-01 -2.222223e-01 -3.708994e-01
     vertex -7.651756e-01 -2.222223e-01 -3.633125e-01
     vertex -7.305007e-01 -2.222223e-01 -3.689971e-01
   endloop
 endfacet
 facet normal  0.000000e+00 -1.000000e+00  0.000000e+00
   outer loop
     vertex -6.954145e-01 -2.222223e-01 -3.708994e-01
     vertex -7.990326e-01 -2.222223e-01 -3.539121e-01
     vertex -7.651756e-01 -2.222223e-01 -3.633125e-01
   endloop
 endfacet
 facet normal  0.000000e+00 -1.000000e+00  0.000000e+00
   outer loop
     vertex -6.954145e-01 -2.222223e-01 -3.708994e-01
     vertex -8.316748e-01 -2.222223e-01 -3.409063e-01
     vertex -7.990326e-01 -2.222223e-01 -3.539121e-01
   endloop
 endfacet
 facet normal  0.000000e+00 -1.000000e+00  0.000000e+00
   outer loop
     vertex -6.954145e-01 -2.222223e-01 -3.708994e-01
     vertex -8.627194e-01 -2.222223e-01 -3.244474e-01
     vertex -8.316748e-01 -2.222223e-01 -3.409063e-01
   endloop
 endfacet
 facet normal  0.000000e+00 -1.000000e+00  0.000000e+00
   outer loop
     vertex -6.954145e-01 -2.222223e-01 -3.708994e-01
     vertex -8.918026e-01 -2.222223e-01 -3.047286e-01
     vertex -8.627194e-01 -2.222223e-01 -3.244474e-01
   endloop
 endfacet
 facet normal  0.000000e+00 -1.000000e+00  0.000000e+00
   outer loop
     vertex -8.918026e-01 -2.222223e-01  2.119597e-01
     vertex -9.185833e-01 -2.222223e-01  1.892120e-01
     vertex -9.427475e-01 -2.222223e-01  1.637021e-01
   endloop
 endfacet
 facet normal  0.000000e+00 -1.000000e+00  0.000000e+00
   outer loop
     vertex -6.954145e-01 -2.222223e-01  2.781306e-01
     vertex -8.918026e-01 -2.222223e-01  2.119597e-01
     vertex -9.427475e-01 -2.222223e-01  1.637021e-01
   endloop
 endfacet
 facet normal  0.000000e+00 -1.000000e+00  0.000000e+00
   outer loop
     vertex -6.954145e-01 -2.222223e-01  2.781306e-01
     vertex -9.185833e-01 -2.222223e-01 -2.819809e-01
     vertex -8.918026e-01 -2.222223e-01 -3.047286e-01
   endloop
 endfacet
 facet normal  0.000000e+00 -1.000000e+00  0.000000e+00
   outer loop
     vertex -6.954145e-01 -2.222223e-01  2.781306e-01
     vertex -9.427475e-01 -2.222223e-01 -2.564710e-01
     vertex -9.185833e-01 -2.222223e-01 -2.819809e-01
   endloop
 endfacet
 facet normal  0.000000e+00 -1.000000e+00  0.000000e+00
   outer loop
     vertex -6.954145e-01 -2.222223e-01  2.781306e-01
     vertex -9.968814e-01 -2.222223e-01 -1.664998e-01
     vertex -9.821274e-01 -2.222223e-01 -1.983900e-01
   endloop
 endfacet
 facet normal  0.000000e+00 -1.000000e+00  0.000000e+00
   outer loop
     vertex -6.954145e-01 -2.222223e-01  2.781306e-01
     vertex -1.008101e+00 -2.222223e-01 -1.332014e-01
     vertex -9.968814e-01 -2.222223e-01 -1.664998e-01
   endloop
 endfacet
 facet normal  0.000000e+00 -1.000000e+00  0.000000e+00
   outer loop
     vertex -6.954145e-01 -2.222223e-01  2.781306e-01
     vertex -1.015654e+00 -2.222223e-01 -9.888511e-02
     vertex -1.008101e+00 -2.222223e-01 -1.332014e-01
   endloop
 endfacet
 facet normal  0.000000e+00 -1.000000e+00  0.000000e+00
   outer loop
     vertex -6.954145e-01 -2.222223e-01  2.781306e-01
     vertex -1.019454e+00 -2.222223e-01 -6.395331e-02
     vertex -1.015654e+00 -2.222223e-01 -9.888511e-02
   endloop
 endfacet
 facet normal  0.000000e+00 -1.000000e+00  0.000000e+00
   outer loop
     vertex -6.954145e-01 -2.222223e-01  2.781306e-01
     vertex -1.019454e+00 -2.222223e-01 -2.881554e-02
     vertex -1.019454e+00 -2.222223e-01 -6.395331e-02
   endloop
 endfacet
 facet normal  0.000000e+00 -1.000000e+00  0.000000e+00
   outer loop
     vertex -6.954145e-01 -2.222223e-01  2.781306e-01
     vertex -1.015654e+00 -2.222223e-01  6.116260e-03
     vertex -1.019454e+00 -2.222223e-01 -2.881554e-02
   endloop
 endfacet
 facet normal  0.000000e+00 -1.000000e+00  0.000000e+00
   outer loop
     vertex -6.954145e-01 -2.222223e-01  2.781306e-01
     vertex -1.008101e+00 -2.222223e-01  4.043253e-02
     vertex -1.015654e+00 -2.222223e-01  6.116260e-03
   endloop
 endfacet
 facet normal  0.000000e+00 -1.000000e+00  0.000000e+00
   outer loop
     vertex -6.954145e-01 -2.222223e-01  2.781306e-01
     vertex -9.968814e-01 -2.222223e-01  7.373096e-02
     vertex -1.008101e+00 -2.222223e-01  4.043253e-02
   endloop
 endfacet
 facet normal  0.000000e+00 -1.000000e+00  0.000000e+00
   outer loop
     vertex -6.954145e-01 -2.222223e-01  2.781306e-01
     vertex -9.821274e-01 -2.222223e-01  1.056211e-01
     vertex -9.968814e-01 -2.222223e-01  7.373096e-02
   endloop
 endfacet
 facet normal  0.000000e+00 -1.000000e+00  0.000000e+00
   outer loop
     vertex -6.954145e-01 -2.222223e-01  2.781306e-01
     vertex -9.640120e-01 -2.222223e-01  1.357292e-01
     vertex -9.821274e-01 -2.222223e-01  1.056211e-01
   endloop
 endfacet
 facet normal  0.000000e+00 -1.000000e+00  0.000000e+00
   outer loop
     vertex -6.954145e-01 -2.222223e-01  2.781306e-01
     vertex -9.427475e-01 -2.222223e-01  1.637021e-01
     vertex -9.640120e-01 -2.222223e-01  1.357292e-01
   endloop
 endfacet
 facet normal  0.000000e+00 -1.000000e+00  0.000000e+00
   outer loop
     vertex -6.954145e-01 -2.222223e-01  2.781306e-01
     vertex -8.627194e-01 -2.222223e-01  2.316786e-01
     vertex -8.918026e-01 -2.222223e-01  2.119597e-01
   endloop
 endfacet
 facet normal  0.000000e+00 -1.000000e+00  0.000000e+00
   outer loop
     vertex -6.954145e-01 -2.222223e-01  2.781306e-01
     vertex -8.316748e-01 -2.222223e-01  2.481374e-01
     vertex -8.627194e-01 -2.222223e-01  2.316786e-01
   endloop
 endfacet
 facet normal  0.000000e+00 -1.000000e+00  0.000000e+00
   outer loop
     vertex -6.954145e-01 -2.222223e-01  2.781306e-01
     vertex -7.990326e-01 -2.222223e-01  2.611433e-01
     vertex -8.316748e-01 -2.222223e-01  2.481374e-01
   endloop
 endfacet
 facet normal  0.000000e+00 -1.000000e+00  0.000000e+00
   outer loop
     vertex -6.954145e-01 -2.222223e-01  2.781306e-01
     vertex -7.651756e-01 -2.222223e-01  2.705436e-01
     vertex -7.990326e-01 -2.222223e-01  2.611433e-01
   endloop
 endfacet
 facet normal  0.000000e+00 -1.000000e+00  0.000000e+00
   outer loop
     vertex -6.954145e-01 -2.222223e-01  2.781306e-01
     vertex -7.305007e-01 -2.222223e-01  2.762283e-01
     vertex -7.651756e-01 -2.222223e-01  2.705436e-01
   endloop
 endfacet
 facet normal  0.000000e+00 -1.000000e+00  0.000000e+00
   outer loop
     vertex -6.954145e-01 -2.222223e-01  2.781306e-01
     vertex -9.821274e-01 -2.222223e-01 -1.983900e-01
     vertex -9.427475e-01 -2.222223e-01 -2.564710e-01
   endloop
 endfacet
 facet normal  0.000000e+00 -1.000000e+00 -0.000000e+00
   outer loop
     vertex -6.954145e-01 -2.222223e-01  2.781306e-01
     vertex -8.918026e-01 -2.222223e-01 -3.047286e-01
     vertex -6.954145e-01 -2.222223e-01 -3.708994e-01
   endloop
 endfacet
 facet normal  0.000000e+00 -1.000000e+00  0.000000e+00
   outer loop
     vertex  7.062637e-01 -2.222223e-01 -3.539121e-01
     vertex  6.377318e-01 -2.222223e-01 -3.689971e-01
     vertex  6.724067e-01 -2.222223e-01 -3.633125e-01
   endloop
 endfacet
 facet normal  0.000000e+00 -1.000000e+00  0.000000e+00
   outer loop
     vertex  7.062637e-01 -2.222223e-01 -3.539121e-01
     vertex  6.026456e-01 -2.222223e-01 -3.708994e-01
     vertex  6.377318e-01 -2.222223e-01 -3.689971e-01
   endloop
 endfacet
 facet normal  0.000000e+00 -1.000000e+00  0.000000e+00
   outer loop
     vertex  7.699505e-01 -2.222223e-01 -3.244474e-01
     vertex  7.062637e-01 -2.222223e-01 -3.539121e-01
     vertex  7.389059e-01 -2.222223e-01 -3.409063e-01
   endloop
 endfacet
 facet normal  0.000000e+00 -1.000000e+00  0.000000e+00
   outer loop
     vertex  7.699505e-01 -2.222223e-01 -3.244474e-01
     vertex  6.026456e-01 -2.222223e-01 -3.708994e-01
     vertex  7.062637e-01 -2.222223e-01 -3.539121e-01
   endloop
 endfacet
 facet normal  0.000000e+00 -1.000000e+00  0.000000e+00
   outer loop
     vertex  8.258144e-01 -2.222223e-01 -2.819809e-01
     vertex  7.699505e-01 -2.222223e-01 -3.244474e-01
     vertex  7.990337e-01 -2.222223e-01 -3.047286e-01
   endloop
 endfacet
 facet normal  0.000000e+00 -1.000000e+00  0.000000e+00
   outer loop
     vertex  8.258144e-01 -2.222223e-01 -2.819809e-01
     vertex  6.026456e-01 -2.222223e-01 -3.708994e-01
     vertex  7.699505e-01 -2.222223e-01 -3.244474e-01
   endloop
 endfacet
 facet normal  0.000000e+00 -1.000000e+00  0.000000e+00
   outer loop
     vertex  8.712431e-01 -2.222223e-01 -2.284980e-01
     vertex  8.258144e-01 -2.222223e-01 -2.819809e-01
     vertex  8.499786e-01 -2.222223e-01 -2.564710e-01
   endloop
 endfacet
 facet normal  0.000000e+00 -1.000000e+00  0.000000e+00
   outer loop
     vertex  8.712431e-01 -2.222223e-01 -2.284980e-01
     vertex  6.026456e-01 -2.222223e-01 -3.708994e-01
     vertex  8.258144e-01 -2.222223e-01 -2.819809e-01
   endloop
 endfacet
 facet normal  0.000000e+00 -1.000000e+00  0.000000e+00
   outer loop
     vertex  9.041124e-01 -2.222223e-01 -1.664998e-01
     vertex  8.712431e-01 -2.222223e-01 -2.284980e-01
     vertex  8.893585e-01 -2.222223e-01 -1.983900e-01
   endloop
 endfacet
 facet normal  0.000000e+00 -1.000000e+00  0.000000e+00
   outer loop
     vertex  9.228856e-01 -2.222223e-01 -9.888511e-02
     vertex  9.041124e-01 -2.222223e-01 -1.664998e-01
     vertex  9.153320e-01 -2.222223e-01 -1.332014e-01
   endloop
 endfacet
 facet normal  0.000000e+00 -1.000000e+00 -0.000000e+00
   outer loop
     vertex  6.026456e-01 -2.222223e-01  2.781306e-01
     vertex -6.954145e-01 -2.222223e-01 -3.708994e-01
     vertex  6.026456e-01 -2.222223e-01 -3.708994e-01
   endloop
 endfacet
 facet normal -0.000000e+00 -1.000000e+00  0.000000e+00
   outer loop
     vertex  6.026456e-01 -2.222223e-01  2.781306e-01
     vertex -6.954145e-01 -2.222223e-01  2.781306e-01
     vertex -6.954145e-01 -2.222223e-01 -3.708994e-01
   endloop
 endfacet
 facet normal  0.000000e+00 -1.000000e+00  0.000000e+00
   outer loop
     vertex  9.041124e-01 -2.222223e-01  7.373096e-02
     vertex  9.228856e-01 -2.222223e-01  6.116260e-03
     vertex  9.153320e-01 -2.222223e-01  4.043253e-02
   endloop
 endfacet
 facet normal  0.000000e+00 -1.000000e+00  0.000000e+00
   outer loop
     vertex  9.041124e-01 -2.222223e-01  7.373096e-02
     vertex  9.266846e-01 -2.222223e-01 -2.881554e-02
     vertex  9.228856e-01 -2.222223e-01  6.116260e-03
   endloop
 endfacet
 facet normal  0.000000e+00 -1.000000e+00  0.000000e+00
   outer loop
     vertex  9.041124e-01 -2.222223e-01  7.373096e-02
     vertex  9.266846e-01 -2.222223e-01 -6.395331e-02
     vertex  9.266846e-01 -2.222223e-01 -2.881554e-02
   endloop
 endfacet
 facet normal  0.000000e+00 -1.000000e+00  0.000000e+00
   outer loop
     vertex  9.041124e-01 -2.222223e-01  7.373096e-02
     vertex  9.228856e-01 -2.222223e-01 -9.888511e-02
     vertex  9.266846e-01 -2.222223e-01 -6.395331e-02
   endloop
 endfacet
 facet normal  0.000000e+00 -1.000000e+00  0.000000e+00
   outer loop
     vertex  7.389059e-01 -2.222223e-01  2.481374e-01
     vertex  7.062637e-01 -2.222223e-01  2.611433e-01
     vertex  6.724067e-01 -2.222223e-01  2.705436e-01
   endloop
 endfacet
 facet normal  0.000000e+00 -1.000000e+00  0.000000e+00
   outer loop
     vertex  7.699505e-01 -2.222223e-01  2.316786e-01
     vertex  7.389059e-01 -2.222223e-01  2.481374e-01
     vertex  6.724067e-01 -2.222223e-01  2.705436e-01
   endloop
 endfacet
 facet normal  0.000000e+00 -1.000000e+00  0.000000e+00
   outer loop
     vertex  8.712431e-01 -2.222223e-01  1.357292e-01
     vertex  9.041124e-01 -2.222223e-01  7.373096e-02
     vertex  8.893585e-01 -2.222223e-01  1.056211e-01
   endloop
 endfacet
 facet normal  0.000000e+00 -1.000000e+00  0.000000e+00
   outer loop
     vertex  8.712431e-01 -2.222223e-01  1.357292e-01
     vertex  9.041124e-01 -2.222223e-01 -1.664998e-01
     vertex  9.228856e-01 -2.222223e-01 -9.888511e-02
   endloop
 endfacet
 facet normal  0.000000e+00 -1.000000e+00  0.000000e+00
   outer loop
     vertex  8.712431e-01 -2.222223e-01  1.357292e-01
     vertex  9.228856e-01 -2.222223e-01 -9.888511e-02
     vertex  9.041124e-01 -2.222223e-01  7.373096e-02
   endloop
 endfacet
 facet normal  0.000000e+00 -1.000000e+00  0.000000e+00
   outer loop
     vertex  7.990337e-01 -2.222223e-01  2.119597e-01
     vertex  6.724067e-01 -2.222223e-01  2.705436e-01
     vertex  6.377318e-01 -2.222223e-01  2.762283e-01
   endloop
 endfacet
 facet normal  0.000000e+00 -1.000000e+00  0.000000e+00
   outer loop
     vertex  7.990337e-01 -2.222223e-01  2.119597e-01
     vertex  7.699505e-01 -2.222223e-01  2.316786e-01
     vertex  6.724067e-01 -2.222223e-01  2.705436e-01
   endloop
 endfacet
 facet normal  0.000000e+00 -1.000000e+00  0.000000e+00
   outer loop
     vertex  8.258144e-01 -2.222223e-01  1.892120e-01
     vertex  6.377318e-01 -2.222223e-01  2.762283e-01
     vertex  6.026456e-01 -2.222223e-01  2.781306e-01
   endloop
 endfacet
 facet normal  0.000000e+00 -1.000000e+00  0.000000e+00
   outer loop
     vertex  8.258144e-01 -2.222223e-01  1.892120e-01
     vertex  8.712431e-01 -2.222223e-01  1.357292e-01
     vertex  8.499786e-01 -2.222223e-01  1.637021e-01
   endloop
 endfacet
 facet normal  0.000000e+00 -1.000000e+00 -0.000000e+00
   outer loop
     vertex  8.258144e-01 -2.222223e-01  1.892120e-01
     vertex  6.026456e-01 -2.222223e-01 -3.708994e-01
     vertex  8.712431e-01 -2.222223e-01 -2.284980e-01
   endloop
 endfacet
 facet normal  0.000000e+00 -1.000000e+00  0.000000e+00
   outer loop
     vertex  8.258144e-01 -2.222223e-01  1.892120e-01
     vertex  8.712431e-01 -2.222223e-01 -2.284980e-01
     vertex  9.041124e-01 -2.222223e-01 -1.664998e-01
   endloop
 endfacet
 facet normal -0.000000e+00 -1.000000e+00  0.000000e+00
   outer loop
     vertex  8.258144e-01 -2.222223e-01  1.892120e-01
     vertex  6.026456e-01 -2.222223e-01  2.781306e-01
     vertex  6.026456e-01 -2.222223e-01 -3.708994e-01
   endloop
 endfacet
 facet normal  0.000000e+00 -1.000000e+00  0.000000e+00
   outer loop
     vertex  8.258144e-01 -2.222223e-01  1.892120e-01
     vertex  9.041124e-01 -2.222223e-01 -1.664998e-01
     vertex  8.712431e-01 -2.222223e-01  1.357292e-01
   endloop
 endfacet
 facet normal  0.000000e+00 -1.000000e+00  0.000000e+00
   outer loop
     vertex  8.258144e-01 -2.222223e-01  1.892120e-01
     vertex  7.990337e-01 -2.222223e-01  2.119597e-01
     vertex  6.377318e-01 -2.222223e-01  2.762283e-01
   endloop
 endfacet
 facet normal  5.413900e-02  0.000000e+00  9.985334e-01
   outer loop
     vertex  6.377318e-01 -1.587302e-02  2.762283e-01
     vertex  6.026456e-01 -1.587302e-02  2.781306e-01
     vertex  6.026456e-01 -2.222223e-01  2.781306e-01
   endloop
 endfacet
 facet normal  5.413900e-02  0.000000e+00  9.985334e-01
   outer loop
     vertex  6.377318e-01 -1.587302e-02  2.762283e-01
     vertex  6.026456e-01 -2.222223e-01  2.781306e-01
     vertex  6.377318e-01 -2.222223e-01  2.762283e-01
   endloop
 endfacet
 facet normal  1.617821e-01  0.000000e+00  9.868265e-01
   outer loop
     vertex  6.724067e-01 -1.587302e-02  2.705436e-01
     vertex  6.377318e-01 -2.222223e-01  2.762283e-01
     vertex  6.724067e-01 -2.222223e-01  2.705436e-01
   endloop
 endfacet
 facet normal  1.617821e-01  0.000000e+00  9.868265e-01
   outer loop
     vertex  6.724067e-01 -1.587302e-02  2.705436e-01
     vertex  6.377318e-01 -1.587302e-02  2.762283e-01
     vertex  6.377318e-01 -2.222223e-01  2.762283e-01
   endloop
 endfacet
 facet normal  2.675284e-01  0.000000e+00  9.635500e-01
   outer loop
     vertex  7.062637e-01 -1.587302e-02  2.611433e-01
     vertex  6.724067e-01 -2.222223e-01  2.705436e-01
     vertex  7.062637e-01 -2.222223e-01  2.611433e-01
   endloop
 endfacet
 facet normal  2.675284e-01  0.000000e+00  9.635500e-01
   outer loop
     vertex  7.062637e-01 -1.587302e-02  2.611433e-01
     vertex  6.724067e-01 -1.587302e-02  2.705436e-01
     vertex  6.724067e-01 -2.222223e-01  2.705436e-01
   endloop
 endfacet
 facet normal  3.701382e-01  0.000000e+00  9.289767e-01
   outer loop
     vertex  7.389059e-01 -1.587302e-02  2.481374e-01
     vertex  7.062637e-01 -2.222223e-01  2.611433e-01
     vertex  7.389059e-01 -2.222223e-01  2.481374e-01
   endloop
 endfacet
 facet normal  3.701382e-01  0.000000e+00  9.289767e-01
   outer loop
     vertex  7.389059e-01 -1.587302e-02  2.481374e-01
     vertex  7.062637e-01 -1.587302e-02  2.611433e-01
     vertex  7.062637e-01 -2.222223e-01  2.611433e-01
   endloop
 endfacet
 facet normal  4.684085e-01  0.000000e+00  8.835120e-01
   outer loop
     vertex  7.699505e-01 -1.587302e-02  2.316786e-01
     vertex  7.389059e-01 -2.222223e-01  2.481374e-01
     vertex  7.699505e-01 -2.222223e-01  2.316786e-01
   endloop
 endfacet
 facet normal  4.684085e-01  0.000000e+00  8.835120e-01
   outer loop
     vertex  7.699505e-01 -1.587302e-02  2.316786e-01
     vertex  7.389059e-01 -1.587302e-02  2.481374e-01
     vertex  7.389059e-01 -2.222223e-01  2.481374e-01
   endloop
 endfacet
 facet normal  5.611871e-01  0.000000e+00  8.276890e-01
   outer loop
     vertex  7.990337e-01 -1.587302e-02  2.119597e-01
     vertex  7.699505e-01 -2.222223e-01  2.316786e-01
     vertex  7.990337e-01 -2.222223e-01  2.119597e-01
   endloop
 endfacet
 facet normal  5.611871e-01  0.000000e+00  8.276890e-01
   outer loop
     vertex  7.990337e-01 -1.587302e-02  2.119597e-01
     vertex  7.699505e-01 -1.587302e-02  2.316786e-01
     vertex  7.699505e-01 -2.222223e-01  2.316786e-01
   endloop
 endfacet
 facet normal  6.473863e-01  0.000000e+00  7.621620e-01
   outer loop
     vertex  8.258144e-01 -1.587302e-02  1.892120e-01
     vertex  7.990337e-01 -2.222223e-01  2.119597e-01
     vertex  8.258144e-01 -2.222223e-01  1.892120e-01
   endloop
 endfacet
 facet normal  6.473863e-01  0.000000e+00  7.621620e-01
   outer loop
     vertex  8.258144e-01 -1.587302e-02  1.892120e-01
     vertex  7.990337e-01 -1.587302e-02  2.119597e-01
     vertex  7.990337e-01 -2.222223e-01  2.119597e-01
   endloop
 endfacet
 facet normal  7.259955e-01  0.000000e+00  6.876994e-01
   outer loop
     vertex  8.499786e-01 -1.587302e-02  1.637021e-01
     vertex  8.258144e-01 -2.222223e-01  1.892120e-01
     vertex  8.499786e-01 -2.222223e-01  1.637021e-01
   endloop
 endfacet
 facet normal  7.259955e-01  0.000000e+00  6.876994e-01
   outer loop
     vertex  8.499786e-01 -1.587302e-02  1.637021e-01
     vertex  8.258144e-01 -1.587302e-02  1.892120e-01
     vertex  8.258144e-01 -2.222223e-01  1.892120e-01
   endloop
 endfacet
 facet normal  7.960931e-01  0.000000e+00  6.051742e-01
   outer loop
     vertex  8.712431e-01 -1.587302e-02  1.357292e-01
     vertex  8.499786e-01 -2.222223e-01  1.637021e-01
     vertex  8.712431e-01 -2.222223e-01  1.357292e-01
   endloop
 endfacet
 facet normal  7.960931e-01  0.000000e+00  6.051742e-01
   outer loop
     vertex  8.712431e-01 -1.587302e-02  1.357292e-01
     vertex  8.499786e-01 -1.587302e-02  1.637021e-01
     vertex  8.499786e-01 -2.222223e-01  1.637021e-01
   endloop
 endfacet
 facet normal  8.568572e-01  0.000000e+00  5.155538e-01
   outer loop
     vertex  8.893585e-01 -1.587302e-02  1.056211e-01
     vertex  8.712431e-01 -1.587302e-02  1.357292e-01
     vertex  8.712431e-01 -2.222223e-01  1.357292e-01
   endloop
 endfacet
 facet normal  8.568572e-01  0.000000e+00  5.155538e-01
   outer loop
     vertex  8.893585e-01 -1.587302e-02  1.056211e-01
     vertex  8.712431e-01 -2.222223e-01  1.357292e-01
     vertex  8.893585e-01 -2.222223e-01  1.056211e-01
   endloop
 endfacet
 facet normal  9.075754e-01  0.000000e+00  4.198891e-01
   outer loop
     vertex  9.041124e-01 -1.587302e-02  7.373096e-02
     vertex  8.893585e-01 -1.587302e-02  1.056211e-01
     vertex  8.893585e-01 -2.222223e-01  1.056211e-01
   endloop
 endfacet
 facet normal  9.075754e-01  0.000000e+00  4.198891e-01
   outer loop
     vertex  9.041124e-01 -1.587302e-02  7.373096e-02
     vertex  8.893585e-01 -2.222223e-01  1.056211e-01
     vertex  9.041124e-01 -2.222223e-01  7.373096e-02
   endloop
 endfacet
 facet normal  9.476532e-01  0.000000e+00  3.193015e-01
   outer loop
     vertex  9.153320e-01 -1.587302e-02  4.043253e-02
     vertex  9.041124e-01 -2.222223e-01  7.373096e-02
     vertex  9.153320e-01 -2.222223e-01  4.043253e-02
   endloop
 endfacet
 facet normal  9.476532e-01  0.000000e+00  3.193015e-01
   outer loop
     vertex  9.153320e-01 -1.587302e-02  4.043253e-02
     vertex  9.041124e-01 -1.587302e-02  7.373096e-02
     vertex  9.041124e-01 -2.222223e-01  7.373096e-02
   endloop
 endfacet
 facet normal  9.766206e-01  0.000000e+00  2.149704e-01
   outer loop
     vertex  9.153320e-01 -1.587302e-02  4.043253e-02
     vertex  9.153320e-01 -2.222223e-01  4.043253e-02
     vertex  9.228856e-01 -2.222223e-01  6.116260e-03
   endloop
 endfacet
 facet normal  9.766206e-01  0.000000e+00  2.149704e-01
   outer loop
     vertex  9.228856e-01 -1.587302e-02  6.116260e-03
     vertex  9.153320e-01 -1.587302e-02  4.043253e-02
     vertex  9.228856e-01 -2.222223e-01  6.116260e-03
   endloop
 endfacet
 facet normal  9.941380e-01  0.000000e+00  1.081190e-01
   outer loop
     vertex  9.266846e-01 -1.587302e-02 -2.881554e-02
     vertex  9.228856e-01 -1.587302e-02  6.116260e-03
     vertex  9.228856e-01 -2.222223e-01  6.116260e-03
   endloop
 endfacet
 facet normal  9.941380e-01  0.000000e+00  1.081190e-01
   outer loop
     vertex  9.266846e-01 -1.587302e-02 -2.881554e-02
     vertex  9.228856e-01 -2.222223e-01  6.116260e-03
     vertex  9.266846e-01 -2.222223e-01 -2.881554e-02
   endloop
 endfacet
 facet normal  1.000000e+00  0.000000e+00  0.000000e+00
   outer loop
     vertex  9.266846e-01 -1.587302e-02 -6.395331e-02
     vertex  9.266846e-01 -2.222223e-01 -2.881554e-02
     vertex  9.266846e-01 -2.222223e-01 -6.395331e-02
   endloop
 endfacet
 facet normal  1.000000e+00  0.000000e+00 -0.000000e+00
   outer loop
     vertex  9.266846e-01 -1.587302e-02 -6.395331e-02
     vertex  9.266846e-01 -1.587302e-02 -2.881554e-02
     vertex  9.266846e-01 -2.222223e-01 -2.881554e-02
   endloop
 endfacet
 facet normal  9.941380e-01  0.000000e+00 -1.081190e-01
   outer loop
     vertex  9.228856e-01 -1.587302e-02 -9.888511e-02
     vertex  9.266846e-01 -2.222223e-01 -6.395331e-02
     vertex  9.228856e-01 -2.222223e-01 -9.888511e-02
   endloop
 endfacet
 facet normal  9.941380e-01  0.000000e+00 -1.081190e-01
   outer loop
     vertex  9.228856e-01 -1.587302e-02 -9.888511e-02
     vertex  9.266846e-01 -1.587302e-02 -6.395331e-02
     vertex  9.266846e-01 -2.222223e-01 -6.395331e-02
   endloop
 endfacet
 facet normal  9.766206e-01  0.000000e+00 -2.149704e-01
   outer loop
     vertex  9.153320e-01 -1.587302e-02 -1.332014e-01
     vertex  9.228856e-01 -2.222223e-01 -9.888511e-02
     vertex  9.153320e-01 -2.222223e-01 -1.332014e-01
   endloop
 endfacet
 facet normal  9.766206e-01  0.000000e+00 -2.149704e-01
   outer loop
     vertex  9.153320e-01 -1.587302e-02 -1.332014e-01
     vertex  9.228856e-01 -1.587302e-02 -9.888511e-02
     vertex  9.228856e-01 -2.222223e-01 -9.888511e-02
   endloop
 endfacet
 facet normal  9.476532e-01  0.000000e+00 -3.193015e-01
   outer loop
     vertex  9.041124e-01 -1.587302e-02 -1.664998e-01
     vertex  9.153320e-01 -2.222223e-01 -1.332014e-01
     vertex  9.041124e-01 -2.222223e-01 -1.664998e-01
   endloop
 endfacet
 facet normal  9.476532e-01  0.000000e+00 -3.193015e-01
   outer loop
     vertex  9.041124e-01 -1.587302e-02 -1.664998e-01
     vertex  9.153320e-01 -1.587302e-02 -1.332014e-01
     vertex  9.153320e-01 -2.222223e-01 -1.332014e-01
   endloop
 endfacet
 facet normal  9.075754e-01  0.000000e+00 -4.198891e-01
   outer loop
     vertex  8.893585e-01 -1.587302e-02 -1.983900e-01
     vertex  9.041124e-01 -2.222223e-01 -1.664998e-01
     vertex  8.893585e-01 -2.222223e-01 -1.983900e-01
   endloop
 endfacet
 facet normal  9.075754e-01  0.000000e+00 -4.198891e-01
   outer loop
     vertex  8.893585e-01 -1.587302e-02 -1.983900e-01
     vertex  9.041124e-01 -1.587302e-02 -1.664998e-01
     vertex  9.041124e-01 -2.222223e-01 -1.664998e-01
   endloop
 endfacet
 facet normal  8.568572e-01  0.000000e+00 -5.155538e-01
   outer loop
     vertex  8.712431e-01 -1.587302e-02 -2.284980e-01
     vertex  8.893585e-01 -2.222223e-01 -1.983900e-01
     vertex  8.712431e-01 -2.222223e-01 -2.284980e-01
   endloop
 endfacet
 facet normal  8.568572e-01  0.000000e+00 -5.155538e-01
   outer loop
     vertex  8.712431e-01 -1.587302e-02 -2.284980e-01
     vertex  8.893585e-01 -1.587302e-02 -1.983900e-01
     vertex  8.893585e-01 -2.222223e-01 -1.983900e-01
   endloop
 endfacet
 facet normal  7.960931e-01  0.000000e+00 -6.051742e-01
   outer loop
     vertex  8.499786e-01 -1.587302e-02 -2.564710e-01
     vertex  8.712431e-01 -2.222223e-01 -2.284980e-01
     vertex  8.499786e-01 -2.222223e-01 -2.564710e-01
   endloop
 endfacet
 facet normal  7.960931e-01  0.000000e+00 -6.051742e-01
   outer loop
     vertex  8.499786e-01 -1.587302e-02 -2.564710e-01
     vertex  8.712431e-01 -1.587302e-02 -2.284980e-01
     vertex  8.712431e-01 -2.222223e-01 -2.284980e-01
   endloop
 endfacet
 facet normal  7.259955e-01  0.000000e+00 -6.876994e-01
   outer loop
     vertex  8.258144e-01 -1.587302e-02 -2.819809e-01
     vertex  8.499786e-01 -2.222223e-01 -2.564710e-01
     vertex  8.258144e-01 -2.222223e-01 -2.819809e-01
   endloop
 endfacet
 facet normal  7.259955e-01  0.000000e+00 -6.876994e-01
   outer loop
     vertex  8.258144e-01 -1.587302e-02 -2.819809e-01
     vertex  8.499786e-01 -1.587302e-02 -2.564710e-01
     vertex  8.499786e-01 -2.222223e-01 -2.564710e-01
   endloop
 endfacet
 facet normal  6.473863e-01  0.000000e+00 -7.621620e-01
   outer loop
     vertex  7.990337e-01 -1.587302e-02 -3.047286e-01
     vertex  8.258144e-01 -2.222223e-01 -2.819809e-01
     vertex  7.990337e-01 -2.222223e-01 -3.047286e-01
   endloop
 endfacet
 facet normal  6.473863e-01  0.000000e+00 -7.621620e-01
   outer loop
     vertex  7.990337e-01 -1.587302e-02 -3.047286e-01
     vertex  8.258144e-01 -1.587302e-02 -2.819809e-01
     vertex  8.258144e-01 -2.222223e-01 -2.819809e-01
   endloop
 endfacet
 facet normal  5.611871e-01  0.000000e+00 -8.276890e-01
   outer loop
     vertex  7.699505e-01 -1.587302e-02 -3.244474e-01
     vertex  7.990337e-01 -2.222223e-01 -3.047286e-01
     vertex  7.699505e-01 -2.222223e-01 -3.244474e-01
   endloop
 endfacet
 facet normal  5.611871e-01  0.000000e+00 -8.276890e-01
   outer loop
     vertex  7.699505e-01 -1.587302e-02 -3.244474e-01
     vertex  7.990337e-01 -1.587302e-02 -3.047286e-01
     vertex  7.990337e-01 -2.222223e-01 -3.047286e-01
   endloop
 endfacet
 facet normal  4.684085e-01  0.000000e+00 -8.835120e-01
   outer loop
     vertex  7.389059e-01 -1.587302e-02 -3.409063e-01
     vertex  7.699505e-01 -2.222223e-01 -3.244474e-01
     vertex  7.389059e-01 -2.222223e-01 -3.409063e-01
   endloop
 endfacet
 facet normal  4.684085e-01  0.000000e+00 -8.835120e-01
   outer loop
     vertex  7.389059e-01 -1.587302e-02 -3.409063e-01
     vertex  7.699505e-01 -1.587302e-02 -3.244474e-01
     vertex  7.699505e-01 -2.222223e-01 -3.244474e-01
   endloop
 endfacet
 facet normal  3.701382e-01  0.000000e+00 -9.289767e-01
   outer loop
     vertex  7.062637e-01 -1.587302e-02 -3.539121e-01
     vertex  7.389059e-01 -2.222223e-01 -3.409063e-01
     vertex  7.062637e-01 -2.222223e-01 -3.539121e-01
   endloop
 endfacet
 facet normal  3.701382e-01  0.000000e+00 -9.289767e-01
   outer loop
     vertex  7.062637e-01 -1.587302e-02 -3.539121e-01
     vertex  7.389059e-01 -1.587302e-02 -3.409063e-01
     vertex  7.389059e-01 -2.222223e-01 -3.409063e-01
   endloop
 endfacet
 facet normal  2.675284e-01  0.000000e+00 -9.635500e-01
   outer loop
     vertex  6.724067e-01 -1.587302e-02 -3.633125e-01
     vertex  7.062637e-01 -2.222223e-01 -3.539121e-01
     vertex  6.724067e-01 -2.222223e-01 -3.633125e-01
   endloop
 endfacet
 facet normal  2.675284e-01  0.000000e+00 -9.635500e-01
   outer loop
     vertex  6.724067e-01 -1.587302e-02 -3.633125e-01
     vertex  7.062637e-01 -1.587302e-02 -3.539121e-01
     vertex  7.062637e-01 -2.222223e-01 -3.539121e-01
   endloop
 endfacet
 facet normal  1.617821e-01  0.000000e+00 -9.868265e-01
   outer loop
     vertex  6.377318e-01 -1.587302e-02 -3.689971e-01
     vertex  6.724067e-01 -2.222223e-01 -3.633125e-01
     vertex  6.377318e-01 -2.222223e-01 -3.689971e-01
   endloop
 endfacet
 facet normal  5.413900e-02  0.000000e+00 -9.985334e-01
   outer loop
     vertex  6.377318e-01 -1.587302e-02 -3.689971e-01
     vertex  6.377318e-01 -2.222223e-01 -3.689971e-01
     vertex  6.026456e-01 -2.222223e-01 -3.708994e-01
   endloop
 endfacet
 facet normal  1.617821e-01  0.000000e+00 -9.868265e-01
   outer loop
     vertex  6.377318e-01 -1.587302e-02 -3.689971e-01
     vertex  6.724067e-01 -1.587302e-02 -3.633125e-01
     vertex  6.724067e-01 -2.222223e-01 -3.633125e-01
   endloop
 endfacet
 facet normal  5.413900e-02  0.000000e+00 -9.985334e-01
   outer loop
     vertex  6.026456e-01 -1.587302e-02 -3.708994e-01
     vertex  6.377318e-01 -1.587302e-02 -3.689971e-01
     vertex  6.026456e-01 -2.222223e-01 -3.708994e-01
   endloop
 endfacet
 facet normal  0.000000e+00  0.000000e+00 -1.000000e+00
   outer loop
     vertex -6.954145e-01 -1.587302e-02 -3.708994e-01
     vertex  6.026456e-01  0.000000e+00 -3.708994e-01
     vertex  6.026456e-01 -1.587302e-02 -3.708994e-01
   endloop
 endfacet
 facet normal  0.000000e+00  0.000000e+00 -1.000000e+00
   outer loop
     vertex -6.954145e-01 -1.587302e-02 -3.708994e-01
     vertex -6.954145e-01  0.000000e+00 -3.708994e-01
     vertex  6.026456e-01  0.000000e+00 -3.708994e-01
   endloop
 endfacet
 facet normal  0.000000e+00  0.000000e+00  1.000000e+00
   outer loop
     vertex  6.026456e-01 -1.587302e-02  2.781306e-01
     vertex -6.954145e-01  0.000000e+00  2.781306e-01
     vertex -6.954145e-01 -1.587302e-02  2.781306e-01
   endloop
 endfacet
 facet normal  0.000000e+00 -0.000000e+00  1.000000e+00
   outer loop
     vertex  6.026456e-01 -1.587302e-02  2.781306e-01
     vertex  6.026456e-01  0.000000e+00  2.781306e-01
     vertex -6.954145e-01  0.000000e+00  2.781306e-01
   endloop
 endfacet
 facet normal  0.000000e+00  1.000000e+00  0.000000e+00
   outer loop
     vertex -9.821274e-01  1.040834e-17 -1.983900e-01
     vertex -9.427475e-01  1.040834e-17 -2.564710e-01
     vertex -9.640120e-01  1.040834e-17 -2.284980e-01
   endloop
 endfacet
 facet normal  0.000000e+00  1.000000e+00  0.000000e+00
   outer loop
     vertex -6.954145e-01  1.040834e-17 -3.708994e-01
     vertex -7.305007e-01  1.040834e-17 -3.689971e-01
     vertex -7.651756e-01  1.040834e-17 -3.633125e-01
   endloop
 endfacet
 facet normal  0.000000e+00  1.000000e+00  0.000000e+00
   outer loop
     vertex -6.954145e-01  1.040834e-17 -3.708994e-01
     vertex -7.651756e-01  1.040834e-17 -3.633125e-01
     vertex -7.990326e-01  1.040834e-17 -3.539121e-01
   endloop
 endfacet
 facet normal  0.000000e+00  1.000000e+00  0.000000e+00
   outer loop
     vertex -6.954145e-01  1.040834e-17 -3.708994e-01
     vertex -7.990326e-01  1.040834e-17 -3.539121e-01
     vertex -8.316748e-01  1.040834e-17 -3.409063e-01
   endloop
 endfacet
 facet normal  0.000000e+00  1.000000e+00  0.000000e+00
   outer loop
     vertex -6.954145e-01  1.040834e-17 -3.708994e-01
     vertex -8.316748e-01  1.040834e-17 -3.409063e-01
     vertex -8.627194e-01  1.040834e-17 -3.244474e-01
   endloop
 endfacet
 facet normal  0.000000e+00  1.000000e+00  0.000000e+00
   outer loop
     vertex -6.954145e-01  1.040834e-17 -3.708994e-01
     vertex -8.627194e-01  1.040834e-17 -3.244474e-01
     vertex -8.918026e-01  1.040834e-17 -3.047286e-01
   endloop
 endfacet
 facet normal  0.000000e+00  1.000000e+00  0.000000e+00
   outer loop
     vertex -8.918026e-01  1.040834e-17  2.119597e-01
     vertex -9.427475e-01  1.040834e-17  1.637021e-01
     vertex -9.185833e-01  1.040834e-17  1.892120e-01
   endloop
 endfacet
 facet normal  0.000000e+00  1.000000e+00  0.000000e+00
   outer loop
     vertex -6.954145e-01  1.040834e-17  2.781306e-01
     vertex -9.427475e-01  1.040834e-17  1.637021e-01
     vertex -8.918026e-01  1.040834e-17  2.119597e-01
   endloop
 endfacet
 facet normal  0.000000e+00  1.000000e+00  0.000000e+00
   outer loop
     vertex -6.954145e-01  1.040834e-17  2.781306e-01
     vertex -8.918026e-01  1.040834e-17 -3.047286e-01
     vertex -9.185833e-01  1.040834e-17 -2.819809e-01
   endloop
 endfacet
 facet normal  0.000000e+00  1.000000e+00  0.000000e+00
   outer loop
     vertex -6.954145e-01  1.040834e-17  2.781306e-01
     vertex -9.185833e-01  1.040834e-17 -2.819809e-01
     vertex -9.427475e-01  1.040834e-17 -2.564710e-01
   endloop
 endfacet
 facet normal  0.000000e+00  1.000000e+00  0.000000e+00
   outer loop
     vertex -6.954145e-01  1.040834e-17  2.781306e-01
     vertex -9.821274e-01  1.040834e-17 -1.983900e-01
     vertex -9.968814e-01  1.040834e-17 -1.664998e-01
   endloop
 endfacet
 facet normal  0.000000e+00  1.000000e+00  0.000000e+00
   outer loop
     vertex -6.954145e-01  1.040834e-17  2.781306e-01
     vertex -9.968814e-01  1.040834e-17 -1.664998e-01
     vertex -1.008101e+00  1.040834e-17 -1.332014e-01
   endloop
 endfacet
 facet normal  0.000000e+00  1.000000e+00  0.000000e+00
   outer loop
     vertex -6.954145e-01  1.040834e-17  2.781306e-01
     vertex -1.008101e+00  1.040834e-17 -1.332014e-01
     vertex -1.015654e+00  1.040834e-17 -9.888511e-02
   endloop
 endfacet
 facet normal  0.000000e+00  1.000000e+00  0.000000e+00
   outer loop
     vertex -6.954145e-01  1.040834e-17  2.781306e-01
     vertex -1.015654e+00  1.040834e-17 -9.888511e-02
     vertex -1.019454e+00  1.040834e-17 -6.395331e-02
   endloop
 endfacet
 facet normal  0.000000e+00  1.000000e+00  0.000000e+00
   outer loop
     vertex -6.954145e-01  1.040834e-17  2.781306e-01
     vertex -1.019454e+00  1.040834e-17 -6.395331e-02
     vertex -1.019454e+00  1.040834e-17 -2.881554e-02
   endloop
 endfacet
 facet normal  0.000000e+00  1.000000e+00  0.000000e+00
   outer loop
     vertex -6.954145e-01  1.040834e-17  2.781306e-01
     vertex -1.019454e+00  1.040834e-17 -2.881554e-02
     vertex -1.015654e+00  1.040834e-17  6.116260e-03
   endloop
 endfacet
 facet normal  0.000000e+00  1.000000e+00  0.000000e+00
   outer loop
     vertex -6.954145e-01  1.040834e-17  2.781306e-01
     vertex -1.015654e+00  1.040834e-17  6.116260e-03
     vertex -1.008101e+00  1.040834e-17  4.043253e-02
   endloop
 endfacet
 facet normal  0.000000e+00  1.000000e+00  0.000000e+00
   outer loop
     vertex -6.954145e-01  1.040834e-17  2.781306e-01
     vertex -1.008101e+00  1.040834e-17  4.043253e-02
     vertex -9.968814e-01  1.040834e-17  7.373096e-02
   endloop
 endfacet
 facet normal  0.000000e+00  1.000000e+00  0.000000e+00
   outer loop
     vertex -6.954145e-01  1.040834e-17  2.781306e-01
     vertex -9.968814e-01  1.040834e-17  7.373096e-02
     vertex -9.821274e-01  1.040834e-17  1.056211e-01
   endloop
 endfacet
 facet normal  0.000000e+00  1.000000e+00  0.000000e+00
   outer loop
     vertex -6.954145e-01  1.040834e-17  2.781306e-01
     vertex -9.821274e-01  1.040834e-17  1.056211e-01
     vertex -9.640120e-01  1.040834e-17  1.357292e-01
   endloop
 endfacet
 facet normal  0.000000e+00  1.000000e+00  0.000000e+00
   outer loop
     vertex -6.954145e-01  1.040834e-17  2.781306e-01
     vertex -9.640120e-01  1.040834e-17  1.357292e-01
     vertex -9.427475e-01  1.040834e-17  1.637021e-01
   endloop
 endfacet
 facet normal  0.000000e+00  1.000000e+00  0.000000e+00
   outer loop
     vertex -6.954145e-01  1.040834e-17  2.781306e-01
     vertex -8.918026e-01  1.040834e-17  2.119597e-01
     vertex -8.627194e-01  1.040834e-17  2.316786e-01
   endloop
 endfacet
 facet normal  0.000000e+00  1.000000e+00  0.000000e+00
   outer loop
     vertex -6.954145e-01  1.040834e-17  2.781306e-01
     vertex -8.627194e-01  1.040834e-17  2.316786e-01
     vertex -8.316748e-01  1.040834e-17  2.481374e-01
   endloop
 endfacet
 facet normal  0.000000e+00  1.000000e+00  0.000000e+00
   outer loop
     vertex -6.954145e-01  1.040834e-17  2.781306e-01
     vertex -8.316748e-01  1.040834e-17  2.481374e-01
     vertex -7.990326e-01  1.040834e-17  2.611433e-01
   endloop
 endfacet
 facet normal  0.000000e+00  1.000000e+00  0.000000e+00
   outer loop
     vertex -6.954145e-01  1.040834e-17  2.781306e-01
     vertex -7.990326e-01  1.040834e-17  2.611433e-01
     vertex -7.651756e-01  1.040834e-17  2.705436e-01
   endloop
 endfacet
 facet normal  0.000000e+00  1.000000e+00  0.000000e+00
   outer loop
     vertex -6.954145e-01  1.040834e-17  2.781306e-01
     vertex -7.651756e-01  1.040834e-17  2.705436e-01
     vertex -7.305007e-01  1.040834e-17  2.762283e-01
   endloop
 endfacet
 facet normal  0.000000e+00  1.000000e+00  0.000000e+00
   outer loop
     vertex -6.954145e-01  1.040834e-17  2.781306e-01
     vertex -9.427475e-01  1.040834e-17 -2.564710e-01
     vertex -9.821274e-01  1.040834e-17 -1.983900e-01
   endloop
 endfacet
 facet normal  0.000000e+00  1.000000e+00  0.000000e+00
   outer loop
     vertex -6.954145e-01  1.040834e-17  2.781306e-01
     vertex -6.954145e-01  1.040834e-17 -3.708994e-01
     vertex -8.918026e-01  1.040834e-17 -3.047286e-01
   endloop
 endfacet
 facet normal  0.000000e+00  1.000000e+00  0.000000e+00
   outer loop
     vertex  7.062637e-01  1.040834e-17 -3.539121e-01
     vertex  6.724067e-01  1.040834e-17 -3.633125e-01
     vertex  6.377318e-01  1.040834e-17 -3.689971e-01
   endloop
 endfacet
 facet normal  0.000000e+00  1.000000e+00  0.000000e+00
   outer loop
     vertex  7.062637e-01  1.040834e-17 -3.539121e-01
     vertex  6.377318e-01  1.040834e-17 -3.689971e-01
     vertex  6.026456e-01  1.040834e-17 -3.708994e-01
   endloop
 endfacet
 facet normal  0.000000e+00  1.000000e+00  0.000000e+00
   outer loop
     vertex  7.699505e-01  1.040834e-17 -3.244474e-01
     vertex  7.389059e-01  1.040834e-17 -3.409063e-01
     vertex  7.062637e-01  1.040834e-17 -3.539121e-01
   endloop
 endfacet
 facet normal  0.000000e+00  1.000000e+00  0.000000e+00
   outer loop
     vertex  7.699505e-01  1.040834e-17 -3.244474e-01
     vertex  7.062637e-01  1.040834e-17 -3.539121e-01
     vertex  6.026456e-01  1.040834e-17 -3.708994e-01
   endloop
 endfacet
 facet normal  0.000000e+00  1.000000e+00  0.000000e+00
   outer loop
     vertex  8.258144e-01  1.040834e-17 -2.819809e-01
     vertex  7.990337e-01  1.040834e-17 -3.047286e-01
     vertex  7.699505e-01  1.040834e-17 -3.244474e-01
   endloop
 endfacet
 facet normal  0.000000e+00  1.000000e+00  0.000000e+00
   outer loop
     vertex  8.258144e-01  1.040834e-17 -2.819809e-01
     vertex  7.699505e-01  1.040834e-17 -3.244474e-01
     vertex  6.026456e-01  1.040834e-17 -3.708994e-01
   endloop
 endfacet
 facet normal  0.000000e+00  1.000000e+00  0.000000e+00
   outer loop
     vertex  8.712431e-01  1.040834e-17 -2.284980e-01
     vertex  8.499786e-01  1.040834e-17 -2.564710e-01
     vertex  8.258144e-01  1.040834e-17 -2.819809e-01
   endloop
 endfacet
 facet normal  0.000000e+00  1.000000e+00  0.000000e+00
   outer loop
     vertex  8.712431e-01  1.040834e-17 -2.284980e-01
     vertex  8.258144e-01  1.040834e-17 -2.819809e-01
     vertex  6.026456e-01  1.040834e-17 -3.708994e-01
   endloop
 endfacet
 facet normal  0.000000e+00  1.000000e+00  0.000000e+00
   outer loop
     vertex  9.041124e-01  1.040834e-17 -1.664998e-01
     vertex  8.893585e-01  1.040834e-17 -1.983900e-01
     vertex  8.712431e-01  1.040834e-17 -2.284980e-01
   endloop
 endfacet
 facet normal  0.000000e+00  1.000000e+00  0.000000e+00
   outer loop
     vertex  9.228856e-01  1.040834e-17 -9.888511e-02
     vertex  9.153320e-01  1.040834e-17 -1.332014e-01
     vertex  9.041124e-01  1.040834e-17 -1.664998e-01
   endloop
 endfacet
 facet normal  0.000000e+00  1.000000e+00  0.000000e+00
   outer loop
     vertex  6.026456e-01  1.040834e-17  2.781306e-01
     vertex  6.026456e-01  1.040834e-17 -3.708994e-01
     vertex -6.954145e-01  1.040834e-17 -3.708994e-01
   endloop
 endfacet
 facet normal  0.000000e+00  1.000000e+00  0.000000e+00
   outer loop
     vertex  6.026456e-01  1.040834e-17  2.781306e-01
     vertex -6.954145e-01  1.040834e-17 -3.708994e-01
     vertex -6.954145e-01  1.040834e-17  2.781306e-01
   endloop
 endfacet
 facet normal  0.000000e+00  1.000000e+00  0.000000e+00
   outer loop
     vertex  9.041124e-01  1.040834e-17  7.373096e-02
     vertex  9.153320e-01  1.040834e-17  4.043253e-02
     vertex  9.228856e-01  1.040834e-17  6.116260e-03
   endloop
 endfacet
 facet normal  0.000000e+00  1.000000e+00  0.000000e+00
   outer loop
     vertex  9.041124e-01  1.040834e-17  7.373096e-02
     vertex  9.228856e-01  1.040834e-17  6.116260e-03
     vertex  9.266846e-01  1.040834e-17 -2.881554e-02
   endloop
 endfacet
 facet normal  0.000000e+00  1.000000e+00  0.000000e+00
   outer loop
     vertex  9.041124e-01  1.040834e-17  7.373096e-02
     vertex  9.266846e-01  1.040834e-17 -2.881554e-02
     vertex  9.266846e-01  1.040834e-17 -6.395331e-02
   endloop
 endfacet
 facet normal  0.000000e+00  1.000000e+00  0.000000e+00
   outer loop
     vertex  9.041124e-01  1.040834e-17  7.373096e-02
     vertex  9.266846e-01  1.040834e-17 -6.395331e-02
     vertex  9.228856e-01  1.040834e-17 -9.888511e-02
   endloop
 endfacet
 facet normal  0.000000e+00  1.000000e+00  0.000000e+00
   outer loop
     vertex  7.389059e-01  1.040834e-17  2.481374e-01
     vertex  6.724067e-01  1.040834e-17  2.705436e-01
     vertex  7.062637e-01  1.040834e-17  2.611433e-01
   endloop
 endfacet
 facet normal  0.000000e+00  1.000000e+00  0.000000e+00
   outer loop
     vertex  7.699505e-01  1.040834e-17  2.316786e-01
     vertex  6.724067e-01  1.040834e-17  2.705436e-01
     vertex  7.389059e-01  1.040834e-17  2.481374e-01
   endloop
 endfacet
 facet normal  0.000000e+00  1.000000e+00  0.000000e+00
   outer loop
     vertex  8.712431e-01  1.040834e-17  1.357292e-01
     vertex  8.893585e-01  1.040834e-17  1.056211e-01
     vertex  9.041124e-01  1.040834e-17  7.373096e-02
   endloop
 endfacet
 facet normal  0.000000e+00  1.000000e+00  0.000000e+00
   outer loop
     vertex  8.712431e-01  1.040834e-17  1.357292e-01
     vertex  9.228856e-01  1.040834e-17 -9.888511e-02
     vertex  9.041124e-01  1.040834e-17 -1.664998e-01
   endloop
 endfacet
 facet normal  0.000000e+00  1.000000e+00  0.000000e+00
   outer loop
     vertex  8.712431e-01  1.040834e-17  1.357292e-01
     vertex  9.041124e-01  1.040834e-17  7.373096e-02
     vertex  9.228856e-01  1.040834e-17 -9.888511e-02
   endloop
 endfacet
 facet normal  0.000000e+00  1.000000e+00  0.000000e+00
   outer loop
     vertex  7.990337e-01  1.040834e-17  2.119597e-01
     vertex  6.377318e-01  1.040834e-17  2.762283e-01
     vertex  6.724067e-01  1.040834e-17  2.705436e-01
   endloop
 endfacet
 facet normal  0.000000e+00  1.000000e+00  0.000000e+00
   outer loop
     vertex  7.990337e-01  1.040834e-17  2.119597e-01
     vertex  6.724067e-01  1.040834e-17  2.705436e-01
     vertex  7.699505e-01  1.040834e-17  2.316786e-01
   endloop
 endfacet
 facet normal  0.000000e+00  1.000000e+00  0.000000e+00
   outer loop
     vertex  8.258144e-01  1.040834e-17  1.892120e-01
     vertex  6.026456e-01  1.040834e-17  2.781306e-01
     vertex  6.377318e-01  1.040834e-17  2.762283e-01
   endloop
 endfacet
 facet normal  0.000000e+00  1.000000e+00  0.000000e+00
   outer loop
     vertex  8.258144e-01  1.040834e-17  1.892120e-01
     vertex  8.499786e-01  1.040834e-17  1.637021e-01
     vertex  8.712431e-01  1.040834e-17  1.357292e-01
   endloop
 endfacet
 facet normal  0.000000e+00  1.000000e+00  0.000000e+00
   outer loop
     vertex  8.258144e-01  1.040834e-17  1.892120e-01
     vertex  8.712431e-01  1.040834e-17 -2.284980e-01
     vertex  6.026456e-01  1.040834e-17 -3.708994e-01
   endloop
 endfacet
 facet normal  0.000000e+00  1.000000e+00  0.000000e+00
   outer loop
     vertex  8.258144e-01  1.040834e-17  1.892120e-01
     vertex  9.041124e-01  1.040834e-17 -1.664998e-01
     vertex  8.712431e-01  1.040834e-17 -2.284980e-01
   endloop
 endfacet
 facet normal  0.000000e+00  1.000000e+00  0.000000e+00
   outer loop
     vertex  8.258144e-01  1.040834e-17  1.892120e-01
     vertex  6.026456e-01  1.040834e-17 -3.708994e-01
     vertex  6.026456e-01  1.040834e-17  2.781306e-01
   endloop
 endfacet
 facet normal  0.000000e+00  1.000000e+00  0.000000e+00
   outer loop
     vertex  8.258144e-01  1.040834e-17  1.892120e-01
     vertex  8.712431e-01  1.040834e-17  1.357292e-01
     vertex  9.041124e-01  1.040834e-17 -1.664998e-01
   endloop
 endfacet
 facet normal  0.000000e+00  1.000000e+00  0.000000e+00
   outer loop
     vertex  8.258144e-01  1.040834e-17  1.892120e-01
     vertex  6.377318e-01  1.040834e-17  2.762283e-01
     vertex  7.990337e-01  1.040834e-17  2.119597e-01
   endloop
 endfacet
 facet normal  5.413900e-02  0.000000e+00  9.985334e-01
   outer loop
     vertex  6.377318e-01 -1.587302e-02  2.762283e-01
     vertex  6.026456e-01  0.000000e+00  2.781306e-01
     vertex  6.026456e-01 -1.587302e-02  2.781306e-01
   endloop
 endfacet
 facet normal  5.413900e-02 -0.000000e+00  9.985334e-01
   outer loop
     vertex  6.377318e-01 -1.587302e-02  2.762283e-01
     vertex  6.377318e-01  0.000000e+00  2.762283e-01
     vertex  6.026456e-01  0.000000e+00  2.781306e-01
   endloop
 endfacet
 facet normal  1.617821e-01 -0.000000e+00  9.868265e-01
   outer loop
     vertex  6.724067e-01 -1.587302e-02  2.705436e-01
     vertex  6.724067e-01  0.000000e+00  2.705436e-01
     vertex  6.377318e-01  0.000000e+00  2.762283e-01
   endloop
 endfacet
 facet normal  1.617821e-01  0.000000e+00  9.868265e-01
   outer loop
     vertex  6.724067e-01 -1.587302e-02  2.705436e-01
     vertex  6.377318e-01  0.000000e+00  2.762283e-01
     vertex  6.377318e-01 -1.587302e-02  2.762283e-01
   endloop
 endfacet
 facet normal  2.675284e-01 -0.000000e+00  9.635500e-01
   outer loop
     vertex  7.062637e-01 -1.587302e-02  2.611433e-01
     vertex  7.062637e-01  0.000000e+00  2.611433e-01
     vertex  6.724067e-01  0.000000e+00  2.705436e-01
   endloop
 endfacet
 facet normal  2.675284e-01  0.000000e+00  9.635500e-01
   outer loop
     vertex  7.062637e-01 -1.587302e-02  2.611433e-01
     vertex  6.724067e-01  0.000000e+00  2.705436e-01
     vertex  6.724067e-01 -1.587302e-02  2.705436e-01
   endloop
 endfacet
 facet normal  3.701382e-01 -0.000000e+00  9.289767e-01
   outer loop
     vertex  7.389059e-01 -1.587302e-02  2.481374e-01
     vertex  7.389059e-01  0.000000e+00  2.481374e-01
     vertex  7.062637e-01  0.000000e+00  2.611433e-01
   endloop
 endfacet
 facet normal  3.701382e-01  0.000000e+00  9.289767e-01
   outer loop
     vertex  7.389059e-01 -1.587302e-02  2.481374e-01
     vertex  7.062637e-01  0.000000e+00  2.611433e-01
     vertex  7.062637e-01 -1.587302e-02  2.611433e-01
   endloop
 endfacet
 facet normal  4.684085e-01 -0.000000e+00  8.835120e-01
   outer loop
     vertex  7.699505e-01 -1.587302e-02  2.316786e-01
     vertex  7.699505e-01  0.000000e+00  2.316786e-01
     vertex  7.389059e-01  0.000000e+00  2.481374e-01
   endloop
 endfacet
 facet normal  4.684085e-01  0.000000e+00  8.835120e-01
   outer loop
     vertex  7.699505e-01 -1.587302e-02  2.316786e-01
     vertex  7.389059e-01  0.000000e+00  2.481374e-01
     vertex  7.389059e-01 -1.587302e-02  2.481374e-01
   endloop
 endfacet
 facet normal  5.611871e-01 -0.000000e+00  8.276890e-01
   outer loop
     vertex  7.990337e-01 -1.587302e-02  2.119597e-01
     vertex  7.990337e-01  0.000000e+00  2.119597e-01
     vertex  7.699505e-01  0.000000e+00  2.316786e-01
   endloop
 endfacet
 facet normal  5.611871e-01  0.000000e+00  8.276890e-01
   outer loop
     vertex  7.990337e-01 -1.587302e-02  2.119597e-01
     vertex  7.699505e-01  0.000000e+00  2.316786e-01
     vertex  7.699505e-01 -1.587302e-02  2.316786e-01
   endloop
 endfacet
 facet normal  6.473863e-01 -0.000000e+00  7.621620e-01
   outer loop
     vertex  8.258144e-01 -1.587302e-02  1.892120e-01
     vertex  8.258144e-01  0.000000e+00  1.892120e-01
     vertex  7.990337e-01  0.000000e+00  2.119597e-01
   endloop
 endfacet
 facet normal  6.473863e-01  0.000000e+00  7.621620e-01
   outer loop
     vertex  8.258144e-01 -1.587302e-02  1.892120e-01
     vertex  7.990337e-01  0.000000e+00  2.119597e-01
     vertex  7.990337e-01 -1.587302e-02  2.119597e-01
   endloop
 endfacet
 facet normal  7.259955e-01 -0.000000e+00  6.876994e-01
   outer loop
     vertex  8.499786e-01 -1.587302e-02  1.637021e-01
     vertex  8.499786e-01  0.000000e+00  1.637021e-01
     vertex  8.258144e-01  0.000000e+00  1.892120e-01
   endloop
 endfacet
 facet normal  7.259955e-01  0.000000e+00  6.876994e-01
   outer loop
     vertex  8.499786e-01 -1.587302e-02  1.637021e-01
     vertex  8.258144e-01  0.000000e+00  1.892120e-01
     vertex  8.258144e-01 -1.587302e-02  1.892120e-01
   endloop
 endfacet
 facet normal  7.960931e-01 -0.000000e+00  6.051742e-01
   outer loop
     vertex  8.712431e-01 -1.587302e-02  1.357292e-01
     vertex  8.712431e-01  0.000000e+00  1.357292e-01
     vertex  8.499786e-01  0.000000e+00  1.637021e-01
   endloop
 endfacet
 facet normal  7.960931e-01  0.000000e+00  6.051742e-01
   outer loop
     vertex  8.712431e-01 -1.587302e-02  1.357292e-01
     vertex  8.499786e-01  0.000000e+00  1.637021e-01
     vertex  8.499786e-01 -1.587302e-02  1.637021e-01
   endloop
 endfacet
 facet normal  8.568572e-01  0.000000e+00  5.155538e-01
   outer loop
     vertex  8.893585e-01 -1.587302e-02  1.056211e-01
     vertex  8.712431e-01  0.000000e+00  1.357292e-01
     vertex  8.712431e-01 -1.587302e-02  1.357292e-01
   endloop
 endfacet
 facet normal  8.568572e-01 -0.000000e+00  5.155538e-01
   outer loop
     vertex  8.893585e-01 -1.587302e-02  1.056211e-01
     vertex  8.893585e-01  0.000000e+00  1.056211e-01
     vertex  8.712431e-01  0.000000e+00  1.357292e-01
   endloop
 endfacet
 facet normal  9.075754e-01  0.000000e+00  4.198891e-01
   outer loop
     vertex  9.041124e-01 -1.587302e-02  7.373096e-02
     vertex  8.893585e-01  0.000000e+00  1.056211e-01
     vertex  8.893585e-01 -1.587302e-02  1.056211e-01
   endloop
 endfacet
 facet normal  9.075754e-01 -0.000000e+00  4.198891e-01
   outer loop
     vertex  9.041124e-01 -1.587302e-02  7.373096e-02
     vertex  9.041124e-01  0.000000e+00  7.373096e-02
     vertex  8.893585e-01  0.000000e+00  1.056211e-01
   endloop
 endfacet
 facet normal  9.476532e-01 -0.000000e+00  3.193015e-01
   outer loop
     vertex  9.153320e-01 -1.587302e-02  4.043253e-02
     vertex  9.153320e-01  0.000000e+00  4.043253e-02
     vertex  9.041124e-01  0.000000e+00  7.373096e-02
   endloop
 endfacet
 facet normal  9.476532e-01  0.000000e+00  3.193015e-01
   outer loop
     vertex  9.153320e-01 -1.587302e-02  4.043253e-02
     vertex  9.041124e-01  0.000000e+00  7.373096e-02
     vertex  9.041124e-01 -1.587302e-02  7.373096e-02
   endloop
 endfacet
 facet normal  9.766206e-01 -0.000000e+00  2.149704e-01
   outer loop
     vertex  9.228856e-01 -1.587302e-02  6.116260e-03
     vertex  9.228856e-01  0.000000e+00  6.116260e-03
     vertex  9.153320e-01  0.000000e+00  4.043253e-02
   endloop
 endfacet
 facet normal  9.766206e-01  0.000000e+00  2.149704e-01
   outer loop
     vertex  9.228856e-01 -1.587302e-02  6.116260e-03
     vertex  9.153320e-01  0.000000e+00  4.043253e-02
     vertex  9.153320e-01 -1.587302e-02  4.043253e-02
   endloop
 endfacet
 facet normal  9.941380e-01 -0.000000e+00  1.081190e-01
   outer loop
     vertex  9.266846e-01 -1.587302e-02 -2.881554e-02
     vertex  9.266846e-01  0.000000e+00 -2.881554e-02
     vertex  9.228856e-01  0.000000e+00  6.116260e-03
   endloop
 endfacet
 facet normal  9.941380e-01  0.000000e+00  1.081190e-01
   outer loop
     vertex  9.266846e-01 -1.587302e-02 -2.881554e-02
     vertex  9.228856e-01  0.000000e+00  6.116260e-03
     vertex  9.228856e-01 -1.587302e-02  6.116260e-03
   endloop
 endfacet
 facet normal  1.000000e+00  0.000000e+00  0.000000e+00
   outer loop
     vertex  9.266846e-01 -1.587302e-02 -6.395331e-02
     vertex  9.266846e-01  0.000000e+00 -6.395331e-02
     vertex  9.266846e-01  0.000000e+00 -2.881554e-02
   endloop
 endfacet
 facet normal  1.000000e+00  0.000000e+00  0.000000e+00
   outer loop
     vertex  9.266846e-01 -1.587302e-02 -6.395331e-02
     vertex  9.266846e-01  0.000000e+00 -2.881554e-02
     vertex  9.266846e-01 -1.587302e-02 -2.881554e-02
   endloop
 endfacet
 facet normal  9.941380e-01  0.000000e+00 -1.081190e-01
   outer loop
     vertex  9.228856e-01 -1.587302e-02 -9.888511e-02
     vertex  9.228856e-01  0.000000e+00 -9.888511e-02
     vertex  9.266846e-01  0.000000e+00 -6.395331e-02
   endloop
 endfacet
 facet normal  9.941380e-01  0.000000e+00 -1.081190e-01
   outer loop
     vertex  9.228856e-01 -1.587302e-02 -9.888511e-02
     vertex  9.266846e-01  0.000000e+00 -6.395331e-02
     vertex  9.266846e-01 -1.587302e-02 -6.395331e-02
   endloop
 endfacet
 facet normal  9.766206e-01  0.000000e+00 -2.149704e-01
   outer loop
     vertex  9.153320e-01 -1.587302e-02 -1.332014e-01
     vertex  9.153320e-01  0.000000e+00 -1.332014e-01
     vertex  9.228856e-01  0.000000e+00 -9.888511e-02
   endloop
 endfacet
 facet normal  9.766206e-01  0.000000e+00 -2.149704e-01
   outer loop
     vertex  9.153320e-01 -1.587302e-02 -1.332014e-01
     vertex  9.228856e-01  0.000000e+00 -9.888511e-02
     vertex  9.228856e-01 -1.587302e-02 -9.888511e-02
   endloop
 endfacet
 facet normal  9.476532e-01  0.000000e+00 -3.193015e-01
   outer loop
     vertex  9.041124e-01 -1.587302e-02 -1.664998e-01
     vertex  9.041124e-01  0.000000e+00 -1.664998e-01
     vertex  9.153320e-01  0.000000e+00 -1.332014e-01
   endloop
 endfacet
 facet normal  9.476532e-01  0.000000e+00 -3.193015e-01
   outer loop
     vertex  9.041124e-01 -1.587302e-02 -1.664998e-01
     vertex  9.153320e-01  0.000000e+00 -1.332014e-01
     vertex  9.153320e-01 -1.587302e-02 -1.332014e-01
   endloop
 endfacet
 facet normal  9.075754e-01  0.000000e+00 -4.198891e-01
   outer loop
     vertex  8.893585e-01 -1.587302e-02 -1.983900e-01
     vertex  8.893585e-01  0.000000e+00 -1.983900e-01
     vertex  9.041124e-01  0.000000e+00 -1.664998e-01
   endloop
 endfacet
 facet normal  9.075754e-01  0.000000e+00 -4.198891e-01
   outer loop
     vertex  8.893585e-01 -1.587302e-02 -1.983900e-01
     vertex  9.041124e-01  0.000000e+00 -1.664998e-01
     vertex  9.041124e-01 -1.587302e-02 -1.664998e-01
   endloop
 endfacet
 facet normal  8.568572e-01  0.000000e+00 -5.155538e-01
   outer loop
     vertex  8.712431e-01 -1.587302e-02 -2.284980e-01
     vertex  8.712431e-01  0.000000e+00 -2.284980e-01
     vertex  8.893585e-01  0.000000e+00 -1.983900e-01
   endloop
 endfacet
 facet normal  8.568572e-01  0.000000e+00 -5.155538e-01
   outer loop
     vertex  8.712431e-01 -1.587302e-02 -2.284980e-01
     vertex  8.893585e-01  0.000000e+00 -1.983900e-01
     vertex  8.893585e-01 -1.587302e-02 -1.983900e-01
   endloop
 endfacet
 facet normal  7.960931e-01  0.000000e+00 -6.051742e-01
   outer loop
     vertex  8.499786e-01 -1.587302e-02 -2.564710e-01
     vertex  8.499786e-01  0.000000e+00 -2.564710e-01
     vertex  8.712431e-01  0.000000e+00 -2.284980e-01
   endloop
 endfacet
 facet normal  7.960931e-01  0.000000e+00 -6.051742e-01
   outer loop
     vertex  8.499786e-01 -1.587302e-02 -2.564710e-01
     vertex  8.712431e-01  0.000000e+00 -2.284980e-01
     vertex  8.712431e-01 -1.587302e-02 -2.284980e-01
   endloop
 endfacet
 facet normal  7.259955e-01  0.000000e+00 -6.876994e-01
   outer loop
     vertex  8.258144e-01 -1.587302e-02 -2.819809e-01
     vertex  8.258144e-01  0.000000e+00 -2.819809e-01
     vertex  8.499786e-01  0.000000e+00 -2.564710e-01
   endloop
 endfacet
 facet normal  7.259955e-01  0.000000e+00 -6.876994e-01
   outer loop
     vertex  8.258144e-01 -1.587302e-02 -2.819809e-01
     vertex  8.499786e-01  0.000000e+00 -2.564710e-01
     vertex  8.499786e-01 -1.587302e-02 -2.564710e-01
   endloop
 endfacet
 facet normal  6.473863e-01  0.000000e+00 -7.621620e-01
   outer loop
     vertex  7.990337e-01 -1.587302e-02 -3.047286e-01
     vertex  7.990337e-01  0.000000e+00 -3.047286e-01
     vertex  8.258144e-01  0.000000e+00 -2.819809e-01
   endloop
 endfacet
 facet normal  6.473863e-01  0.000000e+00 -7.621620e-01
   outer loop
     vertex  7.990337e-01 -1.587302e-02 -3.047286e-01
     vertex  8.258144e-01  0.000000e+00 -2.819809e-01
     vertex  8.258144e-01 -1.587302e-02 -2.819809e-01
   endloop
 endfacet
 facet normal  5.611871e-01  0.000000e+00 -8.276890e-01
   outer loop
     vertex  7.699505e-01 -1.587302e-02 -3.244474e-01
     vertex  7.699505e-01  0.000000e+00 -3.244474e-01
     vertex  7.990337e-01  0.000000e+00 -3.047286e-01
   endloop
 endfacet
 facet normal  5.611871e-01  0.000000e+00 -8.276890e-01
   outer loop
     vertex  7.699505e-01 -1.587302e-02 -3.244474e-01
     vertex  7.990337e-01  0.000000e+00 -3.047286e-01
     vertex  7.990337e-01 -1.587302e-02 -3.047286e-01
   endloop
 endfacet
 facet normal  4.684085e-01  0.000000e+00 -8.835120e-01
   outer loop
     vertex  7.389059e-01 -1.587302e-02 -3.409063e-01
     vertex  7.389059e-01  0.000000e+00 -3.409063e-01
     vertex  7.699505e-01  0.000000e+00 -3.244474e-01
   endloop
 endfacet
 facet normal  4.684085e-01  0.000000e+00 -8.835120e-01
   outer loop
     vertex  7.389059e-01 -1.587302e-02 -3.409063e-01
     vertex  7.699505e-01  0.000000e+00 -3.244474e-01
     vertex  7.699505e-01 -1.587302e-02 -3.244474e-01
   endloop
 endfacet
 facet normal  3.701382e-01  0.000000e+00 -9.289767e-01
   outer loop
     vertex  7.062637e-01 -1.587302e-02 -3.539121e-01
     vertex  7.062637e-01  0.000000e+00 -3.539121e-01
     vertex  7.389059e-01  0.000000e+00 -3.409063e-01
   endloop
 endfacet
 facet normal  3.701382e-01  0.000000e+00 -9.289767e-01
   outer loop
     vertex  7.062637e-01 -1.587302e-02 -3.539121e-01
     vertex  7.389059e-01  0.000000e+00 -3.409063e-01
     vertex  7.389059e-01 -1.587302e-02 -3.409063e-01
   endloop
 endfacet
 facet normal  2.675284e-01  0.000000e+00 -9.635500e-01
   outer loop
     vertex  6.724067e-01 -1.587302e-02 -3.633125e-01
     vertex  6.724067e-01  0.000000e+00 -3.633125e-01
     vertex  7.062637e-01  0.000000e+00 -3.539121e-01
   endloop
 endfacet
 facet normal  2.675284e-01  0.000000e+00 -9.635500e-01
   outer loop
     vertex  6.724067e-01 -1.587302e-02 -3.633125e-01
     vertex  7.062637e-01  0.000000e+00 -3.539121e-01
     vertex  7.062637e-01 -1.587302e-02 -3.539121e-01
   endloop
 endfacet
 facet normal  1.617821e-01  0.000000e+00 -9.868265e-01
   outer loop
     vertex  6.377318e-01 -1.587302e-02 -3.689971e-01
     vertex  6.377318e-01  0.000000e+00 -3.689971e-01
     vertex  6.724067e-01  0.000000e+00 -3.633125e-01
   endloop
 endfacet
 facet normal  1.617821e-01  0.000000e+00 -9.868265e-01
   outer loop
     vertex  6.377318e-01 -1.587302e-02 -3.689971e-01
     vertex  6.724067e-01  0.000000e+00 -3.633125e-01
     vertex  6.724067e-01 -1.587302e-02 -3.633125e-01
   endloop
 endfacet
 facet normal  5.413900e-02  0.000000e+00 -9.985334e-01
   outer loop
     vertex  6.026456e-01 -1.587302e-02 -3.708994e-01
     vertex  6.026456e-01  0.000000e+00 -3.708994e-01
     vertex  6.377318e-01  0.000000e+00 -3.689971e-01
   endloop
 endfacet
 facet normal  5.413900e-02  0.000000e+00 -9.985334e-01
   outer loop
     vertex  6.026456e-01 -1.587302e-02 -3.708994e-01
     vertex  6.377318e-01  0.000000e+00 -3.689971e-01
     vertex  6.377318e-01 -1.587302e-02 -3.689971e-01
   endloop
 endfacet
endsolid
