solid 
 facet normal -0.000000e+00  0.000000e+00 -1.000000e+00
   outer loop
     vertex  9.289241e-01 -1.587302e-02 -2.980603e-02
     vertex -3.333339e-02 -6.349212e-02 -2.980603e-02
     vertex -3.333339e-02 -1.587302e-02 -2.980603e-02
   endloop
 endfacet
 facet normal  0.000000e+00 -0.000000e+00 -1.000000e+00
   outer loop
     vertex  9.289241e-01 -1.587302e-02 -2.980603e-02
     vertex  9.289241e-01 -6.349212e-02 -2.980603e-02
     vertex -3.333339e-02 -6.349212e-02 -2.980603e-02
   endloop
 endfacet
 facet normal -1.000000e+00  0.000000e+00  0.000000e+00
   outer loop
     vertex -3.333339e-02 -1.587302e-02 -2.980603e-02
     vertex -3.333339e-02 -6.349212e-02  1.253968e-01
     vertex -3.333339e-02 -1.587302e-02  1.253968e-01
   endloop
 endfacet
 facet normal -1.000000e+00  0.000000e+00  0.000000e+00
   outer loop
     vertex -3.333339e-02 -1.587302e-02 -2.980603e-02
     vertex -3.333339e-02 -6.349212e-02 -2.980603e-02
     vertex -3.333339e-02 -6.349212e-02  1.253968e-01
   endloop
 endfacet
 facet normal  1.000000e+00  0.000000e+00  0.000000e+00
   outer loop
     vertex  9.289241e-01 -1.587302e-02  1.253968e-01
     vertex  9.289241e-01 -6.349212e-02 -2.980603e-02
     vertex  9.289241e-01 -1.587302e-02 -2.980603e-02
   endloop
 endfacet
 facet normal  1.000000e+00  0.000000e+00  0.000000e+00
   outer loop
     vertex  9.289241e-01 -1.587302e-02  1.253968e-01
     vertex  9.289241e-01 -6.349212e-02  1.253968e-01
     vertex  9.289241e-01 -6.349212e-02 -2.980603e-02
   endloop
 endfacet
 facet normal  0.000000e+00  0.000000e+00 -1.000000e+00
   outer loop
     vertex  9.289241e-01 -1.587302e-02 -2.980603e-02
     vertex -3.333339e-02 -1.587302e-02 -2.980603e-02
     vertex -3.333339e-02  0.000000e+00 -2.980603e-02
   endloop
 endfacet
 facet normal  0.000000e+00  0.000000e+00 -1.000000e+00
   outer loop
     vertex  9.289241e-01 -1.587302e-02 -2.980603e-02
     vertex -3.333339e-02  0.000000e+00 -2.980603e-02
     vertex  9.289241e-01  0.000000e+00 -2.980603e-02
   endloop
 endfacet
 facet normal -0.000000e+00 -1.000000e+00  0.000000e+00
   outer loop
     vertex  1.781844e-02 -6.349212e-02  9.476553e-03
     vertex  9.416718e-03 -6.349212e-02  1.691983e-02
     vertex -3.333339e-02 -6.349212e-02 -2.980603e-02
   endloop
 endfacet
 facet normal  0.000000e+00 -1.000000e+00 -0.000000e+00
   outer loop
     vertex  3.040430e-03 -6.349212e-02  2.615748e-02
     vertex -3.333339e-02 -6.349212e-02 -2.980603e-02
     vertex  9.416718e-03 -6.349212e-02  1.691983e-02
   endloop
 endfacet
 facet normal -0.000000e+00 -1.000000e+00  0.000000e+00
   outer loop
     vertex  2.775731e-02 -6.349212e-02  4.260230e-03
     vertex  1.781844e-02 -6.349212e-02  9.476553e-03
     vertex -3.333339e-02 -6.349212e-02 -2.980603e-02
   endloop
 endfacet
 facet normal  0.000000e+00 -1.000000e+00 -0.000000e+00
   outer loop
     vertex -9.398614e-04 -6.349212e-02  3.665264e-02
     vertex -3.333339e-02 -6.349212e-02 -2.980603e-02
     vertex  3.040430e-03 -6.349212e-02  2.615748e-02
   endloop
 endfacet
 facet normal -0.000000e+00 -1.000000e+00  0.000000e+00
   outer loop
     vertex  3.865573e-02 -6.349212e-02  1.574012e-03
     vertex  2.775731e-02 -6.349212e-02  4.260230e-03
     vertex -3.333339e-02 -6.349212e-02 -2.980603e-02
   endloop
 endfacet
 facet normal  0.000000e+00 -1.000000e+00 -0.000000e+00
   outer loop
     vertex -2.292835e-03 -6.349212e-02  4.779538e-02
     vertex -3.333339e-02 -6.349212e-02 -2.980603e-02
     vertex -9.398614e-04 -6.349212e-02  3.665264e-02
   endloop
 endfacet
 facet normal -0.000000e+00 -1.000000e+00  0.000000e+00
   outer loop
     vertex  4.988031e-02 -6.349212e-02  1.574012e-03
     vertex  3.865573e-02 -6.349212e-02  1.574012e-03
     vertex -3.333339e-02 -6.349212e-02 -2.980603e-02
   endloop
 endfacet
 facet normal  0.000000e+00 -1.000000e+00  0.000000e+00
   outer loop
     vertex  6.077872e-02 -6.349212e-02  4.260230e-03
     vertex  4.988031e-02 -6.349212e-02  1.574012e-03
     vertex -3.333339e-02 -6.349212e-02 -2.980603e-02
   endloop
 endfacet
 facet normal  0.000000e+00 -1.000000e+00  0.000000e+00
   outer loop
     vertex -3.333339e-02 -6.349212e-02  1.253968e-01
     vertex  3.040430e-03 -6.349212e-02  6.943329e-02
     vertex  9.416718e-03 -6.349212e-02  7.867094e-02
   endloop
 endfacet
 facet normal  0.000000e+00 -1.000000e+00  0.000000e+00
   outer loop
     vertex -3.333339e-02 -6.349212e-02  1.253968e-01
     vertex -9.398614e-04 -6.349212e-02  5.893812e-02
     vertex  3.040430e-03 -6.349212e-02  6.943329e-02
   endloop
 endfacet
 facet normal  0.000000e+00 -1.000000e+00  0.000000e+00
   outer loop
     vertex -3.333339e-02 -6.349212e-02  1.253968e-01
     vertex -2.292835e-03 -6.349212e-02  4.779538e-02
     vertex -9.398614e-04 -6.349212e-02  5.893812e-02
   endloop
 endfacet
 facet normal  0.000000e+00 -1.000000e+00  0.000000e+00
   outer loop
     vertex -3.333339e-02 -6.349212e-02  1.253968e-01
     vertex -3.333339e-02 -6.349212e-02 -2.980603e-02
     vertex -2.292835e-03 -6.349212e-02  4.779538e-02
   endloop
 endfacet
 facet normal -0.000000e+00 -1.000000e+00  0.000000e+00
   outer loop
     vertex  1.781844e-02 -6.349212e-02  8.611421e-02
     vertex -3.333339e-02 -6.349212e-02  1.253968e-01
     vertex  9.416718e-03 -6.349212e-02  7.867094e-02
   endloop
 endfacet
 facet normal -0.000000e+00 -1.000000e+00  0.000000e+00
   outer loop
     vertex  2.775731e-02 -6.349212e-02  9.133053e-02
     vertex -3.333339e-02 -6.349212e-02  1.253968e-01
     vertex  1.781844e-02 -6.349212e-02  8.611421e-02
   endloop
 endfacet
 facet normal -0.000000e+00 -1.000000e+00  0.000000e+00
   outer loop
     vertex  3.865573e-02 -6.349212e-02  9.401675e-02
     vertex -3.333339e-02 -6.349212e-02  1.253968e-01
     vertex  2.775731e-02 -6.349212e-02  9.133053e-02
   endloop
 endfacet
 facet normal  0.000000e+00 -1.000000e+00  0.000000e+00
   outer loop
     vertex  4.988031e-02 -6.349212e-02  9.401675e-02
     vertex -3.333339e-02 -6.349212e-02  1.253968e-01
     vertex  3.865573e-02 -6.349212e-02  9.401675e-02
   endloop
 endfacet
 facet normal  0.000000e+00 -1.000000e+00  0.000000e+00
   outer loop
     vertex  6.077872e-02 -6.349212e-02  9.133053e-02
     vertex -3.333339e-02 -6.349212e-02  1.253968e-01
     vertex  4.988031e-02 -6.349212e-02  9.401675e-02
   endloop
 endfacet
 facet normal -0.000000e+00 -1.000000e+00  0.000000e+00
   outer loop
     vertex  8.248731e-01 -6.349212e-02  9.476553e-03
     vertex  7.911931e-02 -6.349212e-02  1.691983e-02
     vertex  7.071759e-02 -6.349212e-02  9.476553e-03
   endloop
 endfacet
 facet normal  0.000000e+00 -1.000000e+00  0.000000e+00
   outer loop
     vertex  8.248731e-01 -6.349212e-02  9.476553e-03
     vertex  8.164714e-01 -6.349212e-02  1.691983e-02
     vertex  7.911931e-02 -6.349212e-02  1.691983e-02
   endloop
 endfacet
 facet normal  0.000000e+00 -1.000000e+00  0.000000e+00
   outer loop
     vertex  8.100951e-01 -6.349212e-02  2.615748e-02
     vertex  8.549560e-02 -6.349212e-02  2.615748e-02
     vertex  7.911931e-02 -6.349212e-02  1.691983e-02
   endloop
 endfacet
 facet normal  0.000000e+00 -1.000000e+00 -0.000000e+00
   outer loop
     vertex  8.100951e-01 -6.349212e-02  2.615748e-02
     vertex  7.911931e-02 -6.349212e-02  1.691983e-02
     vertex  8.164714e-01 -6.349212e-02  1.691983e-02
   endloop
 endfacet
 facet normal -0.000000e+00 -1.000000e+00  0.000000e+00
   outer loop
     vertex  8.348120e-01 -6.349212e-02  4.260230e-03
     vertex  7.071759e-02 -6.349212e-02  9.476553e-03
     vertex  6.077872e-02 -6.349212e-02  4.260230e-03
   endloop
 endfacet
 facet normal  0.000000e+00 -1.000000e+00  0.000000e+00
   outer loop
     vertex  8.348120e-01 -6.349212e-02  4.260230e-03
     vertex  6.077872e-02 -6.349212e-02  4.260230e-03
     vertex -3.333339e-02 -6.349212e-02 -2.980603e-02
   endloop
 endfacet
 facet normal  0.000000e+00 -1.000000e+00  0.000000e+00
   outer loop
     vertex  8.348120e-01 -6.349212e-02  4.260230e-03
     vertex  8.248731e-01 -6.349212e-02  9.476553e-03
     vertex  7.071759e-02 -6.349212e-02  9.476553e-03
   endloop
 endfacet
 facet normal  0.000000e+00 -1.000000e+00  0.000000e+00
   outer loop
     vertex  8.061148e-01 -6.349212e-02  3.665264e-02
     vertex  8.947589e-02 -6.349212e-02  3.665264e-02
     vertex  8.549560e-02 -6.349212e-02  2.615748e-02
   endloop
 endfacet
 facet normal  0.000000e+00 -1.000000e+00 -0.000000e+00
   outer loop
     vertex  8.061148e-01 -6.349212e-02  3.665264e-02
     vertex  8.549560e-02 -6.349212e-02  2.615748e-02
     vertex  8.100951e-01 -6.349212e-02  2.615748e-02
   endloop
 endfacet
 facet normal  0.000000e+00 -1.000000e+00 -0.000000e+00
   outer loop
     vertex  8.047618e-01 -6.349212e-02  4.779538e-02
     vertex  8.947589e-02 -6.349212e-02  3.665264e-02
     vertex  8.061148e-01 -6.349212e-02  3.665264e-02
   endloop
 endfacet
 facet normal  0.000000e+00 -1.000000e+00  0.000000e+00
   outer loop
     vertex  8.047618e-01 -6.349212e-02  4.779538e-02
     vertex  9.082887e-02 -6.349212e-02  4.779538e-02
     vertex  8.947589e-02 -6.349212e-02  3.665264e-02
   endloop
 endfacet
 facet normal  0.000000e+00 -1.000000e+00  0.000000e+00
   outer loop
     vertex  8.061148e-01 -6.349212e-02  5.893812e-02
     vertex  9.082887e-02 -6.349212e-02  4.779538e-02
     vertex  8.047618e-01 -6.349212e-02  4.779538e-02
   endloop
 endfacet
 facet normal  0.000000e+00 -1.000000e+00  0.000000e+00
   outer loop
     vertex  8.061148e-01 -6.349212e-02  5.893812e-02
     vertex  8.947589e-02 -6.349212e-02  5.893812e-02
     vertex  9.082887e-02 -6.349212e-02  4.779538e-02
   endloop
 endfacet
 facet normal  0.000000e+00 -1.000000e+00  0.000000e+00
   outer loop
     vertex  8.100951e-01 -6.349212e-02  6.943329e-02
     vertex  8.549560e-02 -6.349212e-02  6.943329e-02
     vertex  8.947589e-02 -6.349212e-02  5.893812e-02
   endloop
 endfacet
 facet normal  0.000000e+00 -1.000000e+00  0.000000e+00
   outer loop
     vertex  8.100951e-01 -6.349212e-02  6.943329e-02
     vertex  8.947589e-02 -6.349212e-02  5.893812e-02
     vertex  8.061148e-01 -6.349212e-02  5.893812e-02
   endloop
 endfacet
 facet normal  0.000000e+00 -1.000000e+00  0.000000e+00
   outer loop
     vertex  8.164714e-01 -6.349212e-02  7.867094e-02
     vertex  7.911931e-02 -6.349212e-02  7.867094e-02
     vertex  8.549560e-02 -6.349212e-02  6.943329e-02
   endloop
 endfacet
 facet normal  0.000000e+00 -1.000000e+00  0.000000e+00
   outer loop
     vertex  8.164714e-01 -6.349212e-02  7.867094e-02
     vertex  8.549560e-02 -6.349212e-02  6.943329e-02
     vertex  8.100951e-01 -6.349212e-02  6.943329e-02
   endloop
 endfacet
 facet normal  0.000000e+00 -1.000000e+00  0.000000e+00
   outer loop
     vertex  9.289241e-01 -6.349212e-02 -2.980603e-02
     vertex  8.348120e-01 -6.349212e-02  4.260230e-03
     vertex -3.333339e-02 -6.349212e-02 -2.980603e-02
   endloop
 endfacet
 facet normal  0.000000e+00 -1.000000e+00  0.000000e+00
   outer loop
     vertex  9.289241e-01 -6.349212e-02 -2.980603e-02
     vertex  8.457104e-01 -6.349212e-02  1.574012e-03
     vertex  8.348120e-01 -6.349212e-02  4.260230e-03
   endloop
 endfacet
 facet normal  0.000000e+00 -1.000000e+00  0.000000e+00
   outer loop
     vertex  9.289241e-01 -6.349212e-02 -2.980603e-02
     vertex  8.569350e-01 -6.349212e-02  1.574012e-03
     vertex  8.457104e-01 -6.349212e-02  1.574012e-03
   endloop
 endfacet
 facet normal  0.000000e+00 -1.000000e+00  0.000000e+00
   outer loop
     vertex  9.289241e-01 -6.349212e-02 -2.980603e-02
     vertex  8.678334e-01 -6.349212e-02  4.260230e-03
     vertex  8.569350e-01 -6.349212e-02  1.574012e-03
   endloop
 endfacet
 facet normal  0.000000e+00 -1.000000e+00  0.000000e+00
   outer loop
     vertex  9.289241e-01 -6.349212e-02 -2.980603e-02
     vertex  8.777723e-01 -6.349212e-02  9.476553e-03
     vertex  8.678334e-01 -6.349212e-02  4.260230e-03
   endloop
 endfacet
 facet normal  0.000000e+00 -1.000000e+00 -0.000000e+00
   outer loop
     vertex  8.861740e-01 -6.349212e-02  1.691983e-02
     vertex  8.777723e-01 -6.349212e-02  9.476553e-03
     vertex  9.289241e-01 -6.349212e-02 -2.980603e-02
   endloop
 endfacet
 facet normal  0.000000e+00 -1.000000e+00  0.000000e+00
   outer loop
     vertex  8.248731e-01 -6.349212e-02  8.611421e-02
     vertex  7.071759e-02 -6.349212e-02  8.611421e-02
     vertex  7.911931e-02 -6.349212e-02  7.867094e-02
   endloop
 endfacet
 facet normal  0.000000e+00 -1.000000e+00  0.000000e+00
   outer loop
     vertex  8.248731e-01 -6.349212e-02  8.611421e-02
     vertex  7.911931e-02 -6.349212e-02  7.867094e-02
     vertex  8.164714e-01 -6.349212e-02  7.867094e-02
   endloop
 endfacet
 facet normal  0.000000e+00 -1.000000e+00 -0.000000e+00
   outer loop
     vertex  8.925503e-01 -6.349212e-02  2.615748e-02
     vertex  8.861740e-01 -6.349212e-02  1.691983e-02
     vertex  9.289241e-01 -6.349212e-02 -2.980603e-02
   endloop
 endfacet
 facet normal  0.000000e+00 -1.000000e+00 -0.000000e+00
   outer loop
     vertex  8.965306e-01 -6.349212e-02  3.665264e-02
     vertex  8.925503e-01 -6.349212e-02  2.615748e-02
     vertex  9.289241e-01 -6.349212e-02 -2.980603e-02
   endloop
 endfacet
 facet normal  0.000000e+00 -1.000000e+00 -0.000000e+00
   outer loop
     vertex  8.978836e-01 -6.349212e-02  4.779538e-02
     vertex  8.965306e-01 -6.349212e-02  3.665264e-02
     vertex  9.289241e-01 -6.349212e-02 -2.980603e-02
   endloop
 endfacet
 facet normal  0.000000e+00 -1.000000e+00  0.000000e+00
   outer loop
     vertex  9.289241e-01 -6.349212e-02  1.253968e-01
     vertex  8.965306e-01 -6.349212e-02  5.893812e-02
     vertex  8.978836e-01 -6.349212e-02  4.779538e-02
   endloop
 endfacet
 facet normal  0.000000e+00 -1.000000e+00  0.000000e+00
   outer loop
     vertex  9.289241e-01 -6.349212e-02  1.253968e-01
     vertex  8.925503e-01 -6.349212e-02  6.943329e-02
     vertex  8.965306e-01 -6.349212e-02  5.893812e-02
   endloop
 endfacet
 facet normal  0.000000e+00 -1.000000e+00  0.000000e+00
   outer loop
     vertex  9.289241e-01 -6.349212e-02  1.253968e-01
     vertex  8.861740e-01 -6.349212e-02  7.867094e-02
     vertex  8.925503e-01 -6.349212e-02  6.943329e-02
   endloop
 endfacet
 facet normal  0.000000e+00 -1.000000e+00  0.000000e+00
   outer loop
     vertex  9.289241e-01 -6.349212e-02  1.253968e-01
     vertex  8.777723e-01 -6.349212e-02  8.611421e-02
     vertex  8.861740e-01 -6.349212e-02  7.867094e-02
   endloop
 endfacet
 facet normal  0.000000e+00 -1.000000e+00  0.000000e+00
   outer loop
     vertex  9.289241e-01 -6.349212e-02  1.253968e-01
     vertex  8.678334e-01 -6.349212e-02  9.133053e-02
     vertex  8.777723e-01 -6.349212e-02  8.611421e-02
   endloop
 endfacet
 facet normal  0.000000e+00 -1.000000e+00  0.000000e+00
   outer loop
     vertex  9.289241e-01 -6.349212e-02  1.253968e-01
     vertex  8.569350e-01 -6.349212e-02  9.401675e-02
     vertex  8.678334e-01 -6.349212e-02  9.133053e-02
   endloop
 endfacet
 facet normal  0.000000e+00 -1.000000e+00  0.000000e+00
   outer loop
     vertex  9.289241e-01 -6.349212e-02  1.253968e-01
     vertex  8.457104e-01 -6.349212e-02  9.401675e-02
     vertex  8.569350e-01 -6.349212e-02  9.401675e-02
   endloop
 endfacet
 facet normal  0.000000e+00 -1.000000e+00  0.000000e+00
   outer loop
     vertex  9.289241e-01 -6.349212e-02  1.253968e-01
     vertex  8.348120e-01 -6.349212e-02  9.133053e-02
     vertex  8.457104e-01 -6.349212e-02  9.401675e-02
   endloop
 endfacet
 facet normal  0.000000e+00 -1.000000e+00 -0.000000e+00
   outer loop
     vertex  9.289241e-01 -6.349212e-02  1.253968e-01
     vertex  8.978836e-01 -6.349212e-02  4.779538e-02
     vertex  9.289241e-01 -6.349212e-02 -2.980603e-02
   endloop
 endfacet
 facet normal -0.000000e+00 -1.000000e+00  0.000000e+00
   outer loop
     vertex  9.289241e-01 -6.349212e-02  1.253968e-01
     vertex -3.333339e-02 -6.349212e-02  1.253968e-01
     vertex  8.348120e-01 -6.349212e-02  9.133053e-02
   endloop
 endfacet
 facet normal -0.000000e+00 -1.000000e+00  0.000000e+00
   outer loop
     vertex  8.348120e-01 -6.349212e-02  9.133053e-02
     vertex -3.333339e-02 -6.349212e-02  1.253968e-01
     vertex  8.248731e-01 -6.349212e-02  8.611421e-02
   endloop
 endfacet
 facet normal  0.000000e+00 -1.000000e+00  0.000000e+00
   outer loop
     vertex  8.248731e-01 -6.349212e-02  8.611421e-02
     vertex -3.333339e-02 -6.349212e-02  1.253968e-01
     vertex  6.077872e-02 -6.349212e-02  9.133053e-02
   endloop
 endfacet
 facet normal -0.000000e+00 -1.000000e+00  0.000000e+00
   outer loop
     vertex  8.248731e-01 -6.349212e-02  8.611421e-02
     vertex  6.077872e-02 -6.349212e-02  9.133053e-02
     vertex  7.071759e-02 -6.349212e-02  8.611421e-02
   endloop
 endfacet
 facet normal -0.000000e+00  0.000000e+00  1.000000e+00
   outer loop
     vertex -3.333339e-02 -1.587302e-02  1.253968e-01
     vertex  9.289241e-01 -6.349212e-02  1.253968e-01
     vertex  9.289241e-01 -1.587302e-02  1.253968e-01
   endloop
 endfacet
 facet normal  0.000000e+00  0.000000e+00  1.000000e+00
   outer loop
     vertex -3.333339e-02 -1.587302e-02  1.253968e-01
     vertex -3.333339e-02 -6.349212e-02  1.253968e-01
     vertex  9.289241e-01 -6.349212e-02  1.253968e-01
   endloop
 endfacet
 facet normal -1.000000e+00  0.000000e+00  0.000000e+00
   outer loop
     vertex -3.333339e-02 -1.587302e-02 -2.980603e-02
     vertex -3.333339e-02 -1.587302e-02  1.253968e-01
     vertex -3.333339e-02  0.000000e+00  1.253968e-01
   endloop
 endfacet
 facet normal -1.000000e+00  0.000000e+00  0.000000e+00
   outer loop
     vertex -3.333339e-02 -1.587302e-02 -2.980603e-02
     vertex -3.333339e-02  0.000000e+00  1.253968e-01
     vertex -3.333339e-02  0.000000e+00 -2.980603e-02
   endloop
 endfacet
 facet normal  1.000000e+00  0.000000e+00  0.000000e+00
   outer loop
     vertex  9.289241e-01 -1.587302e-02  1.253968e-01
     vertex  9.289241e-01 -1.587302e-02 -2.980603e-02
     vertex  9.289241e-01  0.000000e+00 -2.980603e-02
   endloop
 endfacet
 facet normal  1.000000e+00 -0.000000e+00  0.000000e+00
   outer loop
     vertex  9.289241e-01 -1.587302e-02  1.253968e-01
     vertex  9.289241e-01  0.000000e+00 -2.980603e-02
     vertex  9.289241e-01  0.000000e+00  1.253968e-01
   endloop
 endfacet
 facet normal  0.000000e+00  1.000000e+00  0.000000e+00
   outer loop
     vertex  1.781844e-02  3.469447e-18  9.476553e-03
     vertex -3.333339e-02  3.469447e-18 -2.980603e-02
     vertex  9.416718e-03  3.469447e-18  1.691983e-02
   endloop
 endfacet
 facet normal  0.000000e+00  1.000000e+00  0.000000e+00
   outer loop
     vertex  3.040430e-03  3.469447e-18  2.615748e-02
     vertex  9.416718e-03  3.469447e-18  1.691983e-02
     vertex -3.333339e-02  3.469447e-18 -2.980603e-02
   endloop
 endfacet
 facet normal  0.000000e+00  1.000000e+00  0.000000e+00
   outer loop
     vertex  2.775731e-02  3.469447e-18  4.260230e-03
     vertex -3.333339e-02  3.469447e-18 -2.980603e-02
     vertex  1.781844e-02  3.469447e-18  9.476553e-03
   endloop
 endfacet
 facet normal  0.000000e+00  1.000000e+00  0.000000e+00
   outer loop
     vertex -9.398614e-04  3.469447e-18  3.665264e-02
     vertex  3.040430e-03  3.469447e-18  2.615748e-02
     vertex -3.333339e-02  3.469447e-18 -2.980603e-02
   endloop
 endfacet
 facet normal  0.000000e+00  1.000000e+00  0.000000e+00
   outer loop
     vertex  3.865573e-02  3.469447e-18  1.574012e-03
     vertex -3.333339e-02  3.469447e-18 -2.980603e-02
     vertex  2.775731e-02  3.469447e-18  4.260230e-03
   endloop
 endfacet
 facet normal  0.000000e+00  1.000000e+00  0.000000e+00
   outer loop
     vertex -2.292835e-03  3.469447e-18  4.779538e-02
     vertex -9.398614e-04  3.469447e-18  3.665264e-02
     vertex -3.333339e-02  3.469447e-18 -2.980603e-02
   endloop
 endfacet
 facet normal  0.000000e+00  1.000000e+00  0.000000e+00
   outer loop
     vertex  4.988031e-02  3.469447e-18  1.574012e-03
     vertex -3.333339e-02  3.469447e-18 -2.980603e-02
     vertex  3.865573e-02  3.469447e-18  1.574012e-03
   endloop
 endfacet
 facet normal  0.000000e+00  1.000000e+00  0.000000e+00
   outer loop
     vertex  6.077872e-02  3.469447e-18  4.260230e-03
     vertex -3.333339e-02  3.469447e-18 -2.980603e-02
     vertex  4.988031e-02  3.469447e-18  1.574012e-03
   endloop
 endfacet
 facet normal  0.000000e+00  1.000000e+00  0.000000e+00
   outer loop
     vertex -3.333339e-02  3.469447e-18  1.253968e-01
     vertex  9.416718e-03  3.469447e-18  7.867094e-02
     vertex  3.040430e-03  3.469447e-18  6.943329e-02
   endloop
 endfacet
 facet normal  0.000000e+00  1.000000e+00  0.000000e+00
   outer loop
     vertex -3.333339e-02  3.469447e-18  1.253968e-01
     vertex  3.040430e-03  3.469447e-18  6.943329e-02
     vertex -9.398614e-04  3.469447e-18  5.893812e-02
   endloop
 endfacet
 facet normal  0.000000e+00  1.000000e+00  0.000000e+00
   outer loop
     vertex -3.333339e-02  3.469447e-18  1.253968e-01
     vertex -9.398614e-04  3.469447e-18  5.893812e-02
     vertex -2.292835e-03  3.469447e-18  4.779538e-02
   endloop
 endfacet
 facet normal  0.000000e+00  1.000000e+00  0.000000e+00
   outer loop
     vertex -3.333339e-02  3.469447e-18  1.253968e-01
     vertex -2.292835e-03  3.469447e-18  4.779538e-02
     vertex -3.333339e-02  3.469447e-18 -2.980603e-02
   endloop
 endfacet
 facet normal  0.000000e+00  1.000000e+00  0.000000e+00
   outer loop
     vertex  1.781844e-02  3.469447e-18  8.611421e-02
     vertex  9.416718e-03  3.469447e-18  7.867094e-02
     vertex -3.333339e-02  3.469447e-18  1.253968e-01
   endloop
 endfacet
 facet normal  0.000000e+00  1.000000e+00  0.000000e+00
   outer loop
     vertex  2.775731e-02  3.469447e-18  9.133053e-02
     vertex  1.781844e-02  3.469447e-18  8.611421e-02
     vertex -3.333339e-02  3.469447e-18  1.253968e-01
   endloop
 endfacet
 facet normal  0.000000e+00  1.000000e+00  0.000000e+00
   outer loop
     vertex  3.865573e-02  3.469447e-18  9.401675e-02
     vertex  2.775731e-02  3.469447e-18  9.133053e-02
     vertex -3.333339e-02  3.469447e-18  1.253968e-01
   endloop
 endfacet
 facet normal  0.000000e+00  1.000000e+00  0.000000e+00
   outer loop
     vertex  4.988031e-02  3.469447e-18  9.401675e-02
     vertex  3.865573e-02  3.469447e-18  9.401675e-02
     vertex -3.333339e-02  3.469447e-18  1.253968e-01
   endloop
 endfacet
 facet normal  0.000000e+00  1.000000e+00  0.000000e+00
   outer loop
     vertex  6.077872e-02  3.469447e-18  9.133053e-02
     vertex  4.988031e-02  3.469447e-18  9.401675e-02
     vertex -3.333339e-02  3.469447e-18  1.253968e-01
   endloop
 endfacet
 facet normal  0.000000e+00  1.000000e+00  0.000000e+00
   outer loop
     vertex  8.248731e-01  3.469447e-18  9.476553e-03
     vertex  7.071759e-02  3.469447e-18  9.476553e-03
     vertex  7.911931e-02  3.469447e-18  1.691983e-02
   endloop
 endfacet
 facet normal  0.000000e+00  1.000000e+00  0.000000e+00
   outer loop
     vertex  8.248731e-01  3.469447e-18  9.476553e-03
     vertex  7.911931e-02  3.469447e-18  1.691983e-02
     vertex  8.164714e-01  3.469447e-18  1.691983e-02
   endloop
 endfacet
 facet normal  0.000000e+00  1.000000e+00  0.000000e+00
   outer loop
     vertex  8.100951e-01  3.469447e-18  2.615748e-02
     vertex  7.911931e-02  3.469447e-18  1.691983e-02
     vertex  8.549560e-02  3.469447e-18  2.615748e-02
   endloop
 endfacet
 facet normal  0.000000e+00  1.000000e+00  0.000000e+00
   outer loop
     vertex  8.100951e-01  3.469447e-18  2.615748e-02
     vertex  8.164714e-01  3.469447e-18  1.691983e-02
     vertex  7.911931e-02  3.469447e-18  1.691983e-02
   endloop
 endfacet
 facet normal  0.000000e+00  1.000000e+00  0.000000e+00
   outer loop
     vertex  8.348120e-01  3.469447e-18  4.260230e-03
     vertex  6.077872e-02  3.469447e-18  4.260230e-03
     vertex  7.071759e-02  3.469447e-18  9.476553e-03
   endloop
 endfacet
 facet normal  0.000000e+00  1.000000e+00  0.000000e+00
   outer loop
     vertex  8.348120e-01  3.469447e-18  4.260230e-03
     vertex -3.333339e-02  3.469447e-18 -2.980603e-02
     vertex  6.077872e-02  3.469447e-18  4.260230e-03
   endloop
 endfacet
 facet normal  0.000000e+00  1.000000e+00  0.000000e+00
   outer loop
     vertex  8.348120e-01  3.469447e-18  4.260230e-03
     vertex  7.071759e-02  3.469447e-18  9.476553e-03
     vertex  8.248731e-01  3.469447e-18  9.476553e-03
   endloop
 endfacet
 facet normal  0.000000e+00  1.000000e+00  0.000000e+00
   outer loop
     vertex  8.061148e-01  3.469447e-18  3.665264e-02
     vertex  8.549560e-02  3.469447e-18  2.615748e-02
     vertex  8.947589e-02  3.469447e-18  3.665264e-02
   endloop
 endfacet
 facet normal  0.000000e+00  1.000000e+00  0.000000e+00
   outer loop
     vertex  8.061148e-01  3.469447e-18  3.665264e-02
     vertex  8.100951e-01  3.469447e-18  2.615748e-02
     vertex  8.549560e-02  3.469447e-18  2.615748e-02
   endloop
 endfacet
 facet normal  0.000000e+00  1.000000e+00  0.000000e+00
   outer loop
     vertex  8.047618e-01  3.469447e-18  4.779538e-02
     vertex  8.061148e-01  3.469447e-18  3.665264e-02
     vertex  8.947589e-02  3.469447e-18  3.665264e-02
   endloop
 endfacet
 facet normal  0.000000e+00  1.000000e+00  0.000000e+00
   outer loop
     vertex  8.047618e-01  3.469447e-18  4.779538e-02
     vertex  8.947589e-02  3.469447e-18  3.665264e-02
     vertex  9.082887e-02  3.469447e-18  4.779538e-02
   endloop
 endfacet
 facet normal  0.000000e+00  1.000000e+00  0.000000e+00
   outer loop
     vertex  8.061148e-01  3.469447e-18  5.893812e-02
     vertex  8.047618e-01  3.469447e-18  4.779538e-02
     vertex  9.082887e-02  3.469447e-18  4.779538e-02
   endloop
 endfacet
 facet normal  0.000000e+00  1.000000e+00  0.000000e+00
   outer loop
     vertex  8.061148e-01  3.469447e-18  5.893812e-02
     vertex  9.082887e-02  3.469447e-18  4.779538e-02
     vertex  8.947589e-02  3.469447e-18  5.893812e-02
   endloop
 endfacet
 facet normal  0.000000e+00  1.000000e+00  0.000000e+00
   outer loop
     vertex  8.100951e-01  3.469447e-18  6.943329e-02
     vertex  8.947589e-02  3.469447e-18  5.893812e-02
     vertex  8.549560e-02  3.469447e-18  6.943329e-02
   endloop
 endfacet
 facet normal  0.000000e+00  1.000000e+00  0.000000e+00
   outer loop
     vertex  8.100951e-01  3.469447e-18  6.943329e-02
     vertex  8.061148e-01  3.469447e-18  5.893812e-02
     vertex  8.947589e-02  3.469447e-18  5.893812e-02
   endloop
 endfacet
 facet normal  0.000000e+00  1.000000e+00  0.000000e+00
   outer loop
     vertex  8.164714e-01  3.469447e-18  7.867094e-02
     vertex  8.549560e-02  3.469447e-18  6.943329e-02
     vertex  7.911931e-02  3.469447e-18  7.867094e-02
   endloop
 endfacet
 facet normal  0.000000e+00  1.000000e+00  0.000000e+00
   outer loop
     vertex  8.164714e-01  3.469447e-18  7.867094e-02
     vertex  8.100951e-01  3.469447e-18  6.943329e-02
     vertex  8.549560e-02  3.469447e-18  6.943329e-02
   endloop
 endfacet
 facet normal  0.000000e+00  1.000000e+00  0.000000e+00
   outer loop
     vertex  9.289241e-01  3.469447e-18 -2.980603e-02
     vertex -3.333339e-02  3.469447e-18 -2.980603e-02
     vertex  8.348120e-01  3.469447e-18  4.260230e-03
   endloop
 endfacet
 facet normal  0.000000e+00  1.000000e+00  0.000000e+00
   outer loop
     vertex  9.289241e-01  3.469447e-18 -2.980603e-02
     vertex  8.348120e-01  3.469447e-18  4.260230e-03
     vertex  8.457104e-01  3.469447e-18  1.574012e-03
   endloop
 endfacet
 facet normal  0.000000e+00  1.000000e+00  0.000000e+00
   outer loop
     vertex  9.289241e-01  3.469447e-18 -2.980603e-02
     vertex  8.457104e-01  3.469447e-18  1.574012e-03
     vertex  8.569350e-01  3.469447e-18  1.574012e-03
   endloop
 endfacet
 facet normal  0.000000e+00  1.000000e+00  0.000000e+00
   outer loop
     vertex  9.289241e-01  3.469447e-18 -2.980603e-02
     vertex  8.569350e-01  3.469447e-18  1.574012e-03
     vertex  8.678334e-01  3.469447e-18  4.260230e-03
   endloop
 endfacet
 facet normal  0.000000e+00  1.000000e+00  0.000000e+00
   outer loop
     vertex  9.289241e-01  3.469447e-18 -2.980603e-02
     vertex  8.678334e-01  3.469447e-18  4.260230e-03
     vertex  8.777723e-01  3.469447e-18  9.476553e-03
   endloop
 endfacet
 facet normal  0.000000e+00  1.000000e+00  0.000000e+00
   outer loop
     vertex  8.861740e-01  3.469447e-18  1.691983e-02
     vertex  9.289241e-01  3.469447e-18 -2.980603e-02
     vertex  8.777723e-01  3.469447e-18  9.476553e-03
   endloop
 endfacet
 facet normal  0.000000e+00  1.000000e+00  0.000000e+00
   outer loop
     vertex  8.248731e-01  3.469447e-18  8.611421e-02
     vertex  7.911931e-02  3.469447e-18  7.867094e-02
     vertex  7.071759e-02  3.469447e-18  8.611421e-02
   endloop
 endfacet
 facet normal  0.000000e+00  1.000000e+00  0.000000e+00
   outer loop
     vertex  8.248731e-01  3.469447e-18  8.611421e-02
     vertex  8.164714e-01  3.469447e-18  7.867094e-02
     vertex  7.911931e-02  3.469447e-18  7.867094e-02
   endloop
 endfacet
 facet normal  0.000000e+00  1.000000e+00  0.000000e+00
   outer loop
     vertex  8.925503e-01  3.469447e-18  2.615748e-02
     vertex  9.289241e-01  3.469447e-18 -2.980603e-02
     vertex  8.861740e-01  3.469447e-18  1.691983e-02
   endloop
 endfacet
 facet normal  0.000000e+00  1.000000e+00  0.000000e+00
   outer loop
     vertex  8.965306e-01  3.469447e-18  3.665264e-02
     vertex  9.289241e-01  3.469447e-18 -2.980603e-02
     vertex  8.925503e-01  3.469447e-18  2.615748e-02
   endloop
 endfacet
 facet normal  0.000000e+00  1.000000e+00  0.000000e+00
   outer loop
     vertex  8.978836e-01  3.469447e-18  4.779538e-02
     vertex  9.289241e-01  3.469447e-18 -2.980603e-02
     vertex  8.965306e-01  3.469447e-18  3.665264e-02
   endloop
 endfacet
 facet normal  0.000000e+00  1.000000e+00  0.000000e+00
   outer loop
     vertex  9.289241e-01  3.469447e-18  1.253968e-01
     vertex  8.978836e-01  3.469447e-18  4.779538e-02
     vertex  8.965306e-01  3.469447e-18  5.893812e-02
   endloop
 endfacet
 facet normal  0.000000e+00  1.000000e+00  0.000000e+00
   outer loop
     vertex  9.289241e-01  3.469447e-18  1.253968e-01
     vertex  8.965306e-01  3.469447e-18  5.893812e-02
     vertex  8.925503e-01  3.469447e-18  6.943329e-02
   endloop
 endfacet
 facet normal  0.000000e+00  1.000000e+00  0.000000e+00
   outer loop
     vertex  9.289241e-01  3.469447e-18  1.253968e-01
     vertex  8.925503e-01  3.469447e-18  6.943329e-02
     vertex  8.861740e-01  3.469447e-18  7.867094e-02
   endloop
 endfacet
 facet normal  0.000000e+00  1.000000e+00  0.000000e+00
   outer loop
     vertex  9.289241e-01  3.469447e-18  1.253968e-01
     vertex  8.861740e-01  3.469447e-18  7.867094e-02
     vertex  8.777723e-01  3.469447e-18  8.611421e-02
   endloop
 endfacet
 facet normal  0.000000e+00  1.000000e+00  0.000000e+00
   outer loop
     vertex  9.289241e-01  3.469447e-18  1.253968e-01
     vertex  8.777723e-01  3.469447e-18  8.611421e-02
     vertex  8.678334e-01  3.469447e-18  9.133053e-02
   endloop
 endfacet
 facet normal  0.000000e+00  1.000000e+00  0.000000e+00
   outer loop
     vertex  9.289241e-01  3.469447e-18  1.253968e-01
     vertex  8.678334e-01  3.469447e-18  9.133053e-02
     vertex  8.569350e-01  3.469447e-18  9.401675e-02
   endloop
 endfacet
 facet normal  0.000000e+00  1.000000e+00  0.000000e+00
   outer loop
     vertex  9.289241e-01  3.469447e-18  1.253968e-01
     vertex  8.569350e-01  3.469447e-18  9.401675e-02
     vertex  8.457104e-01  3.469447e-18  9.401675e-02
   endloop
 endfacet
 facet normal  0.000000e+00  1.000000e+00  0.000000e+00
   outer loop
     vertex  9.289241e-01  3.469447e-18  1.253968e-01
     vertex  8.457104e-01  3.469447e-18  9.401675e-02
     vertex  8.348120e-01  3.469447e-18  9.133053e-02
   endloop
 endfacet
 facet normal  0.000000e+00  1.000000e+00  0.000000e+00
   outer loop
     vertex  9.289241e-01  3.469447e-18  1.253968e-01
     vertex  9.289241e-01  3.469447e-18 -2.980603e-02
     vertex  8.978836e-01  3.469447e-18  4.779538e-02
   endloop
 endfacet
 facet normal  0.000000e+00  1.000000e+00  0.000000e+00
   outer loop
     vertex  9.289241e-01  3.469447e-18  1.253968e-01
     vertex  8.348120e-01  3.469447e-18  9.133053e-02
     vertex -3.333339e-02  3.469447e-18  1.253968e-01
   endloop
 endfacet
 facet normal  0.000000e+00  1.000000e+00  0.000000e+00
   outer loop
     vertex  8.348120e-01  3.469447e-18  9.133053e-02
     vertex  8.248731e-01  3.469447e-18  8.611421e-02
     vertex -3.333339e-02  3.469447e-18  1.253968e-01
   endloop
 endfacet
 facet normal  0.000000e+00  1.000000e+00  0.000000e+00
   outer loop
     vertex  8.248731e-01  3.469447e-18  8.611421e-02
     vertex  6.077872e-02  3.469447e-18  9.133053e-02
     vertex -3.333339e-02  3.469447e-18  1.253968e-01
   endloop
 endfacet
 facet normal  0.000000e+00  1.000000e+00  0.000000e+00
   outer loop
     vertex  8.248731e-01  3.469447e-18  8.611421e-02
     vertex  7.071759e-02  3.469447e-18  8.611421e-02
     vertex  6.077872e-02  3.469447e-18  9.133053e-02
   endloop
 endfacet
 facet normal -9.927089e-01  0.000000e+00 -1.205367e-01
   outer loop
     vertex  8.947589e-02 -1.587302e-02  5.893812e-02
     vertex  9.082887e-02 -1.587302e-02  4.779538e-02
     vertex  9.082887e-02 -6.349212e-02  4.779538e-02
   endloop
 endfacet
 facet normal -9.927089e-01 -0.000000e+00 -1.205367e-01
   outer loop
     vertex  8.947589e-02 -1.587302e-02  5.893812e-02
     vertex  9.082887e-02 -6.349212e-02  4.779538e-02
     vertex  8.947589e-02 -6.349212e-02  5.893812e-02
   endloop
 endfacet
 facet normal -9.350162e-01 -0.000000e+00 -3.546049e-01
   outer loop
     vertex  8.549560e-02 -1.587302e-02  6.943329e-02
     vertex  8.947589e-02 -6.349212e-02  5.893812e-02
     vertex  8.549560e-02 -6.349212e-02  6.943329e-02
   endloop
 endfacet
 facet normal -9.350162e-01  0.000000e+00 -3.546049e-01
   outer loop
     vertex  8.549560e-02 -1.587302e-02  6.943329e-02
     vertex  8.947589e-02 -1.587302e-02  5.893812e-02
     vertex  8.947589e-02 -6.349212e-02  5.893812e-02
   endloop
 endfacet
 facet normal -8.229839e-01 -0.000000e+00 -5.680647e-01
   outer loop
     vertex  7.911931e-02 -1.587302e-02  7.867094e-02
     vertex  8.549560e-02 -6.349212e-02  6.943329e-02
     vertex  7.911931e-02 -6.349212e-02  7.867094e-02
   endloop
 endfacet
 facet normal -8.229839e-01  0.000000e+00 -5.680647e-01
   outer loop
     vertex  7.911931e-02 -1.587302e-02  7.867094e-02
     vertex  8.549560e-02 -1.587302e-02  6.943329e-02
     vertex  8.549560e-02 -6.349212e-02  6.943329e-02
   endloop
 endfacet
 facet normal -6.631227e-01 -0.000000e+00 -7.485107e-01
   outer loop
     vertex  7.071759e-02 -1.587302e-02  8.611421e-02
     vertex  7.911931e-02 -6.349212e-02  7.867094e-02
     vertex  7.071759e-02 -6.349212e-02  8.611421e-02
   endloop
 endfacet
 facet normal -6.631227e-01  0.000000e+00 -7.485107e-01
   outer loop
     vertex  7.071759e-02 -1.587302e-02  8.611421e-02
     vertex  7.911931e-02 -1.587302e-02  7.867094e-02
     vertex  7.911931e-02 -6.349212e-02  7.867094e-02
   endloop
 endfacet
 facet normal -4.647232e-01 -0.000000e+00 -8.854560e-01
   outer loop
     vertex  6.077872e-02 -1.587302e-02  9.133053e-02
     vertex  7.071759e-02 -6.349212e-02  8.611421e-02
     vertex  6.077872e-02 -6.349212e-02  9.133053e-02
   endloop
 endfacet
 facet normal -4.647232e-01  0.000000e+00 -8.854560e-01
   outer loop
     vertex  6.077872e-02 -1.587302e-02  9.133053e-02
     vertex  7.071759e-02 -1.587302e-02  8.611421e-02
     vertex  7.071759e-02 -6.349212e-02  8.611421e-02
   endloop
 endfacet
 facet normal -2.393157e-01 -0.000000e+00 -9.709418e-01
   outer loop
     vertex  4.988031e-02 -1.587302e-02  9.401675e-02
     vertex  6.077872e-02 -6.349212e-02  9.133053e-02
     vertex  4.988031e-02 -6.349212e-02  9.401675e-02
   endloop
 endfacet
 facet normal -2.393157e-01  0.000000e+00 -9.709418e-01
   outer loop
     vertex  4.988031e-02 -1.587302e-02  9.401675e-02
     vertex  6.077872e-02 -1.587302e-02  9.133053e-02
     vertex  6.077872e-02 -6.349212e-02  9.133053e-02
   endloop
 endfacet
 facet normal  0.000000e+00  0.000000e+00 -1.000000e+00
   outer loop
     vertex  3.865573e-02 -1.587302e-02  9.401675e-02
     vertex  4.988031e-02 -6.349212e-02  9.401675e-02
     vertex  3.865573e-02 -6.349212e-02  9.401675e-02
   endloop
 endfacet
 facet normal  0.000000e+00  0.000000e+00 -1.000000e+00
   outer loop
     vertex  3.865573e-02 -1.587302e-02  9.401675e-02
     vertex  4.988031e-02 -1.587302e-02  9.401675e-02
     vertex  4.988031e-02 -6.349212e-02  9.401675e-02
   endloop
 endfacet
 facet normal  2.393157e-01  0.000000e+00 -9.709418e-01
   outer loop
     vertex  2.775731e-02 -1.587302e-02  9.133053e-02
     vertex  3.865573e-02 -6.349212e-02  9.401675e-02
     vertex  2.775731e-02 -6.349212e-02  9.133053e-02
   endloop
 endfacet
 facet normal  2.393157e-01  0.000000e+00 -9.709418e-01
   outer loop
     vertex  2.775731e-02 -1.587302e-02  9.133053e-02
     vertex  3.865573e-02 -1.587302e-02  9.401675e-02
     vertex  3.865573e-02 -6.349212e-02  9.401675e-02
   endloop
 endfacet
 facet normal  4.647232e-01  0.000000e+00 -8.854560e-01
   outer loop
     vertex  1.781844e-02 -1.587302e-02  8.611421e-02
     vertex  2.775731e-02 -6.349212e-02  9.133053e-02
     vertex  1.781844e-02 -6.349212e-02  8.611421e-02
   endloop
 endfacet
 facet normal  4.647232e-01  0.000000e+00 -8.854560e-01
   outer loop
     vertex  1.781844e-02 -1.587302e-02  8.611421e-02
     vertex  2.775731e-02 -1.587302e-02  9.133053e-02
     vertex  2.775731e-02 -6.349212e-02  9.133053e-02
   endloop
 endfacet
 facet normal  6.631227e-01  0.000000e+00 -7.485107e-01
   outer loop
     vertex  9.416718e-03 -1.587302e-02  7.867094e-02
     vertex  1.781844e-02 -6.349212e-02  8.611421e-02
     vertex  9.416718e-03 -6.349212e-02  7.867094e-02
   endloop
 endfacet
 facet normal  6.631227e-01  0.000000e+00 -7.485107e-01
   outer loop
     vertex  9.416718e-03 -1.587302e-02  7.867094e-02
     vertex  1.781844e-02 -1.587302e-02  8.611421e-02
     vertex  1.781844e-02 -6.349212e-02  8.611421e-02
   endloop
 endfacet
 facet normal  8.229839e-01  0.000000e+00 -5.680647e-01
   outer loop
     vertex  3.040430e-03 -1.587302e-02  6.943329e-02
     vertex  9.416718e-03 -1.587302e-02  7.867094e-02
     vertex  9.416718e-03 -6.349212e-02  7.867094e-02
   endloop
 endfacet
 facet normal  8.229839e-01  0.000000e+00 -5.680647e-01
   outer loop
     vertex  3.040430e-03 -1.587302e-02  6.943329e-02
     vertex  9.416718e-03 -6.349212e-02  7.867094e-02
     vertex  3.040430e-03 -6.349212e-02  6.943329e-02
   endloop
 endfacet
 facet normal  9.350162e-01  0.000000e+00 -3.546049e-01
   outer loop
     vertex -9.398614e-04 -1.587302e-02  5.893812e-02
     vertex  3.040430e-03 -1.587302e-02  6.943329e-02
     vertex  3.040430e-03 -6.349212e-02  6.943329e-02
   endloop
 endfacet
 facet normal  9.350162e-01  0.000000e+00 -3.546049e-01
   outer loop
     vertex -9.398614e-04 -1.587302e-02  5.893812e-02
     vertex  3.040430e-03 -6.349212e-02  6.943329e-02
     vertex -9.398614e-04 -6.349212e-02  5.893812e-02
   endloop
 endfacet
 facet normal  9.927089e-01  0.000000e+00 -1.205367e-01
   outer loop
     vertex -2.292835e-03 -1.587302e-02  4.779538e-02
     vertex -9.398614e-04 -1.587302e-02  5.893812e-02
     vertex -9.398614e-04 -6.349212e-02  5.893812e-02
   endloop
 endfacet
 facet normal  9.927089e-01  0.000000e+00 -1.205367e-01
   outer loop
     vertex -2.292835e-03 -1.587302e-02  4.779538e-02
     vertex -9.398614e-04 -6.349212e-02  5.893812e-02
     vertex -2.292835e-03 -6.349212e-02  4.779538e-02
   endloop
 endfacet
 facet normal  9.927089e-01  0.000000e+00  1.205367e-01
   outer loop
     vertex -9.398614e-04 -1.587302e-02  3.665264e-02
     vertex -2.292835e-03 -6.349212e-02  4.779538e-02
     vertex -9.398614e-04 -6.349212e-02  3.665264e-02
   endloop
 endfacet
 facet normal  9.927089e-01  0.000000e+00  1.205367e-01
   outer loop
     vertex -9.398614e-04 -1.587302e-02  3.665264e-02
     vertex -2.292835e-03 -1.587302e-02  4.779538e-02
     vertex -2.292835e-03 -6.349212e-02  4.779538e-02
   endloop
 endfacet
 facet normal  9.350162e-01  0.000000e+00  3.546049e-01
   outer loop
     vertex  3.040430e-03 -1.587302e-02  2.615748e-02
     vertex -9.398614e-04 -1.587302e-02  3.665264e-02
     vertex -9.398614e-04 -6.349212e-02  3.665264e-02
   endloop
 endfacet
 facet normal  9.350162e-01  0.000000e+00  3.546049e-01
   outer loop
     vertex  3.040430e-03 -1.587302e-02  2.615748e-02
     vertex -9.398614e-04 -6.349212e-02  3.665264e-02
     vertex  3.040430e-03 -6.349212e-02  2.615748e-02
   endloop
 endfacet
 facet normal  8.229839e-01  0.000000e+00  5.680647e-01
   outer loop
     vertex  9.416718e-03 -1.587302e-02  1.691983e-02
     vertex  3.040430e-03 -6.349212e-02  2.615748e-02
     vertex  9.416718e-03 -6.349212e-02  1.691983e-02
   endloop
 endfacet
 facet normal  8.229839e-01  0.000000e+00  5.680647e-01
   outer loop
     vertex  9.416718e-03 -1.587302e-02  1.691983e-02
     vertex  3.040430e-03 -1.587302e-02  2.615748e-02
     vertex  3.040430e-03 -6.349212e-02  2.615748e-02
   endloop
 endfacet
 facet normal  6.631227e-01  0.000000e+00  7.485107e-01
   outer loop
     vertex  1.781844e-02 -1.587302e-02  9.476553e-03
     vertex  9.416718e-03 -6.349212e-02  1.691983e-02
     vertex  1.781844e-02 -6.349212e-02  9.476553e-03
   endloop
 endfacet
 facet normal  6.631227e-01  0.000000e+00  7.485107e-01
   outer loop
     vertex  1.781844e-02 -1.587302e-02  9.476553e-03
     vertex  9.416718e-03 -1.587302e-02  1.691983e-02
     vertex  9.416718e-03 -6.349212e-02  1.691983e-02
   endloop
 endfacet
 facet normal  4.647232e-01  0.000000e+00  8.854560e-01
   outer loop
     vertex  2.775731e-02 -1.587302e-02  4.260230e-03
     vertex  1.781844e-02 -6.349212e-02  9.476553e-03
     vertex  2.775731e-02 -6.349212e-02  4.260230e-03
   endloop
 endfacet
 facet normal  4.647232e-01  0.000000e+00  8.854560e-01
   outer loop
     vertex  2.775731e-02 -1.587302e-02  4.260230e-03
     vertex  1.781844e-02 -1.587302e-02  9.476553e-03
     vertex  1.781844e-02 -6.349212e-02  9.476553e-03
   endloop
 endfacet
 facet normal  2.393157e-01  0.000000e+00  9.709418e-01
   outer loop
     vertex  3.865573e-02 -1.587302e-02  1.574012e-03
     vertex  2.775731e-02 -6.349212e-02  4.260230e-03
     vertex  3.865573e-02 -6.349212e-02  1.574012e-03
   endloop
 endfacet
 facet normal  2.393157e-01  0.000000e+00  9.709418e-01
   outer loop
     vertex  3.865573e-02 -1.587302e-02  1.574012e-03
     vertex  2.775731e-02 -1.587302e-02  4.260230e-03
     vertex  2.775731e-02 -6.349212e-02  4.260230e-03
   endloop
 endfacet
 facet normal  2.472749e-15  0.000000e+00  1.000000e+00
   outer loop
     vertex  4.988031e-02 -1.587302e-02  1.574012e-03
     vertex  3.865573e-02 -6.349212e-02  1.574012e-03
     vertex  4.988031e-02 -6.349212e-02  1.574012e-03
   endloop
 endfacet
 facet normal  2.472749e-15  0.000000e+00  1.000000e+00
   outer loop
     vertex  4.988031e-02 -1.587302e-02  1.574012e-03
     vertex  3.865573e-02 -1.587302e-02  1.574012e-03
     vertex  3.865573e-02 -6.349212e-02  1.574012e-03
   endloop
 endfacet
 facet normal -2.393157e-01  0.000000e+00  9.709418e-01
   outer loop
     vertex  6.077872e-02 -1.587302e-02  4.260230e-03
     vertex  4.988031e-02 -6.349212e-02  1.574012e-03
     vertex  6.077872e-02 -6.349212e-02  4.260230e-03
   endloop
 endfacet
 facet normal -2.393157e-01  0.000000e+00  9.709418e-01
   outer loop
     vertex  6.077872e-02 -1.587302e-02  4.260230e-03
     vertex  4.988031e-02 -1.587302e-02  1.574012e-03
     vertex  4.988031e-02 -6.349212e-02  1.574012e-03
   endloop
 endfacet
 facet normal -4.647232e-01  0.000000e+00  8.854560e-01
   outer loop
     vertex  7.071759e-02 -1.587302e-02  9.476553e-03
     vertex  6.077872e-02 -6.349212e-02  4.260230e-03
     vertex  7.071759e-02 -6.349212e-02  9.476553e-03
   endloop
 endfacet
 facet normal -4.647232e-01  0.000000e+00  8.854560e-01
   outer loop
     vertex  7.071759e-02 -1.587302e-02  9.476553e-03
     vertex  6.077872e-02 -1.587302e-02  4.260230e-03
     vertex  6.077872e-02 -6.349212e-02  4.260230e-03
   endloop
 endfacet
 facet normal -6.631227e-01  0.000000e+00  7.485107e-01
   outer loop
     vertex  7.911931e-02 -1.587302e-02  1.691983e-02
     vertex  7.071759e-02 -6.349212e-02  9.476553e-03
     vertex  7.911931e-02 -6.349212e-02  1.691983e-02
   endloop
 endfacet
 facet normal -6.631227e-01  0.000000e+00  7.485107e-01
   outer loop
     vertex  7.911931e-02 -1.587302e-02  1.691983e-02
     vertex  7.071759e-02 -1.587302e-02  9.476553e-03
     vertex  7.071759e-02 -6.349212e-02  9.476553e-03
   endloop
 endfacet
 facet normal -8.229839e-01  0.000000e+00  5.680647e-01
   outer loop
     vertex  8.549560e-02 -1.587302e-02  2.615748e-02
     vertex  7.911931e-02 -6.349212e-02  1.691983e-02
     vertex  8.549560e-02 -6.349212e-02  2.615748e-02
   endloop
 endfacet
 facet normal -8.229839e-01  0.000000e+00  5.680647e-01
   outer loop
     vertex  8.549560e-02 -1.587302e-02  2.615748e-02
     vertex  7.911931e-02 -1.587302e-02  1.691983e-02
     vertex  7.911931e-02 -6.349212e-02  1.691983e-02
   endloop
 endfacet
 facet normal -9.350162e-01  0.000000e+00  3.546049e-01
   outer loop
     vertex  8.947589e-02 -1.587302e-02  3.665264e-02
     vertex  8.549560e-02 -6.349212e-02  2.615748e-02
     vertex  8.947589e-02 -6.349212e-02  3.665264e-02
   endloop
 endfacet
 facet normal -9.927089e-01  0.000000e+00  1.205367e-01
   outer loop
     vertex  8.947589e-02 -1.587302e-02  3.665264e-02
     vertex  8.947589e-02 -6.349212e-02  3.665264e-02
     vertex  9.082887e-02 -6.349212e-02  4.779538e-02
   endloop
 endfacet
 facet normal -9.350162e-01  0.000000e+00  3.546049e-01
   outer loop
     vertex  8.947589e-02 -1.587302e-02  3.665264e-02
     vertex  8.549560e-02 -1.587302e-02  2.615748e-02
     vertex  8.549560e-02 -6.349212e-02  2.615748e-02
   endloop
 endfacet
 facet normal -9.927089e-01  0.000000e+00  1.205367e-01
   outer loop
     vertex  9.082887e-02 -1.587302e-02  4.779538e-02
     vertex  8.947589e-02 -1.587302e-02  3.665264e-02
     vertex  9.082887e-02 -6.349212e-02  4.779538e-02
   endloop
 endfacet
 facet normal -9.927089e-01  0.000000e+00 -1.205367e-01
   outer loop
     vertex  8.965306e-01 -1.587302e-02  5.893812e-02
     vertex  8.978836e-01 -1.587302e-02  4.779538e-02
     vertex  8.978836e-01 -6.349212e-02  4.779538e-02
   endloop
 endfacet
 facet normal -9.927089e-01 -0.000000e+00 -1.205367e-01
   outer loop
     vertex  8.965306e-01 -1.587302e-02  5.893812e-02
     vertex  8.978836e-01 -6.349212e-02  4.779538e-02
     vertex  8.965306e-01 -6.349212e-02  5.893812e-02
   endloop
 endfacet
 facet normal -9.350162e-01 -0.000000e+00 -3.546049e-01
   outer loop
     vertex  8.925503e-01 -1.587302e-02  6.943329e-02
     vertex  8.965306e-01 -6.349212e-02  5.893812e-02
     vertex  8.925503e-01 -6.349212e-02  6.943329e-02
   endloop
 endfacet
 facet normal -9.350162e-01  0.000000e+00 -3.546049e-01
   outer loop
     vertex  8.925503e-01 -1.587302e-02  6.943329e-02
     vertex  8.965306e-01 -1.587302e-02  5.893812e-02
     vertex  8.965306e-01 -6.349212e-02  5.893812e-02
   endloop
 endfacet
 facet normal -8.229839e-01 -0.000000e+00 -5.680647e-01
   outer loop
     vertex  8.861740e-01 -1.587302e-02  7.867094e-02
     vertex  8.925503e-01 -6.349212e-02  6.943329e-02
     vertex  8.861740e-01 -6.349212e-02  7.867094e-02
   endloop
 endfacet
 facet normal -8.229839e-01  0.000000e+00 -5.680647e-01
   outer loop
     vertex  8.861740e-01 -1.587302e-02  7.867094e-02
     vertex  8.925503e-01 -1.587302e-02  6.943329e-02
     vertex  8.925503e-01 -6.349212e-02  6.943329e-02
   endloop
 endfacet
 facet normal -6.631227e-01 -0.000000e+00 -7.485107e-01
   outer loop
     vertex  8.777723e-01 -1.587302e-02  8.611421e-02
     vertex  8.861740e-01 -6.349212e-02  7.867094e-02
     vertex  8.777723e-01 -6.349212e-02  8.611421e-02
   endloop
 endfacet
 facet normal -6.631227e-01  0.000000e+00 -7.485107e-01
   outer loop
     vertex  8.777723e-01 -1.587302e-02  8.611421e-02
     vertex  8.861740e-01 -1.587302e-02  7.867094e-02
     vertex  8.861740e-01 -6.349212e-02  7.867094e-02
   endloop
 endfacet
 facet normal -4.647232e-01 -0.000000e+00 -8.854560e-01
   outer loop
     vertex  8.678334e-01 -1.587302e-02  9.133053e-02
     vertex  8.777723e-01 -6.349212e-02  8.611421e-02
     vertex  8.678334e-01 -6.349212e-02  9.133053e-02
   endloop
 endfacet
 facet normal -4.647232e-01  0.000000e+00 -8.854560e-01
   outer loop
     vertex  8.678334e-01 -1.587302e-02  9.133053e-02
     vertex  8.777723e-01 -1.587302e-02  8.611421e-02
     vertex  8.777723e-01 -6.349212e-02  8.611421e-02
   endloop
 endfacet
 facet normal -2.393157e-01 -0.000000e+00 -9.709418e-01
   outer loop
     vertex  8.569350e-01 -1.587302e-02  9.401675e-02
     vertex  8.678334e-01 -6.349212e-02  9.133053e-02
     vertex  8.569350e-01 -6.349212e-02  9.401675e-02
   endloop
 endfacet
 facet normal -2.393157e-01  0.000000e+00 -9.709418e-01
   outer loop
     vertex  8.569350e-01 -1.587302e-02  9.401675e-02
     vertex  8.678334e-01 -1.587302e-02  9.133053e-02
     vertex  8.678334e-01 -6.349212e-02  9.133053e-02
   endloop
 endfacet
 facet normal  0.000000e+00  0.000000e+00 -1.000000e+00
   outer loop
     vertex  8.457104e-01 -1.587302e-02  9.401675e-02
     vertex  8.569350e-01 -6.349212e-02  9.401675e-02
     vertex  8.457104e-01 -6.349212e-02  9.401675e-02
   endloop
 endfacet
 facet normal  0.000000e+00  0.000000e+00 -1.000000e+00
   outer loop
     vertex  8.457104e-01 -1.587302e-02  9.401675e-02
     vertex  8.569350e-01 -1.587302e-02  9.401675e-02
     vertex  8.569350e-01 -6.349212e-02  9.401675e-02
   endloop
 endfacet
 facet normal  2.393157e-01  0.000000e+00 -9.709418e-01
   outer loop
     vertex  8.348120e-01 -1.587302e-02  9.133053e-02
     vertex  8.457104e-01 -6.349212e-02  9.401675e-02
     vertex  8.348120e-01 -6.349212e-02  9.133053e-02
   endloop
 endfacet
 facet normal  2.393157e-01  0.000000e+00 -9.709418e-01
   outer loop
     vertex  8.348120e-01 -1.587302e-02  9.133053e-02
     vertex  8.457104e-01 -1.587302e-02  9.401675e-02
     vertex  8.457104e-01 -6.349212e-02  9.401675e-02
   endloop
 endfacet
 facet normal  4.647232e-01  0.000000e+00 -8.854560e-01
   outer loop
     vertex  8.248731e-01 -1.587302e-02  8.611421e-02
     vertex  8.348120e-01 -6.349212e-02  9.133053e-02
     vertex  8.248731e-01 -6.349212e-02  8.611421e-02
   endloop
 endfacet
 facet normal  4.647232e-01  0.000000e+00 -8.854560e-01
   outer loop
     vertex  8.248731e-01 -1.587302e-02  8.611421e-02
     vertex  8.348120e-01 -1.587302e-02  9.133053e-02
     vertex  8.348120e-01 -6.349212e-02  9.133053e-02
   endloop
 endfacet
 facet normal  6.631227e-01  0.000000e+00 -7.485107e-01
   outer loop
     vertex  8.164714e-01 -1.587302e-02  7.867094e-02
     vertex  8.248731e-01 -6.349212e-02  8.611421e-02
     vertex  8.164714e-01 -6.349212e-02  7.867094e-02
   endloop
 endfacet
 facet normal  6.631227e-01  0.000000e+00 -7.485107e-01
   outer loop
     vertex  8.164714e-01 -1.587302e-02  7.867094e-02
     vertex  8.248731e-01 -1.587302e-02  8.611421e-02
     vertex  8.248731e-01 -6.349212e-02  8.611421e-02
   endloop
 endfacet
 facet normal  8.229839e-01  0.000000e+00 -5.680647e-01
   outer loop
     vertex  8.100951e-01 -1.587302e-02  6.943329e-02
     vertex  8.164714e-01 -1.587302e-02  7.867094e-02
     vertex  8.164714e-01 -6.349212e-02  7.867094e-02
   endloop
 endfacet
 facet normal  8.229839e-01  0.000000e+00 -5.680647e-01
   outer loop
     vertex  8.100951e-01 -1.587302e-02  6.943329e-02
     vertex  8.164714e-01 -6.349212e-02  7.867094e-02
     vertex  8.100951e-01 -6.349212e-02  6.943329e-02
   endloop
 endfacet
 facet normal  9.350162e-01  0.000000e+00 -3.546049e-01
   outer loop
     vertex  8.061148e-01 -1.587302e-02  5.893812e-02
     vertex  8.100951e-01 -1.587302e-02  6.943329e-02
     vertex  8.100951e-01 -6.349212e-02  6.943329e-02
   endloop
 endfacet
 facet normal  9.350162e-01  0.000000e+00 -3.546049e-01
   outer loop
     vertex  8.061148e-01 -1.587302e-02  5.893812e-02
     vertex  8.100951e-01 -6.349212e-02  6.943329e-02
     vertex  8.061148e-01 -6.349212e-02  5.893812e-02
   endloop
 endfacet
 facet normal  9.927089e-01  0.000000e+00 -1.205367e-01
   outer loop
     vertex  8.047618e-01 -1.587302e-02  4.779538e-02
     vertex  8.061148e-01 -1.587302e-02  5.893812e-02
     vertex  8.061148e-01 -6.349212e-02  5.893812e-02
   endloop
 endfacet
 facet normal  9.927089e-01  0.000000e+00 -1.205367e-01
   outer loop
     vertex  8.047618e-01 -1.587302e-02  4.779538e-02
     vertex  8.061148e-01 -6.349212e-02  5.893812e-02
     vertex  8.047618e-01 -6.349212e-02  4.779538e-02
   endloop
 endfacet
 facet normal  9.927089e-01  0.000000e+00  1.205367e-01
   outer loop
     vertex  8.061148e-01 -1.587302e-02  3.665264e-02
     vertex  8.047618e-01 -6.349212e-02  4.779538e-02
     vertex  8.061148e-01 -6.349212e-02  3.665264e-02
   endloop
 endfacet
 facet normal  9.927089e-01  0.000000e+00  1.205367e-01
   outer loop
     vertex  8.061148e-01 -1.587302e-02  3.665264e-02
     vertex  8.047618e-01 -1.587302e-02  4.779538e-02
     vertex  8.047618e-01 -6.349212e-02  4.779538e-02
   endloop
 endfacet
 facet normal  9.350162e-01  0.000000e+00  3.546049e-01
   outer loop
     vertex  8.100951e-01 -1.587302e-02  2.615748e-02
     vertex  8.061148e-01 -1.587302e-02  3.665264e-02
     vertex  8.061148e-01 -6.349212e-02  3.665264e-02
   endloop
 endfacet
 facet normal  9.350162e-01  0.000000e+00  3.546049e-01
   outer loop
     vertex  8.100951e-01 -1.587302e-02  2.615748e-02
     vertex  8.061148e-01 -6.349212e-02  3.665264e-02
     vertex  8.100951e-01 -6.349212e-02  2.615748e-02
   endloop
 endfacet
 facet normal  8.229839e-01  0.000000e+00  5.680647e-01
   outer loop
     vertex  8.164714e-01 -1.587302e-02  1.691983e-02
     vertex  8.100951e-01 -6.349212e-02  2.615748e-02
     vertex  8.164714e-01 -6.349212e-02  1.691983e-02
   endloop
 endfacet
 facet normal  8.229839e-01  0.000000e+00  5.680647e-01
   outer loop
     vertex  8.164714e-01 -1.587302e-02  1.691983e-02
     vertex  8.100951e-01 -1.587302e-02  2.615748e-02
     vertex  8.100951e-01 -6.349212e-02  2.615748e-02
   endloop
 endfacet
 facet normal  6.631227e-01  0.000000e+00  7.485107e-01
   outer loop
     vertex  8.248731e-01 -1.587302e-02  9.476553e-03
     vertex  8.164714e-01 -6.349212e-02  1.691983e-02
     vertex  8.248731e-01 -6.349212e-02  9.476553e-03
   endloop
 endfacet
 facet normal  6.631227e-01  0.000000e+00  7.485107e-01
   outer loop
     vertex  8.248731e-01 -1.587302e-02  9.476553e-03
     vertex  8.164714e-01 -1.587302e-02  1.691983e-02
     vertex  8.164714e-01 -6.349212e-02  1.691983e-02
   endloop
 endfacet
 facet normal  4.647232e-01  0.000000e+00  8.854560e-01
   outer loop
     vertex  8.348120e-01 -1.587302e-02  4.260230e-03
     vertex  8.248731e-01 -6.349212e-02  9.476553e-03
     vertex  8.348120e-01 -6.349212e-02  4.260230e-03
   endloop
 endfacet
 facet normal  4.647232e-01  0.000000e+00  8.854560e-01
   outer loop
     vertex  8.348120e-01 -1.587302e-02  4.260230e-03
     vertex  8.248731e-01 -1.587302e-02  9.476553e-03
     vertex  8.248731e-01 -6.349212e-02  9.476553e-03
   endloop
 endfacet
 facet normal  2.393157e-01  0.000000e+00  9.709418e-01
   outer loop
     vertex  8.457104e-01 -1.587302e-02  1.574012e-03
     vertex  8.348120e-01 -6.349212e-02  4.260230e-03
     vertex  8.457104e-01 -6.349212e-02  1.574012e-03
   endloop
 endfacet
 facet normal  2.393157e-01  0.000000e+00  9.709418e-01
   outer loop
     vertex  8.457104e-01 -1.587302e-02  1.574012e-03
     vertex  8.348120e-01 -1.587302e-02  4.260230e-03
     vertex  8.348120e-01 -6.349212e-02  4.260230e-03
   endloop
 endfacet
 facet normal  2.472749e-15  0.000000e+00  1.000000e+00
   outer loop
     vertex  8.569350e-01 -1.587302e-02  1.574012e-03
     vertex  8.457104e-01 -6.349212e-02  1.574012e-03
     vertex  8.569350e-01 -6.349212e-02  1.574012e-03
   endloop
 endfacet
 facet normal  2.472749e-15  0.000000e+00  1.000000e+00
   outer loop
     vertex  8.569350e-01 -1.587302e-02  1.574012e-03
     vertex  8.457104e-01 -1.587302e-02  1.574012e-03
     vertex  8.457104e-01 -6.349212e-02  1.574012e-03
   endloop
 endfacet
 facet normal -2.393157e-01  0.000000e+00  9.709418e-01
   outer loop
     vertex  8.678334e-01 -1.587302e-02  4.260230e-03
     vertex  8.569350e-01 -6.349212e-02  1.574012e-03
     vertex  8.678334e-01 -6.349212e-02  4.260230e-03
   endloop
 endfacet
 facet normal -2.393157e-01  0.000000e+00  9.709418e-01
   outer loop
     vertex  8.678334e-01 -1.587302e-02  4.260230e-03
     vertex  8.569350e-01 -1.587302e-02  1.574012e-03
     vertex  8.569350e-01 -6.349212e-02  1.574012e-03
   endloop
 endfacet
 facet normal -4.647232e-01  0.000000e+00  8.854560e-01
   outer loop
     vertex  8.777723e-01 -1.587302e-02  9.476553e-03
     vertex  8.678334e-01 -6.349212e-02  4.260230e-03
     vertex  8.777723e-01 -6.349212e-02  9.476553e-03
   endloop
 endfacet
 facet normal -4.647232e-01  0.000000e+00  8.854560e-01
   outer loop
     vertex  8.777723e-01 -1.587302e-02  9.476553e-03
     vertex  8.678334e-01 -1.587302e-02  4.260230e-03
     vertex  8.678334e-01 -6.349212e-02  4.260230e-03
   endloop
 endfacet
 facet normal -6.631227e-01  0.000000e+00  7.485107e-01
   outer loop
     vertex  8.861740e-01 -1.587302e-02  1.691983e-02
     vertex  8.777723e-01 -6.349212e-02  9.476553e-03
     vertex  8.861740e-01 -6.349212e-02  1.691983e-02
   endloop
 endfacet
 facet normal -6.631227e-01  0.000000e+00  7.485107e-01
   outer loop
     vertex  8.861740e-01 -1.587302e-02  1.691983e-02
     vertex  8.777723e-01 -1.587302e-02  9.476553e-03
     vertex  8.777723e-01 -6.349212e-02  9.476553e-03
   endloop
 endfacet
 facet normal -8.229839e-01  0.000000e+00  5.680647e-01
   outer loop
     vertex  8.925503e-01 -1.587302e-02  2.615748e-02
     vertex  8.861740e-01 -6.349212e-02  1.691983e-02
     vertex  8.925503e-01 -6.349212e-02  2.615748e-02
   endloop
 endfacet
 facet normal -8.229839e-01  0.000000e+00  5.680647e-01
   outer loop
     vertex  8.925503e-01 -1.587302e-02  2.615748e-02
     vertex  8.861740e-01 -1.587302e-02  1.691983e-02
     vertex  8.861740e-01 -6.349212e-02  1.691983e-02
   endloop
 endfacet
 facet normal -9.350162e-01  0.000000e+00  3.546049e-01
   outer loop
     vertex  8.965306e-01 -1.587302e-02  3.665264e-02
     vertex  8.925503e-01 -6.349212e-02  2.615748e-02
     vertex  8.965306e-01 -6.349212e-02  3.665264e-02
   endloop
 endfacet
 facet normal -9.927089e-01  0.000000e+00  1.205367e-01
   outer loop
     vertex  8.965306e-01 -1.587302e-02  3.665264e-02
     vertex  8.965306e-01 -6.349212e-02  3.665264e-02
     vertex  8.978836e-01 -6.349212e-02  4.779538e-02
   endloop
 endfacet
 facet normal -9.350162e-01  0.000000e+00  3.546049e-01
   outer loop
     vertex  8.965306e-01 -1.587302e-02  3.665264e-02
     vertex  8.925503e-01 -1.587302e-02  2.615748e-02
     vertex  8.925503e-01 -6.349212e-02  2.615748e-02
   endloop
 endfacet
 facet normal -9.927089e-01  0.000000e+00  1.205367e-01
   outer loop
     vertex  8.978836e-01 -1.587302e-02  4.779538e-02
     vertex  8.965306e-01 -1.587302e-02  3.665264e-02
     vertex  8.978836e-01 -6.349212e-02  4.779538e-02
   endloop
 endfacet
 facet normal  0.000000e+00  0.000000e+00  1.000000e+00
   outer loop
     vertex -3.333339e-02 -1.587302e-02  1.253968e-01
     vertex  9.289241e-01 -1.587302e-02  1.253968e-01
     vertex  9.289241e-01  0.000000e+00  1.253968e-01
   endloop
 endfacet
 facet normal  0.000000e+00  0.000000e+00  1.000000e+00
   outer loop
     vertex -3.333339e-02 -1.587302e-02  1.253968e-01
     vertex  9.289241e-01  0.000000e+00  1.253968e-01
     vertex -3.333339e-02  0.000000e+00  1.253968e-01
   endloop
 endfacet
 facet normal -9.927089e-01  0.000000e+00 -1.205367e-01
   outer loop
     vertex  8.947589e-02 -1.587302e-02  5.893812e-02
     vertex  9.082887e-02  0.000000e+00  4.779538e-02
     vertex  9.082887e-02 -1.587302e-02  4.779538e-02
   endloop
 endfacet
 facet normal -9.927089e-01  0.000000e+00 -1.205367e-01
   outer loop
     vertex  8.947589e-02 -1.587302e-02  5.893812e-02
     vertex  8.947589e-02  0.000000e+00  5.893812e-02
     vertex  9.082887e-02  0.000000e+00  4.779538e-02
   endloop
 endfacet
 facet normal -9.350162e-01  0.000000e+00 -3.546049e-01
   outer loop
     vertex  8.549560e-02 -1.587302e-02  6.943329e-02
     vertex  8.549560e-02  0.000000e+00  6.943329e-02
     vertex  8.947589e-02  0.000000e+00  5.893812e-02
   endloop
 endfacet
 facet normal -9.350162e-01  0.000000e+00 -3.546049e-01
   outer loop
     vertex  8.549560e-02 -1.587302e-02  6.943329e-02
     vertex  8.947589e-02  0.000000e+00  5.893812e-02
     vertex  8.947589e-02 -1.587302e-02  5.893812e-02
   endloop
 endfacet
 facet normal -8.229839e-01  0.000000e+00 -5.680647e-01
   outer loop
     vertex  7.911931e-02 -1.587302e-02  7.867094e-02
     vertex  7.911931e-02  0.000000e+00  7.867094e-02
     vertex  8.549560e-02  0.000000e+00  6.943329e-02
   endloop
 endfacet
 facet normal -8.229839e-01  0.000000e+00 -5.680647e-01
   outer loop
     vertex  7.911931e-02 -1.587302e-02  7.867094e-02
     vertex  8.549560e-02  0.000000e+00  6.943329e-02
     vertex  8.549560e-02 -1.587302e-02  6.943329e-02
   endloop
 endfacet
 facet normal -6.631227e-01  0.000000e+00 -7.485107e-01
   outer loop
     vertex  7.071759e-02 -1.587302e-02  8.611421e-02
     vertex  7.071759e-02  0.000000e+00  8.611421e-02
     vertex  7.911931e-02  0.000000e+00  7.867094e-02
   endloop
 endfacet
 facet normal -6.631227e-01  0.000000e+00 -7.485107e-01
   outer loop
     vertex  7.071759e-02 -1.587302e-02  8.611421e-02
     vertex  7.911931e-02  0.000000e+00  7.867094e-02
     vertex  7.911931e-02 -1.587302e-02  7.867094e-02
   endloop
 endfacet
 facet normal -4.647232e-01  0.000000e+00 -8.854560e-01
   outer loop
     vertex  6.077872e-02 -1.587302e-02  9.133053e-02
     vertex  6.077872e-02  0.000000e+00  9.133053e-02
     vertex  7.071759e-02  0.000000e+00  8.611421e-02
   endloop
 endfacet
 facet normal -4.647232e-01  0.000000e+00 -8.854560e-01
   outer loop
     vertex  6.077872e-02 -1.587302e-02  9.133053e-02
     vertex  7.071759e-02  0.000000e+00  8.611421e-02
     vertex  7.071759e-02 -1.587302e-02  8.611421e-02
   endloop
 endfacet
 facet normal -2.393157e-01  0.000000e+00 -9.709418e-01
   outer loop
     vertex  4.988031e-02 -1.587302e-02  9.401675e-02
     vertex  4.988031e-02  0.000000e+00  9.401675e-02
     vertex  6.077872e-02  0.000000e+00  9.133053e-02
   endloop
 endfacet
 facet normal -2.393157e-01  0.000000e+00 -9.709418e-01
   outer loop
     vertex  4.988031e-02 -1.587302e-02  9.401675e-02
     vertex  6.077872e-02  0.000000e+00  9.133053e-02
     vertex  6.077872e-02 -1.587302e-02  9.133053e-02
   endloop
 endfacet
 facet normal  0.000000e+00  0.000000e+00 -1.000000e+00
   outer loop
     vertex  3.865573e-02 -1.587302e-02  9.401675e-02
     vertex  3.865573e-02  0.000000e+00  9.401675e-02
     vertex  4.988031e-02  0.000000e+00  9.401675e-02
   endloop
 endfacet
 facet normal  0.000000e+00  0.000000e+00 -1.000000e+00
   outer loop
     vertex  3.865573e-02 -1.587302e-02  9.401675e-02
     vertex  4.988031e-02  0.000000e+00  9.401675e-02
     vertex  4.988031e-02 -1.587302e-02  9.401675e-02
   endloop
 endfacet
 facet normal  2.393157e-01  0.000000e+00 -9.709418e-01
   outer loop
     vertex  2.775731e-02 -1.587302e-02  9.133053e-02
     vertex  2.775731e-02  0.000000e+00  9.133053e-02
     vertex  3.865573e-02  0.000000e+00  9.401675e-02
   endloop
 endfacet
 facet normal  2.393157e-01  0.000000e+00 -9.709418e-01
   outer loop
     vertex  2.775731e-02 -1.587302e-02  9.133053e-02
     vertex  3.865573e-02  0.000000e+00  9.401675e-02
     vertex  3.865573e-02 -1.587302e-02  9.401675e-02
   endloop
 endfacet
 facet normal  4.647232e-01  0.000000e+00 -8.854560e-01
   outer loop
     vertex  1.781844e-02 -1.587302e-02  8.611421e-02
     vertex  1.781844e-02  0.000000e+00  8.611421e-02
     vertex  2.775731e-02  0.000000e+00  9.133053e-02
   endloop
 endfacet
 facet normal  4.647232e-01  0.000000e+00 -8.854560e-01
   outer loop
     vertex  1.781844e-02 -1.587302e-02  8.611421e-02
     vertex  2.775731e-02  0.000000e+00  9.133053e-02
     vertex  2.775731e-02 -1.587302e-02  9.133053e-02
   endloop
 endfacet
 facet normal  6.631227e-01  0.000000e+00 -7.485107e-01
   outer loop
     vertex  9.416718e-03 -1.587302e-02  7.867094e-02
     vertex  9.416718e-03  0.000000e+00  7.867094e-02
     vertex  1.781844e-02  0.000000e+00  8.611421e-02
   endloop
 endfacet
 facet normal  6.631227e-01  0.000000e+00 -7.485107e-01
   outer loop
     vertex  9.416718e-03 -1.587302e-02  7.867094e-02
     vertex  1.781844e-02  0.000000e+00  8.611421e-02
     vertex  1.781844e-02 -1.587302e-02  8.611421e-02
   endloop
 endfacet
 facet normal  8.229839e-01  0.000000e+00 -5.680647e-01
   outer loop
     vertex  3.040430e-03 -1.587302e-02  6.943329e-02
     vertex  9.416718e-03  0.000000e+00  7.867094e-02
     vertex  9.416718e-03 -1.587302e-02  7.867094e-02
   endloop
 endfacet
 facet normal  8.229839e-01  0.000000e+00 -5.680647e-01
   outer loop
     vertex  3.040430e-03 -1.587302e-02  6.943329e-02
     vertex  3.040430e-03  0.000000e+00  6.943329e-02
     vertex  9.416718e-03  0.000000e+00  7.867094e-02
   endloop
 endfacet
 facet normal  9.350162e-01  0.000000e+00 -3.546049e-01
   outer loop
     vertex -9.398614e-04 -1.587302e-02  5.893812e-02
     vertex  3.040430e-03  0.000000e+00  6.943329e-02
     vertex  3.040430e-03 -1.587302e-02  6.943329e-02
   endloop
 endfacet
 facet normal  9.350162e-01  0.000000e+00 -3.546049e-01
   outer loop
     vertex -9.398614e-04 -1.587302e-02  5.893812e-02
     vertex -9.398614e-04  0.000000e+00  5.893812e-02
     vertex  3.040430e-03  0.000000e+00  6.943329e-02
   endloop
 endfacet
 facet normal  9.927089e-01  0.000000e+00 -1.205367e-01
   outer loop
     vertex -2.292835e-03 -1.587302e-02  4.779538e-02
     vertex -9.398614e-04  0.000000e+00  5.893812e-02
     vertex -9.398614e-04 -1.587302e-02  5.893812e-02
   endloop
 endfacet
 facet normal  9.927089e-01  0.000000e+00 -1.205367e-01
   outer loop
     vertex -2.292835e-03 -1.587302e-02  4.779538e-02
     vertex -2.292835e-03  0.000000e+00  4.779538e-02
     vertex -9.398614e-04  0.000000e+00  5.893812e-02
   endloop
 endfacet
 facet normal  9.927089e-01 -0.000000e+00  1.205367e-01
   outer loop
     vertex -9.398614e-04 -1.587302e-02  3.665264e-02
     vertex -9.398614e-04  0.000000e+00  3.665264e-02
     vertex -2.292835e-03  0.000000e+00  4.779538e-02
   endloop
 endfacet
 facet normal  9.927089e-01  0.000000e+00  1.205367e-01
   outer loop
     vertex -9.398614e-04 -1.587302e-02  3.665264e-02
     vertex -2.292835e-03  0.000000e+00  4.779538e-02
     vertex -2.292835e-03 -1.587302e-02  4.779538e-02
   endloop
 endfacet
 facet normal  9.350162e-01  0.000000e+00  3.546049e-01
   outer loop
     vertex  3.040430e-03 -1.587302e-02  2.615748e-02
     vertex -9.398614e-04  0.000000e+00  3.665264e-02
     vertex -9.398614e-04 -1.587302e-02  3.665264e-02
   endloop
 endfacet
 facet normal  9.350162e-01 -0.000000e+00  3.546049e-01
   outer loop
     vertex  3.040430e-03 -1.587302e-02  2.615748e-02
     vertex  3.040430e-03  0.000000e+00  2.615748e-02
     vertex -9.398614e-04  0.000000e+00  3.665264e-02
   endloop
 endfacet
 facet normal  8.229839e-01 -0.000000e+00  5.680647e-01
   outer loop
     vertex  9.416718e-03 -1.587302e-02  1.691983e-02
     vertex  9.416718e-03  0.000000e+00  1.691983e-02
     vertex  3.040430e-03  0.000000e+00  2.615748e-02
   endloop
 endfacet
 facet normal  8.229839e-01  0.000000e+00  5.680647e-01
   outer loop
     vertex  9.416718e-03 -1.587302e-02  1.691983e-02
     vertex  3.040430e-03  0.000000e+00  2.615748e-02
     vertex  3.040430e-03 -1.587302e-02  2.615748e-02
   endloop
 endfacet
 facet normal  6.631227e-01 -0.000000e+00  7.485107e-01
   outer loop
     vertex  1.781844e-02 -1.587302e-02  9.476553e-03
     vertex  1.781844e-02  0.000000e+00  9.476553e-03
     vertex  9.416718e-03  0.000000e+00  1.691983e-02
   endloop
 endfacet
 facet normal  6.631227e-01  0.000000e+00  7.485107e-01
   outer loop
     vertex  1.781844e-02 -1.587302e-02  9.476553e-03
     vertex  9.416718e-03  0.000000e+00  1.691983e-02
     vertex  9.416718e-03 -1.587302e-02  1.691983e-02
   endloop
 endfacet
 facet normal  4.647232e-01 -0.000000e+00  8.854560e-01
   outer loop
     vertex  2.775731e-02 -1.587302e-02  4.260230e-03
     vertex  2.775731e-02  0.000000e+00  4.260230e-03
     vertex  1.781844e-02  0.000000e+00  9.476553e-03
   endloop
 endfacet
 facet normal  4.647232e-01  0.000000e+00  8.854560e-01
   outer loop
     vertex  2.775731e-02 -1.587302e-02  4.260230e-03
     vertex  1.781844e-02  0.000000e+00  9.476553e-03
     vertex  1.781844e-02 -1.587302e-02  9.476553e-03
   endloop
 endfacet
 facet normal  2.393157e-01 -0.000000e+00  9.709418e-01
   outer loop
     vertex  3.865573e-02 -1.587302e-02  1.574012e-03
     vertex  3.865573e-02  0.000000e+00  1.574012e-03
     vertex  2.775731e-02  0.000000e+00  4.260230e-03
   endloop
 endfacet
 facet normal  2.393157e-01  0.000000e+00  9.709418e-01
   outer loop
     vertex  3.865573e-02 -1.587302e-02  1.574012e-03
     vertex  2.775731e-02  0.000000e+00  4.260230e-03
     vertex  2.775731e-02 -1.587302e-02  4.260230e-03
   endloop
 endfacet
 facet normal  2.472749e-15 -0.000000e+00  1.000000e+00
   outer loop
     vertex  4.988031e-02 -1.587302e-02  1.574012e-03
     vertex  4.988031e-02  0.000000e+00  1.574012e-03
     vertex  3.865573e-02  0.000000e+00  1.574012e-03
   endloop
 endfacet
 facet normal  2.472749e-15  0.000000e+00  1.000000e+00
   outer loop
     vertex  4.988031e-02 -1.587302e-02  1.574012e-03
     vertex  3.865573e-02  0.000000e+00  1.574012e-03
     vertex  3.865573e-02 -1.587302e-02  1.574012e-03
   endloop
 endfacet
 facet normal -2.393157e-01  0.000000e+00  9.709418e-01
   outer loop
     vertex  6.077872e-02 -1.587302e-02  4.260230e-03
     vertex  6.077872e-02  0.000000e+00  4.260230e-03
     vertex  4.988031e-02  0.000000e+00  1.574012e-03
   endloop
 endfacet
 facet normal -2.393157e-01  0.000000e+00  9.709418e-01
   outer loop
     vertex  6.077872e-02 -1.587302e-02  4.260230e-03
     vertex  4.988031e-02  0.000000e+00  1.574012e-03
     vertex  4.988031e-02 -1.587302e-02  1.574012e-03
   endloop
 endfacet
 facet normal -4.647232e-01  0.000000e+00  8.854560e-01
   outer loop
     vertex  7.071759e-02 -1.587302e-02  9.476553e-03
     vertex  7.071759e-02  0.000000e+00  9.476553e-03
     vertex  6.077872e-02  0.000000e+00  4.260230e-03
   endloop
 endfacet
 facet normal -4.647232e-01  0.000000e+00  8.854560e-01
   outer loop
     vertex  7.071759e-02 -1.587302e-02  9.476553e-03
     vertex  6.077872e-02  0.000000e+00  4.260230e-03
     vertex  6.077872e-02 -1.587302e-02  4.260230e-03
   endloop
 endfacet
 facet normal -6.631227e-01  0.000000e+00  7.485107e-01
   outer loop
     vertex  7.911931e-02 -1.587302e-02  1.691983e-02
     vertex  7.911931e-02  0.000000e+00  1.691983e-02
     vertex  7.071759e-02  0.000000e+00  9.476553e-03
   endloop
 endfacet
 facet normal -6.631227e-01  0.000000e+00  7.485107e-01
   outer loop
     vertex  7.911931e-02 -1.587302e-02  1.691983e-02
     vertex  7.071759e-02  0.000000e+00  9.476553e-03
     vertex  7.071759e-02 -1.587302e-02  9.476553e-03
   endloop
 endfacet
 facet normal -8.229839e-01  0.000000e+00  5.680647e-01
   outer loop
     vertex  8.549560e-02 -1.587302e-02  2.615748e-02
     vertex  8.549560e-02  0.000000e+00  2.615748e-02
     vertex  7.911931e-02  0.000000e+00  1.691983e-02
   endloop
 endfacet
 facet normal -8.229839e-01  0.000000e+00  5.680647e-01
   outer loop
     vertex  8.549560e-02 -1.587302e-02  2.615748e-02
     vertex  7.911931e-02  0.000000e+00  1.691983e-02
     vertex  7.911931e-02 -1.587302e-02  1.691983e-02
   endloop
 endfacet
 facet normal -9.350162e-01  0.000000e+00  3.546049e-01
   outer loop
     vertex  8.947589e-02 -1.587302e-02  3.665264e-02
     vertex  8.947589e-02  0.000000e+00  3.665264e-02
     vertex  8.549560e-02  0.000000e+00  2.615748e-02
   endloop
 endfacet
 facet normal -9.350162e-01  0.000000e+00  3.546049e-01
   outer loop
     vertex  8.947589e-02 -1.587302e-02  3.665264e-02
     vertex  8.549560e-02  0.000000e+00  2.615748e-02
     vertex  8.549560e-02 -1.587302e-02  2.615748e-02
   endloop
 endfacet
 facet normal -9.927089e-01  0.000000e+00  1.205367e-01
   outer loop
     vertex  9.082887e-02 -1.587302e-02  4.779538e-02
     vertex  9.082887e-02  0.000000e+00  4.779538e-02
     vertex  8.947589e-02  0.000000e+00  3.665264e-02
   endloop
 endfacet
 facet normal -9.927089e-01  0.000000e+00  1.205367e-01
   outer loop
     vertex  9.082887e-02 -1.587302e-02  4.779538e-02
     vertex  8.947589e-02  0.000000e+00  3.665264e-02
     vertex  8.947589e-02 -1.587302e-02  3.665264e-02
   endloop
 endfacet
 facet normal -9.927089e-01  0.000000e+00 -1.205367e-01
   outer loop
     vertex  8.965306e-01 -1.587302e-02  5.893812e-02
     vertex  8.978836e-01  0.000000e+00  4.779538e-02
     vertex  8.978836e-01 -1.587302e-02  4.779538e-02
   endloop
 endfacet
 facet normal -9.927089e-01  0.000000e+00 -1.205367e-01
   outer loop
     vertex  8.965306e-01 -1.587302e-02  5.893812e-02
     vertex  8.965306e-01  0.000000e+00  5.893812e-02
     vertex  8.978836e-01  0.000000e+00  4.779538e-02
   endloop
 endfacet
 facet normal -9.350162e-01  0.000000e+00 -3.546049e-01
   outer loop
     vertex  8.925503e-01 -1.587302e-02  6.943329e-02
     vertex  8.925503e-01  0.000000e+00  6.943329e-02
     vertex  8.965306e-01  0.000000e+00  5.893812e-02
   endloop
 endfacet
 facet normal -9.350162e-01  0.000000e+00 -3.546049e-01
   outer loop
     vertex  8.925503e-01 -1.587302e-02  6.943329e-02
     vertex  8.965306e-01  0.000000e+00  5.893812e-02
     vertex  8.965306e-01 -1.587302e-02  5.893812e-02
   endloop
 endfacet
 facet normal -8.229839e-01  0.000000e+00 -5.680647e-01
   outer loop
     vertex  8.861740e-01 -1.587302e-02  7.867094e-02
     vertex  8.861740e-01  0.000000e+00  7.867094e-02
     vertex  8.925503e-01  0.000000e+00  6.943329e-02
   endloop
 endfacet
 facet normal -8.229839e-01  0.000000e+00 -5.680647e-01
   outer loop
     vertex  8.861740e-01 -1.587302e-02  7.867094e-02
     vertex  8.925503e-01  0.000000e+00  6.943329e-02
     vertex  8.925503e-01 -1.587302e-02  6.943329e-02
   endloop
 endfacet
 facet normal -6.631227e-01  0.000000e+00 -7.485107e-01
   outer loop
     vertex  8.777723e-01 -1.587302e-02  8.611421e-02
     vertex  8.777723e-01  0.000000e+00  8.611421e-02
     vertex  8.861740e-01  0.000000e+00  7.867094e-02
   endloop
 endfacet
 facet normal -6.631227e-01  0.000000e+00 -7.485107e-01
   outer loop
     vertex  8.777723e-01 -1.587302e-02  8.611421e-02
     vertex  8.861740e-01  0.000000e+00  7.867094e-02
     vertex  8.861740e-01 -1.587302e-02  7.867094e-02
   endloop
 endfacet
 facet normal -4.647232e-01  0.000000e+00 -8.854560e-01
   outer loop
     vertex  8.678334e-01 -1.587302e-02  9.133053e-02
     vertex  8.678334e-01  0.000000e+00  9.133053e-02
     vertex  8.777723e-01  0.000000e+00  8.611421e-02
   endloop
 endfacet
 facet normal -4.647232e-01  0.000000e+00 -8.854560e-01
   outer loop
     vertex  8.678334e-01 -1.587302e-02  9.133053e-02
     vertex  8.777723e-01  0.000000e+00  8.611421e-02
     vertex  8.777723e-01 -1.587302e-02  8.611421e-02
   endloop
 endfacet
 facet normal -2.393157e-01  0.000000e+00 -9.709418e-01
   outer loop
     vertex  8.569350e-01 -1.587302e-02  9.401675e-02
     vertex  8.569350e-01  0.000000e+00  9.401675e-02
     vertex  8.678334e-01  0.000000e+00  9.133053e-02
   endloop
 endfacet
 facet normal -2.393157e-01  0.000000e+00 -9.709418e-01
   outer loop
     vertex  8.569350e-01 -1.587302e-02  9.401675e-02
     vertex  8.678334e-01  0.000000e+00  9.133053e-02
     vertex  8.678334e-01 -1.587302e-02  9.133053e-02
   endloop
 endfacet
 facet normal  0.000000e+00  0.000000e+00 -1.000000e+00
   outer loop
     vertex  8.457104e-01 -1.587302e-02  9.401675e-02
     vertex  8.457104e-01  0.000000e+00  9.401675e-02
     vertex  8.569350e-01  0.000000e+00  9.401675e-02
   endloop
 endfacet
 facet normal  0.000000e+00  0.000000e+00 -1.000000e+00
   outer loop
     vertex  8.457104e-01 -1.587302e-02  9.401675e-02
     vertex  8.569350e-01  0.000000e+00  9.401675e-02
     vertex  8.569350e-01 -1.587302e-02  9.401675e-02
   endloop
 endfacet
 facet normal  2.393157e-01  0.000000e+00 -9.709418e-01
   outer loop
     vertex  8.348120e-01 -1.587302e-02  9.133053e-02
     vertex  8.348120e-01  0.000000e+00  9.133053e-02
     vertex  8.457104e-01  0.000000e+00  9.401675e-02
   endloop
 endfacet
 facet normal  2.393157e-01  0.000000e+00 -9.709418e-01
   outer loop
     vertex  8.348120e-01 -1.587302e-02  9.133053e-02
     vertex  8.457104e-01  0.000000e+00  9.401675e-02
     vertex  8.457104e-01 -1.587302e-02  9.401675e-02
   endloop
 endfacet
 facet normal  4.647232e-01  0.000000e+00 -8.854560e-01
   outer loop
     vertex  8.248731e-01 -1.587302e-02  8.611421e-02
     vertex  8.248731e-01  0.000000e+00  8.611421e-02
     vertex  8.348120e-01  0.000000e+00  9.133053e-02
   endloop
 endfacet
 facet normal  4.647232e-01  0.000000e+00 -8.854560e-01
   outer loop
     vertex  8.248731e-01 -1.587302e-02  8.611421e-02
     vertex  8.348120e-01  0.000000e+00  9.133053e-02
     vertex  8.348120e-01 -1.587302e-02  9.133053e-02
   endloop
 endfacet
 facet normal  6.631227e-01  0.000000e+00 -7.485107e-01
   outer loop
     vertex  8.164714e-01 -1.587302e-02  7.867094e-02
     vertex  8.164714e-01  0.000000e+00  7.867094e-02
     vertex  8.248731e-01  0.000000e+00  8.611421e-02
   endloop
 endfacet
 facet normal  6.631227e-01  0.000000e+00 -7.485107e-01
   outer loop
     vertex  8.164714e-01 -1.587302e-02  7.867094e-02
     vertex  8.248731e-01  0.000000e+00  8.611421e-02
     vertex  8.248731e-01 -1.587302e-02  8.611421e-02
   endloop
 endfacet
 facet normal  8.229839e-01  0.000000e+00 -5.680647e-01
   outer loop
     vertex  8.100951e-01 -1.587302e-02  6.943329e-02
     vertex  8.164714e-01  0.000000e+00  7.867094e-02
     vertex  8.164714e-01 -1.587302e-02  7.867094e-02
   endloop
 endfacet
 facet normal  8.229839e-01  0.000000e+00 -5.680647e-01
   outer loop
     vertex  8.100951e-01 -1.587302e-02  6.943329e-02
     vertex  8.100951e-01  0.000000e+00  6.943329e-02
     vertex  8.164714e-01  0.000000e+00  7.867094e-02
   endloop
 endfacet
 facet normal  9.350162e-01  0.000000e+00 -3.546049e-01
   outer loop
     vertex  8.061148e-01 -1.587302e-02  5.893812e-02
     vertex  8.100951e-01  0.000000e+00  6.943329e-02
     vertex  8.100951e-01 -1.587302e-02  6.943329e-02
   endloop
 endfacet
 facet normal  9.350162e-01  0.000000e+00 -3.546049e-01
   outer loop
     vertex  8.061148e-01 -1.587302e-02  5.893812e-02
     vertex  8.061148e-01  0.000000e+00  5.893812e-02
     vertex  8.100951e-01  0.000000e+00  6.943329e-02
   endloop
 endfacet
 facet normal  9.927089e-01  0.000000e+00 -1.205367e-01
   outer loop
     vertex  8.047618e-01 -1.587302e-02  4.779538e-02
     vertex  8.061148e-01  0.000000e+00  5.893812e-02
     vertex  8.061148e-01 -1.587302e-02  5.893812e-02
   endloop
 endfacet
 facet normal  9.927089e-01  0.000000e+00 -1.205367e-01
   outer loop
     vertex  8.047618e-01 -1.587302e-02  4.779538e-02
     vertex  8.047618e-01  0.000000e+00  4.779538e-02
     vertex  8.061148e-01  0.000000e+00  5.893812e-02
   endloop
 endfacet
 facet normal  9.927089e-01 -0.000000e+00  1.205367e-01
   outer loop
     vertex  8.061148e-01 -1.587302e-02  3.665264e-02
     vertex  8.061148e-01  0.000000e+00  3.665264e-02
     vertex  8.047618e-01  0.000000e+00  4.779538e-02
   endloop
 endfacet
 facet normal  9.927089e-01  0.000000e+00  1.205367e-01
   outer loop
     vertex  8.061148e-01 -1.587302e-02  3.665264e-02
     vertex  8.047618e-01  0.000000e+00  4.779538e-02
     vertex  8.047618e-01 -1.587302e-02  4.779538e-02
   endloop
 endfacet
 facet normal  9.350162e-01  0.000000e+00  3.546049e-01
   outer loop
     vertex  8.100951e-01 -1.587302e-02  2.615748e-02
     vertex  8.061148e-01  0.000000e+00  3.665264e-02
     vertex  8.061148e-01 -1.587302e-02  3.665264e-02
   endloop
 endfacet
 facet normal  9.350162e-01 -0.000000e+00  3.546049e-01
   outer loop
     vertex  8.100951e-01 -1.587302e-02  2.615748e-02
     vertex  8.100951e-01  0.000000e+00  2.615748e-02
     vertex  8.061148e-01  0.000000e+00  3.665264e-02
   endloop
 endfacet
 facet normal  8.229839e-01 -0.000000e+00  5.680647e-01
   outer loop
     vertex  8.164714e-01 -1.587302e-02  1.691983e-02
     vertex  8.164714e-01  0.000000e+00  1.691983e-02
     vertex  8.100951e-01  0.000000e+00  2.615748e-02
   endloop
 endfacet
 facet normal  8.229839e-01  0.000000e+00  5.680647e-01
   outer loop
     vertex  8.164714e-01 -1.587302e-02  1.691983e-02
     vertex  8.100951e-01  0.000000e+00  2.615748e-02
     vertex  8.100951e-01 -1.587302e-02  2.615748e-02
   endloop
 endfacet
 facet normal  6.631227e-01 -0.000000e+00  7.485107e-01
   outer loop
     vertex  8.248731e-01 -1.587302e-02  9.476553e-03
     vertex  8.248731e-01  0.000000e+00  9.476553e-03
     vertex  8.164714e-01  0.000000e+00  1.691983e-02
   endloop
 endfacet
 facet normal  6.631227e-01  0.000000e+00  7.485107e-01
   outer loop
     vertex  8.248731e-01 -1.587302e-02  9.476553e-03
     vertex  8.164714e-01  0.000000e+00  1.691983e-02
     vertex  8.164714e-01 -1.587302e-02  1.691983e-02
   endloop
 endfacet
 facet normal  4.647232e-01 -0.000000e+00  8.854560e-01
   outer loop
     vertex  8.348120e-01 -1.587302e-02  4.260230e-03
     vertex  8.348120e-01  0.000000e+00  4.260230e-03
     vertex  8.248731e-01  0.000000e+00  9.476553e-03
   endloop
 endfacet
 facet normal  4.647232e-01  0.000000e+00  8.854560e-01
   outer loop
     vertex  8.348120e-01 -1.587302e-02  4.260230e-03
     vertex  8.248731e-01  0.000000e+00  9.476553e-03
     vertex  8.248731e-01 -1.587302e-02  9.476553e-03
   endloop
 endfacet
 facet normal  2.393157e-01 -0.000000e+00  9.709418e-01
   outer loop
     vertex  8.457104e-01 -1.587302e-02  1.574012e-03
     vertex  8.457104e-01  0.000000e+00  1.574012e-03
     vertex  8.348120e-01  0.000000e+00  4.260230e-03
   endloop
 endfacet
 facet normal  2.393157e-01  0.000000e+00  9.709418e-01
   outer loop
     vertex  8.457104e-01 -1.587302e-02  1.574012e-03
     vertex  8.348120e-01  0.000000e+00  4.260230e-03
     vertex  8.348120e-01 -1.587302e-02  4.260230e-03
   endloop
 endfacet
 facet normal  2.472749e-15 -0.000000e+00  1.000000e+00
   outer loop
     vertex  8.569350e-01 -1.587302e-02  1.574012e-03
     vertex  8.569350e-01  0.000000e+00  1.574012e-03
     vertex  8.457104e-01  0.000000e+00  1.574012e-03
   endloop
 endfacet
 facet normal  2.472749e-15  0.000000e+00  1.000000e+00
   outer loop
     vertex  8.569350e-01 -1.587302e-02  1.574012e-03
     vertex  8.457104e-01  0.000000e+00  1.574012e-03
     vertex  8.457104e-01 -1.587302e-02  1.574012e-03
   endloop
 endfacet
 facet normal -2.393157e-01  0.000000e+00  9.709418e-01
   outer loop
     vertex  8.678334e-01 -1.587302e-02  4.260230e-03
     vertex  8.678334e-01  0.000000e+00  4.260230e-03
     vertex  8.569350e-01  0.000000e+00  1.574012e-03
   endloop
 endfacet
 facet normal -2.393157e-01  0.000000e+00  9.709418e-01
   outer loop
     vertex  8.678334e-01 -1.587302e-02  4.260230e-03
     vertex  8.569350e-01  0.000000e+00  1.574012e-03
     vertex  8.569350e-01 -1.587302e-02  1.574012e-03
   endloop
 endfacet
 facet normal -4.647232e-01  0.000000e+00  8.854560e-01
   outer loop
     vertex  8.777723e-01 -1.587302e-02  9.476553e-03
     vertex  8.777723e-01  0.000000e+00  9.476553e-03
     vertex  8.678334e-01  0.000000e+00  4.260230e-03
   endloop
 endfacet
 facet normal -4.647232e-01  0.000000e+00  8.854560e-01
   outer loop
     vertex  8.777723e-01 -1.587302e-02  9.476553e-03
     vertex  8.678334e-01  0.000000e+00  4.260230e-03
     vertex  8.678334e-01 -1.587302e-02  4.260230e-03
   endloop
 endfacet
 facet normal -6.631227e-01  0.000000e+00  7.485107e-01
   outer loop
     vertex  8.861740e-01 -1.587302e-02  1.691983e-02
     vertex  8.861740e-01  0.000000e+00  1.691983e-02
     vertex  8.777723e-01  0.000000e+00  9.476553e-03
   endloop
 endfacet
 facet normal -6.631227e-01  0.000000e+00  7.485107e-01
   outer loop
     vertex  8.861740e-01 -1.587302e-02  1.691983e-02
     vertex  8.777723e-01  0.000000e+00  9.476553e-03
     vertex  8.777723e-01 -1.587302e-02  9.476553e-03
   endloop
 endfacet
 facet normal -8.229839e-01  0.000000e+00  5.680647e-01
   outer loop
     vertex  8.925503e-01 -1.587302e-02  2.615748e-02
     vertex  8.925503e-01  0.000000e+00  2.615748e-02
     vertex  8.861740e-01  0.000000e+00  1.691983e-02
   endloop
 endfacet
 facet normal -8.229839e-01  0.000000e+00  5.680647e-01
   outer loop
     vertex  8.925503e-01 -1.587302e-02  2.615748e-02
     vertex  8.861740e-01  0.000000e+00  1.691983e-02
     vertex  8.861740e-01 -1.587302e-02  1.691983e-02
   endloop
 endfacet
 facet normal -9.350162e-01  0.000000e+00  3.546049e-01
   outer loop
     vertex  8.965306e-01 -1.587302e-02  3.665264e-02
     vertex  8.965306e-01  0.000000e+00  3.665264e-02
     vertex  8.925503e-01  0.000000e+00  2.615748e-02
   endloop
 endfacet
 facet normal -9.350162e-01  0.000000e+00  3.546049e-01
   outer loop
     vertex  8.965306e-01 -1.587302e-02  3.665264e-02
     vertex  8.925503e-01  0.000000e+00  2.615748e-02
     vertex  8.925503e-01 -1.587302e-02  2.615748e-02
   endloop
 endfacet
 facet normal -9.927089e-01  0.000000e+00  1.205367e-01
   outer loop
     vertex  8.978836e-01 -1.587302e-02  4.779538e-02
     vertex  8.978836e-01  0.000000e+00  4.779538e-02
     vertex  8.965306e-01  0.000000e+00  3.665264e-02
   endloop
 endfacet
 facet normal -9.927089e-01  0.000000e+00  1.205367e-01
   outer loop
     vertex  8.978836e-01 -1.587302e-02  4.779538e-02
     vertex  8.965306e-01  0.000000e+00  3.665264e-02
     vertex  8.965306e-01 -1.587302e-02  3.665264e-02
   endloop
 endfacet
endsolid
