solid 
 facet normal -1.000000e+00  0.000000e+00  0.000000e+00
   outer loop
     vertex -1.014286e+00 -1.587302e-02  1.285714e-01
     vertex -1.014286e+00 -3.174604e-01  9.356261e-01
     vertex -1.014286e+00 -1.587302e-02  9.356261e-01
   endloop
 endfacet
 facet normal -1.000000e+00  0.000000e+00  0.000000e+00
   outer loop
     vertex -1.014286e+00 -1.587302e-02  1.285714e-01
     vertex -1.014286e+00 -3.174604e-01  1.285714e-01
     vertex -1.014286e+00 -3.174604e-01  9.356261e-01
   endloop
 endfacet
 facet normal -0.000000e+00  0.000000e+00  1.000000e+00
   outer loop
     vertex -1.014286e+00 -1.587302e-02  9.356261e-01
     vertex -2.072310e-01 -3.174604e-01  9.356261e-01
     vertex -2.072310e-01 -1.587302e-02  9.356261e-01
   endloop
 endfacet
 facet normal  0.000000e+00  0.000000e+00  1.000000e+00
   outer loop
     vertex -1.014286e+00 -1.587302e-02  9.356261e-01
     vertex -1.014286e+00 -3.174604e-01  9.356261e-01
     vertex -2.072310e-01 -3.174604e-01  9.356261e-01
   endloop
 endfacet
 facet normal -0.000000e+00  0.000000e+00 -1.000000e+00
   outer loop
     vertex -2.072310e-01 -1.587302e-02  1.285714e-01
     vertex -1.014286e+00 -3.174604e-01  1.285714e-01
     vertex -1.014286e+00 -1.587302e-02  1.285714e-01
   endloop
 endfacet
 facet normal  0.000000e+00 -0.000000e+00 -1.000000e+00
   outer loop
     vertex -2.072310e-01 -1.587302e-02  1.285714e-01
     vertex -2.072310e-01 -3.174604e-01  1.285714e-01
     vertex -1.014286e+00 -3.174604e-01  1.285714e-01
   endloop
 endfacet
 facet normal -1.000000e+00  0.000000e+00  0.000000e+00
   outer loop
     vertex -1.014286e+00 -1.587302e-02  1.285714e-01
     vertex -1.014286e+00 -1.587302e-02  9.356261e-01
     vertex -1.014286e+00  0.000000e+00  9.356261e-01
   endloop
 endfacet
 facet normal -1.000000e+00  0.000000e+00  0.000000e+00
   outer loop
     vertex -1.014286e+00 -1.587302e-02  1.285714e-01
     vertex -1.014286e+00  0.000000e+00  9.356261e-01
     vertex -1.014286e+00  0.000000e+00  1.285714e-01
   endloop
 endfacet
 facet normal -0.000000e+00 -1.000000e+00  0.000000e+00
   outer loop
     vertex -4.823633e-01 -3.174604e-01  4.037037e-01
     vertex -1.014286e+00 -3.174604e-01  9.356261e-01
     vertex -1.014286e+00 -3.174604e-01  1.285714e-01
   endloop
 endfacet
 facet normal  0.000000e+00 -1.000000e+00 -0.000000e+00
   outer loop
     vertex -4.823633e-01 -3.174604e-01  4.037037e-01
     vertex -1.014286e+00 -3.174604e-01  1.285714e-01
     vertex -2.072310e-01 -3.174604e-01  1.285714e-01
   endloop
 endfacet
 facet normal -0.000000e+00 -1.000000e+00 -0.000000e+00
   outer loop
     vertex -4.823633e-01 -3.174604e-01  6.604939e-01
     vertex -1.014286e+00 -3.174604e-01  9.356261e-01
     vertex -4.823633e-01 -3.174604e-01  4.037037e-01
   endloop
 endfacet
 facet normal -0.000000e+00 -1.000000e+00 -0.000000e+00
   outer loop
     vertex -2.072310e-01 -3.174604e-01  4.037037e-01
     vertex -4.823633e-01 -3.174604e-01  4.037037e-01
     vertex -2.072310e-01 -3.174604e-01  1.285714e-01
   endloop
 endfacet
 facet normal  0.000000e+00 -1.000000e+00 -0.000000e+00
   outer loop
     vertex -2.072310e-01 -3.174604e-01  9.356261e-01
     vertex -4.823633e-01 -3.174604e-01  6.604939e-01
     vertex -2.072310e-01 -3.174604e-01  6.604939e-01
   endloop
 endfacet
 facet normal -0.000000e+00 -1.000000e+00  0.000000e+00
   outer loop
     vertex -2.072310e-01 -3.174604e-01  9.356261e-01
     vertex -1.014286e+00 -3.174604e-01  9.356261e-01
     vertex -4.823633e-01 -3.174604e-01  6.604939e-01
   endloop
 endfacet
 facet normal  1.000000e+00  0.000000e+00  0.000000e+00
   outer loop
     vertex -2.072310e-01 -1.587302e-02  9.356261e-01
     vertex -2.072310e-01 -3.174604e-01  6.604939e-01
     vertex -2.072310e-01 -1.587302e-02  6.604939e-01
   endloop
 endfacet
 facet normal  1.000000e+00  0.000000e+00  0.000000e+00
   outer loop
     vertex -2.072310e-01 -1.587302e-02  9.356261e-01
     vertex -2.072310e-01 -3.174604e-01  9.356261e-01
     vertex -2.072310e-01 -3.174604e-01  6.604939e-01
   endloop
 endfacet
 facet normal  0.000000e+00  0.000000e+00  1.000000e+00
   outer loop
     vertex -1.014286e+00 -1.587302e-02  9.356261e-01
     vertex -2.072310e-01 -1.587302e-02  9.356261e-01
     vertex -2.072310e-01  0.000000e+00  9.356261e-01
   endloop
 endfacet
 facet normal  0.000000e+00  0.000000e+00  1.000000e+00
   outer loop
     vertex -1.014286e+00 -1.587302e-02  9.356261e-01
     vertex -2.072310e-01  0.000000e+00  9.356261e-01
     vertex -1.014286e+00  0.000000e+00  9.356261e-01
   endloop
 endfacet
 facet normal  1.000000e+00  0.000000e+00  0.000000e+00
   outer loop
     vertex -2.072310e-01 -1.587302e-02  4.037037e-01
     vertex -2.072310e-01 -3.174604e-01  1.285714e-01
     vertex -2.072310e-01 -1.587302e-02  1.285714e-01
   endloop
 endfacet
 facet normal  1.000000e+00  0.000000e+00  0.000000e+00
   outer loop
     vertex -2.072310e-01 -1.587302e-02  4.037037e-01
     vertex -2.072310e-01 -3.174604e-01  4.037037e-01
     vertex -2.072310e-01 -3.174604e-01  1.285714e-01
   endloop
 endfacet
 facet normal  0.000000e+00  0.000000e+00 -1.000000e+00
   outer loop
     vertex -2.072310e-01 -1.587302e-02  1.285714e-01
     vertex -1.014286e+00 -1.587302e-02  1.285714e-01
     vertex -1.014286e+00  0.000000e+00  1.285714e-01
   endloop
 endfacet
 facet normal  0.000000e+00  0.000000e+00 -1.000000e+00
   outer loop
     vertex -2.072310e-01 -1.587302e-02  1.285714e-01
     vertex -1.014286e+00  0.000000e+00  1.285714e-01
     vertex -2.072310e-01  0.000000e+00  1.285714e-01
   endloop
 endfacet
 facet normal  0.000000e+00  1.000000e+00  0.000000e+00
   outer loop
     vertex -4.823633e-01  1.040834e-17  4.037037e-01
     vertex -1.014286e+00  1.040834e-17  1.285714e-01
     vertex -1.014286e+00  1.040834e-17  9.356261e-01
   endloop
 endfacet
 facet normal  0.000000e+00  1.000000e+00  0.000000e+00
   outer loop
     vertex -4.823633e-01  1.040834e-17  4.037037e-01
     vertex -2.072310e-01  1.040834e-17  1.285714e-01
     vertex -1.014286e+00  1.040834e-17  1.285714e-01
   endloop
 endfacet
 facet normal  0.000000e+00  1.000000e+00  0.000000e+00
   outer loop
     vertex -4.823633e-01  1.040834e-17  6.604939e-01
     vertex -4.823633e-01  1.040834e-17  4.037037e-01
     vertex -1.014286e+00  1.040834e-17  9.356261e-01
   endloop
 endfacet
 facet normal  0.000000e+00  1.000000e+00  0.000000e+00
   outer loop
     vertex -2.072310e-01  1.040834e-17  4.037037e-01
     vertex -2.072310e-01  1.040834e-17  1.285714e-01
     vertex -4.823633e-01  1.040834e-17  4.037037e-01
   endloop
 endfacet
 facet normal  0.000000e+00  1.000000e+00  0.000000e+00
   outer loop
     vertex -2.072310e-01  1.040834e-17  9.356261e-01
     vertex -2.072310e-01  1.040834e-17  6.604939e-01
     vertex -4.823633e-01  1.040834e-17  6.604939e-01
   endloop
 endfacet
 facet normal  0.000000e+00  1.000000e+00  0.000000e+00
   outer loop
     vertex -2.072310e-01  1.040834e-17  9.356261e-01
     vertex -4.823633e-01  1.040834e-17  6.604939e-01
     vertex -1.014286e+00  1.040834e-17  9.356261e-01
   endloop
 endfacet
 facet normal -0.000000e+00  0.000000e+00  1.000000e+00
   outer loop
     vertex -4.823633e-01 -1.587302e-02  4.037037e-01
     vertex -2.072310e-01 -3.174604e-01  4.037037e-01
     vertex -2.072310e-01 -1.587302e-02  4.037037e-01
   endloop
 endfacet
 facet normal  0.000000e+00  0.000000e+00  1.000000e+00
   outer loop
     vertex -4.823633e-01 -1.587302e-02  4.037037e-01
     vertex -4.823633e-01 -3.174604e-01  4.037037e-01
     vertex -2.072310e-01 -3.174604e-01  4.037037e-01
   endloop
 endfacet
 facet normal  1.000000e+00  0.000000e+00  0.000000e+00
   outer loop
     vertex -4.823633e-01 -1.587302e-02  6.604939e-01
     vertex -4.823633e-01 -3.174604e-01  4.037037e-01
     vertex -4.823633e-01 -1.587302e-02  4.037037e-01
   endloop
 endfacet
 facet normal  1.000000e+00  0.000000e+00  0.000000e+00
   outer loop
     vertex -4.823633e-01 -1.587302e-02  6.604939e-01
     vertex -4.823633e-01 -3.174604e-01  6.604939e-01
     vertex -4.823633e-01 -3.174604e-01  4.037037e-01
   endloop
 endfacet
 facet normal -0.000000e+00  0.000000e+00 -1.000000e+00
   outer loop
     vertex -2.072310e-01 -1.587302e-02  6.604939e-01
     vertex -4.823633e-01 -3.174604e-01  6.604939e-01
     vertex -4.823633e-01 -1.587302e-02  6.604939e-01
   endloop
 endfacet
 facet normal  0.000000e+00 -0.000000e+00 -1.000000e+00
   outer loop
     vertex -2.072310e-01 -1.587302e-02  6.604939e-01
     vertex -2.072310e-01 -3.174604e-01  6.604939e-01
     vertex -4.823633e-01 -3.174604e-01  6.604939e-01
   endloop
 endfacet
 facet normal  1.000000e+00  0.000000e+00  0.000000e+00
   outer loop
     vertex -2.072310e-01 -1.587302e-02  9.356261e-01
     vertex -2.072310e-01 -1.587302e-02  6.604939e-01
     vertex -2.072310e-01  0.000000e+00  6.604939e-01
   endloop
 endfacet
 facet normal  1.000000e+00 -0.000000e+00  0.000000e+00
   outer loop
     vertex -2.072310e-01 -1.587302e-02  9.356261e-01
     vertex -2.072310e-01  0.000000e+00  6.604939e-01
     vertex -2.072310e-01  0.000000e+00  9.356261e-01
   endloop
 endfacet
 facet normal  1.000000e+00  0.000000e+00  0.000000e+00
   outer loop
     vertex -2.072310e-01 -1.587302e-02  4.037037e-01
     vertex -2.072310e-01 -1.587302e-02  1.285714e-01
     vertex -2.072310e-01  0.000000e+00  1.285714e-01
   endloop
 endfacet
 facet normal  1.000000e+00 -0.000000e+00  0.000000e+00
   outer loop
     vertex -2.072310e-01 -1.587302e-02  4.037037e-01
     vertex -2.072310e-01  0.000000e+00  1.285714e-01
     vertex -2.072310e-01  0.000000e+00  4.037037e-01
   endloop
 endfacet
 facet normal  0.000000e+00  0.000000e+00  1.000000e+00
   outer loop
     vertex -4.823633e-01 -1.587302e-02  4.037037e-01
     vertex -2.072310e-01 -1.587302e-02  4.037037e-01
     vertex -2.072310e-01  0.000000e+00  4.037037e-01
   endloop
 endfacet
 facet normal  0.000000e+00  0.000000e+00  1.000000e+00
   outer loop
     vertex -4.823633e-01 -1.587302e-02  4.037037e-01
     vertex -2.072310e-01  0.000000e+00  4.037037e-01
     vertex -4.823633e-01  0.000000e+00  4.037037e-01
   endloop
 endfacet
 facet normal  1.000000e+00  0.000000e+00  0.000000e+00
   outer loop
     vertex -4.823633e-01 -1.587302e-02  6.604939e-01
     vertex -4.823633e-01 -1.587302e-02  4.037037e-01
     vertex -4.823633e-01  0.000000e+00  4.037037e-01
   endloop
 endfacet
 facet normal  1.000000e+00 -0.000000e+00  0.000000e+00
   outer loop
     vertex -4.823633e-01 -1.587302e-02  6.604939e-01
     vertex -4.823633e-01  0.000000e+00  4.037037e-01
     vertex -4.823633e-01  0.000000e+00  6.604939e-01
   endloop
 endfacet
 facet normal  0.000000e+00  0.000000e+00 -1.000000e+00
   outer loop
     vertex -2.072310e-01 -1.587302e-02  6.604939e-01
     vertex -4.823633e-01 -1.587302e-02  6.604939e-01
     vertex -4.823633e-01  0.000000e+00  6.604939e-01
   endloop
 endfacet
 facet normal  0.000000e+00  0.000000e+00 -1.000000e+00
   outer loop
     vertex -2.072310e-01 -1.587302e-02  6.604939e-01
     vertex -4.823633e-01  0.000000e+00  6.604939e-01
     vertex -2.072310e-01  0.000000e+00  6.604939e-01
   endloop
 endfacet
endsolid
