solid 
 facet normal -8.944273e-01 -4.472134e-01  0.000000e+00
   outer loop
     vertex -3.807762e-01 -2.698416e-02 -1.587302e-02
     vertex -4.428573e-01  9.717809e-02  3.174609e-02
     vertex -4.428573e-01  9.717809e-02 -1.587302e-02
   endloop
 endfacet
 facet normal -8.944273e-01 -4.472134e-01  0.000000e+00
   outer loop
     vertex -3.807762e-01 -2.698416e-02 -1.587302e-02
     vertex -3.807762e-01 -2.698416e-02  3.174609e-02
     vertex -4.428573e-01  9.717809e-02  3.174609e-02
   endloop
 endfacet
 facet normal -9.987523e-01  4.993759e-02  0.000000e+00
   outer loop
     vertex -4.428573e-01  9.717809e-02 -1.587302e-02
     vertex -4.118167e-01  7.179894e-01  3.174609e-02
     vertex -4.118167e-01  7.179894e-01 -1.587302e-02
   endloop
 endfacet
 facet normal -9.987523e-01  4.993759e-02  0.000000e+00
   outer loop
     vertex -4.428573e-01  9.717809e-02 -1.587302e-02
     vertex -4.428573e-01  9.717809e-02  3.174609e-02
     vertex -4.118167e-01  7.179894e-01  3.174609e-02
   endloop
 endfacet
 facet normal  0.000000e+00 -1.000000e+00  0.000000e+00
   outer loop
     vertex  5.379179e-02 -2.698416e-02 -1.587302e-02
     vertex -3.807762e-01 -2.698416e-02  3.174609e-02
     vertex -3.807762e-01 -2.698416e-02 -1.587302e-02
   endloop
 endfacet
 facet normal  0.000000e+00 -1.000000e+00  0.000000e+00
   outer loop
     vertex  5.379179e-02 -2.698416e-02 -1.587302e-02
     vertex  5.379179e-02 -2.698416e-02  3.174609e-02
     vertex -3.807762e-01 -2.698416e-02  3.174609e-02
   endloop
 endfacet
 facet normal -8.944273e-01 -4.472134e-01  0.000000e+00
   outer loop
     vertex -3.807762e-01 -2.698416e-02 -1.587302e-02
     vertex -4.428573e-01  9.717809e-02 -1.587302e-02
     vertex -4.428573e-01  9.717809e-02 -3.174603e-02
   endloop
 endfacet
 facet normal -8.944273e-01 -4.472134e-01 -0.000000e+00
   outer loop
     vertex -3.807762e-01 -2.698416e-02 -1.587302e-02
     vertex -4.428573e-01  9.717809e-02 -3.174603e-02
     vertex -3.807762e-01 -2.698416e-02 -3.174603e-02
   endloop
 endfacet
 facet normal  0.000000e+00  0.000000e+00  1.000000e+00
   outer loop
     vertex  5.379179e-02 -2.698416e-02  3.174609e-02
     vertex -4.428573e-01  9.717809e-02  3.174609e-02
     vertex -3.807762e-01 -2.698416e-02  3.174609e-02
   endloop
 endfacet
 facet normal  0.000000e+00  0.000000e+00  1.000000e+00
   outer loop
     vertex -4.118167e-01  7.179894e-01  3.174609e-02
     vertex -4.428573e-01  9.717809e-02  3.174609e-02
     vertex  5.379179e-02 -2.698416e-02  3.174609e-02
   endloop
 endfacet
 facet normal  0.000000e+00  0.000000e+00  1.000000e+00
   outer loop
     vertex  5.194003e-01 -1.511464e-01  3.174609e-02
     vertex  5.379179e-02 -2.698416e-02  3.174609e-02
     vertex  1.469135e-01 -1.201058e-01  3.174609e-02
   endloop
 endfacet
 facet normal  0.000000e+00  0.000000e+00  1.000000e+00
   outer loop
     vertex  5.194003e-01 -1.511464e-01  3.174609e-02
     vertex  1.469135e-01 -1.201058e-01  3.174609e-02
     vertex  3.331569e-01 -2.132275e-01  3.174609e-02
   endloop
 endfacet
 facet normal  0.000000e+00  0.000000e+00  1.000000e+00
   outer loop
     vertex  5.194003e-01 -1.511464e-01  3.174609e-02
     vertex  5.814814e-01 -3.063492e-01  3.174609e-02
     vertex  9.229276e-01 -5.857143e-01  3.174609e-02
   endloop
 endfacet
 facet normal  0.000000e+00  0.000000e+00  1.000000e+00
   outer loop
     vertex -3.497356e-01  7.800705e-01  3.174609e-02
     vertex -4.118167e-01  7.179894e-01  3.174609e-02
     vertex  5.379179e-02 -2.698416e-02  3.174609e-02
   endloop
 endfacet
 facet normal  0.000000e+00  0.000000e+00  1.000000e+00
   outer loop
     vertex  7.018329e-01  5.319110e-01  3.174609e-02
     vertex  5.379179e-02 -2.698416e-02  3.174609e-02
     vertex  5.194003e-01 -1.511464e-01  3.174609e-02
   endloop
 endfacet
 facet normal  0.000000e+00  0.000000e+00  1.000000e+00
   outer loop
     vertex  7.102347e-01  5.244678e-01  3.174609e-02
     vertex  7.018329e-01  5.319110e-01  3.174609e-02
     vertex  5.194003e-01 -1.511464e-01  3.174609e-02
   endloop
 endfacet
 facet normal  0.000000e+00  0.000000e+00  1.000000e+00
   outer loop
     vertex  6.954566e-01  5.411487e-01  3.174609e-02
     vertex  5.379179e-02 -2.698416e-02  3.174609e-02
     vertex  7.018329e-01  5.319110e-01  3.174609e-02
   endloop
 endfacet
 facet normal  0.000000e+00  0.000000e+00  1.000000e+00
   outer loop
     vertex  7.201735e-01  5.192514e-01  3.174609e-02
     vertex  7.102347e-01  5.244678e-01  3.174609e-02
     vertex  5.194003e-01 -1.511464e-01  3.174609e-02
   endloop
 endfacet
 facet normal  0.000000e+00  0.000000e+00  1.000000e+00
   outer loop
     vertex  6.914764e-01  5.516439e-01  3.174609e-02
     vertex  5.379179e-02 -2.698416e-02  3.174609e-02
     vertex  6.954566e-01  5.411487e-01  3.174609e-02
   endloop
 endfacet
 facet normal  0.000000e+00  0.000000e+00  1.000000e+00
   outer loop
     vertex  7.310719e-01  5.165652e-01  3.174609e-02
     vertex  7.201735e-01  5.192514e-01  3.174609e-02
     vertex  5.194003e-01 -1.511464e-01  3.174609e-02
   endloop
 endfacet
 facet normal  0.000000e+00  0.000000e+00  1.000000e+00
   outer loop
     vertex  6.901234e-01  5.627866e-01  3.174609e-02
     vertex -3.497356e-01  7.800705e-01  3.174609e-02
     vertex  5.379179e-02 -2.698416e-02  3.174609e-02
   endloop
 endfacet
 facet normal  0.000000e+00  0.000000e+00  1.000000e+00
   outer loop
     vertex  6.901234e-01  5.627866e-01  3.174609e-02
     vertex  5.379179e-02 -2.698416e-02  3.174609e-02
     vertex  6.914764e-01  5.516439e-01  3.174609e-02
   endloop
 endfacet
 facet normal  0.000000e+00  0.000000e+00  1.000000e+00
   outer loop
     vertex  7.422965e-01  5.165652e-01  3.174609e-02
     vertex  7.310719e-01  5.165652e-01  3.174609e-02
     vertex  5.194003e-01 -1.511464e-01  3.174609e-02
   endloop
 endfacet
 facet normal  0.000000e+00  0.000000e+00  1.000000e+00
   outer loop
     vertex  6.914764e-01  5.739293e-01  3.174609e-02
     vertex -3.497356e-01  7.800705e-01  3.174609e-02
     vertex  6.901234e-01  5.627866e-01  3.174609e-02
   endloop
 endfacet
 facet normal  0.000000e+00  0.000000e+00  1.000000e+00
   outer loop
     vertex  7.531949e-01  5.192514e-01  3.174609e-02
     vertex  7.422965e-01  5.165652e-01  3.174609e-02
     vertex  5.194003e-01 -1.511464e-01  3.174609e-02
   endloop
 endfacet
 facet normal  0.000000e+00  0.000000e+00  1.000000e+00
   outer loop
     vertex  6.954566e-01  5.844245e-01  3.174609e-02
     vertex -3.497356e-01  7.800705e-01  3.174609e-02
     vertex  6.914764e-01  5.739293e-01  3.174609e-02
   endloop
 endfacet
 facet normal  0.000000e+00  0.000000e+00  1.000000e+00
   outer loop
     vertex  7.631338e-01  5.244678e-01  3.174609e-02
     vertex  5.194003e-01 -1.511464e-01  3.174609e-02
     vertex  9.229276e-01 -5.857143e-01  3.174609e-02
   endloop
 endfacet
 facet normal  0.000000e+00  0.000000e+00  1.000000e+00
   outer loop
     vertex  7.631338e-01  5.244678e-01  3.174609e-02
     vertex  7.531949e-01  5.192514e-01  3.174609e-02
     vertex  5.194003e-01 -1.511464e-01  3.174609e-02
   endloop
 endfacet
 facet normal  0.000000e+00  0.000000e+00  1.000000e+00
   outer loop
     vertex  7.018329e-01  5.936621e-01  3.174609e-02
     vertex -3.497356e-01  7.800705e-01  3.174609e-02
     vertex  6.954566e-01  5.844245e-01  3.174609e-02
   endloop
 endfacet
 facet normal  0.000000e+00  0.000000e+00  1.000000e+00
   outer loop
     vertex  7.715355e-01  5.319110e-01  3.174609e-02
     vertex  7.631338e-01  5.244678e-01  3.174609e-02
     vertex  9.229276e-01 -5.857143e-01  3.174609e-02
   endloop
 endfacet
 facet normal  0.000000e+00  0.000000e+00  1.000000e+00
   outer loop
     vertex  7.102347e-01  6.011054e-01  3.174609e-02
     vertex -3.497356e-01  7.800705e-01  3.174609e-02
     vertex  7.018329e-01  5.936621e-01  3.174609e-02
   endloop
 endfacet
 facet normal  0.000000e+00  0.000000e+00  1.000000e+00
   outer loop
     vertex  7.779118e-01  5.411487e-01  3.174609e-02
     vertex  7.715355e-01  5.319110e-01  3.174609e-02
     vertex  9.229276e-01 -5.857143e-01  3.174609e-02
   endloop
 endfacet
 facet normal  0.000000e+00  0.000000e+00  1.000000e+00
   outer loop
     vertex  9.229276e-01  8.111111e-01  3.174609e-02
     vertex  7.818921e-01  5.739293e-01  3.174609e-02
     vertex  7.832451e-01  5.627866e-01  3.174609e-02
   endloop
 endfacet
 facet normal  0.000000e+00  0.000000e+00  1.000000e+00
   outer loop
     vertex  9.229276e-01  8.111111e-01  3.174609e-02
     vertex  7.779118e-01  5.844245e-01  3.174609e-02
     vertex  7.818921e-01  5.739293e-01  3.174609e-02
   endloop
 endfacet
 facet normal  0.000000e+00  0.000000e+00  1.000000e+00
   outer loop
     vertex  9.229276e-01  8.111111e-01  3.174609e-02
     vertex  7.715355e-01  5.936621e-01  3.174609e-02
     vertex  7.779118e-01  5.844245e-01  3.174609e-02
   endloop
 endfacet
 facet normal  0.000000e+00  0.000000e+00  1.000000e+00
   outer loop
     vertex  9.229276e-01  8.111111e-01  3.174609e-02
     vertex  7.631338e-01  6.011054e-01  3.174609e-02
     vertex  7.715355e-01  5.936621e-01  3.174609e-02
   endloop
 endfacet
 facet normal  0.000000e+00  0.000000e+00  1.000000e+00
   outer loop
     vertex  9.229276e-01  8.111111e-01  3.174609e-02
     vertex  7.531949e-01  6.063217e-01  3.174609e-02
     vertex  7.631338e-01  6.011054e-01  3.174609e-02
   endloop
 endfacet
 facet normal  0.000000e+00  0.000000e+00  1.000000e+00
   outer loop
     vertex  9.229276e-01  8.111111e-01  3.174609e-02
     vertex  7.422965e-01  6.090080e-01  3.174609e-02
     vertex  7.531949e-01  6.063217e-01  3.174609e-02
   endloop
 endfacet
 facet normal  0.000000e+00  0.000000e+00  1.000000e+00
   outer loop
     vertex  9.229276e-01  8.111111e-01  3.174609e-02
     vertex  7.310719e-01  6.090080e-01  3.174609e-02
     vertex  7.422965e-01  6.090080e-01  3.174609e-02
   endloop
 endfacet
 facet normal  0.000000e+00  0.000000e+00  1.000000e+00
   outer loop
     vertex  9.229276e-01  8.111111e-01  3.174609e-02
     vertex  7.201735e-01  6.063217e-01  3.174609e-02
     vertex  7.310719e-01  6.090080e-01  3.174609e-02
   endloop
 endfacet
 facet normal  0.000000e+00  0.000000e+00  1.000000e+00
   outer loop
     vertex  9.229276e-01  8.111111e-01  3.174609e-02
     vertex  7.102347e-01  6.011054e-01  3.174609e-02
     vertex  7.201735e-01  6.063217e-01  3.174609e-02
   endloop
 endfacet
 facet normal  0.000000e+00  0.000000e+00  1.000000e+00
   outer loop
     vertex  9.229276e-01  8.111111e-01  3.174609e-02
     vertex  7.818921e-01  5.516439e-01  3.174609e-02
     vertex  7.779118e-01  5.411487e-01  3.174609e-02
   endloop
 endfacet
 facet normal  0.000000e+00  0.000000e+00  1.000000e+00
   outer loop
     vertex  9.229276e-01  8.111111e-01  3.174609e-02
     vertex  7.832451e-01  5.627866e-01  3.174609e-02
     vertex  7.818921e-01  5.516439e-01  3.174609e-02
   endloop
 endfacet
 facet normal  0.000000e+00  0.000000e+00  1.000000e+00
   outer loop
     vertex  9.229276e-01  8.111111e-01  3.174609e-02
     vertex  7.779118e-01  5.411487e-01  3.174609e-02
     vertex  9.229276e-01 -5.857143e-01  3.174609e-02
   endloop
 endfacet
 facet normal  0.000000e+00  0.000000e+00  1.000000e+00
   outer loop
     vertex  9.229276e-01  8.111111e-01  3.174609e-02
     vertex -3.497356e-01  7.800705e-01  3.174609e-02
     vertex  7.102347e-01  6.011054e-01  3.174609e-02
   endloop
 endfacet
 facet normal -7.071068e-01  7.071068e-01  0.000000e+00
   outer loop
     vertex -4.118167e-01  7.179894e-01 -1.587302e-02
     vertex -3.497356e-01  7.800705e-01  3.174609e-02
     vertex -3.497356e-01  7.800705e-01 -1.587302e-02
   endloop
 endfacet
 facet normal -7.071068e-01  7.071068e-01  0.000000e+00
   outer loop
     vertex -4.118167e-01  7.179894e-01 -1.587302e-02
     vertex -4.118167e-01  7.179894e-01  3.174609e-02
     vertex -3.497356e-01  7.800705e-01  3.174609e-02
   endloop
 endfacet
 facet normal -9.987523e-01  4.993759e-02  0.000000e+00
   outer loop
     vertex -4.428573e-01  9.717809e-02 -1.587302e-02
     vertex -4.118167e-01  7.179894e-01 -1.587302e-02
     vertex -4.118167e-01  7.179894e-01 -3.174603e-02
   endloop
 endfacet
 facet normal -9.987523e-01  4.993759e-02  0.000000e+00
   outer loop
     vertex -4.428573e-01  9.717809e-02 -1.587302e-02
     vertex -4.118167e-01  7.179894e-01 -3.174603e-02
     vertex -4.428573e-01  9.717809e-02 -3.174603e-02
   endloop
 endfacet
 facet normal -7.071068e-01 -7.071068e-01  0.000000e+00
   outer loop
     vertex  1.469135e-01 -1.201058e-01 -1.587302e-02
     vertex  5.379179e-02 -2.698416e-02  3.174609e-02
     vertex  5.379179e-02 -2.698416e-02 -1.587302e-02
   endloop
 endfacet
 facet normal -7.071068e-01 -7.071068e-01  0.000000e+00
   outer loop
     vertex  1.469135e-01 -1.201058e-01 -1.587302e-02
     vertex  1.469135e-01 -1.201058e-01  3.174609e-02
     vertex  5.379179e-02 -2.698416e-02  3.174609e-02
   endloop
 endfacet
 facet normal -0.000000e+00 -1.000000e+00  0.000000e+00
   outer loop
     vertex  5.379179e-02 -2.698416e-02 -1.587302e-02
     vertex -3.807762e-01 -2.698416e-02 -1.587302e-02
     vertex -3.807762e-01 -2.698416e-02 -3.174603e-02
   endloop
 endfacet
 facet normal  0.000000e+00 -1.000000e+00 -0.000000e+00
   outer loop
     vertex  5.379179e-02 -2.698416e-02 -1.587302e-02
     vertex -3.807762e-01 -2.698416e-02 -3.174603e-02
     vertex  5.379179e-02 -2.698416e-02 -3.174603e-02
   endloop
 endfacet
 facet normal  0.000000e+00  0.000000e+00 -1.000000e+00
   outer loop
     vertex  5.379179e-02 -2.698416e-02 -3.174603e-02
     vertex -3.807762e-01 -2.698416e-02 -3.174603e-02
     vertex -4.428573e-01  9.717809e-02 -3.174603e-02
   endloop
 endfacet
 facet normal  0.000000e+00 -0.000000e+00 -1.000000e+00
   outer loop
     vertex -4.118167e-01  7.179894e-01 -3.174603e-02
     vertex  5.379179e-02 -2.698416e-02 -3.174603e-02
     vertex -4.428573e-01  9.717809e-02 -3.174603e-02
   endloop
 endfacet
 facet normal  0.000000e+00  0.000000e+00 -1.000000e+00
   outer loop
     vertex  5.194003e-01 -1.511464e-01 -3.174603e-02
     vertex  1.469135e-01 -1.201058e-01 -3.174603e-02
     vertex  5.379179e-02 -2.698416e-02 -3.174603e-02
   endloop
 endfacet
 facet normal -0.000000e+00  0.000000e+00 -1.000000e+00
   outer loop
     vertex  5.194003e-01 -1.511464e-01 -3.174603e-02
     vertex  3.331569e-01 -2.132275e-01 -3.174603e-02
     vertex  1.469135e-01 -1.201058e-01 -3.174603e-02
   endloop
 endfacet
 facet normal  0.000000e+00  0.000000e+00 -1.000000e+00
   outer loop
     vertex  5.194003e-01 -1.511464e-01 -3.174603e-02
     vertex  9.229276e-01 -5.857143e-01 -3.174603e-02
     vertex  5.814814e-01 -3.063492e-01 -3.174603e-02
   endloop
 endfacet
 facet normal  0.000000e+00 -0.000000e+00 -1.000000e+00
   outer loop
     vertex -3.497356e-01  7.800705e-01 -3.174603e-02
     vertex  5.379179e-02 -2.698416e-02 -3.174603e-02
     vertex -4.118167e-01  7.179894e-01 -3.174603e-02
   endloop
 endfacet
 facet normal  0.000000e+00  0.000000e+00 -1.000000e+00
   outer loop
     vertex  7.018329e-01  5.319110e-01 -3.174603e-02
     vertex  5.194003e-01 -1.511464e-01 -3.174603e-02
     vertex  5.379179e-02 -2.698416e-02 -3.174603e-02
   endloop
 endfacet
 facet normal -0.000000e+00  0.000000e+00 -1.000000e+00
   outer loop
     vertex  7.102347e-01  5.244678e-01 -3.174603e-02
     vertex  5.194003e-01 -1.511464e-01 -3.174603e-02
     vertex  7.018329e-01  5.319110e-01 -3.174603e-02
   endloop
 endfacet
 facet normal  0.000000e+00 -0.000000e+00 -1.000000e+00
   outer loop
     vertex  6.954566e-01  5.411487e-01 -3.174603e-02
     vertex  7.018329e-01  5.319110e-01 -3.174603e-02
     vertex  5.379179e-02 -2.698416e-02 -3.174603e-02
   endloop
 endfacet
 facet normal -0.000000e+00  0.000000e+00 -1.000000e+00
   outer loop
     vertex  7.201735e-01  5.192514e-01 -3.174603e-02
     vertex  5.194003e-01 -1.511464e-01 -3.174603e-02
     vertex  7.102347e-01  5.244678e-01 -3.174603e-02
   endloop
 endfacet
 facet normal  0.000000e+00 -0.000000e+00 -1.000000e+00
   outer loop
     vertex  6.914764e-01  5.516439e-01 -3.174603e-02
     vertex  6.954566e-01  5.411487e-01 -3.174603e-02
     vertex  5.379179e-02 -2.698416e-02 -3.174603e-02
   endloop
 endfacet
 facet normal -0.000000e+00  0.000000e+00 -1.000000e+00
   outer loop
     vertex  7.310719e-01  5.165652e-01 -3.174603e-02
     vertex  5.194003e-01 -1.511464e-01 -3.174603e-02
     vertex  7.201735e-01  5.192514e-01 -3.174603e-02
   endloop
 endfacet
 facet normal -0.000000e+00  0.000000e+00 -1.000000e+00
   outer loop
     vertex  6.901234e-01  5.627866e-01 -3.174603e-02
     vertex  5.379179e-02 -2.698416e-02 -3.174603e-02
     vertex -3.497356e-01  7.800705e-01 -3.174603e-02
   endloop
 endfacet
 facet normal  0.000000e+00 -0.000000e+00 -1.000000e+00
   outer loop
     vertex  6.901234e-01  5.627866e-01 -3.174603e-02
     vertex  6.914764e-01  5.516439e-01 -3.174603e-02
     vertex  5.379179e-02 -2.698416e-02 -3.174603e-02
   endloop
 endfacet
 facet normal -0.000000e+00  0.000000e+00 -1.000000e+00
   outer loop
     vertex  7.422965e-01  5.165652e-01 -3.174603e-02
     vertex  5.194003e-01 -1.511464e-01 -3.174603e-02
     vertex  7.310719e-01  5.165652e-01 -3.174603e-02
   endloop
 endfacet
 facet normal -0.000000e+00  0.000000e+00 -1.000000e+00
   outer loop
     vertex  6.914764e-01  5.739293e-01 -3.174603e-02
     vertex  6.901234e-01  5.627866e-01 -3.174603e-02
     vertex -3.497356e-01  7.800705e-01 -3.174603e-02
   endloop
 endfacet
 facet normal  0.000000e+00  0.000000e+00 -1.000000e+00
   outer loop
     vertex  7.531949e-01  5.192514e-01 -3.174603e-02
     vertex  5.194003e-01 -1.511464e-01 -3.174603e-02
     vertex  7.422965e-01  5.165652e-01 -3.174603e-02
   endloop
 endfacet
 facet normal -0.000000e+00  0.000000e+00 -1.000000e+00
   outer loop
     vertex  6.954566e-01  5.844245e-01 -3.174603e-02
     vertex  6.914764e-01  5.739293e-01 -3.174603e-02
     vertex -3.497356e-01  7.800705e-01 -3.174603e-02
   endloop
 endfacet
 facet normal  0.000000e+00 -0.000000e+00 -1.000000e+00
   outer loop
     vertex  7.631338e-01  5.244678e-01 -3.174603e-02
     vertex  9.229276e-01 -5.857143e-01 -3.174603e-02
     vertex  5.194003e-01 -1.511464e-01 -3.174603e-02
   endloop
 endfacet
 facet normal  0.000000e+00  0.000000e+00 -1.000000e+00
   outer loop
     vertex  7.631338e-01  5.244678e-01 -3.174603e-02
     vertex  5.194003e-01 -1.511464e-01 -3.174603e-02
     vertex  7.531949e-01  5.192514e-01 -3.174603e-02
   endloop
 endfacet
 facet normal -0.000000e+00  0.000000e+00 -1.000000e+00
   outer loop
     vertex  7.018329e-01  5.936621e-01 -3.174603e-02
     vertex  6.954566e-01  5.844245e-01 -3.174603e-02
     vertex -3.497356e-01  7.800705e-01 -3.174603e-02
   endloop
 endfacet
 facet normal  0.000000e+00 -0.000000e+00 -1.000000e+00
   outer loop
     vertex  7.715355e-01  5.319110e-01 -3.174603e-02
     vertex  9.229276e-01 -5.857143e-01 -3.174603e-02
     vertex  7.631338e-01  5.244678e-01 -3.174603e-02
   endloop
 endfacet
 facet normal -0.000000e+00  0.000000e+00 -1.000000e+00
   outer loop
     vertex  7.102347e-01  6.011054e-01 -3.174603e-02
     vertex  7.018329e-01  5.936621e-01 -3.174603e-02
     vertex -3.497356e-01  7.800705e-01 -3.174603e-02
   endloop
 endfacet
 facet normal  0.000000e+00 -0.000000e+00 -1.000000e+00
   outer loop
     vertex  7.779118e-01  5.411487e-01 -3.174603e-02
     vertex  9.229276e-01 -5.857143e-01 -3.174603e-02
     vertex  7.715355e-01  5.319110e-01 -3.174603e-02
   endloop
 endfacet
 facet normal  0.000000e+00  0.000000e+00 -1.000000e+00
   outer loop
     vertex  9.229276e-01  8.111111e-01 -3.174603e-02
     vertex  7.832451e-01  5.627866e-01 -3.174603e-02
     vertex  7.818921e-01  5.739293e-01 -3.174603e-02
   endloop
 endfacet
 facet normal  0.000000e+00  0.000000e+00 -1.000000e+00
   outer loop
     vertex  9.229276e-01  8.111111e-01 -3.174603e-02
     vertex  7.818921e-01  5.739293e-01 -3.174603e-02
     vertex  7.779118e-01  5.844245e-01 -3.174603e-02
   endloop
 endfacet
 facet normal  0.000000e+00  0.000000e+00 -1.000000e+00
   outer loop
     vertex  9.229276e-01  8.111111e-01 -3.174603e-02
     vertex  7.779118e-01  5.844245e-01 -3.174603e-02
     vertex  7.715355e-01  5.936621e-01 -3.174603e-02
   endloop
 endfacet
 facet normal  0.000000e+00  0.000000e+00 -1.000000e+00
   outer loop
     vertex  9.229276e-01  8.111111e-01 -3.174603e-02
     vertex  7.715355e-01  5.936621e-01 -3.174603e-02
     vertex  7.631338e-01  6.011054e-01 -3.174603e-02
   endloop
 endfacet
 facet normal  0.000000e+00  0.000000e+00 -1.000000e+00
   outer loop
     vertex  9.229276e-01  8.111111e-01 -3.174603e-02
     vertex  7.631338e-01  6.011054e-01 -3.174603e-02
     vertex  7.531949e-01  6.063217e-01 -3.174603e-02
   endloop
 endfacet
 facet normal  0.000000e+00  0.000000e+00 -1.000000e+00
   outer loop
     vertex  9.229276e-01  8.111111e-01 -3.174603e-02
     vertex  7.531949e-01  6.063217e-01 -3.174603e-02
     vertex  7.422965e-01  6.090080e-01 -3.174603e-02
   endloop
 endfacet
 facet normal  0.000000e+00  0.000000e+00 -1.000000e+00
   outer loop
     vertex  9.229276e-01  8.111111e-01 -3.174603e-02
     vertex  7.422965e-01  6.090080e-01 -3.174603e-02
     vertex  7.310719e-01  6.090080e-01 -3.174603e-02
   endloop
 endfacet
 facet normal  0.000000e+00  0.000000e+00 -1.000000e+00
   outer loop
     vertex  9.229276e-01  8.111111e-01 -3.174603e-02
     vertex  7.310719e-01  6.090080e-01 -3.174603e-02
     vertex  7.201735e-01  6.063217e-01 -3.174603e-02
   endloop
 endfacet
 facet normal  0.000000e+00  0.000000e+00 -1.000000e+00
   outer loop
     vertex  9.229276e-01  8.111111e-01 -3.174603e-02
     vertex  7.201735e-01  6.063217e-01 -3.174603e-02
     vertex  7.102347e-01  6.011054e-01 -3.174603e-02
   endloop
 endfacet
 facet normal  0.000000e+00  0.000000e+00 -1.000000e+00
   outer loop
     vertex  9.229276e-01  8.111111e-01 -3.174603e-02
     vertex  7.779118e-01  5.411487e-01 -3.174603e-02
     vertex  7.818921e-01  5.516439e-01 -3.174603e-02
   endloop
 endfacet
 facet normal  0.000000e+00  0.000000e+00 -1.000000e+00
   outer loop
     vertex  9.229276e-01  8.111111e-01 -3.174603e-02
     vertex  7.818921e-01  5.516439e-01 -3.174603e-02
     vertex  7.832451e-01  5.627866e-01 -3.174603e-02
   endloop
 endfacet
 facet normal  0.000000e+00 -0.000000e+00 -1.000000e+00
   outer loop
     vertex  9.229276e-01  8.111111e-01 -3.174603e-02
     vertex  9.229276e-01 -5.857143e-01 -3.174603e-02
     vertex  7.779118e-01  5.411487e-01 -3.174603e-02
   endloop
 endfacet
 facet normal  0.000000e+00  0.000000e+00 -1.000000e+00
   outer loop
     vertex  9.229276e-01  8.111111e-01 -3.174603e-02
     vertex  7.102347e-01  6.011054e-01 -3.174603e-02
     vertex -3.497356e-01  7.800705e-01 -3.174603e-02
   endloop
 endfacet
 facet normal -2.438298e-02  9.997027e-01  0.000000e+00
   outer loop
     vertex -3.497356e-01  7.800705e-01 -1.587302e-02
     vertex  9.229276e-01  8.111111e-01  3.174609e-02
     vertex  9.229276e-01  8.111111e-01 -1.587302e-02
   endloop
 endfacet
 facet normal -2.438298e-02  9.997027e-01  0.000000e+00
   outer loop
     vertex -3.497356e-01  7.800705e-01 -1.587302e-02
     vertex -3.497356e-01  7.800705e-01  3.174609e-02
     vertex  9.229276e-01  8.111111e-01  3.174609e-02
   endloop
 endfacet
 facet normal -4.472135e-01 -8.944272e-01  0.000000e+00
   outer loop
     vertex  3.331569e-01 -2.132275e-01 -1.587302e-02
     vertex  1.469135e-01 -1.201058e-01  3.174609e-02
     vertex  1.469135e-01 -1.201058e-01 -1.587302e-02
   endloop
 endfacet
 facet normal -4.472135e-01 -8.944272e-01  0.000000e+00
   outer loop
     vertex  3.331569e-01 -2.132275e-01 -1.587302e-02
     vertex  3.331569e-01 -2.132275e-01  3.174609e-02
     vertex  1.469135e-01 -1.201058e-01  3.174609e-02
   endloop
 endfacet
 facet normal  1.000000e+00  0.000000e+00  0.000000e+00
   outer loop
     vertex  9.229276e-01  8.111111e-01 -1.587302e-02
     vertex  9.229276e-01 -5.857143e-01  3.174609e-02
     vertex  9.229276e-01 -5.857143e-01 -1.587302e-02
   endloop
 endfacet
 facet normal  1.000000e+00  0.000000e+00 -0.000000e+00
   outer loop
     vertex  9.229276e-01  8.111111e-01 -1.587302e-02
     vertex  9.229276e-01  8.111111e-01  3.174609e-02
     vertex  9.229276e-01 -5.857143e-01  3.174609e-02
   endloop
 endfacet
 facet normal  3.162278e-01 -9.486833e-01  0.000000e+00
   outer loop
     vertex  5.194003e-01 -1.511464e-01 -1.587302e-02
     vertex  3.331569e-01 -2.132275e-01  3.174609e-02
     vertex  3.331569e-01 -2.132275e-01 -1.587302e-02
   endloop
 endfacet
 facet normal  3.162278e-01 -9.486833e-01  0.000000e+00
   outer loop
     vertex  5.194003e-01 -1.511464e-01 -1.587302e-02
     vertex  5.194003e-01 -1.511464e-01  3.174609e-02
     vertex  3.331569e-01 -2.132275e-01  3.174609e-02
   endloop
 endfacet
 facet normal -6.332378e-01 -7.739573e-01  0.000000e+00
   outer loop
     vertex  9.229276e-01 -5.857143e-01 -1.587302e-02
     vertex  5.814814e-01 -3.063492e-01  3.174609e-02
     vertex  5.814814e-01 -3.063492e-01 -1.587302e-02
   endloop
 endfacet
 facet normal -6.332378e-01 -7.739573e-01  0.000000e+00
   outer loop
     vertex  9.229276e-01 -5.857143e-01 -1.587302e-02
     vertex  9.229276e-01 -5.857143e-01  3.174609e-02
     vertex  5.814814e-01 -3.063492e-01  3.174609e-02
   endloop
 endfacet
 facet normal -9.284767e-01 -3.713906e-01  0.000000e+00
   outer loop
     vertex  5.814814e-01 -3.063492e-01 -1.587302e-02
     vertex  5.194003e-01 -1.511464e-01  3.174609e-02
     vertex  5.194003e-01 -1.511464e-01 -1.587302e-02
   endloop
 endfacet
 facet normal -9.284767e-01 -3.713906e-01  0.000000e+00
   outer loop
     vertex  5.814814e-01 -3.063492e-01 -1.587302e-02
     vertex  5.814814e-01 -3.063492e-01  3.174609e-02
     vertex  5.194003e-01 -1.511464e-01  3.174609e-02
   endloop
 endfacet
 facet normal -9.927089e-01 -1.205367e-01  0.000000e+00
   outer loop
     vertex  7.818921e-01  5.739293e-01 -1.587302e-02
     vertex  7.832451e-01  5.627866e-01 -1.587302e-02
     vertex  7.832451e-01  5.627866e-01  3.174609e-02
   endloop
 endfacet
 facet normal -9.927089e-01 -1.205367e-01  0.000000e+00
   outer loop
     vertex  7.818921e-01  5.739293e-01 -1.587302e-02
     vertex  7.832451e-01  5.627866e-01  3.174609e-02
     vertex  7.818921e-01  5.739293e-01  3.174609e-02
   endloop
 endfacet
 facet normal -9.350162e-01 -3.546049e-01  0.000000e+00
   outer loop
     vertex  7.779118e-01  5.844245e-01 -1.587302e-02
     vertex  7.818921e-01  5.739293e-01  3.174609e-02
     vertex  7.779118e-01  5.844245e-01  3.174609e-02
   endloop
 endfacet
 facet normal -9.350162e-01 -3.546049e-01  0.000000e+00
   outer loop
     vertex  7.779118e-01  5.844245e-01 -1.587302e-02
     vertex  7.818921e-01  5.739293e-01 -1.587302e-02
     vertex  7.818921e-01  5.739293e-01  3.174609e-02
   endloop
 endfacet
 facet normal -8.229839e-01 -5.680647e-01  0.000000e+00
   outer loop
     vertex  7.715355e-01  5.936621e-01 -1.587302e-02
     vertex  7.779118e-01  5.844245e-01  3.174609e-02
     vertex  7.715355e-01  5.936621e-01  3.174609e-02
   endloop
 endfacet
 facet normal -8.229839e-01 -5.680647e-01  0.000000e+00
   outer loop
     vertex  7.715355e-01  5.936621e-01 -1.587302e-02
     vertex  7.779118e-01  5.844245e-01 -1.587302e-02
     vertex  7.779118e-01  5.844245e-01  3.174609e-02
   endloop
 endfacet
 facet normal -6.631227e-01 -7.485107e-01  0.000000e+00
   outer loop
     vertex  7.631338e-01  6.011054e-01 -1.587302e-02
     vertex  7.715355e-01  5.936621e-01  3.174609e-02
     vertex  7.631338e-01  6.011054e-01  3.174609e-02
   endloop
 endfacet
 facet normal -6.631227e-01 -7.485107e-01  0.000000e+00
   outer loop
     vertex  7.631338e-01  6.011054e-01 -1.587302e-02
     vertex  7.715355e-01  5.936621e-01 -1.587302e-02
     vertex  7.715355e-01  5.936621e-01  3.174609e-02
   endloop
 endfacet
 facet normal -4.647232e-01 -8.854560e-01  0.000000e+00
   outer loop
     vertex  7.531949e-01  6.063217e-01 -1.587302e-02
     vertex  7.631338e-01  6.011054e-01  3.174609e-02
     vertex  7.531949e-01  6.063217e-01  3.174609e-02
   endloop
 endfacet
 facet normal -4.647232e-01 -8.854560e-01  0.000000e+00
   outer loop
     vertex  7.531949e-01  6.063217e-01 -1.587302e-02
     vertex  7.631338e-01  6.011054e-01 -1.587302e-02
     vertex  7.631338e-01  6.011054e-01  3.174609e-02
   endloop
 endfacet
 facet normal -2.393157e-01 -9.709418e-01  0.000000e+00
   outer loop
     vertex  7.422965e-01  6.090080e-01 -1.587302e-02
     vertex  7.531949e-01  6.063217e-01  3.174609e-02
     vertex  7.422965e-01  6.090080e-01  3.174609e-02
   endloop
 endfacet
 facet normal -2.393157e-01 -9.709418e-01  0.000000e+00
   outer loop
     vertex  7.422965e-01  6.090080e-01 -1.587302e-02
     vertex  7.531949e-01  6.063217e-01 -1.587302e-02
     vertex  7.531949e-01  6.063217e-01  3.174609e-02
   endloop
 endfacet
 facet normal  0.000000e+00 -1.000000e+00  0.000000e+00
   outer loop
     vertex  7.310719e-01  6.090080e-01 -1.587302e-02
     vertex  7.422965e-01  6.090080e-01  3.174609e-02
     vertex  7.310719e-01  6.090080e-01  3.174609e-02
   endloop
 endfacet
 facet normal  0.000000e+00 -1.000000e+00  0.000000e+00
   outer loop
     vertex  7.310719e-01  6.090080e-01 -1.587302e-02
     vertex  7.422965e-01  6.090080e-01 -1.587302e-02
     vertex  7.422965e-01  6.090080e-01  3.174609e-02
   endloop
 endfacet
 facet normal  2.393157e-01 -9.709418e-01  0.000000e+00
   outer loop
     vertex  7.201735e-01  6.063217e-01 -1.587302e-02
     vertex  7.310719e-01  6.090080e-01  3.174609e-02
     vertex  7.201735e-01  6.063217e-01  3.174609e-02
   endloop
 endfacet
 facet normal  2.393157e-01 -9.709418e-01  0.000000e+00
   outer loop
     vertex  7.201735e-01  6.063217e-01 -1.587302e-02
     vertex  7.310719e-01  6.090080e-01 -1.587302e-02
     vertex  7.310719e-01  6.090080e-01  3.174609e-02
   endloop
 endfacet
 facet normal  4.647232e-01 -8.854560e-01  0.000000e+00
   outer loop
     vertex  7.102347e-01  6.011054e-01 -1.587302e-02
     vertex  7.201735e-01  6.063217e-01  3.174609e-02
     vertex  7.102347e-01  6.011054e-01  3.174609e-02
   endloop
 endfacet
 facet normal  4.647232e-01 -8.854560e-01  0.000000e+00
   outer loop
     vertex  7.102347e-01  6.011054e-01 -1.587302e-02
     vertex  7.201735e-01  6.063217e-01 -1.587302e-02
     vertex  7.201735e-01  6.063217e-01  3.174609e-02
   endloop
 endfacet
 facet normal  6.631227e-01 -7.485107e-01  0.000000e+00
   outer loop
     vertex  7.018329e-01  5.936621e-01 -1.587302e-02
     vertex  7.102347e-01  6.011054e-01  3.174609e-02
     vertex  7.018329e-01  5.936621e-01  3.174609e-02
   endloop
 endfacet
 facet normal  6.631227e-01 -7.485107e-01  0.000000e+00
   outer loop
     vertex  7.018329e-01  5.936621e-01 -1.587302e-02
     vertex  7.102347e-01  6.011054e-01 -1.587302e-02
     vertex  7.102347e-01  6.011054e-01  3.174609e-02
   endloop
 endfacet
 facet normal  8.229839e-01 -5.680647e-01  0.000000e+00
   outer loop
     vertex  6.954566e-01  5.844245e-01 -1.587302e-02
     vertex  7.018329e-01  5.936621e-01 -1.587302e-02
     vertex  7.018329e-01  5.936621e-01  3.174609e-02
   endloop
 endfacet
 facet normal  8.229839e-01 -5.680647e-01  0.000000e+00
   outer loop
     vertex  6.954566e-01  5.844245e-01 -1.587302e-02
     vertex  7.018329e-01  5.936621e-01  3.174609e-02
     vertex  6.954566e-01  5.844245e-01  3.174609e-02
   endloop
 endfacet
 facet normal  9.350162e-01 -3.546049e-01  0.000000e+00
   outer loop
     vertex  6.914764e-01  5.739293e-01 -1.587302e-02
     vertex  6.954566e-01  5.844245e-01 -1.587302e-02
     vertex  6.954566e-01  5.844245e-01  3.174609e-02
   endloop
 endfacet
 facet normal  9.350162e-01 -3.546049e-01  0.000000e+00
   outer loop
     vertex  6.914764e-01  5.739293e-01 -1.587302e-02
     vertex  6.954566e-01  5.844245e-01  3.174609e-02
     vertex  6.914764e-01  5.739293e-01  3.174609e-02
   endloop
 endfacet
 facet normal  9.927089e-01 -1.205367e-01  0.000000e+00
   outer loop
     vertex  6.901234e-01  5.627866e-01 -1.587302e-02
     vertex  6.914764e-01  5.739293e-01 -1.587302e-02
     vertex  6.914764e-01  5.739293e-01  3.174609e-02
   endloop
 endfacet
 facet normal  9.927089e-01 -1.205367e-01  0.000000e+00
   outer loop
     vertex  6.901234e-01  5.627866e-01 -1.587302e-02
     vertex  6.914764e-01  5.739293e-01  3.174609e-02
     vertex  6.901234e-01  5.627866e-01  3.174609e-02
   endloop
 endfacet
 facet normal  9.927089e-01  1.205367e-01 -0.000000e+00
   outer loop
     vertex  6.914764e-01  5.516439e-01 -1.587302e-02
     vertex  6.901234e-01  5.627866e-01  3.174609e-02
     vertex  6.914764e-01  5.516439e-01  3.174609e-02
   endloop
 endfacet
 facet normal  9.927089e-01  1.205367e-01  0.000000e+00
   outer loop
     vertex  6.914764e-01  5.516439e-01 -1.587302e-02
     vertex  6.901234e-01  5.627866e-01 -1.587302e-02
     vertex  6.901234e-01  5.627866e-01  3.174609e-02
   endloop
 endfacet
 facet normal  9.350162e-01  3.546049e-01  0.000000e+00
   outer loop
     vertex  6.954566e-01  5.411487e-01 -1.587302e-02
     vertex  6.914764e-01  5.516439e-01 -1.587302e-02
     vertex  6.914764e-01  5.516439e-01  3.174609e-02
   endloop
 endfacet
 facet normal  9.350162e-01  3.546049e-01 -0.000000e+00
   outer loop
     vertex  6.954566e-01  5.411487e-01 -1.587302e-02
     vertex  6.914764e-01  5.516439e-01  3.174609e-02
     vertex  6.954566e-01  5.411487e-01  3.174609e-02
   endloop
 endfacet
 facet normal  8.229839e-01  5.680647e-01 -0.000000e+00
   outer loop
     vertex  7.018329e-01  5.319110e-01 -1.587302e-02
     vertex  6.954566e-01  5.411487e-01  3.174609e-02
     vertex  7.018329e-01  5.319110e-01  3.174609e-02
   endloop
 endfacet
 facet normal  8.229839e-01  5.680647e-01  0.000000e+00
   outer loop
     vertex  7.018329e-01  5.319110e-01 -1.587302e-02
     vertex  6.954566e-01  5.411487e-01 -1.587302e-02
     vertex  6.954566e-01  5.411487e-01  3.174609e-02
   endloop
 endfacet
 facet normal  6.631227e-01  7.485107e-01 -0.000000e+00
   outer loop
     vertex  7.102347e-01  5.244678e-01 -1.587302e-02
     vertex  7.018329e-01  5.319110e-01  3.174609e-02
     vertex  7.102347e-01  5.244678e-01  3.174609e-02
   endloop
 endfacet
 facet normal  4.647232e-01  8.854560e-01 -0.000000e+00
   outer loop
     vertex  7.102347e-01  5.244678e-01 -1.587302e-02
     vertex  7.102347e-01  5.244678e-01  3.174609e-02
     vertex  7.201735e-01  5.192514e-01  3.174609e-02
   endloop
 endfacet
 facet normal  6.631227e-01  7.485107e-01  0.000000e+00
   outer loop
     vertex  7.102347e-01  5.244678e-01 -1.587302e-02
     vertex  7.018329e-01  5.319110e-01 -1.587302e-02
     vertex  7.018329e-01  5.319110e-01  3.174609e-02
   endloop
 endfacet
 facet normal  4.647232e-01  8.854560e-01 -0.000000e+00
   outer loop
     vertex  7.201735e-01  5.192514e-01 -1.587302e-02
     vertex  7.102347e-01  5.244678e-01 -1.587302e-02
     vertex  7.201735e-01  5.192514e-01  3.174609e-02
   endloop
 endfacet
 facet normal  2.393157e-01  9.709418e-01 -0.000000e+00
   outer loop
     vertex  7.310719e-01  5.165652e-01 -1.587302e-02
     vertex  7.201735e-01  5.192514e-01  3.174609e-02
     vertex  7.310719e-01  5.165652e-01  3.174609e-02
   endloop
 endfacet
 facet normal  2.393157e-01  9.709418e-01  0.000000e+00
   outer loop
     vertex  7.310719e-01  5.165652e-01 -1.587302e-02
     vertex  7.201735e-01  5.192514e-01 -1.587302e-02
     vertex  7.201735e-01  5.192514e-01  3.174609e-02
   endloop
 endfacet
 facet normal  0.000000e+00  1.000000e+00 -0.000000e+00
   outer loop
     vertex  7.422965e-01  5.165652e-01 -1.587302e-02
     vertex  7.310719e-01  5.165652e-01  3.174609e-02
     vertex  7.422965e-01  5.165652e-01  3.174609e-02
   endloop
 endfacet
 facet normal  0.000000e+00  1.000000e+00  0.000000e+00
   outer loop
     vertex  7.422965e-01  5.165652e-01 -1.587302e-02
     vertex  7.310719e-01  5.165652e-01 -1.587302e-02
     vertex  7.310719e-01  5.165652e-01  3.174609e-02
   endloop
 endfacet
 facet normal -2.393157e-01  9.709418e-01  0.000000e+00
   outer loop
     vertex  7.531949e-01  5.192514e-01 -1.587302e-02
     vertex  7.422965e-01  5.165652e-01  3.174609e-02
     vertex  7.531949e-01  5.192514e-01  3.174609e-02
   endloop
 endfacet
 facet normal -2.393157e-01  9.709418e-01  0.000000e+00
   outer loop
     vertex  7.531949e-01  5.192514e-01 -1.587302e-02
     vertex  7.422965e-01  5.165652e-01 -1.587302e-02
     vertex  7.422965e-01  5.165652e-01  3.174609e-02
   endloop
 endfacet
 facet normal -4.647232e-01  8.854560e-01  0.000000e+00
   outer loop
     vertex  7.631338e-01  5.244678e-01 -1.587302e-02
     vertex  7.531949e-01  5.192514e-01  3.174609e-02
     vertex  7.631338e-01  5.244678e-01  3.174609e-02
   endloop
 endfacet
 facet normal -4.647232e-01  8.854560e-01  0.000000e+00
   outer loop
     vertex  7.631338e-01  5.244678e-01 -1.587302e-02
     vertex  7.531949e-01  5.192514e-01 -1.587302e-02
     vertex  7.531949e-01  5.192514e-01  3.174609e-02
   endloop
 endfacet
 facet normal -6.631227e-01  7.485107e-01  0.000000e+00
   outer loop
     vertex  7.715355e-01  5.319110e-01 -1.587302e-02
     vertex  7.631338e-01  5.244678e-01  3.174609e-02
     vertex  7.715355e-01  5.319110e-01  3.174609e-02
   endloop
 endfacet
 facet normal -6.631227e-01  7.485107e-01  0.000000e+00
   outer loop
     vertex  7.715355e-01  5.319110e-01 -1.587302e-02
     vertex  7.631338e-01  5.244678e-01 -1.587302e-02
     vertex  7.631338e-01  5.244678e-01  3.174609e-02
   endloop
 endfacet
 facet normal -8.229839e-01  5.680647e-01  0.000000e+00
   outer loop
     vertex  7.779118e-01  5.411487e-01 -1.587302e-02
     vertex  7.715355e-01  5.319110e-01  3.174609e-02
     vertex  7.779118e-01  5.411487e-01  3.174609e-02
   endloop
 endfacet
 facet normal -8.229839e-01  5.680647e-01  0.000000e+00
   outer loop
     vertex  7.779118e-01  5.411487e-01 -1.587302e-02
     vertex  7.715355e-01  5.319110e-01 -1.587302e-02
     vertex  7.715355e-01  5.319110e-01  3.174609e-02
   endloop
 endfacet
 facet normal -9.350162e-01  3.546049e-01  0.000000e+00
   outer loop
     vertex  7.818921e-01  5.516439e-01 -1.587302e-02
     vertex  7.779118e-01  5.411487e-01  3.174609e-02
     vertex  7.818921e-01  5.516439e-01  3.174609e-02
   endloop
 endfacet
 facet normal -9.350162e-01  3.546049e-01  0.000000e+00
   outer loop
     vertex  7.818921e-01  5.516439e-01 -1.587302e-02
     vertex  7.779118e-01  5.411487e-01 -1.587302e-02
     vertex  7.779118e-01  5.411487e-01  3.174609e-02
   endloop
 endfacet
 facet normal -9.927089e-01  1.205367e-01  0.000000e+00
   outer loop
     vertex  7.832451e-01  5.627866e-01 -1.587302e-02
     vertex  7.818921e-01  5.516439e-01  3.174609e-02
     vertex  7.832451e-01  5.627866e-01  3.174609e-02
   endloop
 endfacet
 facet normal -9.927089e-01  1.205367e-01  0.000000e+00
   outer loop
     vertex  7.832451e-01  5.627866e-01 -1.587302e-02
     vertex  7.818921e-01  5.516439e-01 -1.587302e-02
     vertex  7.818921e-01  5.516439e-01  3.174609e-02
   endloop
 endfacet
 facet normal -7.071068e-01  7.071068e-01  0.000000e+00
   outer loop
     vertex -4.118167e-01  7.179894e-01 -1.587302e-02
     vertex -3.497356e-01  7.800705e-01 -1.587302e-02
     vertex -3.497356e-01  7.800705e-01 -3.174603e-02
   endloop
 endfacet
 facet normal -7.071068e-01  7.071068e-01  0.000000e+00
   outer loop
     vertex -4.118167e-01  7.179894e-01 -1.587302e-02
     vertex -3.497356e-01  7.800705e-01 -3.174603e-02
     vertex -4.118167e-01  7.179894e-01 -3.174603e-02
   endloop
 endfacet
 facet normal -7.071068e-01 -7.071068e-01  0.000000e+00
   outer loop
     vertex  1.469135e-01 -1.201058e-01 -1.587302e-02
     vertex  5.379179e-02 -2.698416e-02 -1.587302e-02
     vertex  5.379179e-02 -2.698416e-02 -3.174603e-02
   endloop
 endfacet
 facet normal -7.071068e-01 -7.071068e-01 -0.000000e+00
   outer loop
     vertex  1.469135e-01 -1.201058e-01 -1.587302e-02
     vertex  5.379179e-02 -2.698416e-02 -3.174603e-02
     vertex  1.469135e-01 -1.201058e-01 -3.174603e-02
   endloop
 endfacet
 facet normal -2.438298e-02  9.997027e-01  0.000000e+00
   outer loop
     vertex -3.497356e-01  7.800705e-01 -1.587302e-02
     vertex  9.229276e-01  8.111111e-01 -1.587302e-02
     vertex  9.229276e-01  8.111111e-01 -3.174603e-02
   endloop
 endfacet
 facet normal -2.438298e-02  9.997027e-01  0.000000e+00
   outer loop
     vertex -3.497356e-01  7.800705e-01 -1.587302e-02
     vertex  9.229276e-01  8.111111e-01 -3.174603e-02
     vertex -3.497356e-01  7.800705e-01 -3.174603e-02
   endloop
 endfacet
 facet normal -4.472135e-01 -8.944272e-01  0.000000e+00
   outer loop
     vertex  3.331569e-01 -2.132275e-01 -1.587302e-02
     vertex  1.469135e-01 -1.201058e-01 -1.587302e-02
     vertex  1.469135e-01 -1.201058e-01 -3.174603e-02
   endloop
 endfacet
 facet normal -4.472135e-01 -8.944272e-01 -0.000000e+00
   outer loop
     vertex  3.331569e-01 -2.132275e-01 -1.587302e-02
     vertex  1.469135e-01 -1.201058e-01 -3.174603e-02
     vertex  3.331569e-01 -2.132275e-01 -3.174603e-02
   endloop
 endfacet
 facet normal  1.000000e+00  0.000000e+00  0.000000e+00
   outer loop
     vertex  9.229276e-01  8.111111e-01 -1.587302e-02
     vertex  9.229276e-01 -5.857143e-01 -1.587302e-02
     vertex  9.229276e-01 -5.857143e-01 -3.174603e-02
   endloop
 endfacet
 facet normal  1.000000e+00  0.000000e+00  0.000000e+00
   outer loop
     vertex  9.229276e-01  8.111111e-01 -1.587302e-02
     vertex  9.229276e-01 -5.857143e-01 -3.174603e-02
     vertex  9.229276e-01  8.111111e-01 -3.174603e-02
   endloop
 endfacet
 facet normal  3.162278e-01 -9.486833e-01  0.000000e+00
   outer loop
     vertex  5.194003e-01 -1.511464e-01 -1.587302e-02
     vertex  3.331569e-01 -2.132275e-01 -1.587302e-02
     vertex  3.331569e-01 -2.132275e-01 -3.174603e-02
   endloop
 endfacet
 facet normal  3.162278e-01 -9.486833e-01  0.000000e+00
   outer loop
     vertex  5.194003e-01 -1.511464e-01 -1.587302e-02
     vertex  3.331569e-01 -2.132275e-01 -3.174603e-02
     vertex  5.194003e-01 -1.511464e-01 -3.174603e-02
   endloop
 endfacet
 facet normal -6.332378e-01 -7.739573e-01  0.000000e+00
   outer loop
     vertex  9.229276e-01 -5.857143e-01 -1.587302e-02
     vertex  5.814814e-01 -3.063492e-01 -1.587302e-02
     vertex  5.814814e-01 -3.063492e-01 -3.174603e-02
   endloop
 endfacet
 facet normal -6.332378e-01 -7.739573e-01 -0.000000e+00
   outer loop
     vertex  9.229276e-01 -5.857143e-01 -1.587302e-02
     vertex  5.814814e-01 -3.063492e-01 -3.174603e-02
     vertex  9.229276e-01 -5.857143e-01 -3.174603e-02
   endloop
 endfacet
 facet normal -9.284767e-01 -3.713906e-01  0.000000e+00
   outer loop
     vertex  5.814814e-01 -3.063492e-01 -1.587302e-02
     vertex  5.194003e-01 -1.511464e-01 -1.587302e-02
     vertex  5.194003e-01 -1.511464e-01 -3.174603e-02
   endloop
 endfacet
 facet normal -9.284767e-01 -3.713906e-01 -0.000000e+00
   outer loop
     vertex  5.814814e-01 -3.063492e-01 -1.587302e-02
     vertex  5.194003e-01 -1.511464e-01 -3.174603e-02
     vertex  5.814814e-01 -3.063492e-01 -3.174603e-02
   endloop
 endfacet
 facet normal -9.927089e-01 -1.205367e-01  0.000000e+00
   outer loop
     vertex  7.818921e-01  5.739293e-01 -1.587302e-02
     vertex  7.832451e-01  5.627866e-01 -3.174603e-02
     vertex  7.832451e-01  5.627866e-01 -1.587302e-02
   endloop
 endfacet
 facet normal -9.927089e-01 -1.205367e-01 -0.000000e+00
   outer loop
     vertex  7.818921e-01  5.739293e-01 -1.587302e-02
     vertex  7.818921e-01  5.739293e-01 -3.174603e-02
     vertex  7.832451e-01  5.627866e-01 -3.174603e-02
   endloop
 endfacet
 facet normal -9.350162e-01 -3.546049e-01 -0.000000e+00
   outer loop
     vertex  7.779118e-01  5.844245e-01 -1.587302e-02
     vertex  7.779118e-01  5.844245e-01 -3.174603e-02
     vertex  7.818921e-01  5.739293e-01 -3.174603e-02
   endloop
 endfacet
 facet normal -9.350162e-01 -3.546049e-01  0.000000e+00
   outer loop
     vertex  7.779118e-01  5.844245e-01 -1.587302e-02
     vertex  7.818921e-01  5.739293e-01 -3.174603e-02
     vertex  7.818921e-01  5.739293e-01 -1.587302e-02
   endloop
 endfacet
 facet normal -8.229839e-01 -5.680647e-01 -0.000000e+00
   outer loop
     vertex  7.715355e-01  5.936621e-01 -1.587302e-02
     vertex  7.715355e-01  5.936621e-01 -3.174603e-02
     vertex  7.779118e-01  5.844245e-01 -3.174603e-02
   endloop
 endfacet
 facet normal -8.229839e-01 -5.680647e-01  0.000000e+00
   outer loop
     vertex  7.715355e-01  5.936621e-01 -1.587302e-02
     vertex  7.779118e-01  5.844245e-01 -3.174603e-02
     vertex  7.779118e-01  5.844245e-01 -1.587302e-02
   endloop
 endfacet
 facet normal -6.631227e-01 -7.485107e-01 -0.000000e+00
   outer loop
     vertex  7.631338e-01  6.011054e-01 -1.587302e-02
     vertex  7.631338e-01  6.011054e-01 -3.174603e-02
     vertex  7.715355e-01  5.936621e-01 -3.174603e-02
   endloop
 endfacet
 facet normal -6.631227e-01 -7.485107e-01  0.000000e+00
   outer loop
     vertex  7.631338e-01  6.011054e-01 -1.587302e-02
     vertex  7.715355e-01  5.936621e-01 -3.174603e-02
     vertex  7.715355e-01  5.936621e-01 -1.587302e-02
   endloop
 endfacet
 facet normal -4.647232e-01 -8.854560e-01 -0.000000e+00
   outer loop
     vertex  7.531949e-01  6.063217e-01 -1.587302e-02
     vertex  7.531949e-01  6.063217e-01 -3.174603e-02
     vertex  7.631338e-01  6.011054e-01 -3.174603e-02
   endloop
 endfacet
 facet normal -4.647232e-01 -8.854560e-01  0.000000e+00
   outer loop
     vertex  7.531949e-01  6.063217e-01 -1.587302e-02
     vertex  7.631338e-01  6.011054e-01 -3.174603e-02
     vertex  7.631338e-01  6.011054e-01 -1.587302e-02
   endloop
 endfacet
 facet normal -2.393157e-01 -9.709418e-01 -0.000000e+00
   outer loop
     vertex  7.422965e-01  6.090080e-01 -1.587302e-02
     vertex  7.422965e-01  6.090080e-01 -3.174603e-02
     vertex  7.531949e-01  6.063217e-01 -3.174603e-02
   endloop
 endfacet
 facet normal -2.393157e-01 -9.709418e-01  0.000000e+00
   outer loop
     vertex  7.422965e-01  6.090080e-01 -1.587302e-02
     vertex  7.531949e-01  6.063217e-01 -3.174603e-02
     vertex  7.531949e-01  6.063217e-01 -1.587302e-02
   endloop
 endfacet
 facet normal  0.000000e+00 -1.000000e+00  0.000000e+00
   outer loop
     vertex  7.310719e-01  6.090080e-01 -1.587302e-02
     vertex  7.310719e-01  6.090080e-01 -3.174603e-02
     vertex  7.422965e-01  6.090080e-01 -3.174603e-02
   endloop
 endfacet
 facet normal  0.000000e+00 -1.000000e+00  0.000000e+00
   outer loop
     vertex  7.310719e-01  6.090080e-01 -1.587302e-02
     vertex  7.422965e-01  6.090080e-01 -3.174603e-02
     vertex  7.422965e-01  6.090080e-01 -1.587302e-02
   endloop
 endfacet
 facet normal  2.393157e-01 -9.709418e-01  0.000000e+00
   outer loop
     vertex  7.201735e-01  6.063217e-01 -1.587302e-02
     vertex  7.201735e-01  6.063217e-01 -3.174603e-02
     vertex  7.310719e-01  6.090080e-01 -3.174603e-02
   endloop
 endfacet
 facet normal  2.393157e-01 -9.709418e-01  0.000000e+00
   outer loop
     vertex  7.201735e-01  6.063217e-01 -1.587302e-02
     vertex  7.310719e-01  6.090080e-01 -3.174603e-02
     vertex  7.310719e-01  6.090080e-01 -1.587302e-02
   endloop
 endfacet
 facet normal  4.647232e-01 -8.854560e-01  0.000000e+00
   outer loop
     vertex  7.102347e-01  6.011054e-01 -1.587302e-02
     vertex  7.102347e-01  6.011054e-01 -3.174603e-02
     vertex  7.201735e-01  6.063217e-01 -3.174603e-02
   endloop
 endfacet
 facet normal  4.647232e-01 -8.854560e-01  0.000000e+00
   outer loop
     vertex  7.102347e-01  6.011054e-01 -1.587302e-02
     vertex  7.201735e-01  6.063217e-01 -3.174603e-02
     vertex  7.201735e-01  6.063217e-01 -1.587302e-02
   endloop
 endfacet
 facet normal  6.631227e-01 -7.485107e-01  0.000000e+00
   outer loop
     vertex  7.018329e-01  5.936621e-01 -1.587302e-02
     vertex  7.018329e-01  5.936621e-01 -3.174603e-02
     vertex  7.102347e-01  6.011054e-01 -3.174603e-02
   endloop
 endfacet
 facet normal  6.631227e-01 -7.485107e-01  0.000000e+00
   outer loop
     vertex  7.018329e-01  5.936621e-01 -1.587302e-02
     vertex  7.102347e-01  6.011054e-01 -3.174603e-02
     vertex  7.102347e-01  6.011054e-01 -1.587302e-02
   endloop
 endfacet
 facet normal  8.229839e-01 -5.680647e-01  0.000000e+00
   outer loop
     vertex  6.954566e-01  5.844245e-01 -1.587302e-02
     vertex  7.018329e-01  5.936621e-01 -3.174603e-02
     vertex  7.018329e-01  5.936621e-01 -1.587302e-02
   endloop
 endfacet
 facet normal  8.229839e-01 -5.680647e-01  0.000000e+00
   outer loop
     vertex  6.954566e-01  5.844245e-01 -1.587302e-02
     vertex  6.954566e-01  5.844245e-01 -3.174603e-02
     vertex  7.018329e-01  5.936621e-01 -3.174603e-02
   endloop
 endfacet
 facet normal  9.350162e-01 -3.546049e-01  0.000000e+00
   outer loop
     vertex  6.914764e-01  5.739293e-01 -1.587302e-02
     vertex  6.954566e-01  5.844245e-01 -3.174603e-02
     vertex  6.954566e-01  5.844245e-01 -1.587302e-02
   endloop
 endfacet
 facet normal  9.350162e-01 -3.546049e-01  0.000000e+00
   outer loop
     vertex  6.914764e-01  5.739293e-01 -1.587302e-02
     vertex  6.914764e-01  5.739293e-01 -3.174603e-02
     vertex  6.954566e-01  5.844245e-01 -3.174603e-02
   endloop
 endfacet
 facet normal  9.927089e-01 -1.205367e-01  0.000000e+00
   outer loop
     vertex  6.901234e-01  5.627866e-01 -1.587302e-02
     vertex  6.914764e-01  5.739293e-01 -3.174603e-02
     vertex  6.914764e-01  5.739293e-01 -1.587302e-02
   endloop
 endfacet
 facet normal  9.927089e-01 -1.205367e-01  0.000000e+00
   outer loop
     vertex  6.901234e-01  5.627866e-01 -1.587302e-02
     vertex  6.901234e-01  5.627866e-01 -3.174603e-02
     vertex  6.914764e-01  5.739293e-01 -3.174603e-02
   endloop
 endfacet
 facet normal  9.927089e-01  1.205367e-01  0.000000e+00
   outer loop
     vertex  6.914764e-01  5.516439e-01 -1.587302e-02
     vertex  6.914764e-01  5.516439e-01 -3.174603e-02
     vertex  6.901234e-01  5.627866e-01 -3.174603e-02
   endloop
 endfacet
 facet normal  9.927089e-01  1.205367e-01  0.000000e+00
   outer loop
     vertex  6.914764e-01  5.516439e-01 -1.587302e-02
     vertex  6.901234e-01  5.627866e-01 -3.174603e-02
     vertex  6.901234e-01  5.627866e-01 -1.587302e-02
   endloop
 endfacet
 facet normal  9.350162e-01  3.546049e-01  0.000000e+00
   outer loop
     vertex  6.954566e-01  5.411487e-01 -1.587302e-02
     vertex  6.914764e-01  5.516439e-01 -3.174603e-02
     vertex  6.914764e-01  5.516439e-01 -1.587302e-02
   endloop
 endfacet
 facet normal  9.350162e-01  3.546049e-01  0.000000e+00
   outer loop
     vertex  6.954566e-01  5.411487e-01 -1.587302e-02
     vertex  6.954566e-01  5.411487e-01 -3.174603e-02
     vertex  6.914764e-01  5.516439e-01 -3.174603e-02
   endloop
 endfacet
 facet normal  8.229839e-01  5.680647e-01  0.000000e+00
   outer loop
     vertex  7.018329e-01  5.319110e-01 -1.587302e-02
     vertex  7.018329e-01  5.319110e-01 -3.174603e-02
     vertex  6.954566e-01  5.411487e-01 -3.174603e-02
   endloop
 endfacet
 facet normal  8.229839e-01  5.680647e-01  0.000000e+00
   outer loop
     vertex  7.018329e-01  5.319110e-01 -1.587302e-02
     vertex  6.954566e-01  5.411487e-01 -3.174603e-02
     vertex  6.954566e-01  5.411487e-01 -1.587302e-02
   endloop
 endfacet
 facet normal  6.631227e-01  7.485107e-01  0.000000e+00
   outer loop
     vertex  7.102347e-01  5.244678e-01 -1.587302e-02
     vertex  7.102347e-01  5.244678e-01 -3.174603e-02
     vertex  7.018329e-01  5.319110e-01 -3.174603e-02
   endloop
 endfacet
 facet normal  6.631227e-01  7.485107e-01  0.000000e+00
   outer loop
     vertex  7.102347e-01  5.244678e-01 -1.587302e-02
     vertex  7.018329e-01  5.319110e-01 -3.174603e-02
     vertex  7.018329e-01  5.319110e-01 -1.587302e-02
   endloop
 endfacet
 facet normal  4.647232e-01  8.854560e-01  0.000000e+00
   outer loop
     vertex  7.201735e-01  5.192514e-01 -1.587302e-02
     vertex  7.201735e-01  5.192514e-01 -3.174603e-02
     vertex  7.102347e-01  5.244678e-01 -3.174603e-02
   endloop
 endfacet
 facet normal  4.647232e-01  8.854560e-01  0.000000e+00
   outer loop
     vertex  7.201735e-01  5.192514e-01 -1.587302e-02
     vertex  7.102347e-01  5.244678e-01 -3.174603e-02
     vertex  7.102347e-01  5.244678e-01 -1.587302e-02
   endloop
 endfacet
 facet normal  2.393157e-01  9.709418e-01  0.000000e+00
   outer loop
     vertex  7.310719e-01  5.165652e-01 -1.587302e-02
     vertex  7.310719e-01  5.165652e-01 -3.174603e-02
     vertex  7.201735e-01  5.192514e-01 -3.174603e-02
   endloop
 endfacet
 facet normal  2.393157e-01  9.709418e-01  0.000000e+00
   outer loop
     vertex  7.310719e-01  5.165652e-01 -1.587302e-02
     vertex  7.201735e-01  5.192514e-01 -3.174603e-02
     vertex  7.201735e-01  5.192514e-01 -1.587302e-02
   endloop
 endfacet
 facet normal  0.000000e+00  1.000000e+00  0.000000e+00
   outer loop
     vertex  7.422965e-01  5.165652e-01 -1.587302e-02
     vertex  7.422965e-01  5.165652e-01 -3.174603e-02
     vertex  7.310719e-01  5.165652e-01 -3.174603e-02
   endloop
 endfacet
 facet normal  0.000000e+00  1.000000e+00  0.000000e+00
   outer loop
     vertex  7.422965e-01  5.165652e-01 -1.587302e-02
     vertex  7.310719e-01  5.165652e-01 -3.174603e-02
     vertex  7.310719e-01  5.165652e-01 -1.587302e-02
   endloop
 endfacet
 facet normal -2.393157e-01  9.709418e-01  0.000000e+00
   outer loop
     vertex  7.531949e-01  5.192514e-01 -1.587302e-02
     vertex  7.531949e-01  5.192514e-01 -3.174603e-02
     vertex  7.422965e-01  5.165652e-01 -3.174603e-02
   endloop
 endfacet
 facet normal -2.393157e-01  9.709418e-01  0.000000e+00
   outer loop
     vertex  7.531949e-01  5.192514e-01 -1.587302e-02
     vertex  7.422965e-01  5.165652e-01 -3.174603e-02
     vertex  7.422965e-01  5.165652e-01 -1.587302e-02
   endloop
 endfacet
 facet normal -4.647232e-01  8.854560e-01  0.000000e+00
   outer loop
     vertex  7.631338e-01  5.244678e-01 -1.587302e-02
     vertex  7.631338e-01  5.244678e-01 -3.174603e-02
     vertex  7.531949e-01  5.192514e-01 -3.174603e-02
   endloop
 endfacet
 facet normal -4.647232e-01  8.854560e-01  0.000000e+00
   outer loop
     vertex  7.631338e-01  5.244678e-01 -1.587302e-02
     vertex  7.531949e-01  5.192514e-01 -3.174603e-02
     vertex  7.531949e-01  5.192514e-01 -1.587302e-02
   endloop
 endfacet
 facet normal -6.631227e-01  7.485107e-01  0.000000e+00
   outer loop
     vertex  7.715355e-01  5.319110e-01 -1.587302e-02
     vertex  7.715355e-01  5.319110e-01 -3.174603e-02
     vertex  7.631338e-01  5.244678e-01 -3.174603e-02
   endloop
 endfacet
 facet normal -6.631227e-01  7.485107e-01  0.000000e+00
   outer loop
     vertex  7.715355e-01  5.319110e-01 -1.587302e-02
     vertex  7.631338e-01  5.244678e-01 -3.174603e-02
     vertex  7.631338e-01  5.244678e-01 -1.587302e-02
   endloop
 endfacet
 facet normal -8.229839e-01  5.680647e-01  0.000000e+00
   outer loop
     vertex  7.779118e-01  5.411487e-01 -1.587302e-02
     vertex  7.779118e-01  5.411487e-01 -3.174603e-02
     vertex  7.715355e-01  5.319110e-01 -3.174603e-02
   endloop
 endfacet
 facet normal -8.229839e-01  5.680647e-01  0.000000e+00
   outer loop
     vertex  7.779118e-01  5.411487e-01 -1.587302e-02
     vertex  7.715355e-01  5.319110e-01 -3.174603e-02
     vertex  7.715355e-01  5.319110e-01 -1.587302e-02
   endloop
 endfacet
 facet normal -9.350162e-01  3.546049e-01  0.000000e+00
   outer loop
     vertex  7.818921e-01  5.516439e-01 -1.587302e-02
     vertex  7.818921e-01  5.516439e-01 -3.174603e-02
     vertex  7.779118e-01  5.411487e-01 -3.174603e-02
   endloop
 endfacet
 facet normal -9.350162e-01  3.546049e-01  0.000000e+00
   outer loop
     vertex  7.818921e-01  5.516439e-01 -1.587302e-02
     vertex  7.779118e-01  5.411487e-01 -3.174603e-02
     vertex  7.779118e-01  5.411487e-01 -1.587302e-02
   endloop
 endfacet
 facet normal -9.927089e-01  1.205367e-01  0.000000e+00
   outer loop
     vertex  7.832451e-01  5.627866e-01 -1.587302e-02
     vertex  7.832451e-01  5.627866e-01 -3.174603e-02
     vertex  7.818921e-01  5.516439e-01 -3.174603e-02
   endloop
 endfacet
 facet normal -9.927089e-01  1.205367e-01  0.000000e+00
   outer loop
     vertex  7.832451e-01  5.627866e-01 -1.587302e-02
     vertex  7.818921e-01  5.516439e-01 -3.174603e-02
     vertex  7.818921e-01  5.516439e-01 -1.587302e-02
   endloop
 endfacet
endsolid
