solid 
 facet normal -0.000000e+00  0.000000e+00 -1.000000e+00
   outer loop
     vertex -3.968251e-02 -1.587302e-02 -4.920638e-02
     vertex -1.013228e+00 -8.253968e-01 -4.920638e-02
     vertex -1.013228e+00 -1.587302e-02 -4.920638e-02
   endloop
 endfacet
 facet normal  0.000000e+00 -0.000000e+00 -1.000000e+00
   outer loop
     vertex -3.968251e-02 -1.587302e-02 -4.920638e-02
     vertex -3.968251e-02 -8.253968e-01 -4.920638e-02
     vertex -1.013228e+00 -8.253968e-01 -4.920638e-02
   endloop
 endfacet
 facet normal -1.000000e+00  0.000000e+00  0.000000e+00
   outer loop
     vertex -1.013228e+00 -1.587302e-02 -4.920638e-02
     vertex -1.013228e+00 -8.253968e-01  2.894180e-01
     vertex -1.013228e+00 -1.587302e-02  2.894180e-01
   endloop
 endfacet
 facet normal -1.000000e+00  0.000000e+00  0.000000e+00
   outer loop
     vertex -1.013228e+00 -1.587302e-02 -4.920638e-02
     vertex -1.013228e+00 -8.253968e-01 -4.920638e-02
     vertex -1.013228e+00 -8.253968e-01  2.894180e-01
   endloop
 endfacet
 facet normal  1.000000e+00  0.000000e+00  0.000000e+00
   outer loop
     vertex -3.968251e-02 -1.587302e-02  4.164021e-01
     vertex -3.968251e-02 -8.253968e-01 -4.920638e-02
     vertex -3.968251e-02 -1.587302e-02 -4.920638e-02
   endloop
 endfacet
 facet normal  1.000000e+00  0.000000e+00  0.000000e+00
   outer loop
     vertex -3.968251e-02 -1.587302e-02  4.164021e-01
     vertex -3.968251e-02 -8.253968e-01  4.164021e-01
     vertex -3.968251e-02 -8.253968e-01 -4.920638e-02
   endloop
 endfacet
 facet normal  0.000000e+00  0.000000e+00 -1.000000e+00
   outer loop
     vertex -3.968251e-02 -1.587302e-02 -4.920638e-02
     vertex -1.013228e+00 -1.587302e-02 -4.920638e-02
     vertex -1.013228e+00  8.253968e-01 -4.920638e-02
   endloop
 endfacet
 facet normal  0.000000e+00  0.000000e+00 -1.000000e+00
   outer loop
     vertex -3.968251e-02 -1.587302e-02 -4.920638e-02
     vertex -1.013228e+00  8.253968e-01 -4.920638e-02
     vertex -3.968251e-02  8.253968e-01 -4.920638e-02
   endloop
 endfacet
 facet normal  0.000000e+00 -1.000000e+00  0.000000e+00
   outer loop
     vertex -3.968251e-02 -8.253968e-01 -4.920638e-02
     vertex -1.013228e+00 -8.253968e-01  2.894180e-01
     vertex -1.013228e+00 -8.253968e-01 -4.920638e-02
   endloop
 endfacet
 facet normal -0.000000e+00 -1.000000e+00  0.000000e+00
   outer loop
     vertex -3.968251e-02 -8.253968e-01  4.164021e-01
     vertex -6.111111e-01 -8.253968e-01  8.820106e-01
     vertex -1.013228e+00 -8.253968e-01  2.894180e-01
   endloop
 endfacet
 facet normal  0.000000e+00 -1.000000e+00 -0.000000e+00
   outer loop
     vertex -3.968251e-02 -8.253968e-01  4.164021e-01
     vertex -1.013228e+00 -8.253968e-01  2.894180e-01
     vertex -3.968251e-02 -8.253968e-01 -4.920638e-02
   endloop
 endfacet
 facet normal -8.274758e-01  0.000000e+00  5.615014e-01
   outer loop
     vertex -1.013228e+00 -1.587302e-02  2.894180e-01
     vertex -6.111111e-01 -8.253968e-01  8.820106e-01
     vertex -6.111111e-01 -1.587302e-02  8.820106e-01
   endloop
 endfacet
 facet normal -8.274758e-01  0.000000e+00  5.615014e-01
   outer loop
     vertex -1.013228e+00 -1.587302e-02  2.894180e-01
     vertex -1.013228e+00 -8.253968e-01  2.894180e-01
     vertex -6.111111e-01 -8.253968e-01  8.820106e-01
   endloop
 endfacet
 facet normal -1.000000e+00  0.000000e+00  0.000000e+00
   outer loop
     vertex -1.013228e+00 -1.587302e-02 -4.920638e-02
     vertex -1.013228e+00 -1.587302e-02  2.894180e-01
     vertex -1.013228e+00  8.253968e-01  2.894180e-01
   endloop
 endfacet
 facet normal -1.000000e+00  0.000000e+00  0.000000e+00
   outer loop
     vertex -1.013228e+00 -1.587302e-02 -4.920638e-02
     vertex -1.013228e+00  8.253968e-01  2.894180e-01
     vertex -1.013228e+00  8.253968e-01 -4.920638e-02
   endloop
 endfacet
 facet normal  6.316730e-01  0.000000e+00  7.752350e-01
   outer loop
     vertex -6.111111e-01 -1.587302e-02  8.820106e-01
     vertex -3.968251e-02 -8.253968e-01  4.164021e-01
     vertex -3.968251e-02 -1.587302e-02  4.164021e-01
   endloop
 endfacet
 facet normal  6.316730e-01  0.000000e+00  7.752350e-01
   outer loop
     vertex -6.111111e-01 -1.587302e-02  8.820106e-01
     vertex -6.111111e-01 -8.253968e-01  8.820106e-01
     vertex -3.968251e-02 -8.253968e-01  4.164021e-01
   endloop
 endfacet
 facet normal  1.000000e+00  0.000000e+00  0.000000e+00
   outer loop
     vertex -3.968251e-02 -1.587302e-02  4.164021e-01
     vertex -3.968251e-02 -1.587302e-02 -4.920638e-02
     vertex -3.968251e-02  8.253968e-01 -4.920638e-02
   endloop
 endfacet
 facet normal  1.000000e+00 -0.000000e+00  0.000000e+00
   outer loop
     vertex -3.968251e-02 -1.587302e-02  4.164021e-01
     vertex -3.968251e-02  8.253968e-01 -4.920638e-02
     vertex -3.968251e-02  8.253968e-01  4.164021e-01
   endloop
 endfacet
 facet normal  0.000000e+00  1.000000e+00  0.000000e+00
   outer loop
     vertex -3.968251e-02  8.253968e-01 -4.920638e-02
     vertex -1.013228e+00  8.253968e-01 -4.920638e-02
     vertex -1.013228e+00  8.253968e-01  2.894180e-01
   endloop
 endfacet
 facet normal  0.000000e+00  1.000000e+00  0.000000e+00
   outer loop
     vertex -3.968251e-02  8.253968e-01  4.164021e-01
     vertex -1.013228e+00  8.253968e-01  2.894180e-01
     vertex -6.111111e-01  8.253968e-01  8.820106e-01
   endloop
 endfacet
 facet normal  0.000000e+00  1.000000e+00  0.000000e+00
   outer loop
     vertex -3.968251e-02  8.253968e-01  4.164021e-01
     vertex -3.968251e-02  8.253968e-01 -4.920638e-02
     vertex -1.013228e+00  8.253968e-01  2.894180e-01
   endloop
 endfacet
 facet normal -8.274758e-01  0.000000e+00  5.615014e-01
   outer loop
     vertex -1.013228e+00 -1.587302e-02  2.894180e-01
     vertex -6.111111e-01 -1.587302e-02  8.820106e-01
     vertex -6.111111e-01  8.253968e-01  8.820106e-01
   endloop
 endfacet
 facet normal -8.274758e-01  0.000000e+00  5.615014e-01
   outer loop
     vertex -1.013228e+00 -1.587302e-02  2.894180e-01
     vertex -6.111111e-01  8.253968e-01  8.820106e-01
     vertex -1.013228e+00  8.253968e-01  2.894180e-01
   endloop
 endfacet
 facet normal  6.316730e-01  0.000000e+00  7.752350e-01
   outer loop
     vertex -6.111111e-01 -1.587302e-02  8.820106e-01
     vertex -3.968251e-02 -1.587302e-02  4.164021e-01
     vertex -3.968251e-02  8.253968e-01  4.164021e-01
   endloop
 endfacet
 facet normal  6.316730e-01 -0.000000e+00  7.752350e-01
   outer loop
     vertex -6.111111e-01 -1.587302e-02  8.820106e-01
     vertex -3.968251e-02  8.253968e-01  4.164021e-01
     vertex -6.111111e-01  8.253968e-01  8.820106e-01
   endloop
 endfacet
endsolid
