solid 
 facet normal -9.989685e-01  0.000000e+00  4.540767e-02
   outer loop
     vertex -3.192237e-02 -1.587302e-02 -2.839503e-02
     vertex -3.474424e-02 -1.587302e-02 -9.047616e-02
     vertex -3.474424e-02 -1.015873e+00 -9.047616e-02
   endloop
 endfacet
 facet normal -9.989685e-01  0.000000e+00  4.540767e-02
   outer loop
     vertex -3.192237e-02 -1.587302e-02 -2.839503e-02
     vertex -3.474424e-02 -1.015873e+00 -9.047616e-02
     vertex -3.192237e-02 -1.015873e+00 -2.839503e-02
   endloop
 endfacet
 facet normal  0.000000e+00  0.000000e+00 -1.000000e+00
   outer loop
     vertex -3.474424e-02 -1.587302e-02 -9.047616e-02
     vertex  3.015876e-02 -1.587302e-02 -9.047616e-02
     vertex  3.015876e-02 -1.015873e+00 -9.047616e-02
   endloop
 endfacet
 facet normal  0.000000e+00  0.000000e+00 -1.000000e+00
   outer loop
     vertex -3.474424e-02 -1.587302e-02 -9.047616e-02
     vertex  3.015876e-02 -1.015873e+00 -9.047616e-02
     vertex -3.474424e-02 -1.015873e+00 -9.047616e-02
   endloop
 endfacet
 facet normal  0.000000e+00  0.000000e+00  1.000000e+00
   outer loop
     vertex -3.051144e-02 -1.587302e-02 -2.839503e-02
     vertex -3.192237e-02 -1.587302e-02 -2.839503e-02
     vertex -3.192237e-02 -1.015873e+00 -2.839503e-02
   endloop
 endfacet
 facet normal  0.000000e+00  0.000000e+00  1.000000e+00
   outer loop
     vertex -3.051144e-02 -1.587302e-02 -2.839503e-02
     vertex -3.192237e-02 -1.015873e+00 -2.839503e-02
     vertex -3.051144e-02 -1.015873e+00 -2.839503e-02
   endloop
 endfacet
 facet normal -9.989685e-01  0.000000e+00  4.540767e-02
   outer loop
     vertex -3.192237e-02 -1.587302e-02 -2.839503e-02
     vertex -3.474424e-02  0.000000e+00 -9.047616e-02
     vertex -3.474424e-02 -1.587302e-02 -9.047616e-02
   endloop
 endfacet
 facet normal -9.989685e-01  0.000000e+00  4.540767e-02
   outer loop
     vertex -3.192237e-02 -1.587302e-02 -2.839503e-02
     vertex -3.192237e-02  0.000000e+00 -2.839503e-02
     vertex -3.474424e-02  0.000000e+00 -9.047616e-02
   endloop
 endfacet
 facet normal  0.000000e+00 -1.000000e+00 -0.000000e+00
   outer loop
     vertex -3.192237e-02 -1.015873e+00 -2.839503e-02
     vertex -3.474424e-02 -1.015873e+00 -9.047616e-02
     vertex -3.051144e-02 -1.015873e+00 -8.624335e-02
   endloop
 endfacet
 facet normal  0.000000e+00 -1.000000e+00  0.000000e+00
   outer loop
     vertex  3.015876e-02 -1.015873e+00 -9.047616e-02
     vertex  2.592596e-02 -1.015873e+00 -8.624335e-02
     vertex -3.051144e-02 -1.015873e+00 -8.624335e-02
   endloop
 endfacet
 facet normal  0.000000e+00 -1.000000e+00  0.000000e+00
   outer loop
     vertex  3.015876e-02 -1.015873e+00 -9.047616e-02
     vertex -3.051144e-02 -1.015873e+00 -8.624335e-02
     vertex -3.474424e-02 -1.015873e+00 -9.047616e-02
   endloop
 endfacet
 facet normal -0.000000e+00 -1.000000e+00 -0.000000e+00
   outer loop
     vertex -3.051144e-02 -1.015873e+00 -2.839503e-02
     vertex -3.192237e-02 -1.015873e+00 -2.839503e-02
     vertex -3.051144e-02 -1.015873e+00 -8.624335e-02
   endloop
 endfacet
 facet normal -0.000000e+00 -1.000000e+00  0.000000e+00
   outer loop
     vertex  2.733689e-02 -1.015873e+00 -2.839503e-02
     vertex  2.592596e-02 -1.015873e+00 -2.839503e-02
     vertex  2.592596e-02 -1.015873e+00 -8.624335e-02
   endloop
 endfacet
 facet normal  0.000000e+00 -1.000000e+00 -0.000000e+00
   outer loop
     vertex  2.733689e-02 -1.015873e+00 -2.839503e-02
     vertex  2.592596e-02 -1.015873e+00 -8.624335e-02
     vertex  3.015876e-02 -1.015873e+00 -9.047616e-02
   endloop
 endfacet
 facet normal  9.989685e-01  0.000000e+00  4.540767e-02
   outer loop
     vertex  3.015876e-02 -1.587302e-02 -9.047616e-02
     vertex  2.733689e-02 -1.587302e-02 -2.839503e-02
     vertex  2.733689e-02 -1.015873e+00 -2.839503e-02
   endloop
 endfacet
 facet normal  9.989685e-01  0.000000e+00  4.540767e-02
   outer loop
     vertex  3.015876e-02 -1.587302e-02 -9.047616e-02
     vertex  2.733689e-02 -1.015873e+00 -2.839503e-02
     vertex  3.015876e-02 -1.015873e+00 -9.047616e-02
   endloop
 endfacet
 facet normal  0.000000e+00  0.000000e+00 -1.000000e+00
   outer loop
     vertex -3.474424e-02 -1.587302e-02 -9.047616e-02
     vertex  3.015876e-02  0.000000e+00 -9.047616e-02
     vertex  3.015876e-02 -1.587302e-02 -9.047616e-02
   endloop
 endfacet
 facet normal  0.000000e+00  0.000000e+00 -1.000000e+00
   outer loop
     vertex -3.474424e-02 -1.587302e-02 -9.047616e-02
     vertex -3.474424e-02  0.000000e+00 -9.047616e-02
     vertex  3.015876e-02  0.000000e+00 -9.047616e-02
   endloop
 endfacet
 facet normal  1.000000e+00  0.000000e+00 -0.000000e+00
   outer loop
     vertex -3.051144e-02 -1.587302e-02 -8.624335e-02
     vertex -3.051144e-02 -1.587302e-02 -2.839503e-02
     vertex -3.051144e-02 -1.015873e+00 -2.839503e-02
   endloop
 endfacet
 facet normal  1.000000e+00  0.000000e+00  0.000000e+00
   outer loop
     vertex -3.051144e-02 -1.587302e-02 -8.624335e-02
     vertex -3.051144e-02 -1.015873e+00 -2.839503e-02
     vertex -3.051144e-02 -1.015873e+00 -8.624335e-02
   endloop
 endfacet
 facet normal  0.000000e+00  0.000000e+00  1.000000e+00
   outer loop
     vertex -3.051144e-02 -1.587302e-02 -2.839503e-02
     vertex -3.192237e-02  0.000000e+00 -2.839503e-02
     vertex -3.192237e-02 -1.587302e-02 -2.839503e-02
   endloop
 endfacet
 facet normal  0.000000e+00 -0.000000e+00  1.000000e+00
   outer loop
     vertex -3.051144e-02 -1.587302e-02 -2.839503e-02
     vertex -3.051144e-02  0.000000e+00 -2.839503e-02
     vertex -3.192237e-02  0.000000e+00 -2.839503e-02
   endloop
 endfacet
 facet normal  0.000000e+00  1.000000e+00  0.000000e+00
   outer loop
     vertex -3.192237e-02  6.591949e-17 -2.839503e-02
     vertex -3.051144e-02  6.591949e-17 -8.624335e-02
     vertex -3.474424e-02  6.591949e-17 -9.047616e-02
   endloop
 endfacet
 facet normal  0.000000e+00  1.000000e+00  0.000000e+00
   outer loop
     vertex  3.015876e-02  6.591949e-17 -9.047616e-02
     vertex -3.051144e-02  6.591949e-17 -8.624335e-02
     vertex  2.592596e-02  6.591949e-17 -8.624335e-02
   endloop
 endfacet
 facet normal  0.000000e+00  1.000000e+00  0.000000e+00
   outer loop
     vertex  3.015876e-02  6.591949e-17 -9.047616e-02
     vertex -3.474424e-02  6.591949e-17 -9.047616e-02
     vertex -3.051144e-02  6.591949e-17 -8.624335e-02
   endloop
 endfacet
 facet normal  0.000000e+00  1.000000e+00  0.000000e+00
   outer loop
     vertex -3.051144e-02  6.591949e-17 -2.839503e-02
     vertex -3.051144e-02  6.591949e-17 -8.624335e-02
     vertex -3.192237e-02  6.591949e-17 -2.839503e-02
   endloop
 endfacet
 facet normal  0.000000e+00  1.000000e+00  0.000000e+00
   outer loop
     vertex  2.733689e-02  6.591949e-17 -2.839503e-02
     vertex  2.592596e-02  6.591949e-17 -8.624335e-02
     vertex  2.592596e-02  6.591949e-17 -2.839503e-02
   endloop
 endfacet
 facet normal  0.000000e+00  1.000000e+00  0.000000e+00
   outer loop
     vertex  2.733689e-02  6.591949e-17 -2.839503e-02
     vertex  3.015876e-02  6.591949e-17 -9.047616e-02
     vertex  2.592596e-02  6.591949e-17 -8.624335e-02
   endloop
 endfacet
 facet normal  0.000000e+00  0.000000e+00  1.000000e+00
   outer loop
     vertex  2.592596e-02 -1.587302e-02 -8.624335e-02
     vertex -3.051144e-02 -1.587302e-02 -8.624335e-02
     vertex -3.051144e-02 -1.015873e+00 -8.624335e-02
   endloop
 endfacet
 facet normal  0.000000e+00  0.000000e+00  1.000000e+00
   outer loop
     vertex  2.592596e-02 -1.587302e-02 -8.624335e-02
     vertex -3.051144e-02 -1.015873e+00 -8.624335e-02
     vertex  2.592596e-02 -1.015873e+00 -8.624335e-02
   endloop
 endfacet
 facet normal -1.000000e+00  0.000000e+00 -0.000000e+00
   outer loop
     vertex  2.592596e-02 -1.587302e-02 -2.839503e-02
     vertex  2.592596e-02 -1.587302e-02 -8.624335e-02
     vertex  2.592596e-02 -1.015873e+00 -8.624335e-02
   endloop
 endfacet
 facet normal -1.000000e+00 -0.000000e+00  0.000000e+00
   outer loop
     vertex  2.592596e-02 -1.587302e-02 -2.839503e-02
     vertex  2.592596e-02 -1.015873e+00 -8.624335e-02
     vertex  2.592596e-02 -1.015873e+00 -2.839503e-02
   endloop
 endfacet
 facet normal  0.000000e+00  0.000000e+00  1.000000e+00
   outer loop
     vertex  2.733689e-02 -1.587302e-02 -2.839503e-02
     vertex  2.592596e-02 -1.587302e-02 -2.839503e-02
     vertex  2.592596e-02 -1.015873e+00 -2.839503e-02
   endloop
 endfacet
 facet normal  0.000000e+00  0.000000e+00  1.000000e+00
   outer loop
     vertex  2.733689e-02 -1.587302e-02 -2.839503e-02
     vertex  2.592596e-02 -1.015873e+00 -2.839503e-02
     vertex  2.733689e-02 -1.015873e+00 -2.839503e-02
   endloop
 endfacet
 facet normal  9.989685e-01  0.000000e+00  4.540767e-02
   outer loop
     vertex  3.015876e-02 -1.587302e-02 -9.047616e-02
     vertex  2.733689e-02  0.000000e+00 -2.839503e-02
     vertex  2.733689e-02 -1.587302e-02 -2.839503e-02
   endloop
 endfacet
 facet normal  9.989685e-01 -0.000000e+00  4.540767e-02
   outer loop
     vertex  3.015876e-02 -1.587302e-02 -9.047616e-02
     vertex  3.015876e-02  0.000000e+00 -9.047616e-02
     vertex  2.733689e-02  0.000000e+00 -2.839503e-02
   endloop
 endfacet
 facet normal  1.000000e+00  0.000000e+00  0.000000e+00
   outer loop
     vertex -3.051144e-02 -1.587302e-02 -8.624335e-02
     vertex -3.051144e-02  0.000000e+00 -2.839503e-02
     vertex -3.051144e-02 -1.587302e-02 -2.839503e-02
   endloop
 endfacet
 facet normal  1.000000e+00  0.000000e+00  0.000000e+00
   outer loop
     vertex -3.051144e-02 -1.587302e-02 -8.624335e-02
     vertex -3.051144e-02  0.000000e+00 -8.624335e-02
     vertex -3.051144e-02  0.000000e+00 -2.839503e-02
   endloop
 endfacet
 facet normal  0.000000e+00  0.000000e+00  1.000000e+00
   outer loop
     vertex  2.592596e-02 -1.587302e-02 -8.624335e-02
     vertex -3.051144e-02  0.000000e+00 -8.624335e-02
     vertex -3.051144e-02 -1.587302e-02 -8.624335e-02
   endloop
 endfacet
 facet normal  0.000000e+00 -0.000000e+00  1.000000e+00
   outer loop
     vertex  2.592596e-02 -1.587302e-02 -8.624335e-02
     vertex  2.592596e-02  0.000000e+00 -8.624335e-02
     vertex -3.051144e-02  0.000000e+00 -8.624335e-02
   endloop
 endfacet
 facet normal -1.000000e+00  0.000000e+00  0.000000e+00
   outer loop
     vertex  2.592596e-02 -1.587302e-02 -2.839503e-02
     vertex  2.592596e-02  0.000000e+00 -8.624335e-02
     vertex  2.592596e-02 -1.587302e-02 -8.624335e-02
   endloop
 endfacet
 facet normal -1.000000e+00  0.000000e+00  0.000000e+00
   outer loop
     vertex  2.592596e-02 -1.587302e-02 -2.839503e-02
     vertex  2.592596e-02  0.000000e+00 -2.839503e-02
     vertex  2.592596e-02  0.000000e+00 -8.624335e-02
   endloop
 endfacet
 facet normal  0.000000e+00  0.000000e+00  1.000000e+00
   outer loop
     vertex  2.733689e-02 -1.587302e-02 -2.839503e-02
     vertex  2.592596e-02  0.000000e+00 -2.839503e-02
     vertex  2.592596e-02 -1.587302e-02 -2.839503e-02
   endloop
 endfacet
 facet normal  0.000000e+00 -0.000000e+00  1.000000e+00
   outer loop
     vertex  2.733689e-02 -1.587302e-02 -2.839503e-02
     vertex  2.733689e-02  0.000000e+00 -2.839503e-02
     vertex  2.592596e-02  0.000000e+00 -2.839503e-02
   endloop
 endfacet
endsolid
