solid 
 facet normal -5.144957e-01  0.000000e+00  8.574930e-01
   outer loop
     vertex -2.296432e-01 -1.587302e-02  3.928648e-02
     vertex -3.148149e-01 -1.587302e-02 -1.181652e-02
     vertex -3.148149e-01 -3.809524e-01 -1.181652e-02
   endloop
 endfacet
 facet normal -5.144957e-01  7.497064e-17  8.574930e-01
   outer loop
     vertex -2.296432e-01 -1.587302e-02  3.928648e-02
     vertex -3.148149e-01 -3.809524e-01 -1.181652e-02
     vertex -2.296432e-01 -3.809524e-01  3.928648e-02
   endloop
 endfacet
 facet normal -5.144957e-01  0.000000e+00  8.574930e-01
   outer loop
     vertex -2.296432e-01 -1.587302e-02  3.928648e-02
     vertex -3.148149e-01  0.000000e+00 -1.181652e-02
     vertex -3.148149e-01 -1.587302e-02 -1.181652e-02
   endloop
 endfacet
 facet normal -5.144957e-01  0.000000e+00  8.574930e-01
   outer loop
     vertex -2.296432e-01 -1.587302e-02  3.928648e-02
     vertex -2.296432e-01  0.000000e+00  3.928648e-02
     vertex -3.148149e-01  0.000000e+00 -1.181652e-02
   endloop
 endfacet
 facet normal  7.974521e-02  0.000000e+00 -9.968153e-01
   outer loop
     vertex -2.296432e-01 -3.809524e-01  3.928648e-02
     vertex -1.746035e-02 -3.809524e-01  5.626111e-02
     vertex -1.746035e-02 -1.015873e+00  5.626111e-02
   endloop
 endfacet
 facet normal  7.974521e-02 -1.103013e-17 -9.968153e-01
   outer loop
     vertex -2.296432e-01 -3.809524e-01  3.928648e-02
     vertex -1.746035e-02 -1.015873e+00  5.626111e-02
     vertex -2.643739e-01 -1.015873e+00  3.650802e-02
   endloop
 endfacet
 facet normal  7.974521e-02  7.031976e-17 -9.968153e-01
   outer loop
     vertex -2.643739e-01 -1.587302e-02  3.650802e-02
     vertex -2.296432e-01 -1.587302e-02  3.928648e-02
     vertex -2.296432e-01 -3.809524e-01  3.928648e-02
   endloop
 endfacet
 facet normal  7.974521e-02  0.000000e+00 -9.968153e-01
   outer loop
     vertex -2.643739e-01 -1.015873e+00  3.650802e-02
     vertex -2.643739e-01 -1.587302e-02  3.650802e-02
     vertex -2.296432e-01 -3.809524e-01  3.928648e-02
   endloop
 endfacet
 facet normal  0.000000e+00 -1.000000e+00  0.000000e+00
   outer loop
     vertex -1.746035e-02 -3.809524e-01  5.626111e-02
     vertex -2.296432e-01 -3.809524e-01  3.928648e-02
     vertex -3.148149e-01 -3.809524e-01 -1.181652e-02
   endloop
 endfacet
 facet normal  0.000000e+00 -1.000000e+00  0.000000e+00
   outer loop
     vertex  3.553792e-01 -3.809524e-01 -1.181652e-02
     vertex  9.979217e-02 -3.809524e-01  1.415357e-01
     vertex -1.746035e-02 -3.809524e-01  5.626111e-02
   endloop
 endfacet
 facet normal  0.000000e+00 -1.000000e+00  0.000000e+00
   outer loop
     vertex  3.553792e-01 -3.809524e-01 -1.181652e-02
     vertex -1.746035e-02 -3.809524e-01  5.626111e-02
     vertex -3.148149e-01 -3.809524e-01 -1.181652e-02
   endloop
 endfacet
 facet normal  0.000000e+00  0.000000e+00 -1.000000e+00
   outer loop
     vertex -3.148149e-01 -1.587302e-02 -1.181652e-02
     vertex  3.553792e-01 -1.587302e-02 -1.181652e-02
     vertex  3.553792e-01 -3.809524e-01 -1.181652e-02
   endloop
 endfacet
 facet normal  0.000000e+00  0.000000e+00 -1.000000e+00
   outer loop
     vertex -3.148149e-01 -1.587302e-02 -1.181652e-02
     vertex  3.553792e-01 -3.809524e-01 -1.181652e-02
     vertex -3.148149e-01 -3.809524e-01 -1.181652e-02
   endloop
 endfacet
 facet normal  7.974521e-02  0.000000e+00 -9.968153e-01
   outer loop
     vertex -2.643739e-01 -1.587302e-02  3.650802e-02
     vertex -2.296432e-01  0.000000e+00  3.928648e-02
     vertex -2.296432e-01 -1.587302e-02  3.928648e-02
   endloop
 endfacet
 facet normal  7.974521e-02  0.000000e+00 -9.968153e-01
   outer loop
     vertex -2.643739e-01 -1.587302e-02  3.650802e-02
     vertex -2.643739e-01  0.000000e+00  3.650802e-02
     vertex -2.296432e-01  0.000000e+00  3.928648e-02
   endloop
 endfacet
 facet normal  0.000000e+00  1.000000e+00  0.000000e+00
   outer loop
     vertex -1.746035e-02  0.000000e+00  5.626111e-02
     vertex -3.148149e-01  0.000000e+00 -1.181652e-02
     vertex -2.296432e-01  0.000000e+00  3.928648e-02
   endloop
 endfacet
 facet normal  0.000000e+00  1.000000e+00  0.000000e+00
   outer loop
     vertex  3.553792e-01  0.000000e+00 -1.181652e-02
     vertex -1.746035e-02  0.000000e+00  5.626111e-02
     vertex  9.979217e-02  0.000000e+00  1.415357e-01
   endloop
 endfacet
 facet normal  0.000000e+00  1.000000e+00  0.000000e+00
   outer loop
     vertex  3.553792e-01  0.000000e+00 -1.181652e-02
     vertex -3.148149e-01  0.000000e+00 -1.181652e-02
     vertex -1.746035e-02  0.000000e+00  5.626111e-02
   endloop
 endfacet
 facet normal  0.000000e+00  0.000000e+00 -1.000000e+00
   outer loop
     vertex -3.148149e-01 -1.587302e-02 -1.181652e-02
     vertex  3.553792e-01  0.000000e+00 -1.181652e-02
     vertex  3.553792e-01 -1.587302e-02 -1.181652e-02
   endloop
 endfacet
 facet normal  0.000000e+00  0.000000e+00 -1.000000e+00
   outer loop
     vertex -3.148149e-01 -1.587302e-02 -1.181652e-02
     vertex -3.148149e-01  0.000000e+00 -1.181652e-02
     vertex  3.553792e-01  0.000000e+00 -1.181652e-02
   endloop
 endfacet
 facet normal -4.090559e-01  0.000000e+00  9.125093e-01
   outer loop
     vertex  4.425408e-02 -3.809524e-01  1.748585e-01
     vertex -2.643739e-01 -1.015873e+00  3.650802e-02
     vertex  3.084656e-01 -1.015873e+00  2.932982e-01
   endloop
 endfacet
 facet normal -4.090559e-01  2.629956e-17  9.125093e-01
   outer loop
     vertex  4.425408e-02 -3.809524e-01  1.748585e-01
     vertex -1.453421e-01 -3.809524e-01  8.986711e-02
     vertex -2.643739e-01 -1.015873e+00  3.650802e-02
   endloop
 endfacet
 facet normal -4.090559e-01  0.000000e+00  9.125093e-01
   outer loop
     vertex -2.643739e-01 -1.587302e-02  3.650802e-02
     vertex -2.643739e-01 -1.015873e+00  3.650802e-02
     vertex -1.453421e-01 -3.809524e-01  8.986711e-02
   endloop
 endfacet
 facet normal -4.090559e-01  2.511838e-17  9.125093e-01
   outer loop
     vertex -1.453421e-01 -1.587302e-02  8.986711e-02
     vertex -2.643739e-01 -1.587302e-02  3.650802e-02
     vertex -1.453421e-01 -3.809524e-01  8.986711e-02
   endloop
 endfacet
 facet normal -4.090559e-01  0.000000e+00  9.125093e-01
   outer loop
     vertex  3.084656e-01 -1.587302e-02  2.932982e-01
     vertex  4.425408e-02 -1.587302e-02  1.748585e-01
     vertex  4.425408e-02 -3.809524e-01  1.748585e-01
   endloop
 endfacet
 facet normal -4.090559e-01  0.000000e+00  9.125093e-01
   outer loop
     vertex  3.084656e-01 -1.587302e-02  2.932982e-01
     vertex  4.425408e-02 -3.809524e-01  1.748585e-01
     vertex  3.084656e-01 -1.015873e+00  2.932982e-01
   endloop
 endfacet
 facet normal  0.000000e+00 -1.000000e+00  0.000000e+00
   outer loop
     vertex  3.084656e-01 -1.015873e+00  2.932982e-01
     vertex -2.643739e-01 -1.015873e+00  3.650802e-02
     vertex -1.746035e-02 -1.015873e+00  5.626111e-02
   endloop
 endfacet
 facet normal  5.881717e-01 -1.355903e-17 -8.087361e-01
   outer loop
     vertex  9.979217e-02 -3.809524e-01  1.415357e-01
     vertex  3.084656e-01 -1.015873e+00  2.932982e-01
     vertex -1.746035e-02 -1.015873e+00  5.626111e-02
   endloop
 endfacet
 facet normal  5.881717e-01  0.000000e+00 -8.087361e-01
   outer loop
     vertex  3.084656e-01 -1.587302e-02  2.932982e-01
     vertex  3.084656e-01 -1.015873e+00  2.932982e-01
     vertex  9.979217e-02 -3.809524e-01  1.415357e-01
   endloop
 endfacet
 facet normal  5.881717e-01  0.000000e+00 -8.087361e-01
   outer loop
     vertex -1.746035e-02 -3.809524e-01  5.626111e-02
     vertex  9.979217e-02 -3.809524e-01  1.415357e-01
     vertex -1.746035e-02 -1.015873e+00  5.626111e-02
   endloop
 endfacet
 facet normal  5.881717e-01  4.471642e-17 -8.087361e-01
   outer loop
     vertex  9.979217e-02 -1.587302e-02  1.415357e-01
     vertex  3.084656e-01 -1.587302e-02  2.932982e-01
     vertex  9.979217e-02 -3.809524e-01  1.415357e-01
   endloop
 endfacet
 facet normal  5.144957e-01  6.376681e-17  8.574929e-01
   outer loop
     vertex  3.553792e-01 -1.587302e-02 -1.181652e-02
     vertex  9.979217e-02 -1.587302e-02  1.415357e-01
     vertex  9.979217e-02 -3.809524e-01  1.415357e-01
   endloop
 endfacet
 facet normal  5.144957e-01  0.000000e+00  8.574929e-01
   outer loop
     vertex  3.553792e-01 -1.587302e-02 -1.181652e-02
     vertex  9.979217e-02 -3.809524e-01  1.415357e-01
     vertex  3.553792e-01 -3.809524e-01 -1.181652e-02
   endloop
 endfacet
 facet normal -4.090559e-01  0.000000e+00  9.125093e-01
   outer loop
     vertex -1.453421e-01 -1.587302e-02  8.986711e-02
     vertex -2.643739e-01  0.000000e+00  3.650802e-02
     vertex -2.643739e-01 -1.587302e-02  3.650802e-02
   endloop
 endfacet
 facet normal -4.090559e-01  0.000000e+00  9.125093e-01
   outer loop
     vertex -1.453421e-01 -1.587302e-02  8.986711e-02
     vertex -1.453421e-01  0.000000e+00  8.986711e-02
     vertex -2.643739e-01  0.000000e+00  3.650802e-02
   endloop
 endfacet
 facet normal  0.000000e+00  1.000000e+00  0.000000e+00
   outer loop
     vertex -1.453421e-01  0.000000e+00  8.986711e-02
     vertex -2.296432e-01  0.000000e+00  3.928648e-02
     vertex -2.643739e-01  0.000000e+00  3.650802e-02
   endloop
 endfacet
 facet normal  0.000000e+00  1.000000e+00  0.000000e+00
   outer loop
     vertex -1.746035e-02  0.000000e+00  5.626111e-02
     vertex -2.296432e-01  0.000000e+00  3.928648e-02
     vertex -1.453421e-01  0.000000e+00  8.986711e-02
   endloop
 endfacet
 facet normal  0.000000e+00  1.000000e+00  0.000000e+00
   outer loop
     vertex  4.425408e-02  0.000000e+00  1.748585e-01
     vertex -1.746035e-02  0.000000e+00  5.626111e-02
     vertex -1.453421e-01  0.000000e+00  8.986711e-02
   endloop
 endfacet
 facet normal  0.000000e+00  1.000000e+00  0.000000e+00
   outer loop
     vertex  9.979217e-02  0.000000e+00  1.415357e-01
     vertex -1.746035e-02  0.000000e+00  5.626111e-02
     vertex  4.425408e-02  0.000000e+00  1.748585e-01
   endloop
 endfacet
 facet normal  5.144957e-01  0.000000e+00  8.574929e-01
   outer loop
     vertex  3.553792e-01 -1.587302e-02 -1.181652e-02
     vertex  9.979217e-02  0.000000e+00  1.415357e-01
     vertex  9.979217e-02 -1.587302e-02  1.415357e-01
   endloop
 endfacet
 facet normal  5.144957e-01 -0.000000e+00  8.574929e-01
   outer loop
     vertex  3.553792e-01 -1.587302e-02 -1.181652e-02
     vertex  3.553792e-01  0.000000e+00 -1.181652e-02
     vertex  9.979217e-02  0.000000e+00  1.415357e-01
   endloop
 endfacet
 facet normal -5.144957e-01 -4.920163e-17  8.574930e-01
   outer loop
     vertex  2.028216e-02 -1.587302e-02  1.892417e-01
     vertex -1.453421e-01 -1.587302e-02  8.986711e-02
     vertex -1.453421e-01 -3.809524e-01  8.986711e-02
   endloop
 endfacet
 facet normal -5.144957e-01  0.000000e+00  8.574930e-01
   outer loop
     vertex  2.028216e-02 -1.587302e-02  1.892417e-01
     vertex -1.453421e-01 -3.809524e-01  8.986711e-02
     vertex  2.028216e-02 -3.809524e-01  1.892417e-01
   endloop
 endfacet
 facet normal -0.000000e+00 -1.000000e+00  0.000000e+00
   outer loop
     vertex  4.425408e-02 -3.809524e-01  1.748585e-01
     vertex  2.028216e-02 -3.809524e-01  1.892417e-01
     vertex -1.453421e-01 -3.809524e-01  8.986711e-02
   endloop
 endfacet
 facet normal  5.144957e-01  0.000000e+00  8.574929e-01
   outer loop
     vertex  4.425408e-02 -1.587302e-02  1.748585e-01
     vertex  2.028216e-02 -1.587302e-02  1.892417e-01
     vertex  2.028216e-02 -3.809524e-01  1.892417e-01
   endloop
 endfacet
 facet normal  5.144957e-01  1.238646e-16  8.574929e-01
   outer loop
     vertex  4.425408e-02 -1.587302e-02  1.748585e-01
     vertex  2.028216e-02 -3.809524e-01  1.892417e-01
     vertex  4.425408e-02 -3.809524e-01  1.748585e-01
   endloop
 endfacet
 facet normal -4.090559e-01  0.000000e+00  9.125093e-01
   outer loop
     vertex  3.084656e-01 -1.587302e-02  2.932982e-01
     vertex  4.425408e-02  0.000000e+00  1.748585e-01
     vertex  4.425408e-02 -1.587302e-02  1.748585e-01
   endloop
 endfacet
 facet normal -4.090559e-01  0.000000e+00  9.125093e-01
   outer loop
     vertex  3.084656e-01 -1.587302e-02  2.932982e-01
     vertex  3.084656e-01  0.000000e+00  2.932982e-01
     vertex  4.425408e-02  0.000000e+00  1.748585e-01
   endloop
 endfacet
 facet normal  5.881717e-01  0.000000e+00 -8.087361e-01
   outer loop
     vertex  9.979217e-02 -1.587302e-02  1.415357e-01
     vertex  3.084656e-01  0.000000e+00  2.932982e-01
     vertex  3.084656e-01 -1.587302e-02  2.932982e-01
   endloop
 endfacet
 facet normal  5.881717e-01  0.000000e+00 -8.087361e-01
   outer loop
     vertex  9.979217e-02 -1.587302e-02  1.415357e-01
     vertex  9.979217e-02  0.000000e+00  1.415357e-01
     vertex  3.084656e-01  0.000000e+00  2.932982e-01
   endloop
 endfacet
 facet normal -5.144957e-01  0.000000e+00  8.574930e-01
   outer loop
     vertex  2.028216e-02 -1.587302e-02  1.892417e-01
     vertex -1.453421e-01  0.000000e+00  8.986711e-02
     vertex -1.453421e-01 -1.587302e-02  8.986711e-02
   endloop
 endfacet
 facet normal -5.144957e-01  0.000000e+00  8.574930e-01
   outer loop
     vertex  2.028216e-02 -1.587302e-02  1.892417e-01
     vertex  2.028216e-02  0.000000e+00  1.892417e-01
     vertex -1.453421e-01  0.000000e+00  8.986711e-02
   endloop
 endfacet
 facet normal  0.000000e+00  1.000000e+00  0.000000e+00
   outer loop
     vertex  4.425408e-02  0.000000e+00  1.748585e-01
     vertex -1.453421e-01  0.000000e+00  8.986711e-02
     vertex  2.028216e-02  0.000000e+00  1.892417e-01
   endloop
 endfacet
 facet normal  0.000000e+00  1.000000e+00  0.000000e+00
   outer loop
     vertex  3.084656e-01  0.000000e+00  2.932982e-01
     vertex  9.979217e-02  0.000000e+00  1.415357e-01
     vertex  4.425408e-02  0.000000e+00  1.748585e-01
   endloop
 endfacet
 facet normal  5.144957e-01  0.000000e+00  8.574929e-01
   outer loop
     vertex  4.425408e-02 -1.587302e-02  1.748585e-01
     vertex  2.028216e-02  0.000000e+00  1.892417e-01
     vertex  2.028216e-02 -1.587302e-02  1.892417e-01
   endloop
 endfacet
 facet normal  5.144957e-01 -0.000000e+00  8.574929e-01
   outer loop
     vertex  4.425408e-02 -1.587302e-02  1.748585e-01
     vertex  4.425408e-02  0.000000e+00  1.748585e-01
     vertex  2.028216e-02  0.000000e+00  1.892417e-01
   endloop
 endfacet
endsolid
